<?xml version="1.0" encoding="UTF-8"?><svg id="Line" xmlns="http://www.w3.org/2000/svg" viewBox="0 0 223.83 297"><defs><style>.cls-1{opacity:.24;}.cls-2{fill:#fff;stroke-width:0px;}</style></defs><g id="Arrow_6"><g id="Arrow_6_Lines"><path class="cls-2" d="M210.27,159.93c2.51,1.93,4.59,4.32,6.3,6.9,1.71,2.58,3.06,5.35,4.2,8.18,1.09,2.83,2.02,5.8,2.52,8.84.51,3.04.66,6.14.45,9.22-.42,6.16-2.33,12.18-5.41,17.5-3.07,5.32-7.28,9.98-12.27,13.57-4.98,3.6-10.78,6.1-16.87,7.13-6.08,1.05-12.42.56-18.28-1.31-2.93-.93-5.76-2.18-8.43-3.69-2.66-1.52-5.16-3.3-7.51-5.24-4.7-3.89-8.7-8.51-12.22-13.42-6.95-9.9-11.89-20.99-15.72-32.32-1.9-5.67-3.54-11.45-4.95-17.23-1.5-5.77-2.82-11.58-4.09-17.41-2.49-11.66-4.48-23.46-5.5-35.38l-.36-4.47-.2-4.49c-.09-1.49-.09-3-.09-4.5.01-1.5-.06-3,.03-4.5.12-6.01.74-12.04,2.13-17.97.04-.21.29-1,.65-2.21.2-.6.36-1.33.68-2.11.31-.78.65-1.66,1.02-2.6.43-.92.93-1.89,1.44-2.92.31-.49.62-.99.94-1.5.32-.51.64-1.04,1.05-1.51,1.45-2.03,3.53-3.89,5.98-5.06,2.45-1.18,5.35-1.41,7.75-.69,2.43.69,4.31,2.16,5.57,3.59.35.33.61.71.87,1.07.25.36.51.68.7,1.02.36.69.7,1.26.89,1.78.37,1.04.54,1.63.45,1.67-.09.04-.44-.49-.96-1.4-.27-.46-.68-.96-1.08-1.56-.21-.3-.5-.57-.76-.88-.27-.31-.54-.63-.9-.91-1.28-1.21-3.07-2.38-5.18-2.82-2.1-.47-4.45-.14-6.46.95-2,1.09-3.74,2.76-4.97,4.65-.35.43-.62.93-.89,1.41-.27.48-.54.94-.8,1.4-.43.97-.86,1.88-1.22,2.75-.31.89-.6,1.72-.86,2.47-.28.74-.4,1.44-.58,2.02-.3,1.16-.52,1.9-.56,2.11-1.33,5.65-1.93,11.5-2.05,17.37-.09,1.46-.02,2.94-.03,4.41,0,1.47,0,2.94.09,4.41l.2,4.41.35,4.41c1.01,11.76,2.97,23.45,5.44,35.03,1.26,5.78,2.57,11.56,4.07,17.3,1.4,5.77,3.01,11.43,4.89,17.03,3.76,11.15,8.61,22.01,15.34,31.58,3.4,4.74,7.24,9.18,11.71,12.87,2.23,1.84,4.59,3.52,7.09,4.95,2.51,1.42,5.15,2.58,7.88,3.45,5.46,1.74,11.3,2.18,16.94,1.22,5.64-.95,11.04-3.27,15.68-6.63,9.31-6.68,15.74-17.49,16.49-28.95.2-2.85.06-5.72-.42-8.54-.46-2.83-1.31-5.55-2.36-8.27-2.13-5.33-5.13-10.45-9.57-13.86-.3-.23-2.32-1.97-5.78-3.12-1.72-.56-3.81-.88-6.03-.74-2.21.12-4.55.74-6.58,1.88-1.01.56-1.95,1.26-2.68,2.07-.73.81-1.22,1.76-1.24,2.65,0,1.01.2,2.12.64,2.78.23.32.49.52.79.55.3.04.65-.07.95-.29.61-.43,1-1.14,1.15-1.78.17-.65.12-1.27.02-1.76-.22-.99-.61-1.5-.5-1.57.05-.04.6.34,1.05,1.4.21.53.38,1.25.27,2.08-.1.82-.46,1.76-1.3,2.5-.42.36-1,.67-1.71.65-.71,0-1.39-.44-1.8-.95-.42-.52-.66-1.12-.84-1.71-.17-.61-.29-1.17-.32-1.86-.05-1.46.61-2.79,1.44-3.84.85-1.07,1.9-1.93,3.04-2.65,2.27-1.43,4.89-2.25,7.41-2.5,2.53-.28,4.96,0,6.98.57,4.06,1.18,6.42,3.12,6.77,3.38Z"/><path class="cls-2" d="M15.29,162.2c-4.44,3.41-7.44,8.52-9.57,13.86-1.05,2.72-1.9,5.44-2.36,8.27-.48,2.82-.62,5.69-.42,8.54.75,11.46,7.18,22.27,16.49,28.95,4.65,3.36,10.04,5.68,15.68,6.63,5.64.97,11.48.52,16.94-1.22,2.73-.86,5.37-2.03,7.88-3.45,2.5-1.43,4.86-3.11,7.09-4.95,4.47-3.69,8.31-8.13,11.71-12.87,6.73-9.58,11.58-20.43,15.34-31.58,1.88-5.59,3.48-11.26,4.89-17.03,1.5-5.73,2.81-11.51,4.07-17.3,2.47-11.58,4.44-23.27,5.44-35.03l.35-4.41.2-4.41c.09-1.47.09-2.94.09-4.41-.01-1.47.06-2.94-.03-4.41-.12-5.87-.73-11.73-2.05-17.37-.04-.21-.25-.95-.56-2.11-.17-.57-.3-1.28-.58-2.02-.26-.74-.55-1.57-.86-2.47-.37-.87-.8-1.77-1.22-2.75-.26-.45-.53-.92-.8-1.4-.27-.48-.54-.97-.89-1.41-1.23-1.89-2.96-3.56-4.97-4.65-2.01-1.09-4.36-1.42-6.46-.95-2.11.45-3.9,1.61-5.18,2.82-.35.28-.63.6-.9.91-.26.31-.55.58-.76.88-.41.6-.82,1.1-1.08,1.56-.52.92-.86,1.44-.96,1.4-.09-.04.07-.63.45-1.67.19-.52.54-1.09.89-1.78.19-.34.45-.66.7-1.02.25-.36.52-.73.87-1.07,1.27-1.43,3.14-2.9,5.57-3.59,2.41-.72,5.3-.49,7.75.69,2.45,1.17,4.53,3.03,5.98,5.06.42.48.73,1,1.05,1.51.32.51.64,1.01.94,1.5.51,1.02,1.01,2,1.44,2.92.37.94.71,1.81,1.02,2.6.32.78.48,1.51.68,2.11.36,1.22.61,2,.65,2.21,1.39,5.93,2.01,11.96,2.13,17.97.09,1.5.02,3,.03,4.5,0,1.5,0,3-.09,4.5l-.2,4.49-.36,4.47c-1.02,11.93-3.01,23.72-5.5,35.38-1.27,5.83-2.59,11.64-4.09,17.41-1.41,5.78-3.04,11.56-4.95,17.23-3.82,11.34-8.77,22.42-15.72,32.32-3.52,4.91-7.52,9.53-12.22,13.42-2.35,1.94-4.85,3.71-7.51,5.24-2.67,1.51-5.49,2.76-8.43,3.69-5.86,1.87-12.2,2.35-18.28,1.31-6.09-1.02-11.89-3.53-16.87-7.13-4.99-3.59-9.2-8.25-12.27-13.57-3.08-5.32-4.99-11.34-5.41-17.5-.22-3.08-.06-6.18.45-9.22.5-3.04,1.43-6.01,2.52-8.84,1.14-2.83,2.49-5.6,4.2-8.18,1.71-2.58,3.79-4.97,6.3-6.9.34-.25,2.7-2.19,6.77-3.38,2.02-.57,4.45-.85,6.98-.57,2.52.26,5.14,1.07,7.41,2.5,1.13.71,2.19,1.58,3.04,2.65.83,1.05,1.5,2.38,1.44,3.84-.03.68-.15,1.24-.32,1.86-.18.59-.41,1.19-.84,1.71-.41.51-1.09.96-1.8.95-.71.02-1.29-.29-1.71-.65-.84-.74-1.2-1.68-1.3-2.5-.11-.83.06-1.55.27-2.08.44-1.07,1-1.45,1.05-1.4.11.07-.28.58-.5,1.57-.1.49-.15,1.1.02,1.76.16.64.54,1.35,1.15,1.78.3.22.65.33.95.29.3-.03.56-.23.79-.55.44-.66.65-1.77.64-2.78-.02-.89-.52-1.84-1.24-2.65-.73-.82-1.67-1.51-2.68-2.07-2.03-1.14-4.37-1.75-6.58-1.88-2.22-.14-4.31.18-6.03.74-3.46,1.15-5.47,2.89-5.78,3.12Z"/><path class="cls-2" d="M3.69,253.71l-.06-1.91c-.01-.64-.07-1.27.02-1.91l.33-3.81.76-3.75c.1-.63.33-1.23.53-1.84l.6-1.82c1.74-4.8,4.44-9.2,7.71-13.05,3.25-3.88,7.12-7.16,11.2-10.05,4.09-2.89,8.41-5.41,12.91-7.54,4.48-2.17,9.08-4.07,13.77-5.67,2.33-.86,4.71-1.54,7.07-2.3,2.39-.66,4.76-1.38,7.17-1.94,9.6-2.42,19.38-4.07,29.22-5.04.35-.04,4.6-.28,8.77-.24,4.17.04,8.23.41,8.23.79,0,.41-4.04.76-8.13,1.23-4.09.47-8.25,1.03-8.6,1.07-9.7.96-19.35,2.59-28.8,4.97-2.37.55-4.7,1.27-7.05,1.91-2.32.74-4.66,1.42-6.94,2.26-4.6,1.57-9.1,3.43-13.46,5.54-4.38,2.08-8.57,4.52-12.5,7.3-3.93,2.77-7.62,5.91-10.68,9.57-3.08,3.63-5.59,7.72-7.2,12.16l-.56,1.68c-.18.56-.4,1.11-.49,1.7l-.71,3.47-.3,3.53c-.08.59-.03,1.18-.02,1.77l.05,1.78c.03.17-.08,1.28.12,2.84.07.77.15,1.67.23,2.64.02.48.11.97.21,1.46.09.49.18.99.27,1.49.19,1,.32,2.01.54,2.93.24.92.46,1.78.62,2.52.34,1.49.5,2.51.32,2.58s-.69-.81-1.36-2.21c-.34-.7-.71-1.53-1.1-2.42-.36-.91-.64-1.92-.97-2.92-.16-.51-.31-1.02-.47-1.51-.16-.5-.31-1-.38-1.5-.19-1.01-.37-1.94-.52-2.75-.36-1.63-.34-2.83-.36-3.01Z"/><path class="cls-2" d="M12.77,256.7c2.18-3.48,4.83-6.62,7.75-9.45,2.94-2.81,6.13-5.32,9.47-7.59,3.33-2.28,6.84-4.28,10.43-6.09,1.78-.93,3.62-1.74,5.44-2.59,1.85-.77,3.69-1.59,5.57-2.28,14.99-5.74,30.8-9.03,46.74-10.34.28-.03,3.73-.14,7.1,0,3.37.09,6.65.5,6.65.86,0,.42-3.26.73-6.57,1.15-3.63.44-6.72.81-6.95.84-15.68,1.28-31.27,4.54-45.94,10.15-1.84.68-3.64,1.48-5.45,2.23-1.78.83-3.57,1.61-5.31,2.52-3.5,1.76-6.9,3.7-10.12,5.91-3.22,2.19-6.29,4.6-9.09,7.28-2.78,2.7-5.27,5.67-7.31,8.92-.07.12-.62.83-1.26,1.92-.32.54-.74,1.15-1.11,1.82-.35.66-.73,1.38-1.12,2.12-1.45,2.92-2.42,6.02-2.83,5.95-.36-.06-.08-3.4.96-6.7.3-.84.59-1.65.86-2.4.3-.76.66-1.45.94-2.06.55-1.24,1.07-2.04,1.15-2.17Z"/><path class="cls-2" d="M103.89,24.79c-5.32,14.15-10.56,28.33-15.4,42.65-4.95,14.28-9.37,28.73-13.43,43.26l-2.87,10.95c-.92,3.66-1.7,7.35-2.55,11.02-.9,3.66-1.53,7.38-2.24,11.08l-1.05,5.55-.82,5.59c-2.23,14.88-3.23,29.96-2.38,44.95,0,.26.06,1.99.14,4.49.11,2.47.43,5.65.63,8.82.05.78.11,1.57.16,2.36.09.76.18,1.52.26,2.26.17,1.47.31,2.83.42,4.01.22,2.35.29,3.92.09,3.96-.19.04-.63-1.47-1.19-3.77-.28-1.15-.58-2.5-.9-3.96-.16-.74-.32-1.49-.49-2.25-.12-.78-.25-1.57-.37-2.35-.46-3.17-1-6.37-1.25-8.87-.21-2.53-.35-4.28-.37-4.54-.86-15.22.16-30.5,2.41-45.53l.83-5.64,1.06-5.6c.72-3.73,1.36-7.48,2.26-11.17.86-3.7,1.65-7.41,2.57-11.09l2.88-11.01c4.08-14.61,8.51-29.12,13.48-43.43,4.85-14.36,10.1-28.57,15.43-42.74C101.54,22.74,111.2-.28,111.92,0c.75.3-7.71,23.76-8.02,24.79Z"/><path class="cls-2" d="M217.29,253.57l.05-1.78c.01-.59.07-1.19-.02-1.77l-.3-3.53-.71-3.47c-.09-.59-.31-1.14-.49-1.7l-.56-1.68c-1.61-4.44-4.12-8.53-7.2-12.16-3.06-3.66-6.75-6.8-10.68-9.57-3.93-2.78-8.12-5.22-12.5-7.3-4.36-2.11-8.86-3.97-13.46-5.54-2.28-.84-4.62-1.52-6.94-2.26-2.35-.64-4.68-1.36-7.05-1.91-9.45-2.38-19.1-4.01-28.8-4.97-.35-.04-4.5-.6-8.6-1.07-4.09-.47-8.13-.82-8.13-1.23,0-.38,4.06-.74,8.23-.79,4.17-.04,8.42.2,8.77.24,9.84.98,19.62,2.62,29.22,5.04,2.41.56,4.78,1.29,7.17,1.94,2.36.75,4.74,1.44,7.07,2.3,4.69,1.6,9.29,3.5,13.77,5.67,4.49,2.13,8.82,4.65,12.91,7.54,4.08,2.88,7.95,6.16,11.2,10.05,3.27,3.85,5.97,8.25,7.71,13.05l.6,1.82c.19.61.43,1.2.53,1.84l.76,3.75.33,3.81c.08.63.03,1.27.02,1.91l-.06,1.91c-.03.18,0,1.37-.36,3.01-.15.8-.33,1.73-.52,2.75-.08.5-.22,1-.38,1.5-.15.49-.31,1-.47,1.51-.33,1-.61,2.02-.97,2.92-.39.9-.77,1.73-1.1,2.42-.67,1.4-1.18,2.29-1.36,2.21s-.02-1.1.32-2.58c.17-.74.38-1.6.62-2.52.21-.93.34-1.94.54-2.93.09-.51.18-1,.27-1.49.1-.49.19-.98.21-1.46.09-.97.17-1.87.23-2.64.21-1.56.1-2.67.12-2.84Z"/><path class="cls-2" d="M208.65,258.22c-2.04-3.25-4.53-6.22-7.31-8.92-2.8-2.68-5.87-5.09-9.09-7.28-3.22-2.2-6.62-4.15-10.12-5.91-1.73-.91-3.53-1.7-5.31-2.52-1.81-.76-3.6-1.55-5.45-2.23-14.67-5.62-30.26-8.87-45.94-10.15-.23-.03-3.32-.4-6.95-.84-3.31-.42-6.57-.73-6.57-1.15,0-.37,3.28-.77,6.65-.86,3.37-.13,6.82-.03,7.1,0,15.94,1.3,31.75,4.6,46.74,10.34,1.88.7,3.72,1.51,5.57,2.28,1.82.85,3.66,1.65,5.44,2.59,3.59,1.81,7.1,3.81,10.43,6.09,3.34,2.27,6.53,4.78,9.47,7.59,2.92,2.83,5.56,5.98,7.75,9.45.07.13.59.93,1.15,2.17.28.62.64,1.3.94,2.06.27.75.56,1.56.86,2.4,1.04,3.3,1.32,6.64.96,6.7-.41.07-1.38-3.03-2.83-5.95-.39-.75-.77-1.46-1.12-2.12-.37-.67-.79-1.28-1.11-1.82-.63-1.09-1.19-1.8-1.26-1.92Z"/><path class="cls-2" d="M122.61,23.78c5.33,14.17,10.58,28.38,15.43,42.74,4.97,14.31,9.4,28.82,13.48,43.43l2.88,11.01c.93,3.68,1.71,7.4,2.57,11.09.9,3.69,1.54,7.44,2.26,11.17l1.06,5.6.83,5.64c2.25,15.03,3.27,30.31,2.41,45.53-.02.26-.16,2.01-.37,4.54-.26,2.49-.79,5.7-1.25,8.87-.12.78-.25,1.57-.37,2.35-.16.76-.33,1.51-.49,2.25-.32,1.46-.63,2.8-.9,3.96-.56,2.3-1,3.8-1.19,3.77-.19-.04-.12-1.61.09-3.96.11-1.17.25-2.54.42-4.01.09-.74.18-1.5.26-2.26.05-.78.11-1.57.16-2.36.2-3.17.52-6.35.63-8.82.08-2.5.13-4.23.14-4.49.85-15-.15-30.07-2.38-44.95l-.82-5.59-1.05-5.55c-.71-3.7-1.35-7.41-2.24-11.08-.86-3.67-1.63-7.36-2.55-11.02l-2.87-10.95c-4.06-14.54-8.48-28.98-13.43-43.26-4.83-14.32-10.08-28.5-15.4-42.65C119.62,23.76,111.17.3,111.92,0c.71-.28,10.38,22.74,10.7,23.78Z"/></g><g id="Arrow_6_Shape" class="cls-1"><path class="cls-2" d="M182.66,270.19c15.64-53.95-2.17-109.66-70.74-225.72C43.35,160.53,25.54,216.24,41.17,270.19c0,0,70.74,3.35,70.74,26.81,0-22.96,70.75-26.81,70.75-26.81Z"/></g></g></svg>