<?xml version="1.0" encoding="UTF-8"?><svg id="Line" xmlns="http://www.w3.org/2000/svg" viewBox="0 0 256.85 296"><defs><style>.cls-1{opacity:.24;}.cls-2{fill:#fff;stroke-width:0px;}</style></defs><g id="Arrow_8"><g id="Arrow_8_Lines"><path class="cls-2" d="M114.07,160.53c-8.3.81-16.55,2.34-24.35,5.14-3.92,1.34-7.63,3.19-11.21,5.21l-2.57,1.7-1.29.85c-.41.3-.8.64-1.21.95l-2.4,1.92-2.21,2.13c-2.84,2.93-5.44,6.14-7.37,9.75-1.97,3.58-3.47,7.42-4.5,11.4-2.04,7.96-2.14,16.4-.83,24.54.03.29.47,3.82,1.23,7.23.17.86.42,1.68.6,2.48.24.77.41,1.51.63,2.11.37,1.24.74,2,.56,2.14-.13.11-.85-.5-1.56-1.66-.39-.57-.72-1.27-1.12-2.03-.33-.77-.74-1.6-1.04-2.45-1.3-3.4-2.09-7.04-2.12-7.35-1.36-8.5-1.27-17.3.88-25.71,1.08-4.2,2.68-8.27,4.77-12.08,2.06-3.84,4.82-7.27,7.84-10.38l2.35-2.26,2.54-2.04c.43-.33.84-.69,1.28-1.01l1.35-.9,2.71-1.79c3.76-2.13,7.64-4.05,11.71-5.45,8.1-2.91,16.57-4.48,25.05-5.3.14,0,1.1-.04,2.55-.08.69-.01,1.49-.03,2.36-.05.42,0,.86-.01,1.31-.02.44.02.88.04,1.34.06,3.59.17,7.07.44,7.07.84,0,.39-3.47.83-6.99,1.18-.45.04-.89.08-1.32.12-.44.06-.87.12-1.28.18-.85.12-1.63.22-2.3.31-1.41.17-2.35.29-2.48.3Z"/><path class="cls-2" d="M143.06,157.69c8.48.82,16.95,2.39,25.05,5.3,4.07,1.39,7.95,3.32,11.71,5.45l2.71,1.79,1.35.9c.44.32.85.67,1.28,1.01l2.54,2.04,2.35,2.26c3.02,3.11,5.78,6.54,7.84,10.38,2.1,3.81,3.69,7.88,4.77,12.08,2.15,8.42,2.25,17.21.88,25.71-.03.3-.82,3.95-2.12,7.35-.3.85-.7,1.68-1.04,2.45-.4.76-.73,1.46-1.12,2.03-.71,1.16-1.44,1.78-1.56,1.66-.18-.14.19-.9.56-2.14.21-.6.39-1.35.63-2.11.18-.8.43-1.62.6-2.48.76-3.41,1.2-6.94,1.23-7.23,1.31-8.14,1.21-16.58-.83-24.54-1.03-3.97-2.53-7.81-4.5-11.4-1.93-3.61-4.53-6.82-7.37-9.75l-2.21-2.13-2.4-1.92c-.4-.32-.79-.65-1.21-.95l-1.29-.85-2.57-1.7c-3.58-2.02-7.29-3.87-11.21-5.21-7.8-2.81-16.05-4.34-24.35-5.14-.13-.02-1.07-.13-2.48-.3-.67-.09-1.45-.2-2.3-.31-.41-.06-.84-.12-1.28-.18-.43-.04-.87-.08-1.32-.12-3.52-.34-6.98-.79-6.99-1.18,0-.39,3.49-.67,7.07-.84.46-.02.91-.04,1.34-.06.45,0,.89.01,1.31.02.87.02,1.67.04,2.36.05,1.45.05,2.41.08,2.55.08Z"/><path class="cls-2" d="M253.04,136.12c1.84,4.86,2.86,9.88,3.42,14.95.53,5.07.6,10.23-.26,15.35-.43,2.55-1.12,5.11-2.27,7.53-1.12,2.42-2.84,4.72-5.21,6.3-2.39,1.55-5.31,2.17-8.02,1.98-2.73-.15-5.3-.89-7.71-1.87-2.42-.98-4.7-2.19-6.87-3.53-2.17-1.34-4.28-2.78-6.3-4.32-4.05-3.05-7.89-6.36-11.47-9.88l-5.47-5.21-1.36-1.3-1.29-1.38-2.58-2.76-5.15-5.51c-1.64-1.9-3.23-3.85-4.85-5.77l-2.42-2.89c-.8-.97-1.64-1.91-2.37-2.93l-4.53-6.03-2.26-3.02c-.77-1-1.43-2.07-2.14-3.1l-4.22-6.25c-1.45-2.06-2.71-4.23-4.02-6.38l-3.92-6.44c-1.24-2.18-2.42-4.4-3.64-6.6l-1.81-3.31-.9-1.65-.83-1.69c-2.18-4.53-4.54-8.97-6.48-13.61l-3.03-6.9-2.75-7.02-1.37-3.51c-.44-1.18-.83-2.37-1.24-3.56l-2.45-7.13c-.76-2.4-1.45-4.81-2.18-7.22l-1.08-3.61-.93-3.66c-.08-.34-.61-2.61-1.37-5.85-.36-1.61-.66-3.49-1.03-5.47-.33-1.99-.79-4.06-1.04-6.17C128.37,8.31,128.09.02,128.43,0c.44-.03,1.44,8.14,3.18,16.34.38,2.06.94,4.1,1.38,6.04.47,1.94.85,3.77,1.28,5.35.87,3.18,1.48,5.4,1.57,5.73l.92,3.61,1.07,3.57c.72,2.38,1.4,4.77,2.15,7.14l2.43,7.06c.41,1.17.79,2.36,1.23,3.52l1.36,3.48,2.72,6.95,3.01,6.83c1.91,4.6,4.25,8.99,6.41,13.48l.82,1.67.89,1.64,1.79,3.27c1.2,2.18,2.37,4.38,3.6,6.54l3.88,6.38c1.3,2.12,2.55,4.28,3.98,6.31l4.18,6.18c.71,1.02,1.36,2.08,2.12,3.07l2.24,2.98,4.48,5.97c.72,1.01,1.55,1.94,2.34,2.9l2.39,2.86c1.6,1.9,3.17,3.83,4.8,5.71l5.09,5.45,2.55,2.72,1.27,1.36,1.35,1.29,5.4,5.14c3.55,3.49,7.3,6.72,11.24,9.69,3.93,2.94,8.07,5.67,12.52,7.48,2.21.9,4.52,1.54,6.79,1.66,2.28.16,4.48-.35,6.3-1.52,1.8-1.21,3.22-3.03,4.2-5.14.99-2.1,1.63-4.42,2.03-6.79.8-4.75.75-9.7.24-14.56-.54-4.86-1.53-9.72-3.24-14.22-.06-.16-.28-.77-.67-1.67-.39-.9-.97-2.12-1.82-3.27-.22-.27-.45-.55-.7-.77-.12-.14-.25-.2-.37-.3-.12-.1-.35-.21-.52-.31-.72-.42-1.54-.81-2.24-.91-.72-.04-.96,0-1.25.64-.28.65-.28,1.65-.17,2.59.23,1.91.92,3.88,1.86,5.37.13.17.24.36.38.5.12.16.28.29.34.35.17.15.44.23.65.1l.14-.09c.06-.04.15-.09.21-.15.12-.13.26-.25.37-.38.1-.15.21-.28.3-.43.08-.16.16-.31.24-.46.53-1.29.48-2.61.45-3.48-.05-.89-.12-1.4-.03-1.43.09-.03.36.44.59,1.34.21.89.5,2.26.03,3.94-.07.21-.16.41-.24.63-.1.21-.23.41-.35.62-.14.2-.31.39-.48.58-.09.1-.18.16-.3.26-.13.1-.26.22-.4.3-.56.37-1.32.31-1.92-.07-.32-.21-.53-.38-.73-.58-.22-.19-.37-.41-.56-.62-1.29-1.73-2.14-3.77-2.57-6.01-.18-1.13-.33-2.31.1-3.64.22-.65.66-1.38,1.4-1.82.74-.42,1.51-.46,2.17-.43,1.3.14,2.28.6,3.18,1.05.23.13.43.21.68.37.24.16.51.32.7.5.43.35.76.71,1.07,1.07,1.18,1.45,1.84,2.78,2.32,3.76.47.98.73,1.63.79,1.81Z"/><path class="cls-2" d="M6.48,137.16c-1.71,4.5-2.71,9.36-3.24,14.22-.51,4.86-.57,9.81.24,14.56.4,2.37,1.04,4.69,2.03,6.79.98,2.1,2.39,3.93,4.2,5.14,1.82,1.17,4.03,1.68,6.3,1.52,2.27-.12,4.58-.76,6.79-1.66,4.45-1.81,8.59-4.54,12.52-7.48,3.93-2.97,7.69-6.2,11.24-9.69l5.4-5.14,1.35-1.29,1.27-1.36,2.55-2.72,5.09-5.45c1.63-1.88,3.2-3.81,4.8-5.71l2.39-2.86c.79-.96,1.62-1.89,2.34-2.9l4.48-5.97,2.24-2.98c.76-.98,1.41-2.05,2.12-3.07l4.18-6.18c1.44-2.03,2.68-4.19,3.98-6.31l3.88-6.38c1.23-2.16,2.4-4.36,3.6-6.54l1.79-3.27.89-1.64.82-1.67c2.16-4.48,4.5-8.88,6.41-13.48l3.01-6.83,2.72-6.95,1.36-3.48c.44-1.16.82-2.35,1.23-3.52l2.43-7.06c.75-2.37,1.43-4.76,2.15-7.14l1.07-3.57.92-3.61c.09-.33.7-2.55,1.57-5.73.43-1.58.81-3.42,1.28-5.35.43-1.94.99-3.98,1.38-6.04C126.99,8.14,127.98-.03,128.43,0c.34.02.05,8.31-1.2,16.69-.26,2.1-.71,4.18-1.04,6.17-.37,1.98-.67,3.86-1.03,5.47-.76,3.25-1.29,5.51-1.37,5.85l-.93,3.66-1.08,3.61c-.73,2.41-1.42,4.82-2.18,7.22l-2.45,7.13c-.42,1.19-.8,2.38-1.24,3.56l-1.37,3.51-2.75,7.02-3.03,6.9c-1.93,4.64-4.3,9.08-6.48,13.61l-.83,1.69-.9,1.65-1.81,3.31c-1.21,2.2-2.39,4.42-3.64,6.6l-3.92,6.44c-1.31,2.14-2.57,4.32-4.02,6.38l-4.22,6.25c-.72,1.03-1.37,2.11-2.14,3.1l-2.26,3.02-4.53,6.03c-.73,1.02-1.57,1.96-2.37,2.93l-2.42,2.89c-1.62,1.92-3.21,3.87-4.85,5.77l-5.15,5.51-2.58,2.76-1.29,1.38-1.36,1.3-5.47,5.21c-3.58,3.52-7.42,6.83-11.47,9.88-2.01,1.54-4.12,2.97-6.3,4.32-2.18,1.34-4.46,2.56-6.87,3.53-2.41.98-4.99,1.71-7.71,1.87-2.7.19-5.63-.43-8.02-1.98-2.37-1.58-4.09-3.88-5.21-6.3-1.15-2.43-1.84-4.98-2.27-7.53-.86-5.12-.79-10.28-.26-15.35.56-5.07,1.58-10.09,3.42-14.95.07-.17.32-.82.79-1.81.48-.98,1.14-2.31,2.32-3.76.31-.36.64-.72,1.07-1.07.19-.18.46-.34.7-.5.25-.16.45-.24.68-.37.9-.45,1.88-.92,3.18-1.05.66-.03,1.42,0,2.17.43.74.44,1.19,1.17,1.4,1.82.43,1.33.28,2.52.1,3.64-.43,2.24-1.29,4.28-2.57,6.01-.19.21-.34.42-.56.62-.2.2-.41.37-.73.58-.6.38-1.36.44-1.92.07-.14-.08-.27-.2-.4-.3-.11-.1-.21-.17-.3-.26-.16-.2-.33-.38-.48-.58-.12-.21-.25-.41-.35-.62-.08-.21-.17-.42-.24-.63-.47-1.69-.18-3.05.03-3.94.24-.9.5-1.37.59-1.34.1.03.02.54-.03,1.43-.03.87-.09,2.19.45,3.48.08.15.16.31.24.46.09.15.2.28.3.43.12.13.25.25.37.38.06.06.16.11.21.15l.14.09c.21.13.47.05.65-.1.06-.06.22-.19.34-.35.14-.14.25-.33.38-.5.94-1.49,1.63-3.46,1.86-5.37.11-.94.1-1.94-.17-2.59-.29-.65-.53-.69-1.25-.64-.7.1-1.52.49-2.24.91-.17.1-.39.21-.52.31-.12.11-.25.17-.37.3-.25.22-.48.5-.7.77-.86,1.15-1.43,2.37-1.82,3.27-.39.9-.61,1.51-.67,1.67Z"/><path class="cls-2" d="M117.96,278.14c-5.61-10.61-11.56-21.04-17.75-31.32-6.21-10.27-12.67-20.4-19.5-30.25-6.84-9.85-14.01-19.48-21.86-28.49-3.93-4.5-8.04-8.84-12.46-12.8-2.2-1.98-4.49-3.87-6.89-5.55-2.4-1.69-4.91-3.2-7.55-4.31-.09-.05-.45-.18-.99-.41-.54-.25-1.29-.5-2.18-.77-1.77-.5-4.15-.92-6.44-.45-2.29.43-4.35,1.7-5.72,2.87-.34.3-.67.56-.94.81-.26.27-.49.49-.69.68-.4.37-.67.56-.75.5-.08-.06.03-.36.29-.85.13-.25.3-.54.5-.88.22-.32.5-.66.8-1.05,1.21-1.5,3.35-3.26,6.02-4.05,2.66-.83,5.51-.57,7.56-.14,1.03.24,1.9.47,2.51.7.62.21,1.03.34,1.13.4,2.91,1.23,5.58,2.85,8.09,4.62,2.52,1.77,4.88,3.72,7.15,5.76,4.54,4.07,8.72,8.49,12.7,13.05,7.96,9.13,15.18,18.83,22.06,28.74,6.87,9.92,13.36,20.09,19.6,30.4,6.22,10.33,12.19,20.8,17.83,31.46.2.38,2.49,5.04,4.52,9.7,2.05,4.65,3.78,9.33,3.42,9.49-.36.16-2.72-4.2-5.23-8.59-2.62-4.64-5.05-8.93-5.24-9.27Z"/><path class="cls-2" d="M136.37,276.8c5.64-10.66,11.61-21.14,17.83-31.46,6.24-10.32,12.73-20.49,19.6-30.4,6.88-9.91,14.1-19.61,22.06-28.74,3.98-4.56,8.16-8.97,12.7-13.05,2.27-2.04,4.63-3.99,7.15-5.76,2.52-1.77,5.18-3.39,8.09-4.62.1-.06.51-.18,1.13-.4.61-.23,1.48-.46,2.51-.7,2.05-.43,4.9-.69,7.56.14,2.67.79,4.81,2.55,6.02,4.05.3.38.59.72.8,1.05.2.34.37.63.5.88.26.49.37.79.29.85-.08.06-.35-.13-.75-.5-.2-.18-.43-.41-.69-.68-.27-.25-.61-.51-.94-.81-1.37-1.18-3.43-2.45-5.72-2.87-2.28-.46-4.67-.05-6.44.45-.89.28-1.64.52-2.18.77-.55.23-.9.35-.99.41-2.64,1.11-5.15,2.63-7.55,4.31-2.4,1.69-4.69,3.57-6.89,5.55-4.42,3.96-8.53,8.3-12.46,12.8-7.85,9.01-15.02,18.64-21.86,28.49-6.83,9.86-13.29,19.98-19.5,30.25-6.2,10.28-12.14,20.72-17.75,31.32-.19.34-2.62,4.63-5.24,9.27-2.5,4.4-4.87,8.75-5.23,8.59-.36-.16,1.37-4.84,3.42-9.49,2.03-4.66,4.32-9.32,4.52-9.7Z"/><path class="cls-2" d="M20.05,128.91c4.08,3.05,8.59,5.63,13.2,7.95,1.16.58,2.32,1.14,3.49,1.68l.44.2.16-.44c1.04-2.5,2.62-4.87,4.33-6.94,1.72-2.1,3.63-4.01,5.66-5.76.99-.91,2.06-1.71,3.09-2.55,1.07-.79,2.12-1.61,3.22-2.35,4.37-3.03,8.97-5.69,13.7-8.04,9.48-4.68,19.46-8.29,29.7-10.89,10.23-2.57,20.76-4.15,31.38-4.18,10.62.03,21.14,1.61,31.38,4.18,10.23,2.6,20.21,6.2,29.7,10.89,4.74,2.35,9.33,5.01,13.7,8.04,1.1.74,2.15,1.57,3.22,2.35,1.03.85,2.1,1.65,3.09,2.55,2.03,1.74,3.93,3.66,5.66,5.76,1.71,2.07,3.29,4.45,4.33,6.94l.16.44.44-.2c1.17-.54,2.34-1.1,3.49-1.68,4.61-2.33,9.12-4.9,13.2-7.95.14-.11.69-.51,1.54-1.15.79-.68,1.94-1.55,3.09-2.72.63-.55,1.14-1.24,1.76-1.92.33-.33.53-.74.8-1.12.24-.4.56-.76.74-1.21.95-1.7,1.51-3.71,1.4-5.66-.13-1.95-1.11-3.74-2.58-4.81-1.46-1.1-3.3-1.42-4.82-1.28-1.53.13-2.79.55-3.65.89-.85.38-1.37.56-1.42.48s.36-.43,1.16-.99c.81-.53,2.09-1.16,3.78-1.48,1.68-.33,3.89-.18,5.84,1.06,1.96,1.19,3.41,3.48,3.71,5.94.29,2.45-.3,4.91-1.29,6.91-.19.53-.53.99-.8,1.46-.29.46-.53.96-.87,1.34-.64.8-1.22,1.61-1.86,2.23-1.21,1.34-2.38,2.3-3.22,3.06-.88.7-1.44,1.14-1.59,1.26-4.3,3.21-8.92,5.84-13.64,8.22-1.18.59-2.38,1.17-3.58,1.72l-1.35.61-1.79.77c-.2.16-.17-.13-.24-.22l-.14-.4-.29-.8-.58-1.6c-.97-2.34-2.34-4.36-3.94-6.32-1.6-1.94-3.39-3.75-5.33-5.42-.94-.86-1.97-1.63-2.96-2.44-1.03-.76-2.04-1.55-3.11-2.27-4.23-2.93-8.71-5.52-13.34-7.82-9.28-4.58-19.08-8.13-29.12-10.68-10.04-2.53-20.36-4.06-30.68-4.09-10.32.03-20.64,1.57-30.68,4.09-10.04,2.55-19.85,6.09-29.12,10.68-4.63,2.3-9.11,4.89-13.34,7.82-1.07.72-2.08,1.51-3.11,2.27-.99.81-2.02,1.58-2.96,2.44-1.94,1.66-3.73,3.48-5.33,5.42-1.6,1.96-2.97,3.98-3.94,6.32l-.58,1.6-.29.8-.14.4c-.07.1-.04.38-.24.22l-1.79-.77-1.35-.61c-1.2-.55-2.4-1.13-3.58-1.72-4.72-2.39-9.34-5.01-13.64-8.22-.15-.12-.71-.56-1.59-1.26-.83-.76-2-1.72-3.22-3.06-.65-.62-1.22-1.43-1.86-2.23-.34-.38-.58-.88-.87-1.34-.27-.48-.6-.93-.8-1.46-.98-2-1.57-4.46-1.29-6.91.29-2.45,1.75-4.75,3.71-5.94,1.95-1.23,4.16-1.38,5.84-1.06,1.7.32,2.97.96,3.78,1.48.8.56,1.21.91,1.16.99s-.57-.1-1.42-.48c-.86-.34-2.12-.76-3.65-.89-1.52-.14-3.36.18-4.82,1.28-1.47,1.07-2.46,2.87-2.58,4.81-.11,1.95.46,3.96,1.4,5.66.18.45.5.82.74,1.21.27.38.47.78.8,1.12.61.68,1.13,1.37,1.76,1.92,1.15,1.17,2.29,2.04,3.09,2.72.85.63,1.4,1.04,1.54,1.15Z"/></g><g id="Arrow_8_Shape" class="cls-1"><path class="cls-2" d="M128.43,33.25c-2.88,35.91-23.93,94.34-68.68,134.46-1.21,1.09-2.38,2.09-3.52,3.03,25.72,17.93,61.6,80.83,72.2,104.27,10.6-23.45,46.48-86.34,72.2-104.27-1.14-.94-2.31-1.94-3.52-3.03-44.75-40.13-65.8-98.55-68.68-134.46Z"/></g></g></svg>