<?xml version="1.0" encoding="UTF-8"?><svg id="Line" xmlns="http://www.w3.org/2000/svg" viewBox="0 0 234.79 306.02"><defs><style>.cls-1{opacity:.24;}.cls-2{fill:#fff;stroke-width:0px;}</style></defs><g id="Arrow_1"><g id="Arrow_1_Lines"><path class="cls-2" d="M160.98,242.46c3.68-6.45,5.45-13.9,6.08-21.38.61-7.51.21-15.12-.83-22.65-2.07-15.07-6.31-29.83-11.36-44.24-5.09-14.41-11.09-28.51-17.63-42.36-3.26-6.92-6.68-13.78-10.2-20.58-1.76-3.4-3.55-6.79-5.37-10.16l-2.75-5.04-1.39-2.51-.15-.27h0s0,0,0,0h0s0,0,0,0l-.15.27-1.39,2.51-2.75,5.04c-1.82,3.37-3.61,6.76-5.37,10.16-3.52,6.8-6.93,13.66-10.2,20.58-6.54,13.84-12.53,27.94-17.63,42.36-5.04,14.41-9.29,29.17-11.36,44.24-1.04,7.52-1.44,15.14-.83,22.65.63,7.48,2.39,14.94,6.08,21.38.3.43,1.85,3.56,5.16,7.15,3.23,3.66,8.52,7.36,14.41,9.71,5.89,2.34,12.17,3.53,16.88,4.07,2.36.24,4.33.46,5.71.54,1.38.12,2.17.23,2.17.33s-.79.18-2.18.24c-1.39.1-3.39.06-5.79-.01-4.8-.2-11.26-1.1-17.5-3.29-3.11-1.11-6.12-2.58-8.79-4.27-2.69-1.67-4.98-3.64-6.81-5.51-3.68-3.76-5.42-7.09-5.74-7.55-3.95-6.93-5.79-14.79-6.44-22.55-.63-7.79-.21-15.6.85-23.27,2.11-15.37,6.41-30.27,11.49-44.81,5.14-14.53,11.17-28.72,17.74-42.63,3.28-6.96,6.71-13.85,10.24-20.68,1.77-3.42,3.56-6.81,5.39-10.2l2.76-5.06,4.04-7.29,4.04,7.29,2.76,5.06c1.83,3.38,3.62,6.78,5.39,10.2,3.53,6.83,6.96,13.72,10.24,20.68,6.57,13.91,12.6,28.09,17.74,42.63,5.08,14.54,9.38,29.44,11.49,44.81,1.05,7.67,1.48,15.48.85,23.27-.65,7.76-2.49,15.62-6.44,22.55-.32.46-2.06,3.79-5.74,7.55-1.83,1.87-4.11,3.84-6.81,5.51-2.67,1.69-5.68,3.16-8.79,4.27-6.24,2.19-12.7,3.08-17.5,3.29-2.41.08-4.4.11-5.79.01-1.39-.06-2.18-.15-2.18-.24,0-.1.79-.21,2.17-.33,1.38-.09,3.35-.3,5.71-.54,4.71-.54,10.98-1.73,16.88-4.07,5.89-2.35,11.18-6.05,14.41-9.71,3.32-3.59,4.86-6.72,5.16-7.15Z"/><path class="cls-2" d="M18.41,244.73c-.06-10.23,1.98-20.15,4.48-29.86,2.59-9.7,5.81-19.2,9.5-28.51,3.71-9.3,7.79-18.45,12.56-27.3,1.23-2.18,2.4-4.41,3.69-6.56l3.89-6.43,4.07-6.31c1.36-2.1,2.8-4.14,4.19-6.22,5.66-8.24,11.55-16.29,17.37-24.37,5.81-8.08,11.59-16.18,16.8-24.6,5.18-8.42,9.88-17.17,13.02-26.48,3.16-9.37,5.7-18.97,7.08-28.72.05-.68,1.59-9.09,1.12-17.34-.12-2.05-.36-4.08-.77-5.93-.41-1.82-.99-3.54-1.87-4.57-.44-.51-.91-.72-1.35-.6-.43.15-.82.51-1.06.85-.27.33-.44.63-.57.84-.14.2-.23.3-.28.29s-.04-.15,0-.4c.05-.25.14-.6.36-1.03.2-.42.53-.97,1.25-1.34.36-.17.85-.22,1.28-.08.22.07.45.14.62.28.18.12.39.24.53.4,1.29,1.23,2.02,3.03,2.63,4.94.59,1.93.98,4.04,1.24,6.16,1.01,8.54-.26,17.21-.3,17.91-1.41,9.99-4,19.74-7.2,29.25-3.24,9.61-8.05,18.54-13.29,27.07-5.28,8.53-11.09,16.67-16.91,24.77-5.83,8.09-11.71,16.12-17.34,24.31-1.39,2.06-2.81,4.1-4.16,6.17l-4.04,6.25-3.85,6.36c-1.28,2.12-2.42,4.32-3.64,6.47-4.69,8.69-8.74,17.78-12.41,26.99-3.66,9.22-6.84,18.62-9.39,28.18-2.46,9.55-4.44,19.35-4.38,29.09.03.34-.04,2.62.33,5.76.18,1.54.6,3.31,1.18,5.14.59,1.82,1.38,3.72,2.44,5.35.52.82,1.16,1.53,1.84,2,.34.24.7.39,1.04.44.35.08.75.05,1-.06.53-.18.83-.91.8-1.6,0-.19-.02-.27-.06-.39-.03-.12-.13-.2-.21-.27-.26-.23-.57-.39-.87-.52-.66-.21-1.12-.26-1.54-.06-.46.19-.52.7-.4,1.02.22.65.67,1.08.56,1.15-.03.04-.16-.02-.37-.16-.11-.07-.24-.16-.37-.32-.14-.15-.31-.33-.42-.57-.08-.12-.12-.25-.15-.4-.05-.15-.05-.3-.03-.47.04-.32.21-.67.53-.89.6-.51,1.7-.57,2.51-.36.43.12.87.3,1.27.58.56.27.83.97.89,1.53.07.55.04,1.11-.17,1.69-.2.57-.65,1.16-1.27,1.48-.62.33-1.27.4-1.9.33-.65-.05-1.27-.28-1.79-.59-1.06-.62-1.88-1.48-2.55-2.38-1.35-1.81-2.29-3.81-3.03-5.73-.72-1.93-1.27-3.82-1.55-5.52-.55-3.36-.55-5.75-.58-6.11Z"/><path class="cls-2" d="M8.12,155.22c-.26,1.17-.37,2.36-.35,3.56.03,1.2.21,2.41.48,3.6.59,2.39,1.56,4.71,2.93,6.66,1.42,1.92,3.28,3.46,5.49,4.41,2.19.98,4.65,1.38,7.14,1.47,5,.1,10.08-1.05,14.97-2.63,4.9-1.61,9.67-3.69,14.32-6.02,9.3-4.68,18.14-10.32,26.62-16.41,8.47-6.12,16.6-12.73,24.21-19.87.27-.26,3.66-3.2,6.88-6.2,3.25-2.97,6.27-6.06,6.58-5.81.3.24-2.2,3.83-5.12,7.21-2.89,3.41-6.11,6.63-6.38,6.89-7.72,7.24-15.93,13.92-24.5,20.11-8.58,6.17-17.52,11.87-27.01,16.65-4.74,2.38-9.63,4.51-14.72,6.18-5.08,1.64-10.4,2.88-15.94,2.77-2.75-.1-5.58-.54-8.2-1.71-2.64-1.12-4.96-3.03-6.65-5.35-1.66-2.35-2.73-4.97-3.4-7.68-.31-1.37-.52-2.77-.55-4.2-.02-1.42.11-2.86.42-4.26.06-.19.35-1.52,1.18-3.2.82-1.68,2.22-3.65,3.91-5.25,3.37-3.26,7.6-4.86,7.75-4.47.08.18-.82.79-2.07,1.8-1.26,1-2.86,2.42-4.21,4.05-1.36,1.63-2.41,3.46-2.98,4.94-.59,1.48-.75,2.59-.8,2.75Z"/><path class="cls-2" d="M213.52,244.68c.06-9.74-1.92-19.54-4.38-29.09-2.56-9.56-5.74-18.96-9.39-28.18-3.68-9.21-7.73-18.29-12.41-26.99-1.22-2.15-2.36-4.35-3.64-6.47l-3.85-6.36-4.04-6.25c-1.35-2.08-2.78-4.11-4.16-6.17-5.62-8.19-11.5-16.22-17.34-24.31-5.82-8.1-11.63-16.24-16.91-24.77-5.25-8.53-10.05-17.46-13.29-27.07-3.2-9.5-5.79-19.25-7.2-29.25-.05-.7-1.31-9.37-.3-17.91.26-2.13.65-4.23,1.24-6.16.61-1.91,1.34-3.71,2.63-4.94.14-.16.36-.28.53-.4.17-.13.4-.21.62-.28.43-.14.92-.09,1.28.08.72.36,1.05.91,1.25,1.34.22.43.31.78.36,1.03.05.24.05.38,0,.4s-.14-.09-.28-.29c-.13-.2-.3-.5-.57-.84-.24-.34-.63-.71-1.06-.85-.44-.12-.91.09-1.35.6-.88,1.03-1.46,2.74-1.87,4.57-.41,1.84-.64,3.88-.77,5.93-.47,8.25,1.08,16.66,1.12,17.34,1.38,9.75,3.92,19.35,7.08,28.72,3.14,9.31,7.84,18.06,13.02,26.48,5.21,8.42,10.98,16.52,16.8,24.6,5.82,8.08,11.72,16.13,17.37,24.37,1.4,2.07,2.83,4.12,4.19,6.22l4.07,6.31,3.89,6.43c1.29,2.15,2.45,4.37,3.69,6.56,4.77,8.85,8.85,18,12.56,27.3,3.69,9.31,6.91,18.81,9.5,28.51,2.49,9.71,4.53,19.64,4.48,29.86-.03.37-.04,2.75-.58,6.11-.28,1.71-.82,3.59-1.55,5.52-.74,1.93-1.68,3.92-3.03,5.73-.67.9-1.48,1.76-2.55,2.38-.52.31-1.14.54-1.79.59-.63.06-1.27,0-1.9-.33-.62-.32-1.07-.9-1.27-1.48-.21-.58-.24-1.15-.17-1.69.06-.56.33-1.26.89-1.53.4-.28.84-.45,1.27-.58.81-.21,1.92-.15,2.51.36.32.22.5.57.53.89.02.17.02.32-.03.47-.03.15-.07.28-.15.4-.11.25-.28.43-.42.57-.13.16-.26.24-.37.32-.21.14-.33.2-.37.16-.1-.07.34-.5.56-1.15.12-.31.06-.83-.4-1.02-.42-.2-.88-.15-1.54.06-.3.13-.61.28-.87.52-.08.07-.18.15-.21.27-.04.12-.05.2-.06.39-.03.7.27,1.43.8,1.6.25.11.65.14,1,.06.35-.05.7-.21,1.04-.44.68-.47,1.32-1.18,1.84-2,1.06-1.63,1.85-3.53,2.44-5.35.58-1.83,1-3.6,1.18-5.14.37-3.14.3-5.41.33-5.76Z"/><path class="cls-2" d="M229.45,154.59c.31,1.4.44,2.83.42,4.26-.04,1.42-.24,2.83-.55,4.2-.67,2.71-1.74,5.32-3.4,7.68-1.69,2.31-4.02,4.22-6.65,5.35-2.62,1.17-5.45,1.61-8.2,1.71-5.53.1-10.86-1.13-15.94-2.77-5.09-1.67-9.97-3.81-14.72-6.18-9.48-4.78-18.43-10.48-27.01-16.65-8.57-6.19-16.78-12.87-24.5-20.11-.27-.26-3.49-3.48-6.38-6.89-2.92-3.38-5.43-6.96-5.12-7.21.31-.25,3.33,2.84,6.58,5.81,3.22,3,6.61,5.95,6.88,6.2,7.62,7.14,15.75,13.75,24.21,19.87,8.48,6.1,17.32,11.73,26.62,16.41,4.65,2.33,9.42,4.41,14.32,6.02,4.89,1.59,9.97,2.73,14.97,2.63,2.48-.09,4.95-.49,7.14-1.47,2.21-.94,4.07-2.48,5.49-4.41,1.38-1.95,2.34-4.27,2.93-6.66.27-1.19.44-2.4.48-3.6.01-1.2-.1-2.4-.35-3.56-.05-.16-.21-1.27-.8-2.75-.57-1.48-1.62-3.32-2.98-4.94-1.35-1.63-2.95-3.05-4.21-4.05-1.26-1.01-2.15-1.62-2.07-1.8.15-.39,4.39,1.21,7.75,4.47,1.69,1.59,3.09,3.56,3.91,5.25.84,1.68,1.13,3,1.18,3.2Z"/><path class="cls-2" d="M102.02,217.08c-4.47.12-8.94.15-13.4.36l-6.7.26-6.69.38c-4.46.22-8.91.63-13.36.97-4.44.46-8.88.87-13.29,1.48-8.82,1.17-17.62,2.72-26.09,5.21-4.19,1.33-8.35,2.85-12.06,5.01l-1.38.82c-.44.3-.85.63-1.28.94-.89.59-1.58,1.35-2.34,2.05-1.35,1.51-2.35,3.25-2.54,5.1,0,.07-.09.31-.07.7,0,.39-.06.92.08,1.54.16,1.25.78,2.88,1.77,4.34.98,1.47,2.25,2.76,3.28,3.63,1.03.87,1.81,1.36,1.73,1.56-.06.17-1.03.02-2.34-.63-1.31-.64-2.91-1.8-4.26-3.31-1.36-1.49-2.37-3.4-2.76-5.05-.25-.81-.26-1.55-.3-2.09-.06-.54.02-.89.03-.98.28-2.64,1.66-4.94,3.29-6.74.88-.82,1.72-1.72,2.7-2.38.48-.35.95-.72,1.43-1.05l1.5-.9c4.04-2.35,8.35-3.91,12.68-5.28,8.72-2.57,17.63-4.12,26.55-5.31,4.46-.62,8.94-1.03,13.41-1.49,4.48-.33,8.96-.76,13.44-.97l6.72-.38,6.73-.26c4.48-.21,8.97-.25,13.46-.37.64-.08,15.43.51,15.43,1.28,0,.8-14.74,1.5-15.38,1.57Z"/><path class="cls-2" d="M132.82,214.22c4.49.12,8.97.15,13.46.37l6.73.26,6.72.38c4.48.22,8.96.64,13.44.97,4.47.46,8.95.87,13.41,1.49,8.92,1.19,17.83,2.74,26.55,5.31,4.33,1.37,8.65,2.94,12.68,5.28l1.5.9c.49.33.96.7,1.43,1.05.98.66,1.82,1.55,2.7,2.38,1.63,1.8,3.01,4.1,3.29,6.74,0,.09.09.44.03.98-.04.54-.05,1.28-.3,2.09-.39,1.65-1.4,3.56-2.76,5.05-1.34,1.51-2.95,2.67-4.26,3.31-1.31.65-2.29.8-2.34.63-.07-.2.7-.69,1.73-1.56,1.03-.87,2.3-2.16,3.28-3.63,1-1.46,1.61-3.09,1.77-4.34.14-.62.08-1.15.08-1.54.02-.39-.07-.63-.07-.7-.2-1.85-1.19-3.59-2.54-5.1-.76-.69-1.45-1.46-2.34-2.05-.43-.31-.84-.64-1.28-.94l-1.38-.82c-3.71-2.16-7.87-3.68-12.06-5.01-8.47-2.5-17.27-4.04-26.09-5.21-4.41-.61-8.86-1.02-13.29-1.48-4.45-.33-8.89-.75-13.36-.97l-6.69-.38-6.7-.26c-4.46-.21-8.93-.25-13.4-.36-.63-.08-15.37-.77-15.38-1.57,0-.77,14.78-1.36,15.43-1.28Z"/><path class="cls-2" d="M96.9,262.39c2.72,2.11,5.25,4.44,7.52,6.98,1.19,1.23,2.22,2.58,3.32,3.89l1.53,2.04c.52.67,1.01,1.37,1.47,2.09,1.95,2.8,3.63,5.79,5.08,8.9.34.79.73,1.56,1.02,2.37l.44,1.22.11.31s0-.01,0-.01h0s0,0,0,0c0,0,0,.02,0,.01l.11-.31.44-1.22c.29-.82.68-1.58,1.02-2.37,1.45-3.11,3.13-6.1,5.08-8.9.46-.72.95-1.41,1.47-2.09l1.53-2.04c1.1-1.3,2.14-2.66,3.32-3.89,2.27-2.54,4.8-4.87,7.52-6.98.1-.07.77-.52,1.72-1.14.47-.32,1.07-.59,1.68-.93.62-.31,1.24-.68,1.93-.95,2.68-1.19,5.53-1.61,5.6-1.27.1.42-2.39,1.49-4.64,3.04-.58.36-1.11.81-1.64,1.19-.52.4-1.03.72-1.43,1.08-.81.7-1.39,1.18-1.49,1.25-2.56,1.98-4.97,4.2-7.15,6.64-1.14,1.18-2.13,2.48-3.19,3.73l-1.47,1.96c-.5.65-.97,1.32-1.42,2.01-1.87,2.69-3.47,5.55-4.85,8.48-.32.74-.69,1.47-.96,2.23l-.41,1.13-.32.88c-.14.42-.24.81-.35,1.31l-1.17,6.7-.95,6.27-.95-6.27-1.17-6.7c-.11-.5-.21-.89-.35-1.31l-.32-.88-.41-1.13c-.27-.76-.64-1.48-.96-2.23-1.37-2.93-2.98-5.8-4.85-8.48-.44-.69-.91-1.36-1.42-2.01l-1.47-1.96c-1.05-1.25-2.05-2.55-3.19-3.73-2.18-2.44-4.59-4.65-7.15-6.64-.09-.07-.67-.55-1.49-1.25-.4-.36-.91-.68-1.43-1.08-.53-.37-1.06-.83-1.64-1.19-2.25-1.55-4.75-2.62-4.64-3.04.07-.34,2.92.08,5.6,1.27.68.27,1.31.64,1.93.95.61.33,1.21.61,1.68.93.95.61,1.62,1.06,1.72,1.14Z"/></g><g id="Arrow_1_Shape" class="cls-1"><path class="cls-2" d="M184.5,192.41c-17.06-43.18-49.35-78.78-59.9-115.5-9.18-31.94-7.96-51.75-5.19-58.48h-4.03c2.77,6.73,3.98,26.54-5.19,58.48-10.55,36.72-42.83,72.32-59.9,115.5-13.27,33.58-20.89,67.33-18.45,85.09.74,5.4,8.79,13.19,8.98,12.29,0-32.07,153.14-32.07,153.14,0,.19.9,8.24-6.89,8.98-12.29,2.44-17.76-5.18-51.5-18.45-85.09Z"/></g></g></svg>