<?xml version="1.0" encoding="UTF-8"?><svg id="Line" xmlns="http://www.w3.org/2000/svg" viewBox="0 0 235.79 286"><defs><style>.cls-1{opacity:.24;}.cls-2{fill:#fff;stroke-width:0px;}</style></defs><g id="Arrow_5"><g id="Arrow_5_Lines"><path class="cls-2" d="M161.63,240.48c3.71-6.45,5.5-13.91,6.14-21.41.62-7.53.22-15.16-.82-22.69-2.08-15.1-6.34-29.89-11.4-44.33-5.12-14.44-11.14-28.56-17.71-42.43-3.28-6.94-6.71-13.8-10.24-20.61-1.77-3.41-3.57-6.8-5.39-10.17l-2.76-5.05-1.39-2.52-.16-.28h0s0,0,0,0h0s0,0,0,0h0s-.16.28-.16.28l-1.39,2.52-2.76,5.05c-1.83,3.38-3.62,6.77-5.39,10.17-3.54,6.81-6.96,13.68-10.24,20.61-6.57,13.86-12.59,27.99-17.71,42.43-5.07,14.44-9.33,29.22-11.4,44.33-1.04,7.54-1.44,15.17-.82,22.69.64,7.5,2.42,14.96,6.14,21.41.29.43,1.86,3.56,5.2,7.15,1.66,1.78,3.74,3.69,6.24,5.34,2.47,1.67,5.29,3.16,8.23,4.35,5.91,2.33,12.2,3.52,16.92,4.05,2.37.24,4.34.46,5.73.54,1.38.12,2.18.23,2.18.33s-.79.18-2.19.24c-1.4.1-3.4.06-5.81-.01-4.81-.2-11.29-1.1-17.54-3.27-3.11-1.11-6.13-2.57-8.82-4.26-2.71-1.66-5-3.64-6.84-5.5-3.69-3.75-5.46-7.09-5.77-7.55-3.99-6.93-5.84-14.81-6.5-22.58-.64-7.81-.22-15.64.84-23.32,2.12-15.4,6.43-30.33,11.54-44.9,5.16-14.56,11.22-28.77,17.82-42.7,3.29-6.97,6.74-13.87,10.29-20.71,1.77-3.42,3.58-6.82,5.41-10.21l2.77-5.07,4.05-7.29,4.05,7.29,2.77,5.07c1.83,3.39,3.64,6.79,5.41,10.21,3.55,6.84,6.99,13.74,10.29,20.71,6.6,13.93,12.66,28.14,17.82,42.7,5.11,14.56,9.42,29.5,11.54,44.9,1.06,7.69,1.48,15.51.84,23.32-.66,7.78-2.52,15.65-6.5,22.58-.31.46-2.08,3.79-5.77,7.55-1.84,1.86-4.13,3.84-6.84,5.5-2.69,1.69-5.71,3.15-8.82,4.26-6.25,2.18-12.73,3.07-17.54,3.27-2.41.08-4.41.11-5.81.01-1.4-.06-2.19-.14-2.19-.24,0-.1.79-.21,2.18-.33,1.39-.09,3.36-.3,5.73-.54,4.72-.53,11.01-1.73,16.92-4.05,2.94-1.19,5.76-2.68,8.23-4.35,2.5-1.65,4.57-3.56,6.24-5.34,3.33-3.59,4.9-6.72,5.2-7.15Z"/><path class="cls-2" d="M133.29,43.97c9.23,25.46,19.35,50.62,30.2,75.43,5.44,12.4,11.08,24.72,17.05,36.86,5.98,12.14,12.23,24.15,19.25,35.67,3.52,5.74,7.24,11.38,11.47,16.53,2.13,2.54,4.4,4.99,6.96,6.88l.49.33s0,0,0,0l.17-.09c.7-.37,1.38-.8,2.05-1.24,1.33-.9,2.56-1.93,3.67-3.07,2.2-2.28,3.82-5.06,4.36-8.1.57-3.03.09-6.23-1.07-9.2-.57-1.47-1.29-2.84-2.26-3.97-.96-1.13-2.16-1.98-3.53-2.48-1.37-.5-2.89-.67-4.44-.6-1.55.09-3.13.4-4.68.83-3.11.88-6.13,2.27-9.05,3.85-2.92,1.58-5.76,3.36-8.53,5.25-5.53,3.79-10.81,8-15.93,12.38-10.25,8.78-19.93,18.24-29.33,27.97-.68.69-8.86,8.97-16.66,17.29-3.81,4.08-7.62,8.16-10.63,11.38-2.88,3.08-4.82,5.1-4.97,4.98-.15-.12,1.5-2.39,4.13-5.7,2.63-3.31,6.24-7.67,9.97-12.01,7.44-8.69,15.42-17.23,16.1-17.92,9.44-9.77,19.18-19.29,29.53-28.16,5.18-4.43,10.52-8.69,16.18-12.57,2.83-1.94,5.74-3.77,8.78-5.41,3.04-1.64,6.22-3.11,9.63-4.08,1.71-.48,3.48-.84,5.31-.94,1.83-.08,3.75.1,5.57.77,1.82.66,3.47,1.83,4.71,3.29,1.25,1.45,2.11,3.13,2.77,4.81,1.29,3.32,1.89,7.09,1.2,10.74-.65,3.67-2.61,6.98-5.11,9.56-1.26,1.3-2.64,2.44-4.12,3.45-.74.5-1.5.97-2.3,1.4-.12.07-.6.31-.96.48-.38.11-.77.54-1.12.14-.35-.21-.71-.47-1.05-.68l-.57-.38c-2.9-2.15-5.27-4.73-7.49-7.37-4.38-5.33-8.15-11.05-11.71-16.86-7.1-11.65-13.37-23.72-19.38-35.9-5.99-12.19-11.65-24.54-17.1-36.98-10.88-24.88-21.01-50.08-30.27-75.61-.32-.91-4.17-11.94-7.45-22.91-1.65-5.48-3.14-10.95-4.09-15.08C118.1,2.82,117.71.04,117.89,0c.2-.04.96,2.65,2.25,6.66,1.28,4.02,3.05,9.37,4.94,14.75,3.75,10.77,7.89,21.65,8.21,22.56Z"/><path class="cls-2" d="M105.18,44.94c-9.26,25.53-19.39,50.73-30.27,75.61-5.46,12.43-11.11,24.78-17.1,36.98-6.01,12.19-12.28,24.26-19.38,35.9-3.57,5.81-7.33,11.53-11.71,16.86-2.22,2.64-4.58,5.22-7.49,7.37l-.57.38c-.33.22-.7.48-1.05.68-.34.39-.74-.03-1.12-.14-.36-.17-.84-.42-.96-.48-.8-.43-1.56-.89-2.3-1.4-1.48-1.01-2.86-2.15-4.12-3.45-2.5-2.58-4.46-5.89-5.11-9.56-.69-3.66-.09-7.42,1.2-10.74.66-1.68,1.52-3.36,2.77-4.81,1.23-1.46,2.89-2.63,4.71-3.29,1.82-.67,3.74-.86,5.57-.77,1.84.1,3.6.46,5.31.94,3.42.97,6.59,2.45,9.63,4.08,3.04,1.64,5.96,3.47,8.78,5.41,5.65,3.88,11,8.14,16.18,12.57,10.35,8.87,20.09,18.39,29.53,28.16.68.69,8.67,9.23,16.1,17.92,3.73,4.34,7.34,8.69,9.97,12.01,2.63,3.31,4.28,5.58,4.13,5.7-.15.13-2.09-1.89-4.97-4.98-3.01-3.22-6.81-7.3-10.63-11.38-7.8-8.32-15.98-16.6-16.66-17.29-9.4-9.73-19.08-19.19-29.33-27.97-5.13-4.38-10.4-8.59-15.93-12.38-2.76-1.9-5.6-3.68-8.53-5.25-2.92-1.57-5.94-2.96-9.05-3.85-1.55-.43-3.12-.75-4.68-.83-1.55-.07-3.07.1-4.44.6-1.37.5-2.57,1.35-3.53,2.48-.97,1.13-1.69,2.5-2.26,3.97-1.15,2.98-1.63,6.17-1.07,9.2.54,3.04,2.16,5.82,4.36,8.1,1.1,1.14,2.34,2.17,3.67,3.07.66.45,1.35.87,2.05,1.24l.17.09s0,0,0,0l.49-.33c2.55-1.89,4.83-4.34,6.96-6.88,4.23-5.15,7.95-10.78,11.47-16.53,7.02-11.52,13.27-23.54,19.25-35.67,5.97-12.15,11.61-24.46,17.05-36.86,10.86-24.82,20.97-49.97,30.2-75.43.32-.91,4.46-11.8,8.21-22.56,1.89-5.38,3.66-10.73,4.94-14.75C116.94,2.65,117.69-.04,117.89,0c.18.04-.21,2.82-1.18,6.95-.95,4.13-2.44,9.6-4.09,15.08-3.27,10.97-7.12,22-7.45,22.91Z"/><path class="cls-2" d="M102.41,249.8c-4.5-.12-9.01-.15-13.51-.37l-6.75-.26-6.75-.38c-4.5-.22-9-.64-13.49-.97-4.49-.46-8.98-.87-13.46-1.49-8.95-1.19-17.9-2.74-26.65-5.31-4.35-1.37-8.69-2.94-12.74-5.28l-1.51-.9c-.49-.32-.96-.7-1.44-1.05-.99-.66-1.83-1.55-2.72-2.38-1.64-1.8-3.04-4.1-3.32-6.75,0-.09-.09-.44-.03-.99.04-.54.05-1.29.3-2.1.39-1.65,1.41-3.57,2.77-5.07,1.35-1.52,2.96-2.68,4.27-3.32,1.32-.65,2.29-.8,2.35-.63.07.2-.71.69-1.74,1.56-1.04.87-2.31,2.17-3.3,3.64-1,1.46-1.62,3.1-1.78,4.35-.14.63-.07,1.16-.08,1.55-.02.39.07.63.07.7.2,1.86,1.21,3.6,2.57,5.11.77.7,1.46,1.46,2.36,2.05.43.31.84.64,1.28.94l1.39.83c3.74,2.16,7.91,3.68,12.12,5.01,8.51,2.5,17.34,4.04,26.2,5.21,4.43.62,8.89,1.02,13.34,1.48,4.47.33,8.93.75,13.41.97l6.71.38,6.72.26c4.48.21,8.97.25,13.45.36.64.08,15.43.77,15.44,1.57,0,.77-14.84,1.36-15.49,1.28Z"/><path class="cls-2" d="M133.33,246.94c4.48-.12,8.97-.15,13.45-.36l6.72-.26,6.71-.38c4.48-.22,8.94-.63,13.41-.97,4.45-.46,8.91-.87,13.34-1.48,8.86-1.17,17.69-2.72,26.2-5.21,4.21-1.33,8.39-2.85,12.12-5.01l1.39-.83c.45-.29.85-.63,1.28-.94.9-.59,1.59-1.35,2.36-2.05,1.37-1.51,2.37-3.25,2.57-5.11,0-.07.1-.31.07-.7,0-.39.06-.92-.08-1.55-.16-1.25-.78-2.89-1.78-4.35-.98-1.47-2.26-2.77-3.3-3.64-1.03-.87-1.82-1.36-1.74-1.56.06-.17,1.03-.02,2.35.63,1.31.65,2.92,1.81,4.27,3.32,1.36,1.5,2.39,3.42,2.77,5.07.25.81.26,1.56.3,2.1.06.55-.03.89-.03.99-.29,2.65-1.68,4.95-3.32,6.75-.88.83-1.73,1.72-2.72,2.38-.48.35-.95.72-1.44,1.05l-1.51.9c-4.05,2.35-8.39,3.91-12.74,5.28-8.75,2.57-17.7,4.12-26.65,5.31-4.48.62-8.97,1.03-13.46,1.49-4.5.33-8.99.76-13.49.97l-6.75.38-6.75.26c-4.5.21-9.01.25-13.51.37-.65.08-15.49-.51-15.49-1.28,0-.8,14.8-1.5,15.44-1.57Z"/></g><g id="Arrow_5_Shape" class="cls-1"><path class="cls-2" d="M118.83,286c-112.89,0-56.19-143.25-.93-241.7,55.26,98.44,111.96,241.7-.93,241.7"/></g></g></svg>