<?xml version="1.0" encoding="UTF-8"?><svg id="Line" xmlns="http://www.w3.org/2000/svg" viewBox="0 0 196.84 301"><defs><style>.cls-1{opacity:.24;}.cls-2{fill:#fff;stroke-width:0px;}</style></defs><g id="Arrow_10"><g id="Arrow_10_Lines"><path class="cls-2" d="M102.25,289.06c4.28-5.98,9.41-11.16,14.78-16.03,5.42-4.81,11.15-9.27,17.21-13.25,3-2.03,6.13-3.87,9.28-5.67,3.19-1.73,6.4-3.42,9.73-4.88,6.61-3,13.56-5.34,20.74-6.75.12-.04.97-.16,2.17-.26,1.2-.12,2.75-.27,4.29-.25.77,0,1.53-.02,2.25,0,.72.05,1.38.11,1.95.18,1.13.13,1.87.3,1.87.49,0,.2-.74.41-1.84.62-.55.1-1.19.21-1.88.3-.73.14-1.46.28-2.15.42-1.47.24-2.94.59-4.07.84-1.14.23-1.93.43-2.05.47-6.91,1.37-13.66,3.63-20.11,6.56-3.25,1.42-6.39,3.08-9.51,4.77-3.08,1.76-6.14,3.56-9.09,5.55-5.94,3.9-11.57,8.28-16.88,13-5.25,4.76-10.27,9.85-14.36,15.56-.16.19-2.04,2.56-3.57,5.04-.19.3-.38.62-.57.93-.16.3-.31.61-.47.92-.35.6-.54,1.17-.76,1.67-.25.5-.31.92-.45,1.23-.12.3-.24.49-.34.49s-.18-.18-.24-.53c-.04-.33-.15-.86-.06-1.43.06-.58.13-1.29.35-1.98.1-.37.21-.74.31-1.1.14-.37.28-.73.42-1.09,1.17-2.92,2.89-5.61,3.05-5.81Z"/><path class="cls-2" d="M92.26,290.71c-4.08-5.7-9.1-10.8-14.36-15.56-5.31-4.71-10.94-9.09-16.88-13-2.95-1.99-6.01-3.79-9.09-5.55-3.12-1.69-6.26-3.35-9.51-4.77-6.45-2.93-13.2-5.19-20.11-6.56-.12-.04-.92-.23-2.05-.47-1.13-.25-2.6-.6-4.07-.84-.69-.13-1.42-.27-2.15-.42-.69-.1-1.33-.2-1.88-.3-1.1-.21-1.84-.42-1.84-.62,0-.2.74-.36,1.87-.49.57-.07,1.23-.13,1.95-.18.71-.02,1.48,0,2.25,0,1.55-.02,3.09.13,4.29.25,1.2.1,2.05.22,2.17.26,7.18,1.42,14.12,3.75,20.74,6.75,3.33,1.46,6.54,3.15,9.73,4.88,3.15,1.8,6.27,3.64,9.28,5.67,6.06,3.98,11.79,8.44,17.21,13.25,5.37,4.87,10.5,10.05,14.78,16.03.16.2,1.88,2.89,3.05,5.81.14.36.28.72.42,1.09.1.36.2.73.31,1.1.22.7.29,1.4.35,1.98.1.57-.02,1.1-.06,1.43-.06.34-.14.53-.24.53s-.21-.18-.34-.49c-.15-.31-.2-.73-.45-1.23-.22-.5-.42-1.07-.76-1.67-.16-.31-.32-.62-.47-.92-.19-.32-.38-.63-.57-.93-1.53-2.49-3.41-4.85-3.57-5.04Z"/><path class="cls-2" d="M148,266.32c-1.86-1.26-3.76-2.62-5.36-4.26-.82-.79-1.67-1.56-2.39-2.44-.73-.87-1.55-1.68-2.2-2.6-2.84-3.55-5.08-7.49-7.04-11.53-1.02-2.01-1.82-4.1-2.68-6.18-.74-2.11-1.55-4.21-2.15-6.36-1.34-4.27-2.28-8.65-3.09-13.04-1.49-8.81-2.14-17.73-1.77-26.67.43-9.01,2.55-17.79,5.29-26.24,2.75-8.46,6.16-16.65,9.42-24.83,3.25-8.18,6.44-16.38,8.38-24.84.96-4.22,1.6-8.51,1.64-12.8.05-4.29-.65-8.48-1.7-12.73-2.05-8.43-5.37-16.57-10.13-23.78-.33-.49-4.26-6.92-9.75-11.72-2.69-2.39-5.76-4.44-8.25-5.03-.62-.15-1.18-.16-1.62-.05-.43.12-.71.38-.85.69-.29.63-.21,1.15-.33,1.15-.05.01-.37-.41-.21-1.33.07-.46.47-1.02,1.09-1.3.62-.27,1.35-.33,2.08-.25,2.98.33,6.35,2.26,9.37,4.57,6.11,4.64,10.5,11.19,10.84,11.7,4.98,7.53,8.4,15.98,10.53,24.68,1.07,4.31,1.84,8.88,1.78,13.43-.04,4.55-.72,9.03-1.71,13.41-2.02,8.75-5.26,17.06-8.52,25.27-3.28,8.2-6.65,16.33-9.36,24.65-2.7,8.31-4.74,16.84-5.16,25.49-.37,8.68.28,17.46,1.73,26.05.79,4.28,1.7,8.55,3.01,12.7.58,2.1,1.37,4.12,2.08,6.17.83,2,1.61,4.03,2.58,5.96,3.69,7.79,8.88,15.01,16,19.69.26.15,1.89,1.33,4.36,2.7,1.23.67,2.68,1.42,4.25,2.02,1.57.6,3.3,1.14,4.93,1.14h.61s.58-.08.58-.08c.28-.06.42-.08.55-.19.14-.11.17-.31.09-.47-.07-.16-.17-.29-.44-.5-.06-.05-.12-.07-.17-.11-.06-.02-.05-.04-.17-.07-.19-.05-.38-.1-.57-.15-.38-.08-.75-.15-1.12-.19-.73-.08-1.44-.09-2.04,0-.3.04-.58.12-.75.22-.04.02-.08.04-.09.06,0,0-.03.01-.02,0,.01,0-.08-.03-.07-.03,0,0-.03,0,0,0,.02,0,.07-.02.05-.01,0,0,0,.03.02.06.19.29.68.54,1,.71.7.35,1.13.53,1.1.63-.02.09-.49.09-1.3-.09-.4-.13-.89-.19-1.46-.72-.13-.13-.3-.42-.23-.76.07-.33.27-.51.44-.65.35-.26.7-.39,1.07-.5.74-.21,1.53-.29,2.37-.28.42,0,.85.04,1.29.09.22.03.44.06.67.11.09.01.3.08.44.13.13.06.28.12.39.19.45.25,1.02.77,1.32,1.38.32.6.3,1.38-.14,1.94-.42.55-1.17.89-1.77,1.05-.28.07-.52.11-.79.17l-.78.07c-2.1.13-4.03-.38-5.79-.92-1.76-.56-3.33-1.27-4.67-1.92-2.69-1.31-4.45-2.49-4.73-2.65Z"/><path class="cls-2" d="M47.26,263.94c7.12-4.69,12.31-11.9,16-19.69.98-1.93,1.76-3.96,2.59-5.96.71-2.05,1.51-4.07,2.08-6.17,1.31-4.15,2.22-8.42,3.01-12.7,1.45-8.58,2.09-17.36,1.73-26.05-.41-8.65-2.45-17.18-5.16-25.49-2.71-8.32-6.08-16.45-9.36-24.65-3.26-8.21-6.5-16.51-8.52-25.27-.99-4.37-1.67-8.86-1.71-13.41-.06-4.55.71-9.12,1.78-13.43,2.12-8.7,5.55-17.15,10.53-24.68.34-.51,4.73-7.06,10.84-11.7,3.02-2.31,6.39-4.23,9.37-4.57.74-.08,1.47-.02,2.08.25.63.28,1.02.84,1.09,1.3.16.92-.16,1.34-.21,1.33-.13,0-.05-.51-.33-1.15-.14-.31-.42-.57-.85-.69-.44-.11-1-.09-1.62.05-2.5.59-5.56,2.64-8.25,5.03-5.49,4.8-9.41,11.23-9.75,11.72-4.77,7.2-8.08,15.35-10.13,23.78-1.05,4.25-1.75,8.44-1.7,12.73.04,4.28.68,8.57,1.64,12.8,1.95,8.46,5.13,16.67,8.38,24.84,3.27,8.18,6.67,16.36,9.42,24.83,2.75,8.45,4.86,17.23,5.29,26.24.38,8.95-.28,17.86-1.77,26.67-.8,4.39-1.75,8.77-3.09,13.04-.6,2.16-1.41,4.25-2.15,6.36-.86,2.07-1.66,4.17-2.68,6.18-1.96,4.04-4.2,7.98-7.04,11.53-.65.93-1.47,1.73-2.2,2.6-.72.88-1.57,1.65-2.39,2.44-1.6,1.63-3.5,3-5.36,4.26-.28.16-2.04,1.34-4.73,2.65-1.35.65-2.91,1.36-4.67,1.92-1.76.55-3.69,1.05-5.79.92l-.78-.07c-.27-.05-.51-.1-.79-.17-.61-.17-1.35-.5-1.77-1.05-.44-.55-.46-1.34-.14-1.94.3-.62.87-1.13,1.32-1.38.11-.08.26-.13.39-.19.14-.05.35-.12.44-.13.22-.04.45-.08.67-.11.44-.06.87-.09,1.29-.09.84,0,1.64.07,2.37.28.37.11.72.24,1.07.5.17.14.37.32.44.65.07.34-.1.63-.23.76-.57.54-1.06.59-1.46.72-.81.19-1.27.18-1.3.09-.03-.1.4-.29,1.1-.63.32-.17.81-.42,1-.71.03-.03.02-.05.02-.06-.02,0,.03.01.05.01.03,0-.01,0,0,0,.01,0-.09.03-.07.03,0,0-.02,0-.02,0-.01-.01-.05-.03-.09-.06-.17-.09-.45-.17-.75-.22-.61-.09-1.31-.09-2.04,0-.37.04-.74.11-1.12.19-.19.04-.38.09-.57.15-.12.03-.1.05-.17.07-.06.04-.11.06-.17.11-.27.21-.37.33-.44.5-.08.16-.05.36.09.47.14.11.27.13.55.19l.58.08h.61c1.63,0,3.37-.54,4.93-1.13,1.58-.61,3.02-1.35,4.25-2.02,2.47-1.36,4.1-2.54,4.36-2.7Z"/><path class="cls-2" d="M32.93,241.83c-1.53,1.06-3.29,1.78-5.14,2.07-1.85.3-3.77.13-5.53-.43-1.77-.55-3.39-1.49-4.78-2.58-1.41-1.11-2.68-2.49-3.59-4.14-.9-1.65-1.4-3.55-1.41-5.39-.04-1.85.31-3.65.86-5.32,1.1-3.36,2.86-6.32,4.77-9.1,3.88-5.54,8.48-10.38,13.17-15.07,4.72-4.67,9.61-9.12,14.51-13.54,4.9-4.42,9.83-8.79,14.54-13.33,4.67-4.57,9.11-9.37,13.17-14.49,8.12-10.2,14.9-21.56,19.2-33.83.07-.21.57-1.61,1.29-3.66.38-1,.67-2.19,1.07-3.43.18-.62.4-1.26.56-1.92.16-.65.32-1.32.49-1.99.17-.66.33-1.32.5-1.98.13-.65.25-1.29.38-1.93.23-1.25.52-2.42.65-3.43.31-2.01.59-3.36.79-3.35.2,0,.29,1.37.32,3.45.05,1.04-.08,2.25-.17,3.55-.06.66-.11,1.34-.17,2.01-.1.69-.21,1.38-.31,2.07-.11.7-.22,1.4-.32,2.08-.11.69-.28,1.36-.42,2.01-.3,1.3-.52,2.55-.84,3.61-.62,2.15-1.05,3.63-1.11,3.85-4.44,12.65-11.38,24.26-19.66,34.67-4.14,5.21-8.67,10.11-13.42,14.76-4.78,4.61-9.72,8.98-14.61,13.4-4.89,4.41-9.76,8.84-14.41,13.44-4.63,4.61-9.14,9.39-12.84,14.67-1.82,2.63-3.45,5.42-4.4,8.34-.98,2.91-1.05,5.99.34,8.47.69,1.24,1.68,2.34,2.86,3.27,1.19.94,2.48,1.67,3.86,2.1,2.73.91,5.82.4,8.18-1.26.09-.05.4-.27.87-.64.43-.38,1.05-.93,1.49-1.67.47-.76.67-1.48.29-2.14-.37-.67-1.4-1.12-2.48-.97-1.08.15-2.18.81-2.97,1.62-.8.77-1.23,1.85-.98,2.39.25.61,1.18.64,1.72.63.57-.02.92-.06.96.04.03.08-.25.31-.85.52-.3.11-.69.21-1.18.19-.46.01-1.18-.19-1.59-.79-.19-.29-.33-.67-.36-1.04-.03-.36,0-.72.1-1.07.18-.69.52-1.34.97-1.91.88-1.13,2.15-2.16,3.81-2.57,1.62-.4,3.69.05,4.82,1.63.56.76.8,1.75.71,2.6-.07.88-.37,1.57-.67,2.15-.61,1.17-1.37,1.92-1.92,2.47-.58.52-.98.83-1.09.89Z"/><path class="cls-2" d="M165.54,239.49c2.36,1.65,5.44,2.16,8.18,1.26,1.38-.43,2.67-1.16,3.86-2.1,1.18-.93,2.17-2.03,2.86-3.27,1.39-2.48,1.31-5.56.34-8.47-.95-2.92-2.57-5.71-4.4-8.34-3.69-5.27-8.2-10.05-12.84-14.67-4.66-4.61-9.52-9.03-14.41-13.44-4.89-4.42-9.83-8.79-14.61-13.4-4.75-4.65-9.28-9.55-13.42-14.76-8.28-10.41-15.22-22.02-19.66-34.67-.06-.22-.49-1.69-1.11-3.85-.32-1.05-.54-2.31-.84-3.61-.14-.66-.31-1.32-.42-2.01-.1-.68-.21-1.38-.32-2.08-.1-.69-.21-1.38-.31-2.07-.06-.68-.11-1.35-.17-2.01-.09-1.3-.22-2.51-.17-3.55.03-2.08.12-3.44.32-3.45.2,0,.48,1.34.79,3.35.12,1.01.41,2.17.65,3.43.12.64.25,1.28.38,1.93.17.66.33,1.32.5,1.98.17.67.33,1.34.49,1.99.16.66.38,1.29.56,1.92.39,1.24.69,2.43,1.07,3.43.72,2.05,1.21,3.45,1.29,3.66,4.3,12.26,11.08,23.62,19.2,33.83,4.06,5.11,8.5,9.92,13.17,14.49,4.71,4.54,9.65,8.91,14.54,13.33,4.9,4.42,9.79,8.87,14.51,13.54,4.7,4.68,9.29,9.53,13.17,15.07,1.92,2.78,3.67,5.74,4.77,9.1.55,1.67.89,3.47.86,5.32-.01,1.85-.51,3.75-1.41,5.39-.92,1.64-2.19,3.03-3.59,4.14-1.39,1.1-3.01,2.03-4.78,2.58-1.76.56-3.68.73-5.53.43-1.85-.29-3.61-1.01-5.14-2.07-.12-.06-.52-.37-1.09-.89-.56-.55-1.31-1.3-1.92-2.47-.3-.58-.59-1.27-.67-2.15-.09-.85.15-1.84.71-2.6,1.13-1.58,3.2-2.03,4.82-1.63,1.66.41,2.93,1.44,3.81,2.57.45.57.79,1.22.97,1.91.09.34.13.7.1,1.07-.03.37-.16.74-.36,1.04-.41.6-1.12.8-1.59.79-.49.01-.88-.09-1.18-.19-.6-.22-.88-.44-.85-.52.03-.1.39-.06.96-.04.54.02,1.46-.02,1.72-.63.24-.53-.18-1.61-.98-2.39-.79-.81-1.89-1.47-2.97-1.62-1.08-.15-2.11.3-2.48.97-.39.66-.18,1.38.29,2.14.44.74,1.06,1.29,1.49,1.67.46.37.77.59.87.64Z"/><path class="cls-2" d="M21.73,241.64c-2.17,1.8-5.31,2.81-8.28,2.25-2.96-.62-5.3-2.46-7.15-4.43-1.82-2-3.33-4.3-4.37-6.81-1.03-2.51-1.63-5.18-1.84-7.84-.39-5.35.55-10.61,2.02-15.59,1.48-4.99,3.51-9.76,5.76-14.39,4.54-9.25,10-17.94,15.7-26.42,5.71-8.48,11.7-16.74,17.67-24.99,5.95-8.26,11.98-16.46,17.35-25.04,5.42-8.55,10.34-17.43,14.74-26.56,8.78-18.26,15.49-37.54,19.59-57.36.04-.17.19-.83.42-1.87.25-1.02.53-2.42.83-4.05.31-1.63.67-3.5,1.06-5.5.31-1.99.65-4.1.98-6.23C97.46,8.36,97.99,0,98.42,0c.36,0,.54,8.44-.22,17.04-.22,2.17-.44,4.32-.64,6.34-.29,2.04-.57,3.95-.81,5.61-.23,1.67-.46,3.09-.68,4.14-.2,1.05-.33,1.72-.36,1.9-4.15,20.08-10.94,39.57-19.81,58.02-4.45,9.22-9.41,18.2-14.9,26.85-5.45,8.69-11.5,16.92-17.45,25.19-5.97,8.25-11.94,16.49-17.61,24.91-5.65,8.42-11.06,17.03-15.5,26.08-2.21,4.53-4.17,9.17-5.59,13.94-1.41,4.77-2.27,9.71-1.91,14.55.19,2.41.73,4.77,1.63,6.97.91,2.2,2.23,4.21,3.84,5.98,1.61,1.72,3.5,3.12,5.58,3.55,2.06.36,4.23-.26,5.98-1.69.11-.12.63-.44,1.28-1.14.68-.66,1.51-1.69,2.25-3.03.72-1.33,1.4-3.02,1.4-4.73,0-.86-.21-1.73-.61-2.45-.4-.71-1.01-1.25-1.72-1.37-.7-.12-1.53.16-2.25.7-.7.57-1.37,1.27-1.88,2.04-1.04,1.52-1.63,3.25-1.6,4.66.01.7.22,1.3.58,1.6.35.34.88.35,1.29.32.2-.03.39-.06.57-.08.16-.05.31-.09.43-.12.24-.06.38-.07.4-.02.02.04-.07.14-.28.29-.1.07-.24.16-.4.26-.17.08-.38.15-.61.24-.23.08-.53.1-.85.12-.17-.03-.34-.05-.52-.08-.18-.05-.35-.15-.53-.24-.7-.45-1.08-1.32-1.19-2.19-.22-1.76.3-3.76,1.35-5.61.52-.93,1.22-1.81,2.1-2.62.9-.77,2.18-1.42,3.64-1.28,1.46.14,2.66,1.14,3.34,2.22.7,1.1,1.03,2.33,1.1,3.5.05,1.16-.07,2.33-.38,3.31-.12.51-.3.98-.47,1.44-.16.47-.37.89-.57,1.3-1.61,3.3-3.81,4.95-4.1,5.2Z"/><path class="cls-2" d="M176.87,239.39c1.75,1.43,3.92,2.05,5.98,1.69,2.08-.43,3.97-1.84,5.58-3.55,1.61-1.77,2.93-3.78,3.84-5.98.9-2.2,1.44-4.56,1.63-6.97.36-4.84-.5-9.78-1.91-14.55-1.42-4.78-3.39-9.42-5.59-13.94-4.44-9.05-9.85-17.66-15.5-26.08-5.67-8.42-11.64-16.66-17.61-24.91-5.95-8.27-12-16.5-17.45-25.19-5.48-8.65-10.45-17.63-14.9-26.85-8.87-18.45-15.66-37.94-19.81-58.02-.03-.18-.16-.85-.36-1.9-.22-1.04-.45-2.46-.68-4.14-.24-1.66-.51-3.57-.81-5.61-.21-2.03-.42-4.18-.65-6.34C97.88,8.44,98.06,0,98.42,0c.42,0,.96,8.36,2.22,16.81.34,2.13.67,4.24.98,6.23.39,2,.75,3.88,1.06,5.5.3,1.64.58,3.03.83,4.05.23,1.03.38,1.69.42,1.87,4.1,19.82,10.81,39.1,19.58,57.36,4.4,9.13,9.31,18,14.74,26.56,5.37,8.58,11.4,16.78,17.35,25.04,5.97,8.25,11.96,16.51,17.67,24.99,5.69,8.48,11.15,17.17,15.7,26.42,2.25,4.63,4.28,9.4,5.76,14.39,1.47,4.98,2.41,10.24,2.02,15.59-.21,2.67-.81,5.33-1.84,7.84-1.04,2.51-2.55,4.82-4.37,6.81-1.85,1.97-4.18,3.81-7.15,4.43-2.97.56-6.11-.45-8.28-2.25-.29-.25-2.49-1.91-4.1-5.2-.21-.41-.41-.83-.57-1.3-.18-.46-.36-.93-.47-1.44-.31-.98-.43-2.15-.38-3.31.07-1.17.4-2.4,1.1-3.5.68-1.08,1.88-2.07,3.34-2.22,1.46-.14,2.74.52,3.64,1.28.88.81,1.58,1.69,2.1,2.62,1.06,1.85,1.57,3.84,1.35,5.61-.11.86-.49,1.74-1.19,2.19-.18.09-.35.2-.53.24-.18.03-.35.06-.52.08-.32-.02-.61-.04-.85-.12-.23-.09-.44-.16-.61-.24-.16-.1-.29-.19-.4-.26-.21-.15-.31-.25-.28-.29s.17-.03.4.02c.12.03.26.07.43.12.18.03.37.05.57.08.41.02.93.02,1.29-.32.36-.31.57-.9.58-1.6.03-1.41-.56-3.14-1.6-4.66-.51-.78-1.18-1.47-1.88-2.04-.73-.54-1.55-.82-2.25-.7-.7.11-1.31.65-1.72,1.37-.4.72-.61,1.59-.61,2.45,0,1.71.67,3.4,1.4,4.73.74,1.34,1.57,2.37,2.25,3.03.65.7,1.17,1.02,1.28,1.14Z"/></g><g id="Arrow_10_Shape" class="cls-1"><path class="cls-2" d="M128.41,128.81c-17.46-26.91-29.28-60.2-29.99-90.87-.71,30.67-12.53,63.96-29.99,90.87-17.46,26.91-55.71,68.8-37.97,87.68,1.01,1.07,2.02,1.81,3,2.28l-.92.65c30.57,0,65.88,33.13,65.88,43.65,0-10.52,35.31-43.65,65.88-43.65l-.92-.65c.99-.47,1.99-1.21,3-2.28,17.74-18.88-20.51-60.76-37.97-87.68Z"/></g></g></svg>