<?xml version="1.0" encoding="UTF-8"?><svg id="Line" xmlns="http://www.w3.org/2000/svg" viewBox="0 0 216.85 305.08"><defs><style>.cls-1{opacity:.24;}.cls-2{fill:#fff;stroke-width:0px;}</style></defs><g id="Arrow_3"><g id="Arrow_3_Lines"><path class="cls-2" d="M161.35,122.93c-7.41-8.62-13.88-17.97-19.78-27.63-5.86-9.69-11.15-19.71-15.82-30.02-1.2-2.56-2.28-5.18-3.41-7.77-1.05-2.63-2.17-5.23-3.15-7.88-2.05-5.28-3.88-10.64-5.55-16.06-1.69-5.41-3.09-10.91-4.26-16.48-1.15-5.56-2.04-11.2-2.38-16.92h2.85c-.34,5.72-1.22,11.36-2.38,16.92-1.17,5.56-2.58,11.06-4.26,16.48-1.67,5.41-3.49,10.78-5.55,16.06-.98,2.66-2.1,5.26-3.15,7.88-1.13,2.59-2.21,5.21-3.41,7.77-4.67,10.31-9.96,20.33-15.82,30.02-5.91,9.66-12.37,19.01-19.78,27.63-.14.15-.61.74-1.42,1.6-.81.86-1.9,2.02-3.19,3.38-2.67,2.63-6.13,6.03-9.94,8.95-3.77,2.96-7.77,5.57-10.99,7.07-1.56.83-2.96,1.32-3.93,1.66-.97.34-1.53.49-1.57.4-.04-.09.46-.42,1.34-.92.88-.51,2.18-1.14,3.63-2.11,2.99-1.76,6.71-4.56,10.24-7.65,3.57-3.05,6.81-6.53,9.32-9.2,1.21-1.39,2.25-2.56,3.01-3.43.77-.87,1.22-1.47,1.36-1.61,7.28-8.47,13.67-17.7,19.51-27.25,5.8-9.58,11.04-19.51,15.66-29.72,1.19-2.54,2.26-5.13,3.38-7.7,1.04-2.6,2.15-5.17,3.12-7.8,2.03-5.22,3.83-10.52,5.48-15.87,1.66-5.34,3.05-10.76,4.2-16.22,1.13-5.46,1.99-10.98,2.32-16.51h2.85c.33,5.53,1.19,11.05,2.32,16.51,1.15,5.46,2.53,10.88,4.2,16.22,1.65,5.34,3.45,10.65,5.48,15.87.97,2.63,2.07,5.2,3.12,7.8,1.12,2.57,2.19,5.16,3.38,7.7,4.62,10.21,9.87,20.14,15.66,29.72,5.84,9.55,12.23,18.78,19.51,27.25.14.15.59.75,1.36,1.61.76.87,1.79,2.04,3.01,3.43,2.51,2.67,5.75,6.15,9.32,9.2,3.52,3.09,7.25,5.89,10.24,7.65,1.45.97,2.75,1.6,3.63,2.11.88.5,1.38.83,1.34.92-.04.09-.6-.06-1.57-.4-.97-.34-2.37-.83-3.93-1.66-3.22-1.5-7.22-4.11-10.99-7.07-3.82-2.92-7.28-6.32-9.94-8.95-1.29-1.37-2.38-2.53-3.19-3.38-.81-.86-1.29-1.46-1.42-1.6Z"/><path class="cls-2" d="M192.31,165.52c-.16,1.42-.5,2.81-.75,4.21-.29,1.4-.51,2.81-.86,4.19-.71,2.76-1.34,5.55-2.24,8.25-1.62,5.47-3.76,10.77-6.14,15.94l-1.85,3.85-2.01,3.77c-.65,1.27-1.37,2.49-2.1,3.71-.73,1.22-1.42,2.47-2.19,3.66-3,4.83-6.29,9.47-9.71,14-6.9,9.01-14.48,17.44-22.18,25.68-7.67,8.26-15.52,16.35-22.41,25.13-.12.14-.92,1.13-2.11,2.58-1.12,1.45-2.61,3.3-3.95,5.22-.71.94-1.35,1.91-1.95,2.82-.61.91-1.2,1.74-1.64,2.49-.92,1.48-1.6,2.44-1.78,2.36s.16-1.2.79-2.87c.29-.85.75-1.77,1.24-2.78.48-1.01,1.02-2.08,1.63-3.11,1.16-2.11,2.51-4.13,3.54-5.7,1.07-1.54,1.86-2.61,1.98-2.77,7.04-8.95,14.92-17.07,22.58-25.32,7.68-8.23,15.2-16.57,22-25.46,3.37-4.47,6.61-9.03,9.55-13.77.76-1.17,1.43-2.4,2.15-3.59.72-1.2,1.42-2.4,2.06-3.64l1.96-3.69,1.81-3.77c2.32-5.06,4.42-10.24,6-15.58.89-2.64,1.49-5.36,2.19-8.05.35-1.35.56-2.73.84-4.09.25-1.37.58-2.72.74-4.11.02-.4.99-5.09,1.53-9.78.38-2.33.52-4.66.76-6.4.22-1.74.44-2.9.63-2.9.2,0,.35,1.16.47,2.93.11,1.76.27,4.14.15,6.53-.02,4.8-.7,9.67-.72,10.07Z"/><path class="cls-2" d="M27.36,165.08c.15,1.39.49,2.74.74,4.11.28,1.36.49,2.74.84,4.09.7,2.69,1.3,5.41,2.19,8.05,1.58,5.34,3.67,10.52,6,15.58l1.81,3.77,1.96,3.69c.64,1.24,1.34,2.44,2.06,3.64.72,1.2,1.39,2.42,2.15,3.59,2.94,4.74,6.18,9.31,9.55,13.77,6.81,8.89,14.32,17.24,22,25.46,7.66,8.25,15.54,16.36,22.58,25.32.12.16.91,1.23,1.98,2.77,1.03,1.57,2.38,3.59,3.54,5.7.62,1.03,1.15,2.1,1.63,3.11.49,1.01.95,1.93,1.24,2.78.63,1.67.97,2.79.79,2.87s-.86-.88-1.78-2.36c-.44-.75-1.03-1.58-1.64-2.49-.6-.91-1.24-1.89-1.95-2.82-1.34-1.92-2.83-3.77-3.95-5.22-1.19-1.45-2-2.43-2.11-2.58-6.9-8.78-14.74-16.86-22.41-25.13-7.7-8.24-15.28-16.67-22.18-25.68-3.42-4.53-6.71-9.16-9.71-14-.77-1.19-1.46-2.44-2.19-3.66-.73-1.22-1.45-2.45-2.1-3.71l-2.01-3.77-1.85-3.85c-2.37-5.17-4.52-10.47-6.14-15.94-.91-2.71-1.53-5.49-2.24-8.25-.35-1.38-.57-2.79-.86-4.19-.26-1.4-.59-2.79-.75-4.21-.02-.41-.7-5.28-.72-10.07-.13-2.39.04-4.76.15-6.53.12-1.77.28-2.93.47-2.93.2,0,.42,1.16.63,2.9.24,1.74.37,4.07.76,6.4.53,4.68,1.51,9.38,1.53,9.78Z"/><path class="cls-2" d="M136.82,212.09c-2.73-5.13-6.89-9.52-11.83-12.57-.6-.42-1.25-.74-1.9-1.07-.65-.31-1.27-.71-1.95-.96-1.35-.52-2.68-1.11-4.1-1.44-2.78-.86-5.71-1.09-8.61-1.2-2.9.12-5.83.34-8.61,1.2-1.42.32-2.75.91-4.1,1.44-.68.26-1.3.65-1.95.96-.65.33-1.3.65-1.9,1.07-4.94,3.05-9.1,7.45-11.83,12.57-.1.18-1.46,2.29-2.4,4.57-.12.28-.27.56-.38.84-.1.27-.2.55-.3.83-.19.54-.43,1.05-.53,1.49-.27.88-.52,1.49-.72,1.49-.2,0-.32-.64-.38-1.64-.06-.5.03-1.07.08-1.69.03-.32.07-.64.1-.96.05-.32.13-.64.2-.97.51-2.64,1.7-5.12,1.81-5.32,2.99-5.59,7.46-10.33,12.85-13.66,5.37-3.38,11.76-5.03,18.06-5.09,6.31.06,12.69,1.72,18.06,5.09,5.39,3.33,9.87,8.07,12.85,13.66.11.19,1.3,2.68,1.81,5.32.07.33.15.65.2.97.03.31.07.63.1.96.05.62.13,1.18.08,1.69-.06,1-.18,1.63-.38,1.64s-.45-.6-.72-1.49c-.11-.45-.34-.95-.53-1.49-.1-.28-.2-.56-.3-.83-.11-.28-.25-.56-.38-.84-.94-2.28-2.31-4.4-2.4-4.57Z"/><path class="cls-2" d="M161.83,197.94c-5.2-9.61-12.94-17.89-22.25-23.63-4.64-2.9-9.71-5.06-14.96-6.57-5.27-1.44-10.73-2.16-16.21-2.18-5.47.02-10.94.74-16.21,2.18-5.25,1.51-10.32,3.67-14.96,6.57-9.31,5.74-17.05,14.02-22.25,23.63-.17.34-2.57,4.41-4.17,8.75-.84,2.15-1.46,4.36-1.86,6.03-.22.83-.37,1.54-.49,2.03-.13.49-.25.78-.35.77s-.17-.3-.23-.81c-.06-.52-.09-1.26-.04-2.15.07-1.78.41-4.15,1.04-6.48,1.17-4.7,3.4-9.13,3.58-9.49,5.45-10.07,13.51-18.7,23.27-24.71,4.86-3.03,10.18-5.31,15.69-6.89,5.53-1.51,11.26-2.26,16.97-2.29,5.72.02,11.45.77,16.97,2.29,5.51,1.58,10.83,3.85,15.69,6.89,9.75,6.02,17.82,14.64,23.27,24.71.18.36,2.41,4.8,3.58,9.49.62,2.33.96,4.7,1.04,6.48.05.89.02,1.63-.04,2.15-.05.52-.13.81-.23.81s-.22-.28-.35-.77c-.12-.49-.27-1.2-.49-2.03-.4-1.67-1.02-3.88-1.86-6.03-1.6-4.34-4-8.4-4.17-8.75Z"/><path class="cls-2" d="M216.67,172.01l.11,1.06.04,1.06.03,1.06-.07,1.07c-.06.71-.06,1.43-.17,2.14l-.4,2.11c-.69,2.76-1.73,5.46-3.25,7.83-.67,1.25-1.58,2.32-2.39,3.47-.44.55-.91,1.06-1.36,1.59-.46.52-.9,1.06-1.41,1.53-.99.97-1.96,1.97-3.04,2.83l-1.58,1.34-1.65,1.24c-4.41,3.29-9.19,6-14.1,8.36-4.92,2.35-9.98,4.34-15.12,6.08-10.29,3.45-20.86,5.97-31.55,7.69-10.69,1.71-21.5,2.72-32.35,2.73-10.85-.02-21.66-1.02-32.35-2.73-10.69-1.72-21.26-4.24-31.55-7.69-5.14-1.74-10.21-3.73-15.12-6.08-4.91-2.35-9.68-5.07-14.1-8.36l-1.65-1.24-1.58-1.34c-1.07-.87-2.04-1.86-3.04-2.83-.51-.47-.95-1.01-1.41-1.53-.45-.53-.93-1.04-1.36-1.59-.81-1.15-1.72-2.22-2.39-3.47-1.52-2.37-2.56-5.07-3.25-7.83l-.4-2.11c-.1-.71-.11-1.43-.17-2.14l-.07-1.07.03-1.06.04-1.06.11-1.06c.04-.39.3-3.06,1.63-6.55.67-1.74,1.65-3.64,2.91-5.49,1.26-1.86,2.81-3.65,4.51-5.25,3.41-3.19,7.37-5.56,10.45-6.96,3.08-1.42,5.28-1.94,5.34-1.76.06.19-1.97,1.05-4.83,2.74-2.86,1.66-6.51,4.22-9.55,7.41-3.06,3.18-5.31,7.03-6.37,10.22-1.06,3.19-1.22,5.59-1.26,5.94l-.1.95-.03.96-.03.96.06.94c.05.63.05,1.26.14,1.88l.36,1.85c.62,2.44,1.52,4.84,2.91,6.99.6,1.13,1.45,2.12,2.18,3.17.4.5.85.98,1.27,1.47.43.49.84.99,1.32,1.43.93.91,1.84,1.85,2.86,2.67l1.49,1.27,1.57,1.19c4.21,3.14,8.84,5.78,13.62,8.07,4.79,2.29,9.75,4.24,14.8,5.95,10.11,3.39,20.54,5.88,31.09,7.58,10.55,1.69,21.23,2.68,31.89,2.7,10.67-.02,21.34-1.01,31.89-2.7,10.55-1.7,20.98-4.18,31.09-7.58,5.05-1.71,10.01-3.66,14.8-5.95,4.78-2.29,9.41-4.92,13.62-8.07l1.57-1.19,1.49-1.27c1.02-.82,1.93-1.76,2.86-2.67.48-.44.89-.94,1.32-1.43.42-.49.86-.97,1.27-1.47.73-1.06,1.59-2.04,2.18-3.17,1.39-2.16,2.3-4.56,2.91-6.99l.36-1.85c.09-.62.09-1.25.14-1.88l.06-.94-.03-.96-.03-.96-.1-.95c-.03-.36-.19-2.75-1.26-5.94-1.06-3.19-3.31-7.04-6.37-10.22-3.04-3.19-6.69-5.75-9.55-7.41-2.86-1.69-4.89-2.55-4.83-2.74.06-.19,2.26.34,5.34,1.76,3.08,1.4,7.04,3.77,10.45,6.96,1.7,1.6,3.25,3.39,4.51,5.25,1.26,1.85,2.24,3.76,2.91,5.49,1.33,3.49,1.59,6.16,1.63,6.55Z"/><path class="cls-2" d="M111.92,55.79c1.96,11.29,4.69,22.46,7.73,33.54,3.06,11.07,6.48,22.06,10.27,32.9l1.43,4.06,1.51,4.03c.98,2.7,2.05,5.36,3.13,8.01,2.15,5.31,4.47,10.56,7.2,15.51l1.05,1.83.29.51h.04s.37.12.37.12c.25.1.6.13.92.18l.98.14,2.05.11c2.78.04,5.61-.16,8.43-.47,5.63-.65,11.23-1.8,16.68-3.38.39-.1,5.13-1.31,9.6-3,2.24-.83,4.39-1.82,6-2.57,1.57-.82,2.67-1.32,2.78-1.16s-.77.96-2.21,2.11c-1.47,1.07-3.55,2.37-5.76,3.47-4.41,2.23-9.21,3.8-9.62,3.9-5.62,1.62-11.35,2.8-17.16,3.47-2.91.32-5.84.53-8.82.49l-2.26-.12-1.16-.16c-.39-.06-.76-.08-1.19-.23l-.66-.2c-.31-.11-.66-.17-.97-.33l-.79-1.36-1.1-1.92c-2.84-5.15-5.17-10.46-7.35-15.83-1.09-2.68-2.17-5.37-3.16-8.09l-1.52-4.06-1.44-4.09c-3.82-10.91-7.25-21.95-10.33-33.09-3.06-11.14-5.81-22.38-7.79-33.81-.02-.19-.19-1.51-.42-3.45-.11-.94-.23-2.02-.36-3.19-.12-1.16-.16-2.39-.24-3.61-.06-1.18-.12-2.39-.18-3.57,0-1.14.06-2.21.1-3.11.09-1.81.23-3,.42-3s.44,1.18.68,2.96c.12.97.25,1.99.38,3.03.2,1.15.4,2.33.59,3.48.2,1.19.36,2.38.58,3.51.23,1.14.44,2.2.62,3.11.36,1.89.6,3.17.64,3.36Z"/><path class="cls-2" d="M107.74,56.28c-1.98,11.43-4.74,22.67-7.79,33.81-3.08,11.14-6.51,22.18-10.33,33.09l-1.44,4.09-1.52,4.06c-.99,2.72-2.07,5.4-3.16,8.09-2.18,5.37-4.52,10.68-7.35,15.83l-1.1,1.92-.79,1.36c-.31.16-.66.22-.97.33l-.66.2c-.43.15-.8.17-1.19.23l-1.16.16-2.26.12c-2.98.04-5.91-.16-8.82-.49-5.81-.67-11.54-1.85-17.16-3.47-.4-.1-5.21-1.67-9.62-3.9-2.21-1.1-4.29-2.4-5.76-3.47-1.44-1.14-2.32-1.95-2.21-2.11s1.22.34,2.78,1.16c1.61.75,3.76,1.74,6,2.57,4.47,1.69,9.21,2.91,9.6,3,5.45,1.58,11.05,2.73,16.68,3.38,2.82.31,5.65.51,8.43.47l2.05-.11.98-.14c.32-.05.67-.07.92-.18l.37-.11h.04s.29-.52.29-.52l1.05-1.83c2.72-4.94,5.05-10.2,7.2-15.51,1.08-2.65,2.15-5.31,3.13-8.01l1.51-4.03,1.43-4.06c3.8-10.84,7.21-21.82,10.27-32.9,3.04-11.08,5.77-22.25,7.73-33.54.04-.19.28-1.47.64-3.36.18-.91.39-1.97.62-3.11.22-1.13.38-2.32.58-3.51.2-1.15.4-2.33.59-3.48.13-1.04.26-2.06.38-3.03.25-1.77.49-2.96.68-2.96s.33,1.19.42,3c.04.91.09,1.97.1,3.11-.06,1.18-.12,2.39-.18,3.57-.08,1.22-.12,2.46-.24,3.61-.13,1.17-.26,2.25-.36,3.19-.24,1.94-.4,3.25-.42,3.45Z"/></g><g id="Arrow_3_Shape" class="cls-1"><path class="cls-2" d="M197.57,139.33c0-29.14-89.14-89.56-89.14-89.56,0,0-89.14,60.42-89.14,89.56,0,20.24,19.18,27.59,19.18,27.59,32.06,14.62,67.77,94.57,69.96,138.16,2.2-43.6,37.91-123.55,69.96-138.16,0,0,19.18-7.34,19.18-27.59Z"/></g></g></svg>