<?xml version="1.0" encoding="UTF-8"?><svg id="Line" xmlns="http://www.w3.org/2000/svg" viewBox="0 0 324.83 802.03"><defs><style>.cls-1{opacity:.24;}.cls-1,.cls-2{fill:#fff;stroke-width:0px;}</style></defs><g id="Banner_1"><g id="Banner_1_Lines"><path class="cls-2" d="M33.85,128.02c-.06-5.75,1.48-11.52,4.28-16.52,2.78-5.03,6.71-9.27,11.01-12.89,4.32-3.64,9.09-6.63,14.01-9.26,4.94-2.61,10.06-4.84,15.26-6.78,10.43-3.88,21.18-6.72,32.04-8.88,10.87-2.15,21.86-3.66,32.9-4.52.39-.03,5.16-.25,9.82-.16,4.67.05,9.22.42,9.22.81,0,.4-4.53.74-9.14,1.2-4.61.43-9.29.97-9.68,1-10.93.85-21.81,2.34-32.56,4.48-10.74,2.14-21.37,4.95-31.6,8.76-10.19,3.84-20.14,8.66-28.44,15.56-4.11,3.45-7.79,7.45-10.35,12.09-2.59,4.61-3.97,9.84-3.92,15.12,0,.09-.01.44-.03,1,.02.54.04,1.28.06,2.17.14,1.74.35,4.01.87,6.23.19,1.12.54,2.2.77,3.24.28.96.55,1.9.81,2.8.53,1.62.82,2.73.65,2.82h0c-.18.08-.81-.87-1.67-2.39-.39-.78-.84-1.69-1.29-2.69-.39-1.02-.88-2.1-1.22-3.24-.79-2.25-1.24-4.63-1.54-6.49-.1-.95-.18-1.75-.24-2.33-.02-.61-.03-.99-.03-1.08Z"/><path class="cls-2" d="M45.74,131.55c2.94-3.65,6.4-6.81,10.08-9.61,3.69-2.79,7.61-5.24,11.66-7.43,4.06-2.16,8.24-4.07,12.48-5.8,4.25-1.71,8.58-3.21,12.94-4.59,8.75-2.68,17.65-4.8,26.64-6.36,8.99-1.6,18.07-2.65,27.18-3.27.16-.02,1.23-.04,2.73-.04,1.5,0,3.45,0,5.37.07,3.84.11,7.6.5,7.59.87,0,.42-3.73.73-7.53,1.14-4.1.41-7.7.78-7.98.8-9,.61-17.98,1.65-26.87,3.23-8.89,1.54-17.68,3.64-26.29,6.27-4.29,1.36-8.54,2.84-12.72,4.51-4.16,1.7-8.24,3.57-12.2,5.67-3.94,2.13-7.74,4.5-11.28,7.18-3.54,2.68-6.83,5.7-9.58,9.12-.09.11-.73.87-1.69,2.02-.83,1.18-1.99,2.66-2.9,4.28-.24.4-.51.78-.71,1.19l-.6,1.19c-.39.77-.8,1.49-1.04,2.14-.55,1.28-.99,2.13-1.19,2.09h0c-.19-.04-.11-.99.13-2.42.09-.73.35-1.53.62-2.4.14-.45.29-.9.43-1.35.15-.46.38-.89.57-1.35.73-1.84,1.78-3.54,2.55-4.88.91-1.3,1.52-2.17,1.61-2.29Z"/><path class="cls-2" d="M30.8,142.6c-4.76-3.01-9.39-6.24-13.74-9.87-4.33-3.63-8.47-7.61-11.77-12.38C2.02,115.57-.22,109.86.02,103.82c.12-2.99.93-6.07,2.78-8.64,1.79-2.59,4.88-4.42,8.13-4.55.11-.01.87-.02,1.89.18,1.03.16,2.28.63,3.39,1.24,2.26,1.22,3.8,3.09,3.55,3.36-.26.32-2.22-.92-4.34-1.5-2.12-.68-4.2-.46-4.35-.42-2.36.11-4.56,1.38-5.96,3.38-1.43,1.98-2.15,4.52-2.24,7.09-.11,2.58.34,5.21,1.18,7.72.39,1.27.93,2.49,1.56,3.65.32.58.56,1.19.93,1.75l1.11,1.67c3.05,4.43,7.03,8.28,11.24,11.8,4.23,3.52,8.77,6.69,13.44,9.65.16.11,2.09,1.51,3.97,2.91,1.88,1.41,3.72,2.81,3.54,3.15h0c-.18.35-2.39-.43-4.56-1.41-2.17-.97-4.31-2.12-4.48-2.24Z"/><path class="cls-2" d="M154.15,40.56c-10.45,7.02-20.8,14.22-30.43,22.23-4.77,4.03-9.4,8.27-13.31,13.04-1.94,2.38-3.68,4.92-4.92,7.63-1.25,2.7-1.97,5.6-1.72,8.46-.03.2.06,2.68.9,5.09.78,2.41,2.11,4.66,1.78,4.91-.28.23-2.24-1.62-3.62-4.09-1.44-2.43-1.95-5.45-1.91-5.68-.18-1.72.03-3.45.34-5.12.21-.82.39-1.66.69-2.44.25-.81.59-1.57.93-2.33,1.39-3.03,3.26-5.73,5.3-8.24,4.11-5,8.84-9.32,13.69-13.42,9.78-8.13,20.18-15.37,30.68-22.42.37-.27,9.43-5.45,9.86-4.78.42.65-7.91,6.89-8.27,7.16Z"/><path class="cls-2" d="M14.73,740.18V206.57c.02-1.58.22-20.62.42-39.43.13-9.36.28-18.62.45-25.55.09-3.46.17-6.34.27-8.35.09-2.01.19-3.16.29-3.16s.19,1.15.29,3.16c.09,2.01.18,4.89.27,8.35.17,6.92.32,16.18.45,25.55.2,18.81.4,37.85.42,39.43v533.61c-.01,1.13-.11,11.55-.24,24.26.39.09.77.18,1.17.27.71.19,1.42.37,2.12.6.71.21,1.41.45,2.1.71.7.24,1.4.51,2.08.81,1.39.54,2.73,1.21,4.08,1.84,1.31.71,2.66,1.36,3.92,2.13,5.12,2.97,9.72,6.46,13.56,9.73,3.78,3.34,6.83,6.41,8.88,8.69,2.03,2.3,3.19,3.69,3.1,3.78-.09.08-1.42-1.15-3.61-3.28-2.2-2.11-5.38-5-9.24-8.14-3.91-3.07-8.54-6.35-13.62-9.1-1.25-.71-2.58-1.31-3.87-1.96-1.33-.58-2.64-1.19-3.99-1.68-.67-.27-1.34-.51-2.01-.72-.67-.23-1.34-.45-2.02-.63-.67-.2-1.34-.36-2.01-.52-.17-.04-.33-.07-.5-.11l-.57-.11c-.64-.11-1.3-.19-1.94-.28-.13-13.78-.23-25.08-.25-26.3Z"/><path class="cls-2" d="M150.08,763.39c-14.32.55-28.65,2.04-42.5,5.49-6.92,1.74-13.67,4.08-20.14,7.02-6.47,2.94-12.61,6.58-18.42,10.72-.09.06-.77.49-1.8,1.15-.93.6-2.18,1.41-3.54,2.3-2.55,1.64-5.07,3.25-5.32,2.93-.24-.3,1.83-2.46,4.09-4.53,1.14-1.02,2.29-2.06,3.21-2.82.98-.78,1.62-1.28,1.7-1.35,5.92-4.23,12.24-7.97,18.89-10.99,6.65-3.02,13.57-5.41,20.63-7.19,14.14-3.51,28.64-5.02,43.1-5.57.52-.1,12.46.42,12.44,1.19,0,.81-11.84,1.57-12.34,1.67Z"/><path class="cls-2" d="M34.04,737.57c20.27,5.85,39.83,13.83,58.81,22.88,2.39,1.11,4.72,2.33,7.08,3.49,2.35,1.19,4.72,2.32,7.04,3.55,4.64,2.47,9.33,4.86,13.9,7.46,9.22,5.06,18.27,10.42,27.19,15.99.33.18,4.07,2.74,7.64,5.36,3.57,2.64,6.95,5.37,6.72,5.7-.22.31-3.99-1.82-7.82-4.01-4.08-2.34-7.77-4.46-8.06-4.63-8.88-5.54-17.89-10.88-27.06-15.91-4.55-2.58-9.21-4.96-13.83-7.42-2.31-1.23-4.67-2.35-7.01-3.53-2.35-1.15-4.66-2.37-7.04-3.47-18.87-9-38.3-16.92-58.36-22.71-.64-.48-17.23-5.01-17.09-5.8.13-.76,17.22,2.57,17.88,3.05Z"/><path class="cls-2" d="M288.12,128.01c.05-5.28-1.34-10.5-3.92-15.12-2.56-4.64-6.24-8.64-10.35-12.09-8.3-6.9-18.25-11.72-28.44-15.56-10.24-3.81-20.86-6.62-31.6-8.76-10.75-2.13-21.63-3.62-32.56-4.48-.39-.03-5.08-.56-9.68-1-4.6-.46-9.14-.81-9.14-1.2,0-.39,4.55-.76,9.22-.81,4.67-.08,9.43.13,9.82.16,11.04.86,22.03,2.37,32.9,4.52,10.86,2.17,21.62,5.01,32.04,8.88,5.21,1.95,10.32,4.17,15.26,6.78,4.92,2.63,9.7,5.62,14.01,9.26,4.31,3.62,8.23,7.86,11.01,12.89,2.81,5,4.34,10.77,4.28,16.52,0,.1-.01.48-.03,1.08-.06.58-.14,1.38-.24,2.33-.3,1.86-.75,4.24-1.54,6.49-.33,1.14-.82,2.22-1.22,3.24-.45,1-.9,1.92-1.29,2.69-.86,1.52-1.49,2.48-1.67,2.39h0c-.18-.08.11-1.2.65-2.82.26-.9.53-1.84.81-2.8.24-1.04.58-2.12.77-3.24.51-2.21.72-4.49.87-6.23.03-.88.05-1.62.06-2.17-.02-.56-.03-.91-.03-1Z"/><path class="cls-2" d="M276.86,133.34c-2.76-3.42-6.04-6.44-9.58-9.12-3.55-2.68-7.34-5.06-11.28-7.18-3.96-2.1-8.04-3.97-12.2-5.67-4.17-1.67-8.42-3.15-12.72-4.51-8.61-2.64-17.4-4.73-26.29-6.27-8.88-1.58-17.86-2.62-26.87-3.23-.28-.03-3.88-.39-7.98-.8-3.79-.41-7.53-.73-7.53-1.14,0-.37,3.75-.77,7.59-.87,1.92-.08,3.87-.08,5.37-.07,1.5,0,2.57.03,2.73.04,9.11.61,18.19,1.67,27.18,3.27,9,1.56,17.9,3.68,26.64,6.36,4.36,1.38,8.69,2.89,12.94,4.59,4.24,1.74,8.42,3.65,12.48,5.8,4.05,2.19,7.97,4.63,11.66,7.43,3.68,2.8,7.14,5.95,10.08,9.61.09.12.7.99,1.61,2.29.77,1.34,1.82,3.04,2.55,4.88.19.45.41.89.57,1.35.14.45.29.9.43,1.35.27.87.53,1.67.62,2.4.24,1.43.32,2.38.13,2.42h0c-.19.04-.64-.81-1.19-2.09-.24-.65-.65-1.37-1.04-2.14l-.6-1.19c-.21-.41-.48-.79-.71-1.19-.91-1.62-2.07-3.1-2.9-4.28-.96-1.15-1.6-1.91-1.69-2.02Z"/><path class="cls-2" d="M292.51,140.19c4.67-2.96,9.21-6.13,13.44-9.65,4.21-3.52,8.19-7.37,11.24-11.8l1.11-1.67c.37-.56.61-1.17.93-1.75.63-1.16,1.17-2.38,1.56-3.65.84-2.51,1.29-5.14,1.18-7.72-.09-2.57-.81-5.11-2.24-7.09-1.4-2-3.6-3.27-5.96-3.38-.15-.04-2.23-.26-4.35.42-2.12.58-4.08,1.82-4.34,1.5-.24-.27,1.29-2.14,3.55-3.36,1.11-.61,2.36-1.07,3.39-1.24,1.02-.19,1.78-.19,1.89-.18,3.24.13,6.34,1.97,8.13,4.55,1.84,2.57,2.66,5.65,2.78,8.64.24,6.04-2,11.75-5.28,16.53-3.3,4.77-7.43,8.75-11.77,12.38-4.35,3.63-8.98,6.86-13.74,9.87-.17.11-2.3,1.27-4.48,2.24-2.17.98-4.38,1.76-4.56,1.41h0c-.18-.34,1.67-1.74,3.54-3.15,1.88-1.4,3.81-2.8,3.97-2.91Z"/><path class="cls-2" d="M172.27,38.18c10.5,7.05,20.9,14.29,30.68,22.42,4.85,4.11,9.58,8.42,13.69,13.42,2.04,2.51,3.91,5.21,5.3,8.24.34.76.68,1.52.93,2.33.3.78.49,1.62.69,2.44.32,1.67.53,3.39.34,5.12.04.24-.46,3.25-1.91,5.68-1.38,2.47-3.34,4.31-3.62,4.09-.33-.25,1-2.5,1.78-4.91.84-2.41.93-4.89.9-5.09.26-2.86-.47-5.76-1.72-8.46-1.24-2.71-2.98-5.25-4.92-7.63-3.91-4.76-8.54-9-13.31-13.04-9.63-8.01-19.98-15.22-30.43-22.23-.36-.26-8.69-6.51-8.27-7.16.43-.67,9.49,4.51,9.86,4.78Z"/><path class="cls-2" d="M307.25,740.18V206.57c.02-1.58.22-20.62.42-39.43.13-9.36.28-18.62.45-25.55.09-3.46.17-6.34.27-8.35.09-2.01.19-3.16.29-3.16s.19,1.15.29,3.16c.09,2.01.18,4.89.27,8.35.17,6.92.32,16.18.45,25.55.2,18.81.4,37.85.42,39.43v533.61c-.01,1.22-.12,12.52-.25,26.3-.64.09-1.3.16-1.94.28l-.57.11c-.17.03-.33.06-.5.11-.67.16-1.34.31-2.01.52-.67.18-1.35.4-2.02.63-.68.21-1.35.46-2.01.72-1.35.49-2.66,1.1-3.99,1.68-1.29.65-2.62,1.25-3.87,1.96-5.08,2.75-9.71,6.03-13.62,9.1-3.86,3.14-7.04,6.03-9.24,8.14-2.18,2.13-3.52,3.36-3.61,3.28-.09-.08,1.06-1.47,3.1-3.78,2.05-2.29,5.1-5.36,8.88-8.69,3.83-3.27,8.43-6.76,13.56-9.73,1.26-.77,2.61-1.42,3.92-2.13,1.35-.63,2.69-1.3,4.08-1.84.68-.3,1.38-.57,2.08-.81.69-.26,1.39-.5,2.1-.71.7-.23,1.41-.42,2.12-.6.39-.09.78-.18,1.17-.27-.12-12.71-.23-23.14-.24-24.26Z"/><path class="cls-2" d="M174.86,760.53c14.46.55,28.96,2.06,43.1,5.57,7.06,1.78,13.98,4.17,20.63,7.19,6.65,3.02,12.96,6.76,18.89,10.99.09.07.72.58,1.7,1.35.92.76,2.08,1.8,3.21,2.82,2.26,2.07,4.33,4.23,4.09,4.53-.26.31-2.78-1.29-5.32-2.93-1.36-.88-2.61-1.69-3.54-2.3-1.04-.66-1.71-1.09-1.8-1.15-5.8-4.14-11.94-7.78-18.42-10.72-6.47-2.94-13.22-5.28-20.14-7.02-13.86-3.44-28.18-4.94-42.5-5.49-.5-.1-12.33-.86-12.34-1.67-.01-.77,11.92-1.29,12.44-1.19Z"/><path class="cls-2" d="M291.58,740.32c-20.06,5.79-39.49,13.71-58.36,22.71-2.37,1.1-4.69,2.32-7.04,3.47-2.33,1.18-4.7,2.31-7.01,3.53-4.62,2.46-9.28,4.84-13.83,7.42-9.17,5.03-18.18,10.37-27.06,15.91-.29.17-3.97,2.28-8.06,4.63-3.83,2.19-7.6,4.32-7.82,4.01-.23-.33,3.15-3.06,6.72-5.7,3.57-2.62,7.31-5.17,7.64-5.36,8.92-5.57,17.97-10.93,27.19-15.99,4.57-2.59,9.26-4.99,13.9-7.46,2.32-1.23,4.7-2.37,7.04-3.55,2.36-1.16,4.69-2.38,7.08-3.49,18.99-9.05,38.54-17.03,58.81-22.88.66-.49,17.75-3.81,17.88-3.05.14.79-16.46,5.32-17.09,5.8Z"/></g><polygon id="Banner_1_Shape" class="cls-1" points="211.59 117.38 245.69 83.28 162.42 0 79.14 83.28 113.24 117.38 35.26 117.38 35.26 771.58 289.57 771.58 289.57 117.38 211.59 117.38"/></g></svg>