<?xml version="1.0" encoding="UTF-8"?><svg id="Line" xmlns="http://www.w3.org/2000/svg" viewBox="0 0 355.8 750.16"><defs><style>.cls-1{opacity:.24;}.cls-1,.cls-2{fill:#fff;stroke-width:0px;}</style></defs><g id="Banner_2"><g id="Banner_2_Lines"><path class="cls-2" d="M92.31,710.78l-3.12-.37-3.11-.46-3.11-.47-3.11-.58c-1.04-.19-2.07-.39-3.1-.65-1.03-.26-2.07-.44-3.1-.78-1.03-.32-2.06-.57-3.09-1-.52-.2-1.03-.36-1.55-.65l-.78-.39c-.13-.05-.27-.16-.4-.25l-.2-.13-.1-.07-.05-.03-.03-.02h-.01s.06.03.06.03l-.93.5c-.46.25-.91.51-1.36.77-.89.53-1.78,1.09-2.63,1.68-1.71,1.18-3.33,2.47-4.76,3.91-.37.35-.68.74-1.02,1.11-.18.18-.31.39-.47.58l-.4.52c-.17.21-.31.47-.46.7l-.89,1.33-.44.66-.22.33-.11.16s-.07-.1-.1-.15l-1.62-2.78-1.88-3.22c-.57-.88-1.18-1.73-1.77-2.59-2.42-3.37-5.22-6.54-8.64-8.56-.83-.57-1.75-.86-2.64-1.25l-1.38-.36c-.46-.11-.93-.11-1.4-.18-.47-.07-.93.02-1.4.01-.46.03-.92.14-1.37.21l-.66.2-.17.05-.09.03-.17.08-.68.34-.68.34c-.24.13-.54.37-.81.55l-1.65,1.16V179.46c0-.9.05-6.75.11-15.05-.05-.26.1-.47.21-.69l.22-.43c.12-.23.24-.47.37-.7.25-.47.5-.95.76-1.43.52-.96,1.06-1.96,1.62-2.98,1.12-2.03,2.31-4.14,3.56-6.3,2.51-4.32,5.23-8.84,8.09-13.25,5.67-8.84,11.87-17.22,16.96-23.09,1.23-1.5,2.49-2.77,3.56-3.93.54-.57,1.04-1.1,1.51-1.6.49-.46.94-.89,1.36-1.29,1.65-1.54,2.61-2.39,2.68-2.32.07.07-.76,1.05-2.27,2.72-.38.42-.8.88-1.25,1.37-.44.52-.91,1.09-1.4,1.68-.99,1.21-2.17,2.52-3.33,4.07-4.8,6.04-10.69,14.53-16.11,23.46-2.73,4.45-5.33,9.01-7.74,13.34-1.2,2.17-2.34,4.29-3.41,6.33-.53,1.02-1.05,2.01-1.55,2.98-.25.48-.49.96-.73,1.43-.12.24-.23.47-.35.7l-.13.26s0,.02,0,.03c.06,8.1.11,13.81.11,14.68v516.54l.08-.03.07-.03h.02s.11-.04.11-.04l.22-.07.88-.26c.6-.11,1.2-.24,1.8-.28.6,0,1.22-.09,1.82-.02.6.08,1.21.09,1.79.23l1.73.45c1.08.46,2.21.84,3.17,1.49,4,2.37,6.97,5.82,9.54,9.38.62.91,1.26,1.81,1.86,2.73l1.37,2.34h0s0,0,0,0c0,0-.03.04.09-.12.18-.22.35-.47.54-.67.39-.42.75-.87,1.16-1.26,1.6-1.61,3.35-3,5.17-4.26.91-.63,1.85-1.22,2.79-1.78.48-.28.95-.56,1.44-.82l.73-.39.52-.27.67-.33.95.34.45.16.11.04.06.02.1-.04c.07-.03.14-.06.16,0,.03.04.09.04.07.16,1.59.85,3.47,1.55,5.42,2.08.95.31,1.98.49,2.96.74.99.25,1.99.45,3.01.63l3.03.57,3.06.46,3.06.45,3.08.36c.44.05,2.08.25,4.64.56,2.56.24,6.02.63,10.09.97,4.07.31,8.73.72,13.7.98,2.48.15,5.03.3,7.62.46,2.58.12,5.2.23,7.82.35,5.22.27,10.42.43,15.28.59,2.42.09,4.77.17,7,.25,2.21.06,4.31.12,6.25.17,3.87.11,7.08.22,9.33.32s3.53.21,3.53.31-1.28.19-3.53.27-5.47.15-9.34.21c-1.95.03-4.05.05-6.26.08-2.23,0-4.58,0-7.01-.01-4.87,0-10.08-.03-15.32-.17-2.62-.06-5.25-.11-7.84-.17-2.6-.1-5.16-.2-7.65-.3-4.98-.16-9.68-.49-13.77-.72-4.1-.26-7.59-.61-10.17-.81-2.58-.28-4.25-.46-4.69-.51Z"/><path class="cls-2" d="M149.11,109.83c-2.49-4.35-3.63-9.26-4.03-14.08-.39-4.84-.13-9.68.52-14.42,1.31-9.5,3.96-18.69,7.09-27.64,3.17-8.95,6.88-17.68,10.93-26.24,2.02-4.28,4.13-8.52,6.31-12.72,1.09-2.1,2.19-4.19,3.32-6.27l1.7-3.12,2.97-5.34,2.97,5.34,1.7,3.12c1.12,2.08,2.23,4.17,3.32,6.27,2.18,4.2,4.29,8.44,6.31,12.72,4.05,8.56,7.76,17.29,10.93,26.24,3.13,8.95,5.78,18.14,7.09,27.64.65,4.74.91,9.58.52,14.42-.41,4.82-1.55,9.73-4.03,14.08-.2.29-1.31,2.37-3.64,4.71-2.27,2.39-5.93,4.7-9.82,6.02-3.9,1.31-7.91,1.81-10.87,1.87-2.97.06-4.92-.18-4.92-.35,0-.22,1.94-.36,4.83-.75,2.88-.39,6.69-1.18,10.25-2.65,3.55-1.47,6.71-3.74,8.63-5.95,1.97-2.17,2.88-4.06,3.06-4.31,2.21-3.86,3.29-8.37,3.67-12.91.37-4.56.13-9.2-.51-13.79-1.26-9.2-3.86-18.24-6.95-27.07-3.12-8.83-6.8-17.48-10.82-25.97-2-4.25-4.1-8.45-6.26-12.63-1.08-2.09-2.18-4.16-3.3-6.23l-2.15-3.94-2.15,3.94c-1.12,2.07-2.22,4.14-3.3,6.23-2.16,4.17-4.26,8.38-6.26,12.63-4.01,8.49-7.69,17.14-10.82,25.97-3.09,8.83-5.69,17.87-6.95,27.07-.63,4.59-.88,9.23-.51,13.79.38,4.54,1.46,9.04,3.67,12.91.18.26,1.09,2.14,3.06,4.31,1.92,2.21,5.07,4.47,8.63,5.95,3.56,1.46,7.37,2.25,10.25,2.65,2.88.39,4.83.53,4.83.75,0,.17-1.95.41-4.92.35-2.97-.06-6.97-.55-10.87-1.87-3.89-1.32-7.54-3.63-9.82-6.02-2.33-2.34-3.44-4.43-3.64-4.71Z"/><path class="cls-2" d="M95.66,81.62c-.38,2.04-.49,4.23-.3,6.26.26,2.06.88,4.06,1.74,5.99.92,1.9,2.08,3.7,3.41,5.39,1.36,1.66,2.83,3.26,4.47,4.7,6.49,5.85,14.39,10.12,22.55,13.5,8.19,3.37,16.78,5.79,25.5,7.45,4.36.82,8.76,1.46,13.18,1.85,2.21.19,4.42.36,6.64.44,1.11.06,2.22.09,3.32.1l1.73.03,3.05-.05,3.28-.14c2.19-.13,4.37-.27,6.55-.51,4.36-.44,8.7-1.07,13-1.92,8.59-1.71,17.05-4.16,25.12-7.53,8.03-3.38,15.8-7.66,22.17-13.46,3.18-2.88,5.9-6.25,7.7-10.02.85-1.9,1.43-3.89,1.68-5.92.2-2,.07-4.17-.3-6.18-.07-.28-.3-2.25-1.49-4.65-.61-1.19-1.48-2.46-2.68-3.55-1.19-1.08-2.7-1.99-4.35-2.49-1.64-.5-3.42-.63-4.95-.29-1.51.34-2.77,1.23-2.81,2.36-.04.55.09,1.11.33,1.57.2.48.49.85.7,1.19.48.62.76,1,.69,1.08-.06.07-.47-.16-1.12-.69-.29-.3-.69-.64-1.01-1.16-.35-.49-.65-1.18-.7-2.01-.06-.85.36-1.8,1.04-2.45.67-.67,1.54-1.11,2.45-1.42,1.84-.58,3.92-.58,5.9-.13,1.98.45,3.86,1.41,5.37,2.63,1.53,1.22,2.66,2.71,3.45,4.09,1.56,2.8,1.9,5.05,1.98,5.37.42,2.34.57,4.63.34,7.03-.29,2.37-.96,4.66-1.92,6.81-2.02,4.24-4.99,7.87-8.36,10.93-6.76,6.14-14.76,10.52-23,13.99-8.28,3.45-16.91,5.95-25.68,7.7-4.39.86-8.82,1.51-13.26,1.96-2.22.24-4.46.39-6.69.52l-3.35.14-3.59.05v-1.31c-.01-.17.02-.09.05-.07l.08.08.15.16.62.62.31.31s.13.11.12.15l-.2.03c-.24.06-.59.02-.76.03l-1.7-.03c-1.13,0-2.27-.04-3.4-.1-2.26-.08-4.52-.26-6.78-.45-4.51-.4-9-1.05-13.45-1.89-8.89-1.69-17.66-4.16-26.06-7.61-8.37-3.48-16.51-7.84-23.38-14.03-1.73-1.53-3.31-3.24-4.78-5.04-1.45-1.83-2.72-3.82-3.76-5.96-.98-2.17-1.69-4.48-1.99-6.88-.23-2.44-.1-4.76.33-7.13.09-.31.42-2.56,1.98-5.37.79-1.38,1.93-2.87,3.45-4.09,1.52-1.22,3.39-2.19,5.37-2.63,1.98-.45,4.05-.45,5.9.13.91.31,1.78.75,2.45,1.42.68.65,1.1,1.6,1.04,2.45-.05.83-.35,1.52-.7,2.01-.33.52-.72.86-1.01,1.16-.65.53-1.06.76-1.12.69-.07-.08.21-.46.69-1.08.2-.33.5-.71.7-1.19.24-.46.36-1.02.33-1.57-.04-1.13-1.29-2.02-2.81-2.36-1.53-.34-3.3-.21-4.95.29-1.65.49-3.16,1.4-4.35,2.49-1.2,1.08-2.07,2.36-2.68,3.55-1.19,2.41-1.42,4.37-1.49,4.65Z"/><path class="cls-2" d="M2.91,104.76c.33,4.15,1.73,8.22,3.94,11.82,1.1,1.8,2.36,3.52,3.77,5.11,1.42,1.58,2.96,3.07,4.6,4.45,3.31,2.72,6.96,5.04,10.86,6.89l1.46.69,1.35.57s0,0,0,0h0s.22-.31.22-.31c.17-.24.34-.48.53-.69,1.43-1.8,3-3.43,4.6-5.01,3.23-3.14,6.7-5.97,10.29-8.63,3.59-2.65,7.34-5.1,11.2-7.34,3.87-2.24,7.87-4.26,12.03-5.97l2.41-.98.38-.16.19-.08s.06-.02.07.03l.05.09.39.73.77,1.43c.26.45.46.92.75,1.35l.9,1.27.45.63.52.59,1.05,1.17c.72.76,1.54,1.43,2.3,2.16,3.25,2.72,7.03,4.87,10.95,6.67,3.94,1.79,8.06,3.25,12.23,4.5,8.36,2.51,17.01,4.16,25.69,5.44,8.69,1.26,17.45,2.1,26.23,2.65,4.39.28,8.79.48,13.18.61l6.6.15,5,.04,3.05-.02,3.28-.04c2.19-.04,4.37-.09,6.55-.17,4.37-.15,8.74-.36,13.1-.64,8.72-.59,17.42-1.43,26.05-2.73,4.32-.64,8.61-1.4,12.86-2.31,4.26-.91,8.48-1.94,12.62-3.22,4.14-1.28,8.21-2.76,12.1-4.59,3.88-1.83,7.6-4.02,10.76-6.78.76-.71,1.58-1.38,2.24-2.19l1.04-1.16c.32-.4.6-.84.9-1.25.28-.43.64-.82.86-1.28l1.03-1.91.39-.72.19-.36.05-.09s.03-.06.07-.03l.19.08,1.52.62,1.85.75c4.12,1.73,8.08,3.76,11.91,6,7.65,4.52,14.87,9.73,21.29,15.96,1.61,1.55,3.12,3.23,4.55,5.01l.55.76.12-.05c.99-.4,1.96-.86,2.93-1.32,3.86-1.86,7.49-4.17,10.76-6.89,3.25-2.74,6.13-5.92,8.29-9.52,2.19-3.58,3.57-7.63,3.9-11.75.01-.3.12-1.41.06-3.13-.1-1.72-.41-4.05-1.33-6.64-.89-2.6-2.47-5.4-4.6-8.04-2.13-2.63-4.83-5.17-7.75-7.24-2.94-2.06-6.22-3.6-9.49-4.13-3.26-.57-6.41-.14-8.85.87-2.46.99-4.21,2.46-5.14,3.66-.99,1.21-.97,2.15-1.09,2.14-.03,0-.13-.23-.07-.68.05-.45.25-1.09.68-1.79.86-1.41,2.6-3.12,5.17-4.35,2.55-1.24,5.96-1.89,9.53-1.43,1.78.22,3.59.7,5.34,1.39,1.75.7,3.44,1.61,5.05,2.64,3.2,2.11,6.06,4.63,8.45,7.4,2.37,2.77,4.19,5.79,5.25,8.65,1.09,2.85,1.51,5.46,1.66,7.39.11,1.93,0,3.18,0,3.51-.37,4.63-1.92,9.11-4.3,13-2.35,3.93-5.45,7.33-8.9,10.24-3.47,2.89-7.3,5.32-11.35,7.27-1.01.49-2.03.97-3.07,1.39l-1.4.59-.76.32c-.07.06-.1-.04-.14-.09l-.12-.17-.24-.33-1.38-1.91c-1.32-1.64-2.75-3.22-4.3-4.72-6.18-6-13.28-11.14-20.73-15.53-3.74-2.18-7.6-4.16-11.57-5.83l-1.2-.49s0,0,0,0h0s.02-.03-.01.02l-.1.19-.42.77c-.26.53-.65.97-.97,1.45-.34.47-.66.96-1.02,1.41l-1.16,1.29c-.74.9-1.62,1.62-2.46,2.4-3.45,3.01-7.38,5.31-11.42,7.22-4.05,1.91-8.24,3.43-12.48,4.74-4.24,1.32-8.54,2.37-12.87,3.29-4.32.93-8.67,1.69-13.04,2.34-8.72,1.31-17.5,2.16-26.28,2.75-4.39.28-8.79.5-13.19.65-2.2.08-4.4.13-6.6.17l-3.3.04-3.53.02v-1.29c0-.16.01-.14.04-.1l.08.08.15.15.61.61.31.31.15.15s-.11.03-.17.04c-.24.06-.58.03-.77.04h-1.66s-3.32-.04-3.32-.04c-2.21-.03-4.43-.08-6.64-.15-4.43-.13-8.85-.33-13.28-.61-8.84-.56-17.68-1.4-26.46-2.67-8.78-1.3-17.54-2.97-26.09-5.53-4.28-1.28-8.51-2.77-12.61-4.64-4.08-1.88-8.06-4.13-11.6-7.08-.84-.79-1.73-1.52-2.53-2.37l-1.16-1.3-.58-.65-.51-.71-1.02-1.43c-.33-.48-.58-1.03-.87-1.54-.03-.06,0-.01-.01-.03l-.66.27c-4.01,1.64-7.91,3.61-11.68,5.79-7.52,4.39-14.68,9.55-20.93,15.55-1.54,1.51-3.04,3.07-4.35,4.73-.18.2-.33.41-.48.63l-.75,1.04-.48.67-.24.34s-.04.07-.06.07l-.1-.04-.19-.08-1.52-.64-1.7-.72-1.53-.72c-4.08-1.94-7.94-4.38-11.45-7.27-1.75-1.46-3.38-3.05-4.91-4.75-1.51-1.71-2.88-3.57-4.08-5.53-2.4-3.92-3.98-8.42-4.35-13.08-.02-.33-.12-1.58,0-3.51.15-1.92.57-4.54,1.66-7.39,1.06-2.86,2.88-5.88,5.25-8.65,2.39-2.77,5.25-5.3,8.45-7.4,1.61-1.03,3.3-1.94,5.05-2.64,1.75-.69,3.56-1.17,5.34-1.39,3.57-.47,6.98.19,9.53,1.43,2.57,1.23,4.31,2.94,5.17,4.35.44.7.64,1.35.68,1.79.06.45-.04.68-.07.68-.11,0-.1-.93-1.09-2.14-.94-1.21-2.69-2.67-5.14-3.66-2.44-1-5.6-1.44-8.85-.87-3.27.53-6.56,2.07-9.49,4.13-2.92,2.07-5.62,4.61-7.75,7.24-2.13,2.64-3.72,5.44-4.6,8.04-.92,2.59-1.23,4.93-1.33,6.64-.06,1.72.05,2.83.06,3.13Z"/><path class="cls-2" d="M263.15,707.95l3.08-.36,3.06-.45,3.06-.46,3.03-.57c1.01-.18,2.02-.38,3.01-.63.98-.25,2.01-.43,2.96-.74,1.95-.53,3.83-1.23,5.42-2.08-.02-.12.04-.12.07-.16.03-.06.09-.03.16,0l.1.04.06-.02.11-.04.45-.16.95-.34.67.33.52.27.73.39c.49.26.96.54,1.44.82.95.57,1.88,1.15,2.79,1.78,1.82,1.26,3.58,2.64,5.17,4.26.41.39.77.84,1.16,1.26.2.21.36.45.54.67.13.16.09.12.09.12h0s0,0,0,0l1.37-2.34c.6-.92,1.24-1.82,1.86-2.73,2.57-3.56,5.54-7.01,9.54-9.38.95-.65,2.09-1.03,3.17-1.49l1.73-.45c.58-.14,1.19-.15,1.79-.23.6-.08,1.21.01,1.82.02.6.04,1.2.18,1.8.28l.88.26.22.07.11.03h.02s.07.04.07.04l.08.03V179.46c0-.87.05-6.59.11-14.68,0-.01,0-.02,0-.03l-.13-.26c-.12-.23-.23-.46-.35-.7-.24-.47-.48-.95-.73-1.43-.5-.97-1.02-1.96-1.55-2.98-1.07-2.03-2.21-4.16-3.41-6.33-2.41-4.34-5.01-8.9-7.74-13.34-5.41-8.92-11.31-17.41-16.11-23.46-1.16-1.55-2.34-2.86-3.33-4.07-.5-.6-.97-1.16-1.4-1.68-.45-.49-.87-.95-1.25-1.37-1.51-1.66-2.34-2.64-2.27-2.72.07-.07,1.03.77,2.68,2.32.42.39.87.82,1.36,1.29.47.5.98,1.03,1.51,1.6,1.07,1.16,2.32,2.42,3.56,3.93,5.1,5.87,11.29,14.25,16.96,23.09,2.86,4.41,5.58,8.93,8.09,13.25,1.25,2.16,2.44,4.27,3.56,6.3.55,1.02,1.09,2.01,1.62,2.98.26.49.51.96.76,1.43.12.24.25.47.37.7l.22.43c.11.22.26.43.21.69.06,8.3.11,14.15.11,15.05v521.63l-1.65-1.16c-.27-.18-.57-.42-.81-.55l-.68-.34-.68-.34-.17-.08-.09-.03-.17-.05-.66-.2c-.46-.07-.91-.18-1.37-.21-.47,0-.93-.08-1.4-.01-.47.07-.94.07-1.4.18l-1.38.36c-.89.39-1.81.68-2.64,1.25-3.42,2.02-6.22,5.19-8.64,8.56-.59.86-1.19,1.71-1.77,2.59l-1.88,3.22-1.62,2.78s-.07.14-.1.15l-.11-.16-.22-.33-.44-.66-.89-1.33c-.16-.23-.3-.49-.46-.7l-.4-.52c-.16-.19-.29-.4-.47-.58-.34-.37-.65-.76-1.02-1.11-1.42-1.44-3.05-2.73-4.76-3.91-.85-.59-1.74-1.14-2.63-1.68-.45-.26-.9-.52-1.36-.77l-.93-.5.06-.04h-.01s-.03.03-.03.03l-.05.03-.1.07-.2.13c-.13.08-.28.19-.4.25l-.78.39c-.52.28-1.03.44-1.55.65-1.03.43-2.06.68-3.09,1-1.03.33-2.06.51-3.1.78-1.03.26-2.07.46-3.1.65l-3.11.58-3.11.47-3.11.46-3.12.37c-.44.05-2.11.23-4.69.51-2.58.2-6.08.55-10.17.81-4.1.24-8.79.57-13.77.72-2.49.1-5.05.2-7.65.3-2.59.06-5.22.11-7.84.17-5.24.14-10.45.16-15.32.17-2.43,0-4.78,0-7.01.01-2.22-.03-4.31-.06-6.26-.08-3.87-.06-7.09-.13-9.34-.21s-3.53-.17-3.53-.27,1.28-.2,3.53-.31,5.46-.21,9.33-.32c1.94-.05,4.04-.11,6.25-.17,2.23-.08,4.57-.16,7-.25,4.86-.16,10.06-.32,15.28-.59,2.61-.12,5.23-.24,7.82-.35,2.59-.16,5.14-.31,7.62-.46,4.96-.26,9.62-.68,13.7-.98,4.07-.33,7.53-.73,10.09-.97,2.55-.31,4.2-.51,4.64-.56Z"/><path class="cls-2" d="M66.79,681.34c8.81,9.21,16.33,19.52,22.93,30.35,3.29,5.43,6.36,10.99,9.07,16.74,1.37,2.87,2.62,5.8,3.75,8.81.56,1.5,1.07,3.03,1.51,4.6l.32,1.19c.11.34.21,1,.18.83h0s1.62-1.37,1.62-1.37c.64-.58,1.36-1.03,2.05-1.54.69-.5,1.38-1,2.12-1.42l2.17-1.33,2.23-1.19c1.47-.83,3.02-1.47,4.54-2.19,6.14-2.72,12.54-4.71,19.03-6.25,6.49-1.53,13.07-2.59,19.69-3.33,6.62-.72,13.27-.97,19.91-1.04,6.65.07,13.29.33,19.91,1.04,6.61.73,13.2,1.79,19.69,3.33,6.49,1.54,12.89,3.54,19.03,6.25,1.52.72,3.07,1.36,4.54,2.19l2.23,1.19,2.17,1.33c.73.42,1.42.92,2.12,1.42.69.51,1.41.95,2.05,1.54l1.62,1.38h0c-.03.16.08-.5.18-.84l.32-1.19c.44-1.57.95-3.1,1.51-4.6,1.12-3,2.37-5.94,3.75-8.81,2.71-5.76,5.78-11.32,9.07-16.74,6.61-10.82,14.13-21.14,22.93-30.35.66-.61,8.46-8.86,18.04-14.46,4.74-2.83,9.89-4.83,13.89-5.66.98-.17,1.89-.32,2.74-.46.81-.13,1.54-.1,2.13-.14,1.18-.04,1.85-.02,1.85.08,0,.1-.65.27-1.79.49-.57.13-1.27.19-2.04.41-.8.22-1.68.45-2.61.7-3.8,1.14-8.64,3.35-13.1,6.3-9.01,5.85-16.39,14.12-17.04,14.72-8.62,9.01-16.04,19.18-22.55,29.85-3.24,5.35-6.27,10.83-8.92,16.48-1.35,2.81-2.57,5.68-3.65,8.58-.54,1.45-1.03,2.91-1.44,4.37l-.29,1.1c-.12.42-.12.54-.31,1.48-.17.72-.19,1.71-.28,2.51l-.23,2.47-3.45-3.58-.43-.45-.32-.28-.45-.38-.9-.77c-.58-.53-1.27-.95-1.91-1.43-.65-.47-1.29-.94-1.99-1.34l-2.05-1.26-2.14-1.14c-1.41-.79-2.91-1.41-4.37-2.11-5.93-2.63-12.19-4.58-18.54-6.09-6.36-1.5-12.82-2.54-19.33-3.26-6.51-.7-13.06-.95-19.61-1.02-6.55.07-13.1.32-19.61,1.02-6.5.72-12.97,1.76-19.33,3.26-6.35,1.5-12.6,3.46-18.54,6.09-1.46.69-2.97,1.31-4.37,2.11l-2.14,1.14-2.05,1.26c-.7.4-1.34.87-1.99,1.34-.64.48-1.33.9-1.91,1.43l-.9.77-.45.38-.32.28-.43.45-3.45,3.58-.23-2.47c-.1-.8-.12-1.79-.28-2.51-.19-.94-.19-1.06-.31-1.48l-.29-1.1c-.41-1.46-.9-2.92-1.44-4.37-1.08-2.9-2.3-5.76-3.65-8.58-2.65-5.65-5.68-11.13-8.92-16.48-6.51-10.67-13.93-20.84-22.55-29.85-.65-.6-8.03-8.88-17.04-14.72-4.46-2.96-9.3-5.17-13.1-6.3-.93-.25-1.81-.49-2.61-.7-.78-.21-1.48-.28-2.04-.41-1.14-.22-1.79-.39-1.79-.49,0-.1.67-.12,1.85-.08.59.04,1.32.01,2.13.14.84.14,1.76.3,2.74.46,3.99.83,9.15,2.84,13.89,5.66,9.58,5.59,17.38,13.85,18.04,14.46Z"/></g><path id="Banner_2_Shape" class="cls-1" d="M293.24,205.96c-33.2-124.07-65.25-136.39-115.34-136.39s-82.15,12.32-115.34,136.39c-33.2,124.07-25.11,286.68,12.63,379.73,37.74,93.05,54.36,105.96,102.72,105.96s64.98-12.9,102.72-105.96c37.74-93.05,45.82-255.66,12.63-379.73Z"/></g></svg>