<?xml version="1.0" encoding="UTF-8"?><svg id="Line" xmlns="http://www.w3.org/2000/svg" viewBox="0 0 418.85 709.85"><defs><style>.cls-1{opacity:.24;}.cls-1,.cls-2{fill:#fff;stroke-width:0px;}</style></defs><g id="Banner_7"><g id="Banner_7_Lines"><path class="cls-2" d="M16.32,87.21c-2.54,2.32-4.93,4.82-7.03,7.52-2.09,2.7-3.95,5.59-5.17,8.68-1.21,3.06-1.75,6.41-.69,9.29.98,2.91,3.56,5.08,6.5,6.54,2.97,1.46,6.29,2.36,9.66,2.95,3.38.6,6.83.91,10.3,1.07,6.93.39,13.93-.25,20.91-.53,13.93-1.15,27.77-3.43,41.36-6.75,13.58-3.39,26.85-7.94,39.76-13.32,12.9-5.41,25.44-11.72,37.38-19.02,11.91-7.32,23.38-15.45,33.7-24.84,5.13-4.71,10.14-9.59,14.25-15.15,2.1-2.74,3.95-5.65,5.47-8.69,1.52-3.04,2.68-6.25,3.17-9.54.27-1.64.29-3.29.17-4.92-.19-1.62-.52-3.22-1.13-4.71-1.21-3-3.31-5.62-5.97-7.57-2.62-2.01-5.76-3.34-8.99-4.24-3.26-.85-6.65-1.2-10.03-1.11-.48.03-3.68.04-8.16.79-4.47.74-10.21,2.24-15.53,4.59-2.65,1.17-5.22,2.55-7.32,4.16-1.04.8-1.97,1.69-2.54,2.64-.58.96-.58,1.88.06,2.55.62.68,1.54,1.08,2.34,1.37.81.29,1.55.48,2.16.62,1.23.28,1.95.42,1.94.52,0,.09-.74.15-2.03.04-.64-.05-1.43-.16-2.32-.38-.88-.24-1.92-.54-2.88-1.4-.46-.43-.88-1.1-.94-1.85-.06-.75.15-1.49.47-2.11.65-1.26,1.64-2.28,2.72-3.23,2.17-1.87,4.78-3.42,7.48-4.76,5.41-2.68,11.28-4.44,15.92-5.36,4.64-.93,8.03-1.03,8.54-1.06,3.65-.1,7.31.28,10.86,1.2,3.53.98,6.99,2.44,9.97,4.71,3,2.21,5.49,5.26,6.91,8.8.72,1.76,1.11,3.63,1.32,5.51.14,1.88.11,3.76-.19,5.6-.55,3.68-1.82,7.16-3.44,10.4-1.62,3.24-3.57,6.29-5.75,9.13-4.27,5.77-9.39,10.76-14.61,15.55-10.49,9.55-22.09,17.77-34.13,25.17-12.07,7.38-24.73,13.75-37.76,19.21-13.04,5.44-26.45,10.03-40.18,13.46-13.74,3.36-27.73,5.66-41.83,6.83-7.07.29-14.12.93-21.25.54-3.56-.16-7.12-.48-10.67-1.11-3.54-.62-7.09-1.57-10.44-3.21-1.67-.83-3.28-1.88-4.68-3.23-1.41-1.33-2.57-3.03-3.22-4.91-.67-1.88-.87-3.9-.66-5.81.19-1.92.7-3.75,1.38-5.48,1.37-3.46,3.37-6.54,5.58-9.39,2.22-2.85,4.71-5.45,7.36-7.87.29-.25,1.73-1.57,4.05-3.34,2.34-1.74,5.52-4.01,9.51-5.77,1-.43,2.05-.83,3.2-1.11.58-.13,1.18-.24,1.81-.28.33,0,.64-.03.99.03l.51.07.43.1c1.14.28,2.33.59,3.44,1.5.54.43,1.08,1.15,1.16,2,.09.83-.18,1.55-.49,2.12-.66,1.14-1.54,1.9-2.42,2.58-.89.67-1.82,1.21-2.77,1.65-.94.44-1.9.78-2.91.94-.5.07-1.01.13-1.65-.04-.15-.03-.29-.09-.42-.17-.14-.07-.26-.15-.36-.27-.11-.1-.2-.22-.25-.35-.06-.13-.13-.26-.16-.4-.32-1.44.07-2.56.59-3.42.52-.85,1.13-1.44,1.65-1.88,1.06-.87,1.79-1.16,1.84-1.08.06.09-.56.55-1.43,1.51-.43.48-.92,1.1-1.3,1.87-.18.39-.33.81-.39,1.26-.02.23-.05.46-.02.69,0,.22.08.51.11.62.06.24.28.42.53.45.2.04.62.01,1.01-.09.8-.18,1.65-.53,2.48-.98.83-.45,1.65-.99,2.4-1.61.75-.62,1.46-1.36,1.84-2.13.19-.38.27-.75.22-1.01-.03-.26-.21-.49-.53-.72-.62-.48-1.63-.77-2.63-.95l-.38-.07-.31-.02c-.19-.03-.44.01-.65.01-.46.05-.93.15-1.4.28-.95.26-1.89.66-2.79,1.08-3.61,1.75-6.63,4.03-8.81,5.76-2.18,1.76-3.53,3.06-3.81,3.3Z"/><path class="cls-2" d="M125.57,60.66c.42-1.2,1.09-2.23,1.85-3.1.77-.88,1.62-1.65,2.53-2.3,1.81-1.32,3.79-2.29,5.82-3.04,4.06-1.49,8.29-2.19,12.5-2.5,4.21-.27,8.42-.29,12.69.38,2.12.36,4.27.89,6.32,1.94,1.02.53,2.01,1.2,2.87,2.08.85.88,1.55,1.99,1.91,3.21.72,2.48.18,4.94-.65,6.99-.85,2.08-2.04,3.93-3.33,5.64-2.6,3.42-5.67,6.34-8.86,9.06-6.43,5.4-13.47,9.93-20.74,13.98-3.64,2.02-7.35,3.9-11.11,5.68-3.78,1.7-7.52,3.5-11.34,5.08-7.6,3.31-15.34,6.29-23.17,9.03-7.82,2.76-15.78,5.13-23.83,7.17-8.05,2.02-16.21,3.7-24.49,4.68-.59.04-7.75.78-14.78.48-3.51-.09-6.98-.55-9.53-.99-2.54-.56-4.19-1.01-4.15-1.2.04-.19,1.75-.12,4.29.1,2.55.1,5.96.24,9.4.08,6.88-.22,13.85-1.26,14.43-1.3,8.12-.97,16.17-2.62,24.13-4.62,7.95-2.02,15.84-4.36,23.59-7.1,7.76-2.72,15.44-5.66,22.98-8.95,3.8-1.57,7.51-3.36,11.26-5.04,3.71-1.75,7.36-3.6,10.94-5.59,7.15-3.98,14.06-8.43,20.28-13.66,3.09-2.62,6.03-5.44,8.43-8.6,1.19-1.57,2.25-3.25,2.96-4.99.71-1.73,1.03-3.56.57-5.09-.45-1.53-1.73-2.75-3.36-3.58-1.63-.84-3.54-1.34-5.47-1.66-3.9-.62-7.99-.61-12.02-.35-4.01.3-8.01.97-11.71,2.33-1.84.68-3.6,1.56-5.13,2.67-1.51,1.1-2.84,2.5-3.37,4.02-.01.16-.82,1.77.5,3.07.64.65,1.93,1.07,3.38,1.09.71,0,1.56-.06,2.39-.16.83-.09,1.67-.2,2.47-.37l.98-.23c.16-.04.3-.08.46-.15.15-.07.34-.19.33-.37-.03-.16-.17-.26-.31-.34-.15-.08-.29-.14-.5-.21-.18-.06-.6-.15-.94-.21-.7-.13-1.37-.19-2-.25-2.52-.19-4.23-.12-4.25-.34-.02-.17,1.65-.62,4.27-.77.66-.03,1.37-.04,2.14,0,.4.03.73.05,1.31.16.26.03.56.14.84.21.26.11.56.19.79.34.48.27.87.62,1.02,1.14.12.58-.15,1.06-.52,1.45-.36.41-1,.73-1.62,1.01-.27.1-.64.25-.85.31-.22.07-.44.15-.66.2-.88.26-1.77.44-2.64.59-.87.16-1.72.28-2.66.35-1.82.08-3.77-.28-5.17-1.48-.68-.58-1.21-1.31-1.46-2.05-.17-.36-.2-.72-.28-1.05-.04-.33-.05-.64-.06-.93.05-1.12.3-1.77.35-1.94Z"/><path class="cls-2" d="M71.62,102.53c-2.57.94-5.25,1.64-8.02,1.96-1.39.14-2.8.21-4.22.1l-.67-.05v492.06c-.02,1.5-.22,19.61-.42,37.53-.13,8.91-.28,17.72-.45,24.31-.09,3.29-.17,6.03-.27,7.94s-.19,3-.29,3-.19-1.09-.29-3c-.09-1.91-.18-4.65-.27-7.94-.17-6.59-.32-15.4-.45-24.31-.2-17.91-.4-36.03-.42-37.53V101.27c.11-.04.31.03.46.04l1.96.29.49.07c.26.03.26.02.35.03l.46.03c1.22.1,2.46.04,3.7-.09,2.48-.29,4.96-.93,7.35-1.8.65-.27,5.26-1.78,10.86-5.66,2.78-1.93,5.81-4.44,8.49-7.55,2.66-3.09,5.05-6.87,5.83-11,.19-1.02.31-2.09.22-3.04-.09-.96-.41-1.79-1.02-2.24-.6-.47-1.54-.63-2.49-.55-.96.06-1.93.31-2.87.61-3.77,1.31-7.01,3.45-9.55,5.44-1.27,1.01-2.36,2.02-3.22,2.99-.84.96-1.53,1.96-1.61,2.74-.06.39.11.75.36.93.24.2.52.29.76.36.48.14.76.16.75.23,0,.04-.28.11-.81.06-.26-.03-.61-.08-.98-.31-.37-.21-.68-.68-.66-1.26.04-1.16.72-2.19,1.53-3.29.84-1.09,1.91-2.19,3.16-3.3,2.52-2.19,5.71-4.52,9.73-6.09,1.02-.37,2.08-.7,3.26-.81,1.15-.12,2.52-.04,3.71.79.58.41,1.03,1,1.32,1.61.29.62.45,1.25.53,1.88.15,1.25.04,2.42-.14,3.59-.76,4.7-3.27,8.82-6.01,12.18-2.77,3.38-5.89,6.08-8.78,8.17-5.8,4.2-10.69,5.91-11.4,6.2Z"/><path class="cls-2" d="M170.31,701.94c-6.25-3.93-11.84-8.67-17.24-13.49-5.41-4.83-10.68-9.75-16.11-14.48-10.83-9.47-22.32-18.15-34.73-25.39-6.19-3.6-12.57-6.98-19.11-9.84-6.53-2.86-13.32-5.18-20.27-6.84-6.95-1.66-14.03-2.77-21.16-3.3-7.12-.5-14.31-.52-21.33.46-.12.01-.59.07-1.33.15-.73.08-1.7.27-2.84.45-2.25.45-5.16,1.08-7.54,2.63-.57.37-1.1.8-1.42,1.25-.32.46-.42.82-.25,1.18.17.38.64.75,1.14.98.51.24,1.05.39,1.57.48,2.1.35,3.58-.11,3.63.11.07.13-1.3,1.01-3.74.99-.6-.01-1.27-.09-1.96-.32-.68-.23-1.47-.6-2.03-1.45-.28-.42-.42-.99-.37-1.52.05-.53.23-1.02.47-1.42.48-.81,1.13-1.39,1.78-1.92,2.61-2.04,5.81-2.95,8.15-3.57,1.19-.26,2.21-.52,2.96-.64.76-.12,1.25-.2,1.38-.22,7.31-1.01,14.65-.99,21.93-.48,7.29.54,14.52,1.67,21.62,3.37,7.11,1.7,14.05,4.07,20.75,7,6.7,2.94,13.11,6.33,19.41,9.99,12.58,7.33,24.25,16.15,35.16,25.7,5.46,4.77,10.76,9.71,16.13,14.5,5.37,4.79,10.85,9.43,16.85,13.2.44.23,5.5,3.68,11.11,5.73,2.78,1.08,5.67,1.77,7.84,2.26,2.18.43,3.66.71,3.65.92,0,.18-1.51.28-3.79.18-2.27-.16-5.33-.56-8.32-1.44-2.98-.87-5.94-2.01-8.1-3.14-1.11-.51-2-1.03-2.68-1.4-.68-.38-1.1-.62-1.22-.68Z"/><path class="cls-2" d="M404.46,85.09c2.65,2.42,5.14,5.02,7.36,7.87,2.21,2.85,4.2,5.93,5.58,9.39.68,1.73,1.19,3.56,1.38,5.48.21,1.91,0,3.93-.66,5.81-.66,1.89-1.82,3.58-3.22,4.91-1.41,1.34-3.01,2.4-4.68,3.23-3.35,1.64-6.9,2.59-10.44,3.21-3.55.63-7.11.95-10.67,1.11-7.13.39-14.18-.24-21.25-.54-14.1-1.16-28.1-3.47-41.83-6.83-13.72-3.43-27.13-8.03-40.18-13.46-13.03-5.47-25.7-11.84-37.76-19.21-12.04-7.4-23.63-15.61-34.13-25.17-5.22-4.79-10.34-9.77-14.61-15.55-2.18-2.84-4.13-5.89-5.75-9.13-1.61-3.24-2.89-6.72-3.44-10.4-.3-1.83-.33-3.72-.19-5.6.21-1.87.6-3.74,1.32-5.51,1.41-3.53,3.9-6.59,6.91-8.8,2.98-2.27,6.44-3.73,9.97-4.71,3.55-.92,7.22-1.31,10.86-1.2.51.03,3.9.13,8.54,1.06,4.63.92,10.5,2.67,15.92,5.36,2.7,1.34,5.3,2.89,7.48,4.76,1.08.94,2.06,1.96,2.72,3.23.32.63.53,1.36.47,2.11-.06.76-.48,1.42-.94,1.85-.96.86-2,1.16-2.88,1.4-.89.22-1.67.32-2.32.38-1.29.1-2.02.05-2.03-.04-.01-.11.71-.24,1.94-.52.61-.14,1.35-.33,2.16-.62.79-.29,1.71-.69,2.34-1.37.64-.67.65-1.59.06-2.55-.57-.95-1.5-1.83-2.54-2.64-2.1-1.61-4.67-2.99-7.32-4.16-5.32-2.36-11.07-3.86-15.53-4.59-4.48-.75-7.68-.76-8.16-.79-3.38-.1-6.78.26-10.03,1.11-3.23.9-6.37,2.23-8.99,4.24-2.66,1.95-4.76,4.57-5.97,7.57-.61,1.5-.94,3.1-1.13,4.71-.11,1.63-.1,3.28.17,4.92.49,3.28,1.65,6.49,3.17,9.54,1.52,3.04,3.37,5.95,5.47,8.69,4.1,5.56,9.11,10.43,14.25,15.15,10.32,9.4,21.78,17.53,33.7,24.84,11.94,7.3,24.48,13.61,37.38,19.02,12.91,5.38,26.19,9.93,39.76,13.32,13.59,3.32,27.42,5.6,41.36,6.75,6.98.29,13.98.92,20.91.53,3.47-.16,6.92-.47,10.3-1.07,3.37-.59,6.69-1.49,9.66-2.95,2.94-1.46,5.51-3.64,6.5-6.54,1.06-2.88.52-6.23-.69-9.29-1.22-3.09-3.07-5.98-5.17-8.68-2.1-2.7-4.49-5.2-7.03-7.52-.27-.24-1.63-1.54-3.81-3.3-2.18-1.73-5.2-4.01-8.81-5.76-.9-.43-1.84-.82-2.79-1.08-.47-.13-.95-.23-1.4-.28-.21,0-.46-.05-.65-.01l-.31.02-.38.07c-.99.18-2.01.48-2.63.95-.32.23-.49.47-.53.72-.05.26.03.63.22,1.01.39.77,1.09,1.51,1.84,2.13.75.63,1.57,1.17,2.4,1.61.83.45,1.68.8,2.48.98.4.1.81.13,1.01.09.25-.03.48-.21.53-.45.03-.12.12-.4.11-.62.04-.23,0-.46-.02-.69-.06-.45-.2-.88-.39-1.26-.37-.77-.87-1.39-1.3-1.87-.87-.96-1.49-1.42-1.43-1.51.05-.08.78.21,1.84,1.08.52.44,1.13,1.03,1.65,1.88.52.86.91,1.98.59,3.42-.03.14-.1.26-.16.4-.05.14-.14.26-.25.35-.1.12-.22.2-.36.27-.13.08-.27.14-.42.17-.65.18-1.15.12-1.65.04-1-.16-1.96-.5-2.91-.94-.94-.44-1.87-.98-2.77-1.65-.88-.67-1.76-1.44-2.42-2.58-.31-.57-.58-1.29-.49-2.12.08-.85.62-1.57,1.16-2,1.12-.9,2.3-1.22,3.44-1.5l.43-.1.51-.07c.35-.06.66-.02.99-.03.63.04,1.23.14,1.81.28,1.15.27,2.2.67,3.2,1.11,3.99,1.76,7.17,4.03,9.51,5.77,2.32,1.77,3.76,3.08,4.05,3.34Z"/><path class="cls-2" d="M290.59,61.59c-.52-1.52-1.86-2.93-3.37-4.02-1.53-1.11-3.28-1.99-5.13-2.67-3.7-1.36-7.69-2.03-11.71-2.33-4.02-.26-8.12-.27-12.02.35-1.94.32-3.85.82-5.47,1.66-1.63.83-2.91,2.05-3.36,3.58-.46,1.53-.14,3.36.57,5.09.71,1.74,1.77,3.41,2.96,4.99,2.4,3.16,5.34,5.98,8.43,8.6,6.22,5.23,13.13,9.68,20.28,13.66,3.58,1.99,7.23,3.84,10.94,5.59,3.75,1.69,7.46,3.47,11.26,5.04,7.54,3.29,15.22,6.24,22.98,8.95,7.75,2.74,15.63,5.09,23.59,7.1,7.96,2,16.01,3.65,24.13,4.62.58.04,7.55,1.08,14.43,1.3,3.44.17,6.84.03,9.4-.08,2.54-.22,4.25-.29,4.29-.1.04.19-1.61.64-4.15,1.2-2.55.45-6.01.9-9.53.99-7.03.3-14.19-.44-14.78-.48-8.28-.99-16.44-2.66-24.49-4.68-8.05-2.04-16.01-4.41-23.83-7.17-7.83-2.74-15.57-5.71-23.17-9.03-3.83-1.59-7.56-3.38-11.34-5.08-3.76-1.78-7.47-3.66-11.11-5.68-7.27-4.05-14.31-8.57-20.74-13.98-3.19-2.72-6.26-5.64-8.86-9.06-1.29-1.71-2.48-3.55-3.33-5.64-.83-2.06-1.38-4.52-.65-6.99.36-1.22,1.06-2.33,1.91-3.21.86-.89,1.85-1.55,2.87-2.08,2.05-1.05,4.2-1.58,6.32-1.94,4.27-.68,8.48-.65,12.69-.38,4.21.32,8.44,1.01,12.5,2.5,2.02.75,4,1.72,5.82,3.04.91.65,1.76,1.42,2.53,2.3.77.87,1.44,1.9,1.85,3.1.05.17.3.82.35,1.94-.01.29-.02.59-.06.93-.08.33-.12.69-.28,1.05-.25.74-.78,1.47-1.46,2.05-1.4,1.2-3.35,1.56-5.17,1.48-.94-.07-1.78-.19-2.66-.35-.87-.16-1.76-.34-2.64-.59-.22-.06-.44-.14-.66-.2-.21-.06-.57-.21-.85-.31-.62-.28-1.26-.6-1.62-1.01-.37-.39-.64-.87-.52-1.45.16-.53.54-.88,1.02-1.14.22-.15.53-.23.79-.34.29-.07.59-.17.84-.21.57-.11.91-.13,1.31-.16.77-.05,1.49-.04,2.14,0,2.63.15,4.29.6,4.27.77-.02.21-1.74.14-4.25.34-.63.05-1.31.12-2,.25-.34.06-.75.14-.94.21-.22.07-.35.12-.5.21-.14.08-.28.18-.31.34,0,.18.18.3.33.37.16.08.3.11.46.15l.98.23c.8.17,1.64.28,2.47.37.83.1,1.68.15,2.39.16,1.46-.02,2.74-.44,3.38-1.09,1.32-1.3.52-2.91.5-3.07Z"/><path class="cls-2" d="M348.22,99.85c2.4.87,4.87,1.52,7.35,1.8,1.24.12,2.49.19,3.7.09l.46-.03c.09,0,.09,0,.35-.03l.49-.07,1.96-.29c.15-.01.35-.08.46-.04v495.34c-.02,1.5-.22,19.61-.42,37.53-.13,8.91-.28,17.72-.45,24.31-.09,3.29-.18,6.03-.27,7.94-.09,1.91-.19,3-.29,3s-.19-1.09-.29-3-.18-4.65-.27-7.94c-.17-6.59-.32-15.4-.45-24.31-.2-17.91-.4-36.03-.42-37.53V104.55l-.67.05c-1.42.12-2.83.04-4.22-.1-2.77-.32-5.45-1.03-8.02-1.96-.71-.29-5.59-2-11.4-6.2-2.89-2.1-6.01-4.8-8.78-8.17-2.74-3.36-5.25-7.48-6.01-12.18-.17-1.17-.28-2.34-.14-3.59.08-.62.24-1.26.53-1.88.29-.61.74-1.2,1.32-1.61,1.19-.84,2.56-.91,3.71-.79,1.18.12,2.24.44,3.26.81,4.02,1.57,7.2,3.91,9.73,6.09,1.25,1.11,2.33,2.21,3.16,3.3.81,1.1,1.5,2.13,1.53,3.29.02.58-.29,1.05-.66,1.26-.37.23-.72.28-.98.31-.53.05-.81-.02-.81-.06,0-.06.28-.09.75-.23.24-.07.52-.17.76-.36.25-.19.42-.55.36-.93-.09-.79-.77-1.79-1.61-2.74-.86-.98-1.96-1.98-3.22-2.99-2.54-1.99-5.78-4.13-9.55-5.44-.94-.3-1.92-.56-2.87-.61-.95-.07-1.89.08-2.49.55-.61.46-.92,1.29-1.02,2.24-.09.95.03,2.02.22,3.04.79,4.13,3.17,7.91,5.83,11,2.68,3.11,5.71,5.61,8.49,7.55,5.61,3.88,10.21,5.39,10.86,5.66Z"/><path class="cls-2" d="M74.3,668.96c5.91.91,11.76,2.16,17.51,3.83,5.75,1.65,11.35,3.76,16.83,6.1,10.96,4.68,21.38,10.32,32.19,14.92,5.4,2.3,10.89,4.38,16.49,6.1,5.6,1.7,11.31,3.06,17.06,4.16,11.54,2.05,23.29,2.92,35.05,2.93,11.76-.01,23.51-.88,35.05-2.93,5.76-1.1,11.46-2.45,17.06-4.16,5.6-1.72,11.09-3.8,16.49-6.1,10.81-4.59,21.22-10.23,32.19-14.92,5.48-2.34,11.08-4.45,16.83-6.1,5.74-1.67,11.6-2.92,17.51-3.83.21-.03,1-.12,2.24-.27,1.23-.14,2.9-.37,4.86-.48,1.96-.12,4.2-.35,6.59-.38,2.38-.07,4.9-.16,7.41-.08,1.25.02,2.49.04,3.73.06,1.23.03,2.43.13,3.59.19,2.32.14,4.48.24,6.31.47,3.68.39,6.09.73,6.08.92-.03.44-9.77-.06-19.67.37-2.48.05-4.96.26-7.3.43-2.35.13-4.54.44-6.46.63-1.92.18-3.54.47-4.75.64-1.21.18-1.98.29-2.19.32-5.78.89-11.51,2.11-17.13,3.74-5.62,1.62-11.11,3.68-16.51,5.98-10.8,4.61-21.22,10.25-32.19,14.92-5.48,2.34-11.06,4.45-16.77,6.2-5.71,1.74-11.53,3.12-17.39,4.24-11.75,2.09-23.68,2.97-35.57,2.98-11.89-.01-23.81-.89-35.57-2.98-5.86-1.11-11.68-2.5-17.39-4.24-5.71-1.75-11.3-3.87-16.77-6.2-10.96-4.66-21.39-10.31-32.19-14.92-5.4-2.3-10.89-4.37-16.51-5.98-5.62-1.63-11.34-2.86-17.13-3.74-.2-.03-.98-.14-2.19-.32-1.2-.17-2.83-.46-4.75-.64-1.92-.19-4.11-.5-6.46-.63-2.34-.17-4.82-.38-7.3-.43-9.9-.43-19.64.06-19.67-.37-.02-.2,2.4-.53,6.08-.92,1.84-.23,3.99-.33,6.31-.47,1.16-.06,2.36-.15,3.59-.19,1.23-.02,2.48-.04,3.73-.06,2.5-.08,5.02.01,7.41.08,2.39.03,4.63.25,6.59.38,1.96.11,3.62.34,4.86.48,1.24.15,2.03.24,2.24.27Z"/><path class="cls-2" d="M247.03,699.52c6-3.77,11.48-8.41,16.85-13.2,5.37-4.79,10.67-9.73,16.13-14.5,10.91-9.55,22.59-18.37,35.16-25.7,6.29-3.66,12.71-7.06,19.41-9.99,6.7-2.93,13.64-5.31,20.75-7,7.1-1.7,14.34-2.83,21.62-3.37,7.28-.51,14.62-.53,21.93.48.13.02.61.1,1.38.22.76.12,1.77.38,2.96.64,2.34.62,5.54,1.53,8.15,3.57.65.52,1.3,1.1,1.78,1.92.24.4.42.89.47,1.42.05.53-.1,1.1-.37,1.52-.56.85-1.34,1.22-2.03,1.45-.7.23-1.36.31-1.96.32-2.43.02-3.81-.86-3.74-.99.06-.22,1.54.24,3.63-.11.52-.09,1.06-.24,1.57-.48.5-.23.97-.6,1.14-.98.17-.36.07-.72-.25-1.18-.32-.45-.86-.88-1.42-1.25-2.38-1.55-5.29-2.19-7.53-2.63-1.15-.18-2.11-.37-2.84-.45-.74-.09-1.21-.14-1.33-.15-7.02-.98-14.21-.96-21.33-.46-7.13.52-14.21,1.64-21.16,3.3-6.95,1.66-13.74,3.98-20.27,6.84-6.54,2.87-12.92,6.24-19.11,9.84-12.41,7.23-23.9,15.91-34.73,25.39-5.42,4.73-10.7,9.65-16.11,14.48-5.4,4.82-10.99,9.56-17.24,13.49-.11.06-.54.3-1.22.68-.67.37-1.57.89-2.68,1.4-2.16,1.12-5.12,2.26-8.1,3.14-2.99.88-6.05,1.28-8.32,1.44-2.28.1-3.78,0-3.79-.18-.01-.21,1.46-.48,3.65-.92,2.17-.49,5.06-1.18,7.84-2.26,5.61-2.05,10.67-5.5,11.11-5.73Z"/></g><path id="Banner_7_Shape" class="cls-1" d="M309.7,75.96c-19,11.6-60.05,17.15-100.27,17.15s-81.27-5.55-100.27-17.15c1.41,34.54-68.73,71.42-68.73,71.42v440.99c118.69,38.45,99.92,77.77,169,77.77s50.31-39.32,169-77.77V147.38s-70.13-36.89-68.73-71.42Z"/></g></svg>