<?xml version="1.0" encoding="UTF-8"?><svg id="Line" xmlns="http://www.w3.org/2000/svg" viewBox="0 0 378.45 711.21"><defs><style>.cls-1{opacity:.24;}.cls-1,.cls-2{fill:#fff;stroke-width:0px;}</style></defs><g id="Banner_3"><g id="Banner_3_Lines"><path class="cls-2" d="M42.27,575.71V101.16c0-2.83.64-68.01,1.43-68.01s1.43,65.19,1.43,68.01v474.55c0,2.83-.64,68.01-1.43,68.01s-1.43-65.19-1.43-68.01Z"/><path class="cls-2" d="M142.84,611.98c-6.32.82-12.48,2.78-18.29,5.44l-2.17,1.02c-.72.35-1.46.66-2.14,1.08l-4.17,2.41-1.04.6c-.34.21-.67.45-1,.68l-1.99,1.37c-1.31.93-2.68,1.79-3.94,2.78l-3.75,3.05c-1.25,1.01-2.5,2.02-3.76,3.11l-1.88,1.6-1.92,1.55c-1.27,1.05-2.59,2.04-3.9,3.04-5.27,3.97-10.86,7.55-16.79,10.53-5.94,2.95-12.26,5.3-18.9,6.38-3.32.53-6.71.74-10.09.5-3.38-.24-6.74-.93-9.94-2.11-6.44-2.31-12-6.73-16.04-12.18-1.98-2.77-3.63-5.85-4.54-9.18-.49-1.65-.79-3.37-.92-5.09-.15-1.72-.12-3.46.1-5.18.02-.24.24-1.85.94-4.01.34-1.08.85-2.28,1.47-3.51.65-1.22,1.44-2.45,2.36-3.57,1.81-2.27,4.29-3.98,6.4-4.53,1.04-.31,1.98-.27,2.59-.21.62.12.94.26.92.35h0c-.02.1-.36.16-.92.22-.56.13-1.35.25-2.21.68-1.74.78-3.73,2.51-5.16,4.7-.73,1.08-1.34,2.24-1.83,3.38-.46,1.15-.85,2.25-1.08,3.24-.49,1.97-.61,3.4-.63,3.62-.2,1.52-.23,3.07-.09,4.6.12,1.53.38,3.06.82,4.53.81,2.98,2.3,5.75,4.1,8.28,3.73,5.02,8.83,9.08,14.72,11.18,5.87,2.18,12.35,2.49,18.59,1.47,6.27-1.02,12.34-3.26,18.08-6.11,5.74-2.89,11.19-6.38,16.35-10.26,1.28-.98,2.58-1.95,3.83-2.98l1.89-1.52,1.85-1.57c1.21-1.05,2.5-2.1,3.79-3.14l3.85-3.13c1.3-1.02,2.71-1.91,4.06-2.87l2.04-1.41c.34-.23.67-.48,1.03-.7l1.08-.62,4.31-2.49c.7-.44,1.47-.76,2.22-1.12l2.26-1.06c6.04-2.76,12.46-4.82,19.11-5.68.24-.02,1.79-.16,3.99-.29,1.09.01,2.35.02,3.7.04,1.34.08,2.75.22,4.14.37,2.78.42,5.5,1.02,7.44,1.76,1.95.71,3.15,1.41,3.06,1.6-.08.17-1.37-.17-3.35-.53-1.97-.39-4.64-.66-7.33-.82-1.35-.01-2.7-.03-3.98,0-1.29.08-2.49.16-3.52.22-2.11.28-3.56.47-3.78.5Z"/><path class="cls-2" d="M55.01,2.3c2.92-.88,5.91-1.41,8.89-1.77,2.99-.39,5.99-.48,8.98-.53,6.02-.06,12.05.79,17.86,2.32,5.82,1.53,11.38,3.84,16.74,6.42,5.35,2.61,10.52,5.51,15.66,8.38,10.26,5.76,20.62,11.29,31.73,14.86,11.06,3.65,22.69,5.37,34.35,5.38,11.65-.02,23.29-1.73,34.35-5.38,11.1-3.57,21.46-9.1,31.73-14.86,5.15-2.87,10.31-5.77,15.66-8.38,5.36-2.57,10.92-4.89,16.74-6.42C293.51.79,299.54-.05,305.56,0c2.99.05,5.99.14,8.98.53,2.99.35,5.98.89,8.89,1.77.21.06,1,.28,2.18.74.6.22,1.3.47,2.06.83.38.17.79.36,1.21.55.42.2.84.45,1.29.68,1.78.96,3.75,2.25,5.54,3.99,1.8,1.72,3.43,3.88,4.43,6.32,1.03,2.43,1.48,5.08,1.27,7.5-.17,2.43-.94,4.61-1.95,6.24-.99,1.65-2.21,2.74-3.14,3.32-.46.31-.86.48-1.14.58-.28.1-.43.13-.45.09-.02-.04.09-.16.31-.34.22-.18.56-.41.93-.78.77-.69,1.75-1.81,2.52-3.4,1.64-3.1,1.95-8.19-.19-12.38-1-2.11-2.53-3.95-4.2-5.41-1.67-1.49-3.5-2.58-5.16-3.4-.42-.2-.81-.41-1.2-.58-.4-.16-.78-.32-1.14-.46-.71-.31-1.37-.52-1.93-.71-1.11-.39-1.86-.58-2.05-.63-2.73-.82-5.57-1.33-8.43-1.67-2.86-.38-5.76-.46-8.66-.51-5.78-.05-11.53.75-17.11,2.22-5.59,1.47-10.97,3.71-16.23,6.23-5.25,2.56-10.37,5.44-15.52,8.31-10.27,5.76-20.84,11.41-32.23,15.08-11.35,3.75-23.32,5.51-35.24,5.52-11.92-.01-23.89-1.78-35.24-5.52-11.39-3.67-21.96-9.32-32.23-15.08-5.15-2.87-10.27-5.75-15.52-8.31-5.26-2.52-10.64-4.76-16.23-6.23-5.58-1.47-11.33-2.27-17.11-2.22-2.9.05-5.8.14-8.66.51-2.86.34-5.7.85-8.43,1.67-.2.05-.94.24-2.05.63-.56.18-1.22.4-1.93.71-.36.15-.74.3-1.14.46-.39.17-.79.38-1.2.58-1.66.82-3.5,1.92-5.16,3.4-1.67,1.47-3.2,3.3-4.2,5.41-2.14,4.19-1.82,9.28-.19,12.38.76,1.58,1.75,2.7,2.52,3.4.37.36.71.6.93.78.22.18.33.3.31.34-.02.04-.17.01-.45-.09-.28-.1-.68-.27-1.14-.58-.93-.58-2.15-1.67-3.14-3.32-1.01-1.63-1.78-3.81-1.95-6.24-.21-2.43.24-5.08,1.27-7.5,1.01-2.44,2.64-4.6,4.43-6.32,1.79-1.74,3.77-3.03,5.54-3.99.45-.24.87-.48,1.29-.68.42-.19.83-.37,1.21-.55.76-.36,1.46-.62,2.06-.83,1.18-.46,1.97-.68,2.18-.74Z"/><path class="cls-2" d="M333.32,575.71V101.16c0-2.83.64-68.01,1.43-68.01s1.43,65.19,1.43,68.01v474.55c0,2.83-.64,68.01-1.43,68.01s-1.43-65.19-1.43-68.01Z"/><path class="cls-2" d="M29.72,58c5.63.41,11.34.13,16.56-1.8,5.25-1.8,9.79-5.27,13.15-9.69,3.39-4.41,5.61-9.7,7.03-15.16.71-2.74,1.23-5.53,1.56-8.35.17-1.41.29-2.82.37-4.24.03-.71.07-1.42.08-2.12v-.53s0-.86,0-.86l-.06-2.21h241.63l-.06,2.21v.86s0,.53,0,.53c.01.71.04,1.41.08,2.12.08,1.42.21,2.83.37,4.24.33,2.82.85,5.61,1.56,8.35,1.42,5.46,3.64,10.75,7.03,15.16,3.35,4.42,7.9,7.89,13.15,9.69,5.21,1.93,10.93,2.21,16.56,1.8.28,0,1.3-.1,2.89-.27,1.58-.17,3.71-.52,6.16-1.1,2.43-.63,5.16-1.56,7.83-2.99,2.68-1.4,5.24-3.39,7.25-5.83,2.01-2.44,3.36-5.37,3.89-8.26.25-1.45.3-2.88.19-4.22-.12-1.34-.45-2.58-.85-3.68-.85-2.19-2.17-3.73-3.25-4.59-.26-.2-.51-.39-.74-.56-.22-.16-.43-.26-.58-.37-.32-.2-.48-.34-.46-.38h0s.22,0,.59.12c.18.07.42.13.67.26.27.15.55.3.86.47,1.26.75,2.84,2.29,3.93,4.62.52,1.16.97,2.49,1.18,3.95.21,1.46.23,3.02.04,4.62-.42,3.2-1.77,6.5-3.88,9.26-1.03,1.4-2.27,2.63-3.56,3.77-1.32,1.09-2.7,2.08-4.12,2.89-2.84,1.64-5.74,2.72-8.31,3.46-2.58.69-4.82,1.12-6.48,1.34-1.66.22-2.74.34-3.03.34-5.89.43-12.03.15-17.75-1.96-2.84-1.03-5.6-2.4-8.02-4.25-2.44-1.82-4.6-3.99-6.43-6.39-3.69-4.81-6.03-10.45-7.52-16.18-.74-2.88-1.29-5.79-1.63-8.73-.17-1.47-.3-2.94-.39-4.42-.04-.74-.07-1.48-.08-2.22v-.79H71.33v.79c-.02.74-.06,1.48-.09,2.22-.09,1.48-.22,2.95-.39,4.42-.35,2.94-.89,5.86-1.63,8.73-1.5,5.73-3.83,11.37-7.52,16.18-1.83,2.4-3.99,4.57-6.43,6.39-2.42,1.85-5.18,3.22-8.02,4.25-5.72,2.11-11.86,2.39-17.75,1.96-.29,0-1.36-.12-3.03-.34-1.66-.22-3.9-.65-6.48-1.34-2.56-.74-5.47-1.82-8.31-3.46-1.43-.81-2.8-1.8-4.12-2.89-1.28-1.14-2.52-2.37-3.56-3.77-2.1-2.77-3.46-6.07-3.88-9.26-.19-1.6-.17-3.17.04-4.62.21-1.46.66-2.79,1.18-3.95,1.1-2.33,2.68-3.86,3.93-4.62.31-.17.59-.32.86-.47.25-.13.49-.19.67-.26.37-.12.57-.17.59-.12h0s-.15.18-.46.38c-.16.11-.36.21-.58.37-.23.17-.48.36-.74.56-1.08.86-2.39,2.39-3.25,4.59-.4,1.1-.73,2.34-.85,3.68-.11,1.34-.06,2.77.19,4.22.53,2.89,1.88,5.82,3.89,8.26,2,2.45,4.57,4.43,7.25,5.83,2.67,1.43,5.41,2.36,7.83,2.99,2.45.58,4.57.93,6.16,1.1,1.58.18,2.61.27,2.89.27Z"/><path class="cls-2" d="M235.98,609.14c6.64.86,13.07,2.92,19.11,5.68l2.26,1.06c.75.36,1.52.68,2.22,1.12l4.31,2.49,1.08.62c.35.21.69.46,1.03.7l2.04,1.41c1.35.96,2.76,1.84,4.06,2.87l3.85,3.13c1.29,1.04,2.58,2.08,3.79,3.14l1.85,1.57,1.89,1.52c1.25,1.03,2.54,2,3.83,2.98,5.16,3.89,10.62,7.37,16.35,10.26,5.74,2.85,11.81,5.1,18.08,6.11,6.25,1.02,12.72.71,18.59-1.47,5.89-2.11,10.99-6.16,14.72-11.18,1.81-2.53,3.29-5.3,4.1-8.28.44-1.48.7-3,.82-4.53.13-1.53.11-3.08-.09-4.6-.02-.22-.14-1.65-.63-3.62-.23-.99-.62-2.09-1.08-3.24-.49-1.13-1.11-2.3-1.83-3.38-1.43-2.18-3.42-3.91-5.16-4.7-.86-.43-1.65-.55-2.21-.68-.56-.06-.91-.12-.92-.22h0c-.02-.09.31-.23.92-.35.61-.06,1.54-.11,2.59.21,2.11.55,4.59,2.26,6.4,4.53.92,1.12,1.71,2.35,2.36,3.57.61,1.23,1.13,2.43,1.47,3.51.7,2.16.92,3.77.94,4.01.22,1.72.25,3.45.1,5.18-.14,1.72-.43,3.43-.92,5.09-.91,3.33-2.56,6.41-4.54,9.18-4.04,5.45-9.6,9.87-16.04,12.18-3.2,1.18-6.56,1.87-9.94,2.11-3.38.24-6.77.03-10.09-.5-6.64-1.08-12.96-3.43-18.9-6.38-5.93-2.99-11.52-6.57-16.79-10.53-1.31-1-2.63-1.99-3.9-3.04l-1.92-1.55-1.88-1.6c-1.25-1.09-2.5-2.1-3.76-3.11l-3.75-3.05c-1.27-1-2.63-1.85-3.94-2.78l-1.99-1.37c-.33-.22-.66-.47-1-.68l-1.04-.6-4.17-2.41c-.68-.43-1.42-.74-2.14-1.08l-2.17-1.02c-5.82-2.66-11.97-4.62-18.29-5.44-.21-.03-1.66-.22-3.78-.5-1.04-.07-2.23-.14-3.52-.22-1.28-.03-2.63,0-3.98,0-2.69.16-5.36.43-7.33.82-1.98.36-3.27.7-3.35.53-.09-.18,1.11-.89,3.06-1.6,1.94-.74,4.66-1.33,7.44-1.76,1.39-.14,2.8-.29,4.14-.37,1.35-.01,2.61-.03,3.7-.04,2.2.13,3.75.27,3.99.29Z"/><path class="cls-2" d="M149.94,633.62c-.7,1.72-1.1,3.54-1.54,5.34l-.43,2.75c-.09.46-.13.92-.14,1.38l-.07,1.39c-.18,1.85.03,3.73.08,5.6.1.93.24,1.86.36,2.79l.19,1.39.3,1.37c.68,3.69,2.01,7.24,3.46,10.71.84,1.69,1.56,3.43,2.55,5.05l1.4,2.47,1.55,2.38c4.18,6.33,9.26,12.07,14.79,17.35,1.41,1.29,2.78,2.63,4.22,3.88,1.46,1.24,2.88,2.52,4.36,3.73,1.49,1.2,2.97,2.42,4.48,3.6l3.74,2.83,3.74-2.83c1.51-1.18,2.99-2.4,4.48-3.6,1.48-1.21,2.9-2.49,4.36-3.73,1.44-1.26,2.81-2.59,4.22-3.88,5.52-5.27,10.61-11.01,14.79-17.35l1.55-2.38,1.4-2.47c.99-1.62,1.71-3.36,2.55-5.05,1.44-3.47,2.78-7.01,3.46-10.71l.3-1.37.19-1.39c.12-.93.26-1.86.36-2.79.05-1.87.26-3.75.08-5.6l-.07-1.39c-.01-.47-.05-.93-.14-1.38l-.43-2.75c-.44-1.8-.84-3.62-1.54-5.34-.04-.12-.2-.59-.45-1.33-.3-.71-.72-1.67-1.2-2.8-1.09-2.2-2.63-5.01-4.57-7.54-1.91-2.55-4.08-4.87-5.8-6.51-1.71-1.66-2.94-2.66-2.84-2.82.1-.17,1.57.54,3.55,1.97,1.98,1.42,4.45,3.59,6.65,6.09,2.23,2.48,4.06,5.34,5.35,7.62.58,1.17,1.1,2.18,1.45,2.93.3.78.49,1.28.54,1.41.75,1.86,1.19,3.82,1.66,5.77l.46,2.97c.09.49.13.99.15,1.49l.08,1.5c.19,2-.03,3.98-.09,5.97-.1.99-.25,1.97-.38,2.96l-.2,1.48-.32,1.45c-.72,3.91-2.12,7.65-3.64,11.29-.88,1.77-1.64,3.6-2.67,5.28l-1.46,2.57-1.61,2.47c-4.33,6.56-9.56,12.45-15.19,17.83-1.44,1.32-2.83,2.68-4.3,3.96-1.48,1.26-2.93,2.57-4.43,3.8-1.52,1.22-3.02,2.45-4.55,3.65l-5.49,4.16-5.49-4.16c-1.53-1.2-3.03-2.44-4.55-3.65-1.51-1.23-2.95-2.53-4.43-3.8-1.47-1.28-2.86-2.64-4.3-3.96-5.64-5.38-10.86-11.27-15.19-17.83l-1.61-2.47-1.46-2.57c-1.02-1.68-1.79-3.51-2.67-5.28-1.52-3.64-2.92-7.37-3.64-11.29l-.32-1.45-.2-1.48c-.12-.99-.27-1.97-.38-2.96-.06-1.99-.27-3.97-.09-5.97l.08-1.5c.02-.5.05-1,.15-1.49l.46-2.97c.47-1.94.91-3.91,1.66-5.77.05-.13.24-.63.54-1.41.35-.75.86-1.75,1.45-2.93,1.29-2.28,3.12-5.15,5.35-7.62,2.2-2.5,4.67-4.67,6.65-6.09,1.98-1.43,3.44-2.14,3.55-1.97.1.16-1.13,1.16-2.84,2.82-1.72,1.65-3.89,3.96-5.8,6.51-1.94,2.53-3.48,5.34-4.57,7.54-.49,1.14-.9,2.1-1.2,2.8-.25.74-.41,1.21-.45,1.33Z"/><path class="cls-2" d="M81.66,653.83c1.96,1.85,3.78,3.92,5.19,6.33.73,1.19,1.26,2.51,1.71,3.86.39,1.37.63,2.81.64,4.25,0,2.9-.93,5.74-2.4,8.13-.73,1.2-1.58,2.31-2.52,3.33l-.45.47h210.76l-.45-.47c-.94-1.02-1.79-2.13-2.52-3.33-1.46-2.39-2.39-5.23-2.4-8.13.02-1.45.25-2.88.64-4.25.45-1.35.98-2.67,1.71-3.86,1.4-2.42,3.22-4.49,5.19-6.33.31-.31,2.4-2.23,5.7-4.41,3.25-2.24,7.84-4.67,12.71-6.07,1.23-.31,2.44-.69,3.67-.87.61-.1,1.21-.24,1.81-.31.6-.06,1.19-.13,1.78-.19,2.34-.18,4.53-.17,6.38.08,3.71.42,5.99,1.48,5.91,1.66-.06.18-2.39-.48-5.99-.56-1.79-.07-3.89.08-6.11.4-.56.1-1.12.19-1.69.29-.57.1-1.13.27-1.71.4-1.16.24-2.29.66-3.44,1.02-4.56,1.57-8.81,4.05-11.83,6.31-3.07,2.2-4.96,4.05-5.24,4.33-1.82,1.71-3.46,3.6-4.67,5.68-.64,1.03-1.07,2.14-1.45,3.25-.32,1.13-.5,2.28-.52,3.43.01,2.31.73,4.6,1.98,6.64.62,1.02,1.36,1.99,2.18,2.88l.31.33.08.08.17.17.36.34.72.68.84.68c1.19.9,2.79,1.96,4.22,2.98H75.47c1.44-1.02,3.04-2.07,4.22-2.98l.84-.68.72-.68.36-.34.17-.17.08-.08.31-.33c.82-.89,1.56-1.86,2.18-2.88,1.25-2.04,1.97-4.33,1.98-6.64-.02-1.16-.2-2.31-.52-3.43-.38-1.11-.81-2.22-1.45-3.25-1.21-2.09-2.85-3.97-4.67-5.68-.28-.28-2.18-2.13-5.24-4.33-3.02-2.25-7.27-4.73-11.83-6.31-1.15-.35-2.28-.78-3.44-1.02-.57-.13-1.14-.3-1.71-.4-.57-.1-1.13-.2-1.69-.29-2.22-.31-4.32-.47-6.11-.4-3.6.07-5.93.74-5.99.56-.08-.18,2.2-1.24,5.91-1.66,1.85-.25,4.04-.25,6.38-.08.59.06,1.18.13,1.78.19.6.07,1.2.21,1.81.31,1.23.18,2.44.56,3.67.87,4.88,1.4,9.46,3.83,12.71,6.07,3.3,2.18,5.39,4.11,5.7,4.41Z"/></g><path id="Banner_3_Shape" class="cls-1" d="M59.9,29.86h258.64v499.73c0,71.37-57.95,129.32-129.32,129.32h0c-71.37,0-129.32-57.95-129.32-129.32V29.86h0Z"/></g></svg>