<?xml version="1.0" encoding="UTF-8"?><svg id="Line" xmlns="http://www.w3.org/2000/svg" viewBox="0 0 411.01 707"><defs><style>.cls-1{opacity:.24;}.cls-1,.cls-2{fill:#fff;stroke-width:0px;}</style></defs><g id="Banner_4"><g id="Banner_4_Lines"><path class="cls-2" d="M308.35,612.81c-.74,1.36-.94,3.31-.87,5.15.08,1.87.42,3.76,1,5.56,1.14,3.6,3.24,6.95,6.26,8.96,1.5,1.01,3.23,1.61,5.02,1.84,1.84.24,3.56.06,5.26-.6,3.39-1.32,6.2-4.15,8.56-7.19,2.32-3.12,4.26-6.58,5.87-10.19,1.62-3.61,2.98-7.36,4.11-11.17,2.26-7.64,3.7-15.54,4.47-23.49.03-.23.45-3.38.93-7.05.41-3.36.76-6.67,1.16-6.68h0c.38,0,.74,3.34.85,6.77.09,3.43-.06,6.94-.1,7.23-.79,8.11-2.25,16.18-4.57,24.02-1.17,3.92-2.56,7.78-4.25,11.54-1.68,3.75-3.7,7.39-6.2,10.74-1.28,1.66-2.68,3.25-4.29,4.66-1.6,1.41-3.43,2.66-5.52,3.47-2.07.83-4.48,1.07-6.64.77-2.2-.28-4.39-1.04-6.24-2.29-3.75-2.51-6.12-6.43-7.41-10.48-.65-2.04-1.04-4.16-1.13-6.32-.04-2.16.06-4.39,1.23-6.64.03-.08.22-.37.56-.81.18-.21.43-.46.72-.71.33-.24.73-.5,1.05-.61.36-.15.71-.34,1.17-.45.22-.06.44-.13.68-.18.25-.03.51-.05.77-.08.54-.01,1.12.05,1.69.28.29.09.53.29.79.44.23.18.45.4.63.61.71.91.95,1.94.97,2.87-.03.49-.02.92-.33,1.51-.25.4-.59.54-.94.58-.34.01-.61-.1-.81-.23-.39-.28-.63-.66-.65-1.1,0-.5.4-.78.61-.82.46-.11.67.03.68.1.02.11-.21.21-.42.4-.1.11-.08.19-.03.23.05.06.19.19.34.22.15.03.19-.08.02-.02,0-.07,0-.44-.07-.73-.14-.63-.46-1.28-.88-1.65-.42-.37-.88-.42-1.42-.33-.14.04-.28.07-.41.1-.14.05-.28.12-.42.17-.27.09-.53.27-.78.41-.29.14-.38.27-.5.35-.11.13-.21.24-.29.36-.15.25-.25.41-.27.47Z"/><path class="cls-2" d="M351.55,78.12v473.99c0,1.41-.16,18.39-.42,35.03-.13,8.32-.28,16.54-.45,22.69-.09,3.07-.17,5.63-.27,7.41s-.19,2.8-.29,2.8h0c-.1,0-.19-1.02-.29-2.8s-.18-4.34-.27-7.41c-.17-6.15-.32-14.38-.45-22.69-.26-16.63-.42-33.61-.42-35.03V78.12c0-.7.05-5.29.11-11.81.02-1.63.07-3.39-.04-5.14-.05-.89-.03-1.8-.14-2.72-.13-.92-.26-1.86-.4-2.81-.69-3.77-1.77-7.74-3.57-11.4-1.74-3.68-3.93-7.13-6.28-10.12-2.37-2.98-4.91-5.48-7.22-7.45-2.3-1.99-4.43-3.37-5.97-4.23-.37-.21-.72-.4-1.03-.57-.29-.13-.55-.24-.79-.35-.43-.2-.66-.33-.65-.38.01-.05.27-.01.74.1.24.06.53.13.87.23.34.14.71.29,1.12.46,1.66.71,3.95,1.98,6.41,3.88,2.47,1.89,5.2,4.33,7.76,7.3,2.55,2.98,4.94,6.48,6.87,10.26,2,3.76,3.26,7.9,4.09,11.86.17,1,.33,1.99.49,2.96.14.97.15,1.94.22,2.88.16,1.9.15,3.63.17,5.26.06,6.52.11,11.1.11,11.81Z"/><path class="cls-2" d="M258.26,38.16c2.81-3.4,6.56-5.86,10.48-7.52,3.88-1.66,7.99-2.94,12.26-3.4,1.06-.15,2.14-.18,3.2-.24,1.07.01,2.15-.02,3.22.08,2.14.14,4.28.48,6.35,1.05,4.16,1.09,8.06,3.02,11.56,5.43,7.02,4.87,12.44,11.53,16.88,18.59,4.42,7.1,7.9,14.71,10.76,22.51,2.86,7.8,5.08,15.82,6.82,23.93,1.74,8.11,2.94,16.33,3.64,24.6.33,4.14.53,8.28.57,12.44.02,4.16-.12,8.3-.37,12.44-.52,8.27-1.39,16.57-3.54,24.7-.08.29-.59,2.18-1.6,4.78-1.01,2.58-2.54,5.92-4.96,8.71-1.2,1.38-2.66,2.6-4.26,3.33-1.61.73-3.33.87-4.68.62-1.36-.25-2.37-.81-2.99-1.26-.63-.45-.91-.8-.86-.87.06-.09.45.1,1.13.36.67.27,1.65.61,2.84.67,1.19.05,2.56-.22,3.83-.94,1.27-.74,2.44-1.87,3.41-3.18,1.96-2.63,3.22-5.83,4.04-8.33.83-2.5,1.24-4.34,1.32-4.62,2.07-7.81,2.93-15.98,3.44-24.12.24-4.08.39-8.18.36-12.25-.04-4.08-.23-8.16-.56-12.23-1.39-16.27-4.73-32.44-10.3-47.78-2.8-7.65-6.21-15.1-10.5-21.98-4.3-6.84-9.52-13.2-16.08-17.75-3.27-2.25-6.87-4.03-10.68-5.03-1.9-.52-3.85-.84-5.81-.96-.98-.1-1.97-.06-2.95-.08-.98.07-1.97.08-2.95.23-3.93.43-7.78,1.61-11.45,3.19-3.64,1.54-6.96,3.76-9.41,6.72-.16.21-1.4,1.54-2.57,3.79-1.19,2.23-2.15,5.47-2.21,8.79-.09,3.3.63,6.66,1.85,8.72.31.51.64.93.92,1.11.31.24.71.23.96.07.48-.32.66-.76.77-.71h0s.05.13.01.35c-.06.21-.16.56-.48.88-.16.15-.38.3-.65.35-.27.05-.58,0-.88-.11-.3-.12-.63-.34-.87-.56-.25-.22-.47-.47-.69-.74-1.7-2.19-2.76-5.71-2.95-9.33-.22-3.63.63-7.34,1.86-9.96,1.2-2.64,2.56-4.22,2.74-4.47Z"/><path class="cls-2" d="M282.97,91.51c-3.15-2.57-5.03-6.12-6.35-9.65-.3-.9-.63-1.78-.83-2.74-.22-.94-.5-1.87-.57-2.83-.11-.96-.28-1.92-.23-2.89,0-.97-.04-1.94.11-2.89.74-7.73,5.2-14.83,11.54-19.15,3.17-2.18,6.85-3.65,10.68-4.18,3.83-.55,7.79-.13,11.43,1.14.89.36,1.81.66,2.67,1.09l2.54,1.35,2.36,1.61c.79.53,1.47,1.21,2.2,1.8.36.31.73.61,1.07.93l.98,1.02c.64.69,1.35,1.33,1.92,2.07,1.17,1.47,2.38,2.91,3.36,4.5,4.15,6.23,7.02,13.14,9.17,20.19,2.12,7.08,3.63,14.22,5.01,21.42,1.34,7.2,2.37,14.47,2.8,21.82.26,3.67.25,7.37.09,11.07-.17,3.7-.65,7.42-1.61,11.08-.03.13-.2.62-.45,1.37-.22.75-.65,1.75-1.16,2.9-.29.57-.63,1.17-.97,1.8-.42.6-.8,1.26-1.33,1.86-.97,1.24-2.34,2.39-3.94,3.08-1.61.7-3.49.77-5.01.24-1.54-.51-2.68-1.5-3.43-2.44-1.53-1.91-1.66-3.56-1.53-3.58.23-.11.75,1.38,2.34,2.82.77.72,1.83,1.4,3.05,1.66,1.22.27,2.56.08,3.72-.54,1.16-.63,2.18-1.58,2.92-2.7.4-.52.69-1.13,1.02-1.65.27-.58.52-1.12.75-1.63.83-2.11,1.16-3.71,1.26-3.94.89-3.38,1.35-6.92,1.52-10.49.16-3.57.16-7.16-.09-10.75-.42-7.19-1.44-14.36-2.76-21.47-1.36-7.1-2.87-14.23-4.93-21.1-2.09-6.86-4.88-13.54-8.82-19.44-.93-1.52-2.07-2.86-3.16-4.24-.54-.7-1.2-1.28-1.79-1.93l-.91-.95c-.31-.3-.66-.57-.99-.86-.68-.54-1.3-1.17-2.02-1.65l-2.14-1.47-2.28-1.21c-.77-.38-1.59-.64-2.38-.97-3.23-1.12-6.71-1.49-10.09-1.01-3.38.47-6.65,1.76-9.48,3.71-5.68,3.86-9.66,10.25-10.31,17.06-.14.85-.1,1.7-.1,2.56-.04.86.12,1.7.21,2.55.05.86.32,1.68.51,2.51.17.83.48,1.66.75,2.49,1.2,3.25,2.91,6.34,5.46,8.41.17.14,1.31,1.2,3.29,1.96,1.94.76,4.93.9,7.39-.34,1.2-.57,2.29-1.59,2.36-2.49.02-.22-.02-.64-.03-.81-.02-.17-.06-.34-.14-.5-.16-.34-.61-.45-.89-.25-.29.17-.5.45-.61.77-.1.35-.13.71-.09,1,.02.14.04.27.06.4.04.11.07.21.09.3.04.17.05.28.01.31-.04.03-.13-.02-.26-.16-.07-.07-.15-.16-.23-.26-.07-.12-.14-.26-.22-.43-.15-.34-.24-.79-.19-1.34.07-.57.39-1.26,1-1.72.58-.5,1.6-.48,2.21.19.14.17.26.37.4.56.1.22.17.46.26.7.11.27.1.42.15.63.02.21.09.37.07.63.02,1-.45,1.88-1,2.56-.56.69-1.25,1.23-1.98,1.68-2.94,1.81-6.64,1.89-9.19,1.09-2.58-.8-4.06-2.07-4.28-2.24Z"/><path class="cls-2" d="M215.15,20.66c5.56,1.02,10.82,3.17,15.83,5.45,2.51,1.15,4.97,2.31,7.45,3.33,2.48,1.03,4.99,1.84,7.55,2.21.32.05.64.12.96.14l.96.05c.64.04,1.27.09,1.95.04,1.33-.07,2.68-.03,4-.19,1.32-.17,2.66-.21,3.95-.5l1.95-.36c.64-.15,1.27-.34,1.91-.5,2.54-.71,4.99-1.67,7.29-2.98,2.32-1.27,4.49-2.84,6.85-4.37.15-.09,2.3-1.37,4.73-1.98.29-.07.59-.14.89-.22.29-.03.59-.06.89-.09.57-.05,1.1-.1,1.55-.02.91.11,1.48.25,1.47.45s-.56.43-1.35.65c-.4.08-.85.29-1.32.47-.25.09-.49.18-.73.27-.25.13-.49.25-.72.37-1.92.97-3.7,2.38-3.88,2.49-2.23,1.45-4.52,3.1-7.01,4.47-2.47,1.4-5.16,2.47-7.9,3.23-.69.18-1.37.38-2.06.54l-2.09.38c-1.39.31-2.8.36-4.2.53-1.4.16-2.8.12-4.21.19-.69.05-1.42,0-2.15-.05l-1.09-.06c-.36-.03-.72-.11-1.08-.16-2.88-.42-5.62-1.32-8.2-2.39-2.59-1.06-5.09-2.24-7.57-3.37-4.95-2.25-9.94-4.28-15.19-5.24-.09-.02-.69-.17-1.55-.4-.85-.25-1.97-.42-3.08-.69-.27-.06-.55-.13-.83-.19-.26-.05-.53-.09-.81-.14-.52-.1-1.01-.19-1.43-.3-.84-.2-1.4-.41-1.4-.61s.57-.36,1.43-.5c.43-.07.94-.13,1.49-.19.29-.03.57-.05.85-.08.3,0,.59,0,.88,0,1.18.02,2.39-.01,3.31.1.92.1,1.58.17,1.68.19Z"/><path class="cls-2" d="M105.16,611.42c1.17,2.24,1.27,4.48,1.23,6.64-.09,2.16-.48,4.28-1.13,6.32-1.29,4.05-3.66,7.97-7.41,10.48-1.85,1.25-4.04,2.01-6.24,2.29-2.16.3-4.57.06-6.64-.77-2.09-.81-3.92-2.06-5.52-3.47-1.61-1.42-3.01-3-4.29-4.66-2.5-3.36-4.52-6.99-6.2-10.74-1.69-3.75-3.08-7.62-4.25-11.54-2.32-7.85-3.78-15.91-4.57-24.02-.04-.29-.19-3.8-.1-7.23.11-3.43.47-6.77.85-6.77h0c.4,0,.76,3.32,1.16,6.68.49,3.67.9,6.81.93,7.05.77,7.95,2.2,15.85,4.47,23.49,1.14,3.82,2.49,7.56,4.11,11.17,1.61,3.61,3.55,7.07,5.87,10.19,2.36,3.04,5.17,5.87,8.56,7.19,1.7.66,3.43.84,5.26.6,1.79-.23,3.52-.83,5.02-1.84,3.02-2.01,5.12-5.36,6.26-8.96.58-1.8.92-3.69,1-5.56.06-1.84-.14-3.79-.87-5.15-.02-.06-.12-.22-.27-.47-.08-.11-.18-.22-.29-.36-.12-.09-.21-.21-.5-.35-.24-.13-.51-.32-.78-.41-.13-.05-.28-.12-.42-.17-.13-.03-.27-.06-.41-.1-.54-.08-1-.04-1.42.33-.42.37-.74,1.03-.88,1.65-.06.29-.06.66-.07.73-.17-.06-.13.04.02.02.15-.03.29-.16.34-.22.05-.03.07-.12-.03-.23-.2-.2-.44-.3-.42-.4.01-.08.22-.21.68-.1.21.05.62.33.61.82-.02.45-.26.83-.65,1.1-.2.13-.47.24-.81.23-.35-.04-.69-.18-.94-.58-.31-.59-.3-1.01-.33-1.51.02-.94.26-1.96.97-2.87.19-.22.4-.43.63-.61.26-.15.51-.35.79-.44.57-.23,1.15-.29,1.69-.28.26.03.52.05.77.08.24.05.46.12.68.18.46.11.81.29,1.17.45.33.12.72.38,1.05.61.29.25.54.49.72.71.34.43.53.73.56.81Z"/><path class="cls-2" d="M62.32,78.12v473.99c0,1.41-.16,18.39-.42,35.03-.13,8.32-.28,16.54-.45,22.69-.09,3.07-.17,5.63-.27,7.41s-.19,2.8-.29,2.8h0c-.1,0-.19-1.02-.29-2.8s-.18-4.34-.27-7.41c-.17-6.15-.32-14.38-.45-22.69-.26-16.63-.42-33.61-.42-35.03V78.12c0-.7.05-5.29.11-11.81.02-1.63,0-3.35.17-5.26.08-.94.08-1.91.22-2.88.16-.97.33-1.96.49-2.96.83-3.96,2.09-8.1,4.09-11.86,1.93-3.78,4.32-7.27,6.87-10.26,2.56-2.97,5.29-5.42,7.76-7.3,2.46-1.9,4.75-3.17,6.41-3.88.4-.16.78-.32,1.12-.46.34-.1.63-.17.87-.23.47-.11.73-.15.74-.1.01.05-.22.18-.65.38-.24.11-.5.22-.79.35-.32.17-.66.36-1.03.57-1.54.86-3.67,2.24-5.97,4.23-2.31,1.97-4.85,4.47-7.22,7.45-2.36,2.99-4.54,6.44-6.28,10.12-1.8,3.66-2.88,7.63-3.57,11.4-.13.95-.27,1.89-.4,2.81-.11.92-.09,1.84-.14,2.72-.11,1.75-.06,3.51-.04,5.14.06,6.52.11,11.1.11,11.81Z"/><path class="cls-2" d="M29.72,57.62c1.44,3.17,2.66,6.44,3.64,9.79.98,3.35,1.77,6.76,2.2,10.24.14.86.22,1.74.29,2.61.06.87.18,1.74.19,2.62l.08,2.63v2.57s0,10.26,0,10.26v242.45h0s-.09-.11.12.15l1.71,1.97c4.5,5.3,8.35,11.15,11.48,17.36,3.13,6.21,5.54,12.75,7.37,19.42.07.24.33,1.13.63,2.53.29,1.41.81,3.28,1.19,5.53.4,2.24.9,4.8,1.22,7.54.17,1.37.41,2.77.53,4.2.13,1.43.27,2.87.4,4.32.26,2.89.35,5.77.5,8.45.04,2.69.09,5.19.08,7.32-.11,4.27-.26,7.09-.45,7.09h0c-.46,0-.59-11.29-2.13-22.66-.19-1.42-.39-2.84-.58-4.25-.18-1.41-.47-2.78-.68-4.12-.42-2.69-1-5.18-1.46-7.36-.45-2.19-1-4.01-1.33-5.38-.33-1.37-.6-2.23-.67-2.46-1.78-6.52-4.13-12.88-7.17-18.9-3.03-6.02-6.75-11.67-11.11-16.8l-1.65-1.91-.72-.83c-.2-.14-.13-.38-.14-.59V85.51s-.08-2.5-.08-2.5c0-.84-.12-1.66-.18-2.5-.07-.83-.14-1.66-.27-2.49-.41-3.32-1.16-6.59-2.1-9.8-.94-3.22-2.12-6.37-3.51-9.43-.18-.44-1.43-3.32-3.54-7.23-1.05-1.96-2.35-4.15-3.81-6.43-1.47-2.27-3.1-4.63-4.81-6.92-3.43-4.57-7.17-8.84-10.09-11.91C1.95,23.2-.12,21.29,0,21.14c.12-.16,2.45,1.49,5.63,4.36,3.19,2.86,7.21,6.97,10.9,11.46,1.84,2.25,3.6,4.58,5.2,6.85,1.57,2.28,2.99,4.48,4.13,6.46,2.3,3.95,3.66,6.9,3.85,7.35Z"/><path class="cls-2" d="M383.9,58.79c-1.39,3.06-2.57,6.21-3.51,9.43-.94,3.21-1.7,6.49-2.1,9.8-.14.83-.21,1.66-.27,2.49-.06.83-.18,1.66-.18,2.5l-.07,2.5v2.56s0,10.26,0,10.26v243.09c-.01.21.06.45-.14.59l-.72.83-1.65,1.91c-4.35,5.13-8.08,10.78-11.11,16.8-3.04,6.01-5.38,12.38-7.17,18.9-.07.23-.34,1.1-.67,2.46-.32,1.37-.88,3.19-1.33,5.38-.46,2.18-1.04,4.68-1.46,7.36-.22,1.34-.5,2.71-.68,4.12-.19,1.4-.39,2.82-.58,4.25-1.53,11.37-1.67,22.66-2.13,22.66-.2,0-.34-2.82-.45-7.09-.01-2.14.04-4.63.08-7.32.14-2.68.24-5.56.5-8.45.14-1.45.27-2.89.4-4.32.12-1.43.36-2.83.53-4.2.32-2.74.82-5.3,1.22-7.54.38-2.24.9-4.12,1.19-5.53.3-1.4.56-2.3.63-2.53,1.83-6.67,4.24-13.22,7.37-19.42,3.12-6.21,6.98-12.06,11.48-17.36l1.71-1.97c.22-.25.1-.11.12-.14h0V85.51s.08-2.63.08-2.63c0-.88.13-1.75.19-2.62.07-.87.15-1.75.29-2.61.43-3.48,1.21-6.89,2.2-10.24.98-3.35,2.2-6.62,3.64-9.79.19-.46,1.55-3.41,3.85-7.35,1.14-1.98,2.56-4.18,4.13-6.46,1.59-2.27,3.35-4.61,5.2-6.85,3.7-4.49,7.72-8.6,10.9-11.46,3.18-2.87,5.5-4.52,5.63-4.36.12.15-1.94,2.07-4.85,5.16-2.92,3.08-6.66,7.35-10.09,11.91-1.71,2.29-3.34,4.65-4.81,6.92-1.45,2.29-2.76,4.48-3.81,6.43-2.11,3.91-3.35,6.79-3.54,7.23Z"/><path class="cls-2" d="M150.55,39.98c-2.45-2.97-5.78-5.18-9.41-6.72-3.67-1.57-7.52-2.76-11.45-3.19-.98-.14-1.97-.16-2.95-.23-.98.01-1.97-.02-2.95.08-1.96.13-3.91.44-5.81.96-3.81,1-7.4,2.77-10.68,5.03-6.56,4.55-11.78,10.92-16.08,17.75-4.28,6.88-7.7,14.33-10.5,21.98-5.57,15.34-8.91,31.51-10.3,47.78-.33,4.07-.52,8.15-.56,12.23-.02,4.07.12,8.16.36,12.25.51,8.15,1.38,16.32,3.44,24.12.08.28.49,2.12,1.32,4.62.82,2.49,2.08,5.7,4.04,8.33.97,1.31,2.14,2.44,3.41,3.18,1.28.72,2.65,1,3.83.94,1.19-.06,2.18-.39,2.84-.67.68-.27,1.07-.45,1.13-.36.05.07-.23.41-.86.87-.62.45-1.62,1.01-2.99,1.26-1.35.25-3.07.11-4.68-.62-1.6-.73-3.06-1.95-4.26-3.33-2.41-2.79-3.94-6.13-4.96-8.71-1.01-2.6-1.52-4.49-1.6-4.78-2.15-8.13-3.02-16.43-3.54-24.7-.24-4.14-.39-8.27-.37-12.44.04-4.16.24-8.3.57-12.44.7-8.27,1.9-16.49,3.64-24.6,1.74-8.11,3.96-16.12,6.82-23.93,2.86-7.8,6.34-15.41,10.76-22.51,4.44-7.05,9.86-13.71,16.88-18.59,3.5-2.41,7.4-4.34,11.56-5.43,2.07-.57,4.21-.92,6.35-1.05,1.07-.1,2.15-.07,3.22-.08,1.07.07,2.14.09,3.2.24,4.26.47,8.37,1.74,12.26,3.4,3.92,1.67,7.67,4.12,10.48,7.52.18.24,1.54,1.83,2.74,4.47,1.22,2.62,2.07,6.33,1.86,9.96-.19,3.62-1.26,7.14-2.95,9.33-.22.27-.44.52-.69.74-.24.22-.56.44-.87.56-.31.12-.61.17-.88.11-.27-.06-.49-.2-.65-.35-.32-.32-.42-.68-.48-.88-.04-.21-.04-.33.01-.35h0c.11-.05.29.39.77.71.25.16.65.17.96-.07.27-.18.61-.6.92-1.11,1.21-2.07,1.93-5.43,1.85-8.72-.05-3.32-1.02-6.56-2.21-8.79-1.17-2.25-2.41-3.57-2.57-3.79Z"/><path class="cls-2" d="M126.24,89.29c2.54-2.06,4.26-5.16,5.46-8.41.27-.83.58-1.65.75-2.49.19-.83.45-1.65.51-2.51.09-.85.25-1.69.21-2.55,0-.85.04-1.71-.1-2.56-.64-6.82-4.63-13.2-10.31-17.06-2.83-1.95-6.1-3.24-9.48-3.71-3.38-.48-6.86-.12-10.09,1.01-.79.33-1.61.59-2.38.97l-2.28,1.21-2.14,1.47c-.72.48-1.34,1.11-2.02,1.65-.33.29-.67.55-.99.86l-.91.95c-.59.65-1.25,1.23-1.79,1.93-1.09,1.38-2.23,2.73-3.16,4.24-3.93,5.9-6.72,12.58-8.82,19.44-2.05,6.87-3.57,13.99-4.93,21.1-1.32,7.11-2.33,14.29-2.76,21.47-.25,3.59-.25,7.19-.09,10.75.17,3.57.63,7.11,1.52,10.49.09.23.43,1.83,1.26,3.94.23.51.48,1.05.75,1.63.33.52.61,1.13,1.02,1.65.74,1.11,1.76,2.07,2.92,2.7,1.16.62,2.5.81,3.72.54,1.23-.26,2.28-.94,3.05-1.66,1.59-1.44,2.11-2.93,2.34-2.82.12.02,0,1.67-1.53,3.58-.75.94-1.89,1.93-3.43,2.44-1.52.53-3.4.46-5.01-.24-1.61-.69-2.97-1.84-3.94-3.08-.53-.6-.91-1.26-1.33-1.86-.34-.63-.68-1.23-.97-1.8-.51-1.15-.94-2.15-1.16-2.9-.25-.75-.42-1.23-.45-1.37-.96-3.66-1.44-7.38-1.61-11.08-.16-3.7-.16-7.4.09-11.07.43-7.35,1.46-14.63,2.8-21.82,1.38-7.19,2.89-14.33,5.01-21.42,2.15-7.04,5.02-13.96,9.17-20.19.98-1.59,2.19-3.04,3.36-4.5.57-.74,1.28-1.38,1.92-2.07l.98-1.02c.34-.33.72-.62,1.07-.93.74-.6,1.41-1.27,2.2-1.8l2.36-1.61,2.54-1.35c.86-.42,1.78-.72,2.67-1.09,3.64-1.27,7.6-1.68,11.43-1.14,3.83.53,7.51,2,10.68,4.18,6.35,4.32,10.8,11.42,11.54,19.15.15.96.11,1.93.11,2.89.04.97-.13,1.93-.23,2.89-.07.97-.36,1.89-.57,2.83-.2.95-.53,1.84-.83,2.74-1.31,3.54-3.2,7.08-6.35,9.65-.21.16-1.69,1.44-4.28,2.24-2.55.81-6.25.72-9.19-1.09-.73-.45-1.41-.99-1.98-1.68-.55-.68-1.01-1.55-1-2.56-.01-.26.05-.42.07-.63.05-.21.03-.36.15-.63.09-.24.16-.48.26-.7.14-.19.26-.39.4-.56.61-.67,1.63-.68,2.21-.19.6.46.93,1.14,1,1.72.06.55-.04,1.01-.19,1.34-.08.17-.15.31-.22.43-.09.11-.17.2-.23.26-.13.13-.22.19-.26.16-.04-.03-.03-.14.01-.31.02-.08.05-.18.09-.3.02-.13.04-.26.06-.4.04-.29.02-.65-.09-1-.11-.32-.32-.6-.61-.77-.28-.19-.73-.08-.89.25-.08.16-.12.33-.14.5-.01.17-.05.59-.03.81.08.9,1.17,1.92,2.36,2.49,2.47,1.24,5.45,1.1,7.39.34,1.98-.75,3.12-1.81,3.29-1.96Z"/><path class="cls-2" d="M196.41,23.46c-5.25.96-10.24,2.99-15.19,5.24-2.48,1.13-4.97,2.32-7.57,3.37-2.58,1.07-5.32,1.97-8.2,2.39-.36.05-.71.13-1.08.16l-1.09.06c-.73.04-1.47.1-2.15.05-1.4-.07-2.8-.04-4.21-.19-1.4-.17-2.81-.23-4.2-.53l-2.09-.38c-.69-.16-1.38-.36-2.06-.54-2.74-.76-5.42-1.82-7.9-3.23-2.49-1.37-4.77-3.02-7.01-4.47-.17-.1-1.96-1.51-3.88-2.49-.23-.12-.47-.25-.72-.37-.24-.09-.48-.18-.73-.27-.47-.18-.92-.39-1.32-.47-.8-.23-1.35-.46-1.35-.65s.57-.34,1.47-.45c.46-.08.98-.03,1.55.02.3.03.6.06.89.09.3.07.6.15.89.22,2.43.61,4.58,1.89,4.73,1.98,2.36,1.54,4.53,3.1,6.85,4.37,2.3,1.31,4.75,2.27,7.29,2.98.64.17,1.27.35,1.91.5l1.95.36c1.29.29,2.64.34,3.95.5,1.32.15,2.67.12,4,.19.68.05,1.31,0,1.95-.04l.96-.05c.32-.02.64-.1.96-.14,2.55-.37,5.07-1.19,7.55-2.21,2.48-1.01,4.94-2.18,7.45-3.33,5.01-2.28,10.26-4.43,15.83-5.45.1-.02.75-.1,1.68-.19.92-.11,2.13-.08,3.31-.1.29,0,.58,0,.88,0,.28.03.56.05.85.08.55.06,1.06.12,1.49.19.87.14,1.43.31,1.43.5s-.56.4-1.4.61c-.42.1-.91.2-1.43.3-.27.05-.54.09-.81.14-.28.07-.56.13-.83.19-1.11.27-2.23.44-3.08.69-.85.23-1.45.38-1.55.4Z"/><path class="cls-2" d="M365.22,22.56H45.79C43.89,22.56,0,21.92,0,21.14s43.88-1.43,45.78-1.43h319.43c1.9,0,45.78.64,45.78,1.43s-43.88,1.43-45.78,1.43Z"/><path class="cls-2" d="M193.65,690.61c-4.13-4.13-9.01-7.51-14.32-10.03-1.29-.71-2.69-1.17-4.05-1.74-.69-.26-1.36-.58-2.05-.8l-2.08-.66c-2.82-.79-5.72-1.44-8.66-1.93-5.87-1.04-11.83-1.75-17.8-2.49-5.97-.73-11.96-1.45-17.94-2.34-11.93-1.8-23.95-4.11-35.31-8.71-5.66-2.31-11.14-5.25-15.96-9.15-4.82-3.88-8.91-8.8-11.61-14.44-.05-.1-.22-.47-.51-1.06-.24-.6-.5-1.44-.83-2.41-.75-1.91-1.22-4.52-1.7-7.06-.24-2.59-.52-5.12-.34-7.03.08-1.9.21-3.14.41-3.14h0c.46,0,.74,4.95,1.91,9.78.71,2.38,1.35,4.79,2.19,6.52.38.88.67,1.65.93,2.19.29.54.48.88.52.96,2.5,5.23,6.29,9.8,10.83,13.45,4.54,3.67,9.78,6.5,15.25,8.73,10.99,4.45,22.82,6.75,34.65,8.53,5.93.88,11.89,1.6,17.87,2.33,5.98.73,11.97,1.45,17.96,2.51,2.99.51,5.98,1.18,8.96,2.01l2.22.7c.74.24,1.44.56,2.16.83,1.42.6,2.88,1.08,4.24,1.83,5.57,2.64,10.73,6.2,15.11,10.59.36.25,3.97,4.25,6.49,8.8,1.26,2.27,2.26,4.64,2.82,6.46.57,1.82.71,3.1.52,3.15-.19.05-.68-1.09-1.55-2.73-.86-1.64-2.09-3.78-3.51-5.82-2.84-4.08-6.46-7.61-6.8-7.85Z"/><path class="cls-2" d="M215.33,688.59c4.38-4.38,9.54-7.95,15.11-10.59,1.36-.74,2.82-1.23,4.24-1.83.72-.28,1.42-.6,2.16-.83l2.22-.7c2.97-.83,5.96-1.5,8.96-2.01,5.99-1.06,11.98-1.77,17.96-2.51,5.98-.73,11.94-1.45,17.87-2.33,11.83-1.78,23.66-4.08,34.65-8.53,5.47-2.24,10.71-5.06,15.25-8.73,4.54-3.66,8.33-8.22,10.83-13.45.05-.09.23-.42.52-.96.26-.54.55-1.31.93-2.19.84-1.73,1.47-4.15,2.19-6.52,1.17-4.83,1.45-9.78,1.91-9.78h0c.2,0,.33,1.24.41,3.14.18,1.91-.1,4.44-.34,7.03-.48,2.54-.95,5.15-1.7,7.06-.33.97-.59,1.81-.83,2.41-.28.59-.46.97-.51,1.06-2.69,5.64-6.78,10.56-11.61,14.44-4.83,3.9-10.31,6.84-15.96,9.15-11.37,4.6-23.38,6.91-35.31,8.71-5.98.89-11.97,1.61-17.94,2.34-5.97.73-11.94,1.45-17.8,2.49-2.94.5-5.83,1.15-8.66,1.93l-2.08.66c-.69.22-1.37.53-2.05.8-1.35.57-2.76,1.03-4.05,1.74-5.3,2.52-10.19,5.89-14.32,10.03-.34.24-3.96,3.77-6.8,7.85-1.42,2.04-2.65,4.18-3.51,5.82-.87,1.64-1.36,2.77-1.55,2.73-.19-.05-.05-1.32.52-3.15.57-1.82,1.56-4.19,2.82-6.46,2.52-4.55,6.13-8.55,6.49-8.8Z"/></g><path id="Banner_4_Shape" class="cls-1" d="M205.51,0c0,21.14-136.13,53.29-136.13,196.92v380.2c0,49.54,136.13,74.16,136.13,110.77,0-36.61,136.13-61.23,136.13-110.77V196.92C341.64,53.29,205.51,21.14,205.51,0Z"/></g></svg>