<?xml version="1.0" encoding="UTF-8"?><svg id="Line" xmlns="http://www.w3.org/2000/svg" viewBox="0 0 559.73 214.88"><defs><style>.cls-1{opacity:.24;}.cls-2{fill:#fff;stroke-width:0px;}.cls-3{fill:none;stroke:#000;stroke-width:.3px;}</style></defs><g id="Button_11"><g id="Button_11_Lines"><path class="cls-2" d="M208.12,38H30.13v138.88h177.99c1.48.02,19.33.22,36.99.42,8.78.13,17.47.28,23.96.45,3.25.09,5.94.17,7.83.27,1.89.09,2.96.19,2.96.29s-1.07.19-2.96.29c-1.89.09-4.58.18-7.83.27-6.49.17-15.18.32-23.96.45-17.66.2-35.51.4-36.99.42H27.27V35.14h180.85c1.48.02,19.33.22,36.99.42,8.78.13,17.47.28,23.96.45,3.25.09,5.94.17,7.83.27,1.89.09,2.96.19,2.96.29s-1.07.19-2.96.29c-1.89.09-4.58.18-7.83.27-6.49.17-15.18.32-23.96.45-17.66.2-35.51.4-36.99.42Z"/><path class="cls-2" d="M2.94,128.39c.39,2.14,1.34,4.28,2.48,6.3,1.14,2.04,2.55,3.96,4.01,5.83,2.96,3.73,6.34,7.16,9.93,10.36,1.78,1.61,3.64,3.14,5.52,4.64,1.91,1.45,3.81,2.88,5.84,4.16,4.02,2.61,8.24,4.96,12.56,7.15,8.62,4.42,17.57,8.27,26.19,13.07,4.28,2.42,8.53,5.06,12.24,8.52l1.38,1.31,1.27,1.37c.83.93,1.65,1.87,2.43,2.84,1.56,1.95,3.01,4.01,4.24,6.23.09.16.65,1.2,1.25,2.77.61,1.56,1.25,3.68,1.39,5.89.07,1.1,0,2.23-.29,3.26-.28,1.02-.81,2.01-1.67,2.53-.44.25-.93.31-1.32.25-.39-.08-.68-.25-.86-.42-.38-.33-.46-.61-.4-.67.08-.08.31.06.69.17.38.13.88.13,1.26-.24.39-.38.66-1.1.74-1.94.09-.83.03-1.77-.15-2.71-.35-1.87-1.11-3.7-1.8-5.07-.68-1.37-1.26-2.29-1.34-2.44-1.13-2.04-2.49-3.98-3.97-5.83-.74-.93-1.52-1.82-2.31-2.71l-1.22-1.31-1.27-1.2c-3.42-3.19-7.5-5.75-11.68-8.11-8.41-4.69-17.37-8.55-26.09-13.01-4.37-2.21-8.67-4.61-12.82-7.3-2.09-1.31-4.08-2.82-6.05-4.31-1.93-1.53-3.83-3.1-5.66-4.75-3.68-3.28-7.16-6.81-10.26-10.71-1.53-1.96-3.01-3.98-4.26-6.2-1.23-2.21-2.32-4.57-2.81-7.23-.03-.09-.06-.46-.09-1.03,0-.29-.05-.61-.03-1.01.02-.4.06-.83.14-1.27.16-.89.44-1.88.9-2.87.46-.99,1.12-2.02,2.12-2.81.5-.39,1.12-.68,1.75-.83.76-.17,1.61-.11,2.15.37.55.43.7,1.34.35,1.71-.14.23-.33.48-.69.72-.33.22-.78.43-1.16.49-.79.14-1.15-.04-1.42-.19-.11-.11-.25-.19-.28-.4-.03-.08,0-.23.02-.33.03-.09.08-.15.12-.22.35-.43.62-.47.68-.42.09.07-.08.33-.16.67,0,.04-.01.08,0,.1l.02.02s0,0-.04.01c.08,0,.03.01.06.02.03.07.18.12.29.13.25.02.49-.05.71-.13.22-.09.41-.21.56-.35.19-.12.08-.43-.11-.5-.21-.09-.41-.03-.62.06-.33.14-.64.33-.91.61-1.11,1.15-1.61,3.13-1.72,4.49-.03.35-.03.66-.02.93.02.27.07.54.09.76.05.44.09.72.12.79Z"/><path class="cls-2" d="M.13,86.01c.49-2.67,1.58-5.03,2.81-7.23,1.24-2.21,2.72-4.23,4.26-6.2,3.1-3.9,6.58-7.43,10.26-10.71,1.83-1.66,3.73-3.22,5.66-4.75,1.97-1.5,3.96-3,6.05-4.31,4.15-2.69,8.45-5.08,12.82-7.3,8.71-4.46,17.67-8.33,26.09-13.01,4.18-2.36,8.26-4.92,11.68-8.11l1.27-1.2,1.22-1.31c.79-.89,1.57-1.79,2.31-2.71,1.48-1.85,2.84-3.79,3.97-5.83.08-.15.66-1.07,1.34-2.44.68-1.36,1.44-3.19,1.8-5.07.18-.93.25-1.87.15-2.71-.08-.84-.36-1.55-.74-1.94-.38-.37-.88-.37-1.26-.24-.38.11-.61.25-.69.17-.06-.06.02-.34.4-.67.19-.17.47-.33.86-.42.39-.07.88,0,1.32.25.86.52,1.39,1.5,1.67,2.53.29,1.04.36,2.16.29,3.26-.13,2.21-.78,4.32-1.39,5.89-.61,1.57-1.17,2.61-1.25,2.77-1.23,2.22-2.68,4.28-4.24,6.23-.78.98-1.6,1.92-2.43,2.84l-1.27,1.37-1.38,1.31c-3.72,3.46-7.96,6.1-12.24,8.52-8.61,4.79-17.57,8.65-26.19,13.07-4.32,2.19-8.54,4.54-12.56,7.15-2.03,1.28-3.93,2.71-5.84,4.16-1.88,1.5-3.74,3.03-5.52,4.64-3.58,3.2-6.96,6.63-9.93,10.36-1.46,1.87-2.87,3.79-4.01,5.83-1.14,2.03-2.09,4.17-2.48,6.3-.03.08-.07.36-.12.79-.02.21-.08.48-.09.76-.01.27-.01.58.02.93.1,1.36.61,3.34,1.72,4.49.28.28.58.47.91.61.2.09.4.15.62.06.2-.08.31-.38.11-.5-.15-.14-.34-.26-.56-.35-.22-.09-.47-.15-.71-.13-.11,0-.26.06-.29.13-.02,0,.03.02-.06.02.04,0,.05.01.04.01l-.02.02s0,.07,0,.1c.08.34.25.6.16.67-.06.05-.33,0-.68-.42-.04-.07-.08-.13-.12-.22-.02-.1-.06-.25-.02-.33.04-.21.17-.29.28-.4.27-.15.63-.33,1.42-.19.38.06.83.27,1.16.49.36.24.55.49.69.72.35.37.2,1.28-.35,1.71-.54.48-1.4.54-2.15.37-.63-.15-1.25-.43-1.75-.83-1-.79-1.66-1.82-2.12-2.81-.47-.99-.75-1.98-.9-2.87-.08-.45-.12-.87-.14-1.27-.01-.39.02-.72.03-1.01.03-.57.06-.94.09-1.03Z"/><path class="cls-2" d="M351.61,35.14h180.85v144.59h-180.85c-1.48-.02-19.33-.22-36.99-.42-8.78-.13-17.47-.28-23.96-.45-3.25-.09-5.94-.17-7.83-.27-1.89-.09-2.96-.19-2.96-.29s1.07-.19,2.96-.29c1.89-.09,4.58-.18,7.83-.27,6.49-.17,15.18-.32,23.96-.45,17.66-.2,35.51-.4,36.99-.42h177.99V38h-177.99c-1.48-.02-19.33-.22-36.99-.42-8.78-.13-17.47-.28-23.96-.45-3.25-.09-5.94-.17-7.83-.27-1.89-.09-2.96-.19-2.96-.29s1.07-.19,2.96-.29c1.89-.09,4.58-.18,7.83-.27,6.49-.17,15.18-.32,23.96-.45,17.66-.2,35.51-.4,36.99-.42Z"/><path class="cls-2" d="M559.6,128.87c-.49,2.67-1.58,5.03-2.81,7.23-1.24,2.21-2.72,4.23-4.26,6.2-3.1,3.9-6.58,7.43-10.26,10.71-1.83,1.66-3.73,3.22-5.66,4.75-1.97,1.5-3.96,3-6.05,4.31-4.15,2.69-8.45,5.08-12.82,7.3-8.71,4.46-17.67,8.33-26.09,13.01-4.18,2.36-8.26,4.92-11.68,8.11l-1.27,1.2-1.22,1.31c-.79.89-1.57,1.79-2.31,2.71-1.48,1.85-2.84,3.79-3.97,5.83-.08.15-.66,1.07-1.34,2.44-.68,1.36-1.44,3.19-1.8,5.07-.18.93-.25,1.87-.15,2.71.08.84.36,1.55.74,1.94.38.37.88.37,1.26.24.38-.11.61-.25.69-.17.06.06-.02.34-.4.67-.19.17-.47.33-.86.42-.39.07-.88,0-1.32-.25-.86-.52-1.39-1.5-1.67-2.53-.29-1.04-.36-2.16-.29-3.26.13-2.21.78-4.32,1.39-5.89.61-1.57,1.17-2.61,1.25-2.77,1.23-2.22,2.68-4.28,4.24-6.23.78-.98,1.6-1.92,2.43-2.84l1.27-1.37,1.38-1.31c3.72-3.46,7.96-6.1,12.24-8.52,8.61-4.79,17.57-8.65,26.19-13.07,4.32-2.19,8.54-4.54,12.56-7.15,2.03-1.28,3.93-2.71,5.84-4.16,1.88-1.5,3.74-3.03,5.52-4.64,3.58-3.2,6.96-6.63,9.93-10.36,1.46-1.87,2.87-3.79,4.01-5.83,1.14-2.03,2.09-4.17,2.48-6.3.03-.08.07-.36.12-.79.02-.21.08-.48.09-.76.01-.27.01-.58-.02-.93-.1-1.36-.61-3.34-1.72-4.49-.28-.28-.58-.47-.91-.61-.2-.09-.4-.15-.62-.06-.2.08-.31.38-.11.5.15.14.34.26.56.35.22.09.47.15.71.13.11,0,.26-.06.29-.13.02,0-.03-.02.06-.02-.04,0-.05-.01-.04-.01l.02-.02s0-.07,0-.1c-.08-.34-.25-.6-.16-.67.06-.05.33,0,.68.42.04.07.08.13.12.22.02.1.06.25.02.33-.04.21-.17.29-.28.4-.27.15-.63.33-1.42.19-.38-.06-.83-.27-1.16-.49-.36-.24-.55-.49-.69-.72-.35-.37-.2-1.28.35-1.71.54-.48,1.4-.54,2.15-.37.63.15,1.25.43,1.75.83,1,.79,1.66,1.82,2.12,2.81.47.99.75,1.98.9,2.87.08.45.12.87.14,1.27.01.39-.02.72-.03,1.01-.03.57-.06.94-.09,1.03Z"/><path class="cls-2" d="M71.7,180.45c8.64,1.97,17.11,4.6,25.31,7.99,2.04.87,4.08,1.77,6.08,2.78.5.24.99.52,1.49.78l.37.2.16.09h-.01s.34,0,.34,0h349.19-.01s.16-.08.16-.08l.37-.2c.5-.26.99-.54,1.49-.78,2-1.02,4.03-1.91,6.08-2.78,8.21-3.39,16.68-6.02,25.31-7.99.62-.11,4.64-1.08,10.45-1.81,2.9-.38,6.25-.69,9.82-.73,3.57-.03,7.4.18,11.12,1.19,1.86.48,3.69,1.23,5.3,2.32.83.51,1.52,1.21,2.2,1.89.28.39.57.78.85,1.17.29.38.43.85.65,1.26.72,1.73,1,3.52.78,5.21-.19,1.69-.92,3.22-1.91,4.31-.99,1.09-2.16,1.75-3.19,2.23-1.04.49-2.01.72-2.79.9-1.59.32-2.51.28-2.52.19-.01-.1.88-.26,2.37-.74,1.44-.51,3.64-1.34,5.29-3.31.79-.99,1.31-2.28,1.4-3.71.12-1.43-.21-3.02-.87-4.41-.2-.33-.32-.72-.58-1.02-.24-.31-.49-.62-.74-.94-.6-.54-1.19-1.11-1.93-1.52-1.42-.88-3.07-1.51-4.8-1.88-3.45-.82-7.12-.92-10.56-.78-3.45.13-6.7.53-9.52.97-5.65.86-9.58,1.88-10.18,1.99-8.47,1.93-16.83,4.52-24.84,7.84-1.99.85-3.97,1.72-5.89,2.7-.49.23-.95.5-1.43.75l-.93.5c-.23.19-.52.1-.79.12H104.95c-.27-.02-.57.07-.79-.12l-.93-.5c-.47-.25-.94-.51-1.43-.75-1.92-.98-3.9-1.85-5.89-2.7-8.01-3.32-16.37-5.91-24.84-7.84-.61-.11-4.54-1.13-10.18-1.99-2.82-.44-6.07-.83-9.52-.97-3.44-.14-7.11-.04-10.56.78-1.73.38-3.38,1-4.8,1.88-.74.41-1.33.98-1.93,1.52-.25.31-.49.63-.74.94-.26.3-.38.69-.58,1.02-.66,1.39-1,2.98-.87,4.41.09,1.43.61,2.72,1.4,3.71,1.65,1.96,3.85,2.8,5.29,3.31,1.49.49,2.38.64,2.37.74,0,.09-.93.13-2.52-.19-.79-.18-1.75-.42-2.79-.9-1.03-.48-2.2-1.14-3.19-2.23-.99-1.08-1.73-2.62-1.91-4.31-.22-1.69.06-3.48.78-5.21.22-.41.36-.88.65-1.26.28-.39.56-.78.85-1.17.68-.68,1.37-1.38,2.2-1.89,1.61-1.09,3.44-1.84,5.3-2.32,3.72-1.02,7.55-1.23,11.12-1.19,3.58.03,6.93.35,9.82.73,5.81.73,9.82,1.7,10.45,1.81Z"/><path class="cls-2" d="M556.78,86.49c-.39-2.14-1.34-4.28-2.48-6.3-1.14-2.04-2.55-3.96-4.01-5.83-2.96-3.73-6.34-7.16-9.93-10.36-1.78-1.61-3.64-3.14-5.52-4.64-1.91-1.45-3.81-2.88-5.84-4.16-4.02-2.61-8.24-4.96-12.56-7.15-8.62-4.42-17.57-8.27-26.19-13.07-4.28-2.42-8.53-5.06-12.24-8.52l-1.38-1.31-1.27-1.37c-.83-.93-1.65-1.87-2.43-2.84-1.56-1.95-3.01-4.01-4.24-6.23-.09-.16-.65-1.2-1.25-2.77-.61-1.56-1.25-3.68-1.39-5.89-.07-1.1,0-2.23.29-3.26.28-1.02.81-2.01,1.67-2.53.44-.25.93-.31,1.32-.25.39.08.68.25.86.42.38.33.46.61.4.67-.08.08-.31-.06-.69-.17-.38-.13-.88-.13-1.26.24-.39.38-.66,1.1-.74,1.94-.09.83-.03,1.77.15,2.71.35,1.87,1.11,3.7,1.8,5.07.68,1.37,1.26,2.29,1.34,2.44,1.13,2.04,2.49,3.98,3.97,5.83.74.93,1.52,1.82,2.31,2.71l1.22,1.31,1.27,1.2c3.42,3.19,7.5,5.75,11.68,8.11,8.41,4.69,17.37,8.55,26.09,13.01,4.37,2.21,8.67,4.61,12.82,7.3,2.09,1.31,4.08,2.82,6.05,4.31,1.93,1.53,3.83,3.1,5.66,4.75,3.68,3.28,7.16,6.81,10.26,10.71,1.53,1.96,3.01,3.98,4.26,6.2,1.23,2.21,2.32,4.57,2.81,7.23.06.12.08.83.13,1.87-.03,1.12-.27,2.47-.87,3.89-.3.71-.68,1.43-1.2,2.11-.52.67-1.2,1.31-2.07,1.69-.73.35-2.2.58-2.95-.13-.38-.33-.58-.85-.51-1.29.03-.21.15-.35.24-.51.15-.18.25-.35.48-.52l.3-.2.35-.17c.22-.12.46-.17.68-.22.44-.1.76-.04.99.02.21.08.4.14.51.27.12.12.25.3.17.59-.07.22-.18.34-.27.43-.09.09-.18.15-.25.19-.15.08-.24.1-.28.06-.04-.04-.02-.14.03-.28.06-.13.15-.37.13-.5.05,0-.1-.12-.22-.15-.13-.04-.28-.02-.42,0-.28.05-.54.16-.74.29-.13.09-.26.18-.32.3-.03.15.07.3.2.37.14.07.31.05.44,0,.09-.02.37-.15.59-.27.89-.55,1.52-1.77,1.85-2.92.35-1.16.43-2.29.39-3.03-.13-.8-.15-1.33-.21-1.44Z"/><path class="cls-2" d="M71.07,31.64c8.47-1.93,16.83-4.52,24.84-7.84,1.99-.85,3.97-1.72,5.89-2.7.49-.23.95-.5,1.43-.75l.93-.5c.23-.19.52-.1.79-.12h349.82c.27.02.57-.07.79.12l.93.5c.47.25.94.51,1.43.75,1.92.98,3.9,1.85,5.89,2.7,8.01,3.32,16.37,5.91,24.84,7.84.61.11,4.54,1.13,10.18,1.99,2.82.44,6.07.83,9.52.97,3.44.14,7.11.04,10.56-.78,1.73-.38,3.38-1,4.8-1.88.74-.41,1.33-.98,1.93-1.52.25-.31.49-.63.74-.94.26-.3.38-.69.58-1.02.66-1.39,1-2.98.87-4.41-.09-1.43-.61-2.72-1.4-3.71-1.65-1.96-3.85-2.8-5.29-3.31-1.49-.49-2.38-.64-2.37-.74,0-.09.93-.13,2.52.19.79.18,1.75.42,2.79.9,1.03.48,2.2,1.14,3.19,2.23.99,1.08,1.73,2.62,1.91,4.31.22,1.69-.06,3.48-.78,5.21-.22.41-.36.88-.65,1.26-.28.39-.56.78-.85,1.17-.68.68-1.37,1.38-2.2,1.89-1.61,1.09-3.44,1.84-5.3,2.32-3.72,1.02-7.55,1.23-11.12,1.19-3.58-.03-6.93-.35-9.82-.73-5.81-.73-9.82-1.7-10.45-1.81-8.64-1.97-17.11-4.6-25.31-7.99-2.04-.87-4.08-1.77-6.08-2.78-.5-.24-.99-.52-1.49-.78l-.37-.2-.16-.09h.01s-.34,0-.34,0H105.1h.01s-.16.08-.16.08l-.37.2c-.5.26-.99.54-1.49.78-2,1.02-4.03,1.91-6.08,2.78-8.21,3.39-16.68,6.02-25.31,7.99-.62.11-4.64,1.08-10.45,1.81-2.9.38-6.25.69-9.82.73-3.57.03-7.4-.18-11.12-1.19-1.86-.48-3.69-1.23-5.3-2.32-.83-.51-1.52-1.21-2.2-1.89-.28-.39-.57-.78-.85-1.17-.29-.38-.43-.85-.65-1.26-.72-1.73-1-3.52-.78-5.21.19-1.69.92-3.22,1.91-4.31.99-1.09,2.16-1.75,3.19-2.23,1.04-.49,2.01-.72,2.79-.9,1.59-.32,2.51-.28,2.52-.19.01.1-.88.26-2.37.74-1.44.51-3.64,1.34-5.29,3.31-.79.99-1.31,2.28-1.4,3.71-.12,1.43.21,3.02.87,4.41.2.33.32.72.58,1.02.24.31.49.62.74.94.6.54,1.19,1.11,1.93,1.52,1.42.88,3.07,1.51,4.8,1.88,3.45.82,7.12.92,10.56.78,3.45-.13,6.7-.53,9.52-.97,5.65-.86,9.58-1.88,10.18-1.99Z"/></g><g id="Button_11_Shape" class="cls-1"><path class="cls-2" d="M454.98,42.12H104.74c-8.23,3.47-22.49,7.34-36.29,9.46-15.81,2.43-27.51,16-27.51,32.03v47.66c0,16.03,11.7,29.6,27.51,32.03,13.79,2.12,28.06,5.99,36.29,9.46h350.24c8.23-3.47,22.49-7.34,36.29-9.46,15.81-2.43,27.51-16,27.51-32.03v-47.66c0-16.03-11.7-29.6-27.51-32.03-13.79-2.12-28.06-5.99-36.29-9.46Z"/></g></g><g id="Button_12"><line class="cls-3" x1="6.44" y1="197.82" x2="6.44" y2="233.82"/><line class="cls-3" x1="553.29" y1="197.82" x2="553.29" y2="233.82"/></g></svg>