<?xml version="1.0" encoding="UTF-8"?><svg id="Line" xmlns="http://www.w3.org/2000/svg" viewBox="0 0 533 201.39"><defs><style>.cls-1{opacity:.24;}.cls-1,.cls-2{fill:#fff;stroke-width:0px;}</style></defs><g id="Button_7"><g id="Button_7_Lines"><path class="cls-2" d="M237.65,179.32H36.36c-1.2,0-28.85-.64-28.85-1.43s27.65-1.43,28.85-1.43h201.29c1.2,0,28.85.64,28.85,1.43s-27.65,1.43-28.85,1.43Z"/><path class="cls-2" d="M173.68,185.4H28.34c-.87-.01-20.83-.65-20.83-1.44s19.97-1.43,20.83-1.43h145.38c.23.04,1.64,0,3.8.4.54.1,1.14.26,1.78.53.63.29,1.34.67,1.88,1.37.54.68.81,1.53.9,2.31,0,.38.05.77,0,1.13-.03.35-.06.72-.16,1.14-.21.8-.66,1.54-1.24,2.07-.58.53-1.24.87-1.88,1.08-1.29.42-2.53.42-3.54.2-1-.21-1.9-.73-2.11-1.47-.11-.35-.01-.62.06-.77.09-.15.16-.2.2-.19.11.02.01.39.26.72.22.32.89.58,1.74.6.84.03,1.88-.13,2.8-.58.46-.23.87-.53,1.18-.88.3-.36.49-.77.55-1.22.02-.21.03-.48.02-.77.02-.28-.05-.52-.07-.77-.11-.47-.28-.82-.52-1.07-.47-.5-1.43-.73-2.3-.84-1.78-.2-3.21-.1-3.41-.13Z"/><path class="cls-2" d="M8.94,115.07v79.09h0s.77-.71.77-.71c1.12-1.01,2.3-1.97,3.51-2.86,2.43-1.79,5.03-3.35,7.78-4.63.26-.15,3.74-1.57,7.34-2.15.9-.14,1.8-.23,2.64-.3.85-.02,1.63-.04,2.29-.02,1.34.12,2.2.27,2.2.47s-.86.42-2.12.64c-.7.16-1.42.33-2.14.49-.77.22-1.6.44-2.41.69-3.27,1.04-6.35,2.63-6.6,2.78-2.56,1.19-5,2.66-7.29,4.34-1.14.84-2.24,1.74-3.3,2.68l-.84.78c-.54.51-1.06,1.11-1.59,1.66-1.06,1.12-2.08,2.25-3.1,3.38v-86.32c0-.6.64-14.37,1.43-14.37s1.43,13.78,1.43,14.37Z"/><path class="cls-2" d="M238.56,168.38c-16.83,3.01-33.86,4.33-50.86,5.13-17.01.71-34.04.78-51.05.39-17.01-.38-34-1.19-50.97-2.39-4.24-.3-8.48-.62-12.73-.99l-1.59-.14-.4-.04-.31-.03c-.13-.02-.27,0-.39-.06l-.96-.49-2.78-1.43c-.91-.5-1.87-.91-2.83-1.32l-2.87-1.24c-7.78-3.05-16-4.96-24.32-6.04-.3-.02-2.23-.33-4.98-.65-2.75-.31-6.32-.66-9.88-.84-7.09-.41-14.13-.43-14.13-.88,0-.2,1.74-.4,4.38-.64,2.64-.24,6.19-.44,9.79-.49,3.6-.07,7.25.07,10.06.24,2.82.17,4.81.41,5.11.43,8.51,1.1,16.96,3.07,25.01,6.22l2.98,1.29c.99.42,1.99.85,2.94,1.37l2.89,1.49c.8.37.1.17.94.28l1.58.14c4.22.37,8.45.69,12.68.99,16.92,1.19,33.88,2,50.84,2.38,16.96.39,33.93.32,50.86-.39,16.92-.79,33.85-2.11,50.48-5.09.59-.11,7.79-1.16,14.71-2.76,1.75-.34,3.45-.81,5.06-1.21,1.6-.4,3.11-.75,4.36-1.14,2.53-.73,4.24-1.15,4.32-.96s-1.51.95-3.95,2.01c-1.21.56-2.68,1.07-4.26,1.62-1.58.55-3.27,1.17-5.01,1.64-6.89,2.12-14.13,3.51-14.72,3.62Z"/><path class="cls-2" d="M237.65,24.93H36.36c-1.2,0-28.85-.64-28.85-1.43s27.65-1.43,28.85-1.43h201.29c1.2,0,28.85.64,28.85,1.43s-27.65,1.43-28.85,1.43Z"/><path class="cls-2" d="M238.05,35.82c-16.63-2.98-33.56-4.3-50.48-5.09-16.93-.71-33.9-.77-50.86-.39-16.96.38-33.91,1.18-50.84,2.38-4.23.3-8.46.62-12.68.99l-1.58.14c-.84.11-.14-.09-.94.28l-2.89,1.49c-.95.52-1.94.95-2.94,1.37l-2.98,1.29c-8.05,3.15-16.5,5.12-25.01,6.22-.31.02-2.29.26-5.11.43-2.82.17-6.46.31-10.06.24-3.6-.05-7.15-.25-9.79-.49-2.64-.24-4.38-.45-4.38-.64,0-.46,7.04-.48,14.13-.88,3.55-.19,7.12-.53,9.88-.84,2.75-.31,4.68-.63,4.98-.65,8.32-1.08,16.54-3,24.32-6.04l2.87-1.24c.96-.41,1.92-.82,2.83-1.32l2.78-1.43.96-.49c.12-.06.26-.04.39-.06l.31-.03.4-.04,1.59-.14c4.24-.37,8.48-.69,12.73-.99,16.97-1.2,33.96-2.01,50.97-2.39,17.01-.39,34.03-.32,51.05.39,17,.8,34.03,2.12,50.86,5.13.6.11,7.83,1.5,14.72,3.62,1.74.47,3.43,1.08,5.01,1.64,1.58.55,3.05,1.06,4.26,1.62,2.45,1.06,4.03,1.83,3.95,2.01s-1.79-.23-4.32-.96c-1.25-.4-2.76-.74-4.36-1.14-1.61-.4-3.31-.87-5.06-1.21-6.93-1.6-14.12-2.65-14.71-2.76Z"/><path class="cls-2" d="M173.72,18.85H28.34c-.87.01-20.83-.63-20.83-1.42s19.97-1.43,20.83-1.43h145.34c.2-.03,1.63.06,3.41-.14.87-.11,1.82-.34,2.3-.84.24-.25.42-.61.52-1.07.02-.25.09-.49.07-.77,0-.28,0-.55-.02-.77-.07-.45-.25-.86-.55-1.22-.31-.36-.73-.66-1.18-.88-.92-.45-1.96-.61-2.8-.58-.85.02-1.52.28-1.74.6-.25.33-.15.69-.26.72-.05.02-.11-.04-.2-.19-.07-.15-.17-.42-.06-.77.22-.73,1.11-1.25,2.11-1.47,1.02-.22,2.25-.22,3.54.2.64.22,1.3.56,1.88,1.08.57.53,1.03,1.27,1.24,2.07.1.42.13.78.16,1.14.05.35,0,.75,0,1.13-.09.78-.36,1.62-.9,2.31-.54.7-1.26,1.08-1.88,1.37-.64.27-1.24.43-1.78.53-2.17.39-3.57.36-3.8.39Z"/><path class="cls-2" d="M6.08,86.32V0c1.03,1.13,2.04,2.26,3.1,3.38.53.55,1.04,1.15,1.59,1.66l.84.78c1.05.95,2.15,1.84,3.3,2.68,2.29,1.68,4.73,3.15,7.29,4.34.25.14,3.34,1.74,6.6,2.78.82.25,1.64.47,2.41.69.72.16,1.43.33,2.14.49,1.26.22,2.12.44,2.12.64s-.86.35-2.2.47c-.67.02-1.45,0-2.29-.02-.84-.08-1.74-.16-2.64-.3-3.6-.58-7.08-2-7.34-2.15-2.75-1.28-5.35-2.85-7.78-4.63-1.22-.9-2.39-1.85-3.51-2.86l-.77-.71h0v79.1c0,.6-.64,14.37-1.43,14.37s-1.43-13.78-1.43-14.37Z"/><path class="cls-2" d="M295.35,176.46h201.29c1.2,0,28.85.64,28.85,1.43s-27.65,1.43-28.85,1.43h-201.29c-1.2,0-28.85-.64-28.85-1.43s27.65-1.43,28.85-1.43Z"/><path class="cls-2" d="M359.28,182.54h145.38c.87-.01,20.83.63,20.83,1.42s-19.97,1.43-20.83,1.43h-145.34c-.2.03-1.63-.06-3.41.14-.87.11-1.82.34-2.3.84-.24.25-.42.61-.52,1.07-.02.25-.09.49-.07.77,0,.28,0,.55.02.77.07.45.25.86.55,1.22.31.36.73.66,1.18.88.92.45,1.96.61,2.8.58.85-.02,1.52-.28,1.74-.6.25-.33.15-.69.26-.72.05-.02.11.04.2.19.07.15.17.42.06.77-.22.73-1.11,1.25-2.11,1.47-1.02.22-2.25.22-3.55-.2-.64-.22-1.3-.56-1.88-1.08-.57-.53-1.03-1.27-1.24-2.07-.1-.42-.13-.78-.16-1.14-.05-.35,0-.75,0-1.13.09-.78.36-1.62.9-2.31.54-.7,1.26-1.08,1.88-1.37.64-.27,1.24-.43,1.78-.53,2.17-.39,3.57-.36,3.8-.39Z"/><path class="cls-2" d="M526.92,115.07v86.32c-1.03-1.13-2.04-2.26-3.1-3.38-.53-.55-1.04-1.15-1.59-1.66l-.84-.78c-1.05-.95-2.15-1.84-3.3-2.68-2.29-1.68-4.73-3.15-7.29-4.34-.25-.14-3.34-1.74-6.6-2.78-.82-.25-1.64-.47-2.41-.69-.72-.16-1.43-.33-2.14-.49-1.26-.22-2.12-.44-2.12-.64s.86-.35,2.2-.47c.67-.02,1.45,0,2.29.02.84.08,1.74.16,2.64.3,3.6.58,7.08,2,7.34,2.15,2.75,1.28,5.35,2.85,7.78,4.63,1.22.9,2.39,1.85,3.51,2.86l.77.71h0v-79.1c0-.6.64-14.37,1.43-14.37s1.43,13.78,1.43,14.37Z"/><path class="cls-2" d="M294.95,165.57c16.63,2.98,33.56,4.3,50.48,5.09,16.93.71,33.9.77,50.86.39,16.96-.38,33.91-1.18,50.84-2.38,4.23-.3,8.46-.62,12.68-.99l1.58-.14c.84-.11.14.09.94-.28l2.89-1.49c.95-.52,1.94-.95,2.94-1.37l2.98-1.29c8.05-3.15,16.5-5.12,25.01-6.22.31-.02,2.29-.26,5.11-.43,2.82-.17,6.46-.31,10.06-.24,3.6.05,7.15.25,9.79.49,2.64.24,4.38.45,4.38.64,0,.46-7.04.48-14.13.88-3.55.19-7.12.53-9.88.84-2.75.31-4.68.63-4.98.65-8.32,1.08-16.54,3-24.32,6.04l-2.87,1.24c-.96.41-1.92.82-2.83,1.32l-2.78,1.43-.96.49c-.12.06-.26.04-.39.06l-.31.03-.4.04-1.59.14c-4.24.37-8.48.69-12.73.99-16.97,1.2-33.96,2.01-50.97,2.39-17.01.39-34.03.32-51.05-.39-17-.8-34.03-2.12-50.86-5.13-.6-.11-7.83-1.5-14.72-3.62-1.74-.47-3.43-1.08-5.01-1.64-1.58-.55-3.05-1.06-4.26-1.62-2.45-1.06-4.03-1.83-3.95-2.01s1.79.23,4.32.96c1.25.4,2.76.74,4.36,1.14,1.61.4,3.31.87,5.06,1.21,6.93,1.6,14.12,2.65,14.71,2.76Z"/><path class="cls-2" d="M295.35,22.07h201.29c1.2,0,28.85.64,28.85,1.43s-27.65,1.43-28.85,1.43h-201.29c-1.2,0-28.85-.64-28.85-1.43s27.65-1.43,28.85-1.43Z"/><path class="cls-2" d="M294.44,33.01c16.83-3.01,33.86-4.33,50.86-5.13,17.01-.71,34.04-.78,51.05-.39,17.01.38,34,1.19,50.97,2.39,4.24.3,8.48.62,12.73.99l1.59.14.4.04.31.03c.13.02.27,0,.39.06l.96.49,2.78,1.43c.91.5,1.87.91,2.83,1.32l2.87,1.24c7.78,3.05,16,4.96,24.32,6.04.3.02,2.23.33,4.98.65,2.75.31,6.32.66,9.88.84,7.09.41,14.13.43,14.13.88,0,.2-1.74.4-4.38.64-2.64.24-6.19.44-9.79.49-3.6.07-7.25-.07-10.06-.24-2.82-.17-4.81-.41-5.11-.43-8.51-1.1-16.96-3.07-25.01-6.22l-2.98-1.29c-.99-.42-1.99-.85-2.94-1.37l-2.89-1.49c-.8-.37-.1-.17-.94-.28l-1.58-.14c-4.22-.37-8.45-.69-12.68-.99-16.92-1.19-33.88-2-50.84-2.38-16.96-.39-33.93-.32-50.86.39-16.92.79-33.85,2.11-50.48,5.09-.59.11-7.79,1.16-14.71,2.76-1.75.34-3.45.81-5.06,1.21-1.6.4-3.11.75-4.36,1.14-2.53.73-4.24,1.15-4.32.96s1.51-.95,3.95-2.01c1.21-.56,2.68-1.07,4.26-1.62,1.58-.55,3.27-1.17,5.01-1.64,6.89-2.12,14.13-3.51,14.72-3.62Z"/><path class="cls-2" d="M359.32,16h145.34c.87.01,20.83.65,20.83,1.44s-19.97,1.43-20.83,1.43h-145.38c-.23-.04-1.64,0-3.8-.4-.54-.1-1.14-.26-1.78-.53-.63-.29-1.34-.67-1.88-1.37-.54-.68-.81-1.53-.9-2.31,0-.38-.05-.77,0-1.13.03-.35.06-.72.16-1.14.21-.8.66-1.54,1.24-2.07.58-.53,1.24-.87,1.88-1.08,1.29-.42,2.53-.42,3.55-.2,1,.21,1.9.73,2.11,1.47.11.35.01.62-.06.77-.09.15-.16.2-.2.19-.11-.02-.01-.39-.26-.72-.22-.32-.89-.58-1.74-.6-.84-.03-1.88.13-2.8.58-.46.23-.87.53-1.18.88-.3.36-.49.77-.55,1.22-.02.21-.03.48-.02.77-.02.28.05.52.07.77.11.47.28.82.52,1.07.47.5,1.43.73,2.3.84,1.78.2,3.21.1,3.41.13Z"/><path class="cls-2" d="M524.06,86.32V7.23h0s-.77.71-.77.71c-1.12,1.01-2.3,1.97-3.51,2.86-2.43,1.79-5.03,3.35-7.78,4.63-.26.15-3.74,1.57-7.34,2.15-.9.14-1.8.23-2.64.3-.85.02-1.63.04-2.29.02-1.34-.12-2.2-.27-2.2-.47s.86-.42,2.12-.64c.7-.16,1.42-.33,2.14-.49.77-.22,1.6-.44,2.41-.69,3.27-1.04,6.35-2.63,6.6-2.78,2.56-1.19,5-2.66,7.29-4.34,1.14-.84,2.24-1.74,3.3-2.68l.84-.78c.54-.51,1.06-1.11,1.59-1.66,1.06-1.12,2.08-2.25,3.1-3.38v86.32c0,.6-.64,14.37-1.43,14.37s-1.43-13.78-1.43-14.37Z"/></g><path id="Button_7_Shape" class="cls-1" d="M365.69,170.5c92.4,0,167.31-31.25,167.31-69.8S458.09,30.89,365.69,30.89h-198.38C74.91,30.89,0,62.14,0,100.7c0,38.55,74.91,69.8,167.31,69.8h198.38Z"/></g></svg>