<?xml version="1.0" encoding="UTF-8"?><svg id="Line" xmlns="http://www.w3.org/2000/svg" viewBox="0 0 545.25 192.43"><defs><style>.cls-1{opacity:.24;}.cls-1,.cls-2{fill:#fff;stroke-width:0px;}</style></defs><g id="Button_16"><g id="Button_16_Lines"><path class="cls-2" d="M252.27,23c-22.89-.51-45.75-1.87-68.57-3.74-11.41-.94-22.8-2.04-34.18-3.28-5.69-.63-11.37-1.28-17.06-2.01l-1.81-.23-.18.13c-.27.21-.54.42-.8.64-1.06.87-2.06,1.81-3,2.8-.94.99-1.8,2.04-2.55,3.15-.2.27-.37.56-.54.84l-.26.43s-.04.06-.07.12l-.12.24-.23.49c-.63,1.27-1.22,2.64-1.81,4l-2.32-3.84-.57-.94-.31-.48-.61-.96c-.24-.32-2.7-4.76-5.9-8.33-.82-.85-1.66-1.7-2.55-2.32-.88-.63-1.76-1.14-2.58-1.44-1.63-.64-2.88-.7-2.87-.93,0-.15,1.24-.49,3.17-.14.97.16,2.05.58,3.13,1.15,1.1.58,2.11,1.39,3.11,2.23,1.93,1.73,3.59,3.73,4.79,5.31,1.2,1.58,1.99,2.74,2.1,2.92l1.06,1.67.03-.05.38-.62c.2-.33.4-.65.62-.96.85-1.26,1.81-2.42,2.83-3.5,1.03-1.08,2.11-2.1,3.27-3.05.29-.24.58-.47.88-.7l.68-.5.44-.31c.16-.04.35.02.52.03l2.44.32c5.66.73,11.33,1.37,17,2,11.35,1.24,22.72,2.33,34.1,3.28,22.76,1.86,45.57,3.22,68.4,3.73.38.02,5.22.3,10.46.61,4.97.3,9.83.69,9.83,1.09,0,.39-4.87.71-9.86.93-4.99.25-10.08.22-10.5.23Z"/><path class="cls-2" d="M292.92,20.15c22.82-.51,45.63-1.87,68.4-3.73,11.38-.94,22.75-2.04,34.1-3.28,5.67-.63,11.35-1.28,17-2l2.44-.32c.17,0,.36-.07.52-.03l.44.31.68.5c.3.23.59.46.88.7,1.15.94,2.24,1.96,3.27,3.05,1.03,1.08,1.98,2.25,2.83,3.5.22.31.42.63.62.96l.38.62.03.05,1.06-1.67c.11-.18.9-1.34,2.1-2.92,1.2-1.58,2.86-3.57,4.79-5.31,1-.84,2.02-1.65,3.11-2.23,1.08-.58,2.17-1,3.13-1.15,1.93-.36,3.18-.02,3.17.14,0,.23-1.24.29-2.87.93-.82.3-1.7.81-2.58,1.44-.89.62-1.73,1.47-2.55,2.32-3.2,3.57-5.65,8.01-5.9,8.33l-.61.96-.31.48-.57.94-2.32,3.84c-.59-1.36-1.18-2.73-1.81-4l-.23-.49-.12-.24c-.03-.07-.05-.08-.07-.12l-.26-.43c-.17-.28-.34-.57-.54-.84-.75-1.11-1.61-2.16-2.55-3.15-.94-.99-1.94-1.93-3-2.8-.26-.22-.53-.43-.8-.64l-.18-.13-1.81.23c-5.68.73-11.37,1.38-17.06,2.01-11.38,1.24-22.77,2.34-34.18,3.28-22.81,1.87-45.67,3.23-68.57,3.74-.42-.01-5.51.02-10.5-.23-4.99-.22-9.86-.54-9.86-.93,0-.39,4.87-.79,9.83-1.09,5.24-.3,10.07-.58,10.46-.61Z"/><path class="cls-2" d="M72.14,14.24c-17.44,6.3-32.82,18.11-43.49,33.27-5.37,7.56-9.5,15.97-12.33,24.79-1.37,4.43-2.43,8.95-3.17,13.52-.67,4.59-1.01,9.21-1.05,13.85.04,4.64.39,9.26,1.05,13.85.74,4.58,1.79,9.09,3.17,13.52,2.83,8.82,6.96,17.23,12.33,24.79,10.67,15.16,26.04,26.97,43.49,33.27.32.08,2.33.89,5.24,1.82,1.46.44,3.12,1.01,4.93,1.44.9.23,1.82.47,2.77.71.94.2,1.91.4,2.87.6l1.44.31c.48.08.96.16,1.43.23.94.16,1.87.31,2.78.46,1.76.23,3.43.44,4.95.64,2.9.25,4.84.48,4.84.68,0,.19-1.94.34-4.9.43-1.47-.03-3.2-.06-5.06-.16-.94-.08-1.89-.17-2.86-.25-.49-.05-.98-.09-1.48-.14l-1.48-.21c-1-.15-1.99-.29-2.97-.43-.98-.19-1.94-.38-2.87-.57-1.88-.34-3.61-.83-5.14-1.22-3.04-.82-5.13-1.57-5.46-1.66-17.99-6.5-33.85-18.67-44.85-34.31-5.54-7.8-9.8-16.48-12.72-25.58-1.42-4.57-2.5-9.23-3.27-13.95-.69-4.73-1.04-9.5-1.09-14.28.04-4.78.4-9.55,1.09-14.28.76-4.72,1.85-9.38,3.27-13.95,2.92-9.1,7.18-17.78,12.72-25.58,11-15.64,26.85-27.81,44.85-34.31.33-.08,2.43-.84,5.46-1.66,1.52-.38,3.26-.88,5.14-1.22.93-.18,1.89-.37,2.87-.57.98-.14,1.97-.29,2.97-.43l1.48-.21c.49-.05.99-.09,1.48-.14.97-.08,1.92-.17,2.86-.25,1.86-.1,3.59-.13,5.06-.16,2.96.09,4.9.23,4.9.43,0,.2-1.94.43-4.84.68-1.52.2-3.19.41-4.95.64-.91.15-1.84.31-2.78.46-.48.08-.95.16-1.43.24l-1.44.31c-.96.2-1.92.41-2.87.6-.94.24-1.87.48-2.77.71-1.81.43-3.47,1-4.93,1.44-2.91.93-4.91,1.74-5.24,1.82Z"/><path class="cls-2" d="M34.91,151.38c4.8,1.7,9.46,3.69,14.04,5.87,4.54,2.25,9.01,4.64,13.33,7.28,8.62,5.3,16.89,11.28,24,18.67.16.09,1.47,1.9,2.69,3.68,1.12,1.88,2.04,3.78,1.71,3.99-.34.22-1.82-1.25-3.28-2.72-1.57-1.4-3.04-2.9-3.2-2.99-6.83-7.1-14.95-12.99-23.41-18.19-4.24-2.6-8.63-4.94-13.09-7.15-4.49-2.14-9.06-4.09-13.73-5.75-.17-.05-2.13-.86-4.05-1.75-1.94-.78-3.84-1.66-3.76-2.04.09-.38,2.18-.2,4.33.11,2.11.4,4.25.93,4.42.98Z"/><path class="cls-2" d="M474.08,11.55c17.99,6.5,33.85,18.67,44.85,34.31,5.54,7.8,9.8,16.48,12.72,25.58,1.42,4.57,2.5,9.23,3.27,13.95.69,4.73,1.04,9.5,1.09,14.28-.04,4.78-.4,9.55-1.09,14.28-.76,4.72-1.85,9.38-3.27,13.95-2.92,9.1-7.18,17.78-12.72,25.58-11,15.64-26.85,27.81-44.85,34.31-.33.08-2.43.84-5.46,1.66-1.52.38-3.26.88-5.14,1.22-.93.18-1.89.37-2.87.57-.98.14-1.97.29-2.97.43l-1.48.21c-.49.05-.99.09-1.48.14-.97.08-1.92.17-2.86.25-1.86.1-3.59.13-5.06.16-2.96-.09-4.9-.23-4.9-.43,0-.2,1.94-.43,4.84-.68,1.52-.2,3.19-.41,4.95-.64.91-.15,1.84-.31,2.78-.46.48-.08.95-.16,1.43-.23l1.44-.31c.96-.2,1.92-.41,2.87-.6.94-.24,1.87-.48,2.77-.71,1.81-.43,3.47-1,4.93-1.44,2.91-.93,4.91-1.74,5.24-1.82,17.44-6.3,32.82-18.11,43.49-33.27,5.37-7.56,9.5-15.97,12.33-24.79,1.37-4.43,2.43-8.95,3.17-13.52.67-4.59,1.01-9.21,1.05-13.85-.04-4.64-.39-9.26-1.05-13.85-.74-4.57-1.79-9.09-3.17-13.52-2.83-8.82-6.96-17.23-12.33-24.79-10.67-15.16-26.04-26.97-43.49-33.27-.32-.08-2.33-.89-5.24-1.82-1.46-.44-3.12-1.01-4.93-1.44-.9-.23-1.82-.47-2.77-.71-.94-.2-1.91-.4-2.87-.6l-1.44-.31c-.48-.08-.96-.16-1.43-.24-.94-.16-1.87-.31-2.78-.46-1.76-.23-3.43-.44-4.95-.64-2.9-.25-4.84-.48-4.84-.68,0-.19,1.94-.34,4.9-.43,1.47.03,3.2.06,5.06.16.94.08,1.89.17,2.86.25.49.05.98.09,1.48.14l1.48.21c1,.15,1.99.29,2.97.43.98.19,1.94.38,2.87.57,1.88.34,3.61.83,5.14,1.22,3.04.82,5.13,1.57,5.46,1.66Z"/><path class="cls-2" d="M511.27,154.08c-4.67,1.65-9.24,3.6-13.73,5.75-4.45,2.21-8.84,4.56-13.09,7.15-8.46,5.2-16.59,11.09-23.41,18.19-.16.09-1.63,1.59-3.2,2.99-1.46,1.47-2.94,2.94-3.28,2.72-.32-.21.6-2.11,1.71-3.99,1.22-1.78,2.53-3.59,2.69-3.68,7.11-7.39,15.39-13.37,24-18.67,4.32-2.64,8.79-5.03,13.33-7.28,4.57-2.18,9.24-4.18,14.04-5.87.17-.05,2.31-.58,4.42-.98,2.15-.3,4.24-.49,4.33-.11.09.38-1.82,1.26-3.76,2.04-1.92.88-3.88,1.69-4.05,1.75Z"/><path class="cls-2" d="M45.98,145.01c3.51,3.68,6.61,7.64,9.82,11.41,3.21,3.76,6.54,7.37,10.4,10.32,7.63,6.04,17.21,9.09,26.94,10.06,4.89.54,9.78.56,14.8.53h329.38c5.02.02,9.91,0,14.8-.53,9.73-.98,19.31-4.02,26.94-10.06,3.85-2.95,7.18-6.56,10.4-10.32,3.21-3.77,6.31-7.73,9.82-11.41.25-.26,1.19-1.25,2.75-2.69,1.55-1.44,3.73-3.33,6.55-5.21,2.76-1.85,6-3.84,9.52-5.8,3.52-1.96,7.31-3.88,11.11-5.7,3.77-1.85,7.62-3.54,10.81-5.58,1.57-1.03,3-2.21,3.62-3.64.32-.71.41-1.46.34-2.21-.06-.76-.29-1.42-.71-1.82-.85-.81-2.45-.41-3.18.29-.33.3-.49.8-.27,1.16.25.36.71.32,1.04.22.34-.1.64-.28.86-.49.22-.2.35-.51.26-.7-.06-.16-.24-.23-.34-.29-.11-.04-.17-.08-.17-.1s.07-.04.2-.04c.12.02.36.01.56.29.29.5-.18,1.37-1.34,1.79-.56.19-1.3.2-1.72-.37-.41-.57-.25-1.45.3-2.04.52-.55,1.19-.92,1.98-1.1.77-.18,1.78-.09,2.55.55.76.64,1.09,1.62,1.21,2.51.14.91.07,1.94-.31,2.88-.75,1.92-2.36,3.27-3.98,4.44-3.31,2.3-7.1,4.11-10.81,6.07-3.73,1.93-7.42,3.93-10.83,5.95-3.41,2.02-6.55,4.05-9.21,5.92-2.62,1.83-4.66,3.67-6.12,5.07-1.46,1.4-2.36,2.37-2.6,2.62-3.39,3.55-6.45,7.46-9.71,11.29-3.26,3.82-6.74,7.6-10.82,10.73-4.05,3.16-8.64,5.66-13.47,7.37-4.83,1.75-9.87,2.74-14.91,3.28-5.04.56-10.15.57-15.11.55H107.93c-4.96.02-10.07,0-15.11-.55-5.04-.54-10.09-1.53-14.91-3.28-4.84-1.71-9.43-4.2-13.47-7.37-4.08-3.13-7.56-6.91-10.82-10.73-3.25-3.83-6.32-7.74-9.71-11.29-.24-.25-1.14-1.22-2.6-2.62-1.46-1.4-3.49-3.24-6.12-5.07-2.66-1.87-5.8-3.9-9.21-5.92-3.41-2.02-7.11-4.02-10.83-5.95-3.71-1.96-7.5-3.77-10.81-6.07-1.61-1.17-3.22-2.52-3.98-4.44-.37-.94-.45-1.97-.31-2.88.12-.89.45-1.87,1.21-2.51.77-.64,1.78-.73,2.55-.55.79.18,1.46.54,1.98,1.1.55.59.71,1.48.3,2.04-.42.57-1.16.56-1.72.37-1.16-.43-1.64-1.29-1.34-1.79.2-.27.44-.27.56-.29.13,0,.2.02.2.04s-.06.06-.17.1c-.1.05-.28.13-.34.29-.08.19.05.49.26.7.22.22.51.4.86.49.32.1.79.14,1.04-.22.22-.36.06-.86-.27-1.16-.72-.69-2.33-1.1-3.18-.29-.42.4-.65,1.06-.71,1.82-.07.75.02,1.5.34,2.21.62,1.43,2.05,2.61,3.62,3.64,3.2,2.04,7.04,3.74,10.81,5.58,3.8,1.82,7.59,3.74,11.11,5.7,3.51,1.97,6.76,3.95,9.52,5.8,2.81,1.88,4.99,3.77,6.55,5.21,1.56,1.44,2.5,2.43,2.75,2.69Z"/><path class="cls-2" d="M138.92,178.2c11.04-1.94,22.15-3.32,33.28-4.47,11.12-1.14,22.27-2.02,33.42-2.71,22.31-1.38,44.65-2.06,67-2.07,22.35.01,44.7.7,67,2.07,11.15.7,22.3,1.57,33.42,2.71,11.12,1.15,22.23,2.54,33.28,4.47.78.16,10.29,1.86,19.34,4.72,4.52,1.42,8.92,3.18,11.94,5.06,1.51.93,2.66,1.88,3.36,2.65.71.77.95,1.33.89,1.37-.1.07-.48-.35-1.27-.94-.79-.6-1.98-1.36-3.51-2.1-3.06-1.51-7.45-2.94-11.96-4.09-9.03-2.31-18.51-3.69-19.28-3.85-10.94-1.92-22-3.3-33.07-4.44-11.08-1.14-22.19-2.01-33.31-2.7-22.24-1.37-44.54-2.06-66.83-2.07-22.29.01-44.58.69-66.83,2.07-11.12.69-22.23,1.57-33.31,2.7-11.08,1.15-22.13,2.53-33.07,4.44-.77.16-10.25,1.53-19.28,3.85-4.51,1.15-8.9,2.58-11.96,4.09-1.53.74-2.72,1.51-3.51,2.1-.79.59-1.18,1.02-1.27.94-.06-.04.18-.6.89-1.37.7-.77,1.85-1.72,3.36-2.65,3.02-1.88,7.42-3.64,11.94-5.06,9.05-2.86,18.56-4.56,19.34-4.72Z"/></g><path id="Button_16_Shape" class="cls-1" d="M272.62,0L80.03,39.25c-49.22,10.03-65.47,72.22-27.45,105.05h0c17.06,14.73,38.86,22.84,61.4,22.84h317.28c22.54,0,44.34-8.11,61.4-22.84h0c38.02-32.83,21.77-95.02-27.45-105.05L272.62,0Z"/></g></svg>