<?xml version="1.0" encoding="UTF-8"?><svg id="Line" xmlns="http://www.w3.org/2000/svg" viewBox="0 0 579 167.79"><defs><style>.cls-1{opacity:.24;}.cls-2{fill:#fff;stroke-width:0px;}</style></defs><g id="Button_5"><g id="Button_5_Lines"><path class="cls-2" d="M74.92,16.39h187.68c1.12,0,26.9.64,26.9,1.43s-25.78,1.43-26.9,1.43H74.92c-1.12,0-26.9-.64-26.9-1.43s25.78-1.43,26.9-1.43Z"/><path class="cls-2" d="M262.6,151.46H74.92c-1.12,0-26.9-.64-26.9-1.43s25.78-1.43,26.9-1.43h187.68c1.12,0,26.9.64,26.9,1.43s-25.78,1.43-26.9,1.43Z"/><path class="cls-2" d="M266.45,152.28c-7.56,2.2-15.24,3.85-22.95,5.21-7.71,1.38-15.46,2.46-23.22,3.41-15.52,1.86-31.09,3.12-46.67,4.09-31.17,1.89-62.38,2.6-93.58,2.8-1.12.04-26.83-.58-26.82-1.38,0-.77,25.7-1.44,26.81-1.48,31.16-.2,62.33-.9,93.42-2.79,15.54-.96,31.06-2.22,46.51-4.07,7.72-.94,15.42-2.02,23.06-3.38,7.64-1.35,15.23-2.98,22.64-5.14.51-.2,6.99-1.78,12.92-4.34,2.97-1.26,5.78-2.78,7.72-4.16,1.94-1.37,3.04-2.54,3.22-2.4.13.09-.69,1.54-2.51,3.26-1.81,1.72-4.59,3.59-7.55,5.12-5.93,3.12-12.46,5.05-12.98,5.25Z"/><path class="cls-2" d="M265.85,17.78c-7.37-2.28-14.96-3.96-22.6-5.35-7.64-1.39-15.35-2.49-23.07-3.41-15.46-1.85-31.01-3.02-46.57-3.9-31.13-1.71-62.34-2.17-93.55-2.27-1.11-.02-26.84-.67-26.84-1.45,0-.79,25.73-1.43,26.85-1.41,31.23.1,62.48.56,93.7,2.27,15.61.88,31.2,2.06,46.75,3.91,7.77.93,15.53,2.03,23.25,3.44,7.72,1.4,15.4,3.1,22.94,5.43.53.17,7.03,2.25,12.9,5.51,2.93,1.61,5.66,3.56,7.43,5.31,1.78,1.75,2.61,3.2,2.47,3.29-.18.14-1.28-1.03-3.19-2.45-1.91-1.43-4.68-3.03-7.62-4.36-5.88-2.69-12.32-4.42-12.84-4.58Z"/><path class="cls-2" d="M45.35,149.69c-1.07-.73-2.43-1.46-3.64-2.53-.58-.53-1.13-1.14-1.64-1.74-.43-.65-.9-1.29-1.3-1.95l-1.01-2.05c-.33-.68-.52-1.4-.79-2.09-.55-1.39-.86-2.82-1.23-4.23-.41-1.41-.6-2.84-.88-4.26l-.39-2.13-.28-2.14-.55-4.28-.38-4.28c-.95-11.42-1.12-22.83-1.18-34.23.07-11.4.23-22.81,1.18-34.23l.38-4.28.55-4.28.28-2.14.39-2.13c.28-1.42.47-2.85.88-4.26.37-1.41.68-2.84,1.23-4.23.27-.7.46-1.41.79-2.09l1.01-2.05c.39-.66.86-1.3,1.3-1.95.51-.6,1.06-1.21,1.64-1.74,1.21-1.07,2.57-1.8,3.64-2.53.07-.05.34-.23.77-.53.34-.35.84-.71,1.37-1.45,1.09-1.36,2.26-3.35,3.11-5.5,1.77-4.31,2.25-8.99,2.61-8.98.41-.02.68,4.82-.7,9.62-.67,2.39-1.76,4.73-2.89,6.39-.5.83-1.22,1.54-1.69,2.04-.54.42-.87.68-.96.75-1.29.86-2.44,1.5-3.37,2.32-.46.42-.87.89-1.28,1.36-.35.54-.73,1.05-1.06,1.6l-.87,1.78c-.29.59-.47,1.27-.71,1.9-.5,1.25-.8,2.62-1.15,3.96-.39,1.32-.58,2.72-.85,4.09l-.38,2.06-.27,2.09-.54,4.19-.38,4.22c-.94,11.27-1.11,22.63-1.17,33.99.07,11.35.23,22.72,1.17,33.99l.38,4.22.54,4.19.27,2.09.38,2.06c.27,1.37.46,2.77.85,4.09.35,1.34.65,2.7,1.15,3.96.24.63.42,1.31.71,1.9l.87,1.78c.33.56.71,1.06,1.06,1.6.41.47.82.94,1.28,1.36.93.82,2.08,1.46,3.37,2.32.09.07.42.33.96.75.47.5,1.19,1.21,1.69,2.04,1.13,1.66,2.23,4,2.89,6.39,1.38,4.81,1.12,9.64.7,9.62-.36.02-.84-4.67-2.61-8.98-.86-2.15-2.03-4.15-3.11-5.5-.53-.74-1.03-1.1-1.37-1.45-.43-.3-.7-.48-.77-.53Z"/><path class="cls-2" d="M504.08,19.25h-187.68c-1.12,0-26.9-.64-26.9-1.43s25.78-1.43,26.9-1.43h187.68c1.12,0,26.9.64,26.9,1.43s-25.78,1.43-26.9,1.43Z"/><path class="cls-2" d="M316.4,148.6h187.68c1.12,0,26.9.64,26.9,1.43s-25.78,1.43-26.9,1.43h-187.68c-1.12,0-26.9-.64-26.9-1.43s25.78-1.43,26.9-1.43Z"/><path class="cls-2" d="M313.36,149.54c7.41,2.16,15,3.79,22.64,5.14,7.64,1.37,15.34,2.44,23.06,3.38,15.44,1.85,30.97,3.11,46.51,4.07,31.09,1.89,62.26,2.59,93.42,2.79,1.11.04,26.8.71,26.81,1.48,0,.8-25.71,1.42-26.82,1.38-31.2-.2-62.41-.9-93.58-2.8-15.58-.96-31.15-2.22-46.67-4.09-7.76-.95-15.51-2.03-23.22-3.41-7.71-1.36-15.39-3.01-22.95-5.21-.52-.21-7.05-2.13-12.98-5.25-2.97-1.54-5.75-3.4-7.55-5.12-1.82-1.71-2.65-3.16-2.51-3.26.18-.14,1.27,1.03,3.22,2.4,1.93,1.38,4.74,2.9,7.72,4.16,5.94,2.55,12.42,4.14,12.92,4.34Z"/><path class="cls-2" d="M312.3,15.05c7.54-2.33,15.23-4.03,22.94-5.43,7.72-1.4,15.47-2.51,23.25-3.44,15.54-1.86,31.14-3.04,46.75-3.91C436.46.56,467.71.1,498.94,0c1.12-.02,26.85.62,26.85,1.41,0,.78-25.73,1.43-26.84,1.45-31.2.1-62.41.56-93.55,2.27-15.56.87-31.11,2.05-46.57,3.9-7.73.92-15.43,2.02-23.07,3.41-7.64,1.38-15.23,3.07-22.6,5.35-.52.16-6.96,1.9-12.84,4.58-2.94,1.33-5.71,2.93-7.62,4.36-1.92,1.42-3.01,2.59-3.19,2.45-.14-.1.69-1.54,2.47-3.29,1.77-1.76,4.5-3.7,7.43-5.31,5.87-3.26,12.37-5.35,12.9-5.51Z"/><path class="cls-2" d="M565.35,101.82c-2,6.91-3.62,14.1-6.47,20.97-1.43,3.43-3.17,6.78-5.43,9.82-2.25,3.04-5.04,5.75-8.28,7.78-6.49,4.15-14.35,5.35-21.67,5.21l-21.81-.06c-7.26,0-14.54-.08-21.77.08-7.23.18-14.43.52-21.02,3l-2.47.96-2.44,1.11c-1.63.74-3.25,1.57-4.87,2.35l-9.77,4.87-4.93,2.37-1.65.8-.15.07-.16-.05-.33-.1-.62-.19-.65-.2-2.61-.82c-3.47-1.1-6.94-2.23-10.39-3.44-.25-.09-1.84-.68-4.08-1.61-2.23-.94-5.11-2.18-7.82-3.8-1.35-.81-2.68-1.72-3.74-2.9-.52-.59-.98-1.3-1.14-2.12-.18-.81.06-1.68.52-2.22.44-.55.97-.84,1.42-1.04.46-.2.87-.3,1.2-.37.68-.12,1.07-.08,1.09.02.02.1-.33.24-.91.53-.55.28-1.43.73-1.89,1.5-.47.75-.1,1.75.85,2.6.95.85,2.23,1.58,3.56,2.23,2.67,1.3,5.57,2.33,7.8,3.11,2.28.77,3.85,1.3,4.09,1.37,3.41,1.2,6.85,2.32,10.31,3.41l2.6.81.68.21.8-.39,4.9-2.36,9.75-4.86c1.65-.8,3.27-1.63,4.95-2.39l2.52-1.14,2.61-1.02c3.52-1.28,7.23-2.12,10.92-2.52,1.84-.2,3.68-.33,5.52-.45,1.83-.07,3.67-.17,5.49-.2,7.31-.17,14.57-.09,21.85-.08l21.8.06c1.84.02,3.56-.03,5.33-.16,1.75-.17,3.5-.37,5.2-.76,3.42-.73,6.69-1.99,9.61-3.84,2.93-1.83,5.45-4.27,7.52-7.07,2.08-2.8,3.72-5.94,5.09-9.22,2.73-6.58,4.33-13.64,6.37-20.68.08-.25.57-1.89,1.43-4.17.86-2.27,2.1-5.24,4.01-7.86.95-1.3,2.1-2.48,3.35-3.36,1.25-.88,2.58-1.43,3.74-1.69,2.34-.54,3.88-.15,3.87-.01.01.25-1.53.26-3.54,1.07-1,.4-2.09,1.01-3.09,1.89-1,.87-1.9,1.99-2.66,3.23-1.51,2.49-2.5,5.35-3.19,7.59-.69,2.24-1.1,3.87-1.18,4.12Z"/><path class="cls-2" d="M562.61,66.83c-2.03-7.04-3.63-14.1-6.37-20.68-1.36-3.28-3.01-6.42-5.09-9.22-2.07-2.8-4.59-5.24-7.52-7.07-2.91-1.85-6.19-3.11-9.61-3.84-1.7-.39-3.45-.59-5.2-.76-1.77-.13-3.49-.18-5.33-.16l-21.8.06c-7.27,0-14.54.08-21.85-.08-1.83-.04-3.66-.14-5.49-.2-1.84-.12-3.68-.25-5.52-.45-3.69-.4-7.4-1.24-10.92-2.52l-2.61-1.02-2.52-1.14c-1.68-.76-3.3-1.59-4.95-2.39l-9.75-4.86-4.9-2.36-.8-.39-.68.21-2.6.81c-3.46,1.1-6.9,2.21-10.31,3.41-.23.08-1.8.61-4.09,1.37-2.23.78-5.13,1.81-7.8,3.11-1.33.65-2.61,1.38-3.56,2.23-.95.85-1.33,1.85-.85,2.6.46.77,1.34,1.22,1.89,1.5.57.29.93.43.91.53-.01.09-.41.14-1.09.02-.34-.06-.75-.16-1.2-.37-.45-.2-.97-.5-1.42-1.04-.46-.53-.7-1.41-.52-2.22.16-.82.62-1.53,1.14-2.12,1.06-1.18,2.39-2.08,3.74-2.9,2.72-1.62,5.6-2.86,7.82-3.8,2.23-.93,3.83-1.52,4.08-1.61,3.45-1.22,6.92-2.34,10.39-3.44l2.61-.82.65-.2.62-.19.33-.1.16-.05.15.07,1.65.8,4.93,2.37,9.77,4.87c1.62.79,3.24,1.62,4.87,2.35l2.44,1.11,2.47.96c6.59,2.48,13.79,2.82,21.02,3,7.23.17,14.5.09,21.77.08l21.81-.06c7.32-.15,15.18,1.05,21.67,5.21,3.24,2.03,6.04,4.74,8.28,7.78,2.26,3.04,4,6.4,5.43,9.82,2.85,6.88,4.47,14.06,6.47,20.97.08.24.49,1.87,1.18,4.12.69,2.24,1.68,5.1,3.19,7.59.75,1.24,1.66,2.36,2.66,3.23.99.88,2.09,1.49,3.09,1.89,2.01.81,3.55.83,3.54,1.07.01.14-1.53.53-3.87-.01-1.16-.27-2.49-.81-3.74-1.69-1.25-.87-2.4-2.05-3.35-3.36-1.9-2.62-3.14-5.59-4.01-7.86-.86-2.29-1.35-3.92-1.43-4.17Z"/><path class="cls-2" d="M16.39,101.02c2.03,7.04,3.63,14.1,6.37,20.68,1.36,3.28,3.01,6.42,5.09,9.22,2.07,2.8,4.59,5.24,7.52,7.07,2.91,1.85,6.19,3.11,9.61,3.84,1.7.39,3.45.59,5.2.76,1.77.13,3.49.18,5.33.16l21.8-.06c7.27,0,14.54-.08,21.85.08,1.83.04,3.66.14,5.49.2,1.84.12,3.68.25,5.52.45,3.69.41,7.4,1.24,10.92,2.52l2.61,1.02,2.52,1.14c1.68.76,3.3,1.59,4.95,2.39l9.75,4.86,4.9,2.36.8.39.68-.21,2.6-.81c3.46-1.1,6.9-2.21,10.31-3.41.23-.08,1.8-.61,4.09-1.37,2.23-.78,5.13-1.81,7.8-3.11,1.33-.65,2.61-1.38,3.56-2.23.95-.85,1.33-1.85.85-2.6-.46-.77-1.34-1.22-1.89-1.5-.57-.29-.93-.43-.91-.53.01-.09.41-.14,1.09-.02.34.06.75.17,1.2.37.45.2.97.5,1.42,1.04.46.53.7,1.41.52,2.22-.16.82-.62,1.53-1.14,2.12-1.06,1.18-2.39,2.08-3.74,2.9-2.72,1.62-5.6,2.86-7.82,3.8-2.23.93-3.83,1.52-4.08,1.61-3.45,1.22-6.92,2.34-10.39,3.44l-2.61.82-.65.2-.62.19-.33.1-.16.05-.15-.07-1.65-.8-4.93-2.37-9.77-4.87c-1.62-.79-3.24-1.62-4.87-2.35l-2.44-1.11-2.47-.96c-6.59-2.48-13.79-2.82-21.02-3-7.23-.17-14.5-.09-21.77-.08l-21.81.06c-7.32.15-15.18-1.05-21.67-5.21-3.24-2.03-6.04-4.74-8.28-7.78-2.26-3.04-4-6.4-5.43-9.82-2.85-6.88-4.47-14.06-6.47-20.97-.08-.24-.49-1.87-1.18-4.12-.69-2.24-1.68-5.1-3.19-7.59-.75-1.24-1.66-2.36-2.66-3.23-.99-.88-2.09-1.49-3.09-1.89C1.53,84.19-.01,84.17,0,83.92c-.01-.14,1.53-.53,3.87.01,1.16.27,2.49.81,3.74,1.69,1.25.87,2.4,2.05,3.35,3.36,1.9,2.62,3.14,5.59,4.01,7.86.86,2.29,1.35,3.92,1.43,4.17Z"/><path class="cls-2" d="M13.65,66.03c2-6.91,3.62-14.1,6.47-20.97,1.43-3.43,3.17-6.78,5.43-9.82,2.25-3.04,5.04-5.75,8.28-7.78,6.49-4.15,14.35-5.35,21.67-5.21l21.81.06c7.26,0,14.54.08,21.77-.08,7.23-.18,14.43-.52,21.02-3l2.47-.96,2.44-1.11c1.63-.74,3.25-1.57,4.87-2.35l9.77-4.87,4.93-2.37,1.65-.8.15-.07.16.05.33.1.62.19.65.2,2.61.82c3.47,1.1,6.94,2.23,10.39,3.44.25.09,1.84.68,4.08,1.61,2.23.94,5.11,2.18,7.82,3.8,1.35.81,2.68,1.72,3.74,2.9.52.59.98,1.3,1.14,2.12.18.81-.06,1.68-.52,2.22-.44.55-.97.84-1.42,1.04-.46.2-.87.3-1.2.37-.68.12-1.07.08-1.09-.02-.02-.1.34-.24.91-.53.55-.28,1.43-.73,1.89-1.5.47-.75.1-1.75-.85-2.6-.95-.85-2.23-1.58-3.56-2.23-2.67-1.3-5.57-2.33-7.8-3.11-2.28-.77-3.85-1.3-4.09-1.37-3.41-1.2-6.85-2.32-10.31-3.41l-2.6-.81-.68-.21-.8.39-4.9,2.36-9.75,4.86c-1.65.8-3.27,1.63-4.95,2.39l-2.52,1.14-2.61,1.02c-3.52,1.28-7.23,2.12-10.92,2.52-1.84.2-3.68.33-5.52.45-1.83.07-3.67.17-5.49.2-7.31.17-14.57.09-21.85.08l-21.8-.06c-1.84-.02-3.56.03-5.33.16-1.75.17-3.5.37-5.2.76-3.42.73-6.69,1.99-9.61,3.84-2.93,1.83-5.45,4.27-7.52,7.07-2.08,2.8-3.72,5.94-5.09,9.22-2.73,6.58-4.33,13.64-6.37,20.68-.08.25-.57,1.89-1.43,4.17-.86,2.27-2.1,5.24-4.01,7.86-.95,1.3-2.1,2.48-3.35,3.36-1.25.88-2.58,1.43-3.74,1.69-2.34.54-3.88.15-3.87.01-.01-.25,1.53-.26,3.54-1.07,1-.4,2.09-1.01,3.09-1.89,1-.87,1.9-1.99,2.66-3.23,1.51-2.49,2.5-5.35,3.19-7.59.69-2.24,1.1-3.87,1.18-4.12Z"/><path class="cls-2" d="M532.03,147.34c1.29-.86,2.44-1.5,3.37-2.32.46-.42.87-.89,1.28-1.36.35-.54.73-1.05,1.06-1.6l.87-1.78c.29-.59.47-1.27.71-1.9.5-1.25.8-2.62,1.15-3.96.39-1.32.58-2.72.85-4.09l.38-2.06.27-2.09.54-4.19.38-4.22c.94-11.27,1.11-22.63,1.17-33.99-.07-11.35-.23-22.72-1.17-33.99l-.38-4.22-.54-4.19-.27-2.09-.38-2.06c-.27-1.37-.46-2.77-.85-4.09-.35-1.34-.65-2.7-1.15-3.96-.24-.63-.42-1.3-.71-1.9l-.87-1.78c-.33-.56-.71-1.06-1.06-1.6-.41-.47-.82-.94-1.28-1.36-.93-.82-2.08-1.46-3.37-2.32-.09-.07-.42-.33-.96-.75-.47-.5-1.19-1.21-1.69-2.04-1.13-1.66-2.23-4-2.89-6.39-1.38-4.81-1.12-9.64-.7-9.62.36-.02.84,4.67,2.61,8.98.86,2.15,2.03,4.15,3.11,5.5.53.74,1.03,1.1,1.37,1.45.43.3.7.48.77.53,1.07.73,2.43,1.46,3.64,2.53.58.53,1.13,1.14,1.64,1.74.43.65.9,1.29,1.3,1.95l1.01,2.05c.33.69.52,1.4.79,2.09.55,1.39.86,2.82,1.23,4.23.41,1.41.6,2.84.88,4.26l.39,2.13.28,2.14.55,4.28.38,4.28c.95,11.42,1.12,22.83,1.18,34.23-.07,11.4-.23,22.82-1.18,34.23l-.38,4.28-.55,4.28-.28,2.14-.39,2.13c-.28,1.42-.47,2.85-.88,4.26-.37,1.41-.68,2.84-1.23,4.23-.27.7-.46,1.41-.79,2.09l-1.01,2.05c-.39.66-.86,1.3-1.3,1.95-.51.6-1.06,1.21-1.64,1.74-1.21,1.07-2.57,1.8-3.64,2.53-.07.05-.34.23-.77.53-.34.35-.84.7-1.37,1.45-1.09,1.36-2.26,3.35-3.11,5.5-1.77,4.31-2.25,8.99-2.61,8.98-.41.02-.68-4.82.7-9.62.67-2.39,1.76-4.73,2.89-6.39.5-.83,1.22-1.54,1.69-2.04.54-.42.87-.68.96-.75Z"/></g><g id="Button_5_Shape" class="cls-1"><path class="cls-2" d="M501.56,29.08c31.38,1.99,37.95,27.94,37.95,55.17s-6.79,53.47-38.34,55.2H77.82c-31.55-1.72-38.34-27.96-38.34-55.2,0-27.23,6.57-53.18,37.95-55.17h424.12Z"/></g></g></svg>