<?xml version="1.0" encoding="UTF-8"?><svg id="Line" xmlns="http://www.w3.org/2000/svg" viewBox="0 0 556.07 182.86"><defs><style>.cls-1{opacity:.24;}.cls-2{fill:#fff;stroke-width:0px;}</style></defs><g id="Button_3"><g id="Button_3_Lines"><path class="cls-2" d="M66.15,7.25c-17.17,6.22-32.29,17.87-42.77,32.8-5.27,7.45-9.33,15.74-12.11,24.42-1.35,4.36-2.38,8.81-3.11,13.31-.65,4.52-.99,9.07-1.03,13.64.04,4.56.38,9.12,1.03,13.64.73,4.5,1.76,8.95,3.11,13.31,2.78,8.69,6.84,16.97,12.11,24.42,10.48,14.94,25.6,26.58,42.77,32.8.32.08,2.29.88,5.15,1.8,1.44.43,3.07,1,4.86,1.42.88.23,1.8.46,2.72.71.93.2,1.88.4,2.82.6l1.41.3,1.41.23c.93.15,1.84.31,2.74.46,1.73.22,3.38.44,4.87.63,2.86.25,4.76.48,4.77.68,0,.19-1.91.34-4.82.43-1.45-.03-3.15-.05-4.98-.15-.92-.08-1.87-.16-2.82-.25-.48-.04-.97-.09-1.46-.13l-1.46-.21c-.98-.14-1.96-.29-2.93-.43-.96-.19-1.91-.38-2.83-.56-1.85-.33-3.56-.82-5.06-1.2-2.99-.81-5.06-1.55-5.38-1.64-17.72-6.42-33.32-18.43-44.13-33.85-5.44-7.69-9.63-16.24-12.5-25.2-1.39-4.5-2.46-9.09-3.21-13.74-.68-4.66-1.02-9.36-1.07-14.07.04-4.71.39-9.41,1.07-14.07.75-4.65,1.82-9.24,3.21-13.74,2.87-8.97,7.06-17.52,12.5-25.2,10.81-15.41,26.41-27.43,44.13-33.85.33-.08,2.39-.83,5.38-1.64,1.5-.38,3.21-.87,5.06-1.2.92-.18,1.87-.37,2.83-.56.96-.14,1.94-.28,2.93-.43l1.46-.21c.49-.04.97-.09,1.46-.13.95-.08,1.9-.17,2.82-.25,1.83-.1,3.53-.12,4.98-.15,2.91.09,4.82.23,4.82.43,0,.2-1.91.43-4.77.68-1.5.19-3.14.41-4.87.63-.9.15-1.81.3-2.74.46l-1.41.23-1.41.3c-.95.2-1.89.4-2.82.6-.93.24-1.84.48-2.72.71-1.78.42-3.42.99-4.86,1.42-2.86.92-4.84,1.72-5.15,1.8Z"/><path class="cls-2" d="M8.16,49.46c3.15,6.56,4.94,13.59,6.12,20.64,1.15,7.06,1.64,14.2,1.66,21.33-.02,7.13-.51,14.27-1.66,21.33-1.17,7.05-2.97,14.08-6.12,20.64-.06.1-.46.8-1.09,1.88-.28.52-.71,1.08-1.13,1.67-.44.59-.85,1.23-1.35,1.82-1.94,2.4-4.32,4.24-4.56,3.97-.3-.31,1.49-2.58,2.89-5.12.37-.62.67-1.3.99-1.9.31-.62.63-1.17.84-1.7.45-1.04.78-1.77.83-1.88,2.97-6.19,4.73-12.99,5.87-19.85,1.12-6.88,1.6-13.88,1.62-20.87-.02-6.99-.5-13.99-1.62-20.87-1.14-6.86-2.89-13.66-5.87-19.85-.06-.11-.38-.83-.83-1.88-.21-.53-.53-1.09-.84-1.7-.32-.6-.62-1.28-.99-1.9-1.4-2.54-3.19-4.8-2.89-5.12.24-.26,2.62,1.57,4.56,3.97.5.58.92,1.23,1.35,1.82.42.6.84,1.15,1.13,1.67.63,1.08,1.03,1.79,1.09,1.88Z"/><path class="cls-2" d="M490.9,4.57c17.72,6.42,33.32,18.43,44.13,33.85,5.44,7.69,9.63,16.24,12.5,25.2,1.39,4.5,2.46,9.09,3.21,13.74.68,4.66,1.02,9.36,1.07,14.07-.04,4.71-.39,9.41-1.07,14.07-.75,4.65-1.82,9.24-3.21,13.74-2.87,8.97-7.06,17.52-12.5,25.2-10.81,15.41-26.41,27.43-44.13,33.85-.33.08-2.39.83-5.38,1.64-1.5.38-3.21.87-5.06,1.2-.92.18-1.87.37-2.83.56-.96.14-1.94.28-2.93.43l-1.46.21c-.49.04-.97.09-1.46.13-.95.08-1.9.17-2.82.25-1.83.1-3.53.12-4.98.15-2.91-.09-4.82-.23-4.82-.43,0-.2,1.91-.43,4.77-.68,1.5-.19,3.14-.41,4.87-.63.9-.15,1.81-.3,2.74-.46l1.41-.23,1.41-.3c.95-.2,1.89-.4,2.82-.6.93-.24,1.84-.48,2.72-.71,1.78-.42,3.42-.99,4.86-1.42,2.86-.92,4.84-1.72,5.15-1.8,17.17-6.22,32.29-17.87,42.77-32.8,5.27-7.45,9.33-15.74,12.11-24.42,1.35-4.36,2.38-8.81,3.11-13.31.65-4.52.99-9.07,1.03-13.64-.04-4.56-.38-9.12-1.03-13.64-.73-4.5-1.76-8.95-3.11-13.31-2.78-8.69-6.84-16.97-12.11-24.42-10.48-14.94-25.6-26.58-42.77-32.8-.32-.08-2.29-.88-5.15-1.8-1.44-.43-3.07-1-4.86-1.42-.88-.23-1.8-.46-2.72-.71-.93-.2-1.88-.4-2.82-.6l-1.41-.3-1.41-.23c-.93-.15-1.84-.31-2.74-.46-1.73-.22-3.38-.44-4.87-.63-2.86-.25-4.76-.48-4.77-.68,0-.19,1.91-.34,4.82-.43,1.45.03,3.15.05,4.98.15.92.08,1.87.16,2.82.25.48.04.97.09,1.46.13l1.46.21c.98.14,1.96.29,2.93.43.96.19,1.91.38,2.83.56,1.85.33,3.56.82,5.06,1.2,2.99.81,5.06,1.55,5.38,1.64Z"/><path class="cls-2" d="M58.62,18.25c8.43-3.74,17.2-7.04,26.43-8.68,1.15-.21,2.31-.4,3.47-.53l1.74-.22,1.75-.14c1.17-.11,2.34-.15,3.51-.17,1.18-.04,2.33-.04,3.47-.04h358.05c1.15,0,2.29,0,3.47.04,1.17.02,2.35.06,3.51.17l1.75.14,1.74.22c1.17.13,2.32.32,3.47.53,9.23,1.63,18,4.93,26.43,8.68.6.27,4.52,2.05,9.94,4.74,5.43,2.66,12.38,6.21,19.43,9.27,7.04,3.09,14.28,5.41,19.85,6.48,5.57,1.1,9.37,1.11,9.36,1.36,0,.1-.95.17-2.62.21-.84.03-1.85-.05-3.02-.09-1.16-.07-2.48-.21-3.91-.39-5.72-.75-13.22-2.82-20.44-5.71-7.24-2.86-14.31-6.24-19.79-8.76-5.47-2.55-9.37-4.24-9.97-4.51-8.33-3.7-16.89-6.91-25.77-8.48-1.11-.2-2.22-.39-3.33-.51l-1.67-.21-1.68-.13c-1.12-.11-2.24-.14-3.36-.16-1.11-.04-2.26-.04-3.41-.04H99.01c-1.15,0-2.3,0-3.41.04-1.12.02-2.24.05-3.36.16l-1.68.13-1.67.21c-1.12.12-2.23.31-3.33.51-8.88,1.57-17.44,4.77-25.77,8.48-.6.27-4.49,1.95-9.97,4.51-5.48,2.52-12.55,5.91-19.79,8.76-7.22,2.89-14.72,4.97-20.44,5.71-1.43.18-2.74.32-3.91.39-1.17.04-2.18.12-3.02.09-1.67-.04-2.62-.11-2.62-.21,0-.25,3.8-.26,9.36-1.36,5.57-1.07,12.82-3.39,19.85-6.48,7.05-3.06,13.99-6.61,19.43-9.27,5.42-2.69,9.34-4.47,9.94-4.74Z"/><path class="cls-2" d="M59.78,162c8.33,3.7,16.89,6.91,25.77,8.48,1.11.2,2.22.39,3.33.51l1.67.21,1.68.13c1.12.11,2.24.14,3.36.16,1.11.04,2.26.04,3.41.04h358.05c1.15,0,2.3,0,3.41-.04,1.12-.02,2.24-.05,3.36-.16l1.68-.13,1.67-.21c1.12-.12,2.23-.31,3.33-.51,8.88-1.57,17.44-4.77,25.77-8.48.6-.27,4.49-1.95,9.97-4.51,5.48-2.52,12.55-5.91,19.79-8.76,7.22-2.89,14.72-4.97,20.44-5.71,1.43-.18,2.74-.32,3.91-.39,1.17-.04,2.18-.12,3.02-.09,1.67.04,2.62.11,2.62.21,0,.25-3.8.26-9.36,1.36-5.57,1.07-12.82,3.39-19.85,6.48-7.05,3.06-13.99,6.61-19.43,9.27-5.42,2.69-9.34,4.47-9.94,4.74-8.43,3.74-17.2,7.04-26.43,8.68-1.15.21-2.31.4-3.47.53l-1.74.22-1.75.14c-1.17.11-2.34.15-3.51.17-1.18.04-2.33.04-3.47.04H99.01c-1.15,0-2.29,0-3.47-.04-1.17-.02-2.35-.06-3.51-.17l-1.75-.14-1.74-.22c-1.17-.13-2.32-.32-3.47-.53-9.23-1.63-18-4.93-26.43-8.68-.6-.27-4.52-2.05-9.94-4.74-5.43-2.66-12.38-6.21-19.43-9.27-7.04-3.09-14.28-5.41-19.85-6.48-5.57-1.1-9.37-1.11-9.36-1.36,0-.1.95-.17,2.62-.21.84-.03,1.85.05,3.02.09,1.16.07,2.48.21,3.91.39,5.72.75,13.22,2.82,20.44,5.71,7.24,2.86,14.31,6.24,19.79,8.76,5.47,2.55,9.37,4.24,9.97,4.51Z"/><path class="cls-2" d="M550.48,50.7c-2.97,6.19-4.73,12.99-5.87,19.85-1.12,6.88-1.6,13.88-1.62,20.87.02,6.99.5,13.99,1.62,20.87,1.14,6.86,2.89,13.66,5.87,19.85.06.11.38.83.83,1.88.21.53.53,1.09.84,1.7.32.6.62,1.28.99,1.9,1.4,2.54,3.19,4.8,2.89,5.12-.24.26-2.62-1.57-4.56-3.97-.5-.58-.92-1.23-1.35-1.82-.42-.6-.84-1.15-1.13-1.67-.63-1.08-1.03-1.79-1.09-1.88-3.15-6.56-4.94-13.59-6.12-20.64-1.15-7.06-1.64-14.2-1.66-21.33.02-7.13.51-14.27,1.66-21.33,1.17-7.05,2.97-14.08,6.12-20.64.06-.1.46-.8,1.09-1.88.28-.52.71-1.08,1.13-1.67.44-.59.85-1.23,1.35-1.82,1.94-2.4,4.32-4.24,4.56-3.97.3.31-1.49,2.58-2.89,5.12-.37.62-.67,1.3-.99,1.9-.31.62-.63,1.17-.84,1.7-.45,1.04-.78,1.77-.83,1.88Z"/><path class="cls-2" d="M134.7,166.98c11.82-2.21,23.72-3.79,35.64-5.1,11.92-1.3,23.87-2.3,35.83-3.1,23.92-1.57,47.89-2.35,71.86-2.36,23.97.01,47.94.79,71.86,2.36,11.96.79,23.91,1.79,35.83,3.1,11.92,1.31,23.82,2.9,35.64,5.1.83.19,11.02,2.1,20.68,5.33,4.82,1.6,9.5,3.59,12.68,5.69,1.59,1.04,2.79,2.1,3.52,2.94.36.42.62.78.75,1.04.15.26.2.41.16.44s-.18-.06-.39-.25c-.21-.2-.52-.48-.93-.82-.82-.67-2.06-1.54-3.68-2.4-3.23-1.73-7.89-3.39-12.71-4.72-9.64-2.68-19.79-4.26-20.61-4.45-11.71-2.19-23.56-3.77-35.43-5.07-11.87-1.3-23.78-2.29-35.71-3.09-23.85-1.57-47.76-2.35-71.67-2.36-23.9.01-47.82.79-71.67,2.36-11.93.79-23.84,1.79-35.71,3.09-11.87,1.31-23.71,2.88-35.43,5.07-.82.19-10.98,1.77-20.61,4.45-4.81,1.33-9.48,2.99-12.71,4.72-1.62.85-2.86,1.72-3.68,2.4-.41.34-.72.62-.93.82-.22.19-.35.28-.39.25h0s.02-.18.16-.44c.14-.27.39-.62.75-1.04.72-.84,1.92-1.91,3.52-2.94,3.18-2.1,7.86-4.09,12.68-5.69,9.66-3.22,19.84-5.14,20.68-5.33Z"/><path class="cls-2" d="M135.23,13.06c11.71,2.19,23.56,3.77,35.43,5.07,11.87,1.3,23.78,2.29,35.71,3.09,23.85,1.57,47.76,2.35,71.67,2.36,23.9-.01,47.82-.79,71.67-2.36,11.93-.79,23.84-1.79,35.71-3.09,11.87-1.31,23.72-2.88,35.43-5.07.82-.19,10.98-1.77,20.61-4.45,4.81-1.33,9.48-2.99,12.71-4.72,1.62-.85,2.86-1.72,3.68-2.4.41-.34.72-.62.93-.82.22-.19.35-.28.39-.25s-.02.18-.16.44c-.14.27-.39.62-.75,1.04-.72.84-1.92,1.91-3.52,2.94-3.18,2.1-7.86,4.09-12.68,5.69-9.66,3.22-19.84,5.14-20.68,5.33-11.82,2.21-23.72,3.79-35.64,5.1-11.92,1.3-23.87,2.3-35.83,3.1-23.92,1.57-47.89,2.35-71.86,2.36-23.97-.01-47.94-.79-71.86-2.36-11.96-.79-23.91-1.79-35.83-3.1-11.92-1.31-23.82-2.9-35.64-5.1-.83-.19-11.02-2.1-20.68-5.33-4.82-1.6-9.5-3.59-12.68-5.69-1.59-1.04-2.79-2.1-3.52-2.94-.36-.42-.62-.78-.75-1.04-.15-.26-.2-.41-.16-.44h0s.18.06.39.25c.21.2.52.48.93.82.82.67,2.06,1.54,3.68,2.4,3.23,1.73,7.89,3.39,12.71,4.72,9.64,2.68,19.79,4.26,20.61,4.45Z"/></g><g id="Button_3_Shape" class="cls-1"><path class="cls-2" d="M467.22,166.23c15.21,0,36.31,2.67,46.8,13.14,0-29.58,27.54-56.04,27.54-87.94,0-31.9-27.54-58.36-27.54-87.94-10.49,10.46-31.58,13.14-46.8,13.14H88.85c-15.21,0-36.31-2.67-46.8-13.14,0,29.58-27.54,56.04-27.54,87.94,0,31.9,27.54,58.36,27.54,87.94,10.49-10.46,31.58-13.14,46.8-13.14h378.37Z"/></g></g></svg>