<?xml version="1.0" encoding="UTF-8"?><svg id="Line" xmlns="http://www.w3.org/2000/svg" viewBox="0 0 564.05 188.82"><defs><style>.cls-1{opacity:.24;}.cls-1,.cls-2{fill:#fff;stroke-width:0px;}</style></defs><g id="Button_9"><g id="Button_9_Lines"><path class="cls-2" d="M49.9,155.08c-2.85-.99-5.55-2.37-8.01-4.06-2.47-1.67-4.79-3.55-6.88-5.63-2.11-2.06-4.09-4.25-5.91-6.53-1.85-2.27-3.57-4.63-5.21-7.03-3.3-4.79-6.29-9.76-9.26-14.7-2.97-4.93-5.88-9.9-9.18-14.5-.12-.16-1.39-2.25-2.76-4.18-.33-.5-.68-.98-1.02-1.41-.33-.44-.62-.89-.9-1.22-.54-.7-.87-1.24-.75-1.39s.69.09,1.5.58c.42.23.83.57,1.29.93.47.35.94.76,1.39,1.19,1.85,1.69,3.44,3.68,3.56,3.84,3.42,4.77,6.34,9.77,9.31,14.71,2.96,4.94,5.93,9.85,9.17,14.55,1.61,2.35,3.29,4.65,5.08,6.85,1.77,2.22,3.67,4.32,5.68,6.28,1.99,1.99,4.18,3.75,6.48,5.31,2.29,1.58,4.77,2.83,7.36,3.74.1.02.68.31,1.53.63.42.14.91.31,1.45.49.26.09.53.19.81.29.27.07.56.14.85.22.53.15,1.09.3,1.67.46.48.11.98.22,1.48.33.87.21,1.46.43,1.46.63,0,.2-.59.35-1.52.48-.46.06-1,.13-1.59.15-.58,0-1.21-.03-1.84-.06-.33-.02-.64-.03-.95-.05-.32-.05-.62-.09-.91-.14-.62-.1-1.17-.19-1.65-.27-.97-.2-1.64-.43-1.74-.46Z"/><path class="cls-2" d="M265.2,168.33H104.29c-.96,0-23.06-.64-23.06-1.43s22.1-1.43,23.06-1.43h160.91c.12,0,.56.01,1.27.03.35.01.76.02,1.22.04.41,0,.85.01,1.31.02.45.05,1.17-.19,1.1.55.11.51.22,1.04.33,1.59.05.28.1.56.19.83.16.56.3,1.15.53,1.73.41,1.18,1.02,2.35,1.79,3.4.77,1.05,1.7,1.97,2.71,2.65,1.01.68,2.08,1.11,3.03,1.35,1.92.51,3.3.18,3.35.41.07.14-1.28.89-3.53.69-1.1-.09-2.39-.42-3.66-1.07-1.26-.65-2.46-1.61-3.47-2.76-1.01-1.14-1.84-2.45-2.41-3.76-.32-.65-.54-1.31-.76-1.94-.12-.31-.2-.63-.28-.92-.02-.04-.03-.07-.05-.08,0-.02-.04,0-.06,0h-.02s.05.02-.12.02c-.46.01-.87.02-1.22.04-.71.02-1.15.03-1.27.03Z"/><path class="cls-2" d="M50.84,36.43c-2.59.9-5.07,2.16-7.36,3.74-2.3,1.56-4.48,3.32-6.48,5.31-2.01,1.97-3.91,4.06-5.68,6.28-1.79,2.2-3.47,4.5-5.08,6.85-3.24,4.7-6.2,9.61-9.17,14.55-2.97,4.94-5.89,9.93-9.31,14.71-.12.17-1.71,2.15-3.56,3.84-.45.43-.92.84-1.39,1.19-.47.36-.88.7-1.29.93-.81.48-1.37.73-1.5.58s.2-.69.75-1.39c.28-.34.57-.78.9-1.22.34-.44.68-.91,1.02-1.41,1.38-1.93,2.64-4.02,2.76-4.18,3.3-4.6,6.21-9.57,9.18-14.5,2.97-4.94,5.96-9.91,9.26-14.7,1.64-2.4,3.37-4.76,5.21-7.03,1.82-2.29,3.8-4.47,5.91-6.53,2.09-2.08,4.41-3.96,6.88-5.63,2.46-1.69,5.16-3.06,8.01-4.06.1-.02.77-.25,1.74-.46.47-.08,1.03-.17,1.65-.27.29-.04.59-.09.91-.14.31-.02.62-.03.95-.05.63-.03,1.26-.05,1.84-.06.58.02,1.13.09,1.59.15.92.13,1.52.29,1.52.48,0,.2-.59.41-1.46.63-.5.11-1,.22-1.48.33-.58.16-1.14.31-1.67.46-.29.07-.58.15-.85.22-.28.1-.55.19-.81.29-.54.19-1.03.35-1.45.49-.85.32-1.43.6-1.53.63Z"/><path class="cls-2" d="M50.89,118.82c2.09-1.24,4.03-2.75,5.73-4.5,1.67-1.78,3.18-3.72,4.37-5.86,2.39-4.26,3.58-9.15,3.61-14.05-.04-4.91-1.22-9.79-3.61-14.05-1.19-2.14-2.7-4.08-4.37-5.86-1.71-1.75-3.65-3.26-5.73-4.5-.06-.04-.5-.33-1.21-.81-.7-.39-1.57-.96-2.51-1.39-.22-.11-.45-.23-.69-.35-.22-.09-.45-.18-.69-.28-.45-.17-.86-.41-1.23-.51-.73-.26-1.24-.5-1.24-.7,0-.2.55-.32,1.4-.4.43-.06.91.02,1.45.06.26.03.54.05.82.09.28.06.56.12.83.18,1.13.21,2.2.65,3.05.95.82.35,1.38.65,1.47.69,2.33,1.38,4.46,3.05,6.34,4.98,1.84,1.96,3.5,4.1,4.81,6.45,2.64,4.7,3.95,10.1,3.98,15.45-.03,5.35-1.34,10.75-3.98,15.45-1.31,2.35-2.97,4.49-4.81,6.45-1.88,1.93-4.01,3.6-6.34,4.98-.09.04-.65.34-1.47.69-.85.3-1.91.73-3.05.95-.27.06-.54.12-.83.18-.28.04-.56.06-.82.09-.54.03-1.01.12-1.45.06-.86-.07-1.4-.2-1.4-.4,0-.2.5-.44,1.24-.7.37-.1.78-.34,1.23-.51.23-.09.46-.19.69-.28.24-.12.47-.24.69-.35.94-.42,1.82-1,2.51-1.39.71-.48,1.16-.77,1.21-.81Z"/><path class="cls-2" d="M50.62,175.7c1.91-2.73,3.37-5.88,4.64-9.08,1.27-3.22,2.32-6.54,3.26-9.89,1.87-6.72,3.28-13.59,4.45-20.5,1.16-6.91,2.05-13.87,2.7-20.85.64-6.98,1.07-13.99,1.08-20.97-.01-6.98-.44-13.99-1.08-20.97-.65-6.98-1.54-13.94-2.7-20.85-1.16-6.91-2.58-13.78-4.45-20.5-.94-3.36-2-6.68-3.26-9.89-1.27-3.2-2.73-6.35-4.64-9.08-.15-.17-.96-1.55-2.47-2.99-.76-.71-1.7-1.42-2.81-1.78-.56-.19-1.13-.3-1.76-.26-.64-.01-1.25.09-1.84.28-1.17.39-2.12,1.27-2.74,2.34-.63,1.06-.93,2.25-1.04,3.27-.11,1.03-.02,1.89.12,2.46.15.57.39.82.32.92-.02.07-.47-.08-.84-.69-.36-.6-.65-1.55-.7-2.72-.05-1.16.11-2.56.73-3.96.6-1.39,1.79-2.79,3.41-3.49.8-.34,1.65-.55,2.48-.61.83-.11,1.72-.02,2.52.19,1.62.4,2.91,1.26,3.89,2.07,1.96,1.65,2.9,3.13,3.08,3.32,2.13,3.05,3.64,6.35,4.97,9.69,1.32,3.34,2.39,6.74,3.36,10.17,1.91,6.86,3.34,13.81,4.51,20.79,1.17,6.99,2.07,14.01,2.73,21.06.65,7.05,1.08,14.12,1.09,21.23-.01,7.11-.44,14.18-1.09,21.23-.66,7.05-1.56,14.07-2.73,21.06-1.18,6.98-2.61,13.94-4.51,20.79-.96,3.43-2.04,6.83-3.36,10.17-1.33,3.33-2.84,6.64-4.97,9.69-.18.2-1.12,1.67-3.08,3.32-.98.8-2.27,1.67-3.89,2.07-.79.2-1.69.3-2.52.19-.83-.06-1.69-.27-2.48-.61-1.61-.7-2.81-2.1-3.41-3.49-.62-1.4-.78-2.8-.73-3.96.05-1.17.35-2.12.7-2.72.38-.61.82-.76.84-.69.07.1-.17.35-.32.92-.14.57-.23,1.43-.12,2.46.11,1.02.42,2.21,1.04,3.27.62,1.07,1.58,1.95,2.74,2.34.59.19,1.2.29,1.84.28.63.04,1.2-.08,1.76-.26,1.11-.36,2.06-1.07,2.81-1.78,1.51-1.44,2.32-2.82,2.47-2.99Z"/><path class="cls-2" d="M64.16,188.78c-2.49-.27-4.66-1.55-6.34-3.06-1.71-1.52-3.06-3.28-4.24-5.11-2.35-3.67-4.05-7.6-5.53-11.58-2.91-7.98-4.86-16.2-6.43-24.47-1.55-8.27-2.67-16.61-3.45-24.97-.77-8.37-1.21-16.77-1.22-25.18,0-8.42.44-16.81,1.22-25.18.78-8.37,1.9-16.7,3.45-24.97,1.57-8.26,3.52-16.49,6.43-24.47,1.48-3.98,3.18-7.91,5.53-11.58,1.18-1.83,2.53-3.59,4.24-5.11,1.68-1.51,3.85-2.79,6.34-3.06.17,0,.86-.09,1.83.01.98.09,2.33.34,3.73,1.01,2.87,1.3,5.52,4.24,7.28,7.41,1.8,3.18,2.94,6.55,3.59,9.1.65,2.56.82,4.3.63,4.34-.19.04-.72-1.6-1.68-4-.96-2.39-2.36-5.56-4.25-8.39-1.86-2.84-4.37-5.2-6.63-6.07-1.11-.47-2.13-.59-2.87-.63-.76-.05-1.19.03-1.32.04-1.71.18-3.34,1.09-4.76,2.36-1.42,1.26-2.65,2.84-3.73,4.52-2.17,3.38-3.82,7.17-5.25,11.02-2.82,7.74-4.75,15.85-6.3,24.01-1.53,8.17-2.64,16.43-3.41,24.71-.77,8.29-1.2,16.61-1.21,24.92,0,8.31.44,16.63,1.21,24.92.77,8.29,1.88,16.54,3.41,24.71,1.55,8.16,3.48,16.26,6.3,24.01,1.43,3.85,3.08,7.64,5.25,11.02,1.08,1.68,2.31,3.26,3.73,4.52,1.41,1.27,3.05,2.18,4.76,2.36.13,0,.56.08,1.32.04.74-.04,1.75-.16,2.87-.63,2.26-.86,4.77-3.22,6.63-6.07,1.9-2.83,3.3-6,4.25-8.39.96-2.4,1.49-4.04,1.68-4,.19.04.02,1.78-.63,4.34-.65,2.55-1.79,5.93-3.59,9.1-1.76,3.17-4.42,6.11-7.28,7.41-1.4.68-2.75.92-3.73,1.01-.98.1-1.67.02-1.83.01Z"/><path class="cls-2" d="M265.2,23.35H104.29c-.96,0-23.06-.64-23.06-1.43s22.1-1.43,23.06-1.43h160.91c.12,0,.56.01,1.27.03.35.01.76.02,1.22.04.17,0,.09,0,.12.01h.02s.05.04.06.02c.01,0,.03-.04.05-.08.08-.3.15-.61.28-.92.22-.63.44-1.29.76-1.93.58-1.31,1.4-2.63,2.41-3.76,1.01-1.14,2.21-2.1,3.47-2.76,1.26-.65,2.55-.98,3.66-1.07,2.25-.2,3.59.55,3.53.69-.05.23-1.43-.1-3.35.41-.95.24-2.02.68-3.03,1.35-1.01.68-1.94,1.6-2.71,2.65-.77,1.05-1.38,2.22-1.79,3.4-.24.57-.38,1.17-.53,1.73-.09.28-.13.55-.19.83-.11.55-.23,1.08-.33,1.59.07.75-.64.5-1.1.55-.46,0-.9.02-1.31.02-.46.01-.87.02-1.22.04-.71.02-1.15.03-1.27.03Z"/><path class="cls-2" d="M513.21,152.38c2.59-.9,5.07-2.16,7.36-3.74,2.3-1.56,4.48-3.32,6.48-5.31,2.01-1.97,3.91-4.06,5.68-6.28,1.79-2.2,3.47-4.5,5.08-6.85,3.24-4.7,6.2-9.61,9.17-14.55,2.97-4.94,5.89-9.93,9.31-14.71.12-.17,1.71-2.15,3.56-3.84.45-.43.92-.84,1.39-1.19.47-.36.88-.7,1.29-.93.81-.48,1.37-.73,1.5-.58s-.2.69-.75,1.39c-.28.34-.57.78-.9,1.22-.34.44-.68.91-1.02,1.41-1.38,1.93-2.64,4.02-2.76,4.18-3.3,4.6-6.21,9.57-9.18,14.5-2.97,4.94-5.96,9.91-9.26,14.7-1.64,2.4-3.37,4.76-5.21,7.03-1.82,2.29-3.8,4.47-5.91,6.53-2.09,2.08-4.41,3.96-6.88,5.63-2.46,1.69-5.16,3.06-8.01,4.06-.1.02-.77.25-1.74.46-.47.08-1.03.17-1.65.27-.29.04-.59.09-.91.14-.31.02-.62.03-.95.05-.63.03-1.26.05-1.84.06-.58-.02-1.13-.09-1.59-.15-.92-.13-1.52-.29-1.52-.48,0-.2.59-.41,1.46-.63.5-.11,1-.22,1.48-.33.58-.16,1.14-.31,1.67-.46.29-.07.58-.15.85-.22.28-.1.55-.19.81-.29.54-.19,1.03-.35,1.45-.49.85-.32,1.43-.6,1.53-.63Z"/><path class="cls-2" d="M298.85,165.47h160.91c.96,0,23.06.64,23.06,1.43s-22.1,1.43-23.06,1.43h-160.91c-.12,0-.56-.01-1.27-.03-.35-.01-.76-.02-1.22-.04-.17,0-.09,0-.12-.01h-.02s-.05-.04-.06-.02c-.01,0-.03.04-.05.08-.08.3-.15.61-.28.92-.22.63-.44,1.29-.76,1.94-.58,1.31-1.4,2.63-2.41,3.76-1.01,1.14-2.21,2.1-3.47,2.76-1.26.65-2.55.98-3.66,1.07-2.25.2-3.59-.55-3.53-.69.05-.23,1.43.1,3.35-.41.95-.24,2.02-.67,3.03-1.35,1.01-.68,1.94-1.6,2.71-2.65.77-1.05,1.38-2.22,1.79-3.4.24-.57.38-1.17.53-1.73.09-.28.13-.55.19-.83.11-.55.23-1.08.33-1.59-.07-.75.64-.5,1.1-.55.46,0,.9-.02,1.31-.02.46-.01.87-.02,1.22-.04.71-.02,1.15-.03,1.27-.03Z"/><path class="cls-2" d="M514.15,33.74c2.85.99,5.55,2.37,8.01,4.06,2.47,1.67,4.79,3.55,6.88,5.63,2.11,2.06,4.09,4.25,5.91,6.53,1.85,2.27,3.57,4.63,5.21,7.03,3.3,4.79,6.29,9.76,9.26,14.7,2.97,4.93,5.88,9.9,9.18,14.5.12.16,1.39,2.25,2.76,4.18.33.5.68.98,1.02,1.41.33.44.62.89.9,1.22.54.7.87,1.24.75,1.39s-.69-.09-1.5-.58c-.42-.23-.83-.57-1.29-.93-.47-.35-.94-.76-1.39-1.19-1.85-1.69-3.44-3.68-3.56-3.84-3.42-4.77-6.34-9.77-9.31-14.71-2.96-4.94-5.93-9.85-9.17-14.55-1.61-2.35-3.29-4.65-5.08-6.85-1.77-2.22-3.67-4.32-5.68-6.28-1.99-1.99-4.18-3.75-6.48-5.31-2.29-1.58-4.77-2.83-7.36-3.74-.1-.02-.68-.31-1.53-.63-.42-.14-.91-.31-1.45-.49-.26-.09-.53-.19-.81-.29-.27-.07-.56-.14-.85-.22-.53-.15-1.09-.3-1.67-.46-.48-.11-.98-.22-1.48-.33-.87-.21-1.46-.43-1.46-.63,0-.2.59-.35,1.52-.48.46-.06,1-.13,1.59-.15.58,0,1.21.03,1.84.06.33.02.64.03.95.05.32.05.62.09.91.14.62.1,1.17.19,1.65.27.97.2,1.64.43,1.74.46Z"/><path class="cls-2" d="M511.72,121.29c-2.33-1.38-4.46-3.05-6.34-4.98-1.84-1.96-3.5-4.1-4.81-6.45-2.64-4.7-3.95-10.1-3.98-15.45.03-5.35,1.34-10.75,3.98-15.45,1.31-2.35,2.97-4.49,4.81-6.45,1.88-1.93,4.01-3.6,6.34-4.98.09-.04.65-.34,1.47-.69.85-.3,1.91-.73,3.05-.95.27-.06.54-.12.83-.18.28-.04.56-.06.82-.09.54-.03,1.01-.12,1.45-.06.86.07,1.4.2,1.4.4,0,.2-.5.44-1.24.7-.37.1-.78.34-1.23.51-.23.09-.46.19-.69.28-.24.12-.47.24-.69.35-.94.42-1.82,1-2.51,1.39-.71.48-1.16.77-1.21.81-2.09,1.24-4.03,2.75-5.73,4.5-1.67,1.78-3.18,3.72-4.37,5.86-2.39,4.26-3.58,9.15-3.61,14.05.04,4.91,1.22,9.79,3.61,14.05,1.19,2.14,2.7,4.08,4.37,5.86,1.71,1.75,3.65,3.26,5.73,4.5.06.04.5.33,1.21.81.7.39,1.57.96,2.51,1.39.22.11.45.23.69.35.22.09.45.18.69.28.45.17.86.41,1.23.51.73.26,1.24.5,1.24.7,0,.2-.55.32-1.4.4-.43.06-.91-.02-1.45-.06-.26-.03-.54-.05-.82-.09-.28-.06-.56-.12-.83-.18-1.13-.21-2.2-.65-3.05-.95-.82-.35-1.38-.65-1.47-.69Z"/><path class="cls-2" d="M511.1,177.35c-2.13-3.05-3.64-6.35-4.97-9.69-1.32-3.34-2.39-6.74-3.36-10.17-1.91-6.86-3.34-13.81-4.51-20.79-1.17-6.99-2.07-14.01-2.73-21.06-.65-7.05-1.08-14.12-1.09-21.23.01-7.11.44-14.18,1.09-21.23.66-7.05,1.56-14.07,2.73-21.06,1.18-6.98,2.61-13.94,4.51-20.79.96-3.43,2.04-6.83,3.36-10.17,1.33-3.33,2.84-6.64,4.97-9.69.18-.2,1.12-1.67,3.08-3.32.98-.8,2.27-1.67,3.89-2.07.79-.2,1.69-.3,2.52-.19.83.06,1.69.27,2.48.61,1.61.7,2.81,2.1,3.41,3.49.62,1.4.78,2.8.73,3.96-.05,1.17-.35,2.12-.7,2.72-.38.61-.82.76-.84.69-.07-.1.17-.35.32-.92.14-.57.23-1.43.12-2.46-.11-1.02-.42-2.21-1.04-3.27-.62-1.07-1.58-1.95-2.74-2.34-.59-.19-1.2-.29-1.84-.28-.63-.04-1.2.08-1.76.26-1.11.36-2.06,1.07-2.81,1.78-1.51,1.44-2.32,2.82-2.47,2.99-1.91,2.73-3.37,5.88-4.64,9.08-1.27,3.22-2.32,6.54-3.26,9.89-1.87,6.72-3.28,13.59-4.45,20.5-1.16,6.91-2.05,13.87-2.7,20.85-.64,6.98-1.07,13.99-1.08,20.97.01,6.98.44,13.99,1.08,20.97.65,6.98,1.54,13.94,2.7,20.85,1.16,6.91,2.58,13.78,4.45,20.5.94,3.36,2,6.68,3.26,9.89,1.27,3.2,2.73,6.35,4.64,9.08.15.17.96,1.55,2.47,2.99.76.71,1.7,1.42,2.81,1.78.56.19,1.13.3,1.76.26.64.01,1.25-.09,1.84-.28,1.17-.39,2.12-1.27,2.74-2.34.63-1.06.93-2.25,1.04-3.27.11-1.03.02-1.89-.12-2.46-.15-.57-.39-.82-.32-.92.02-.07.47.08.84.69.36.6.65,1.55.7,2.72.05,1.16-.11,2.56-.73,3.96-.6,1.39-1.79,2.79-3.41,3.49-.8.34-1.65.55-2.48.61-.83.11-1.72.02-2.52-.19-1.62-.4-2.91-1.26-3.89-2.07-1.96-1.65-2.9-3.13-3.08-3.32Z"/><path class="cls-2" d="M499.58,185.94c1.71-.18,3.34-1.09,4.76-2.36,1.42-1.26,2.65-2.84,3.73-4.52,2.17-3.38,3.82-7.17,5.25-11.02,2.82-7.74,4.75-15.85,6.3-24.01,1.53-8.17,2.64-16.43,3.41-24.71.77-8.29,1.2-16.61,1.21-24.92,0-8.31-.44-16.63-1.21-24.92-.77-8.29-1.88-16.54-3.41-24.71-1.55-8.16-3.48-16.26-6.3-24.01-1.43-3.85-3.08-7.64-5.25-11.02-1.08-1.68-2.31-3.26-3.73-4.52-1.41-1.27-3.05-2.18-4.76-2.36-.13,0-.56-.08-1.32-.04-.74.04-1.75.16-2.87.63-2.26.86-4.77,3.22-6.63,6.07-1.9,2.83-3.3,6-4.25,8.39-.96,2.4-1.49,4.04-1.68,4-.19-.04-.02-1.78.63-4.34.65-2.55,1.79-5.93,3.59-9.1,1.76-3.17,4.42-6.11,7.28-7.41,1.4-.68,2.75-.92,3.73-1.01.98-.1,1.67-.02,1.83-.01,2.49.27,4.66,1.55,6.34,3.06,1.71,1.52,3.06,3.28,4.24,5.11,2.35,3.67,4.05,7.6,5.53,11.58,2.91,7.98,4.86,16.2,6.43,24.47,1.55,8.27,2.67,16.61,3.45,24.97.77,8.37,1.21,16.77,1.22,25.18,0,8.42-.44,16.81-1.22,25.18-.78,8.37-1.9,16.7-3.45,24.97-1.57,8.26-3.52,16.49-6.43,24.47-1.48,3.98-3.18,7.91-5.53,11.58-1.18,1.83-2.53,3.59-4.24,5.11-1.68,1.51-3.85,2.79-6.34,3.06-.17,0-.86.09-1.83-.01-.98-.09-2.33-.34-3.73-1.01-2.87-1.3-5.52-4.24-7.28-7.41-1.8-3.18-2.94-6.55-3.59-9.1-.65-2.56-.82-4.3-.63-4.34.19-.04.72,1.6,1.68,4,.96,2.39,2.36,5.56,4.25,8.39,1.86,2.84,4.37,5.2,6.63,6.07,1.11.47,2.13.59,2.87.63.76.05,1.19-.03,1.32-.04Z"/><path class="cls-2" d="M298.85,20.49h160.91c.96,0,23.06.64,23.06,1.43s-22.1,1.43-23.06,1.43h-160.91c-.12,0-.56-.01-1.27-.03-.35-.01-.76-.02-1.22-.04-.41,0-.85-.01-1.31-.02-.45-.05-1.17.19-1.1-.55-.11-.51-.22-1.04-.33-1.59-.05-.28-.1-.56-.19-.83-.16-.56-.3-1.15-.53-1.73-.41-1.18-1.02-2.35-1.79-3.4-.77-1.05-1.7-1.97-2.71-2.65-1.01-.68-2.08-1.11-3.03-1.35-1.92-.51-3.3-.18-3.35-.41-.07-.14,1.28-.89,3.53-.69,1.1.09,2.39.42,3.66,1.07,1.26.65,2.46,1.61,3.47,2.76,1.01,1.14,1.84,2.45,2.41,3.76.32.65.54,1.31.76,1.93.12.31.2.63.28.92.02.04.03.07.05.08,0,.02.04,0,.06,0h.02s-.05-.02.12-.02c.46-.01.87-.02,1.22-.04.71-.02,1.15-.03,1.27-.03Z"/></g><path id="Button_9_Shape" class="cls-1" d="M481.05,25.38h-188.63c0,5.72-4.65,10.36-10.39,10.36s-10.39-4.64-10.39-10.36H83c0,16.05-13.06,29.06-29.16,29.06v79.64c16.1,0,29.16,13.01,29.16,29.06h188.63c0-5.72,4.65-10.36,10.39-10.36s10.39,4.64,10.39,10.36h188.63c0-16.05,13.06-29.06,29.16-29.06V54.44c-16.11,0-29.16-13.01-29.16-29.06Z"/></g></svg>