<?xml version="1.0" encoding="UTF-8"?><svg id="Line" xmlns="http://www.w3.org/2000/svg" viewBox="0 0 562 176"><defs><style>.cls-1{opacity:.24;}.cls-1,.cls-2{fill:#fff;stroke-width:0px;}</style></defs><g id="Button_8"><g id="Button_8_Lines"><path class="cls-2" d="M344.07,14.59h183.05v127.28h-65.47s-2.86.07-2.86.07l-2.85.17c-3.79.3-7.55.9-11.18,1.92-3.63,1.02-7.1,2.52-10.28,4.48-1.61.96-3.09,2.1-4.54,3.28-1.4,1.24-2.77,2.52-4,3.94l-.52.59-.49.56-.24.27c-.09.08-.23.02-.35.04h-80.54c-.73,0-5.5-.05-12.26-.11-3.37-.04-7.24-.08-11.35-.13-2.05-.03-4.16-.05-6.3-.08-2.14,0-4.34-.15-6.34.06-4.1.41-8.02,2.14-11.31,4.27-3.31,2.13-6.07,4.61-8.29,6.86-2.22,2.26-3.91,4.29-5.07,5.73-1.16,1.44-1.79,2.29-1.87,2.24-.08-.05.39-1.01,1.41-2.57,1.02-1.56,2.59-3.73,4.72-6.15,2.14-2.41,4.85-5.08,8.22-7.43,3.34-2.34,7.44-4.35,11.96-4.95.56-.08,1.12-.14,1.69-.16.58-.04,1.13-.05,1.66-.05,1.08-.02,2.16-.03,3.22-.04,2.14-.03,4.25-.06,6.3-.08,4.11-.05,7.98-.09,11.35-.13,6.77-.06,11.53-.11,12.26-.11h79.57,0s.44-.49.44-.49c1.31-1.52,2.78-2.9,4.29-4.23,1.56-1.27,3.16-2.5,4.89-3.53,3.43-2.11,7.16-3.71,11-4.79,3.85-1.08,7.79-1.71,11.74-2.02l2.96-.18,2.96-.06h5.83s11.64,0,11.64,0h45.15V17.44h-180.2c-1.47,0-19.11-.16-36.38-.42-2.16-.03-4.31-.07-6.43-.1-.53-.01-1.06-.02-1.58-.03-.55-.05-1.1-.09-1.65-.14-.55-.03-1.07-.21-1.6-.3l-.78-.18-.75-.26c-1.01-.31-1.92-.8-2.83-1.24-.85-.53-1.7-1.02-2.43-1.62-1.52-1.13-2.77-2.41-3.81-3.66-2.1-2.5-3.4-4.89-4.1-6.63-.72-1.75-.8-2.85-.72-2.86.11-.02.37,1,1.24,2.62.85,1.62,2.27,3.85,4.41,6.14,1.07,1.14,2.32,2.3,3.79,3.3.71.54,1.52.95,2.32,1.41.85.37,1.7.79,2.62,1.03l.68.21.71.13c.48.07.95.22,1.44.22.49.02.98.05,1.47.07.52,0,1.05-.01,1.57-.02,2.12-.03,4.27-.07,6.43-.1,17.28-.26,34.92-.42,36.38-.42Z"/><path class="cls-2" d="M307.79,7.23c31.15.56,62.28,1.93,93.35,4.49,15.53,1.3,31.04,2.9,46.49,5.06,7.72,1.09,15.43,2.32,23.1,3.79,7.67,1.48,15.31,3.19,22.84,5.44.52.19,7.01,2.17,12.94,5.26,2.97,1.52,5.73,3.43,7.5,5.21,1.8,1.77,2.4,3.4,2.25,3.46-.2.12-1.08-1.22-2.98-2.63-1.88-1.42-4.65-2.98-7.63-4.22-5.93-2.53-12.39-4.17-12.9-4.35-7.39-2.2-14.95-3.9-22.56-5.37-7.61-1.46-15.28-2.68-22.96-3.77-15.38-2.15-30.84-3.74-46.33-5.04-30.98-2.56-62.07-3.93-93.16-4.48-.52-.02-7.01-.3-13.78-.6-6.55-.32-12.96-.67-12.96-1.07,0-.39,6.42-.75,12.97-.95,6.56-.21,13.26-.25,13.81-.24Z"/><path class="cls-2" d="M521.79,35.29c3.56-2.05,7.05-4.21,10.4-6.54,3.33-2.34,6.58-4.84,9.32-7.71l.95-1.11.48-.56c.15-.19.27-.39.4-.58l.8-1.17.62-1.27c.76-1.7,1.23-3.53,1.08-5.3-.16-1.75-.9-3.41-2.15-4.58-1.25-1.16-2.95-1.8-4.7-1.81-.06,0-.47,0-1.06-.05-.3-.04-.64.05-1.01.06-.37.03-.78.03-1.16.15-.39.09-.79.17-1.17.24-.38.09-.71.23-1.02.3-.62.17-1.09.23-1.2.07-.11-.16.15-.54.64-1.02.25-.24.54-.53.89-.78.37-.23.77-.47,1.19-.71.41-.26.87-.4,1.31-.56.44-.14.85-.33,1.23-.37.77-.12,1.32-.19,1.41-.19,2.38.02,4.82.91,6.61,2.59,1.8,1.67,2.84,4.05,3.04,6.41.33,4.82-2.16,9.07-5.1,12.2-2.98,3.13-6.34,5.69-9.77,8.1-3.44,2.4-7,4.59-10.61,6.68-.24.19-6.59,2.92-6.96,2.17-.33-.66,5.3-4.47,5.54-4.65Z"/><path class="cls-2" d="M308.48,165.38c31.95-.95,63.88-3.29,95.53-7.67,15.81-2.22,31.57-4.94,47.08-8.63,7.75-1.86,15.45-3.95,22.99-6.46,7.53-2.51,14.96-5.4,21.91-9.12.48-.28,6.64-3.23,11.77-7.4,2.56-2.07,4.79-4.46,6.19-6.45,1.42-1.99,2.09-3.5,2.3-3.42.16.05-.17,1.72-1.35,4-1.17,2.28-3.29,5.02-5.81,7.39-5.03,4.78-11.26,8.12-11.75,8.4-7.17,3.84-14.72,6.77-22.36,9.32-7.65,2.55-15.41,4.65-23.23,6.53-15.64,3.72-31.47,6.45-47.35,8.68-31.78,4.39-63.8,6.74-95.84,7.69-.57.02-7.47.06-14.22-.11-6.75-.16-13.35-.52-13.35-.91,0-.4,6.59-.75,13.32-1.11,6.95-.36,13.62-.7,14.16-.72Z"/><path class="cls-2" d="M523.21,118.4c3.62,2.08,7.17,4.28,10.61,6.68,3.43,2.41,6.79,4.97,9.77,8.1,2.94,3.13,5.42,7.38,5.1,12.2-.2,2.36-1.24,4.74-3.04,6.41-1.79,1.68-4.23,2.57-6.61,2.59-.08,0-.64-.07-1.41-.19-.39-.04-.79-.23-1.23-.37-.44-.16-.9-.29-1.31-.56-.42-.24-.82-.48-1.19-.71-.36-.25-.64-.55-.89-.78-.49-.49-.75-.86-.64-1.02.11-.16.58-.1,1.2.07.31.08.65.21,1.02.3.38.07.78.16,1.17.25.38.12.79.12,1.16.15.37.01.71.1,1.01.06.6-.05,1-.06,1.06-.05,1.75-.02,3.45-.65,4.7-1.81,1.25-1.16,1.99-2.82,2.15-4.58.15-1.77-.32-3.6-1.08-5.3l-.62-1.27-.8-1.17c-.14-.19-.26-.4-.4-.58l-.48-.56-.95-1.11c-2.73-2.87-5.98-5.37-9.32-7.71-3.35-2.33-6.84-4.49-10.4-6.54-.23-.18-5.86-3.99-5.54-4.65.37-.75,6.71,1.99,6.96,2.17Z"/><path class="cls-2" d="M217.93,17.44H37.74v121.57h62.62s2.96.07,2.96.07l2.96.18c3.94.31,7.89.94,11.74,2.02,3.84,1.09,7.57,2.68,11,4.79,1.73,1.03,3.33,2.26,4.89,3.53,1.51,1.33,2.98,2.71,4.29,4.23l.44.5h0s.97,0,.97,0h78.6c.73,0,5.5.05,12.26.11,3.37.04,7.24.08,11.35.13,2.05.03,4.16.05,6.3.08,1.07.01,2.14.03,3.22.04.53,0,1.08.02,1.66.05.57.02,1.13.08,1.69.16,4.51.6,8.61,2.6,11.96,4.95,3.36,2.35,6.08,5.02,8.22,7.43,2.14,2.42,3.7,4.59,4.72,6.15,1.02,1.56,1.49,2.52,1.41,2.57-.08.05-.72-.79-1.87-2.24-1.16-1.44-2.85-3.47-5.07-5.73-2.22-2.25-4.98-4.73-8.29-6.86-3.29-2.13-7.2-3.85-11.31-4.27-2-.2-4.2-.06-6.34-.06-2.14.03-4.25.06-6.3.08-4.11.05-7.98.09-11.35.13-6.77.06-11.53.11-12.26.11h-80.54c-.11-.02-.26.04-.35-.04l-.24-.27-.49-.56-.52-.59c-1.23-1.42-2.6-2.7-4-3.94-1.45-1.18-2.94-2.32-4.54-3.28-3.18-1.96-6.66-3.45-10.28-4.48-3.63-1.02-7.39-1.62-11.18-1.92l-2.85-.17-2.86-.06h-5.81s-11.64,0-11.64,0h-48.01V14.59h183.05c1.47,0,19.11.16,36.38.42,2.16.03,4.31.07,6.43.1.53,0,1.05.01,1.57.02.49-.02.98-.05,1.47-.07.49,0,.96-.15,1.44-.22l.71-.13.68-.21c.93-.24,1.77-.66,2.62-1.03.8-.46,1.61-.88,2.32-1.41,1.47-1,2.72-2.16,3.79-3.3,2.14-2.29,3.56-4.52,4.41-6.14.87-1.62,1.13-2.64,1.24-2.62.08,0,0,1.11-.72,2.86-.7,1.75-2,4.14-4.1,6.63-1.05,1.25-2.3,2.52-3.81,3.66-.73.6-1.58,1.09-2.43,1.62-.9.44-1.81.93-2.83,1.24l-.75.26-.78.18c-.53.1-1.05.28-1.6.3-.55.05-1.1.09-1.65.14-.53.01-1.05.02-1.58.03-2.12.03-4.27.07-6.43.1-17.28.26-34.92.42-36.38.42Z"/><path class="cls-2" d="M254.26,10.08c-31.09.56-62.18,1.93-93.16,4.48-15.49,1.3-30.95,2.89-46.33,5.04-7.69,1.08-15.35,2.3-22.96,3.77-7.61,1.46-15.17,3.16-22.56,5.37-.51.18-6.97,1.82-12.9,4.35-2.98,1.24-5.75,2.8-7.63,4.22-1.9,1.41-2.78,2.74-2.98,2.63-.15-.06.45-1.68,2.25-3.46,1.76-1.78,4.53-3.69,7.5-5.21,5.93-3.1,12.42-5.08,12.94-5.26,7.53-2.25,15.17-3.96,22.84-5.44,7.67-1.48,15.38-2.7,23.1-3.79,15.45-2.16,30.96-3.75,46.49-5.06,31.06-2.56,62.2-3.94,93.35-4.49.56-.01,7.26.03,13.81.24,6.56.2,12.97.56,12.97.95,0,.4-6.41.75-12.96,1.07-6.77.29-13.26.58-13.78.6Z"/><path class="cls-2" d="M38.79,37.76c-3.62-2.08-7.17-4.28-10.61-6.68-3.43-2.41-6.79-4.97-9.77-8.1-2.94-3.13-5.42-7.38-5.1-12.2.2-2.36,1.24-4.74,3.04-6.41,1.79-1.68,4.23-2.57,6.61-2.59.08,0,.64.07,1.41.19.39.04.79.23,1.23.37.44.16.9.29,1.31.56.42.24.82.48,1.19.71.36.25.64.55.89.78.49.49.75.86.64,1.02-.11.16-.58.1-1.2-.07-.31-.08-.65-.21-1.02-.3-.38-.07-.78-.16-1.17-.24-.38-.12-.79-.12-1.16-.15-.37-.01-.71-.1-1.01-.06-.6.05-1,.06-1.06.05-1.75.02-3.45.65-4.7,1.81-1.25,1.16-1.99,2.82-2.15,4.58-.15,1.77.32,3.6,1.08,5.3l.62,1.27.8,1.17c.14.19.26.4.4.58l.48.56.95,1.11c2.73,2.87,5.98,5.37,9.32,7.71,3.35,2.33,6.84,4.49,10.4,6.54.23.18,5.86,3.99,5.54,4.65-.37.75-6.71-1.99-6.96-2.17Z"/><path class="cls-2" d="M253.43,168.24c-32.04-.95-64.06-3.3-95.84-7.69-15.88-2.23-31.71-4.96-47.35-8.68-7.81-1.88-15.58-3.98-23.23-6.53-7.64-2.55-15.19-5.48-22.36-9.32-.48-.28-6.71-3.62-11.75-8.4-2.51-2.37-4.63-5.11-5.81-7.39-1.19-2.27-1.51-3.95-1.35-4,.21-.08.89,1.43,2.3,3.42,1.4,1.99,3.63,4.38,6.19,6.45,5.12,4.17,11.29,7.12,11.77,7.4,6.95,3.72,14.38,6.61,21.91,9.12,7.54,2.51,15.24,4.6,22.99,6.46,15.51,3.69,31.27,6.41,47.08,8.63,31.65,4.37,63.58,6.72,95.53,7.67.54.03,7.22.37,14.16.72,6.73.36,13.32.71,13.32,1.11,0,.39-6.6.75-13.35.91-6.75.17-13.65.13-14.22.11Z"/><path class="cls-2" d="M40.21,120.88c-3.56,2.05-7.05,4.21-10.4,6.54-3.33,2.34-6.58,4.84-9.32,7.71l-.95,1.11-.48.56c-.15.19-.27.39-.4.58l-.8,1.17-.62,1.27c-.76,1.7-1.23,3.53-1.08,5.3.16,1.75.9,3.41,2.15,4.58,1.25,1.16,2.95,1.8,4.7,1.81.06,0,.47,0,1.06.05.3.04.64-.05,1.01-.06.37-.03.78-.03,1.16-.15.39-.09.79-.17,1.17-.25.38-.09.71-.23,1.02-.3.62-.17,1.09-.23,1.2-.07.11.16-.15.53-.64,1.02-.25.24-.54.53-.89.78-.37.23-.77.47-1.19.71-.41.26-.87.4-1.31.56-.44.14-.85.33-1.23.37-.77.12-1.32.19-1.41.19-2.38-.02-4.82-.91-6.61-2.59-1.8-1.67-2.84-4.05-3.04-6.41-.33-4.82,2.16-9.07,5.1-12.2,2.98-3.13,6.34-5.69,9.77-8.1,3.44-2.4,7-4.59,10.61-6.68.24-.19,6.59-2.92,6.96-2.17.33.66-5.3,4.47-5.54,4.65Z"/></g><path id="Button_8_Shape" class="cls-1" d="M502.21,26.27H59.79S20.13,80.94,0,80.94c20.13,0,59.79,54.66,59.79,54.66h442.43s39.65-54.66,59.79-54.66c-20.13,0-59.79-54.66-59.79-54.66Z"/></g></svg>