<?xml version="1.0" encoding="UTF-8"?><svg id="Line" xmlns="http://www.w3.org/2000/svg" viewBox="0 0 582 175"><defs><style>.cls-1{opacity:.24;}.cls-1,.cls-2{fill:#fff;stroke-width:0px;}</style></defs><g id="Callout_9"><g id="Callout_9_Lines"><path class="cls-2" d="M328.09,51.49c-6.13,7.69-11.1,16.41-13.52,25.87-.63,2.35-1.02,4.76-1.28,7.17l-.16,1.81c-.03.6-.04,1.21-.06,1.82-.05,1.19-.02,2.48-.03,3.72v10.35c-5.71.01-1.58-.01-2.86-.02v-2.14c1.27,0-2.85-.03,2.86-.02v8.12c-.11.27-.38.48-.58.74l-1.27,1.47c-.82.91-1.55,1.89-2.3,2.86-.77.95-1.45,1.98-2.14,2.98-2.74,4.06-5.03,8.42-6.87,12.97-1.84,4.55-3.29,9.28-4.36,14.1-1.05,4.82-1.8,9.72-2.3,14.65-.04.17-.15,1.32-.36,2.94-.1.8-.22,1.72-.35,2.73-.1.97-.2,2.01-.31,3.08-.2,1.89-.42,3.87-.61,5.71-.19,1.55-.4,2.58-.59,2.58s-.37-1.03-.52-2.6c-.15-1.56-.29-3.66-.29-5.78-.01-1.09-.02-2.15-.03-3.14.03-1.03.06-1.98.08-2.79.06-1.66.1-2.84.14-3.02.51-5.03,1.28-10.04,2.36-14.99,1.09-4.95,2.59-9.83,4.5-14.55,1.91-4.72,4.29-9.27,7.15-13.5.72-1.05,1.43-2.12,2.23-3.11.78-1.01,1.55-2.04,2.4-2.98l1.18-1.37h-.01s0-.9,0-.9v-6.21c5.71-.02,1.58.01,2.86.02v2.14c-1.27,0,2.85.03-2.86.02v-10.35c.01-1.26-.03-2.47.03-3.78.02-.64.03-1.29.07-1.93l.17-1.93c.28-2.56.69-5.11,1.35-7.59,2.56-9.98,7.75-19.02,14.06-26.95.22-.29,3.08-3.6,6.24-6.48,3.12-2.91,6.53-5.34,6.79-5.02.23.29-2.65,3.21-5.34,6.41-2.72,3.17-5.25,6.58-5.46,6.86Z"/><path class="cls-2" d="M256.14,49.71c6.31,7.92,11.5,16.97,14.06,26.95.66,2.48,1.08,5.03,1.35,7.59l.17,1.93c.04.64.04,1.29.07,1.93.06,1.31.02,2.52.03,3.78v10.35c-5.71.01-1.58-.01-2.86-.02v-2.14c1.27,0-2.85-.03,2.86-.02v7.13h-.01s1.18,1.35,1.18,1.35c.86.95,1.62,1.97,2.4,2.98.8.99,1.51,2.06,2.23,3.11,2.86,4.23,5.24,8.78,7.15,13.5,1.91,4.72,3.41,9.6,4.5,14.55,1.08,4.95,1.84,9.96,2.36,14.99.04.18.07,1.36.14,3.02.02.82.05,1.76.08,2.79-.01.99-.02,2.05-.03,3.14,0,2.12-.14,4.22-.29,5.78-.15,1.56-.32,2.6-.52,2.6s-.4-1.03-.59-2.58c-.2-1.83-.41-3.82-.61-5.71-.11-1.07-.22-2.11-.31-3.08-.13-1.01-.24-1.93-.35-2.73-.2-1.62-.32-2.77-.36-2.94-.5-4.93-1.25-9.82-2.3-14.65-1.06-4.82-2.51-9.54-4.36-14.1-1.85-4.55-4.13-8.92-6.87-12.97-.69-1.01-1.37-2.03-2.14-2.98-.75-.97-1.48-1.95-2.3-2.86l-1.27-1.47c-.2-.26-.46-.47-.58-.74v-8.12c5.71-.02,1.58.01,2.86.02v2.14c-1.27,0,2.85.03-2.86.02v-10.35c-.01-1.24.03-2.53-.03-3.72-.02-.61-.03-1.21-.06-1.82l-.16-1.81c-.26-2.41-.65-4.82-1.28-7.17-2.42-9.46-7.4-18.19-13.52-25.87-.21-.28-2.74-3.69-5.46-6.86-2.69-3.2-5.57-6.13-5.34-6.41.26-.33,3.67,2.1,6.79,5.02,3.15,2.88,6.02,6.19,6.24,6.48Z"/><path class="cls-2" d="M567.52,25.76c-8.21-.9-16.56-1.08-24.9-1.14-8.34-.03-16.69.13-25.04.37-16.7.51-33.39,1.41-50.07,2.47-33.36,2.19-66.69,5.02-99.92,8.65-.57.05-7.54.66-14.77,1.29-7.02.59-13.88,1.2-13.94.81-.06-.39,6.73-1.71,13.7-2.81,6.97-1.12,14.11-2.06,14.7-2.13,33.29-3.64,66.64-6.46,100.05-8.66,16.71-1.06,33.42-1.96,50.17-2.47,8.37-.25,16.75-.41,25.14-.37,8.39.06,16.78.23,25.21,1.16.15.02.71.09,1.59.21.87.12,2.06.37,3.44.63.69.11,1.43.34,2.21.54.78.22,1.6.41,2.41.73.82.29,1.66.65,2.52,1.12.22.14.42.25.66.41.27.22.53.41.76.7.49.55.72,1.33.47,2-.03.18-.15.32-.24.48-.08.16-.19.3-.34.42-.13.12-.26.27-.39.37l-.37.25c-.48.3-.89.47-1.33.65-.86.33-1.71.57-2.52.77-1.63.39-3.15.63-4.46.8-2.61.33-4.35.36-4.37.17-.03-.2,1.66-.6,4.16-1.26,1.25-.33,2.71-.73,4.22-1.25.75-.26,1.52-.55,2.25-.9.35-.17.72-.38.97-.56l.17-.13s.05-.06.08-.08c.04-.05.08-.11.09-.17.03-.13-.05-.25-.14-.32-.05-.04-.16-.1-.23-.15l-.47-.25c-.69-.32-1.46-.6-2.23-.82-.76-.25-1.54-.38-2.27-.54-.73-.15-1.41-.33-2.09-.39-1.34-.17-2.47-.36-3.32-.44-.86-.08-1.41-.13-1.55-.14Z"/><path class="cls-2" d="M14.16,22.92c8.43-.92,16.82-1.1,25.21-1.16,8.39-.03,16.77.13,25.14.37,16.74.51,33.46,1.41,50.17,2.47,33.41,2.19,66.76,5.02,100.05,8.66.59.07,7.73,1.01,14.7,2.13,6.97,1.1,13.75,2.43,13.7,2.81-.06.39-6.93-.22-13.94-.81-7.23-.63-14.2-1.24-14.77-1.29-33.23-3.63-66.56-6.46-99.92-8.65-16.68-1.06-33.37-1.96-50.07-2.47-8.35-.25-16.7-.41-25.04-.37-8.33.06-16.69.24-24.9,1.14-.14.01-.69.06-1.55.14-.85.08-1.98.27-3.32.44-.68.07-1.36.24-2.09.39-.73.16-1.5.29-2.27.54-.77.22-1.54.5-2.23.82l-.47.25c-.07.05-.18.11-.23.15-.1.07-.18.19-.14.32.01.06.05.12.09.17.03.03.03.05.08.08l.17.13c.25.18.62.39.97.56.72.35,1.49.64,2.25.9,1.51.52,2.97.91,4.22,1.25,2.51.66,4.19,1.06,4.16,1.26-.03.19-1.77.16-4.37-.17-1.3-.17-2.82-.41-4.46-.8-.82-.2-1.66-.43-2.52-.77-.44-.18-.85-.35-1.33-.65l-.37-.25c-.12-.1-.26-.24-.39-.37-.14-.12-.25-.26-.34-.42-.09-.15-.21-.3-.24-.48-.25-.68-.02-1.45.47-2,.23-.29.49-.48.76-.7.23-.16.44-.28.66-.41.86-.48,1.7-.83,2.52-1.12.81-.32,1.64-.51,2.41-.73.78-.21,1.52-.44,2.21-.54,1.38-.25,2.56-.5,3.44-.63.88-.11,1.44-.19,1.59-.21Z"/><path class="cls-2" d="M177.71,33.5c4.22,2.05,8.76,3.58,13.34,4.93,4.59,1.34,9.25,2.46,13.95,3.45,9.39,1.98,18.9,3.49,28.45,4.72,9.55,1.23,19.13,2.18,28.73,2.87,9.6.69,19.22,1.13,28.83,1.15,9.6-.02,19.23-.46,28.83-1.15,9.6-.69,19.19-1.65,28.73-2.87,9.54-1.24,19.05-2.74,28.45-4.72,4.69-1,9.36-2.11,13.95-3.45,4.58-1.34,9.12-2.88,13.34-4.93.29-.15,2.33-1.02,4.82-2.7,1.23-.84,2.55-1.95,3.47-3.34.43-.7.74-1.46.83-2.27.09-.82-.02-1.71-.32-2.48-.61-1.57-2.13-2.76-3.75-3.45-1.62-.71-3.31-1.02-4.76-1.13-1.45-.12-2.66,0-3.48.17-.82.17-1.19.46-1.27.4-.08-.05.23-.56,1.09-.94.84-.38,2.12-.68,3.68-.73,1.55-.05,3.4.11,5.31.76.95.33,1.92.79,2.81,1.46.88.67,1.69,1.57,2.2,2.65.51,1.09.72,2.27.67,3.45-.05,1.21-.45,2.35-.99,3.32-1.13,1.91-2.62,3.24-3.95,4.25-2.7,2-4.81,2.97-5.12,3.14-4.47,2.17-9.12,3.73-13.79,5.1-4.68,1.36-9.41,2.5-14.16,3.5-9.5,2-19.07,3.52-28.67,4.76-9.6,1.24-19.24,2.19-28.89,2.89-9.66.69-19.33,1.14-29.03,1.16-9.7-.02-19.38-.47-29.03-1.16-9.65-.7-19.29-1.65-28.89-2.89-9.6-1.25-19.18-2.76-28.67-4.76-4.75-1.01-9.48-2.14-14.16-3.5-4.68-1.37-9.32-2.94-13.79-5.1-.31-.17-2.42-1.13-5.12-3.14-1.33-1.01-2.83-2.34-3.95-4.25-.54-.97-.94-2.11-.99-3.32-.05-1.19.16-2.36.67-3.45.51-1.09,1.32-1.98,2.2-2.65.89-.68,1.86-1.13,2.81-1.46,1.91-.65,3.76-.81,5.31-.76,1.56.05,2.84.36,3.68.73.86.38,1.17.89,1.09.94-.08.07-.45-.23-1.27-.4-.81-.17-2.03-.29-3.48-.17-1.44.11-3.13.43-4.76,1.13-1.62.69-3.13,1.87-3.75,3.45-.3.77-.41,1.67-.32,2.48.08.8.39,1.57.83,2.27.92,1.39,2.24,2.49,3.47,3.34,2.49,1.68,4.53,2.54,4.82,2.7Z"/></g><path id="Callout_9_Shape" class="cls-1" d="M559.63,17.57C531.99,6.54,341.72-.39,290.93.02,240.14-.39,49.88,6.54,22.23,17.57c-31.4,12.53,36.32,23.31,61.33,25.87,25.01,2.55,178.42,10.73,207.37,26.56,28.95-15.83,182.36-24.01,207.37-26.56,25.01-2.55,92.73-13.33,61.33-25.87Z"/></g></svg>