<?xml version="1.0" encoding="UTF-8"?><svg id="Line" xmlns="http://www.w3.org/2000/svg" viewBox="0 0 465.08 97.42"><defs><style>.cls-1{opacity:.24;}.cls-2{fill:#fff;stroke-width:0px;}</style></defs><g id="Callout_1"><g id="Callout_1_Lines"><path class="cls-2" d="M24.56,80.75h16.06l.7.89.17.21.09.11.19.21c.24.29.52.56.79.83.54.55,1.11,1.08,1.7,1.58.59.5,1.19,1,1.83,1.46.61.48,1.27.91,1.92,1.34,2.62,1.71,5.47,3.08,8.42,4.18,5.94,2.1,12.29,3.09,18.64,3,12.62-.14,24.97-5.86,33.88-14.77,2.21-2.24,4.21-4.7,5.77-7.37.78-1.33,1.42-2.73,1.86-4.14.11-.35.18-.71.28-1.06l.09-.52.04-.26c.05-.28.03-.44.06-.65l.08-1.21.02-.3c.03-.08-.04-.26.1-.22l.61-.02,2.14-.06c6.3-.22,12.52-1.83,18.52-4.05,12.03-4.46,23.3-11.14,35.61-15.81.48-.16,6.35-2.32,12.4-3.31,3.01-.51,6.03-.79,8.28-.74,2.25,0,3.73.23,3.73.4,0,.22-1.47.37-3.65.7-2.19.29-5.07.86-7.94,1.6-5.75,1.45-11.34,3.85-11.81,4-12.02,4.55-23.27,11.22-35.64,15.82-6.17,2.28-12.69,3.99-19.41,4.22h-.29s0,0,0,0h0s0-.04,0-.04l-.05.34-.11.68c-.11.43-.21.88-.34,1.3-.52,1.69-1.26,3.27-2.12,4.74-1.72,2.95-3.87,5.56-6.21,7.94-4.73,4.74-10.32,8.55-16.42,11.27-6.1,2.71-12.75,4.27-19.46,4.34-6.65.09-13.33-.94-19.65-3.17-3.14-1.17-6.18-2.63-9-4.47-.71-.46-1.41-.92-2.07-1.44-.69-.49-1.34-1.03-1.98-1.58-.64-.55-1.27-1.13-1.87-1.74-.3-.31-.6-.61-.89-.94l-.35-.39-.06-.07h-14.68C23.54,83.61,0,82.96,0,82.18s23.54-1.43,24.56-1.43Z"/><path class="cls-2" d="M453.02,41.94l-222.57-.03c-1.33,0-31.9-.64-31.9-1.43s30.58-1.43,31.9-1.43l222.64.03c.34.05,2.52,0,5.73.61.4.1.82.21,1.26.32.44.17.88.28,1.34.52.91.38,1.87,1.09,2.56,2.04.16.25.35.49.46.76.11.27.22.55.33.82.13.55.28,1.13.28,1.68.05.56.01,1.1-.04,1.63-.02.51-.15,1.14-.35,1.68-.39,1.13-1.18,2.06-2.04,2.72-.87.67-1.84,1.08-2.78,1.36-1.89.54-3.71.54-5.21.25-1.48-.29-2.79-.96-3.17-1.96-.19-.48-.07-.88.01-1.1.12-.22.2-.32.24-.3.13.02-.12.56.26,1.15.36.58,1.46,1.02,2.81,1.11,1.35.1,2.99-.07,4.55-.67,1.56-.57,3.02-1.7,3.42-3.2.04-.19.1-.37.11-.57.03-.18.04-.39.04-.62.02-.44.02-.88-.05-1.28-.09-.82-.33-1.54-.78-2.04-.83-1.04-2.38-1.49-3.75-1.71-2.82-.4-5-.3-5.31-.33Z"/><path class="cls-2" d="M8.88,78.86l31.84-6.67.94,1.92.49.89c.35.58.7,1.17,1.07,1.75.74,1.15,1.56,2.25,2.39,3.34,1.7,2.16,3.64,4.1,5.68,5.91,4.18,3.5,9.08,6.14,14.36,7.47.16.14,2.34.64,4.51,1.28,2.19.4,4.41.87,4.42,1.27,0,.39-2.27.64-4.65.74-2.35-.14-4.8-.37-4.98-.51-5.72-1.43-11.03-4.3-15.51-8.06-2.2-1.94-4.26-4.02-6.07-6.31-.89-1.16-1.76-2.33-2.55-3.56-.4-.61-.77-1.24-1.15-1.88l-.54-.97-29.67,6.22c-.38.08-9.3,1.29-9.47.52-.16-.77,8.5-3.24,8.88-3.32Z"/></g><g id="Callout_1_Shape" class="cls-1"><path class="cls-2" d="M198.55,0c-.14,0-.28,0-.42,0-21.53.18-38.78,17.89-38.78,39.38v22.31c12.5-5.97,25.28-11.71,39.2-11.71h198.09c-2.86-20.76.44-38.65,17.82-49.99h-215.91Z"/></g></g></svg>