<?xml version="1.0" encoding="UTF-8"?><svg id="Line" xmlns="http://www.w3.org/2000/svg" viewBox="0 0 509.93 143"><defs><style>.cls-1{opacity:.24;}.cls-1,.cls-2{fill:#fff;stroke-width:0px;}</style></defs><g id="Callout_3"><g id="Callout_3_Lines"><path class="cls-2" d="M481.35,34.21c-8.85-2.2-17.85-4.16-26.67-6.98-1.1-.36-2.2-.73-3.29-1.11l-.83-.3h.01s-.31.38-.31.38c-.93,1.05-1.99,1.76-3.04,2.39-1.06.64-2.15,1.15-3.24,1.62-4.38,1.84-8.87,3.02-13.37,4.09-9.01,2.07-18.1,3.49-27.2,4.74-9.1,1.24-18.22,2.26-27.35,3.16-18.26,1.8-36.55,3.16-54.84,4.33-18.3,1.16-36.6,2.11-54.91,2.94-36.62,1.64-73.26,2.78-109.9,3.64-18.32.43-36.64.78-54.97,1.06l-27.49.36-26.07.2-.02,11.7c-.02,4.38-.11,8.78-.37,13.19-.04.35-.1,1.67-.33,3.71-.26,2.03-.56,4.81-1.46,8.01-.86,3.18-2.37,6.8-4.84,10.03-2.44,3.25-5.66,6.01-9,8.48-3.37,2.38-6.74,4.61-9.82,6.82-3.08,2.19-5.87,4.33-8.1,6.32-2.24,1.98-3.88,3.85-4.75,5.33-.45.73-.65,1.37-.8,1.8-.1.44-.16.69-.21.69-.04,0-.09-.25-.07-.74.05-.48.19-1.2.57-2.02.75-1.65,2.33-3.72,4.49-5.87,4.31-4.35,10.97-9.1,17.48-13.95,3.15-2.47,6.15-5.22,8.3-8.26,2.18-3.02,3.46-6.31,4.2-9.3.77-2.98,1.01-5.66,1.22-7.62.19-1.97.23-3.26.27-3.6.26-4.31.35-8.66.36-13.03l.02-14.53,15.16-.08,13.74-.13,27.48-.36c18.32-.28,36.63-.63,54.95-1.06,36.63-.86,73.25-2,109.84-3.64,18.3-.82,36.59-1.77,54.86-2.93,18.27-1.17,36.53-2.52,54.74-4.32,9.1-.9,18.19-1.92,27.25-3.15,9.05-1.25,18.08-2.66,26.93-4.69,4.41-1.05,8.81-2.22,12.89-3.93,1.01-.43,2-.9,2.9-1.45.9-.54,1.76-1.14,2.35-1.82l.22-.28c.21-.24.31-.53.47-.75l.45-.72.11-.18c.03-.09.12.02.18.02l.4.15,2.4.88c1.06.38,2.14.74,3.21,1.09,8.64,2.77,17.57,4.71,26.49,6.93.38.1,1.97.5,4.41,1.2,1.22.35,2.65.78,4.25,1.36.8.3,1.64.62,2.53,1.06.44.21.89.46,1.36.77l.35.24c.1.07.29.24.26.22.02.02.03.04.05.06.02,0,.06-.02.1-.03.25-.11.51-.22.76-.33.57-.22,1.12-.52,1.67-.83,1.13-.56,2.21-1.3,3.29-2.06,2.12-1.57,4.07-3.59,5.36-5.99,1.3-2.39,1.87-5.17,1.44-7.81-.4-2.64-1.8-5.04-3.56-6.88-1.76-1.87-3.73-3.36-5.73-4.17-2-.84-4-.83-5.54-.43-1.56.4-2.66,1.22-3.24,1.88-.3.33-.46.63-.56.84-.06.21-.12.34-.15.34-.03,0-.05-.12-.05-.39.04-.25.16-.64.43-1.04.53-.82,1.64-1.83,3.33-2.41,1.66-.59,3.94-.73,6.19.09,2.26.78,4.46,2.29,6.42,4.21,1.99,1.91,3.7,4.55,4.28,7.61.61,3.05.03,6.35-1.37,9.12-1.4,2.8-3.52,5.1-5.8,6.89-1.16.87-2.32,1.7-3.54,2.35-.6.34-1.18.69-1.8.94-.87.4-1.73.79-2.57,1.17-.3-.35-.61-.72-.93-1.06-.21-.17-.2-.17-.29-.23l-.24-.15c-.32-.2-.68-.4-1.06-.57-.74-.35-1.54-.63-2.28-.89-1.51-.51-2.91-.9-4.1-1.22-2.39-.64-3.98-1.01-4.35-1.1Z"/></g><g id="Callout_3_Shape"><path id="_Path_" class="cls-1" d="M16.34,130.79c0,4.52-8.17,12.21-8.17,12.21,0,0-8.17-7.69-8.17-12.21s8.17-12.21,8.17-12.21c0,0,8.17,7.69,8.17,12.21Z"/><path class="cls-1" d="M273.51,57.8c-84.11,0-227.06-28.9-227.06-28.9,0,0,142.95-28.9,227.06-28.9s227.06,28.9,227.06,28.9c0,0-142.95,28.9-227.06,28.9Z"/></g></g></svg>