<?xml version="1.0" encoding="UTF-8"?><svg id="Line" xmlns="http://www.w3.org/2000/svg" viewBox="0 0 591.15 167.1"><defs><style>.cls-1{opacity:.24;}.cls-2{fill:#fff;stroke-width:0px;}</style></defs><g id="Callout_10"><g id="Callout_10_Lines"><path class="cls-2" d="M267.41,104.24c4.51,4.11,8.58,8.65,12.28,13.44,3.73,4.78,7.07,9.84,10.12,15.08,3.02,5.25,5.72,10.69,7.95,16.35,2.16,5.68,4,11.55,4.49,17.79h-2.85c.49-6.24,2.33-12.11,4.49-17.79,2.22-5.66,4.92-11.11,7.95-16.35,3.05-5.23,6.4-10.29,10.12-15.08,3.71-4.79,7.77-9.33,12.28-13.44.32-.29,4.32-3.73,8.79-6.31,2.25-1.26,4.56-2.35,6.38-2.92,1.81-.6,3.06-.77,3.11-.61.07.21-1.05.74-2.67,1.63-1.63.86-3.7,2.18-5.73,3.6-4.02,2.91-7.65,6.45-7.97,6.73-4.36,3.96-8.32,8.39-11.94,13.07-3.64,4.67-6.92,9.64-9.91,14.76-2.96,5.14-5.6,10.46-7.76,15.96-2.09,5.5-3.86,11.2-4.3,16.95h-2.85c-.44-5.75-2.21-11.46-4.3-16.95-2.16-5.5-4.8-10.83-7.76-15.96-2.99-5.12-6.26-10.08-9.91-14.76-3.62-4.69-7.59-9.11-11.94-13.07-.31-.28-3.94-3.83-7.97-6.73-2.03-1.42-4.1-2.74-5.73-3.6-1.62-.88-2.74-1.42-2.67-1.63.05-.17,1.3.01,3.11.61,1.82.57,4.13,1.67,6.38,2.92,4.47,2.58,8.47,6.03,8.79,6.31Z"/><path class="cls-2" d="M113.33,41.17c15.76,2.9,31.35,6.56,46.82,10.56,15.48,3.96,30.91,8.08,46.4,11.85,15.5,3.71,31.1,6.98,46.83,9.43,15.75,2.29,31.62,3.55,47.51,3.73,15.89-.18,31.76-1.44,47.51-3.73,15.73-2.45,31.33-5.71,46.83-9.43,15.49-3.77,30.92-7.89,46.4-11.85,15.47-4,31.06-7.67,46.82-10.56.56-.09,4.23-.7,9.45-1.56,2.61-.32,5.62-.68,8.81-1.07,3.19-.38,6.55-.83,9.92-.99,3.35-.22,6.69-.44,9.84-.64,1.56-.13,3.08-.1,4.51-.11,1.42,0,2.77,0,4.03,0,4.99.02,8.28.11,8.28.3,0,.2-3.29.48-8.24.81-1.25.08-2.59.16-4,.25-1.42.09-2.92.13-4.47.34-3.12.34-6.43.7-9.75,1.06-3.34.29-6.66.86-9.81,1.33-3.16.48-6.12.93-8.71,1.32-5.16.98-8.8,1.67-9.35,1.77-15.66,2.88-31.18,6.52-46.63,10.52-15.46,3.95-30.9,8.08-46.44,11.86-15.56,3.73-31.24,7.01-47.08,9.48-15.87,2.31-31.88,3.59-47.94,3.77-16.05-.18-32.07-1.46-47.94-3.77-15.84-2.47-31.52-5.75-47.08-9.48-15.54-3.78-30.98-7.91-46.44-11.86-15.45-4-30.97-7.64-46.63-10.52-.55-.1-4.18-.79-9.35-1.77-2.58-.39-5.55-.84-8.71-1.32-3.15-.48-6.48-1.05-9.81-1.33-3.31-.36-6.62-.72-9.75-1.06-1.55-.21-3.05-.25-4.47-.34-1.41-.09-2.75-.17-4-.25-4.95-.32-8.24-.61-8.24-.81,0-.2,3.29-.28,8.28-.3,1.26,0,2.61,0,4.03,0,1.43.01,2.95-.03,4.51.11,3.15.21,6.5.42,9.84.64,3.38.16,6.74.62,9.92.99,3.19.39,6.19.75,8.81,1.07,5.22.86,8.89,1.47,9.45,1.56Z"/><path class="cls-2" d="M114.18,44.17c7.9,2.19,15.69,4.73,23.4,7.45,7.72,2.71,15.37,5.59,22.98,8.55,15.22,5.91,30.32,12.09,45.6,17.71,7.65,2.79,15.32,5.48,23.08,7.91,7.76,2.4,15.59,4.59,23.49,6.43,7.91,1.79,15.9,3.24,23.93,4.29,8.05.95,16.14,1.48,24.23,1.54,8.1-.06,16.19-.58,24.23-1.54,8.04-1.05,16.02-2.5,23.93-4.29,7.91-1.84,15.73-4.03,23.49-6.43,7.76-2.42,15.44-5.11,23.08-7.91,15.28-5.62,30.38-11.8,45.6-17.71,7.61-2.97,15.26-5.85,22.98-8.55,7.72-2.72,15.5-5.26,23.4-7.45,1.11-.34,14.75-4.09,28.46-5.86,6.83-1.01,13.67-1.38,18.76-1.52,5.1-.02,8.47.14,8.47.32,0,.21-3.36.43-8.41.79-5.04.49-11.78,1.16-18.51,2.41-13.49,2.26-26.9,6.28-28,6.61-7.82,2.17-15.55,4.69-23.23,7.39-7.68,2.69-15.3,5.56-22.89,8.52-15.19,5.9-30.3,12.08-45.65,17.73-7.68,2.8-15.4,5.51-23.22,7.95-7.82,2.42-15.72,4.63-23.7,6.48-8,1.81-16.08,3.28-24.22,4.34-8.16.97-16.36,1.5-24.59,1.56-8.22-.06-16.43-.59-24.59-1.56-8.14-1.06-16.22-2.53-24.22-4.34-7.99-1.86-15.88-4.07-23.7-6.48-7.82-2.44-15.54-5.15-23.22-7.95-15.34-5.65-30.46-11.83-45.65-17.73-7.59-2.96-15.21-5.83-22.89-8.52-7.67-2.7-15.4-5.23-23.23-7.39-1.1-.34-14.51-4.35-28-6.61-6.73-1.25-13.46-1.92-18.51-2.41-5.05-.36-8.41-.58-8.41-.79,0-.18,3.36-.34,8.47-.32,5.09.15,11.92.52,18.76,1.52,13.72,1.77,27.36,5.52,28.46,5.86Z"/><path class="cls-2" d="M30.18,48.23c11.03.29,22.12-.37,33.17-1.25,11.06-.92,22.1-2.12,33.14-3.44,22.07-2.66,44.09-5.77,66.13-8.78,22.04-3.02,44.1-5.99,66.24-8.43,22.14-2.39,44.36-4.4,66.71-4.48,22.35.08,44.58,2.1,66.71,4.48,22.14,2.43,44.2,5.41,66.24,8.43,22.04,3.02,44.07,6.12,66.13,8.78,11.03,1.33,22.08,2.53,33.14,3.44,11.05.88,22.14,1.55,33.17,1.25.78-.06,5.95,0,13.07-1.01.88-.16,1.79-.32,2.73-.49.92-.23,1.89-.4,2.84-.7,1.92-.51,3.86-1.28,5.59-2.36,1.72-1.08,3.13-2.63,3.59-4.56.13-.48.12-.99.2-1.49-.03-.52-.01-1.06-.1-1.58-.14-1.05-.47-2.06-.94-3-.98-1.88-2.6-3.44-4.42-4.62-1.84-1.18-3.87-2.04-5.89-2.69-4.06-1.29-8.07-1.77-11.48-1.9-3.42-.13-6.27.17-8.2.6-.96.23-1.69.48-2.17.7-.47.22-.71.38-.75.34-.03-.03.16-.27.61-.59.45-.32,1.19-.68,2.16-1.01,1.95-.63,4.86-1.12,8.36-1.16,3.5-.04,7.63.28,11.93,1.48,2.14.61,4.33,1.45,6.39,2.68,2.04,1.24,3.99,2.95,5.24,5.21.61,1.13,1.05,2.36,1.25,3.63.12.63.12,1.27.17,1.91-.07.65-.05,1.32-.21,1.96-.2.63-.3,1.31-.65,1.88l-.46.88c-.16.29-.38.52-.58.78-.2.25-.39.52-.61.75l-.69.64c-.24.2-.45.44-.7.61l-.75.51c-2.01,1.32-4.14,2.2-6.18,2.8-1.02.34-2.03.54-3,.81-.98.2-1.93.39-2.85.57-7.38,1.19-12.61,1.2-13.41,1.26-11.22.3-22.38-.38-33.49-1.26-11.11-.92-22.19-2.12-33.24-3.45-22.11-2.66-44.14-5.78-66.18-8.79-22.04-3.02-44.08-5.99-66.17-8.42-22.08-2.38-44.24-4.39-66.4-4.47-22.16.08-44.32,2.08-66.4,4.47-22.09,2.43-44.13,5.4-66.17,8.42-22.04,3.02-44.07,6.13-66.18,8.79-11.05,1.33-22.13,2.53-33.24,3.45-11.11.89-22.27,1.56-33.49,1.26-.8-.06-6.03-.07-13.41-1.26-.92-.18-1.87-.37-2.85-.57-.97-.27-1.99-.46-3-.81-2.04-.6-4.17-1.48-6.18-2.8l-.75-.51c-.25-.18-.47-.41-.7-.61l-.69-.64c-.21-.23-.41-.5-.61-.75-.19-.26-.41-.5-.58-.78l-.46-.88c-.35-.57-.45-1.24-.65-1.88-.16-.64-.14-1.31-.21-1.96.05-.64.05-1.28.17-1.91.2-1.27.64-2.5,1.25-3.63,1.25-2.25,3.2-3.97,5.24-5.21,2.07-1.23,4.25-2.07,6.39-2.68,4.3-1.2,8.43-1.52,11.93-1.48,3.51.04,6.41.53,8.36,1.16.97.33,1.71.68,2.16,1.01.45.32.63.56.61.59-.04.05-.28-.11-.75-.34-.48-.22-1.21-.47-2.17-.7-1.93-.43-4.78-.73-8.2-.6-3.41.13-7.42.61-11.48,1.9-2.02.65-4.05,1.51-5.89,2.69-1.83,1.18-3.45,2.74-4.42,4.62-.47.95-.8,1.96-.94,3-.09.52-.07,1.06-.1,1.58.08.5.07,1.02.2,1.49.47,1.93,1.87,3.48,3.59,4.56,1.73,1.08,3.66,1.85,5.59,2.36.94.3,1.92.47,2.84.7.94.17,1.85.33,2.73.49,7.12,1.01,12.29.95,13.07,1.01Z"/></g><g id="Callout_10_Shape" class="cls-1"><path class="cls-2" d="M97.9,34.4C166.18,34.4,227.26,0,300.9,0c73.64,0,134.72,34.4,202.99,34.4-68.28,0-129.35,34.4-202.99,34.4-73.64,0-134.72-34.4-202.99-34.4Z"/></g></g></svg>