<?xml version="1.0" encoding="UTF-8"?><svg id="Line" xmlns="http://www.w3.org/2000/svg" viewBox="0 0 580.1 173.88"><defs><style>.cls-1{opacity:.24;}.cls-2{fill:#fff;stroke-width:0px;}</style></defs><g id="Callout_8"><g id="Callout_8_Lines"><path class="cls-2" d="M567.68,43.44h-242.83c-1.45,0-34.8-.64-34.8-1.43s33.36-1.43,34.8-1.43h242.83c.18,0,.85.01,1.91.03.52,0,1.13.02,1.83.03.58,0,1.23-.05,1.89-.23,1.31-.36,2.69-1.28,3.56-2.78.44-.74.76-1.61.94-2.53.08-.47.14-.94.16-1.42.03-.46,0-.83-.11-1.28-.45-1.75-1.74-3.42-3.17-4.49-1.44-1.09-3.15-1.5-4.37-.89-1.24.58-1.91,1.76-2.32,2.52-.42.79-.61,1.29-.72,1.25-.08-.02-.08-.56.19-1.47.28-.87.76-2.3,2.33-3.29.77-.49,1.81-.68,2.84-.56,1.03.12,2.03.54,2.95,1.1,1.81,1.17,3.43,2.91,4.22,5.26.19.57.29,1.27.29,1.87,0,.58-.04,1.16-.1,1.74-.16,1.16-.51,2.3-1.05,3.32-1.06,2.09-3,3.56-4.87,4.15-.94.3-1.84.41-2.64.44-.7.01-1.32.03-1.85.04-1.06.02-1.73.03-1.91.03Z"/><path class="cls-2" d="M12.42,40.59h242.83c1.45,0,34.8.64,34.8,1.43s-33.36,1.43-34.8,1.43H12.42c-.18,0-.85-.01-1.91-.03-.53-.01-1.15-.02-1.85-.04-.8-.03-1.7-.14-2.64-.44-1.87-.59-3.81-2.07-4.87-4.15-.54-1.03-.88-2.17-1.05-3.32-.07-.58-.11-1.16-.1-1.74,0-.6.09-1.3.29-1.87.79-2.35,2.41-4.09,4.22-5.26.92-.57,1.92-.98,2.95-1.1,1.02-.12,2.07.07,2.84.56,1.57.99,2.05,2.42,2.33,3.29.27.91.26,1.45.19,1.47-.11.03-.3-.47-.72-1.25-.41-.76-1.08-1.94-2.32-2.52-1.22-.61-2.93-.2-4.37.89-1.43,1.07-2.72,2.74-3.17,4.49-.12.45-.14.82-.11,1.28.02.49.09.96.16,1.42.18.92.5,1.79.94,2.53.88,1.51,2.25,2.42,3.56,2.78.66.18,1.31.23,1.89.23.69-.01,1.31-.02,1.83-.03,1.06-.02,1.73-.03,1.91-.03Z"/><path class="cls-2" d="M55.18,44.31c9.62,1.77,19.34,3.12,29.08,4.32,9.74,1.19,19.51,2.19,29.28,3.09,19.56,1.79,39.16,3.16,58.77,4.3,19.61,1.12,39.25,2,58.88,2.64,19.64.63,39.28,1.04,58.92,1.05,19.64-.01,39.29-.42,58.92-1.05,19.64-.64,39.27-1.51,58.88-2.64,19.61-1.13,39.22-2.51,58.77-4.3,9.78-.9,19.54-1.9,29.28-3.09,9.74-1.19,19.46-2.54,29.08-4.32.68-.14,5.19-.87,11.45-2.3,3.12-.74,6.69-1.63,10.3-2.95,1.79-.67,3.62-1.44,5.2-2.48.77-.52,1.49-1.13,1.86-1.78.19-.32.29-.63.29-.95-.03-.18-.02-.36-.06-.54-.07-.17-.08-.35-.18-.52-.33-.68-.99-1.31-1.76-1.82-.79-.5-1.66-.91-2.56-1.27-1.82-.69-3.72-1.15-5.58-1.51-3.72-.7-7.28-.98-10.31-1.09-3.04-.11-5.56,0-7.31.16-1.76.15-2.69.5-2.74.41-.06-.08.87-.64,2.65-.98,1.77-.36,4.32-.64,7.41-.7,3.08-.06,6.7.05,10.57.62,1.93.29,3.93.7,5.93,1.38,1,.36,2,.78,2.97,1.35.95.59,1.92,1.37,2.54,2.54.17.28.25.62.36.93.09.32.1.67.14,1,.02.72-.2,1.43-.51,2-.65,1.16-1.56,1.91-2.46,2.56-1.82,1.27-3.73,2.12-5.6,2.88-3.75,1.48-7.37,2.47-10.53,3.29-6.33,1.6-10.86,2.41-11.55,2.55-9.71,1.79-19.48,3.14-29.25,4.34-9.78,1.19-19.57,2.2-29.37,3.1-19.6,1.79-39.23,3.17-58.87,4.3-19.64,1.13-39.29,2-58.96,2.64-19.66.63-39.33,1.04-59.01,1.05-19.68-.01-39.35-.42-59.01-1.05-19.66-.64-39.32-1.51-58.96-2.64-19.64-1.13-39.27-2.51-58.87-4.3-9.8-.9-19.59-1.91-29.37-3.1-9.78-1.2-19.54-2.55-29.25-4.34-.69-.14-5.22-.96-11.55-2.55-3.16-.82-6.78-1.81-10.53-3.29-1.87-.75-3.78-1.6-5.6-2.88-.89-.65-1.81-1.4-2.46-2.56-.32-.57-.54-1.28-.51-2,.04-.33.06-.68.14-1,.11-.31.19-.65.36-.93.62-1.17,1.59-1.94,2.54-2.54.97-.57,1.97-1,2.97-1.35,2-.68,4-1.08,5.93-1.38,3.87-.57,7.49-.68,10.57-.62,3.08.06,5.64.34,7.41.7,1.78.34,2.71.89,2.65.98-.05.08-.98-.26-2.74-.41-1.75-.17-4.28-.27-7.31-.16-3.03.11-6.59.39-10.31,1.09-1.86.36-3.76.82-5.58,1.51-.9.36-1.78.77-2.56,1.27-.77.51-1.43,1.14-1.76,1.82-.1.17-.11.35-.18.52-.04.18-.03.36-.06.54,0,.32.1.63.29.95.38.65,1.09,1.26,1.86,1.78,1.57,1.04,3.4,1.81,5.2,2.48,3.61,1.32,7.19,2.21,10.3,2.95,6.26,1.43,10.76,2.16,11.45,2.3Z"/><path class="cls-2" d="M253.87,45.07c8,3.5,15.39,8.21,22.07,13.78,3.33,2.81,6.48,5.84,9.27,9.25,1.39,1.7,2.7,3.5,3.82,5.45.26.5.56.97.79,1.5l.22.47.22-.47c.23-.53.53-1,.79-1.5,1.12-1.95,2.43-3.75,3.82-5.45,2.79-3.41,5.95-6.44,9.27-9.25,6.68-5.57,14.08-10.29,22.07-13.78.27-.14,3.8-1.48,7.38-2.32.89-.21,1.79-.38,2.63-.54.85-.13,1.63-.23,2.3-.31,1.36-.09,2.26-.08,2.29.11.03.19-.8.55-2.06.97-.62.24-1.35.5-2.14.77-.82.31-1.64.62-2.44.93-3.31,1.3-6.57,2.88-6.84,3.01-7.71,3.37-14.91,7.96-21.38,13.35-3.22,2.71-6.26,5.65-8.9,8.87-1.32,1.61-2.54,3.29-3.55,5.06-.23.45-.51.88-.71,1.34l-.16.34-.13.27c-.06.12-.12.25-.17.38l-.15.39-.13.47-.25.94-.5,1.92-.48,2.5-.83,4.36-.83-4.36-.48-2.5-.5-1.92-.25-.94-.13-.47-.15-.39c-.05-.13-.11-.25-.17-.38l-.13-.27-.16-.34c-.2-.46-.47-.89-.71-1.34-1.01-1.77-2.23-3.45-3.55-5.06-2.64-3.22-5.68-6.16-8.9-8.87-6.46-5.4-13.67-9.98-21.38-13.35-.27-.14-3.52-1.71-6.84-3.01-.79-.3-1.61-.61-2.44-.93-.78-.27-1.51-.53-2.14-.77-1.26-.42-2.09-.78-2.06-.97.03-.19.93-.21,2.29-.11.67.07,1.46.18,2.3.31.83.16,1.74.33,2.63.54,3.58.84,7.1,2.18,7.38,2.32Z"/><path class="cls-2" d="M279.77,156.7c2.46,1.09,4.72,2.5,6.76,4.22,1.02.87,2,1.78,2.87,2.86.23.25.43.56.64.84l.02.02.02-.02c.21-.28.41-.58.64-.84.87-1.08,1.85-2,2.87-2.86,2.04-1.72,4.3-3.14,6.76-4.22.08-.04,1.22-.36,2.37-.44.57-.05,1.15-.04,1.58.05.44.08.72.21.76.4.03.19-.19.43-.52.68-.34.24-.78.51-1.22.79-1.08.67-1.8,1.11-1.83,1.13-2.17.96-4.24,2.25-6.06,3.79-.91.77-1.78,1.59-2.5,2.48-.2.22-.34.45-.51.67-.37.37-.61,1.27-.88,2.02l-.2.58-.1.3-.1.41-.41,1.63-.67,2.68-.67-2.68-.41-1.63-.1-.41-.1-.3-.2-.58c-.27-.76-.51-1.65-.88-2.02-.17-.22-.31-.46-.51-.67-.72-.89-1.59-1.71-2.5-2.48-1.83-1.54-3.89-2.83-6.06-3.79-.03-.02-.75-.46-1.83-1.13-.44-.28-.89-.56-1.22-.79-.33-.25-.55-.49-.52-.68.03-.19.32-.32.76-.4.44-.09,1.01-.1,1.58-.05,1.15.08,2.29.39,2.37.44Z"/><path class="cls-2" d="M288.62,156.91v-67.06c0-.4.64-9.61,1.43-9.61s1.43,9.21,1.43,9.61v67.06c0,.4-.64,9.61-1.43,9.61s-1.43-9.21-1.43-9.61Z"/></g><g id="Callout_8_Shape" class="cls-1"><path class="cls-2" d="M558.86,9.68c0,28.16-177.18,44-268.74,44C198.56,53.68,21.38,37.84,21.38,9.68c0-12.91,537.48-12.91,537.48,0Z"/></g></g></svg>