<?xml version="1.0" encoding="UTF-8"?><svg id="Line" xmlns="http://www.w3.org/2000/svg" viewBox="0 0 279 248.65"><defs><style>.cls-1{opacity:.24;}.cls-1,.cls-2{fill:#fff;stroke-width:0px;}</style></defs><g id="CircleFrame_7"><g id="CircleFrame_7_Lines"><path class="cls-2" d="M218.27,218.34c19.07-15.98,33.12-37.87,39.5-61.93,6.44-24.03,5.29-50.04-3.28-73.39-8.54-23.38-24.5-43.93-44.91-58.14-5.12-3.53-10.44-6.78-16.04-9.48-5.59-2.71-11.37-5.06-17.3-6.93-5.95-1.82-12.02-3.22-18.16-4.2-6.16-.89-12.37-1.34-18.59-1.4-6.22.06-12.43.51-18.59,1.4-6.14.98-12.21,2.38-18.16,4.2-5.93,1.87-11.7,4.22-17.3,6.93-5.6,2.7-10.93,5.95-16.04,9.48-20.41,14.22-36.37,34.77-44.91,58.14-8.57,23.35-9.72,49.37-3.28,73.39,6.38,24.05,20.43,45.95,39.5,61.93.17.14.56.51,1.18,1,.62.49,1.46,1.16,2.47,1.96.51.4,1.06.84,1.65,1.31.6.46,1.26.92,1.95,1.42,1.39.99,2.9,2.15,4.64,3.24,6.82,4.53,16.17,9.67,26.09,13.19,9.88,3.61,20.12,5.8,27.86,6.73,3.88.41,7.11.76,9.38.85,2.27.15,3.56.28,3.56.38s-1.3.16-3.58.2c-2.28.09-5.55-.08-9.47-.33-7.85-.59-18.29-2.5-28.42-5.93-10.16-3.33-19.81-8.39-26.86-12.89-1.8-1.08-3.35-2.24-4.79-3.23-.71-.5-1.4-.96-2.02-1.43-.61-.47-1.18-.91-1.7-1.31-1.05-.81-1.91-1.47-2.55-1.97-.64-.5-1.04-.87-1.21-1.02-4.91-4.05-9.4-8.59-13.63-13.34-1.03-1.22-2.13-2.37-3.09-3.64l-2.95-3.75c-1.85-2.59-3.74-5.15-5.41-7.86-6.89-10.7-12.03-22.51-15.34-34.8-6.6-24.6-5.42-51.2,3.35-75.11,8.75-23.93,25.07-44.96,45.96-59.5,5.23-3.61,10.68-6.94,16.42-9.7,5.72-2.78,11.63-5.18,17.7-7.09,6.09-1.87,12.3-3.3,18.58-4.3,6.3-.91,12.66-1.37,19.02-1.43,6.36.06,12.72.52,19.02,1.43,6.28,1,12.5,2.44,18.58,4.3,6.07,1.92,11.98,4.32,17.7,7.09,5.74,2.76,11.18,6.09,16.42,9.7,20.89,14.55,37.21,35.57,45.96,59.5,8.77,23.91,9.95,50.51,3.35,75.11-3.31,12.29-8.45,24.09-15.34,34.8-1.67,2.71-3.56,5.27-5.41,7.86l-2.95,3.75c-.96,1.27-2.06,2.42-3.09,3.64-4.22,4.75-8.71,9.29-13.63,13.34-.18.14-.57.51-1.21,1.02-.64.5-1.5,1.16-2.55,1.97-.52.4-1.09.84-1.7,1.31-.62.46-1.31.92-2.02,1.43-1.44.99-3,2.15-4.79,3.23-7.04,4.5-16.69,9.56-26.86,12.89-10.13,3.43-20.57,5.34-28.42,5.93-3.93.25-7.19.42-9.47.33-2.28-.04-3.58-.1-3.58-.2s1.3-.23,3.56-.38c2.27-.09,5.5-.44,9.38-.85,7.74-.93,17.99-3.12,27.86-6.73,9.91-3.52,19.27-8.67,26.09-13.19,1.74-1.08,3.24-2.25,4.64-3.24.69-.5,1.36-.96,1.95-1.42.59-.47,1.14-.91,1.65-1.31,1.01-.8,1.84-1.47,2.47-1.96.62-.5,1-.86,1.18-1Z"/><path class="cls-2" d="M82.77,231.82c1.11-.53,2.19-1.12,3.31-1.6l3.37-1.45c2.29-.85,4.57-1.74,6.9-2.44,2.31-.79,4.68-1.35,7.03-2l3.56-.8,1.78-.4,1.79-.33c9.56-1.79,19.27-2.61,28.98-2.62,9.7.01,19.42.83,28.98,2.62l1.79.33,1.78.4,3.56.8c2.35.66,4.72,1.21,7.03,2,2.34.7,4.62,1.58,6.9,2.44l3.37,1.45c1.12.48,2.21,1.07,3.31,1.6.07.04.36.19.82.44.43.26,1.01.63,1.71,1.06,1.39.83,3.09,2.07,4.71,3.36.78.69,1.58,1.34,2.26,2.03.66.71,1.28,1.37,1.77,1.95.91,1.26,1.43,2.12,1.27,2.24-.15.12-.96-.49-2.06-1.46-.66-.49-1.33-1-2.02-1.51-.75-.54-1.6-1.06-2.41-1.61-1.7-1.03-3.43-2.04-4.83-2.71-.7-.36-1.29-.66-1.71-.87-.46-.21-.74-.34-.81-.37-1.06-.51-2.1-1.07-3.19-1.54l-3.26-1.4c-2.22-.83-4.43-1.69-6.71-2.36-2.25-.77-4.56-1.31-6.85-1.95l-3.48-.78-1.74-.39-1.76-.32c-9.36-1.75-18.9-2.56-28.45-2.57-9.54.01-19.09.82-28.45,2.57l-1.76.32-1.74.39-3.48.78c-2.29.64-4.61,1.18-6.85,1.95-2.28.68-4.49,1.54-6.71,2.36l-3.26,1.4c-1.09.47-2.12,1.03-3.19,1.54-.07.03-.36.16-.81.37-.43.22-1.01.52-1.71.87-1.4.67-3.13,1.68-4.83,2.71-.81.56-1.67,1.07-2.41,1.61-.68.51-1.36,1.02-2.02,1.51-1.1.97-1.9,1.58-2.06,1.46-.15-.12.36-.98,1.27-2.24.5-.58,1.11-1.24,1.77-1.95.68-.69,1.48-1.34,2.26-2.03,1.62-1.29,3.32-2.53,4.71-3.36.7-.43,1.28-.8,1.71-1.06.46-.25.74-.4.82-.44Z"/><path class="cls-2" d="M34.19,70.28c8.08-9.11,14.97-19.3,20.99-29.92,3-5.32,5.78-10.78,8.22-16.36,1.23-2.79,2.36-5.62,3.34-8.48.5-1.43.94-2.87,1.31-4.31l.27-1.08c.02-.11.04-.13.07-.32l.07-.54.14-1.08.14-1.08c.05-.35.1-.72.13-1.14l.21-2.42,3.15,3.5c.27.29.5.58.82.89l.49.44.82.75c.52.52,1.14.95,1.73,1.41.6.45,1.17.93,1.81,1.32l1.89,1.24c.63.41,1.31.76,1.96,1.14,1.3.78,2.67,1.42,4.03,2.1,5.48,2.62,11.3,4.6,17.23,6.12,5.93,1.52,11.98,2.58,18.08,3.31,6.1.7,12.24.97,18.39,1.04,6.14-.07,12.29-.33,18.39-1.04,6.09-.73,12.15-1.79,18.08-3.31,5.93-1.52,11.74-3.49,17.23-6.12,1.36-.67,2.74-1.32,4.03-2.1.65-.38,1.33-.73,1.96-1.14l1.89-1.24c.65-.39,1.22-.87,1.81-1.32.59-.46,1.21-.89,1.73-1.41l.82-.75.49-.44c.32-.3.55-.6.82-.89l3.15-3.5.21,2.42c.03.42.08.79.13,1.14l.14,1.08.14,1.08.07.54c.02.19.05.21.07.32l.27,1.08c.37,1.44.81,2.88,1.31,4.31.98,2.86,2.11,5.69,3.34,8.48,2.44,5.59,5.22,11.04,8.22,16.36,6.02,10.63,12.91,20.81,20.99,29.92.6.6,7.35,8.79,15.74,14.73,4.15,2.99,8.71,5.27,12.31,6.44.89.26,1.72.5,2.48.72.74.24,1.41.29,1.95.42,1.09.22,1.71.4,1.71.49,0,.1-.64.12-1.78.08-.56-.04-1.26,0-2.04-.16-.81-.15-1.69-.31-2.62-.48-3.82-.88-8.7-2.96-13.14-5.84-4.47-2.84-8.53-6.33-11.51-9.17-1.51-1.4-2.72-2.68-3.62-3.61-.91-.93-1.47-1.55-1.61-1.72-8.26-9.32-15.24-19.65-21.35-30.42-3.05-5.4-5.86-10.92-8.35-16.62-1.26-2.84-2.41-5.73-3.43-8.7-.52-1.48-.98-2.98-1.38-4.52l-.29-1.16-.06-.25v-.06s-.03-.12-.03-.12l-.03-.18-1.25,1.14c-.58.57-1.24,1.03-1.87,1.52-.64.48-1.26,1-1.94,1.41l-2,1.31c-.67.43-1.37.79-2.06,1.19-1.36.82-2.79,1.49-4.21,2.19-5.7,2.72-11.68,4.75-17.75,6.31-6.08,1.56-12.25,2.64-18.46,3.38-6.22.72-12.47.99-18.71,1.05-6.25-.07-12.5-.34-18.71-1.05-6.21-.74-12.39-1.82-18.46-3.38-6.07-1.56-12.05-3.58-17.75-6.31-1.42-.7-2.85-1.37-4.21-2.19-.69-.4-1.39-.76-2.06-1.19l-2-1.31c-.68-.42-1.3-.93-1.94-1.41-.63-.49-1.29-.95-1.87-1.52l-1.25-1.14-.03.18-.02.12v.06s-.07.25-.07.25l-.29,1.16c-.4,1.54-.86,3.05-1.38,4.52-1.02,2.96-2.17,5.85-3.43,8.7-2.49,5.7-5.31,11.22-8.35,16.62-6.11,10.78-13.09,21.1-21.35,30.42-.14.17-.7.8-1.61,1.72-.9.93-2.11,2.21-3.62,3.61-2.98,2.84-7.04,6.33-11.51,9.17-4.44,2.88-9.32,4.96-13.14,5.84-.94.17-1.81.33-2.62.48-.77.15-1.48.12-2.04.16-1.13.04-1.77.02-1.78-.08,0-.1.62-.27,1.71-.49.54-.13,1.21-.19,1.95-.42.77-.22,1.6-.46,2.48-.72,3.6-1.17,8.16-3.45,12.31-6.44,8.39-5.94,15.14-14.13,15.74-14.73Z"/></g><path id="CircleFrame_7_Shape" class="cls-1" d="M139.5,12.25C52.85,12.25,26.17,151.51,26.17,196.74s113.33,40.47,113.33,40.47c0,0,113.33,4.76,113.33-40.47S226.15,12.25,139.5,12.25Z"/></g></svg>