<?xml version="1.0" encoding="UTF-8"?><svg id="Line" xmlns="http://www.w3.org/2000/svg" viewBox="0 0 258.27 266.43"><defs><style>.cls-1{opacity:.24;}.cls-2{fill:#fff;stroke-width:0px;}</style></defs><g id="CircleFrame_1"><g id="CircleFrame_1_Lines"><path class="cls-2" d="M50.54,47.93c-18.99,16.03-32.94,37.94-39.28,61.98-6.39,24.01-5.25,49.98,3.25,73.33,8.47,23.37,24.33,43.95,44.67,58.22,10.14,7.18,21.43,12.7,33.25,16.48,5.93,1.83,11.99,3.24,18.13,4.23,6.15.89,12.35,1.35,18.56,1.41,6.21-.06,12.42-.52,18.56-1.41,6.13-.99,12.19-2.4,18.13-4.23,11.83-3.79,23.11-9.3,33.25-16.48,20.34-14.27,36.2-34.85,44.67-58.22,8.5-23.35,9.65-49.31,3.25-73.33-6.33-24.04-20.29-45.95-39.28-61.98-.17-.15-.57-.49-1.17-1.01-.62-.5-1.45-1.16-2.46-1.96-1-.81-2.18-1.77-3.58-2.74-1.39-.98-2.89-2.16-4.62-3.25-6.79-4.55-16.13-9.7-26.02-13.25-9.86-3.63-20.09-5.83-27.82-6.76-3.87-.42-7.1-.77-9.36-.86-2.26-.15-3.56-.28-3.56-.38,0-.1,1.29-.16,3.57-.2,2.28-.09,5.54.08,9.46.33,7.84.6,18.27,2.52,28.38,5.96,10.14,3.36,19.77,8.43,26.79,12.95,1.79,1.08,3.34,2.25,4.78,3.24,1.45.98,2.67,1.94,3.71,2.75,1.04.81,1.9,1.48,2.54,1.97.63.51,1.03.88,1.21,1.02,19.43,16.4,33.71,38.82,40.19,63.43,6.54,24.58,5.37,51.13-3.33,75.03-8.67,23.92-24.9,44.98-45.72,59.58-10.38,7.34-21.93,13-34.04,16.87-6.07,1.88-12.28,3.32-18.55,4.33-6.29.91-12.64,1.38-19,1.44-6.36-.06-12.7-.53-19-1.44-6.28-1.01-12.48-2.45-18.55-4.33-12.11-3.87-23.66-9.52-34.04-16.87-20.82-14.6-37.04-35.66-45.72-59.58-8.71-23.9-9.87-50.46-3.33-75.03,6.48-24.6,20.76-47.03,40.19-63.43.17-.15.57-.51,1.21-1.02.64-.5,1.5-1.17,2.54-1.97,1.04-.81,2.26-1.77,3.71-2.75,1.44-.98,2.98-2.16,4.78-3.24,7.02-4.52,16.65-9.59,26.79-12.95,10.11-3.44,20.54-5.36,28.38-5.96,3.92-.25,7.18-.42,9.46-.33,2.28.04,3.57.1,3.57.2,0,.1-1.29.23-3.56.38-2.27.09-5.49.44-9.36.86-7.73.93-17.96,3.13-27.82,6.76-9.89,3.55-19.22,8.7-26.02,13.25-1.74,1.08-3.23,2.26-4.62,3.25-1.4.98-2.58,1.93-3.58,2.74-1.01.81-1.84,1.47-2.46,1.96-.6.52-1,.87-1.17,1.01Z"/><path class="cls-2" d="M113.68,257.07c-4.49-.12-8.99-.15-13.48-.37l-6.74-.26-6.74-.38c-4.49-.22-8.98-.64-13.47-.97-4.48-.46-8.97-.87-13.44-1.49-8.94-1.19-17.87-2.74-26.6-5.31-4.34-1.37-8.67-2.94-12.72-5.28l-1.51-.9c-.49-.33-.96-.7-1.44-1.05-.98-.66-1.83-1.55-2.71-2.38-1.64-1.8-3.02-4.1-3.31-6.74,0-.09-.09-.44-.03-.99.04-.54.05-1.28.3-2.09.39-1.65,1.41-3.56,2.77-5.06,1.35-1.51,2.96-2.67,4.27-3.32,1.32-.65,2.29-.8,2.35-.63.07.2-.71.69-1.74,1.56-1.03.87-2.31,2.17-3.29,3.64-1,1.46-1.62,3.1-1.78,4.35-.14.62-.07,1.16-.08,1.54-.02.39.07.63.07.7.2,1.85,1.2,3.6,2.56,5.1.76.7,1.45,1.46,2.35,2.05.43.31.84.64,1.28.94l1.38.82c3.73,2.16,7.89,3.68,12.1,5.01,8.49,2.5,17.31,4.04,26.15,5.21,4.42.61,8.87,1.02,13.32,1.48,4.46.33,8.91.75,13.39.97l6.7.38,6.71.26c4.47.21,8.95.25,13.43.36.63.08,15.41.77,15.41,1.57,0,.77-14.82,1.36-15.46,1.28Z"/><path class="cls-2" d="M144.55,254.21c4.48-.12,8.96-.15,13.43-.36l6.71-.26,6.7-.38c4.47-.22,8.92-.63,13.39-.97,4.45-.46,8.9-.87,13.32-1.48,8.84-1.17,17.66-2.72,26.15-5.21,4.2-1.33,8.37-2.85,12.1-5.01l1.38-.82c.44-.29.85-.63,1.28-.94.89-.59,1.58-1.35,2.35-2.05,1.36-1.51,2.36-3.25,2.56-5.1,0-.07.09-.31.07-.7,0-.39.06-.92-.08-1.54-.16-1.25-.78-2.89-1.78-4.35-.98-1.47-2.25-2.77-3.29-3.64-1.03-.87-1.81-1.36-1.74-1.56.06-.17,1.03-.02,2.35.63,1.31.64,2.92,1.81,4.27,3.32,1.36,1.5,2.38,3.41,2.77,5.06.25.81.26,1.55.3,2.09.06.54-.02.89-.03.99-.28,2.64-1.67,4.94-3.31,6.74-.88.83-1.73,1.72-2.71,2.38-.48.35-.95.72-1.44,1.05l-1.51.9c-4.05,2.35-8.37,3.91-12.72,5.28-8.74,2.57-17.67,4.12-26.6,5.31-4.47.62-8.96,1.03-13.44,1.49-4.49.33-8.98.76-13.47.97l-6.74.38-6.74.26c-4.49.21-8.99.25-13.48.37-.65.08-15.47-.51-15.46-1.28,0-.8,14.78-1.5,15.41-1.57Z"/><path class="cls-2" d="M120.42,16.97c-4.65,3.45-9.8,5.93-15,8.13-2.59,1.15-5.25,2.06-7.9,3.05-2.66.92-5.34,1.78-8.02,2.62-2.7.77-5.39,1.6-8.1,2.31-2.72.69-5.42,1.44-8.15,2.09l-8.18,1.92-4.05.97-2.02.48-2.01.55c-10.69,2.87-21.24,6.55-30.82,11.96-4.77,2.71-9.33,5.83-13.24,9.6-1.96,1.88-3.73,3.93-5.31,6.1-1.54,2.2-2.82,4.57-3.71,7.05-.08.17-.54,1.32-.98,3-.47,1.67-.78,3.92-.65,6.13.14,2.21.8,4.34,1.67,5.72.24.32.44.64.66.89.23.23.42.46.59.62.37.3.59.52.55.61-.04.09-.33.05-.85-.12-.25-.1-.52-.28-.85-.48-.31-.21-.62-.51-.97-.83-1.29-1.36-2.37-3.69-2.8-6.16-.43-2.47-.29-5.02.08-6.92.35-1.91.78-3.22.87-3.41,1-2.77,2.4-5.35,4.07-7.73,1.7-2.35,3.59-4.54,5.67-6.52,4.14-3.99,8.89-7.22,13.82-10.02,9.9-5.58,20.64-9.32,31.49-12.24l2.04-.55,2.05-.49,4.1-.98,8.13-1.9c2.71-.64,5.39-1.38,8.08-2.07,2.69-.7,5.34-1.53,8.01-2.29,2.64-.83,5.29-1.68,7.9-2.59,2.59-.97,5.21-1.87,7.73-2.99,5.07-2.14,10.06-4.56,14.4-7.79.14-.11,1.12-.84,2.57-1.93.64-.58,1.39-1.26,2.19-1.99.35-.4.71-.81,1.07-1.22.35-.42.78-.82,1.05-1.3.31-.46.62-.92.93-1.38.33-.45.49-.96.74-1.42.52-.92.75-1.86,1.03-2.66.16-.4.24-.78.29-1.11.07-.34.14-.63.2-.88C128.92.29,129.04,0,129.14,0s.17.29.23.81c.03.26.05.57.07.94.03.37.04.78-.04,1.23-.12.89-.22,1.97-.64,3.04-.2.54-.32,1.14-.61,1.67-.28.55-.56,1.1-.84,1.64-.26.58-.66,1.04-1,1.55-.36.5-.72.99-1.06,1.47-.81.87-1.55,1.67-2.2,2.37-1.42,1.26-2.46,2.13-2.62,2.26Z"/><path class="cls-2" d="M139.56,14.67c4.34,3.23,9.33,5.65,14.4,7.79,2.52,1.12,5.14,2.02,7.73,2.99,2.62.91,5.26,1.75,7.9,2.59,2.67.76,5.32,1.58,8.01,2.29,2.7.69,5.37,1.43,8.08,2.07l8.13,1.9,4.1.98,2.05.49,2.04.55c10.85,2.92,21.59,6.65,31.49,12.24,4.93,2.8,9.67,6.04,13.82,10.02,2.08,1.98,3.97,4.17,5.67,6.52,1.66,2.38,3.07,4.96,4.07,7.73.08.19.52,1.5.87,3.41.37,1.9.51,4.46.08,6.92-.43,2.46-1.51,4.79-2.8,6.16-.35.32-.65.62-.97.83-.33.2-.6.38-.85.48-.53.17-.82.22-.85.12-.04-.09.18-.31.55-.61.18-.16.36-.4.59-.62.22-.25.42-.57.66-.89.86-1.38,1.53-3.51,1.67-5.72.14-2.21-.18-4.46-.65-6.13-.45-1.68-.91-2.82-.98-3-.9-2.49-2.18-4.85-3.71-7.05-1.58-2.18-3.35-4.23-5.31-6.1-3.91-3.77-8.47-6.88-13.24-9.6-9.59-5.41-20.13-9.09-30.82-11.96l-2.01-.55-2.02-.48-4.05-.97-8.18-1.92c-2.73-.64-5.43-1.39-8.15-2.09-2.71-.71-5.4-1.54-8.1-2.31-2.68-.85-5.36-1.7-8.02-2.62-2.64-.98-5.31-1.9-7.9-3.05-5.2-2.2-10.35-4.68-15-8.13-.16-.13-1.2-1-2.62-2.26-.64-.69-1.39-1.5-2.2-2.37-.34-.47-.7-.96-1.06-1.47-.34-.51-.75-.97-1-1.55-.28-.54-.56-1.09-.84-1.64-.29-.53-.41-1.13-.61-1.67-.42-1.07-.52-2.15-.64-3.04-.08-.44-.07-.86-.04-1.23.02-.37.04-.68.07-.94C128.96.29,129.04,0,129.14,0s.22.29.34.78c.06.25.13.54.2.88.06.34.14.72.29,1.11.28.8.51,1.74,1.03,2.66.25.46.41.97.74,1.42.31.46.62.92.93,1.38.27.48.7.87,1.05,1.3.37.42.73.83,1.07,1.22.8.73,1.55,1.4,2.19,1.99,1.45,1.09,2.43,1.82,2.57,1.93Z"/></g><g id="CircleFrame_1_Shape" class="cls-1"><path class="cls-2" d="M129.14,30.59c61.05,0,110.54,110.76,110.54,110.76,0,0-49.49,110.76-110.54,110.76S18.59,141.36,18.59,141.36c0,0,49.49-110.76,110.54-110.76Z"/></g></g></svg>