<?xml version="1.0" encoding="UTF-8"?><svg id="Line" xmlns="http://www.w3.org/2000/svg" viewBox="0 0 262.05 248.65"><defs><style>.cls-1{opacity:.24;}.cls-2{fill:#fff;stroke-width:0px;}</style></defs><g id="CircleFrame_2"><g id="CircleFrame_2_Lines"><path class="cls-2" d="M209.57,218.26c18.98-16,32.94-37.89,39.27-61.91,6.39-23.99,5.25-49.94-3.25-73.26-8.48-23.35-24.33-43.91-44.67-58.15-10.14-7.17-21.42-12.68-33.23-16.46-5.93-1.83-11.98-3.24-18.11-4.22-6.14-.89-12.34-1.35-18.55-1.4-6.21.06-12.41.51-18.55,1.4-6.13.99-12.18,2.39-18.11,4.22-11.82,3.78-23.1,9.29-33.23,16.46-20.33,14.24-36.19,34.8-44.67,58.15-8.51,23.33-9.65,49.27-3.25,73.26,6.33,24.02,20.29,45.91,39.27,61.91.17.14.56.5,1.17,1.01.62.5,1.45,1.16,2.46,1.96,1,.81,2.18,1.76,3.58,2.74,1.39.98,2.88,2.16,4.62,3.24,6.79,4.54,16.12,9.69,26,13.23,9.85,3.62,20.07,5.82,27.8,6.75,3.87.41,7.09.77,9.36.86,2.26.15,3.56.28,3.56.38s-1.29.16-3.57.2c-2.28.09-5.54-.08-9.46-.33-7.83-.6-18.25-2.51-28.36-5.95-10.14-3.35-19.76-8.42-26.77-12.93-1.79-1.08-3.34-2.25-4.78-3.23-1.45-.98-2.67-1.93-3.71-2.75-1.04-.81-1.9-1.47-2.54-1.97-.63-.51-1.03-.88-1.21-1.02-19.43-16.37-33.71-38.78-40.19-63.36-6.54-24.56-5.38-51.09,3.33-74.97,8.68-23.9,24.9-44.93,45.71-59.51,10.38-7.33,21.92-12.97,34.02-16.84,6.07-1.87,12.27-3.31,18.54-4.32,6.29-.91,12.63-1.38,18.98-1.44,6.35.06,12.69.52,18.98,1.44,6.27,1.01,12.47,2.45,18.54,4.32,12.1,3.87,23.64,9.51,34.02,16.84,20.81,14.58,37.03,35.61,45.71,59.51,8.71,23.88,9.88,50.42,3.33,74.97-6.48,24.58-20.77,46.99-40.19,63.36-.17.14-.57.51-1.21,1.02-.64.5-1.5,1.16-2.54,1.97-1.04.81-2.26,1.77-3.71,2.75-1.44.98-2.98,2.16-4.78,3.23-7.02,4.52-16.64,9.58-26.77,12.93-10.1,3.44-20.53,5.35-28.36,5.95-3.92.25-7.18.42-9.46.33-2.28-.04-3.57-.1-3.57-.2s1.29-.23,3.56-.38c2.27-.09,5.49-.44,9.36-.86,7.73-.93,17.95-3.13,27.8-6.75,9.88-3.54,19.21-8.69,26-13.23,1.74-1.08,3.23-2.26,4.62-3.24,1.4-.98,2.58-1.93,3.58-2.74,1.01-.8,1.84-1.47,2.46-1.96.61-.51,1-.87,1.17-1.01Z"/><path class="cls-2" d="M29.75,48.28c16.82-5.82,32.56-14.54,49-21.88,8.22-3.68,16.63-7.05,25.36-9.53,4.37-1.21,8.8-2.23,13.3-2.93,4.5-.67,9.05-1.03,13.62-1.07,4.56.04,9.11.41,13.62,1.07,4.5.7,8.93,1.72,13.3,2.93,8.73,2.48,17.14,5.85,25.36,9.53,16.44,7.34,32.18,16.06,49,21.88.15.05.7.26,1.58.58.87.29,2.05.69,3.44,1.16,1.38.47,3,.92,4.7,1.44,1.72.42,3.52.98,5.35,1.34,3.64.88,7.31,1.38,10.06,1.76,2.76.31,4.6.51,4.6.71,0,.18-1.85.36-4.67.39-2.81-.05-6.6-.25-10.37-.89-1.9-.24-3.76-.7-5.55-1.03-1.76-.43-3.44-.81-4.87-1.21-1.44-.42-2.66-.77-3.56-1.03-.9-.29-1.48-.48-1.63-.53-17.15-5.94-32.93-14.7-49.24-21.98-8.15-3.65-16.44-6.96-24.97-9.39-4.27-1.19-8.59-2.18-12.96-2.86-4.37-.64-8.78-1-13.18-1.04-4.41.04-8.81.39-13.18,1.04-4.37.68-8.69,1.67-12.96,2.86-8.53,2.43-16.82,5.74-24.97,9.39-16.3,7.28-32.09,16.04-49.24,21.98-.15.05-.73.24-1.63.53-.9.26-2.12.61-3.56,1.03-1.44.41-3.11.78-4.87,1.21-1.79.33-3.65.79-5.55,1.03-3.77.64-7.55.84-10.37.89-2.82-.03-4.67-.21-4.67-.39,0-.21,1.85-.41,4.6-.71,2.75-.38,6.42-.88,10.06-1.76,1.83-.36,3.63-.92,5.35-1.34,1.7-.52,3.31-.97,4.7-1.44,1.39-.47,2.57-.87,3.44-1.16.87-.32,1.43-.52,1.58-.58Z"/><path class="cls-2" d="M30.68,198.87c17.15,5.94,32.93,14.7,49.24,21.98,8.15,3.65,16.44,6.96,24.97,9.39,4.27,1.19,8.59,2.18,12.96,2.86,4.37.64,8.78,1,13.18,1.04,4.41-.04,8.81-.39,13.18-1.04,4.37-.68,8.69-1.67,12.96-2.86,8.53-2.43,16.82-5.74,24.97-9.39,16.3-7.28,32.09-16.04,49.24-21.98.15-.05.73-.24,1.63-.53.9-.26,2.12-.61,3.56-1.03,1.44-.41,3.11-.78,4.87-1.21,1.79-.33,3.65-.79,5.55-1.03,3.77-.64,7.55-.84,10.37-.89,2.82.03,4.67.21,4.67.39,0,.21-1.85.41-4.6.71-2.75.38-6.42.88-10.06,1.76-1.83.36-3.63.92-5.35,1.34-1.7.52-3.31.97-4.7,1.44-1.39.47-2.57.87-3.44,1.16-.87.32-1.43.52-1.58.58-16.82,5.82-32.56,14.54-49,21.88-8.22,3.68-16.63,7.05-25.36,9.53-4.37,1.21-8.8,2.23-13.3,2.93-4.5.67-9.05,1.03-13.62,1.07-4.56-.04-9.11-.41-13.62-1.07-4.5-.7-8.93-1.72-13.3-2.93-8.73-2.48-17.14-5.85-25.36-9.53-16.44-7.34-32.18-16.06-49-21.88-.15-.05-.7-.26-1.58-.58-.87-.29-2.05-.69-3.44-1.16-1.38-.47-3-.92-4.7-1.44-1.72-.42-3.52-.98-5.35-1.34-3.64-.88-7.31-1.38-10.06-1.76-2.76-.31-4.6-.51-4.6-.71,0-.18,1.85-.36,4.67-.39,2.81.05,6.6.25,10.37.89,1.9.24,3.76.7,5.55,1.03,1.76.43,3.44.81,4.87,1.21,1.44.42,2.66.77,3.56,1.03.9.29,1.48.48,1.63.53Z"/><path class="cls-2" d="M254.06,69.45c-2,4.24-3.65,8.67-4.93,13.22-1.25,4.56-2.29,9.18-3.04,13.87-1.51,9.37-2.17,18.89-2.2,28.4.03,9.51.68,19.03,2.2,28.4.75,4.69,1.79,9.31,3.04,13.87,1.29,4.55,2.93,8.98,4.93,13.22.06.14.51,1.1,1.17,2.55.29.72.75,1.48,1.18,2.31.46.82.88,1.73,1.4,2.57,1.99,3.42,4.52,6.42,4.21,6.74-.23.25-3.35-2.32-5.88-5.61-.66-.8-1.2-1.68-1.76-2.48-.55-.81-1.1-1.57-1.47-2.28-.81-1.45-1.35-2.42-1.43-2.56-2.09-4.42-3.79-9-5.11-13.68-1.29-4.68-2.35-9.41-3.11-14.19-1.54-9.55-2.2-19.21-2.23-28.86.03-9.65.69-19.31,2.23-28.86.76-4.78,1.82-9.51,3.11-14.19,1.32-4.67,3.02-9.25,5.11-13.68.08-.14.62-1.11,1.43-2.56.37-.71.92-1.46,1.47-2.28.57-.8,1.11-1.68,1.76-2.48,2.53-3.29,5.65-5.86,5.88-5.61.31.32-2.22,3.32-4.21,6.74-.52.84-.95,1.75-1.4,2.57-.44.83-.89,1.59-1.18,2.31-.66,1.44-1.11,2.41-1.17,2.55Z"/><path class="cls-2" d="M10.57,68.2c2.09,4.42,3.79,9,5.11,13.68,1.29,4.68,2.35,9.41,3.11,14.19,1.54,9.55,2.2,19.21,2.23,28.86-.03,9.65-.69,19.31-2.23,28.86-.76,4.78-1.82,9.51-3.11,14.19-1.32,4.67-3.02,9.25-5.11,13.68-.08.14-.62,1.11-1.43,2.56-.37.71-.92,1.46-1.47,2.28-.57.8-1.11,1.68-1.76,2.48-2.53,3.29-5.65,5.86-5.88,5.61-.31-.32,2.22-3.32,4.21-6.74.52-.84.95-1.75,1.4-2.57.44-.83.89-1.59,1.18-2.31.66-1.44,1.11-2.41,1.17-2.55,2-4.24,3.65-8.67,4.93-13.22,1.25-4.56,2.29-9.18,3.04-13.87,1.51-9.37,2.17-18.89,2.2-28.4-.03-9.51-.68-19.03-2.2-28.4-.75-4.69-1.79-9.31-3.04-13.87-1.29-4.55-2.93-8.98-4.93-13.22-.06-.14-.51-1.1-1.17-2.55-.29-.72-.75-1.48-1.18-2.31-.46-.82-.88-1.73-1.4-2.57C2.24,58.6-.28,55.6.03,55.28c.23-.25,3.35,2.32,5.88,5.61.66.8,1.2,1.68,1.76,2.48.55.81,1.1,1.57,1.47,2.28.81,1.45,1.35,2.42,1.43,2.56Z"/></g><g id="CircleFrame_2_Shape" class="cls-1"><path class="cls-2" d="M72.36,235.56c0-37.21-34.53-70.5-34.53-110.64,0-40.14,34.53-73.42,34.53-110.64,13.15,13.16,39.6,16.53,58.67,16.53s45.52-3.36,58.67-16.53c0,37.21,34.53,70.5,34.53,110.64,0,40.14-34.53,73.42-34.53,110.64-13.15-13.16-39.6-16.53-58.67-16.53-19.07,0-45.52,3.36-58.67,16.53Z"/></g></g></svg>