<?xml version="1.0" encoding="UTF-8"?><svg id="Line" xmlns="http://www.w3.org/2000/svg" viewBox="0 0 249.82 248.65"><defs><style>.cls-1{opacity:.24;}.cls-1,.cls-2{fill:#fff;stroke-width:0px;}</style></defs><g id="CircleFrame_6"><g id="CircleFrame_6_Lines"><path class="cls-2" d="M203.53,218.29c19.01-16,33-37.89,39.35-61.92,6.41-24,5.26-49.97-3.26-73.3-8.5-23.36-24.39-43.91-44.74-58.15-5.1-3.53-10.41-6.8-16-9.5-5.58-2.72-11.34-5.07-17.26-6.95-5.94-1.83-11.99-3.23-18.13-4.22-6.15-.89-12.35-1.35-18.56-1.4-6.21.06-12.41.51-18.56,1.4-6.13.99-12.19,2.39-18.13,4.22-5.92,1.87-11.68,4.23-17.26,6.95-5.6,2.7-10.9,5.96-16,9.5-20.36,14.23-36.25,34.79-44.74,58.15C1.68,106.4.54,132.37,6.95,156.37c6.35,24.03,20.34,45.92,39.35,61.92.17.14.56.5,1.17,1.01.62.5,1.45,1.16,2.46,1.96,1,.81,2.19,1.76,3.59,2.74,1.39.98,2.89,2.16,4.63,3.24,6.8,4.54,16.14,9.68,26.03,13.22,9.86,3.62,20.09,5.81,27.82,6.74,3.87.41,7.1.76,9.36.86,2.26.15,3.56.28,3.56.38s-1.29.16-3.57.2c-2.28.09-5.54-.08-9.46-.33-7.84-.59-18.27-2.51-28.38-5.94-10.14-3.35-19.77-8.41-26.8-12.92-1.79-1.08-3.34-2.25-4.78-3.23-1.45-.98-2.67-1.93-3.71-2.74-1.04-.81-1.9-1.47-2.54-1.97-.63-.51-1.03-.87-1.21-1.02-19.45-16.37-33.77-38.77-40.27-63.37-6.56-24.57-5.39-51.13,3.34-75.02,8.7-23.91,24.95-44.94,45.79-59.51,5.22-3.61,10.65-6.95,16.38-9.72,5.71-2.78,11.61-5.19,17.67-7.11,6.07-1.87,12.28-3.31,18.55-4.32,6.29-.91,12.64-1.38,18.99-1.44,6.35.06,12.7.52,18.99,1.44,6.28,1.01,12.48,2.44,18.55,4.32,6.06,1.92,11.96,4.33,17.67,7.11,5.73,2.76,11.16,6.1,16.38,9.72,20.83,14.57,37.09,35.6,45.79,59.51,8.73,23.89,9.9,50.45,3.34,75.02-6.5,24.6-20.81,47-40.27,63.37-.18.14-.57.51-1.21,1.02-.64.5-1.5,1.16-2.54,1.97-1.04.81-2.26,1.77-3.71,2.74-1.44.98-2.99,2.15-4.78,3.23-7.03,4.51-16.66,9.57-26.8,12.92-10.11,3.43-20.54,5.35-28.38,5.94-3.92.25-7.18.42-9.46.33-2.28-.04-3.57-.1-3.57-.2s1.29-.23,3.56-.38c2.27-.09,5.49-.44,9.36-.86,7.73-.93,17.96-3.12,27.82-6.74,9.89-3.53,19.23-8.68,26.03-13.22,1.74-1.08,3.23-2.26,4.63-3.24,1.4-.98,2.58-1.93,3.59-2.74,1.01-.8,1.84-1.47,2.46-1.96.61-.5,1-.87,1.17-1.01Z"/><path class="cls-2" d="M238.17,36.07c-4.22-2.05-8.75-3.58-13.33-4.92-4.58-1.33-9.25-2.45-13.94-3.45-9.39-1.98-18.89-3.48-28.43-4.72-9.54-1.23-19.12-2.18-28.71-2.87-9.59-.68-19.21-1.13-28.81-1.15-9.6.01-19.21.46-28.81,1.15-9.59.69-19.17,1.64-28.71,2.87-9.54,1.24-19.04,2.74-28.43,4.72-4.69.99-9.35,2.11-13.94,3.45-4.58,1.34-9.11,2.87-13.33,4.92-.29.15-2.33,1.01-4.82,2.69-1.23.84-2.55,1.95-3.47,3.33-.43.7-.74,1.46-.83,2.26-.09.82.02,1.71.32,2.48.61,1.57,2.13,2.76,3.74,3.44,1.62.7,3.31,1.02,4.75,1.13,1.45.12,2.66,0,3.47-.17.82-.17,1.19-.46,1.27-.4.08.05-.23.56-1.09.94-.84.38-2.12.68-3.68.73-1.55.05-3.4-.11-5.31-.76-.95-.33-1.92-.78-2.81-1.46-.88-.67-1.69-1.57-2.2-2.65-.51-1.09-.72-2.27-.67-3.45.05-1.21.45-2.35.99-3.32,1.13-1.91,2.62-3.24,3.95-4.25,2.7-2,4.8-2.96,5.11-3.13,4.47-2.17,9.11-3.72,13.79-5.1,4.68-1.36,9.4-2.49,14.15-3.5,9.49-2,19.06-3.51,28.65-4.76,9.6-1.23,19.22-2.19,28.87-2.89,9.65-.69,19.32-1.14,29.01-1.15,9.7.02,19.36.47,29.01,1.15,9.65.7,19.28,1.65,28.87,2.89,9.59,1.24,19.16,2.76,28.65,4.76,4.74,1.01,9.47,2.14,14.15,3.5,4.67,1.37,9.32,2.93,13.79,5.1.31.17,2.42,1.13,5.11,3.13,1.33,1.01,2.83,2.34,3.95,4.25.54.97.94,2.11.99,3.32.06,1.19-.16,2.36-.67,3.45-.51,1.08-1.32,1.98-2.2,2.65-.89.68-1.86,1.13-2.81,1.46-1.91.65-3.76.81-5.31.75-1.56-.05-2.84-.36-3.68-.73-.86-.38-1.17-.89-1.09-.94.08-.07.45.22,1.27.4.81.17,2.03.29,3.47.17,1.44-.11,3.13-.43,4.75-1.13,1.62-.68,3.13-1.87,3.74-3.44.3-.77.41-1.66.32-2.48-.08-.8-.39-1.57-.83-2.26-.92-1.39-2.24-2.49-3.47-3.33-2.49-1.68-4.53-2.54-4.82-2.69Z"/><path class="cls-2" d="M219.04,218.11s.01,0,0,0c0,.02-.03,0,.05.04.07.08.33.2.59.29.56.18,1.28.27,2.01.32,1.27.05,2.8-.31,4.26-.75,2.94-.92,5.84-2.25,8.6-3.76,2.76-1.52,5.43-3.24,7.78-5.25,1.17-1,2.28-2.08,3.16-3.24.87-1.15,1.52-2.45,1.46-3.49,0-.52-.24-.96-.54-1.41-.21-.2-.39-.43-.64-.62-.28-.18-.5-.4-.82-.55-1.2-.72-2.58-1.09-4.06-1.31-2.97-.42-6.14-.16-9.25.26-6.26.92-12.45,2.66-18.54,4.65-12.19,4.02-24.05,9.12-35.66,14.67-11.6,5.59-22.98,11.68-33.89,18.48-.39.25-5.17,3.02-9.7,5.98-2.27,1.47-4.46,2.99-6.08,4.17-1.62,1.17-2.67,1.99-2.82,1.85-.14-.13.66-1.23,2.09-2.69,1.42-1.46,3.47-3.26,5.62-4.96,4.3-3.43,8.97-6.51,9.36-6.76,11.03-6.88,22.49-13,34.17-18.63,11.7-5.59,23.64-10.73,36.01-14.81,6.19-2.01,12.49-3.79,19.03-4.76,3.27-.44,6.62-.73,10.06-.26,1.7.24,3.51.72,5.09,1.67.41.21.79.53,1.18.8.38.3.74.7,1.08,1.07.63.85,1.13,1.93,1.15,3.05.03,1.09-.21,2.13-.62,2.98-.37.89-.89,1.64-1.41,2.36-1.07,1.41-2.31,2.6-3.59,3.7-2.57,2.18-5.37,3.98-8.26,5.58-2.91,1.59-5.91,2.97-9.14,3.98-1.63.47-3.28.93-5.25.87-.88-.06-1.78-.15-2.76-.46-.49-.18-1.01-.36-1.54-.82-.54-.44-1.03-1.22-1.06-2.03,0-.1,0-.39.06-.75.04-.16.09-.37.17-.57.08-.18.17-.4.29-.6.47-.8,1.22-1.6,2.18-2.3.96-.71,2.12-1.36,3.45-1.85,1.34-.45,2.84-.86,4.54-.54.42.1.84.25,1.25.49.38.22.87.62,1.11,1.07.27.46.3,1.02.14,1.5-.15.47-.51.95-.77,1.18-1.09,1.01-2.19,1.49-3.13,1.93-1.89.82-3.22,1.1-3.29.93-.08-.19,1.11-.83,2.76-1.9.8-.54,1.81-1.21,2.48-2.03.18-.22.19-.28.23-.43.03-.13,0-.26-.1-.35-.1-.1-.16-.12-.37-.22-.19-.08-.42-.14-.67-.17-1.02-.11-2.25.27-3.3.74-1.06.49-2,1.11-2.71,1.72-.72.6-1.18,1.21-1.36,1.58-.19.4-.08.39-.12.4Z"/><path class="cls-2" d="M33.72,218.3c-.03.81-.52,1.59-1.06,2.03-.54.46-1.05.64-1.54.82-.98.31-1.88.4-2.76.46-1.97.06-3.62-.4-5.25-.87-3.23-1.01-6.23-2.4-9.14-3.98-2.9-1.6-5.69-3.39-8.26-5.58-1.28-1.1-2.51-2.28-3.59-3.7-.53-.71-1.04-1.47-1.41-2.36-.41-.85-.65-1.9-.62-2.98.03-1.12.52-2.19,1.15-3.05.35-.37.7-.77,1.08-1.07.39-.27.78-.6,1.18-.8,1.58-.95,3.4-1.42,5.1-1.67,3.45-.48,6.79-.18,10.06.26,6.54.97,12.84,2.75,19.03,4.76,12.37,4.08,24.31,9.22,36.01,14.81,11.68,5.63,23.14,11.75,34.17,18.63.39.25,5.06,3.33,9.36,6.76,2.15,1.7,4.2,3.5,5.62,4.96,1.43,1.45,2.23,2.56,2.09,2.69-.15.14-1.2-.68-2.82-1.85-1.62-1.18-3.81-2.7-6.08-4.17-4.53-2.95-9.31-5.73-9.7-5.98-10.91-6.8-22.29-12.88-33.89-18.48-11.61-5.55-23.48-10.65-35.66-14.67-6.09-1.98-12.29-3.72-18.54-4.65-3.11-.42-6.28-.68-9.25-.26-1.49.22-2.86.59-4.06,1.31-.32.16-.54.38-.82.55-.25.19-.43.42-.64.62-.3.45-.53.89-.54,1.41-.06,1.04.6,2.34,1.46,3.49.88,1.16,1.99,2.24,3.16,3.24,2.36,2.01,5.03,3.72,7.78,5.25,2.76,1.51,5.66,2.84,8.6,3.76,1.46.44,2.98.8,4.26.75.73-.04,1.45-.14,2.01-.32.26-.09.52-.21.59-.29.08-.05.05-.03.05-.04,0,0,.02,0,0,0-.04,0,.07,0-.12-.4-.18-.37-.64-.98-1.36-1.58-.71-.61-1.65-1.23-2.71-1.72-1.05-.47-2.28-.85-3.3-.74-.24.03-.47.09-.67.17-.21.1-.27.12-.37.22-.09.09-.12.23-.1.35.04.14.05.21.23.43.67.82,1.68,1.49,2.48,2.03,1.66,1.08,2.84,1.72,2.76,1.9-.07.18-1.4-.11-3.29-.93-.94-.44-2.04-.92-3.13-1.93-.26-.23-.63-.72-.77-1.18-.16-.48-.14-1.04.14-1.5.24-.45.73-.85,1.11-1.07.41-.24.83-.39,1.25-.49,1.7-.33,3.2.08,4.54.54,1.33.49,2.5,1.14,3.45,1.85.96.71,1.71,1.5,2.18,2.3.12.2.21.42.29.6.07.2.12.41.17.57.07.37.06.65.06.75Z"/></g><path id="CircleFrame_6_Shape" class="cls-1" d="M124.91,5.15C95.81,26.91,29.21,73.36,6.04,124.03c23.18,50.66,89.77,97.12,118.87,118.87,29.11-21.75,95.7-68.21,118.87-118.87C220.61,73.36,154.02,26.91,124.91,5.15Z"/></g></svg>