<?xml version="1.0" encoding="UTF-8"?><svg id="Line" xmlns="http://www.w3.org/2000/svg" viewBox="0 0 283.41 283.41"><defs><style>.cls-1{opacity:.24;}.cls-2{fill:#fff;stroke-width:0px;}</style></defs><g id="Corner_5"><g id="Corner_5_Lines"><path class="cls-2" d="M229.35,264.18h-91.34v.26c-.04.67-.24,1.41-.56,2-.64,1.23-1.65,2.05-2.66,2.64-2.06,1.17-4.28,1.54-6.43,1.6-4.31.12-8.54-1.29-12.11-3.17-7.29-3.62-13.97-8.14-20.45-12.88-6.47-4.76-12.68-9.84-18.72-15.11-6.04-5.27-11.89-10.74-17.57-16.4-5.66-5.67-11.13-11.53-16.41-17.57-5.27-6.04-10.35-12.25-15.11-18.72-4.75-6.47-9.26-13.16-12.89-20.45-1.87-3.57-3.29-7.8-3.17-12.11.07-2.15.44-4.37,1.6-6.44.59-1.01,1.42-2.02,2.64-2.66.59-.32,1.33-.52,2-.55h.26V54.06c0-1.12.16-14.64.42-27.87.13-6.62.28-13.16.45-18.06.17-4.89.36-8.13.55-8.13s.38,3.24.55,8.13.32,11.44.45,18.06c.26,13.23.42,26.75.42,27.87v94.26l-1.64-.54c-.29-.11-.53-.13-.8-.2l-.38-.08h-.12c-.32.02-.58.08-.86.24-.55.28-1.08.85-1.48,1.56-.82,1.42-1.17,3.26-1.22,5.07-.04,1.83.22,3.69.73,5.5.48,1.81,1.28,3.52,2.15,5.29,3.48,7.02,7.93,13.62,12.62,20.01,4.7,6.39,9.73,12.55,14.96,18.53,5.23,5.99,10.66,11.8,16.27,17.42,5.63,5.61,11.44,11.04,17.42,16.27,5.99,5.23,12.14,10.26,18.53,14.96,6.39,4.69,12.99,9.14,20.01,12.62,1.78.87,3.48,1.67,5.29,2.15,1.8.5,3.67.77,5.49.73,1.81-.05,3.65-.4,5.07-1.22.71-.4,1.27-.93,1.56-1.48.15-.28.22-.54.23-.86v-.12s-.08-.38-.08-.38c-.07-.27-.09-.51-.2-.8l-.54-1.64h95.03c1.12,0,14.64.16,27.87.42,6.62.13,13.16.28,18.06.45,4.89.17,8.13.36,8.13.55s-3.24.38-8.13.55-11.44.32-18.06.45c-13.23.26-26.75.42-27.87.42Z"/><path class="cls-2" d="M232.45,262.47l-1.71-.14-1.69-.27c-1.12-.19-2.26-.33-3.37-.58-2.21-.54-4.43-.96-6.61-1.71-4.36-1.38-8.56-3.25-12.46-5.62-7.79-4.75-14.53-11.02-20.2-18.04-5.69-7.02-10.47-14.71-14.53-22.73-2.03-4.01-3.89-8.11-5.58-12.27-.85-2.08-1.65-4.18-2.4-6.3-.38-1.06-.74-2.12-1.1-3.19l-.63-1.98-3.69.8-4.98,1.12c-3.32.76-6.63,1.55-9.93,2.36-6.61,1.62-13.19,3.34-19.75,5.16-13.1,3.65-26.1,7.71-38.72,12.68-.51.22-6.85,2.48-12.84,5.19-3.01,1.32-5.92,2.77-8.08,3.89-2.15,1.13-3.58,1.92-3.7,1.74-.1-.14,1.11-1.25,3.12-2.69,2.01-1.44,4.83-3.18,7.77-4.76,5.86-3.22,12.16-5.81,12.68-6.03,12.77-5.02,25.84-9.1,39-12.77,6.58-1.83,13.2-3.56,19.83-5.18,3.32-.81,6.64-1.61,9.97-2.37l5-1.13,2.51-.55,3.8-.8.46,1.62.37,1.23.5,1.57c.34,1.04.7,2.09,1.07,3.13.74,2.08,1.53,4.14,2.36,6.18,1.66,4.09,3.48,8.12,5.48,12.05,3.99,7.87,8.67,15.39,14.2,22.22,5.52,6.82,12.02,12.86,19.46,17.39,3.72,2.26,7.71,4.04,11.84,5.34,2.04.71,4.2,1.12,6.32,1.64,1.06.24,2.14.36,3.22.55l1.61.26,1.62.13c.27,0,2.04.3,4.55.31,1.26.09,2.69-.05,4.21-.11,1.51-.18,3.12-.35,4.67-.75,3.13-.7,6.06-2,8.07-3.28,2.02-1.29,3.12-2.46,3.27-2.35.17.11-.68,1.6-2.61,3.24-1.91,1.64-4.92,3.33-8.19,4.34-1.63.55-3.32.86-4.92,1.15-1.61.17-3.14.41-4.47.39-2.67.14-4.54-.09-4.83-.09Z"/><path class="cls-2" d="M70.75,215.62c6.64-2.75,13.4-5.08,20.22-7.2,6.83-2.12,13.72-3.99,20.67-5.65,13.9-3.28,28.04-5.72,42.36-6.64.26,0,3.34-.06,6.37.16,3.02.16,5.96.6,5.95.97,0,.42-2.94.69-5.9,1.04-2.97.3-5.99.69-6.24.68-14.09.9-28.09,3.31-41.87,6.56-6.89,1.64-13.73,3.5-20.49,5.6-6.76,2.1-13.46,4.41-19.97,7.11-.23.11-3.09,1.1-5.85,2.18-1.38.54-2.73,1.1-3.72,1.54-1.01.42-1.63.77-1.79.62-.13-.12.31-.81,1.18-1.55.86-.77,2.12-1.62,3.43-2.42,2.61-1.59,5.41-2.9,5.65-3.01Z"/><path class="cls-2" d="M23.46,50.39l.13,1.62.26,1.61c.19,1.07.31,2.15.55,3.22.52,2.12.93,4.28,1.64,6.32,1.31,4.13,3.08,8.12,5.34,11.84,4.53,7.44,10.57,13.94,17.39,19.46,6.83,5.53,14.35,10.21,22.22,14.2,3.94,2,7.96,3.82,12.05,5.48,2.04.83,4.11,1.62,6.18,2.36,1.04.37,2.08.73,3.13,1.07l1.57.5,1.23.37,1.62.46-.8,3.8-.55,2.51-1.13,5c-.76,3.33-1.56,6.65-2.37,9.97-1.62,6.64-3.35,13.25-5.18,19.83-3.67,13.16-7.75,26.24-12.77,39-.22.52-2.82,6.82-6.03,12.68-1.58,2.94-3.32,5.76-4.76,7.77-1.44,2.01-2.55,3.22-2.69,3.12-.17-.12.61-1.55,1.74-3.7,1.13-2.16,2.57-5.07,3.89-8.08,2.7-5.99,4.97-12.33,5.19-12.84,4.97-12.62,9.02-25.62,12.68-38.72,1.82-6.55,3.54-13.14,5.16-19.75.81-3.3,1.6-6.61,2.36-9.93l1.12-4.98.8-3.69-1.98-.63c-1.07-.35-2.14-.71-3.19-1.1-2.12-.75-4.22-1.56-6.3-2.4-4.16-1.69-8.26-3.54-12.27-5.58-8.01-4.07-15.71-8.84-22.73-14.53-7.02-5.67-13.29-12.41-18.04-20.2-2.36-3.9-4.24-8.1-5.62-12.46-.75-2.17-1.17-4.4-1.71-6.61-.25-1.11-.38-2.25-.58-3.37l-.27-1.69-.14-1.71c0-.29-.23-2.16-.09-4.83-.02-1.33.22-2.86.39-4.47.29-1.6.6-3.3,1.15-4.92,1.01-3.28,2.7-6.28,4.34-8.19,1.64-1.93,3.13-2.78,3.24-2.61.11.15-1.06,1.25-2.35,3.27-1.28,2.01-2.58,4.95-3.28,8.07-.4,1.55-.57,3.16-.75,4.67-.06,1.53-.2,2.95-.11,4.21,0,2.51.31,4.28.31,4.55Z"/><path class="cls-2" d="M64.83,211.24c2.7-6.51,5-13.21,7.11-19.97,2.1-6.76,3.95-13.6,5.6-20.49,3.25-13.78,5.66-27.78,6.56-41.87-.01-.25.38-3.27.68-6.24.35-2.97.63-5.89,1.04-5.9.37,0,.81,2.93.97,5.95.22,3.02.15,6.11.16,6.37-.92,14.31-3.35,28.45-6.64,42.36-1.66,6.95-3.53,13.85-5.65,20.67-2.12,6.82-4.45,13.59-7.2,20.22-.11.23-1.42,3.04-3.01,5.65-.79,1.3-1.65,2.56-2.42,3.43-.74.88-1.43,1.31-1.55,1.18-.16-.15.2-.77.62-1.79.44-.99,1-2.34,1.54-3.72,1.08-2.76,2.08-5.62,2.18-5.85Z"/><path class="cls-2" d="M217.7,255.98l-.55-.71-.33-.41c-.17-.22-.37-.42-.55-.64-.37-.43-.76-.84-1.16-1.25-.78-.83-1.65-1.59-2.48-2.38-1.74-1.5-3.55-2.93-5.45-4.24-.97-.63-1.91-1.3-2.9-1.89l-3-1.73c-2.07-1.02-4.11-2.12-6.28-2.94-1.08-.42-2.12-.94-3.23-1.27l-3.3-1.1c-1.09-.4-2.23-.62-3.35-.93-1.13-.28-2.24-.59-3.38-.85l-3.43-.62c-1.15-.19-2.28-.46-3.44-.54l-3.47-.37c-1.16-.13-2.31-.26-3.48-.27l-3.49-.12c-1.16-.04-2.33-.1-3.48-.04-2.31.03-4.63.2-6.93.46-4.6.53-9.16,1.49-13.59,2.86-8.87,2.73-17.25,7.02-24.76,12.49-3.75,2.73-7.29,5.77-10.5,9.11-3.22,3.33-6.15,6.95-8.52,10.88-1.17,1.97-2.21,4-3.01,6.11l-.53,1.59c-.15.53-.27,1.07-.41,1.61-.11.54-.18,1.07-.27,1.61l-.02.1v.19s-.03.39-.03.39l-.04.79-.04.79-.02.39v.2c-.02.06,0,.15-.1.13l-3.06.02h-1.8c-1.2-.03-2.4,0-3.6-.11-1.2-.08-2.4-.13-3.59-.23l-3.58-.4c-19.08-2.4-37.17-11.47-50.75-25.03-13.57-13.58-22.63-31.66-25.03-50.75l-.4-3.58c-.1-1.2-.15-2.4-.23-3.59-.1-1.2-.08-2.4-.09-3.6v-1.8s0-3.06,0-3.06c-.03-.1.06-.08.13-.09h.2s.39-.03.39-.03l.79-.04.79-.04.39-.02h.19s.1-.03.1-.03c.54-.09,1.07-.16,1.61-.27.54-.14,1.07-.26,1.61-.41l1.59-.53c2.11-.79,4.14-1.84,6.11-3.01,3.93-2.37,7.55-5.3,10.88-8.52,3.34-3.21,6.38-6.75,9.11-10.5,5.47-7.51,9.76-15.89,12.49-24.76,1.36-4.43,2.33-8.99,2.86-13.59.26-2.3.43-4.61.46-6.93.06-1.15,0-2.32-.04-3.48l-.12-3.49c0-1.17-.14-2.32-.27-3.48l-.37-3.47c-.08-1.16-.35-2.3-.54-3.44l-.62-3.43c-.25-1.13-.57-2.25-.85-3.38-.31-1.12-.52-2.26-.93-3.35l-1.1-3.3c-.33-1.11-.85-2.15-1.27-3.23-.82-2.17-1.92-4.21-2.94-6.28l-1.73-3c-.59-.99-1.26-1.93-1.89-2.9-1.31-1.9-2.73-3.71-4.24-5.45-.79-.83-1.54-1.7-2.38-2.48-.4-.4-.82-.8-1.25-1.16-.21-.18-.42-.39-.64-.55l-.41-.33-.71-.55s-.11-.08-.19-.14c0-1.05.06-5.86.12-12.51.09-6.25.2-14.21.31-22.11.13-7.86.28-15.6.45-21.37.17-5.77.35-9.58.55-9.58s.38,3.81.55,9.58c.17,5.77.32,13.51.45,21.37.2,15.5.4,31.3.43,33.23h0,0s.28.22.28.22c.25.2.47.41.7.61.47.4.91.82,1.34,1.25.89.83,1.69,1.75,2.52,2.63,1.59,1.83,3.08,3.74,4.45,5.73.66,1.01,1.36,2,1.97,3.04l1.81,3.14c1.07,2.16,2.21,4.29,3.07,6.54.43,1.12.97,2.21,1.32,3.36l1.14,3.42c.42,1.13.65,2.31.96,3.47.29,1.17.61,2.32.87,3.5l.64,3.54c.2,1.18.47,2.36.56,3.55l.38,3.58c.14,1.19.27,2.38.28,3.58l.13,3.59c.04,1.2.1,2.39.04,3.6-.03,2.41-.2,4.81-.47,7.2-.55,4.78-1.55,9.51-2.96,14.1-2.83,9.19-7.26,17.85-12.92,25.61-2.83,3.88-5.97,7.54-9.43,10.87-3.46,3.35-7.22,6.4-11.39,8.91-2.09,1.24-4.27,2.37-6.59,3.24l-1.77.59c-.6.17-1.22.31-1.82.47-.62.13-1.25.21-1.88.32l-.12.02h-.03s-.05,0-.05,0h-.1s-.18.02-.18.02l.02,2.22c.01,1.16,0,2.32.09,3.48.08,1.16.12,2.32.22,3.48l.39,3.46c2.32,18.46,11.09,35.95,24.22,49.1,13.15,13.13,30.64,21.9,49.1,24.22l3.46.39c1.16.1,2.32.15,3.48.22,1.16.1,2.32.08,3.48.09l2.22.02v-.18s.02-.1.02-.1v-.05s0-.03,0-.03l.02-.12c.1-.63.18-1.26.32-1.88.16-.61.3-1.22.47-1.82l.59-1.77c.87-2.32,2-4.5,3.24-6.59,2.52-4.17,5.57-7.93,8.91-11.39,3.34-3.47,6.99-6.61,10.87-9.43,7.76-5.65,16.42-10.09,25.61-12.92,4.59-1.41,9.32-2.42,14.1-2.96,2.39-.27,4.79-.44,7.2-.47,1.21-.06,2.4,0,3.6.04l3.59.13c1.2,0,2.39.14,3.58.28l3.58.38c1.2.09,2.37.36,3.55.56l3.54.64c1.17.26,2.33.58,3.5.87,1.16.32,2.34.55,3.47.96l3.42,1.14c1.15.35,2.24.89,3.36,1.32,2.25.86,4.38,2,6.54,3.07l3.14,1.81c1.04.62,2.02,1.32,3.04,1.97,1.99,1.37,3.89,2.87,5.73,4.45.88.84,1.8,1.63,2.63,2.52.43.43.85.88,1.25,1.34.2.23.41.45.61.7l.23.28h0s0,0,0,0c1.93.02,17.73.23,33.23.43,7.86.13,15.6.28,21.37.45,5.77.17,9.58.35,9.58.55s-3.81.38-9.58.55c-5.77.17-13.51.32-21.37.45-7.9.11-15.87.22-22.11.31-6.65.06-11.47.11-12.51.12-.06-.08-.1-.14-.14-.19Z"/></g><g id="Corner_5_Shape" class="cls-1"><path class="cls-2" d="M52.86,139.7c0,32.61-26.92,58.11-40.51,58.11,0,.36,0,.71,0,1.07-.74,39.93,31.87,72.54,71.8,71.8.36,0,.71,0,1.07,0,0-13.59,25.5-40.51,58.11-40.51,22.06-22.06-68.4-112.52-90.46-90.46Z"/></g></g></svg>