<?xml version="1.0" encoding="UTF-8"?><svg id="Line" xmlns="http://www.w3.org/2000/svg" viewBox="0 0 299.83 299.83"><defs><style>.cls-1{opacity:.24;}.cls-2{fill:#fff;stroke-width:0px;}</style></defs><g id="Corner_7"><g id="Corner_7_Lines"><path class="cls-2" d="M58.69,277.47h196.24c.14.71.26,1.42.44,2.14.09.33.16.65.27.97.19.65.42,1.28.66,1.92.23.64.53,1.24.79,1.87l.94,1.8c1.33,2.34,3.06,4.45,5.13,6.11,4.11,3.4,9.56,4.89,14.99,4.68,5.39-.12,10.77-2.06,14.51-5.8,1.85-1.86,3.29-4.14,3.94-6.61.65-2.46.46-5.09-.74-7.23-.04-.07-.14-.25-.28-.51-.18-.24-.39-.59-.71-.97-.61-.78-1.64-1.7-3.07-2.5-1.42-.77-3.3-1.62-5-1.4-.84.1-1.58.47-2.11,1.16-.55.68-.86,1.64-.95,2.63-.07.99.07,2.03.46,2.86.2.41.46.75.75.95.3.21.58.27.99.22.36-.05.6-.18.76-.41.16-.23.21-.6.15-.96-.12-.73-.64-1.34-1.24-1.42-.65-.14-1.21.15-1.42.61-.21.48-.08,1.01.17,1.32.55.65,1.24.61,1.21.74,0,.05-.14.09-.43.11-.27-.02-.74-.06-1.19-.46-.44-.38-.8-1.14-.56-2,.22-.89,1.31-1.57,2.36-1.43,1.14.07,2.14,1.05,2.42,2.23.15.59.16,1.3-.19,1.97-.34.68-1.09,1.14-1.78,1.26-.64.16-1.52.07-2.16-.34-.65-.39-1.11-.96-1.44-1.55-.66-1.19-.89-2.5-.88-3.81.05-1.31.36-2.67,1.19-3.84.79-1.19,2.19-1.99,3.52-2.19,1.34-.23,2.59-.04,3.68.26,1.09.32,2.05.71,2.93,1.16,1.76.9,3.11,2.02,3.95,3,.43.48.73.93.97,1.24.2.35.34.58.4.67,1.61,2.86,1.82,6.32,1.01,9.34-.81,3.05-2.53,5.74-4.69,7.91-4.36,4.36-10.49,6.5-16.44,6.64-.75.05-1.49,0-2.24-.05l-2.24-.14c-.74-.08-1.48-.26-2.22-.39-.74-.15-1.49-.25-2.2-.53l-2.15-.72c-.7-.3-1.37-.66-2.05-.99-.7-.3-1.32-.74-1.96-1.17-.63-.42-1.28-.82-1.84-1.35-2.36-1.91-4.31-4.3-5.8-6.9-.35-.66-.71-1.32-1.04-1.99-.29-.69-.63-1.36-.88-2.06-.27-.7-.52-1.4-.73-2.12-.12-.35-.2-.73-.3-1.09v.02s-193.91,0-193.91,0c-1.57,0-37.76-.64-37.76-1.43s36.19-1.43,37.76-1.43Z"/><path class="cls-2" d="M230.64,286.54h-21.11c.11-.04-.25.1-.48.18l-.73.25c-.49.15-.97.31-1.46.45-.97.29-1.95.53-2.92.77-1.95.47-3.91.85-5.88,1.19-3.93.68-7.88,1.14-11.84,1.48-7.92.64-15.83.87-23.77.61-7.93-.28-15.85-1.08-23.68-2.52-3.91-.73-7.8-1.6-11.64-2.76-1.92-.58-3.82-1.23-5.71-2.02-.94-.41-1.88-.83-2.81-1.37-.47-.27-.93-.55-1.39-.91-.46-.36-.92-.72-1.39-1.46l-3.38-.05c-1.29,0-2.58-.09-3.87-.14-2.58-.09-5.15-.31-7.72-.49-5.13-.45-10.25-1.01-15.34-1.7-10.19-1.35-20.29-3.04-30.42-4.34-.53-.06-6.82-1.08-13.02-1.87-6.19-.82-12.29-1.39-12.28-1.8,0-.38,6.17-.52,12.46-.21,6.29.28,12.68.99,13.21,1.05,10.2,1.31,20.3,2.99,30.43,4.34,5.06.69,10.13,1.24,15.2,1.69,2.54.18,5.07.4,7.61.48,1.27.05,2.54.14,3.81.14l4.3.07.71.71.71.71c.03-.1.05,0,.07,0l.06.07s.08.1.15.17c.13.12.25.24.43.36.31.25.69.48,1.08.7.77.45,1.64.84,2.5,1.22,1.75.73,3.57,1.36,5.42,1.92,3.7,1.12,7.5,1.97,11.33,2.69,7.66,1.41,15.45,2.2,23.26,2.48,7.79.26,15.65.03,23.43-.6,3.89-.34,7.76-.79,11.59-1.45,1.91-.33,3.82-.7,5.69-1.16.94-.23,1.87-.46,2.79-.73.46-.13.91-.28,1.36-.42l.66-.23c.24-.08.33-.12.9-.35h21.66c1.06,0,25.59.64,25.59,1.43s-24.53,1.43-25.59,1.43Z"/><path class="cls-2" d="M19.5,241.14V47.23h.02c-.36-.09-.73-.18-1.09-.3-.72-.21-1.43-.46-2.12-.73-.7-.25-1.38-.59-2.06-.88-.67-.33-1.33-.69-1.99-1.04-2.6-1.48-4.99-3.43-6.9-5.8-.52-.55-.92-1.2-1.35-1.84-.42-.63-.86-1.26-1.17-1.96-.33-.68-.69-1.36-.99-2.05l-.72-2.15c-.28-.71-.38-1.46-.53-2.2-.13-.74-.31-1.48-.39-2.22l-.14-2.24c-.05-.75-.1-1.49-.05-2.24C.16,15.64,2.3,9.51,6.66,5.15,8.83,2.99,11.52,1.27,14.57.46c3.02-.81,6.48-.61,9.34,1.01.1.06.32.19.67.4.32.24.76.54,1.24.97.98.84,2.11,2.19,3,3.95.45.88.84,1.84,1.16,2.93.3,1.09.5,2.33.26,3.68-.2,1.33-1.01,2.73-2.19,3.52-1.17.83-2.53,1.15-3.84,1.19-1.31.02-2.62-.22-3.81-.88-.59-.33-1.15-.79-1.55-1.44-.41-.64-.5-1.52-.34-2.16.12-.69.58-1.44,1.26-1.78.67-.35,1.38-.34,1.97-.19,1.18.29,2.16,1.28,2.23,2.42.14,1.05-.54,2.13-1.43,2.36-.87.24-1.62-.12-2-.56-.4-.45-.44-.92-.46-1.19.02-.29.06-.43.11-.43.13-.03.09.66.74,1.21.32.25.85.38,1.32.17.46-.21.74-.77.61-1.42-.08-.6-.7-1.12-1.42-1.24-.36-.06-.72,0-.96.15-.23.15-.36.4-.41.76-.05.41.01.69.22.99.2.29.54.55.95.75.83.4,1.87.54,2.86.46.99-.09,1.96-.4,2.63-.95.69-.53,1.06-1.28,1.16-2.11.22-1.7-.64-3.58-1.4-5-.81-1.43-1.73-2.46-2.5-3.07-.38-.32-.73-.53-.97-.71-.27-.15-.44-.24-.51-.28-2.13-1.2-4.77-1.39-7.23-.74-2.47.65-4.76,2.09-6.61,3.94-3.75,3.75-5.68,9.13-5.8,14.51-.2,5.43,1.29,10.88,4.68,14.99,1.67,2.07,3.77,3.8,6.11,5.13l1.8.94c.62.26,1.23.57,1.87.79.63.24,1.27.47,1.92.66.32.11.64.18.97.27.72.18,1.43.3,2.14.44v196.24c0,1.57-.64,37.76-1.43,37.76s-1.43-36.19-1.43-37.76Z"/><path class="cls-2" d="M26.14,244.72c-1.3-10.13-2.98-20.23-4.34-30.42-.69-5.09-1.25-10.21-1.7-15.34-.19-2.57-.4-5.14-.49-7.72-.05-1.29-.14-2.58-.14-3.87l-.05-3.38c-.73-.47-1.1-.93-1.46-1.39-.36-.46-.64-.93-.91-1.39-.54-.93-.96-1.87-1.37-2.81-.79-1.88-1.44-3.79-2.02-5.71-1.16-3.84-2.03-7.73-2.76-11.64-1.44-7.83-2.24-15.74-2.52-23.68-.26-7.94-.03-15.85.61-23.77.35-3.96.81-7.91,1.48-11.84.34-1.96.72-3.93,1.19-5.88.24-.98.48-1.95.77-2.92.13-.49.29-.97.45-1.46l.25-.73c.08-.23.22-.59.18-.48v-21.1c0-1.06.64-25.59,1.43-25.59s1.43,24.53,1.43,25.59v21.65c-.23.57-.26.66-.34.9l-.23.66c-.14.45-.29.9-.42,1.36-.27.92-.51,1.85-.73,2.79-.45,1.88-.82,3.78-1.16,5.7-.66,3.83-1.11,7.71-1.45,11.59-.63,7.77-.86,15.63-.6,23.43.28,7.8,1.07,15.59,2.48,23.26.71,3.83,1.57,7.63,2.69,11.33.56,1.85,1.18,3.67,1.92,5.42.38.86.76,1.73,1.22,2.5.22.38.46.77.7,1.08.12.18.24.3.36.43.06.08.12.12.17.15l.07.06s.1.04,0,.07l.71.71.71.71.07,4.3c0,1.27.09,2.54.14,3.81.09,2.54.3,5.08.48,7.61.45,5.07,1,10.14,1.69,15.2,1.34,10.13,3.03,20.23,4.34,30.43.06.53.77,6.91,1.05,13.21.31,6.29.17,12.45-.21,12.46-.41.01-.98-6.09-1.8-12.28-.79-6.19-1.81-12.49-1.87-13.02Z"/><path class="cls-2" d="M47.9,261.35c6.11-.21,12.17.19,18.19.77,6.02.58,12,1.4,17.95,2.32,5.96.93,11.89,1.96,17.8,3.09l17.69,3.46c11.75,2.23,23.63,3.89,35.53,4.34,5.94.2,11.9.07,17.72-.8,2.9-.45,5.77-1.06,8.52-1.97,2.72-.95,5.34-2.19,7.48-3.93.08-.06.39-.27.8-.66.21-.19.46-.41.74-.67.26-.27.51-.59.81-.92.57-.68,1.11-1.54,1.55-2.52.39-.99.73-2.1.75-3.25.07-.57-.02-1.14-.03-1.71-.11-.56-.16-1.12-.34-1.64-.27-1.06-.75-1.98-1.19-2.75-.93-1.52-1.92-2.27-1.8-2.46.07-.15,1.35.31,2.69,1.79.64.75,1.33,1.71,1.81,2.88.28.57.43,1.21.63,1.86.11.66.28,1.34.27,2.03.11,1.39-.16,2.8-.55,4.07-.44,1.26-1.03,2.39-1.66,3.27-.33.43-.62.85-.91,1.19-.31.33-.59.61-.83.86-.46.51-.81.76-.9.84-2.53,2.05-5.44,3.4-8.38,4.42-2.96.98-5.98,1.62-9.02,2.09-6.07.91-12.18,1.03-18.24.83-12.12-.46-24.12-2.14-35.96-4.38l-17.69-3.46c-5.89-1.12-11.79-2.15-17.71-3.07-5.92-.92-11.85-1.73-17.79-2.3-5.94-.57-11.9-.96-17.8-.75-.21,0-1.59,0-3.52.11-1.93.1-4.42.32-6.78.88-2.37.53-4.57,1.5-5.87,2.68-1.35,1.14-1.8,2.33-2.02,2.24-.15-.02-.07-1.42,1.22-3,1.23-1.62,3.62-3.03,6.1-3.85,2.5-.87,5.1-1.31,7.11-1.56,2.01-.25,3.43-.34,3.65-.34Z"/><path class="cls-2" d="M35.73,251.93c.21-5.9-.18-11.86-.75-17.8-.58-5.94-1.38-11.87-2.3-17.79-.92-5.92-1.95-11.82-3.07-17.71l-3.46-17.69c-2.25-11.85-3.92-23.84-4.38-35.96-.2-6.06-.08-12.16.83-18.24.47-3.03,1.11-6.06,2.09-9.02,1.03-2.94,2.37-5.85,4.42-8.38.07-.09.33-.44.84-.9.24-.23.53-.51.86-.83.34-.29.76-.58,1.19-.91.88-.63,2.01-1.22,3.27-1.66,1.27-.39,2.68-.66,4.07-.55.7,0,1.37.16,2.03.27.65.2,1.29.35,1.86.63,1.17.47,2.13,1.17,2.88,1.81,1.49,1.34,1.94,2.62,1.79,2.69-.19.12-.94-.87-2.46-1.8-.77-.44-1.69-.92-2.75-1.19-.52-.18-1.08-.23-1.64-.34-.57-.02-1.14-.11-1.71-.04-1.15.02-2.25.36-3.25.75-.98.44-1.84.98-2.52,1.55-.33.3-.66.55-.92.81-.25.28-.48.53-.67.74-.4.4-.6.72-.66.8-1.74,2.15-2.98,4.76-3.93,7.48-.91,2.75-1.52,5.62-1.97,8.52-.87,5.82-1,11.78-.8,17.72.45,11.9,2.1,23.77,4.34,35.53l3.46,17.69c1.12,5.91,2.16,11.85,3.09,17.8.93,5.96,1.74,11.94,2.32,17.95.58,6.02.98,12.07.77,18.19,0,.22-.09,1.64-.34,3.65-.25,2.01-.7,4.61-1.56,7.11-.83,2.49-2.23,4.88-3.85,6.1-1.58,1.29-2.98,1.37-3,1.22-.09-.22,1.1-.67,2.24-2.02,1.18-1.29,2.15-3.5,2.68-5.87.56-2.36.78-4.85.88-6.78.1-1.93.11-3.3.11-3.52Z"/></g><g id="Corner_7_Shape" class="cls-1"><path class="cls-2" d="M74.85,189.52c-7.27-7.27-31.2-12.17-43.37,0-12.17,12.17-7.31,26.93-7.31,26.93l-19.72,19.72,13.05,46.17,46.17,13.05,19.72-19.72s14.76,4.86,26.93-7.31c12.17-12.17,7.27-36.1,0-43.37,13.3-13.3,7.47-42.93,21.81-57.27-14.35,14.35-43.97,8.51-57.27,21.81Z"/></g></g></svg>