<?xml version="1.0" encoding="UTF-8"?><svg id="Line" xmlns="http://www.w3.org/2000/svg" viewBox="0 0 298.43 298.43"><defs><style>.cls-1{opacity:.24;}.cls-1,.cls-2{fill:#fff;stroke-width:0px;}</style></defs><g id="Corner_8"><g id="Corner_8_Lines"><path class="cls-2" d="M66.6,254.09c8.04-.28,16.02.25,23.95,1.01,7.94.77,15.82,1.84,23.68,3.06,7.86,1.22,15.69,2.59,23.5,4.07l23.36,4.57c15.54,2.95,31.24,5.14,46.99,5.74l5.9.11,5.89-.12,5.87-.36c1.94-.24,3.89-.4,5.82-.7,1.92-.34,3.86-.59,5.74-1.08.94-.24,1.91-.4,2.82-.7l2.77-.84c3.63-1.26,7.13-2.92,10.03-5.26.11-.08.53-.36,1.07-.9.28-.26.61-.57.99-.91.35-.36.69-.81,1.09-1.26.76-.93,1.48-2.11,2.07-3.45.51-1.35.95-2.86.96-4.42.09-.78-.05-1.55-.08-2.31-.16-.75-.24-1.51-.5-2.2-.39-1.42-1.06-2.64-1.68-3.65-1.29-2-2.65-2.95-2.52-3.14.06-.14,1.7.51,3.41,2.48.82.99,1.7,2.25,2.29,3.78.35.74.54,1.58.78,2.42.12.86.34,1.74.31,2.63.12,1.8-.25,3.61-.76,5.24-.58,1.62-1.35,3.06-2.18,4.2-.43.55-.81,1.09-1.19,1.53-.41.42-.77.79-1.08,1.1-.6.65-1.06.98-1.18,1.08-3.28,2.66-7.07,4.42-10.92,5.76l-2.92.89c-.97.31-1.97.48-2.95.73-1.97.51-3.97.77-5.95,1.12-1.99.31-4,.47-5.99.72l-6.01.37-6.01.12-6-.11c-15.97-.61-31.8-2.82-47.42-5.78l-23.36-4.57c-7.78-1.48-15.59-2.84-23.41-4.06-7.82-1.22-15.66-2.28-23.52-3.04-7.85-.75-15.75-1.27-23.57-1-.28,0-2.1.03-4.66.18-2.56.16-5.87.49-9.01,1.27-3.15.75-6.09,2.1-7.79,3.73-1.78,1.57-2.31,3.18-2.54,3.08-.14-.01.03-1.82,1.74-3.84,1.63-2.07,4.76-3.86,8.02-4.9,3.28-1.09,6.7-1.65,9.33-1.96,2.64-.31,4.51-.41,4.8-.42Z"/><path class="cls-2" d="M41.48,231.72c.28-7.83-.24-15.72-1-23.57-.76-7.86-1.83-15.7-3.04-23.52-1.22-7.82-2.58-15.62-4.06-23.41l-4.57-23.36c-2.97-15.63-5.18-31.45-5.78-47.42l-.11-6,.12-6.01.37-6.01c.24-2,.41-4,.72-5.99.35-1.99.61-3.99,1.12-5.95.25-.98.41-1.98.73-2.95l.89-2.92c1.34-3.85,3.1-7.64,5.76-10.92.09-.12.42-.57,1.08-1.18.31-.31.68-.67,1.1-1.08.44-.38.98-.76,1.53-1.19,1.14-.83,2.58-1.6,4.2-2.18,1.64-.51,3.45-.88,5.24-.76.9-.02,1.78.19,2.63.31.84.25,1.67.43,2.42.78,1.53.59,2.79,1.47,3.78,2.29,1.97,1.71,2.62,3.35,2.48,3.41-.2.13-1.14-1.23-3.14-2.52-1.01-.62-2.23-1.28-3.65-1.68-.69-.25-1.45-.34-2.2-.5-.77-.04-1.54-.17-2.31-.08-1.55.01-3.06.45-4.42.96-1.34.58-2.52,1.3-3.45,2.07-.46.4-.9.74-1.26,1.09-.35.37-.65.71-.91.99-.54.54-.82.96-.9,1.07-2.35,2.9-4,6.4-5.26,10.03l-.84,2.77c-.3.92-.46,1.88-.7,2.82-.49,1.88-.74,3.82-1.08,5.74-.3,1.93-.46,3.88-.7,5.82l-.36,5.87-.12,5.89.11,5.9c.6,15.75,2.79,31.45,5.74,46.99l4.57,23.36c1.48,7.81,2.85,15.64,4.07,23.5,1.22,7.86,2.29,15.75,3.06,23.68.76,7.93,1.29,15.91,1.01,23.95,0,.29-.11,2.16-.42,4.8-.31,2.64-.86,6.06-1.96,9.33-1.04,3.27-2.83,6.39-4.9,8.02-2.02,1.71-3.83,1.88-3.84,1.74-.1-.23,1.51-.77,3.08-2.54,1.63-1.7,2.98-4.64,3.73-7.79.79-3.14,1.12-6.45,1.27-9.01.16-2.56.18-4.39.18-4.66Z"/><path class="cls-2" d="M20.55,246.3c1.84-4.07,2.79-8.58,3.27-13.11.47-4.55.5-9.16-.15-13.65-.63-4.5-1.86-8.93-3.73-13.05-.94-2.05-2.03-4.03-3.34-5.81-.65-.88-1.37-1.71-2.13-2.39-.38-.35-.78-.64-1.17-.86-.18-.11-.39-.2-.6-.27-.2-.04-.59-.08-.88-.12l-.91-.09-.16-4.73-.35-3.49-.55-3.48-.71-3.46c-1.04-4.61-2.43-9.17-3.79-13.78-1.36-4.6-2.71-9.25-3.71-14.01-1-4.76-1.63-9.64-1.64-14.56,0-4.92.64-9.8,1.64-14.56,1-4.77,2.34-9.41,3.71-14.02,1.36-4.6,2.75-9.17,3.79-13.78l.71-3.46.55-3.48.35-3.49.16-4.73.91-.09c.29-.04.67-.08.88-.12.22-.07.42-.16.6-.27.39-.22.79-.51,1.17-.86.77-.68,1.48-1.51,2.13-2.39,1.31-1.77,2.41-3.75,3.34-5.81,1.87-4.12,3.1-8.55,3.73-13.05.64-4.49.61-9.1.15-13.65-.48-4.52-1.43-9.04-3.27-13.11-.07-.12-.24-.58-.57-1.23-.16-.34-.36-.71-.6-1.14-.12-.21-.25-.42-.39-.65-.07-.11-.15-.23-.23-.35-.17-.22-.34-.45-.52-.68.03-1.25.06-2.69.09-4.25.04-1.37.08-2.85.12-4.39.1-3,.21-6.2.31-9.22.23-5.89.52-10.65.83-10.65s.59,4.76.83,10.65c.1,3.02.21,6.22.31,9.22.08,2.91.15,5.61.21,7.71.02.02,0-.03.05.06.09.13.19.26.28.38.17.26.33.51.49.74.29.47.54.9.73,1.26.41.72.61,1.21.68,1.35,2.02,4.47,3,9.24,3.51,13.99.16,1.19.18,2.38.28,3.58.05,1.19.06,2.38.08,3.58,0,2.4-.18,4.81-.52,7.19-.67,4.76-1.96,9.43-3.96,13.84-1,2.2-2.18,4.33-3.65,6.33-.74.99-1.55,1.95-2.53,2.83-.48.44-1.03.85-1.65,1.21-.32.19-.65.33-.99.46l-.04.02c.02-.56-.04,1.36-.09,2.45l-.37,3.66-.57,3.62c-.25,1.19-.47,2.39-.74,3.58-1.08,4.75-2.48,9.37-3.84,13.96-2.74,9.15-5.24,18.37-5.23,27.76-.01,9.39,2.49,18.61,5.23,27.76,1.36,4.59,2.76,9.21,3.84,13.96.26,1.19.49,2.39.74,3.58l.57,3.62.37,3.66c.04,1.09.11,3.02.09,2.45l.04.02c.34.13.67.27.99.46.63.36,1.17.77,1.65,1.21.98.88,1.79,1.83,2.53,2.83,1.47,1.99,2.65,4.13,3.65,6.33,2,4.4,3.29,9.08,3.96,13.84.33,2.38.51,4.78.52,7.19-.02,1.19-.04,2.39-.08,3.58-.1,1.19-.12,2.39-.28,3.58-.51,4.75-1.49,9.52-3.51,13.99-.07.14-.27.63-.68,1.35-.19.37-.44.79-.73,1.26-.15.23-.32.48-.49.74-.09.12-.18.25-.28.38-.06.08-.03.03-.05.06-.06,2.1-.13,4.8-.21,7.71-.1,3-.21,6.2-.31,9.22-.23,5.89-.52,10.65-.83,10.65s-.59-4.76-.83-10.65c-.1-3.02-.21-6.22-.31-9.22-.04-1.53-.08-3.01-.12-4.39-.03-1.56-.06-2.99-.09-4.25.18-.23.35-.46.52-.68.08-.12.16-.23.23-.35.14-.23.27-.45.39-.65.24-.43.44-.8.6-1.14.34-.66.51-1.11.57-1.23Z"/><path class="cls-2" d="M50.95,275.28c4.47-2.02,9.24-3,13.99-3.51,1.19-.16,2.38-.18,3.58-.28,1.19-.05,2.38-.06,3.58-.08,2.4,0,4.81.18,7.19.52,4.76.67,9.43,1.96,13.84,3.96,2.2,1,4.33,2.18,6.33,3.65.99.74,1.95,1.55,2.83,2.53.44.48.85,1.03,1.21,1.65.19.32.33.65.46.99l.02.04c-.56-.02,1.36.04,2.45.09l3.66.37,3.62.57c1.19.25,2.39.47,3.58.74,4.75,1.08,9.37,2.48,13.96,3.84,9.15,2.74,18.37,5.24,27.76,5.23,9.39.01,18.61-2.49,27.76-5.23,4.59-1.36,9.21-2.76,13.96-3.84,1.19-.26,2.39-.49,3.58-.74l3.62-.57,3.66-.37c1.09-.04,3.02-.11,2.45-.09l.02-.04c.12-.34.27-.67.46-.99.36-.63.77-1.17,1.21-1.65.88-.98,1.83-1.79,2.83-2.53,1.99-1.47,4.13-2.65,6.33-3.65,4.4-2,9.08-3.29,13.84-3.96,2.38-.33,4.78-.51,7.19-.52,1.19.02,2.39.04,3.58.08,1.19.1,2.39.12,3.58.28,4.75.51,9.52,1.49,13.99,3.51.14.07.63.27,1.35.68.37.19.79.44,1.26.73.23.15.48.32.74.49.12.09.25.18.38.28.08.06.03.03.06.05,2.1.06,4.8.13,7.71.21,3,.1,6.2.21,9.22.31,5.89.23,10.65.52,10.65.83s-4.76.59-10.65.83c-3.02.1-6.22.21-9.22.31-1.53.04-3.01.08-4.39.12-1.56.03-2.99.06-4.25.09-.23-.18-.46-.35-.68-.52-.12-.08-.23-.16-.35-.23-.23-.14-.45-.27-.65-.39-.43-.24-.8-.44-1.14-.6-.66-.34-1.11-.51-1.23-.57-4.07-1.84-8.58-2.79-13.11-3.27-4.55-.47-9.16-.5-13.65.15-4.5.63-8.93,1.86-13.05,3.73-2.05.94-4.03,2.03-5.81,3.34-.88.65-1.71,1.37-2.39,2.13-.35.38-.64.78-.86,1.17-.11.18-.2.39-.27.6-.04.2-.08.59-.12.88l-.09.91-4.73.16-3.49.35-3.48.55-3.46.71c-4.61,1.04-9.17,2.43-13.78,3.79-4.6,1.36-9.25,2.71-14.02,3.71-4.76,1-9.64,1.63-14.56,1.64-4.92,0-9.8-.64-14.56-1.64-4.76-1-9.41-2.34-14.01-3.71-4.6-1.36-9.17-2.75-13.78-3.79l-3.46-.71-3.48-.55-3.49-.35-4.73-.16-.09-.91c-.04-.29-.08-.67-.12-.88-.07-.22-.16-.42-.27-.6-.22-.39-.51-.79-.86-1.17-.68-.77-1.51-1.48-2.39-2.13-1.77-1.31-3.75-2.41-5.81-3.34-4.12-1.87-8.55-3.1-13.05-3.73-4.49-.64-9.1-.61-13.65-.15-4.53.48-9.04,1.43-13.11,3.27-.12.07-.58.24-1.23.57-.34.16-.71.36-1.14.6-.21.12-.42.25-.65.39-.11.07-.23.15-.35.23-.22.17-.45.34-.68.52-1.25-.03-2.69-.06-4.25-.09-1.37-.04-2.85-.08-4.39-.12-3-.1-6.2-.21-9.22-.31-5.89-.23-10.65-.52-10.65-.83s4.76-.59,10.65-.83c3.02-.1,6.22-.21,9.22-.31,2.91-.08,5.61-.15,7.71-.21.02-.02-.03,0,.06-.05.13-.09.26-.19.38-.28.26-.17.51-.33.74-.49.47-.29.9-.54,1.26-.73.72-.41,1.21-.61,1.35-.68Z"/><path class="cls-2" d="M51.83,251.28c-1.47,1.34-2.83,2.79-4.04,4.33-1.2,1.54-2.26,3.2-2.94,4.93-.68,1.72-.92,3.52-.39,5.02.49,1.52,1.89,2.67,3.52,3.5,3.4,1.57,7.46,2.09,11.46,2.27,1,.08,2.02.05,3.03.06,1.01.01,2.02.01,3.04-.06l6.1-.3c8.12-.67,16.19-2,24.12-3.93,7.92-1.98,15.67-4.63,23.2-7.76,7.53-3.15,14.85-6.83,21.82-11.08,6.95-4.26,13.65-9,19.66-14.46,2.99-2.74,5.9-5.57,8.28-8.78,2.39-3.16,4.38-6.7,4.96-10.4.3-1.84.13-3.68-.52-5.33-.66-1.64-1.82-3.09-3.3-4.17-2.97-2.21-6.94-3.12-10.77-3.01-.28.02-2.11.01-4.7.41-2.58.4-5.92,1.22-9.02,2.53-1.54.66-3.04,1.41-4.25,2.31-.6.44-1.13.93-1.44,1.42-.31.48-.34.86-.05,1.2.29.35.8.61,1.25.79.45.19.88.3,1.23.42.71.19,1.12.32,1.12.43,0,.09-.44.15-1.21.14-.38-.03-.85-.05-1.39-.17-.54-.13-1.17-.28-1.8-.84-.32-.27-.57-.72-.64-1.21-.04-.49.08-1.01.29-1.39.4-.81.99-1.43,1.63-2.01,1.29-1.15,2.82-2.08,4.41-2.91,3.19-1.64,6.65-2.71,9.4-3.29,2.75-.57,4.77-.65,5.08-.67,4.35-.11,8.88.85,12.58,3.57,1.83,1.34,3.37,3.22,4.24,5.4.87,2.19,1.06,4.58.7,6.81-.33,2.24-1.11,4.33-2.08,6.27-.97,1.94-2.13,3.75-3.43,5.44-2.54,3.42-5.57,6.36-8.64,9.18-6.19,5.62-13.01,10.44-20.09,14.79-7.1,4.33-14.54,8.07-22.2,11.28-7.67,3.19-15.55,5.89-23.62,7.9-8.08,1.97-16.3,3.32-24.6,4.01l-6.24.31c-1.04.07-2.08.07-3.13.06-1.05,0-2.09.02-3.15-.06-4.19-.21-8.48-.67-12.6-2.56l-1.5-.87c-.48-.33-.93-.74-1.4-1.12-.43-.42-.81-.93-1.2-1.4-.29-.56-.65-1.09-.84-1.69-.85-2.43-.4-4.96.41-7.03.83-2.11,2.03-3.95,3.35-5.65,1.33-1.7,2.8-3.25,4.38-4.69.18-.15,1.05-.94,2.46-1.99,1.44-1.03,3.35-2.39,5.83-3.4.61-.26,1.29-.47,2.01-.63.4-.04.73-.15,1.2-.12l.67.05c.2.03.36.08.54.13.7.22,1.46.38,2.27,1.22.36.41.55.94.52,1.47-.02.52-.26,1.05-.51,1.41-.98,1.29-2.16,1.91-3.32,2.41-.31.13-.55.21-.94.32-.4.1-.79.17-1.15.15-.36,0-.69-.09-.96-.28-.29-.19-.38-.52-.46-.81-.16-.82.17-1.65.51-2.14.33-.47.7-.79,1.01-1.02.63-.46,1.06-.58,1.1-.5.05.08-.26.37-.71.92-.22.27-.48.62-.68,1.03-.17.38-.24.74-.13,1.11.04.13.09.28.25.33.14.05.31.04.46,0,.15-.03.29-.08.43-.14.14-.06.44-.19.65-.31.91-.49,1.92-1.24,2.42-2.06.3-.6.02-.78-1.25-1.06-.14-.02-.29-.06-.41-.06-.1,0-.2.01-.3.01-.19-.02-.48.1-.72.13-.52.16-1.04.35-1.56.61-2.07.99-3.83,2.38-5.1,3.39-1.27,1.05-2.05,1.82-2.22,1.95Z"/><path class="cls-2" d="M114.89,235.11c.58-1.6,1.68-2.62,2.78-3.44,1.12-.81,2.33-1.4,3.55-1.86,2.46-.9,4.98-1.31,7.49-1.5,2.5-.14,4.99-.18,7.57.24,1.28.18,2.59.56,3.88,1.19.64.32,1.28.76,1.83,1.33.27.31.56.59.75.97l.3.55c.09.19.14.4.2.59.49,1.64.12,3.21-.4,4.48-.54,1.28-1.24,2.42-2.03,3.44-1.56,2.07-3.39,3.78-5.29,5.4-3.81,3.21-7.97,5.85-12.25,8.24-2.14,1.19-4.33,2.29-6.54,3.34-2.22,1-4.42,2.05-6.66,2.98-4.46,1.94-9.01,3.69-13.61,5.29-4.6,1.62-9.27,3.01-14.01,4.21-4.74,1.19-9.54,2.17-14.42,2.75-.35.02-4.58.39-8.73.11-2.07-.11-4.11-.44-5.61-.77-1.49-.4-2.44-.74-2.4-.93s1.06-.23,2.54-.17c1.5-.01,3.48,0,5.48-.15,4-.23,8.04-.91,8.38-.93,4.73-.56,9.42-1.52,14.06-2.69,4.64-1.17,9.24-2.54,13.77-4.14,4.53-1.58,9.02-3.3,13.42-5.22,2.22-.92,4.39-1.96,6.58-2.94,2.16-1.03,4.29-2.1,6.38-3.25,4.16-2.32,8.19-4.89,11.79-7.93,1.78-1.52,3.5-3.14,4.85-4.94.7-.89,1.26-1.84,1.66-2.78.4-.94.53-1.88.31-2.58-.35-1.42-2.53-2.33-4.7-2.65-2.2-.37-4.58-.35-6.9-.21-2.31.17-4.6.56-6.69,1.33-1.04.38-2.03.88-2.86,1.49-.83.59-1.53,1.37-1.76,2.07-.02.05-.09.23-.13.47-.01.24-.01.46.22.72.22.27.84.52,1.62.56.37,0,.87-.01,1.34-.06.48-.04.96-.09,1.41-.17.44-.07.91-.19,1.17-.32l.07-.03s.02,0,.01,0c.01.02.11.11.17.14.2.19.38.16.29.17-.08.02-.11.06-.24.15-.06.05-.06.08-.14.16-.02.01-.01,0-.01,0-.02-.02-.07-.07-.14-.1-.63-.32-1.54-.46-2.24-.56-1.45-.18-2.47-.22-2.49-.43-.02-.18.95-.52,2.51-.68.79-.05,1.68-.14,2.83.19.15.05.31.12.49.23.17.12.41.28.57.69.16.46-.03.92-.21,1.14-.17.22-.34.35-.49.46-.6.4-1.12.57-1.66.75-.53.17-1.06.29-1.58.39-.52.11-1.01.19-1.61.24-1.14.07-2.42-.13-3.4-.94-1-.79-1.32-2.05-1.29-2.79.03-.77.19-1.2.22-1.31Z"/><path class="cls-2" d="M49.27,248.52c-1.44,1.57-2.99,3.05-4.69,4.38-1.7,1.32-3.54,2.52-5.65,3.35-2.07.82-4.6,1.27-7.03.41-.6-.19-1.13-.55-1.69-.84-.47-.39-.98-.77-1.4-1.2-.38-.46-.79-.91-1.12-1.4l-.87-1.5c-1.89-4.12-2.35-8.41-2.56-12.6-.08-1.05-.06-2.1-.06-3.15-.01-1.05-.01-2.1.06-3.13l.31-6.24c.69-8.29,2.04-16.52,4.01-24.6,2.01-8.07,4.71-15.95,7.9-23.62,3.21-7.66,6.95-15.1,11.28-22.2,4.34-7.08,9.17-13.9,14.79-20.09,2.82-3.07,5.75-6.1,9.18-8.64,1.68-1.29,3.5-2.46,5.44-3.43,1.94-.97,4.03-1.74,6.27-2.08,2.22-.36,4.62-.17,6.81.7,2.18.87,4.06,2.41,5.4,4.24,2.73,3.69,3.69,8.22,3.57,12.58-.02.3-.1,2.33-.67,5.08-.58,2.75-1.65,6.21-3.29,9.4-.82,1.59-1.75,3.13-2.91,4.41-.58.64-1.21,1.23-2.01,1.63-.38.21-.9.33-1.39.29-.48-.07-.94-.32-1.21-.64-.56-.63-.71-1.27-.84-1.8-.12-.54-.15-1.01-.17-1.39-.01-.77.05-1.2.14-1.21.1,0,.23.41.43,1.12.11.35.23.78.42,1.23.18.45.44.96.79,1.25.34.3.72.26,1.2-.05.49-.31.98-.85,1.42-1.44.9-1.21,1.65-2.71,2.31-4.25,1.31-3.1,2.13-6.44,2.53-9.02.39-2.59.38-4.42.41-4.7.11-3.83-.79-7.8-3.01-10.77-1.09-1.48-2.53-2.64-4.17-3.3-1.65-.65-3.49-.82-5.33-.52-3.7.58-7.24,2.57-10.4,4.96-3.21,2.37-6.04,5.28-8.78,8.28-5.46,6.01-10.2,12.7-14.46,19.66-4.25,6.97-7.93,14.29-11.08,21.82-3.14,7.54-5.79,15.28-7.76,23.2-1.94,7.93-3.26,16-3.93,24.12l-.3,6.1c-.07,1.02-.07,2.03-.06,3.04,0,1.01-.02,2.03.06,3.03.18,3.99.7,8.06,2.27,11.46.83,1.63,1.98,3.04,3.5,3.52,1.49.53,3.3.29,5.02-.39,1.73-.68,3.39-1.74,4.93-2.94,1.55-1.21,2.99-2.58,4.33-4.04.17-.22,1.5-1.53,3.06-3.63.77-1.05,1.61-2.29,2.27-3.66.16-.34.33-.69.44-1.04.06-.17.14-.35.18-.52l.11-.5c.06-.18,0-.28.03-.42.03-.11-.02-.32-.05-.5-.06-.37-.17-.72-.28-.99-.15-.4-.38-.5-.77-.3-.52.3-1.07.88-1.49,1.47-.22.3-.41.61-.58.92-.17.29-.33.68-.38.8-.07.18-.13.39-.12.6,0,.22.16.39.34.41.37.12.74.05,1.11-.12.42-.19.77-.45,1.04-.68.55-.46.84-.78.93-.72.08.05-.05.48-.51,1.12-.24.31-.56.68-1.03,1.02-.51.35-1.35.68-2.16.48-.42-.03-.81-.35-.94-.78-.15-.42-.13-.92-.03-1.44.12-.59.25-.91.41-1.31.16-.39.35-.78.57-1.15.45-.76.97-1.51,1.88-2.15.48-.34,1.27-.6,1.95-.42.35.08.65.27.93.51.13.13.25.26.37.41.09.13.17.26.25.4.28.51.44.99.56,1.46.13.4.2,1.12.15,1.64l-.11.77c-.04.25-.12.47-.18.7-.12.47-.29.89-.46,1.3-.68,1.64-1.52,3.03-2.28,4.22-1.55,2.35-2.91,3.81-3.1,4.05Z"/><path class="cls-2" d="M62.39,180.84c.7-.24,1.48-.94,2.07-1.76.61-.83,1.1-1.82,1.49-2.86.77-2.09,1.15-4.38,1.33-6.69.14-2.31.16-4.7-.21-6.9-.32-2.17-1.23-4.35-2.65-4.7-.7-.22-1.64-.08-2.58.31-.94.4-1.9.96-2.78,1.66-1.8,1.35-3.42,3.07-4.94,4.85-3.03,3.6-5.61,7.63-7.93,11.79-1.16,2.08-2.23,4.22-3.25,6.38-.98,2.19-2.02,4.36-2.94,6.58-1.92,4.4-3.64,8.89-5.22,13.42-1.6,4.53-2.96,9.13-4.14,13.77-1.16,4.64-2.12,9.33-2.69,14.06-.02.34-.69,4.38-.93,8.38-.15,2-.13,3.98-.15,5.48.06,1.48.02,2.5-.17,2.54s-.53-.91-.93-2.4c-.33-1.49-.66-3.54-.77-5.61-.28-4.15.09-8.38.11-8.73.58-4.88,1.57-9.68,2.75-14.42,1.2-4.73,2.59-9.41,4.21-14.01,1.61-4.6,3.35-9.15,5.29-13.61.93-2.25,1.98-4.44,2.98-6.66,1.05-2.21,2.15-4.4,3.34-6.54,2.39-4.28,5.04-8.44,8.24-12.25,1.61-1.89,3.33-3.73,5.4-5.29,1.01-.79,2.16-1.49,3.44-2.03,1.27-.52,2.84-.88,4.48-.4.2.06.4.12.59.2l.55.3c.38.19.66.48.97.75.57.56,1.01,1.19,1.33,1.83.63,1.28,1.01,2.6,1.19,3.88.42,2.58.38,5.07.24,7.57-.19,2.5-.6,5.03-1.5,7.49-.45,1.22-1.04,2.43-1.86,3.55-.82,1.1-1.85,2.2-3.44,2.78-.11.03-.55.2-1.31.22-.74.03-2-.29-2.79-1.29-.81-.98-1.01-2.25-.94-3.4.05-.6.14-1.09.24-1.61.1-.52.23-1.05.39-1.58.18-.54.34-1.06.75-1.66.11-.15.24-.32.46-.49.22-.17.68-.37,1.14-.21.4.16.57.4.69.57.11.18.18.34.23.49.34,1.15.25,2.04.19,2.83-.16,1.56-.5,2.53-.68,2.51-.21-.02-.24-1.03-.43-2.49-.1-.7-.24-1.61-.56-2.24-.04-.07-.08-.13-.1-.14,0,0-.02,0,0-.01.07-.08.11-.08.16-.14.09-.12.13-.16.15-.24.01-.09-.02.09.17.29.04.06.13.16.14.17,0,0,0,0,0,.01l-.03.07c-.12.26-.24.72-.32,1.17-.08.45-.13.93-.17,1.41-.04.48-.06.98-.06,1.34.03.78.29,1.39.56,1.62.26.23.48.24.72.22.24-.04.42-.11.47-.13Z"/></g><g id="Corner_8_Shape"><path class="cls-1" d="M43.48,173.77c2.58,9.55-3.08,19.38-12.63,21.96-9.55,2.58-19.38-3.08-21.96-12.63s4.44-52.31,4.44-52.31c0,0,27.57,33.43,30.15,42.98Z"/><path class="cls-1" d="M124.66,254.94c-9.55-2.58-19.38,3.08-21.96,12.63-2.58,9.55,3.08,19.38,12.63,21.96,9.55,2.58,52.31-4.44,52.31-4.44,0,0-33.43-27.57-42.98-30.15Z"/><path class="cls-1" d="M94.18,246.03c-11.64,11.64-30.52,11.64-42.16,0-11.64-11.64-11.64-30.52,0-42.16,11.64-11.64,79.15-37,79.15-37,0,0-25.35,67.51-37,79.15Z"/></g></g></svg>