<?xml version="1.0" encoding="UTF-8"?><svg id="Line" xmlns="http://www.w3.org/2000/svg" viewBox="0 0 630.02 630.02"><defs><style>.cls-1{opacity:.24;}.cls-2{fill:none;stroke:#fff;stroke-miterlimit:10;stroke-width:3px;}.cls-3{fill:#fff;stroke-width:0px;}</style></defs><g id="DecorativeElement_4"><g id="DecorativeElement_4_Lines"><path class="cls-3" d="M505.1,540.74l8.51-7.38,8.15-7.77,2.03-1.95,1.94-2.04,3.89-4.08,3.89-4.08,3.69-4.26,3.69-4.26,1.84-2.13,1.74-2.21,6.96-8.85,6.53-9.17,1.63-2.29c.53-.77,1.02-1.58,1.53-2.36l3.04-4.74c8.02-12.68,15.28-25.88,21.19-39.69,1.62-3.39,2.92-6.91,4.31-10.4l2.07-5.24.52-1.31.45-1.33.9-2.67c1.18-3.56,2.45-7.1,3.56-10.68l3.08-10.83c15.5-58.04,12.73-120.81-7.89-177.24-5.24-14.07-11.48-27.76-18.66-40.95l-5.61-9.76c-.45-.82-.95-1.62-1.47-2.4l-1.52-2.37-3.04-4.74-1.52-2.37-.76-1.19-.81-1.15-3.26-4.59c-2.18-3.06-4.3-6.16-6.68-9.06-9.06-11.98-19.25-23.08-30.08-33.47-5.34-5.29-11.11-10.1-16.81-14.98l-8.85-6.96c-1.45-1.19-3-2.26-4.53-3.34l-4.59-3.26c-1.54-1.08-3.04-2.2-4.6-3.24l-4.74-3.04-4.74-3.04c-.79-.5-1.57-1.03-2.38-1.5l-2.44-1.4-9.77-5.6-10.02-5.13c-13.5-6.57-27.43-12.26-41.75-16.8-14.35-4.42-29-7.81-43.83-10.2-14.86-2.15-29.86-3.25-44.88-3.39-15.02.14-30.02,1.24-44.88,3.39-14.83,2.38-29.48,5.78-43.83,10.2-14.32,4.53-28.25,10.22-41.75,16.8l-10.02,5.13-9.77,5.6-2.44,1.4c-.81.47-1.59,1-2.38,1.5l-4.74,3.04-4.74,3.04c-1.56,1.04-3.07,2.16-4.6,3.24l-4.59,3.26c-1.53,1.09-3.07,2.15-4.53,3.34l-8.85,6.96c-5.7,4.89-11.47,9.7-16.81,14.98-10.83,10.39-21.01,21.49-30.08,33.47-2.38,2.91-4.5,6.01-6.68,9.06l-3.26,4.59-.81,1.15-.76,1.19-1.52,2.37-3.04,4.74-1.52,2.37c-.52.78-1.01,1.58-1.47,2.4l-5.61,9.76c-7.18,13.19-13.41,26.88-18.66,40.95-20.62,56.43-23.39,119.21-7.89,177.24l3.08,10.83c1.11,3.58,2.38,7.12,3.56,10.68l.9,2.67.45,1.33.52,1.31,2.07,5.24c1.39,3.49,2.69,7.01,4.31,10.4,5.91,13.81,13.18,27.01,21.19,39.69l3.04,4.74c.51.79,1,1.59,1.53,2.36l1.63,2.29,6.53,9.17,6.96,8.85,1.74,2.21,1.84,2.13,3.69,4.26,3.69,4.26,3.89,4.08,3.89,4.08,1.94,2.04,2.03,1.95,8.15,7.77,8.51,7.38c.41.34,1.35,1.21,2.84,2.43,1.51,1.19,3.52,2.78,5.97,4.72,1.22.97,2.55,2.02,3.98,3.15,1.43,1.13,3.05,2.21,4.72,3.43,1.68,1.2,3.45,2.47,5.3,3.8,1.83,1.37,3.84,2.64,5.92,3.98,2.08,1.34,4.23,2.73,6.45,4.17.55.36,1.11.72,1.68,1.08.58.34,1.16.68,1.75,1.02,1.18.68,2.37,1.37,3.57,2.07,2.41,1.4,4.88,2.82,7.4,4.28,2.58,1.34,5.22,2.7,7.89,4.08,1.34.69,2.68,1.39,4.03,2.09,1.36.69,2.77,1.29,4.17,1.94,2.8,1.28,5.64,2.58,8.48,3.88,2.87,1.25,5.83,2.36,8.75,3.55,2.94,1.17,5.86,2.4,8.88,3.37,2.99,1.03,5.98,2.06,8.96,3.08,1.48.55,3,.94,4.5,1.38,1.5.44,3,.87,4.49,1.3,1.49.43,2.97.86,4.45,1.29.74.21,1.47.44,2.21.63.74.18,1.48.35,2.22.53,2.95.7,5.87,1.39,8.73,2.07,2.85.74,5.71,1.22,8.49,1.74,2.78.52,5.5,1.02,8.15,1.52,5.32.83,10.37,1.43,15.01,2.09,9.33.88,17.1,1.59,22.56,1.69,2.69.13,4.81.23,6.32.3,1.46.08,2.23.15,2.23.2s-.78.08-2.24.09c-1.51,0-3.64-.01-6.33-.02-5.47.09-13.27-.45-22.65-1.16-4.67-.57-9.75-1.1-15.11-1.85-2.67-.46-5.41-.93-8.21-1.41-2.8-.48-5.68-.93-8.56-1.63-2.89-.65-5.83-1.31-8.81-1.98-.74-.17-1.49-.33-2.24-.5-.74-.19-1.48-.41-2.23-.61-1.49-.41-2.99-.83-4.49-1.25-1.5-.42-3.01-.84-4.53-1.26-1.51-.43-3.05-.81-4.54-1.34-3.01-1-6.03-2-9.05-3.01-3.05-.94-6-2.15-8.97-3.3-2.96-1.17-5.95-2.26-8.85-3.5-2.88-1.29-5.75-2.57-8.58-3.83-1.41-.65-2.84-1.24-4.22-1.92-1.37-.69-2.73-1.38-4.08-2.07-2.7-1.37-5.37-2.72-7.99-4.05-2.55-1.45-5.05-2.87-7.5-4.25-1.22-.7-2.43-1.38-3.62-2.06-.59-.34-1.18-.68-1.77-1.02-.57-.36-1.14-.72-1.7-1.08-2.25-1.43-4.43-2.82-6.54-4.16-2.11-1.33-4.15-2.61-6-3.97-1.88-1.33-3.67-2.59-5.37-3.79-1.69-1.22-3.33-2.3-4.79-3.43-1.45-1.13-2.8-2.19-4.04-3.15-2.48-1.94-4.52-3.53-6.05-4.73-1.51-1.22-2.46-2.09-2.87-2.44l-8.59-7.45-8.23-7.85-2.05-1.97-1.96-2.06-3.92-4.11-3.92-4.12-3.72-4.3-3.72-4.3-1.86-2.15-1.76-2.23-7.03-8.94-6.6-9.26-1.65-2.32c-.54-.78-1.03-1.59-1.55-2.38l-3.07-4.79c-8.09-12.81-15.43-26.13-21.4-40.07-1.64-3.42-2.95-6.98-4.35-10.5l-2.09-5.29-.52-1.32-.46-1.35-.91-2.69c-1.19-3.6-2.47-7.17-3.6-10.79l-3.11-10.94c-15.65-58.61-12.85-121.97,7.96-178.96,5.29-14.21,11.59-28.03,18.84-41.35l5.67-9.86c.46-.83.96-1.63,1.48-2.43l1.53-2.39,3.07-4.79,1.53-2.39.77-1.2.82-1.16,3.29-4.63c2.2-3.08,4.34-6.21,6.75-9.15,9.15-12.09,19.43-23.3,30.37-33.79,5.39-5.34,11.21-10.2,16.97-15.13l8.94-7.03c1.47-1.2,3.03-2.28,4.57-3.38l4.63-3.29c1.55-1.09,3.07-2.22,4.65-3.27l4.79-3.07,4.79-3.07c.8-.5,1.58-1.04,2.4-1.52l2.46-1.42,9.86-5.66,10.12-5.18c13.63-6.64,27.69-12.38,42.15-16.96,14.49-4.46,29.29-7.89,44.26-10.29,15.01-2.18,30.15-3.29,45.31-3.42,15.16.14,30.3,1.25,45.31,3.42,14.97,2.4,29.77,5.83,44.26,10.29,14.46,4.58,28.53,10.32,42.15,16.96l10.12,5.18,9.86,5.66,2.46,1.42c.82.48,1.6,1.01,2.4,1.52l4.79,3.07,4.79,3.07c1.58,1.05,3.1,2.18,4.65,3.27l4.63,3.29c1.54,1.1,3.1,2.18,4.57,3.38l8.94,7.03c5.75,4.93,11.58,9.79,16.97,15.13,10.94,10.49,21.22,21.7,30.37,33.79,2.4,2.93,4.55,6.06,6.75,9.15l3.29,4.63.82,1.16.77,1.2,1.53,2.39,3.07,4.79,1.53,2.39c.52.79,1.02,1.6,1.48,2.43l5.67,9.86c7.25,13.32,13.54,27.14,18.84,41.35,20.82,56.99,23.61,120.35,7.96,178.96l-3.11,10.94c-1.12,3.62-2.4,7.19-3.6,10.79l-.91,2.69-.46,1.35-.52,1.32-2.08,5.29c-1.4,3.52-2.72,7.08-4.35,10.5-5.97,13.94-13.31,27.27-21.4,40.07l-3.07,4.79c-.52.79-1.01,1.6-1.55,2.38l-1.65,2.32-6.6,9.26-7.03,8.94-1.76,2.23-1.86,2.15-3.72,4.3-3.72,4.3-3.92,4.12-3.92,4.11-1.96,2.06-2.05,1.97-8.23,7.85-8.59,7.45c-.42.34-1.37,1.22-2.87,2.44-1.53,1.19-3.57,2.79-6.05,4.73-1.24.97-2.59,2.02-4.04,3.15-1.45,1.13-3.1,2.21-4.79,3.43-1.7,1.2-3.5,2.47-5.37,3.79-1.85,1.36-3.89,2.64-6,3.97-2.1,1.34-4.29,2.73-6.54,4.16-.56.36-1.13.72-1.7,1.08-.59.34-1.18.68-1.77,1.02-1.19.68-2.4,1.37-3.62,2.06-2.44,1.39-4.95,2.81-7.5,4.25-2.62,1.33-5.28,2.68-7.99,4.05-1.35.69-2.71,1.38-4.08,2.07-1.38.68-2.81,1.27-4.22,1.92-2.84,1.27-5.7,2.55-8.58,3.83-2.9,1.24-5.89,2.32-8.85,3.5-2.97,1.15-5.93,2.36-8.97,3.3-3.02,1.01-6.04,2.01-9.05,3.01-1.49.53-3.03.91-4.54,1.34-1.52.42-3.03.84-4.53,1.26-1.5.42-3,.83-4.49,1.25-.75.2-1.48.42-2.23.61-.75.17-1.5.34-2.24.5-2.98.67-5.92,1.33-8.81,1.98-2.88.71-5.75,1.15-8.56,1.63-2.8.48-5.54.95-8.21,1.41-5.36.75-10.44,1.27-15.11,1.85-9.39.71-17.19,1.25-22.65,1.16-2.69,0-4.82.01-6.33.02-1.46-.01-2.24-.04-2.24-.09s.78-.12,2.23-.2c1.51-.07,3.63-.17,6.32-.3,5.45-.09,13.22-.81,22.56-1.69,4.64-.66,9.69-1.26,15.01-2.09,2.65-.49,5.37-1,8.15-1.52,2.78-.52,5.64-1,8.49-1.74,2.86-.68,5.78-1.37,8.73-2.07.74-.18,1.48-.35,2.22-.53.74-.19,1.47-.42,2.21-.63,1.48-.43,2.96-.86,4.45-1.29,1.49-.43,2.99-.87,4.49-1.3,1.5-.45,3.02-.84,4.5-1.38,2.97-1.02,5.96-2.05,8.96-3.08,3.02-.97,5.94-2.19,8.88-3.37,2.93-1.19,5.88-2.3,8.75-3.55,2.85-1.3,5.68-2.6,8.48-3.88,1.4-.65,2.81-1.25,4.17-1.94,1.35-.7,2.7-1.4,4.03-2.09,2.67-1.38,5.3-2.74,7.89-4.08,2.52-1.46,4.99-2.88,7.4-4.28,1.21-.7,2.4-1.39,3.57-2.07.59-.34,1.17-.68,1.75-1.02.56-.36,1.12-.73,1.68-1.08,2.22-1.43,4.37-2.83,6.45-4.17,2.08-1.34,4.09-2.61,5.92-3.98,1.85-1.33,3.62-2.6,5.3-3.8,1.67-1.22,3.29-2.3,4.72-3.43,1.43-1.13,2.76-2.18,3.98-3.15,2.45-1.93,4.46-3.53,5.97-4.72,1.49-1.22,2.42-2.09,2.84-2.43Z"/><path class="cls-3" d="M72.13,132.84c5.09-1.69,10.11-3.64,15.13-5.53,4.99-2.01,9.98-3.99,14.91-6.14,9.89-4.23,19.68-8.71,29.42-13.32,19.48-9.2,38.81-18.8,58.53-27.62,9.87-4.38,19.8-8.66,29.92-12.49,10.12-3.81,20.35-7.38,30.79-10.3,10.44-2.9,21.02-5.32,31.74-6.99,10.74-1.58,21.57-2.45,32.44-2.55,10.86.09,21.7.97,32.44,2.55,10.72,1.68,21.3,4.1,31.74,6.99,10.43,2.93,20.66,6.49,30.79,10.3,10.12,3.82,20.05,8.11,29.92,12.49,19.72,8.83,39.05,18.43,58.53,27.62,9.73,4.62,19.53,9.09,29.42,13.32,4.93,2.15,9.93,4.13,14.92,6.14,5.03,1.89,10.04,3.84,15.13,5.53.36.13,1.72.61,3.82,1.35,2.12.68,4.99,1.61,8.35,2.7,1.67.57,3.51,1.05,5.42,1.6,1.92.54,3.92,1.11,5.99,1.7,2.09.51,4.23,1.03,6.41,1.56,1.09.26,2.18.53,3.28.79,1.11.22,2.22.44,3.32.66,2.22.43,4.42.91,6.6,1.3,2.18.33,4.33.66,6.42.98,1.04.16,2.06.33,3.06.46,1,.1,1.98.21,2.94.31,1.9.2,3.7.4,5.38.58.42.05.82.09,1.22.13.4.02.79.05,1.17.07.76.04,1.48.09,2.16.13,1.32.09,2.5.17,3.51.24,1.94.15,3.05.28,3.05.37s-1.11.16-3.06.2c-1.02.01-2.2.02-3.53.04-.69,0-1.42,0-2.18,0-.38,0-.78,0-1.18,0-.4-.02-.81-.05-1.23-.07-1.69-.1-3.51-.21-5.44-.33-.97-.06-1.96-.12-2.98-.19-1.01-.09-2.04-.23-3.1-.35-2.11-.25-4.29-.51-6.5-.77-2.21-.32-4.45-.74-6.7-1.11-1.12-.19-2.25-.38-3.37-.57-1.11-.24-2.23-.47-3.33-.71-2.21-.48-4.39-.95-6.51-1.41-2.1-.54-4.14-1.07-6.08-1.57-1.94-.51-3.81-.96-5.51-1.5-3.41-1.03-6.34-1.88-8.48-2.56-2.13-.72-3.51-1.18-3.87-1.31-5.14-1.71-10.18-3.67-15.25-5.57-5.02-2.02-10.04-4.01-15-6.17-9.94-4.25-19.76-8.74-29.51-13.37-19.52-9.21-38.83-18.81-58.48-27.6-9.84-4.36-19.72-8.63-29.77-12.43-10.06-3.79-20.21-7.32-30.54-10.22-10.34-2.87-20.81-5.26-31.4-6.92-10.6-1.56-21.29-2.42-32-2.52-10.71.09-21.4.95-32,2.52-10.59,1.66-21.06,4.05-31.4,6.92-10.34,2.9-20.49,6.44-30.54,10.22-10.05,3.8-19.94,8.06-29.77,12.43-19.65,8.79-38.96,18.39-58.48,27.6-9.75,4.62-19.58,9.11-29.51,13.37-4.96,2.16-9.98,4.15-15,6.17-5.06,1.91-10.11,3.87-15.25,5.57-.37.12-1.74.59-3.87,1.31-2.14.68-5.07,1.53-8.48,2.56-1.7.54-3.56.99-5.51,1.5-1.94.5-3.98,1.03-6.08,1.57-2.12.46-4.3.93-6.51,1.41-1.1.24-2.21.47-3.33.71-1.12.19-2.25.38-3.37.57-2.25.37-4.49.78-6.7,1.11-2.21.26-4.39.52-6.5.77-1.05.12-2.08.26-3.1.35-1.01.06-2.01.13-2.98.19-1.92.12-3.74.23-5.44.33-.42.02-.83.05-1.23.07-.4,0-.8,0-1.18,0-.76,0-1.49,0-2.18,0-1.33-.01-2.51-.03-3.53-.04-1.95-.04-3.06-.1-3.06-.2s1.11-.23,3.05-.37c1.01-.07,2.19-.15,3.51-.24.68-.04,1.4-.08,2.16-.13.38-.02.77-.04,1.17-.07.4-.04.81-.09,1.22-.13,1.68-.18,3.48-.37,5.38-.58.96-.1,1.94-.2,2.94-.31,1-.13,2.02-.31,3.06-.46,2.08-.32,4.23-.65,6.42-.98,2.18-.39,4.39-.87,6.6-1.3,1.11-.22,2.22-.44,3.32-.66,1.1-.26,2.19-.53,3.28-.79,2.18-.53,4.32-1.05,6.41-1.56,2.07-.59,4.08-1.15,5.99-1.7,1.91-.55,3.75-1.03,5.42-1.6,3.37-1.09,6.24-2.01,8.36-2.7,2.11-.74,3.46-1.22,3.82-1.35Z"/><path class="cls-3" d="M73.06,494.48c5.14,1.71,10.18,3.67,15.25,5.57,5.02,2.02,10.04,4.01,15,6.17,9.94,4.25,19.76,8.74,29.51,13.37,19.52,9.21,38.83,18.81,58.48,27.6,9.84,4.36,19.72,8.63,29.77,12.43,10.06,3.79,20.21,7.32,30.54,10.22,10.34,2.87,20.81,5.26,31.4,6.92,10.6,1.56,21.29,2.42,32,2.52,10.71-.09,21.4-.95,32-2.52,10.59-1.66,21.06-4.05,31.4-6.92,10.33-2.9,20.49-6.44,30.54-10.22,10.06-3.8,19.94-8.06,29.77-12.43,19.65-8.79,38.96-18.39,58.48-27.6,9.75-4.62,19.58-9.11,29.51-13.37,4.96-2.16,9.98-4.15,15-6.17,5.06-1.91,10.11-3.87,15.25-5.57.37-.12,1.74-.59,3.87-1.31,2.14-.68,5.07-1.53,8.48-2.56,1.7-.54,3.56-.99,5.51-1.5,1.94-.5,3.98-1.03,6.08-1.57,2.12-.46,4.3-.93,6.51-1.41,1.1-.24,2.21-.47,3.33-.71,1.12-.19,2.25-.38,3.37-.57,2.25-.37,4.49-.78,6.7-1.11,2.21-.26,4.39-.52,6.5-.77,1.05-.12,2.08-.26,3.1-.35,1.01-.06,2.01-.13,2.98-.19,1.92-.12,3.74-.23,5.44-.33.42-.02.83-.05,1.23-.07.4,0,.8,0,1.18,0,.76,0,1.49,0,2.18,0,1.33.01,2.51.03,3.53.04,1.95.04,3.06.1,3.06.2s-1.11.23-3.05.37c-1.01.07-2.19.15-3.51.24-.68.04-1.4.08-2.16.13-.38.02-.77.04-1.17.07-.4.04-.81.09-1.22.13-1.68.18-3.48.37-5.38.58-.96.1-1.94.2-2.94.31-1,.13-2.02.31-3.06.46-2.08.32-4.23.65-6.42.98-2.18.39-4.38.87-6.6,1.3-1.11.22-2.22.44-3.32.66-1.1.26-2.19.53-3.28.79-2.18.53-4.32,1.05-6.41,1.56-2.07.59-4.08,1.15-5.99,1.7-1.91.55-3.75,1.03-5.42,1.6-3.37,1.09-6.24,2.01-8.35,2.7-2.11.74-3.46,1.22-3.82,1.35-5.09,1.69-10.11,3.64-15.13,5.53-4.99,2.01-9.98,3.99-14.92,6.14-9.89,4.23-19.68,8.71-29.42,13.32-19.48,9.2-38.81,18.8-58.53,27.62-9.87,4.38-19.8,8.66-29.92,12.49-10.12,3.81-20.35,7.38-30.79,10.3-10.44,2.9-21.02,5.32-31.74,6.99-10.74,1.58-21.57,2.45-32.44,2.55-10.86-.09-21.7-.97-32.44-2.55-10.72-1.68-21.3-4.1-31.74-6.99-10.43-2.93-20.66-6.49-30.79-10.3-10.12-3.82-20.05-8.11-29.92-12.49-19.72-8.83-39.05-18.43-58.53-27.62-9.73-4.62-19.53-9.09-29.42-13.32-4.93-2.15-9.93-4.13-14.91-6.14-5.03-1.89-10.04-3.84-15.13-5.53-.36-.13-1.72-.61-3.82-1.35-2.12-.68-4.99-1.61-8.36-2.7-1.67-.57-3.51-1.05-5.42-1.6-1.91-.54-3.92-1.11-5.99-1.7-2.09-.51-4.23-1.03-6.41-1.56-1.09-.26-2.18-.53-3.28-.79-1.11-.22-2.22-.44-3.32-.66-2.22-.43-4.42-.91-6.6-1.3-2.18-.33-4.33-.66-6.42-.98-1.04-.16-2.06-.33-3.06-.46-1-.1-1.98-.21-2.94-.31-1.9-.2-3.7-.4-5.38-.58-.42-.05-.82-.09-1.22-.13-.4-.02-.79-.05-1.17-.07-.76-.04-1.48-.09-2.16-.13-1.32-.09-2.5-.17-3.51-.24-1.94-.15-3.05-.28-3.05-.37s1.11-.16,3.06-.2c1.02-.01,2.2-.02,3.53-.04.69,0,1.41,0,2.18,0,.38,0,.78,0,1.18,0,.4.02.81.05,1.23.07,1.69.1,3.51.21,5.44.33.97.06,1.96.12,2.98.19,1.01.09,2.04.23,3.1.35,2.11.25,4.29.51,6.5.77,2.21.32,4.45.74,6.7,1.11,1.13.19,2.25.38,3.37.57,1.11.24,2.23.47,3.33.71,2.21.48,4.39.95,6.51,1.41,2.1.54,4.14,1.07,6.08,1.57,1.94.51,3.81.96,5.51,1.5,3.41,1.03,6.34,1.88,8.48,2.56,2.13.72,3.51,1.18,3.87,1.31Z"/><path class="cls-3" d="M609.02,180.87c-4.97,10.27-8.83,21.07-11.97,32.07-3.13,11.01-5.52,22.23-7.37,33.54-3.67,22.63-5.26,45.6-5.29,68.54.04,22.94,1.62,45.91,5.29,68.54,1.84,11.31,4.24,22.53,7.37,33.54,3.14,11,7,21.8,11.97,32.07.35.73,4.42,9.68,9.69,17.74.66,1,1.32,2,1.97,2.99.66.98,1.36,1.9,2,2.81,1.27,1.85,2.62,3.43,3.69,4.86,2.25,2.76,3.8,4.57,3.64,4.72-.12.12-1.94-1.42-4.47-3.99-1.22-1.33-2.71-2.83-4.12-4.61-.72-.88-1.49-1.77-2.21-2.72-.72-.97-1.44-1.94-2.17-2.92-5.79-7.9-10.24-16.9-10.59-17.64-5.06-10.45-8.97-21.41-12.15-32.53-3.16-11.13-5.58-22.46-7.44-33.86-3.7-22.81-5.29-45.92-5.33-69,.04-23.08,1.63-46.18,5.33-69,1.86-11.4,4.28-22.73,7.44-33.86,3.18-11.12,7.09-22.08,12.15-32.53.35-.74,4.81-9.73,10.59-17.64.73-.98,1.45-1.95,2.17-2.92.73-.95,1.5-1.84,2.21-2.72,1.41-1.78,2.9-3.28,4.12-4.61,2.53-2.57,4.35-4.11,4.47-3.99.15.15-1.39,1.96-3.64,4.72-1.08,1.42-2.42,3.01-3.69,4.86-.65.91-1.35,1.83-2,2.81-.65.99-1.31,1.99-1.97,2.99-5.26,8.06-9.34,17.01-9.69,17.74Z"/><path class="cls-3" d="M23.58,179.62c5.06,10.45,8.97,21.41,12.15,32.53,3.16,11.13,5.58,22.46,7.44,33.86,3.7,22.81,5.29,45.92,5.33,69-.04,23.08-1.63,46.18-5.33,69-1.86,11.4-4.28,22.73-7.44,33.86-3.18,11.12-7.09,22.08-12.15,32.53-.35.74-4.81,9.73-10.59,17.64-.73.98-1.45,1.95-2.17,2.92-.73.95-1.5,1.84-2.21,2.72-1.41,1.78-2.9,3.28-4.12,4.61-2.53,2.57-4.35,4.11-4.47,3.99-.15-.15,1.39-1.96,3.64-4.72,1.08-1.42,2.42-3.01,3.69-4.86.65-.91,1.35-1.83,2.01-2.81.65-.99,1.31-1.99,1.97-2.99,5.26-8.06,9.34-17.01,9.69-17.74,4.97-10.27,8.83-21.07,11.97-32.07,3.13-11.01,5.52-22.23,7.37-33.54,3.67-22.63,5.26-45.6,5.29-68.54-.04-22.94-1.62-45.91-5.29-68.54-1.84-11.31-4.24-22.53-7.37-33.54-3.14-11-7-21.8-11.97-32.07-.35-.73-4.42-9.68-9.69-17.74-.66-1-1.32-2-1.97-2.99-.66-.98-1.36-1.9-2.01-2.81-1.27-1.85-2.62-3.43-3.69-4.86-2.25-2.76-3.8-4.57-3.64-4.72.12-.12,1.94,1.42,4.47,3.99,1.22,1.33,2.71,2.83,4.12,4.61.72.88,1.49,1.77,2.21,2.72.72.97,1.44,1.94,2.17,2.92,5.79,7.9,10.24,16.9,10.59,17.64Z"/><path class="cls-3" d="M497.18,72.13c1.69,5.09,3.64,10.11,5.53,15.13,2.01,4.99,3.99,9.98,6.14,14.91,4.23,9.89,8.71,19.68,13.32,29.42,9.19,19.48,18.8,38.81,27.62,58.53,4.38,9.87,8.66,19.8,12.49,29.92,3.81,10.12,7.38,20.35,10.3,30.79,2.9,10.44,5.32,21.02,6.99,31.74,1.58,10.74,2.46,21.57,2.55,32.44-.09,10.86-.97,21.7-2.55,32.44-1.68,10.72-4.1,21.3-6.99,31.74-2.93,10.43-6.49,20.66-10.3,30.79-3.82,10.12-8.11,20.05-12.49,29.92-8.83,19.72-18.43,39.05-27.62,58.53-4.62,9.73-9.09,19.53-13.32,29.42-2.15,4.93-4.13,9.93-6.14,14.91-1.89,5.03-3.84,10.04-5.53,15.13-.13.36-.61,1.72-1.35,3.82-.68,2.12-1.61,4.99-2.7,8.36-.57,1.67-1.05,3.51-1.6,5.42-.54,1.91-1.11,3.92-1.7,5.99-.51,2.09-1.03,4.23-1.56,6.41-.26,1.09-.53,2.18-.79,3.28-.22,1.11-.44,2.22-.66,3.32-.43,2.22-.91,4.42-1.3,6.6-.33,2.18-.66,4.33-.98,6.42-.15,1.04-.33,2.06-.46,3.06-.1,1-.21,1.98-.31,2.94-.2,1.9-.4,3.7-.58,5.38-.05.42-.09.82-.13,1.22-.02.4-.04.79-.07,1.17-.04.76-.09,1.48-.13,2.16-.09,1.32-.17,2.5-.24,3.51-.15,1.94-.28,3.05-.37,3.05s-.16-1.11-.2-3.06c-.01-1.02-.02-2.2-.04-3.53,0-.69,0-1.41,0-2.18,0-.38,0-.78,0-1.18.02-.4.05-.81.07-1.23.1-1.69.21-3.51.33-5.44.06-.97.12-1.96.19-2.98.09-1.01.23-2.04.35-3.1.25-2.11.51-4.29.77-6.5.32-2.21.74-4.45,1.11-6.7.19-1.13.38-2.25.57-3.37.24-1.11.47-2.23.71-3.33.48-2.21.95-4.39,1.41-6.51.54-2.1,1.07-4.14,1.57-6.08.51-1.94.96-3.81,1.5-5.51,1.03-3.41,1.88-6.34,2.56-8.48.72-2.13,1.18-3.51,1.31-3.87,1.71-5.14,3.67-10.18,5.57-15.25,2.02-5.02,4.02-10.04,6.17-15,4.25-9.94,8.74-19.76,13.37-29.51,9.21-19.52,18.81-38.83,27.6-58.48,4.36-9.84,8.63-19.72,12.43-29.77,3.79-10.06,7.32-20.21,10.22-30.54,2.87-10.34,5.26-20.81,6.92-31.4,1.56-10.6,2.42-21.29,2.52-32-.09-10.71-.95-21.4-2.52-32-1.66-10.59-4.05-21.06-6.92-31.4-2.9-10.34-6.44-20.49-10.22-30.54-3.8-10.05-8.06-19.94-12.43-29.77-8.79-19.65-18.39-38.96-27.6-58.48-4.62-9.75-9.11-19.58-13.37-29.51-2.16-4.96-4.15-9.98-6.17-15-1.91-5.06-3.87-10.11-5.57-15.25-.12-.37-.59-1.74-1.31-3.87-.68-2.14-1.53-5.07-2.56-8.48-.54-1.7-.99-3.56-1.5-5.51-.5-1.94-1.03-3.98-1.57-6.08-.46-2.12-.93-4.3-1.41-6.51-.24-1.1-.47-2.21-.71-3.33-.19-1.12-.38-2.25-.57-3.37-.37-2.25-.78-4.49-1.11-6.7-.26-2.21-.52-4.39-.77-6.5-.12-1.05-.26-2.08-.35-3.1-.06-1.01-.13-2.01-.19-2.98-.12-1.92-.23-3.74-.33-5.44-.02-.42-.05-.83-.07-1.23,0-.4,0-.8,0-1.18,0-.76,0-1.49,0-2.18.01-1.33.03-2.51.04-3.53.04-1.95.1-3.06.2-3.06s.23,1.11.37,3.05c.07,1.01.15,2.19.24,3.51.04.68.08,1.4.13,2.16.02.38.04.77.07,1.17.04.4.09.81.13,1.22.18,1.68.37,3.48.58,5.38.1.96.2,1.94.31,2.94.13,1,.31,2.02.46,3.06.32,2.08.65,4.23.98,6.42.39,2.18.87,4.39,1.3,6.6.22,1.11.44,2.22.66,3.32.26,1.1.53,2.19.79,3.28.53,2.18,1.05,4.32,1.56,6.41.59,2.07,1.15,4.08,1.7,5.99.55,1.91,1.03,3.75,1.6,5.42,1.09,3.37,2.01,6.24,2.7,8.36.74,2.11,1.22,3.46,1.35,3.82Z"/><path class="cls-3" d="M135.54,73.06c-1.71,5.14-3.67,10.18-5.57,15.25-2.02,5.02-4.01,10.04-6.17,15-4.25,9.94-8.74,19.76-13.37,29.51-9.21,19.52-18.81,38.83-27.6,58.48-4.36,9.84-8.63,19.72-12.43,29.77-3.79,10.06-7.32,20.21-10.22,30.54-2.87,10.34-5.26,20.81-6.92,31.4-1.56,10.6-2.42,21.29-2.52,32,.09,10.71.95,21.4,2.52,32,1.66,10.59,4.05,21.06,6.92,31.4,2.9,10.34,6.44,20.49,10.22,30.54,3.8,10.05,8.06,19.94,12.43,29.77,8.79,19.65,18.39,38.96,27.6,58.48,4.62,9.75,9.11,19.58,13.37,29.51,2.16,4.96,4.15,9.98,6.17,15,1.91,5.06,3.87,10.11,5.57,15.25.12.37.59,1.74,1.31,3.87.68,2.14,1.53,5.07,2.56,8.48.54,1.7.99,3.56,1.5,5.51.5,1.94,1.03,3.98,1.57,6.08.46,2.12.93,4.3,1.41,6.51.24,1.1.47,2.21.71,3.33.19,1.12.38,2.25.57,3.37.37,2.25.78,4.49,1.11,6.7.26,2.21.52,4.39.77,6.5.12,1.05.26,2.08.35,3.1.06,1.01.13,2.01.19,2.98.12,1.92.23,3.74.33,5.44.02.42.05.83.07,1.23,0,.4,0,.8,0,1.18,0,.76,0,1.49,0,2.18-.01,1.33-.03,2.51-.04,3.53-.04,1.95-.1,3.06-.2,3.06s-.23-1.11-.37-3.05c-.07-1.01-.15-2.19-.24-3.51-.04-.68-.08-1.4-.13-2.16-.02-.38-.04-.77-.07-1.17-.04-.4-.09-.81-.13-1.22-.18-1.68-.37-3.48-.58-5.38-.1-.96-.2-1.94-.31-2.94-.13-1-.31-2.02-.46-3.06-.32-2.08-.65-4.23-.98-6.42-.39-2.18-.87-4.39-1.3-6.6-.22-1.11-.44-2.22-.66-3.32-.26-1.1-.53-2.19-.79-3.28-.53-2.18-1.05-4.32-1.56-6.41-.59-2.07-1.15-4.08-1.7-5.99-.55-1.91-1.03-3.75-1.6-5.42-1.09-3.37-2.01-6.24-2.7-8.36-.74-2.11-1.22-3.46-1.35-3.82-1.69-5.09-3.64-10.11-5.53-15.13-2.01-4.99-3.99-9.98-6.14-14.91-4.23-9.89-8.71-19.68-13.32-29.42-9.2-19.48-18.8-38.81-27.62-58.53-4.38-9.87-8.66-19.8-12.49-29.92-3.81-10.12-7.38-20.35-10.3-30.79-2.9-10.44-5.32-21.02-6.99-31.74-1.58-10.74-2.45-21.57-2.55-32.44.09-10.86.97-21.7,2.55-32.44,1.68-10.72,4.1-21.3,6.99-31.74,2.93-10.43,6.49-20.66,10.3-30.79,3.82-10.12,8.11-20.05,12.49-29.92,8.83-19.72,18.43-39.05,27.62-58.53,4.62-9.73,9.09-19.53,13.32-29.42,2.15-4.93,4.13-9.93,6.14-14.91,1.89-5.03,3.84-10.04,5.53-15.13.13-.36.61-1.72,1.35-3.82.68-2.12,1.61-4.99,2.7-8.36.57-1.67,1.05-3.51,1.6-5.42.54-1.91,1.11-3.92,1.7-5.99.51-2.09,1.03-4.23,1.56-6.41.26-1.09.53-2.18.79-3.28.22-1.11.44-2.22.66-3.32.43-2.22.91-4.42,1.3-6.6.33-2.18.66-4.33.98-6.42.16-1.04.33-2.06.46-3.06.1-1,.21-1.98.31-2.94.2-1.9.4-3.7.58-5.38.05-.42.09-.82.13-1.22.02-.4.05-.79.07-1.17.04-.76.09-1.48.13-2.16.09-1.32.17-2.5.24-3.51.15-1.94.28-3.05.37-3.05s.16,1.11.2,3.06c.01,1.02.02,2.2.04,3.53,0,.69,0,1.41,0,2.18,0,.38,0,.78,0,1.18-.02.4-.05.81-.07,1.23-.1,1.69-.21,3.51-.33,5.44-.06.97-.12,1.96-.19,2.98-.09,1.01-.23,2.04-.35,3.1-.25,2.11-.51,4.29-.77,6.5-.32,2.21-.74,4.45-1.11,6.7-.19,1.13-.38,2.25-.57,3.37-.24,1.11-.47,2.23-.71,3.33-.48,2.21-.95,4.39-1.41,6.51-.54,2.1-1.07,4.14-1.57,6.08-.51,1.94-.96,3.81-1.5,5.51-1.03,3.41-1.88,6.34-2.56,8.48-.72,2.13-1.18,3.51-1.31,3.87Z"/><path class="cls-3" d="M449.15,609.02c-10.27-4.97-21.07-8.83-32.07-11.97-11.01-3.13-22.23-5.52-33.54-7.37-22.63-3.67-45.6-5.26-68.54-5.29-22.94.04-45.91,1.62-68.54,5.29-11.31,1.84-22.53,4.24-33.54,7.37-11,3.14-21.8,7-32.07,11.97-.73.35-9.68,4.42-17.74,9.69-1,.66-2,1.32-2.99,1.97-.98.66-1.9,1.36-2.81,2.01-1.85,1.27-3.43,2.62-4.86,3.69-2.76,2.25-4.57,3.8-4.72,3.64-.12-.12,1.42-1.94,3.99-4.47,1.33-1.22,2.83-2.71,4.61-4.12.88-.72,1.77-1.49,2.72-2.21.97-.72,1.94-1.44,2.92-2.17,7.9-5.79,16.9-10.24,17.64-10.59,10.45-5.06,21.41-8.97,32.53-12.15,11.13-3.16,22.46-5.58,33.86-7.44,22.81-3.7,45.92-5.29,69-5.33,23.08.04,46.18,1.63,69,5.33,11.4,1.86,22.73,4.28,33.86,7.44,11.12,3.18,22.08,7.09,32.53,12.15.74.35,9.73,4.81,17.64,10.59.98.73,1.95,1.45,2.92,2.17.95.73,1.84,1.5,2.72,2.21,1.78,1.41,3.28,2.9,4.61,4.12,2.57,2.53,4.11,4.35,3.99,4.47-.15.15-1.96-1.39-4.72-3.64-1.42-1.08-3.01-2.42-4.85-3.69-.91-.65-1.83-1.35-2.81-2.01-.99-.65-1.99-1.31-2.99-1.97-8.06-5.26-17.01-9.34-17.74-9.69Z"/><path class="cls-3" d="M450.4,23.58c-10.45,5.06-21.41,8.97-32.53,12.15-11.13,3.16-22.46,5.58-33.86,7.44-22.81,3.7-45.92,5.29-69,5.33-23.08-.04-46.18-1.63-69-5.33-11.4-1.86-22.73-4.28-33.86-7.44-11.12-3.18-22.08-7.09-32.53-12.15-.74-.35-9.73-4.81-17.64-10.59-.98-.73-1.95-1.45-2.92-2.17-.95-.73-1.84-1.5-2.72-2.21-1.78-1.41-3.28-2.9-4.61-4.12-2.57-2.53-4.11-4.35-3.99-4.47.15-.15,1.96,1.39,4.72,3.64,1.42,1.08,3.01,2.42,4.86,3.69.91.65,1.83,1.35,2.81,2.01.99.65,1.99,1.31,2.99,1.97,8.06,5.26,17.01,9.34,17.74,9.69,10.27,4.97,21.07,8.83,32.07,11.97,11.01,3.13,22.23,5.52,33.54,7.37,22.63,3.67,45.6,5.26,68.54,5.29,22.94-.04,45.91-1.62,68.54-5.29,11.31-1.84,22.53-4.24,33.54-7.37,11-3.14,21.8-7,32.07-11.97.73-.35,9.68-4.42,17.74-9.69,1-.66,2-1.32,2.99-1.97.98-.66,1.9-1.36,2.81-2.01,1.85-1.27,3.43-2.62,4.85-3.69,2.76-2.25,4.57-3.8,4.72-3.64.12.12-1.42,1.94-3.99,4.47-1.32,1.22-2.83,2.71-4.61,4.12-.88.72-1.77,1.49-2.72,2.21-.97.72-1.94,1.44-2.92,2.17-7.9,5.79-16.9,10.24-17.64,10.59Z"/><path class="cls-3" d="M345.27,56.9c2.36,3.09,3.65,6.66,4.55,10.2.89,3.56,1.36,7.18,1.63,10.78.45,7.22.11,14.43-.78,21.56l-.34,2.67-.41,2.66c-.26,1.78-.6,3.54-.92,5.3l-.25,1.32-.31,1.32-.62,2.63c-.37,1.77-.9,3.49-1.41,5.21-2.05,6.89-4.59,13.61-7.4,20.17-5.55,13.15-12.01,25.86-17.03,39.05-2.47,6.58-4.62,13.33-5.32,20.2-.08.86-.18,1.71-.24,2.57l-.07,2.62.02,2.62.1,2.61c.19,3.48.66,6.93,1.49,10.28.06.24.37,1.82,1.08,3.96.69,2.14,1.82,4.86,3.48,7.16.82,1.15,1.78,2.19,2.81,2.95,1.02.78,2.14,1.21,3.05,1.19.46,0,.83-.18,1.14-.38.28-.23.51-.5.64-.76.15-.26.23-.48.3-.64.07-.16.13-.24.18-.24.05,0,.08.1.11.28.03.18.04.46-.05.8-.06.35-.25.77-.59,1.18-.36.38-.91.74-1.56.86-1.3.25-2.78-.18-4.07-.95-1.31-.76-2.5-1.84-3.52-3.04-2.06-2.4-3.48-5.27-4.37-7.52-.9-2.26-1.31-3.92-1.38-4.17-.88-3.56-1.36-7.18-1.57-10.8l-.11-2.71-.02-2.71.07-2.71c.06-.91.17-1.82.25-2.74.75-7.3,2.99-14.23,5.49-20.93,5.11-13.41,11.57-26.1,17.07-39.15,2.79-6.51,5.29-13.12,7.29-19.86.5-1.68,1.01-3.37,1.37-5.08l.6-2.56.3-1.28.24-1.3c.32-1.73.66-3.46.91-5.21l.4-2.61.33-2.62c.87-6.98,1.2-14.04.76-21.01-.27-3.48-.72-6.94-1.55-10.28-.83-3.32-2.06-6.58-4.04-9.16-.05-.06-.19-.25-.42-.54-.11-.15-.24-.32-.39-.51-.17-.17-.33-.37-.55-.57-.84-.81-2.16-1.84-3.77-2.64-.8-.4-1.68-.75-2.59-.96l-.68-.13-.68-.06h-.67c-.09.02-.25.05-.29.05h-.12c-.33.06-.83.18-1.09.62-.12.21-.08.48.07.63.16.12.37.09.57.11.35-.01.74-.1,1.1-.27.18-.08.35-.19.48-.34.03-.04.06-.07.08-.12.01-.09.01-.05.04-.07-.01,0,0,0,.01,0,0-.01-.03-.03-.03-.05-.18-.19-.56-.33-.77-.39-.22-.08-.35-.15-.35-.21,0-.06.14-.1.39-.14.13-.02.28-.02.48,0,.19.01.42.04.7.23.07.06.14.1.2.19.05.1.1.21.13.33,0,.26-.03.35-.11.52-.15.3-.41.59-.77.83-.71.5-1.69.85-2.66.96-.54,0-1.03.01-1.47-.28-.45-.33-.74-.96-.69-1.55.04-.6.34-1.11.79-1.57.22-.24.53-.44.84-.65.35-.18.73-.33,1.11-.51.19-.08.41-.13.63-.18l.48-.11.91-.09h.9c.29.04.58.07.87.1,1.15.17,2.21.51,3.19.91,1.95.81,3.52,1.87,4.62,2.82.28.23.52.48.74.69.19.22.36.42.5.59.29.34.47.56.53.63Z"/><path class="cls-3" d="M287.01,58.64c-1.98,2.57-3.21,5.84-4.04,9.16-.83,3.34-1.28,6.8-1.55,10.28-.43,6.98-.11,14.03.76,21.01l.33,2.62.4,2.61c.25,1.74.58,3.47.91,5.21l.24,1.3.3,1.28.6,2.56c.36,1.71.87,3.4,1.37,5.08,2,6.74,4.5,13.35,7.29,19.86,5.5,13.05,11.96,25.75,17.07,39.15,2.51,6.71,4.74,13.63,5.49,20.93.08.91.19,1.83.25,2.74l.07,2.71-.02,2.71-.11,2.71c-.2,3.62-.68,7.24-1.57,10.8-.07.25-.48,1.91-1.38,4.17-.88,2.25-2.3,5.11-4.37,7.52-1.03,1.2-2.22,2.28-3.52,3.04-1.28.77-2.77,1.19-4.07.95-.65-.12-1.2-.48-1.56-.86-.35-.41-.53-.83-.59-1.18-.08-.35-.07-.62-.05-.8.02-.18.06-.28.11-.28.05,0,.11.08.18.24.06.16.15.39.3.64.13.26.35.53.64.76.31.2.68.37,1.14.38.91.03,2.03-.41,3.05-1.19,1.03-.76,1.98-1.8,2.81-2.95,1.66-2.31,2.79-5.02,3.48-7.16.7-2.14,1.01-3.73,1.08-3.96.83-3.34,1.29-6.8,1.49-10.28l.1-2.61.02-2.62-.07-2.62c-.06-.86-.16-1.72-.24-2.57-.7-6.86-2.85-13.61-5.32-20.2-5.02-13.19-11.48-25.89-17.03-39.05-2.81-6.56-5.36-13.27-7.4-20.17-.51-1.72-1.04-3.44-1.41-5.21l-.62-2.63-.31-1.32-.25-1.32c-.33-1.76-.67-3.52-.92-5.3l-.41-2.66-.34-2.67c-.89-7.12-1.23-14.34-.78-21.56.28-3.61.75-7.22,1.63-10.78.9-3.54,2.19-7.11,4.55-10.2.06-.07.24-.29.53-.63.14-.17.31-.36.5-.59.22-.21.46-.46.74-.69,1.1-.95,2.67-2.01,4.62-2.82.97-.4,2.04-.74,3.19-.91.29-.03.58-.06.87-.09h.9s.91.08.91.08l.48.11c.22.04.44.1.63.18.38.17.76.33,1.11.51.31.21.62.41.84.65.46.46.75.97.79,1.57.05.59-.24,1.22-.69,1.55-.44.29-.93.28-1.47.28-.97-.11-1.95-.46-2.66-.96-.36-.24-.62-.53-.77-.83-.08-.17-.11-.26-.11-.52.03-.12.08-.23.13-.33.06-.08.13-.13.2-.19.28-.18.51-.21.7-.23.19-.02.35-.02.48,0,.25.03.39.08.39.14,0,.06-.12.13-.35.21-.21.07-.59.2-.77.39,0,.02-.04.04-.03.05.01.01.02,0,.01,0,.03.03.03-.02.04.07.02.05.06.08.08.12.13.14.3.26.48.34.36.17.75.26,1.1.27.2-.01.41.02.57-.11.15-.15.18-.42.07-.63-.26-.43-.76-.56-1.09-.61h-.12s-.2-.03-.29-.04h-.67s-.68.06-.68.06l-.68.13c-.9.21-1.78.56-2.59.96-1.61.8-2.93,1.82-3.77,2.64-.22.2-.38.4-.55.57-.15.2-.28.37-.39.51-.23.29-.37.48-.42.54Z"/><path class="cls-3" d="M343.01,571.38c1.98-2.57,3.21-5.84,4.04-9.16.83-3.34,1.28-6.8,1.55-10.28.43-6.98.11-14.03-.76-21.01l-.33-2.62-.4-2.61c-.25-1.74-.58-3.47-.91-5.21l-.24-1.3-.3-1.28-.6-2.56c-.36-1.71-.87-3.4-1.37-5.08-2-6.74-4.5-13.35-7.29-19.86-5.5-13.05-11.96-25.75-17.07-39.15-2.51-6.71-4.74-13.63-5.49-20.93-.08-.91-.19-1.83-.25-2.74l-.07-2.71.02-2.71.11-2.71c.2-3.62.68-7.24,1.57-10.8.07-.25.48-1.91,1.38-4.17.88-2.25,2.3-5.11,4.37-7.52,1.03-1.2,2.22-2.27,3.52-3.04,1.28-.77,2.77-1.19,4.07-.95.65.12,1.2.48,1.56.86.35.41.53.83.59,1.18.08.35.07.62.05.8-.02.18-.06.28-.11.28-.05,0-.11-.08-.18-.24-.06-.16-.15-.39-.3-.64-.13-.26-.35-.53-.64-.76-.31-.2-.68-.37-1.14-.37-.91-.03-2.03.41-3.05,1.19-1.03.76-1.98,1.8-2.81,2.95-1.66,2.31-2.79,5.02-3.48,7.16-.7,2.15-1.01,3.73-1.08,3.96-.83,3.34-1.29,6.8-1.49,10.28l-.1,2.61-.02,2.62.07,2.62c.06.86.16,1.72.24,2.57.7,6.86,2.85,13.61,5.32,20.2,5.02,13.19,11.48,25.89,17.03,39.05,2.81,6.56,5.36,13.27,7.4,20.17.51,1.72,1.04,3.44,1.41,5.21l.62,2.63.31,1.32.25,1.32c.33,1.76.67,3.52.92,5.3l.41,2.66.34,2.67c.89,7.12,1.23,14.34.78,21.56-.28,3.61-.75,7.22-1.63,10.78-.9,3.54-2.19,7.11-4.55,10.2-.06.07-.24.29-.53.63-.14.17-.31.36-.5.59-.22.21-.46.46-.74.69-1.1.95-2.67,2.01-4.62,2.82-.97.4-2.04.74-3.19.91-.29.03-.58.06-.87.09h-.9s-.91-.08-.91-.08l-.48-.11c-.22-.04-.44-.1-.63-.18-.38-.17-.76-.33-1.11-.51-.31-.21-.62-.41-.84-.65-.46-.46-.75-.97-.79-1.57-.05-.59.24-1.22.69-1.55.44-.29.93-.28,1.47-.28.97.11,1.95.46,2.66.96.36.24.62.53.77.83.08.17.11.26.11.52-.03.12-.08.23-.13.33-.06.08-.13.13-.2.19-.28.18-.51.21-.7.23-.19.02-.35.02-.48,0-.25-.03-.39-.08-.39-.14,0-.06.12-.13.35-.21.21-.07.59-.2.77-.39,0-.02.04-.04.03-.05-.01-.01-.02,0-.01,0-.03-.03-.03.02-.04-.07-.02-.05-.06-.08-.08-.12-.13-.14-.3-.26-.48-.34-.36-.17-.75-.26-1.1-.27-.2.01-.41-.02-.57.11-.15.15-.18.42-.07.63.26.43.76.56,1.09.61h.12s.2.03.29.04h.67s.68-.06.68-.06l.68-.13c.9-.21,1.78-.56,2.59-.96,1.61-.8,2.93-1.82,3.77-2.64.22-.2.38-.4.55-.57.15-.2.28-.37.39-.51.23-.29.37-.48.42-.54Z"/><path class="cls-3" d="M284.75,573.13c-2.36-3.09-3.65-6.66-4.55-10.2-.89-3.56-1.36-7.18-1.63-10.78-.45-7.22-.11-14.43.78-21.56l.34-2.67.41-2.66c.26-1.78.6-3.54.92-5.3l.25-1.32.31-1.32.62-2.63c.37-1.77.9-3.49,1.41-5.21,2.05-6.89,4.59-13.6,7.4-20.17,5.55-13.15,12.01-25.86,17.03-39.05,2.47-6.58,4.62-13.33,5.32-20.2.08-.86.18-1.71.24-2.57l.07-2.62-.02-2.62-.1-2.61c-.19-3.48-.66-6.93-1.49-10.28-.06-.24-.37-1.82-1.08-3.96-.69-2.14-1.82-4.86-3.48-7.16-.82-1.15-1.78-2.19-2.81-2.95-1.02-.78-2.14-1.21-3.05-1.19-.46,0-.83.18-1.14.37-.28.23-.51.5-.64.76-.15.26-.23.48-.3.64-.07.16-.13.24-.18.24-.05,0-.08-.1-.11-.28-.03-.18-.04-.46.05-.8.06-.35.25-.77.59-1.18.36-.38.91-.74,1.56-.86,1.3-.25,2.78.18,4.07.95,1.31.76,2.5,1.84,3.52,3.04,2.06,2.41,3.48,5.27,4.37,7.52.9,2.26,1.31,3.92,1.38,4.17.88,3.56,1.36,7.18,1.57,10.8l.11,2.71.02,2.71-.07,2.71c-.06.91-.17,1.82-.25,2.74-.75,7.31-2.99,14.23-5.49,20.93-5.11,13.41-11.57,26.1-17.07,39.15-2.79,6.51-5.29,13.12-7.29,19.86-.5,1.68-1.01,3.37-1.37,5.08l-.6,2.56-.3,1.28-.24,1.3c-.32,1.73-.66,3.46-.91,5.21l-.4,2.61-.33,2.62c-.87,6.98-1.2,14.04-.76,21.01.27,3.48.72,6.94,1.55,10.28.83,3.32,2.06,6.58,4.04,9.16.07.09.33.43.74.97.41.49,1.06,1.11,1.92,1.76.86.65,1.93,1.32,3.13,1.84,1.19.52,2.53.89,3.8.84.15.01.34-.03.44-.04.05,0,.12,0,.18-.01.13-.02.26-.05.41-.11.27-.1.62-.31.7-.65.03-.16,0-.34-.1-.45-.1-.13-.25-.1-.39-.13-.28-.02-.6.02-.91.11-.31.1-.64.23-.87.47-.05.05-.11.15-.11.2-.03.03-.01,0-.04.03.02.06.14.14.25.21.52.25.92.31.9.43-.01.07-.36.22-1.09.11-.19-.06-.41-.1-.64-.34-.09-.14-.2-.36-.16-.54,0-.17.06-.25.11-.4.26-.51.89-.95,1.62-1.28.72-.31,1.61-.53,2.34-.46.36.06.68.06,1,.33.31.25.53.66.6,1.08.11.88-.32,1.62-1.06,2.25-.21.14-.42.3-.65.44l-.79.35c-.26.13-.56.22-.87.28-.26.06-.44.11-.67.13-1.73.22-3.4-.13-4.85-.64-1.46-.51-2.73-1.19-3.78-1.89-1.05-.69-1.9-1.41-2.47-2.02-.52-.62-.86-1.02-.94-1.12Z"/><path class="cls-3" d="M573.13,345.27c-3.09,2.36-6.66,3.65-10.2,4.55-3.56.89-7.18,1.36-10.78,1.63-7.22.45-14.43.11-21.56-.78l-2.67-.34-2.66-.41c-1.78-.26-3.54-.6-5.3-.92l-1.32-.25-1.32-.31-2.63-.62c-1.77-.37-3.49-.9-5.21-1.41-6.89-2.05-13.6-4.59-20.17-7.4-13.15-5.55-25.86-12.01-39.05-17.03-6.58-2.47-13.33-4.62-20.2-5.32-.86-.08-1.71-.18-2.57-.24l-2.62-.07-2.62.02-2.61.1c-3.48.19-6.93.66-10.28,1.49-.24.06-1.82.37-3.96,1.08-2.14.69-4.86,1.82-7.16,3.48-1.15.82-2.19,1.78-2.95,2.81-.78,1.02-1.21,2.14-1.19,3.05,0,.46.18.83.38,1.14.23.28.5.51.76.64.26.15.48.23.64.3.16.07.24.13.24.18,0,.05-.1.08-.28.11-.18.03-.46.04-.8-.05-.35-.06-.77-.25-1.18-.59-.38-.36-.74-.91-.86-1.56-.25-1.3.18-2.78.95-4.07.76-1.31,1.84-2.5,3.04-3.52,2.4-2.06,5.27-3.48,7.52-4.37,2.26-.9,3.92-1.31,4.17-1.38,3.56-.88,7.18-1.36,10.8-1.57l2.71-.11,2.71-.02,2.71.07c.91.06,1.82.17,2.74.25,7.3.75,14.23,2.99,20.93,5.49,13.41,5.11,26.1,11.57,39.15,17.07,6.51,2.79,13.12,5.29,19.86,7.29,1.68.5,3.37,1.01,5.08,1.37l2.56.6,1.28.3,1.3.24c1.73.32,3.46.66,5.21.91l2.61.4,2.62.33c6.98.87,14.04,1.2,21.01.76,3.48-.27,6.94-.72,10.28-1.55,3.32-.83,6.58-2.06,9.16-4.04.06-.05.25-.19.54-.42.15-.11.32-.24.51-.39.17-.17.37-.33.57-.55.81-.84,1.84-2.16,2.64-3.77.4-.8.75-1.68.96-2.59l.13-.68.06-.68v-.67c-.02-.09-.05-.25-.05-.29v-.12c-.06-.33-.18-.83-.62-1.09-.21-.12-.48-.08-.63.07-.12.16-.09.37-.11.57.01.35.1.74.27,1.1.08.18.19.35.34.48.04.03.07.06.12.08.09.01.05.01.07.04,0-.01,0,0,0,.01.01,0,.03-.03.05-.03.19-.18.33-.56.39-.77.08-.22.15-.35.21-.35.06,0,.1.14.14.39.02.13.02.28,0,.48-.01.19-.04.42-.23.7-.06.07-.1.14-.19.2-.1.05-.21.1-.33.13-.26,0-.35-.03-.52-.11-.3-.15-.59-.41-.83-.77-.5-.71-.85-1.69-.96-2.66,0-.54-.01-1.03.28-1.47.33-.45.96-.74,1.55-.69.6.04,1.11.34,1.57.79.24.22.44.53.65.84.18.35.33.73.51,1.11.08.19.13.41.18.63l.11.48.09.91v.9c-.04.29-.07.58-.1.87-.17,1.15-.51,2.21-.91,3.19-.81,1.95-1.87,3.52-2.82,4.62-.23.28-.48.52-.69.74-.22.19-.42.36-.59.5-.34.29-.56.47-.63.53Z"/><path class="cls-3" d="M571.38,287.01c-2.57-1.98-5.84-3.21-9.16-4.04-3.34-.83-6.8-1.28-10.28-1.55-6.98-.43-14.03-.11-21.01.76l-2.62.33-2.61.4c-1.74.25-3.47.58-5.21.91l-1.3.24-1.28.3-2.56.6c-1.71.36-3.4.87-5.08,1.37-6.74,2-13.35,4.5-19.86,7.29-13.05,5.5-25.75,11.96-39.15,17.07-6.71,2.51-13.63,4.74-20.93,5.49-.91.08-1.83.19-2.74.25l-2.71.07-2.71-.02-2.71-.11c-3.62-.2-7.24-.68-10.8-1.57-.25-.07-1.91-.48-4.17-1.38-2.25-.88-5.11-2.3-7.52-4.37-1.2-1.03-2.27-2.22-3.04-3.52-.77-1.28-1.19-2.77-.95-4.07.12-.65.48-1.2.86-1.56.41-.35.83-.53,1.18-.59.35-.08.62-.07.8-.05.18.02.28.06.28.11,0,.05-.08.11-.24.18-.16.06-.39.15-.64.3-.26.13-.53.35-.76.64-.2.31-.37.68-.38,1.14-.03.91.41,2.03,1.19,3.05.76,1.03,1.8,1.98,2.95,2.81,2.31,1.66,5.02,2.79,7.16,3.48,2.14.7,3.73,1.01,3.96,1.08,3.34.83,6.8,1.29,10.28,1.49l2.61.1,2.62.02,2.62-.07c.86-.06,1.72-.16,2.57-.24,6.86-.7,13.61-2.85,20.2-5.32,13.19-5.02,25.89-11.48,39.05-17.03,6.56-2.81,13.27-5.36,20.17-7.4,1.72-.51,3.44-1.04,5.21-1.41l2.63-.62,1.32-.31,1.32-.25c1.76-.33,3.52-.67,5.3-.92l2.66-.41,2.67-.34c7.12-.89,14.34-1.23,21.56-.78,3.61.28,7.22.75,10.78,1.63,3.54.9,7.11,2.19,10.2,4.55.07.06.29.24.63.53.17.14.36.31.59.5.21.22.46.46.69.74.95,1.1,2.01,2.67,2.82,4.62.4.97.74,2.04.91,3.19.03.29.06.58.09.87v.9s-.08.91-.08.91l-.11.48c-.05.22-.1.44-.18.63-.17.38-.33.76-.51,1.11-.21.31-.41.62-.65.84-.46.46-.97.75-1.57.79-.59.05-1.22-.24-1.55-.69-.29-.44-.28-.93-.28-1.47.11-.97.46-1.95.96-2.66.24-.36.53-.62.83-.77.17-.08.26-.11.52-.11.12.03.23.08.33.13.08.06.13.13.19.2.18.28.21.51.23.7.02.19.02.35,0,.48-.03.25-.08.39-.14.39-.06,0-.13-.12-.21-.35-.07-.21-.2-.59-.39-.77-.02,0-.04-.04-.05-.03-.01.01,0,.02,0,.01-.03.03.02.03-.07.04-.05.02-.08.06-.12.08-.14.13-.26.3-.34.48-.17.36-.26.75-.27,1.1.01.2-.02.41.11.57.15.15.42.18.63.07.43-.26.56-.76.61-1.09v-.12s.03-.2.04-.29v-.67s-.06-.68-.06-.68l-.13-.68c-.21-.9-.56-1.78-.96-2.59-.8-1.61-1.82-2.93-2.64-3.77-.2-.22-.4-.38-.57-.55-.2-.15-.37-.28-.51-.39-.29-.23-.48-.37-.54-.42Z"/><path class="cls-3" d="M58.64,343.01c2.57,1.98,5.84,3.21,9.16,4.04,3.34.83,6.8,1.28,10.28,1.55,6.98.43,14.03.11,21.01-.76l2.62-.33,2.61-.4c1.74-.25,3.47-.58,5.21-.91l1.3-.24,1.28-.3,2.56-.6c1.71-.36,3.4-.87,5.08-1.37,6.74-2,13.35-4.5,19.86-7.29,13.05-5.5,25.75-11.96,39.15-17.07,6.71-2.51,13.63-4.74,20.93-5.49.91-.08,1.83-.19,2.74-.25l2.71-.07,2.71.02,2.71.11c3.62.2,7.24.68,10.8,1.57.25.07,1.91.48,4.17,1.38,2.25.88,5.11,2.3,7.52,4.37,1.2,1.03,2.28,2.22,3.04,3.52.77,1.28,1.19,2.77.95,4.07-.12.65-.48,1.2-.86,1.56-.41.35-.83.53-1.18.59-.35.08-.62.07-.8.05-.18-.02-.28-.06-.28-.11,0-.05.08-.11.24-.18.16-.06.39-.15.64-.3.26-.13.53-.35.76-.64.2-.31.37-.68.37-1.14.03-.91-.41-2.03-1.19-3.05-.76-1.03-1.8-1.98-2.95-2.81-2.31-1.66-5.02-2.79-7.16-3.48-2.15-.7-3.73-1.01-3.96-1.08-3.34-.83-6.8-1.29-10.28-1.49l-2.61-.1-2.62-.02-2.62.07c-.86.06-1.72.16-2.57.24-6.86.7-13.61,2.85-20.2,5.32-13.19,5.02-25.89,11.48-39.05,17.03-6.56,2.81-13.27,5.36-20.17,7.4-1.72.51-3.44,1.04-5.21,1.41l-2.63.62-1.32.31-1.32.25c-1.76.33-3.52.67-5.3.92l-2.66.41-2.67.34c-7.12.89-14.34,1.23-21.56.78-3.61-.28-7.22-.75-10.78-1.63-3.54-.9-7.11-2.19-10.2-4.55-.1-.09-.5-.42-1.12-.94-.61-.57-1.33-1.42-2.02-2.47-.7-1.05-1.38-2.32-1.89-3.78-.51-1.45-.86-3.12-.64-4.85.01-.22.07-.4.13-.67.06-.32.15-.61.28-.87l.35-.79c.14-.23.29-.44.44-.65.62-.74,1.37-1.17,2.25-1.06.42.07.82.29,1.08.6.28.32.28.64.33,1,.06.73-.16,1.61-.46,2.34-.32.73-.77,1.36-1.28,1.62-.15.05-.23.12-.4.11-.18.04-.4-.07-.54-.16-.25-.24-.29-.46-.34-.64-.11-.72.04-1.08.11-1.09.12-.02.18.38.43.9.07.11.16.23.22.25.03-.03,0,0,.03-.04.05,0,.15-.06.2-.11.24-.23.38-.56.47-.87.09-.31.13-.63.11-.91-.03-.14,0-.29-.13-.39-.11-.1-.29-.13-.45-.1-.34.08-.55.43-.65.7-.05.14-.08.28-.11.41-.02.06-.01.13-.01.18,0,.1-.05.29-.04.44-.06,1.27.31,2.6.84,3.8.52,1.2,1.18,2.27,1.84,3.13.65.86,1.28,1.51,1.76,1.92.54.41.88.67.97.74Z"/><path class="cls-3" d="M56.9,284.75c3.09-2.36,6.66-3.65,10.2-4.55,3.56-.89,7.18-1.36,10.78-1.63,7.22-.45,14.43-.11,21.56.78l2.67.34,2.66.41c1.78.26,3.54.6,5.3.92l1.32.25,1.32.31,2.63.62c1.77.37,3.49.9,5.21,1.41,6.89,2.05,13.6,4.59,20.17,7.4,13.15,5.55,25.86,12.01,39.05,17.03,6.58,2.47,13.33,4.62,20.2,5.32.86.08,1.71.18,2.57.24l2.62.07,2.62-.02,2.61-.1c3.48-.19,6.93-.66,10.28-1.49.24-.06,1.82-.37,3.96-1.08,2.14-.69,4.86-1.82,7.16-3.48,1.15-.82,2.19-1.78,2.95-2.81.78-1.02,1.21-2.14,1.19-3.05,0-.46-.18-.83-.37-1.14-.23-.28-.5-.51-.76-.64-.26-.15-.48-.23-.64-.3-.16-.07-.24-.13-.24-.18,0-.05.1-.08.28-.11.18-.03.46-.04.8.05.35.06.77.25,1.18.59.38.36.74.91.86,1.56.25,1.3-.18,2.78-.95,4.07-.76,1.31-1.84,2.5-3.04,3.52-2.4,2.06-5.27,3.48-7.52,4.37-2.26.9-3.92,1.31-4.17,1.38-3.56.88-7.18,1.36-10.8,1.57l-2.71.11-2.71.02-2.71-.07c-.91-.06-1.82-.17-2.74-.25-7.3-.75-14.23-2.99-20.93-5.49-13.41-5.11-26.1-11.57-39.15-17.07-6.51-2.79-13.12-5.29-19.86-7.29-1.68-.5-3.37-1.01-5.08-1.37l-2.56-.6-1.28-.3-1.3-.24c-1.73-.32-3.46-.66-5.21-.91l-2.61-.4-2.62-.33c-6.98-.87-14.04-1.2-21.01-.76-3.48.27-6.94.72-10.28,1.55-3.32.83-6.58,2.06-9.16,4.04-.06.05-.25.19-.54.42-.15.11-.32.24-.51.39-.17.17-.37.33-.57.55-.81.84-1.84,2.16-2.64,3.77-.4.8-.75,1.68-.96,2.59l-.13.68-.06.68v.67c.02.09.05.25.05.29v.12c.06.33.18.83.62,1.09.21.12.48.08.63-.07.12-.16.09-.37.11-.57-.01-.35-.1-.74-.27-1.1-.08-.18-.19-.35-.34-.48-.04-.03-.07-.06-.12-.08-.09-.01-.05-.01-.07-.04,0,.01,0,0,0-.01-.01,0-.03.03-.05.03-.19.18-.33.56-.39.77-.08.22-.15.35-.21.35-.06,0-.1-.14-.14-.39-.02-.13-.02-.28,0-.48.01-.19.04-.42.23-.7.06-.07.1-.14.19-.2.1-.05.21-.1.33-.13.26,0,.35.03.52.11.3.15.59.41.83.77.5.71.85,1.69.96,2.66,0,.54.01,1.03-.28,1.47-.33.45-.96.74-1.55.69-.6-.04-1.11-.34-1.57-.79-.24-.22-.44-.53-.65-.84-.18-.35-.33-.73-.51-1.11-.08-.19-.13-.41-.18-.63l-.11-.48-.09-.91v-.9c.04-.29.07-.58.1-.87.17-1.15.51-2.21.91-3.19.81-1.95,1.87-3.52,2.82-4.62.23-.28.48-.52.69-.74.22-.19.42-.36.59-.5.34-.29.56-.47.63-.53Z"/><path class="cls-3" d="M553.86,269.96c-.32-2.41-1.42-4.81-2.77-7.04-1.36-2.24-2.99-4.35-4.74-6.37-3.56-3.99-7.57-7.63-11.84-10.92-1.06-.83-2.14-1.65-3.24-2.43-1.09-.8-2.21-1.56-3.33-2.32-1.1-.79-2.28-1.43-3.41-2.15-1.12-.73-2.32-1.36-3.5-1.99-4.75-2.55-9.7-4.76-14.76-6.76-10.1-4.06-20.53-7.41-30.64-11.89-5.03-2.27-10.04-4.81-14.48-8.39-.55-.45-1.11-.89-1.64-1.36l-1.52-1.44c-1-.98-1.97-1.98-2.91-3.02-1.88-2.08-3.61-4.32-5.09-6.76-.1-.18-.79-1.31-1.53-3.05-.74-1.73-1.53-4.09-1.7-6.56-.09-1.23-.01-2.49.3-3.63.3-1.14.9-2.21,1.79-2.8.44-.3.96-.4,1.39-.39.43.04.77.19,1,.35.47.32.58.63.53.68-.07.09-.33-.06-.77-.16-.43-.11-1.02-.08-1.47.39-.46.47-.8,1.29-.9,2.24-.12.95-.05,2.01.14,3.07.39,2.11,1.27,4.17,2.07,5.68.8,1.52,1.49,2.53,1.59,2.69,1.36,2.24,2.99,4.35,4.77,6.33.89.99,1.83,1.95,2.78,2.88l1.46,1.38c.5.43,1.02.83,1.52,1.25,4.09,3.3,8.92,5.78,13.84,7.99,9.9,4.39,20.34,7.75,30.54,11.85,5.11,2.02,10.17,4.27,15.06,6.9,1.22.66,2.45,1.3,3.62,2.06,1.17.75,2.41,1.43,3.53,2.23,1.14.78,2.29,1.55,3.4,2.37,1.13.8,2.23,1.63,3.33,2.49,4.38,3.38,8.52,7.12,12.24,11.29,1.83,2.12,3.56,4.34,5.04,6.78,1.46,2.44,2.73,5.1,3.15,8.14,0,.07.03.3.06.66.04.34.07.84.01,1.43-.09,1.16-.38,2.63-1.04,4.18-.66,1.5-1.69,3.24-3.52,4.16-.57.29-1.24.47-1.81.48-.57,0-1.09-.17-1.48-.53-.38-.36-.54-.92-.45-1.36.14-.36.36-.71.74-1.05.71-.59,1.73-.98,2.37-.95.32.02.56.08.75.2.1.06.17.12.24.27.08.16.06.32.03.46-.08.24-.19.38-.29.48-.1.11-.19.19-.27.24-.16.11-.26.15-.31.11s-.02-.15.04-.32c.06-.15.18-.43.17-.61-.02-.02-.01-.04-.04-.05-.02,0-.11-.07-.18-.06-.15-.03-.32.01-.47.05-.3.09-.58.25-.79.42-.13.11-.25.22-.32.35-.04.15.06.33.22.41.36.13.69-.07.92-.24,1.05-.68,1.77-2.05,2.18-3.33.42-1.3.56-2.56.57-3.44.01-.43-.04-.79-.09-1.07-.04-.28-.06-.45-.07-.51Z"/><path class="cls-3" d="M361.1,73.99c3.03.42,5.7,1.69,8.14,3.15,2.44,1.48,4.66,3.21,6.78,5.04,4.18,3.72,7.91,7.86,11.3,12.24.85,1.09,1.69,2.2,2.49,3.33.82,1.11,1.59,2.26,2.37,3.4.8,1.12,1.48,2.35,2.23,3.53.76,1.17,1.41,2.4,2.06,3.62,2.63,4.89,4.88,9.94,6.9,15.06,4.1,10.2,7.46,20.64,11.85,30.54,2.21,4.92,4.69,9.75,7.99,13.84.42.51.82,1.02,1.25,1.52l1.38,1.46c.94.95,1.9,1.88,2.88,2.78,1.98,1.78,4.09,3.41,6.33,4.77.16.09,1.17.79,2.69,1.59,1.51.8,3.56,1.69,5.68,2.07,1.05.19,2.12.26,3.07.14.95-.1,1.77-.44,2.24-.9.47-.46.51-1.04.39-1.47-.1-.44-.25-.7-.16-.77.05-.05.36.06.68.53.17.23.31.57.35,1,.02.43-.09.95-.39,1.39-.59.89-1.66,1.49-2.8,1.79-1.15.31-2.4.39-3.63.3-2.47-.17-4.83-.95-6.56-1.7-1.74-.74-2.88-1.43-3.05-1.53-2.43-1.48-4.67-3.21-6.76-5.09-1.04-.94-2.04-1.92-3.02-2.91l-1.44-1.52c-.46-.53-.9-1.1-1.36-1.64-3.58-4.44-6.11-9.45-8.39-14.48-4.48-10.11-7.83-20.55-11.89-30.64-2-5.06-4.21-10.01-6.76-14.76-.64-1.19-1.27-2.38-1.99-3.5-.72-1.13-1.36-2.3-2.15-3.41-.76-1.12-1.51-2.24-2.32-3.33-.78-1.1-1.6-2.18-2.43-3.24-3.3-4.28-6.93-8.29-10.92-11.84-2.02-1.74-4.13-3.38-6.37-4.74-2.23-1.35-4.64-2.45-7.04-2.77-.08-.01-.4-.06-.9-.13-.47-.05-1.13-.04-1.94.06-.8.1-1.73.3-2.64.64-.92.34-1.82.83-2.46,1.5-.16.17-.3.34-.42.52-.08.12-.12.16-.18.27-.09.19-.18.48-.03.69.07.1.18.17.3.17.12,0,.19-.09.28-.16.16-.16.31-.36.43-.59.11-.23.22-.5.21-.77-.08-.34-.05-.29-.29-.27-.41.12-.69.29-.75.19-.05-.06.04-.35.5-.71.14-.08.28-.19.58-.18.32.06.44.21.53.38.18.33.24.89,0,1.64-.24.73-.77,1.5-1.27,1.83-.26.16-.45.33-.8.33-.34.01-.7-.12-.99-.34-.58-.48-.76-1.27-.63-2.12l.17-.65c.06-.2.21-.48.27-.64.15-.32.34-.62.55-.89,3.7-4.25,9.56-3.75,9.87-3.61Z"/><path class="cls-3" d="M73.33,269.58c.42-3.03,1.69-5.7,3.15-8.14,1.48-2.44,3.21-4.66,5.04-6.78,3.72-4.18,7.86-7.91,12.24-11.29,1.09-.85,2.2-1.69,3.33-2.49,1.11-.82,2.26-1.59,3.4-2.37,1.12-.8,2.35-1.48,3.53-2.23,1.17-.76,2.4-1.41,3.62-2.06,4.89-2.63,9.94-4.88,15.06-6.9,10.2-4.1,20.64-7.46,30.54-11.85,4.92-2.21,9.75-4.69,13.84-7.99.51-.42,1.02-.82,1.52-1.25l1.46-1.38c.95-.94,1.88-1.9,2.78-2.88,1.78-1.98,3.41-4.09,4.77-6.33.09-.16.79-1.17,1.59-2.69.8-1.51,1.69-3.56,2.07-5.68.19-1.05.26-2.12.14-3.07-.1-.95-.44-1.77-.9-2.24-.46-.47-1.04-.51-1.47-.39-.44.1-.7.25-.77.16-.05-.05.06-.36.53-.68.23-.17.57-.31,1-.35.43-.02.95.09,1.39.39.89.59,1.49,1.66,1.79,2.8.31,1.15.39,2.4.3,3.63-.17,2.47-.95,4.83-1.7,6.56-.74,1.74-1.43,2.88-1.53,3.05-1.48,2.43-3.21,4.67-5.09,6.76-.94,1.04-1.92,2.04-2.91,3.02l-1.52,1.44c-.53.46-1.1.9-1.64,1.36-4.44,3.58-9.45,6.11-14.48,8.39-10.11,4.48-20.55,7.83-30.64,11.89-5.06,2-10.01,4.21-14.76,6.76-1.19.64-2.38,1.26-3.5,1.99-1.13.72-2.3,1.36-3.41,2.15-1.12.76-2.24,1.51-3.33,2.32-1.1.78-2.18,1.6-3.24,2.43-4.28,3.3-8.29,6.93-11.84,10.92-1.74,2.02-3.38,4.13-4.74,6.37-1.35,2.23-2.45,4.64-2.77,7.04,0,.06-.03.23-.07.51-.05.28-.1.64-.09,1.07,0,.88.14,2.14.57,3.44.41,1.28,1.13,2.65,2.18,3.33.23.17.56.37.92.24.16-.07.26-.25.22-.41-.07-.13-.19-.25-.32-.35-.22-.18-.49-.33-.79-.42-.15-.04-.31-.08-.47-.05-.07,0-.16.06-.18.06-.02,0-.02.02-.04.05-.01.18.1.46.17.61.06.17.08.28.04.32-.04.04-.15,0-.31-.11-.08-.05-.18-.13-.27-.24-.1-.1-.21-.25-.29-.48-.03-.14-.05-.3.03-.46.07-.15.14-.21.24-.27.19-.13.43-.19.75-.2.64-.03,1.66.36,2.37.95.39.35.6.69.74,1.05.1.43-.06,1-.45,1.36-.38.36-.9.53-1.48.53-.57-.01-1.24-.2-1.81-.48-1.83-.92-2.86-2.65-3.52-4.16-.66-1.54-.95-3.01-1.04-4.18-.06-.59-.03-1.09.01-1.43.03-.36.05-.58.06-.66Z"/><path class="cls-3" d="M269.3,76.82c-2.4.32-4.81,1.42-7.04,2.77-2.24,1.36-4.35,2.99-6.37,4.74-3.99,3.56-7.63,7.57-10.92,11.84-.83,1.06-1.65,2.14-2.43,3.24-.8,1.09-1.56,2.21-2.32,3.33-.79,1.1-1.43,2.28-2.15,3.41-.73,1.12-1.36,2.32-1.99,3.5-2.55,4.75-4.76,9.7-6.76,14.76-4.06,10.1-7.41,20.53-11.89,30.64-2.27,5.03-4.81,10.04-8.39,14.48-.45.55-.89,1.11-1.36,1.64l-1.44,1.52c-.98,1-1.98,1.97-3.02,2.91-2.08,1.88-4.32,3.61-6.76,5.09-.18.1-1.31.79-3.05,1.53-1.73.74-4.09,1.53-6.56,1.7-1.23.09-2.49.01-3.63-.3-1.14-.3-2.21-.9-2.8-1.79-.3-.44-.4-.96-.39-1.39.04-.43.19-.77.35-1,.32-.47.63-.58.68-.53.09.07-.06.33-.16.77-.11.43-.08,1.02.39,1.47.47.46,1.29.8,2.24.9.95.12,2.01.05,3.07-.14,2.11-.39,4.17-1.27,5.68-2.07,1.52-.8,2.53-1.49,2.69-1.59,2.24-1.36,4.35-2.99,6.33-4.77.99-.89,1.95-1.82,2.88-2.78l1.38-1.46c.43-.5.83-1.02,1.25-1.52,3.3-4.09,5.78-8.92,7.99-13.84,4.39-9.9,7.75-20.34,11.85-30.54,2.02-5.11,4.27-10.17,6.9-15.06.66-1.22,1.3-2.45,2.06-3.62.75-1.17,1.43-2.41,2.23-3.53.78-1.14,1.55-2.29,2.37-3.4.8-1.13,1.63-2.23,2.49-3.33,3.38-4.38,7.12-8.52,11.3-12.24,2.12-1.83,4.34-3.56,6.78-5.04,2.44-1.46,5.1-2.73,8.14-3.15.31-.14,6.17-.64,9.87,3.61.21.28.4.58.55.89.06.15.21.44.27.64l.17.65c.13.85-.05,1.64-.63,2.12-.29.22-.65.35-.99.34-.35,0-.54-.17-.8-.33-.49-.33-1.03-1.1-1.27-1.83-.25-.75-.18-1.31,0-1.64.09-.17.21-.32.53-.38.3,0,.44.11.58.18.46.36.55.65.5.71-.07.09-.34-.08-.75-.19-.25-.02-.21-.07-.29.27,0,.27.1.54.21.77.12.23.27.44.43.59.09.07.16.17.28.16.11,0,.23-.07.3-.17.14-.22.06-.5-.03-.69-.06-.12-.09-.15-.18-.27-.12-.18-.26-.36-.42-.52-.64-.67-1.54-1.16-2.46-1.5-.91-.34-1.84-.55-2.64-.64-.81-.1-1.47-.1-1.94-.06-.5.07-.82.12-.9.13Z"/><path class="cls-3" d="M556.69,360.44c-.42,3.03-1.69,5.7-3.15,8.14-1.48,2.44-3.21,4.66-5.04,6.78-3.72,4.18-7.85,7.91-12.24,11.3-1.09.85-2.2,1.69-3.33,2.49-1.11.82-2.26,1.59-3.4,2.37-1.12.8-2.35,1.48-3.53,2.23-1.17.76-2.4,1.41-3.62,2.06-4.89,2.63-9.94,4.88-15.06,6.9-10.2,4.1-20.64,7.46-30.54,11.85-4.92,2.21-9.75,4.69-13.84,7.99-.51.42-1.02.82-1.52,1.25l-1.46,1.38c-.95.94-1.88,1.9-2.78,2.88-1.78,1.98-3.41,4.09-4.77,6.33-.09.16-.79,1.17-1.59,2.69-.8,1.51-1.69,3.56-2.07,5.68-.19,1.05-.26,2.12-.14,3.07.1.95.44,1.77.9,2.24.46.47,1.04.51,1.47.39.44-.1.7-.25.77-.16.05.05-.06.36-.53.68-.23.17-.57.31-1,.35-.43.02-.95-.09-1.39-.39-.89-.59-1.49-1.66-1.79-2.8-.31-1.15-.39-2.4-.3-3.63.17-2.47.95-4.83,1.7-6.56.74-1.74,1.43-2.88,1.53-3.05,1.48-2.43,3.21-4.67,5.09-6.76.94-1.04,1.92-2.04,2.91-3.02l1.52-1.44c.53-.46,1.1-.9,1.64-1.36,4.44-3.58,9.45-6.11,14.48-8.39,10.11-4.48,20.55-7.83,30.64-11.89,5.06-2,10.01-4.21,14.76-6.76,1.19-.64,2.38-1.27,3.5-1.99,1.13-.72,2.3-1.36,3.41-2.15,1.12-.76,2.24-1.51,3.33-2.32,1.1-.78,2.18-1.59,3.24-2.43,4.28-3.3,8.29-6.93,11.84-10.92,1.74-2.02,3.38-4.13,4.74-6.37,1.35-2.23,2.45-4.64,2.77-7.04,0-.06.03-.23.07-.51.05-.28.1-.64.09-1.07,0-.88-.14-2.14-.57-3.44-.41-1.28-1.12-2.65-2.18-3.33-.23-.17-.56-.38-.92-.24-.16.07-.26.25-.22.41.07.13.19.25.32.35.22.18.49.33.79.42.15.04.31.08.47.05.07,0,.16-.07.18-.06.02,0,.02-.02.04-.05.01-.18-.1-.46-.17-.61-.06-.17-.08-.28-.04-.32s.15,0,.31.11c.08.05.18.13.27.24.1.1.21.25.29.48.03.14.05.3-.03.46-.07.15-.14.21-.24.27-.19.13-.43.19-.75.2-.64.03-1.66-.36-2.37-.95-.39-.35-.6-.69-.74-1.05-.1-.43.06-1,.45-1.36.38-.36.9-.53,1.48-.53.57.01,1.24.2,1.81.48,1.83.92,2.86,2.65,3.52,4.16.66,1.54.95,3.01,1.04,4.18.06.59.03,1.09-.01,1.43-.03.36-.05.58-.06.66Z"/><path class="cls-3" d="M360.73,553.2c2.4-.32,4.81-1.42,7.04-2.77,2.24-1.36,4.35-2.99,6.37-4.74,3.99-3.56,7.63-7.57,10.92-11.84.83-1.06,1.65-2.14,2.43-3.24.8-1.09,1.56-2.21,2.32-3.33.79-1.1,1.43-2.27,2.15-3.41.73-1.12,1.36-2.32,1.99-3.5,2.55-4.75,4.76-9.7,6.76-14.76,4.06-10.1,7.41-20.53,11.89-30.64,2.27-5.03,4.81-10.04,8.39-14.48.45-.55.89-1.11,1.36-1.64l1.44-1.52c.98-1,1.98-1.97,3.02-2.91,2.08-1.88,4.32-3.61,6.76-5.09.18-.1,1.31-.79,3.05-1.53,1.73-.74,4.09-1.53,6.56-1.7,1.23-.09,2.49-.01,3.63.3,1.14.3,2.21.9,2.8,1.79.3.44.4.96.39,1.39-.04.43-.19.77-.35,1-.32.47-.63.58-.68.53-.09-.07.06-.33.16-.77.11-.43.08-1.02-.39-1.47-.47-.46-1.29-.8-2.24-.9-.95-.12-2.01-.05-3.07.14-2.11.39-4.17,1.27-5.68,2.07-1.52.8-2.53,1.49-2.69,1.59-2.24,1.36-4.35,2.99-6.33,4.77-.99.89-1.95,1.83-2.88,2.78l-1.38,1.46c-.43.5-.83,1.02-1.25,1.52-3.3,4.09-5.78,8.92-7.99,13.84-4.39,9.9-7.75,20.34-11.85,30.54-2.02,5.11-4.27,10.17-6.9,15.06-.66,1.22-1.3,2.45-2.06,3.62-.75,1.17-1.43,2.41-2.23,3.53-.78,1.14-1.55,2.29-2.37,3.4-.8,1.13-1.63,2.23-2.49,3.33-3.38,4.38-7.12,8.52-11.3,12.24-2.12,1.83-4.34,3.56-6.78,5.04-2.44,1.46-5.1,2.73-8.14,3.15-.07,0-.3.03-.66.06-.34.04-.84.07-1.43.01-1.16-.09-2.63-.39-4.18-1.04-1.5-.66-3.24-1.69-4.16-3.52-.29-.57-.47-1.24-.48-1.81,0-.57.17-1.09.53-1.48.36-.38.92-.54,1.36-.45.36.14.71.36,1.05.74.59.71.98,1.73.95,2.37-.02.32-.08.56-.2.75-.06.1-.12.17-.27.24-.16.08-.32.06-.46.03-.24-.08-.38-.19-.48-.29-.11-.1-.19-.19-.24-.27-.11-.16-.15-.26-.11-.31.04-.04.15-.02.32.04.15.06.43.18.61.17.02-.02.04-.01.05-.04,0-.02.07-.11.06-.18.03-.15-.01-.32-.05-.47-.09-.3-.25-.58-.42-.79-.11-.13-.22-.24-.35-.32-.15-.04-.33.06-.41.22-.13.36.07.69.24.92.68,1.05,2.05,1.77,3.33,2.18,1.3.42,2.56.56,3.44.57.43.01.79-.04,1.07-.09.28-.04.46-.06.51-.07Z"/><path class="cls-3" d="M76.16,360.06c.32,2.4,1.42,4.81,2.77,7.04,1.36,2.24,2.99,4.35,4.74,6.37,3.56,3.99,7.57,7.63,11.84,10.92,1.06.83,2.14,1.65,3.24,2.43,1.09.8,2.21,1.56,3.33,2.32,1.1.79,2.27,1.43,3.41,2.15,1.12.73,2.32,1.36,3.5,1.99,4.75,2.55,9.7,4.76,14.76,6.76,10.1,4.06,20.53,7.41,30.64,11.89,5.03,2.27,10.04,4.81,14.48,8.39.55.45,1.11.89,1.64,1.36l1.52,1.44c1,.98,1.97,1.98,2.91,3.02,1.88,2.08,3.61,4.32,5.09,6.76.1.18.79,1.31,1.53,3.05.74,1.73,1.53,4.09,1.7,6.56.09,1.23.01,2.49-.3,3.63-.3,1.14-.9,2.21-1.79,2.8-.44.3-.96.4-1.39.39-.43-.04-.77-.19-1-.35-.47-.32-.58-.63-.53-.68.07-.09.33.06.77.16.43.11,1.02.08,1.47-.39.46-.47.8-1.29.9-2.24.12-.95.05-2.01-.14-3.07-.39-2.11-1.27-4.17-2.07-5.68-.8-1.52-1.49-2.53-1.59-2.69-1.36-2.24-2.99-4.35-4.77-6.33-.89-.99-1.83-1.95-2.78-2.88l-1.46-1.38c-.5-.43-1.02-.83-1.52-1.25-4.09-3.3-8.92-5.78-13.84-7.99-9.9-4.39-20.34-7.75-30.54-11.85-5.11-2.02-10.17-4.27-15.06-6.9-1.22-.66-2.45-1.3-3.62-2.06-1.17-.75-2.41-1.43-3.53-2.23-1.14-.78-2.29-1.55-3.4-2.37-1.13-.8-2.23-1.63-3.33-2.49-4.38-3.38-8.52-7.12-12.24-11.3-1.83-2.12-3.56-4.34-5.04-6.78-1.46-2.44-2.73-5.1-3.15-8.14-.14-.31-.64-6.17,3.61-9.87.28-.21.58-.4.89-.55.15-.06.44-.21.64-.27l.65-.17c.85-.13,1.64.05,2.12.63.22.29.35.65.34.99,0,.35-.17.54-.33.8-.33.49-1.1,1.03-1.83,1.27-.75.25-1.31.18-1.64,0-.17-.09-.32-.21-.38-.53,0-.3.11-.44.18-.58.36-.46.65-.55.71-.5.09.07-.08.34-.19.75-.02.25-.07.21.27.29.27,0,.54-.1.77-.21.23-.12.44-.27.59-.43.07-.09.17-.16.16-.28,0-.11-.07-.23-.17-.3-.22-.14-.5-.06-.69.03-.12.06-.15.09-.27.18-.18.12-.36.26-.52.42-.67.64-1.16,1.54-1.5,2.46-.35.91-.55,1.84-.64,2.64-.1.81-.1,1.47-.06,1.94.07.5.12.82.13.9Z"/><path class="cls-3" d="M268.92,556.03c-3.03-.42-5.7-1.69-8.14-3.15-2.44-1.48-4.66-3.21-6.78-5.04-4.18-3.72-7.91-7.86-11.3-12.24-.85-1.09-1.69-2.2-2.49-3.33-.82-1.11-1.59-2.26-2.37-3.4-.8-1.12-1.48-2.35-2.23-3.53-.76-1.17-1.41-2.4-2.06-3.62-2.63-4.89-4.88-9.94-6.9-15.06-4.1-10.2-7.46-20.64-11.85-30.54-2.21-4.92-4.69-9.75-7.99-13.84-.42-.51-.82-1.02-1.25-1.52l-1.38-1.46c-.94-.95-1.9-1.88-2.88-2.78-1.98-1.78-4.09-3.41-6.33-4.77-.16-.09-1.17-.79-2.69-1.59-1.51-.8-3.56-1.69-5.68-2.07-1.05-.19-2.12-.26-3.07-.14-.95.1-1.77.44-2.24.9-.47.46-.51,1.04-.39,1.47.1.44.25.7.16.77-.05.05-.36-.06-.68-.53-.17-.23-.31-.57-.35-1-.02-.43.09-.95.39-1.39.59-.89,1.66-1.49,2.8-1.79,1.15-.31,2.4-.39,3.63-.3,2.47.17,4.83.95,6.56,1.7,1.74.74,2.88,1.43,3.05,1.53,2.43,1.48,4.67,3.21,6.76,5.09,1.04.94,2.04,1.92,3.02,2.91l1.44,1.52c.46.53.9,1.1,1.36,1.64,3.58,4.44,6.11,9.45,8.39,14.48,4.48,10.11,7.83,20.55,11.89,30.64,2,5.06,4.21,10.01,6.76,14.76.64,1.19,1.27,2.38,1.99,3.5.72,1.13,1.36,2.3,2.15,3.41.76,1.12,1.51,2.24,2.32,3.33.78,1.1,1.59,2.18,2.43,3.24,3.3,4.28,6.93,8.29,10.92,11.84,2.02,1.74,4.13,3.38,6.37,4.74,2.23,1.35,4.64,2.45,7.04,2.77.08.01.4.06.9.13.47.05,1.13.04,1.94-.06.8-.1,1.73-.3,2.64-.64.92-.34,1.82-.83,2.46-1.5.16-.17.3-.34.42-.52.08-.12.12-.16.18-.27.09-.19.18-.48.03-.69-.07-.1-.18-.17-.3-.17-.12,0-.19.09-.28.16-.16.16-.31.36-.43.59-.11.23-.22.5-.21.77.08.34.05.29.29.27.41-.12.69-.29.75-.19.05.06-.04.35-.5.71-.14.08-.28.19-.58.18-.32-.06-.44-.21-.53-.38-.18-.33-.24-.89,0-1.64.24-.73.77-1.5,1.27-1.83.26-.16.45-.33.8-.33.34-.01.7.12.99.34.58.48.76,1.27.63,2.12l-.17.65c-.06.2-.21.48-.27.64-.15.32-.34.62-.55.89-3.7,4.25-9.56,3.75-9.87,3.61Z"/><circle class="cls-2" cx="315.09" cy="315.09" r="78.41"/></g><g id="DecorativeElement_4_Shape" class="cls-1"><path class="cls-3" d="M541.02,315.01c0-45.86,8.08-109.47,39.69-141.08-33.61,0-65.89-11.75-98.21-26.4-14.66-32.32-26.4-64.6-26.4-98.21-31.61,31.61-95.21,39.69-141.08,39.69s-109.47-8.08-141.08-39.69c0,33.61-11.75,65.89-26.4,98.21-32.32,14.66-64.6,26.4-98.21,26.4,31.61,31.61,39.69,95.21,39.69,141.08s-8.08,109.47-39.69,141.08c33.61,0,65.89,11.75,98.21,26.4,14.66,32.32,26.4,64.6,26.4,98.21,31.61-31.61,95.21-39.69,141.08-39.69s109.47,8.08,141.08,39.69c0-33.61,11.75-65.89,26.4-98.22,32.32-14.66,64.6-26.4,98.21-26.4-31.61-31.61-39.69-95.21-39.69-141.08Z"/></g></g></svg>