<?xml version="1.0" encoding="UTF-8"?><svg id="Line" xmlns="http://www.w3.org/2000/svg" viewBox="0 0 589 644.15"><defs><style>.cls-1{opacity:.24;}.cls-1,.cls-2{fill:#fff;stroke-width:0px;}</style></defs><g id="DecorativeElement_1"><g id="DecorativeElement_1_Lines"><path class="cls-2" d="M573.71,258.94c-3.74,4.22-8.21,7.55-12.82,10.53-4.63,2.97-9.53,5.43-14.48,7.75-9.95,4.52-20.26,8.13-30.74,11.05l-3.93,1.09c-1.31.35-2.64.66-3.96,1-2.63.68-5.29,1.27-7.95,1.86-5.31,1.19-10.71,2.13-16.11,2.82-10.82,1.36-21.69,1.95-32.54,2.15-10.85.22-21.69.1-32.51.06-10.82-.04-21.62,0-32.37.65-10.72.69-21.47,1.95-31.62,5.17-10.12,3.39-20.06,7.75-28.97,13.58-.31.21-2.44,1.5-5.24,3.61-1.41,1.04-2.95,2.31-4.54,3.72-1.55,1.44-3.14,3.03-4.54,4.74-1.4,1.71-2.64,3.55-3.47,5.39-.8,1.82-1.29,3.73-.88,5.13.19.69.6,1.2,1.1,1.5.53.24,1.07.36,1.53.35.46.02.84-.03,1.1-.05.26-.02.41,0,.43.04s-.1.13-.35.24c-.25.12-.61.27-1.13.35-.51.11-1.18.09-1.93-.15-.74-.3-1.45-.99-1.79-1.9-.38-.9-.42-1.94-.31-2.97.08-1.05.4-2.08.76-3.13.77-2.09,1.97-4.12,3.34-6.02,1.38-1.89,2.96-3.64,4.51-5.22,1.58-1.55,3.14-2.94,4.55-4.08,2.81-2.3,4.96-3.7,5.29-3.92,9.23-6.03,19.29-10.43,29.67-13.92,10.53-3.33,21.47-4.6,32.31-5.3,10.87-.66,21.73-.7,32.56-.66,10.83.04,21.65.16,32.44-.06,10.79-.2,21.57-.79,32.24-2.13,5.34-.68,10.61-1.6,15.87-2.78,2.63-.58,5.26-1.16,7.87-1.84,1.3-.33,2.62-.64,3.92-.99l3.89-1.08c10.37-2.89,20.55-6.45,30.32-10.9,4.85-2.27,9.65-4.68,14.14-7.56,4.47-2.87,8.75-6.09,12.2-9.99.09-.09.34-.36.73-.78.34-.45.8-1.06,1.36-1.79,1.16-1.42,2.29-3.6,3.17-6.23.43-1.31.79-2.72.96-4.16.17-1.44.16-2.93-.22-4.25-.2-.65-.45-1.29-.85-1.79-.35-.54-.88-1.01-1.35-1.27-.49-.25-.97-.3-1.38-.09-.2.09-.41.27-.52.41-.11.13-.18.31-.14.48l.02.12.05.19c.03.13.08.25.12.37.1.24.2.48.32.7.23.44.52.84.83,1.17.16.17.28.29.39.39.12.1.25.2.39.27.27.16.62.23.86.07.43-.36.37-.89.42-1.21.02-.35.01-.59.08-.6.05,0,.17.17.28.61.06.22.1.51.1.85-.02.33-.08.75-.4,1.05-.68.63-1.96.12-2.84-.69-.41-.36-.79-.79-1.13-1.3-.17-.25-.32-.52-.46-.81-.06-.15-.14-.29-.19-.45l-.09-.23-.09-.31c-.13-.48,0-1,.26-1.44.27-.43.59-.74,1.01-.99.83-.53,1.99-.48,2.83-.09.85.41,1.52.95,2.07,1.66.6.67.98,1.5,1.29,2.32.58,1.67.66,3.41.56,5.05-.11,1.65-.43,3.22-.84,4.67-.81,2.89-2.01,5.44-3.24,7.07-.58.83-1.06,1.53-1.43,2.03-.41.47-.68.76-.77.87Z"/><path class="cls-2" d="M430.16,366.91c2.44-1.59,4.02-4.28,4.91-7.22.89-2.92.94-6.03.14-9-.76-2.98-2.29-5.78-4.13-8.35-1.87-2.57-4.08-4.92-6.45-7.11-4.76-4.37-10.16-8.1-15.74-11.49-5.59-3.39-11.43-6.4-17.36-9.2-11.89-5.57-24.22-10.22-36.73-14.26-12.52-4.02-25.25-7.42-38.13-10-.46-.09-5.97-1.36-11.4-2.41-5.43-1.1-10.8-1.85-10.78-2.25.02-.39,5.51-.35,11.07.25,5.57.55,11.2,1.52,11.66,1.61,13.01,2.61,25.83,6.03,38.45,10.08,12.61,4.07,25.04,8.76,37.07,14.39,6,2.84,11.92,5.88,17.62,9.34,5.69,3.46,11.22,7.27,16.19,11.83,2.48,2.29,4.81,4.77,6.83,7.54,1.99,2.78,3.69,5.88,4.58,9.31.92,3.41.87,7.14-.17,10.54-.51,1.68-1.24,3.33-2.22,4.86-.99,1.52-2.3,2.89-3.85,3.91-.23.11-1.69,1.14-4.02,1.68-2.31.61-5.36.6-8.19.08-5.71-1.05-10.52-3.92-10.32-4.26.15-.35,5.21,1.8,10.6,2.26,2.67.24,5.34.02,7.21-.61,1.9-.57,2.96-1.44,3.15-1.53Z"/><path class="cls-2" d="M323.05,8.48c-3.9,3.45-7.12,7.74-9.99,12.21-2.88,4.49-5.29,9.29-7.56,14.14-4.44,9.77-8,19.96-10.89,30.33l-1.08,3.89-.99,3.92c-.68,2.61-1.26,5.24-1.84,7.87-1.17,5.25-2.09,10.53-2.77,15.87-1.34,10.67-1.93,21.45-2.13,32.24-.22,10.8-.1,21.61-.06,32.45.04,10.83,0,21.69-.66,32.56-.7,10.85-1.96,21.79-5.29,32.32-3.48,10.39-7.88,20.45-13.91,29.68-.22.32-1.62,2.47-3.92,5.29-1.14,1.42-2.53,2.97-4.08,4.55-1.58,1.55-3.33,3.13-5.22,4.51-1.9,1.38-3.93,2.58-6.02,3.35-1.05.36-2.09.68-3.13.76-1.03.11-2.06.07-2.97-.31-.91-.35-1.6-1.06-1.9-1.79-.24-.75-.26-1.42-.15-1.93.07-.52.23-.89.35-1.13.11-.25.2-.37.24-.35.05.02.06.17.04.43-.02.26-.08.63-.05,1.1-.01.46.11,1.01.35,1.53.3.5.8.91,1.5,1.1,1.4.42,3.31-.08,5.13-.88,1.84-.83,3.68-2.07,5.39-3.47,1.71-1.41,3.3-2.99,4.74-4.55,1.41-1.59,2.68-3.13,3.72-4.54,2.1-2.8,3.39-4.92,3.6-5.24,5.83-8.92,10.19-18.86,13.57-28.98,3.22-10.15,4.48-20.91,5.17-31.63.66-10.75.69-21.56.65-32.38-.04-10.82-.16-21.66.06-32.52.21-10.85.79-21.73,2.15-32.55.69-5.4,1.63-10.8,2.82-16.12.58-2.66,1.17-5.31,1.86-7.95l1-3.96,1.09-3.93c2.92-10.49,6.52-20.8,11.04-30.75,2.32-4.95,4.77-9.85,7.74-14.48,2.97-4.62,6.3-9.09,10.52-12.83.07-.07.25-.22.52-.46.26-.25.64-.54,1.14-.87.98-.65,2.22-1.67,3.96-2.48,1.69-.83,3.71-1.54,5.94-2.03,1.11-.24,2.28-.42,3.48-.46,1.2-.07,2.44.02,3.67.29,1.22.26,2.46.8,3.43,1.67.52.4.89.9,1.26,1.44.33.57.59,1.25.57,1.98-.01.73-.31,1.43-.79,1.92-.43.46-1.22.92-1.91.77-.37-.09-.62-.18-.85-.28-.24-.1-.47-.22-.69-.34-.43-.25-.82-.54-1.16-.84-.35-.32-.61-.6-.92-1.03-.29-.42-.48-.85-.55-1.25-.07-.4,0-.79.24-1.06.24-.26.56-.36.84-.4.58-.07,1.04.06,1.31.14.26.1.39.17.38.22-.02.12-.63,0-1.33.18-.17.05-.37.14-.49.33-.12.2-.09.47.01.69.1.23.25.44.43.63.17.18.48.47.78.69.31.23.66.43,1.03.6.19.09.38.16.58.23.21.07.42.12.51.13.46.06,1.05-.67.98-1.32-.02-.33-.17-.7-.41-1.05-.27-.33-.59-.72-.99-.97-.73-.58-1.67-.94-2.68-1.09-1-.16-2.06-.19-3.11-.07-1.05.1-2.09.3-3.08.57-1.99.53-3.82,1.27-5.3,2.07-1.48.75-2.58,1.73-3.44,2.35-.43.31-.78.58-1.01.83-.24.23-.41.38-.47.44Z"/><path class="cls-2" d="M210.86,148.35c1.02-1.55,2.39-2.86,3.91-3.85,1.53-.99,3.18-1.72,4.86-2.23,3.4-1.04,7.13-1.09,10.55-.17,3.43.89,6.53,2.59,9.31,4.58,2.77,2.02,5.25,4.36,7.54,6.83,4.56,4.97,8.37,10.51,11.83,16.2,3.46,5.7,6.5,11.62,9.34,17.63,5.63,12.03,10.32,24.46,14.39,37.08,4.05,12.62,7.47,25.45,10.08,38.46.09.46,1.06,6.1,1.61,11.67.6,5.57.64,11.05.25,11.08-.39.02-1.15-5.35-2.25-10.78-1.05-5.44-2.32-10.94-2.41-11.4-2.58-12.88-5.98-25.62-9.99-38.14-4.04-12.52-8.69-24.85-14.25-36.74-2.8-5.93-5.81-11.77-9.2-17.36-3.39-5.58-7.11-10.98-11.49-15.74-2.19-2.37-4.54-4.58-7.11-6.45-2.57-1.84-5.37-3.37-8.35-4.13-2.97-.79-6.08-.75-9,.14-2.94.9-5.63,2.47-7.22,4.92-.08.19-.95,1.25-1.53,3.15-.63,1.87-.86,4.54-.61,7.21.46,5.39,2.61,10.45,2.26,10.6-.34.2-3.21-4.61-4.26-10.33-.53-2.83-.53-5.87.08-8.19.54-2.34,1.57-3.8,1.68-4.02Z"/><path class="cls-2" d="M573.71,258.94c-3.74,4.22-8.21,7.55-12.82,10.53-4.63,2.97-9.53,5.43-14.48,7.75-9.95,4.52-20.26,8.13-30.74,11.05l-3.93,1.09c-1.31.35-2.64.66-3.96,1-2.63.68-5.29,1.27-7.95,1.86-5.31,1.19-10.71,2.13-16.11,2.82-10.82,1.36-21.69,1.95-32.54,2.15-10.85.22-21.69.1-32.51.06-10.82-.04-21.62,0-32.37.65-10.72.69-21.47,1.95-31.62,5.17-10.12,3.39-20.06,7.75-28.97,13.58-.31.21-2.44,1.5-5.24,3.61-1.41,1.04-2.95,2.31-4.54,3.72-1.55,1.44-3.14,3.03-4.54,4.74-1.4,1.71-2.64,3.55-3.47,5.39-.8,1.82-1.29,3.73-.88,5.13.19.69.6,1.2,1.1,1.5.53.24,1.07.36,1.53.35.46.02.84-.03,1.1-.05.26-.02.41,0,.43.04s-.1.13-.35.24c-.25.12-.61.27-1.13.35-.51.11-1.18.09-1.93-.15-.74-.3-1.45-.99-1.79-1.9-.38-.9-.42-1.94-.31-2.97.08-1.05.4-2.08.76-3.13.77-2.09,1.97-4.12,3.34-6.02,1.38-1.89,2.96-3.64,4.51-5.22,1.58-1.55,3.14-2.94,4.55-4.08,2.81-2.3,4.96-3.7,5.29-3.92,9.23-6.03,19.29-10.43,29.67-13.92,10.53-3.33,21.47-4.6,32.31-5.3,10.87-.66,21.73-.7,32.56-.66,10.83.04,21.65.16,32.44-.06,10.79-.2,21.57-.79,32.24-2.13,5.34-.68,10.61-1.6,15.87-2.78,2.63-.58,5.26-1.16,7.87-1.84,1.3-.33,2.62-.64,3.92-.99l3.89-1.08c10.37-2.89,20.55-6.45,30.32-10.9,4.85-2.27,9.65-4.68,14.14-7.56,4.47-2.87,8.75-6.09,12.2-9.99.09-.09.34-.36.73-.78.34-.45.8-1.06,1.36-1.79,1.16-1.42,2.29-3.6,3.17-6.23.43-1.31.79-2.72.96-4.16.17-1.44.16-2.93-.22-4.25-.2-.65-.45-1.29-.85-1.79-.35-.54-.88-1.01-1.35-1.27-.49-.25-.97-.3-1.38-.09-.2.09-.41.27-.52.41-.11.13-.18.31-.14.48l.02.12.05.19c.03.13.08.25.12.37.1.24.2.48.32.7.23.44.52.84.83,1.17.16.17.28.29.39.39.12.1.25.2.39.27.27.16.62.23.86.07.43-.36.37-.89.42-1.21.02-.35.01-.59.08-.6.05,0,.17.17.28.61.06.22.1.51.1.85-.02.33-.08.75-.4,1.05-.68.63-1.96.12-2.84-.69-.41-.36-.79-.79-1.13-1.3-.17-.25-.32-.52-.46-.81-.06-.15-.14-.29-.19-.45l-.09-.23-.09-.31c-.13-.48,0-1,.26-1.44.27-.43.59-.74,1.01-.99.83-.53,1.99-.48,2.83-.09.85.41,1.52.95,2.07,1.66.6.67.98,1.5,1.29,2.32.58,1.67.66,3.41.56,5.05-.11,1.65-.43,3.22-.84,4.67-.81,2.89-2.01,5.44-3.24,7.07-.58.83-1.06,1.53-1.43,2.03-.41.47-.68.76-.77.87Z"/><path class="cls-2" d="M430.16,366.91c2.44-1.59,4.02-4.28,4.91-7.22.89-2.92.94-6.03.14-9-.76-2.98-2.29-5.78-4.13-8.35-1.87-2.57-4.08-4.92-6.45-7.11-4.76-4.37-10.16-8.1-15.74-11.49-5.59-3.39-11.43-6.4-17.36-9.2-11.89-5.57-24.22-10.22-36.73-14.26-12.52-4.02-25.25-7.42-38.13-10-.46-.09-5.97-1.36-11.4-2.41-5.43-1.1-10.8-1.85-10.78-2.25.02-.39,5.51-.35,11.07.25,5.57.55,11.2,1.52,11.66,1.61,13.01,2.61,25.83,6.03,38.45,10.08,12.61,4.07,25.04,8.76,37.07,14.39,6,2.84,11.92,5.88,17.62,9.34,5.69,3.46,11.22,7.27,16.19,11.83,2.48,2.29,4.81,4.77,6.83,7.54,1.99,2.78,3.69,5.88,4.58,9.31.92,3.41.87,7.14-.17,10.54-.51,1.68-1.24,3.33-2.22,4.86-.99,1.52-2.3,2.89-3.85,3.91-.23.11-1.69,1.14-4.02,1.68-2.31.61-5.36.6-8.19.08-5.71-1.05-10.52-3.92-10.32-4.26.15-.35,5.21,1.8,10.6,2.26,2.67.24,5.34.02,7.21-.61,1.9-.57,2.96-1.44,3.15-1.53Z"/><path class="cls-2" d="M323.05,8.48c-3.9,3.45-7.12,7.74-9.99,12.21-2.88,4.49-5.29,9.29-7.56,14.14-4.44,9.77-8,19.96-10.89,30.33l-1.08,3.89-.99,3.92c-.68,2.61-1.26,5.24-1.84,7.87-1.17,5.25-2.09,10.53-2.77,15.87-1.34,10.67-1.93,21.45-2.13,32.24-.22,10.8-.1,21.61-.06,32.45.04,10.83,0,21.69-.66,32.56-.7,10.85-1.96,21.79-5.29,32.32-3.48,10.39-7.88,20.45-13.91,29.68-.22.32-1.62,2.47-3.92,5.29-1.14,1.42-2.53,2.97-4.08,4.55-1.58,1.55-3.33,3.13-5.22,4.51-1.9,1.38-3.93,2.58-6.02,3.35-1.05.36-2.09.68-3.13.76-1.03.11-2.06.07-2.97-.31-.91-.35-1.6-1.06-1.9-1.79-.24-.75-.26-1.42-.15-1.93.07-.52.23-.89.35-1.13.11-.25.2-.37.24-.35.05.02.06.17.04.43-.02.26-.08.63-.05,1.1-.01.46.11,1.01.35,1.53.3.5.8.91,1.5,1.1,1.4.42,3.31-.08,5.13-.88,1.84-.83,3.68-2.07,5.39-3.47,1.71-1.41,3.3-2.99,4.74-4.55,1.41-1.59,2.68-3.13,3.72-4.54,2.1-2.8,3.39-4.92,3.6-5.24,5.83-8.92,10.19-18.86,13.57-28.98,3.22-10.15,4.48-20.91,5.17-31.63.66-10.75.69-21.56.65-32.38-.04-10.82-.16-21.66.06-32.52.21-10.85.79-21.73,2.15-32.55.69-5.4,1.63-10.8,2.82-16.12.58-2.66,1.17-5.31,1.86-7.95l1-3.96,1.09-3.93c2.92-10.49,6.52-20.8,11.04-30.75,2.32-4.95,4.77-9.85,7.74-14.48,2.97-4.62,6.3-9.09,10.52-12.83.07-.07.25-.22.52-.46.26-.25.64-.54,1.14-.87.98-.65,2.22-1.67,3.96-2.48,1.69-.83,3.71-1.54,5.94-2.03,1.11-.24,2.28-.42,3.48-.46,1.2-.07,2.44.02,3.67.29,1.22.26,2.46.8,3.43,1.67.52.4.89.9,1.26,1.44.33.57.59,1.25.57,1.98-.01.73-.31,1.43-.79,1.92-.43.46-1.22.92-1.91.77-.37-.09-.62-.18-.85-.28-.24-.1-.47-.22-.69-.34-.43-.25-.82-.54-1.16-.84-.35-.32-.61-.6-.92-1.03-.29-.42-.48-.85-.55-1.25-.07-.4,0-.79.24-1.06.24-.26.56-.36.84-.4.58-.07,1.04.06,1.31.14.26.1.39.17.38.22-.02.12-.63,0-1.33.18-.17.05-.37.14-.49.33-.12.2-.09.47.01.69.1.23.25.44.43.63.17.18.48.47.78.69.31.23.66.43,1.03.6.19.09.38.16.58.23.21.07.42.12.51.13.46.06,1.05-.67.98-1.32-.02-.33-.17-.7-.41-1.05-.27-.33-.59-.72-.99-.97-.73-.58-1.67-.94-2.68-1.09-1-.16-2.06-.19-3.11-.07-1.05.1-2.09.3-3.08.57-1.99.53-3.82,1.27-5.3,2.07-1.48.75-2.58,1.73-3.44,2.35-.43.31-.78.58-1.01.83-.24.23-.41.38-.47.44Z"/><path class="cls-2" d="M210.86,148.35c1.02-1.55,2.39-2.86,3.91-3.85,1.53-.99,3.18-1.72,4.86-2.23,3.4-1.04,7.13-1.09,10.55-.17,3.43.89,6.53,2.59,9.31,4.58,2.77,2.02,5.25,4.36,7.54,6.83,4.56,4.97,8.37,10.51,11.83,16.2,3.46,5.7,6.5,11.62,9.34,17.63,5.63,12.03,10.32,24.46,14.39,37.08,4.05,12.62,7.47,25.45,10.08,38.46.09.46,1.06,6.1,1.61,11.67.6,5.57.64,11.05.25,11.08-.39.02-1.15-5.35-2.25-10.78-1.05-5.44-2.32-10.94-2.41-11.4-2.58-12.88-5.98-25.62-9.99-38.14-4.04-12.52-8.69-24.85-14.25-36.74-2.8-5.93-5.81-11.77-9.2-17.36-3.39-5.58-7.11-10.98-11.49-15.74-2.19-2.37-4.54-4.58-7.11-6.45-2.57-1.84-5.37-3.37-8.35-4.13-2.97-.79-6.08-.75-9,.14-2.94.9-5.63,2.47-7.22,4.92-.08.19-.95,1.25-1.53,3.15-.63,1.87-.86,4.54-.61,7.21.46,5.39,2.61,10.45,2.26,10.6-.34.2-3.21-4.61-4.26-10.33-.53-2.83-.53-5.87.08-8.19.54-2.34,1.57-3.8,1.68-4.02Z"/><path class="cls-2" d="M17.44,257.06c3.45,3.9,7.73,7.12,12.2,9.99,4.48,2.88,9.29,5.29,14.14,7.56,9.77,4.44,19.95,8.01,30.32,10.9l3.89,1.08c1.3.35,2.61.66,3.92.99,2.61.68,5.24,1.26,7.87,1.84,5.25,1.17,10.53,2.09,15.87,2.78,10.67,1.34,21.44,1.93,32.24,2.13,10.79.22,21.61.1,32.44.06,10.83-.04,21.69,0,32.56.66,10.85.7,21.79,1.97,32.31,5.3,10.38,3.48,20.45,7.89,29.67,13.92.32.22,2.47,1.62,5.29,3.92,1.41,1.14,2.97,2.53,4.55,4.08,1.55,1.58,3.12,3.33,4.51,5.22,1.38,1.9,2.58,3.93,3.34,6.02.36,1.05.68,2.09.76,3.13.11,1.03.07,2.06-.31,2.97-.35.91-1.06,1.6-1.79,1.9-.75.24-1.42.26-1.93.15-.52-.07-.89-.23-1.13-.35-.25-.11-.37-.19-.35-.24s.17-.06.43-.04c.26.02.63.08,1.1.05.46.01,1.01-.11,1.53-.35.5-.3.91-.8,1.1-1.5.42-1.4-.08-3.31-.88-5.13-.83-1.84-2.07-3.68-3.47-5.39-1.41-1.71-2.99-3.3-4.54-4.74-1.59-1.41-3.13-2.68-4.54-3.72-2.8-2.1-4.92-3.39-5.24-3.61-8.91-5.83-18.85-10.19-28.97-13.58-10.15-3.22-20.9-4.48-31.62-5.17-10.75-.66-21.55-.69-32.37-.65-10.82.04-21.66.16-32.51-.06-10.85-.21-21.73-.79-32.54-2.15-5.4-.69-10.8-1.63-16.11-2.82-2.66-.58-5.31-1.17-7.95-1.86-1.32-.33-2.64-.65-3.96-1l-3.93-1.09c-10.48-2.92-20.79-6.53-30.74-11.05-4.94-2.32-9.85-4.77-14.48-7.75-4.62-2.97-9.09-6.31-12.82-10.53-.09-.1-.36-.4-.77-.87-.37-.5-.85-1.2-1.43-2.03-1.23-1.64-2.42-4.18-3.24-7.07-.41-1.46-.73-3.03-.84-4.67-.11-1.64-.02-3.38.56-5.05.3-.82.69-1.65,1.29-2.32.55-.71,1.22-1.26,2.07-1.66.84-.39,2-.44,2.83.09.42.25.75.56,1.01.99.27.44.39.96.26,1.44l-.09.31-.09.23c-.06.16-.13.3-.19.45-.14.29-.29.56-.46.81-.33.51-.72.94-1.13,1.3-.88.81-2.17,1.32-2.84.69-.32-.3-.38-.72-.4-1.05,0-.34.04-.63.1-.85.11-.44.23-.61.28-.61.07,0,.06.25.08.6.04.32-.02.86.42,1.21.24.16.59.08.86-.07.14-.08.27-.17.39-.27.11-.1.23-.21.39-.39.3-.34.59-.73.83-1.17.12-.22.22-.46.32-.7.04-.12.09-.24.12-.37l.05-.19.02-.12c.04-.17-.04-.35-.14-.48-.11-.15-.32-.32-.52-.41-.41-.21-.89-.16-1.38.09-.48.27-1.01.73-1.35,1.27-.4.5-.65,1.14-.85,1.79-.38,1.32-.39,2.81-.22,4.25.18,1.45.53,2.86.96,4.16.88,2.63,2.01,4.81,3.17,6.23.56.74,1.02,1.34,1.36,1.79.39.42.65.69.73.78Z"/><path class="cls-2" d="M157.26,369.29c-1.55-1.02-2.86-2.39-3.85-3.91-.99-1.53-1.72-3.18-2.22-4.86-1.04-3.4-1.09-7.13-.17-10.54.88-3.43,2.59-6.53,4.58-9.31,2.02-2.77,4.35-5.25,6.83-7.54,4.97-4.56,10.5-8.37,16.19-11.83,5.7-3.46,11.62-6.5,17.62-9.34,12.03-5.63,24.46-10.32,37.07-14.39,12.62-4.05,25.44-7.47,38.45-10.08.46-.09,6.1-1.06,11.66-1.61,5.57-.6,11.05-.64,11.07-.25.02.39-5.35,1.15-10.78,2.25-5.44,1.05-10.94,2.32-11.4,2.41-12.88,2.58-25.61,5.98-38.13,10-12.51,4.04-24.84,8.69-36.73,14.26-5.93,2.8-11.77,5.81-17.36,9.2-5.58,3.39-10.97,7.12-15.74,11.49-2.37,2.19-4.58,4.54-6.45,7.11-1.84,2.57-3.37,5.38-4.13,8.35-.79,2.97-.74,6.08.14,9,.9,2.94,2.47,5.63,4.91,7.22.19.08,1.25.95,3.15,1.53,1.87.63,4.54.86,7.21.61,5.38-.46,10.45-2.61,10.6-2.26.2.34-4.61,3.21-10.32,4.26-2.83.53-5.87.53-8.19-.08-2.34-.54-3.8-1.57-4.02-1.68Z"/><path class="cls-2" d="M267.83,6.33c4.22,3.74,7.55,8.21,10.52,12.83,2.97,4.63,5.43,9.54,7.74,14.48,4.52,9.95,8.12,20.26,11.04,30.75l1.09,3.93,1,3.96c.68,2.63,1.27,5.29,1.86,7.95,1.19,5.31,2.13,10.71,2.82,16.12,1.36,10.82,1.95,21.7,2.15,32.55.22,10.86.1,21.7.06,32.52-.04,10.82,0,21.63.65,32.38.69,10.72,1.95,21.48,5.17,31.63,3.39,10.12,7.75,20.07,13.57,28.98.21.31,1.5,2.44,3.6,5.24,1.04,1.41,2.31,2.95,3.72,4.54,1.44,1.55,3.03,3.14,4.74,4.55,1.71,1.4,3.55,2.64,5.39,3.47,1.82.8,3.73,1.3,5.13.88.69-.19,1.2-.6,1.5-1.1.24-.53.36-1.07.35-1.53.02-.46-.03-.84-.05-1.1-.02-.26,0-.41.04-.43.05-.02.13.1.24.35.12.25.27.61.35,1.13.11.51.09,1.18-.15,1.93-.3.74-.99,1.45-1.9,1.79-.9.38-1.94.42-2.97.31-1.05-.08-2.08-.4-3.13-.76-2.09-.77-4.12-1.97-6.02-3.35-1.89-1.39-3.64-2.96-5.22-4.51-1.54-1.58-2.94-3.14-4.08-4.55-2.3-2.82-3.7-4.97-3.92-5.29-6.02-9.23-10.43-19.3-13.91-29.68-3.33-10.53-4.6-21.47-5.29-32.32-.66-10.87-.7-21.73-.66-32.56.04-10.83.16-21.65-.06-32.45-.2-10.79-.79-21.57-2.13-32.24-.68-5.34-1.6-10.62-2.77-15.87-.58-2.63-1.16-5.26-1.84-7.87l-.99-3.92-1.08-3.89c-2.89-10.37-6.45-20.56-10.89-30.33-2.27-4.85-4.68-9.66-7.56-14.14-2.87-4.47-6.09-8.76-9.99-12.21-.07-.06-.23-.21-.47-.44-.23-.24-.58-.52-1.01-.83-.87-.62-1.96-1.6-3.44-2.35-1.48-.8-3.31-1.54-5.3-2.07-.99-.27-2.03-.47-3.08-.57-1.05-.12-2.11-.09-3.11.07-1.01.15-1.95.52-2.68,1.09-.4.25-.71.64-.99.97-.24.36-.39.72-.41,1.05-.07.65.52,1.38.98,1.32.1-.01.31-.07.51-.13.2-.07.39-.14.58-.23.37-.17.72-.38,1.03-.6.3-.21.61-.51.78-.69.17-.19.33-.4.43-.63.1-.23.13-.5.01-.69-.12-.19-.31-.28-.49-.33-.71-.18-1.31-.06-1.33-.18-.01-.05.12-.12.38-.22.27-.08.73-.21,1.31-.14.28.04.6.14.84.4.23.27.31.66.24,1.06-.06.4-.25.83-.55,1.25-.3.43-.57.71-.92,1.03-.34.31-.73.59-1.16.84-.22.13-.45.24-.69.34-.23.1-.48.2-.85.28-.7.15-1.48-.31-1.91-.77-.47-.48-.77-1.19-.79-1.92-.02-.73.24-1.41.57-1.98.37-.54.75-1.04,1.26-1.44.97-.87,2.21-1.41,3.43-1.67,1.23-.27,2.48-.36,3.67-.29,1.2.05,2.37.22,3.48.46,2.22.49,4.24,1.2,5.94,2.03,1.74.8,2.98,1.82,3.96,2.48.49.33.88.62,1.14.87.27.24.45.4.52.46Z"/><path class="cls-2" d="M375.76,149.92c-1.59-2.45-4.28-4.02-7.22-4.92-2.92-.89-6.03-.94-9-.14-2.98.77-5.78,2.29-8.35,4.13-2.57,1.87-4.92,4.08-7.11,6.45-4.37,4.76-8.1,10.16-11.49,15.74-3.39,5.59-6.39,11.43-9.2,17.36-5.56,11.89-10.22,24.22-14.25,36.74-4.02,12.52-7.42,25.26-9.99,38.14-.09.46-1.36,5.97-2.41,11.4-1.1,5.43-1.85,10.81-2.25,10.78-.39-.02-.35-5.51.25-11.08.55-5.57,1.52-11.2,1.61-11.67,2.61-13.01,6.03-25.84,10.08-38.46,4.07-12.61,8.76-25.04,14.39-37.08,2.84-6.01,5.88-11.93,9.34-17.63,3.46-5.69,7.27-11.23,11.83-16.2,2.28-2.48,4.77-4.81,7.54-6.83,2.78-1.99,5.87-3.7,9.31-4.58,3.41-.92,7.15-.87,10.55.17,1.68.51,3.33,1.24,4.86,2.23,1.52.99,2.89,2.3,3.91,3.85.11.22,1.14,1.69,1.68,4.02.61,2.31.6,5.36.08,8.19-1.05,5.71-3.91,10.53-4.26,10.33-.35-.15,1.8-5.22,2.26-10.6.24-2.67.02-5.35-.61-7.21-.57-1.9-1.44-2.96-1.53-3.15Z"/><path class="cls-2" d="M17.44,257.06c3.45,3.9,7.73,7.12,12.2,9.99,4.48,2.88,9.29,5.29,14.14,7.56,9.77,4.44,19.95,8.01,30.32,10.9l3.89,1.08c1.3.35,2.61.66,3.92.99,2.61.68,5.24,1.26,7.87,1.84,5.25,1.17,10.53,2.09,15.87,2.78,10.67,1.34,21.44,1.93,32.24,2.13,10.79.22,21.61.1,32.44.06,10.83-.04,21.69,0,32.56.66,10.85.7,21.79,1.97,32.31,5.3,10.38,3.48,20.45,7.89,29.67,13.92.32.22,2.47,1.62,5.29,3.92,1.41,1.14,2.97,2.53,4.55,4.08,1.55,1.58,3.12,3.33,4.51,5.22,1.38,1.9,2.58,3.93,3.34,6.02.36,1.05.68,2.09.76,3.13.11,1.03.07,2.06-.31,2.97-.35.91-1.06,1.6-1.79,1.9-.75.24-1.42.26-1.93.15-.52-.07-.89-.23-1.13-.35-.25-.11-.37-.19-.35-.24s.17-.06.43-.04c.26.02.63.08,1.1.05.46.01,1.01-.11,1.53-.35.5-.3.91-.8,1.1-1.5.42-1.4-.08-3.31-.88-5.13-.83-1.84-2.07-3.68-3.47-5.39-1.41-1.71-2.99-3.3-4.54-4.74-1.59-1.41-3.13-2.68-4.54-3.72-2.8-2.1-4.92-3.39-5.24-3.61-8.91-5.83-18.85-10.19-28.97-13.58-10.15-3.22-20.9-4.48-31.62-5.17-10.75-.66-21.55-.69-32.37-.65-10.82.04-21.66.16-32.51-.06-10.85-.21-21.73-.79-32.54-2.15-5.4-.69-10.8-1.63-16.11-2.82-2.66-.58-5.31-1.17-7.95-1.86-1.32-.33-2.64-.65-3.96-1l-3.93-1.09c-10.48-2.92-20.79-6.53-30.74-11.05-4.94-2.32-9.85-4.77-14.48-7.75-4.62-2.97-9.09-6.31-12.82-10.53-.09-.1-.36-.4-.77-.87-.37-.5-.85-1.2-1.43-2.03-1.23-1.64-2.42-4.18-3.24-7.07-.41-1.46-.73-3.03-.84-4.67-.11-1.64-.02-3.38.56-5.05.3-.82.69-1.65,1.29-2.32.55-.71,1.22-1.26,2.07-1.66.84-.39,2-.44,2.83.09.42.25.75.56,1.01.99.27.44.39.96.26,1.44l-.09.31-.09.23c-.06.16-.13.3-.19.45-.14.29-.29.56-.46.81-.33.51-.72.94-1.13,1.3-.88.81-2.17,1.32-2.84.69-.32-.3-.38-.72-.4-1.05,0-.34.04-.63.1-.85.11-.44.23-.61.28-.61.07,0,.06.25.08.6.04.32-.02.86.42,1.21.24.16.59.08.86-.07.14-.08.27-.17.39-.27.11-.1.23-.21.39-.39.3-.34.59-.73.83-1.17.12-.22.22-.46.32-.7.04-.12.09-.24.12-.37l.05-.19.02-.12c.04-.17-.04-.35-.14-.48-.11-.15-.32-.32-.52-.41-.41-.21-.89-.16-1.38.09-.48.27-1.01.73-1.35,1.27-.4.5-.65,1.14-.85,1.79-.38,1.32-.39,2.81-.22,4.25.18,1.45.53,2.86.96,4.16.88,2.63,2.01,4.81,3.17,6.23.56.74,1.02,1.34,1.36,1.79.39.42.65.69.73.78Z"/><path class="cls-2" d="M157.26,369.29c-1.55-1.02-2.86-2.39-3.85-3.91-.99-1.53-1.72-3.18-2.22-4.86-1.04-3.4-1.09-7.13-.17-10.54.88-3.43,2.59-6.53,4.58-9.31,2.02-2.77,4.35-5.25,6.83-7.54,4.97-4.56,10.5-8.37,16.19-11.83,5.7-3.46,11.62-6.5,17.62-9.34,12.03-5.63,24.46-10.32,37.07-14.39,12.62-4.05,25.44-7.47,38.45-10.08.46-.09,6.1-1.06,11.66-1.61,5.57-.6,11.05-.64,11.07-.25.02.39-5.35,1.15-10.78,2.25-5.44,1.05-10.94,2.32-11.4,2.41-12.88,2.58-25.61,5.98-38.13,10-12.51,4.04-24.84,8.69-36.73,14.26-5.93,2.8-11.77,5.81-17.36,9.2-5.58,3.39-10.97,7.12-15.74,11.49-2.37,2.19-4.58,4.54-6.45,7.11-1.84,2.57-3.37,5.38-4.13,8.35-.79,2.97-.74,6.08.14,9,.9,2.94,2.47,5.63,4.91,7.22.19.08,1.25.95,3.15,1.53,1.87.63,4.54.86,7.21.61,5.38-.46,10.45-2.61,10.6-2.26.2.34-4.61,3.21-10.32,4.26-2.83.53-5.87.53-8.19-.08-2.34-.54-3.8-1.57-4.02-1.68Z"/><path class="cls-2" d="M267.83,6.33c4.22,3.74,7.55,8.21,10.52,12.83,2.97,4.63,5.43,9.54,7.74,14.48,4.52,9.95,8.12,20.26,11.04,30.75l1.09,3.93,1,3.96c.68,2.63,1.27,5.29,1.86,7.95,1.19,5.31,2.13,10.71,2.82,16.12,1.36,10.82,1.95,21.7,2.15,32.55.22,10.86.1,21.7.06,32.52-.04,10.82,0,21.63.65,32.38.69,10.72,1.95,21.48,5.17,31.63,3.39,10.12,7.75,20.07,13.57,28.98.21.31,1.5,2.44,3.6,5.24,1.04,1.41,2.31,2.95,3.72,4.54,1.44,1.55,3.03,3.14,4.74,4.55,1.71,1.4,3.55,2.64,5.39,3.47,1.82.8,3.73,1.3,5.13.88.69-.19,1.2-.6,1.5-1.1.24-.53.36-1.07.35-1.53.02-.46-.03-.84-.05-1.1-.02-.26,0-.41.04-.43.05-.02.13.1.24.35.12.25.27.61.35,1.13.11.51.09,1.18-.15,1.93-.3.74-.99,1.45-1.9,1.79-.9.38-1.94.42-2.97.31-1.05-.08-2.08-.4-3.13-.76-2.09-.77-4.12-1.97-6.02-3.35-1.89-1.39-3.64-2.96-5.22-4.51-1.54-1.58-2.94-3.14-4.08-4.55-2.3-2.82-3.7-4.97-3.92-5.29-6.02-9.23-10.43-19.3-13.91-29.68-3.33-10.53-4.6-21.47-5.29-32.32-.66-10.87-.7-21.73-.66-32.56.04-10.83.16-21.65-.06-32.45-.2-10.79-.79-21.57-2.13-32.24-.68-5.34-1.6-10.62-2.77-15.87-.58-2.63-1.16-5.26-1.84-7.87l-.99-3.92-1.08-3.89c-2.89-10.37-6.45-20.56-10.89-30.33-2.27-4.85-4.68-9.66-7.56-14.14-2.87-4.47-6.09-8.76-9.99-12.21-.07-.06-.23-.21-.47-.44-.23-.24-.58-.52-1.01-.83-.87-.62-1.96-1.6-3.44-2.35-1.48-.8-3.31-1.54-5.3-2.07-.99-.27-2.03-.47-3.08-.57-1.05-.12-2.11-.09-3.11.07-1.01.15-1.95.52-2.68,1.09-.4.25-.71.64-.99.97-.24.36-.39.72-.41,1.05-.07.65.52,1.38.98,1.32.1-.01.31-.07.51-.13.2-.07.39-.14.58-.23.37-.17.72-.38,1.03-.6.3-.21.61-.51.78-.69.17-.19.33-.4.43-.63.1-.23.13-.5.01-.69-.12-.19-.31-.28-.49-.33-.71-.18-1.31-.06-1.33-.18-.01-.05.12-.12.38-.22.27-.08.73-.21,1.31-.14.28.04.6.14.84.4.23.27.31.66.24,1.06-.06.4-.25.83-.55,1.25-.3.43-.57.71-.92,1.03-.34.31-.73.59-1.16.84-.22.13-.45.24-.69.34-.23.1-.48.2-.85.28-.7.15-1.48-.31-1.91-.77-.47-.48-.77-1.19-.79-1.92-.02-.73.24-1.41.57-1.98.37-.54.75-1.04,1.26-1.44.97-.87,2.21-1.41,3.43-1.67,1.23-.27,2.48-.36,3.67-.29,1.2.05,2.37.22,3.48.46,2.22.49,4.24,1.2,5.94,2.03,1.74.8,2.98,1.82,3.96,2.48.49.33.88.62,1.14.87.27.24.45.4.52.46Z"/><path class="cls-2" d="M375.76,149.92c-1.59-2.45-4.28-4.02-7.22-4.92-2.92-.89-6.03-.94-9-.14-2.98.77-5.78,2.29-8.35,4.13-2.57,1.87-4.92,4.08-7.11,6.45-4.37,4.76-8.1,10.16-11.49,15.74-3.39,5.59-6.39,11.43-9.2,17.36-5.56,11.89-10.22,24.22-14.25,36.74-4.02,12.52-7.42,25.26-9.99,38.14-.09.46-1.36,5.97-2.41,11.4-1.1,5.43-1.85,10.81-2.25,10.78-.39-.02-.35-5.51.25-11.08.55-5.57,1.52-11.2,1.61-11.67,2.61-13.01,6.03-25.84,10.08-38.46,4.07-12.61,8.76-25.04,14.39-37.08,2.84-6.01,5.88-11.93,9.34-17.63,3.46-5.69,7.27-11.23,11.83-16.2,2.28-2.48,4.77-4.81,7.54-6.83,2.78-1.99,5.87-3.7,9.31-4.58,3.41-.92,7.15-.87,10.55.17,1.68.51,3.33,1.24,4.86,2.23,1.52.99,2.89,2.3,3.91,3.85.11.22,1.14,1.69,1.68,4.02.61,2.31.6,5.36.08,8.19-1.05,5.71-3.91,10.53-4.26,10.33-.35-.15,1.8-5.22,2.26-10.6.24-2.67.02-5.35-.61-7.21-.57-1.9-1.44-2.96-1.53-3.15Z"/><path class="cls-2" d="M571.56,387.09c-3.45-3.9-7.73-7.12-12.2-9.99-4.48-2.88-9.29-5.29-14.14-7.56-9.77-4.44-19.95-8.01-30.32-10.9l-3.89-1.08c-1.3-.35-2.61-.66-3.92-.99-2.61-.68-5.24-1.26-7.87-1.84-5.25-1.17-10.53-2.09-15.87-2.78-10.67-1.34-21.45-1.93-32.24-2.13-10.79-.22-21.61-.1-32.44-.06-10.83.04-21.69,0-32.56-.66-10.85-.7-21.79-1.97-32.31-5.3-10.38-3.48-20.45-7.89-29.67-13.92-.32-.22-2.47-1.62-5.29-3.92-1.41-1.14-2.97-2.53-4.55-4.08-1.55-1.58-3.12-3.33-4.51-5.22-1.38-1.9-2.58-3.93-3.34-6.02-.36-1.05-.68-2.09-.76-3.13-.11-1.03-.07-2.06.31-2.97.35-.91,1.06-1.6,1.79-1.9.75-.24,1.42-.26,1.93-.15.52.07.89.23,1.13.35.25.11.37.19.35.24s-.17.06-.43.04c-.26-.02-.63-.08-1.1-.05-.46-.01-1.01.11-1.53.35-.5.3-.91.8-1.1,1.5-.42,1.4.08,3.31.88,5.13.83,1.84,2.07,3.68,3.47,5.39,1.41,1.71,2.99,3.3,4.54,4.74,1.59,1.41,3.13,2.68,4.54,3.72,2.8,2.1,4.92,3.39,5.24,3.61,8.91,5.83,18.85,10.19,28.97,13.58,10.15,3.22,20.9,4.48,31.62,5.17,10.75.66,21.55.69,32.37.65,10.82-.04,21.66-.16,32.51.06,10.85.21,21.73.79,32.54,2.15,5.4.69,10.8,1.63,16.11,2.82,2.66.58,5.31,1.17,7.95,1.86,1.32.33,2.64.65,3.96,1l3.93,1.09c10.48,2.92,20.79,6.53,30.74,11.05,4.94,2.32,9.85,4.77,14.48,7.75,4.62,2.97,9.09,6.31,12.82,10.53.09.1.36.4.77.87.37.5.85,1.2,1.43,2.03,1.23,1.64,2.42,4.18,3.24,7.07.41,1.46.73,3.03.84,4.67.11,1.64.02,3.38-.56,5.05-.3.82-.69,1.65-1.29,2.32-.55.71-1.22,1.26-2.07,1.66-.84.39-2,.44-2.83-.09-.42-.25-.75-.56-1.01-.99-.27-.44-.39-.96-.26-1.44l.09-.31.09-.23c.06-.16.13-.3.19-.45.14-.29.29-.56.46-.81.33-.51.72-.94,1.13-1.3.88-.81,2.17-1.32,2.84-.69.32.3.38.72.4,1.05,0,.34-.04.63-.1.85-.11.44-.23.61-.28.61-.07,0-.06-.25-.08-.6-.04-.32.02-.86-.42-1.21-.24-.16-.59-.08-.86.07-.14.08-.27.17-.39.27-.11.1-.23.21-.39.39-.3.34-.59.73-.83,1.17-.12.22-.22.46-.32.7-.04.12-.09.24-.12.37l-.05.19-.02.12c-.04.17.04.35.14.48.11.15.32.32.52.41.41.21.89.16,1.38-.09.48-.27,1.01-.73,1.35-1.27.4-.5.65-1.14.85-1.79.38-1.32.39-2.81.22-4.25-.18-1.45-.53-2.86-.96-4.16-.88-2.63-2.01-4.81-3.17-6.23-.56-.74-1.02-1.34-1.36-1.79-.39-.42-.65-.69-.73-.78Z"/><path class="cls-2" d="M431.74,274.85c1.55,1.02,2.86,2.39,3.85,3.91.99,1.53,1.72,3.18,2.22,4.86,1.04,3.4,1.09,7.13.17,10.54-.88,3.43-2.59,6.53-4.58,9.31-2.02,2.77-4.35,5.25-6.83,7.54-4.97,4.56-10.5,8.37-16.19,11.83-5.7,3.46-11.62,6.5-17.62,9.34-12.03,5.63-24.46,10.32-37.07,14.39-12.62,4.05-25.44,7.47-38.45,10.08-.46.09-6.1,1.06-11.66,1.61-5.57.6-11.05.64-11.07.25-.02-.39,5.35-1.15,10.78-2.25,5.44-1.05,10.94-2.32,11.4-2.41,12.88-2.58,25.61-5.98,38.13-10,12.51-4.04,24.84-8.69,36.73-14.26,5.93-2.8,11.77-5.81,17.36-9.2,5.58-3.39,10.97-7.12,15.74-11.49,2.37-2.19,4.58-4.54,6.45-7.11,1.84-2.57,3.37-5.38,4.13-8.35.79-2.97.74-6.08-.14-9-.9-2.94-2.47-5.63-4.91-7.22-.19-.08-1.25-.95-3.15-1.53-1.87-.63-4.54-.86-7.21-.61-5.38.46-10.45,2.61-10.6,2.26-.2-.34,4.61-3.21,10.32-4.26,2.83-.53,5.87-.53,8.19.08,2.34.54,3.8,1.57,4.02,1.68Z"/><path class="cls-2" d="M321.17,637.82c-4.22-3.74-7.55-8.21-10.52-12.83-2.97-4.63-5.43-9.54-7.74-14.48-4.52-9.95-8.12-20.26-11.04-30.75l-1.09-3.93-1-3.96c-.68-2.63-1.27-5.29-1.86-7.95-1.19-5.31-2.13-10.71-2.82-16.12-1.36-10.82-1.95-21.7-2.15-32.55-.22-10.86-.1-21.7-.06-32.52.04-10.82,0-21.63-.65-32.38-.69-10.72-1.95-21.48-5.17-31.63-3.39-10.12-7.75-20.07-13.57-28.98-.21-.31-1.5-2.44-3.6-5.24-1.04-1.41-2.31-2.95-3.72-4.54-1.44-1.55-3.03-3.14-4.74-4.55-1.71-1.4-3.55-2.64-5.39-3.47-1.82-.8-3.73-1.3-5.13-.88-.69.19-1.2.6-1.5,1.1-.24.53-.36,1.07-.35,1.53-.02.46.03.84.05,1.1.02.26,0,.41-.04.43-.05.02-.13-.1-.24-.35-.12-.25-.27-.61-.35-1.13-.11-.51-.09-1.18.15-1.93.3-.74.99-1.45,1.9-1.79.9-.38,1.94-.42,2.97-.31,1.05.08,2.08.4,3.13.76,2.09.77,4.12,1.97,6.02,3.35,1.89,1.39,3.64,2.96,5.22,4.51,1.54,1.58,2.94,3.14,4.08,4.55,2.3,2.82,3.7,4.97,3.92,5.29,6.02,9.23,10.43,19.3,13.91,29.68,3.33,10.53,4.6,21.47,5.29,32.32.66,10.87.7,21.73.66,32.56-.04,10.83-.16,21.65.06,32.45.2,10.79.79,21.57,2.13,32.24.68,5.34,1.6,10.62,2.77,15.87.58,2.63,1.16,5.26,1.84,7.87l.99,3.92,1.08,3.89c2.89,10.37,6.45,20.56,10.89,30.33,2.27,4.85,4.68,9.66,7.56,14.14,2.87,4.47,6.09,8.76,9.99,12.21.07.06.23.21.47.44.23.24.58.52,1.01.83.87.62,1.96,1.6,3.44,2.35,1.48.8,3.31,1.54,5.3,2.07.99.27,2.03.47,3.08.57,1.05.12,2.11.09,3.11-.07,1.01-.15,1.95-.52,2.68-1.09.4-.25.71-.64.99-.97.24-.36.39-.72.41-1.05.07-.65-.52-1.38-.98-1.32-.1.01-.31.07-.51.13-.2.07-.39.14-.58.23-.37.17-.72.38-1.03.6-.3.21-.61.51-.78.69-.17.19-.33.4-.43.63-.1.23-.13.5-.01.69.12.19.31.28.49.33.71.18,1.31.06,1.33.18.01.05-.12.12-.38.22-.27.08-.73.21-1.31.14-.28-.04-.6-.14-.84-.4-.23-.27-.31-.66-.24-1.06.06-.4.25-.83.55-1.25.3-.43.57-.71.92-1.03.34-.31.73-.59,1.16-.84.22-.13.45-.24.69-.34.23-.1.48-.2.85-.28.7-.15,1.48.31,1.91.77.47.48.77,1.19.79,1.92.02.73-.24,1.41-.57,1.98-.37.54-.75,1.04-1.26,1.44-.97.87-2.21,1.41-3.43,1.67-1.23.27-2.48.36-3.67.29-1.2-.05-2.37-.22-3.48-.46-2.22-.49-4.24-1.2-5.94-2.03-1.74-.8-2.98-1.82-3.96-2.48-.49-.33-.88-.62-1.14-.87-.27-.24-.45-.4-.52-.46Z"/><path class="cls-2" d="M213.24,494.22c1.59,2.45,4.28,4.02,7.22,4.92,2.92.89,6.03.94,9,.14,2.98-.77,5.78-2.29,8.35-4.13,2.57-1.87,4.92-4.08,7.11-6.45,4.37-4.76,8.1-10.16,11.49-15.74,3.39-5.59,6.39-11.43,9.2-17.36,5.56-11.89,10.22-24.22,14.25-36.74,4.02-12.52,7.42-25.26,9.99-38.14.09-.46,1.36-5.97,2.41-11.4,1.1-5.43,1.85-10.81,2.25-10.78.39.02.35,5.51-.25,11.08-.55,5.57-1.52,11.2-1.61,11.67-2.61,13.01-6.03,25.84-10.08,38.46-4.07,12.61-8.76,25.04-14.39,37.08-2.84,6.01-5.88,11.93-9.34,17.63-3.46,5.69-7.27,11.23-11.83,16.2-2.28,2.48-4.77,4.81-7.54,6.83-2.78,1.99-5.87,3.7-9.31,4.58-3.41.92-7.15.87-10.55-.17-1.68-.51-3.33-1.24-4.86-2.23-1.52-.99-2.89-2.3-3.91-3.85-.11-.22-1.14-1.69-1.68-4.02-.61-2.31-.6-5.36-.08-8.19,1.05-5.71,3.91-10.53,4.26-10.33.35.15-1.8,5.22-2.26,10.6-.24,2.67-.02,5.35.61,7.21.57,1.9,1.44,2.96,1.53,3.15Z"/><path class="cls-2" d="M571.56,387.09c-3.45-3.9-7.73-7.12-12.2-9.99-4.48-2.88-9.29-5.29-14.14-7.56-9.77-4.44-19.95-8.01-30.32-10.9l-3.89-1.08c-1.3-.35-2.61-.66-3.92-.99-2.61-.68-5.24-1.26-7.87-1.84-5.25-1.17-10.53-2.09-15.87-2.78-10.67-1.34-21.45-1.93-32.24-2.13-10.79-.22-21.61-.1-32.44-.06-10.83.04-21.69,0-32.56-.66-10.85-.7-21.79-1.97-32.31-5.3-10.38-3.48-20.45-7.89-29.67-13.92-.32-.22-2.47-1.62-5.29-3.92-1.41-1.14-2.97-2.53-4.55-4.08-1.55-1.58-3.12-3.33-4.51-5.22-1.38-1.9-2.58-3.93-3.34-6.02-.36-1.05-.68-2.09-.76-3.13-.11-1.03-.07-2.06.31-2.97.35-.91,1.06-1.6,1.79-1.9.75-.24,1.42-.26,1.93-.15.52.07.89.23,1.13.35.25.11.37.19.35.24s-.17.06-.43.04c-.26-.02-.63-.08-1.1-.05-.46-.01-1.01.11-1.53.35-.5.3-.91.8-1.1,1.5-.42,1.4.08,3.31.88,5.13.83,1.84,2.07,3.68,3.47,5.39,1.41,1.71,2.99,3.3,4.54,4.74,1.59,1.41,3.13,2.68,4.54,3.72,2.8,2.1,4.92,3.39,5.24,3.61,8.91,5.83,18.85,10.19,28.97,13.58,10.15,3.22,20.9,4.48,31.62,5.17,10.75.66,21.55.69,32.37.65,10.82-.04,21.66-.16,32.51.06,10.85.21,21.73.79,32.54,2.15,5.4.69,10.8,1.63,16.11,2.82,2.66.58,5.31,1.17,7.95,1.86,1.32.33,2.64.65,3.96,1l3.93,1.09c10.48,2.92,20.79,6.53,30.74,11.05,4.94,2.32,9.85,4.77,14.48,7.75,4.62,2.97,9.09,6.31,12.82,10.53.09.1.36.4.77.87.37.5.85,1.2,1.43,2.03,1.23,1.64,2.42,4.18,3.24,7.07.41,1.46.73,3.03.84,4.67.11,1.64.02,3.38-.56,5.05-.3.82-.69,1.65-1.29,2.32-.55.71-1.22,1.26-2.07,1.66-.84.39-2,.44-2.83-.09-.42-.25-.75-.56-1.01-.99-.27-.44-.39-.96-.26-1.44l.09-.31.09-.23c.06-.16.13-.3.19-.45.14-.29.29-.56.46-.81.33-.51.72-.94,1.13-1.3.88-.81,2.17-1.32,2.84-.69.32.3.38.72.4,1.05,0,.34-.04.63-.1.85-.11.44-.23.61-.28.61-.07,0-.06-.25-.08-.6-.04-.32.02-.86-.42-1.21-.24-.16-.59-.08-.86.07-.14.08-.27.17-.39.27-.11.1-.23.21-.39.39-.3.34-.59.73-.83,1.17-.12.22-.22.46-.32.7-.04.12-.09.24-.12.37l-.05.19-.02.12c-.04.17.04.35.14.48.11.15.32.32.52.41.41.21.89.16,1.38-.09.48-.27,1.01-.73,1.35-1.27.4-.5.65-1.14.85-1.79.38-1.32.39-2.81.22-4.25-.18-1.45-.53-2.86-.96-4.16-.88-2.63-2.01-4.81-3.17-6.23-.56-.74-1.02-1.34-1.36-1.79-.39-.42-.65-.69-.73-.78Z"/><path class="cls-2" d="M431.74,274.85c1.55,1.02,2.86,2.39,3.85,3.91.99,1.53,1.72,3.18,2.22,4.86,1.04,3.4,1.09,7.13.17,10.54-.88,3.43-2.59,6.53-4.58,9.31-2.02,2.77-4.35,5.25-6.83,7.54-4.97,4.56-10.5,8.37-16.19,11.83-5.7,3.46-11.62,6.5-17.62,9.34-12.03,5.63-24.46,10.32-37.07,14.39-12.62,4.05-25.44,7.47-38.45,10.08-.46.09-6.1,1.06-11.66,1.61-5.57.6-11.05.64-11.07.25-.02-.39,5.35-1.15,10.78-2.25,5.44-1.05,10.94-2.32,11.4-2.41,12.88-2.58,25.61-5.98,38.13-10,12.51-4.04,24.84-8.69,36.73-14.26,5.93-2.8,11.77-5.81,17.36-9.2,5.58-3.39,10.97-7.12,15.74-11.49,2.37-2.19,4.58-4.54,6.45-7.11,1.84-2.57,3.37-5.38,4.13-8.35.79-2.97.74-6.08-.14-9-.9-2.94-2.47-5.63-4.91-7.22-.19-.08-1.25-.95-3.15-1.53-1.87-.63-4.54-.86-7.21-.61-5.38.46-10.45,2.61-10.6,2.26-.2-.34,4.61-3.21,10.32-4.26,2.83-.53,5.87-.53,8.19.08,2.34.54,3.8,1.57,4.02,1.68Z"/><path class="cls-2" d="M321.17,637.82c-4.22-3.74-7.55-8.21-10.52-12.83-2.97-4.63-5.43-9.54-7.74-14.48-4.52-9.95-8.12-20.26-11.04-30.75l-1.09-3.93-1-3.96c-.68-2.63-1.27-5.29-1.86-7.95-1.19-5.31-2.13-10.71-2.82-16.12-1.36-10.82-1.95-21.7-2.15-32.55-.22-10.86-.1-21.7-.06-32.52.04-10.82,0-21.63-.65-32.38-.69-10.72-1.95-21.48-5.17-31.63-3.39-10.12-7.75-20.07-13.57-28.98-.21-.31-1.5-2.44-3.6-5.24-1.04-1.41-2.31-2.95-3.72-4.54-1.44-1.55-3.03-3.14-4.74-4.55-1.71-1.4-3.55-2.64-5.39-3.47-1.82-.8-3.73-1.3-5.13-.88-.69.19-1.2.6-1.5,1.1-.24.53-.36,1.07-.35,1.53-.02.46.03.84.05,1.1.02.26,0,.41-.04.43-.05.02-.13-.1-.24-.35-.12-.25-.27-.61-.35-1.13-.11-.51-.09-1.18.15-1.93.3-.74.99-1.45,1.9-1.79.9-.38,1.94-.42,2.97-.31,1.05.08,2.08.4,3.13.76,2.09.77,4.12,1.97,6.02,3.35,1.89,1.39,3.64,2.96,5.22,4.51,1.54,1.58,2.94,3.14,4.08,4.55,2.3,2.82,3.7,4.97,3.92,5.29,6.02,9.23,10.43,19.3,13.91,29.68,3.33,10.53,4.6,21.47,5.29,32.32.66,10.87.7,21.73.66,32.56-.04,10.83-.16,21.65.06,32.45.2,10.79.79,21.57,2.13,32.24.68,5.34,1.6,10.62,2.77,15.87.58,2.63,1.16,5.26,1.84,7.87l.99,3.92,1.08,3.89c2.89,10.37,6.45,20.56,10.89,30.33,2.27,4.85,4.68,9.66,7.56,14.14,2.87,4.47,6.09,8.76,9.99,12.21.07.06.23.21.47.44.23.24.58.52,1.01.83.87.62,1.96,1.6,3.44,2.35,1.48.8,3.31,1.54,5.3,2.07.99.27,2.03.47,3.08.57,1.05.12,2.11.09,3.11-.07,1.01-.15,1.95-.52,2.68-1.09.4-.25.71-.64.99-.97.24-.36.39-.72.41-1.05.07-.65-.52-1.38-.98-1.32-.1.01-.31.07-.51.13-.2.07-.39.14-.58.23-.37.17-.72.38-1.03.6-.3.21-.61.51-.78.69-.17.19-.33.4-.43.63-.1.23-.13.5-.01.69.12.19.31.28.49.33.71.18,1.31.06,1.33.18.01.05-.12.12-.38.22-.27.08-.73.21-1.31.14-.28-.04-.6-.14-.84-.4-.23-.27-.31-.66-.24-1.06.06-.4.25-.83.55-1.25.3-.43.57-.71.92-1.03.34-.31.73-.59,1.16-.84.22-.13.45-.24.69-.34.23-.1.48-.2.85-.28.7-.15,1.48.31,1.91.77.47.48.77,1.19.79,1.92.02.73-.24,1.41-.57,1.98-.37.54-.75,1.04-1.26,1.44-.97.87-2.21,1.41-3.43,1.67-1.23.27-2.48.36-3.67.29-1.2-.05-2.37-.22-3.48-.46-2.22-.49-4.24-1.2-5.94-2.03-1.74-.8-2.98-1.82-3.96-2.48-.49-.33-.88-.62-1.14-.87-.27-.24-.45-.4-.52-.46Z"/><path class="cls-2" d="M213.24,494.22c1.59,2.45,4.28,4.02,7.22,4.92,2.92.89,6.03.94,9,.14,2.98-.77,5.78-2.29,8.35-4.13,2.57-1.87,4.92-4.08,7.11-6.45,4.37-4.76,8.1-10.16,11.49-15.74,3.39-5.59,6.39-11.43,9.2-17.36,5.56-11.89,10.22-24.22,14.25-36.74,4.02-12.52,7.42-25.26,9.99-38.14.09-.46,1.36-5.97,2.41-11.4,1.1-5.43,1.85-10.81,2.25-10.78.39.02.35,5.51-.25,11.08-.55,5.57-1.52,11.2-1.61,11.67-2.61,13.01-6.03,25.84-10.08,38.46-4.07,12.61-8.76,25.04-14.39,37.08-2.84,6.01-5.88,11.93-9.34,17.63-3.46,5.69-7.27,11.23-11.83,16.2-2.28,2.48-4.77,4.81-7.54,6.83-2.78,1.99-5.87,3.7-9.31,4.58-3.41.92-7.15.87-10.55-.17-1.68-.51-3.33-1.24-4.86-2.23-1.52-.99-2.89-2.3-3.91-3.85-.11-.22-1.14-1.69-1.68-4.02-.61-2.31-.6-5.36-.08-8.19,1.05-5.71,3.91-10.53,4.26-10.33.35.15-1.8,5.22-2.26,10.6-.24,2.67-.02,5.35.61,7.21.57,1.9,1.44,2.96,1.53,3.15Z"/><path class="cls-2" d="M15.29,385.21c3.74-4.22,8.21-7.55,12.82-10.53,4.63-2.97,9.53-5.43,14.48-7.75,9.95-4.52,20.26-8.13,30.74-11.05l3.93-1.09c1.31-.35,2.64-.66,3.96-1,2.63-.68,5.29-1.27,7.95-1.86,5.31-1.19,10.71-2.13,16.11-2.82,10.82-1.36,21.69-1.95,32.54-2.15,10.85-.22,21.69-.1,32.51-.06,10.82.04,21.62,0,32.37-.65,10.72-.69,21.47-1.95,31.62-5.17,10.12-3.39,20.06-7.75,28.97-13.58.31-.21,2.44-1.5,5.24-3.61,1.41-1.04,2.95-2.31,4.54-3.72,1.55-1.44,3.14-3.03,4.54-4.74,1.4-1.71,2.64-3.55,3.47-5.39.8-1.82,1.29-3.73.88-5.13-.19-.69-.6-1.2-1.1-1.5-.53-.24-1.07-.36-1.53-.35-.46-.02-.84.03-1.1.05-.26.02-.41,0-.43-.04s.1-.13.35-.24c.25-.12.61-.27,1.13-.35.51-.11,1.18-.09,1.93.15.74.3,1.45.99,1.79,1.9.38.9.42,1.94.31,2.97-.08,1.05-.4,2.08-.76,3.13-.77,2.09-1.97,4.12-3.34,6.02-1.38,1.89-2.96,3.64-4.51,5.22-1.58,1.55-3.14,2.94-4.55,4.08-2.81,2.3-4.96,3.7-5.29,3.92-9.23,6.03-19.29,10.43-29.67,13.92-10.53,3.33-21.47,4.6-32.31,5.3-10.87.66-21.73.7-32.56.66-10.83-.04-21.65-.16-32.44.06-10.79.2-21.57.79-32.24,2.13-5.34.68-10.61,1.6-15.87,2.78-2.63.58-5.26,1.16-7.87,1.84-1.3.33-2.62.64-3.92.99l-3.89,1.08c-10.37,2.89-20.55,6.45-30.32,10.9-4.85,2.27-9.65,4.68-14.14,7.56-4.47,2.87-8.75,6.09-12.2,9.99-.09.09-.34.36-.73.78-.34.45-.8,1.06-1.36,1.79-1.16,1.42-2.29,3.6-3.17,6.23-.43,1.31-.79,2.72-.96,4.16-.17,1.44-.16,2.93.22,4.25.2.65.45,1.29.85,1.79.35.54.88,1.01,1.35,1.27.49.25.97.3,1.38.09.2-.09.41-.27.52-.41.11-.13.18-.31.14-.48l-.02-.12-.05-.19c-.03-.13-.08-.25-.12-.37-.1-.24-.19-.48-.32-.7-.23-.44-.52-.84-.83-1.17-.16-.17-.28-.29-.39-.39-.12-.1-.25-.2-.39-.27-.27-.16-.62-.23-.86-.07-.43.36-.37.89-.42,1.21-.02.35-.01.59-.08.6-.05,0-.17-.17-.28-.61-.06-.22-.1-.51-.1-.85.02-.33.08-.75.4-1.05.68-.63,1.96-.12,2.84.69.41.36.79.79,1.13,1.3.17.25.32.52.46.81.06.15.14.29.19.45l.09.23.09.31c.13.48,0,1-.26,1.44-.27.43-.59.74-1.01.99-.83.53-1.99.48-2.83.09-.85-.41-1.52-.95-2.07-1.66-.6-.67-.98-1.5-1.29-2.32-.58-1.67-.66-3.41-.56-5.05.11-1.65.43-3.22.84-4.67.81-2.89,2.01-5.44,3.24-7.07.58-.83,1.06-1.53,1.43-2.03.41-.47.68-.76.77-.87Z"/><path class="cls-2" d="M158.84,277.24c-2.44,1.59-4.02,4.28-4.91,7.22-.89,2.92-.94,6.03-.14,9,.76,2.98,2.29,5.78,4.13,8.35,1.87,2.57,4.08,4.92,6.45,7.11,4.76,4.37,10.16,8.1,15.74,11.49,5.59,3.39,11.43,6.4,17.36,9.2,11.89,5.57,24.22,10.22,36.73,14.26,12.52,4.02,25.25,7.42,38.13,10,.46.09,5.97,1.36,11.4,2.41,5.43,1.1,10.8,1.85,10.78,2.25-.02.39-5.51.35-11.07-.25-5.57-.55-11.2-1.52-11.66-1.61-13.01-2.61-25.83-6.03-38.45-10.08-12.61-4.07-25.04-8.76-37.07-14.39-6-2.84-11.92-5.88-17.62-9.34-5.69-3.46-11.22-7.27-16.19-11.83-2.48-2.29-4.81-4.77-6.83-7.54-1.99-2.78-3.69-5.88-4.58-9.31-.92-3.41-.87-7.14.17-10.54.51-1.68,1.24-3.33,2.22-4.86.99-1.52,2.3-2.89,3.85-3.91.22-.11,1.69-1.14,4.02-1.68,2.31-.61,5.36-.6,8.19-.08,5.71,1.05,10.52,3.92,10.32,4.26-.15.35-5.21-1.8-10.6-2.26-2.67-.24-5.34-.02-7.21.61-1.9.57-2.96,1.44-3.15,1.53Z"/><path class="cls-2" d="M265.95,635.67c3.9-3.45,7.12-7.74,9.99-12.21,2.88-4.49,5.29-9.29,7.56-14.14,4.44-9.77,8-19.96,10.89-30.33l1.08-3.89.99-3.92c.68-2.61,1.26-5.24,1.84-7.87,1.17-5.25,2.09-10.53,2.77-15.87,1.34-10.67,1.93-21.45,2.13-32.24.22-10.8.1-21.61.06-32.45-.04-10.83,0-21.69.66-32.56.7-10.85,1.96-21.79,5.29-32.32,3.48-10.39,7.88-20.45,13.91-29.68.22-.32,1.62-2.47,3.92-5.29,1.14-1.42,2.53-2.97,4.08-4.55,1.58-1.55,3.33-3.13,5.22-4.51,1.9-1.38,3.93-2.58,6.02-3.35,1.05-.36,2.09-.68,3.13-.76,1.03-.11,2.06-.07,2.97.31.91.35,1.6,1.06,1.9,1.79.24.75.26,1.42.15,1.93-.07.52-.23.89-.35,1.13-.11.25-.2.37-.24.35-.05-.02-.06-.17-.04-.43.02-.26.08-.63.05-1.1.01-.46-.11-1.01-.35-1.53-.3-.5-.8-.91-1.5-1.1-1.4-.42-3.31.08-5.13.88-1.84.83-3.68,2.07-5.39,3.47-1.71,1.41-3.3,2.99-4.74,4.55-1.41,1.59-2.68,3.13-3.72,4.54-2.1,2.8-3.39,4.92-3.6,5.24-5.83,8.92-10.19,18.86-13.57,28.98-3.22,10.15-4.48,20.91-5.17,31.63-.66,10.75-.69,21.56-.65,32.38.04,10.82.16,21.66-.06,32.52-.21,10.85-.79,21.73-2.15,32.55-.69,5.4-1.63,10.8-2.82,16.12-.58,2.66-1.17,5.31-1.86,7.95l-1,3.96-1.09,3.93c-2.92,10.49-6.52,20.8-11.04,30.75-2.32,4.95-4.77,9.85-7.74,14.48-2.97,4.62-6.3,9.09-10.52,12.83-.07.07-.25.22-.52.46-.26.25-.64.54-1.14.87-.98.65-2.22,1.67-3.96,2.48-1.69.83-3.71,1.54-5.94,2.03-1.11.24-2.28.42-3.48.46-1.2.07-2.44-.02-3.67-.29-1.22-.26-2.46-.8-3.43-1.67-.52-.4-.89-.9-1.26-1.44-.33-.57-.59-1.25-.57-1.98.01-.73.31-1.43.79-1.92.43-.46,1.22-.92,1.91-.77.37.09.62.18.85.28.24.1.47.22.69.34.43.25.82.54,1.16.84.35.32.61.6.92,1.03.29.42.48.85.55,1.25.07.4,0,.79-.24,1.06-.24.26-.56.36-.84.4-.58.07-1.04-.06-1.31-.14-.26-.1-.39-.17-.38-.22.02-.12.63,0,1.33-.18.17-.05.37-.14.49-.33.12-.2.09-.47-.01-.69-.1-.23-.25-.44-.43-.63-.17-.18-.48-.47-.78-.69-.31-.23-.66-.43-1.03-.6-.19-.09-.38-.16-.58-.23-.21-.07-.42-.12-.51-.13-.46-.06-1.05.67-.98,1.32.02.33.17.7.41,1.05.27.33.59.72.99.97.73.58,1.67.94,2.68,1.09,1,.16,2.06.19,3.11.07,1.05-.1,2.09-.3,3.08-.57,1.99-.53,3.82-1.27,5.3-2.07,1.48-.75,2.58-1.73,3.44-2.35.43-.31.78-.58,1.01-.83.24-.23.41-.38.47-.44Z"/><path class="cls-2" d="M378.14,495.8c-1.02,1.55-2.39,2.86-3.91,3.85-1.53.99-3.18,1.72-4.86,2.23-3.4,1.04-7.13,1.09-10.55.17-3.43-.89-6.53-2.59-9.31-4.58-2.77-2.02-5.25-4.36-7.54-6.83-4.56-4.97-8.37-10.51-11.83-16.2-3.46-5.7-6.5-11.62-9.34-17.63-5.63-12.03-10.32-24.46-14.39-37.08-4.05-12.62-7.47-25.45-10.08-38.46-.09-.46-1.06-6.1-1.61-11.67-.6-5.57-.64-11.05-.25-11.08.39-.02,1.15,5.35,2.25,10.78,1.05,5.44,2.32,10.94,2.41,11.4,2.58,12.88,5.98,25.62,9.99,38.14,4.04,12.52,8.69,24.85,14.25,36.74,2.8,5.93,5.81,11.77,9.2,17.36,3.39,5.58,7.11,10.98,11.49,15.74,2.19,2.37,4.54,4.58,7.11,6.45,2.57,1.84,5.37,3.37,8.35,4.13,2.97.79,6.08.75,9-.14,2.94-.9,5.63-2.47,7.22-4.92.08-.19.95-1.25,1.53-3.15.63-1.87.86-4.54.61-7.21-.46-5.39-2.61-10.45-2.26-10.6.34-.2,3.21,4.61,4.26,10.33.53,2.83.53,5.87-.08,8.19-.54,2.34-1.57,3.8-1.68,4.02Z"/><path class="cls-2" d="M15.29,385.21c3.74-4.22,8.21-7.55,12.82-10.53,4.63-2.97,9.53-5.43,14.48-7.75,9.95-4.52,20.26-8.13,30.74-11.05l3.93-1.09c1.31-.35,2.64-.66,3.96-1,2.63-.68,5.29-1.27,7.95-1.86,5.31-1.19,10.71-2.13,16.11-2.82,10.82-1.36,21.69-1.95,32.54-2.15,10.85-.22,21.69-.1,32.51-.06,10.82.04,21.62,0,32.37-.65,10.72-.69,21.47-1.95,31.62-5.17,10.12-3.39,20.06-7.75,28.97-13.58.31-.21,2.44-1.5,5.24-3.61,1.41-1.04,2.95-2.31,4.54-3.72,1.55-1.44,3.14-3.03,4.54-4.74,1.4-1.71,2.64-3.55,3.47-5.39.8-1.82,1.29-3.73.88-5.13-.19-.69-.6-1.2-1.1-1.5-.53-.24-1.07-.36-1.53-.35-.46-.02-.84.03-1.1.05-.26.02-.41,0-.43-.04s.1-.13.35-.24c.25-.12.61-.27,1.13-.35.51-.11,1.18-.09,1.93.15.74.3,1.45.99,1.79,1.9.38.9.42,1.94.31,2.97-.08,1.05-.4,2.08-.76,3.13-.77,2.09-1.97,4.12-3.34,6.02-1.38,1.89-2.96,3.64-4.51,5.22-1.58,1.55-3.14,2.94-4.55,4.08-2.81,2.3-4.96,3.7-5.29,3.92-9.23,6.03-19.29,10.43-29.67,13.92-10.53,3.33-21.47,4.6-32.31,5.3-10.87.66-21.73.7-32.56.66-10.83-.04-21.65-.16-32.44.06-10.79.2-21.57.79-32.24,2.13-5.34.68-10.61,1.6-15.87,2.78-2.63.58-5.26,1.16-7.87,1.84-1.3.33-2.62.64-3.92.99l-3.89,1.08c-10.37,2.89-20.55,6.45-30.32,10.9-4.85,2.27-9.65,4.68-14.14,7.56-4.47,2.87-8.75,6.09-12.2,9.99-.09.09-.34.36-.73.78-.34.45-.8,1.06-1.36,1.79-1.16,1.42-2.29,3.6-3.17,6.23-.43,1.31-.79,2.72-.96,4.16-.17,1.44-.16,2.93.22,4.25.2.65.45,1.29.85,1.79.35.54.88,1.01,1.35,1.27.49.25.97.3,1.38.09.2-.09.41-.27.52-.41.11-.13.18-.31.14-.48l-.02-.12-.05-.19c-.03-.13-.08-.25-.12-.37-.1-.24-.19-.48-.32-.7-.23-.44-.52-.84-.83-1.17-.16-.17-.28-.29-.39-.39-.12-.1-.25-.2-.39-.27-.27-.16-.62-.23-.86-.07-.43.36-.37.89-.42,1.21-.02.35-.01.59-.08.6-.05,0-.17-.17-.28-.61-.06-.22-.1-.51-.1-.85.02-.33.08-.75.4-1.05.68-.63,1.96-.12,2.84.69.41.36.79.79,1.13,1.3.17.25.32.52.46.81.06.15.14.29.19.45l.09.23.09.31c.13.48,0,1-.26,1.44-.27.43-.59.74-1.01.99-.83.53-1.99.48-2.83.09-.85-.41-1.52-.95-2.07-1.66-.6-.67-.98-1.5-1.29-2.32-.58-1.67-.66-3.41-.56-5.05.11-1.65.43-3.22.84-4.67.81-2.89,2.01-5.44,3.24-7.07.58-.83,1.06-1.53,1.43-2.03.41-.47.68-.76.77-.87Z"/><path class="cls-2" d="M158.84,277.24c-2.44,1.59-4.02,4.28-4.91,7.22-.89,2.92-.94,6.03-.14,9,.76,2.98,2.29,5.78,4.13,8.35,1.87,2.57,4.08,4.92,6.45,7.11,4.76,4.37,10.16,8.1,15.74,11.49,5.59,3.39,11.43,6.4,17.36,9.2,11.89,5.57,24.22,10.22,36.73,14.26,12.52,4.02,25.25,7.42,38.13,10,.46.09,5.97,1.36,11.4,2.41,5.43,1.1,10.8,1.85,10.78,2.25-.02.39-5.51.35-11.07-.25-5.57-.55-11.2-1.52-11.66-1.61-13.01-2.61-25.83-6.03-38.45-10.08-12.61-4.07-25.04-8.76-37.07-14.39-6-2.84-11.92-5.88-17.62-9.34-5.69-3.46-11.22-7.27-16.19-11.83-2.48-2.29-4.81-4.77-6.83-7.54-1.99-2.78-3.69-5.88-4.58-9.31-.92-3.41-.87-7.14.17-10.54.51-1.68,1.24-3.33,2.22-4.86.99-1.52,2.3-2.89,3.85-3.91.22-.11,1.69-1.14,4.02-1.68,2.31-.61,5.36-.6,8.19-.08,5.71,1.05,10.52,3.92,10.32,4.26-.15.35-5.21-1.8-10.6-2.26-2.67-.24-5.34-.02-7.21.61-1.9.57-2.96,1.44-3.15,1.53Z"/><path class="cls-2" d="M265.95,635.67c3.9-3.45,7.12-7.74,9.99-12.21,2.88-4.49,5.29-9.29,7.56-14.14,4.44-9.77,8-19.96,10.89-30.33l1.08-3.89.99-3.92c.68-2.61,1.26-5.24,1.84-7.87,1.17-5.25,2.09-10.53,2.77-15.87,1.34-10.67,1.93-21.45,2.13-32.24.22-10.8.1-21.61.06-32.45-.04-10.83,0-21.69.66-32.56.7-10.85,1.96-21.79,5.29-32.32,3.48-10.39,7.88-20.45,13.91-29.68.22-.32,1.62-2.47,3.92-5.29,1.14-1.42,2.53-2.97,4.08-4.55,1.58-1.55,3.33-3.13,5.22-4.51,1.9-1.38,3.93-2.58,6.02-3.35,1.05-.36,2.09-.68,3.13-.76,1.03-.11,2.06-.07,2.97.31.91.35,1.6,1.06,1.9,1.79.24.75.26,1.42.15,1.93-.07.52-.23.89-.35,1.13-.11.25-.2.37-.24.35-.05-.02-.06-.17-.04-.43.02-.26.08-.63.05-1.1.01-.46-.11-1.01-.35-1.53-.3-.5-.8-.91-1.5-1.1-1.4-.42-3.31.08-5.13.88-1.84.83-3.68,2.07-5.39,3.47-1.71,1.41-3.3,2.99-4.74,4.55-1.41,1.59-2.68,3.13-3.72,4.54-2.1,2.8-3.39,4.92-3.6,5.24-5.83,8.92-10.19,18.86-13.57,28.98-3.22,10.15-4.48,20.91-5.17,31.63-.66,10.75-.69,21.56-.65,32.38.04,10.82.16,21.66-.06,32.52-.21,10.85-.79,21.73-2.15,32.55-.69,5.4-1.63,10.8-2.82,16.12-.58,2.66-1.17,5.31-1.86,7.95l-1,3.96-1.09,3.93c-2.92,10.49-6.52,20.8-11.04,30.75-2.32,4.95-4.77,9.85-7.74,14.48-2.97,4.62-6.3,9.09-10.52,12.83-.07.07-.25.22-.52.46-.26.25-.64.54-1.14.87-.98.65-2.22,1.67-3.96,2.48-1.69.83-3.71,1.54-5.94,2.03-1.11.24-2.28.42-3.48.46-1.2.07-2.44-.02-3.67-.29-1.22-.26-2.46-.8-3.43-1.67-.52-.4-.89-.9-1.26-1.44-.33-.57-.59-1.25-.57-1.98.01-.73.31-1.43.79-1.92.43-.46,1.22-.92,1.91-.77.37.09.62.18.85.28.24.1.47.22.69.34.43.25.82.54,1.16.84.35.32.61.6.92,1.03.29.42.48.85.55,1.25.07.4,0,.79-.24,1.06-.24.26-.56.36-.84.4-.58.07-1.04-.06-1.31-.14-.26-.1-.39-.17-.38-.22.02-.12.63,0,1.33-.18.17-.05.37-.14.49-.33.12-.2.09-.47-.01-.69-.1-.23-.25-.44-.43-.63-.17-.18-.48-.47-.78-.69-.31-.23-.66-.43-1.03-.6-.19-.09-.38-.16-.58-.23-.21-.07-.42-.12-.51-.13-.46-.06-1.05.67-.98,1.32.02.33.17.7.41,1.05.27.33.59.72.99.97.73.58,1.67.94,2.68,1.09,1,.16,2.06.19,3.11.07,1.05-.1,2.09-.3,3.08-.57,1.99-.53,3.82-1.27,5.3-2.07,1.48-.75,2.58-1.73,3.44-2.35.43-.31.78-.58,1.01-.83.24-.23.41-.38.47-.44Z"/><path class="cls-2" d="M378.14,495.8c-1.02,1.55-2.39,2.86-3.91,3.85-1.53.99-3.18,1.72-4.86,2.23-3.4,1.04-7.13,1.09-10.55.17-3.43-.89-6.53-2.59-9.31-4.58-2.77-2.02-5.25-4.36-7.54-6.83-4.56-4.97-8.37-10.51-11.83-16.2-3.46-5.7-6.5-11.62-9.34-17.63-5.63-12.03-10.32-24.46-14.39-37.08-4.05-12.62-7.47-25.45-10.08-38.46-.09-.46-1.06-6.1-1.61-11.67-.6-5.57-.64-11.05-.25-11.08.39-.02,1.15,5.35,2.25,10.78,1.05,5.44,2.32,10.94,2.41,11.4,2.58,12.88,5.98,25.62,9.99,38.14,4.04,12.52,8.69,24.85,14.25,36.74,2.8,5.93,5.81,11.77,9.2,17.36,3.39,5.58,7.11,10.98,11.49,15.74,2.19,2.37,4.54,4.58,7.11,6.45,2.57,1.84,5.37,3.37,8.35,4.13,2.97.79,6.08.75,9-.14,2.94-.9,5.63-2.47,7.22-4.92.08-.19.95-1.25,1.53-3.15.63-1.87.86-4.54.61-7.21-.46-5.39-2.61-10.45-2.26-10.6.34-.2,3.21,4.61,4.26,10.33.53,2.83.53,5.87-.08,8.19-.54,2.34-1.57,3.8-1.68,4.02Z"/><path class="cls-2" d="M210.2,108.38c-10.87,4.05-21.45,8.87-31.63,14.42l-7.54,4.34c-2.49,1.48-4.9,3.11-7.35,4.66-2.47,1.52-4.81,3.23-7.18,4.91-2.36,1.68-4.75,3.32-7,5.16-9.25,7-17.83,14.87-25.85,23.24-4.08,4.12-7.8,8.58-11.57,12.99l-5.37,6.84c-.92,1.12-1.74,2.32-2.58,3.5l-2.52,3.55c-.83,1.19-1.7,2.35-2.5,3.56l-2.35,3.66c-1.54,2.46-3.2,4.84-4.59,7.39l-4.33,7.55-3.96,7.74c-5.07,10.43-9.47,21.19-12.97,32.25-3.41,11.09-6.03,22.41-7.87,33.86-1.66,11.48-2.51,23.07-2.62,34.67.11,11.6.96,23.19,2.62,34.67,1.84,11.46,4.46,22.78,7.87,33.86,3.5,11.06,7.9,21.83,12.97,32.25l3.96,7.74,4.33,7.55c1.39,2.55,3.05,4.93,4.59,7.39l2.35,3.66c.8,1.21,1.67,2.37,2.5,3.56l2.52,3.55c.84,1.18,1.66,2.38,2.58,3.5l5.37,6.84c3.77,4.4,7.49,8.86,11.57,12.99,8.02,8.37,16.6,16.24,25.85,23.24,2.24,1.84,4.64,3.48,7,5.16,2.36,1.68,4.7,3.4,7.18,4.91,2.45,1.55,4.86,3.17,7.35,4.66l7.54,4.34c10.19,5.55,20.76,10.37,31.63,14.42.39.14,1.86.64,4.14,1.43,1.14.4,2.48.86,3.98,1.39.75.26,1.55.54,2.38.82.84.25,1.73.51,2.64.78,3.67,1.05,7.84,2.42,12.38,3.42,2.26.54,4.58,1.1,6.94,1.67,2.38.46,4.79.92,7.19,1.38,1.2.23,2.4.46,3.6.69,1.2.17,2.4.34,3.59.52,2.37.34,4.7.67,6.96,1,4.52.52,8.75.85,12.35,1.24,3.62.2,6.63.35,8.74.5,2.11.15,3.31.27,3.31.37,0,.1-1.2.16-3.32.2-2.11.03-5.14.07-8.79.03-3.63-.21-7.9-.38-12.46-.76-2.28-.25-4.64-.52-7.04-.78-1.2-.14-2.41-.28-3.63-.42-1.21-.2-2.43-.4-3.64-.6-2.44-.4-4.88-.81-7.29-1.21-2.39-.52-4.75-1.03-7.05-1.53-4.61-.91-8.85-2.21-12.59-3.2-.93-.26-1.83-.5-2.69-.74-.85-.28-1.66-.54-2.42-.79-1.53-.5-2.9-.95-4.05-1.33-2.32-.77-3.81-1.26-4.21-1.4-11.01-4.1-21.72-8.98-32.03-14.6l-7.64-4.39c-2.52-1.5-4.96-3.15-7.44-4.71-2.5-1.54-4.87-3.27-7.27-4.97-2.39-1.71-4.81-3.37-7.09-5.23-9.37-7.09-18.05-15.06-26.17-23.53-4.13-4.18-7.9-8.69-11.72-13.15l-5.44-6.93c-.93-1.14-1.76-2.35-2.61-3.54l-2.55-3.59c-.84-1.2-1.72-2.38-2.53-3.6l-2.38-3.71c-1.56-2.49-3.24-4.9-4.65-7.48l-4.38-7.64-4.01-7.84c-5.14-10.56-9.59-21.46-13.13-32.66-3.46-11.23-6.11-22.69-7.97-34.29-1.68-11.63-2.55-23.36-2.65-35.1.11-11.75.97-23.48,2.65-35.1,1.86-11.6,4.51-23.06,7.97-34.29,3.54-11.2,7.99-22.1,13.13-32.66l4.01-7.84,4.38-7.64c1.41-2.58,3.09-4.99,4.65-7.48l2.38-3.71c.81-1.22,1.69-2.4,2.53-3.6l2.55-3.59c.85-1.2,1.68-2.41,2.61-3.54l5.44-6.93c3.82-4.46,7.58-8.97,11.72-13.15,8.12-8.48,16.81-16.44,26.17-23.53,2.27-1.86,4.7-3.52,7.09-5.23,2.39-1.7,4.76-3.44,7.27-4.97,2.48-1.57,4.92-3.21,7.44-4.71l7.64-4.39c10.31-5.62,21.02-10.5,32.03-14.6.4-.13,1.89-.63,4.21-1.4,1.16-.38,2.52-.83,4.05-1.33.77-.25,1.58-.51,2.42-.79.86-.24,1.76-.48,2.69-.74,3.74-.99,7.97-2.29,12.59-3.2,2.29-.5,4.65-1.01,7.05-1.53,2.41-.4,4.85-.8,7.29-1.21,1.22-.2,2.43-.4,3.64-.6,1.22-.14,2.43-.28,3.63-.42,2.4-.27,4.76-.53,7.04-.78,4.57-.38,8.83-.54,12.46-.76,3.64-.03,6.67,0,8.79.03,2.11.04,3.32.1,3.32.2,0,.1-1.2.22-3.31.37-2.11.15-5.12.3-8.74.5-3.61.38-7.83.71-12.35,1.24-2.26.32-4.59.66-6.96,1-1.19.17-2.38.34-3.59.52-1.19.23-2.39.46-3.6.69-2.4.46-4.81.92-7.19,1.38-2.36.57-4.68,1.13-6.94,1.67-4.54,1-8.71,2.37-12.38,3.42-.92.27-1.8.53-2.64.78-.83.29-1.63.56-2.38.82-1.51.52-2.84.99-3.98,1.39-2.28.79-3.75,1.3-4.14,1.43Z"/><path class="cls-2" d="M215.94,135.08c-9.52,3.55-18.77,7.77-27.69,12.62-8.91,4.87-17.37,10.54-25.44,16.7-8.1,6.13-15.61,13.02-22.63,20.35-3.57,3.61-6.83,7.51-10.13,11.37l-4.7,5.99c-.8.98-1.53,2.03-2.26,3.06l-2.21,3.1c-.73,1.04-1.49,2.06-2.19,3.11l-2.05,3.21c-1.35,2.15-2.8,4.24-4.02,6.47l-3.79,6.61-3.47,6.78c-4.44,9.13-8.29,18.55-11.35,28.23-2.99,9.71-5.28,19.62-6.89,29.64-1.46,10.05-2.2,20.2-2.29,30.35.09,10.16.84,20.3,2.29,30.35,1.61,10.03,3.9,19.94,6.89,29.64,3.06,9.68,6.91,19.11,11.35,28.23l3.47,6.78,3.79,6.61c1.21,2.23,2.67,4.32,4.02,6.47l2.05,3.21c.7,1.06,1.46,2.07,2.19,3.11l2.21,3.1c.74,1.03,1.46,2.08,2.26,3.06l4.7,5.99c3.3,3.85,6.56,7.76,10.13,11.37,7.02,7.33,14.53,14.22,22.63,20.35,8.07,6.15,16.53,11.82,25.44,16.7,8.92,4.86,18.18,9.07,27.69,12.62.34.12,1.63.56,3.62,1.26.99.35,2.17.76,3.48,1.22.66.23,1.35.47,2.08.72.74.22,1.51.45,2.31.68,3.21.92,6.86,2.13,10.84,3.01,1.98.48,4.01.97,6.07,1.47,2.08.4,4.19.81,6.29,1.22,1.05.2,2.1.41,3.15.61,1.05.15,2.1.31,3.14.46,2.07.3,4.12.6,6.09.89,3.96.47,7.66.77,10.82,1.11,3.17.19,5.81.33,7.65.47,1.85.14,2.9.26,2.9.36,0,.1-1.05.17-2.91.21-1.85.04-4.51.08-7.7.06-3.19-.18-6.92-.31-10.93-.63-2-.22-4.07-.44-6.17-.67-1.05-.12-2.12-.24-3.18-.36-1.06-.17-2.13-.35-3.19-.52-2.14-.35-4.28-.7-6.39-1.05-2.1-.45-4.17-.9-6.18-1.33-4.05-.79-7.76-1.93-11.04-2.79-.82-.22-1.61-.44-2.36-.64-.74-.24-1.45-.47-2.13-.69-1.34-.44-2.54-.83-3.56-1.17-2.03-.67-3.35-1.11-3.69-1.22-9.65-3.6-19.05-7.88-28.09-12.8-9.04-4.95-17.62-10.7-25.81-16.93-8.21-6.22-15.83-13.2-22.95-20.64-3.62-3.66-6.93-7.62-10.28-11.53l-4.77-6.07c-.82-1-1.55-2.06-2.29-3.11l-2.24-3.15c-.74-1.05-1.51-2.09-2.22-3.16l-2.08-3.25c-1.37-2.18-2.84-4.3-4.08-6.56l-3.84-6.7-3.52-6.88c-4.51-9.26-8.41-18.82-11.52-28.64-3.03-9.85-5.36-19.9-6.99-30.07-1.48-10.2-2.23-20.48-2.33-30.78.09-10.3.85-20.59,2.33-30.78,1.63-10.17,3.96-20.22,6.99-30.07,3.11-9.82,7.01-19.38,11.52-28.64l3.52-6.88,3.84-6.7c1.23-2.26,2.71-4.38,4.08-6.56l2.08-3.25c.71-1.07,1.48-2.1,2.22-3.16l2.24-3.15c.75-1.05,1.48-2.11,2.29-3.11l4.77-6.07c3.35-3.91,6.65-7.87,10.28-11.53,7.12-7.43,14.74-14.42,22.95-20.64,8.19-6.24,16.77-11.99,25.81-16.93,9.05-4.93,18.44-9.21,28.09-12.8.35-.11,1.66-.55,3.69-1.22,1.02-.33,2.21-.73,3.56-1.17.67-.22,1.38-.45,2.13-.69.75-.21,1.54-.42,2.36-.64,3.28-.87,6.99-2,11.04-2.79,2.01-.43,4.08-.88,6.18-1.33,2.11-.35,4.26-.7,6.39-1.05,1.07-.17,2.13-.35,3.19-.52,1.07-.12,2.13-.24,3.18-.36,2.1-.23,4.17-.46,6.17-.67,4.01-.32,7.74-.46,10.93-.63,3.19-.02,5.85.02,7.7.06,1.85.05,2.91.12,2.91.21,0,.1-1.05.22-2.9.36-1.84.14-4.48.28-7.65.47-3.16.35-6.86.64-10.82,1.11-1.98.29-4.02.58-6.09.89-1.04.15-2.09.3-3.14.46-1.05.2-2.1.41-3.15.61-2.11.41-4.21.82-6.29,1.22-2.06.5-4.1.99-6.07,1.47-3.98.88-7.62,2.09-10.84,3.01-.8.24-1.57.47-2.31.68-.73.25-1.42.49-2.08.72-1.32.46-2.49.87-3.48,1.22-2,.69-3.28,1.14-3.62,1.26Z"/><path class="cls-2" d="M379.78,105.7c11.01,4.1,21.72,8.98,32.03,14.6l7.64,4.39c2.52,1.5,4.96,3.15,7.44,4.71,2.5,1.54,4.87,3.27,7.27,4.97,2.39,1.71,4.81,3.37,7.09,5.23,9.36,7.09,18.05,15.06,26.17,23.53,4.13,4.18,7.9,8.69,11.72,13.15l5.44,6.93c.93,1.14,1.76,2.35,2.61,3.54l2.55,3.59c.84,1.2,1.72,2.38,2.53,3.6l2.38,3.71c1.56,2.49,3.24,4.9,4.65,7.48l4.38,7.64,4.01,7.84c5.14,10.56,9.59,21.46,13.13,32.66,3.46,11.23,6.11,22.69,7.97,34.29,1.68,11.63,2.55,23.36,2.65,35.1-.11,11.75-.97,23.48-2.65,35.1-1.86,11.6-4.51,23.06-7.97,34.29-3.54,11.2-7.99,22.1-13.13,32.66l-4.01,7.84-4.38,7.64c-1.41,2.58-3.09,4.99-4.65,7.48l-2.38,3.71c-.81,1.22-1.69,2.4-2.53,3.6l-2.55,3.59c-.85,1.2-1.68,2.41-2.61,3.54l-5.44,6.93c-3.82,4.46-7.58,8.97-11.72,13.15-8.12,8.48-16.81,16.44-26.17,23.53-2.27,1.86-4.7,3.52-7.09,5.23-2.39,1.7-4.76,3.44-7.27,4.97-2.48,1.57-4.92,3.21-7.44,4.71l-7.64,4.39c-10.31,5.62-21.02,10.5-32.03,14.6-.4.13-1.89.63-4.21,1.4-1.16.38-2.52.83-4.05,1.33-.77.25-1.58.51-2.42.79-.86.24-1.76.48-2.69.74-3.74.99-7.97,2.29-12.59,3.2-2.29.5-4.65,1.01-7.05,1.53-2.41.4-4.85.8-7.29,1.21-1.22.2-2.43.4-3.64.6-1.22.14-2.43.28-3.63.42-2.4.27-4.76.53-7.04.78-4.57.38-8.83.54-12.46.76-3.64.03-6.67,0-8.79-.03-2.11-.04-3.32-.1-3.32-.2,0-.1,1.2-.22,3.31-.37,2.11-.15,5.12-.3,8.74-.5,3.61-.38,7.83-.71,12.35-1.24,2.26-.32,4.59-.66,6.96-1,1.19-.17,2.38-.34,3.59-.52,1.19-.23,2.39-.46,3.6-.69,2.4-.46,4.81-.92,7.19-1.38,2.36-.57,4.68-1.13,6.94-1.67,4.54-1,8.71-2.37,12.38-3.42.92-.27,1.8-.53,2.64-.78.83-.29,1.63-.56,2.38-.82,1.51-.52,2.84-.99,3.98-1.39,2.28-.79,3.75-1.3,4.14-1.43,10.87-4.05,21.45-8.87,31.63-14.42l7.54-4.34c2.49-1.48,4.9-3.11,7.35-4.66,2.47-1.52,4.81-3.23,7.18-4.91,2.36-1.68,4.75-3.32,7-5.16,9.25-7,17.83-14.87,25.85-23.24,4.08-4.12,7.8-8.58,11.57-12.99l5.37-6.84c.92-1.12,1.74-2.32,2.58-3.5l2.52-3.55c.83-1.19,1.7-2.35,2.5-3.56l2.35-3.66c1.54-2.46,3.2-4.84,4.59-7.39l4.33-7.55,3.96-7.74c5.07-10.43,9.47-21.19,12.97-32.25,3.41-11.09,6.03-22.41,7.87-33.86,1.66-11.48,2.51-23.07,2.62-34.67-.11-11.6-.96-23.19-2.62-34.67-1.84-11.46-4.46-22.78-7.87-33.86-3.5-11.06-7.9-21.83-12.97-32.25l-3.96-7.74-4.33-7.55c-1.39-2.55-3.05-4.93-4.59-7.39l-2.35-3.66c-.8-1.21-1.67-2.37-2.5-3.56l-2.52-3.55c-.84-1.18-1.66-2.38-2.58-3.5l-5.37-6.84c-3.77-4.4-7.49-8.86-11.57-12.99-8.02-8.37-16.6-16.24-25.85-23.24-2.24-1.84-4.64-3.48-7-5.16-2.36-1.68-4.7-3.4-7.18-4.91-2.45-1.55-4.86-3.17-7.35-4.66l-7.54-4.34c-10.19-5.55-20.76-10.37-31.63-14.42-.39-.14-1.86-.64-4.14-1.43-1.14-.4-2.48-.86-3.98-1.39-.75-.26-1.55-.54-2.38-.82-.84-.25-1.73-.51-2.64-.78-3.67-1.05-7.84-2.42-12.38-3.42-2.26-.54-4.58-1.1-6.94-1.67-2.38-.46-4.79-.92-7.19-1.38-1.2-.23-2.4-.46-3.6-.69-1.2-.17-2.4-.35-3.59-.52-2.37-.34-4.7-.67-6.96-1-4.52-.52-8.75-.85-12.35-1.24-3.62-.2-6.63-.35-8.74-.5-2.11-.15-3.31-.27-3.31-.37,0-.1,1.2-.16,3.32-.2,2.11-.03,5.14-.07,8.79-.03,3.63.21,7.9.38,12.46.76,2.28.25,4.64.52,7.04.78,1.2.14,2.41.28,3.63.42,1.21.2,2.43.4,3.64.6,2.44.4,4.88.81,7.29,1.21,2.39.52,4.75,1.03,7.05,1.53,4.61.91,8.85,2.21,12.59,3.2.93.26,1.83.5,2.69.74.85.28,1.66.54,2.42.79,1.53.5,2.9.95,4.05,1.33,2.32.77,3.81,1.26,4.21,1.4Z"/><path class="cls-2" d="M374.04,132.4c9.65,3.6,19.05,7.88,28.09,12.8,9.04,4.95,17.62,10.7,25.81,16.93,8.21,6.22,15.83,13.2,22.95,20.64,3.62,3.66,6.93,7.62,10.28,11.53l4.77,6.07c.82,1,1.55,2.06,2.29,3.11l2.24,3.15c.74,1.05,1.51,2.09,2.22,3.16l2.08,3.25c1.37,2.18,2.84,4.3,4.08,6.56l3.84,6.7,3.52,6.88c4.51,9.26,8.41,18.82,11.52,28.64,3.03,9.85,5.36,19.9,6.99,30.07,1.48,10.2,2.23,20.48,2.33,30.78-.09,10.3-.85,20.59-2.33,30.78-1.63,10.17-3.96,20.22-6.99,30.07-3.11,9.82-7.01,19.38-11.52,28.64l-3.52,6.88-3.84,6.7c-1.23,2.26-2.71,4.38-4.08,6.56l-2.08,3.25c-.71,1.07-1.48,2.1-2.22,3.16l-2.24,3.15c-.75,1.05-1.48,2.11-2.29,3.11l-4.77,6.07c-3.35,3.91-6.65,7.87-10.28,11.53-7.12,7.43-14.74,14.42-22.95,20.64-8.19,6.24-16.77,11.99-25.81,16.93-9.05,4.93-18.44,9.21-28.09,12.8-.35.11-1.66.55-3.69,1.22-1.02.33-2.21.72-3.56,1.17-.67.22-1.38.45-2.13.69-.75.21-1.54.42-2.36.64-3.28.87-6.99,2-11.04,2.79-2.01.43-4.08.88-6.18,1.33-2.11.35-4.26.7-6.39,1.05-1.07.17-2.13.35-3.19.52-1.07.12-2.13.24-3.18.36-2.1.23-4.17.45-6.17.67-4.01.32-7.74.46-10.93.63-3.19.02-5.85-.02-7.7-.06-1.85-.05-2.91-.12-2.91-.21,0-.1,1.05-.22,2.9-.36,1.84-.14,4.48-.28,7.65-.47,3.16-.35,6.86-.64,10.82-1.11,1.98-.29,4.02-.58,6.09-.89,1.04-.15,2.09-.3,3.14-.46,1.05-.2,2.1-.41,3.15-.61,2.11-.41,4.21-.82,6.29-1.22,2.06-.5,4.1-.99,6.07-1.47,3.98-.88,7.62-2.09,10.84-3.01.8-.24,1.57-.47,2.31-.68.73-.25,1.42-.49,2.08-.72,1.32-.46,2.49-.87,3.48-1.22,2-.69,3.28-1.14,3.62-1.26,9.52-3.55,18.77-7.77,27.69-12.62,8.91-4.88,17.37-10.55,25.44-16.7,8.1-6.13,15.61-13.02,22.63-20.35,3.57-3.61,6.83-7.51,10.13-11.37l4.7-5.99c.8-.98,1.53-2.03,2.26-3.06l2.21-3.1c.73-1.04,1.49-2.06,2.19-3.11l2.05-3.21c1.35-2.15,2.8-4.24,4.02-6.47l3.79-6.61,3.47-6.78c4.44-9.13,8.29-18.55,11.35-28.23,2.99-9.71,5.28-19.62,6.89-29.64,1.46-10.05,2.2-20.2,2.29-30.35-.09-10.16-.84-20.3-2.29-30.35-1.61-10.03-3.9-19.94-6.89-29.64-3.06-9.68-6.91-19.11-11.35-28.23l-3.47-6.78-3.79-6.61c-1.21-2.23-2.67-4.32-4.02-6.47l-2.05-3.21c-.7-1.06-1.46-2.07-2.19-3.11l-2.21-3.1c-.74-1.03-1.46-2.08-2.26-3.06l-4.7-5.99c-3.3-3.85-6.56-7.76-10.13-11.37-7.02-7.33-14.53-14.22-22.63-20.35-8.07-6.15-16.53-11.82-25.44-16.7-8.92-4.86-18.18-9.07-27.69-12.62-.34-.12-1.63-.56-3.62-1.26-.99-.35-2.17-.76-3.48-1.22-.66-.23-1.35-.47-2.08-.72-.74-.22-1.51-.45-2.31-.68-3.21-.92-6.86-2.13-10.84-3.01-1.98-.48-4.01-.97-6.07-1.47-2.08-.4-4.19-.81-6.29-1.22-1.05-.2-2.1-.41-3.15-.61-1.05-.15-2.1-.31-3.14-.46-2.07-.3-4.12-.6-6.09-.89-3.96-.47-7.66-.77-10.82-1.11-3.17-.19-5.81-.33-7.65-.47-1.85-.14-2.9-.26-2.9-.36,0-.1,1.05-.17,2.91-.21,1.85-.04,4.51-.08,7.7-.06,3.19.18,6.92.31,10.93.63,2,.22,4.07.44,6.17.67,1.05.12,2.12.24,3.18.36,1.06.17,2.13.35,3.19.52,2.14.35,4.28.7,6.39,1.05,2.1.45,4.17.9,6.18,1.33,4.05.79,7.76,1.93,11.04,2.79.82.22,1.61.44,2.36.64.74.24,1.45.47,2.13.69,1.34.44,2.54.83,3.56,1.17,2.03.67,3.35,1.1,3.69,1.22Z"/></g><rect id="DecorativeElement_1_Shape" class="cls-1" x="86.22" y="114.4" width="416.56" height="416.56" transform="translate(314.5 -113.73) rotate(45.01)"/></g></svg>