<?xml version="1.0" encoding="UTF-8"?><svg id="Line" xmlns="http://www.w3.org/2000/svg" viewBox="0 0 650.32 650.32"><defs><style>.cls-1{fill:none;stroke:#fff;stroke-miterlimit:10;stroke-width:3px;}.cls-2{opacity:.24;}.cls-2,.cls-3{fill:#fff;stroke-width:0px;}</style></defs><g id="DecorativeElement_9"><g id="DecorativeElement_9_Lines"><path class="cls-3" d="M422.05,590.65c13.47-5.02,26.58-10.99,39.2-17.86l9.35-5.37c3.09-1.84,6.07-3.85,9.11-5.77l2.27-1.45,1.13-.73,1.1-.78,4.39-3.12c2.92-2.09,5.89-4.12,8.67-6.4,11.46-8.68,22.09-18.42,32.04-28.79,5.06-5.11,9.67-10.63,14.34-16.09l6.66-8.48c1.14-1.39,2.16-2.87,3.2-4.33l3.12-4.39c1.03-1.47,2.1-2.91,3.1-4.41l2.91-4.54,2.91-4.54c.48-.76.99-1.5,1.44-2.28l1.34-2.34,5.36-9.35,4.91-9.59c6.29-12.92,11.74-26.25,16.08-39.96,4.23-13.74,7.48-27.76,9.76-41.96,2.06-14.23,3.12-28.58,3.25-42.96-.13-14.38-1.19-28.73-3.25-42.96-2.28-14.19-5.53-28.22-9.76-41.96-4.34-13.71-9.79-27.04-16.08-39.96l-4.91-9.59-5.36-9.35-1.34-2.34c-.45-.78-.96-1.52-1.44-2.28l-2.91-4.54-2.91-4.54c-1-1.49-2.07-2.94-3.1-4.41l-3.12-4.39c-1.04-1.46-2.06-2.94-3.2-4.33l-6.66-8.48c-4.68-5.45-9.28-10.98-14.34-16.09-9.94-10.37-20.57-20.12-32.04-28.79-2.78-2.28-5.75-4.31-8.67-6.4l-4.39-3.12-1.1-.78-1.13-.73-2.27-1.45c-3.04-1.92-6.02-3.93-9.11-5.77l-9.35-5.37c-12.62-6.87-25.73-12.84-39.2-17.86-.48-.17-2.31-.79-5.13-1.77-1.41-.49-3.07-1.06-4.94-1.71-.93-.32-1.92-.66-2.95-1.01-1.05-.31-2.14-.63-3.28-.96-4.55-1.29-9.72-2.98-15.35-4.21-2.8-.66-5.68-1.38-8.6-2.05-2.95-.56-5.93-1.12-8.91-1.68-1.49-.28-2.98-.57-4.46-.85-1.49-.21-2.97-.42-4.44-.63-2.94-.41-5.83-.82-8.62-1.21-1.39-.23-2.78-.3-4.13-.44-1.35-.12-2.67-.24-3.95-.36-2.56-.24-4.98-.47-7.23-.67-4.41-.23-8.11-.42-10.82-.56-2.61-.16-4.1-.29-4.1-.39s1.49-.16,4.1-.18c2.62-.02,6.36-.04,10.87.02,2.26.13,4.7.28,7.27.43,1.29.08,2.62.16,3.98.24,1.36.1,2.75.13,4.16.32,2.82.32,5.74.66,8.7.99,1.49.17,2.98.35,4.49.53,1.5.25,3,.5,4.5.75,3.01.51,6.03,1.01,9.01,1.52,2.96.61,5.87,1.29,8.71,1.91,5.7,1.14,10.94,2.75,15.55,3.99,1.15.32,2.26.62,3.32.92,1.05.34,2.05.67,2.99.98,1.89.63,3.58,1.18,5.01,1.66,2.86.95,4.71,1.57,5.2,1.73,13.61,5.07,26.85,11.1,39.6,18.04l9.44,5.43c3.12,1.86,6.13,3.89,9.2,5.83l2.29,1.47,1.15.73,1.11.79,4.44,3.15c2.95,2.11,5.95,4.16,8.76,6.46,11.58,8.76,22.32,18.61,32.36,29.08,5.11,5.16,9.77,10.74,14.49,16.25l6.73,8.56c1.15,1.41,2.18,2.9,3.23,4.38l3.16,4.44c1.04,1.49,2.12,2.94,3.13,4.45l2.94,4.58,2.94,4.58c.48.77,1,1.52,1.45,2.3l1.36,2.36,5.42,9.45,4.96,9.69c6.35,13.05,11.86,26.52,16.24,40.37,4.28,13.88,7.56,28.05,9.86,42.39,2.08,14.37,3.15,28.87,3.28,43.39-.13,14.52-1.2,29.02-3.28,43.39-2.3,14.34-5.58,28.51-9.86,42.39-4.38,13.85-9.89,27.32-16.24,40.37l-4.96,9.69-5.42,9.45-1.36,2.36c-.46.78-.97,1.53-1.45,2.3l-2.94,4.58-2.94,4.58c-1.01,1.51-2.09,2.97-3.13,4.45l-3.16,4.44c-1.05,1.48-2.08,2.97-3.23,4.38l-6.73,8.56c-4.72,5.51-9.38,11.09-14.49,16.25-10.04,10.47-20.78,20.32-32.36,29.08-2.81,2.3-5.81,4.35-8.76,6.46l-4.44,3.15-1.11.79-1.15.73-2.29,1.47c-3.07,1.94-6.08,3.97-9.2,5.83l-9.44,5.43c-12.75,6.94-25.99,12.97-39.6,18.04-.49.16-2.34.78-5.2,1.73-1.43.47-3.11,1.03-5.01,1.66-.95.31-1.95.64-2.99.98-1.06.29-2.17.6-3.32.92-4.61,1.24-9.85,2.85-15.55,3.99-2.84.62-5.75,1.29-8.71,1.91-2.98.5-6,1.01-9.01,1.52-1.5.25-3.01.5-4.5.75-1.5.18-3,.35-4.49.53-2.97.34-5.88.67-8.7.99-1.4.19-2.8.23-4.16.32-1.36.08-2.69.16-3.98.24-2.58.15-5.01.29-7.27.43-4.51.06-8.25.04-10.87.02-2.62-.03-4.1-.09-4.1-.18s1.49-.23,4.1-.39c2.7-.14,6.41-.33,10.82-.56,2.24-.21,4.67-.44,7.23-.67,1.28-.12,2.6-.24,3.95-.36,1.35-.14,2.73-.21,4.13-.44,2.8-.39,5.68-.8,8.62-1.21,1.47-.21,2.95-.42,4.44-.63,1.48-.28,2.97-.56,4.46-.85,2.98-.56,5.96-1.13,8.91-1.68,2.92-.67,5.8-1.39,8.6-2.05,5.63-1.23,10.8-2.91,15.35-4.21,1.14-.33,2.23-.65,3.28-.96,1.03-.35,2.02-.69,2.95-1.01,1.87-.65,3.53-1.22,4.94-1.71,2.82-.97,4.65-1.6,5.13-1.77Z"/><path class="cls-3" d="M227.28,593.33c-13.61-5.07-26.85-11.1-39.6-18.04l-9.44-5.43c-3.12-1.86-6.13-3.89-9.2-5.83l-2.29-1.47-1.15-.73-1.11-.79-4.44-3.15c-2.95-2.11-5.95-4.16-8.76-6.46-11.58-8.76-22.32-18.61-32.36-29.08-5.11-5.16-9.77-10.74-14.49-16.25l-6.73-8.56c-1.15-1.41-2.18-2.9-3.23-4.38l-3.16-4.44c-1.04-1.49-2.12-2.94-3.13-4.45l-2.94-4.58-2.94-4.58c-.48-.77-1-1.52-1.45-2.3l-1.36-2.36-5.42-9.45-4.96-9.69c-6.35-13.05-11.86-26.52-16.24-40.37-4.28-13.88-7.56-28.05-9.86-42.39-2.08-14.37-3.15-28.87-3.28-43.39.13-14.52,1.2-29.02,3.28-43.39,2.3-14.34,5.58-28.51,9.86-42.39,4.38-13.85,9.89-27.32,16.24-40.37l4.96-9.69,5.42-9.45,1.36-2.36c.46-.78.97-1.53,1.45-2.3l2.94-4.58,2.94-4.58c1.01-1.51,2.09-2.97,3.13-4.45l3.16-4.44c1.05-1.48,2.08-2.97,3.23-4.38l6.73-8.56c4.72-5.51,9.38-11.09,14.49-16.25,10.04-10.47,20.78-20.32,32.36-29.08,2.81-2.3,5.81-4.35,8.76-6.46l4.44-3.15,1.11-.79,1.15-.73,2.29-1.47c3.07-1.94,6.08-3.97,9.2-5.83l9.44-5.43c12.75-6.94,25.99-12.97,39.6-18.04.49-.16,2.34-.78,5.2-1.73,1.43-.47,3.11-1.03,5.01-1.66.95-.31,1.95-.64,2.99-.98,1.06-.29,2.17-.6,3.32-.92,4.61-1.24,9.85-2.85,15.55-3.99,2.84-.62,5.75-1.29,8.71-1.91,2.98-.5,6-1.01,9.01-1.52,1.5-.25,3.01-.5,4.5-.75,1.5-.18,3-.35,4.49-.53,2.97-.34,5.88-.67,8.7-.99,1.4-.19,2.8-.23,4.16-.32,1.36-.08,2.69-.16,3.98-.24,2.58-.15,5.01-.29,7.27-.43,4.51-.06,8.25-.04,10.87-.02,2.62.03,4.1.09,4.1.18s-1.49.23-4.1.39c-2.7.14-6.41.33-10.82.56-2.24.21-4.67.44-7.23.67-1.28.12-2.6.24-3.95.36-1.35.14-2.73.21-4.13.44-2.8.39-5.68.8-8.62,1.21-1.47.21-2.95.42-4.44.63-1.48.28-2.97.56-4.46.85-2.98.56-5.96,1.13-8.91,1.68-2.92.67-5.8,1.39-8.6,2.05-5.63,1.23-10.8,2.91-15.35,4.21-1.14.33-2.23.65-3.28.96-1.03.35-2.02.69-2.95,1.01-1.87.65-3.53,1.22-4.94,1.71-2.82.97-4.65,1.6-5.13,1.77-13.47,5.02-26.58,10.99-39.2,17.86l-9.35,5.37c-3.09,1.84-6.07,3.85-9.11,5.77l-2.27,1.45-1.13.73-1.1.78-4.39,3.12c-2.92,2.09-5.89,4.12-8.67,6.4-11.46,8.68-22.09,18.42-32.04,28.79-5.06,5.11-9.67,10.63-14.34,16.09l-6.66,8.48c-1.14,1.39-2.16,2.87-3.2,4.33l-3.12,4.39c-1.03,1.47-2.1,2.91-3.1,4.41l-2.91,4.54-2.91,4.54c-.48.76-.99,1.5-1.44,2.28l-1.34,2.34-5.36,9.35-4.91,9.59c-6.29,12.92-11.74,26.25-16.08,39.96-4.23,13.74-7.48,27.76-9.76,41.96-2.06,14.23-3.12,28.58-3.25,42.96.13,14.38,1.19,28.73,3.25,42.96,2.28,14.19,5.53,28.22,9.76,41.96,4.34,13.71,9.79,27.04,16.08,39.96l4.91,9.59,5.36,9.35,1.34,2.34c.45.78.96,1.52,1.44,2.28l2.91,4.54,2.91,4.54c1,1.49,2.07,2.94,3.1,4.41l3.12,4.39c1.04,1.46,2.06,2.94,3.2,4.33l6.66,8.48c4.68,5.45,9.28,10.98,14.34,16.09,9.94,10.37,20.57,20.12,32.04,28.79,2.78,2.28,5.75,4.31,8.67,6.4l4.39,3.12,1.1.78,1.13.73,2.27,1.45c3.04,1.92,6.02,3.93,9.11,5.77l9.35,5.37c12.62,6.87,25.73,12.84,39.2,17.86.48.17,2.31.79,5.13,1.77,1.41.49,3.07,1.06,4.94,1.71.93.32,1.92.66,2.95,1.01,1.05.31,2.14.63,3.28.96,4.55,1.29,9.72,2.98,15.35,4.21,2.8.66,5.68,1.38,8.6,2.05,2.95.56,5.93,1.12,8.91,1.68,1.49.28,2.98.57,4.46.85,1.49.21,2.97.42,4.44.63,2.94.41,5.83.82,8.62,1.21,1.39.23,2.78.3,4.13.44,1.35.12,2.67.24,3.95.36,2.56.24,4.98.47,7.23.67,4.41.23,8.11.42,10.82.56,2.61.16,4.1.29,4.1.39s-1.49.16-4.1.18c-2.62.02-6.36.04-10.87-.02-2.26-.13-4.7-.28-7.27-.43-1.29-.08-2.62-.16-3.98-.24-1.36-.1-2.75-.13-4.16-.32-2.82-.32-5.74-.66-8.7-.99-1.49-.17-2.98-.35-4.49-.53-1.5-.25-3-.5-4.5-.75-3.01-.51-6.03-1.01-9.01-1.52-2.96-.61-5.87-1.29-8.71-1.91-5.7-1.14-10.94-2.75-15.55-3.99-1.15-.32-2.26-.62-3.32-.92-1.05-.34-2.05-.67-2.99-.98-1.89-.63-3.58-1.18-5.01-1.66-2.86-.95-4.71-1.57-5.2-1.73Z"/><path class="cls-3" d="M377.48,468.51c29.19-10.62,54.88-30.48,72.67-55.92.56-.79,1.14-1.57,1.68-2.38l1.57-2.45c1.03-1.65,2.14-3.24,3.07-4.94l2.9-5.05,2.65-5.18c3.4-6.98,6.34-14.18,8.68-21.58,2.28-7.42,4.04-14.99,5.27-22.66,1.11-7.68,1.68-15.44,1.75-23.2-.07-7.76-.64-15.52-1.75-23.2-1.23-7.66-2.99-15.24-5.27-22.66-2.34-7.4-5.29-14.6-8.68-21.58l-2.65-5.18-2.9-5.05c-.93-1.71-2.04-3.3-3.07-4.94l-1.57-2.45c-.54-.81-1.12-1.59-1.68-2.38-17.79-25.44-43.48-45.3-72.67-55.92-.26-.09-1.24-.43-2.77-.97-.76-.27-1.65-.58-2.66-.94-.5-.18-1.03-.36-1.59-.56-.56-.17-1.15-.34-1.77-.53-2.45-.71-5.24-1.65-8.28-2.33-1.51-.37-3.06-.76-4.64-1.15-1.59-.31-3.2-.63-4.81-.95-.8-.16-1.61-.32-2.41-.48-.8-.12-1.6-.24-2.4-.36-1.58-.24-3.14-.47-4.66-.7-3.03-.38-5.86-.62-8.27-.91-4.85-.31-8.07-.57-8.07-.77,0-.19,3.23-.31,8.13-.34,2.44.12,5.31.2,8.38.43,1.54.16,3.13.32,4.74.49.81.09,1.63.18,2.44.26.82.13,1.63.26,2.45.39,1.64.26,3.29.52,4.91.78,1.61.34,3.2.67,4.75,1,3.11.6,5.96,1.46,8.48,2.11.63.17,1.23.33,1.81.49.57.18,1.12.36,1.63.52,1.03.34,1.95.63,2.73.89,1.56.51,2.57.84,2.84.93,29.75,10.82,55.91,31.05,74.03,56.96.57.81,1.16,1.6,1.71,2.42l1.6,2.5c1.05,1.68,2.18,3.3,3.13,5.03l2.95,5.14,2.7,5.28c3.46,7.11,6.46,14.44,8.84,21.98,2.33,7.56,4.12,15.27,5.37,23.08,1.13,7.83,1.71,15.72,1.79,23.63-.07,7.91-.65,15.8-1.79,23.63-1.25,7.81-3.04,15.52-5.37,23.08-2.39,7.54-5.38,14.88-8.84,21.98l-2.7,5.28-2.95,5.14c-.95,1.74-2.08,3.36-3.13,5.03l-1.6,2.5c-.55.82-1.14,1.62-1.71,2.42-18.12,25.92-44.29,46.14-74.03,56.96-.27.09-1.27.42-2.84.93-.78.25-1.7.55-2.73.89-.52.17-1.06.34-1.63.52-.58.16-1.18.32-1.81.49-2.52.66-5.37,1.52-8.48,2.11-1.54.33-3.13.66-4.75,1-1.62.26-3.27.52-4.91.78-.82.13-1.64.26-2.45.39-.82.09-1.63.18-2.44.26-1.61.17-3.2.33-4.74.49-3.07.23-5.94.31-8.38.43-4.9-.03-8.13-.15-8.13-.34,0-.2,3.23-.46,8.07-.77,2.42-.29,5.25-.53,8.27-.91,1.51-.23,3.07-.46,4.66-.7.8-.12,1.6-.24,2.4-.36.8-.16,1.6-.32,2.41-.48,1.61-.32,3.22-.64,4.81-.95,1.58-.39,3.13-.77,4.64-1.15,3.04-.69,5.82-1.62,8.28-2.33.61-.18,1.2-.36,1.77-.53.56-.2,1.09-.38,1.59-.56,1.01-.35,1.9-.67,2.66-.94,1.53-.53,2.51-.88,2.77-.97Z"/><path class="cls-3" d="M271.86,471.2c-29.75-10.82-55.91-31.05-74.03-56.96-.57-.81-1.16-1.6-1.71-2.42l-1.6-2.5c-1.05-1.68-2.18-3.3-3.13-5.03l-2.95-5.14-2.7-5.28c-3.46-7.11-6.46-14.44-8.84-21.98-2.33-7.56-4.12-15.27-5.37-23.08-1.13-7.83-1.71-15.72-1.79-23.63.07-7.91.65-15.8,1.79-23.63,1.25-7.81,3.04-15.52,5.37-23.08,2.39-7.54,5.38-14.88,8.84-21.98l2.7-5.28,2.95-5.14c.95-1.74,2.08-3.36,3.13-5.03l1.6-2.5c.55-.82,1.14-1.62,1.71-2.42,18.12-25.92,44.29-46.14,74.03-56.96.27-.09,1.27-.42,2.84-.93.78-.25,1.7-.55,2.73-.89.52-.17,1.06-.34,1.63-.52.58-.16,1.18-.32,1.81-.49,2.52-.66,5.37-1.52,8.48-2.11,1.54-.33,3.13-.66,4.75-1,1.62-.26,3.27-.52,4.91-.78.82-.13,1.64-.26,2.45-.39.82-.09,1.63-.18,2.44-.26,1.61-.17,3.2-.33,4.74-.49,3.07-.23,5.94-.31,8.38-.43,4.9.03,8.13.15,8.13.34,0,.2-3.23.46-8.07.77-2.42.29-5.25.53-8.27.91-1.51.23-3.07.46-4.66.7-.8.12-1.6.24-2.4.36-.8.16-1.6.32-2.41.48-1.61.32-3.22.64-4.81.95-1.58.39-3.13.77-4.64,1.15-3.04.69-5.82,1.62-8.28,2.33-.61.18-1.2.36-1.77.53-.56.2-1.09.38-1.59.56-1.01.35-1.9.67-2.66.94-1.53.53-2.51.88-2.77.97-29.19,10.62-54.88,30.48-72.67,55.92-.56.79-1.14,1.57-1.68,2.38l-1.57,2.45c-1.03,1.65-2.14,3.24-3.07,4.94l-2.9,5.05-2.65,5.18c-3.4,6.98-6.34,14.18-8.68,21.58-2.28,7.42-4.04,14.99-5.27,22.66-1.11,7.68-1.68,15.44-1.75,23.2.07,7.76.64,15.52,1.75,23.2,1.23,7.66,2.99,15.24,5.27,22.66,2.34,7.4,5.29,14.6,8.68,21.58l2.65,5.18,2.9,5.05c.93,1.71,2.04,3.3,3.07,4.94l1.57,2.45c.54.81,1.12,1.59,1.68,2.38,17.79,25.44,43.48,45.3,72.67,55.92.26.09,1.24.43,2.77.97.76.27,1.65.58,2.66.94.5.18,1.03.36,1.59.56.56.17,1.15.34,1.77.53,2.45.71,5.24,1.65,8.28,2.33,1.51.37,3.06.76,4.64,1.15,1.59.31,3.2.63,4.81.95.8.16,1.61.32,2.41.48.8.12,1.6.24,2.4.36,1.58.24,3.14.47,4.66.7,3.03.38,5.86.62,8.27.91,4.85.31,8.07.57,8.07.77,0,.19-3.23.31-8.13.34-2.44-.12-5.31-.2-8.38-.43-1.54-.16-3.13-.32-4.74-.49-.81-.09-1.63-.18-2.44-.26-.82-.13-1.63-.26-2.45-.39-1.64-.26-3.29-.52-4.91-.78-1.61-.34-3.2-.67-4.75-1-3.11-.6-5.96-1.46-8.48-2.11-.63-.17-1.23-.33-1.81-.49-.57-.18-1.12-.36-1.63-.52-1.03-.34-1.95-.63-2.73-.89-1.56-.51-2.57-.84-2.84-.93Z"/><path class="cls-1" d="M457.91,552.97H192.4c0-52.5-42.56-95.05-95.05-95.05V192.41c52.5,0,95.05-42.56,95.05-95.05h265.51c0,52.5,42.56,95.05,95.05,95.05v265.51c-52.5,0-95.05,42.56-95.05,95.05Z"/><path class="cls-3" d="M272.8,113.29c-7.15.93-14.11,3.15-20.69,6.15l-2.46,1.16c-.82.39-1.65.74-2.43,1.23l-4.72,2.72-1.18.68c-.39.23-.75.51-1.13.76l-2.24,1.55c-1.48,1.05-3.03,2.02-4.46,3.14l-4.24,3.44c-1.41,1.14-2.83,2.28-4.24,3.51l-2.12,1.81-2.17,1.75c-1.43,1.18-2.92,2.29-4.4,3.42-5.94,4.47-12.24,8.5-18.92,11.87-6.69,3.32-13.8,5.96-21.27,7.18-3.73.59-7.54.83-11.34.56-3.8-.27-7.57-1.05-11.17-2.37-7.23-2.59-13.47-7.55-18.01-13.67-2.23-3.11-4.08-6.56-5.1-10.3-.55-1.85-.88-3.77-1.04-5.7-.17-1.93-.13-3.88.12-5.8.03-.27.27-2.08,1.04-4.5.37-1.22.95-2.56,1.63-3.95.72-1.37,1.6-2.75,2.63-4.02,2.02-2.55,4.78-4.49,7.14-5.12,1.17-.36,2.21-.32,2.89-.26.69.13,1.06.27,1.04.36-.02.1-.41.15-1.04.21-.64.13-1.54.26-2.52.73-1.99.87-4.27,2.82-5.9,5.29-.83,1.22-1.53,2.54-2.1,3.82-.53,1.3-.98,2.55-1.25,3.67-.57,2.24-.71,3.86-.73,4.11-.22,1.73-.26,3.49-.1,5.23.14,1.74.44,3.47.94,5.15.92,3.38,2.61,6.53,4.66,9.4,4.22,5.69,10.01,10.29,16.69,12.67,3.32,1.22,6.83,1.94,10.38,2.2,3.55.25,7.15.03,10.69-.53,7.1-1.15,13.96-3.69,20.45-6.91,6.48-3.27,12.65-7.2,18.48-11.6,1.45-1.11,2.92-2.2,4.32-3.36l2.13-1.72,2.09-1.78c1.37-1.19,2.82-2.36,4.27-3.54l4.34-3.52c1.46-1.15,3.05-2.15,4.57-3.23l2.3-1.59c.39-.26.76-.54,1.16-.78l1.21-.7,4.86-2.8c.79-.5,1.66-.86,2.5-1.27l2.54-1.2c6.8-3.11,14.03-5.42,21.51-6.39.27-.02,2.02-.19,4.49-.34,1.23,0,2.64.02,4.16.02,1.5.08,3.09.23,4.66.39,3.13.46,6.19,1.11,8.38,1.92,2.2.77,3.56,1.55,3.47,1.73-.08.17-1.53-.24-3.76-.66-2.22-.46-5.24-.79-8.27-.98-1.53-.02-3.06-.05-4.5-.03-1.46.09-2.81.17-3.99.24-2.39.3-4.03.52-4.28.55Z"/><path class="cls-3" d="M377.89,110.45c7.48.97,14.71,3.28,21.51,6.39l2.54,1.2c.84.41,1.71.77,2.5,1.27l4.86,2.8,1.21.7c.4.24.77.52,1.16.78l2.3,1.59c1.52,1.08,3.11,2.08,4.57,3.23l4.34,3.52c1.45,1.17,2.9,2.35,4.27,3.54l2.09,1.78,2.13,1.72c1.41,1.17,2.87,2.25,4.32,3.36,5.83,4.39,12,8.33,18.48,11.6,6.49,3.22,13.35,5.76,20.45,6.91,3.54.56,7.14.78,10.69.53,3.55-.25,7.06-.98,10.38-2.2,6.68-2.39,12.47-6.99,16.69-12.67,2.05-2.87,3.74-6.02,4.66-9.4.5-1.68.8-3.41.94-5.15.15-1.74.12-3.5-.1-5.23-.02-.25-.16-1.87-.73-4.11-.27-1.12-.72-2.37-1.25-3.67-.57-1.28-1.27-2.6-2.1-3.82-1.64-2.47-3.92-4.42-5.9-5.29-.99-.48-1.89-.6-2.52-.73-.64-.06-1.03-.11-1.04-.21-.02-.09.35-.23,1.04-.36.68-.06,1.73-.1,2.89.26,2.36.63,5.13,2.57,7.14,5.12,1.02,1.26,1.9,2.65,2.63,4.02.68,1.38,1.26,2.73,1.63,3.95.77,2.43,1.02,4.23,1.04,4.5.25,1.92.28,3.87.12,5.8-.16,1.93-.49,3.85-1.04,5.7-1.02,3.74-2.87,7.19-5.1,10.3-4.54,6.12-10.78,11.08-18.01,13.67-3.59,1.32-7.37,2.1-11.17,2.37-3.8.27-7.61.03-11.34-.56-7.47-1.21-14.59-3.86-21.27-7.18-6.68-3.36-12.98-7.39-18.92-11.87-1.48-1.13-2.97-2.24-4.4-3.42l-2.17-1.75-2.12-1.81c-1.41-1.23-2.83-2.37-4.24-3.51l-4.24-3.44c-1.43-1.13-2.97-2.09-4.46-3.14l-2.24-1.55c-.38-.25-.74-.53-1.13-.76l-1.18-.68-4.72-2.72c-.77-.48-1.61-.83-2.43-1.23l-2.46-1.16c-6.58-3-13.54-5.23-20.69-6.15-.25-.03-1.89-.24-4.28-.55-1.18-.07-2.53-.15-3.99-.24-1.44-.02-2.97.01-4.5.03-3.04.19-6.05.52-8.27.98-2.23.43-3.68.83-3.76.66-.09-.19,1.27-.96,3.47-1.73,2.19-.81,5.25-1.46,8.38-1.92,1.57-.15,3.16-.31,4.66-.39,1.52,0,2.94-.02,4.16-.02,2.47.15,4.22.32,4.49.34Z"/><path class="cls-3" d="M280.66,137.81c-.79,1.95-1.25,4.02-1.75,6.06l-.49,3.12c-.04.26-.09.52-.12.78l-.04.79-.08,1.58c-.21,2.1.03,4.22.09,6.34.11,1.05.27,2.1.4,3.15l.21,1.58.34,1.55c.77,4.18,2.28,8.19,3.91,12.11.95,1.91,1.77,3.88,2.89,5.71l1.58,2.79,1.76,2.69c4.72,7.16,10.47,13.64,16.71,19.59,1.59,1.46,3.14,2.97,4.77,4.38,1.64,1.4,3.25,2.85,4.92,4.22,1.69,1.35,3.35,2.73,5.06,4.06l4.33,3.28,4.33-3.28c1.7-1.33,3.37-2.71,5.06-4.06,1.67-1.37,3.28-2.81,4.92-4.22,1.63-1.42,3.17-2.93,4.77-4.38,6.24-5.95,11.99-12.44,16.71-19.59l1.76-2.69,1.58-2.79c1.12-1.83,1.93-3.8,2.89-5.71,1.63-3.93,3.15-7.93,3.91-12.11l.34-1.55.21-1.58c.13-1.05.29-2.1.4-3.15.05-2.11.29-4.24.09-6.34l-.08-1.58-.04-.79c-.03-.26-.08-.52-.12-.78l-.49-3.12c-.5-2.04-.96-4.1-1.75-6.06-.05-.14-.23-.67-.52-1.51-.35-.8-.82-1.89-1.37-3.17-1.24-2.49-3-5.66-5.2-8.51-2.17-2.87-4.64-5.47-6.59-7.32-1.95-1.85-3.35-2.96-3.25-3.13.1-.17,1.74.64,3.96,2.27,2.22,1.62,4.98,4.08,7.45,6.9,2.5,2.8,4.54,6.02,5.98,8.59.65,1.32,1.23,2.45,1.62,3.3.34.88.55,1.44.61,1.58.84,2.09,1.34,4.29,1.87,6.48l.52,3.34c.04.28.09.56.12.83l.04.84.09,1.68c.21,2.25-.03,4.48-.1,6.71-.12,1.11-.28,2.22-.42,3.32l-.23,1.66-.36,1.64c-.81,4.4-2.39,8.6-4.1,12.69-.99,1.99-1.85,4.05-3,5.94l-1.64,2.89-1.81,2.78c-4.88,7.39-10.76,14.02-17.12,20.08-1.62,1.48-3.19,3.02-4.85,4.46-1.67,1.42-3.3,2.89-5,4.28-1.71,1.37-3.4,2.77-5.13,4.11l-6.08,4.61-6.08-4.61c-1.73-1.35-3.42-2.74-5.13-4.11-1.7-1.39-3.33-2.85-5-4.28-1.65-1.44-3.23-2.98-4.85-4.46-6.35-6.06-12.24-12.69-17.12-20.08l-1.81-2.78-1.64-2.89c-1.15-1.89-2.01-3.95-3-5.94-1.71-4.1-3.29-8.29-4.1-12.69l-.36-1.64-.23-1.66c-.14-1.11-.3-2.21-.42-3.32-.06-2.24-.31-4.46-.1-6.71l.09-1.68.04-.84c.03-.28.08-.56.12-.83l.52-3.34c.53-2.18,1.03-4.39,1.87-6.48.06-.15.27-.71.61-1.58.39-.85.96-1.97,1.62-3.3,1.44-2.57,3.49-5.8,5.98-8.59,2.46-2.82,5.23-5.28,7.45-6.9,2.21-1.63,3.85-2.44,3.96-2.27.1.16-1.3,1.27-3.25,3.13-1.95,1.84-4.42,4.45-6.59,7.32-2.21,2.85-3.96,6.03-5.2,8.51-.56,1.28-1.03,2.37-1.37,3.17-.29.83-.47,1.37-.52,1.51Z"/><path class="cls-3" d="M272.43,539.87c-7.48-.97-14.71-3.28-21.51-6.39l-2.54-1.2c-.84-.41-1.71-.77-2.5-1.27l-4.86-2.8-1.21-.7c-.4-.24-.77-.52-1.16-.78l-2.3-1.59c-1.52-1.08-3.11-2.08-4.57-3.23l-4.34-3.52c-1.45-1.17-2.9-2.35-4.27-3.54l-2.09-1.78-2.13-1.72c-1.41-1.17-2.87-2.25-4.32-3.36-5.83-4.39-12-8.33-18.48-11.6-6.49-3.22-13.35-5.76-20.45-6.91-3.54-.56-7.14-.78-10.69-.53-3.55.25-7.06.98-10.38,2.2-6.68,2.39-12.47,6.99-16.69,12.67-2.05,2.87-3.74,6.02-4.66,9.4-.5,1.68-.8,3.41-.94,5.15-.15,1.74-.12,3.5.1,5.23.02.25.16,1.87.73,4.11.27,1.12.72,2.37,1.25,3.67.57,1.28,1.27,2.6,2.1,3.82,1.64,2.47,3.92,4.42,5.9,5.29.99.48,1.89.6,2.52.73.64.06,1.03.11,1.04.21.02.09-.35.23-1.04.36-.68.06-1.73.1-2.89-.26-2.36-.63-5.13-2.57-7.14-5.12-1.02-1.26-1.9-2.65-2.63-4.02-.68-1.38-1.26-2.73-1.63-3.95-.77-2.43-1.02-4.23-1.04-4.5-.25-1.92-.28-3.87-.12-5.8.16-1.93.49-3.85,1.04-5.7,1.02-3.74,2.87-7.19,5.1-10.3,4.54-6.12,10.78-11.08,18.01-13.67,3.59-1.32,7.37-2.1,11.17-2.37,3.8-.27,7.61-.03,11.34.56,7.47,1.21,14.59,3.86,21.27,7.18,6.68,3.36,12.98,7.39,18.92,11.87,1.48,1.13,2.97,2.24,4.4,3.42l2.17,1.75,2.12,1.81c1.41,1.23,2.83,2.37,4.24,3.51l4.24,3.44c1.43,1.13,2.97,2.09,4.46,3.14l2.24,1.55c.38.25.74.53,1.13.76l1.18.68,4.72,2.72c.77.48,1.61.83,2.43,1.23l2.46,1.16c6.58,3,13.54,5.23,20.69,6.15.25.03,1.89.24,4.28.55,1.18.07,2.53.15,3.99.24,1.44.02,2.97-.01,4.5-.03,3.04-.19,6.05-.52,8.27-.98,2.23-.43,3.68-.83,3.76-.66.09.18-1.27.96-3.47,1.73-2.19.81-5.25,1.46-8.38,1.92-1.57.15-3.16.31-4.66.39-1.52,0-2.94.02-4.16.02-2.47-.15-4.22-.32-4.49-.34Z"/><path class="cls-3" d="M377.52,537.04c7.15-.93,14.11-3.15,20.69-6.15l2.46-1.16c.82-.39,1.65-.74,2.43-1.23l4.72-2.72,1.18-.68c.39-.23.75-.51,1.13-.76l2.24-1.55c1.48-1.05,3.03-2.02,4.46-3.14l4.24-3.44c1.41-1.14,2.83-2.28,4.24-3.51l2.12-1.81,2.17-1.75c1.43-1.18,2.92-2.29,4.4-3.42,5.94-4.47,12.24-8.5,18.92-11.87,6.69-3.32,13.8-5.96,21.27-7.18,3.73-.59,7.54-.83,11.34-.56,3.8.27,7.57,1.05,11.17,2.37,7.23,2.59,13.47,7.55,18.01,13.67,2.23,3.11,4.08,6.56,5.1,10.3.55,1.85.88,3.77,1.04,5.7.17,1.93.13,3.88-.12,5.8-.03.27-.27,2.08-1.04,4.5-.37,1.22-.95,2.56-1.63,3.95-.72,1.37-1.6,2.75-2.63,4.02-2.02,2.55-4.78,4.49-7.14,5.12-1.17.36-2.21.32-2.89.26-.69-.13-1.06-.27-1.04-.36.02-.1.41-.15,1.04-.21.64-.13,1.54-.26,2.52-.73,1.99-.87,4.27-2.82,5.9-5.29.83-1.22,1.53-2.54,2.1-3.82.53-1.3.98-2.55,1.25-3.67.57-2.24.71-3.86.73-4.11.22-1.73.26-3.49.1-5.23-.14-1.74-.44-3.47-.94-5.15-.92-3.38-2.61-6.53-4.66-9.4-4.22-5.69-10.01-10.29-16.69-12.67-3.32-1.22-6.83-1.94-10.38-2.2-3.55-.25-7.15-.03-10.69.53-7.1,1.15-13.96,3.69-20.45,6.91-6.48,3.27-12.65,7.2-18.48,11.6-1.45,1.11-2.92,2.2-4.32,3.36l-2.13,1.72-2.09,1.78c-1.37,1.19-2.82,2.36-4.27,3.54l-4.34,3.52c-1.46,1.15-3.05,2.15-4.57,3.23l-2.3,1.59c-.39.26-.76.54-1.16.78l-1.21.7-4.86,2.8c-.79.5-1.66.86-2.5,1.27l-2.54,1.2c-6.8,3.11-14.03,5.42-21.51,6.39-.27.02-2.02.19-4.49.34-1.23,0-2.64-.02-4.16-.02-1.5-.08-3.09-.24-4.66-.39-3.13-.46-6.19-1.11-8.38-1.92-2.2-.77-3.56-1.55-3.47-1.73.08-.17,1.53.24,3.76.66,2.22.46,5.24.79,8.27.98,1.53.02,3.06.05,4.5.03,1.46-.09,2.81-.17,3.99-.24,2.39-.3,4.03-.52,4.28-.55Z"/><path class="cls-3" d="M277.98,513.5c-.84-2.09-1.34-4.29-1.87-6.48l-.52-3.34c-.04-.28-.09-.56-.12-.83l-.04-.84-.09-1.68c-.21-2.25.03-4.48.1-6.71.12-1.11.28-2.22.42-3.32l.23-1.66.36-1.64c.81-4.4,2.39-8.6,4.1-12.69.99-1.99,1.85-4.05,3-5.94l1.64-2.89,1.81-2.78c4.88-7.39,10.76-14.02,17.12-20.08,1.62-1.48,3.19-3.02,4.85-4.46,1.67-1.42,3.3-2.89,5-4.28,1.71-1.37,3.4-2.77,5.13-4.11l6.08-4.61,6.08,4.61c1.73,1.35,3.42,2.74,5.13,4.11,1.7,1.39,3.33,2.85,5,4.28,1.65,1.44,3.23,2.98,4.85,4.46,6.35,6.06,12.24,12.69,17.12,20.08l1.81,2.78,1.64,2.89c1.15,1.89,2.01,3.95,3,5.94,1.71,4.1,3.29,8.29,4.1,12.69l.36,1.64.23,1.66c.14,1.11.3,2.21.42,3.32.06,2.24.31,4.46.1,6.71l-.09,1.68-.04.84c-.03.28-.08.56-.12.83l-.52,3.34c-.53,2.18-1.03,4.39-1.87,6.48-.06.15-.27.71-.61,1.58-.39.85-.96,1.97-1.62,3.3-1.44,2.57-3.49,5.8-5.98,8.59-2.46,2.82-5.23,5.28-7.45,6.9-2.21,1.63-3.85,2.44-3.96,2.28-.1-.16,1.3-1.27,3.25-3.13,1.95-1.84,4.42-4.45,6.59-7.32,2.21-2.85,3.96-6.03,5.2-8.51.56-1.28,1.03-2.37,1.37-3.17.29-.83.47-1.37.52-1.51.79-1.95,1.25-4.02,1.75-6.06l.49-3.12c.04-.26.09-.52.12-.78l.04-.79.08-1.58c.21-2.1-.03-4.22-.09-6.34-.11-1.05-.27-2.1-.4-3.15l-.21-1.58-.34-1.55c-.77-4.18-2.28-8.19-3.91-12.11-.95-1.91-1.77-3.88-2.89-5.71l-1.58-2.79-1.76-2.69c-4.72-7.16-10.47-13.64-16.71-19.59-1.59-1.46-3.14-2.97-4.77-4.38-1.64-1.4-3.25-2.85-4.92-4.22-1.69-1.35-3.35-2.73-5.06-4.06l-4.33-3.28-4.33,3.28c-1.7,1.33-3.37,2.71-5.06,4.06-1.67,1.37-3.28,2.81-4.92,4.22-1.63,1.42-3.17,2.93-4.77,4.38-6.24,5.95-11.99,12.44-16.71,19.59l-1.76,2.69-1.58,2.79c-1.12,1.83-1.93,3.8-2.89,5.71-1.63,3.93-3.15,7.93-3.91,12.11l-.34,1.55-.21,1.58c-.13,1.05-.29,2.1-.4,3.15-.05,2.11-.29,4.24-.09,6.34l.08,1.58.04.79c.03.26.08.52.12.78l.49,3.12c.5,2.04.96,4.1,1.75,6.06.05.14.23.67.52,1.51.35.8.82,1.89,1.37,3.17,1.24,2.49,3,5.66,5.2,8.51,2.17,2.87,4.64,5.47,6.59,7.32,1.95,1.85,3.35,2.96,3.25,3.13-.1.17-1.74-.64-3.96-2.28-2.22-1.62-4.98-4.08-7.45-6.9-2.5-2.8-4.54-6.02-5.98-8.59-.65-1.32-1.23-2.45-1.62-3.3-.34-.88-.55-1.44-.61-1.58Z"/><path class="cls-3" d="M537.03,272.8c-.93-7.15-3.15-14.11-6.15-20.69l-1.16-2.46c-.39-.82-.74-1.65-1.23-2.43l-2.72-4.72-.68-1.18c-.23-.39-.51-.75-.76-1.13l-1.55-2.24c-1.05-1.48-2.02-3.03-3.14-4.46l-3.44-4.24c-1.14-1.41-2.28-2.83-3.51-4.24l-1.81-2.12-1.75-2.17c-1.18-1.43-2.29-2.92-3.42-4.4-4.47-5.94-8.5-12.24-11.87-18.92-3.32-6.69-5.96-13.8-7.18-21.27-.59-3.73-.83-7.54-.56-11.34.27-3.8,1.05-7.57,2.37-11.17,2.59-7.23,7.55-13.47,13.67-18.01,3.11-2.23,6.56-4.08,10.3-5.1,1.85-.55,3.77-.88,5.7-1.04,1.93-.17,3.88-.13,5.8.12.27.03,2.08.27,4.5,1.04,1.22.37,2.56.95,3.95,1.63,1.37.72,2.75,1.6,4.02,2.63,2.55,2.02,4.49,4.78,5.12,7.15.36,1.17.32,2.21.26,2.89-.13.69-.27,1.06-.36,1.04-.1-.02-.15-.41-.21-1.04-.13-.64-.26-1.54-.73-2.52-.87-1.99-2.82-4.26-5.29-5.9-1.22-.83-2.54-1.53-3.82-2.1-1.3-.53-2.55-.98-3.67-1.25-2.24-.57-3.86-.71-4.11-.73-1.73-.22-3.49-.26-5.23-.1-1.74.14-3.47.44-5.15.94-3.38.92-6.53,2.61-9.4,4.66-5.69,4.22-10.29,10.01-12.67,16.69-1.22,3.32-1.94,6.83-2.2,10.38-.25,3.55-.03,7.15.53,10.69,1.15,7.1,3.69,13.96,6.91,20.45,3.27,6.48,7.2,12.65,11.6,18.48,1.11,1.45,2.2,2.92,3.36,4.32l1.72,2.13,1.78,2.09c1.19,1.37,2.36,2.82,3.54,4.27l3.52,4.34c1.15,1.46,2.15,3.05,3.23,4.57l1.59,2.3c.26.39.54.76.78,1.16l.7,1.21,2.8,4.86c.5.79.86,1.66,1.27,2.5l1.2,2.54c3.11,6.8,5.42,14.03,6.39,21.51.02.27.19,2.02.34,4.49,0,1.23-.02,2.64-.02,4.16-.08,1.5-.24,3.09-.39,4.66-.46,3.13-1.11,6.19-1.92,8.38-.77,2.2-1.55,3.56-1.73,3.47h0c-.17-.08.24-1.53.66-3.76.46-2.22.79-5.24.98-8.27.02-1.53.05-3.06.03-4.5-.09-1.46-.17-2.81-.24-3.99-.3-2.39-.52-4.03-.55-4.28Z"/><path class="cls-3" d="M539.87,377.89c-.97,7.48-3.28,14.71-6.39,21.51l-1.2,2.54c-.41.84-.77,1.71-1.27,2.5l-2.8,4.86-.7,1.21c-.24.4-.52.77-.78,1.16l-1.59,2.3c-1.08,1.52-2.08,3.11-3.23,4.57l-3.52,4.34c-1.17,1.45-2.35,2.9-3.54,4.27l-1.78,2.09-1.72,2.13c-1.17,1.41-2.25,2.87-3.36,4.32-4.39,5.83-8.33,12-11.6,18.48-3.22,6.49-5.76,13.35-6.91,20.45-.56,3.54-.78,7.14-.53,10.69.25,3.55.98,7.06,2.2,10.38,2.39,6.68,6.99,12.47,12.67,16.69,2.87,2.05,6.02,3.74,9.4,4.66,1.68.5,3.41.8,5.15.94,1.74.15,3.5.12,5.23-.1.25-.02,1.87-.16,4.11-.73,1.12-.27,2.37-.72,3.67-1.25,1.28-.57,2.6-1.27,3.82-2.1,2.47-1.64,4.42-3.92,5.29-5.9.48-.99.6-1.89.73-2.52.06-.64.11-1.03.21-1.04.09-.02.23.35.36,1.04.06.68.1,1.73-.26,2.89-.63,2.36-2.57,5.13-5.12,7.15-1.26,1.02-2.65,1.9-4.02,2.63-1.38.68-2.73,1.26-3.95,1.63-2.43.77-4.23,1.02-4.5,1.04-1.92.25-3.87.28-5.8.12-1.93-.16-3.85-.49-5.7-1.04-3.74-1.02-7.19-2.87-10.3-5.1-6.12-4.54-11.08-10.78-13.67-18.01-1.32-3.59-2.1-7.37-2.37-11.17-.27-3.8-.03-7.61.56-11.34,1.21-7.47,3.86-14.59,7.18-21.27,3.36-6.68,7.39-12.98,11.87-18.92,1.13-1.48,2.24-2.97,3.42-4.4l1.75-2.17,1.81-2.12c1.23-1.41,2.37-2.83,3.51-4.24l3.44-4.24c1.13-1.43,2.09-2.97,3.14-4.46l1.55-2.24c.25-.38.53-.74.76-1.13l.68-1.18,2.72-4.72c.48-.77.83-1.61,1.23-2.43l1.16-2.46c3-6.58,5.23-13.54,6.15-20.69.03-.25.24-1.89.55-4.28.07-1.18.15-2.53.24-3.99.02-1.44-.01-2.97-.03-4.5-.19-3.04-.52-6.05-.98-8.27-.43-2.23-.83-3.68-.66-3.76.19-.09.96,1.27,1.73,3.47.81,2.19,1.46,5.25,1.92,8.39.15,1.57.31,3.16.39,4.66,0,1.52.02,2.94.02,4.16-.15,2.47-.32,4.22-.34,4.49Z"/><path class="cls-3" d="M512.51,280.66c-1.95-.79-4.02-1.25-6.06-1.75l-3.12-.49c-.26-.04-.52-.09-.78-.12l-.79-.04-1.58-.08c-2.1-.21-4.22.03-6.34.09-1.05.11-2.1.27-3.15.4l-1.58.21-1.55.34c-4.18.77-8.19,2.28-12.11,3.91-1.91.95-3.88,1.77-5.71,2.89l-2.79,1.58-2.69,1.76c-7.16,4.72-13.64,10.47-19.59,16.71-1.46,1.59-2.97,3.14-4.38,4.77-1.4,1.64-2.85,3.25-4.22,4.92-1.35,1.69-2.73,3.35-4.06,5.06l-3.28,4.33,3.28,4.33c1.33,1.7,2.71,3.37,4.06,5.06,1.37,1.67,2.81,3.28,4.22,4.92,1.42,1.63,2.93,3.17,4.38,4.76,5.95,6.24,12.44,11.99,19.59,16.71l2.69,1.76,2.79,1.58c1.83,1.12,3.8,1.93,5.71,2.89,3.93,1.63,7.93,3.15,12.11,3.91l1.55.34,1.58.21c1.05.13,2.1.29,3.15.4,2.11.05,4.24.29,6.34.09l1.58-.08.79-.04c.26-.03.52-.08.78-.12l3.12-.49c2.04-.5,4.1-.96,6.06-1.75.14-.05.67-.23,1.51-.52.8-.35,1.89-.82,3.17-1.37,2.49-1.24,5.66-3,8.51-5.2,2.87-2.17,5.47-4.64,7.32-6.59,1.85-1.95,2.96-3.35,3.13-3.25.17.1-.64,1.74-2.27,3.96-1.62,2.22-4.08,4.98-6.9,7.45-2.8,2.5-6.02,4.54-8.59,5.98-1.32.65-2.45,1.23-3.3,1.62-.88.34-1.44.55-1.58.61-2.09.84-4.29,1.34-6.48,1.87l-3.34.52c-.28.04-.56.09-.83.12l-.84.04-1.68.09c-2.25.21-4.48-.03-6.71-.1-1.11-.12-2.22-.28-3.32-.42l-1.66-.23-1.64-.36c-4.4-.81-8.6-2.39-12.69-4.1-1.99-.99-4.05-1.85-5.94-3l-2.89-1.64-2.78-1.81c-7.39-4.88-14.02-10.76-20.08-17.12-1.48-1.62-3.02-3.19-4.46-4.85-1.42-1.67-2.89-3.3-4.28-5-1.37-1.71-2.77-3.4-4.11-5.13l-4.61-6.08,4.61-6.08c1.35-1.73,2.74-3.42,4.11-5.13,1.39-1.7,2.85-3.33,4.28-5,1.44-1.65,2.98-3.23,4.46-4.85,6.06-6.35,12.69-12.24,20.08-17.12l2.78-1.81,2.89-1.64c1.89-1.15,3.95-2.01,5.94-3,4.1-1.71,8.29-3.29,12.69-4.1l1.64-.36,1.66-.23c1.11-.14,2.21-.3,3.32-.42,2.24-.06,4.46-.31,6.71-.1l1.68.09.84.04c.28.03.56.08.83.12l3.34.52c2.18.53,4.39,1.03,6.48,1.87.15.06.71.27,1.58.61.85.39,1.97.96,3.3,1.62,2.57,1.44,5.8,3.49,8.59,5.98,2.82,2.46,5.28,5.23,6.9,7.45,1.63,2.21,2.44,3.85,2.27,3.96h0c-.16.1-1.27-1.3-3.13-3.25-1.84-1.95-4.45-4.42-7.32-6.59-2.85-2.21-6.03-3.96-8.51-5.2-1.28-.56-2.37-1.03-3.17-1.37-.83-.29-1.37-.47-1.51-.52Z"/><path class="cls-3" d="M110.45,272.43c.97-7.48,3.28-14.71,6.39-21.51l1.2-2.54c.41-.84.77-1.71,1.27-2.5l2.8-4.86.7-1.21c.24-.4.52-.77.78-1.16l1.59-2.3c1.08-1.52,2.08-3.11,3.23-4.57l3.52-4.34c1.17-1.45,2.35-2.9,3.54-4.27l1.78-2.09,1.72-2.13c1.17-1.41,2.25-2.87,3.36-4.32,4.39-5.83,8.33-12,11.6-18.48,3.22-6.49,5.76-13.35,6.91-20.45.56-3.54.78-7.14.53-10.69-.25-3.55-.98-7.06-2.2-10.38-2.39-6.68-6.99-12.47-12.67-16.69-2.87-2.05-6.02-3.74-9.4-4.66-1.68-.5-3.41-.8-5.15-.94-1.74-.15-3.5-.12-5.23.1-.25.02-1.87.16-4.11.73-1.12.27-2.37.72-3.67,1.25-1.28.57-2.6,1.27-3.82,2.1-2.47,1.64-4.42,3.92-5.29,5.9-.48.99-.6,1.89-.73,2.52-.06.64-.11,1.03-.21,1.04-.09.02-.23-.35-.36-1.04-.06-.68-.1-1.73.26-2.89.63-2.36,2.57-5.13,5.12-7.15,1.26-1.02,2.65-1.9,4.02-2.63,1.38-.68,2.73-1.26,3.95-1.63,2.43-.77,4.23-1.02,4.5-1.04,1.92-.25,3.87-.28,5.8-.12,1.93.16,3.85.49,5.7,1.04,3.74,1.02,7.19,2.87,10.3,5.1,6.12,4.54,11.08,10.78,13.67,18.01,1.32,3.59,2.1,7.37,2.37,11.17.27,3.8.03,7.61-.56,11.34-1.21,7.47-3.86,14.59-7.18,21.27-3.36,6.68-7.39,12.98-11.87,18.92-1.13,1.48-2.24,2.97-3.42,4.4l-1.75,2.17-1.81,2.12c-1.23,1.41-2.37,2.83-3.51,4.24l-3.44,4.24c-1.13,1.43-2.09,2.97-3.14,4.46l-1.55,2.24c-.25.38-.53.74-.76,1.13l-.68,1.18-2.72,4.72c-.48.77-.83,1.61-1.23,2.43l-1.16,2.46c-3,6.58-5.23,13.54-6.15,20.69-.03.24-.24,1.89-.55,4.28-.07,1.18-.15,2.53-.24,3.99-.02,1.44.01,2.97.03,4.5.19,3.04.52,6.05.98,8.27.43,2.23.83,3.68.66,3.76h0c-.19.09-.96-1.27-1.73-3.47-.81-2.19-1.46-5.25-1.92-8.38-.15-1.57-.31-3.16-.39-4.66,0-1.52-.02-2.94-.02-4.16.15-2.47.32-4.22.34-4.49Z"/><path class="cls-3" d="M113.28,377.52c.93,7.15,3.15,14.11,6.15,20.69l1.16,2.46c.39.82.74,1.65,1.23,2.43l2.72,4.72.68,1.18c.23.39.51.75.76,1.13l1.55,2.24c1.05,1.48,2.02,3.03,3.14,4.46l3.44,4.24c1.14,1.41,2.28,2.83,3.51,4.24l1.81,2.12,1.75,2.17c1.18,1.43,2.29,2.92,3.42,4.4,4.47,5.94,8.5,12.24,11.87,18.92,3.32,6.69,5.96,13.8,7.18,21.27.59,3.73.83,7.54.56,11.34-.27,3.8-1.05,7.57-2.37,11.17-2.59,7.23-7.55,13.47-13.67,18.01-3.11,2.23-6.56,4.08-10.3,5.1-1.85.55-3.77.88-5.7,1.04-1.93.17-3.88.13-5.8-.12-.27-.03-2.08-.27-4.5-1.04-1.22-.37-2.56-.95-3.95-1.63-1.37-.72-2.75-1.6-4.02-2.63-2.55-2.02-4.49-4.78-5.12-7.15-.36-1.17-.32-2.21-.26-2.89.13-.69.27-1.06.36-1.04.1.02.15.41.21,1.04.13.64.26,1.54.73,2.52.87,1.99,2.82,4.26,5.29,5.9,1.22.83,2.54,1.53,3.82,2.1,1.3.53,2.55.98,3.67,1.25,2.24.57,3.86.71,4.11.73,1.73.22,3.49.26,5.23.1,1.74-.14,3.47-.44,5.15-.94,3.38-.92,6.53-2.61,9.4-4.66,5.69-4.23,10.29-10.01,12.67-16.69,1.22-3.32,1.94-6.83,2.2-10.38.25-3.55.03-7.15-.53-10.69-1.15-7.1-3.69-13.96-6.91-20.45-3.27-6.48-7.2-12.65-11.6-18.48-1.11-1.45-2.2-2.92-3.36-4.32l-1.72-2.13-1.78-2.09c-1.19-1.37-2.36-2.82-3.54-4.27l-3.52-4.34c-1.15-1.46-2.15-3.05-3.23-4.57l-1.59-2.3c-.26-.39-.54-.76-.78-1.16l-.7-1.21-2.8-4.86c-.5-.79-.86-1.66-1.27-2.5l-1.2-2.54c-3.11-6.8-5.42-14.03-6.39-21.51-.02-.27-.19-2.02-.34-4.49,0-1.23.02-2.64.02-4.16.08-1.5.24-3.09.39-4.66.46-3.13,1.11-6.19,1.92-8.39.77-2.2,1.55-3.56,1.73-3.47.17.08-.24,1.53-.66,3.76-.46,2.22-.79,5.24-.98,8.27-.02,1.53-.05,3.06-.03,4.5.09,1.46.17,2.81.24,3.99.3,2.39.52,4.03.55,4.28Z"/><path class="cls-3" d="M136.82,277.98c2.09-.84,4.29-1.34,6.48-1.87l3.34-.52c.28-.04.56-.09.83-.12l.84-.04,1.68-.09c2.25-.21,4.48.03,6.71.1,1.11.12,2.22.28,3.32.42l1.66.23,1.64.36c4.4.81,8.6,2.39,12.69,4.1,1.99.99,4.05,1.85,5.94,3l2.89,1.64,2.78,1.81c7.39,4.88,14.02,10.76,20.08,17.12,1.48,1.62,3.02,3.19,4.46,4.85,1.42,1.67,2.89,3.3,4.28,5,1.37,1.71,2.77,3.4,4.11,5.13l4.61,6.08-4.61,6.08c-1.35,1.73-2.74,3.42-4.11,5.13-1.39,1.7-2.85,3.33-4.28,5-1.44,1.65-2.98,3.23-4.46,4.85-6.06,6.35-12.69,12.24-20.08,17.12l-2.78,1.81-2.89,1.64c-1.89,1.15-3.95,2.01-5.94,3-4.1,1.71-8.29,3.29-12.69,4.1l-1.64.36-1.66.23c-1.11.14-2.21.3-3.32.42-2.24.06-4.46.31-6.71.1l-1.68-.09-.84-.04c-.28-.03-.56-.08-.83-.12l-3.34-.52c-2.18-.53-4.39-1.03-6.48-1.87-.15-.06-.71-.27-1.58-.61-.85-.39-1.97-.96-3.3-1.62-2.57-1.44-5.8-3.49-8.59-5.98-2.82-2.46-5.28-5.23-6.9-7.45-1.63-2.21-2.44-3.85-2.27-3.96.16-.1,1.27,1.3,3.13,3.25,1.84,1.95,4.45,4.42,7.32,6.59,2.85,2.21,6.03,3.96,8.51,5.2,1.28.56,2.37,1.03,3.17,1.37.83.29,1.37.47,1.51.52,1.95.79,4.02,1.25,6.06,1.75l3.12.49c.26.04.52.09.78.12l.79.04,1.58.08c2.1.21,4.22-.03,6.34-.09,1.05-.11,2.1-.27,3.15-.4l1.58-.21,1.55-.34c4.18-.77,8.19-2.28,12.11-3.91,1.91-.95,3.88-1.77,5.71-2.89l2.79-1.58,2.69-1.76c7.16-4.72,13.64-10.47,19.59-16.71,1.46-1.59,2.97-3.14,4.38-4.76,1.4-1.64,2.85-3.25,4.22-4.92,1.35-1.69,2.73-3.35,4.06-5.06l3.28-4.33-3.28-4.33c-1.33-1.7-2.71-3.37-4.06-5.06-1.37-1.67-2.81-3.28-4.22-4.92-1.42-1.63-2.93-3.17-4.38-4.77-5.95-6.24-12.44-11.99-19.59-16.71l-2.69-1.76-2.79-1.58c-1.83-1.12-3.8-1.93-5.71-2.89-3.93-1.63-7.93-3.14-12.11-3.91l-1.55-.34-1.58-.21c-1.05-.13-2.1-.29-3.15-.4-2.11-.05-4.24-.29-6.34-.09l-1.58.08-.79.04c-.26.03-.52.08-.78.12l-3.12.49c-2.04.5-4.1.96-6.06,1.75-.14.05-.67.23-1.51.52-.8.35-1.89.82-3.17,1.37-2.49,1.24-5.66,3-8.51,5.2-2.87,2.17-5.47,4.64-7.32,6.59-1.85,1.95-2.96,3.35-3.13,3.25h0c-.17-.1.64-1.74,2.27-3.96,1.62-2.22,4.08-4.98,6.9-7.45,2.8-2.5,6.02-4.54,8.59-5.98,1.32-.65,2.45-1.23,3.3-1.62.88-.34,1.44-.55,1.58-.61Z"/><path class="cls-3" d="M364.72,198.57c-2.64,1.23-5.18,2.66-7.62,4.25-2.43,1.6-4.7,3.43-6.88,5.37-2.18,1.94-4.05,4.2-6.06,6.33-.92,1.14-1.79,2.32-2.69,3.47-.44.58-.9,1.16-1.33,1.75l-1.18,1.85c-.78,1.24-1.61,2.45-2.35,3.71l-2.06,3.88c-.73,1.27-1.29,2.63-1.87,3.98-.57,1.35-1.21,2.68-1.72,4.05l-1.46,4.16c-.23.7-.51,1.38-.7,2.09l-.59,2.13-1.17,4.26-.91,4.33c-2.37,11.56-3.08,23.46-2.81,35.3.13,2.96.17,5.93.37,8.89.23,2.96.39,5.92.69,8.88.33,2.95.61,5.91.97,8.86l1.07,7.78,7.78,1.07c2.95.36,5.9.64,8.86.97,2.95.3,5.92.45,8.88.69,2.96.2,5.93.24,8.89.37,11.85.28,23.74-.44,35.3-2.81l4.33-.91,4.26-1.17,2.13-.59c.71-.19,1.39-.47,2.09-.7l4.16-1.46c1.38-.51,2.7-1.15,4.05-1.72,1.35-.58,2.71-1.14,3.98-1.87l3.89-2.06c1.26-.74,2.47-1.57,3.71-2.35l1.85-1.18c.59-.43,1.16-.89,1.75-1.33,1.16-.9,2.33-1.77,3.47-2.69,2.13-2,4.4-3.88,6.33-6.06,1.94-2.17,3.77-4.44,5.37-6.88,1.6-2.43,3.02-4.98,4.25-7.62.15-.39,1.39-2.81,2.64-6.45,1.28-3.63,2.49-8.49,3.11-13.41.64-4.92.71-9.86.54-13.54-.16-3.69-.52-6.12-.33-6.16.19-.05.93,2.34,1.43,6.06.52,3.71.77,8.76.37,13.85-.37,5.09-1.42,10.18-2.62,14.02-1.17,3.84-2.39,6.43-2.55,6.83-1.29,2.77-2.79,5.44-4.47,8-1.68,2.56-3.6,4.94-5.64,7.22-2.04,2.29-4.38,4.23-6.6,6.31-1.18.96-2.4,1.86-3.61,2.79-.61.46-1.2.93-1.82,1.38l-1.92,1.23c-1.29.81-2.54,1.67-3.85,2.43l-4.02,2.14c-1.32.75-2.72,1.33-4.11,1.94-1.4.59-2.77,1.25-4.18,1.78l-4.28,1.51c-.72.24-1.42.53-2.15.72l-2.19.61-4.37,1.2-4.43.93c-11.84,2.42-23.93,3.14-35.93,2.86-3-.13-6.01-.17-9-.37-2.99-.24-5.99-.4-8.97-.7-2.98-.33-5.97-.61-8.94-.98l-9.96-1.37-1.37-9.96c-.37-2.98-.65-5.96-.98-8.94-.3-2.98-.46-5.98-.7-8.97-.21-2.99-.24-6-.37-9-.28-12,.44-24.1,2.86-35.93l.93-4.43,1.2-4.37.61-2.19c.2-.73.49-1.43.72-2.15l1.51-4.29c.53-1.42,1.19-2.79,1.78-4.18.6-1.39,1.18-2.79,1.94-4.11l2.14-4.02c.77-1.31,1.62-2.57,2.43-3.85l1.23-1.92c.45-.61.92-1.21,1.38-1.82.93-1.2,1.84-2.42,2.79-3.61,2.08-2.22,4.03-4.56,6.31-6.6,2.28-2.03,4.66-3.96,7.22-5.64,2.56-1.68,5.23-3.18,8-4.47.4-.16,2.99-1.38,6.83-2.55,3.83-1.19,8.93-2.24,14.02-2.62,5.09-.4,10.13-.15,13.85.37,3.72.5,6.11,1.24,6.06,1.43-.04.19-2.47-.17-6.16-.33-3.68-.17-8.62-.11-13.54.53-4.92.62-9.78,1.83-13.41,3.11-3.64,1.25-6.06,2.49-6.45,2.64Z"/><path class="cls-3" d="M195.97,363.53c1.29-2.77,2.79-5.44,4.47-8,1.68-2.56,3.6-4.94,5.64-7.22,2.04-2.29,4.38-4.23,6.6-6.31,1.18-.96,2.4-1.86,3.61-2.79.61-.46,1.2-.93,1.82-1.38l1.92-1.23c1.29-.81,2.54-1.67,3.85-2.43l4.02-2.14c1.32-.76,2.72-1.33,4.11-1.94,1.4-.59,2.77-1.25,4.18-1.78l4.29-1.51c.72-.24,1.42-.53,2.15-.72l2.19-.61,4.37-1.2,4.43-.93c11.84-2.42,23.93-3.14,35.93-2.86,3,.13,6.01.17,9,.37,2.99.24,5.99.4,8.97.7,2.98.33,5.97.61,8.94.98l9.96,1.37,1.37,9.96c.37,2.98.65,5.96.98,8.94.3,2.98.46,5.98.7,8.97.21,2.99.24,6,.37,9,.28,12-.44,24.1-2.86,35.93l-.93,4.43-1.2,4.37-.61,2.19c-.2.73-.49,1.43-.72,2.15l-1.51,4.28c-.53,1.42-1.19,2.79-1.78,4.18-.6,1.39-1.18,2.79-1.94,4.11l-2.14,4.02c-.77,1.31-1.62,2.57-2.43,3.85l-1.23,1.92c-.45.61-.92,1.21-1.38,1.82-.93,1.2-1.84,2.42-2.79,3.61-2.08,2.22-4.03,4.56-6.32,6.6-2.28,2.03-4.66,3.96-7.22,5.64-2.56,1.68-5.23,3.18-8,4.47-.4.16-2.99,1.38-6.83,2.55-3.83,1.19-8.93,2.24-14.02,2.62-5.09.4-10.13.15-13.85-.37-3.72-.5-6.11-1.24-6.06-1.43.04-.19,2.47.17,6.16.33,3.68.17,8.62.11,13.54-.53,4.92-.62,9.78-1.84,13.41-3.11,3.64-1.25,6.06-2.49,6.45-2.64,2.64-1.23,5.18-2.66,7.62-4.25,2.43-1.6,4.7-3.43,6.88-5.37,2.18-1.94,4.05-4.2,6.06-6.33.92-1.14,1.79-2.32,2.69-3.47.44-.58.9-1.16,1.33-1.75l1.18-1.85c.78-1.24,1.61-2.45,2.35-3.71l2.06-3.89c.73-1.27,1.29-2.63,1.87-3.98.57-1.35,1.21-2.68,1.72-4.05l1.46-4.16c.23-.7.51-1.38.7-2.09l.59-2.13,1.17-4.26.91-4.33c2.37-11.56,3.08-23.46,2.81-35.3-.13-2.96-.17-5.93-.37-8.89-.23-2.96-.39-5.92-.69-8.88-.33-2.95-.61-5.91-.97-8.86l-1.07-7.78-7.78-1.07c-2.95-.36-5.9-.64-8.86-.97-2.95-.3-5.92-.45-8.88-.69-2.96-.2-5.93-.24-8.89-.37-11.85-.28-23.74.44-35.3,2.81l-4.33.91-4.26,1.17-2.13.59c-.71.19-1.39.47-2.09.7l-4.16,1.46c-1.38.51-2.7,1.15-4.05,1.72-1.35.58-2.71,1.14-3.98,1.87l-3.89,2.06c-1.26.74-2.47,1.57-3.71,2.35l-1.85,1.18c-.59.43-1.16.89-1.75,1.33-1.16.9-2.33,1.77-3.47,2.69-2.13,2-4.4,3.88-6.33,6.06-1.94,2.17-3.77,4.44-5.37,6.88-1.6,2.43-3.02,4.98-4.25,7.62-.15.39-1.39,2.81-2.64,6.45-1.28,3.63-2.49,8.49-3.11,13.41-.64,4.92-.71,9.86-.54,13.54.16,3.69.52,6.12.33,6.16-.19.05-.93-2.34-1.43-6.06-.52-3.71-.77-8.76-.37-13.85.37-5.09,1.42-10.18,2.62-14.02,1.17-3.84,2.39-6.43,2.55-6.83Z"/><path class="cls-3" d="M451.75,364.72c-1.23-2.64-2.66-5.18-4.25-7.62-1.6-2.43-3.43-4.7-5.37-6.88-1.94-2.18-4.2-4.05-6.33-6.06-1.14-.92-2.32-1.79-3.47-2.69-.58-.44-1.16-.9-1.75-1.33l-1.85-1.18c-1.24-.78-2.45-1.61-3.71-2.35l-3.89-2.06c-1.27-.73-2.63-1.29-3.98-1.87-1.35-.57-2.68-1.21-4.05-1.72l-4.16-1.46c-.7-.23-1.38-.51-2.09-.7l-2.13-.59-4.26-1.17-4.33-.91c-11.56-2.37-23.46-3.08-35.3-2.81-2.96.13-5.93.17-8.89.37-2.96.23-5.92.39-8.88.69-2.95.33-5.91.61-8.86.97l-7.78,1.07-1.07,7.78c-.36,2.95-.64,5.9-.97,8.86-.3,2.95-.45,5.92-.69,8.88-.2,2.96-.24,5.93-.37,8.89-.28,11.85.44,23.74,2.81,35.3l.91,4.33,1.17,4.26.59,2.13c.19.71.47,1.39.7,2.09l1.46,4.16c.51,1.38,1.15,2.7,1.72,4.05.58,1.35,1.14,2.71,1.87,3.98l2.06,3.89c.74,1.26,1.57,2.47,2.35,3.71l1.18,1.85c.43.59.89,1.16,1.33,1.75.9,1.16,1.77,2.33,2.69,3.47,2,2.13,3.88,4.4,6.06,6.33,2.17,1.94,4.44,3.77,6.88,5.37,2.43,1.6,4.98,3.02,7.62,4.25.39.15,2.81,1.39,6.45,2.64,3.63,1.28,8.49,2.49,13.41,3.11,4.92.64,9.86.71,13.54.53,3.69-.16,6.12-.52,6.16-.33.05.19-2.34.93-6.06,1.43-3.71.52-8.76.77-13.85.37-5.09-.37-10.18-1.42-14.02-2.62-3.84-1.17-6.43-2.39-6.83-2.55-2.77-1.29-5.44-2.79-8-4.47-2.56-1.68-4.94-3.61-7.22-5.64-2.29-2.04-4.23-4.38-6.31-6.6-.96-1.18-1.86-2.41-2.79-3.61-.46-.61-.93-1.2-1.38-1.82l-1.23-1.92c-.81-1.29-1.67-2.54-2.43-3.85l-2.14-4.02c-.75-1.32-1.33-2.72-1.94-4.11-.59-1.4-1.25-2.77-1.78-4.18l-1.51-4.28c-.24-.72-.53-1.42-.72-2.15l-.61-2.19-1.2-4.37-.93-4.43c-2.42-11.84-3.14-23.93-2.86-35.93.13-3,.17-6.01.37-9,.24-2.99.4-5.99.7-8.97.33-2.98.61-5.97.98-8.94l1.37-9.96,9.96-1.37c2.98-.37,5.96-.65,8.94-.98,2.98-.3,5.98-.46,8.97-.7,2.99-.21,6-.24,9-.37,12-.28,24.1.44,35.93,2.86l4.43.93,4.37,1.2,2.19.61c.73.2,1.43.49,2.15.72l4.28,1.51c1.42.53,2.79,1.19,4.18,1.78,1.39.6,2.79,1.18,4.11,1.94l4.02,2.14c1.31.77,2.57,1.62,3.85,2.43l1.92,1.23c.61.45,1.21.92,1.82,1.38,1.2.93,2.42,1.84,3.61,2.79,2.22,2.08,4.56,4.03,6.6,6.31,2.03,2.28,3.96,4.66,5.64,7.22,1.68,2.56,3.18,5.23,4.47,8,.16.4,1.38,2.99,2.55,6.83,1.19,3.83,2.24,8.93,2.62,14.02.4,5.09.15,10.13-.37,13.85-.5,3.72-1.24,6.11-1.43,6.06-.19-.04.17-2.47.33-6.16.17-3.68.11-8.62-.54-13.54-.62-4.92-1.83-9.78-3.11-13.41-1.25-3.64-2.49-6.06-2.64-6.45Z"/><path class="cls-3" d="M286.79,195.98c2.77,1.29,5.44,2.79,8,4.47,2.56,1.68,4.94,3.6,7.22,5.64,2.29,2.04,4.23,4.38,6.32,6.6.96,1.18,1.86,2.4,2.79,3.61.46.61.93,1.2,1.38,1.82l1.23,1.92c.81,1.29,1.67,2.54,2.43,3.85l2.14,4.02c.75,1.32,1.33,2.72,1.94,4.11.59,1.4,1.25,2.77,1.78,4.18l1.51,4.29c.24.72.53,1.42.72,2.15l.61,2.19,1.2,4.37.93,4.43c2.42,11.84,3.14,23.93,2.86,35.93-.13,3-.17,6.01-.37,9-.24,2.99-.4,5.99-.7,8.97-.33,2.98-.61,5.97-.98,8.94l-1.37,9.96-9.96,1.37c-2.97.37-5.96.65-8.94.98-2.98.3-5.98.46-8.97.7-2.99.21-6,.24-9,.37-12,.28-24.1-.44-35.93-2.86l-4.43-.93-4.37-1.2-2.19-.61c-.73-.2-1.43-.49-2.15-.72l-4.29-1.51c-1.42-.53-2.79-1.19-4.18-1.78-1.39-.6-2.79-1.18-4.11-1.94l-4.02-2.14c-1.31-.77-2.57-1.62-3.85-2.43l-1.92-1.23c-.61-.45-1.21-.92-1.82-1.38-1.2-.93-2.42-1.84-3.61-2.79-2.22-2.08-4.56-4.03-6.6-6.31-2.03-2.28-3.96-4.66-5.64-7.22-1.68-2.56-3.18-5.23-4.47-8-.16-.4-1.38-2.99-2.55-6.83-1.19-3.83-2.24-8.93-2.62-14.02-.4-5.09-.15-10.13.37-13.85.5-3.72,1.24-6.11,1.43-6.06.19.04-.17,2.47-.33,6.16-.17,3.68-.11,8.62.54,13.54.62,4.92,1.83,9.78,3.11,13.41,1.25,3.64,2.49,6.06,2.64,6.45,1.23,2.64,2.66,5.18,4.25,7.62,1.6,2.43,3.43,4.7,5.37,6.88,1.94,2.18,4.2,4.05,6.33,6.06,1.14.92,2.32,1.79,3.47,2.69.58.44,1.16.9,1.75,1.33l1.85,1.18c1.24.78,2.45,1.61,3.71,2.35l3.89,2.06c1.27.73,2.63,1.29,3.98,1.87,1.35.57,2.68,1.21,4.05,1.72l4.16,1.46c.7.23,1.38.51,2.09.7l2.13.59,4.26,1.17,4.33.91c11.56,2.37,23.46,3.08,35.3,2.81,2.96-.13,5.93-.17,8.89-.37,2.96-.23,5.92-.39,8.88-.69,2.95-.33,5.91-.61,8.86-.97l7.78-1.07,1.07-7.78c.36-2.95.64-5.9.97-8.86.3-2.95.45-5.92.69-8.88.2-2.96.24-5.93.37-8.89.28-11.85-.44-23.74-2.81-35.3l-.91-4.33-1.17-4.26-.59-2.13c-.19-.71-.47-1.39-.7-2.09l-1.46-4.16c-.51-1.38-1.15-2.7-1.72-4.05-.58-1.35-1.14-2.71-1.87-3.98l-2.06-3.88c-.74-1.26-1.57-2.47-2.35-3.71l-1.18-1.85c-.43-.59-.89-1.16-1.33-1.75-.9-1.16-1.77-2.33-2.69-3.47-2-2.13-3.88-4.4-6.06-6.33-2.17-1.94-4.44-3.77-6.88-5.37-2.43-1.6-4.98-3.02-7.62-4.25-.39-.15-2.81-1.39-6.45-2.64-3.63-1.28-8.49-2.49-13.41-3.11-4.92-.64-9.86-.71-13.54-.53-3.69.16-6.12.52-6.16.33-.05-.19,2.34-.93,6.06-1.43,3.71-.52,8.76-.77,13.85-.37,5.09.37,10.18,1.42,14.02,2.62,3.84,1.17,6.43,2.39,6.83,2.55Z"/><path class="cls-3" d="M288.98,607.4c8,3.51,15.4,8.24,22.08,13.83,3.33,2.82,6.48,5.86,9.27,9.28,1.39,1.71,2.7,3.51,3.81,5.46.26.5.56.98.79,1.5l.22.46.22-.46c.23-.53.53-1,.79-1.5,1.12-1.96,2.42-3.76,3.81-5.46,2.79-3.42,5.94-6.46,9.27-9.28,6.68-5.59,14.08-10.32,22.08-13.83.27-.14,3.8-1.49,7.39-2.33.89-.22,1.8-.38,2.63-.55.85-.13,1.63-.24,2.31-.31,1.36-.1,2.26-.08,2.3.11.03.19-.8.55-2.06.97-.62.24-1.35.5-2.14.77-.82.31-1.64.63-2.44.93-3.32,1.31-6.57,2.89-6.84,3.02-7.71,3.38-14.92,7.98-21.38,13.4-3.22,2.72-6.26,5.66-8.9,8.9-1.32,1.61-2.54,3.3-3.54,5.07-.24.45-.51.88-.71,1.34l-.16.34-.13.28c-.06.12-.12.25-.17.38l-.15.39-.13.47-.25.95c-.17.64-.33,1.23-.5,1.92l-.48,2.51-.83,4.37-.83-4.37-.48-2.51c-.16-.69-.33-1.28-.5-1.92l-.25-.95-.13-.47-.15-.39c-.05-.13-.11-.25-.17-.38l-.13-.28-.16-.34c-.2-.46-.47-.89-.71-1.34-1.01-1.77-2.23-3.46-3.54-5.07-2.64-3.23-5.68-6.18-8.9-8.9-6.46-5.41-13.67-10.02-21.38-13.4-.27-.14-3.53-1.72-6.84-3.02-.79-.3-1.62-.62-2.44-.93-.78-.27-1.51-.53-2.14-.77-1.26-.42-2.09-.78-2.06-.97.03-.19.93-.21,2.3-.11.67.07,1.46.18,2.31.31.84.17,1.74.33,2.63.55,3.58.85,7.11,2.19,7.39,2.33Z"/><path class="cls-3" d="M287.84,40.3c7.71-3.38,14.92-7.98,21.38-13.4,3.22-2.72,6.26-5.66,8.9-8.9,1.32-1.61,2.54-3.3,3.54-5.07.24-.45.51-.88.71-1.34l.16-.34.13-.28c.06-.12.12-.25.17-.38l.15-.39.13-.47.25-.95c.17-.64.33-1.23.5-1.92l.48-2.51.83-4.37.83,4.37.48,2.51c.16.69.33,1.28.5,1.92l.25.95.13.47.15.39c.05.13.11.25.17.38l.13.28.16.34c.2.46.47.89.71,1.34,1.01,1.77,2.23,3.46,3.54,5.07,2.64,3.23,5.68,6.18,8.9,8.9,6.46,5.41,13.67,10.02,21.38,13.4.27.14,3.53,1.72,6.84,3.02.79.3,1.62.62,2.44.93.78.27,1.51.53,2.14.77,1.26.42,2.09.78,2.06.97-.03.19-.93.21-2.3.11-.67-.07-1.46-.18-2.31-.31-.84-.17-1.74-.33-2.63-.55-3.58-.85-7.11-2.19-7.39-2.33-8-3.51-15.4-8.24-22.08-13.83-3.33-2.82-6.48-5.86-9.27-9.28-1.39-1.71-2.7-3.51-3.81-5.46-.26-.5-.56-.98-.79-1.5l-.22-.46-.22.46c-.23.53-.53,1-.79,1.5-1.12,1.96-2.42,3.76-3.81,5.46-2.79,3.42-5.94,6.46-9.27,9.28-6.68,5.59-14.08,10.32-22.08,13.83-.27.14-3.8,1.49-7.39,2.33-.89.22-1.8.38-2.63.55-.85.13-1.63.24-2.31.31-1.36.1-2.26.08-2.3-.11-.03-.19.8-.55,2.06-.97.62-.24,1.35-.5,2.14-.77.82-.31,1.64-.63,2.44-.93,3.32-1.31,6.57-2.89,6.84-3.02Z"/><path class="cls-3" d="M42.92,288.98c-3.51,8-8.24,15.4-13.83,22.08-2.82,3.33-5.86,6.48-9.28,9.27-1.71,1.39-3.51,2.7-5.46,3.81-.5.26-.98.56-1.5.79l-.46.22.46.22c.53.23,1,.53,1.5.79,1.96,1.12,3.76,2.42,5.46,3.81,3.42,2.79,6.46,5.94,9.28,9.27,5.59,6.68,10.32,14.08,13.83,22.08.14.27,1.49,3.8,2.33,7.39.22.89.38,1.8.55,2.63.13.85.24,1.63.31,2.31.1,1.36.08,2.26-.11,2.3-.19.03-.55-.8-.97-2.06-.24-.62-.5-1.35-.77-2.14-.31-.82-.63-1.64-.93-2.44-1.31-3.32-2.89-6.57-3.02-6.84-3.38-7.71-7.98-14.92-13.4-21.38-2.72-3.22-5.66-6.26-8.9-8.9-1.61-1.32-3.3-2.54-5.07-3.54-.45-.24-.88-.51-1.34-.71l-.34-.16-.28-.13c-.12-.06-.25-.12-.38-.17l-.39-.15-.47-.13-.95-.25c-.64-.17-1.23-.33-1.92-.5l-2.51-.48-4.37-.83,4.37-.83,2.51-.48c.69-.16,1.28-.33,1.92-.5l.95-.25.47-.13.39-.15c.13-.05.25-.11.38-.17l.28-.13.34-.16c.46-.2.89-.47,1.34-.71,1.77-1.01,3.46-2.23,5.07-3.54,3.23-2.64,6.18-5.68,8.9-8.9,5.41-6.46,10.02-13.67,13.4-21.38.14-.27,1.72-3.53,3.02-6.84.3-.79.62-1.62.93-2.44.27-.78.53-1.51.77-2.14.42-1.26.78-2.09.97-2.06.19.03.21.93.11,2.3-.07.67-.18,1.46-.31,2.31-.17.84-.33,1.74-.55,2.63-.85,3.58-2.19,7.11-2.33,7.39Z"/><path class="cls-3" d="M610.01,287.84c3.38,7.71,7.98,14.92,13.4,21.38,2.72,3.22,5.66,6.26,8.9,8.9,1.61,1.32,3.3,2.54,5.07,3.54.45.24.88.51,1.34.71l.34.16.28.13c.12.06.25.12.38.17l.39.15.47.13.95.25c.64.17,1.23.33,1.92.5l2.51.48,4.37.83-4.37.83-2.51.48c-.69.16-1.28.33-1.92.5l-.95.25-.47.13-.39.15c-.13.05-.25.11-.38.17l-.28.13-.34.16c-.46.2-.89.47-1.34.71-1.77,1.01-3.46,2.23-5.07,3.54-3.23,2.64-6.18,5.68-8.9,8.9-5.41,6.46-10.02,13.67-13.4,21.38-.14.27-1.72,3.53-3.02,6.84-.3.79-.62,1.62-.93,2.44-.27.78-.53,1.51-.77,2.14-.42,1.26-.78,2.09-.97,2.06-.19-.03-.21-.93-.11-2.3.07-.67.18-1.46.31-2.31.17-.84.33-1.74.55-2.63.85-3.58,2.19-7.11,2.33-7.39,3.51-8,8.24-15.4,13.83-22.08,2.82-3.33,5.86-6.48,9.28-9.27,1.71-1.39,3.51-2.7,5.46-3.81.5-.26.98-.56,1.5-.79l.46-.22-.46-.22c-.53-.23-1-.53-1.5-.79-1.96-1.12-3.76-2.42-5.46-3.81-3.42-2.79-6.46-5.94-9.28-9.27-5.59-6.68-10.32-14.08-13.83-22.08-.14-.27-1.49-3.8-2.33-7.39-.22-.89-.38-1.8-.55-2.63-.13-.85-.24-1.63-.31-2.31-.1-1.36-.08-2.26.11-2.3.19-.03.55.8.97,2.06.24.62.5,1.35.77,2.14.31.82.63,1.64.93,2.44,1.31,3.32,2.89,6.57,3.02,6.84Z"/></g><path id="DecorativeElement_9_Shape" class="cls-2" d="M256.46,585.77l-191.91-191.91c37.94-37.94,37.94-99.46,0-137.4l191.91-191.91c37.94,37.94,99.46,37.94,137.4,0l191.91,191.91c-37.94,37.94-37.94,99.46,0,137.4l-191.91,191.91c-37.94-37.94-99.46-37.94-137.4,0Z"/></g></svg>