<?xml version="1.0" encoding="UTF-8"?><svg id="Line" xmlns="http://www.w3.org/2000/svg" viewBox="0 0 649.84 649.84"><defs><style>.cls-1{opacity:.24;}.cls-2{fill:#fff;stroke-width:0px;}</style></defs><g id="DecorativeElement_3"><g id="DecorativeElement_3_Lines"><path class="cls-2" d="M449.6,115.98c1.91,4.01,3.55,8.13,5.02,12.31,1.4,4.19,2.68,8.43,3.71,12.73,2.03,8.6,3.43,17.4,3.24,26.37.04.16-.29,2.09-.67,3.94-.51,1.85-1.16,3.58-1.54,3.5-.39-.08-.45-1.91-.47-3.71-.14-1.83-.13-3.65-.18-3.81.19-8.56-1.17-17.2-3.16-25.61-1.01-4.21-2.26-8.37-3.63-12.47-1.44-4.08-3.04-8.1-4.89-11.99-.07-.14-.76-1.85-1.37-3.6-.68-1.69-1.27-3.43-.94-3.64.33-.21,1.55,1.18,2.71,2.68,1.08,1.53,2.09,3.18,2.17,3.32Z"/><path class="cls-2" d="M343.2,40.1c9.32,12.66,19.24,24.89,29.32,36.99,10.11,12.08,20.43,23.97,30.92,35.73,20.98,23.5,42.51,46.53,64.76,68.83,22.29,22.25,45.32,43.78,68.83,64.76,11.76,10.48,23.66,20.81,35.73,30.92,12.09,10.08,24.33,20,36.99,29.32.46.31,3.37,2.55,7.57,5.54,4.22,2.97,9.69,6.84,15.46,9.9.73.36,1.45.74,2.18,1.09.74.3,1.47.61,2.2.91,1.49.52,2.99.95,4.44,1.17,1.45.22,2.87.23,4.06-.15,1.19-.38,2.09-1.19,2.58-2.19.51-.99.68-2.07.75-3.03.07-.96.01-1.81-.05-2.51-.13-1.4-.31-2.2-.21-2.23.09-.03.45.72.78,2.14.16.71.31,1.58.33,2.62.02,1.03-.07,2.23-.59,3.48-.27.61-.65,1.24-1.19,1.76-.54.52-1.21.95-1.94,1.23-1.48.56-3.11.61-4.72.45-1.61-.17-3.22-.55-4.82-1.03-.79-.29-1.59-.58-2.39-.87-.78-.33-1.54-.69-2.31-1.04-6.08-2.94-11.72-6.67-16.06-9.55-4.33-2.91-7.3-5.09-7.77-5.4-12.74-9.38-25-19.33-37.13-29.44-12.1-10.13-24.02-20.47-35.8-30.97-23.54-21.02-46.6-42.57-68.94-64.87-22.3-22.34-43.85-45.4-64.87-68.94-10.5-11.78-20.84-23.7-30.97-35.8-10.11-12.12-20.05-24.39-29.44-37.13-.32-.47-2.5-3.44-5.4-7.77-2.88-4.35-6.61-9.98-9.55-16.06-.35-.77-.71-1.53-1.04-2.31-.29-.8-.58-1.6-.87-2.39-.48-1.6-.86-3.21-1.03-4.82-.16-1.6-.11-3.24.45-4.72.28-.74.71-1.4,1.23-1.94.52-.54,1.15-.92,1.76-1.19,1.25-.53,2.45-.61,3.48-.59,1.03.02,1.91.17,2.62.33,1.42.32,2.17.69,2.14.78-.03.1-.83-.08-2.23-.21-.7-.06-1.55-.12-2.51-.05-.95.07-2.03.24-3.03.75-1,.49-1.81,1.39-2.19,2.58-.38,1.2-.37,2.62-.15,4.06.22,1.45.65,2.95,1.17,4.44.3.73.6,1.46.91,2.2.34.73.72,1.45,1.09,2.18,3.07,5.77,6.94,11.25,9.9,15.46,3,4.21,5.23,7.11,5.54,7.57Z"/><path class="cls-2" d="M363.41,52.99c6.41,2.91,12.63,6.09,18.63,9.68,1.5.89,3.03,1.73,4.5,2.67l4.43,2.78c2.98,1.81,5.83,3.82,8.75,5.73,11.54,7.81,22.67,16.19,33.53,24.9,21.7,17.44,42.35,36.13,62.06,55.77,19.64,19.71,38.33,40.37,55.77,62.06,8.7,10.86,17.09,21.99,24.9,33.53,1.91,2.92,3.92,5.77,5.73,8.75l2.78,4.43c.94,1.47,1.78,3,2.67,4.5,3.59,6,6.77,12.22,9.68,18.63.19.47,1.53,3.52,2.65,8.08,1.12,4.54,1.85,10.67.9,16.65-.48,2.97-1.34,5.9-2.72,8.38-1.33,2.5-3.26,4.51-5.32,5.55-1.04.51-2.08.75-3,.85-.93.04-1.73-.04-2.36-.2-.29-.08-.57-.16-.83-.24-.21-.09-.4-.18-.58-.27-.31-.15-.46-.25-.44-.3s.21-.03.53.02c.19.04.38.08.6.12.25.03.52.06.81.09.61.06,1.34.04,2.16-.08.81-.18,1.7-.46,2.57-.98,1.74-1.05,3.34-2.94,4.44-5.3,1.14-2.34,1.81-5.11,2.14-7.92.65-5.65-.25-11.45-1.45-15.72-1.2-4.29-2.55-7.16-2.73-7.61-2.83-6.23-5.98-12.39-9.52-18.31-.88-1.48-1.71-3-2.64-4.46l-2.75-4.39c-1.8-2.95-3.79-5.78-5.68-8.68-7.75-11.46-16.09-22.54-24.76-33.35-17.36-21.6-35.99-42.19-55.56-61.83-19.64-19.57-40.23-38.2-61.83-55.56-10.81-8.66-21.89-17-33.35-24.76-2.89-1.89-5.72-3.89-8.68-5.68l-4.39-2.75c-1.46-.93-2.97-1.76-4.46-2.64-5.92-3.54-12.09-6.69-18.31-9.52-.44-.18-3.32-1.53-7.61-2.73-4.28-1.2-10.07-2.1-15.72-1.45-2.81.32-5.58,1-7.92,2.14-2.36,1.1-4.25,2.7-5.3,4.44-.52.87-.8,1.76-.98,2.57-.12.82-.14,1.55-.08,2.16.03.29.06.56.09.81.04.21.08.41.12.6.06.33.07.52.02.53s-.15-.13-.3-.44c-.08-.18-.17-.37-.27-.58-.08-.26-.16-.54-.24-.83-.16-.63-.24-1.43-.2-2.36.1-.92.33-1.96.85-3,1.04-2.07,3.05-3.99,5.55-5.32,2.48-1.38,5.41-2.24,8.38-2.72,5.98-.95,12.11-.22,16.65.9,4.56,1.12,7.61,2.46,8.08,2.65Z"/><path class="cls-2" d="M458.75,136.14c-.29,3.52.04,7.09.78,10.56.31,1.75.92,3.44,1.41,5.15.69,1.65,1.23,3.35,2.09,4.93,3.12,6.45,7.53,12.27,12.64,17.38,5.11,5.12,10.93,9.53,17.38,12.64,1.58.85,3.29,1.4,4.93,2.09,1.71.5,3.39,1.11,5.15,1.41,3.47.74,7.04,1.08,10.56.78.25-.04,3.29-.11,6.23-.73,1.48-.27,2.9-.72,3.99-1.03,1.06-.37,1.82-.56,1.92-.39s-.48.69-1.44,1.39c-.99.64-2.39,1.41-3.9,1.96-3,1.18-6.31,1.61-6.58,1.64-3.83.32-7.67-.04-11.38-.84-1.88-.34-3.67-.97-5.49-1.51-1.75-.72-3.56-1.31-5.23-2.21-6.81-3.29-12.88-7.91-18.16-13.2-5.29-5.28-9.91-11.35-13.2-18.16-.9-1.67-1.49-3.48-2.21-5.23-.54-1.82-1.18-3.61-1.51-5.49-.79-3.71-1.16-7.55-.84-11.38.03-.26.46-3.57,1.64-6.58.55-1.51,1.32-2.91,1.96-3.9.7-.97,1.22-1.54,1.39-1.44s-.02.86-.39,1.92c-.31,1.09-.76,2.51-1.03,3.99-.62,2.94-.69,5.99-.73,6.23Z"/><path class="cls-2" d="M532.61,202.81c-3.89-1.85-7.91-3.46-11.99-4.89-4.11-1.37-8.26-2.62-12.47-3.63-8.41-1.99-17.05-3.35-25.61-3.16-.16-.04-1.98-.03-3.81-.18-1.8-.02-3.63-.08-3.71-.47-.08-.38,1.65-1.03,3.5-1.54,1.85-.38,3.78-.72,3.94-.67,8.97-.19,17.77,1.21,26.37,3.24,4.3,1.03,8.54,2.3,12.73,3.71,4.17,1.47,8.29,3.11,12.31,5.02.14.07,1.78,1.08,3.32,2.17,1.5,1.16,2.88,2.38,2.68,2.71-.21.33-1.95-.26-3.64-.94-1.74-.61-3.46-1.3-3.6-1.37Z"/><path class="cls-2" d="M447.03,532.61c1.85-3.89,3.46-7.91,4.89-11.99,1.37-4.11,2.62-8.26,3.63-12.47,1.99-8.41,3.35-17.05,3.16-25.61.04-.16.03-1.98.18-3.81.02-1.8.08-3.63.47-3.71.38-.08,1.03,1.65,1.54,3.5.38,1.85.72,3.78.67,3.94.19,8.97-1.21,17.77-3.24,26.37-1.03,4.3-2.3,8.54-3.71,12.73-1.47,4.17-3.11,8.29-5.02,12.31-.07.14-1.08,1.78-2.17,3.32-1.16,1.5-2.38,2.88-2.71,2.68-.33-.21.26-1.95.94-3.64.61-1.74,1.3-3.46,1.37-3.6Z"/><path class="cls-2" d="M340.9,608.05c9.38-12.74,19.33-25,29.44-37.13,10.13-12.1,20.47-24.02,30.97-35.8,21.02-23.54,42.57-46.6,64.87-68.94,22.34-22.3,45.4-43.85,68.94-64.87,11.78-10.5,23.7-20.84,35.8-30.97,12.12-10.11,24.39-20.05,37.13-29.44.47-.32,3.44-2.5,7.77-5.4,4.35-2.88,9.98-6.61,16.06-9.55.77-.35,1.53-.71,2.31-1.04.8-.29,1.6-.58,2.39-.87,1.6-.48,3.21-.86,4.82-1.03,1.6-.16,3.24-.11,4.72.45.74.28,1.4.71,1.94,1.23.54.52.92,1.15,1.19,1.76.53,1.25.61,2.45.59,3.48-.02,1.03-.17,1.91-.33,2.62-.32,1.42-.69,2.17-.78,2.14-.1-.03.08-.83.21-2.23.06-.7.12-1.55.05-2.51-.07-.95-.24-2.03-.75-3.03-.49-1-1.39-1.81-2.58-2.19-1.2-.38-2.62-.37-4.06-.15-1.45.22-2.95.65-4.44,1.17-.73.3-1.46.6-2.2.91-.73.34-1.45.72-2.18,1.09-5.77,3.07-11.25,6.94-15.46,9.9-4.21,3-7.11,5.23-7.57,5.54-12.66,9.32-24.89,19.24-36.99,29.32-12.08,10.11-23.97,20.43-35.73,30.92-23.5,20.98-46.53,42.51-68.83,64.76-22.25,22.29-43.78,45.32-64.76,68.83-10.48,11.76-20.81,23.66-30.92,35.73-10.08,12.09-20,24.33-29.32,36.99-.31.46-2.55,3.37-5.54,7.57-2.97,4.22-6.84,9.69-9.9,15.46-.36.73-.74,1.45-1.09,2.18-.3.74-.61,1.47-.91,2.2-.52,1.49-.95,2.99-1.17,4.44-.22,1.45-.23,2.87.15,4.06.38,1.19,1.19,2.09,2.19,2.58.99.51,2.07.68,3.03.75.96.07,1.81.01,2.51-.05,1.4-.13,2.2-.31,2.23-.21.03.09-.72.45-2.14.78-.71.16-1.58.31-2.62.33-1.03.02-2.23-.07-3.48-.59-.61-.27-1.24-.65-1.76-1.19-.52-.54-.95-1.21-1.23-1.94-.56-1.48-.61-3.11-.45-4.72.17-1.61.55-3.22,1.03-4.82.29-.79.58-1.59.87-2.39.33-.78.69-1.54,1.04-2.31,2.94-6.08,6.67-11.72,9.55-16.06,2.91-4.33,5.09-7.3,5.4-7.77Z"/><path class="cls-2" d="M362.29,594.22c6.23-2.83,12.39-5.98,18.31-9.52,1.48-.88,3-1.71,4.46-2.64l4.39-2.75c2.95-1.8,5.78-3.79,8.68-5.68,11.46-7.75,22.54-16.09,33.35-24.76,21.6-17.36,42.19-35.99,61.83-55.56,19.57-19.64,38.2-40.23,55.56-61.83,8.66-10.81,17-21.89,24.76-33.35,1.89-2.89,3.89-5.72,5.68-8.68l2.75-4.39c.93-1.46,1.76-2.97,2.64-4.46,3.54-5.92,6.69-12.09,9.52-18.31.18-.44,1.53-3.32,2.73-7.61,1.2-4.28,2.1-10.07,1.45-15.72-.32-2.81-1-5.58-2.14-7.92-1.1-2.36-2.7-4.25-4.44-5.3-.87-.52-1.76-.8-2.57-.98-.82-.12-1.55-.14-2.16-.08-.29.03-.56.06-.81.09-.21.04-.41.08-.6.12-.33.06-.52.07-.53.02s.13-.15.44-.3c.18-.08.37-.17.58-.27.26-.08.54-.16.83-.24.63-.16,1.43-.24,2.36-.2.92.1,1.96.33,3,.85,2.07,1.04,3.99,3.05,5.32,5.55,1.38,2.48,2.24,5.41,2.72,8.38.95,5.98.22,12.11-.9,16.65-1.12,4.56-2.46,7.61-2.65,8.08-2.91,6.41-6.09,12.63-9.68,18.63-.89,1.5-1.73,3.03-2.67,4.5l-2.78,4.43c-1.81,2.98-3.82,5.83-5.73,8.75-7.81,11.54-16.19,22.67-24.9,33.53-17.44,21.7-36.13,42.35-55.77,62.06-19.71,19.64-40.37,38.33-62.06,55.77-10.86,8.7-21.99,17.09-33.53,24.9-2.92,1.91-5.77,3.92-8.75,5.73l-4.43,2.78c-1.47.94-3,1.78-4.5,2.67-6,3.59-12.22,6.77-18.63,9.68-.47.19-3.52,1.53-8.08,2.65-4.54,1.12-10.67,1.85-16.65.9-2.97-.48-5.9-1.34-8.38-2.72-2.5-1.33-4.51-3.26-5.55-5.32-.51-1.04-.75-2.08-.85-3-.04-.93.04-1.73.2-2.36.08-.29.16-.57.24-.83.09-.21.18-.4.27-.58.15-.31.25-.46.3-.44s.03.21-.02.53c-.04.19-.08.38-.12.6-.03.25-.06.52-.09.81-.06.61-.04,1.34.08,2.16.18.81.46,1.7.98,2.57,1.05,1.74,2.94,3.34,5.3,4.44,2.34,1.14,5.11,1.81,7.92,2.14,5.65.65,11.45-.25,15.72-1.45,4.29-1.2,7.16-2.55,7.61-2.73Z"/><path class="cls-2" d="M455.91,513.92c-.32-3.83.04-7.67.84-11.38.34-1.88.97-3.67,1.51-5.49.72-1.75,1.31-3.56,2.21-5.23,3.29-6.81,7.91-12.88,13.2-18.16,5.28-5.29,11.35-9.91,18.16-13.2,1.67-.9,3.48-1.49,5.23-2.21,1.82-.54,3.61-1.18,5.49-1.51,3.71-.79,7.55-1.16,11.38-.84.26.03,3.57.46,6.58,1.64,1.51.55,2.91,1.32,3.9,1.96.97.7,1.54,1.22,1.44,1.39s-.86-.02-1.92-.39c-1.09-.31-2.51-.76-3.99-1.03-2.94-.62-5.99-.69-6.23-.73-3.52-.29-7.09.04-10.56.78-1.75.31-3.44.92-5.15,1.41-1.65.69-3.35,1.23-4.93,2.09-6.45,3.12-12.27,7.53-17.38,12.64-5.12,5.11-9.53,10.93-12.64,17.38-.85,1.58-1.4,3.29-2.09,4.93-.5,1.71-1.11,3.39-1.41,5.15-.74,3.47-1.08,7.04-.78,10.56.04.25.11,3.29.73,6.23.27,1.48.72,2.9,1.03,3.99.37,1.06.56,1.82.39,1.92s-.69-.48-1.39-1.44c-.64-.99-1.41-2.39-1.96-3.9-1.18-3-1.61-6.31-1.64-6.58Z"/><path class="cls-2" d="M533.85,449.6c-4.01,1.91-8.13,3.55-12.31,5.02-4.19,1.4-8.43,2.68-12.73,3.71-8.6,2.03-17.4,3.43-26.37,3.24-.16.04-2.09-.29-3.94-.67-1.85-.51-3.58-1.16-3.5-1.54.08-.39,1.91-.45,3.71-.47,1.83-.14,3.65-.13,3.81-.18,8.56.19,17.2-1.17,25.61-3.16,4.21-1.01,8.37-2.26,12.47-3.63,4.08-1.44,8.1-3.04,11.99-4.89.14-.07,1.85-.76,3.6-1.37,1.69-.68,3.43-1.27,3.64-.94.21.33-1.18,1.55-2.68,2.71-1.53,1.08-3.18,2.09-3.32,2.17Z"/><path class="cls-2" d="M202.81,117.23c-1.85,3.89-3.46,7.91-4.89,11.99-1.37,4.11-2.62,8.26-3.63,12.47-1.99,8.41-3.35,17.05-3.16,25.61-.04.16-.03,1.98-.18,3.81-.02,1.8-.08,3.63-.47,3.71-.38.08-1.03-1.65-1.54-3.5-.38-1.85-.72-3.78-.67-3.94-.19-8.97,1.21-17.77,3.24-26.37,1.03-4.3,2.3-8.54,3.71-12.73,1.47-4.17,3.11-8.29,5.02-12.31.07-.14,1.08-1.78,2.17-3.32,1.16-1.5,2.38-2.88,2.71-2.68.33.21-.26,1.95-.94,3.64-.61,1.74-1.3,3.46-1.37,3.6Z"/><path class="cls-2" d="M308.94,41.79c-9.38,12.74-19.33,25-29.44,37.13-10.13,12.1-20.47,24.02-30.97,35.8-21.02,23.54-42.57,46.6-64.87,68.94-22.34,22.3-45.4,43.85-68.94,64.87-11.78,10.5-23.7,20.84-35.8,30.97-12.12,10.11-24.39,20.05-37.13,29.44-.47.32-3.44,2.5-7.77,5.4-4.35,2.88-9.98,6.61-16.06,9.55-.77.35-1.53.71-2.31,1.04-.8.29-1.6.58-2.39.87-1.6.48-3.21.86-4.82,1.03-1.6.16-3.24.11-4.72-.45-.74-.28-1.4-.71-1.94-1.23-.54-.52-.92-1.15-1.19-1.76-.53-1.25-.61-2.45-.59-3.48.02-1.03.17-1.91.33-2.62.32-1.42.69-2.17.78-2.14.1.03-.08.83-.21,2.23-.06.7-.12,1.55-.05,2.51.07.95.24,2.03.75,3.03.49,1,1.39,1.81,2.58,2.19,1.2.38,2.62.37,4.06.15,1.45-.22,2.95-.65,4.44-1.17.73-.3,1.46-.6,2.2-.91.73-.34,1.45-.72,2.18-1.09,5.77-3.07,11.25-6.94,15.46-9.9,4.21-3,7.11-5.23,7.57-5.54,12.66-9.32,24.89-19.24,36.99-29.32,12.08-10.11,23.97-20.43,35.73-30.92,23.5-20.98,46.53-42.51,68.83-64.76,22.25-22.29,43.78-45.32,64.76-68.83,10.48-11.76,20.81-23.66,30.92-35.73,10.08-12.09,20-24.33,29.32-36.99.31-.46,2.55-3.37,5.54-7.57,2.97-4.22,6.84-9.69,9.9-15.46.36-.73.74-1.45,1.09-2.18.3-.74.61-1.47.91-2.2.52-1.49.95-2.99,1.17-4.44.22-1.45.23-2.87-.15-4.06-.38-1.19-1.19-2.09-2.19-2.58-.99-.51-2.07-.68-3.03-.75-.96-.07-1.81-.01-2.51.05-1.4.13-2.2.31-2.23.21-.03-.09.72-.45,2.14-.78.71-.16,1.58-.31,2.62-.33,1.03-.02,2.23.07,3.48.59.61.27,1.24.65,1.76,1.19.52.54.95,1.21,1.23,1.94.56,1.48.61,3.11.45,4.72-.17,1.61-.55,3.22-1.03,4.82-.29.79-.58,1.59-.87,2.39-.33.78-.69,1.54-1.04,2.31-2.94,6.08-6.67,11.72-9.55,16.06-2.91,4.33-5.09,7.3-5.4,7.77Z"/><path class="cls-2" d="M287.55,55.62c-6.23,2.83-12.39,5.98-18.31,9.52-1.48.88-3,1.71-4.46,2.64l-4.39,2.75c-2.95,1.8-5.78,3.79-8.68,5.68-11.46,7.75-22.54,16.09-33.35,24.76-21.6,17.36-42.19,35.99-61.83,55.56-19.57,19.64-38.2,40.23-55.56,61.83-8.66,10.81-17,21.89-24.76,33.35-1.89,2.89-3.89,5.72-5.68,8.68l-2.75,4.39c-.93,1.46-1.76,2.97-2.64,4.46-3.54,5.92-6.69,12.09-9.52,18.31-.18.44-1.53,3.32-2.73,7.61-1.2,4.28-2.1,10.07-1.45,15.72.32,2.81,1,5.58,2.14,7.92,1.1,2.36,2.7,4.25,4.44,5.3.87.52,1.76.8,2.57.98.82.12,1.55.14,2.16.08.29-.03.56-.06.81-.09.21-.04.41-.08.6-.12.33-.06.52-.07.53-.02s-.13.15-.44.3c-.18.08-.37.17-.58.27-.26.08-.54.16-.83.24-.63.16-1.43.24-2.36.2-.92-.1-1.96-.33-3-.85-2.07-1.04-3.99-3.05-5.32-5.55-1.38-2.48-2.24-5.41-2.72-8.38-.95-5.98-.22-12.11.9-16.65,1.12-4.56,2.46-7.61,2.65-8.08,2.91-6.41,6.09-12.63,9.68-18.63.89-1.5,1.73-3.03,2.67-4.5l2.78-4.43c1.81-2.98,3.82-5.83,5.73-8.75,7.81-11.54,16.19-22.67,24.9-33.53,17.44-21.7,36.13-42.35,55.77-62.06,19.71-19.64,40.37-38.33,62.06-55.77,10.86-8.7,21.99-17.09,33.53-24.9,2.92-1.91,5.77-3.92,8.75-5.73l4.43-2.78c1.47-.94,3-1.78,4.5-2.67,6-3.59,12.22-6.77,18.63-9.68.47-.19,3.52-1.53,8.08-2.65,4.54-1.12,10.67-1.85,16.65-.9,2.97.48,5.9,1.34,8.38,2.72,2.5,1.33,4.51,3.26,5.55,5.32.51,1.04.75,2.08.85,3,.04.93-.04,1.73-.2,2.36-.08.29-.16.57-.24.83-.09.21-.18.4-.27.58-.15.31-.25.46-.3.44s-.03-.21.02-.53c.04-.19.08-.38.12-.6.03-.25.06-.52.09-.81.06-.61.04-1.34-.08-2.16-.18-.81-.46-1.7-.98-2.57-1.05-1.74-2.94-3.34-5.3-4.44-2.34-1.14-5.11-1.81-7.92-2.14-5.65-.65-11.45.25-15.72,1.45-4.29,1.2-7.16,2.55-7.61,2.73Z"/><path class="cls-2" d="M193.93,135.92c.32,3.83-.04,7.67-.84,11.38-.34,1.88-.97,3.67-1.51,5.49-.72,1.75-1.31,3.56-2.21,5.23-3.29,6.81-7.91,12.88-13.2,18.16-5.28,5.29-11.35,9.91-18.16,13.2-1.67.9-3.48,1.49-5.23,2.21-1.82.54-3.61,1.18-5.49,1.51-3.71.79-7.55,1.16-11.38.84-.26-.03-3.57-.46-6.58-1.64-1.51-.55-2.91-1.32-3.9-1.96-.97-.7-1.54-1.22-1.44-1.39s.86.02,1.92.39c1.09.31,2.51.76,3.99,1.03,2.94.62,5.99.69,6.23.73,3.52.29,7.09-.04,10.56-.78,1.75-.31,3.44-.92,5.15-1.41,1.65-.69,3.35-1.23,4.93-2.09,6.45-3.12,12.27-7.53,17.38-12.64,5.12-5.11,9.53-10.93,12.64-17.38.85-1.58,1.4-3.29,2.09-4.93.5-1.71,1.11-3.39,1.41-5.15.74-3.47,1.08-7.04.78-10.56-.04-.25-.11-3.29-.73-6.23-.27-1.48-.72-2.9-1.03-3.99-.37-1.06-.56-1.82-.39-1.92s.69.48,1.39,1.44c.64.99,1.41,2.39,1.96,3.9,1.18,3,1.61,6.31,1.64,6.58Z"/><path class="cls-2" d="M115.98,200.24c4.01-1.91,8.13-3.55,12.31-5.02,4.19-1.4,8.43-2.68,12.73-3.71,8.6-2.03,17.4-3.43,26.37-3.24.16-.04,2.09.29,3.94.67,1.85.51,3.58,1.16,3.5,1.54-.08.39-1.91.45-3.71.47-1.83.14-3.65.13-3.81.18-8.56-.19-17.2,1.17-25.61,3.16-4.21,1.01-8.37,2.26-12.47,3.63-4.08,1.44-8.1,3.04-11.99,4.89-.14.07-1.85.76-3.6,1.37-1.69.68-3.43,1.27-3.64.94-.21-.33,1.18-1.55,2.68-2.71,1.53-1.08,3.18-2.09,3.32-2.17Z"/><path class="cls-2" d="M200.24,533.85c-1.91-4.01-3.55-8.13-5.02-12.31-1.4-4.19-2.68-8.43-3.71-12.73-2.03-8.6-3.43-17.4-3.24-26.37-.04-.16.29-2.09.67-3.94.51-1.85,1.16-3.58,1.54-3.5.39.08.45,1.91.47,3.71.14,1.83.13,3.65.18,3.81-.19,8.56,1.17,17.2,3.16,25.61,1.01,4.21,2.26,8.37,3.63,12.47,1.44,4.08,3.04,8.1,4.89,11.99.07.14.76,1.85,1.37,3.6.68,1.69,1.27,3.43.94,3.64-.33.21-1.55-1.18-2.71-2.68-1.08-1.53-2.09-3.18-2.17-3.32Z"/><path class="cls-2" d="M306.64,609.74c-9.32-12.66-19.24-24.89-29.32-36.99-10.11-12.08-20.43-23.97-30.92-35.73-20.98-23.5-42.51-46.53-64.76-68.83-22.29-22.25-45.32-43.78-68.83-64.76-11.76-10.48-23.66-20.81-35.73-30.92-12.09-10.08-24.33-20-36.99-29.32-.46-.31-3.37-2.55-7.57-5.54-4.22-2.97-9.69-6.84-15.46-9.9-.73-.36-1.45-.74-2.18-1.09-.74-.3-1.47-.61-2.2-.91-1.49-.52-2.99-.95-4.44-1.17-1.45-.22-2.87-.23-4.06.15-1.19.38-2.09,1.19-2.58,2.19-.51.99-.68,2.07-.75,3.03-.07.96-.01,1.81.05,2.51.13,1.4.31,2.2.21,2.23-.09.03-.45-.72-.78-2.14-.16-.71-.31-1.58-.33-2.62-.02-1.03.07-2.23.59-3.48.27-.61.65-1.24,1.19-1.76.54-.52,1.21-.95,1.94-1.23,1.48-.56,3.11-.61,4.72-.45,1.61.17,3.22.55,4.82,1.03.79.29,1.59.58,2.39.87.78.33,1.54.69,2.31,1.04,6.08,2.94,11.72,6.67,16.06,9.55,4.33,2.91,7.3,5.09,7.77,5.4,12.74,9.38,25,19.33,37.13,29.44,12.1,10.13,24.02,20.47,35.8,30.97,23.54,21.02,46.6,42.57,68.94,64.87,22.3,22.34,43.85,45.4,64.87,68.94,10.5,11.78,20.84,23.7,30.97,35.8,10.11,12.12,20.05,24.39,29.44,37.13.32.47,2.5,3.44,5.4,7.77,2.88,4.35,6.61,9.98,9.55,16.06.35.77.71,1.53,1.04,2.31.29.8.58,1.6.87,2.39.48,1.6.86,3.21,1.03,4.82.16,1.6.11,3.24-.45,4.72-.28.74-.71,1.4-1.23,1.94-.52.54-1.15.92-1.76,1.19-1.25.53-2.45.61-3.48.59-1.03-.02-1.91-.17-2.62-.33-1.42-.32-2.17-.69-2.14-.78.03-.1.83.08,2.23.21.7.06,1.55.12,2.51.05.95-.07,2.03-.24,3.03-.75,1-.49,1.81-1.39,2.19-2.58.38-1.2.37-2.62.15-4.06-.22-1.45-.65-2.95-1.17-4.44-.3-.73-.6-1.46-.91-2.2-.34-.73-.72-1.45-1.09-2.18-3.07-5.77-6.94-11.25-9.9-15.46-3-4.21-5.23-7.11-5.54-7.57Z"/><path class="cls-2" d="M286.43,596.84c-6.41-2.91-12.63-6.09-18.63-9.68-1.5-.89-3.03-1.73-4.5-2.67l-4.43-2.78c-2.98-1.81-5.83-3.82-8.75-5.73-11.54-7.81-22.67-16.19-33.53-24.9-21.7-17.44-42.35-36.13-62.06-55.77-19.64-19.71-38.33-40.37-55.77-62.06-8.7-10.86-17.09-21.99-24.9-33.53-1.91-2.92-3.92-5.77-5.73-8.75l-2.78-4.43c-.94-1.47-1.78-3-2.67-4.5-3.59-6-6.77-12.22-9.68-18.63-.19-.47-1.53-3.52-2.65-8.08-1.12-4.54-1.85-10.67-.9-16.65.48-2.97,1.34-5.9,2.72-8.38,1.33-2.5,3.26-4.51,5.32-5.55,1.04-.51,2.08-.75,3-.85.93-.04,1.73.04,2.36.2.29.08.57.16.83.24.21.09.4.18.58.27.31.15.46.25.44.3s-.21.03-.53-.02c-.19-.04-.38-.08-.6-.12-.25-.03-.52-.06-.81-.09-.61-.06-1.34-.04-2.16.08-.81.18-1.7.46-2.57.98-1.74,1.05-3.34,2.94-4.44,5.3-1.14,2.34-1.81,5.11-2.14,7.92-.65,5.65.25,11.45,1.45,15.72,1.2,4.29,2.55,7.16,2.73,7.61,2.83,6.23,5.98,12.39,9.52,18.31.88,1.48,1.71,3,2.64,4.46l2.75,4.39c1.8,2.95,3.79,5.78,5.68,8.68,7.75,11.46,16.09,22.54,24.76,33.35,17.36,21.6,35.99,42.19,55.56,61.83,19.64,19.57,40.23,38.2,61.83,55.56,10.81,8.66,21.89,17,33.35,24.76,2.89,1.89,5.72,3.89,8.68,5.68l4.39,2.75c1.46.93,2.97,1.76,4.46,2.64,5.92,3.54,12.09,6.69,18.31,9.52.44.18,3.32,1.53,7.61,2.73,4.28,1.2,10.07,2.1,15.72,1.45,2.81-.32,5.58-1,7.92-2.14,2.36-1.1,4.25-2.7,5.3-4.44.52-.87.8-1.76.98-2.57.12-.82.14-1.55.08-2.16-.03-.29-.06-.56-.09-.81-.04-.21-.08-.41-.12-.6-.06-.33-.07-.52-.02-.53s.15.13.3.44c.08.18.17.37.27.58.08.26.16.54.24.83.16.63.24,1.43.2,2.36-.1.92-.33,1.96-.85,3-1.04,2.07-3.05,3.99-5.55,5.32-2.48,1.38-5.41,2.24-8.38,2.72-5.98.95-12.11.22-16.65-.9-4.56-1.12-7.61-2.46-8.08-2.65Z"/><path class="cls-2" d="M191.09,513.7c.29-3.52-.04-7.09-.78-10.56-.31-1.75-.92-3.44-1.41-5.15-.69-1.65-1.23-3.35-2.09-4.93-3.12-6.45-7.53-12.27-12.64-17.38-5.11-5.12-10.93-9.53-17.38-12.64-1.58-.85-3.29-1.4-4.93-2.09-1.71-.5-3.39-1.11-5.15-1.41-3.47-.74-7.04-1.08-10.56-.78-.25.04-3.29.11-6.23.73-1.48.27-2.9.72-3.99,1.03-1.06.37-1.82.56-1.92.39s.48-.69,1.44-1.39c.99-.64,2.39-1.41,3.9-1.96,3-1.18,6.31-1.61,6.58-1.64,3.83-.32,7.67.04,11.38.84,1.88.34,3.67.97,5.49,1.51,1.75.72,3.56,1.31,5.23,2.21,6.81,3.29,12.88,7.91,18.16,13.2,5.29,5.28,9.91,11.35,13.2,18.16.9,1.67,1.49,3.48,2.21,5.23.54,1.82,1.18,3.61,1.51,5.49.79,3.71,1.16,7.55.84,11.38-.03.26-.46,3.57-1.64,6.58-.55,1.51-1.32,2.91-1.96,3.9-.7.97-1.22,1.54-1.39,1.44s.02-.86.39-1.92c.31-1.09.76-2.51,1.03-3.99.62-2.94.69-5.99.73-6.23Z"/><path class="cls-2" d="M117.23,447.03c3.89,1.85,7.91,3.46,11.99,4.89,4.11,1.37,8.26,2.62,12.47,3.63,8.41,1.99,17.05,3.35,25.61,3.16.16.04,1.98.03,3.81.18,1.8.02,3.63.08,3.71.47.08.38-1.65,1.03-3.5,1.54-1.85.38-3.78.72-3.94.67-8.97.19-17.77-1.21-26.37-3.24-4.3-1.03-8.54-2.3-12.73-3.71-4.17-1.47-8.29-3.11-12.31-5.02-.14-.07-1.78-1.08-3.32-2.17-1.5-1.16-2.88-2.38-2.68-2.71.21-.33,1.95.26,3.64.94,1.74.61,3.46,1.3,3.6,1.37Z"/></g><g id="DecorativeElement_3_Shape"><g class="cls-1"><path class="cls-2" d="M324.92,38.27c-7.13,21.39-76.79,101.92-130.76,155.89-53.97,53.97-134.5,123.63-155.89,130.76,21.39,7.13,101.92,76.79,155.89,130.76,53.97,53.97,123.63,134.5,130.76,155.89,7.13-21.39,76.79-101.92,130.76-155.89,53.97-53.97,134.5-123.63,155.89-130.76-21.39-7.13-101.92-76.79-155.89-130.76-53.97-53.97-123.63-134.5-130.76-155.89Z"/></g></g></g></svg>