<?xml version="1.0" encoding="UTF-8"?><svg id="Line" xmlns="http://www.w3.org/2000/svg" viewBox="0 0 580.86 580.86"><defs><style>.cls-1{opacity:.24;}.cls-1,.cls-2{fill:#fff;stroke-width:0px;}</style></defs><g id="DecorativeElement_12"><g id="DecorativeElement_12_Lines"><path class="cls-2" d="M290.43,113.17c30.05,0,59.71,7.71,85.77,22.31,25.27,14.15,46.87,34.54,62.48,58.96v.02s.09.12.09.12v.02s.19.27.19.27l.15.12c12.2,14.84,21.15,35.43,29.05,53.6,8.06,18.55,14.83,34.11,23.4,40.41-8.57,6.3-15.33,21.86-23.4,40.41-7.92,18.23-16.9,38.88-29.16,53.73l-.13.13-.18.28c-15.61,24.42-37.22,44.81-62.48,58.96-26.06,14.59-55.72,22.31-85.77,22.31s-59.71-7.71-85.77-22.31c-25.27-14.15-46.87-34.54-62.48-58.96l-.22-.35-.14-.12c-12.23-14.85-21.19-35.47-29.1-53.67-8.06-18.55-14.83-34.11-23.4-40.41,8.57-6.3,15.33-21.86,23.4-40.41,7.9-18.18,16.86-38.77,29.06-53.62l.15-.12.26-.41c15.61-24.42,37.22-44.81,62.48-58.96,26.06-14.59,55.72-22.31,85.77-22.31M290.43,110.17c-63.36,0-119.02,32.95-150.78,82.65,0,0,0,0,0,0-28.02,33.85-38.77,96.16-58.85,96.16,20.08,0,30.83,62.32,58.85,96.16h0c31.76,49.7,87.42,82.65,150.78,82.65s119.02-32.95,150.78-82.65c0,0,0,0,0,0,28.02-33.85,38.77-96.16,58.85-96.16-20.08,0-30.83-62.32-58.85-96.16,0,0,0,0,0,0-31.76-49.7-87.42-82.65-150.78-82.65h0Z"/><path class="cls-2" d="M290.43,87.87c6.3,8.57,21.86,15.33,40.41,23.4,18.27,7.94,38.98,16.95,53.84,29.25l.08.07.1.07.06.04.06.04c24.42,15.61,44.81,37.22,58.96,62.48,14.59,26.06,22.31,55.72,22.31,85.77s-7.71,59.71-22.31,85.77c-14.12,25.21-34.45,46.78-58.8,62.38l-.17.08-.2.17-.07.05-.08.08c-14.86,12.27-35.53,21.26-53.77,29.19-18.55,8.06-34.11,14.83-40.41,23.4-6.3-8.57-21.86-15.33-40.41-23.4-18.23-7.92-38.88-16.9-53.73-29.16l-.13-.13-.27-.18c-24.42-15.61-44.81-37.22-58.96-62.48-14.59-26.06-22.31-55.72-22.31-85.77s7.71-59.71,22.31-85.77c14.15-25.26,34.54-46.87,58.96-62.48l.35-.22.12-.14c14.85-12.23,35.47-21.19,53.67-29.11,18.54-8.06,34.11-14.83,40.41-23.4M290.43,79.35c0,20.08-62.32,30.83-96.16,58.85,0,0,0,0,0,0-49.7,31.76-82.65,87.42-82.65,150.78s32.95,119.02,82.65,150.78h0c33.85,28.02,96.16,38.77,96.16,58.85,0-20.08,62.32-30.83,96.16-58.85,0,0,0,0,0,0,49.7-31.76,82.65-87.42,82.65-150.78s-32.95-119.02-82.65-150.78c0,0,0,0,0,0-33.85-28.02-96.16-38.77-96.16-58.85h0Z"/><path class="cls-2" d="M404.45,25.72c.15.61.32,1.21.45,1.83l.29,1.86c.08.62.23,1.24.25,1.87l.1,1.88c.09,1.27.07,2.46.07,3.67v220.46c0,1.38-.64,33.15-1.43,33.15s-1.43-31.77-1.43-33.15V36.82c0-1.2.02-2.43-.07-3.56l-.09-1.73c-.01-.58-.16-1.14-.23-1.71l-.26-1.71c-.12-.56-.28-1.12-.42-1.68-.05-.16-.17-.77-.42-1.69-.15-.46-.33-.99-.53-1.6-.19-.61-.41-1.28-.74-1.97-1.12-2.85-3.07-6.36-5.54-9.46-2.44-3.12-5.34-5.84-7.71-7.6-.58-.46-1.16-.8-1.65-1.15-.47-.29-.91-.55-1.32-.8-.75-.38-1.2-.62-1.18-.72.02-.09.53-.04,1.4.19.42.15.93.33,1.5.58.55.28,1.2.57,1.85.97,2.65,1.54,5.88,4.12,8.64,7.23,2.79,3.08,5.06,6.71,6.4,9.7.38.73.65,1.44.89,2.09.24.65.46,1.22.64,1.7.32.99.46,1.65.52,1.82Z"/><path class="cls-2" d="M331.69,14.65c1.11-1.37,2.44-2.53,3.86-3.52,1.41-1.01,2.95-1.81,4.5-2.48l2.35-.91c.4-.14.78-.32,1.18-.44l1.22-.33c.82-.21,1.63-.46,2.46-.63l2.52-.38c.84-.17,1.7-.13,2.55-.16.85-.01,1.71-.08,2.56.04.85.09,1.71.16,2.55.27l2.5.57c3.29.93,6.41,2.4,9.19,4.33,5.53,3.92,9.87,9.14,13.33,14.75,3.5,5.61,6.25,11.62,8.49,17.78,4.46,12.34,7.15,25.24,8.23,38.28.29,3.26.4,6.54.46,9.81,0,3.29-.08,6.55-.29,9.81-.41,6.52-1.09,13.07-2.79,19.5-.06.23-.47,1.72-1.29,3.78-.81,2.04-2.05,4.69-3.99,6.9-.97,1.1-2.14,2.06-3.44,2.64-1.3.58-2.69.68-3.77.46-1.09-.22-1.88-.68-2.37-1.06-.49-.38-.7-.66-.64-.74.06-.09.38.04.92.23.53.2,1.31.44,2.22.46.92.02,1.96-.21,2.93-.78.97-.58,1.85-1.47,2.59-2.49,1.49-2.05,2.46-4.56,3.08-6.52.63-1.96.94-3.41,1-3.62,1.61-6.11,2.3-12.53,2.7-18.93.21-3.21.28-6.43.29-9.62-.06-3.2-.17-6.41-.45-9.6-1.06-12.78-3.71-25.49-8.07-37.53-2.18-6.02-4.86-11.86-8.23-17.25-3.33-5.4-7.46-10.32-12.54-13.92-2.55-1.77-5.37-3.08-8.31-3.92l-2.24-.51c-.76-.1-1.52-.15-2.28-.24-.76-.12-1.53-.05-2.29-.04-.77.04-1.53-.01-2.29.15l-2.28.34c-.75.16-1.5.39-2.25.58l-1.12.3c-.37.11-.73.27-1.09.41l-2.18.84c-1.41.61-2.77,1.32-3.99,2.2-1.23.86-2.37,1.85-3.3,3.01-.14.16-1.07,1.19-2,2.91-.95,1.71-1.69,4.21-1.78,6.79-.1,2.56.44,5.18,1.33,6.81.23.37.47.74.71.9.24.17.4.18.6.1l.26-.2.18-.2c.11-.11.19-.17.23-.15.05.02.06.11.03.28-.02.08-.03.19-.08.31-.06.11-.14.25-.25.4-.25.3-.87.45-1.37.21-.51-.21-.85-.59-1.23-1.01-1.37-1.74-2.26-4.52-2.43-7.41-.18-2.89.45-5.87,1.43-7.96.96-2.11,2.01-3.4,2.17-3.59Z"/><path class="cls-2" d="M351.16,57.09c-2.54-2.08-4.04-4.92-5.08-7.74-.24-.72-.5-1.42-.66-2.18-.17-.75-.4-1.49-.46-2.27-.09-.77-.22-1.53-.19-2.31,0-.77-.03-1.55.09-2.31.59-6.18,4.15-11.85,9.21-15.3,2.53-1.74,5.47-2.91,8.54-3.34,3.06-.44,6.23-.1,9.14.92.71.29,1.45.53,2.13.87l2.02,1.08,1.88,1.29c.63.43,1.17.96,1.75,1.44,2.25,2,4.21,4.3,5.82,6.79,3.29,4.94,5.55,10.41,7.25,15.98,1.67,5.6,2.86,11.22,3.94,16.9,1.05,5.68,1.86,11.41,2.2,17.22.2,2.9.2,5.82.07,8.75-.14,2.93-.51,5.88-1.28,8.79-.08.2-.44,1.56-1.31,3.4-.23.45-.51.93-.79,1.43-.34.48-.65,1-1.08,1.48-.78.99-1.9,1.92-3.21,2.47-1.31.56-2.85.61-4.08.16-1.24-.43-2.15-1.24-2.74-2-1.2-1.56-1.25-2.87-1.12-2.9.22-.1.67,1.05,1.93,2.14.61.54,1.43,1.05,2.36,1.23.93.19,1.93.03,2.79-.46.86-.49,1.63-1.22,2.18-2.08.3-.4.52-.87.77-1.28.2-.45.39-.87.57-1.27.63-1.64.88-2.89.95-3.07.69-2.63,1.05-5.4,1.18-8.2.12-2.8.12-5.61-.07-8.43-.33-5.64-1.13-11.28-2.16-16.87-1.06-5.58-2.26-11.19-3.86-16.58-1.64-5.38-3.82-10.62-6.89-15.23-1.5-2.33-3.31-4.42-5.33-6.23-.53-.42-1.01-.91-1.57-1.29l-1.66-1.14-1.77-.94c-.6-.3-1.23-.5-1.84-.75-2.5-.87-5.19-1.16-7.8-.79-2.61.36-5.14,1.36-7.33,2.87-4.4,2.99-7.48,7.95-7.98,13.22-.28,2.65.16,5.26,1.06,7.82.93,2.53,2.26,4.92,4.19,6.49.13.11.99.92,2.49,1.51,1.46.59,3.73.73,5.62-.19.92-.42,1.73-1.19,1.8-1.78.02-.39-.02-.94-.14-1.14-.06-.08-.08-.15-.12-.16-.01-.04-.06,0-.1-.02-.05.03-.1.02-.16.06-.23.13-.44.39-.53.66-.09.27-.12.53-.1.76.01.23.06.42.09.55.02.14.02.23-.02.26-.04.03-.12,0-.23-.11-.12-.1-.27-.27-.39-.54-.24-.51-.41-1.58.53-2.46.11-.11.28-.19.43-.27.19-.05.37-.13.6-.1.46,0,.85.3,1.11.6.47.65.55,1.23.63,1.95.02.85-.36,1.58-.81,2.14-.45.57-1.01,1.01-1.59,1.38-2.37,1.49-5.36,1.58-7.43.93-2.1-.64-3.3-1.66-3.47-1.79Z"/><path class="cls-2" d="M298.07.76c4.41.81,8.57,2.52,12.51,4.31,1.98.91,3.91,1.82,5.85,2.61,1.94.8,3.89,1.44,5.87,1.72.49.1.99.13,1.48.15.49.03.98.07,1.51.03,1.04-.05,2.1-.03,3.13-.15,1.03-.13,2.08-.17,3.08-.39l1.52-.28,1.49-.39c1.97-.55,3.88-1.3,5.66-2.32,1.81-.99,3.5-2.22,5.37-3.44.12-.07,1.85-1.06,3.81-1.5.23-.05.47-.1.72-.15.23-.02.47-.03.72-.05.46-.02.88-.05,1.25.03.73.12,1.17.28,1.17.47-.01.42-1.73.75-3.17,1.59-1.46.8-2.82,1.93-2.96,2.01-1.74,1.13-3.55,2.44-5.53,3.53-1.96,1.12-4.1,1.96-6.27,2.57-.55.14-1.09.3-1.64.43l-1.66.31c-1.1.24-2.22.29-3.33.42-1.11.12-2.22.1-3.33.15-.54.04-1.13,0-1.72-.04-.58-.02-1.17-.06-1.73-.18-2.3-.33-4.48-1.06-6.52-1.9-2.05-.84-4.02-1.77-5.96-2.66-3.89-1.77-7.78-3.36-11.88-4.11-.15-.03-1.86-.54-3.6-.94-1.73-.42-3.49-.77-3.49-1.19,0-.37,1.8-.74,3.68-.82.94-.01,1.9-.06,2.63.02.73.06,1.25.12,1.33.13Z"/><path class="cls-2" d="M179.18,26.42c-.14.56-.3,1.12-.42,1.68l-.26,1.71c-.07.57-.22,1.14-.23,1.71l-.09,1.73c-.09,1.13-.06,2.35-.07,3.56v220.46c0,1.38-.64,33.15-1.43,33.15s-1.43-31.77-1.43-33.15V36.82c0-1.21-.02-2.39.07-3.67l.1-1.88c.02-.63.17-1.24.25-1.87l.29-1.86c.13-.61.3-1.22.45-1.83.05-.17.2-.83.52-1.82.18-.49.4-1.06.64-1.7.24-.65.51-1.36.89-2.09,1.34-3,3.61-6.62,6.4-9.7,2.77-3.11,5.99-5.69,8.64-7.23.65-.4,1.3-.68,1.85-.97.57-.25,1.09-.43,1.5-.58.87-.23,1.38-.28,1.4-.19.03.1-.42.34-1.18.72-.41.25-.85.51-1.32.8-.49.35-1.06.69-1.65,1.15-2.36,1.76-5.26,4.47-7.71,7.6-2.47,3.1-4.42,6.62-5.54,9.46-.32.69-.54,1.37-.74,1.97-.2.6-.38,1.14-.53,1.6-.25.93-.37,1.54-.42,1.69Z"/><path class="cls-2" d="M141.83,12.91c6.31,7.92,11.5,16.95,14.06,26.93.66,2.48,1.08,5.03,1.35,7.58l.17,1.92c.04.64.04,1.29.07,1.93.06,1.31.02,2.52.03,3.78v10.34c-5.71.02-1.58,0-2.86-.01v-2.14c1.27,0-2.85-.03,2.86-.02v7.12h-.01s1.18,1.35,1.18,1.35c.86.95,1.62,1.97,2.4,2.98.8.99,1.51,2.06,2.23,3.11,2.86,4.23,5.24,8.77,7.15,13.49,1.91,4.72,3.41,9.59,4.5,14.54,1.08,4.95,1.84,9.96,2.36,14.98.04.18.07,1.35.14,3.01.02.82.05,1.76.08,2.79-.01.98-.02,2.05-.03,3.14,0,2.12-.14,4.22-.29,5.78-.15,1.56-.32,2.59-.52,2.59-.2,0-.4-1.03-.59-2.58-.2-1.83-.41-3.82-.61-5.71-.11-1.07-.22-2.11-.31-3.08-.13-1-.24-1.93-.35-2.73-.2-1.62-.32-2.77-.36-2.94-.5-4.93-1.25-9.82-2.3-14.64-1.06-4.82-2.52-9.54-4.36-14.09-1.85-4.55-4.13-8.91-6.87-12.96-.69-1.01-1.37-2.03-2.14-2.98-.75-.97-1.48-1.95-2.3-2.86l-1.27-1.48c-.2-.26-.47-.46-.57-.74v-8.11c5.71,0,1.58.02,2.86.02v2.14c-1.27,0,2.85.03-2.86.01v-10.34c-.01-1.24.03-2.53-.03-3.72-.02-.61-.03-1.21-.06-1.82l-.16-1.81c-.26-2.41-.65-4.81-1.28-7.17-2.42-9.45-7.4-18.17-13.53-25.85-.21-.28-2.74-3.68-5.46-6.85-2.68-3.2-5.57-6.12-5.34-6.41.26-.33,3.67,2.1,6.79,5.01,3.15,2.87,6.02,6.18,6.24,6.47Z"/><path class="cls-2" d="M441.26,14.69c-6.12,7.68-11.1,16.4-13.53,25.85-.63,2.35-1.02,4.76-1.28,7.17l-.16,1.81c-.03.6-.04,1.21-.06,1.82-.05,1.19-.02,2.48-.03,3.72v10.34c-5.71.02-1.58,0-2.86-.01v-2.14c1.27,0-2.85-.03,2.86-.02v8.11c-.11.27-.38.48-.57.74l-1.27,1.48c-.82.91-1.55,1.89-2.3,2.86-.77.95-1.45,1.97-2.14,2.98-2.74,4.05-5.03,8.42-6.87,12.96-1.84,4.55-3.29,9.27-4.36,14.09-1.05,4.82-1.8,9.71-2.3,14.64-.04.17-.15,1.32-.36,2.94-.1.8-.22,1.72-.35,2.73-.1.97-.21,2.01-.31,3.08-.2,1.89-.42,3.87-.61,5.71-.19,1.55-.4,2.58-.59,2.58s-.37-1.03-.52-2.59c-.15-1.56-.29-3.66-.29-5.78-.01-1.09-.02-2.15-.03-3.14.03-1.03.06-1.97.08-2.79.06-1.66.1-2.84.14-3.01.51-5.02,1.28-10.03,2.36-14.98,1.09-4.95,2.59-9.82,4.5-14.54,1.92-4.71,4.29-9.26,7.15-13.49.72-1.05,1.43-2.12,2.23-3.11.78-1.01,1.54-2.03,2.4-2.98l1.18-1.36h-.01s0-.9,0-.9v-6.21c5.71,0,1.58.02,2.86.02v2.14c-1.27,0,2.85.03-2.86.01v-10.34c.01-1.26-.03-2.47.03-3.78.02-.64.03-1.29.07-1.93l.17-1.92c.28-2.56.69-5.1,1.35-7.58,2.56-9.97,7.75-19.01,14.06-26.93.22-.29,3.08-3.6,6.24-6.47,3.12-2.91,6.53-5.33,6.79-5.01.23.29-2.65,3.21-5.34,6.41-2.72,3.17-5.25,6.57-5.46,6.85Z"/><path class="cls-2" d="M246.96,16.47c-.93-1.15-2.07-2.14-3.3-3.01-1.22-.88-2.58-1.59-3.99-2.2l-2.18-.84c-.37-.13-.72-.3-1.09-.41l-1.12-.3c-.75-.19-1.49-.43-2.25-.58l-2.28-.34c-.76-.16-1.53-.11-2.29-.15-.77-.01-1.53-.08-2.29.04-.76.08-1.52.14-2.28.24l-2.24.51c-2.94.83-5.75,2.15-8.31,3.92-5.07,3.6-9.21,8.52-12.54,13.92-3.37,5.39-6.05,11.23-8.23,17.25-4.36,12.05-7,24.75-8.07,37.53-.29,3.2-.39,6.4-.45,9.6,0,3.19.08,6.41.29,9.62.4,6.4,1.08,12.82,2.7,18.93.06.22.37,1.66,1,3.62.63,1.96,1.59,4.46,3.08,6.52.74,1.02,1.63,1.91,2.59,2.49.97.57,2.01.8,2.93.78.92-.02,1.69-.27,2.22-.46.54-.19.86-.32.92-.23.05.07-.16.36-.64.74-.48.38-1.27.84-2.37,1.06-1.08.22-2.47.12-3.77-.46-1.3-.58-2.47-1.54-3.44-2.64-1.95-2.21-3.18-4.86-3.99-6.9-.82-2.05-1.22-3.55-1.29-3.78-1.7-6.43-2.38-12.98-2.79-19.5-.21-3.26-.28-6.52-.29-9.81.06-3.28.17-6.55.46-9.81,1.09-13.04,3.77-25.94,8.23-38.28,2.23-6.16,4.98-12.17,8.49-17.78,3.46-5.61,7.81-10.83,13.33-14.75,2.78-1.93,5.9-3.4,9.19-4.33l2.5-.57c.85-.11,1.7-.18,2.55-.27.85-.13,1.71-.06,2.56-.04.85.04,1.71,0,2.55.16l2.52.38c.83.17,1.64.42,2.46.63l1.22.33c.41.12.79.29,1.18.44l2.35.91c1.55.67,3.09,1.47,4.5,2.48,1.42.99,2.75,2.15,3.86,3.52.16.18,1.21,1.48,2.17,3.59.98,2.1,1.61,5.07,1.43,7.96-.17,2.89-1.06,5.67-2.43,7.41-.38.42-.72.81-1.23,1.01-.49.24-1.11.09-1.37-.21-.11-.15-.19-.28-.25-.4-.05-.12-.06-.23-.08-.31-.03-.17-.02-.26.03-.28.05-.02.13.04.23.15l.18.2.26.2c.2.08.37.07.6-.1.24-.16.48-.52.71-.9.89-1.62,1.43-4.24,1.33-6.81-.08-2.58-.83-5.08-1.78-6.79-.93-1.72-1.87-2.75-2-2.91Z"/><path class="cls-2" d="M227.9,54.87c1.94-1.57,3.27-3.97,4.19-6.49.9-2.56,1.33-5.17,1.06-7.82-.5-5.27-3.58-10.22-7.98-13.22-2.19-1.51-4.72-2.51-7.33-2.87-2.61-.37-5.3-.09-7.8.79-.61.26-1.25.45-1.84.75l-1.77.94-1.66,1.14c-.56.38-1.04.86-1.57,1.29-2.02,1.8-3.83,3.9-5.33,6.23-3.07,4.61-5.25,9.85-6.89,15.23-1.61,5.38-2.8,10.99-3.86,16.58-1.04,5.59-1.83,11.23-2.16,16.87-.2,2.82-.19,5.64-.07,8.43.13,2.79.49,5.56,1.18,8.2.07.18.32,1.43.95,3.07.18.39.37.82.57,1.27.25.4.46.88.77,1.28.56.87,1.32,1.6,2.18,2.08.86.48,1.86.65,2.79.46.93-.18,1.76-.69,2.36-1.23,1.26-1.09,1.7-2.24,1.93-2.14.14.03.08,1.34-1.12,2.9-.59.77-1.49,1.57-2.74,2-1.23.44-2.77.4-4.08-.16-1.31-.55-2.42-1.48-3.21-2.47-.43-.48-.73-1-1.08-1.48-.28-.5-.55-.98-.79-1.43-.87-1.83-1.22-3.19-1.31-3.4-.76-2.91-1.14-5.86-1.28-8.79-.13-2.93-.13-5.85.07-8.75.34-5.81,1.15-11.54,2.2-17.22,1.08-5.67,2.27-11.29,3.94-16.9,1.7-5.56,3.96-11.03,7.25-15.98,1.6-2.49,3.57-4.78,5.82-6.79.59-.48,1.12-1.01,1.75-1.44l1.88-1.29,2.02-1.08c.68-.34,1.42-.58,2.13-.87,2.9-1.02,6.07-1.35,9.14-.92,3.07.43,6.01,1.6,8.54,3.34,5.07,3.45,8.62,9.12,9.21,15.3.12.77.09,1.54.09,2.31.03.78-.1,1.54-.19,2.31-.06.77-.28,1.51-.46,2.27-.16.76-.42,1.47-.66,2.18-1.04,2.82-2.54,5.66-5.08,7.74-.17.13-1.37,1.16-3.47,1.79-2.07.65-5.07.55-7.43-.93-.59-.37-1.14-.81-1.59-1.38-.44-.56-.83-1.29-.81-2.14.08-.71.16-1.3.63-1.95.26-.3.65-.6,1.11-.6.23-.03.41.05.6.1.15.09.32.17.43.27.93.88.77,1.96.53,2.46-.12.27-.27.45-.39.54-.11.1-.19.14-.23.11-.04-.03-.04-.12-.02-.26.03-.13.08-.32.09-.55.02-.23,0-.49-.1-.76-.09-.26-.3-.53-.53-.66-.06-.04-.11-.03-.16-.06-.04.03-.09-.01-.1.02-.04,0-.05.08-.12.16-.12.21-.17.75-.14,1.14.06.59.88,1.36,1.8,1.78,1.89.92,4.16.78,5.62.19,1.5-.59,2.35-1.4,2.49-1.51Z"/><path class="cls-2" d="M283.33,3.56c-4.09.75-7.99,2.34-11.88,4.11-1.94.89-3.91,1.82-5.96,2.66-2.04.84-4.22,1.57-6.52,1.9-.57.11-1.15.15-1.73.18-.58.03-1.17.08-1.72.04-1.11-.06-2.22-.03-3.33-.15-1.11-.14-2.23-.18-3.33-.42l-1.66-.31c-.55-.13-1.09-.29-1.64-.43-2.17-.61-4.31-1.45-6.27-2.57-1.98-1.09-3.78-2.4-5.53-3.53-.14-.08-1.5-1.21-2.96-2.01-1.44-.84-3.16-1.18-3.17-1.59,0-.2.45-.35,1.17-.47.36-.08.78-.06,1.25-.03.25.02.48.03.72.05.25.05.49.1.72.15,1.96.44,3.69,1.44,3.81,1.5,1.87,1.22,3.56,2.44,5.37,3.44,1.79,1.02,3.69,1.77,5.66,2.32l1.49.39,1.52.28c1.01.23,2.06.26,3.08.39,1.03.12,2.09.09,3.13.15.53.04,1.02,0,1.51-.03.49-.02.99-.05,1.48-.15,1.97-.28,3.93-.92,5.87-1.72,1.94-.79,3.87-1.71,5.85-2.61,3.95-1.8,8.1-3.5,12.51-4.31.08-.01.6-.07,1.33-.13.73-.08,1.69-.03,2.63-.02,1.88.09,3.69.45,3.68.82,0,.41-1.76.77-3.49,1.19-1.74.41-3.46.91-3.6.94Z"/><path class="cls-2" d="M416.04,2.86h-251.23c-1.5,0-36.01-.64-36.01-1.43s34.51-1.43,36.01-1.43h251.23c1.5,0,36.01.64,36.01,1.43s-34.51,1.43-36.01,1.43Z"/><path class="cls-2" d="M401.68,554.43c.14-.56.3-1.12.42-1.68l.26-1.71c.07-.57.22-1.14.23-1.71l.09-1.73c.09-1.13.06-2.35.07-3.56v-220.46c0-1.38.64-33.15,1.43-33.15s1.43,31.77,1.43,33.15v220.46c0,1.21.02,2.39-.07,3.67l-.1,1.88c-.02.63-.17,1.24-.25,1.87l-.29,1.86c-.13.61-.3,1.22-.45,1.83-.05.17-.2.83-.52,1.82-.18.49-.4,1.06-.64,1.7-.24.65-.51,1.36-.89,2.09-1.34,3-3.61,6.62-6.4,9.7-2.77,3.11-5.99,5.69-8.64,7.23-.65.4-1.3.68-1.85.97-.57.25-1.09.43-1.5.58-.87.23-1.38.28-1.4.19-.03-.1.42-.34,1.18-.72.41-.25.85-.51,1.32-.8.49-.35,1.06-.69,1.65-1.15,2.36-1.76,5.26-4.47,7.71-7.6,2.47-3.1,4.42-6.62,5.54-9.46.32-.69.54-1.37.74-1.97.2-.6.38-1.14.53-1.6.25-.93.37-1.54.42-1.69Z"/><path class="cls-2" d="M333.89,564.39c.93,1.15,2.07,2.14,3.3,3.01,1.22.88,2.58,1.59,3.99,2.2l2.18.84c.37.13.72.3,1.09.41l1.12.3c.75.19,1.49.43,2.25.58l2.28.34c.76.16,1.53.11,2.29.15.77.01,1.53.08,2.29-.04.76-.08,1.52-.14,2.28-.24l2.24-.51c2.94-.83,5.75-2.15,8.31-3.92,5.07-3.6,9.21-8.52,12.54-13.92,3.37-5.39,6.05-11.23,8.23-17.25,4.36-12.05,7-24.75,8.07-37.53.29-3.2.39-6.4.45-9.6,0-3.19-.08-6.41-.29-9.62-.4-6.4-1.08-12.82-2.7-18.93-.06-.22-.37-1.66-1-3.62-.63-1.96-1.59-4.46-3.08-6.52-.74-1.02-1.63-1.91-2.59-2.49-.97-.57-2.01-.8-2.93-.78-.92.02-1.69.27-2.22.46-.54.19-.86.32-.92.23-.05-.07.16-.36.64-.74.48-.38,1.27-.84,2.37-1.06,1.08-.22,2.47-.12,3.77.46,1.3.58,2.47,1.54,3.44,2.64,1.95,2.21,3.18,4.86,3.99,6.9.82,2.05,1.22,3.55,1.29,3.78,1.7,6.43,2.38,12.98,2.79,19.5.21,3.26.28,6.52.29,9.81-.06,3.28-.17,6.55-.46,9.81-1.09,13.04-3.77,25.94-8.23,38.28-2.23,6.16-4.98,12.17-8.49,17.78-3.46,5.61-7.81,10.83-13.33,14.75-2.78,1.93-5.9,3.4-9.19,4.33l-2.5.57c-.85.11-1.7.18-2.55.27-.85.13-1.71.06-2.56.04-.85-.04-1.71,0-2.55-.16l-2.52-.38c-.83-.17-1.64-.42-2.46-.63l-1.22-.33c-.41-.12-.79-.29-1.18-.44l-2.35-.91c-1.55-.67-3.09-1.47-4.5-2.48-1.42-.99-2.75-2.15-3.86-3.52-.16-.18-1.21-1.48-2.17-3.59-.98-2.1-1.61-5.07-1.43-7.96.17-2.89,1.06-5.67,2.43-7.41.38-.42.72-.81,1.23-1.01.49-.24,1.11-.09,1.37.21.11.15.19.28.25.4.05.12.06.23.08.31.03.17.02.26-.03.28-.05.02-.13-.04-.23-.15l-.18-.2-.26-.2c-.2-.08-.37-.07-.6.1-.24.16-.48.52-.71.9-.89,1.62-1.43,4.24-1.33,6.81.08,2.58.83,5.08,1.78,6.79.93,1.72,1.87,2.75,2,2.91Z"/><path class="cls-2" d="M352.95,525.98c-1.94,1.57-3.27,3.97-4.19,6.49-.9,2.56-1.33,5.17-1.06,7.82.5,5.27,3.58,10.22,7.98,13.22,2.19,1.51,4.72,2.51,7.33,2.87,2.61.37,5.3.09,7.8-.79.61-.26,1.25-.45,1.84-.75l1.77-.94,1.66-1.14c.56-.38,1.04-.86,1.57-1.29,2.02-1.8,3.83-3.9,5.33-6.23,3.07-4.61,5.25-9.85,6.89-15.23,1.61-5.38,2.8-10.99,3.86-16.58,1.04-5.59,1.83-11.23,2.16-16.87.2-2.82.19-5.64.07-8.43-.13-2.79-.49-5.56-1.18-8.2-.07-.18-.32-1.43-.95-3.07-.18-.39-.37-.82-.57-1.27-.25-.4-.46-.88-.77-1.28-.56-.87-1.32-1.6-2.18-2.08-.86-.48-1.86-.65-2.79-.46-.93.18-1.76.69-2.36,1.23-1.26,1.09-1.7,2.24-1.93,2.14-.14-.03-.08-1.34,1.12-2.9.59-.77,1.49-1.57,2.74-2,1.23-.44,2.77-.4,4.08.16,1.31.55,2.42,1.48,3.21,2.47.43.48.73,1,1.08,1.48.28.5.55.98.79,1.43.87,1.83,1.22,3.19,1.31,3.4.76,2.91,1.14,5.86,1.28,8.79.13,2.93.13,5.85-.07,8.75-.34,5.81-1.15,11.54-2.2,17.22-1.08,5.67-2.27,11.29-3.94,16.9-1.7,5.56-3.96,11.03-7.25,15.98-1.6,2.49-3.57,4.78-5.82,6.79-.59.48-1.12,1.01-1.75,1.44l-1.88,1.29-2.02,1.08c-.68.34-1.42.58-2.13.87-2.9,1.02-6.07,1.35-9.14.92-3.07-.43-6.01-1.6-8.54-3.34-5.07-3.45-8.62-9.12-9.21-15.3-.12-.77-.09-1.54-.09-2.31-.03-.78.1-1.54.19-2.31.06-.77.28-1.51.46-2.27.16-.76.42-1.47.66-2.18,1.04-2.82,2.54-5.66,5.08-7.74.17-.13,1.37-1.16,3.47-1.79,2.07-.65,5.07-.55,7.43.93.59.37,1.14.81,1.59,1.38.44.56.83,1.29.81,2.14-.08.71-.16,1.3-.63,1.95-.26.3-.65.6-1.11.6-.23.03-.41-.05-.6-.1-.15-.09-.32-.17-.43-.27-.93-.88-.77-1.96-.53-2.46.12-.27.27-.45.39-.54.11-.1.19-.14.23-.11.04.03.04.12.02.26-.03.13-.08.32-.09.55-.02.23,0,.49.1.76.09.26.3.53.53.66.06.04.11.03.16.06.04-.03.09.01.1-.02.04,0,.05-.08.12-.16.12-.21.17-.75.14-1.14-.06-.59-.88-1.36-1.8-1.78-1.89-.92-4.16-.78-5.62-.19-1.5.59-2.35,1.4-2.49,1.51Z"/><path class="cls-2" d="M297.52,577.3c4.09-.75,7.99-2.34,11.88-4.11,1.94-.89,3.91-1.82,5.96-2.66,2.04-.84,4.22-1.57,6.52-1.9.57-.11,1.15-.15,1.73-.18.58-.03,1.17-.08,1.72-.04,1.11.06,2.22.03,3.33.15,1.11.14,2.23.18,3.33.42l1.66.31c.55.13,1.09.29,1.64.43,2.17.61,4.31,1.45,6.27,2.57,1.98,1.09,3.78,2.4,5.53,3.53.14.08,1.5,1.21,2.96,2.01,1.44.84,3.16,1.18,3.17,1.59,0,.2-.45.35-1.17.47-.36.08-.78.06-1.25.03-.25-.02-.48-.03-.72-.05-.25-.05-.49-.1-.72-.15-1.96-.44-3.69-1.44-3.81-1.5-1.87-1.22-3.56-2.44-5.37-3.44-1.79-1.02-3.69-1.77-5.66-2.32l-1.49-.39-1.52-.28c-1.01-.23-2.06-.26-3.08-.39-1.03-.12-2.09-.09-3.13-.15-.53-.04-1.02,0-1.51.03-.49.02-.99.05-1.48.15-1.97.28-3.93.92-5.87,1.72-1.94.79-3.87,1.71-5.85,2.61-3.95,1.8-8.1,3.5-12.51,4.31-.08.01-.6.07-1.33.13-.73.08-1.69.03-2.63.02-1.88-.09-3.69-.45-3.68-.82,0-.41,1.76-.77,3.49-1.19,1.74-.41,3.46-.91,3.6-.94Z"/><path class="cls-2" d="M176.41,555.14c-.15-.61-.32-1.21-.45-1.83l-.29-1.86c-.08-.62-.23-1.24-.25-1.87l-.1-1.88c-.09-1.27-.07-2.46-.07-3.67v-220.46c0-1.38.64-33.15,1.43-33.15s1.43,31.77,1.43,33.15v220.46c0,1.2-.02,2.43.07,3.56l.09,1.73c.01.58.16,1.14.23,1.71l.26,1.71c.12.56.28,1.12.42,1.68.05.16.17.77.42,1.69.15.46.33.99.53,1.6.19.61.41,1.28.74,1.97,1.12,2.85,3.07,6.36,5.54,9.46,2.44,3.12,5.34,5.84,7.71,7.6.58.46,1.16.8,1.65,1.15.47.29.91.55,1.32.8.75.38,1.2.62,1.18.72-.02.09-.53.04-1.4-.19-.42-.15-.93-.33-1.5-.58-.55-.28-1.2-.57-1.85-.97-2.65-1.54-5.88-4.12-8.64-7.23-2.79-3.08-5.06-6.71-6.4-9.7-.38-.73-.65-1.44-.89-2.09-.24-.65-.46-1.22-.64-1.7-.32-.99-.46-1.65-.52-1.82Z"/><path class="cls-2" d="M139.6,566.17c6.13-7.68,11.1-16.4,13.53-25.85.63-2.35,1.02-4.76,1.28-7.17l.16-1.81c.03-.6.04-1.21.06-1.82.05-1.19.02-2.48.03-3.72v-10.34c5.71-.02,1.58,0,2.86.01v2.14c-1.27,0,2.85.03-2.86.02v-8.11c.11-.27.38-.48.57-.74l1.27-1.48c.82-.91,1.55-1.89,2.3-2.86.77-.95,1.45-1.97,2.14-2.98,2.74-4.05,5.03-8.42,6.87-12.96,1.84-4.55,3.29-9.27,4.36-14.09,1.05-4.82,1.8-9.71,2.3-14.64.04-.17.15-1.32.36-2.94.1-.8.22-1.72.35-2.73.1-.97.21-2.01.31-3.08.2-1.89.42-3.87.61-5.71.19-1.55.4-2.58.59-2.58.2,0,.37,1.03.52,2.59.15,1.56.29,3.66.29,5.78.01,1.09.02,2.15.03,3.14-.03,1.03-.06,1.97-.08,2.79-.06,1.66-.1,2.84-.14,3.01-.51,5.02-1.28,10.03-2.36,14.98-1.09,4.95-2.59,9.82-4.5,14.54-1.92,4.71-4.29,9.26-7.15,13.49-.72,1.05-1.43,2.12-2.23,3.11-.78,1.01-1.55,2.03-2.4,2.98l-1.18,1.36h.01s0,.9,0,.9v6.21c-5.71,0-1.58-.02-2.86-.02v-2.14c1.27,0-2.85-.03,2.86-.01v10.34c-.01,1.26.03,2.47-.03,3.78-.02.64-.03,1.29-.07,1.93l-.17,1.92c-.28,2.56-.69,5.1-1.35,7.58-2.56,9.97-7.75,19.01-14.06,26.93-.22.29-3.08,3.6-6.24,6.47-3.12,2.91-6.53,5.33-6.79,5.01-.23-.29,2.65-3.21,5.34-6.41,2.72-3.17,5.25-6.57,5.46-6.85Z"/><path class="cls-2" d="M439.03,567.95c-6.31-7.92-11.5-16.95-14.06-26.93-.66-2.48-1.08-5.03-1.35-7.58l-.17-1.92c-.04-.64-.04-1.29-.07-1.93-.05-1.31-.02-2.52-.03-3.78v-10.34c5.71-.02,1.58,0,2.86.01v2.14c-1.27,0,2.85.03-2.86.02v-7.12s.01.01.01.01l-1.18-1.36c-.86-.95-1.62-1.97-2.4-2.98-.8-.99-1.51-2.06-2.23-3.11-2.86-4.23-5.24-8.77-7.15-13.49-1.91-4.72-3.41-9.59-4.5-14.54-1.08-4.95-1.84-9.96-2.36-14.98-.04-.18-.07-1.35-.14-3.01-.02-.82-.05-1.76-.08-2.79.01-.98.02-2.05.03-3.14,0-2.12.14-4.22.29-5.78.15-1.56.32-2.59.52-2.59s.4,1.03.59,2.58c.2,1.83.41,3.82.61,5.71.11,1.07.22,2.11.31,3.08.13,1,.24,1.93.35,2.73.2,1.62.32,2.77.36,2.94.5,4.93,1.25,9.82,2.3,14.64,1.06,4.82,2.52,9.54,4.36,14.09,1.85,4.55,4.13,8.91,6.87,12.96.69,1.01,1.37,2.03,2.14,2.98.75.97,1.48,1.95,2.3,2.86l1.27,1.48c.2.26.47.46.57.74v8.11c-5.71,0-1.58-.02-2.86-.02v-2.14c1.27,0-2.85-.03,2.86-.01v10.34c.01,1.24-.03,2.53.03,3.72.02.61.03,1.21.06,1.82l.16,1.81c.26,2.41.65,4.81,1.28,7.17,2.42,9.45,7.4,18.17,13.53,25.85.21.28,2.74,3.68,5.46,6.85,2.68,3.2,5.57,6.12,5.34,6.41-.26.33-3.67-2.1-6.79-5.01-3.15-2.87-6.02-6.18-6.24-6.47Z"/><path class="cls-2" d="M249.17,566.21c-1.11,1.37-2.44,2.53-3.86,3.52-1.41,1.01-2.95,1.81-4.5,2.48l-2.35.91c-.4.14-.78.32-1.18.44l-1.22.33c-.82.21-1.63.46-2.46.63l-2.52.38c-.84.17-1.7.13-2.55.16-.85.01-1.71.08-2.56-.04-.85-.09-1.71-.16-2.55-.27l-2.5-.57c-3.29-.93-6.41-2.4-9.19-4.33-5.53-3.92-9.87-9.14-13.33-14.75-3.5-5.61-6.25-11.62-8.49-17.78-4.46-12.34-7.15-25.24-8.23-38.28-.29-3.26-.4-6.54-.46-9.81,0-3.29.08-6.55.29-9.81.41-6.52,1.09-13.07,2.79-19.5.06-.23.47-1.72,1.29-3.78.81-2.04,2.05-4.69,3.99-6.9.97-1.1,2.14-2.06,3.44-2.64,1.3-.58,2.69-.68,3.77-.46,1.09.22,1.88.68,2.37,1.06.49.38.7.66.64.74-.06.09-.38-.04-.92-.23-.53-.2-1.31-.44-2.22-.46-.92-.02-1.96.21-2.93.78-.97.58-1.85,1.47-2.59,2.49-1.49,2.05-2.46,4.56-3.08,6.52-.63,1.96-.94,3.41-1,3.62-1.61,6.11-2.3,12.53-2.7,18.93-.21,3.21-.28,6.43-.29,9.62.06,3.2.17,6.41.45,9.6,1.06,12.78,3.71,25.49,8.07,37.53,2.18,6.02,4.86,11.86,8.23,17.25,3.33,5.4,7.46,10.32,12.54,13.92,2.55,1.77,5.37,3.08,8.31,3.92l2.24.51c.76.1,1.52.15,2.28.24.76.12,1.53.05,2.29.04.77-.04,1.53.01,2.29-.15l2.28-.34c.75-.16,1.5-.39,2.25-.58l1.12-.3c.37-.11.73-.27,1.09-.41l2.18-.84c1.41-.61,2.77-1.32,3.99-2.2,1.23-.86,2.37-1.85,3.3-3.01.14-.16,1.07-1.19,2-2.91.95-1.71,1.69-4.21,1.78-6.79.1-2.56-.44-5.18-1.33-6.81-.23-.37-.47-.74-.71-.9-.24-.17-.4-.18-.6-.1l-.26.2-.18.2c-.11.11-.19.17-.23.15-.05-.02-.06-.11-.03-.28.02-.08.03-.19.08-.31.06-.11.14-.25.25-.4.25-.3.87-.45,1.37-.21.51.21.85.59,1.23,1.01,1.37,1.74,2.26,4.52,2.43,7.41.18,2.89-.45,5.87-1.43,7.96-.96,2.11-2.01,3.4-2.17,3.59Z"/><path class="cls-2" d="M229.7,523.76c2.54,2.08,4.04,4.92,5.08,7.74.24.72.5,1.42.66,2.18.17.75.4,1.49.46,2.27.09.77.22,1.53.19,2.31,0,.77.03,1.55-.09,2.31-.59,6.18-4.15,11.85-9.21,15.3-2.53,1.74-5.47,2.91-8.54,3.34-3.06.44-6.23.1-9.14-.92-.71-.29-1.45-.53-2.13-.87l-2.02-1.08-1.88-1.29c-.63-.43-1.17-.96-1.75-1.44-2.25-2-4.21-4.3-5.82-6.79-3.29-4.94-5.55-10.41-7.25-15.98-1.67-5.6-2.86-11.22-3.94-16.9-1.05-5.68-1.86-11.41-2.2-17.22-.2-2.9-.2-5.82-.07-8.75.14-2.93.51-5.88,1.28-8.79.08-.2.44-1.56,1.31-3.4.23-.45.51-.93.79-1.43.34-.48.65-1,1.08-1.48.78-.99,1.9-1.92,3.21-2.47,1.31-.56,2.85-.61,4.08-.16,1.24.43,2.15,1.24,2.74,2,1.2,1.56,1.25,2.87,1.12,2.9-.22.1-.67-1.05-1.93-2.14-.61-.54-1.43-1.05-2.36-1.23-.93-.19-1.93-.03-2.79.46-.86.49-1.63,1.22-2.18,2.08-.3.4-.52.87-.77,1.28-.2.45-.39.87-.57,1.27-.63,1.64-.88,2.89-.95,3.07-.69,2.63-1.05,5.4-1.18,8.2-.12,2.8-.12,5.61.07,8.43.33,5.64,1.13,11.28,2.16,16.87,1.06,5.58,2.26,11.19,3.86,16.58,1.64,5.38,3.82,10.62,6.89,15.23,1.5,2.33,3.31,4.42,5.33,6.23.53.42,1.01.91,1.57,1.29l1.66,1.14,1.77.94c.6.3,1.23.5,1.84.75,2.5.87,5.19,1.16,7.8.79,2.61-.36,5.14-1.36,7.33-2.87,4.4-2.99,7.48-7.95,7.98-13.22.28-2.65-.16-5.26-1.06-7.82-.93-2.53-2.26-4.92-4.19-6.49-.13-.11-.99-.92-2.49-1.51-1.46-.59-3.73-.73-5.62.19-.92.42-1.73,1.19-1.8,1.78-.02.39.02.94.14,1.14.06.08.08.15.12.16.01.04.06,0,.1.02.05-.03.1-.02.16-.06.23-.13.44-.39.53-.66.09-.27.12-.53.1-.76-.01-.23-.06-.42-.09-.55-.02-.14-.02-.23.02-.26.04-.03.12,0,.23.11.12.1.27.27.39.54.24.51.41,1.58-.53,2.46-.11.11-.28.19-.43.27-.19.05-.37.13-.6.1-.46,0-.85-.3-1.11-.6-.47-.65-.55-1.23-.63-1.95-.02-.85.36-1.58.81-2.14.45-.57,1.01-1.01,1.59-1.38,2.37-1.49,5.36-1.58,7.43-.93,2.1.64,3.3,1.66,3.47,1.79Z"/><path class="cls-2" d="M282.79,580.1c-4.41-.81-8.57-2.52-12.51-4.31-1.98-.91-3.91-1.82-5.85-2.61-1.94-.8-3.89-1.44-5.87-1.72-.49-.1-.99-.13-1.48-.15-.49-.03-.98-.07-1.51-.03-1.04.05-2.1.03-3.13.15-1.03.13-2.08.17-3.08.39l-1.52.28-1.49.39c-1.97.55-3.88,1.3-5.66,2.32-1.81.99-3.5,2.22-5.37,3.44-.12.07-1.85,1.06-3.81,1.5-.23.05-.47.1-.72.15-.23.02-.47.03-.72.05-.46.02-.88.05-1.25-.03-.73-.12-1.17-.28-1.17-.47.01-.42,1.73-.75,3.17-1.59,1.46-.8,2.82-1.93,2.96-2.01,1.74-1.13,3.55-2.44,5.53-3.53,1.96-1.12,4.1-1.96,6.27-2.57.55-.14,1.09-.3,1.64-.43l1.66-.31c1.1-.24,2.22-.29,3.33-.42,1.11-.12,2.22-.1,3.33-.15.54-.04,1.13,0,1.72.04.58.02,1.17.06,1.73.18,2.3.33,4.48,1.06,6.52,1.9,2.05.84,4.02,1.77,5.96,2.66,3.89,1.77,7.78,3.36,11.88,4.11.15.03,1.86.54,3.6.94,1.73.42,3.49.77,3.49,1.19,0,.37-1.8.74-3.68.82-.94.01-1.9.06-2.63-.02-.73-.06-1.25-.12-1.33-.13Z"/><path class="cls-2" d="M416.04,580.86h-251.23c-1.5,0-36.01-.64-36.01-1.43s34.51-1.43,36.01-1.43h251.23c1.5,0,36.01.64,36.01,1.43s-34.51,1.43-36.01,1.43Z"/><path class="cls-2" d="M555.14,404.45c-.61.15-1.21.32-1.83.45l-1.86.29c-.62.08-1.24.23-1.87.25l-1.88.1c-1.27.09-2.46.07-3.67.07h-220.46c-1.38,0-33.15-.64-33.15-1.43s31.77-1.43,33.15-1.43h220.46c1.2,0,2.43.02,3.56-.07l1.73-.09c.58-.01,1.14-.16,1.71-.23l1.71-.26c.56-.12,1.12-.28,1.68-.42.16-.05.77-.17,1.69-.42.46-.15.99-.33,1.6-.53.61-.19,1.28-.41,1.98-.74,2.85-1.12,6.36-3.07,9.46-5.54,3.12-2.44,5.84-5.34,7.6-7.71.46-.58.8-1.16,1.15-1.65.29-.47.55-.91.8-1.32.38-.75.62-1.2.72-1.18.09.02.04.53-.19,1.4-.15.42-.33.93-.58,1.5-.28.55-.57,1.2-.97,1.85-1.54,2.65-4.12,5.88-7.23,8.64-3.08,2.79-6.71,5.06-9.7,6.4-.73.38-1.44.65-2.09.89-.65.24-1.22.46-1.7.64-.99.32-1.65.46-1.82.52Z"/><path class="cls-2" d="M566.21,331.69c1.37,1.11,2.53,2.44,3.52,3.86,1.01,1.41,1.81,2.95,2.48,4.5l.91,2.35c.14.4.32.78.44,1.18l.33,1.22c.21.82.46,1.63.63,2.46l.38,2.52c.17.84.13,1.7.16,2.55.01.85.08,1.71-.04,2.56-.09.85-.16,1.71-.27,2.55l-.57,2.5c-.93,3.29-2.4,6.41-4.33,9.19-3.92,5.53-9.14,9.87-14.75,13.33-5.61,3.5-11.62,6.25-17.78,8.49-12.34,4.46-25.24,7.15-38.28,8.23-3.26.29-6.54.4-9.81.46-3.29,0-6.55-.08-9.81-.29-6.52-.41-13.07-1.09-19.5-2.79-.23-.07-1.72-.47-3.78-1.29-2.04-.81-4.69-2.05-6.9-3.99-1.1-.97-2.06-2.14-2.64-3.44-.58-1.3-.68-2.69-.46-3.77.22-1.09.68-1.88,1.06-2.37.38-.49.66-.7.74-.64.09.06-.04.38-.23.92-.19.53-.44,1.31-.46,2.22-.02.92.21,1.96.78,2.93.58.97,1.47,1.85,2.49,2.59,2.06,1.49,4.56,2.46,6.52,3.08,1.96.63,3.41.94,3.62,1,6.11,1.61,12.53,2.3,18.93,2.7,3.21.21,6.43.28,9.62.29,3.2-.06,6.41-.17,9.6-.45,12.78-1.06,25.49-3.71,37.53-8.07,6.02-2.18,11.86-4.86,17.25-8.23,5.4-3.33,10.32-7.46,13.92-12.54,1.77-2.55,3.08-5.36,3.92-8.3l.51-2.24c.1-.76.15-1.52.24-2.28.12-.76.05-1.53.04-2.29-.04-.77.01-1.53-.15-2.29l-.34-2.28c-.16-.75-.39-1.5-.58-2.25l-.3-1.12c-.11-.37-.27-.73-.41-1.09l-.84-2.18c-.61-1.41-1.32-2.77-2.2-3.99-.87-1.23-1.85-2.37-3.01-3.3-.16-.14-1.19-1.07-2.91-2-1.71-.95-4.21-1.69-6.79-1.78-2.56-.1-5.18.44-6.81,1.33-.37.23-.74.47-.9.71-.17.24-.18.4-.1.6l.2.26.2.18c.11.11.17.19.15.23-.02.05-.11.06-.28.03-.08-.02-.19-.03-.31-.08-.11-.06-.25-.14-.4-.25-.3-.25-.45-.87-.21-1.37.21-.51.59-.85,1.01-1.23,1.74-1.37,4.52-2.26,7.41-2.43,2.89-.18,5.87.45,7.96,1.43,2.11.96,3.4,2.01,3.59,2.17Z"/><path class="cls-2" d="M523.76,351.16c2.08-2.54,4.92-4.04,7.74-5.08.72-.24,1.42-.5,2.18-.66.75-.17,1.49-.4,2.27-.46.77-.09,1.53-.22,2.31-.19.77,0,1.55-.03,2.31.09,6.18.59,11.85,4.14,15.3,9.21,1.74,2.53,2.91,5.47,3.34,8.54.44,3.06.1,6.23-.92,9.14-.29.71-.53,1.45-.87,2.13l-1.08,2.02-1.29,1.88c-.43.63-.96,1.17-1.44,1.75-2,2.25-4.3,4.21-6.79,5.82-4.94,3.29-10.41,5.55-15.98,7.25-5.6,1.67-11.22,2.86-16.9,3.94-5.68,1.05-11.41,1.86-17.22,2.2-2.9.2-5.82.2-8.75.07-2.93-.14-5.88-.51-8.79-1.28-.2-.08-1.56-.44-3.4-1.3-.45-.23-.93-.51-1.43-.79-.48-.34-1-.65-1.48-1.08-.99-.78-1.92-1.9-2.47-3.21-.56-1.31-.6-2.85-.16-4.08.43-1.24,1.24-2.15,2-2.74,1.56-1.2,2.87-1.25,2.9-1.12.1.22-1.05.67-2.14,1.93-.54.61-1.05,1.43-1.23,2.36-.19.93-.03,1.93.46,2.79.49.86,1.22,1.63,2.08,2.18.4.3.87.52,1.28.77.45.2.87.39,1.27.57,1.64.63,2.89.88,3.07.95,2.63.69,5.4,1.05,8.2,1.18,2.79.12,5.61.12,8.43-.07,5.64-.33,11.28-1.13,16.87-2.16,5.58-1.06,11.19-2.26,16.58-3.86,5.38-1.64,10.62-3.82,15.23-6.89,2.33-1.5,4.42-3.31,6.23-5.33.42-.53.91-1.01,1.29-1.57l1.14-1.66.94-1.77c.3-.6.5-1.23.75-1.84.87-2.5,1.16-5.19.79-7.8-.36-2.61-1.36-5.14-2.87-7.33-2.99-4.4-7.95-7.48-13.22-7.98-2.65-.28-5.26.16-7.82,1.05-2.52.93-4.92,2.26-6.49,4.19-.11.13-.92.99-1.51,2.49-.59,1.46-.73,3.73.19,5.62.42.92,1.19,1.73,1.78,1.8.39.02.94-.02,1.14-.14.08-.06.15-.08.16-.12.04-.01,0-.06.02-.1-.03-.05-.02-.11-.06-.16-.13-.23-.39-.44-.66-.53-.27-.09-.53-.12-.76-.1-.23.01-.42.06-.55.09-.14.02-.23.02-.26-.02-.03-.04,0-.12.11-.23.1-.12.27-.27.54-.39.51-.24,1.58-.41,2.46.53.11.11.19.28.27.43.04.19.13.37.1.6,0,.46-.3.85-.6,1.11-.65.47-1.23.55-1.95.63-.85.02-1.58-.36-2.14-.81-.57-.45-1.01-1.01-1.38-1.59-1.49-2.37-1.58-5.36-.93-7.43.64-2.1,1.66-3.3,1.79-3.47Z"/><path class="cls-2" d="M580.1,298.07c-.81,4.41-2.52,8.57-4.31,12.51-.91,1.98-1.82,3.91-2.61,5.85-.8,1.94-1.44,3.89-1.72,5.86-.1.49-.13.99-.15,1.48-.03.49-.07.98-.03,1.51.05,1.04.03,2.1.14,3.13.13,1.03.17,2.08.39,3.08l.28,1.52.39,1.49c.55,1.97,1.3,3.88,2.32,5.66.99,1.81,2.22,3.5,3.44,5.37.07.12,1.06,1.85,1.5,3.81.05.23.1.47.15.72.02.23.03.47.05.72.02.46.05.88-.03,1.25-.12.73-.28,1.17-.47,1.17-.42-.01-.75-1.73-1.59-3.17-.8-1.46-1.93-2.82-2.01-2.96-1.13-1.74-2.44-3.55-3.53-5.53-1.12-1.96-1.96-4.1-2.57-6.28-.14-.55-.3-1.09-.43-1.64l-.31-1.66c-.24-1.1-.29-2.22-.42-3.33-.12-1.11-.1-2.22-.15-3.33-.04-.54,0-1.13.04-1.72.02-.58.06-1.17.18-1.73.33-2.3,1.06-4.48,1.9-6.52.84-2.05,1.77-4.02,2.66-5.96,1.77-3.89,3.36-7.78,4.11-11.88.03-.15.54-1.86.94-3.6.42-1.73.77-3.49,1.19-3.49.37,0,.74,1.8.82,3.68.01.94.06,1.9-.02,2.63-.06.73-.12,1.25-.13,1.33Z"/><path class="cls-2" d="M554.43,179.18c-.56-.14-1.12-.3-1.68-.42l-1.71-.26c-.57-.07-1.14-.22-1.71-.23l-1.73-.09c-1.13-.09-2.35-.06-3.56-.07h-220.46c-1.38,0-33.15-.64-33.15-1.43s31.77-1.43,33.15-1.43h220.46c1.21,0,2.39-.02,3.67.07l1.88.1c.63.02,1.24.17,1.87.25l1.86.29c.61.13,1.22.3,1.83.45.17.05.83.2,1.82.52.48.18,1.06.4,1.7.64.65.24,1.36.51,2.09.89,3,1.34,6.62,3.61,9.7,6.4,3.11,2.77,5.69,5.99,7.23,8.64.4.65.68,1.3.97,1.85.25.57.43,1.09.58,1.5.23.87.28,1.38.19,1.4-.1.03-.34-.42-.72-1.18-.25-.41-.51-.85-.8-1.32-.35-.49-.69-1.06-1.15-1.65-1.76-2.36-4.47-5.26-7.6-7.71-3.1-2.47-6.62-4.42-9.46-5.54-.69-.32-1.37-.54-1.98-.74-.6-.2-1.14-.38-1.6-.53-.93-.26-1.54-.37-1.69-.42Z"/><path class="cls-2" d="M567.95,141.83c-7.92,6.31-16.95,11.5-26.93,14.06-2.48.66-5.03,1.08-7.58,1.35l-1.92.17c-.64.04-1.29.04-1.93.07-1.31.05-2.52.02-3.78.03h-10.34c-.02-5.71,0-1.58.01-2.86h2.14c0,1.27.03-2.85.02,2.86h-7.12s.01-.01.01-.01l-1.36,1.18c-.95.86-1.97,1.62-2.98,2.4-.99.8-2.06,1.51-3.11,2.23-4.23,2.86-8.77,5.24-13.49,7.15-4.72,1.91-9.59,3.41-14.54,4.5-4.95,1.08-9.96,1.84-14.98,2.36-.18.04-1.35.07-3.02.14-.82.02-1.76.05-2.79.08-.98-.01-2.05-.02-3.14-.03-2.12,0-4.22-.14-5.78-.29-1.56-.15-2.59-.32-2.59-.52,0-.2,1.03-.4,2.58-.59,1.83-.2,3.82-.41,5.71-.61,1.07-.11,2.11-.22,3.08-.31,1-.13,1.93-.24,2.73-.35,1.62-.2,2.77-.32,2.94-.36,4.93-.5,9.82-1.25,14.64-2.3,4.82-1.06,9.54-2.52,14.09-4.36,4.55-1.85,8.91-4.13,12.96-6.87,1.01-.69,2.03-1.37,2.98-2.14.97-.75,1.95-1.48,2.86-2.3l1.48-1.27c.26-.2.46-.47.74-.57h.94s.96,0,.96,0h6.21c0,5.71-.02,1.58-.02,2.86h-2.14c0-1.27-.03,2.85-.01-2.86h10.34c1.24-.01,2.53.03,3.72-.03.61-.02,1.21-.03,1.82-.06l1.81-.16c2.41-.26,4.81-.65,7.17-1.28,9.45-2.42,18.17-7.4,25.85-13.53.28-.21,3.68-2.74,6.85-5.46,3.2-2.68,6.12-5.57,6.41-5.34.33.26-2.1,3.67-5.01,6.79-2.87,3.15-6.18,6.02-6.47,6.24Z"/><path class="cls-2" d="M566.17,441.26c-7.68-6.13-16.4-11.1-25.85-13.53-2.35-.63-4.76-1.02-7.17-1.28l-1.81-.16c-.6-.03-1.21-.04-1.82-.06-1.19-.05-2.48-.02-3.72-.03h-10.34c-.02-5.71,0-1.58.01-2.86h2.14c0,1.27.03-2.85.02,2.86h-8.11c-.28-.11-.48-.38-.74-.57l-1.48-1.27c-.91-.82-1.89-1.55-2.86-2.3-.95-.77-1.97-1.45-2.98-2.14-4.05-2.74-8.42-5.03-12.96-6.87-4.55-1.84-9.27-3.29-14.09-4.36-4.82-1.05-9.71-1.8-14.64-2.3-.17-.04-1.32-.15-2.94-.36-.8-.1-1.72-.22-2.73-.35-.97-.1-2.01-.21-3.08-.31-1.89-.2-3.87-.42-5.71-.61-1.55-.19-2.58-.4-2.58-.59,0-.2,1.03-.37,2.59-.52,1.56-.15,3.66-.29,5.78-.29,1.09-.01,2.15-.02,3.14-.03,1.03.03,1.97.06,2.79.08,1.66.06,2.84.1,3.02.14,5.02.51,10.03,1.28,14.98,2.36,4.95,1.09,9.82,2.59,14.54,4.5,4.71,1.92,9.26,4.29,13.49,7.15,1.05.72,2.12,1.43,3.11,2.23,1.01.78,2.03,1.55,2.98,2.4l1.36,1.18h-.01s.91-.01.91-.01h6.21c0,5.71-.02,1.58-.02,2.86h-2.14c0-1.27-.03,2.85-.01-2.86h10.34c1.26.01,2.47-.03,3.78.03.64.02,1.29.03,1.93.07l1.92.17c2.56.28,5.1.69,7.58,1.35,9.97,2.56,19.01,7.75,26.93,14.06.29.22,3.6,3.08,6.47,6.24,2.91,3.12,5.33,6.53,5.01,6.79-.29.23-3.21-2.65-6.41-5.34-3.17-2.72-6.57-5.25-6.85-5.46Z"/><path class="cls-2" d="M564.39,246.97c1.15-.93,2.14-2.07,3.01-3.3.88-1.22,1.59-2.58,2.2-3.99l.84-2.18c.13-.37.3-.72.41-1.09l.3-1.12c.19-.75.43-1.49.58-2.25l.34-2.28c.16-.76.11-1.53.15-2.29.01-.77.08-1.53-.04-2.29-.08-.76-.14-1.52-.24-2.28l-.51-2.24c-.83-2.94-2.15-5.75-3.92-8.3-3.6-5.07-8.52-9.21-13.92-12.54-5.39-3.37-11.23-6.05-17.25-8.23-12.05-4.36-24.75-7-37.53-8.07-3.2-.29-6.4-.4-9.6-.45-3.19,0-6.41.08-9.62.29-6.4.4-12.82,1.08-18.93,2.7-.22.06-1.66.37-3.62,1-1.96.62-4.46,1.59-6.52,3.08-1.02.74-1.91,1.63-2.49,2.59-.57.97-.8,2.01-.78,2.93.02.92.27,1.69.46,2.22.19.54.32.86.23.92-.07.05-.36-.16-.74-.64-.38-.48-.84-1.27-1.06-2.37-.22-1.08-.12-2.47.46-3.77.58-1.3,1.54-2.47,2.64-3.44,2.21-1.95,4.86-3.18,6.9-3.99,2.05-.82,3.55-1.22,3.78-1.29,6.43-1.7,12.98-2.38,19.5-2.79,3.26-.21,6.52-.28,9.81-.29,3.28.06,6.55.17,9.81.46,13.04,1.09,25.94,3.77,38.28,8.23,6.16,2.23,12.17,4.98,17.78,8.49,5.61,3.46,10.83,7.81,14.75,13.33,1.93,2.78,3.4,5.9,4.33,9.19l.57,2.5c.11.85.18,1.7.27,2.55.13.85.06,1.71.04,2.56-.04.85,0,1.71-.16,2.55l-.38,2.52c-.17.83-.42,1.64-.63,2.46l-.33,1.22c-.12.41-.29.79-.44,1.18l-.91,2.35c-.67,1.55-1.47,3.09-2.48,4.5-.99,1.42-2.15,2.75-3.52,3.86-.19.16-1.48,1.21-3.59,2.17-2.1.98-5.08,1.61-7.96,1.43-2.89-.17-5.67-1.06-7.41-2.43-.42-.38-.81-.72-1.01-1.23-.24-.49-.09-1.11.21-1.37.15-.11.28-.19.4-.25.12-.05.23-.06.31-.08.17-.03.26-.02.28.03.02.05-.04.13-.15.23l-.2.18-.2.26c-.08.2-.07.37.1.6.16.24.52.48.9.71,1.62.89,4.24,1.43,6.81,1.33,2.58-.09,5.08-.83,6.79-1.78,1.72-.93,2.75-1.87,2.91-2Z"/><path class="cls-2" d="M525.98,227.9c1.57,1.94,3.97,3.27,6.49,4.19,2.56.9,5.17,1.33,7.82,1.05,5.27-.5,10.22-3.58,13.22-7.98,1.51-2.19,2.51-4.72,2.87-7.33.37-2.61.09-5.3-.79-7.8-.26-.61-.45-1.25-.75-1.84l-.94-1.77-1.14-1.66c-.38-.56-.86-1.04-1.29-1.57-1.8-2.02-3.9-3.83-6.23-5.33-4.61-3.07-9.85-5.25-15.23-6.89-5.38-1.61-10.99-2.8-16.58-3.86-5.59-1.04-11.23-1.83-16.87-2.16-2.82-.2-5.64-.19-8.43-.07-2.79.13-5.56.49-8.2,1.18-.18.07-1.43.32-3.07.95-.39.18-.82.37-1.27.57-.4.25-.88.46-1.28.77-.87.56-1.6,1.32-2.08,2.18-.48.86-.65,1.86-.46,2.79.18.93.69,1.76,1.23,2.36,1.09,1.26,2.24,1.7,2.14,1.93-.03.14-1.34.08-2.9-1.12-.77-.59-1.57-1.49-2-2.74-.44-1.23-.4-2.77.16-4.08.55-1.31,1.48-2.43,2.47-3.21.48-.43,1-.73,1.48-1.08.5-.28.98-.55,1.43-.79,1.83-.87,3.19-1.22,3.4-1.3,2.91-.76,5.86-1.14,8.79-1.28,2.93-.13,5.85-.13,8.75.07,5.81.34,11.54,1.15,17.22,2.2,5.67,1.08,11.29,2.27,16.9,3.94,5.56,1.7,11.03,3.96,15.98,7.25,2.49,1.6,4.78,3.57,6.79,5.82.48.59,1.01,1.12,1.44,1.75l1.29,1.88,1.08,2.02c.34.68.58,1.42.87,2.13,1.02,2.91,1.35,6.07.92,9.14-.43,3.07-1.6,6.01-3.34,8.54-3.45,5.07-9.12,8.62-15.3,9.21-.77.12-1.54.09-2.31.09-.78.03-1.54-.1-2.31-.19-.77-.06-1.52-.28-2.27-.46-.76-.16-1.46-.42-2.18-.66-2.82-1.04-5.66-2.54-7.74-5.08-.13-.17-1.16-1.37-1.79-3.47-.65-2.07-.55-5.07.93-7.43.37-.59.81-1.14,1.38-1.59.56-.44,1.29-.83,2.14-.81.71.08,1.3.16,1.95.63.3.26.6.65.6,1.11.03.23-.05.41-.1.6-.09.15-.17.32-.27.43-.88.93-1.96.77-2.46.53-.27-.12-.45-.27-.54-.39-.1-.11-.14-.19-.11-.23.03-.04.12-.04.26-.02.13.03.32.08.55.09.23.02.49,0,.76-.1.26-.09.53-.3.66-.53.04-.06.03-.11.06-.16-.03-.04.01-.09-.02-.1,0-.04-.08-.05-.16-.12-.21-.12-.75-.17-1.14-.14-.59.06-1.36.88-1.78,1.8-.92,1.89-.78,4.16-.19,5.62.59,1.5,1.4,2.35,1.51,2.49Z"/><path class="cls-2" d="M577.3,283.33c-.75-4.09-2.34-7.99-4.11-11.88-.89-1.94-1.82-3.91-2.66-5.96-.84-2.04-1.57-4.22-1.9-6.52-.11-.57-.15-1.15-.18-1.73-.03-.58-.08-1.17-.04-1.72.06-1.11.03-2.22.15-3.33.14-1.11.18-2.23.42-3.33l.31-1.66c.13-.55.29-1.09.43-1.64.61-2.17,1.45-4.31,2.57-6.28,1.09-1.98,2.4-3.78,3.53-5.53.08-.14,1.21-1.5,2.01-2.96.84-1.44,1.18-3.16,1.59-3.17.2,0,.35.45.47,1.17.08.36.06.78.03,1.25-.02.24-.03.48-.05.72-.05.25-.1.49-.15.72-.44,1.96-1.44,3.69-1.5,3.81-1.22,1.87-2.44,3.56-3.44,5.37-1.02,1.79-1.77,3.69-2.32,5.66l-.39,1.49-.28,1.52c-.23,1.01-.26,2.06-.39,3.08-.12,1.03-.09,2.09-.14,3.13-.04.53,0,1.02.03,1.51.02.49.05.99.15,1.48.28,1.97.92,3.93,1.72,5.86.79,1.94,1.71,3.87,2.61,5.85,1.8,3.95,3.5,8.1,4.31,12.51.01.08.07.6.13,1.33.08.73.03,1.69.02,2.63-.09,1.88-.45,3.69-.82,3.68-.42,0-.77-1.76-1.19-3.49-.41-1.74-.91-3.46-.94-3.6Z"/><path class="cls-2" d="M578,416.04v-251.23c0-1.5.64-36.01,1.43-36.01s1.43,34.51,1.43,36.01v251.23c0,1.5-.64,36.01-1.43,36.01s-1.43-34.51-1.43-36.01Z"/><path class="cls-2" d="M26.42,401.68c.56.14,1.12.3,1.68.42l1.71.26c.57.07,1.14.22,1.71.23l1.73.09c1.13.09,2.35.06,3.56.07h220.46c1.38,0,33.15.64,33.15,1.43s-31.77,1.43-33.15,1.43H36.82c-1.21,0-2.39.02-3.67-.07l-1.88-.1c-.63-.02-1.24-.17-1.87-.25l-1.86-.29c-.61-.13-1.22-.3-1.83-.45-.17-.05-.83-.2-1.82-.52-.48-.18-1.06-.4-1.7-.64-.65-.24-1.36-.51-2.09-.89-3-1.34-6.62-3.61-9.7-6.4-3.11-2.77-5.69-5.99-7.23-8.64-.4-.65-.68-1.3-.97-1.85-.25-.57-.43-1.09-.58-1.5-.23-.87-.28-1.38-.19-1.4.1-.03.34.42.72,1.18.25.41.51.85.8,1.32.35.49.69,1.06,1.15,1.65,1.76,2.36,4.47,5.26,7.6,7.71,3.1,2.47,6.62,4.42,9.46,5.54.69.32,1.37.54,1.98.74.6.2,1.14.38,1.6.53.93.26,1.54.37,1.69.42Z"/><path class="cls-2" d="M16.47,333.89c-1.15.93-2.14,2.07-3.01,3.3-.88,1.22-1.59,2.58-2.2,3.99l-.84,2.18c-.13.37-.3.72-.41,1.09l-.3,1.12c-.19.75-.43,1.49-.58,2.25l-.34,2.28c-.16.76-.11,1.53-.15,2.29-.01.77-.08,1.53.04,2.29.08.76.14,1.52.24,2.28l.51,2.24c.83,2.94,2.15,5.75,3.92,8.3,3.6,5.07,8.52,9.21,13.92,12.54,5.39,3.37,11.23,6.05,17.25,8.23,12.05,4.36,24.75,7,37.53,8.07,3.2.29,6.4.4,9.6.45,3.19,0,6.41-.08,9.62-.29,6.4-.4,12.82-1.08,18.93-2.7.22-.06,1.66-.37,3.62-1,1.96-.62,4.46-1.59,6.52-3.08,1.02-.74,1.91-1.63,2.49-2.59.57-.97.8-2.01.78-2.93-.02-.92-.27-1.69-.46-2.22-.19-.54-.32-.86-.23-.92.07-.05.36.16.74.64.38.48.84,1.27,1.06,2.37.22,1.08.12,2.47-.46,3.77-.58,1.3-1.54,2.47-2.64,3.44-2.21,1.95-4.86,3.18-6.9,3.99-2.05.82-3.55,1.22-3.78,1.29-6.43,1.7-12.98,2.38-19.5,2.79-3.26.21-6.52.28-9.81.29-3.28-.06-6.55-.17-9.81-.46-13.04-1.09-25.94-3.77-38.28-8.23-6.16-2.23-12.17-4.98-17.78-8.49-5.61-3.46-10.83-7.81-14.75-13.33-1.93-2.78-3.4-5.9-4.33-9.19l-.57-2.5c-.11-.85-.18-1.7-.27-2.55-.13-.85-.06-1.71-.04-2.56.04-.85,0-1.71.16-2.55l.38-2.52c.17-.83.42-1.64.63-2.46l.33-1.22c.12-.41.29-.79.44-1.18l.91-2.35c.67-1.55,1.47-3.09,2.48-4.5.99-1.42,2.15-2.75,3.52-3.86.19-.16,1.48-1.21,3.59-2.17,2.1-.98,5.08-1.61,7.96-1.43,2.89.17,5.67,1.06,7.41,2.43.42.38.81.72,1.01,1.23.24.49.09,1.11-.21,1.37-.15.11-.28.19-.4.25-.12.05-.23.06-.31.08-.17.03-.26.02-.28-.03-.02-.05.04-.13.15-.23l.2-.18.2-.26c.08-.2.07-.37-.1-.6-.16-.24-.52-.48-.9-.71-1.62-.89-4.24-1.43-6.81-1.33-2.58.09-5.08.83-6.79,1.78-1.72.93-2.75,1.87-2.91,2Z"/><path class="cls-2" d="M54.87,352.95c-1.57-1.94-3.97-3.27-6.49-4.19-2.56-.9-5.17-1.33-7.82-1.05-5.27.5-10.22,3.58-13.22,7.98-1.51,2.19-2.51,4.72-2.87,7.33-.37,2.61-.09,5.3.79,7.8.26.61.45,1.25.75,1.84l.94,1.77,1.14,1.66c.38.56.86,1.04,1.29,1.57,1.8,2.02,3.9,3.83,6.23,5.33,4.61,3.07,9.85,5.25,15.23,6.89,5.38,1.61,10.99,2.8,16.58,3.86,5.59,1.04,11.23,1.83,16.87,2.16,2.82.2,5.64.19,8.43.07,2.79-.13,5.56-.49,8.2-1.18.18-.07,1.43-.32,3.07-.95.39-.18.82-.37,1.27-.57.4-.25.88-.46,1.28-.77.87-.56,1.6-1.32,2.08-2.18.48-.86.65-1.86.46-2.79-.18-.93-.69-1.76-1.23-2.36-1.09-1.26-2.24-1.7-2.14-1.93.03-.14,1.34-.08,2.9,1.12.77.59,1.57,1.49,2,2.74.44,1.23.4,2.77-.16,4.08-.55,1.31-1.48,2.43-2.47,3.21-.48.43-1,.73-1.48,1.08-.5.28-.98.55-1.43.79-1.83.87-3.19,1.22-3.4,1.3-2.91.76-5.86,1.14-8.79,1.28-2.93.13-5.85.13-8.75-.07-5.81-.34-11.54-1.15-17.22-2.2-5.67-1.08-11.29-2.27-16.9-3.94-5.56-1.7-11.03-3.96-15.98-7.25-2.49-1.6-4.78-3.57-6.79-5.82-.48-.59-1.01-1.12-1.44-1.75l-1.29-1.88-1.08-2.02c-.34-.68-.58-1.42-.87-2.13-1.02-2.91-1.35-6.07-.92-9.14.43-3.07,1.6-6.01,3.34-8.54,3.45-5.07,9.12-8.62,15.3-9.21.77-.12,1.54-.09,2.31-.09.78-.03,1.54.1,2.31.19.77.06,1.52.28,2.27.46.76.16,1.46.42,2.18.66,2.82,1.04,5.66,2.54,7.74,5.08.13.17,1.16,1.37,1.79,3.47.65,2.07.55,5.07-.93,7.43-.37.59-.81,1.14-1.38,1.59-.56.44-1.29.83-2.14.81-.71-.08-1.3-.16-1.95-.63-.3-.26-.6-.65-.6-1.11-.03-.23.05-.41.1-.6.09-.15.17-.32.27-.43.88-.93,1.96-.77,2.46-.53.27.12.45.27.54.39.1.11.14.19.11.23-.03.04-.12.04-.26.02-.13-.03-.32-.08-.55-.09-.23-.02-.49,0-.76.1-.26.09-.53.3-.66.53-.04.06-.03.11-.06.16.03.04-.01.09.02.1,0,.04.08.05.16.12.21.12.75.17,1.14.14.59-.06,1.36-.88,1.78-1.8.92-1.89.78-4.16.19-5.62-.59-1.5-1.4-2.35-1.51-2.49Z"/><path class="cls-2" d="M3.56,297.52c.75,4.09,2.34,7.99,4.11,11.88.89,1.94,1.82,3.91,2.66,5.96.84,2.04,1.57,4.22,1.9,6.52.11.57.15,1.15.18,1.73.03.58.08,1.17.04,1.72-.06,1.11-.03,2.22-.15,3.33-.14,1.11-.18,2.23-.42,3.33l-.31,1.66c-.13.55-.29,1.09-.43,1.64-.61,2.17-1.45,4.31-2.57,6.28-1.09,1.98-2.4,3.78-3.53,5.53-.08.14-1.21,1.5-2.01,2.96-.84,1.44-1.18,3.16-1.59,3.17-.2,0-.35-.45-.47-1.17-.08-.36-.06-.78-.03-1.25.02-.24.03-.48.05-.72.05-.25.1-.49.15-.72.44-1.96,1.44-3.69,1.5-3.81,1.22-1.87,2.44-3.56,3.44-5.37,1.02-1.79,1.77-3.69,2.32-5.66l.39-1.49.28-1.52c.23-1.01.26-2.06.39-3.08.12-1.03.09-2.09.14-3.13.04-.53,0-1.02-.03-1.51-.02-.49-.05-.99-.15-1.48-.28-1.97-.92-3.93-1.72-5.86-.79-1.94-1.71-3.87-2.61-5.85-1.8-3.95-3.5-8.1-4.31-12.51-.01-.08-.07-.6-.13-1.33-.08-.73-.03-1.69-.02-2.63.09-1.88.45-3.69.82-3.68.42,0,.77,1.76,1.19,3.49.41,1.74.91,3.46.94,3.6Z"/><path class="cls-2" d="M25.72,176.41c.61-.15,1.21-.32,1.83-.45l1.86-.29c.62-.08,1.24-.23,1.87-.25l1.88-.1c1.27-.09,2.46-.07,3.67-.07h220.46c1.38,0,33.15.64,33.15,1.43s-31.77,1.43-33.15,1.43H36.82c-1.2,0-2.43-.02-3.56.07l-1.73.09c-.58.01-1.14.16-1.71.23l-1.71.26c-.56.12-1.12.28-1.68.42-.16.05-.77.17-1.69.42-.46.15-.99.33-1.6.53-.61.19-1.28.41-1.98.74-2.85,1.12-6.36,3.07-9.46,5.54-3.12,2.44-5.84,5.34-7.6,7.71-.46.58-.8,1.16-1.15,1.65-.29.47-.55.91-.8,1.32-.38.75-.62,1.2-.72,1.18-.09-.02-.04-.53.19-1.4.15-.42.33-.93.58-1.5.28-.55.57-1.2.97-1.85,1.54-2.65,4.12-5.88,7.23-8.64,3.08-2.79,6.71-5.06,9.7-6.4.73-.38,1.44-.65,2.09-.89.65-.24,1.22-.46,1.7-.64.99-.32,1.65-.46,1.82-.52Z"/><path class="cls-2" d="M14.69,139.6c7.68,6.13,16.4,11.1,25.85,13.53,2.35.63,4.76,1.02,7.17,1.28l1.81.16c.6.03,1.21.04,1.82.06,1.19.05,2.48.02,3.72.03h10.34c.02,5.71,0,1.58-.01,2.86h-2.14c0-1.27-.03,2.85-.02-2.86h7.17s.94,0,.94,0c.28.11.48.38.74.57l1.48,1.27c.91.82,1.89,1.55,2.86,2.3.95.77,1.97,1.45,2.98,2.14,4.05,2.74,8.42,5.03,12.96,6.87,4.55,1.84,9.27,3.29,14.09,4.36,4.82,1.05,9.71,1.8,14.64,2.3.17.04,1.32.15,2.94.36.8.1,1.72.22,2.73.35.97.1,2.01.2,3.08.31,1.89.2,3.87.42,5.71.61,1.55.19,2.58.4,2.58.59,0,.2-1.03.37-2.59.52-1.56.15-3.66.29-5.78.29-1.09.01-2.15.02-3.14.03-1.03-.03-1.97-.06-2.79-.08-1.66-.06-2.84-.1-3.02-.14-5.02-.51-10.03-1.28-14.98-2.36-4.95-1.09-9.82-2.59-14.54-4.5-4.71-1.91-9.26-4.29-13.49-7.15-1.05-.72-2.12-1.43-3.11-2.23-1.01-.78-2.03-1.55-2.98-2.4l-1.36-1.18h.01s-.91.01-.91.01h-6.21c0-5.71.02-1.58.02-2.86h2.14c0,1.27.03-2.85.01,2.86h-10.34c-1.26-.01-2.47.03-3.78-.03-.64-.02-1.29-.03-1.93-.07l-1.92-.17c-2.56-.28-5.1-.69-7.58-1.35-9.97-2.56-19.01-7.75-26.93-14.06-.29-.22-3.6-3.08-6.47-6.24-2.91-3.12-5.33-6.53-5.01-6.79.29-.23,3.21,2.65,6.41,5.34,3.17,2.72,6.57,5.25,6.85,5.46Z"/><path class="cls-2" d="M12.91,439.03c7.92-6.31,16.95-11.5,26.93-14.06,2.48-.66,5.03-1.08,7.58-1.35l1.92-.17c.64-.04,1.29-.04,1.93-.07,1.31-.06,2.52-.02,3.78-.03h10.34c.02,5.71,0,1.58-.01,2.86h-2.14c0-1.27-.03,2.85-.02-2.86h7.12-.01s1.36-1.17,1.36-1.17c.95-.86,1.97-1.62,2.98-2.4.99-.8,2.06-1.51,3.11-2.23,4.23-2.86,8.77-5.24,13.49-7.15,4.72-1.91,9.59-3.41,14.54-4.5,4.95-1.08,9.96-1.84,14.98-2.36.18-.04,1.35-.07,3.02-.14.82-.02,1.76-.05,2.79-.08.98.01,2.05.02,3.14.03,2.12,0,4.22.14,5.78.29,1.56.15,2.59.32,2.59.52,0,.2-1.03.4-2.58.59-1.83.2-3.82.41-5.71.61-1.07.11-2.11.22-3.08.31-1,.13-1.93.24-2.73.35-1.62.2-2.77.32-2.94.36-4.93.5-9.82,1.25-14.64,2.3-4.82,1.06-9.54,2.52-14.09,4.36-4.55,1.85-8.91,4.13-12.96,6.87-1.01.69-2.03,1.37-2.98,2.14-.97.75-1.95,1.48-2.86,2.3l-1.48,1.27c-.26.2-.46.47-.74.57h-8.11c0-5.71.02-1.58.02-2.86h2.14c0,1.27.03-2.85.01,2.86h-10.34c-1.24.01-2.53-.03-3.72.03-.61.02-1.21.03-1.82.06l-1.81.16c-2.41.26-4.81.65-7.17,1.28-9.45,2.42-18.17,7.4-25.85,13.53-.28.21-3.68,2.74-6.85,5.46-3.2,2.68-6.12,5.57-6.41,5.34-.33-.26,2.1-3.67,5.01-6.79,2.87-3.15,6.18-6.02,6.47-6.24Z"/><path class="cls-2" d="M14.65,249.17c-1.37-1.11-2.53-2.44-3.52-3.86-1.01-1.41-1.81-2.95-2.48-4.5l-.91-2.35c-.14-.4-.32-.78-.44-1.18l-.33-1.22c-.21-.82-.46-1.63-.63-2.46l-.38-2.52c-.17-.84-.13-1.7-.16-2.55-.01-.85-.08-1.71.04-2.56.09-.85.16-1.71.27-2.55l.57-2.5c.93-3.29,2.4-6.41,4.33-9.19,3.92-5.53,9.14-9.87,14.75-13.33,5.61-3.5,11.62-6.25,17.78-8.49,12.34-4.46,25.24-7.15,38.28-8.23,3.26-.29,6.54-.4,9.81-.46,3.29,0,6.55.08,9.81.29,6.52.41,13.07,1.09,19.5,2.79.23.07,1.72.47,3.78,1.29,2.04.81,4.69,2.05,6.9,3.99,1.1.97,2.06,2.14,2.64,3.44.58,1.3.68,2.69.46,3.77-.22,1.09-.68,1.88-1.06,2.37-.38.49-.66.7-.74.64-.09-.06.04-.38.23-.92.19-.53.44-1.31.46-2.22.02-.92-.21-1.96-.78-2.93-.58-.97-1.47-1.85-2.49-2.59-2.06-1.49-4.56-2.46-6.52-3.08-1.96-.63-3.41-.94-3.62-1-6.11-1.61-12.53-2.3-18.93-2.7-3.21-.21-6.43-.28-9.62-.29-3.2.06-6.41.17-9.6.45-12.78,1.06-25.49,3.71-37.53,8.07-6.02,2.18-11.86,4.86-17.25,8.23-5.4,3.33-10.32,7.46-13.92,12.54-1.77,2.55-3.08,5.36-3.92,8.3l-.51,2.24c-.1.76-.15,1.52-.24,2.28-.12.76-.05,1.53-.04,2.29.04.77-.01,1.53.15,2.29l.34,2.28c.16.75.39,1.5.58,2.25l.3,1.12c.11.37.27.73.41,1.09l.84,2.18c.61,1.41,1.32,2.77,2.2,3.99.87,1.23,1.85,2.37,3.01,3.3.16.14,1.19,1.07,2.91,2,1.71.95,4.21,1.69,6.79,1.78,2.56.1,5.18-.44,6.81-1.33.37-.23.74-.47.9-.71.17-.24.18-.4.1-.6l-.2-.26-.2-.18c-.11-.11-.17-.19-.15-.23.02-.05.11-.06.28-.03.08.02.19.03.31.08.11.06.25.14.4.25.3.25.45.87.21,1.37-.21.51-.59.85-1.01,1.23-1.74,1.37-4.52,2.26-7.41,2.43-2.89.18-5.87-.45-7.96-1.43-2.11-.96-3.4-2.01-3.59-2.17Z"/><path class="cls-2" d="M57.09,229.7c-2.08,2.54-4.92,4.04-7.74,5.08-.72.24-1.42.5-2.18.66-.75.17-1.49.4-2.27.46-.77.09-1.53.22-2.31.19-.77,0-1.55.03-2.31-.09-6.18-.59-11.85-4.14-15.3-9.21-1.74-2.53-2.91-5.47-3.34-8.54-.44-3.06-.1-6.23.92-9.14.29-.71.53-1.45.87-2.13l1.08-2.02,1.29-1.88c.43-.63.96-1.17,1.44-1.75,2-2.25,4.3-4.21,6.79-5.82,4.94-3.29,10.41-5.55,15.98-7.25,5.6-1.67,11.22-2.86,16.9-3.94,5.68-1.05,11.41-1.86,17.22-2.2,2.9-.2,5.82-.2,8.75-.07,2.93.14,5.88.51,8.79,1.28.2.08,1.56.44,3.4,1.3.45.23.93.51,1.43.79.48.34,1,.65,1.48,1.08.99.78,1.92,1.9,2.47,3.21.56,1.31.6,2.85.16,4.08-.43,1.24-1.24,2.15-2,2.74-1.56,1.2-2.87,1.25-2.9,1.12-.1-.22,1.05-.67,2.14-1.93.54-.61,1.05-1.43,1.23-2.36.19-.93.03-1.93-.46-2.79-.49-.86-1.22-1.63-2.08-2.18-.4-.3-.87-.52-1.28-.77-.45-.2-.87-.39-1.27-.57-1.64-.63-2.89-.88-3.07-.95-2.63-.69-5.4-1.05-8.2-1.18-2.79-.12-5.61-.12-8.43.07-5.64.33-11.28,1.13-16.87,2.16-5.58,1.06-11.19,2.26-16.58,3.86-5.38,1.64-10.62,3.82-15.23,6.89-2.33,1.5-4.42,3.31-6.23,5.33-.42.53-.91,1.01-1.29,1.57l-1.14,1.66-.94,1.77c-.3.6-.5,1.23-.75,1.84-.87,2.5-1.16,5.19-.79,7.8.36,2.61,1.36,5.14,2.87,7.33,2.99,4.4,7.95,7.48,13.22,7.98,2.65.28,5.26-.16,7.82-1.05,2.52-.93,4.92-2.26,6.49-4.19.11-.13.92-.99,1.51-2.49.59-1.46.73-3.73-.19-5.62-.42-.92-1.19-1.73-1.78-1.8-.39-.02-.94.02-1.14.14-.08.06-.15.08-.16.12-.04.01,0,.06-.02.1.03.05.02.11.06.16.13.23.39.44.66.53.27.09.53.12.76.1.23-.01.42-.06.55-.09.14-.02.23-.02.26.02.03.04,0,.12-.11.23-.1.12-.27.27-.54.39-.51.24-1.58.41-2.46-.53-.11-.11-.19-.28-.27-.43-.04-.19-.13-.37-.1-.6,0-.46.3-.85.6-1.11.65-.47,1.23-.55,1.95-.63.85-.02,1.58.36,2.14.81.57.45,1.01,1.01,1.38,1.59,1.49,2.37,1.58,5.36.93,7.43-.64,2.1-1.66,3.3-1.79,3.47Z"/><path class="cls-2" d="M.76,282.79c.81-4.41,2.52-8.57,4.31-12.51.91-1.98,1.82-3.91,2.61-5.85.8-1.94,1.44-3.89,1.72-5.86.1-.49.13-.99.15-1.48.03-.49.07-.98.03-1.51-.05-1.04-.03-2.1-.14-3.13-.13-1.03-.17-2.08-.39-3.08l-.28-1.52-.39-1.49c-.55-1.97-1.3-3.88-2.32-5.66-.99-1.81-2.22-3.5-3.44-5.37-.07-.12-1.06-1.85-1.5-3.81-.05-.23-.1-.47-.15-.72-.02-.23-.03-.47-.05-.72-.02-.46-.05-.88.03-1.25.12-.73.28-1.17.47-1.17.42.01.75,1.73,1.59,3.17.8,1.46,1.93,2.82,2.01,2.96,1.13,1.74,2.44,3.55,3.53,5.53,1.12,1.96,1.96,4.1,2.57,6.28.14.55.3,1.09.43,1.64l.31,1.66c.24,1.1.29,2.22.42,3.33.12,1.11.1,2.22.15,3.33.04.54,0,1.13-.04,1.72-.02.58-.06,1.17-.18,1.73-.33,2.3-1.06,4.48-1.9,6.52-.84,2.05-1.77,4.02-2.66,5.96-1.77,3.89-3.36,7.78-4.11,11.88-.03.15-.54,1.86-.94,3.6-.42,1.73-.77,3.49-1.19,3.49-.37,0-.74-1.8-.82-3.68-.01-.94-.06-1.9.02-2.63.06-.73.12-1.25.13-1.33Z"/><path class="cls-2" d="M0,416.04v-251.23c0-1.5.64-36.01,1.43-36.01s1.43,34.51,1.43,36.01v251.23c0,1.5-.64,36.01-1.43,36.01s-1.43-34.51-1.43-36.01Z"/></g><path id="DecorativeElement_12_Shape" class="cls-1" d="M290.43,545.92c0-12.59,20-22.19,45.08-33.16,61.79-12.38,114.56-49.7,147.36-101.03,0,0,0,0,0,0,35.76-43.2,49.48-122.74,75.11-122.74-25.63,0-39.35-79.54-75.11-122.74,0,0,0,0,0,0-32.8-51.33-85.58-88.65-147.36-101.03-25.09-10.97-45.09-20.57-45.08-33.16,0,12.59-20,22.19-45.08,33.16-61.79,12.38-114.56,49.7-147.36,101.03h0c-35.76,43.2-49.48,122.74-75.11,122.74,25.63,0,39.35,79.54,75.11,122.74,0,0,0,0,0,0,32.8,51.33,85.58,88.65,147.36,101.03,25.09,10.97,45.08,20.57,45.08,33.16Z"/></g></svg>