<?xml version="1.0" encoding="UTF-8"?><svg id="Line" xmlns="http://www.w3.org/2000/svg" viewBox="0 0 743.67 86.87"><defs><style>.cls-1{opacity:.24;}.cls-1,.cls-2{fill:#fff;stroke-width:0px;}</style></defs><g id="Divider_9"><g id="Divider_9_Lines"><path class="cls-2" d="M145.11,68.13l2.07.38,2.1.22c1.4.13,2.8.34,4.21.4,2.82.07,5.66.28,8.46.08,5.61-.24,11.21-1.12,16.63-2.69,10.83-3.16,21-8.52,30.18-15.19,9.2-6.66,17.57-14.48,25.19-22.95,3.81-4.24,7.44-8.65,10.88-13.19,1.72-2.27,3.4-4.58,5.02-6.92.81-1.17,1.61-2.35,2.39-3.54l1.16-1.79.68-1.09,1.12-1.86,4.12,2.1,2.93,1.52,5.84,3.08c3.89,2.07,7.75,4.17,11.61,6.3,7.71,4.25,15.35,8.62,22.93,13.11,15.14,8.99,30.03,18.45,44.21,28.98.57.45,7.56,5.75,13.81,11.66,1.57,1.47,3.11,2.95,4.48,4.4,1.41,1.41,2.62,2.83,3.67,4.02,2.05,2.43,3.23,4.18,3.1,4.29-.17.14-1.63-1.36-3.9-3.52-1.16-1.07-2.46-2.35-3.96-3.63-1.46-1.33-3.08-2.68-4.71-4.04-6.51-5.44-13.62-10.44-14.19-10.88-14.05-10.43-28.87-19.85-43.95-28.81-7.55-4.47-15.16-8.83-22.85-13.06-3.84-2.12-7.7-4.21-11.57-6.28l-5.82-3.07-4.66-2.41-.46.73-1.18,1.83c-.79,1.21-1.6,2.41-2.43,3.6-1.64,2.38-3.34,4.72-5.09,7.02-3.49,4.61-7.17,9.07-11.03,13.38-7.73,8.59-16.24,16.55-25.64,23.36-9.39,6.81-19.83,12.34-31.06,15.61-5.62,1.63-11.44,2.55-17.29,2.8-2.94.2-5.84-.01-8.75-.09-1.46-.06-2.91-.28-4.36-.41l-2.18-.23-2.16-.39c-.36-.1-2.75-.43-6.01-1.47-1.66-.41-3.47-1.2-5.41-1.94-1.88-.89-3.88-1.81-5.72-3.02-3.73-2.31-6.9-5.36-8.76-8-1.87-2.65-2.48-4.75-2.28-4.81h0c.18-.07,1.1,1.8,3.15,4.12,2.04,2.32,5.25,4.98,8.92,6.95,1.8,1.04,3.75,1.81,5.58,2.56,1.89.6,3.62,1.28,5.23,1.6,3.14.86,5.46,1.1,5.8,1.19Z"/><path class="cls-2" d="M359.45,69.91c-7.21-5.56-14.78-10.69-22.49-15.58-7.72-4.89-15.61-9.5-23.64-13.86-16.07-8.68-32.7-16.4-49.96-22.26-.14-.05-1.1-.41-2.55-.95-.69-.26-1.49-.57-2.36-.9-.84-.31-1.74-.63-2.67-.98-1.8-.69-3.59-1.33-4.93-1.85-1.33-.53-2.2-.96-2.15-1.15.05-.19,1.01-.13,2.43.08,1.43.2,3.32.54,5.21.99.98.23,1.92.45,2.8.65.91.24,1.75.47,2.47.66,1.51.42,2.51.7,2.66.75,17.47,5.94,34.23,13.71,50.41,22.46,8.08,4.4,16.03,9.04,23.8,13.96,7.77,4.93,15.4,10.09,22.71,15.73.25.21,3.32,2.75,6.07,5.53,1.38,1.39,2.68,2.84,3.52,4.05.43.59.75,1.12.92,1.53.18.4.24.64.15.69-.08.05-.3-.08-.62-.35-.3-.28-.74-.66-1.28-1.12-1.05-.93-2.53-2.11-4.04-3.28-3.03-2.34-6.24-4.58-6.49-4.79Z"/><path class="cls-2" d="M599.06,70.94l-2.16.39-2.18.23c-1.45.13-2.91.35-4.36.41-2.92.07-5.82.29-8.75.09-5.85-.25-11.68-1.17-17.29-2.8-11.23-3.28-21.68-8.8-31.06-15.61-9.41-6.81-17.91-14.77-25.64-23.36-3.87-4.3-7.54-8.77-11.03-13.38-1.75-2.3-3.45-4.64-5.09-7.02-.83-1.19-1.63-2.39-2.43-3.6l-1.18-1.83-.46-.73-4.66,2.41-5.82,3.07c-3.87,2.06-7.73,4.16-11.57,6.28-7.68,4.24-15.3,8.59-22.85,13.06-15.08,8.95-29.9,18.37-43.95,28.81-.56.44-7.67,5.44-14.18,10.88-1.63,1.36-3.25,2.71-4.71,4.04-1.5,1.28-2.81,2.57-3.96,3.63-2.27,2.17-3.73,3.66-3.9,3.52-.13-.11,1.05-1.85,3.1-4.29,1.04-1.2,2.25-2.61,3.67-4.02,1.37-1.45,2.92-2.93,4.48-4.4,6.25-5.91,13.24-11.21,13.81-11.66,14.18-10.53,29.07-19.99,44.21-28.98,7.57-4.49,15.22-8.86,22.93-13.11,3.85-2.13,7.72-4.23,11.6-6.3l5.84-3.08,2.93-1.52,4.12-2.1,1.12,1.86.68,1.09,1.16,1.79c.78,1.19,1.57,2.37,2.39,3.54,1.62,2.34,3.3,4.65,5.02,6.92,3.45,4.54,7.07,8.95,10.88,13.19,7.62,8.47,15.99,16.29,25.19,22.95,9.18,6.67,19.34,12.02,30.18,15.19,5.42,1.57,11.01,2.45,16.63,2.69,2.8.2,5.64-.02,8.46-.08,1.41-.06,2.81-.27,4.21-.4l2.1-.22,2.07-.38c.34-.09,2.65-.33,5.8-1.19,1.61-.32,3.34-1,5.23-1.6,1.82-.75,3.78-1.52,5.58-2.56,3.66-1.97,6.87-4.63,8.92-6.95,2.05-2.32,2.98-4.19,3.15-4.12.19.06-.41,2.16-2.28,4.81-1.86,2.64-5.03,5.69-8.76,8-1.83,1.21-3.83,2.13-5.72,3.02-1.94.73-3.75,1.53-5.41,1.94-3.26,1.04-5.65,1.37-6.01,1.47Z"/><path class="cls-2" d="M382.46,67.65c7.32-5.64,14.94-10.8,22.71-15.73,7.77-4.92,15.72-9.57,23.8-13.96,16.18-8.75,32.94-16.52,50.41-22.46.14-.04,1.15-.32,2.66-.75.72-.19,1.56-.42,2.47-.66.88-.2,1.82-.42,2.8-.65,1.89-.45,3.79-.79,5.21-.99,1.43-.2,2.39-.27,2.43-.08.05.19-.82.62-2.15,1.15-1.33.53-3.13,1.16-4.93,1.85-.93.34-1.83.67-2.67.98-.87.33-1.67.64-2.36.9-1.45.54-2.42.9-2.55.95-17.26,5.87-33.9,13.58-49.96,22.26-8.03,4.36-15.92,8.98-23.64,13.86-7.71,4.89-15.28,10.02-22.49,15.58-.25.21-3.46,2.45-6.49,4.79-1.51,1.17-2.98,2.35-4.04,3.28-.54.46-.98.84-1.28,1.12-.32.27-.54.41-.62.35-.08-.05-.02-.3.15-.69.17-.41.49-.93.92-1.53.85-1.21,2.15-2.65,3.52-4.05,2.75-2.79,5.82-5.32,6.07-5.53Z"/><path class="cls-2" d="M108.67,48.64h526.32c1.55.02,20.33.22,38.89.42,4.6.07,9.19.14,13.5.21,2.12.04,4.28.03,6.28.46,1.97.41,3.96,1.21,5.12,2.79,1.16,1.57,1.19,3.49.7,4.88-.49,1.42-1.5,2.42-2.48,2.82-.99.43-1.84.37-2.37.3-.54-.12-.8-.22-.79-.27.01-.05.3-.04.81-.02.51-.02,1.28-.07,2.09-.52.81-.42,1.59-1.33,1.93-2.56.34-1.21.2-2.78-.77-3.95-.95-1.18-2.65-1.83-4.49-2.13-1.86-.32-3.87-.25-6.03-.21-4.31.07-8.9.14-13.5.21-18.56.2-37.34.4-38.89.42H108.67c-1.55-.02-20.33-.22-38.89-.42-4.6-.07-9.19-.14-13.5-.21-2.16-.04-4.17-.12-6.03.21-1.84.3-3.54.95-4.49,2.13-.97,1.17-1.11,2.73-.77,3.95.34,1.23,1.12,2.14,1.93,2.56.81.45,1.58.5,2.09.52.51-.02.8-.03.81.02.01.04-.26.15-.79.27-.53.08-1.38.13-2.37-.3-.98-.4-2-1.4-2.48-2.82-.49-1.39-.46-3.31.7-4.88,1.16-1.58,3.14-2.38,5.12-2.79,2-.43,4.16-.43,6.28-.46,4.31-.07,8.9-.14,13.5-.21,18.56-.2,37.34-.4,38.89-.42Z"/><path class="cls-2" d="M6.17,46.38l.43.88.5.85c.34.56.66,1.14,1.01,1.69.78,1.06,1.47,2.19,2.35,3.18,1.62,2.09,3.56,3.9,5.54,5.66,4.07,3.39,8.74,6.05,13.71,7.94,9.95,3.8,21.05,4.41,31.55,2.63,10.53-1.76,20.37-6.98,27.59-14.8,1.79-1.96,3.46-4.05,4.98-6.24,1.5-2.21,2.85-4.51,4.06-6.9,1.2-2.39,2.26-4.85,3.15-7.37.46-1.26.85-2.53,1.22-3.81.18-.64.35-1.28.51-1.93l.24-1.07c.14-.67.27-1.35.38-2.04h536.85c.12.68.25,1.36.38,2.04l.24,1.07c.16.64.33,1.29.51,1.93.37,1.28.77,2.56,1.22,3.81.9,2.52,1.95,4.98,3.15,7.37,1.21,2.39,2.56,4.69,4.06,6.9,1.52,2.19,3.19,4.27,4.98,6.24,7.22,7.83,17.07,13.04,27.59,14.8,10.5,1.77,21.6,1.16,31.55-2.63,4.97-1.89,9.64-4.55,13.71-7.94,1.97-1.76,3.92-3.57,5.54-5.66.88-.99,1.57-2.12,2.35-3.18.35-.56.68-1.13,1.01-1.69l.5-.85.43-.88c.12-.26.44-.86.87-1.78.36-.95.95-2.19,1.38-3.78.92-3.13,1.8-7.66.74-12.75-.52-2.53-1.5-5.16-3.06-7.63-1.58-2.45-3.76-4.68-6.35-6.54-1.26-.98-2.71-1.73-4.15-2.52-.75-.34-1.51-.68-2.27-1.02-.75-.36-1.55-.58-2.33-.88-3.13-.99-6.59-1.4-9.5-.16-2.93,1.2-4.85,4.13-5.53,7.27-.7,3.14-.43,6.53.8,9.29.63,1.35,1.51,2.61,2.7,3.24l.44.23c.15.06.31.09.47.14.31.13.64.1.96.15.33.01.67-.05,1-.07.34-.02.62-.17.93-.24,1.2-.42,1.87-1.57,2.01-2.77.14-1.22-.22-2.48-.88-3.44-.65-.98-1.6-1.66-2.62-1.89-1.02-.23-2.12-.06-2.91.39-.81.45-1.32,1.24-1.49,2.04-.17.8-.03,1.59.25,2.22.6,1.28,1.72,1.84,2.46,2.01.75.2,1.19.22,1.19.29,0,.03-.43.11-1.25,0-.8-.09-2.11-.59-2.91-2.03-.38-.71-.6-1.63-.44-2.61.15-.97.74-2.01,1.75-2.63,1.01-.61,2.25-.86,3.54-.63,1.29.24,2.52,1.06,3.33,2.22.82,1.15,1.32,2.62,1.19,4.19-.04.39-.08.79-.23,1.17-.07.19-.11.4-.21.58l-.32.54c-.19.38-.56.64-.85.96-.35.23-.72.49-1.11.66-.4.12-.81.31-1.22.36-.42.04-.83.12-1.26.12-.43-.04-.88-.02-1.31-.17-.21-.06-.43-.11-.64-.19l-.6-.29c-1.62-.82-2.68-2.33-3.45-3.86-1.47-3.14-1.84-6.8-1.13-10.35.37-1.77,1.04-3.54,2.13-5.09,1.07-1.55,2.6-2.86,4.36-3.64,1.76-.8,3.7-1.07,5.56-1.03,1.88.01,3.67.46,5.41.92.84.3,1.72.53,2.53.9.81.35,1.62.7,2.43,1.05,1.55.82,3.12,1.61,4.51,2.65,2.84,1.97,5.28,4.39,7.08,7.1,1.78,2.72,2.92,5.65,3.53,8.46,1.25,5.67.34,10.65-.63,14.08-.45,1.75-1.07,3.09-1.46,4.13-.45,1.01-.8,1.66-.92,1.94l-.47.96-.54.92c-.37.61-.72,1.22-1.1,1.82-.83,1.14-1.58,2.35-2.52,3.42-1.74,2.24-3.81,4.18-5.92,6.05-4.33,3.61-9.29,6.43-14.54,8.43-5.25,2-10.79,3.16-16.36,3.58-5.58.4-11.18.16-16.7-.81-11.05-1.84-21.56-7.39-29.18-15.67-1.9-2.07-3.65-4.27-5.25-6.57-1.58-2.32-2.99-4.73-4.25-7.23-1.26-2.49-2.36-5.07-3.29-7.7-.48-1.31-.89-2.65-1.28-3.99-.19-.67-.37-1.35-.54-2.04l-.22-.93H105.77l-.22.93c-.17.68-.35,1.36-.54,2.04-.39,1.34-.8,2.68-1.28,3.99-.94,2.63-2.04,5.2-3.29,7.7-1.26,2.49-2.68,4.91-4.25,7.23-1.59,2.3-3.35,4.5-5.25,6.57-7.62,8.28-18.13,13.83-29.18,15.67-5.52.97-11.12,1.2-16.7.81-5.57-.42-11.12-1.58-16.36-3.58-5.25-2-10.2-4.82-14.54-8.43-2.11-1.87-4.18-3.81-5.92-6.05-.94-1.06-1.69-2.27-2.52-3.42-.38-.6-.73-1.22-1.1-1.82l-.54-.92-.47-.96c-.13-.28-.47-.93-.92-1.94-.38-1.04-1-2.38-1.46-4.13-.97-3.42-1.88-8.41-.63-14.08.62-2.81,1.75-5.74,3.53-8.46,1.8-2.71,4.25-5.13,7.08-7.1,1.39-1.04,2.96-1.82,4.51-2.65.81-.35,1.62-.7,2.43-1.05.8-.37,1.68-.6,2.53-.9,1.74-.47,3.53-.91,5.41-.92,1.86-.04,3.8.23,5.56,1.03,1.76.78,3.29,2.09,4.36,3.64,1.08,1.55,1.76,3.32,2.13,5.09.71,3.55.34,7.21-1.13,10.35-.76,1.54-1.83,3.04-3.45,3.86l-.6.29c-.21.08-.43.12-.64.19-.42.15-.87.13-1.31.17-.43,0-.84-.08-1.26-.12-.41-.05-.82-.24-1.22-.36-.39-.17-.75-.43-1.11-.66-.29-.32-.65-.58-.85-.96l-.32-.54c-.1-.18-.14-.39-.21-.58-.15-.39-.19-.78-.23-1.17-.12-1.57.37-3.04,1.19-4.19.82-1.16,2.04-1.98,3.33-2.22,1.29-.23,2.54.01,3.54.63,1,.62,1.6,1.66,1.75,2.63.16.98-.06,1.9-.44,2.61-.8,1.45-2.11,1.94-2.91,2.03-.82.11-1.25.03-1.25,0,0-.07.43-.09,1.19-.29.74-.17,1.86-.73,2.46-2.01.29-.62.43-1.41.25-2.22-.17-.8-.68-1.59-1.49-2.04-.79-.45-1.89-.62-2.91-.39-1.02.23-1.97.91-2.62,1.89-.65.96-1.02,2.22-.88,3.44.13,1.2.8,2.35,2.01,2.77.31.07.6.22.93.24.33.02.67.08,1,.07.32-.05.65-.03.96-.15.16-.05.32-.08.47-.14l.44-.23c1.19-.62,2.07-1.88,2.7-3.24,1.23-2.77,1.5-6.15.8-9.29-.68-3.14-2.6-6.07-5.53-7.27-2.91-1.25-6.37-.83-9.5.16-.78.3-1.58.51-2.33.88-.76.34-1.52.68-2.27,1.02-1.44.79-2.89,1.55-4.15,2.52-2.58,1.86-4.76,4.09-6.35,6.54-1.56,2.47-2.54,5.1-3.06,7.63-1.05,5.1-.18,9.62.74,12.75.43,1.59,1.02,2.83,1.38,3.78.43.93.75,1.52.87,1.78Z"/></g><path id="Divider_9_Shape" class="cls-1" d="M371.79,12.37h-190.39c37.12,31.75,143.77,60.87,190.39,74.5,46.62-13.63,153.27-42.75,190.39-74.5h-190.39Z"/></g></svg>