<?xml version="1.0" encoding="UTF-8"?><svg id="Line" xmlns="http://www.w3.org/2000/svg" viewBox="0 0 704.51 90"><defs><style>.cls-1{opacity:.24;}.cls-1,.cls-2{fill:#fff;stroke-width:0px;}</style></defs><g id="Divider_6"><g id="Divider_6_Lines"><path class="cls-2" d="M55.83,63.31c5.9-2.34,11.99-3.83,18.08-5.17l4.58-.92c1.53-.3,3.07-.54,4.6-.81,3.06-.56,6.14-.98,9.22-1.44,12.31-1.76,24.66-2.94,37.03-3.93,24.73-1.94,49.51-2.94,74.28-3.67,49.55-1.39,99.11-1.39,148.64-1.39,49.54,0,99.09,0,148.64,1.39,24.77.73,49.55,1.73,74.28,3.67,12.36.99,24.72,2.17,37.03,3.93,3.07.46,6.15.88,9.22,1.44,1.53.27,3.07.51,4.6.81l4.58.92c6.09,1.34,12.18,2.82,18.08,5.17.21.09.7.31,1.45.64.37.16.81.36,1.3.58.1.04.34.15.21.1-.01,0,0,0,0,0,.24-.02.49-.04.75-.06,2.63-.23,6.19-.29,10.32-.01,4.13.25,8.79.88,13.7,1.49,4.89.57,10.1,1.23,15.07.52,2.47-.36,4.84-1.17,6.82-2.51,1.94-1.38,3.67-3.18,4.36-5.25.72-2.07.21-4.3-.91-6.03-1.12-1.74-2.72-3.06-4.33-3.94-1.61-.87-3.32-1.34-4.72-1.1-.32.06-.7.18-1.07.27-.36.09-.72.17-1.09.2-.18.02-.38.02-.61-.02-.11-.04-.29-.07-.42-.29-.07-.11-.06-.22-.05-.33.02-.07.05-.16.08-.2.26-.39.53-.51.79-.67,1.06-.57,2.06-.61,2.67-.41.62.21.8.55.77.56-.04.05-.28-.19-.84-.27-.54-.09-1.42.04-2.3.62-.2.13-.45.34-.52.49-.03.01.06.02-.08,0-.03-.03-.12,0-.08,0-.02.01.08-.06.09-.12.01-.03.03,0,.04-.01.09,0,.23,0,.38-.02.3-.05.63-.14.96-.25.33-.11.67-.24,1.11-.35,1.7-.37,3.59.09,5.4.95,1.8.89,3.6,2.23,4.96,4.17.67.97,1.21,2.1,1.47,3.36.26,1.25.22,2.62-.17,3.9-1.74,5.14-7.03,8.44-12.37,9.28-5.38.9-10.72.31-15.66-.15-4.95-.52-9.56-1.04-13.58-1.21-4.02-.2-7.43-.08-9.92.17-.38.04-.74.07-1.08.11-.14,0-.29.05-.42.02-.13-.06-.26-.11-.39-.17-.18-.08-.36-.15-.53-.23-.47-.2-.88-.38-1.24-.53-.71-.3-1.18-.5-1.37-.59-5.62-2.24-11.61-3.71-17.6-5.02l-4.52-.91c-1.51-.3-3.03-.53-4.55-.8-3.03-.55-6.09-.97-9.14-1.43-12.22-1.75-24.53-2.92-36.85-3.91-24.66-1.93-49.4-2.93-74.14-3.66-49.49-1.39-99.02-1.39-148.56-1.39-49.54,0-99.07,0-148.56,1.39-24.74.73-49.48,1.73-74.14,3.66-12.32.98-24.64,2.16-36.85,3.91-3.05.46-6.11.88-9.14,1.43-1.52.27-3.04.5-4.55.8l-4.52.91c-5.99,1.31-11.98,2.78-17.6,5.02-.2.08-.67.29-1.37.59-.35.15-.77.33-1.24.53-.17.07-.35.15-.53.23-.13.06-.26.11-.39.17-.13.04-.28-.01-.42-.02-.34-.03-.7-.07-1.08-.11-2.49-.25-5.9-.37-9.92-.17-4.02.18-8.63.7-13.58,1.21-4.94.46-10.28,1.06-15.66.15-5.34-.83-10.63-4.14-12.37-9.28-.39-1.28-.43-2.65-.17-3.9.26-1.26.8-2.39,1.47-3.36,1.36-1.94,3.16-3.29,4.96-4.17,1.8-.86,3.7-1.32,5.4-.95.44.11.78.25,1.11.35.34.11.66.2.96.25.15.03.29.03.38.02.01,0,.03-.02.04.01,0,.06.11.13.09.12.04.02-.05-.02-.08,0-.15.02-.05.01-.08,0-.07-.15-.32-.35-.52-.49-.88-.57-1.76-.71-2.3-.62-.56.09-.8.33-.84.27-.03-.01.15-.35.77-.56.61-.2,1.61-.16,2.67.41.26.16.54.29.79.67.03.05.06.13.08.2,0,.11.02.21-.05.33-.13.23-.3.26-.42.29-.23.04-.42.04-.61.02-.37-.04-.73-.11-1.09-.2-.37-.1-.74-.21-1.07-.27-1.4-.23-3.11.24-4.72,1.1-1.61.88-3.21,2.2-4.33,3.94-1.13,1.73-1.63,3.96-.91,6.03.69,2.07,2.42,3.87,4.36,5.25,1.98,1.35,4.35,2.16,6.82,2.51,4.97.72,10.18.05,15.07-.52,4.9-.61,9.57-1.23,13.7-1.49,4.12-.28,7.69-.22,10.32.01.26.02.51.04.75.06,0,0,.01,0,0,0-.13.05.12-.05.21-.1.49-.22.93-.41,1.3-.58.75-.33,1.24-.55,1.45-.64Z"/><path class="cls-2" d="M189.03,57.22c6.91,1.86,13.72,4.09,20.37,6.8,1.67.69,3.3,1.34,4.92,1.97,1.61.68,3.3,1.17,4.95,1.76,1.66.56,3.36,1.03,5.04,1.55l5.1,1.39c6.84,1.75,13.77,3.16,20.74,4.34,6.97,1.17,13.99,2.12,21.01,2.68,1.75.16,3.51.23,5.25.3l2.6.03,1.27-.06.47-.02s.04-.03-.03.03c.67-.5,1.45-1.18,2.2-1.66l2.31-1.49c1.58-.88,3.15-1.81,4.78-2.58,6.46-3.22,13.16-5.79,19.98-7.98,6.82-2.18,13.77-3.97,20.82-5.29,7.05-1.3,14.21-2.15,21.44-2.17,7.23.02,14.39.86,21.44,2.17,7.05,1.32,14,3.11,20.82,5.29,6.82,2.19,13.52,4.76,19.98,7.98,1.63.77,3.2,1.7,4.78,2.58l2.31,1.49c.76.48,1.53,1.16,2.2,1.66-.07-.05-.03-.02-.03-.03l.47.02,1.27.06,2.6-.03c1.75-.08,3.5-.14,5.25-.3,7.02-.56,14.04-1.51,21.01-2.68,6.97-1.18,13.9-2.6,20.74-4.34l5.1-1.39c1.68-.52,3.38-.99,5.04-1.55,1.65-.59,3.34-1.08,4.95-1.76,1.62-.63,3.25-1.28,4.92-1.97,6.64-2.71,13.46-4.94,20.37-6.8.97-.31,12.93-3.34,24.9-4.7,5.97-.73,11.91-1.1,16.35-1.16,1.09,0,2.1-.01,3.03-.02.86.03,1.64.06,2.33.08,1.29.06,2.02.14,2.02.24s-.73.21-2.01.33c-.69.06-1.46.12-2.31.19-.92.09-1.92.18-3,.28-4.39.4-10.25,1.08-16.13,2.05-11.77,1.87-23.48,5.16-24.43,5.46-6.81,1.84-13.52,4.03-20.04,6.69-1.61.67-3.28,1.33-4.97,1.99-1.67.7-3.39,1.2-5.09,1.81-1.7.57-3.43,1.05-5.14,1.58l-5.18,1.41c-6.93,1.77-13.93,3.2-20.97,4.39-7.04,1.18-14.12,2.14-21.26,2.71-1.78.16-3.58.23-5.39.31l-2.73.03-1.39-.06-.86-.04h-.32c-.05-.02-.11-.01-.16-.03l-.13-.1-.56-.44c-2.64-2.17-5.68-3.85-8.81-5.42-6.26-3.12-12.86-5.66-19.57-7.81-6.71-2.14-13.55-3.9-20.47-5.2-6.92-1.28-13.93-2.1-20.92-2.12-6.99.02-14,.84-20.92,2.12-6.92,1.29-13.76,3.05-20.47,5.2-6.71,2.15-13.31,4.69-19.57,7.81-3.13,1.57-6.18,3.24-8.81,5.42l-.56.44-.13.1c-.05.01-.11,0-.16.01h-.32s-.86.05-.86.05l-1.39.06-2.73-.03c-1.8-.08-3.6-.15-5.39-.31-7.15-.57-14.22-1.53-21.26-2.71-7.04-1.19-14.04-2.62-20.97-4.39l-5.18-1.41c-1.71-.53-3.44-1.01-5.14-1.58-1.7-.61-3.42-1.11-5.09-1.81-1.69-.66-3.36-1.32-4.97-1.99-6.52-2.66-13.23-4.85-20.04-6.69-.95-.3-12.66-3.6-24.43-5.46-5.87-.98-11.73-1.65-16.13-2.05-1.08-.1-2.08-.19-3-.28-.85-.07-1.62-.13-2.31-.19-1.28-.12-2.01-.23-2.01-.33,0-.1.73-.18,2.02-.24.69-.02,1.47-.05,2.33-.08.93,0,1.94.01,3.03.02,4.44.06,10.38.43,16.35,1.16,11.96,1.37,23.93,4.39,24.9,4.7Z"/><path class="cls-2" d="M504.32,62.75c7.86-1.06,15.76-1.16,23.61-.89,7.85.28,15.67.99,23.45,1.93,3.89.46,7.77,1.01,11.64,1.59,3.85.57,7.77,1.26,11.54,1.8,3.73.51,7.53.41,11.19-.29,3.67-.69,7.17-2.13,10.35-4.08.23-.12,3.03-1.72,5.52-3.76,2.52-1.99,4.72-4.33,5.06-4.08.3.22-1.37,3.05-3.67,5.55-2.25,2.54-5.13,4.59-5.39,4.72-3.46,2.13-7.3,3.71-11.31,4.46-4,.77-8.11.87-12.11.32-3.95-.56-7.73-1.24-11.6-1.81-3.85-.57-7.7-1.12-11.56-1.58-7.72-.93-15.46-1.63-23.21-1.91-7.74-.27-15.51-.16-23.12.87-.12.01-.98.09-2.29.21-.64.03-1.35.13-2.11.25-.74.1-1.54.22-2.37.34-1.63.15-3.17.57-4.37.76-1.2.2-2.03.27-2.1.08s.63-.6,1.75-1.14c1.12-.51,2.64-1.25,4.25-1.67.84-.24,1.64-.48,2.38-.69.77-.23,1.49-.42,2.14-.53,1.33-.25,2.21-.42,2.33-.44Z"/><path class="cls-2" d="M199.8,65.58c-7.61-1.03-15.38-1.13-23.12-.87-7.75.28-15.49.97-23.21,1.91-3.86.45-7.71,1.01-11.56,1.58-3.87.57-7.64,1.24-11.6,1.81-4,.54-8.11.45-12.11-.32-4-.75-7.84-2.33-11.31-4.46-.25-.13-3.14-2.18-5.39-4.72-2.3-2.5-3.97-5.33-3.67-5.55.33-.25,2.54,2.09,5.06,4.08,2.49,2.04,5.29,3.64,5.52,3.76,3.18,1.95,6.67,3.39,10.35,4.08,3.67.71,7.46.8,11.19.29,3.77-.54,7.68-1.23,11.54-1.8,3.87-.57,7.75-1.13,11.64-1.59,7.78-.94,15.6-1.64,23.45-1.93,7.85-.27,15.75-.17,23.61.89.12.02,1,.19,2.33.44.64.11,1.37.3,2.14.53.74.22,1.54.45,2.38.69,1.62.42,3.13,1.15,4.25,1.67,1.12.53,1.82.95,1.75,1.14-.07.18-.9.12-2.1-.08-1.21-.18-2.74-.6-4.37-.76-.83-.12-1.63-.23-2.37-.34-.76-.12-1.47-.22-2.11-.25-1.31-.12-2.17-.2-2.29-.21Z"/></g><g id="Divider_6_Shape"><polygon class="cls-1" points="352.25 90 307.19 45 352.25 0 397.32 45 352.25 90"/><polygon class="cls-1" points="254.02 69.89 232.05 47.95 254.02 26.01 275.99 47.95 254.02 69.89"/><polygon class="cls-1" points="450.49 69.89 472.46 47.95 450.49 26.01 428.52 47.95 450.49 69.89"/></g></g></svg>