<?xml version="1.0" encoding="UTF-8"?><svg id="Line" xmlns="http://www.w3.org/2000/svg" viewBox="0 0 726.84 148"><defs><style>.cls-1{opacity:.24;}.cls-1,.cls-2{fill:#fff;stroke-width:0px;}</style></defs><g id="Divider_10"><g id="Divider_10_Lines"><path class="cls-2" d="M248.1,64.18c8.81,3.18,17.23,7.14,25.57,11.19,8.33,4.07,16.57,8.29,24.83,12.45,8.26,4.16,16.54,8.26,24.93,12.06,4.2,1.89,8.42,3.74,12.71,5.4,4.27,1.68,8.6,3.24,12.99,4.47.16.03,1.16.41,2.6.82.71.21,1.53.46,2.42.73.86.22,1.79.46,2.75.71.93.27,1.86.42,2.74.61.87.19,1.69.38,2.39.48,1.41.23,2.36.47,2.36.66,0,.2-.95.34-2.43.44-.74.08-1.59.04-2.51,0-.92-.05-1.92-.06-2.9-.21-1.02-.13-2-.26-2.91-.38-.94-.18-1.81-.35-2.55-.49-1.53-.28-2.57-.59-2.74-.62-4.52-1.27-8.92-2.85-13.25-4.56-4.34-1.69-8.61-3.55-12.84-5.46-8.46-3.84-16.77-7.95-25.04-12.11-8.27-4.16-16.5-8.38-24.8-12.43-8.3-4.03-16.66-7.96-25.27-11.06-.31-.09-3.95-1.58-7.61-2.72-1.83-.59-3.66-1.02-5.05-1.36-1.39-.25-2.33-.49-2.34-.69,0-.2.96-.33,2.44-.42,1.47,0,3.45.15,5.41.5,3.92.67,7.78,1.9,8.1,1.99Z"/><path class="cls-2" d="M76.72,78.35h151.93c1.32-.02,2.7.05,4.06.08,1.36.04,2.71.2,4.07.3,10.81,1.2,21.16,4.28,31.33,7.59,20.3,6.75,40.03,14.92,60.51,20.48.73.2,9.48,2.78,18.24,4.45,4.38.81,8.75,1.46,12.04,1.79,3.29.35,5.48.51,5.48.73,0,.17-2.2.39-5.54.37-3.34.02-7.81-.34-12.3-.9-8.98-1.18-17.94-3.48-18.67-3.68-20.72-5.63-40.5-13.82-60.66-20.52-10.08-3.29-20.31-6.31-30.73-7.46-1.3-.09-2.6-.25-3.9-.29-1.31-.03-2.58-.1-3.93-.08H76.72c-1.52,0-36.67-.64-36.67-1.43s35.15-1.43,36.67-1.43Z"/><path class="cls-2" d="M35.89,73.96c-1.33-1.4-3.08-2.38-5-2.93-.95-.32-1.98-.42-2.99-.58-.52-.04-1.04-.04-1.56-.06-.52-.03-1.04-.04-1.58,0-4.29.13-8.56.82-12.4,2.47-3.78,1.66-7.17,4.42-8.66,8.12-.75,1.82-1.04,3.82-.7,5.71.31,1.88,1.26,3.62,2.7,4.76.08.09,1.23,1.23,2.84,1.8,1.56.64,3.39.72,3.45,1.13.07.35-1.78,1.05-3.88.84-2.12-.11-4.08-1.4-4.18-1.53-2.04-1.62-3.32-4.04-3.73-6.5-.44-2.48-.06-5.02.88-7.28.91-2.28,2.43-4.25,4.2-5.86,1.78-1.61,3.82-2.85,5.96-3.8,4.31-1.86,8.92-2.57,13.46-2.71.56-.04,1.14-.03,1.73,0,.59.03,1.17.03,1.76.08,1.18.17,2.36.3,3.52.68,2.31.66,4.57,1.89,6.28,3.71.16.08,1.47,1.86,2.04,3.82.6,1.96.45,3.94.03,3.95-.37.02-.93-1.68-1.88-3.14-.94-1.46-2.15-2.61-2.28-2.68Z"/><path class="cls-2" d="M479.69,66.87c-8.61,3.1-16.97,7.03-25.27,11.06-8.3,4.05-16.53,8.27-24.8,12.43-8.27,4.16-16.58,8.28-25.04,12.11-4.23,1.91-8.5,3.77-12.84,5.46-4.33,1.71-8.73,3.29-13.25,4.56-.16.04-1.21.35-2.74.62-.75.14-1.61.31-2.55.49-.91.12-1.89.25-2.91.38-.98.15-1.97.16-2.9.21-.92.04-1.77.08-2.51,0-1.47-.1-2.43-.25-2.43-.44,0-.2.95-.43,2.36-.66.7-.09,1.52-.29,2.39-.48.87-.19,1.81-.34,2.74-.61.96-.25,1.89-.48,2.75-.71.89-.27,1.71-.52,2.42-.73,1.44-.4,2.44-.78,2.6-.82,4.39-1.23,8.71-2.79,12.99-4.47,4.28-1.66,8.51-3.51,12.71-5.4,8.4-3.81,16.68-7.91,24.93-12.06,8.26-4.16,16.5-8.38,24.83-12.45,8.34-4.05,16.76-8.01,25.57-11.19.32-.09,4.17-1.32,8.1-1.99,1.95-.36,3.94-.5,5.41-.5,1.49.08,2.45.22,2.44.42,0,.2-.95.44-2.34.69-1.39.34-3.22.77-5.05,1.36-3.66,1.14-7.3,2.63-7.61,2.72Z"/><path class="cls-2" d="M650.12,81.2h-151.93c-1.35-.02-2.63.05-3.93.08-1.3.04-2.6.2-3.9.29-10.42,1.16-20.65,4.18-30.73,7.46-20.16,6.7-39.94,14.89-60.66,20.52-.73.2-9.69,2.51-18.67,3.68-4.49.56-8.95.92-12.3.9-3.34.01-5.55-.2-5.54-.37,0-.22,2.2-.38,5.48-.73,3.29-.32,7.66-.98,12.04-1.79,8.77-1.67,17.52-4.25,18.24-4.45,20.48-5.56,40.21-13.72,60.51-20.48,10.16-3.31,20.52-6.39,31.33-7.59,1.36-.1,2.71-.26,4.07-.3,1.36-.03,2.74-.1,4.06-.08h151.93c1.52,0,36.67.64,36.67,1.43s-35.15,1.43-36.67,1.43Z"/><path class="cls-2" d="M688.87,72c1.72-1.82,3.97-3.06,6.28-3.71,1.16-.38,2.34-.5,3.52-.68.59-.04,1.17-.05,1.76-.08.59-.03,1.17-.04,1.73,0,4.54.14,9.15.86,13.46,2.71,2.14.95,4.18,2.19,5.96,3.8,1.77,1.6,3.28,3.57,4.2,5.86.94,2.26,1.31,4.8.88,7.28-.41,2.47-1.69,4.89-3.73,6.5-.1.13-2.07,1.42-4.18,1.53-2.1.21-3.95-.48-3.88-.84.05-.41,1.88-.49,3.45-1.13,1.61-.57,2.76-1.71,2.84-1.8,1.44-1.14,2.39-2.88,2.7-4.76.34-1.89.05-3.89-.7-5.71-1.49-3.7-4.88-6.46-8.66-8.12-3.84-1.66-8.12-2.34-12.4-2.47-.54-.04-1.07-.03-1.58,0-.52.02-1.04.03-1.56.06-1.01.16-2.04.26-2.99.58-1.93.55-3.68,1.52-5,2.93-.13.07-1.34,1.21-2.28,2.68-.95,1.45-1.51,3.15-1.88,3.14-.41-.01-.57-1.99.03-3.95.57-1.96,1.88-3.74,2.04-3.82Z"/><path class="cls-2" d="M115.39,98.54c9.52,6.4,20.71,10.17,32.12,11.65,2.87.3,5.73.68,8.62.7,1.44.04,2.89.12,4.33.13,1.43-.06,2.87-.03,4.3-.16,5.73-.38,11.42-1.41,16.93-3.07,11.01-3.35,21.32-9.02,30.11-16.47,2.2-1.86,4.31-3.82,6.28-5.91,1.98-2.08,3.86-4.26,5.54-6.58,1.68-2.31,3.21-4.73,4.45-7.26,1.23-2.53,2.19-5.19,2.54-7.87l.02-.13v-.23s.04-.48.04-.48l.05-.96.05-.96c0-.08,0-.17.02-.23h.27s.55-.02.55-.02l3.08-.09c1.44,0,2.87-.17,4.3-.28,2.86-.26,5.71-.71,8.54-1.26,5.66-1.13,11.22-2.79,16.67-4.78,10.92-3.98,21.42-9.13,31.97-14.21,10.55-5.08,21.2-10.16,32.37-14.06,11.14-3.89,22.91-6.52,34.85-6.51,11.95-.01,23.72,2.62,34.85,6.51,11.17,3.89,21.81,8.97,32.37,14.06,10.55,5.08,21.06,10.23,31.97,14.21,5.45,1.98,11.01,3.65,16.67,4.78,2.83.55,5.68,1,8.54,1.26,1.43.11,2.86.27,4.3.28l3.08.09.55.02h.27c.03.07.01.16.02.24l.05.96.05.96.03.48v.23s.03.13.03.13c.35,2.67,1.3,5.34,2.54,7.87,1.24,2.53,2.77,4.95,4.45,7.26,1.68,2.32,3.56,4.49,5.54,6.58,1.97,2.09,4.08,4.06,6.28,5.91,8.79,7.44,19.11,13.11,30.11,16.47,5.51,1.66,11.2,2.69,16.93,3.07,1.43.13,2.87.1,4.3.16,1.44-.02,2.89-.09,4.33-.13,2.89-.01,5.76-.4,8.62-.7,11.42-1.47,22.6-5.24,32.12-11.65.18-.12.62-.41,1.28-.85.64-.47,1.49-1.1,2.53-1.87.98-.83,2.19-1.75,3.41-2.92.64-.56,1.25-1.2,1.91-1.86.33-.33.63-.69.96-1.04.17-.18.32-.36.47-.55.04-.04.27-.32.4-.5l.45-.59c6.02.06,13.26.14,20.73.22,7.21.1,14.65.21,21.4.3,6.72.11,12.71.24,17.02.37,4.31.13,6.94.27,6.94.42s-2.63.28-6.94.42c-4.31.13-10.3.26-17.02.37-13.34.17-29.39.37-40.86.52l-.02.03s.05-.05-.08.1c-.17.21-.33.42-.51.61-.34.39-.67.78-1.01,1.14-.68.71-1.33,1.41-1.99,2.01-1.27,1.26-2.52,2.25-3.54,3.13-1.07.82-1.96,1.49-2.62,2-.68.48-1.14.77-1.33.9-9.96,6.69-21.57,10.59-33.35,12.11-2.96.31-5.91.7-8.88.72-1.48.04-2.97.12-4.45.14-1.49-.06-2.99-.03-4.47-.16-5.96-.4-11.87-1.46-17.57-3.19-11.41-3.48-22.05-9.33-31.13-17.02-2.28-1.92-4.46-3.95-6.51-6.12-2.05-2.16-4.01-4.43-5.77-6.86-1.77-2.42-3.38-4.97-4.72-7.7-1.32-2.73-2.4-5.64-2.81-8.79l-.02-.15v-.04s0-.07,0-.07v-.13s-.02-.17-.02-.17h0s0,0,0,0c.02,0,0,0-.07,0h-.14s-1.12-.04-1.12-.04c-1.5,0-2.98-.17-4.47-.29-2.97-.27-5.92-.74-8.83-1.31-5.83-1.17-11.53-2.87-17.08-4.89-11.12-4.05-21.69-9.25-32.24-14.32-10.54-5.08-21.1-10.11-32.07-13.93-10.94-3.82-22.38-6.36-33.92-6.35-11.54-.01-22.97,2.53-33.92,6.35-10.97,3.82-21.52,8.85-32.07,13.93-10.55,5.07-21.12,10.27-32.24,14.32-5.55,2.02-11.25,3.73-17.08,4.89-2.92.57-5.86,1.04-8.83,1.31-1.49.12-2.97.28-4.47.29l-1.12.03h-.14c-.06,0-.08,0-.07,0h0s0,0,0,0v.17s-.02.13-.02.13v.07s0,.04,0,.04l-.02.15c-.41,3.15-1.48,6.06-2.81,8.79-1.34,2.73-2.95,5.28-4.72,7.7-1.76,2.43-3.72,4.69-5.77,6.86-2.05,2.17-4.23,4.21-6.51,6.12-9.09,7.69-19.73,13.54-31.13,17.02-5.71,1.72-11.62,2.79-17.57,3.19-1.49.13-2.98.1-4.47.16-1.49-.02-2.97-.09-4.45-.14-2.97-.02-5.92-.41-8.88-.72-11.78-1.52-23.39-5.42-33.35-12.11-.18-.13-.65-.42-1.33-.9-.66-.5-1.54-1.18-2.62-2-1.02-.88-2.27-1.87-3.54-3.13-.66-.6-1.3-1.3-1.99-2.01-.34-.36-.67-.75-1.01-1.14-.17-.19-.34-.4-.51-.61-.12-.15-.05-.07-.08-.1l-.02-.03c-11.46-.15-27.52-.35-40.86-.52-6.72-.11-12.71-.24-17.02-.37-4.31-.13-6.94-.27-6.94-.42s2.63-.29,6.94-.42c4.31-.13,10.3-.26,17.02-.37,6.76-.1,14.19-.2,21.4-.3,7.48-.08,14.71-.15,20.73-.22l.45.59c.13.17.37.45.4.5.15.18.3.37.47.55.33.35.63.71.96,1.04.66.66,1.27,1.3,1.91,1.86,1.22,1.17,2.43,2.09,3.41,2.92,1.04.77,1.89,1.4,2.52,1.87.66.44,1.1.73,1.28.85Z"/></g><ellipse id="Divider_10_Shape" class="cls-1" cx="362.45" cy="74" rx="73.74" ry="74"/></g></svg>