<?xml version="1.0" encoding="UTF-8"?><svg id="Line" xmlns="http://www.w3.org/2000/svg" viewBox="0 0 697.16 62.91"><defs><style>.cls-1{opacity:.24;}.cls-1,.cls-2{fill:#fff;stroke-width:0px;}</style></defs><g id="Divider_4"><g id="Divider_4_Lines"><path class="cls-2" d="M318.58,29.12H65.33c-1.51,0-36.3-.64-36.3-1.43s34.79-1.43,36.3-1.43h253.25c.36-.02,2.88.08,6.26.07,3.28-.02,7.59-.83,11.39-2.87.97-.46,1.87-1.05,2.77-1.59.86-.61,1.73-1.19,2.49-1.84,1.57-1.26,2.92-2.58,3.96-3.81,1.05-1.21,1.84-2.31,2.31-3.11.26-.39.42-.72.54-.94.13-.22.22-.34.27-.32s.05.15.01.41c-.03.26-.12.65-.3,1.1-.33.93-.99,2.17-1.95,3.55-.95,1.39-2.24,2.88-3.79,4.33-.76.75-1.63,1.42-2.5,2.12-.92.64-1.84,1.33-2.85,1.88-3.93,2.43-8.64,3.57-12.28,3.74-3.55.16-5.95.14-6.35.15Z"/><path class="cls-2" d="M326.3,47.77c-3.55-1.53-7.25-2.73-11.06-3.19-.94-.17-1.91-.14-2.86-.22l-1.43-.08h-1.49s-5.98,0-5.98,0h-141.52c-.24-.02-.52.05-.73-.05l-.58-.5-1.2-1.03c-5.92-5.02-13.08-8.44-20.62-10.46-.26-.09-2.02-.58-4.53-1.19-2.51-.6-5.81-1.23-9.1-1.69-6.59-.99-13.17-1.22-13.17-1.65,0-.35,6.6-.84,13.37-.35,3.39.21,6.8.65,9.43,1.12,2.62.49,4.47.92,4.75,1.02,7.85,2.1,15.43,5.71,21.7,11.03l1.07.92h0s.55,0,.55,0h148.06s1.55.09,1.55.09c1.03.09,2.08.06,3.1.24,4.13.5,8.09,1.79,11.85,3.41.25.15,2.03.88,4.32,2.29,1.18.64,2.43,1.55,3.79,2.44,1.3.97,2.7,1.97,3.99,3.1,2.62,2.19,4.99,4.58,6.63,6.48,1.64,1.9,2.55,3.31,2.39,3.43-.15.12-1.33-1.02-3.18-2.65-1.85-1.64-4.38-3.75-7.08-5.67-5.33-3.99-11.51-6.63-12.02-6.81Z"/><path class="cls-2" d="M378.58,26.26h253.25c1.51,0,36.3.64,36.3,1.43s-34.79,1.43-36.3,1.43h-253.25c-.4-.02-2.79,0-6.35-.15-3.64-.17-8.34-1.31-12.28-3.74-1.01-.55-1.93-1.24-2.85-1.88-.87-.71-1.74-1.38-2.5-2.12-1.55-1.45-2.84-2.94-3.79-4.33-.96-1.38-1.63-2.62-1.95-3.55-.18-.45-.27-.83-.3-1.1-.04-.26-.04-.4.01-.41s.14.1.27.32c.12.22.28.55.54.94.47.8,1.26,1.9,2.31,3.11,1.04,1.23,2.39,2.55,3.96,3.81.77.65,1.64,1.23,2.49,1.84.91.54,1.8,1.13,2.77,1.59,3.79,2.05,8.11,2.85,11.39,2.87,3.39,0,5.91-.09,6.26-.07Z"/><path class="cls-2" d="M369.7,45.15c3.76-1.62,7.72-2.91,11.85-3.41,1.02-.18,2.07-.16,3.1-.24l1.55-.09h1.5s5.98,0,5.98,0h141.13,0s1.07-.91,1.07-.91c6.27-5.32,13.86-8.93,21.7-11.03.27-.1,2.12-.53,4.75-1.02,2.63-.47,6.04-.91,9.43-1.12,6.78-.49,13.38,0,13.37.35,0,.43-6.58.66-13.17,1.65-3.3.46-6.59,1.1-9.1,1.69-2.51.61-4.26,1.1-4.53,1.19-7.54,2.02-14.7,5.44-20.62,10.46l-1.2,1.03-.58.5c-.21.11-.49.03-.73.05h-149s-1.43.09-1.43.09c-.95.08-1.91.05-2.86.22-3.81.46-7.51,1.66-11.06,3.19-.5.18-6.69,2.82-12.02,6.81-2.7,1.92-5.23,4.03-7.08,5.67-1.85,1.63-3.03,2.77-3.18,2.65-.15-.12.75-1.53,2.39-3.43,1.63-1.91,4.01-4.29,6.63-6.48,1.28-1.12,2.68-2.13,3.99-3.1,1.36-.9,2.6-1.8,3.79-2.44,2.29-1.41,4.07-2.14,4.32-2.29Z"/><path class="cls-2" d="M392.22.11c22.67.66,45.33,1.78,67.95,3.43,22.62,1.66,45.21,3.81,67.71,6.71,22.5,2.93,44.94,6.51,67.08,11.69,11.06,2.62,22.05,5.64,32.75,9.66,5.35,2.01,10.61,4.32,15.64,7.15,2.51,1.43,4.95,3.02,7.24,4.85.58.45,1.14.92,1.68,1.43.55.49,1.09,1,1.6,1.55l.77.81.71.88c.23.3.48.58.7.89l.32.48v.02s2.2-.79,2.2-.79c1.25-.46,2.5-.94,3.75-1.43,2.49-.98,4.95-2.01,7.39-3.1,4.87-2.18,9.66-4.57,14.11-7.41.34-.26,2.91-1.7,5.93-4.32,1.51-1.32,3.04-2.94,4.1-5.04,1.05-2.05,1.59-4.55.7-6.72-.8-2.19-2.9-3.77-5.07-4.53-2.19-.77-4.47-.86-6.36-.65-1.9.2-3.46.66-4.53,1.02-1.08.35-1.69.6-1.74.5-.04-.07.48-.49,1.52-1.03,1.03-.54,2.59-1.2,4.59-1.59,1.99-.4,4.46-.49,7.01.23,1.27.37,2.55.96,3.69,1.83,1.15.86,2.14,2.05,2.75,3.44.63,1.38.85,2.94.7,4.41-.13,1.48-.57,2.86-1.14,4.11-.56,1.26-1.3,2.35-2.07,3.37-.79.98-1.59,1.85-2.39,2.59-3.2,2.96-5.8,4.5-6.17,4.78-4.64,2.95-9.53,5.39-14.49,7.61-2.48,1.1-4.99,2.15-7.51,3.15-1.26.5-2.53.98-3.8,1.45l-1.92.69-.65.23c-.08.02-.16.08-.23.06l-.17-.37-.35-.74c-.03-.05-.06-.15-.08-.16l-.06.02-.12.04-.12.04h-.03s0,.01,0,.01c.1-.29-.87,2.56-.46,1.35l-.02-.02-.08-.07-.66-.53-.85-1.27c-.18-.27-.41-.52-.61-.78l-.63-.77-.69-.73c-.45-.5-.94-.96-1.45-1.41-.49-.47-1.01-.9-1.55-1.32-2.13-1.71-4.45-3.23-6.86-4.6-4.84-2.72-9.99-4.99-15.24-6.96-10.52-3.95-21.42-6.95-32.4-9.55-21.99-5.15-44.36-8.72-66.79-11.64-22.44-2.89-44.98-5.04-67.56-6.69-22.58-1.65-45.19-2.77-67.82-3.43-.88-.04-11.64-.47-22.45-.9-5.21-.21-10.41-.42-14.55-.59-3.94-.18-6.56-.37-6.56-.57,0-.2,2.61-.38,6.56-.54,3.95-.15,9.23-.27,14.58-.31,10.68-.12,21.6.04,22.5.06Z"/><path class="cls-2" d="M305.02,2.96c-22.63.66-45.24,1.78-67.82,3.43-22.57,1.65-45.12,3.8-67.56,6.69-22.43,2.92-44.8,6.49-66.79,11.64-10.98,2.6-21.88,5.6-32.4,9.55-5.25,1.97-10.4,4.24-15.24,6.96-2.41,1.37-4.73,2.89-6.86,4.6-.54.42-1.06.86-1.55,1.32-.51.45-1,.91-1.45,1.41l-.69.73-.63.77c-.2.26-.43.51-.61.78l-.85,1.27-.66.53-.08.07-.02.02c.4,1.21-.56-1.64-.46-1.35h0s-.03-.01-.03-.01l-.12-.04-.12-.04-.06-.02s-.06.11-.08.16l-.35.74-.17.37c-.07.02-.16-.04-.23-.06l-.65-.23-1.92-.69c-1.27-.47-2.54-.95-3.8-1.45-2.53-.99-5.03-2.04-7.51-3.15-4.96-2.22-9.84-4.66-14.49-7.61-.37-.28-2.97-1.82-6.17-4.78-.8-.73-1.6-1.61-2.39-2.59-.77-1.01-1.5-2.11-2.07-3.37-.57-1.25-1.01-2.64-1.14-4.11-.14-1.47.07-3.03.7-4.41.61-1.39,1.6-2.58,2.75-3.44,1.15-.87,2.43-1.46,3.69-1.83,2.55-.72,5.02-.63,7.01-.23,2,.39,3.56,1.05,4.59,1.59,1.03.54,1.56.95,1.52,1.03-.05.1-.66-.14-1.74-.5-1.07-.36-2.63-.82-4.53-1.02-1.89-.22-4.16-.12-6.36.65-2.17.76-4.26,2.33-5.07,4.53-.89,2.17-.35,4.67.7,6.72,1.07,2.1,2.6,3.72,4.1,5.04,3.02,2.62,5.59,4.05,5.93,4.32,4.45,2.83,9.24,5.22,14.11,7.41,2.44,1.09,4.91,2.12,7.39,3.1,1.24.49,2.49.97,3.75,1.43l2.18.79v-.02s.33-.48.33-.48c.21-.32.47-.59.7-.89l.71-.88.77-.81c.5-.56,1.04-1.06,1.6-1.55.54-.51,1.1-.98,1.68-1.43,2.29-1.83,4.73-3.43,7.24-4.85,5.03-2.83,10.3-5.14,15.64-7.15,10.7-4.02,21.7-7.04,32.75-9.66,22.14-5.18,44.59-8.76,67.08-11.69,22.51-2.9,45.09-5.05,67.71-6.71,22.62-1.65,45.28-2.77,67.95-3.43.91-.02,11.82-.18,22.5-.06,5.34.05,10.63.17,14.58.31,3.95.16,6.56.34,6.56.54,0,.2-2.61.39-6.56.57-4.14.17-9.35.38-14.55.59-10.81.43-21.56.86-22.45.9Z"/></g><path id="Divider_4_Shape" class="cls-1" d="M85.8,14.94c11.62,0,34.52,22.39,34.52,22.39h456.51s22.9-22.39,34.52-22.39H85.8Z"/></g></svg>