<?xml version="1.0" encoding="UTF-8"?><svg id="Line" xmlns="http://www.w3.org/2000/svg" viewBox="0 0 699.22 106.01"><defs><style>.cls-1{opacity:.24;}.cls-1,.cls-2{fill:#fff;stroke-width:0px;}</style></defs><g id="Divider_8"><g id="Divider_8_Lines"><path class="cls-2" d="M258.18,27.45c6.37,2.26,12.58,4.92,18.67,7.83,6.04,3,11.98,6.19,17.73,9.71,1.46.84,2.85,1.8,4.28,2.7,1.42.91,2.85,1.8,4.22,2.78l4.16,2.88,4.05,3.04c5.33,4.14,10.53,8.49,15.19,13.45.22.12,1.99,2.49,3.67,4.8,1.55,2.44,2.86,4.91,2.54,5.11-.34.22-2.23-1.81-4.11-3.84-2.04-1.93-3.96-3.98-4.18-4.11-4.51-4.81-9.61-9.08-14.85-13.15l-3.98-2.99-4.1-2.84c-1.35-.97-2.76-1.84-4.16-2.74-1.41-.88-2.78-1.83-4.22-2.66-5.67-3.48-11.54-6.62-17.49-9.58-6-2.87-12.11-5.48-18.35-7.7-.23-.07-2.88-1.11-5.47-2.2-2.62-.97-5.19-2.02-5.1-2.41s2.85-.02,5.67.47c2.78.61,5.6,1.37,5.83,1.44Z"/><path class="cls-2" d="M64.85,36.7c-.54.06-.93.28-1.17.59-.26.3-.42.81-.42,1.43-.06,1.32.41,2.55,1.23,3.6.82,1.07,2.06,1.91,3.38,2.62,1.33.71,2.79,1.27,4.29,1.75,6.04,1.87,12.53,2.63,18.99,3.49,3.24.43,6.5.83,9.77,1.45,3.26.62,6.49,1.43,9.65,2.44,6.32,2.03,12.43,4.78,18.06,8.35.2.13,2.55,1.79,4.59,3.73,2.06,1.92,3.78,4.06,3.52,4.33-.28.29-2.46-1.29-4.75-2.73-2.28-1.47-4.7-2.79-4.89-2.91-5.39-3.43-11.29-6.09-17.39-8.04-3.06-.97-6.17-1.76-9.32-2.36-3.14-.6-6.37-1-9.6-1.43-6.47-.87-13.03-1.61-19.49-3.6-1.61-.52-3.21-1.13-4.76-1.95-1.53-.83-3.08-1.85-4.27-3.37-1.2-1.5-1.95-3.51-1.85-5.47.02-.99.27-2.17,1.05-3.14.77-.98,1.96-1.52,3.04-1.63.15-.02,1.19-.14,2.49.33.64.27,1.37.54,2.09,1.47.73.94.81,2.35,0,3.17-.39.41-.92.62-1.47.69-.57.04-1.02-.03-1.38-.15-.75-.24-1.39-.64-1.77-1.26-.19-.3-.3-.74-.15-1.09.15-.35.4-.47.57-.53.36-.12.55-.04.58.04.04.1-.12.23-.26.44-.07.1-.11.22-.07.28.03.05.08.1.21.19.25.19.73.36,1.22.38.55.02.7-.09.81-.29.08-.21-.07-.4-.18-.44-.12-.09-.6-.31-.96-.37-.77-.16-1.3-.02-1.36-.01Z"/><path class="cls-2" d="M124.67,47.28c2.98,2.91,5.57,6.05,8.06,9.3,2.45,3.27,4.77,6.65,6.68,10.36.03.07.3.94.42,1.85.1.92.09,1.83-.28,1.96s-1.02-.5-1.56-1.14c-.58-.64-1.1-1.31-1.13-1.37-1.78-3.46-4.03-6.76-6.41-9.93-2.41-3.15-4.97-6.24-7.76-8.96-.05-.04-.54-.74-.98-1.45-.44-.73-.87-1.37-.72-1.75.14-.36,1.17-.2,2.01.2.86.38,1.62.89,1.68.94Z"/><path class="cls-2" d="M61.08,60.45c23.81,3.6,47.79,6.1,71.8,8.28,24.01,2.12,48.07,3.83,72.14,5.2,48.15,2.72,96.37,4.35,144.59,4.39,48.22-.04,96.44-1.67,144.59-4.39,24.07-1.38,48.13-3.08,72.14-5.2,24-2.17,47.99-4.68,71.8-8.28.84-.16,6.4-.91,14.21-2.26,1.96-.31,4.04-.72,6.23-1.13,2.2-.39,4.48-.87,6.83-1.37,4.71-.98,9.64-2.19,14.43-3.69,1.18-.41,2.38-.79,3.55-1.21,1.14-.48,2.27-.96,3.39-1.43,2.19-1.08,4.29-2.26,6.12-3.63,1.82-1.37,3.4-2.94,4.32-4.72.45-.89.69-1.83.77-2.75.06-.93-.11-1.83-.38-2.66-.57-1.67-1.59-3.04-2.58-4.14-1-1.11-2-1.96-2.84-2.63-1.7-1.34-2.78-1.96-2.73-2.06.04-.08,1.22.38,3.06,1.59.92.61,2.01,1.41,3.12,2.51,1.1,1.09,2.28,2.48,3.01,4.35.35.93.6,1.98.57,3.09-.04,1.1-.3,2.23-.78,3.29-.99,2.11-2.67,3.88-4.56,5.4-1.91,1.52-4.05,2.81-6.29,3.99-1.16.53-2.32,1.06-3.5,1.59-1.19.47-2.4.89-3.61,1.34-4.86,1.65-9.83,3-14.56,4.08-2.36.55-4.66,1.09-6.86,1.52-2.2.45-4.29.91-6.25,1.25-7.82,1.5-13.39,2.32-14.24,2.49-23.91,3.62-47.93,6.12-71.98,8.3-24.05,2.13-48.13,3.83-72.23,5.21-48.2,2.72-96.46,4.35-144.75,4.4-48.29-.04-96.55-1.67-144.75-4.4-24.1-1.38-48.18-3.08-72.23-5.21-24.04-2.18-48.07-4.68-71.98-8.3-.85-.17-6.42-.99-14.24-2.49-1.96-.35-4.05-.81-6.25-1.25-2.2-.43-4.5-.96-6.86-1.52-4.73-1.09-9.69-2.43-14.56-4.08-1.21-.45-2.42-.87-3.61-1.34-1.17-.53-2.34-1.07-3.5-1.59-2.24-1.18-4.38-2.47-6.29-3.99-1.89-1.52-3.58-3.29-4.56-5.4-.48-1.06-.74-2.19-.78-3.29-.03-1.11.22-2.15.57-3.09.73-1.87,1.91-3.26,3.01-4.35,1.11-1.1,2.2-1.89,3.12-2.51,1.85-1.21,3.02-1.67,3.06-1.59.05.09-1.03.72-2.73,2.06-.84.67-1.85,1.52-2.84,2.63-.99,1.1-2.01,2.46-2.58,4.14-.26.83-.44,1.73-.38,2.66.08.92.32,1.86.77,2.75.91,1.78,2.49,3.36,4.32,4.72,1.83,1.37,3.93,2.55,6.12,3.63,1.12.47,2.25.95,3.39,1.43,1.17.42,2.36.8,3.55,1.21,4.79,1.49,9.73,2.71,14.43,3.69,2.35.5,4.63.98,6.83,1.37,2.19.4,4.27.82,6.23,1.13,7.8,1.35,13.36,2.09,14.21,2.26Z"/><path class="cls-2" d="M97.34,52.47c10.04-3.75,20.2-7.04,30.54-9.63,2.58-.65,5.15-1.4,7.75-1.98l7.79-1.78,3.9-.89,3.91-.79,7.83-1.57c20.91-4.03,42.01-6.99,63.15-9.31,42.31-4.59,84.85-6.71,127.39-6.79,42.54.08,85.09,2.2,127.39,6.79,21.15,2.32,42.24,5.29,63.15,9.31l7.83,1.57,3.91.79,3.9.89,7.79,1.78c2.6.57,5.16,1.32,7.75,1.98,10.35,2.59,20.5,5.88,30.54,9.63.7.3,5.43,2.11,11.54,5.75,3.05,1.82,6.41,4.16,9.71,6.96,3.3,2.79,6.5,6.12,9.23,9.77,1.35,1.84,2.61,3.74,3.64,5.74,1.05,1.98,1.93,4.01,2.54,6.06,1.29,4.07,1.42,8.25.37,11.55-.53,1.65-1.37,3.01-2.22,4.1-.93,1.04-1.85,1.82-2.68,2.35-.41.24-.78.46-1.13.66-.33.14-.62.26-.89.37-.49.19-.75.27-.77.22s.21-.21.64-.48c.24-.14.51-.3.8-.48.31-.23.64-.48,1.01-.75.74-.58,1.55-1.38,2.34-2.4.72-1.07,1.42-2.36,1.83-3.9.8-3.08.53-6.94-.83-10.75-.64-1.92-1.54-3.82-2.61-5.68-1.04-1.87-2.31-3.66-3.65-5.39-2.73-3.43-5.88-6.56-9.14-9.18-3.25-2.62-6.55-4.81-9.53-6.51-5.99-3.4-10.58-5.08-11.27-5.36-9.86-3.68-19.94-6.95-30.21-9.52-2.57-.65-5.11-1.39-7.69-1.96l-7.74-1.77-3.87-.89-3.89-.79-7.79-1.56c-20.82-4.01-41.84-6.96-62.93-9.28-42.19-4.58-84.64-6.7-127.08-6.77-42.44.08-84.89,2.2-127.08,6.77-21.09,2.32-42.11,5.27-62.93,9.28l-7.79,1.56-3.89.79-3.87.89-7.74,1.77c-2.59.57-5.13,1.31-7.69,1.96-10.27,2.57-20.35,5.84-30.21,9.52-.68.29-5.28,1.97-11.27,5.36-2.99,1.7-6.28,3.89-9.53,6.51-3.26,2.62-6.41,5.74-9.14,9.18-1.34,1.73-2.61,3.52-3.65,5.39-1.07,1.85-1.97,3.76-2.61,5.68-1.36,3.81-1.63,7.67-.83,10.75.41,1.54,1.11,2.82,1.83,3.9.79,1.02,1.6,1.83,2.34,2.4.37.27.7.52,1.01.75.3.18.56.34.8.48.43.27.66.44.64.48-.02.05-.28-.03-.77-.22-.27-.11-.56-.23-.89-.37-.34-.2-.72-.42-1.13-.66-.83-.52-1.75-1.31-2.68-2.35-.85-1.09-1.69-2.46-2.22-4.1-1.05-3.3-.91-7.48.37-11.55.6-2.05,1.48-4.09,2.54-6.06,1.03-1.99,2.29-3.9,3.64-5.74,2.73-3.66,5.92-6.98,9.23-9.77,3.3-2.8,6.66-5.13,9.71-6.96,6.12-3.64,10.84-5.45,11.54-5.75Z"/><path class="cls-2" d="M289.59,39.13c3.54,4.18,7.83,7.72,12.44,10.7,2.26,1.58,4.76,2.75,7.18,4.07l3.8,1.64c.64.26,1.26.58,1.91.79l1.96.67c10.45,3.63,21.6,5.16,32.72,5.15,11.12.01,22.27-1.52,32.72-5.15l1.96-.67c.66-.22,1.27-.53,1.91-.79l3.8-1.64c2.42-1.32,4.92-2.49,7.18-4.07,4.61-2.98,8.9-6.51,12.44-10.7.23-.31,3.43-3.79,5.86-7.75,1.26-1.95,2.25-4.03,3.02-5.58.67-1.59,1.19-2.65,1.38-2.6s.03,1.21-.33,2.96c-.46,1.72-1.21,4.01-2.29,6.18-.47,1.13-1.11,2.17-1.69,3.16-.58,1-1.13,1.95-1.71,2.7-1.11,1.54-1.89,2.65-2.05,2.78-3.74,4.42-8.24,8.13-13.06,11.24-2.37,1.65-4.97,2.88-7.49,4.25l-3.95,1.71c-.66.27-1.31.6-1.99.82l-2.03.69c-10.83,3.76-22.3,5.32-33.67,5.31-11.37,0-22.84-1.55-33.67-5.31l-2.03-.69c-.68-.23-1.32-.55-1.99-.82l-3.95-1.71c-2.52-1.37-5.13-2.6-7.49-4.25-4.82-3.11-9.32-6.82-13.06-11.24-.15-.14-.93-1.25-2.05-2.78-.58-.75-1.13-1.7-1.71-2.7-.59-1-1.22-2.04-1.69-3.16-1.09-2.17-1.84-4.47-2.29-6.18-.36-1.76-.53-2.92-.33-2.96.19-.05.71,1.01,1.38,2.6.77,1.56,1.76,3.63,3.02,5.58,2.42,3.96,5.62,7.45,5.86,7.75Z"/><path class="cls-2" d="M441.98,30.15c-6.25,2.22-12.36,4.83-18.35,7.7-5.95,2.96-11.82,6.1-17.49,9.58-1.44.83-2.81,1.78-4.22,2.66-1.4.9-2.81,1.78-4.16,2.74l-4.1,2.84-3.98,2.99c-5.23,4.07-10.34,8.33-14.85,13.15-.22.13-2.14,2.18-4.18,4.11-1.88,2.03-3.77,4.06-4.11,3.84-.32-.2,1-2.67,2.54-5.11,1.68-2.31,3.45-4.67,3.67-4.8,4.65-4.97,9.86-9.31,15.19-13.45l4.05-3.04,4.16-2.88c1.37-.98,2.8-1.87,4.22-2.78,1.43-.89,2.82-1.85,4.28-2.7,5.75-3.52,11.69-6.71,17.73-9.71,6.08-2.91,12.29-5.57,18.67-7.83.23-.07,3.05-.83,5.83-1.44,2.83-.49,5.59-.85,5.67-.47s-2.48,1.44-5.1,2.41c-2.59,1.1-5.24,2.14-5.47,2.2Z"/><path class="cls-2" d="M634.72,33.87c1.08.11,2.27.65,3.04,1.63.78.97,1.04,2.14,1.05,3.14.1,1.96-.65,3.97-1.85,5.47-1.2,1.52-2.74,2.53-4.27,3.37-1.55.82-3.15,1.43-4.76,1.95-6.46,1.99-13.02,2.73-19.49,3.6-3.23.43-6.46.82-9.6,1.43-3.15.6-6.26,1.38-9.32,2.36-6.11,1.96-12,4.62-17.39,8.04-.19.12-2.61,1.44-4.89,2.91-2.3,1.44-4.47,3.02-4.75,2.73h0c-.27-.27,1.45-2.41,3.52-4.33,2.04-1.94,4.39-3.6,4.59-3.73,5.63-3.58,11.74-6.33,18.06-8.35,3.16-1.01,6.39-1.82,9.65-2.44,3.27-.63,6.53-1.03,9.77-1.45,6.45-.86,12.94-1.62,18.99-3.49,1.5-.48,2.95-1.05,4.29-1.75,1.32-.71,2.56-1.56,3.38-2.62.82-1.05,1.29-2.29,1.23-3.6,0-.63-.17-1.13-.42-1.43-.25-.31-.63-.53-1.17-.59-.06,0-.59-.15-1.36.01-.36.06-.84.28-.96.37-.11.04-.27.23-.18.44.11.2.25.31.81.29.5-.02.98-.19,1.22-.38.12-.1.17-.14.21-.19.04-.06,0-.18-.07-.28-.14-.2-.3-.33-.26-.44.03-.08.22-.16.58-.04.17.06.43.19.57.53.15.35.04.79-.15,1.09-.39.62-1.02,1.02-1.77,1.26-.36.12-.81.19-1.38.15-.54-.06-1.08-.28-1.47-.69-.81-.82-.73-2.23,0-3.17.71-.93,1.44-1.2,2.09-1.47,1.3-.48,2.34-.35,2.49-.33Z"/><path class="cls-2" d="M576.52,49.34c-2.79,2.73-5.35,5.81-7.76,8.96-2.38,3.17-4.63,6.47-6.41,9.93-.03.06-.55.73-1.13,1.37-.55.65-1.19,1.27-1.56,1.14s-.38-1.04-.28-1.96c.13-.9.4-1.78.42-1.85,1.91-3.71,4.23-7.09,6.68-10.36,2.49-3.25,5.08-6.38,8.06-9.3.06-.05.82-.56,1.68-.94.84-.4,1.86-.56,2.01-.2.15.38-.28,1.02-.72,1.75-.44.71-.93,1.4-.98,1.45Z"/></g><ellipse id="Divider_8_Shape" class="cls-1" cx="350.34" cy="52.64" rx="144.43" ry="52.64"/></g></svg>