<?xml version="1.0" encoding="UTF-8"?><svg id="Line" xmlns="http://www.w3.org/2000/svg" viewBox="0 0 712.85 51.43"><defs><style>.cls-1{opacity:.24;}.cls-1,.cls-2{fill:#fff;stroke-width:0px;}</style></defs><g id="Divider_2"><g id="Divider_2_Lines"><path class="cls-2" d="M35.93,25.73c1.08,2.4,1.23,5.24.44,7.68-.73,2.47-2.13,4.58-3.74,6.4-3.27,3.62-7.45,6.19-11.99,7.75-2.28.77-4.67,1.26-7.12,1.34-2.46.08-4.98-.4-7.26-1.3-1.16-.48-2.3-1.09-3.33-1.95-1.03-.85-1.92-1.98-2.42-3.31-.52-1.32-.61-2.78-.37-4.11.23-1.34.73-2.59,1.43-3.69.08-.15,1.44-2.04,3.48-2.97.99-.48,2.13-.69,2.96-.54.84.14,1.26.54,1.19.7-.07.2-.55.21-1.14.4-.59.19-1.31.59-1.94,1.14-1.3,1.09-2.07,2.67-2.13,2.78-1.03,1.64-1.46,3.66-.81,5.27.6,1.64,2.25,2.85,4.15,3.62,1.96.76,4.01,1.16,6.12,1.1,2.11-.07,4.24-.5,6.28-1.19,4.08-1.39,7.92-3.77,10.77-6.95,1.41-1.58,2.58-3.38,3.14-5.31.62-1.92.47-3.91-.3-5.69-.04-.06-.22-.48-.46-1.09-.16-.28-.34-.62-.55-.99-.21-.36-.49-.71-.74-1.09-1.07-1.45-2.46-2.74-2.23-3.09h0c.19-.31,2.03.39,3.67,1.68.39.34.81.67,1.16,1.03.35.4.66.76.92,1.06.47.7.79,1.23.84,1.31Z"/><path class="cls-2" d="M679.52,26.91c-.77,1.78-.92,3.77-.3,5.69.56,1.93,1.72,3.73,3.14,5.31,2.85,3.17,6.69,5.56,10.77,6.95,2.04.69,4.17,1.12,6.28,1.19,2.11.06,4.16-.34,6.12-1.1,1.9-.77,3.55-1.99,4.15-3.62.65-1.61.22-3.62-.81-5.27-.06-.1-.83-1.68-2.13-2.78-.63-.55-1.34-.95-1.94-1.14-.59-.2-1.07-.21-1.14-.4-.07-.16.35-.56,1.19-.7.83-.15,1.97.06,2.96.54,2.04.93,3.39,2.82,3.48,2.97.7,1.1,1.2,2.35,1.43,3.69.24,1.33.15,2.79-.37,4.11-.5,1.33-1.39,2.46-2.42,3.31-1.03.86-2.17,1.46-3.33,1.95-2.29.9-4.8,1.38-7.26,1.3-2.46-.08-4.85-.57-7.12-1.34-4.54-1.56-8.72-4.13-11.99-7.75-1.62-1.81-3.02-3.92-3.74-6.4-.79-2.44-.64-5.28.44-7.68.04-.08.36-.61.84-1.31.26-.3.57-.66.92-1.06.35-.36.76-.69,1.16-1.03,1.64-1.28,3.48-1.99,3.67-1.68.23.35-1.16,1.64-2.23,3.09-.25.38-.53.73-.74,1.09-.21.37-.39.71-.55.99-.25.62-.43,1.03-.46,1.09Z"/><path class="cls-2" d="M102.21,19.22h508.43c1.5.02,19.64.22,37.57.42,8.92.13,17.74.28,24.34.45,3.3.09,6.04.17,7.95.27,1.92.09,3.01.19,3.01.29h0c0,.1-1.09.19-3.01.29-1.92.09-4.66.18-7.95.27-6.6.17-15.42.32-24.34.45-17.93.2-36.07.4-37.57.42H102.21c-1.5-.02-19.64-.22-37.57-.42-8.92-.13-17.74-.28-24.34-.45-3.3-.09-6.04-.17-7.95-.27-1.92-.09-3.01-.19-3.01-.29h0c0-.1,1.09-.19,3.01-.29,1.92-.09,4.66-.18,7.95-.27,6.6-.17,15.42-.32,24.34-.45,17.93-.2,36.07-.4,37.57-.42Z"/><path class="cls-2" d="M327.76,19.53c2.78.19,5.58.51,8.36,1.09,2.78.57,5.55,1.42,8.15,2.69,2.6,1.27,4.98,2.93,7.13,4.77,1.08.92,2.13,1.87,3.12,2.85.5.49,1.01.97,1.48,1.48l.41.43.41-.43c.48-.5.99-.99,1.48-1.48.99-.99,2.04-1.93,3.12-2.85,2.15-1.84,4.53-3.5,7.13-4.77,2.6-1.27,5.37-2.12,8.15-2.69,2.78-.59,5.58-.91,8.36-1.09.2-.02,2.61-.02,4.95.18,2.34.2,4.61.56,4.61.94h0c0,.4-2.26.76-4.55,1.07-2.62.36-4.66.63-4.8.65-2.7.18-5.38.49-7.98,1.04-2.6.54-5.13,1.31-7.48,2.46-2.35,1.15-4.51,2.66-6.54,4.38-1.01.87-2.01,1.76-2.97,2.72-.48.48-.97.94-1.44,1.43l-2.45,2.54-2.45-2.54c-.47-.5-.96-.96-1.44-1.43-.96-.96-1.95-1.85-2.97-2.72-2.03-1.73-4.19-3.24-6.54-4.38-2.35-1.15-4.88-1.92-7.48-2.46-2.6-.55-5.28-.86-7.98-1.04-.14-.02-2.17-.29-4.8-.65-2.29-.32-4.55-.67-4.55-1.07h0c0-.39,2.27-.74,4.61-.94,2.34-.2,4.75-.21,4.95-.18Z"/><path class="cls-2" d="M150.63,0h411.59c1.14.01,13.17.17,26.64.34-.64.75-1.28,1.46-1.9,2.25-.3.38-.63.77-.91,1.15-.07.09-.13.19-.19.31l-.1.17-.17.3c-.42.8-.71,1.66-.79,2.53-.17,1.75.57,3.52,1.7,4.98,1.15,1.46,2.62,2.67,4.15,3.63,1.52.98,3.09,1.75,4.59,2.36,6.07,2.44,10.77,2.36,10.74,2.63h0c0,.1-1.15.25-3.15.14-1.99-.11-4.83-.52-8.02-1.6-1.6-.55-3.28-1.26-4.95-2.23-1.67-.96-3.33-2.18-4.73-3.82-1.37-1.62-2.47-3.84-2.33-6.24.07-1.18.41-2.32.91-3.35.36-.67.31-.6.39-.73.06-.1.13-.18.18-.26-2.26.04-4.46.08-6.5.11-2.79.04-5.35.07-7.57.1-4.45.05-7.47.08-8,.08H150.63c-.52,0-3.55-.04-8-.08-2.21-.03-4.78-.06-7.57-.1-2.04-.03-4.24-.07-6.5-.11.05.08.13.16.18.26.08.13.04.05.39.73.49,1.03.84,2.17.91,3.35.14,2.4-.96,4.62-2.33,6.24-1.4,1.63-3.06,2.86-4.73,3.82-1.67.96-3.35,1.68-4.95,2.23-3.2,1.08-6.03,1.5-8.02,1.6-2,.11-3.15-.05-3.15-.14h0c-.03-.27,4.67-.19,10.74-2.63,1.5-.61,3.07-1.38,4.59-2.36,1.52-.97,2.99-2.18,4.15-3.63,1.13-1.46,1.87-3.23,1.7-4.98-.08-.87-.37-1.73-.79-2.53l-.17-.3-.1-.17c-.06-.12-.12-.22-.19-.31-.28-.38-.61-.77-.91-1.15-.61-.79-1.26-1.5-1.9-2.25,13.47-.17,25.5-.33,26.64-.34Z"/></g><path id="Divider_2_Shape" class="cls-1" d="M407.32,51.43h261s-25.6-4.94-29.82-18.87c-4.23-13.92,7.51-18.87,7.51-18.87H66.83s11.74,4.94,7.51,18.87c-4.23,13.92-29.82,18.87-29.82,18.87h261s-16.55-1.42-16.55-12.82,41.92-21.72,67.45-21.72,67.45,10.32,67.45,21.72-16.55,12.82-16.55,12.82Z"/></g></svg>