<?xml version="1.0" encoding="UTF-8"?><svg id="Line" xmlns="http://www.w3.org/2000/svg" viewBox="0 0 644.84 76.13"><defs><style>.cls-1{opacity:.24;}.cls-1,.cls-2{fill:#fff;stroke-width:0px;}</style></defs><g id="Divider_5"><g id="Divider_5_Lines"><path class="cls-2" d="M40.83,70.92c-7.37-1.73-14.63-4.06-21.51-7.39-3.43-1.68-6.76-3.62-9.82-5.99-3.05-2.37-5.9-5.19-7.8-8.8-.93-1.8-1.57-3.83-1.68-5.94-.12-2.11.32-4.25,1.24-6.14.92-1.9,2.31-3.52,3.87-4.82,1.57-1.3,3.32-2.31,5.13-3.1,3.64-1.55,7.48-2.39,11.32-2.72,3.85-.34,7.73-.21,11.56.43.26.06,3.57.72,6.53,2.18,1.49.7,2.87,1.58,3.78,2.39.93.79,1.38,1.48,1.26,1.61-.14.17-.82-.22-1.87-.68-1.03-.48-2.44-1.03-3.9-1.44-2.92-.88-6.03-1.19-6.28-1.24-3.56-.59-7.23-.72-10.83-.4-3.6.31-7.18,1.1-10.43,2.49-3.22,1.4-6.14,3.57-7.58,6.54-1.49,2.98-1.2,6.51.41,9.53,1.59,3.05,4.16,5.65,7.01,7.85,2.86,2.21,6.03,4.07,9.33,5.68,6.61,3.21,13.7,5.49,20.9,7.18.21.06,3.01.83,6.36,1.76,3.03.82,6.03,1.6,5.98,1.99-.05.38-3.17.3-6.34-.01-3.17-.33-6.38-.89-6.64-.96Z"/><path class="cls-2" d="M36.79,33.39c-2.22.18-4.44.63-6.48,1.42-2.02.8-3.87,1.99-4.95,3.55l-.32.61c-.05.1-.12.2-.16.31l-.08.33c-.05.22-.14.41-.18.66l-.07.8c-.17,1.06-.05,2.14,0,3.22.33,2.15.93,4.28,1.93,6.28,1.93,4.03,5,7.51,8.46,10.44,3.49,2.93,7.48,5.28,11.71,7.03.13.11,1.93.91,3.68,1.82,1.79.79,3.56,1.64,3.47,2.03-.09.38-2.06.21-4.09-.11-1.98-.44-4.02-.98-4.16-1.1-4.48-1.86-8.71-4.34-12.45-7.48l-1.39-1.19c-.46-.4-.87-.86-1.31-1.28-.43-.44-.87-.86-1.28-1.31l-1.19-1.41c-.83-.91-1.47-1.97-2.2-2.96-.35-.5-.63-1.06-.95-1.6-.3-.54-.64-1.06-.88-1.64-1.11-2.23-1.82-4.67-2.19-7.19-.07-1.28-.2-2.55,0-3.84l.09-.96c.05-.33.17-.7.26-1.05l.15-.53c.06-.17.16-.32.23-.49.16-.32.33-.64.5-.95,1.62-2.35,3.97-3.72,6.3-4.66,2.36-.92,4.82-1.41,7.29-1.61.09,0,.67,0,1.48.03.82.08,1.87.16,2.89.39,2.06.4,3.9,1.29,3.79,1.66-.12.39-2.04.22-3.95.35-.96.03-1.92.16-2.65.23-.74.12-1.25.18-1.33.19Z"/><path class="cls-2" d="M77.84,52.45c8.29-3.77,16.94-6.55,25.66-8.91,8.74-2.32,17.58-4.16,26.47-5.7,17.78-3.05,35.71-4.98,53.66-6.35,35.91-2.7,71.92-3.19,107.87-3.16,1.29-.01,30.91.73,30.91,1.5,0,.8-29.63,1.34-30.91,1.36-35.92-.03-71.86.46-107.65,3.15-17.89,1.37-35.74,3.29-53.39,6.32-8.82,1.54-17.59,3.36-26.22,5.65-8.62,2.33-17.13,5.08-25.21,8.75-.54.3-7.66,3.19-13.86,7.35-3.12,2.04-5.97,4.39-7.97,6.3-.48.46-.93.9-1.36,1.31-.36.38-.69.73-1.01,1.05-.57.58-.93.88-1.01.83-.08-.06.13-.48.56-1.18.22-.35.49-.77.81-1.25.38-.48.78-.98,1.2-1.52,1.8-2.19,4.55-4.86,7.62-7.18,6.1-4.74,13.29-8,13.84-8.31Z"/><path class="cls-2" d="M115.73,18.73c1.67.36,3.52.45,5.36.51,1.85.05,3.73.04,5.62.04h169.75c1.08,0,25.95.64,25.95,1.43s-24.87,1.43-25.95,1.43H126.72c-1.88,0-3.78,0-5.7-.04-1.92-.06-3.86-.14-5.89-.57-.15-.05-.68-.12-1.53-.45-.82-.31-2.06-.81-3.13-2.08-.22-.34-.49-.68-.67-1.06-.15-.39-.37-.8-.43-1.21-.09-.42-.19-.85-.19-1.27-.02-.42-.05-.86,0-1.27.03-.79.19-1.8.62-2.67.42-.88,1.08-1.63,1.81-2.18,1.49-1.12,3.2-1.58,4.76-1.75,1.57-.16,3.05-.02,4.25.39.6.2,1.14.47,1.57.82.42.34.72.8.78,1.21.08.84-.32,1.16-.36,1.13-.12-.03.03-.46-.19-.97-.22-.5-1-.94-2.07-1.12-1.06-.19-2.39-.16-3.73.12-1.34.28-2.74.84-3.73,1.74-.49.45-.87.97-1.08,1.53-.22.57-.28,1.13-.27,1.84,0,1.35.34,2.42.92,3.03.58.63,1.41.95,2.05,1.14.62.21,1.11.26,1.21.3Z"/><path class="cls-2" d="M282.86,18.92c1.6-.13,3.16-.48,4.74-.75.78-.17,1.56-.38,2.34-.57l1.17-.29,1.15-.36c3.09-.88,6.07-2.13,9-3.48,5.81-2.79,11.29-6.33,16.14-10.58.1-.06,1.23-.87,2.39-1.62,1.15-.76,2.33-1.5,2.63-1.23.28.26-.39,1.5-1.23,2.68-.84,1.16-1.81,2.25-1.91,2.32-5.06,4.43-10.74,8.1-16.79,11.01-3.04,1.41-6.16,2.71-9.4,3.64l-1.21.37-1.23.3c-.82.2-1.63.42-2.46.59-1.66.28-3.32.66-5.01.79-.06,0-.46.01-1.02,0-.56,0-1.28-.03-2-.15-1.43-.2-2.8-.51-2.8-.9s1.34-.8,2.68-1.11c.67-.14,1.34-.31,1.86-.45.52-.13.88-.21.94-.22Z"/><path class="cls-2" d="M316.83,44.07c-2.86-1.59-5.77-3.1-8.76-4.45-1.48-.71-3-1.31-4.5-1.96-1.53-.59-3.04-1.21-4.59-1.74-6.16-2.17-12.53-3.79-18.98-4.43-.21-.15-5.52-.93-5.55-1.74-.03-.77,5.59-1.26,5.83-1.11,6.75.67,13.33,2.35,19.66,4.58,1.59.55,3.14,1.19,4.71,1.79,1.54.67,3.1,1.28,4.61,2.01,3.06,1.38,6.04,2.92,8.97,4.56.11.05,1.29.91,2.36,1.85,1.08.95,2.05,2,1.83,2.33-.22.32-1.55-.11-2.86-.59-1.32-.48-2.62-1.04-2.73-1.09Z"/><path class="cls-2" d="M248.33,36.79c2.17,1.89,4.49,3.61,6.9,5.22,2.44,1.58,4.94,3.06,7.52,4.43,5.16,2.73,10.53,5.1,16,7.2,5.48,2.09,11.05,3.94,16.7,5.53,5.64,1.6,11.36,2.96,17.12,3.96.15.03,2.32.53,5.06,1.16,1.2.27,2.4.51,3.3.74.89.19,1.5.4,1.5.59,0,.2-.61.37-1.56.51-.94.11-2.2.17-3.47.16-2.54-.04-5.1-.31-5.31-.35-5.89-1.02-11.68-2.41-17.41-4.03-5.73-1.61-11.38-3.49-16.95-5.61-5.56-2.14-11.03-4.54-16.32-7.34-2.64-1.4-5.23-2.93-7.75-4.56-2.5-1.67-4.93-3.47-7.23-5.46-.15-.15-2.01-2.02-3.52-4.1-1.5-2.11-2.52-4.42-2.19-4.6.35-.21,1.93,1.63,3.71,3.27,1.81,1.63,3.76,3.14,3.9,3.29Z"/><path class="cls-2" d="M82.54,60.93c34.31-10.12,69.72-16.63,105.46-18.69,8.93-.51,17.89-.78,26.86-.56,1.12.03,2.24.05,3.37.11l1.69.08.43.03.36.02c.14,0,.28,0,.4.09l.97.47,5.95,2.91c1.99.95,4.06,1.75,6.09,2.63,2.02.9,4.1,1.64,6.18,2.4,8.3,3.05,16.82,5.55,25.48,7.45,8.65,1.93,17.41,3.39,26.22,4.43.63.08,8.19,1.13,15.65,1.81,7.45.72,14.79,1.08,14.79,1.47,0,.39-7.37.75-14.91.54-7.54-.17-15.22-.9-15.86-.99-8.9-1.04-17.76-2.52-26.51-4.48-8.76-1.93-17.4-4.45-25.84-7.56-2.11-.77-4.23-1.52-6.28-2.44-2.06-.9-4.16-1.71-6.19-2.67l-6.07-2.96-.38-.19-.19-.09.03.02-.47-.03-1.65-.08c-1.1-.06-2.21-.07-3.32-.1-8.86-.22-17.75.04-26.62.55-35.5,2.04-70.72,8.52-104.81,18.58-.3.08-2.27.64-5.12,1.44-2.81.82-6.5,1.71-10.06,2.87-7.16,2.21-14.22,4.27-14.36,3.91-.14-.37,6.69-3.11,13.72-5.82,3.49-1.42,7.14-2.51,9.92-3.47,2.82-.93,4.79-1.57,5.08-1.67Z"/><path class="cls-2" d="M135.93,59.88c3.14-1.53,6.31-2.95,9.49-4.34l2.39-1.03.8-.34.59-.25.3-.13c.1-.03.19.09.28.12l1.63.98c.73.43,1.43.88,2.18,1.28l2.25,1.16c6.06,3.04,12.61,5.12,19.22,6.85,13.29,3.37,27.01,5.07,40.73,6.23,13.74,1.14,27.54,1.63,41.35,1.89,13.81.25,27.64.23,41.46.18.99-.01,23.8.56,23.79,1.36,0,.77-22.79,1.49-23.78,1.5-13.83.04-27.68.07-41.53-.18-13.85-.25-27.71-.75-41.54-1.89-13.82-1.17-27.66-2.87-41.21-6.31l-2.54-.66-2.52-.74c-1.68-.47-3.34-1.04-5-1.61-1.67-.53-3.28-1.24-4.93-1.86-.81-.34-1.61-.71-2.42-1.07-.8-.36-1.61-.7-2.39-1.13l-2.36-1.22c-.78-.42-1.53-.9-2.29-1.35l-.57-.34c-.07-.04-.04-.02-.04-.02h.01s0,.01,0,.01l-.4.17-2.38,1.02c-3.16,1.37-6.3,2.78-9.38,4.28-.22.1-1.68.76-3.69,1.75-2,1-4.61,2.31-6.84,3.96-1.13.81-2.14,1.74-2.78,2.73-.63.98-.8,2.07-.46,2.89.33.83,1.04,1.36,1.53,1.69.5.33.83.49.8.59-.02.09-.41.12-1.04-.07-.61-.2-1.59-.6-2.27-1.7-.71-1.1-.65-2.79.04-4.16.68-1.38,1.76-2.54,2.91-3.54,2.29-2.02,4.88-3.56,6.88-4.72,2.01-1.15,3.45-1.89,3.68-2Z"/><path class="cls-2" d="M603.36,68.14c7.21-1.69,14.29-3.97,20.9-7.18,3.29-1.61,6.47-3.47,9.33-5.68,2.85-2.2,5.42-4.81,7.01-7.85,1.6-3.02,1.9-6.55.41-9.53-1.44-2.97-4.36-5.14-7.58-6.54-3.26-1.39-6.83-2.18-10.43-2.49-3.61-.32-7.27-.19-10.83.4-.25.05-3.36.36-6.28,1.24-1.47.41-2.87.96-3.9,1.44-1.05.46-1.72.84-1.86.68-.12-.13.33-.82,1.26-1.61.91-.81,2.29-1.7,3.78-2.39,2.96-1.46,6.27-2.12,6.53-2.18,3.83-.63,7.71-.77,11.56-.43,3.85.33,7.69,1.17,11.32,2.72,1.81.79,3.56,1.8,5.13,3.1,1.57,1.29,2.95,2.91,3.87,4.82.93,1.89,1.36,4.03,1.24,6.14-.11,2.11-.75,4.14-1.68,5.94-1.9,3.61-4.75,6.44-7.8,8.8-3.07,2.37-6.4,4.31-9.82,5.99-6.88,3.33-14.14,5.66-21.51,7.39-.26.07-3.47.63-6.64.96-3.17.32-6.29.39-6.34.01-.05-.4,2.94-1.18,5.98-1.99,3.34-.92,6.15-1.7,6.36-1.76Z"/><path class="cls-2" d="M608.27,30.54c2.47.2,4.93.69,7.29,1.61,2.33.94,4.68,2.31,6.3,4.66.18.31.34.63.5.95.08.16.17.32.23.49l.15.53c.09.35.22.72.26,1.05l.09.96c.19,1.29.07,2.56,0,3.84-.37,2.51-1.08,4.96-2.19,7.19-.23.58-.58,1.1-.88,1.64-.32.53-.59,1.09-.95,1.6-.73.99-1.37,2.06-2.2,2.96l-1.19,1.41c-.41.45-.86.87-1.28,1.31-.44.42-.85.89-1.31,1.28l-1.39,1.19c-3.74,3.13-7.97,5.62-12.45,7.48-.14.12-2.17.66-4.16,1.1-2.02.32-4,.49-4.09.11-.09-.39,1.68-1.24,3.47-2.03,1.75-.91,3.55-1.7,3.68-1.82,4.23-1.75,8.22-4.1,11.71-7.03,3.46-2.93,6.53-6.42,8.46-10.44,1-2,1.6-4.13,1.93-6.28.05-1.08.17-2.16,0-3.22l-.07-.8c-.04-.25-.12-.44-.18-.66l-.08-.33c-.04-.11-.11-.2-.16-.31l-.32-.61c-1.08-1.57-2.93-2.76-4.95-3.55-2.03-.8-4.25-1.24-6.48-1.42-.08,0-.59-.07-1.33-.19-.73-.07-1.69-.19-2.65-.23-1.91-.13-3.83.03-3.95-.35-.12-.36,1.73-1.26,3.79-1.66,1.02-.23,2.07-.32,2.89-.39.81-.03,1.4-.03,1.48-.03Z"/><path class="cls-2" d="M565.81,55.05c-8.08-3.67-16.6-6.42-25.21-8.75-8.63-2.29-17.4-4.11-26.22-5.65-17.65-3.03-35.5-4.95-53.39-6.32-35.79-2.7-71.73-3.19-107.65-3.15-1.28-.01-30.91-.55-30.91-1.36,0-.77,29.62-1.51,30.91-1.5,35.95-.03,71.96.46,107.87,3.16,17.95,1.38,35.88,3.3,53.66,6.35,8.89,1.55,17.73,3.38,26.47,5.7,8.72,2.36,17.37,5.15,25.66,8.91.56.31,7.74,3.57,13.84,8.31,3.07,2.32,5.82,4.99,7.62,7.18.42.53.82,1.04,1.2,1.52.33.47.59.9.81,1.25.43.7.64,1.12.56,1.18-.08.06-.44-.25-1.01-.83-.31-.33-.65-.68-1.01-1.05-.43-.41-.88-.85-1.36-1.31-2-1.91-4.86-4.25-7.97-6.3-6.2-4.17-13.32-7.05-13.86-7.35Z"/><path class="cls-2" d="M529.7,21.52c-2.02.43-3.97.51-5.89.57-1.92.05-3.81.04-5.7.04h-169.75c-1.08,0-25.95-.64-25.95-1.43s24.87-1.43,25.95-1.43h169.75c1.89,0,3.77,0,5.62-.04,1.85-.05,3.69-.15,5.36-.51.11-.04.59-.09,1.21-.3.64-.19,1.46-.52,2.05-1.14.58-.61.93-1.68.92-3.03.01-.71-.04-1.27-.27-1.84-.22-.56-.59-1.08-1.08-1.53-.99-.9-2.39-1.46-3.73-1.74-1.35-.28-2.67-.31-3.73-.12-1.07.18-1.85.62-2.07,1.12-.22.51-.07.93-.19.97-.04.04-.44-.28-.36-1.13.06-.42.36-.87.78-1.21.42-.35.96-.62,1.57-.82,1.21-.4,2.68-.55,4.25-.39,1.56.17,3.28.63,4.76,1.75.74.56,1.39,1.31,1.81,2.18.44.87.59,1.87.62,2.67.05.41.03.84,0,1.27,0,.42-.1.85-.19,1.27-.06.42-.29.82-.43,1.21-.18.38-.45.72-.67,1.06-1.07,1.27-2.31,1.77-3.13,2.08-.85.33-1.38.4-1.53.45Z"/><path class="cls-2" d="M361.65,21.76c-1.69-.14-3.34-.51-5.01-.79-.82-.18-1.64-.4-2.46-.59l-1.23-.3-1.21-.37c-3.24-.93-6.35-2.23-9.4-3.64-6.05-2.91-11.73-6.57-16.79-11.01-.1-.07-1.07-1.16-1.91-2.32-.83-1.17-1.51-2.42-1.23-2.68.3-.27,1.47.47,2.63,1.23,1.16.76,2.29,1.56,2.39,1.62,4.84,4.24,10.33,7.79,16.14,10.58,2.92,1.35,5.9,2.6,9,3.48l1.15.36,1.17.29c.78.19,1.56.4,2.34.57,1.58.27,3.15.62,4.74.75.06,0,.42.09.94.22.52.14,1.19.32,1.86.45,1.34.31,2.68.72,2.68,1.11s-1.37.7-2.8.9c-.72.12-1.44.15-2,.15-.56.01-.96,0-1.02,0Z"/><path class="cls-2" d="M326.61,41.58c2.93-1.64,5.91-3.17,8.97-4.56,1.51-.73,3.08-1.34,4.61-2.01,1.57-.6,3.12-1.24,4.71-1.79,6.34-2.23,12.91-3.91,19.66-4.58.24-.15,5.86.34,5.83,1.11-.03.81-5.34,1.59-5.55,1.74-6.45.64-12.82,2.26-18.98,4.43-1.54.54-3.06,1.15-4.59,1.74-1.5.65-3.03,1.25-4.5,1.96-2.99,1.35-5.9,2.85-8.76,4.45-.11.05-1.41.61-2.73,1.09-1.32.49-2.65.92-2.86.59-.22-.33.75-1.38,1.83-2.33,1.08-.94,2.26-1.8,2.36-1.85Z"/><path class="cls-2" d="M398.4,38.93c-2.29,2-4.72,3.79-7.23,5.46-2.52,1.64-5.11,3.16-7.75,4.56-5.29,2.8-10.76,5.21-16.32,7.34-5.57,2.12-11.22,4-16.95,5.61-5.73,1.62-11.52,3.01-17.41,4.03-.21.04-2.78.31-5.31.35-1.27.02-2.53-.04-3.47-.16-.94-.15-1.56-.32-1.56-.51,0-.2.61-.4,1.5-.59.9-.23,2.09-.47,3.3-.74,2.74-.63,4.91-1.12,5.06-1.16,5.75-1,11.47-2.36,17.12-3.96,5.65-1.59,11.22-3.44,16.7-5.53,5.47-2.1,10.84-4.47,16-7.2,2.58-1.37,5.08-2.85,7.52-4.43,2.41-1.61,4.74-3.33,6.9-5.22.14-.15,2.09-1.66,3.9-3.29,1.78-1.65,3.35-3.48,3.71-3.27.33.19-.69,2.49-2.19,4.6-1.51,2.08-3.37,3.94-3.52,4.1Z"/><path class="cls-2" d="M561.49,63.67c-34.1-10.06-69.31-16.54-104.81-18.58-8.87-.51-17.76-.77-26.62-.55-1.11.03-2.22.05-3.32.1l-1.65.08-.47.03.03-.02-.19.09-.38.19-6.07,2.96c-2.03.96-4.13,1.78-6.19,2.67-2.06.92-4.17,1.67-6.28,2.44-8.43,3.1-17.07,5.63-25.84,7.56-8.76,1.96-17.61,3.43-26.51,4.48-.63.08-8.32.82-15.86.99-7.54.21-14.91-.15-14.91-.54,0-.39,7.34-.75,14.79-1.47,7.46-.68,15.02-1.72,15.65-1.81,8.81-1.03,17.57-2.49,26.22-4.43,8.66-1.9,17.18-4.4,25.48-7.45,2.08-.76,4.16-1.5,6.18-2.4,2.03-.88,4.09-1.68,6.09-2.63l5.95-2.91.97-.47c.12-.08.26-.08.4-.09l.36-.02.43-.03,1.69-.08c1.13-.06,2.25-.07,3.37-.11,8.97-.22,17.92.04,26.86.56,35.74,2.05,71.16,8.57,105.46,18.69.29.1,2.26.74,5.08,1.67,2.78.96,6.43,2.06,9.92,3.47,7.03,2.71,13.86,5.45,13.72,5.82-.14.37-7.2-1.7-14.36-3.91-3.56-1.17-7.25-2.06-10.06-2.87-2.84-.8-4.82-1.36-5.12-1.44Z"/><path class="cls-2" d="M507.65,62.44c-3.08-1.5-6.22-2.91-9.38-4.28l-2.38-1.02-.4-.17h0s.01-.01.01-.01c0,0,.03-.02-.04.02l-.57.34c-.76.45-1.51.93-2.29,1.35l-2.36,1.22c-.78.42-1.59.77-2.39,1.13-.81.35-1.6.73-2.42,1.07-1.64.61-3.26,1.32-4.93,1.86-1.66.57-3.32,1.14-5,1.61l-2.52.74-2.54.66c-13.55,3.43-27.39,5.13-41.21,6.31-13.83,1.15-27.69,1.64-41.54,1.89-13.85.26-27.69.23-41.53.18-.99-.01-23.78-.73-23.78-1.5,0-.8,22.81-1.37,23.79-1.36,13.83.04,27.65.07,41.46-.18,13.81-.25,27.61-.75,41.35-1.89,13.72-1.16,27.45-2.85,40.73-6.23,6.62-1.72,13.17-3.81,19.22-6.85l2.25-1.16c.74-.4,1.45-.86,2.18-1.28l1.63-.98c.09-.04.18-.15.28-.12l.3.13.59.25.8.34,2.39,1.03c3.18,1.38,6.35,2.81,9.49,4.34.23.1,1.67.85,3.68,2,2,1.16,4.58,2.7,6.88,4.72,1.15.99,2.23,2.15,2.91,3.54.7,1.37.75,3.06.04,4.16-.69,1.11-1.66,1.5-2.27,1.7-.64.19-1.02.16-1.04.07-.02-.1.3-.26.8-.59.49-.33,1.2-.86,1.53-1.69.34-.82.18-1.91-.46-2.89-.63-.99-1.65-1.92-2.78-2.73-2.24-1.65-4.84-2.97-6.84-3.96-2.02-.99-3.47-1.65-3.69-1.75Z"/></g><path id="Divider_5_Shape" class="cls-1" d="M322.42,6.88c-50.36,0-172.8-1.29-178.91,1.34,13.4,1.93,44.89,17.82,53.35,44,15.51,7.48,57.95,17.06,125.56,17.06s110.05-9.58,125.56-17.06c8.46-26.18,39.95-42.07,53.35-44-6.11-2.63-128.55-1.34-178.91-1.34Z"/></g></svg>