<?xml version="1.0" encoding="UTF-8"?><svg id="Line" xmlns="http://www.w3.org/2000/svg" viewBox="0 0 226.37 226.37"><defs><style>.cls-1{opacity:.24;}.cls-2{fill:#fff;stroke-width:0px;}</style></defs><g id="Icon_4"><g id="Icon_4_Lines"><path class="cls-2" d="M136.55,77.31c-.32-2.95-.45-5.94-.21-8.94.24-3,.83-6.03,2.07-8.88.61-1.43,1.41-2.79,2.38-4.04.23-.32.49-.62.76-.91.27-.28.53-.61.81-.85l1.66-1.53c2.28-1.94,4.7-3.7,7.26-5.19,5.07-3.07,10.47-5.41,15.93-7.49,5.46-2.07,11.01-3.85,16.59-5.49.4-.14,9.77-2.14,9.98-1.37.2.75-8.78,3.98-9.17,4.11-5.53,1.63-11.02,3.39-16.38,5.43-5.35,2.04-10.62,4.33-15.47,7.27-2.45,1.42-4.72,3.09-6.85,4.9l-1.54,1.41c-.27.23-.46.48-.69.72-.23.23-.44.49-.63.75-.81,1.03-1.49,2.18-2.02,3.42-1.08,2.46-1.63,5.19-1.84,7.96-.22,2.77-.1,5.59.2,8.4.03.2.14,2.63.37,5.03.2,2.41.52,4.77.15,4.88-.38.12-1.41-2.1-2.13-4.49-.76-2.37-1.2-4.9-1.23-5.11Z"/><path class="cls-2" d="M149.85,87.43c2.81.31,5.64.42,8.42.2,2.77-.22,5.51-.77,7.97-1.87,1.24-.53,2.39-1.21,3.42-2.04.27-.19.51-.41.75-.64.24-.23.49-.43.72-.7l1.41-1.54c1.78-2.15,3.44-4.43,4.83-6.91,2.88-4.89,5.09-10.21,7.06-15.61,1.97-5.41,3.66-10.93,5.26-16.49.12-.39,3.33-9.42,4.08-9.21.76.21-1.21,9.6-1.34,10-1.6,5.59-3.31,11.18-5.32,16.68-2.02,5.49-4.27,10.95-7.28,16.07-1.45,2.59-3.21,5.02-5.13,7.33l-1.53,1.67c-.24.28-.55.55-.84.82-.29.27-.58.54-.91.77-1.24.99-2.61,1.79-4.04,2.41-2.86,1.26-5.89,1.86-8.9,2.1-3.01.24-6.01.12-8.96-.21-.21-.03-2.74-.47-5.12-1.23-2.39-.73-4.62-1.75-4.5-2.13.12-.36,2.48-.05,4.89.16,2.41.23,4.85.34,5.04.37Z"/><path class="cls-2" d="M126.36,170.45c-1.31,2.45-3.1,4.41-5,6.19-1.9,1.77-3.98,3.29-6.09,4.72-4.25,2.84-8.75,5.2-13.37,7.26-2.3,1.05-4.65,1.98-7.01,2.88-2.39.85-4.81,1.69-7.26,2.33-4.89,1.34-9.85,2.33-14.8,3.14-9.91,1.65-19.88,2.63-29.56,4.59-4.82,1-9.62,2.23-13.96,4.29l-1.62.78-1.6.9c-1.05.62-2.1,1.26-3.11,1.93-2.03,1.35-3.97,2.82-5.71,4.46-.12.12-.98.84-2.07,1.97-1.09,1.12-2.41,2.68-3.33,4.4-.46.86-.82,1.76-.99,2.61-.18.85-.13,1.64.14,2.14.26.48.76.64,1.17.62.41,0,.68-.06.73.04.04.07-.13.32-.6.52-.23.11-.56.18-.97.14-.4-.06-.86-.27-1.21-.65-.68-.77-.89-1.9-.84-2.98.04-1.1.32-2.22.73-3.27.82-2.11,2.11-3.98,3.2-5.31,1.08-1.34,1.96-2.19,2.09-2.31,1.89-1.79,3.95-3.34,6.08-4.76,1.07-.71,2.16-1.38,3.26-2.02l1.67-.94,1.76-.85c4.71-2.22,9.68-3.48,14.62-4.51,9.91-2,19.87-2.98,29.67-4.61,4.9-.79,9.76-1.77,14.51-3.07,2.39-.62,4.69-1.42,7.01-2.25,2.31-.88,4.6-1.79,6.85-2.81,4.5-2.01,8.88-4.31,12.94-7.03,2.01-1.37,3.99-2.81,5.74-4.45,1.75-1.63,3.35-3.42,4.4-5.4.06-.07.18-.33.36-.74.09-.2.23-.45.33-.71.09-.26.19-.57.27-.92.32-1.37.44-3.47-.3-4.94-.18-.37-.43-.64-.72-.89-.13-.12-.34-.27-.56-.24-.22.01-.42.28-.27.46.1.18.25.36.43.52.19.15.41.29.65.35.11.03.27.02.32-.03.02,0-.01-.03.05,0-.03-.02-.03-.02-.03-.02,0,0,.01,0,.02-.01.01-.02.01-.07.03-.1.02-.36-.06-.66.04-.7.07-.03.32.1.53.62.02.08.04.15.04.25-.01.1-.02.26-.08.33-.11.2-.27.23-.41.3-.31.06-.77.1-1.46-.3-.7-.39-1.31-1.19-1.38-1.7-.23-.46.18-1.3.84-1.56.67-.3,1.49-.12,2.22.3.56.33,1.08.8,1.45,1.34.73,1.08,1.05,2.29,1.2,3.39.15,1.11.11,2.16-.01,3.08-.06.46-.15.89-.26,1.29-.11.39-.25.69-.35.97-.2.55-.35.9-.41.98Z"/><path class="cls-2" d="M57.23,102.55c-1.97,1.05-3.77,2.65-5.4,4.4-1.64,1.75-3.08,3.73-4.45,5.74-2.72,4.06-5.02,8.44-7.03,12.94-1.02,2.24-1.94,4.54-2.81,6.85-.82,2.32-1.63,4.62-2.25,7.01-1.3,4.75-2.28,9.6-3.07,14.51-1.63,9.81-2.61,19.76-4.61,29.67-1.03,4.94-2.29,9.91-4.51,14.62l-.85,1.76-.94,1.67c-.65,1.1-1.31,2.19-2.02,3.26-1.42,2.13-2.98,4.19-4.76,6.08-.13.13-.97,1.01-2.31,2.09-1.33,1.08-3.2,2.37-5.31,3.2-1.05.41-2.17.69-3.27.73-1.08.05-2.21-.17-2.98-.84-.38-.35-.59-.81-.65-1.21-.04-.4.03-.73.14-.97.2-.48.45-.64.52-.6.1.05.03.32.04.73-.01.41.14.91.62,1.17.5.27,1.29.32,2.14.14.85-.17,1.75-.52,2.61-.99,1.73-.93,3.28-2.24,4.4-3.33,1.13-1.09,1.85-1.95,1.97-2.07,1.65-1.74,3.12-3.68,4.46-5.71.67-1.01,1.31-2.06,1.93-3.11l.9-1.6.78-1.62c2.05-4.34,3.29-9.13,4.29-13.96,1.96-9.69,2.94-19.66,4.59-29.56.8-4.96,1.8-9.91,3.14-14.8.63-2.45,1.48-4.87,2.33-7.26.9-2.36,1.83-4.71,2.88-7.01,2.06-4.62,4.42-9.12,7.26-13.37,1.44-2.11,2.95-4.19,4.72-6.09,1.77-1.89,3.74-3.69,6.19-5,.08-.06.43-.21.98-.41.28-.1.58-.24.97-.35.4-.11.83-.2,1.29-.26.92-.13,1.97-.16,3.08-.01,1.11.14,2.31.46,3.39,1.2.54.36,1.01.88,1.34,1.45.42.73.6,1.55.3,2.22-.26.67-1.09,1.07-1.56.84-.51-.08-1.3-.68-1.7-1.38-.4-.7-.36-1.15-.3-1.46.07-.15.1-.31.3-.41.07-.06.23-.07.33-.08.1,0,.17.03.25.04.53.2.65.46.62.53-.04.11-.34.02-.7.04-.03.01-.08.01-.1.03,0,.01,0,.02-.01.02,0,0,0,0-.02-.03.03.07,0,.03,0,.05-.05.04-.06.21-.03.32.06.24.2.47.35.65.15.19.33.34.52.43.18.15.44-.05.46-.27.03-.23-.11-.44-.24-.56-.25-.29-.52-.53-.89-.72-1.48-.74-3.57-.62-4.94-.3-.35.08-.66.17-.92.27-.27.1-.51.24-.71.33-.41.19-.68.31-.74.36Z"/><path class="cls-2" d="M198.51,77.52c-.45-2.57-.65-5.17-.91-7.76-.11-1.3-.14-2.6-.21-3.9l-.09-1.95v-1.95c-.11-5.2.28-10.4.86-15.56.61-5.17,1.66-10.29,3.09-15.32.4-1.25.75-2.51,1.2-3.75l1.43-3.68,1.1-2.27-2.27,1.1-3.68,1.43c-1.24.45-2.5.79-3.75,1.2-5.03,1.44-10.15,2.48-15.32,3.09-5.17.58-10.36.98-15.56.87h-1.95s-1.95-.1-1.95-.1c-1.3-.07-2.6-.1-3.9-.21-2.59-.26-5.19-.46-7.76-.91-.18-.04-1.38-.22-3.06-.61-.82-.21-1.77-.46-2.8-.73-1.01-.26-2.07-.54-3.11-.94-.99-.36-2.01-.72-3.02-1.08-.96-.35-1.8-.81-2.53-1.15-1.46-.72-2.38-1.26-2.3-1.44.08-.18,1.14.01,2.68.4.78.18,1.65.48,2.63.67,1.02.22,2.05.44,3.06.65,1.03.26,2.1.42,3.1.57,1.02.17,1.96.32,2.77.46,1.65.24,2.83.33,3,.37,2.49.44,5.02.63,7.54.89,1.26.1,2.53.13,3.8.2l1.9.09h1.9c5.08.11,10.15-.28,15.19-.84,5.04-.6,10.02-1.62,14.86-3,1.2-.39,2.42-.72,3.6-1.15l3.5-1.36,1.68-.82,1.25-.61c.57-.24,1.21-.68,1.82-1.05l7-4.35-4.35,7c-.37.62-.81,1.25-1.05,1.82l-.61,1.25-.82,1.68-1.36,3.5c-.43,1.18-.76,2.4-1.15,3.59-1.38,4.85-2.4,9.82-3,14.86-.56,5.04-.96,10.11-.85,15.19v1.9s.1,1.9.1,1.9c.07,1.27.1,2.54.2,3.8.26,2.52.45,5.05.89,7.54.04.18.14,1.35.37,3,.13.81.29,1.75.46,2.77.16,1,.32,2.07.57,3.1.21,1.01.43,2.04.65,3.06.19.98.49,1.85.67,2.63.39,1.54.58,2.61.4,2.68-.18.08-.72-.85-1.44-2.3-.34-.73-.8-1.58-1.15-2.53-.36-1.01-.73-2.03-1.08-3.02-.39-1.03-.67-2.1-.94-3.11-.27-1.03-.52-1.98-.73-2.8-.39-1.67-.57-2.87-.61-3.06Z"/><path class="cls-2" d="M184.29,104.22c-11.47,6.74-22.59,14.14-34.23,20.85-1.46.83-2.93,1.65-4.42,2.45-.75.4-1.5.79-2.26,1.17l-1.3.63-.57.27-.28.13c-.09,0-.19-.07-.29-.1l-1.07-.47c-2.83-1.3-5.97-1.95-9.14-2.02-6.36-.15-12.73,1.87-18.32,5.07-5.55,3.29-10.49,7.72-14.25,12.99-1.88,2.63-3.48,5.46-4.72,8.44-.16.37-.3.75-.44,1.12-.07.19-.15.38-.21.57l-.28.79c-.08.19-.1.42-.24.56l-.54.33-.67.41-1.07.65-4.26,2.62c-11.35,7.01-22.56,14.23-33.67,21.62-.37.23-5.06,3.15-10.05,6.26-4.79,2.94-9.49,5.81-9.72,5.5-.23-.32,4.07-3.79,8.58-7.16,4.51-3.38,9.2-6.71,9.6-6.97,11.13-7.41,22.37-14.65,33.75-21.68l4.27-2.62,1.07-.65.27-.16.13-.08h0s0,0,0,0h0s0,0,0,0l.03-.08.11-.31c.07-.21.15-.41.23-.61.16-.4.3-.81.48-1.21,1.32-3.19,3.03-6.21,5.03-9.01,4.01-5.6,9.22-10.29,15.14-13.8,5.96-3.41,12.79-5.61,19.82-5.45,3.5.08,7.03.79,10.27,2.28.15.07.09.04.09.04h0s0,0,0,0l.95-.47c.73-.37,1.46-.74,2.19-1.13,1.46-.77,2.9-1.58,4.34-2.4,11.51-6.64,22.64-14.04,34.2-20.83.42-.23,5.44-3.08,10.66-5.37,2.61-1.14,5.29-2.11,7.42-2.48,1.06-.18,2-.19,2.63-.05.65.14.94.41.9.48-.04.1-.38.04-.94.09-.57.05-1.37.22-2.32.55-1.9.66-4.37,1.87-6.8,3.22-4.87,2.69-9.69,5.79-10.1,6.02Z"/><path class="cls-2" d="M124.62,43.53c-6.8,11.55-14.2,22.69-20.83,34.2-.82,1.44-1.63,2.89-2.4,4.34-.39.73-.77,1.46-1.13,2.19l-.47.95h0s0-.01,0-.01c0,0-.03-.06.04.09,1.49,3.24,2.2,6.77,2.28,10.27.15,7.03-2.04,13.86-5.45,19.82-3.51,5.93-8.2,11.13-13.8,15.14-2.8,2-5.82,3.71-9.01,5.03-.4.17-.8.32-1.21.48-.2.08-.4.16-.61.23l-.31.11-.08.03s0,0,0,0h0s0,0,0,0h0s-.08.13-.08.13l-.16.27-.65,1.07-2.62,4.27c-7.03,11.38-14.27,22.62-21.68,33.75-.26.4-3.59,5.09-6.97,9.6-3.37,4.51-6.84,8.81-7.16,8.58-.32-.23,2.56-4.92,5.5-9.72,3.11-4.99,6.02-9.67,6.26-10.05,7.39-11.11,14.62-22.32,21.62-33.67l2.62-4.26.65-1.07.41-.67.33-.54c.14-.14.38-.16.56-.24l.79-.28c.19-.06.38-.14.57-.21.37-.15.75-.28,1.12-.44,2.98-1.23,5.81-2.83,8.44-4.72,5.27-3.77,9.7-8.7,12.99-14.25,3.2-5.59,5.22-11.95,5.07-18.32-.08-3.17-.72-6.31-2.02-9.14l-.47-1.07c-.03-.1-.11-.19-.1-.29l.13-.28.27-.57.63-1.3c.38-.76.77-1.51,1.17-2.26.79-1.49,1.61-2.96,2.45-4.42,6.71-11.63,14.11-22.76,20.85-34.23.23-.42,3.33-5.23,6.02-10.1,1.34-2.43,2.56-4.9,3.22-6.8.33-.95.5-1.76.55-2.32.05-.56,0-.9.09-.94.08-.04.34.26.48.9.14.64.13,1.57-.05,2.63-.37,2.13-1.34,4.81-2.48,7.42-2.29,5.22-5.14,10.24-5.37,10.66Z"/></g><g id="Icon_4_Shape"><g class="cls-1"><path class="cls-2" d="M221.06,92.08c-11.72-28.04-7.62-73.83,5.31-92.08-18.25,12.94-64.04,17.03-92.08,5.31,3.52,8.42-30.57,54.61-40.52,75.8,6.66,13.2,2.04,32.56-12.27,46.86-6.25,6.25-13.46,10.65-20.71,13.07-20.08,33.05-40.33,62.54-45.97,70.5,7.96-5.64,37.44-25.89,70.5-45.97,2.42-7.24,6.82-14.46,13.07-20.71,14.3-14.3,33.67-18.93,46.86-12.27,21.19-9.95,67.38-44.03,75.8-40.52Z"/></g><g class="cls-1"><path class="cls-2" d="M86.8,47.13c-9.63-7.62-17.55-26.69-16.92-37.51-3.5,10.26-18.04,24.93-29.83,28.35,2.89,2.29.83,30.07,1.79,41.19,4.92,3.26,7.3,12.15,5.4,21.82-.83,4.23-2.36,8-4.3,11.02-.03,18.65-.84,35.95-1.12,40.67,1.53-4.47,7.31-20.8,14.33-38.08-.66-3.52-.65-7.6.18-11.82,1.9-9.67,7.46-17.01,13.24-18.16,5.09-9.93,13.68-36.44,17.22-37.46Z"/></g><g class="cls-1"><path class="cls-2" d="M170.54,137.01c6.55,6.06,21.98,9.76,30.43,8.22-7.84,3.51-18.48,15.28-20.46,23.98-1.97-1.82-23.63,2.43-32.41,2.86-2.85-3.16-9.96-3.95-17.43-1.64-3.26,1.01-6.14,2.47-8.38,4.15-14.63,1.89-28.15,4.2-31.83,4.87,3.42-1.53,15.88-7.27,29.02-13.97,2.8.11,6-.3,9.26-1.32,7.47-2.31,12.89-6.99,13.46-11.2,7.49-4.61,27.76-13.34,28.36-15.95Z"/></g></g></g></svg>