<?xml version="1.0" encoding="UTF-8"?><svg id="Line" xmlns="http://www.w3.org/2000/svg" viewBox="0 0 233 229.05"><defs><style>.cls-1{opacity:.24;}.cls-2{fill:#fff;stroke-width:0px;}</style></defs><g id="Icon_12"><g id="Icon_12_Lines"><path class="cls-2" d="M147.24,54.6c-1.73.21-3.29-.28-4.64-.88-1.38-.59-2.71-1.55-3.7-2.74-2.02-2.4-2.81-5.65-2.29-8.68.47-3.05,2.51-5.9,5.32-7.28,1.38-.71,2.9-1.08,4.38-1.18,1.48-.11,2.96-.02,4.36.27,5.69,1.08,10.44,4.15,14.93,7.08,2.26,1.51,4.47,3.12,6.55,4.93,2.07,1.82,4.09,3.77,5.63,6.31.04.1.38.7.71,1.67.29.95.63,2.41.01,3.88-.3.72-.91,1.34-1.56,1.61-.65.29-1.29.3-1.78.2-.99-.2-1.41-.72-1.33-.86.08-.2.66-.08,1.35-.24.34-.07.7-.22.96-.47.26-.24.41-.55.46-.9.11-.7-.2-1.6-.55-2.25-.35-.66-.69-1.11-.72-1.19-1.24-2.06-3.1-3.91-5.04-5.6-1.96-1.7-4.08-3.25-6.27-4.72-2.19-1.45-4.46-2.88-6.73-4.06-2.29-1.18-4.69-2.13-7.13-2.58-1.22-.25-2.44-.31-3.62-.23-1.18.08-2.32.36-3.32.88-2.01,1-3.43,2.96-3.79,5.22-.39,2.24.22,4.66,1.66,6.36.73.86,1.61,1.51,2.69,1.98,1.06.49,2.18.78,3.12.65.03,0,.16-.02.36-.02.17-.06.45-.05.72-.19.55-.19,1.25-.72,1.57-1.46.08-.17.14-.36.16-.49.05-.17,0-.2.08-.26-.03,0-.11-.12-.14-.16l-.05-.06h0s0-.02,0-.03c0-.03,0-.08.01-.09.05-.16-.04-.3,0-.23,0-.01.06.06.08.05.05.03.13.03.09.04-.11.07-.06.36.05.5.1.17.24.27.22.37-.01.08-.17.2-.5.13-.3-.06-.84-.36-.87-1.15,0-.19.06-.45.28-.68.22-.24.57-.31.83-.29.52.07.77.23,1.1.48.4.36.58.83.63,1.23.08.42.05.79-.01,1.16-.24,1.48-1.28,2.68-2.29,3.27-.49.34-.98.45-1.32.59-.35.08-.58.12-.64.13Z"/><path class="cls-2" d="M200.59,78.74c.46.83,1.36,1.56,2.39,2.12,1.02.59,2.07.91,3.19.98,2.22.15,4.52-.83,6.06-2.48,1.58-1.65,2.28-3.97,1.87-6.18-.19-1.11-.64-2.19-1.29-3.19-.63-1-1.42-1.94-2.34-2.77-1.82-1.69-4.01-3.05-6.32-4.18-2.31-1.12-4.8-2.08-7.27-2.97-2.48-.88-4.99-1.66-7.52-2.22-2.52-.55-5.11-.93-7.5-.7-.08.02-.64.02-1.38.14-.73.11-1.63.4-2.12.91-.25.25-.4.55-.44.91-.04.35.06.73.21,1.05.28.65.72,1.04.61,1.23-.07.15-.73.12-1.49-.55-.37-.33-.75-.84-.91-1.54-.17-.69-.05-1.54.34-2.22.38-.68.95-1.21,1.51-1.56.56-.37,1.12-.6,1.6-.77.97-.32,1.66-.41,1.76-.44,2.96-.28,5.72.17,8.42.75,2.69.6,5.31,1.4,7.86,2.31,5.03,1.86,10.33,3.84,14.58,7.76,1.06.96,2.02,2.08,2.82,3.34.8,1.25,1.42,2.68,1.68,4.21.59,3.07-.45,6.41-2.6,8.63-2.1,2.25-5.19,3.57-8.32,3.38-1.55-.08-3.12-.59-4.41-1.34-1.29-.72-2.61-1.69-3.48-3.2-.03-.05-.13-.26-.28-.59-.09-.36-.29-.81-.32-1.41-.13-1.16.2-2.71,1.23-3.8.26-.27.54-.52.92-.71.34-.19.83-.33,1.36-.23.4.12.67.22,1.04.59.17.2.32.51.27.83-.04.31-.21.51-.37.64-.65.46-1.22.19-1.45,0-.25-.22-.25-.42-.19-.48.07-.08.23-.03.43-.05.18,0,.44-.13.43-.26-.02-.03.03.04.08.05,0,.02.1.03.09.03.07,0-.09,0-.19.14,0,.01-.05.04-.06.06h-.01s-.01,0-.01,0h-.08s-.19,0-.21-.03c0,.12-.06.08-.16.22-.1.09-.21.26-.3.42-.4.7-.39,1.58-.22,2.14.05.29.22.52.28.69.12.16.18.27.2.3Z"/><path class="cls-2" d="M102.22,178.18c1.73-.21,3.29.28,4.64.88,1.38.59,2.71,1.55,3.7,2.74,2.02,2.4,2.81,5.65,2.29,8.68-.47,3.05-2.51,5.9-5.32,7.28-1.38.71-2.9,1.08-4.38,1.18-1.48.11-2.96.02-4.36-.27-5.69-1.08-10.44-4.15-14.93-7.08-2.26-1.51-4.46-3.12-6.55-4.93-2.07-1.82-4.09-3.77-5.63-6.31-.04-.1-.38-.7-.71-1.67-.29-.95-.63-2.41-.01-3.88.3-.72.91-1.34,1.56-1.61.65-.29,1.29-.3,1.78-.2.99.2,1.41.72,1.33.86h0c-.08.2-.66.08-1.35.24-.34.07-.7.22-.96.47-.26.24-.41.55-.46.9-.11.7.2,1.6.55,2.25.35.66.69,1.11.72,1.19,1.24,2.06,3.1,3.91,5.04,5.6,1.96,1.7,4.08,3.25,6.27,4.72,2.19,1.45,4.46,2.88,6.73,4.06,2.29,1.18,4.69,2.13,7.13,2.58,1.22.25,2.44.31,3.62.23,1.18-.08,2.32-.36,3.32-.88,2.01-1,3.43-2.96,3.79-5.22.39-2.24-.22-4.66-1.66-6.36-.73-.86-1.61-1.51-2.69-1.98-1.06-.49-2.18-.78-3.12-.65-.03,0-.16.02-.36.02-.17.06-.45.05-.72.19-.55.19-1.25.72-1.57,1.46-.08.17-.14.36-.16.49-.05.17,0,.2-.08.26.03,0,.11.12.14.15l.05.06h0s0,.02,0,.03c0,.03,0,.08-.01.09-.05.16.04.3,0,.23,0,.01-.06-.06-.08-.05-.05-.03-.13-.03-.09-.04.11-.07.06-.36-.05-.5-.1-.17-.24-.27-.22-.37.01-.08.17-.2.5-.13.3.06.84.36.87,1.15,0,.19-.06.45-.28.68-.22.24-.57.31-.83.29-.52-.07-.77-.23-1.1-.48-.4-.36-.58-.83-.63-1.23-.08-.42-.05-.79.01-1.16.24-1.48,1.28-2.68,2.29-3.27.49-.34.98-.45,1.32-.59.35-.08.58-.12.64-.13Z"/><path class="cls-2" d="M48.87,154.04c-.46-.83-1.36-1.56-2.39-2.12-1.02-.59-2.07-.91-3.19-.98-2.22-.14-4.52.83-6.06,2.48-1.58,1.65-2.28,3.97-1.87,6.18.19,1.11.64,2.19,1.29,3.19.63,1,1.42,1.94,2.34,2.77,1.82,1.69,4.01,3.05,6.32,4.18,2.31,1.11,4.8,2.08,7.27,2.97,2.48.88,4.99,1.66,7.52,2.22,2.52.55,5.11.93,7.5.7.08-.02.64-.02,1.38-.14.73-.11,1.63-.4,2.12-.91.25-.25.4-.55.44-.91.04-.35-.06-.73-.2-1.05-.28-.65-.72-1.04-.61-1.23.07-.15.73-.12,1.49.55.37.33.75.84.91,1.54.17.69.05,1.54-.34,2.22-.38.68-.95,1.21-1.51,1.56-.56.37-1.12.6-1.6.77-.97.32-1.66.41-1.76.44-2.96.28-5.72-.17-8.42-.75-2.69-.6-5.3-1.4-7.86-2.31-5.03-1.86-10.33-3.84-14.58-7.76-1.06-.96-2.02-2.08-2.81-3.34-.8-1.25-1.42-2.68-1.68-4.21-.59-3.07.45-6.41,2.6-8.63,2.1-2.25,5.19-3.57,8.32-3.38,1.55.08,3.12.59,4.41,1.34,1.29.72,2.61,1.69,3.48,3.2.03.05.13.26.28.59.09.36.29.81.32,1.41.13,1.16-.2,2.71-1.23,3.8-.26.27-.54.52-.92.71-.34.19-.83.33-1.36.23-.4-.12-.67-.22-1.04-.59-.17-.2-.32-.51-.27-.83.04-.31.21-.51.37-.64.65-.46,1.22-.19,1.45,0,.25.22.25.42.19.48-.07.08-.23.03-.43.05-.18,0-.44.13-.43.26.02.03-.03-.04-.08-.05,0-.02-.1-.03-.09-.03-.07,0,.09,0,.19-.14,0-.01.05-.04.06-.06h0s.01,0,.01,0h.08s.19,0,.21.03c0-.11.06-.08.16-.22.1-.09.21-.26.3-.42.4-.7.39-1.58.22-2.14-.05-.29-.22-.52-.28-.69-.12-.16-.18-.27-.2-.3Z"/><path class="cls-2" d="M232.54,45.26c.3,4.54-.52,8.92-1.66,13.12-1.15,4.21-2.8,8.23-4.56,12.17-1.75,3.95-3.84,7.72-5.95,11.47-2.2,3.7-4.45,7.36-6.9,10.88-2.4,3.56-4.97,7-7.58,10.4-2.7,3.34-5.44,6.7-8.42,9.79-5.88,6.27-12.17,12.12-18.65,17.7-6.47,5.59-13.07,11-19.64,16.43-6.57,5.42-13.08,10.89-19.27,16.67-6.15,5.79-12.07,11.9-16.63,18.87l-1.69,2.62-1.53,2.76c-.99,1.86-1.94,3.73-2.82,5.64-1.76,3.81-3.29,7.73-4.36,11.75-.07.29-.66,2.14-1.19,4.82-.54,2.67-.98,6.19-.67,9.62.15,1.71.51,3.39,1.12,4.81.28.73.69,1.34,1.09,1.9.44.52.92.93,1.41,1.18.5.23,1,.25,1.45.17.44-.12.82-.31,1.1-.54.3-.21.5-.42.65-.56.15-.14.26-.2.3-.17s.02.14-.06.34c-.08.2-.22.49-.49.81-.25.33-.66.67-1.23.93-.58.22-1.34.3-2.1.06-.74-.25-1.43-.72-2.04-1.31-.56-.62-1.11-1.32-1.51-2.11-.85-1.58-1.39-3.4-1.69-5.25-.61-3.71-.34-7.48.08-10.33.41-2.86.94-4.82,1.02-5.12,1.13-4.22,2.71-8.27,4.52-12.2.91-1.96,1.89-3.89,2.9-5.79l1.57-2.83,1.77-2.75c4.79-7.31,10.84-13.53,17.08-19.4,6.27-5.86,12.83-11.36,19.4-16.79,6.58-5.43,13.16-10.83,19.59-16.38,6.43-5.55,12.65-11.33,18.43-17.49,2.94-3.05,5.6-6.31,8.25-9.59,2.58-3.35,5.12-6.75,7.48-10.26,2.41-3.48,4.63-7.08,6.79-10.71,2.07-3.68,4.12-7.38,5.82-11.22,1.72-3.83,3.31-7.73,4.41-11.75,1.1-4,1.84-8.13,1.57-12.12.02-.15-.06-.67-.17-1.48-.07-.4-.09-.9-.21-1.41-.11-.5-.29-1.08-.52-1.68-.45-1.22-1.13-2.58-2.04-3.88-.9-1.3-2.07-2.53-3.43-3.27-.68-.39-1.41-.56-2.15-.63-.38-.03-.73,0-1.04.06-.34.1-.45.14-.59.28-.28.24-.3.84.12.97.12.08.5.25.79.33.31.1.62.17.91.21.59.09,1.17.07,1.56-.05.18-.07.3-.14.29-.18.05-.02-.01-.09,0-.15-.02-.07-.07-.14-.11-.21-.18-.27-.4-.49-.54-.63-.14-.15-.21-.25-.18-.29.02-.04.14-.02.34.05.21.07.49.21.82.51.08.09.17.17.24.29.05.15.16.28.13.49,0,.22-.09.39-.22.56-.12.14-.27.25-.42.33-.6.31-1.27.39-2,.39-.36,0-.74-.04-1.13-.12-.4-.09-.74-.14-1.28-.41-1.15-.31-1.47-1.92-.72-2.94.35-.53,1.02-.91,1.5-1.06.52-.16,1.04-.23,1.54-.23,1.01,0,2.08.19,3,.63,1.87.85,3.33,2.24,4.45,3.67,1.14,1.43,1.99,2.93,2.58,4.31.3.69.54,1.36.72,1.99.18.62.24,1.17.33,1.64.17.94.28,1.55.26,1.71Z"/><path class="cls-2" d="M140.36,14.27c.3,4.54-.52,8.92-1.66,13.12-1.15,4.21-2.8,8.23-4.56,12.17-1.75,3.95-3.84,7.72-5.95,11.47-2.2,3.7-4.45,7.36-6.9,10.88-2.4,3.56-4.97,7-7.58,10.4-2.7,3.34-5.44,6.7-8.42,9.79-5.88,6.27-12.17,12.12-18.65,17.7-6.47,5.59-13.07,11-19.64,16.43-6.57,5.42-13.08,10.89-19.27,16.67-6.15,5.79-12.07,11.9-16.63,18.87l-1.69,2.62-1.53,2.76c-.99,1.86-1.94,3.73-2.82,5.64-1.76,3.81-3.29,7.73-4.36,11.75-.07.29-.66,2.14-1.19,4.82-.54,2.67-.98,6.19-.67,9.62.15,1.71.51,3.39,1.12,4.81.28.73.69,1.34,1.09,1.9.44.52.92.93,1.41,1.18.5.23,1,.25,1.45.17.44-.12.82-.31,1.1-.54.3-.21.5-.42.65-.56.16-.14.26-.2.3-.17.04.02.02.14-.06.34-.08.2-.22.49-.49.81-.25.33-.66.67-1.23.93-.58.22-1.34.3-2.1.06-.74-.25-1.43-.72-2.04-1.31-.56-.62-1.11-1.32-1.51-2.11-.85-1.58-1.39-3.4-1.69-5.25-.61-3.71-.34-7.48.08-10.33.41-2.86.94-4.82,1.02-5.12,1.13-4.22,2.71-8.27,4.52-12.2.91-1.96,1.89-3.89,2.9-5.79l1.57-2.83,1.77-2.75c4.79-7.31,10.84-13.53,17.08-19.4,6.27-5.86,12.83-11.36,19.4-16.79,6.58-5.43,13.16-10.83,19.59-16.38,6.43-5.55,12.65-11.33,18.43-17.49,2.94-3.05,5.6-6.31,8.25-9.59,2.58-3.35,5.12-6.75,7.48-10.26,2.41-3.48,4.63-7.08,6.79-10.71,2.07-3.68,4.12-7.38,5.82-11.22,1.72-3.83,3.31-7.73,4.41-11.75,1.1-4,1.84-8.13,1.57-12.12.02-.15-.06-.67-.17-1.48-.07-.4-.09-.9-.21-1.41-.11-.5-.29-1.08-.52-1.68-.45-1.22-1.13-2.58-2.04-3.88-.9-1.3-2.07-2.53-3.43-3.27-.68-.39-1.41-.56-2.15-.63-.38-.03-.73,0-1.04.06-.34.1-.45.14-.59.28-.28.24-.29.84.12.97.12.08.5.25.79.33.31.1.62.17.91.21.59.09,1.17.07,1.56-.05.18-.07.3-.14.29-.18.05-.02-.01-.09,0-.15-.02-.07-.07-.14-.11-.21-.18-.27-.4-.49-.54-.63-.14-.15-.21-.25-.18-.29.02-.04.14-.02.34.05.21.07.49.21.82.51.08.09.17.17.24.29.05.15.16.28.13.49,0,.22-.09.39-.22.56-.12.14-.27.25-.42.33-.6.31-1.27.39-2,.39-.36,0-.74-.04-1.13-.12-.4-.09-.74-.14-1.28-.41-1.15-.31-1.47-1.92-.72-2.94.35-.53,1.02-.91,1.5-1.06.52-.16,1.04-.23,1.54-.23,1.01,0,2.08.19,3,.63,1.87.85,3.33,2.24,4.45,3.67,1.14,1.43,1.99,2.93,2.58,4.31.3.69.54,1.36.72,1.99.18.62.24,1.17.33,1.64.17.94.28,1.55.26,1.71Z"/><path class="cls-2" d="M79.45,44.19c-.08,6.52-1.59,12.73-3.37,18.79-1.86,6.04-4.11,11.94-6.68,17.68-2.58,5.74-5.39,11.37-8.65,16.8-3.25,5.42-6.91,10.56-10.71,15.55-7.57,10.01-15.82,19.42-22.86,29.6-3.49,5.09-6.66,10.41-8.87,16.08-2.2,5.76-4.02,11.68-5.06,17.71-.04.42-1.23,5.61-1.13,10.72.03,1.27.13,2.53.35,3.66.1.57.25,1.1.42,1.58.17.45.41.93.57,1.12.18.24.49.42.77.35.27-.06.48-.21.64-.38.34-.33.54-.66.64-.6.06.04.1.36-.19.96-.14.3-.43.67-.88.88-.46.22-1.1.1-1.62-.3-1.03-.89-1.46-1.97-1.89-3.22-.4-1.23-.66-2.57-.82-3.93-.64-5.43.28-10.9.32-11.34,1.09-6.29,2.96-12.36,5.21-18.26,2.34-5.99,5.62-11.47,9.18-16.67,3.57-5.2,7.47-10.13,11.36-15.02,3.9-4.89,7.82-9.74,11.58-14.69,3.77-4.94,7.36-10,10.54-15.3,3.17-5.27,5.95-10.84,8.49-16.49,2.53-5.66,4.74-11.45,6.55-17.35,1.75-5.89,3.19-11.97,3.25-17.96,0-.1,0-.5.01-1.12.02-.62-.08-1.43-.12-2.4-.23-1.83-.87-4.42-2.14-6.37-.32-.47-.68-.89-1.05-1.13-.36-.24-.74-.28-.97-.2-.27.11-.41.37-.41.72,0,.03,0,.08,0,.1v.03s0,0,0,0c-.04.02-.08.05-.12.08-.07.03-.14.08-.19.15-.23.27.3-.35.25-.28h0s0,0,0,0h.01s.03.04.03.04l.11.1c.15.12.32.23.49.3.34.14.73.17.92.1.2-.05.24-.15.2-.39-.13-.44-.38-.73-.29-.8.05-.05.4.01.81.57.05.07.1.15.12.27.04.1.06.23.04.37-.02.28-.22.58-.46.72-.49.33-1.07.35-1.65.24-.29-.06-.59-.17-.88-.34l-.21-.14-.11-.08c-.07-.06-.14-.14-.19-.21-.16-.25-.21-.44-.25-.64-.16-.74.1-1.81.94-2.29.85-.5,1.89-.4,2.65-.02.77.38,1.32.94,1.8,1.51,1.84,2.34,2.68,5,3.14,7.2.35,2.17.36,3.69.36,3.92Z"/><path class="cls-2" d="M216.46,151.12c-.88,2.51-2.29,4.64-3.82,6.61-1.54,1.97-3.27,3.72-5.05,5.4-3.59,3.34-7.48,6.27-11.54,8.93-2.02,1.35-4.1,2.59-6.19,3.8-2.13,1.17-4.29,2.34-6.51,3.32-4.42,2.02-8.96,3.72-13.53,5.24-9.13,3.07-18.41,5.52-27.27,8.86-4.41,1.68-8.75,3.59-12.53,6.2-.47.33-.95.64-1.41.99l-1.38,1.09c-.9.75-1.79,1.51-2.64,2.3-1.71,1.58-3.31,3.27-4.71,5.09-.1.13-.8.94-1.66,2.17-.87,1.22-1.88,2.89-2.51,4.65-.32.88-.53,1.78-.57,2.61-.05.83.09,1.57.4,2,.3.42.78.5,1.17.43.39-.05.63-.16.7-.06.05.06-.07.33-.49.6-.21.14-.51.26-.91.28-.39,0-.86-.14-1.25-.45-.76-.65-1.11-1.69-1.22-2.73-.12-1.05,0-2.15.22-3.21.47-2.13,1.41-4.09,2.23-5.51.82-1.44,1.52-2.37,1.63-2.51,1.52-1.98,3.23-3.77,5.03-5.44.9-.83,1.83-1.63,2.77-2.42l1.43-1.14c.5-.37,1.02-.72,1.53-1.07,4.11-2.84,8.62-4.8,13.14-6.53,9.07-3.41,18.35-5.85,27.38-8.89,4.52-1.5,8.96-3.17,13.25-5.13,2.16-.95,4.22-2.07,6.28-3.2,2.05-1.18,4.08-2.4,6.04-3.71,3.95-2.59,7.73-5.44,11.16-8.63,1.7-1.6,3.34-3.27,4.75-5.08,1.41-1.8,2.65-3.74,3.36-5.76.07-.1.18-.6.43-1.37.16-.71.26-1.82.11-3-.14-1.17-.55-2.45-1.31-3.13-.09-.09-.2-.15-.3-.23l-.25-.14c-.12-.06-.28-.11-.43-.06-.15.04-.26.18-.26.32.03.14.15.24.26.35.18.17.42.31.68.4.13.04.27.08.41.06.12,0,.28-.11.24-.12.04-.12,0-.37-.04-.5-.03-.15-.03-.25.02-.28.05-.03.13,0,.27.11.07.05.14.12.21.23.08.1.16.23.2.46.03.3-.11.45-.25.55-.13.12-.31.15-.52.19-.22.02-.53.04-.95-.12-.21-.07-.44-.16-.64-.32l-.33-.22-.27-.25c-.2-.21-.27-.39-.39-.6-.06-.18-.15-.33-.14-.55.01-.45.3-.92.73-1.18.43-.27.99-.32,1.53-.2.6.12.93.31,1.35.56.78.51,1.34,1.25,1.73,1.99.4.74.65,1.51.82,2.24.34,1.47.36,2.83.22,3.92-.21,1-.35,1.69-.42,1.8Z"/><path class="cls-2" d="M103.14,218.75c-4.7-4.05-9.9-7.58-15.28-10.75-5.39-3.17-11-5.99-16.76-8.44-5.76-2.45-11.67-4.55-17.71-6.06-3.02-.75-6.07-1.36-9.13-1.7-3.05-.34-6.14-.44-9.07.01-.2.05-2.79.21-5.03,1.19-1.13.47-2.13,1.16-2.84,1.77-.72.6-1.15,1.11-1.34,1.01-.15-.08-.05-.78.48-1.71.52-.92,1.51-2.02,2.72-2.83,2.43-1.67,5.37-2.2,5.58-2.25,3.32-.51,6.62-.39,9.84-.03,3.22.36,6.39.99,9.5,1.77,6.23,1.56,12.27,3.71,18.14,6.21,5.87,2.51,11.58,5.37,17.09,8.61,5.5,3.24,10.81,6.85,15.7,11.05.17.15,2.18,2.08,3.87,4.22,1.72,2.12,3.03,4.46,2.71,4.69-.32.23-2.15-1.61-4.16-3.29-2-1.7-4.12-3.32-4.29-3.46Z"/><path class="cls-2" d="M214.49,31.27c-3.27-.18-6.64.16-10.08.35-3.44.18-6.93.32-10.42.05-7-.41-13.84-2.22-20.32-4.69-1.6-.66-3.22-1.3-4.81-1.98l-4.69-2.21c-1.55-.77-3.07-1.61-4.6-2.41-1.51-.85-3-1.75-4.48-2.65-2.92-1.89-5.76-3.94-8.41-6.21-2.66-2.25-5.03-4.83-7.57-6.72-.17-.19-2.25-1.86-4.86-2.68-2.59-.85-5.43-1.11-5.43-1.55,0-.34,2.84-.82,5.88-.41,3.08.36,5.95,2.15,6.07,2.33,2.95,2.2,5.2,4.72,7.77,6.87,2.54,2.19,5.25,4.14,8.07,5.96,1.44.87,2.88,1.74,4.34,2.57,1.5.78,2.97,1.59,4.48,2.35l4.59,2.16c1.55.67,3.11,1.28,4.67,1.92,6.27,2.39,12.81,4.12,19.48,4.5,3.33.25,6.68.13,10.07-.05,3.38-.19,6.83-.54,10.4-.35.24-.01,3.36.35,6.18,1.45.69.32,1.37.64,1.99.95.64.27,1.14.72,1.59,1.02.89.65,1.42,1.14,1.32,1.31-.1.17-.82,0-1.82-.32-.51-.14-1.05-.42-1.7-.54-.67-.17-1.33-.33-1.97-.49-2.71-.51-5.5-.54-5.75-.53Z"/></g><g id="Icon_12_Shape"><g class="cls-1"><path class="cls-2" d="M232.85,68.42c-.53-3.81-3.57-10.04-8.09-10.7-.56-.08-1.01-.08-1.4-.02L132.18,4.94c1.51,2.18,2.48,4.83,2.76,6.83,1.74,12.52-11.28,34.29-31.81,55-26.4,26.63-72.42,45.56-89.59,68.87-22.53,30.58-11.25,46.27-6.23,39.75l90.99,52.64c-1.42-6.58.73-18.9,13.14-35.75,17.17-23.3,63.2-42.24,89.59-68.87,20.53-20.71,33.55-42.48,31.81-55Z"/></g></g></g></svg>