<?xml version="1.0" encoding="UTF-8"?><svg id="Line" xmlns="http://www.w3.org/2000/svg" viewBox="0 0 246.02 272.01"><defs><style>.cls-1{opacity:.24;}.cls-2{fill:#fff;stroke-width:0px;}</style></defs><g id="Icon_18"><g id="Icon_18_Lines"><path class="cls-2" d="M142.97,198.47c5.06-2.01,9.73-4.91,13.96-8.32,4.27-3.38,7.85-7.58,10.82-12.11l1.1-1.72.55-.86.46-.91,1.84-3.64c.54-1.25.99-2.53,1.49-3.8.23-.64.53-1.26.7-1.92l.54-1.97.54-1.97.27-.98.17-1.01.67-4.02c.14-1.35.19-2.71.29-4.07.15-1.36.05-2.72.01-4.07.02-2.73-.46-5.42-.84-8.1l-.92-3.97c-.13-.67-.36-1.31-.58-1.95l-.65-1.93c-.23-.64-.41-1.3-.67-1.93l-.83-1.86c-.58-1.23-1.04-2.52-1.77-3.67-.68-1.18-1.33-2.37-2.02-3.54l-2.34-3.34c-3.3-4.32-7.18-8.19-11.58-11.41-4.46-3.12-9.35-5.57-14.5-7.36-5.2-1.61-10.6-2.53-16.04-2.67-5.44-.02-10.87.79-16.08,2.32l-3.87,1.3-3.73,1.66c-1.27.5-2.4,1.27-3.6,1.92l-1.77,1.01c-.58.36-1.12.77-1.68,1.16l-1.67,1.17c-.56.39-1.12.77-1.62,1.23l-3.1,2.65c-1.9,1.94-3.87,3.83-5.47,6.04-.84,1.07-1.72,2.11-2.4,3.29-.72,1.15-1.49,2.28-2.17,3.45l-1.84,3.64-.46.91-.37.95-.73,1.9-.73,1.9c-.24.63-.38,1.31-.57,1.96-.34,1.32-.75,2.62-1.04,3.94l-.67,4.02-.17,1.01-.07,1.02-.13,2.03c-.73,10.87,2.22,21.86,7.87,31.14.05.08.15.29.34.59.19.29.46.67.77,1.14.32.47.69,1.02,1.11,1.64.43.61.84,1.34,1.44,2.01.57.69,1.18,1.44,1.82,2.22.32.39.65.79.99,1.2.37.38.75.76,1.14,1.15.77.78,1.56,1.58,2.36,2.39.85.76,1.76,1.48,2.64,2.22l1.32,1.11c.44.37.94.66,1.4.99.93.64,1.85,1.27,2.74,1.88,1.82,1.14,3.62,2.05,5.11,2.93,3.13,1.42,5.22,2.41,5.16,2.6-.06.18-2.28-.45-5.61-1.59-1.59-.74-3.5-1.52-5.46-2.56-.96-.57-1.95-1.16-2.95-1.75-.5-.31-1.03-.58-1.5-.94l-1.44-1.07c-.95-.72-1.93-1.42-2.86-2.17-.88-.81-1.74-1.6-2.58-2.37-.42-.39-.83-.77-1.24-1.15-.37-.41-.73-.81-1.09-1.21-.71-.79-1.38-1.55-2-2.25-.66-.68-1.12-1.43-1.59-2.05-.46-.64-.87-1.2-1.22-1.68-.35-.48-.64-.88-.85-1.18-.2-.3-.31-.52-.37-.61-5.95-9.77-9.05-21.35-8.29-32.8l.14-2.14.07-1.07.17-1.06.71-4.24c.31-1.4.73-2.77,1.1-4.15.2-.69.34-1.39.6-2.06l.77-2.01.77-2,.39-1,.48-.96,1.94-3.83c.71-1.24,1.52-2.43,2.28-3.64.72-1.24,1.64-2.34,2.53-3.47,1.69-2.32,3.77-4.31,5.77-6.36l3.26-2.8c.53-.49,1.12-.89,1.71-1.3l1.76-1.23c.59-.4,1.16-.84,1.77-1.22l1.87-1.06c1.26-.68,2.45-1.49,3.79-2.02,1.31-.58,2.61-1.18,3.93-1.74l4.07-1.37c5.49-1.61,11.21-2.47,16.95-2.44,5.74.14,11.42,1.12,16.9,2.81,5.41,1.88,10.57,4.47,15.27,7.76,4.63,3.38,8.73,7.46,12.2,12.02l2.46,3.52c.73,1.23,1.42,2.49,2.13,3.73.76,1.22,1.25,2.57,1.86,3.87l.88,1.96c.27.66.47,1.35.71,2.03l.69,2.04c.23.68.47,1.35.61,2.06l.97,4.19c.41,2.83.9,5.67.89,8.54.05,1.43.14,2.86-.01,4.29-.11,1.43-.16,2.86-.31,4.29l-.71,4.24-.18,1.06-.28,1.04-.56,2.07-.57,2.07c-.18.69-.49,1.34-.73,2.02-.52,1.33-1,2.68-1.57,4l-1.94,3.84-.49.96-.58.91-1.16,1.81c-3.13,4.78-6.91,9.2-11.4,12.77-4.45,3.59-9.37,6.64-14.7,8.76-.1.04-.31.15-.66.27-.35.11-.81.26-1.38.44-.57.18-1.23.39-1.98.63-.75.22-1.57.55-2.5.71-.92.19-1.91.4-2.95.62-.52.11-1.05.22-1.59.33-.55.06-1.11.12-1.68.19-1.13.12-2.3.25-3.48.38-1.19.05-2.39.03-3.59.05h-1.79c-.59.01-1.18-.08-1.77-.13-1.16-.11-2.3-.23-3.41-.33-2.19-.32-4.2-.83-5.92-1.17-3.36-1.06-5.52-1.87-5.46-2.05.06-.19,2.33.26,5.69.97,1.72.17,3.7.51,5.85.67,1.08.04,2.2.07,3.32.11.57,0,1.14.07,1.71.03l1.73-.11c1.15-.08,2.31-.12,3.44-.23,1.13-.18,2.24-.35,3.32-.52.54-.08,1.07-.17,1.59-.25.51-.13,1.02-.26,1.51-.38.98-.25,1.92-.49,2.78-.71.88-.18,1.64-.53,2.35-.77.71-.25,1.33-.48,1.86-.67.53-.19.97-.34,1.3-.46.32-.13.53-.24.62-.28Z"/><path class="cls-2" d="M129.9,165.98c3.47-1.43,6.53-3.88,8.55-7.05.54-.77.94-1.62,1.36-2.46.33-.88.73-1.73.94-2.65.29-.9.41-1.83.57-2.75.06-.93.18-1.87.1-2.81-.05-1.87-.38-3.75-1.03-5.51-.64-1.76-1.48-3.46-2.63-4.95-1.14-1.49-2.48-2.83-3.99-3.93-1.54-1.07-3.23-1.92-5-2.54-1.8-.55-3.66-.87-5.53-.92-1.88,0-3.75.27-5.55.8-1.81.52-3.5,1.39-5.05,2.43-1.57,1.04-2.94,2.35-4.09,3.83-1.16,1.47-2.11,3.11-2.75,4.88-.38.86-.56,1.79-.81,2.69-.15.93-.34,1.85-.36,2.79-.25,3.75.77,7.54,2.71,10.74.05.12.52.87,1.2,1.9.74.99,1.74,2.29,2.98,3.34.57.58,1.25,1.02,1.84,1.51.62.45,1.23.81,1.74,1.18,1.07.61,1.78,1.08,1.72,1.26-.06.18-.9.07-2.18-.25-.61-.22-1.34-.47-2.09-.81-.72-.39-1.55-.76-2.27-1.29-1.53-.95-2.84-2.25-3.8-3.3-.91-1.08-1.52-1.9-1.58-2.04-2.25-3.69-3.42-8.07-3.14-12.41.03-1.09.23-2.15.41-3.22.28-1.04.5-2.11.93-3.11.73-2.04,1.83-3.94,3.17-5.64,1.33-1.71,2.92-3.22,4.73-4.42,1.8-1.2,3.75-2.2,5.83-2.8,2.08-.61,4.24-.93,6.41-.92,2.17.05,4.32.42,6.39,1.06,2.05.71,4,1.69,5.78,2.93,1.75,1.28,3.3,2.82,4.62,4.54,1.32,1.72,2.3,3.68,3.04,5.71.74,2.03,1.13,4.2,1.19,6.36.08,1.08-.04,2.17-.12,3.25-.18,1.07-.33,2.14-.65,3.18-.24,1.06-.7,2.05-1.09,3.06-.49.97-.95,1.95-1.57,2.84-2.33,3.66-5.87,6.5-9.87,8.14-.13.08-1.11.38-2.48.71-1.39.27-3.22.54-5.01.4-.9,0-1.78-.19-2.59-.31-.81-.17-1.54-.4-2.16-.58-1.22-.5-1.96-.91-1.9-1.09.06-.19.92-.14,2.14,0,.62,0,1.33.08,2.1.08.77-.05,1.57,0,2.38-.13,1.62-.11,3.19-.56,4.38-.92,1.17-.43,1.98-.75,2.1-.82Z"/><path class="cls-2" d="M78.75,159.62c-5.93-3.82-12.11-7.32-18.11-11.26-.75-.49-1.5-1-2.24-1.52l-1.11-.8-.86-.65-.27-.2-.13-.1s-.01-.11-.02-.16l-.04-.66-.05-.86c0-.2-.06-.39-.08-.58-.05-.39-.12-.78-.24-1.16-.09-.39-.21-.76-.36-1.14-.12-.38-.28-.75-.47-1.11-1.39-2.92-3.78-5.38-6.56-7.21-2.81-1.79-6.01-3.04-9.32-3.55-1.65-.26-3.33-.33-4.98-.21l-.62.06-.44.05-.58.08c-.1,0-.19.05-.29.02l-.28-.18-.56-.35-.56-.35-2.26-1.39c-6.04-3.7-12.16-7.29-18.32-10.79-.42-.28-10.33-6.5-9.99-7.15.39-.74,10.97,4.38,11.4,4.66,6.19,3.51,12.33,7.11,18.41,10.84l2.27,1.4.57.35s-.04,0,.04,0l.3-.03.71-.06c1.89-.14,3.78-.05,5.64.23,3.72.58,7.27,1.95,10.45,3.98,3.13,2.07,5.9,4.86,7.58,8.38.22.43.41.88.57,1.35.18.45.33.92.44,1.4.14.47.23.96.3,1.45.03.25.09.49.1.74l.02.37v.09s0,0,0,0h0s0,0,0,0h0s.2.15.2.15l1.05.76c.71.5,1.43.99,2.17,1.47,5.88,3.85,12.07,7.37,18.09,11.24.21.15,2.74,1.91,5.03,3.96,1.14,1.02,2.22,2.13,2.87,3.14.33.49.52.99.58,1.35.04.38-.04.59-.13.59-.11,0-.22-.16-.4-.38-.2-.22-.48-.52-.89-.85-.8-.67-1.99-1.48-3.24-2.25-2.49-1.55-5.15-3.02-5.36-3.17Z"/><path class="cls-2" d="M93.55,116.79c-7.14-.45-14.2-1.29-21.22-1.68-.88-.05-1.75-.08-2.62-.1h-1.3s-.25,0-.25,0h0,0s0,0,0,0h0s-.06.07-.06.07l-.24.29c-.15.2-.34.36-.52.54-.35.35-.71.7-1.1.99l-.58.46-.61.41c-.4.28-.82.53-1.25.75-3.44,1.83-7.32,2.44-11.07,2.25-3.76-.25-7.44-1.25-10.77-2.99-1.66-.87-3.24-1.92-4.68-3.16l-.53-.47-.22-.21c-.05-.05,0-.01-.03-.02l-.67-.05-2.66-.22c-7.09-.6-14.17-1.35-21.24-2.19-.51-.03-12.07-2.18-11.94-3.01.11-.73,11.77.15,12.28.17,7.04.84,14.09,1.58,21.14,2.18l2.65.22.66.05.66.05.33.03c.09.03.15.13.22.19l.42.41.32.3.47.41c1.26,1.08,2.65,2.01,4.13,2.79,2.96,1.55,6.29,2.45,9.61,2.67,3.32.17,6.71-.39,9.55-1.91.36-.18.71-.38,1.03-.62l.5-.33.46-.37c.32-.24.6-.51.88-.79.13-.14.29-.26.41-.42l.55-.66.42-.51s.07-.09.11-.12h.17s.33,0,.33,0l1.09-.02h1.37c.91.03,1.81.07,2.71.11,7.17.4,14.22,1.23,21.25,1.68.25,0,3.26.4,6.19.63,1.46.12,2.9.17,3.94.11.53-.02.93-.1,1.22-.15.27-.07.46-.13.54-.07.07.05.02.27-.24.56-.26.26-.72.55-1.27.75-1.12.43-2.65.69-4.17.83-3.06.29-6.14.21-6.39.21Z"/><path class="cls-2" d="M155.04,119.37c.45-7.14,1.29-14.22,1.68-21.24.05-.88.08-1.75.1-2.62v-1.3s0-.26,0-.26h0s0,0,0,0h0s0,0,0,0l-.07-.06-.29-.24c-.2-.15-.36-.35-.54-.52-.35-.35-.7-.71-.99-1.1l-.46-.58-.41-.61c-.28-.4-.53-.82-.75-1.26-1.83-3.44-2.44-7.33-2.25-11.08.25-3.76,1.25-7.44,2.99-10.78.87-1.67,1.92-3.25,3.15-4.68.15-.18.31-.36.47-.53l.21-.22c.05-.06.01,0,.02-.03l.05-.67.22-2.66c.6-7.1,1.35-14.19,2.19-21.26.03-.51,2.18-12.08,3.01-11.95.73.11-.14,11.79-.17,12.29-.84,7.04-1.58,14.1-2.18,21.16l-.22,2.65-.05.66-.05.65-.03.33c-.02.1-.12.15-.18.23l-.41.42-.3.32c-.14.16-.28.31-.41.47-1.08,1.26-2.01,2.66-2.79,4.14-1.55,2.97-2.45,6.29-2.67,9.62-.17,3.32.39,6.71,1.91,9.57.18.36.38.71.62,1.03l.33.5.37.46c.24.32.51.6.79.88.14.13.26.29.42.41l.67.55.51.42s.1.06.12.11v.17s0,.33,0,.33l.02,1.08v1.37c-.03.91-.07,1.81-.11,2.71-.4,7.17-1.23,14.23-1.68,21.28,0,.25-.4,3.27-.63,6.2-.12,1.46-.17,2.91-.11,3.95.02.53.1.93.15,1.23.07.27.13.46.07.54-.05.07-.28.02-.56-.25-.26-.26-.55-.72-.74-1.27-.43-1.12-.69-2.65-.83-4.17-.29-3.06-.21-6.14-.21-6.4Z"/><path class="cls-2" d="M112.27,104.55c3.81-5.94,7.31-12.12,11.24-18.13.49-.75,1-1.5,1.52-2.24l.8-1.11.66-.86.2-.27.1-.13s.11-.01.16-.02l.66-.04.86-.05c.19,0,.39-.06.58-.08.39-.05.78-.12,1.16-.24l.57-.15.56-.21c.38-.12.75-.29,1.11-.47,2.92-1.39,5.37-3.79,7.2-6.57,1.79-2.81,3.03-6.02,3.54-9.33.25-1.65.33-3.33.21-4.99-.01-.21-.04-.41-.06-.62l-.05-.44-.08-.58c0-.1-.05-.19-.01-.29l.17-.28.34-.56.35-.57,1.39-2.26c3.7-6.05,7.28-12.17,10.77-18.34.28-.42,6.49-10.34,7.14-10,.74.39-4.37,10.98-4.65,11.41-3.51,6.2-7.11,12.35-10.82,18.42l-1.4,2.28-.35.57s0-.03,0,.04l.03.3c.02.24.05.47.06.71.14,1.89.05,3.78-.23,5.64-.57,3.72-1.95,7.28-3.97,10.46-2.07,3.14-4.85,5.91-8.37,7.6-.44.22-.88.41-1.35.57l-.69.25-.71.19c-.47.14-.96.23-1.45.3-.25.03-.49.09-.74.1l-.37.02h-.09s0,0,0,0h0s0,0,0,0h0s-.15.2-.15.2l-.76,1.05c-.5.71-.99,1.43-1.47,2.17-3.85,5.89-7.36,12.08-11.22,18.11-.15.21-1.91,2.74-3.96,5.03-1.02,1.14-2.13,2.22-3.14,2.87-.49.33-.99.53-1.35.59-.38.04-.59-.04-.59-.13,0-.11.16-.22.38-.4.22-.2.52-.48.85-.9.67-.8,1.48-1.99,2.25-3.24,1.55-2.5,3.02-5.16,3.16-5.36Z"/><path class="cls-2" d="M90.98,178.36c-.45,7.14-1.29,14.22-1.68,21.24-.05.88-.08,1.75-.1,2.62v1.3s0,.26,0,.26h0s0,0,0,0h0s0,0,0,0l.07.06.29.24c.2.15.36.35.54.52.35.35.7.71.99,1.1l.46.58.41.61c.28.4.53.82.75,1.25,1.83,3.44,2.44,7.33,2.25,11.08-.25,3.76-1.25,7.44-2.99,10.78-.87,1.67-1.92,3.25-3.15,4.68-.15.18-.31.35-.47.53l-.21.22c-.05.06-.01,0-.02.04l-.05.67-.22,2.66c-.6,7.1-1.35,14.19-2.19,21.26-.03.51-2.18,12.08-3.01,11.95-.73-.11.14-11.79.17-12.29.84-7.04,1.58-14.1,2.18-21.16l.22-2.65.05-.66.05-.65.03-.33c.02-.1.12-.15.18-.23l.41-.42.3-.32c.14-.15.28-.31.41-.47,1.08-1.26,2.01-2.66,2.79-4.14,1.55-2.97,2.45-6.29,2.67-9.62.17-3.32-.39-6.71-1.91-9.57-.18-.36-.38-.71-.62-1.03l-.33-.5-.37-.46c-.24-.32-.51-.6-.79-.88-.14-.13-.26-.29-.42-.41l-.67-.55-.51-.42s-.1-.06-.12-.11v-.17s0-.33,0-.33l-.02-1.08v-1.37c.03-.91.07-1.81.11-2.71.4-7.17,1.23-14.23,1.68-21.27,0-.25.4-3.27.63-6.2.12-1.47.17-2.91.11-3.95-.02-.53-.1-.93-.15-1.23-.07-.27-.13-.46-.07-.54.05-.07.28-.02.56.25.26.26.55.72.74,1.27.43,1.12.69,2.65.83,4.17.29,3.06.21,6.14.21,6.4Z"/><path class="cls-2" d="M133.75,193.17c-3.81,5.94-7.31,12.12-11.24,18.13-.49.75-1,1.5-1.52,2.24l-.8,1.11-.66.86-.2.27-.1.13s-.11.01-.16.02l-.66.04-.86.05c-.19,0-.39.06-.58.08-.39.05-.78.12-1.16.24l-.57.15-.56.21c-.38.12-.75.29-1.11.47-2.92,1.39-5.37,3.79-7.2,6.57-1.79,2.81-3.03,6.02-3.54,9.33-.25,1.65-.33,3.33-.21,4.99.01.21.04.41.06.62l.05.44.08.58c0,.1.05.19.01.29l-.17.28-.34.56-.35.57-1.39,2.26c-3.7,6.05-7.28,12.17-10.77,18.34-.28.42-6.49,10.34-7.14,10-.74-.39,4.37-10.98,4.65-11.41,3.51-6.2,7.11-12.35,10.82-18.42l1.4-2.28.35-.57s0,.03,0-.04l-.03-.3c-.02-.24-.05-.47-.06-.71-.14-1.89-.05-3.78.23-5.64.57-3.72,1.95-7.28,3.97-10.46,2.07-3.14,4.85-5.91,8.37-7.6.44-.22.88-.41,1.35-.57l.69-.25.71-.19c.47-.14.96-.23,1.45-.3.25-.03.49-.09.74-.1l.37-.02h.09s0,0,0,0h0s0,0,0,0h0s.15-.2.15-.2l.76-1.05c.5-.71.99-1.43,1.47-2.17,3.85-5.89,7.36-12.08,11.22-18.11.15-.21,1.91-2.74,3.96-5.03,1.02-1.14,2.13-2.22,3.14-2.87.49-.33.99-.53,1.35-.59.38-.04.59.04.59.13,0,.11-.16.22-.38.4-.22.2-.52.48-.85.9-.67.8-1.48,1.99-2.25,3.24-1.55,2.5-3.02,5.16-3.16,5.36Z"/><path class="cls-2" d="M167.27,138.11c5.93,3.82,12.11,7.32,18.11,11.26.75.49,1.5,1,2.24,1.52l1.11.8.86.66.27.2.13.1s.01.11.02.16l.04.66.05.86c0,.19.06.39.08.58.05.39.12.78.24,1.16.09.39.21.76.36,1.14.12.38.28.75.47,1.11,1.39,2.92,3.78,5.38,6.56,7.21,2.81,1.79,6.01,3.04,9.32,3.55,1.65.26,3.33.33,4.98.21l.62-.06.44-.05.58-.08c.1,0,.19-.04.29-.02l.28.18.56.35.56.35,2.26,1.39c6.04,3.7,12.16,7.29,18.32,10.79.42.28,10.33,6.5,9.99,7.15-.39.74-10.97-4.38-11.4-4.66-6.19-3.51-12.33-7.11-18.41-10.84l-2.27-1.4-.57-.35s.04,0-.04,0l-.3.03-.71.06c-1.89.14-3.78.05-5.64-.23-3.72-.58-7.27-1.95-10.45-3.98-3.13-2.07-5.9-4.86-7.58-8.38-.22-.43-.41-.88-.57-1.35-.18-.45-.33-.92-.44-1.4-.14-.47-.23-.96-.3-1.45-.03-.25-.09-.49-.1-.74l-.02-.37v-.09s0,0,0,0h0s0,0,0,0h0s-.2-.15-.2-.15l-1.05-.76c-.71-.5-1.43-.99-2.17-1.47-5.88-3.85-12.07-7.37-18.09-11.24-.21-.15-2.74-1.91-5.03-3.96-1.14-1.02-2.22-2.13-2.87-3.14-.33-.49-.52-.99-.58-1.35-.04-.38.04-.59.13-.59.11,0,.22.16.4.38.2.22.48.52.89.85.8.67,1.99,1.48,3.24,2.25,2.49,1.55,5.15,3.02,5.36,3.17Z"/><path class="cls-2" d="M152.47,180.93c7.14.45,14.2,1.29,21.22,1.68.88.05,1.75.08,2.62.1h1.3s.25,0,.25,0h0,0s0,0,0,0h0s.06-.07.06-.07l.24-.29c.15-.2.34-.36.52-.54.35-.36.71-.7,1.1-.99l.58-.46.61-.41c.4-.28.82-.53,1.25-.75,3.44-1.83,7.32-2.44,11.07-2.25,3.76.25,7.44,1.25,10.77,2.99,1.66.87,3.24,1.92,4.68,3.16l.53.47.22.21c.05.05,0,.01.03.03l.67.05,2.66.22c7.09.6,14.17,1.35,21.24,2.19.51.03,12.07,2.18,11.94,3.01-.11.73-11.77-.15-12.28-.17-7.04-.84-14.09-1.58-21.14-2.18l-2.65-.22-.66-.05-.66-.05-.33-.03c-.09-.03-.15-.13-.22-.19l-.42-.41-.32-.3-.47-.41c-1.26-1.08-2.65-2.01-4.13-2.79-2.96-1.55-6.29-2.45-9.61-2.67-3.32-.17-6.71.39-9.55,1.91-.36.18-.71.38-1.03.62l-.5.33-.46.37c-.32.24-.6.51-.88.79-.13.14-.29.26-.41.42l-.55.67-.42.51s-.07.09-.11.12h-.17s-.33,0-.33,0l-1.09.02h-1.37c-.91-.03-1.81-.07-2.71-.11-7.17-.4-14.22-1.24-21.25-1.68-.25,0-3.26-.4-6.19-.63-1.46-.12-2.9-.17-3.94-.11-.53.02-.93.1-1.22.15-.27.07-.46.13-.54.07-.07-.05-.02-.28.24-.56.26-.26.72-.55,1.27-.75,1.12-.43,2.65-.69,4.17-.83,3.06-.29,6.14-.21,6.39-.21Z"/></g><g id="Icon_18_Shape"><g class="cls-1"><path class="cls-2" d="M120.56,64.21c-1.87-1.6.71-16.87.52-23.19-3.21-2.37-4.45-7.59-2.75-12.78.74-2.27,1.94-4.2,3.39-5.67.81-10.41,2.09-19.97,2.48-22.58-1.23,2.33-5.86,10.8-11.37,19.66.3,2.04.12,4.31-.62,6.58-1.7,5.19-5.8,8.66-9.78,8.66-3.89,4.98-10.85,18.81-13.3,18.99-1.6,1.87-16.85-.71-23.16-.53-2.36,3.21-7.58,4.46-12.77,2.75-2.26-.74-4.2-1.95-5.66-3.39-10.39-.81-19.95-2.1-22.55-2.48,2.32,1.23,10.78,5.86,19.63,11.38,2.04-.3,4.31-.12,6.57.63,5.18,1.7,8.65,5.8,8.65,9.79,4.97,3.89,18.79,10.86,18.97,13.32,1.87,1.6-.71,16.87-.52,23.19,3.21,2.37,4.45,7.59,2.75,12.78-.74,2.27-1.94,4.2-3.39,5.67-.81,10.41-2.09,19.97-2.48,22.58,1.23-2.33,5.86-10.8,11.37-19.66-.3-2.04-.12-4.31.62-6.58,1.7-5.19,5.8-8.66,9.78-8.66,3.89-4.98,10.85-18.81,13.3-18.99,1.6-1.87,16.85.71,23.16.53,2.36-3.21,7.58-4.46,12.77-2.75,2.26.74,4.2,1.95,5.66,3.39,10.39.81,19.95,2.1,22.55,2.48-2.32-1.23-10.78-5.86-19.63-11.38-2.04.3-4.31.12-6.57-.63-5.18-1.7-8.65-5.8-8.65-9.79-4.97-3.89-18.79-10.86-18.97-13.32Z"/></g><g class="cls-1"><path class="cls-2" d="M167.21,202.36c-1.22-1.04.46-11.02.34-15.14-2.09-1.54-2.91-4.96-1.8-8.34.49-1.48,1.27-2.74,2.21-3.7.53-6.79,1.37-13.04,1.62-14.74-.8,1.52-3.82,7.05-7.42,12.83.19,1.33.08,2.82-.41,4.29-1.11,3.39-3.78,5.65-6.39,5.66-2.54,3.25-7.09,12.28-8.69,12.4-1.04,1.22-11-.46-15.12-.34-1.54,2.1-4.95,2.91-8.33,1.8-1.48-.49-2.74-1.27-3.7-2.22-6.79-.53-13.03-1.37-14.72-1.62,1.52.8,7.04,3.83,12.82,7.43,1.33-.2,2.81-.08,4.29.41,3.38,1.11,5.65,3.79,5.65,6.39,3.25,2.54,12.27,7.09,12.38,8.7,1.22,1.04-.46,11.02-.34,15.14,2.09,1.54,2.91,4.96,1.8,8.34-.49,1.48-1.27,2.74-2.21,3.7-.53,6.79-1.37,13.04-1.62,14.74.8-1.52,3.82-7.05,7.42-12.83-.19-1.33-.08-2.82.41-4.29,1.11-3.39,3.78-5.65,6.39-5.66,2.54-3.25,7.09-12.28,8.69-12.4,1.04-1.22,11,.46,15.12.34,1.54-2.1,4.95-2.91,8.33-1.8,1.48.49,2.74,1.27,3.7,2.22,6.79.53,13.03,1.37,14.72,1.62-1.52-.8-7.04-3.83-12.82-7.43-1.33.2-2.81.08-4.29-.41-3.38-1.11-5.65-3.79-5.65-6.39-3.25-2.54-12.27-7.09-12.38-8.7Z"/></g><g class="cls-1"><path class="cls-2" d="M54,195.53c-.74-.63.28-6.67.21-9.16-1.27-.93-1.76-3-1.09-5.05.29-.9.77-1.66,1.34-2.24.32-4.11.83-7.89.98-8.92-.49.92-2.31,4.27-4.49,7.77.12.81.05,1.7-.25,2.6-.67,2.05-2.29,3.42-3.86,3.42-1.54,1.97-4.29,7.43-5.26,7.5-.63.74-6.66-.28-9.15-.21-.93,1.27-3,1.76-5.04,1.09-.89-.29-1.66-.77-2.24-1.34-4.11-.32-7.88-.83-8.91-.98.92.49,4.26,2.32,7.76,4.5.8-.12,1.7-.05,2.6.25,2.05.67,3.42,2.29,3.42,3.87,1.96,1.54,7.42,4.29,7.49,5.26.74.63-.28,6.67-.21,9.16,1.27.93,1.76,3,1.09,5.05-.29.9-.77,1.66-1.34,2.24-.32,4.11-.83,7.89-.98,8.92.49-.92,2.31-4.27,4.49-7.77-.12-.81-.05-1.7.25-2.6.67-2.05,2.29-3.42,3.86-3.42,1.54-1.97,4.29-7.43,5.26-7.5.63-.74,6.66.28,9.15.21.93-1.27,3-1.76,5.04-1.09.89.29,1.66.77,2.24,1.34,4.11.32,7.88.83,8.91.98-.92-.49-4.26-2.32-7.76-4.5-.8.12-1.7.05-2.6-.25-2.05-.67-3.42-2.29-3.42-3.87-1.96-1.54-7.42-4.29-7.49-5.26Z"/></g></g></g></svg>