<?xml version="1.0" encoding="UTF-8"?><svg id="Line" xmlns="http://www.w3.org/2000/svg" viewBox="0 0 200.45 246.35"><defs><style>.cls-1{opacity:.24;}.cls-1,.cls-2{fill:#fff;stroke-width:0px;}</style></defs><g id="Icon_17"><g id="Icon_17_Lines"><path class="cls-2" d="M15.87,116.18c.43-.1.94-.66,1.31-1.47.38-.79.64-1.75.83-2.72.19-.98.31-1.99.39-3.02l.05-.82-.73.38c-.9.49-1.79,1.01-2.6,1.58-.81.57-1.58,1.19-2.15,1.86-.59.67-.89,1.36-.81,1.79,0,.02-.14.46.15,1.19.27.71.83,1.47.61,1.81-.2.31-1.19.18-2.12-.47-.46-.32-.88-.81-1.14-1.26-.25-.47-.33-.86-.34-.92-.11-.83.08-1.66.38-2.31.3-.67.69-1.21,1.1-1.69.83-.96,1.75-1.68,2.69-2.34.94-.66,1.91-1.22,2.89-1.75l.76-.4c.46-.22.89-.45,1.38-.67l2.87-1.3-.02,3.15c0,.54-.03,1.02-.05,1.53l-.05.85c-.08,1.11-.21,2.22-.43,3.35-.22,1.12-.51,2.26-1.05,3.4-.27.57-.61,1.15-1.1,1.69-.48.54-1.16,1.04-1.96,1.28-.06.02-.45.1-.97.06-.52-.05-1.13-.24-1.61-.53-.98-.59-1.5-1.44-1.29-1.75.22-.34,1.14-.13,1.9-.18.79-.03,1.13-.32,1.15-.34Z"/><path class="cls-2" d="M33.56,25.37c-1.95-.7-3.47-1.89-4.79-3.15-1.36-1.29-2.5-2.86-3.31-4.56-1.61-3.41-2.05-7.44-.72-11.13.68-1.83,1.86-3.55,3.51-4.75C29.89.54,31.97,0,33.91,0c1.96,0,3.84.44,5.54,1.13.44.15.86.34,1.27.54.41.2.83.38,1.23.6.77.46,1.59.87,2.32,1.39,2.99,1.98,5.63,4.35,8.08,6.85,2.46,2.52,4.68,5.12,6.92,7.79,2.21,2.67,4.34,5.43,6.3,8.34,1.94,2.91,3.77,5.94,5.02,9.38.04.12.31.93.52,2.15.17,1.21.42,2.9-.37,4.66-.4.87-1.31,1.63-2.23,1.76-.92.16-1.67-.12-2.2-.42-1.07-.63-1.4-1.35-1.29-1.46.14-.17.76.25,1.69.43.45.1.99.1,1.39-.09.39-.19.63-.51.77-.99.26-1-.04-2.34-.33-3.3-.3-.98-.61-1.67-.65-1.78-1.1-3.03-2.83-5.95-4.7-8.74-1.88-2.8-3.96-5.49-6.12-8.11-4.38-5.2-8.87-10.42-14.37-14.08-.67-.49-1.4-.84-2.1-1.26-.35-.2-.72-.35-1.08-.53-.36-.18-.72-.35-1.1-.47-1.47-.6-3.01-.94-4.49-.94-1.47.01-2.89.38-4.01,1.23-1.13.83-1.99,2.04-2.51,3.43-1.02,2.81-.71,6.14.62,8.91.67,1.4,1.58,2.65,2.71,3.73,1.15,1.11,2.44,2.04,3.73,2.51.05.02.22.11.48.16.13.04.28.08.46.13.17.01.35.03.55.06.2,0,.4-.03.62-.04.19-.08.44-.08.63-.22.43-.18.84-.54,1.1-.98.27-.43.37-.94.29-1.2-.08-.19-.26-.47-.31-.53,0-.01,0,.01.01-.02.03-.06.03-.18.05-.19.01-.03.01-.07,0-.11,0-.02,0,0,0,0,0-.02.02.03.04.05l.09.06s.04.03.06.04h0s-.01,0-.02.01c-.14.2-.05.63.07.84.11.25.24.4.18.49-.04.07-.26.11-.59-.09-.3-.2-.79-.61-.74-1.5.02-.21.13-.54.48-.76.19-.11.39-.14.58-.13.19.01.31.07.46.12.49.26.71.52,1,.88.62.93.5,2.01.19,2.87-.61,1.81-2.57,2.95-4.03,3.03-.36.02-.7.02-1.01.02-.29-.04-.55-.08-.77-.12-.45-.06-.7-.16-.77-.19Z"/><path class="cls-2" d="M88.87,39.2c11.53,2.24,22.94,5.53,33.61,10.67l2.01.94c.66.33,1.29.72,1.94,1.08l3.86,2.19.97.55.92.63,1.84,1.26c1.21.86,2.48,1.63,3.64,2.56,2.27,1.92,4.68,3.67,6.73,5.85l1.59,1.57c.53.52,1.07,1.03,1.53,1.62l2.89,3.41c3.64,4.72,6.75,9.85,9.07,15.35,2.25,5.52,3.81,11.3,4.68,17.18.89,5.88,1.07,11.84.65,17.75-.4,5.91-1.36,11.77-2.83,17.51-.09.41-1.54,5.31-3.64,9.85-.49,1.14-1.11,2.23-1.63,3.26-.61,1-1.12,1.94-1.69,2.69-.54.76-1.02,1.36-1.44,1.73-.4.38-.65.56-.72.49-.07-.06.03-.37.26-.84.25-.45.56-1.13.94-1.94.4-.79.75-1.79,1.21-2.81.37-1.07.84-2.17,1.2-3.33,1.56-4.59,2.66-9.42,2.75-9.81,1.43-5.56,2.36-11.26,2.75-16.98.4-5.73.23-11.49-.63-17.15-.84-5.66-2.33-11.21-4.49-16.49-2.22-5.26-5.2-10.17-8.68-14.68l-2.76-3.27c-.44-.56-.96-1.05-1.47-1.55l-1.53-1.5c-1.95-2.09-4.29-3.78-6.47-5.62-1.12-.9-2.35-1.64-3.52-2.47l-1.77-1.21-.89-.61-.94-.53-3.75-2.12c-.63-.35-1.24-.72-1.88-1.05l-1.96-.91c-10.37-5-21.55-8.24-32.89-10.44-.19-.04-1.49-.31-3.39-.7-.92-.2-1.99-.43-3.14-.67-.56-.12-1.15-.25-1.74-.38-.59-.1-1.19-.21-1.8-.31-4.82-.82-9.55-1.73-9.52-2.13.03-.39,4.85-.19,9.79.13.62.04,1.24.07,1.85.13.61.08,1.21.15,1.79.22,1.18.15,2.28.3,3.22.42,1.96.27,3.29.46,3.48.48Z"/><path class="cls-2" d="M68.6.37c17.51-.42,35.18.87,52.28,5.15,8.54,2.15,16.88,5.13,24.84,8.95,7.92,3.9,15.44,8.69,22.12,14.5,3.33,2.91,6.51,6,9.4,9.37,2.89,3.35,5.55,6.91,7.95,10.63,4.78,7.46,8.43,15.61,10.99,24.08,2.54,8.48,3.92,17.28,4.23,26.11.29,8.83-.49,17.71-2.55,26.33-.15.6-2.02,8.06-5.62,14.66-1.76,3.3-3.92,6.34-5.83,8.34-1.91,2.01-3.45,3.01-3.56,2.88-.15-.17,1.13-1.44,2.71-3.59,1.59-2.15,3.41-5.23,4.88-8.53,3.01-6.58,4.51-13.85,4.65-14.43,1.99-8.34,2.76-16.98,2.47-25.57-.3-8.59-1.65-17.15-4.11-25.38-2.48-8.22-6.02-16.13-10.66-23.35-2.32-3.61-4.9-7.05-7.7-10.3-2.79-3.26-5.88-6.25-9.11-9.08-6.48-5.64-13.79-10.29-21.5-14.09-7.76-3.73-15.91-6.65-24.28-8.75-16.77-4.19-34.19-5.48-51.51-5.06-.3,0-2.3.03-5.18.06-1.43.01-3.06.1-4.8.14-1.74.06-3.58.09-5.4.2-1.8.09-3.61.18-5.35.26-1.64.09-3.21.18-4.64.26-2.71.14-4.52.16-4.54-.04s1.74-.58,4.42-1.06c1.34-.23,2.91-.52,4.61-.75,1.74-.22,3.55-.45,5.34-.68,1.83-.25,3.67-.39,5.42-.56,1.75-.15,3.39-.33,4.83-.41,2.91-.16,4.93-.27,5.23-.29Z"/><path class="cls-2" d="M74.6,48.69c-.65,2.05-1.59,3.91-2.67,5.65-1.08,1.74-2.25,3.41-3.53,4.97-2.52,3.17-5.34,6.03-8.29,8.74-2.92,2.71-6.15,5.22-9.48,7.43-3.33,2.24-6.8,4.19-10.27,6.12-6.94,3.84-14.06,7.26-20.69,11.35-3.29,2.05-6.49,4.27-9.1,6.95-1.33,1.3-2.54,2.86-3.65,4.39-1.11,1.55-2.1,3.17-2.89,4.85-.05.12-.48.88-.94,2-.46,1.12-.95,2.62-1.05,4.1-.05.74,0,1.47.16,2.09.17.61.47,1.12.82,1.34.34.26.74.22,1.04.13.31-.08.5-.19.58-.12.06.06.02.3-.27.6-.26.29-.96.68-1.78.41-.81-.23-1.46-.96-1.87-1.76-.41-.81-.62-1.74-.7-2.66-.16-1.85.19-3.66.58-4.99.38-1.34.78-2.23.84-2.36.88-1.89,1.96-3.65,3.15-5.31,1.21-1.66,2.43-3.23,3.91-4.7,2.91-2.98,6.26-5.27,9.65-7.39,6.82-4.2,13.95-7.62,20.82-11.42,3.43-1.9,6.84-3.83,10.06-5.99,3.24-2.16,6.26-4.5,9.13-7.16,2.86-2.63,5.59-5.4,7.99-8.42,1.22-1.49,2.32-3.07,3.32-4.67,1-1.61,1.84-3.3,2.38-5.02.02-.06.12-.29.21-.64.1-.35.27-.83.34-1.38.05-.28.12-.58.11-.88,0-.3.05-.65.02-.94-.07-.64-.26-1.37-.54-2.04-.28-.68-.67-1.29-1.1-1.77-.44-.48-.94-.76-1.44-.92-.51-.14-.8-.1-.93.04-.15.17-.11.35-.16.43-.02.1-.44-.04-.39-.6.03-.26.24-.59.56-.75.31-.17.68-.22,1.04-.23.72,0,1.61.26,2.34.8.73.53,1.37,1.25,1.86,2.04.5.8.87,1.66,1.09,2.57.12.48.12.91.16,1.34.05.43.01.82-.01,1.19-.02.75-.17,1.33-.25,1.78-.08.45-.17.72-.19.79Z"/><path class="cls-2" d="M176.55,150.14c1.85-.41,3.82-.09,5.38.82,1.58.89,2.81,2.18,3.72,3.58,1.81,2.84,2.63,5.95,3.1,9.1.43,3.17.17,6.54-1.05,9.6-1.2,3.06-3.27,5.7-5.66,7.78-4.84,4.18-10.62,6.65-16.36,8.7-5.77,2.04-11.66,3.55-17.53,5-5.87,1.45-11.75,2.77-17.46,4.47-5.67,1.76-11.19,4.01-16.41,6.83-10.46,5.61-19.79,13.33-27.16,22.63-.11.18-1.08,1.18-2.24,2.75-.59.77-1.27,1.65-2.01,2.61-.67.96-1.39,1.99-2.13,3.04-2.82,4.16-5.17,8.53-5.55,8.36-.34-.14,1.38-4.87,3.83-9.41.65-1.14,1.29-2.26,1.88-3.31.65-1.04,1.29-2,1.85-2.84,1.08-1.71,2.01-2.8,2.13-2.98,7.62-9.61,17.26-17.58,28.05-23.37,5.39-2.91,11.09-5.23,16.94-7.04,5.86-1.74,11.75-3.06,17.6-4.51,5.84-1.44,11.65-2.94,17.26-4.92,5.57-1.99,11.09-4.4,15.42-8.16,2.15-1.87,3.89-4.13,4.9-6.69,1.02-2.55,1.26-5.38.88-8.17-.4-2.79-1.2-5.64-2.65-7.9-.73-1.13-1.66-2.05-2.72-2.65-1.05-.61-2.26-.77-3.36-.54-.08,0-.37.09-.8.25-.43.15-.97.52-1.36,1.02-.4.48-.61,1.34-.52,2.27.07.46.2.93.42,1.35.23.41.54.75.9,1,.36.25.8.33,1.26.34.48-.02.96-.14,1.36-.35.83-.42,1.34-1.24,1.33-1.95.03-.73-.44-1.29-.81-1.62-.38-.34-.66-.51-.61-.62.03-.08.37-.1.92.13.28.11.61.3.92.63.32.31.59.79.7,1.37.24,1.17-.39,2.6-1.58,3.41-.59.42-1.29.7-2.05.81-.77.09-1.64.02-2.39-.37-.75-.38-1.36-.96-1.81-1.61-.44-.66-.71-1.38-.89-2.1-.29-1.45-.09-2.98.66-4.13.74-1.13,1.66-1.76,2.37-2.1.72-.33,1.21-.48,1.35-.5Z"/><path class="cls-2" d="M67.58,80.6c.53,1.11,1.22,2.17,2.03,3.13.83.93,1.76,1.79,2.79,2.5,2.07,1.41,4.5,2.24,7.02,2.49,2.52.21,5.06-.17,7.35-1.18,1.15-.51,2.21-1.18,3.2-1.95.97-.79,1.84-1.71,2.57-2.71.05-.07.82-.83,1.47-1.69.69-.83,1.2-1.8,1.6-1.77.19.03.32.33.39.83.04.48.01,1.15-.15,1.77-.27,1.28-.92,2.44-.99,2.52-1.77,2.46-4.19,4.37-6.93,5.6-2.75,1.22-5.81,1.67-8.77,1.41-2.96-.29-5.89-1.28-8.37-2.98-2.47-1.71-4.5-4.02-5.8-6.76-.05-.09-.48-1.35-.51-2.66-.05-.64.04-1.3.17-1.76.16-.48.34-.76.54-.75.4.04.72,1.09,1.25,2.03.48.96,1.1,1.84,1.14,1.92Z"/><path class="cls-2" d="M156.3,168.04c-.31,2.53-1.39,4.86-2.84,6.82-1.45,1.98-3.29,3.59-5.25,4.91-1.98,1.3-3.97,2.36-5.96,3.43l-5.98,3.12c-7.97,4.12-15.88,8.31-23.49,12.97-7.59,4.66-14.96,9.74-21.46,15.74-3.24,3-6.25,6.23-8.79,9.78-2.54,3.54-4.59,7.42-5.71,11.55-.14.52-.22,1.04-.33,1.56l-.24,1.18c-.1.56-.12,1.26-.19,1.77l-.37,3.28-.18,1.64-.05.41v.1c-.01.06-.02.05-.05,0l-.11-.18-.44-.72-5.34-8.82c-2.31-3.86-4.58-7.76-6.73-11.75-4.24-7.96-8.16-16.32-9.84-25.44-.86-4.54-.96-9.27-.24-13.89.81-4.61,2.5-9.06,4.92-13.03,2.43-3.97,5.47-7.49,8.81-10.64,1.65-1.59,3.44-3.04,5.18-4.48,1.74-1.39,3.44-2.82,5.12-4.28.43-.45,6.48-5.23,11.21-10.95,1.2-1.42,2.23-2.93,3.12-4.38.81-1.48,1.49-2.92,1.77-4.21.11-.32.13-.63.17-.93.04-.3.08-.58.11-.85-.03-.53-.02-1.01-.06-1.4-.16-.76-.22-1.23-.13-1.28.09-.04.33.36.69,1.14.14.4.22.91.35,1.5.02.3.02.61.02.95,0,.34.02.7-.06,1.05-.14,1.48-.71,3.1-1.45,4.77-.81,1.62-1.78,3.31-2.93,4.86-4.53,6.3-10.49,11.42-10.93,11.88-1.71,1.49-3.45,2.94-5.22,4.35-1.72,1.43-3.42,2.8-5,4.33-3.19,3.01-6.06,6.35-8.33,10.04-2.25,3.7-3.8,7.78-4.54,12.02-.66,4.25-.58,8.63.23,12.91,1.57,8.61,5.36,16.76,9.54,24.59,2.11,3.93,4.36,7.79,6.66,11.63l1.62,2.7.47-2.2c1.23-4.55,3.47-8.73,6.15-12.47,2.69-3.75,5.83-7.12,9.18-10.22,6.71-6.2,14.21-11.36,21.91-16.08,7.71-4.72,15.68-8.95,23.67-13.07l5.96-3.11c1.96-1.05,3.94-2.11,5.71-3.28,1.75-1.18,3.34-2.58,4.55-4.23,1.21-1.64,2.07-3.53,2.3-5.47.01-.14.11-.66.09-1.46,0-.79-.14-1.89-.67-2.94-.53-1.05-1.49-1.88-2.64-1.63-.26.04-.7.21-1.06.37-.37.17-.74.36-1.1.58-.72.44-1.4.98-2,1.6-.6.62-1.13,1.3-1.51,2.02-.39.71-.59,1.52-.44,1.77.07.19.27.3.46.33.22.04.65.01.97-.05.68-.12,1.31-.4,1.84-.76,1.06-.71,1.73-1.65,2.08-2.31.17-.34.26-.62.28-.79.03-.18-.04-.25-.03-.3,0-.05.22-.03.31.25.09.25.08.62-.03,1.04-.22.84-.79,1.98-1.94,2.99-.58.5-1.32.95-2.2,1.2-.46.12-.86.22-1.48.19-.63-.04-1.3-.33-1.64-.93-.38-.56-.37-1.39-.29-1.89.08-.55.25-1.06.46-1.53.42-.96,1-1.81,1.66-2.6.67-.78,1.43-1.49,2.28-2.08.42-.3.86-.56,1.32-.8.48-.23.87-.44,1.49-.61,1.16-.34,2.5-.1,3.44.49.96.59,1.61,1.39,2.06,2.16.89,1.57,1.1,3.04,1.17,4.1.06,1.07-.03,1.74-.05,1.92Z"/><path class="cls-2" d="M104.78,120.9c-2.39,3.36-5.46,6.4-9.18,8.44-1.84,1.06-3.85,1.75-5.88,2.32-1.03.19-2.05.45-3.09.57-1.04.1-2.07.27-3.11.26-4.14.16-8.21-.33-12.18-1-3.98-.67-7.88-1.54-11.76-2.3-7.74-1.53-15.61-2.75-23.19-1.41-.93.21-1.88.35-2.8.62-.91.29-1.84.5-2.72.86l-2.71,1.09c-1,.44-2.05.73-3.11.97-4.28.88-8.73.07-12.53-1.85-.25-.13-3.6-1.93-5.64-5.02-1.04-1.5-1.63-3.32-1.57-4.7.05-1.4.62-2.15.77-2.09.21.07.06.89.34,1.99.26,1.1.99,2.44,2.06,3.57,2.1,2.32,5.13,3.59,5.33,3.7,3.29,1.66,7.12,2.34,10.67,1.6.88-.2,1.76-.44,2.58-.8l2.83-1.14c.97-.39,1.98-.62,2.97-.94,1-.29,2.02-.44,3.04-.67,4.08-.72,8.23-.75,12.28-.41,4.06.35,8.03,1.05,11.96,1.83,3.93.77,7.81,1.63,11.69,2.29,3.87.65,7.76,1.11,11.59.96.96,0,1.9-.15,2.84-.24.94-.11,1.85-.35,2.78-.51,1.8-.52,3.58-1.12,5.2-2.06,3.27-1.8,6.02-4.49,8.23-7.6.18-.2,2.21-2.81,3.85-5.68.4-.68.82-1.38,1.24-2.08.36-.68.7-1.32,1.01-1.85.62-1.08,1.1-1.77,1.29-1.7s.05.9-.26,2.12c-.16.61-.36,1.32-.58,2.08-.25.75-.58,1.54-.89,2.33-.58,1.62-1.43,3.14-2.04,4.35-.62,1.2-1.23,1.97-1.29,2.1Z"/><path class="cls-2" d="M101.64,83.9c-4.19-2.47-7.51-5.66-11.12-8.33-3.56-2.63-7.43-5.1-11.44-4.12-4.24.7-8.08,2.9-11.23,5.93-3.19,3.02-5.7,6.76-8.5,10.47-.11.12-1.43,1.66-3.05,2.93-.8.64-1.73,1.16-2.47,1.4-.74.26-1.29.22-1.34.06-.08-.2.3-.51.77-1.01.48-.49,1.07-1.14,1.62-1.88,1.09-1.47,2.1-3.12,2.21-3.24,2.71-3.58,5.32-7.51,8.8-10.81,1.73-1.64,3.66-3.14,5.82-4.28,2.15-1.14,4.48-1.99,6.89-2.39,1.14-.21,2.56-.35,3.85-.16,1.3.17,2.53.56,3.66,1.06,2.28,1,4.25,2.35,6.13,3.74,3.74,2.78,7.1,5.96,10.83,8.13.14.06,1.63,1.19,3.25,1.79.8.31,1.65.52,2.31.56.67.08,1.16.07,1.23.28.06.16-.32.54-1.07.82-.74.32-1.83.42-2.91.32-2.18-.2-4.08-1.22-4.23-1.28Z"/></g><path id="Icon_17_Shape" class="cls-1" d="M21.5,10.42C67.69-3.88,156.1,6.13,179.89,52.31c53.82,104.48-106.39,145.08-104.69,193.1-5.11-50.74,88.1-93.96,69.35-168.87-6.8-27.18-55.29-42.79-75.8-38.72-17.51,3.47-23.55-30.49-47.24-27.4Z"/></g></svg>