<?xml version="1.0" encoding="UTF-8"?><svg id="Line" xmlns="http://www.w3.org/2000/svg" viewBox="0 0 276 276"><defs><style>.cls-1{opacity:.24;}.cls-1,.cls-2{fill:#fff;stroke-width:0px;}</style></defs><g id="Icon_1"><g id="Icon_1_Lines"><path class="cls-2" d="M48.81,116.74v82.52h178.37v-82.52c0-1.04.16-13.55.42-25.8.13-6.12.28-12.18.45-16.71.17-4.53.36-7.53.55-7.53s.38,3,.55,7.53c.17,4.53.32,10.59.45,16.71.26,12.25.42,24.76.42,25.8v85.37H45.96v-85.37c0-1.04.16-13.55.42-25.8.13-6.12.28-12.18.45-16.71.17-4.53.36-7.53.55-7.53s.38,3,.55,7.53c.17,4.53.32,10.59.45,16.71.26,12.25.42,24.76.42,25.8Z"/><path class="cls-2" d="M22.65,82.01c-.74,2.43-.9,5.14-.8,7.83.09,2.7.52,5.42,1.03,8.12,1.07,5.4,2.72,10.7,4.7,15.88.97,2.6,2.07,5.15,3.21,7.68,1.19,2.5,2.38,4.97,3.79,7.36,2.74,4.81,5.82,9.44,9.09,13.97,6.49,9.08,13.62,17.76,19.89,27.21,3.1,4.73,6.04,9.67,8.01,15.14l.72,2.06.58,2.06c.36,1.38.7,2.77.98,4.18.56,2.81.96,5.67,1.05,8.58,0,.21.04,1.56-.16,3.48-.19,1.91-.63,4.4-1.63,6.72-.5,1.15-1.15,2.26-1.97,3.16-.4.46-.88.84-1.36,1.15-.51.29-1.05.5-1.61.54-.56.03-1.08-.16-1.44-.42-.35-.28-.55-.59-.66-.85-.22-.53-.17-.85-.1-.87.11-.04.26.23.58.56.15.17.37.33.61.44.26.09.54.12.85.04.64-.18,1.32-.77,1.87-1.59.56-.81,1-1.81,1.33-2.87.65-2.12.86-4.41.9-6.18.04-1.77-.06-3.03-.07-3.22-.08-2.7-.45-5.42-.99-8.1-.27-1.34-.59-2.68-.94-4.01l-.56-1.99-.67-1.91c-1.83-5.1-4.66-9.89-7.7-14.52-6.14-9.26-13.27-17.95-19.83-27.11-3.3-4.57-6.43-9.29-9.25-14.22-1.44-2.44-2.69-5.03-3.91-7.59-1.16-2.58-2.28-5.19-3.27-7.84-2.03-5.29-3.72-10.73-4.83-16.35-.53-2.81-.98-5.65-1.08-8.56-.1-2.9.04-5.87.93-8.82.01-.11.17-.5.44-1.09.14-.3.27-.64.48-1.03.22-.39.49-.8.8-1.21.62-.82,1.41-1.67,2.4-2.44.97-.76,2.17-1.46,3.58-1.73.36-.06.71-.1,1.08-.08.18,0,.36.02.55.05.18.03.44.06.65.14.9.25,1.61.78,1.85,1.51.28.7-.08,1.63-.63,1.79-.51.29-1.4.36-2.14.2-.76-.15-1.27-.49-1.49-.83-.11-.19-.21-.31-.14-.61.01-.13.12-.23.19-.33.08-.07.15-.11.22-.16.56-.26.86-.17.89-.11.05.1-.26.26-.54.56-.02.04-.06.08-.07.11.01.03-.01.04,0,.06,0,0,.03.06.07.12.04.05.1.09.15.13.24.14.52.2.78.22.27.02.52,0,.74-.08.26-.02.3-.4.13-.59-.16-.21-.44-.27-.65-.28-.06,0-.09,0-.2,0-.11,0-.22-.01-.33.01-.22.01-.44.07-.67.13-.9.28-1.77.88-2.5,1.57-.73.68-1.33,1.45-1.77,2.14-.22.34-.4.67-.53.96-.14.3-.22.6-.32.84-.18.48-.3.79-.31.89Z"/><path class="cls-2" d="M256.29,81.15c.9,2.95,1.03,5.92.93,8.82-.1,2.91-.55,5.75-1.08,8.56-1.11,5.61-2.81,11.05-4.83,16.35-.99,2.66-2.11,5.26-3.27,7.84-1.22,2.56-2.47,5.15-3.91,7.59-2.82,4.93-5.95,9.65-9.25,14.22-6.55,9.17-13.68,17.86-19.83,27.11-3.04,4.63-5.87,9.42-7.7,14.52l-.67,1.91-.56,1.99c-.35,1.33-.67,2.67-.94,4.01-.54,2.69-.92,5.4-.99,8.1,0,.19-.11,1.45-.07,3.22.03,1.77.24,4.06.9,6.18.32,1.06.77,2.06,1.33,2.87.55.82,1.24,1.41,1.87,1.59.31.08.6.05.85-.04.24-.11.46-.27.61-.44.32-.33.47-.6.58-.56.07.02.13.35-.1.87-.1.27-.31.57-.66.85-.36.26-.87.45-1.44.42-.55-.04-1.1-.24-1.61-.54-.48-.31-.96-.69-1.36-1.15-.82-.9-1.47-2.01-1.97-3.16-1-2.32-1.45-4.81-1.63-6.72-.2-1.92-.17-3.27-.16-3.48.08-2.91.48-5.77,1.05-8.58.28-1.41.62-2.8.98-4.18l.58-2.06.72-2.06c1.97-5.47,4.9-10.41,8-15.14,6.27-9.44,13.4-18.12,19.89-27.21,3.26-4.53,6.34-9.16,9.09-13.97,1.41-2.39,2.6-4.86,3.79-7.36,1.14-2.53,2.23-5.08,3.21-7.68,1.98-5.18,3.63-10.48,4.7-15.88.51-2.7.94-5.41,1.03-8.12.1-2.69-.06-5.4-.8-7.83,0-.14-.26-.7-.56-1.6-.36-.79-1.05-1.91-2.04-2.91-.97-1-2.28-1.93-3.54-2.03-.14-.03-.35.01-.41,0-.08,0-.16,0-.24.02-.16.03-.35.09-.47.24-.12.14-.15.35-.07.5.1.13.29.14.45.18.28.04.6.03.9-.06.15-.04.31-.1.43-.2.07-.04.1-.12.14-.17.02-.02.02-.05.01-.07-.05-.15-.29-.34-.42-.44-.14-.11-.21-.2-.2-.25.02-.05.12-.07.32-.06.1,0,.22.03.36.08.14.04.31.11.49.31.1.11.15.25.16.42,0,.12-.03.23-.09.33-.11.21-.28.4-.56.57-.54.36-1.55.55-2.43.42-.24-.04-.47-.13-.67-.22-.18-.11-.38-.17-.51-.39-.28-.41-.35-1-.14-1.5.19-.51.62-.92,1.18-1.19.27-.15.6-.23.92-.32.35-.05.56-.11.83-.11,1.05-.04,2.05.25,2.91.66.87.41,1.62.95,2.28,1.51,1.32,1.13,2.26,2.37,2.86,3.47.48,1.07.82,1.79.83,1.95Z"/><path class="cls-2" d="M68.59,85.85l69.51,69.35,69.32-69.32c.84-.84,20.63-19.72,21.19-19.17.56.56-18.33,20.35-19.17,21.19l-71.34,71.34-71.53-71.36c-.84-.84-19.75-20.61-19.19-21.16.55-.56,20.37,18.3,21.21,19.14Z"/><path class="cls-2" d="M208.43,68.13H67.57c-.84,0-20.19-.64-20.19-1.43s19.35-1.43,20.19-1.43h140.85c.84,0,20.19.64,20.19,1.43s-19.35,1.43-20.19,1.43Z"/><path class="cls-2" d="M114.59,148.91l-58.01,46.27c-.35.28-8.71,6.13-9.2,5.51-.49-.61,7.08-7.47,7.42-7.75l58.01-46.27c.35-.28,8.71-6.13,9.2-5.51.49.61-7.08,7.47-7.42,7.75Z"/><path class="cls-2" d="M163.41,146.67l58.01,46.27c.35.28,7.91,7.13,7.42,7.75-.49.61-8.86-5.24-9.2-5.51l-58.01-46.27c-.35-.28-7.91-7.13-7.42-7.75.49-.61,8.86,5.24,9.2,5.51Z"/></g><path id="Icon_1_Shape" class="cls-1" d="M276,138h0s0,0,0,0c-65.32,21.44-116.56,72.68-138,138h0s0,0,0,0C116.56,210.68,65.32,159.44,0,138h0s0,0,0,0C65.32,116.56,116.56,65.32,138,0h0s0,0,0,0c21.44,65.32,72.68,116.56,138,138Z"/></g></svg>