<?xml version="1.0" encoding="UTF-8"?><svg id="Line" xmlns="http://www.w3.org/2000/svg" viewBox="0 0 282 238.83"><defs><style>.cls-1{opacity:.24;}.cls-1,.cls-2{fill:#fff;stroke-width:0px;}</style></defs><g id="Icon_19"><g id="Icon_19_Lines"><path class="cls-2" d="M60.65,166.93c-2.98-2.03-6.06-3.89-9.25-5.49-3.19-1.57-6.51-2.95-9.89-3.57-1.68-.31-3.37-.38-4.88-.07-1.51.31-2.71,1.12-3.41,2.35-.69,1.24-.92,2.86-.8,4.52.11,1.66.48,3.36.99,5.03,1.02,3.35,2.57,6.59,4.3,9.72,1.75,3.13,3.72,6.15,5.82,9.08,4.23,5.84,8.99,11.32,14.09,16.44,5.12,5.11,10.59,9.88,16.43,14.12,2.93,2.1,5.94,4.08,9.07,5.83,3.13,1.73,6.37,3.29,9.72,4.31,1.67.51,3.37.88,5.03.98,1.66.12,3.28-.12,4.51-.81,1.23-.7,2.02-1.91,2.33-3.43.31-1.51.23-3.21-.08-4.89-.62-3.38-2-6.7-3.57-9.89-1.6-3.19-3.46-6.28-5.48-9.26-.27-.44-3.65-5.64-7.43-10.45-3.72-4.85-7.75-9.31-7.47-9.6.26-.27,4.83,3.71,9.01,8.3,4.23,4.54,7.98,9.7,8.25,10.15,2.08,3.06,4,6.25,5.67,9.58,1.64,3.35,3.11,6.84,3.82,10.66.35,1.9.48,3.92.06,6-.38,2.06-1.71,4.21-3.7,5.3-1.97,1.1-4.14,1.31-6.1,1.19-1.99-.12-3.88-.55-5.7-1.1-3.64-1.11-7.02-2.75-10.28-4.55-3.25-1.82-6.35-3.85-9.35-6.01-5.98-4.35-11.56-9.2-16.78-14.41-5.2-5.22-10.05-10.8-14.39-16.79-2.16-3-4.19-6.11-6-9.36-1.8-3.26-3.43-6.64-4.54-10.28-.55-1.82-.98-3.71-1.11-5.69-.13-1.96.08-4.13,1.16-6.1.54-.99,1.36-1.83,2.27-2.47.93-.66,1.98-1.02,3.01-1.26,2.07-.43,4.1-.29,6,.05,3.82.71,7.31,2.19,10.66,3.83,3.34,1.68,6.52,3.6,9.58,5.68.45.28,5.61,4.03,10.14,8.27,4.58,4.18,8.56,8.76,8.29,9.02-.29.29-4.75-3.75-9.6-7.48-4.81-3.78-10-7.17-10.44-7.44Z"/><path class="cls-2" d="M114.99,231.73c.08,1.66,1.44,3.06,3.27,3.68,1.82.63,4.08.72,6.1.41,2.04-.32,3.88-1.23,5.36-2.61,1.49-1.38,2.61-3.21,3.44-5.2,1.66-4.01,2.34-8.51,2.77-13,.39-4.51.49-9.07.54-13.66.05-4.58.03-9.19.3-13.85.32-4.67,1-9.31,2.13-13.86,2.23-9.08,6.11-17.79,11.59-25.42.2-.27,2.66-3.49,5.57-6.16,2.87-2.72,6.04-4.88,6.28-4.59.26.32-2.41,3-4.8,5.97-2.45,2.93-4.54,6.2-4.73,6.45-5.25,7.3-8.98,15.68-11.14,24.43-1.08,4.38-1.74,8.85-2.05,13.35-.26,4.52-.24,9.1-.3,13.71-.05,4.6-.14,9.23-.55,13.88-.45,4.63-1.12,9.34-2.98,13.85-.94,2.23-2.25,4.43-4.13,6.18-1.86,1.76-4.33,2.96-6.84,3.34l-1.88.19-1.86-.02c-1.25-.1-2.52-.24-3.78-.71-1.24-.45-2.48-1.15-3.45-2.23-.96-1.06-1.63-2.47-1.71-3.96,0-.11-.04-.51.06-1.12.1-.61.29-1.46.91-2.32.64-.91,1.82-1.62,3.06-1.7,1.23-.13,2.63.32,3.51,1.41.42.55.65,1.2.72,1.81.04.61,0,1.19-.2,1.73-.36,1.07-1.25,1.94-2.25,2.04-.49.06-.94-.09-1.24-.3-.31-.2-.5-.44-.61-.64-.24-.41-.25-.67-.18-.72.09-.06.28.12.6.33.31.21.79.43,1.22.24.43-.16.82-.7.92-1.37.06-.33.01-.7-.05-1.03-.1-.32-.25-.58-.45-.77-.42-.37-1.1-.53-1.68-.38-.6.12-.99.48-1.17.82-.45.85-.3,1.71-.3,1.8Z"/><path class="cls-2" d="M170.96,8.34c-.12-1.23-1.18-2.24-2.64-2.67-1.44-.42-3.28-.42-4.88-.09-1.61.33-3.03,1.12-4.15,2.28-1.13,1.15-1.96,2.66-2.56,4.3-1.19,3.3-1.56,6.99-1.74,10.67-.15,3.69-.05,7.43.1,11.18.14,3.75.34,7.52.3,11.36-.08,3.85-.46,7.69-1.2,11.47-1.48,7.55-4.32,14.86-8.52,21.35-.15.23-2.07,2.96-4.39,5.24-2.28,2.31-4.85,4.17-5.09,3.89-.27-.3,1.75-2.64,3.55-5.19,1.84-2.52,3.39-5.27,3.54-5.49,3.99-6.15,6.7-13.13,8.12-20.34.71-3.61,1.07-7.28,1.15-10.96.04-3.69-.16-7.44-.3-11.21-.14-3.77-.25-7.57-.1-11.4.19-3.82.55-7.72,1.91-11.53.69-1.89,1.69-3.77,3.2-5.31,1.49-1.55,3.51-2.65,5.6-3.07l1.56-.24,1.55-.06c1.05.03,2.12.1,3.19.45,1.07.33,2.15.87,3.02,1.75.87.87,1.5,2.05,1.63,3.33,0,.09.05.43,0,.97-.06.53-.2,1.27-.7,2.04-1.05,1.73-4,2.36-5.7.5-.39-.46-.61-1.02-.69-1.55-.05-.52-.03-1.02.12-1.49.15-.47.38-.87.72-1.22.35-.35.78-.56,1.18-.6.83-.11,1.38.43,1.58.75.22.35.21.57.14.62-.16.16-.77-.61-1.5-.27-.33.18-.51.53-.57,1.06-.02.26.04.53.1.77.09.23.22.4.37.52.31.23.81.31,1.22.16.43-.12.66-.4.76-.63.28-.63.13-1.27.12-1.33Z"/><path class="cls-2" d="M165.49,139.43c-1.51-.03-2.86-.37-4.15-.78-1.29-.42-2.5-.94-3.69-1.5-2.36-1.14-4.59-2.46-6.75-3.88-4.3-2.86-8.35-6.01-12.07-9.67-3.65-3.72-6.8-7.78-9.65-12.08-1.41-2.16-2.73-4.39-3.87-6.75-.56-1.19-1.08-2.41-1.5-3.69-.41-1.29-.75-2.64-.78-4.15,0-.11,0-.82.33-1.85.19-.51.47-1.11.95-1.63.46-.54,1.03-.91,1.73-1.18.69-.26,1.5-.25,2.12-.02.63.23,1.08.61,1.38,1,.29.39.43.8.42,1.1,0,.32-.17.43-.25.43-.11,0-.16-.15-.3-.28-.14-.13-.34-.31-.63-.45-.58-.32-1.38-.37-1.9.05-.25.19-.57.5-.69.79-.16.27-.23.59-.28.87-.06.59-.01,1.08-.01,1.15.06,2.1.98,4.45,2,6.63,1.06,2.2,2.32,4.34,3.68,6.42,2.74,4.14,5.84,8.12,9.28,11.63,3.5,3.45,7.48,6.56,11.61,9.3,2.07,1.36,4.21,2.63,6.41,3.69,2.18,1.03,4.53,1.95,6.62,2,.07,0,.55.05,1.14-.01.28-.05.59-.12.87-.28.29-.12.59-.44.79-.69.42-.51.37-1.32.05-1.9-.15-.28-.32-.49-.45-.63-.13-.14-.24-.19-.28-.3-.04-.08.12-.25.43-.25.31,0,.72.13,1.1.42.39.29.78.75,1,1.38.23.62.24,1.42-.02,2.11-.27.7-.63,1.26-1.18,1.73-.52.48-1.11.76-1.63.95-1.03.33-1.75.32-1.85.33Z"/><path class="cls-2" d="M171.24,133.68c-1.51-.03-2.86-.37-4.15-.78-1.29-.42-2.5-.94-3.69-1.5-2.36-1.14-4.59-2.46-6.75-3.88-4.3-2.86-8.35-6.01-12.07-9.67-3.65-3.72-6.8-7.78-9.65-12.08-1.41-2.16-2.73-4.39-3.87-6.75-.56-1.19-1.08-2.41-1.5-3.69-.41-1.29-.75-2.64-.78-4.15,0-.11,0-.82.33-1.85.19-.51.47-1.11.95-1.63.46-.54,1.03-.91,1.73-1.18.69-.26,1.5-.25,2.12-.02.63.22,1.08.61,1.38,1,.29.39.43.8.42,1.1,0,.32-.17.43-.25.43-.11,0-.16-.16-.3-.28-.14-.13-.34-.31-.63-.45-.58-.32-1.38-.37-1.9.05-.25.19-.57.5-.69.79-.16.27-.23.59-.28.87-.06.59-.01,1.08-.01,1.15.06,2.1.98,4.45,2,6.63,1.06,2.2,2.32,4.34,3.68,6.42,2.74,4.14,5.84,8.12,9.28,11.63,3.5,3.45,7.48,6.55,11.61,9.3,2.07,1.36,4.21,2.63,6.41,3.69,2.18,1.03,4.53,1.95,6.62,2,.07,0,.55.05,1.14-.01.28-.05.59-.12.87-.28.29-.12.59-.44.79-.69.42-.51.37-1.32.05-1.9-.15-.28-.32-.49-.45-.63-.13-.14-.24-.19-.28-.3-.04-.08.12-.25.43-.25.31,0,.72.13,1.1.42.39.29.78.75,1,1.38.23.62.24,1.42-.02,2.11-.27.7-.63,1.26-1.18,1.73-.52.48-1.11.76-1.63.95-1.03.33-1.75.32-1.85.33Z"/><path class="cls-2" d="M176.82,128.1c-1.51-.03-2.86-.37-4.15-.78-1.29-.42-2.5-.94-3.69-1.5-2.36-1.14-4.59-2.46-6.75-3.88-4.3-2.86-8.35-6.01-12.07-9.67-3.65-3.72-6.8-7.78-9.65-12.08-1.41-2.16-2.73-4.39-3.87-6.75-.56-1.19-1.08-2.41-1.5-3.69-.41-1.29-.75-2.64-.78-4.15,0-.11,0-.82.33-1.85.19-.51.47-1.11.95-1.63.46-.54,1.03-.91,1.73-1.18.69-.26,1.5-.25,2.12-.02.63.22,1.08.61,1.38,1,.29.39.43.8.42,1.1,0,.32-.17.43-.25.43-.11,0-.16-.16-.3-.28-.14-.13-.34-.31-.63-.45-.58-.32-1.38-.37-1.9.05-.25.19-.57.5-.69.79-.16.27-.23.59-.28.87-.06.59-.01,1.08-.01,1.15.06,2.1.97,4.45,2,6.63,1.06,2.2,2.32,4.34,3.68,6.42,2.74,4.14,5.84,8.12,9.28,11.63,3.5,3.45,7.48,6.55,11.61,9.3,2.07,1.36,4.21,2.63,6.41,3.69,2.18,1.03,4.53,1.95,6.62,2,.07,0,.55.05,1.14-.01.28-.05.59-.12.87-.28.29-.12.59-.44.79-.69.42-.51.37-1.32.05-1.9-.15-.28-.32-.49-.45-.63-.13-.14-.24-.19-.28-.3-.04-.08.12-.25.43-.25.31,0,.72.13,1.1.42.39.29.78.75,1,1.38.23.62.24,1.42-.02,2.11-.27.7-.63,1.26-1.17,1.73-.52.48-1.11.76-1.63.95-1.03.33-1.75.32-1.85.33Z"/><path class="cls-2" d="M59.06,178.28c.08-.24.26-.48.45-.72.17-.24.4-.44.66-.61.13-.09.26-.17.39-.25l.4-.14c.27-.09.55-.18.79-.17.25-.02.5-.03.74-.03l.64.09c.45.05.79.2,1.18.3,1.46.51,2.68,1.21,3.87,1.95,2.35,1.49,4.45,3.21,6.5,4.97,4.07,3.5,7.97,7.36,11.22,11.74,1.63,2.18,3.14,4.48,4.4,6.93,1.25,2.46,2.3,5.07,2.73,7.97.18,1.45.28,2.99-.28,4.61-.14.4-.36.79-.55,1.18-.24.37-.56.72-.85,1.07-.36.28-.73.58-1.12.81-.41.17-.83.37-1.24.48-1.71.45-3.23.14-4.66-.18-.7-.2-1.41-.39-2.05-.68-.67-.25-1.32-.53-1.93-.85-2.5-1.24-4.81-2.72-6.98-4.35-2.2-1.6-4.26-3.34-6.29-5.11-4.02-3.58-7.84-7.38-11.32-11.52-1.77-2.05-3.37-4.24-4.92-6.48-1.49-2.28-2.87-4.65-4-7.17-1.12-2.52-2.01-5.21-2.28-8.09-.17-1.43-.08-2.93.24-4.42.31-1.49,1.05-2.98,2.16-4.15.04-.04.13-.14.28-.29.15-.14.38-.3.65-.5.13-.1.28-.21.44-.32.17-.09.35-.19.55-.29.19-.1.4-.2.62-.31.22-.09.46-.16.7-.24.97-.35,2.12-.46,3.3-.47.59.03,1.19.08,1.78.16.58.13,1.19.21,1.75.39,2.29.66,4.34,1.72,5.73,2.69,1.41.95,2.21,1.73,2.12,1.87-.22.4-4.06-1.93-8.28-2.59-2.08-.38-4.17-.17-5.49.42-.17.07-.33.14-.48.2-.14.09-.27.17-.39.25-.12.08-.24.15-.35.22-.1.09-.18.17-.26.24-.16.15-.3.25-.4.35-.09.11-.14.17-.16.2-1.47,1.5-1.87,3.96-1.63,6.35.22,2.42,1.01,4.86,2.05,7.19,1.04,2.33,2.35,4.57,3.77,6.74,1.48,2.14,3.01,4.25,4.73,6.23,3.36,4,7.1,7.72,11.03,11.22,1.98,1.72,3.98,3.42,6.09,4.95,2.08,1.56,4.28,2.96,6.54,4.08.56.3,1.14.54,1.71.76.57.26,1.15.4,1.73.57,1.13.27,2.33.46,3.22.19.91-.23,1.47-.78,1.79-1.71.34-.92.31-2.12.15-3.29-.34-2.38-1.28-4.78-2.44-7.05-1.17-2.28-2.59-4.45-4.14-6.52-3.1-4.17-6.8-7.86-10.79-11.28-1.98-1.71-4.02-3.36-6.17-4.72-1.07-.67-2.17-1.28-3.23-1.65-.25-.06-.53-.19-.75-.19l-.34-.06c-.09,0-.17.02-.26.02-.31.07-.29.05-.42.26,0,.02-.02.06-.06.12-.03.08-.05.23-.1.39-.03.39-.09.98.04,1.77.21,1.55.88,3.64,1.76,5.62.86,2,1.95,3.88,2.81,5.27.86,1.38,1.51,2.28,1.36,2.42-.13.13-1.06-.51-2.23-1.74-1.17-1.23-2.58-3.03-3.73-5.03-1.17-1.99-2.13-4.17-2.56-6.07-.23-.94-.27-1.85-.23-2.56.06-.38.1-.69.17-.93.09-.25.16-.42.19-.49Z"/><path class="cls-2" d="M113.56,103.04c-6.53,2.27-12.95,4.88-19.03,8.15-6.1,3.24-11.92,6.99-17.5,11.08-5.6,4.08-10.95,8.52-16.22,13.07-5.28,4.54-10.49,9.18-15.74,13.8-.36.34-9.46,7.44-9.98,6.84-.51-.59,7.73-8.64,8.09-8.98,5.24-4.61,10.45-9.26,15.76-13.82,5.3-4.57,10.71-9.06,16.39-13.21,5.67-4.16,11.62-7.99,17.86-11.31,6.22-3.35,12.78-6.02,19.44-8.33.1-.03.86-.24,2.03-.56,1.12-.3,2.57-.69,4.03-.95,2.92-.57,5.78-1.02,5.88-.64.1.38-2.57,1.52-5.3,2.57-1.38.5-2.74,1.09-3.79,1.52-1.11.44-1.83.73-1.93.76Z"/><path class="cls-2" d="M154.38,146.92c-10.12,9.97-19.53,20.74-26.74,32.93-3.61,6.08-6.69,12.47-9.42,19.03-2.74,6.56-5.21,13.27-7.84,19.94-.1.24-1.38,3.05-2.77,5.74-1.42,2.68-2.9,5.26-3.26,5.1-.36-.16.46-3.01,1.4-5.87.9-2.88,1.88-5.79,1.98-6.02,2.62-6.63,5.08-13.35,7.86-19.99,2.77-6.64,5.91-13.17,9.6-19.39,7.38-12.47,16.96-23.43,27.19-33.51.09-.09.71-.66,1.6-1.44.92-.75,2.11-1.72,3.3-2.65,2.39-1.87,4.79-3.62,5.05-3.32s-1.65,2.56-3.67,4.8c-1.01,1.12-2.05,2.23-2.85,3.08-.82.91-1.35,1.5-1.43,1.58Z"/><path class="cls-2" d="M156.69,61.61c5.42-8.54,10.3-17.45,14.86-26.52,4.55-9.07,8.79-18.31,12.73-27.66l1.45-3.51.42-1.04c.07-.33.36-.51.58-.71l.48-.41c.31-.24.65-.43.98-.64.35-.17.7-.33,1.05-.48,1.43-.53,2.9-.67,4.29-.64,1.4.04,2.75.23,4.06.53,5.23,1.24,9.92,3.6,14.38,6.22,8.88,5.33,16.84,11.96,24.12,19.21,7.25,7.27,13.89,15.22,19.26,24.08,2.64,4.45,5.02,9.12,6.32,14.32.59,2.59,1,5.4.14,8.31-.1.36-.24.71-.41,1.06-.14.36-.35.69-.56,1.02-.21.36-.43.6-.75.97l-.3.35c-.12.1-.28.14-.43.21l-.52.23-3.47,1.56c-9.24,4.22-18.36,8.71-27.34,13.44-8.98,4.74-17.82,9.75-26.37,15.18-.3.19-2.29,1.43-5.14,3.2-2.78,1.84-6.42,4.15-9.84,6.69-.86.62-1.73,1.23-2.58,1.84-.81.64-1.61,1.28-2.4,1.9-1.53,1.25-3.07,2.3-4.2,3.4-2.35,2.09-3.98,3.44-4.12,3.31s1.21-1.74,3.36-4.11c1.03-1.23,2.47-2.42,3.93-3.81.75-.69,1.52-1.39,2.29-2.1.83-.67,1.66-1.35,2.49-2.03,3.31-2.78,6.88-5.29,9.61-7.28,2.77-1.93,4.77-3.22,5.07-3.42,8.64-5.49,17.54-10.53,26.57-15.3,9.04-4.76,18.2-9.27,27.49-13.51l3.5-1.57.35-.15s0,0,0-.01c.09-.12.31-.33.41-.54.13-.2.27-.41.36-.65.11-.22.21-.46.27-.72.62-2.01.36-4.46-.19-6.79-1.18-4.71-3.45-9.23-6-13.52-5.19-8.58-11.71-16.39-18.82-23.53-7.14-7.11-14.97-13.61-23.56-18.77-4.3-2.53-8.84-4.78-13.54-5.89-2.32-.5-4.78-.73-6.73,0l-.69.31c-.2.14-.42.25-.61.4l-.25.21h-.01s-.3.74-.3.74l-1.46,3.55c-3.97,9.42-8.23,18.7-12.82,27.84-4.59,9.13-9.51,18.11-15.01,26.77-.38.62-5.22,8.02-10.87,14.59-2.83,3.28-5.89,6.3-8.36,8.34-.6.48-1.17.94-1.71,1.36-.53.37-1.01.69-1.4.94-.78.5-1.25.75-1.31.67-.06-.08.29-.48.95-1.12.37-.35.77-.73,1.2-1.13.47-.48.97-.99,1.5-1.53,2.2-2.25,4.97-5.41,7.55-8.79,5.15-6.77,9.66-14.23,10.03-14.85Z"/><path class="cls-2" d="M142.43,136.84l-1.13,1.76-.56.88-.63.84-2.55,3.34-2.82,3.13c-.95,1.04-2.02,1.94-3.03,2.92-4.17,3.77-8.82,6.82-13.17,10.03-4.38,3.2-8.41,6.76-12.02,10.75l-2.66,3.03-2.46,3.21-1.23,1.61-1.13,1.69-2.25,3.38c-.04.09-.46.57-.97,1.3-.51.73-1.19,1.68-1.88,2.6-1.38,1.84-2.83,3.61-3.17,3.43s.49-2.31,1.44-4.45c.48-1.07.98-2.14,1.38-2.96.39-.83.75-1.36.8-1.45l2.31-3.46,1.16-1.73,1.27-1.66,2.54-3.31c.9-1.06,1.84-2.1,2.76-3.14,3.74-4.13,7.96-7.86,12.43-11.12,4.45-3.29,9-6.27,12.96-9.86.96-.93,1.98-1.79,2.88-2.78l2.68-2.97,2.43-3.19.61-.8.54-.85,1.09-1.7c.08-.18,1.56-1.97,2.81-3.89,1.31-1.88,2.7-3.69,3.06-3.52.35.17-.41,2.33-1.3,4.5-.82,2.21-2.08,4.26-2.17,4.44Z"/><path class="cls-2" d="M230.13,39.71c-3.98,6.82-8.48,13.38-13.68,19.39-2.63,2.98-5.41,5.82-8.36,8.49-2.97,2.64-6.1,5.1-9.34,7.38-6.47,4.59-13.38,8.37-19.75,12.74-3.18,2.19-6.22,4.55-9.01,7.17-2.8,2.61-5.32,5.51-7.58,8.61-.17.21-2.25,2.78-4.11,5.46-.45.63-.92,1.29-1.39,1.95-.42.63-.82,1.22-1.18,1.72-.72.99-1.26,1.62-1.44,1.53-.18-.09.03-.89.46-2.05.21-.58.48-1.25.77-1.98.31-.71.69-1.45,1.05-2.21,1.46-3.02,3.35-5.9,3.54-6.12,2.35-3.23,4.99-6.27,7.92-9,2.92-2.74,6.08-5.2,9.35-7.44,6.55-4.49,13.41-8.24,19.72-12.72,3.16-2.23,6.2-4.61,9.08-7.17,2.86-2.59,5.56-5.35,8.11-8.24,5.05-5.84,9.46-12.25,13.36-18.95.12-.19,1.78-2.77,3.72-5.82,1.73-2.8,3.49-5.51,3.85-5.34.35.17-.78,3.22-2.07,6.29-1.36,3.03-2.86,6.09-3.04,6.31Z"/></g><path id="Icon_19_Shape" class="cls-1" d="M0,90.66c44.67,44.1,96.72-11.36,145.23-30.81,52.12-16.39,95.6,12.17,136.77,57.8-44.67-44.11-96.72,11.36-145.23,30.81-52.13,16.39-95.6-12.18-136.77-57.79Z"/></g></svg>