<?xml version="1.0" encoding="UTF-8"?><svg id="Line" xmlns="http://www.w3.org/2000/svg" viewBox="0 0 237 237"><defs><style>.cls-1{opacity:.24;}.cls-1,.cls-2{fill:#fff;stroke-width:0px;}</style></defs><g id="Icon_3"><g id="Icon_3_Lines"><path class="cls-2" d="M187.48,154.04c-1.44,2.69-3.42,4.86-5.52,6.83-2.1,1.96-4.4,3.64-6.74,5.23-4.7,3.15-9.7,5.77-14.82,8.05-2.55,1.16-5.16,2.2-7.78,3.2-2.65.94-5.33,1.87-8.04,2.58-5.42,1.48-10.92,2.59-16.42,3.48-11,1.83-22.07,2.92-32.84,5.1-5.36,1.11-10.7,2.48-15.54,4.77l-1.81.87-1.78,1c-1.17.69-2.33,1.4-3.46,2.15-2.26,1.5-4.42,3.14-6.36,4.97-.14.13-1.09.94-2.3,2.21-1.21,1.26-2.67,3-3.69,4.94-.51.96-.9,1.98-1.08,2.93-.19.95-.13,1.85.19,2.42.16.27.38.45.62.57.25.09.51.14.74.12.46,0,.75-.09.8.02.04.07-.15.33-.68.55-.26.11-.62.19-1.06.14-.43-.07-.93-.3-1.3-.71-.36-.42-.6-.94-.75-1.5-.12-.56-.19-1.16-.15-1.76.05-1.21.37-2.44.83-3.6.92-2.33,2.35-4.38,3.56-5.85,1.2-1.48,2.17-2.41,2.32-2.55,2.09-1.98,4.37-3.7,6.73-5.27,1.18-.79,2.39-1.52,3.61-2.24l1.85-1.04,1.94-.94c5.21-2.45,10.71-3.85,16.2-4.99,10.99-2.22,22.05-3.31,32.95-5.12,5.45-.88,10.85-1.97,16.13-3.41,2.66-.69,5.22-1.58,7.8-2.5,2.57-.98,5.12-1.99,7.61-3.13,5.01-2.23,9.87-4.79,14.4-7.82,2.24-1.53,4.44-3.13,6.4-4.96,1.95-1.82,3.74-3.82,4.92-6.04.06-.07.2-.37.41-.84.1-.23.25-.51.36-.81.11-.3.21-.65.3-1.04.18-.79.29-1.74.26-2.73-.02-.99-.21-2.02-.64-2.84-.11-.2-.23-.39-.37-.56-.13-.18-.33-.33-.37-.39-.16-.14-.39-.29-.65-.26-.25.01-.48.31-.32.51.1.21.26.4.46.58.2.17.44.33.7.4.11.03.31.02.34-.04.02.03.06-.05.07-.15.01-.41-.09-.74.02-.77.07-.03.34.12.55.7.02.08.04.16.05.27-.02.12,0,.25-.11.38-.13.23-.3.26-.51.32-.39.07-.98-.03-1.63-.46-.63-.41-1.22-1.1-1.37-1.66-.27-.5.13-1.41.82-1.7.68-.34,1.56-.21,2.36.25.21.09.41.26.55.35.15.11.29.22.42.35.27.25.49.53.7.82.79,1.18,1.14,2.5,1.29,3.72.15,1.23.12,2.38-.03,3.38-.06.5-.17.98-.29,1.41-.12.42-.27.76-.38,1.06-.23.6-.39.99-.45,1.07Z"/><path class="cls-2" d="M84.28,52.06c-2.22,1.18-4.22,2.97-6.04,4.92-1.83,1.95-3.43,4.15-4.96,6.4-3.03,4.52-5.59,9.39-7.82,14.4-1.14,2.5-2.15,5.05-3.13,7.61-.91,2.58-1.81,5.14-2.5,7.8-1.44,5.28-2.53,10.68-3.41,16.13-1.81,10.89-2.9,21.95-5.12,32.95-1.14,5.48-2.54,10.99-4.99,16.2l-.94,1.94-1.04,1.85c-.72,1.22-1.45,2.43-2.24,3.61-1.57,2.36-3.29,4.64-5.27,6.73-.14.15-1.07,1.12-2.55,2.32-1.47,1.21-3.52,2.64-5.85,3.56-1.16.46-2.39.78-3.6.83-.6.04-1.2-.03-1.76-.15-.56-.15-1.09-.39-1.5-.75-.41-.38-.65-.87-.71-1.3-.05-.44.03-.8.14-1.06.21-.53.48-.71.55-.68.11.05.02.34.02.8-.01.23.03.49.12.74.12.24.29.46.57.62.57.32,1.46.38,2.42.19.96-.18,1.97-.57,2.93-1.08,1.94-1.02,3.68-2.48,4.94-3.69,1.27-1.21,2.07-2.16,2.21-2.3,1.84-1.94,3.47-4.1,4.97-6.36.75-1.13,1.46-2.29,2.15-3.46l1-1.78.87-1.81c2.29-4.84,3.66-10.17,4.77-15.54,2.18-10.77,3.27-21.84,5.1-32.84.89-5.5,2-11,3.48-16.42.7-2.72,1.64-5.4,2.58-8.04,1-2.62,2.03-5.22,3.2-7.78,2.29-5.12,4.91-10.12,8.05-14.82,1.59-2.34,3.27-4.64,5.23-6.74,1.96-2.09,4.13-4.08,6.83-5.52.08-.07.47-.23,1.07-.45.31-.11.64-.26,1.06-.38.43-.12.9-.22,1.41-.29,1.01-.14,2.16-.18,3.38-.03,1.22.15,2.54.5,3.72,1.29.29.21.57.43.82.7.13.12.24.27.35.42.1.14.27.34.35.55.46.81.59,1.68.25,2.36-.29.69-1.2,1.09-1.7.82-.56-.15-1.24-.73-1.66-1.37-.43-.65-.53-1.24-.46-1.63.05-.2.09-.38.32-.51.13-.11.26-.09.38-.11.11,0,.19.03.27.05.58.21.72.48.7.55-.04.11-.36,0-.77.02-.1,0-.17.05-.15.07-.06.03-.07.22-.04.34.07.26.23.5.4.7.17.2.37.36.58.46.2.16.49-.07.51-.32.03-.26-.12-.49-.26-.65-.06-.04-.21-.24-.39-.37-.16-.14-.36-.26-.56-.37-.82-.43-1.85-.62-2.84-.64-.99-.03-1.95.08-2.73.26-.4.08-.75.19-1.04.3-.3.11-.58.27-.81.37-.46.21-.76.35-.84.41Z"/><path class="cls-2" d="M55.01,165.39c.53-1.95,1.58-3.64,2.79-5.08,1.22-1.44,2.59-2.69,4.04-3.77,2.9-2.19,6.03-3.93,9.23-5.45,3.2-1.54,6.48-2.83,9.79-4.03,1.66-.59,3.32-1.15,5-1.68.84-.27,1.68-.52,2.52-.77l5-1.44-1.44,5c-.25.84-.51,1.68-.77,2.52-.53,1.68-1.09,3.34-1.68,5-1.19,3.31-2.49,6.59-4.02,9.79-1.53,3.2-3.26,6.33-5.45,9.23-1.09,1.45-2.34,2.82-3.77,4.04-1.44,1.2-3.12,2.26-5.08,2.79-.13.05-1.06.28-2.39.23-1.34.01-3.01-.47-4.4-1.26-2.86-1.55-4.51-4.08-4.26-4.29.14-.14.8.21,1.68.8.52.29,1.05.59,1.57.88.59.26,1.19.6,1.84.78,1.27.44,2.56.61,3.52.47.96-.1,1.61-.32,1.71-.36,2.86-.79,5.32-3.18,7.32-5.8,2.01-2.66,3.68-5.65,5.15-8.73,1.48-3.08,2.75-6.28,3.91-9.52.58-1.62,1.13-3.25,1.64-4.9.26-.82.51-1.65.76-2.47h0s0,0,0,0c-.83.24-1.65.5-2.47.76-1.65.52-3.28,1.07-4.9,1.64-3.24,1.16-6.44,2.43-9.52,3.91-3.08,1.47-6.07,3.14-8.73,5.15-2.62,2-5.01,4.46-5.8,7.32-.04.1-.27.75-.36,1.71-.14.96.03,2.25.47,3.52.18.65.52,1.25.78,1.84.29.52.59,1.04.88,1.57.58.89.93,1.54.8,1.68-.21.24-2.74-1.41-4.29-4.26-.78-1.39-1.27-3.06-1.26-4.4-.04-1.33.19-2.27.23-2.39Z"/><path class="cls-2" d="M52.28,159.27c-.32,1.39-.85,2.5-1.39,3.62-.55,1.11-1.16,2.14-1.78,3.17-1.25,2.05-2.6,4-3.98,5.93-2.77,3.85-5.69,7.55-8.7,11.19-3.01,3.63-6.09,7.2-9.35,10.65l-1.25,1.28c-.41.42-.9.87-1.23,1.23-.74.76-1.36,1.58-1.8,2.47-.44.89-.68,1.83-.71,2.78-.01.95.18,1.92.58,2.82.03.12.6,1.79,1.78,3.15.56.67,1.24,1.25,1.75,1.51.26.12.44.21.64.19.19,0,.31-.04.37.04.06.07.05.26-.13.47-.16.23-.62.39-1.07.39-.94.01-1.99-.46-2.9-1.09-1.87-1.24-3.02-3.35-3.07-3.53-.55-1.24-.83-2.63-.81-4.02.04-1.39.4-2.77,1.01-3.98.6-1.22,1.41-2.28,2.31-3.2.47-.5.84-.83,1.26-1.26l1.2-1.24c3.18-3.37,6.25-6.91,9.22-10.5,2.97-3.6,5.86-7.26,8.58-11.04,1.35-1.89,2.66-3.8,3.86-5.76.58-.98,1.17-1.96,1.66-2.96.49-.99.95-2.02,1.15-2.93,0-.03.04-.15.09-.32.03-.09.02-.16.05-.26.01-.05.02-.1.03-.15,0-.07,0-.15,0-.24,0-.68-.06-1.62-.2-2.54-.13-.92-.34-1.82-.54-2.47-.19-.66-.43-1.04-.31-1.22.1-.16.69.02,1.25.63.58.59,1.12,1.52,1.54,2.49.42.98.72,2,.88,2.86.02.11.04.22.05.32,0,.13.01.25.02.36,0,.22.02.44,0,.59-.04.32-.07.5-.07.55Z"/><path class="cls-2" d="M52.96,164.24c-1.42-6.1-3.92-12-7.55-17.04-1.82-2.49-3.95-4.81-6.44-6.37-1.24-.77-2.57-1.34-3.87-1.48-1.3-.15-2.5.22-3.5,1-.09.01-1.02.64-1.93,1.54-.89.89-1.68,1.99-2.07,1.84-.34-.13-.22-1.54.37-2.94.58-1.39,1.71-2.65,1.87-2.69,1.52-1.21,3.64-1.83,5.55-1.58,1.92.22,3.61.98,5.09,1.9,2.98,1.88,5.26,4.43,7.24,7.12,3.91,5.43,6.51,11.64,8.02,18.07.03.11.2,1.54.18,2.95-.02,1.41-.21,2.78-.59,2.83h0c-.4.05-.92-1.21-1.4-2.48-.48-1.27-.94-2.54-.97-2.65Z"/><path class="cls-2" d="M78.1,187.29c-.91.2-1.94.66-2.93,1.15-1,.49-1.98,1.08-2.96,1.66-1.96,1.2-3.87,2.51-5.76,3.86-3.77,2.71-7.44,5.6-11.04,8.58-3.59,2.98-7.13,6.04-10.5,9.22l-1.24,1.2c-.42.41-.76.79-1.26,1.26-.92.9-1.98,1.71-3.2,2.31-1.21.6-2.59.97-3.98,1.01-1.39.02-2.78-.27-4.02-.81-.18-.04-2.29-1.2-3.53-3.07-.63-.91-1.1-1.96-1.09-2.9,0-.45.16-.92.39-1.07.21-.18.41-.18.47-.13.08.07.04.19.04.38-.02.2.07.37.19.64.25.51.84,1.19,1.51,1.75,1.35,1.17,3.03,1.75,3.15,1.78.91.4,1.87.59,2.82.58.95-.03,1.9-.27,2.78-.71.89-.44,1.72-1.06,2.47-1.8.36-.33.81-.83,1.23-1.23l1.28-1.25c3.45-3.26,7.02-6.34,10.65-9.35,3.64-3,7.34-5.93,11.19-8.7,1.93-1.38,3.89-2.72,5.93-3.98,1.03-.62,2.07-1.23,3.17-1.78,1.11-.54,2.23-1.08,3.62-1.39.04,0,.23-.03.55-.07.15-.02.37,0,.59,0,.11,0,.23.01.36.02.1.02.21.03.32.05.86.15,1.88.46,2.86.88.97.42,1.9.96,2.49,1.54.61.56.79,1.15.63,1.25-.17.12-.56-.12-1.22-.31-.65-.21-1.54-.41-2.47-.54-.92-.13-1.87-.21-2.54-.2-.08,0-.16,0-.24,0-.05.01-.1.02-.15.03-.1.02-.17.02-.26.05-.18.06-.29.09-.32.09Z"/><path class="cls-2" d="M73.18,181.03c6.44,1.51,12.64,4.11,18.07,8.02,2.69,1.98,5.24,4.26,7.12,7.24.92,1.49,1.68,3.18,1.9,5.09.24,1.91-.37,4.03-1.58,5.55-.04.15-1.31,1.29-2.69,1.87-1.39.59-2.81.71-2.94.37-.15-.39.95-1.18,1.84-2.07.89-.9,1.52-1.84,1.54-1.93.78-1.01,1.15-2.2,1-3.5-.14-1.3-.71-2.63-1.48-3.87-1.56-2.49-3.89-4.62-6.37-6.44-5.04-3.63-10.94-6.13-17.04-7.55-.11-.03-1.38-.49-2.65-.97-1.26-.48-2.52-1-2.48-1.4.04-.38,1.42-.57,2.83-.59,1.41-.02,2.83.14,2.95.18Z"/><path class="cls-2" d="M42.44,218.35c-3.27,3.02-7.79,4.5-12.13,4.49-2.19,0-4.36-.34-6.44-1.01-2.08-.69-4.1-1.64-5.86-3.3-1.65-1.76-2.61-3.78-3.3-5.86-.67-2.08-1.01-4.26-1.01-6.44-.01-4.35,1.47-8.87,4.49-12.14.06-.05.42-.43.97-.89.56-.45,1.31-1,2.17-1.44.42-.22.9-.41,1.37-.53.25-.05.5-.09.78-.08.13,0,.3.04.43.06.17.07.31.11.45.25.15.12.23.28.27.44.03.15.03.29,0,.39-.05.21-.15.34-.23.43-.18.17-.32.2-.4.14-.08-.06-.1-.2-.13-.36-.01-.08-.04-.17-.08-.22-.13,0,.11-.1-.01,0,0,0,0,.02,0,.03-.01.02-.03.06-.04.08-.02.05,0,.03-.01.04-.04.03-.05.04-.1.07-.09.05-.21.13-.33.21-.26.2-.53.42-.81.7-.55.54-1.08,1.16-1.47,1.66-.4.54-.64.87-.67.91-2.54,2.74-3.77,6.49-3.77,10.24,0,1.88.29,3.78.87,5.57.57,1.78,1.46,3.5,2.6,4.72,1.21,1.14,2.94,2.03,4.72,2.6,1.79.58,3.69.87,5.57.87,3.75,0,7.5-1.23,10.24-3.77.04-.03.36-.27.91-.67.49-.4,1.11-.93,1.66-1.47.28-.27.51-.55.7-.81.08-.12.16-.24.21-.33.03-.05.04-.06.07-.1.01,0,0,0,.04-.01.03-.01.06-.03.08-.04,0,0,.02,0,.03,0,.09-.12,0,.11,0-.01-.05-.04-.13-.07-.22-.08-.16-.03-.31-.04-.36-.13-.05-.08-.02-.22.14-.4.09-.09.22-.18.43-.23.11-.02.25-.03.39,0,.16.05.32.13.44.27.14.15.18.28.25.45.03.13.06.3.06.43,0,.27-.03.52-.08.78-.12.47-.3.95-.53,1.37-.44.86-.99,1.61-1.44,2.17-.46.55-.84.91-.89.97Z"/><path class="cls-2" d="M207.29,38.83c-3.52,6.1-6.59,12.36-9.21,18.93-.68,1.63-1.36,3.31-2.2,4.95-.44.82-.84,1.66-1.41,2.43l-.8,1.18c-.29.38-.62.72-.93,1.08l-.95,1.07-1.05.93-1.05.93c-.35.31-.74.55-1.1.83-.75.53-1.48,1.1-2.24,1.59l-2.3,1.43c-1.52.97-3.11,1.78-4.66,2.68-.8.45-1.51.84-2.24,1.29-.73.44-1.44.93-2.14,1.42-2.81,2-5.49,4.25-8.08,6.61-5.18,4.73-10.05,9.83-14.77,15.07-9.42,10.51-18.25,21.55-26.69,32.89-8.4,11.35-16.48,22.98-23.66,35.1-.24.44-3.51,5.55-6.27,10.77-1.38,2.6-2.62,5.25-3.28,7.29-.35,1.02-.53,1.88-.58,2.48-.05.31-.04.54-.04.71-.01.17-.04.28-.08.29s-.11-.06-.2-.22c-.1-.16-.2-.42-.25-.75-.14-.67-.12-1.65.07-2.77.36-2.26,1.35-5.11,2.53-7.89,2.35-5.57,5.38-10.91,5.63-11.35,7.26-12.27,15.38-23.94,23.83-35.36,8.48-11.39,17.36-22.5,26.86-33.09,4.76-5.28,9.68-10.45,14.97-15.27,2.65-2.41,5.4-4.73,8.36-6.84.75-.52,1.5-1.03,2.29-1.51.77-.48,1.62-.94,2.36-1.37,1.51-.88,3.09-1.68,4.55-2.62l2.21-1.38c.73-.47,1.39-.99,2.1-1.49.34-.26.71-.49,1.02-.76l.94-.83.94-.83.81-.92c2.2-2.43,3.49-5.59,4.85-8.86,2.63-6.59,5.81-13.08,9.37-19.26.13-.21,1-1.59,2.27-3.61.31-.49.65-1.02,1.01-1.58.37-.54.77-1.11,1.18-1.7.81-1.15,1.67-2.38,2.54-3.63.85-1.23,1.75-2.42,2.61-3.52.85-1.1,1.65-2.12,2.35-2.98,1.39-1.72,2.38-2.82,2.54-2.7.16.11-.52,1.42-1.62,3.33-.55.95-1.22,2.06-1.94,3.24-.73,1.18-1.51,2.44-2.24,3.73-.77,1.3-1.52,2.59-2.23,3.79-.36.61-.71,1.2-1.04,1.76-.32.57-.62,1.12-.9,1.62-1.15,2.05-1.93,3.46-2.05,3.67Z"/><path class="cls-2" d="M199.59,32.18c-6.17,3.56-12.66,6.74-19.26,9.37-3.28,1.36-6.43,2.65-8.86,4.85l-.92.81-.83.94-.83.94c-.28.31-.51.68-.76,1.02-.49.7-1.02,1.37-1.49,2.1l-1.38,2.21c-.93,1.46-1.74,3.04-2.62,4.55-.42.74-.88,1.59-1.37,2.36-.48.78-.99,1.54-1.51,2.29-2.11,2.96-4.42,5.71-6.83,8.36-4.83,5.29-9.99,10.2-15.27,14.97-10.6,9.5-21.7,18.38-33.09,26.86-11.42,8.45-23.09,16.57-35.36,23.83-.44.25-5.78,3.28-11.35,5.63-2.78,1.18-5.63,2.17-7.89,2.53-1.12.2-2.1.21-2.77.07-.34-.05-.59-.15-.75-.25-.16-.09-.24-.15-.22-.2.02-.05.12-.07.29-.08.17,0,.4,0,.71-.04.6-.05,1.47-.23,2.48-.58,2.04-.66,4.68-1.9,7.29-3.28,5.22-2.76,10.33-6.03,10.77-6.27,12.12-7.17,23.75-15.25,35.1-23.66,11.33-8.43,22.38-17.27,32.89-26.69,5.24-4.72,10.35-9.59,15.07-14.77,2.36-2.59,4.61-5.27,6.61-8.08.49-.71.97-1.42,1.42-2.14.45-.73.84-1.44,1.29-2.24.9-1.55,1.71-3.13,2.68-4.66l1.43-2.3c.49-.76,1.06-1.49,1.59-2.24.28-.37.52-.75.83-1.1l.93-1.05.93-1.05,1.07-.95c.36-.31.7-.64,1.08-.93l1.18-.8c.77-.57,1.61-.97,2.43-1.41,1.65-.84,3.32-1.52,4.95-2.2,6.57-2.62,12.83-5.69,18.93-9.21.21-.12,1.62-.9,3.67-2.05.51-.28,1.05-.58,1.62-.9.56-.33,1.15-.68,1.76-1.04,1.2-.71,2.48-1.46,3.79-2.23,1.29-.73,2.55-1.51,3.73-2.24,1.18-.72,2.29-1.39,3.24-1.94,1.91-1.11,3.22-1.78,3.33-1.62.11.16-.98,1.14-2.7,2.54-.86.7-1.88,1.5-2.98,2.35-1.1.86-2.28,1.76-3.52,2.61-1.25.87-2.48,1.74-3.63,2.54-.59.41-1.16.8-1.7,1.18-.56.36-1.09.7-1.58,1.01-2.02,1.27-3.4,2.14-3.61,2.27Z"/><path class="cls-2" d="M101.24,133.49c12.87-12.38,25.97-24.51,39.37-36.31,6.69-5.91,13.48-11.72,20.4-17.38,6.89-5.69,13.97-11.18,21.33-16.32.27-.17,3.5-2.3,6.91-4.01.85-.43,1.66-.91,2.48-1.24.82-.34,1.59-.65,2.25-.89,1.32-.49,2.22-.74,2.3-.56s-.66.77-1.8,1.55c-.57.39-1.25.83-1.97,1.29-.73.46-1.46,1.05-2.22,1.58-3.06,2.11-6.06,4.46-6.33,4.63-7.26,5.06-14.29,10.51-21.15,16.18-6.88,5.64-13.64,11.43-20.32,17.32-13.37,11.77-26.44,23.88-39.28,36.22-.23.22-3.08,2.77-5.96,5.2-2.85,2.45-5.71,4.78-5.99,4.5-.28-.28,2.08-3.12,4.58-5.94,2.51-2.8,5.15-5.6,5.38-5.82Z"/><path class="cls-2" d="M100.99,133.31c12.35-12.84,24.46-25.91,36.22-39.28,5.89-6.68,11.68-13.44,17.32-20.32,5.66-6.86,11.12-13.89,16.18-21.15.17-.27,2.52-3.27,4.63-6.33.53-.76,1.12-1.49,1.58-2.22.46-.73.9-1.4,1.29-1.97.78-1.14,1.37-1.88,1.55-1.8.18.08-.07.97-.56,2.3-.25.66-.55,1.43-.89,2.25-.34.83-.81,1.63-1.24,2.48-1.71,3.41-3.83,6.64-4.01,6.91-5.14,7.37-10.63,14.44-16.32,21.33-5.67,6.91-11.47,13.7-17.38,20.4-11.8,13.41-23.93,26.51-36.31,39.37-.22.23-3.01,2.87-5.82,5.38-2.83,2.5-5.67,4.85-5.94,4.58-.28-.28,2.06-3.14,4.5-5.99,2.43-2.87,4.99-5.72,5.2-5.96Z"/></g><path id="Icon_3_Shape" class="cls-1" d="M142.41,237h0s0,0,0,0c-66.4-33.58-11.01-131.4-11.01-131.4C131.4,105.6,33.58,160.99,0,94.59h0s0,0,0,0C66.4,128.17,170.6,33.58,237,0h0s0,0,0,0c-33.58,66.4-128.17,170.6-94.59,237Z"/></g></svg>