<?xml version="1.0" encoding="UTF-8"?><svg id="Line" xmlns="http://www.w3.org/2000/svg" viewBox="0 0 234.83 234.83"><defs><style>.cls-1{opacity:.24;}.cls-2{fill:#fff;stroke-width:0px;}</style></defs><g id="Icon_14"><g id="Icon_14_Lines"><path class="cls-2" d="M180.77,88.94c-1.46,2.74-3.48,4.95-5.62,6.95-2.14,2-4.49,3.71-6.87,5.33-4.79,3.21-9.88,5.88-15.1,8.21-2.6,1.18-5.26,2.24-7.93,3.26-2.7.96-5.43,1.91-8.2,2.63-5.53,1.51-11.13,2.64-16.74,3.55-11.21,1.86-22.49,2.98-33.47,5.2-5.47,1.13-10.9,2.53-15.84,4.87l-1.84.88-1.81,1.02c-1.2.7-2.38,1.42-3.53,2.19-2.3,1.53-4.5,3.2-6.48,5.07-.14.13-1.11.96-2.35,2.25-1.24,1.28-2.72,3.07-3.76,5.04-.52.98-.92,2.02-1.1,3-.19.98-.13,1.89.2,2.47.17.28.39.46.64.58.25.09.52.14.75.12.47,0,.76-.1.81,0,.04.07-.16.34-.69.55-.26.12-.63.19-1.08.14-.44-.07-.94-.3-1.32-.72-.36-.42-.61-.96-.76-1.53-.12-.57-.19-1.18-.15-1.79.05-1.23.38-2.48.85-3.66.94-2.37,2.4-4.46,3.63-5.95,1.23-1.51,2.21-2.45,2.36-2.59,2.13-2.01,4.45-3.77,6.86-5.37,1.2-.8,2.43-1.55,3.68-2.28l1.88-1.06,1.98-.95c5.3-2.5,10.91-3.92,16.5-5.09,11.2-2.26,22.47-3.37,33.58-5.22,5.55-.9,11.06-2.01,16.44-3.48,2.71-.7,5.32-1.62,7.95-2.55,2.62-1,5.22-2.03,7.76-3.19,5.1-2.28,10.07-4.89,14.68-7.97,2.29-1.56,4.53-3.19,6.52-5.06,1.99-1.85,3.81-3.9,5.02-6.16.1-.1.32-.68.74-1.54.31-.82.61-2.11.62-3.53.02-1.4-.25-3-1.08-3.98-.27-.28-.32-.35-.46-.45-.14-.09-.31-.18-.5-.16-.19,0-.36.14-.41.31-.03.17.1.31.19.45.17.23.41.45.68.61.14.08.29.15.45.16.08.02.16,0,.22-.02.03,0,.04-.02.06-.04.07-.14.04-.45.01-.61-.02-.18-.01-.29.04-.32.05-.03.14.04.27.19.07.07.14.17.2.31.07.13.14.3.12.57,0,.15-.07.29-.19.41-.09.08-.19.14-.3.17-.22.07-.49.08-.81,0-.64-.14-1.49-.72-2.02-1.43-.14-.2-.24-.42-.32-.63-.05-.2-.14-.39-.08-.64.09-.49.46-.96.97-1.17.5-.22,1.09-.21,1.69,0,.3.08.59.27.88.42.29.22.48.33.67.52.78.72,1.28,1.64,1.6,2.54.32.91.48,1.83.55,2.7.14,1.74-.08,3.3-.44,4.5-.42,1.1-.69,1.86-.8,1.98Z"/><path class="cls-2" d="M89.01,181.63c2.1-1.11,4-2.81,5.73-4.66,1.73-1.86,3.26-3.95,4.71-6.08,2.88-4.3,5.31-8.92,7.43-13.69,1.08-2.37,2.05-4.8,2.98-7.24.87-2.45,1.72-4.89,2.37-7.42,1.37-5.02,2.41-10.15,3.25-15.34,1.72-10.36,2.76-20.88,4.87-31.35,1.09-5.22,2.42-10.46,4.76-15.42l.89-1.85.99-1.76c.68-1.16,1.39-2.31,2.13-3.44,1.5-2.25,3.14-4.42,5.02-6.42.14-.14,1.02-1.06,2.43-2.21,1.4-1.15,3.36-2.51,5.58-3.38,1.11-.43,2.28-.74,3.44-.78,1.14-.06,2.31.17,3.12.87.4.36.62.84.68,1.25.04.42-.03.77-.14,1.01-.21.5-.47.68-.53.64-.11-.05-.03-.33-.03-.76.01-.21-.03-.46-.12-.69-.11-.22-.28-.42-.53-.58-.53-.29-1.38-.35-2.28-.17-.9.17-1.86.55-2.77,1.04-1.83.98-3.49,2.36-4.68,3.52-1.2,1.15-1.96,2.06-2.09,2.19-1.74,1.84-3.3,3.9-4.72,6.04-.71,1.07-1.39,2.17-2.04,3.29l-.95,1.69-.82,1.72c-2.17,4.6-3.48,9.67-4.53,14.77-2.07,10.24-3.11,20.77-4.85,31.24-.85,5.24-1.9,10.47-3.31,15.63-.67,2.59-1.56,5.14-2.45,7.66-.95,2.49-1.94,4.97-3.04,7.4-2.18,4.88-4.67,9.63-7.67,14.11-1.52,2.23-3.11,4.42-4.98,6.42-1.87,2-3.94,3.89-6.51,5.26-.11.1-.82.35-1.86.75-1.14.33-2.61.53-4.25.4-.82-.07-1.68-.22-2.54-.53-.85-.31-1.73-.79-2.4-1.53-.17-.18-.3-.39-.46-.6-.15-.27-.31-.55-.4-.83-.19-.56-.22-1.14,0-1.63.2-.49.66-.84,1.13-.93.23-.04.41.04.6.08.21.09.41.15.63.31.18.14.35.28.51.46.16.17.32.33.44.52.23.39.36.74.4,1.03.03.28.03.52-.06.7-.02.05-.04.09-.07.14-.02.03-.08.13-.06.09-.05.04-.14.11-.21.15-.07.02-.14.03-.21.04-.25.01-.41-.06-.53-.13-.13-.06-.22-.13-.29-.19-.14-.12-.19-.21-.17-.26.03-.05.13-.06.3-.05.15.02.44.05.56-.02,0-.04.06.05,0-.03.1-.11.07-.15.07-.23,0-.15-.07-.29-.14-.42-.15-.26-.35-.49-.56-.65-.14-.09-.27-.2-.42-.2-.16.03-.28.19-.3.36-.02.17.06.34.15.46.04.07.09.12.15.17.09.08.19.21.3.29.89.76,2.37,1.01,3.67.99,1.32-.01,2.52-.3,3.28-.58.79-.39,1.33-.59,1.43-.69Z"/><path class="cls-2" d="M110.37,98.07c1.74-5.29,2.82-10.89,3.83-16.48.99-5.6,1.86-11.25,2.8-16.9.94-5.65,1.95-11.3,3.23-16.92,1.31-5.61,2.83-11.23,5.29-16.59.04-.1.35-.71.88-1.53.26-.41.54-.89.88-1.38.34-.46.71-.95,1.11-1.48,1.56-1.98,3.54-3.47,3.79-3.18.28.3-1.07,2.18-2.1,4.28-.26.55-.51,1.08-.74,1.56-.23.5-.42,1-.6,1.42-.37.83-.59,1.44-.63,1.53-2.31,5.04-3.81,10.52-5.1,16.03-1.26,5.53-2.26,11.13-3.19,16.75-.94,5.63-1.8,11.28-2.81,16.93-1.02,5.65-2.11,11.31-3.94,16.89-.07.19-1.02,2.56-2.37,4.69-.67,1.07-1.49,2.04-2.17,2.68-.74.61-1.27.92-1.4.78s.11-.72.52-1.46c.36-.8.85-1.82,1.25-2.92.8-2.18,1.4-4.5,1.46-4.68Z"/><path class="cls-2" d="M98.98,113.07c-5.58,1.83-11.24,2.91-16.89,3.94-5.65,1-11.3,1.87-16.93,2.81-5.63.93-11.23,1.94-16.75,3.19-5.5,1.29-10.98,2.78-16.03,5.1-.09.04-.7.26-1.53.63-.42.18-.91.37-1.42.6-.48.23-1,.48-1.56.74-2.1,1.02-3.98,2.37-4.28,2.1-.28-.25,1.2-2.23,3.18-3.79.53-.39,1.03-.77,1.48-1.11.49-.34.97-.62,1.38-.88.83-.53,1.44-.84,1.53-.88,5.36-2.45,10.98-3.97,16.59-5.29,5.62-1.28,11.28-2.29,16.92-3.23,5.65-.94,11.3-1.81,16.9-2.8,5.59-1.01,11.19-2.09,16.48-3.83.19-.07,2.51-.66,4.68-1.46,1.1-.39,2.12-.88,2.92-1.25.74-.42,1.32-.66,1.46-.52s-.18.66-.78,1.4c-.64.68-1.61,1.5-2.68,2.17-2.13,1.36-4.49,2.3-4.69,2.37Z"/><path class="cls-2" d="M135.85,121.75c5.58-1.83,11.24-2.91,16.89-3.94,5.65-1,11.3-1.87,16.93-2.81,5.63-.93,11.23-1.94,16.75-3.19,5.5-1.29,10.98-2.78,16.03-5.1.09-.04.7-.26,1.53-.63.42-.18.91-.37,1.42-.6.48-.23,1-.48,1.56-.74,2.1-1.02,3.98-2.37,4.28-2.1.28.25-1.2,2.23-3.18,3.79-.53.39-1.03.77-1.48,1.11-.49.34-.97.62-1.38.88-.83.53-1.44.84-1.53.88-5.36,2.45-10.98,3.97-16.59,5.29-5.62,1.28-11.28,2.29-16.92,3.23-5.65.94-11.3,1.81-16.9,2.8-5.59,1.01-11.19,2.09-16.48,3.83-.19.07-2.51.66-4.68,1.46-1.1.39-2.12.88-2.92,1.25-.74.42-1.32.66-1.46.52s.18-.66.78-1.4c.64-.68,1.61-1.5,2.68-2.17,2.13-1.36,4.49-2.3,4.69-2.37Z"/><path class="cls-2" d="M124.46,136.76c-1.74,5.29-2.82,10.89-3.83,16.48-.99,5.6-1.86,11.25-2.8,16.9-.94,5.65-1.95,11.3-3.23,16.92-1.31,5.61-2.83,11.23-5.29,16.59-.04.1-.35.71-.88,1.53-.26.41-.54.89-.88,1.38-.34.46-.71.95-1.11,1.48-1.56,1.98-3.54,3.47-3.79,3.18-.28-.3,1.07-2.18,2.1-4.28.26-.55.51-1.08.74-1.56.23-.5.42-1,.6-1.42.37-.83.59-1.44.63-1.53,2.31-5.04,3.81-10.52,5.1-16.03,1.26-5.53,2.26-11.13,3.19-16.75.94-5.63,1.8-11.28,2.81-16.93,1.02-5.65,2.11-11.31,3.94-16.89.07-.19,1.02-2.56,2.37-4.69.67-1.07,1.49-2.04,2.17-2.68.74-.61,1.27-.92,1.4-.78s-.11.72-.52,1.46c-.36.8-.85,1.82-1.25,2.92-.8,2.18-1.4,4.5-1.46,4.68Z"/><path class="cls-2" d="M150.63,4.05c-2.35-1.13-5.08-1.44-7.64-1.01-1.28.24-2.53.65-3.7,1.25-1.15.62-2.2,1.4-3.15,2.31-.91.94-1.69,2-2.31,3.15-.59,1.16-1.01,2.41-1.25,3.7-.44,2.57-.12,5.29,1.01,7.64.03.09.36,1.17.82,2.24.12.27.23.54.33.8.11.25.23.49.31.71.16.44.23.79.09.93-.14.14-.47.05-.92-.19-.22-.12-.47-.27-.72-.45-.24-.19-.49-.41-.73-.64-.98-.91-1.73-2.09-1.76-2.2-1.38-2.89-1.77-6.2-1.23-9.34.29-1.57.8-3.1,1.53-4.52.76-1.41,1.71-2.7,2.82-3.85,1.15-1.11,2.44-2.07,3.85-2.82,1.42-.73,2.95-1.24,4.52-1.53,3.14-.54,6.46-.15,9.34,1.23.11.03,1.3.78,2.2,1.76.23.25.44.49.64.73.18.25.33.5.45.72.23.44.33.78.19.92-.14.14-.49.07-.93-.09-.22-.08-.45-.19-.71-.31-.26-.1-.54-.21-.8-.33-1.07-.46-2.15-.79-2.24-.82Z"/><path class="cls-2" d="M233.37,82.99c1.38,2.89,1.77,6.2,1.23,9.34-.29,1.57-.8,3.1-1.53,4.52-.76,1.41-1.71,2.7-2.82,3.85-1.15,1.11-2.44,2.07-3.85,2.82-1.42.73-2.95,1.24-4.52,1.53-3.14.54-6.46.15-9.34-1.23-.11-.03-1.29-.78-2.2-1.76-.23-.25-.44-.49-.64-.73-.18-.25-.33-.5-.45-.72-.23-.44-.32-.78-.19-.92.14-.14.49-.07.93.09.22.08.45.19.71.31.26.1.54.21.8.33,1.07.46,2.15.79,2.24.82,2.35,1.13,5.08,1.44,7.64,1.01,1.28-.24,2.53-.65,3.7-1.25,1.15-.62,2.2-1.4,3.15-2.31.91-.94,1.69-2,2.31-3.15.59-1.16,1.01-2.41,1.25-3.7.44-2.57.12-5.29-1.01-7.64-.03-.09-.36-1.17-.82-2.24-.12-.27-.23-.54-.33-.8-.11-.25-.23-.49-.31-.71-.16-.44-.23-.79-.09-.93.14-.14.47-.05.92.19.22.12.47.26.72.45.24.19.49.41.73.64.99.91,1.73,2.09,1.76,2.2Z"/><path class="cls-2" d="M145.71,31.16c5.3,4.37,10.37,8.95,15.38,13.6,5,4.66,9.91,9.4,14.74,14.23,4.83,4.83,9.57,9.74,14.23,14.74,4.65,5,9.24,10.07,13.6,15.38.15.19,1.92,2.57,3.43,5.08.75,1.26,1.43,2.55,1.81,3.61.41,1.04.36,1.89.16,1.89-.2,0-.47-.56-1.14-1.37-.63-.81-1.53-1.88-2.47-2.95-1.87-2.13-3.85-4.26-4-4.45-4.3-5.22-8.86-10.26-13.48-15.24-4.63-4.97-9.36-9.86-14.16-14.67-4.81-4.8-9.7-9.53-14.67-14.16-4.98-4.63-10.02-9.19-15.24-13.48-.19-.15-2.32-2.13-4.45-4-1.07-.93-2.13-1.83-2.95-2.47-.81-.66-1.38-.93-1.37-1.14,0-.2.85-.25,1.89.16,1.05.38,2.35,1.06,3.61,1.81,2.51,1.51,4.89,3.27,5.08,3.43Z"/><path class="cls-2" d="M162.91,14.36c4.3,5.22,8.86,10.26,13.48,15.24,4.63,4.97,9.36,9.86,14.16,14.67,4.81,4.8,9.7,9.53,14.67,14.16,4.97,4.63,10.02,9.19,15.24,13.48.19.15,2.32,2.13,4.45,4,1.07.93,2.13,1.83,2.95,2.47.81.66,1.38.93,1.37,1.14,0,.2-.85.25-1.89-.16-1.05-.38-2.35-1.06-3.61-1.81-2.51-1.51-4.89-3.27-5.08-3.43-5.3-4.37-10.37-8.95-15.38-13.6-5-4.66-9.91-9.4-14.74-14.23-4.83-4.83-9.57-9.74-14.23-14.74-4.65-5-9.24-10.07-13.6-15.38-.15-.19-1.92-2.57-3.43-5.08-.75-1.26-1.43-2.55-1.81-3.61-.41-1.04-.36-1.89-.16-1.89.2,0,.47.56,1.14,1.37.63.81,1.53,1.88,2.47,2.95,1.87,2.13,3.85,4.26,4,4.45Z"/><path class="cls-2" d="M1.46,151.84c-1.38-2.89-1.77-6.2-1.23-9.34.29-1.57.8-3.1,1.53-4.52.76-1.41,1.71-2.7,2.82-3.85,1.15-1.11,2.44-2.07,3.85-2.82,1.42-.73,2.95-1.24,4.52-1.53,3.14-.54,6.46-.15,9.34,1.23.11.03,1.29.78,2.2,1.76.23.25.44.49.64.73.18.25.33.5.45.72.23.44.32.78.19.92-.14.14-.49.07-.93-.09-.22-.08-.45-.19-.71-.31-.26-.1-.54-.21-.8-.33-1.07-.46-2.15-.79-2.24-.82-2.35-1.13-5.08-1.44-7.64-1.01-1.28.24-2.53.65-3.7,1.25-1.15.62-2.2,1.4-3.15,2.31-.91.94-1.69,2-2.31,3.15-.59,1.16-1.01,2.41-1.25,3.7-.44,2.57-.12,5.29,1.01,7.64.03.09.36,1.17.82,2.24.12.27.23.54.33.8.11.25.23.49.31.71.16.44.23.79.09.93-.14.14-.47.05-.92-.19-.22-.12-.47-.26-.72-.45-.24-.19-.49-.41-.73-.64-.99-.91-1.73-2.09-1.76-2.2Z"/><path class="cls-2" d="M84.2,230.78c2.35,1.13,5.08,1.44,7.64,1.01,1.28-.24,2.53-.65,3.7-1.25,1.15-.62,2.2-1.4,3.15-2.31.91-.94,1.69-2,2.31-3.15.59-1.16,1.01-2.41,1.25-3.7.44-2.57.12-5.29-1.01-7.64-.03-.09-.36-1.17-.82-2.24-.12-.27-.23-.54-.33-.8-.11-.25-.23-.49-.31-.71-.16-.44-.23-.79-.09-.93.14-.14.47-.05.92.19.22.12.47.27.72.45.24.19.49.41.73.64.98.91,1.73,2.09,1.76,2.2,1.38,2.89,1.77,6.2,1.23,9.34-.29,1.57-.8,3.1-1.53,4.52-.76,1.41-1.71,2.7-2.82,3.85-1.15,1.11-2.44,2.07-3.85,2.82-1.42.73-2.95,1.24-4.52,1.53-3.14.54-6.46.15-9.34-1.23-.11-.03-1.3-.78-2.2-1.76-.23-.25-.44-.49-.64-.73-.18-.25-.33-.5-.45-.72-.23-.44-.33-.78-.19-.92.14-.14.49-.07.93.09.22.08.45.19.71.31.26.1.54.21.8.33,1.07.46,2.15.79,2.24.82Z"/><path class="cls-2" d="M33.37,143.9c4.3,5.22,8.86,10.26,13.48,15.24,4.63,4.97,9.36,9.86,14.16,14.67,4.81,4.8,9.7,9.53,14.67,14.16,4.98,4.63,10.02,9.19,15.24,13.48.19.15,2.32,2.13,4.45,4,1.07.93,2.13,1.83,2.95,2.47.81.66,1.38.93,1.37,1.14,0,.2-.85.25-1.89-.16-1.05-.38-2.35-1.06-3.61-1.81-2.51-1.51-4.89-3.27-5.08-3.43-5.3-4.37-10.37-8.95-15.38-13.6-5-4.66-9.91-9.4-14.74-14.23-4.83-4.83-9.57-9.74-14.23-14.74-4.65-5-9.24-10.07-13.6-15.38-.15-.19-1.92-2.57-3.43-5.08-.75-1.26-1.43-2.55-1.81-3.61-.41-1.04-.36-1.89-.16-1.89.2,0,.47.56,1.14,1.37.63.81,1.53,1.88,2.47,2.95,1.87,2.13,3.85,4.26,4,4.45Z"/><path class="cls-2" d="M16.17,160.7c5.3,4.37,10.37,8.95,15.38,13.6,5,4.66,9.91,9.4,14.74,14.23,4.83,4.83,9.57,9.74,14.23,14.74,4.65,5,9.24,10.07,13.6,15.38.15.19,1.92,2.57,3.43,5.08.75,1.26,1.43,2.55,1.81,3.61.41,1.04.36,1.89.16,1.89-.2,0-.47-.56-1.14-1.37-.63-.81-1.53-1.88-2.47-2.95-1.87-2.13-3.85-4.26-4-4.45-4.3-5.22-8.86-10.26-13.48-15.24-4.63-4.97-9.36-9.86-14.16-14.67-4.81-4.8-9.7-9.53-14.67-14.16-4.97-4.63-10.02-9.19-15.24-13.48-.19-.15-2.32-2.13-4.45-4-1.07-.93-2.13-1.83-2.95-2.47-.81-.66-1.38-.93-1.37-1.14,0-.2.85-.25,1.89.16,1.05.38,2.35,1.06,3.61,1.81,2.51,1.51,4.89,3.27,5.08,3.43Z"/></g><g id="Icon_14_Shape" class="cls-1"><path class="cls-2" d="M135.25,230.87c-18.96-18.96-16.38-87.13-30.27-101.02-13.89-13.89-82.06-11.31-101.02-30.27L99.58,3.96c18.96,18.96,16.38,87.13,30.27,101.02,13.89,13.89,82.06,11.31,101.02,30.27l-95.62,95.62Z"/></g></g></svg>