<?xml version="1.0" encoding="UTF-8"?><svg id="Line" xmlns="http://www.w3.org/2000/svg" viewBox="0 0 183.64 233.41"><defs><style>.cls-1{opacity:.24;}.cls-2{fill:#fff;stroke-width:0px;}</style></defs><g id="Icon_9"><g id="Icon_9_Lines"><path class="cls-2" d="M105.31,24.81c12.27,11.61,28.22,19.33,40.23,32.28,2.97,3.24,5.63,6.81,7.7,10.75,2.08,3.91,3.5,8.25,4.24,12.57,1.65,8.63,1.6,17.43.95,26.06-.67,8.65-2.01,17.18-3.3,25.67-1.31,8.5-2.6,16.97-3.44,25.47-.24,2.13-.37,4.24-.51,6.36-.06,1.06-.07,2.12-.11,3.18-.05,1.06-.04,2.12-.02,3.18,0,4.24.31,8.48.87,12.67,1.1,8.38,3.34,16.67,7.24,24.07.07.13.33.62.73,1.4.39.78,1.04,1.74,1.74,2.93.36.58.82,1.16,1.26,1.79.23.31.46.63.69.96.26.3.53.61.8.93,1.04,1.3,2.27,2.52,3.63,3.67,2.69,2.29,5.65,4.24,8.01,5.34,1.18.54,2.2.92,2.94,1.07.73.18,1.18.23,1.18.34,0,.08-.44.23-1.25.23-.82.02-1.96-.19-3.27-.61-2.63-.84-5.88-2.59-8.86-4.79-.75-.54-1.48-1.13-2.18-1.74-.72-.61-1.33-1.29-1.95-1.92-.31-.32-.61-.64-.91-.95-.27-.33-.54-.66-.8-.98-.51-.65-1.03-1.24-1.45-1.84-.81-1.21-1.56-2.22-2-3.02-.46-.8-.75-1.32-.83-1.45-4.13-7.83-6.42-16.41-7.56-25.04-.58-4.32-.89-8.68-.9-13.03-.02-1.09-.02-2.18.02-3.27.04-1.09.05-2.18.11-3.26.15-2.17.28-4.35.52-6.49.85-8.6,2.14-17.14,3.46-25.63,1.29-8.49,2.62-16.97,3.28-25.46.64-8.48.68-17.03-.91-25.32-.71-4.15-2.01-8.08-3.96-11.76-1.93-3.68-4.44-7.06-7.28-10.15-5.7-6.21-12.62-11.26-19.58-16.25-6.96-5-14.17-9.84-20.53-15.9-.23-.22-1.69-1.65-3.57-3.86-1.84-2.25-4.04-5.34-5.58-8.75-1.56-3.39-2.45-7.02-2.57-9.75-.17-1.35-.05-2.49-.02-3.28.05-.79.13-1.23.23-1.23s.22.44.35,1.21c.15.76.21,1.86.54,3.14.45,2.59,1.58,5.94,3.28,9.01,1.67,3.09,3.91,5.88,5.75,7.92,1.89,2.01,3.35,3.32,3.56,3.53Z"/><path class="cls-2" d="M165.94,70.64c1.33-.54,2.84-.53,4.16-.12,1.33.41,2.45,1.21,3.34,2.11.92.9,1.56,1.95,2.15,3l.76,1.61.59,1.71c.69,2.34.65,4.97-.13,7.3-.76,2.35-2.14,4.38-3.69,6.1-3.16,3.44-6.97,5.92-10.81,8.18-3.86,2.23-7.84,4.18-11.81,6.07-3.96,1.9-7.95,3.73-11.75,5.77-3.77,2.08-7.38,4.45-10.73,7.15-6.7,5.39-12.45,11.99-16.65,19.48-.14.27-2.13,3.39-3.69,6.68-1.61,3.26-2.87,6.65-3.27,6.54-.36-.09.22-3.72,1.4-7.3,1.13-3.6,2.92-7.04,3.07-7.32,4.4-7.83,10.38-14.7,17.35-20.31,3.48-2.81,7.23-5.28,11.15-7.43,3.93-2.11,7.93-3.95,11.88-5.84,3.95-1.89,7.86-3.81,11.6-5.96,3.71-2.18,7.33-4.58,10.12-7.63,1.38-1.52,2.5-3.22,3.09-5.06.6-1.83.64-3.78.1-5.66-.54-1.86-1.53-3.78-2.79-5.09-1.26-1.32-2.99-1.92-4.43-1.34-.07.03-.86.25-1.4.96-.21.28-.37.75-.23,1.3.1.55.5,1.07.97,1.28.24.09.52.13.83.09.31-.07.64-.18.9-.36.53-.35.83-.89.81-1.32,0-.44-.37-.76-.68-.95-.31-.19-.53-.29-.52-.4,0-.08.25-.19.7-.15.22.02.51.08.81.27.3.18.62.51.77.96.32.92-.07,2.05-.86,2.81-.39.39-.88.66-1.43.88-.57.19-1.23.26-1.89.11-1.31-.33-2.28-1.37-2.67-2.5-.44-1.12-.3-2.44.23-3.38.5-.9,1.17-1.41,1.66-1.75.5-.34.87-.47.96-.51Z"/><path class="cls-2" d="M146.82,111.98c-2,3.8-3.61,7.91-5.24,12.01-1.64,4.11-3.2,8.27-5.27,12.34-.53,1.01-1.09,2.02-1.77,3.01-.68.98-1.41,1.97-2.56,2.81-.29.2-.63.38-.96.56-.39.12-.76.29-1.18.33-.96.12-1.48-.08-2.16-.16-1.27-.3-2.45-.83-3.45-1.43-2.04-1.21-3.71-2.49-5.43-2.82-1.68-.32-3.48.41-5.16,1.54-.06.04-.47.29-1.06.63-.6.33-1.31.91-2.08,1.4-1.48,1.07-2.96,2.18-3.27,1.9-.28-.25.68-1.85,1.88-3.37.64-.73,1.26-1.5,1.85-2.01.58-.52,1.01-.88,1.08-.92.45-.37,1.04-.63,1.57-.93.28-.14.53-.31.83-.42l.91-.32c1.21-.44,2.63-.51,3.96-.31,1.32.27,2.5.82,3.52,1.42,1.01.59,1.93,1.23,2.82,1.74.89.54,1.76.9,2.65,1.12,1.07.18,1.29.24,2.01-.27.66-.46,1.3-1.26,1.86-2.1.58-.84,1.09-1.77,1.59-2.71,1.95-3.83,3.51-7.97,5.15-12.07,1.64-4.12,3.25-8.27,5.38-12.31.07-.14,1.13-1.82,2.47-3.26.66-.73,1.42-1.37,2.05-1.76.65-.38,1.13-.52,1.25-.36.12.16-.12.59-.47,1.15-.34.59-.79,1.34-1.19,2.14-.81,1.6-1.53,3.3-1.6,3.44Z"/><path class="cls-2" d="M16.67,73.31c-1.44-.59-3.17.01-4.43,1.34-1.26,1.31-2.25,3.23-2.79,5.09-.54,1.88-.5,3.83.1,5.66.59,1.83,1.72,3.54,3.09,5.06,2.79,3.05,6.41,5.45,10.12,7.63,3.74,2.16,7.65,4.08,11.6,5.96,3.95,1.89,7.95,3.73,11.88,5.84,3.92,2.16,7.67,4.62,11.15,7.43,6.97,5.6,12.96,12.48,17.35,20.31.15.28,1.95,3.72,3.07,7.32,1.19,3.58,1.77,7.21,1.4,7.3-.4.1-1.66-3.28-3.27-6.54-1.56-3.29-3.55-6.41-3.69-6.68-4.2-7.48-9.95-14.09-16.65-19.48-3.35-2.7-6.96-5.07-10.73-7.15-3.8-2.05-7.78-3.87-11.75-5.77-3.97-1.9-7.94-3.84-11.81-6.07-3.83-2.26-7.65-4.74-10.81-8.18-1.56-1.72-2.93-3.75-3.69-6.1-.78-2.34-.81-4.97-.13-7.3l.59-1.71.76-1.61c.59-1.05,1.23-2.1,2.15-3,.89-.9,2.01-1.7,3.34-2.11,1.32-.41,2.83-.43,4.16.12.09.04.46.17.96.51.49.34,1.16.85,1.66,1.75.54.94.68,2.26.23,3.38-.39,1.12-1.36,2.17-2.67,2.5-.65.15-1.32.08-1.89-.11-.55-.22-1.04-.5-1.43-.88-.78-.75-1.18-1.88-.86-2.81.15-.45.46-.78.77-.96.3-.19.59-.25.81-.27.45-.04.69.06.7.15.01.11-.21.21-.52.4-.3.19-.68.51-.68.95-.02.42.28.97.81,1.32.26.18.59.28.9.36.31.04.58,0,.83-.09.47-.21.87-.73.97-1.28.13-.55-.03-1.02-.23-1.3-.54-.71-1.33-.92-1.4-.96Z"/><path class="cls-2" d="M39.34,110.64c2.12,4.03,3.74,8.19,5.38,12.31,1.64,4.11,3.2,8.25,5.15,12.07.49.94,1.01,1.88,1.59,2.71.57.84,1.21,1.63,1.86,2.1.72.51.94.45,2.01.27.88-.22,1.75-.58,2.65-1.12.88-.5,1.81-1.14,2.82-1.74,1.02-.6,2.19-1.15,3.52-1.42,1.33-.21,2.75-.14,3.96.31l.91.32c.3.11.55.28.83.42.53.3,1.12.56,1.57.93.07.05.5.41,1.08.92.59.51,1.21,1.28,1.85,2.01,1.2,1.52,2.16,3.12,1.88,3.37-.31.27-1.79-.84-3.27-1.9-.77-.49-1.48-1.07-2.08-1.4-.59-.34-1-.59-1.06-.63-1.68-1.13-3.48-1.86-5.16-1.54-1.72.33-3.4,1.62-5.43,2.82-1,.61-2.18,1.13-3.45,1.43-.68.09-1.2.29-2.16.16-.43-.04-.79-.21-1.18-.33-.32-.18-.67-.36-.96-.56-1.15-.84-1.88-1.83-2.56-2.81-.68-.98-1.23-2-1.77-3.01-2.07-4.07-3.63-8.23-5.27-12.34-1.63-4.1-3.24-8.21-5.24-12.01-.07-.14-.79-1.84-1.6-3.44-.4-.81-.85-1.56-1.19-2.14-.35-.57-.59-.99-.47-1.15.11-.15.6-.02,1.25.36.63.39,1.39,1.04,2.05,1.76,1.34,1.45,2.41,3.12,2.47,3.26Z"/><path class="cls-2" d="M24.47,207.08c3.9-7.4,6.14-15.69,7.24-24.07.57-4.19.87-8.43.87-12.67.02-1.06.02-2.12-.02-3.18-.04-1.06-.05-2.12-.11-3.18-.14-2.12-.27-4.23-.51-6.36-.84-8.51-2.12-16.98-3.44-25.47-1.29-8.5-2.63-17.03-3.3-25.67-.65-8.63-.7-17.43.95-26.06.74-4.32,2.16-8.65,4.24-12.57,2.07-3.94,4.73-7.52,7.7-10.75,12.02-12.95,27.96-20.67,40.23-32.28.22-.21,1.67-1.52,3.56-3.53,1.85-2.04,4.08-4.82,5.75-7.92,1.69-3.07,2.83-6.42,3.28-9.01.34-1.28.39-2.38.54-3.14.13-.77.25-1.21.35-1.21s.17.44.23,1.23c.03.78.15,1.92-.02,3.28-.13,2.73-1.01,6.36-2.57,9.75-1.54,3.41-3.74,6.5-5.58,8.75-1.88,2.21-3.34,3.64-3.57,3.86-6.36,6.06-13.57,10.91-20.53,15.9-6.96,4.98-13.88,10.04-19.58,16.25-2.84,3.09-5.35,6.47-7.28,10.15-1.95,3.68-3.24,7.61-3.96,11.76-1.59,8.28-1.55,16.83-.91,25.32.66,8.5,1.99,16.97,3.28,25.46,1.31,8.49,2.61,17.02,3.46,25.63.24,2.14.38,4.32.52,6.49.06,1.09.07,2.18.11,3.26.05,1.09.05,2.18.02,3.27,0,4.35-.32,8.71-.9,13.03-1.14,8.63-3.43,17.22-7.56,25.04-.08.13-.37.65-.83,1.45-.44.8-1.19,1.81-2,3.02-.42.6-.94,1.19-1.45,1.84-.26.32-.52.65-.8.98-.3.31-.6.63-.91.95-.62.64-1.23,1.31-1.95,1.92-.71.6-1.43,1.19-2.18,1.74-2.99,2.2-6.23,3.95-8.86,4.79-1.31.41-2.46.63-3.27.61-.81,0-1.26-.15-1.25-.23,0-.12.45-.16,1.18-.34.74-.16,1.76-.53,2.94-1.07,2.36-1.1,5.33-3.05,8.01-5.34,1.36-1.14,2.59-2.36,3.63-3.67.27-.31.54-.62.8-.93.24-.33.47-.65.69-.96.44-.63.9-1.21,1.26-1.79.7-1.18,1.36-2.15,1.74-2.93.41-.77.66-1.27.73-1.4Z"/><path class="cls-2" d="M78.14,155.42c-4.32-2.39-9.11-3.98-14-5.07-2.45-.54-4.93-.96-7.43-1.26-2.23-.31-6.11-.52-4.99-.45l.51,1.01c.52,1.06,1.03,2.12,1.53,3.19.99,2.14,1.93,4.3,2.81,6.48,1.78,4.36,3.3,8.83,4.58,13.38,1.26,4.55,2.22,9.21,2.74,13.94.53,4.72.52,9.56-.27,14.33-.74,4.77-2.54,9.45-5.37,13.47-.32.52-.74.98-1.12,1.46-.39.47-.78.95-1.18,1.41l-2.54,2.54-.64.63-.69.58-1.37,1.16c-.46.38-.91.78-1.38,1.15l-1.47,1.04c-7.74,5.62-17.22,9.06-26.92,9.01-.42.07-5.83-.2-10.67-2.13-1.21-.47-2.34-1.1-3.41-1.62-1.01-.66-1.93-1.28-2.7-1.83-1.42-1.28-2.28-2.16-2.15-2.31s1.23.44,2.76,1.39c.89.42,1.83.87,2.8,1.32,1.08.35,2.19.82,3.36,1.14,4.68,1.32,9.65,1.25,10.04,1.19,8.99.05,17.93-3.16,25.24-8.48l1.39-.98c.44-.35.87-.73,1.3-1.09l1.3-1.1.65-.55.6-.6,2.41-2.4c.37-.42.71-.85,1.06-1.27.35-.43.73-.83,1.01-1.31,2.53-3.62,4.19-7.85,4.88-12.29.73-4.43.75-9.01.24-13.55-.5-4.54-1.43-9.05-2.65-13.48-1.25-4.43-2.74-8.8-4.48-13.07-.86-2.14-1.78-4.26-2.75-6.35-.48-1.05-.98-2.08-1.49-3.12l-.39-.77-.7-1.34c-.53-1.03-1.14-2.1-1.71-3.14,1.23.01,2.44,0,3.71.05,1.54.06,1.87.09,2.58.14,1.3.09,2.59.23,3.89.38,2.58.32,5.15.75,7.7,1.31,5.09,1.14,10.12,2.79,14.77,5.36.1.05.45.26.99.61.54.34,1.27.81,2.08,1.43,1.63,1.21,3.62,2.97,5.23,5.03.38.53.79,1.04,1.14,1.57.32.53.65,1.07.97,1.59.54,1.08,1.03,2.08,1.31,3,.34.89.48,1.67.57,2.21.09.54.1.86,0,.89s-.29-.23-.55-.71c-.26-.47-.56-1.17-1.04-1.94-.42-.8-1.02-1.67-1.64-2.6-.36-.45-.72-.9-1.07-1.36-.38-.45-.81-.88-1.2-1.32-3.34-3.5-7.84-5.69-8.17-5.9Z"/><path class="cls-2" d="M104.11,152.92c4.65-2.57,9.68-4.22,14.77-5.36,2.55-.56,5.12-.99,7.7-1.31,1.29-.16,2.59-.29,3.89-.38.71-.05,1.04-.08,2.58-.14,1.27-.05,2.48-.04,3.71-.05-.57,1.04-1.18,2.11-1.71,3.14l-.7,1.34-.39.77c-.51,1.03-1.01,2.07-1.49,3.12-.97,2.09-1.89,4.21-2.75,6.35-1.74,4.27-3.23,8.64-4.48,13.07-1.23,4.43-2.16,8.94-2.65,13.48-.51,4.53-.49,9.11.24,13.55.69,4.44,2.35,8.67,4.88,12.29.28.48.66.88,1.01,1.31.36.42.7.85,1.06,1.27l2.41,2.4.6.6.65.55,1.3,1.1c.44.36.86.74,1.3,1.09l1.39.98c7.31,5.31,16.25,8.52,25.24,8.48.4.07,5.36.13,10.04-1.19,1.16-.32,2.28-.78,3.36-1.14.96-.46,1.9-.9,2.8-1.32,1.54-.94,2.63-1.53,2.76-1.39s-.73,1.03-2.15,2.31c-.77.55-1.69,1.16-2.7,1.83-1.07.52-2.21,1.15-3.41,1.62-4.84,1.93-10.25,2.2-10.67,2.13-9.7.05-19.18-3.39-26.92-9.01l-1.47-1.04c-.47-.37-.92-.77-1.38-1.15l-1.37-1.16-.69-.58-.64-.63-2.54-2.54c-.4-.46-.79-.94-1.18-1.41-.39-.48-.8-.93-1.12-1.46-2.82-4.02-4.62-8.7-5.37-13.47-.78-4.77-.8-9.6-.27-14.33.52-4.73,1.48-9.39,2.74-13.94,1.28-4.55,2.81-9.01,4.58-13.38.88-2.19,1.82-4.35,2.81-6.48.49-1.07,1.01-2.13,1.53-3.19l.51-1.01c1.11-.07-2.77.15-4.99.45-2.5.31-4.98.72-7.43,1.26-4.89,1.09-9.68,2.68-14,5.07-.33.2-4.83,2.39-8.17,5.9-.4.45-.83.87-1.2,1.32-.36.46-.72.91-1.07,1.36-.62.93-1.23,1.8-1.64,2.6-.48.77-.78,1.47-1.04,1.94-.26.47-.45.73-.55.71s-.09-.34,0-.89c.09-.54.23-1.33.57-2.21.28-.92.77-1.92,1.31-3,.32-.53.64-1.06.97-1.59.35-.53.75-1.04,1.14-1.57,1.61-2.06,3.6-3.81,5.23-5.03.81-.62,1.53-1.1,2.08-1.43.54-.35.89-.56.99-.61Z"/><path class="cls-2" d="M11,64.15c3.59-1.06,7.27-1.36,10.9-1.41.91.01,1.83.09,2.75.13l1.37.08c.46.02.92.05,1.37.15,1.8.33,3.64.52,5.38,1.09.88.25,1.77.48,2.64.75l2.56.95,1.28.48,1.23.56,2.47,1.12c3.22,1.6,6.36,3.32,9.44,5.05,6.17,3.45,12.35,6.77,18.97,8.88,6.59,2.16,13.51,3.18,20.46,3.22,6.95-.04,13.87-1.06,20.46-3.22,6.62-2.11,12.8-5.43,18.97-8.88,3.08-1.73,6.22-3.45,9.44-5.05l2.47-1.12,1.23-.56,1.28-.48,2.56-.95c.87-.27,1.76-.5,2.64-.75,1.74-.57,3.58-.75,5.38-1.09.45-.09.91-.13,1.37-.15l1.37-.08c.92-.04,1.83-.12,2.75-.13,3.63.05,7.31.34,10.9,1.41.25.07,1.94.56,4.14,1.77,2.17,1.17,4.88,3.39,6.11,6.5,1.31,3.07.77,6.58-.58,8.53-.64,1-1.42,1.65-2.01,1.98-.59.34-.99.38-1.02.31-.12-.2,1.23-.91,2.06-2.82.89-1.84.99-4.78-.28-7.17-1.21-2.42-3.55-4.1-5.5-5-1.96-.92-3.49-1.29-3.72-1.36-3.21-.96-6.67-1.25-10.11-1.29-.86.01-1.71.09-2.56.13l-1.28.07c-.43.01-.85.05-1.27.14-1.68.32-3.38.48-5.02,1.02-.82.23-1.65.44-2.47.7l-2.42.91-1.21.45-1.19.54-2.37,1.07c-3.12,1.56-6.2,3.24-9.3,4.98-6.18,3.45-12.56,6.9-19.47,9.1-6.88,2.26-14.13,3.33-21.35,3.36-7.22-.04-14.47-1.1-21.35-3.36-6.91-2.2-13.29-5.65-19.47-9.1-3.1-1.74-6.17-3.42-9.3-4.98l-2.37-1.07-1.19-.54-1.21-.45-2.42-.91c-.82-.25-1.65-.46-2.47-.7-1.64-.54-3.34-.7-5.02-1.02-.42-.09-.84-.12-1.27-.14l-1.28-.07c-.85-.04-1.7-.12-2.56-.13-3.44.04-6.89.33-10.11,1.29-.23.06-1.76.44-3.72,1.36-1.95.9-4.29,2.58-5.5,5-1.28,2.38-1.17,5.32-.28,7.17.83,1.91,2.18,2.62,2.06,2.82-.03.07-.43.03-1.02-.31-.59-.33-1.37-.98-2.01-1.98-1.35-1.95-1.89-5.46-.58-8.53,1.23-3.11,3.95-5.33,6.11-6.5,2.2-1.2,3.89-1.69,4.14-1.77Z"/></g><g id="Icon_9_Shape" class="cls-1"><path class="cls-2" d="M162.85,141.87c-15.63,28.68-39.69,56.66-71.03,84.13-31.34-27.47-55.4-55.46-71.03-84.13-18.93-34.72,6.1-77.06,45.62-77.06h50.83c39.52,0,64.55,42.34,45.62,77.06Z"/></g></g></svg>