<?xml version="1.0" encoding="UTF-8"?><svg id="Line" xmlns="http://www.w3.org/2000/svg" viewBox="0 0 1276.16 68.84"><defs><style>.cls-1{opacity:.24;}.cls-2{fill:#fff;stroke-width:0px;}</style></defs><g id="Line_4"><g id="Line_4_Lines"><path class="cls-2" d="M54.95,65.79c5.84-.45,11.6-1.7,16.98-3.92,2.67-1.16,5.26-2.48,7.69-4.08,2.41-1.62,4.73-3.39,6.82-5.41,4.2-4.03,7.73-8.77,10.47-13.94,1.38-2.58,2.58-5.26,3.6-8.01.49-1.38.97-2.76,1.37-4.17.2-.7.4-1.41.57-2.11l.25-1.07c.15-.74.29-1.48.42-2.23h1069.91c.13.75.27,1.49.42,2.23l.25,1.07c.17.71.37,1.41.57,2.11.4,1.41.88,2.79,1.37,4.17,1.02,2.75,2.22,5.43,3.6,8.01,2.74,5.17,6.27,9.91,10.47,13.94,2.1,2.02,4.41,3.8,6.82,5.41,2.43,1.6,5.03,2.92,7.69,4.08,5.38,2.22,11.15,3.48,16.98,3.92.22.01.59.07,1.1.09.52.02,1.17.04,1.96.06.79,0,1.72.1,2.76.05,1.05-.03,2.21-.06,3.49-.1,1.27-.12,2.66-.26,4.15-.4.74-.12,1.5-.25,2.29-.38.79-.13,1.6-.25,2.42-.46.82-.19,1.67-.39,2.54-.6.86-.23,1.72-.53,2.62-.8.9-.25,1.79-.6,2.69-.96.9-.36,1.85-.69,2.75-1.15,3.68-1.67,7.44-3.93,10.89-6.89,3.45-2.96,6.61-6.61,9.02-10.87,1.13-2.16,2.21-4.41,2.86-6.82.19-.59.37-1.19.48-1.81.12-.61.27-1.22.38-1.84.13-1.25.34-2.5.31-3.76.08-1.26-.09-2.52-.18-3.78-.23-1.24-.42-2.5-.84-3.7-.74-2.42-1.86-4.75-3.41-6.76l-.56-.77c-.2-.25-.43-.47-.64-.71-.43-.47-.85-.95-1.29-1.4-.97-.82-1.86-1.75-2.95-2.43-.52-.36-1.03-.75-1.57-1.09l-1.66-.94-.83-.47-.87-.39-1.74-.78c-2.34-.96-4.76-1.65-7.17-1.76-2.4-.15-4.75.48-6.55,1.85-1.81,1.37-2.99,3.44-3.6,5.6-.62,2.17-.7,4.45-.4,6.58.33,2.13,1.07,4.17,2.33,5.67.64.73,1.42,1.28,2.27,1.55.42.16.87.17,1.31.2l.68-.06.34-.03c.11-.03.21-.06.31-.09,1.73-.39,2.73-2.06,2.58-3.7.02-.41-.11-.8-.17-1.2-.15-.37-.23-.77-.44-1.1-.33-.72-.87-1.27-1.42-1.74-1.17-.87-2.67-.99-3.88-.61-1.24.35-1.97,1.42-2.19,2.43-.22,1.04.09,2.03.55,2.71.45.72,1.13,1.06,1.64,1.33.28.09.52.17.75.24.22.05.41.07.57.1.31.05.47.09.47.11s-.16.04-.48.03c-.16,0-.36,0-.6-.03-.24-.06-.51-.12-.81-.19-.57-.25-1.33-.57-1.89-1.35-.56-.74-.97-1.84-.77-3.06.19-1.19,1.06-2.54,2.52-3,1.38-.49,3.16-.41,4.61.6.67.54,1.32,1.18,1.73,2,.25.38.37.84.55,1.27.09.46.24.92.24,1.41.06.49-.02.98-.09,1.49-.15.49-.28,1-.59,1.44-.56.89-1.51,1.65-2.57,1.88-.13.04-.26.09-.39.12l-.4.05-.81.09c-.55-.01-1.13-.03-1.68-.22-1.11-.32-2.09-1.01-2.86-1.85-1.52-1.74-2.34-3.97-2.75-6.27-.37-2.32-.33-4.78.32-7.19.63-2.39,1.92-4.8,4.04-6.46,2.11-1.67,4.92-2.42,7.59-2.29,2.69.09,5.31.8,7.79,1.78l1.84.8.92.4.89.49,1.78.98c.58.35,1.12.76,1.69,1.14,1.16.72,2.14,1.7,3.19,2.58.49.48.95,1,1.42,1.5.23.26.48.5.7.76l.62.83c1.72,2.17,2.98,4.71,3.82,7.34.47,1.31.69,2.68.96,4.03.12,1.37.32,2.74.25,4.11.04,1.37-.16,2.72-.3,4.07-.11.67-.26,1.33-.39,1.99-.11.67-.29,1.31-.49,1.95-.68,2.6-1.8,5.02-2.99,7.33-2.52,4.56-5.83,8.47-9.46,11.63-3.63,3.17-7.57,5.59-11.43,7.38-.95.49-1.93.85-2.88,1.24-.95.39-1.88.76-2.82,1.03-.94.29-1.84.61-2.74.86-.91.22-1.79.44-2.66.65-.86.23-1.71.36-2.53.51-.82.14-1.62.28-2.4.41-1.56.16-3.01.31-4.34.45-1.34.05-2.56.09-3.65.13-1.09.06-2.05-.03-2.88-.03-.82-.02-1.51-.04-2.05-.06-.54-.02-.92-.08-1.15-.09-6.1-.47-12.17-1.78-17.87-4.14-2.82-1.23-5.58-2.63-8.16-4.33-2.56-1.71-5.01-3.6-7.23-5.74-4.44-4.26-8.15-9.25-11.02-14.66-1.44-2.7-2.7-5.5-3.76-8.37-.52-1.44-1.01-2.89-1.44-4.36-.21-.74-.42-1.48-.6-2.22l-.26-1.12H105.49l-.26,1.12c-.18.75-.39,1.49-.6,2.22-.42,1.47-.92,2.92-1.44,4.36-1.06,2.87-2.32,5.67-3.76,8.37-2.87,5.41-6.57,10.4-11.02,14.66-2.22,2.14-4.67,4.02-7.23,5.74-2.58,1.7-5.33,3.1-8.16,4.33-5.7,2.35-11.77,3.67-17.87,4.14-.23.02-.62.07-1.15.09-.54.01-1.22.03-2.05.06-.82,0-1.78.09-2.88.03-1.09-.04-2.31-.08-3.65-.13-1.33-.14-2.78-.29-4.34-.45-.77-.13-1.57-.27-2.4-.41-.82-.14-1.68-.27-2.53-.51-.86-.21-1.75-.43-2.66-.65-.9-.25-1.81-.57-2.74-.86-.94-.27-1.88-.64-2.82-1.03-.95-.39-1.93-.74-2.88-1.24-3.86-1.79-7.8-4.21-11.43-7.38-3.62-3.16-6.93-7.07-9.46-11.63-1.19-2.31-2.31-4.73-2.99-7.33-.2-.64-.38-1.29-.49-1.95-.13-.66-.28-1.32-.39-1.99-.14-1.35-.34-2.7-.3-4.07-.07-1.37.12-2.74.25-4.11.27-1.35.49-2.72.96-4.03.84-2.63,2.1-5.17,3.82-7.34l.62-.83c.22-.27.47-.51.7-.76.47-.5.93-1.02,1.42-1.5,1.05-.88,2.04-1.85,3.19-2.58.56-.38,1.11-.79,1.69-1.14l1.78-.98.89-.49.92-.4,1.84-.8c2.48-.98,5.1-1.69,7.79-1.78,2.67-.13,5.48.63,7.59,2.29,2.12,1.67,3.41,4.07,4.04,6.46.64,2.41.69,4.87.32,7.19-.4,2.31-1.23,4.53-2.75,6.27-.77.85-1.76,1.53-2.86,1.85-.55.19-1.12.2-1.68.22l-.81-.09-.4-.05c-.13-.03-.26-.08-.39-.12-1.07-.24-2.01-.99-2.57-1.88-.31-.45-.44-.95-.59-1.44-.06-.5-.15-1-.09-1.49,0-.49.15-.95.24-1.41.18-.43.29-.89.55-1.27.4-.82,1.06-1.46,1.73-2,1.45-1.01,3.23-1.09,4.61-.6,1.46.46,2.33,1.81,2.52,3,.2,1.22-.21,2.33-.77,3.06-.56.78-1.32,1.1-1.89,1.35-.3.07-.57.13-.81.19-.23.03-.44.02-.6.03-.32,0-.48,0-.48-.03,0-.02.16-.06.47-.11.15-.03.35-.04.57-.1.22-.07.47-.15.75-.24.51-.27,1.19-.61,1.64-1.33.46-.68.77-1.67.55-2.71-.22-1.01-.96-2.08-2.19-2.43-1.21-.37-2.71-.25-3.88.61-.55.48-1.09,1.02-1.42,1.74-.21.33-.29.73-.44,1.1-.06.4-.19.79-.17,1.2-.15,1.64.84,3.31,2.58,3.7.1.03.21.07.31.09l.34.03.68.06c.44-.03.89-.04,1.31-.2.85-.26,1.63-.82,2.27-1.55,1.26-1.5,2-3.54,2.33-5.67.3-2.14.22-4.41-.4-6.58-.61-2.16-1.79-4.23-3.6-5.6-1.8-1.37-4.16-1.99-6.55-1.85-2.4.11-4.83.8-7.17,1.76l-1.74.78-.87.39-.83.47-1.66.94c-.54.34-1.04.73-1.57,1.09-1.08.69-1.97,1.61-2.95,2.43-.45.45-.86.94-1.29,1.4-.21.24-.44.46-.64.71l-.56.77c-1.56,2.01-2.68,4.34-3.41,6.76-.42,1.2-.6,2.46-.84,3.7-.09,1.26-.27,2.52-.18,3.78-.03,1.26.18,2.51.31,3.76.11.62.26,1.23.38,1.84.11.62.28,1.22.48,1.81.65,2.41,1.73,4.66,2.86,6.82,2.41,4.26,5.57,7.92,9.02,10.87,3.46,2.96,7.21,5.22,10.89,6.89.9.46,1.84.79,2.75,1.15.9.36,1.79.71,2.69.96.89.27,1.76.57,2.62.8.87.21,1.71.41,2.54.6.82.22,1.63.33,2.42.46.79.13,1.55.26,2.29.38,1.49.14,2.88.28,4.15.4,1.28.04,2.45.07,3.49.1,1.04.06,1.97-.04,2.76-.05.79-.03,1.45-.05,1.96-.06.51-.02.88-.08,1.1-.09Z"/><path class="cls-2" d="M219.66,39.1c8.3,1.98,16.76,3.41,25.25,4.51,4.24.59,8.51.98,12.78,1.43l6.41.51,3.21.25,3.21.18,6.42.36,6.43.22c2.14.06,4.29.17,6.43.19l6.44.07c8.58.14,17.16-.08,25.72-.53,17.12-.95,34.2-2.94,51.01-6.3,8.39-1.69,16.73-3.72,24.85-6.32,4.05-1.32,8.07-2.77,11.89-4.54,1.91-.89,3.78-1.85,5.47-2.98.84-.56,1.65-1.17,2.31-1.82.33-.32.61-.67.81-.99.11-.16.17-.31.23-.46.12-.7.15-1.2.21-1.78l14.85-.26,13.63-.68,13.61-1.07,13.58-1.39c18.1-2.04,36.13-4.78,54.18-7.46,18.05-2.68,36.14-5.29,54.33-7.18,18.19-1.89,36.47-3.05,54.79-3.07,18.31.02,36.6,1.17,54.79,3.07,18.19,1.89,36.28,4.5,54.33,7.18,18.05,2.68,36.08,5.41,54.18,7.46l13.58,1.39,13.61,1.07,13.63.68,14.85.26c.06.58.09,1.08.21,1.78.06.14.13.29.23.46.2.32.48.66.81.99.66.65,1.46,1.26,2.31,1.82,1.7,1.12,3.57,2.09,5.47,2.98,3.83,1.77,7.84,3.22,11.89,4.54,8.12,2.61,16.46,4.64,24.85,6.32,16.8,3.36,33.88,5.36,51.01,6.3,8.57.45,17.14.67,25.72.53l6.44-.07c2.15-.02,4.29-.13,6.43-.19l6.43-.22,6.42-.36,3.21-.18,3.21-.25,6.41-.51c4.26-.45,8.53-.84,12.78-1.43,8.49-1.1,16.95-2.53,25.25-4.51.31-.07,1.03-.24,2.12-.52,1.09-.28,2.55-.64,4.29-1.15,1.76-.49,3.78-1.12,6.03-1.96.42-.28,1.21-.19,1.38-.2.31,0,.63,0,.95,0,.64,0,1.3,0,1.97.01,1.35,0,2.75.02,4.21.03,11.66.09,26.74.2,41.7.31,14.88.17,29.63.33,40.75.45,5.52.09,10.11.18,13.31.27,1.6.05,2.86.09,3.72.14.86.05,1.31.1,1.31.15s-.46.1-1.31.15c-.86.05-2.12.09-3.72.14-3.21.09-7.79.18-13.31.27-11.12.12-25.86.29-40.75.45-14.95.11-30.03.22-41.7.31-1.46,0-2.87.02-4.21.03-.67,0-1.33,0-1.97.01-.59.02-1.48-.02-1.37.04-2.31.89-4.42,1.57-6.2,2.09-1.78.54-3.27.92-4.37,1.22-1.11.3-1.84.48-2.16.55-8.44,2.01-16.99,3.46-25.56,4.57-4.28.59-8.59.99-12.88,1.44l-6.46.52-3.23.25-3.23.18-6.47.36-6.47.23c-2.16.06-4.31.17-6.47.19l-6.47.07c-8.63.14-17.28-.08-25.9-.53-17.25-.95-34.45-2.96-51.42-6.35-8.48-1.71-16.9-3.75-25.17-6.41-4.13-1.34-8.23-2.82-12.22-4.67-1.99-.93-3.96-1.94-5.86-3.19-.94-.63-1.87-1.32-2.74-2.18-.44-.43-.85-.92-1.22-1.5-.19-.29-.35-.63-.49-.98l.03.06-12.51-.22-13.71-.68-13.68-1.07-13.65-1.4c-18.17-2.05-36.24-4.79-54.28-7.47-18.05-2.68-36.09-5.29-54.21-7.16-18.11-1.89-36.3-3.03-54.49-3.05-18.19.02-36.38,1.17-54.49,3.05-18.12,1.88-36.16,4.48-54.21,7.16-18.05,2.68-36.11,5.42-54.28,7.47l-13.65,1.4-13.68,1.07-13.71.68-12.51.22.03-.06c-.14.36-.3.69-.49.98-.37.59-.79,1.08-1.22,1.5-.87.86-1.8,1.55-2.74,2.18-1.89,1.25-3.86,2.26-5.86,3.19-3.99,1.84-8.09,3.32-12.22,4.67-8.27,2.65-16.69,4.7-25.17,6.41-16.96,3.39-34.17,5.4-51.42,6.35-8.62.46-17.27.67-25.9.53l-6.47-.07c-2.16-.02-4.31-.13-6.47-.19l-6.47-.23-6.47-.36-3.23-.18-3.23-.25-6.46-.52c-4.3-.45-8.6-.85-12.88-1.44-8.57-1.11-17.12-2.55-25.56-4.57-.31-.07-1.05-.25-2.16-.55-1.11-.29-2.59-.67-4.37-1.22-1.78-.52-3.89-1.2-6.2-2.09.11-.07-.78-.02-1.37-.04-.64,0-1.3,0-1.97-.01-1.35,0-2.75-.02-4.21-.03-11.66-.09-26.74-.2-41.7-.31-14.88-.17-29.63-.33-40.75-.45-5.52-.09-10.11-.17-13.31-.27-1.6-.05-2.86-.09-3.72-.14-.86-.05-1.31-.1-1.31-.15s.46-.1,1.31-.15c.86-.05,2.12-.1,3.72-.14,3.21-.09,7.79-.18,13.31-.27,11.12-.12,25.86-.29,40.75-.45,14.95-.11,30.03-.22,41.7-.31,1.46,0,2.87-.02,4.21-.03.67,0,1.33,0,1.97-.01.32,0,.64,0,.95,0,.18.01.96-.08,1.38.2,2.24.84,4.27,1.46,6.03,1.96,1.74.51,3.2.87,4.29,1.15,1.09.28,1.81.46,2.12.52Z"/></g><g id="Line_4_Shape" class="cls-1"><path class="cls-2" d="M638.08,12.16H104.15c78.1,0,142.88,14.18,215.3,14.18,0,5.82,51.81,17.35,118.06,17.35s93.22-7.85,93.22-7.85h214.69s26.96,7.85,93.22,7.85,118.06-11.53,118.06-17.35c72.42,0,137.2-14.18,215.3-14.18h-533.93Z"/></g></g></svg>