<?xml version="1.0" encoding="UTF-8"?><svg id="Line" xmlns="http://www.w3.org/2000/svg" viewBox="0 0 1271.41 33.05"><defs><style>.cls-1{opacity:.24;}.cls-2{fill:#fff;stroke-width:0px;}</style></defs><g id="Line_2"><g id="Line_2_Lines"><path class="cls-2" d="M52.86,21.29h509.78c1.51.02,19.69.22,37.67.42,8.94.13,17.79.28,24.4.45,3.31.09,6.05.17,7.97.27s3.01.19,3.01.29-1.09.19-3.01.29c-1.92.09-4.67.18-7.97.27-6.61.17-15.46.32-24.4.45-17.98.2-36.16.4-37.67.42H52.86c-1.51-.02-19.69-.22-37.67-.42-2.24-.04-4.49-.07-6.73-.29-1.12-.14-2.24-.26-3.34-.57-1.1-.31-2.21-.71-3.16-1.48-.96-.77-1.57-1.91-1.79-3.01-.15-.55-.14-1.09-.18-1.62.02-.53.04-1.02.12-1.54.16-1.06.65-2.05,1.31-2.8.67-.74,1.47-1.27,2.27-1.64,1.61-.74,3.2-.95,4.59-.96,1.39.02,2.61.25,3.52.71.46.23.84.5,1.1.84.25.34.36.7.35.98-.03.57-.26.79-.28.78-.07-.02.05-.3-.01-.76-.06-.47-.52-1.02-1.39-1.32-.84-.33-1.98-.46-3.27-.39-1.28.08-2.75.38-4.11,1.1-.68.36-1.32.84-1.82,1.45-.49.62-.81,1.36-.9,2.18-.19,1.75.09,3.71,1.49,4.74,1.43,1.04,3.56,1.33,5.66,1.5,2.13.14,4.35.11,6.58.08,17.98-.2,36.16-.4,37.67-.42Z"/><path class="cls-2" d="M1218.54,24.14h-509.78c-1.51-.02-19.69-.22-37.67-.42-8.94-.13-17.79-.28-24.4-.45-3.31-.09-6.05-.18-7.97-.27-1.92-.09-3.01-.19-3.01-.29s1.09-.19,3.01-.29c1.92-.09,4.67-.18,7.97-.27,6.61-.17,15.46-.32,24.4-.45,17.98-.2,36.16-.4,37.67-.42h509.78c1.51.02,19.69.22,37.67.42,2.23.03,4.44.06,6.58-.08,2.1-.16,4.23-.46,5.66-1.5,1.4-1.03,1.68-2.99,1.49-4.74-.09-.82-.41-1.57-.9-2.18-.5-.61-1.14-1.09-1.82-1.45-1.37-.72-2.83-1.02-4.11-1.1-1.29-.07-2.43.07-3.27.39-.86.3-1.33.85-1.39,1.32-.07.46.06.74-.01.76-.02.01-.25-.21-.28-.78,0-.28.1-.64.35-.98.25-.34.64-.61,1.1-.84.92-.46,2.13-.69,3.52-.71,1.39,0,2.98.22,4.59.96.8.38,1.6.9,2.27,1.64.66.75,1.15,1.74,1.31,2.8.07.52.09,1.02.12,1.55-.04.53-.02,1.07-.18,1.62-.22,1.1-.83,2.24-1.79,3.01-.95.77-2.06,1.18-3.16,1.48-1.11.31-2.22.44-3.34.57-2.24.22-4.49.25-6.73.29-17.98.2-36.16.4-37.67.42Z"/><path class="cls-2" d="M601.61,20.03c3.13-.7,6.19-1.71,9.19-2.87,2.97-1.24,5.88-2.64,8.68-4.25,2.78-1.63,5.47-3.42,8.03-5.39l1.89-1.51,1.83-1.58,1.76-1.65,2.72-2.79,2.72,2.79,1.76,1.65,1.83,1.58,1.89,1.51c2.56,1.96,5.25,3.76,8.03,5.39,2.8,1.61,5.71,3.01,8.68,4.25,3,1.16,6.06,2.17,9.19,2.87.11.04.83.24,1.86.48.5.13,1.08.28,1.73.45.63.16,1.3.27,1.97.41.63.13,1.29.27,1.96.42.63.1,1.21.2,1.72.31,1.01.21,1.68.42,1.68.62s-.68.36-1.72.49c-.52.07-1.13.12-1.79.17-.66.03-1.36,0-2.07,0-.71-.02-1.43-.01-2.1-.08-.69-.07-1.32-.14-1.86-.2-1.11-.11-1.89-.24-2-.28-3.29-.74-6.5-1.79-9.63-3.01-3.1-1.29-6.13-2.75-9.04-4.42-2.89-1.7-5.69-3.56-8.35-5.6l-1.97-1.57-1.91-1.65-1.85-1.73-.73-.74-.73.74-1.85,1.73-1.91,1.65-1.97,1.57c-2.66,2.05-5.45,3.91-8.35,5.6-2.91,1.67-5.94,3.13-9.04,4.42-3.13,1.22-6.34,2.27-9.63,3.01-.11.04-.89.17-2,.28-.53.06-1.16.13-1.86.2-.67.06-1.39.06-2.1.08-.71,0-1.41.03-2.07,0-.66-.05-1.27-.11-1.79-.17-1.04-.13-1.72-.29-1.72-.49,0-.2.68-.41,1.68-.62.5-.1,1.09-.21,1.72-.31.67-.14,1.33-.28,1.96-.42.67-.15,1.34-.25,1.97-.41.65-.17,1.23-.32,1.73-.45,1.03-.25,1.75-.44,1.86-.48Z"/></g><g id="Line_2_Shape" class="cls-1"><path class="cls-2" d="M186.96,12.38c194.36,0,368.81,12.01,448.75,20.67,79.95-8.66,254.4-20.67,448.75-20.67H186.96Z"/></g></g></svg>