<?xml version="1.0" encoding="UTF-8"?><svg id="Line" xmlns="http://www.w3.org/2000/svg" viewBox="0 0 1274 34.59"><defs><style>.cls-1{opacity:.24;}.cls-1,.cls-2{fill:#fff;stroke-width:0px;}</style></defs><g id="Line_5"><g id="Line_5_Lines"><path class="cls-2" d="M142.62,19.85l62.19-.35,62.19-.42,124.38-1.12c82.92-.79,165.84-1.83,248.76-2.89l248.75-3.62,124.37-2.04,62.18-1.08,31.09-.56.97-.02h.49s.32-.01.32-.01c.16,0,.35.04.4.04l1.93.29,3.85.62c2.57.42,5.12.88,7.68,1.34,5.11.94,10.21,1.97,15.29,3.11.72.17,3.45.77,7.65,1.86,4.18,1.13,9.86,2.61,16.31,5.2.8.34,1.63.63,2.45,1.04.73.36,1.46.72,2.21,1.09.01,0,.04.03.06,0,.05-.03-.1.05.21-.11.41-.22.83-.43,1.25-.65.84-.44,1.68-.88,2.54-1.33,1.71-.9,3.47-1.82,5.26-2.76.88-.49,1.83-.88,2.77-1.3.94-.42,1.89-.84,2.84-1.26,1.91-.85,3.85-1.7,5.8-2.57,2.01-.74,4.03-1.5,6.07-2.25,4.04-1.61,8.3-2.78,12.5-4.05l1.58-.47c.53-.15,1.07-.26,1.6-.39,1.07-.25,2.13-.5,3.19-.75,1.06-.25,2.12-.5,3.17-.75l1.58-.37,1.59-.29c2.12-.38,4.21-.75,6.28-1.11,1.03-.21,2.07-.32,3.1-.44,1.03-.13,2.05-.25,3.06-.37,1.01-.12,2.01-.25,3.01-.37.99-.11,1.98-.15,2.96-.23,1.95-.13,3.86-.29,5.72-.38,1.86-.04,3.67-.08,5.42-.12,1.75-.06,3.44.05,5.06.07,6.48.19,11.84.75,15.55,1.39,1.86.31,3.3.6,4.28.84.98.23,1.49.41,1.48.45-.01.05-.54-.03-1.53-.17-.99-.15-2.45-.34-4.3-.56-3.71-.45-9.06-.83-15.48-.85-1.61.03-3.28-.05-5.02.06-1.73.08-3.53.16-5.37.24-1.84.12-3.73.33-5.66.49-.97.1-1.94.16-2.93.29-.98.14-1.97.28-2.97.42-1,.14-2.01.28-3.02.43-1.02.14-2.04.27-3.06.49-2.04.4-4.11.8-6.2,1.21l-1.57.31-1.56.39c-1.04.26-2.08.53-3.13.79-1.05.26-2.09.53-3.14.79-.52.14-1.05.25-1.57.41l-1.55.49c-4.13,1.32-8.32,2.53-12.29,4.17-2,.77-3.99,1.54-5.96,2.3-1.92.88-3.82,1.75-5.69,2.61-.94.43-1.87.86-2.79,1.28-.92.43-1.85.82-2.71,1.32-1.76.95-3.48,1.88-5.16,2.78-.84.45-1.67.9-2.49,1.34-.41.22-.82.44-1.22.66l-1.01.54-.29.15s-.1.05-.14.07l-.15-.07-.59-.28c-.89-.43-1.77-.85-2.63-1.26-.77-.37-1.59-.65-2.36-.97-6.25-2.43-11.89-3.85-16.02-4.93-4.15-1.04-6.86-1.62-7.58-1.79-5.03-1.13-10.1-2.15-15.18-3.09-2.54-.46-5.09-.91-7.63-1.33l-3.82-.62-1.91-.29h-.08s-.1-.01-.17,0h-.49s-.97.03-.97.03l-31.09.56-62.19,1.08-124.38,2.04-248.76,3.62c-82.92,1.06-165.84,2.1-248.77,2.89l-124.39,1.12-62.2.42-62.2.35c-2.96,0-38.62.06-73.54-.14-17.42-.14-34.66-.27-47.64-.38-6.45-.07-11.82-.16-15.57-.24-1.87-.04-3.35-.09-4.35-.13-1-.05-1.54-.09-1.54-.14s.53-.1,1.54-.15c1-.05,2.47-.1,4.35-.15,3.75-.1,9.11-.2,15.57-.29,12.98-.15,30.22-.34,47.64-.53,34.96-.33,70.57-.67,73.53-.7Z"/></g><path id="Line_5_Shape" class="cls-1" d="M719.82.59c0,18.78-161.14,34-359.91,34-41.84,0-359.91,0-359.91,0C0,34.59,0,15.42,0,.59h719.82Z"/></g></svg>