<?xml version="1.0" encoding="UTF-8"?><svg id="Line" xmlns="http://www.w3.org/2000/svg" viewBox="0 0 1272.02 38.21"><defs><style>.cls-1{opacity:.24;}.cls-1,.cls-2{fill:#fff;stroke-width:0px;}</style></defs><g id="Line_1"><g id="Line_1_Lines"><path class="cls-2" d="M712.24,10.17l132.97-.51c44.33-.06,88.66.05,132.99.79,22.17.37,44.33.92,66.49,1.77,22.16.87,44.31,2.01,66.43,3.89,11.06.95,22.11,2.06,33.12,3.57,5.51.74,11,1.6,16.48,2.61,5.48,1,10.94,2.15,16.34,3.63,5.39,1.49,10.77,3.19,15.85,5.88,1.28.63,2.49,1.45,3.71,2.25l1.34,1.07,1.14-.24,8.15-1.66c10.83-2.23,21.63-4.63,32.24-7.61.75-.23,5.74-1.5,12.57-3.86,1.7-.61,3.52-1.27,5.38-2.05,1.87-.77,3.79-1.66,5.64-2.73,1.86-1.06,3.59-2.33,5.01-3.96,1.41-1.58,2.33-3.59,1.65-5.32-.32-.87-.98-1.66-1.79-2.31-.8-.67-1.76-1.19-2.75-1.63-1.99-.88-4.12-1.43-6.21-1.79-4.19-.7-8.21-.71-11.62-.49-6.83.46-11.25,1.78-11.31,1.52-.02-.08,1.04-.51,2.99-1.05,1.94-.54,4.76-1.19,8.22-1.58,3.46-.4,7.56-.55,11.96.02,2.19.3,4.46.8,6.68,1.7,1.11.45,2.21,1.01,3.22,1.79,1,.77,1.96,1.77,2.48,3.09.54,1.31.51,2.84.08,4.12-.41,1.31-1.16,2.37-1.93,3.34-1.57,1.91-3.53,3.41-5.5,4.59-1.96,1.19-3.94,2.16-5.86,3-1.91.86-3.75,1.57-5.48,2.22-6.92,2.54-11.93,3.9-12.69,4.14-10.72,3.01-21.58,5.43-32.45,7.66l-8.14,1.65-1,.21-.93.21-.48.11c-.14-.08-.27-.21-.41-.31l-1.91-1.53c-1.11-.71-2.19-1.46-3.39-2.05-4.73-2.51-9.98-4.19-15.25-5.65-5.29-1.45-10.68-2.58-16.1-3.57-5.42-.99-10.88-1.85-16.35-2.59-10.94-1.5-21.95-2.61-32.97-3.56-22.05-1.87-44.17-3.01-66.3-3.88-22.13-.85-44.28-1.4-66.43-1.77-44.3-.74-88.62-.85-132.94-.79l-132.96.51c-1.58,0-20.64-.07-39.31-.28-9.33-.1-18.56-.24-25.46-.41-3.45-.08-6.32-.17-8.32-.26-2-.09-3.15-.19-3.15-.29s1.14-.19,3.15-.29,4.87-.18,8.32-.27c6.9-.18,16.13-.35,25.46-.5,18.75-.26,37.73-.53,39.3-.55Z"/><path class="cls-2" d="M559.78,13.03l-132.96-.51c-44.32-.06-88.63.05-132.94.79-22.15.37-44.3.92-66.43,1.77-22.13.86-44.25,2.01-66.3,3.88-11.02.94-22.03,2.05-32.97,3.56-5.47.73-10.93,1.59-16.35,2.59-5.42.99-10.81,2.13-16.1,3.57-5.27,1.45-10.53,3.13-15.25,5.65-1.21.59-2.29,1.34-3.39,2.05l-1.91,1.53c-.14.1-.27.23-.41.31l-.48-.11-.93-.21-1-.21-8.14-1.65c-10.87-2.23-21.72-4.65-32.45-7.66-.76-.23-5.77-1.59-12.69-4.14-1.72-.65-3.57-1.37-5.48-2.22-1.91-.84-3.89-1.8-5.86-3-1.96-1.17-3.93-2.68-5.5-4.59-.77-.97-1.52-2.04-1.93-3.34-.43-1.28-.46-2.81.08-4.12.53-1.32,1.48-2.32,2.48-3.09,1.01-.78,2.11-1.34,3.22-1.79,2.22-.9,4.49-1.4,6.68-1.7,4.4-.57,8.5-.42,11.96-.02,3.46.39,6.29,1.04,8.22,1.58,1.94.54,3.01.97,2.99,1.05-.06.26-4.47-1.07-11.31-1.52-3.4-.22-7.42-.21-11.62.49-2.09.36-4.22.91-6.21,1.79-.99.44-1.95.97-2.75,1.63-.81.65-1.47,1.44-1.79,2.31-.68,1.73.24,3.74,1.65,5.32,1.42,1.63,3.15,2.91,5.01,3.96,1.85,1.07,3.78,1.95,5.64,2.73,1.86.79,3.68,1.45,5.38,2.05,6.83,2.36,11.82,3.63,12.57,3.86,10.61,2.98,21.41,5.38,32.24,7.61l8.15,1.66,1.14.24,1.34-1.07c1.22-.79,2.43-1.62,3.71-2.25,5.08-2.69,10.46-4.39,15.85-5.88,5.4-1.47,10.86-2.63,16.34-3.63,5.48-1,10.97-1.87,16.48-2.61,11.01-1.51,22.06-2.63,33.12-3.57,22.12-1.87,44.27-3.02,66.43-3.89,22.16-.85,44.32-1.4,66.49-1.77,44.33-.74,88.66-.85,132.99-.79l132.97.51c1.57.02,20.55.29,39.3.55,9.33.15,18.56.32,25.46.5,3.45.09,6.32.18,8.32.27s3.15.19,3.15.29-1.14.19-3.15.29c-2,.09-4.87.18-8.32.26-6.9.16-16.13.3-25.46.41-18.66.21-37.72.29-39.31.28Z"/></g><ellipse id="Line_1_Shape" class="cls-1" cx="636.01" cy="11.85" rx="472.76" ry="11.19"/></g></svg>