<?xml version="1.0" encoding="UTF-8"?><svg id="Line" xmlns="http://www.w3.org/2000/svg" viewBox="0 0 1265 64.5"><defs><style>.cls-1{opacity:.24;}.cls-1,.cls-2{fill:#fff;stroke-width:0px;}</style></defs><g id="Line_7"><g id="Line_7_Lines"><path class="cls-2" d="M1126.93,32.26c-40.96-2.72-81.99-4.42-123.02-5.77-41.04-1.32-82.1-2.21-123.16-2.87-82.12-1.29-164.26-1.65-246.4-1.56-164.28.23-328.55,2.28-492.81,4.98-2.93.03-38.2.42-72.84.8-17.29.16-34.4.29-47.19.3-6.39,0-11.71-.02-15.42-.08-1.86-.03-3.32-.07-4.31-.11-.99-.05-1.52-.09-1.52-.14s.53-.1,1.52-.15c1.06-.04,2.5-.1,4.31-.17,3.78-.11,9.08-.27,15.41-.45,12.85-.33,29.93-.76,47.17-1.21,34.63-.78,69.9-1.57,72.82-1.64,164.27-2.71,328.55-4.76,492.85-4.98,82.15-.09,164.3.27,246.45,1.56,41.07.66,82.14,1.55,123.2,2.87,41.06,1.34,82.11,3.05,123.12,5.77,1.46.1,11.01.76,24.49,1.9,13.48,1.15,30.9,2.79,48.07,5.04,17.16,2.25,34.11,5.08,46.46,8.64,6.17,1.77,11.19,3.69,14.42,5.63.78.52,1.52.92,2.08,1.39.56.48,1.07.83,1.4,1.21.67.76.99,1.17.96,1.2s-.44-.32-1.15-.99c-.76-.62-1.94-1.45-3.56-2.31-3.24-1.74-8.27-3.47-14.43-5.07-12.34-3.21-29.27-5.72-46.42-7.71-17.16-1.99-34.56-3.42-48.03-4.42-13.47-.99-23.01-1.58-24.48-1.67Z"/><path class="cls-2" d="M580.69,17.69H73.02c-1.5-.02-19.61-.22-37.51-.42-8.91-.13-17.72-.28-24.3-.45-3.29-.09-6.03-.17-7.94-.27-1.91-.09-3-.19-3-.29s1.09-.19,3-.29c1.91-.09,4.65-.18,7.94-.27,6.59-.17,15.4-.32,24.3-.45,17.91-.2,36.02-.4,37.51-.42h507.67c.75,0,5.67.05,12.64.11,3.48.04,7.47.08,11.71.13,4.23.01,8.74.23,13.08-.03,2.16-.14,4.32-.44,6.04-1.32.83-.46,1.58-1.03,2.01-1.83.43-.79.72-1.69.77-2.65.02-.24.05-.47.06-.71l-.02-.72c0-.49-.04-.94-.12-1.37-.17-.87-.54-1.66-1.06-2.33-1.05-1.35-2.61-2.17-4.09-2.63-3-.91-5.87-.63-7.39.29-.37.24-.64.51-.83.79-.15.29-.23.57-.24.81-.03.48.08.75.01.77-.02,0-.06-.05-.13-.17-.07-.12-.15-.31-.18-.59-.05-.27,0-.63.14-1.01.18-.37.48-.75.89-1.07,1.68-1.22,4.68-1.69,8.02-.88,1.65.42,3.47,1.24,4.85,2.84.68.79,1.2,1.79,1.45,2.87.12.54.19,1.09.21,1.62l.05.81c0,.27-.02.55-.03.83-.02,1.11-.32,2.29-.88,3.37-.56,1.12-1.57,1.96-2.61,2.58-2.15,1.17-4.5,1.52-6.75,1.75-2.27.22-4.53.27-6.74.3-2.21.03-4.39.06-6.5.08-4.24.05-8.23.09-11.71.13-6.98.06-11.89.11-12.64.11Z"/><path class="cls-2" d="M1124.95,39.34c-41.01-2.01-82.06-3.14-123.12-3.94-41.06-.78-82.13-1.17-123.2-1.36-82.14-.33-164.29.2-246.44,1.18-82.14.98-164.28,2.43-246.41,4.2-82.13,1.78-164.26,3.87-246.37,6.34-.73.02-3.49.09-7.75.21-2.13.06-4.64.12-7.46.2-.7.02-1.43.04-2.17.06-.34,0-.69.02-1.04.03h-.01c.09-.03-.09.03-.16.06l-.55.2c-1.47.54-3.01,1.11-4.61,1.7-3.17,1.26-6.7,2.23-10.36,3.38-1.82.6-3.74,1.03-5.67,1.54-1.94.48-3.9,1.03-5.92,1.48-4.05.83-8.18,1.82-12.43,2.48-2.12.35-4.24.77-6.39,1.07-2.15.3-4.3.6-6.45.9-17.21,2.24-34.37,2.96-47.17,3-6.4.04-11.72-.07-15.43-.19-1.8-.07-3.25-.12-4.31-.17C.53,61.68,0,61.63,0,61.58s.53-.1,1.52-.14c.99-.04,2.45-.08,4.31-.12,3.71-.07,9.02-.14,15.41-.35,12.76-.38,29.85-1.4,46.91-3.89,2.13-.33,4.26-.66,6.39-.99,2.13-.33,4.23-.77,6.33-1.15,4.21-.72,8.29-1.75,12.29-2.62,1.99-.47,3.92-1.04,5.84-1.54,1.9-.53,3.8-.97,5.59-1.59,3.59-1.18,7.07-2.17,10.17-3.45,1.57-.6,3.07-1.17,4.52-1.72l.54-.21.38-.14.26-.1h.28c.41-.03.82-.04,1.22-.06.74-.03,1.47-.05,2.17-.08,2.82-.1,5.33-.19,7.46-.27,4.26-.15,7.02-.24,7.75-.27,82.12-2.47,164.26-4.56,246.39-6.34,82.14-1.77,164.29-3.22,246.44-4.2,82.15-.97,164.32-1.5,246.48-1.18,41.08.19,82.17.57,123.24,1.36,41.08.8,82.16,1.93,123.21,3.94,2.93.17,38.24,1.88,72.7,5.37,17.22,1.76,34.23,4.01,46.78,6.63,3.13.71,6,1.29,8.52,1.95,2.5.71,4.69,1.29,6.47,1.85,1.75.64,3.12,1.16,4.05,1.52.93.36,1.41.58,1.39.62s-.54-.08-1.49-.35c-.96-.27-2.35-.69-4.11-1.24-1.82-.44-4.01-.97-6.5-1.57-2.52-.57-5.4-1.06-8.53-1.69-12.56-2.27-29.55-4.21-46.76-5.71-34.43-2.97-69.73-4.35-72.65-4.53Z"/><path class="cls-2" d="M50.53,60.24c58.75.1,117.5-.21,176.21-1.96,29.35-.9,58.69-2.14,87.96-4.3,14.63-1.1,29.24-2.42,43.77-4.32,7.26-.96,14.5-2.06,21.66-3.46,3.57-.73,7.14-1.49,10.64-2.45,3.5-.95,6.98-2,10.24-3.43.25-.08,1.09-.51,2.42-1.12.32-.17.65-.37,1.02-.58.26-.15.53-.31.81-.47.42-.19.81-.68,1.27-.28,1.04.48,2.21,1.01,3.46,1.58,4.4,2.04,10.07,4.73,15.5,7.8,2.71,1.55,5.36,3.19,7.67,5.02,1.16.89,2.21,1.89,3.12,2.91.85,1.07,1.65,2.17,1.94,3.42.12.29.15.6.17.91.01.3.09.59.04.88-.03.58-.2,1.12-.41,1.59-.47.93-1.18,1.51-1.77,1.86-1.23.68-2.04.7-2.05.62-.03-.11.72-.32,1.73-1.09.49-.39,1.02-.96,1.32-1.73.13-.39.23-.82.21-1.28.03-.23-.07-.47-.09-.71-.03-.24-.07-.49-.19-.72-.7-1.97-2.69-3.77-4.97-5.38-2.29-1.62-4.96-3.11-7.67-4.52-5.46-2.79-11.18-5.27-15.61-7.17-.56-.24-1.09-.46-1.6-.68-.26-.11-.51-.22-.75-.32l-.18-.08-.09-.04h0s-.02,0-.02,0c0,0-.02.01-.02.01h0s.01,0,0,0l-.08.05c-.1.06-.21.13-.31.19-.4.24-.77.49-1.13.68-1.42.7-2.33,1.19-2.59,1.27-3.48,1.52-7.05,2.59-10.64,3.57-3.59.98-7.21,1.75-10.83,2.49-7.25,1.42-14.54,2.53-21.85,3.49-14.61,1.91-29.26,3.23-43.93,4.33-29.33,2.16-58.71,3.41-88.09,4.31-58.76,1.75-117.54,2.06-176.3,1.96-1.05,0-13.68-.19-26.05-.49-6.18-.15-12.3-.32-16.87-.5C3.03,61.93,0,61.74,0,61.54c0-.2,3.03-.38,7.6-.55,4.57-.16,10.69-.3,16.88-.41,12.37-.22,25-.35,26.05-.35Z"/></g><path id="Line_7_Shape" class="cls-1" d="M1024.43,14.38H0v40.05s459.12,0,632.39,0,392.04-40.05,392.04-40.05Z"/></g></svg>