<?xml version="1.0" encoding="UTF-8"?><svg id="Line" xmlns="http://www.w3.org/2000/svg" viewBox="0 0 1258.96 57.66"><defs><style>.cls-1{opacity:.24;}.cls-1,.cls-2{fill:#fff;stroke-width:0px;}</style></defs><g id="Line_9"><g id="Line_9_Lines"><path class="cls-2" d="M1021.99,56.69l-32.27.82-4.03.11-1.01.03-.65.02c-.17.03-.34-.05-.47-.09l-.29-.09-1.95-.58-3.9-1.17-1.95-.59c-.64-.21-1.28-.46-1.92-.68l-3.83-1.38c-1.28-.46-2.56-.91-3.8-1.46l-3.75-1.58c-1.25-.52-2.51-1.04-3.72-1.65-9.85-4.56-19.23-10.09-28.06-16.39-4.38-3.19-8.66-6.54-12.73-10.14-2.03-1.81-4.03-3.65-5.95-5.6l-.84-.87H2.86v18.08h968.34c1.51,0,7.17.01,15.92.03,8.75.03,20.59.03,34.46-.09,27.74-.23,63.61-.86,99.07-2.23,17.73-.69,35.36-1.57,51.8-2.76,8.22-.6,16.15-1.27,23.63-2.09,7.48-.84,14.53-1.76,20.9-3.16,1.59-.36,3.13-.75,4.6-1.23,1.45-.48,2.9-1.03,3.97-1.86.27-.21.48-.45.62-.68.14-.25.16-.43.13-.8-.04-.66-.21-1.3-.5-1.87-.61-1.15-1.63-2.04-2.72-2.7-2.21-1.33-4.64-1.97-6.85-2.41-2.23-.41-4.34-.59-6.2-.5-.23.01-.46.04-.68.06-.2.02-.47.09-.53.13-.07-.06-.07-.11-.14-.12,0,0,0,0,.08-.04.02-.02.04-.05.07-.07h0s.02.02.04.03c.07.04.17.07.26.1.19.06.4.11.6.15.81.16,1.6.23,2.34.3,1.47.12,2.72.15,3.74.17.99,0,1.77.01,2.32.02.53,0,.8.01.8.04,0,.02-.27.06-.79.11-.53.04-1.31.1-2.33.13-1.02.03-2.28.05-3.77-.03-.74-.04-1.54-.09-2.4-.23-.21-.04-.43-.08-.66-.14-.11-.03-.23-.07-.36-.13-.06-.04-.13-.06-.23-.19-.05-.05-.09-.18-.05-.31.03-.07.11-.17.14-.19.32-.2.53-.19.78-.25.24-.04.48-.07.72-.08,1.94-.14,4.07,0,6.37.38,2.28.4,4.78,1,7.17,2.38,1.18.69,2.34,1.65,3.09,3,.36.68.59,1.45.64,2.24.06.35.01.93-.23,1.32-.22.4-.52.72-.84.98-1.29,1.02-2.77,1.57-4.27,2.1-1.51.51-3.08.93-4.68,1.32-6.43,1.51-13.5,2.51-21,3.43-7.5.9-15.43,1.66-23.66,2.33-16.46,1.34-34.1,2.36-51.84,3.18-35.48,1.64-71.36,2.48-99.13,2.85-13.88.19-25.74.25-34.49.26-8.76.02-14.42.03-15.92.03H0V12.53h911.66c.16.01.35-.03.49.03l.34.37.58.61.68.71c1.86,1.88,3.82,3.69,5.81,5.46,3.99,3.53,8.19,6.82,12.51,9.96,8.68,6.2,17.91,11.64,27.59,16.12,1.19.6,2.42,1.11,3.65,1.62l3.69,1.55c1.22.54,2.48.98,3.73,1.43l3.76,1.36c.63.22,1.25.46,1.88.67l1.91.57,3.83,1.15,1.91.57.22.07s0,0,.11,0h.25s1.01-.03,1.01-.03l4.03-.11,32.27-.82c3.01-.07,22.63-.53,50.38-1.18,13.87-.35,29.77-.79,46.63-1.41,16.86-.62,34.68-1.43,52.37-2.66,17.68-1.27,35.27-2.86,51.46-5.79,4.04-.75,7.99-1.58,11.79-2.61,3.79-1.04,7.47-2.21,10.82-3.8,1.66-.8,3.25-1.7,4.63-2.79,1.35-1.11,2.6-2.42,3.7-3.73,2.22-2.65,3.69-5.75,4.08-8.88.2-1.57.05-3.12-.25-4.6-.35-1.47-.94-2.85-1.64-4.12-1.47-2.51-3.46-4.52-5.53-6.11-4.19-3.17-8.68-4.67-12.38-5.29-3.73-.66-6.73-.36-8.72-.02-.49.1-.93.18-1.32.26-.36.1-.68.18-.94.26-.51.13-.78.19-.78.17,0-.02.24-.13.74-.31.26-.09.57-.2.93-.33.38-.1.82-.21,1.32-.33,1.99-.44,5.05-.84,8.87-.26,3.79.55,8.41,1.98,12.79,5.18,2.17,1.61,4.27,3.67,5.87,6.3.76,1.33,1.41,2.79,1.81,4.37.35,1.58.53,3.26.34,4.96-.38,3.39-1.93,6.74-4.22,9.53-1.16,1.41-2.39,2.74-3.85,3.97-1.48,1.2-3.14,2.15-4.86,3.01-3.45,1.69-7.18,2.91-11.02,4-3.84,1.08-7.82,1.96-11.89,2.75-16.27,3.11-33.9,4.84-51.61,6.24-17.72,1.37-35.55,2.29-52.42,3.02-16.87.73-32.77,1.25-46.65,1.67-27.75.77-47.38,1.32-50.39,1.4Z"/></g><rect id="Line_9_Shape" class="cls-1" x="1.43" y="5.55" width="518.94" height="37.6"/></g></svg>