<?xml version="1.0" encoding="UTF-8"?><svg id="Line" xmlns="http://www.w3.org/2000/svg" viewBox="0 0 1266 24.86"><defs><style>.cls-1{opacity:.24;}.cls-1,.cls-2{fill:#fff;stroke-width:0px;}</style></defs><g id="Line_3"><g id="Line_3_Lines"><path class="cls-2" d="M142.23,0h396.08s-.88,1.75-.88,1.75c-.23.55-.51,1.12-.69,1.66l-.13.49c-.03.12-.07.24-.08.36-.04.24-.1.48-.12.72-.15.96-.06,1.9.17,2.78.19.9.73,1.66,1.28,2.4.36.32.66.68,1.04.97.41.27.78.59,1.22.83l1.36.69,1.47.54c.98.36,2.11.61,3.15.92,1.06.32,2.15.53,3.23.79,1.08.26,2.17.51,3.26.71,8.75,1.77,17.66,2.9,26.59,3.79,17.87,1.75,35.85,2.58,53.81,2.62,17.96-.04,35.94-.87,53.81-2.62,8.93-.89,17.84-2.02,26.59-3.79,1.1-.2,2.18-.45,3.26-.71,1.08-.26,2.18-.48,3.23-.79,1.05-.31,2.17-.56,3.15-.92l1.47-.54,1.36-.69c.44-.24.81-.56,1.22-.83.39-.29.69-.66,1.04-.97.55-.74,1.08-1.5,1.28-2.4.23-.88.32-1.82.17-2.78-.02-.24-.09-.48-.13-.72-.02-.12-.05-.24-.08-.36l-.13-.49c-.18-.54-.47-1.1-.7-1.65L727.67,0h396.1c1.49,0,11.23.05,25,.11,3.44.02,7.14.04,11.02.06.97,0,1.95.01,2.94.02,1.01.04,2.03.08,3.06.12,1.03.02,2.06.1,3.1.21,1.04.09,2.08.19,3.14.29,8.39.96,17.12,2.58,25.77,4.3,17.29,3.49,34.26,7.41,47.01,10.05,6.37,1.33,11.67,2.38,15.39,3.1,1.86.35,3.31.63,4.31.84.99.21,1.52.34,1.51.39s-.55.01-1.55-.1c-1.01-.11-2.48-.31-4.36-.56-3.75-.54-9.09-1.41-15.5-2.58-12.83-2.31-29.89-5.93-47.18-9.15-8.65-1.59-17.36-3.08-25.63-3.92-4.16-.37-8.08-.57-11.99-.47-3.88.02-7.58.04-11.02.06-13.78.06-23.51.11-25,.11h-391.71s0-.02,0-.02l.03.11.06.23c.04.15.08.31.11.46.06.32.13.62.16.95.19,1.27.1,2.62-.25,3.91-.31,1.32-1.06,2.48-1.88,3.51-.47.45-.91.95-1.42,1.33-.52.36-1.03.77-1.57,1.06l-1.65.84-1.7.62c-1.13.41-2.22.64-3.33.97-1.1.33-2.22.55-3.33.82-1.11.27-2.22.52-3.34.73-8.91,1.8-17.89,2.93-26.88,3.83-17.98,1.77-36.03,2.59-54.09,2.63-18.06-.04-36.11-.87-54.09-2.63-8.99-.9-17.97-2.03-26.88-3.83-1.12-.21-2.23-.46-3.34-.72-1.11-.27-2.22-.49-3.33-.82-1.11-.33-2.19-.56-3.33-.97l-1.7-.62-1.65-.84c-.54-.3-1.05-.71-1.57-1.06-.51-.39-.95-.89-1.42-1.33-.81-1.04-1.57-2.19-1.88-3.51-.35-1.29-.44-2.64-.25-3.91.03-.32.11-.63.16-.95.03-.16.06-.31.11-.46l.06-.23.03-.11v.02s-391.7,0-391.7,0c-1.49,0-11.23-.05-25-.11-3.44-.02-7.14-.04-11.02-.06-3.92-.09-7.83.11-11.99.48-8.27.84-16.98,2.34-25.63,3.92-17.29,3.23-34.35,6.85-47.18,9.15-6.41,1.17-11.76,2.04-15.5,2.58-1.88.26-3.35.45-4.36.56-1.01.11-1.55.15-1.55.1s.52-.18,1.51-.39c.99-.21,2.45-.49,4.31-.84,3.71-.73,9.02-1.77,15.39-3.1,12.75-2.64,29.72-6.55,47.01-10.05,8.65-1.72,17.38-3.34,25.77-4.3,1.05-.1,2.1-.19,3.14-.29,1.04-.11,2.07-.19,3.1-.21,1.03-.04,2.05-.08,3.06-.12.99,0,1.97-.01,2.94-.02,3.88-.02,7.58-.04,11.02-.06,13.78-.06,23.51-.11,25-.11Z"/></g><path id="Line_3_Shape" class="cls-1" d="M267.66,18.17h730.68c-8.93-9.99,21.3-13.17,21.3-13.17H246.36s30.23,3.18,21.3,13.17Z"/></g></svg>