<?xml version="1.0" encoding="UTF-8"?><svg id="Line" xmlns="http://www.w3.org/2000/svg" viewBox="0 0 1275.15 63.2"><defs><style>.cls-1{opacity:.24;}.cls-2{fill:#fff;stroke-width:0px;}</style></defs><g id="Line_6"><g id="Line_6_Lines"><path class="cls-2" d="M133.21,26.21h998.79c2.97.02,38.71.22,73.81.42,17.48.17,34.79.33,47.81.45,6.48.09,11.86.17,15.62.27,1.88.05,3.36.09,4.36.14,1.01.05,1.54.1,1.54.15s-.54.1-1.54.15-2.48.1-4.36.14c-3.76.09-9.15.18-15.62.27-13.02.12-30.34.29-47.81.45-35.09.2-70.84.4-73.81.42H133.21c-2.97-.02-38.71-.22-73.81-.42-4.38-.03-8.75-.07-13.04-.1-1.07,0-2.14-.02-3.2-.03-1.08-.06-2.16-.13-3.23-.19-.53-.05-1.07-.03-1.59-.13-.52-.09-1.05-.17-1.57-.26-.52-.09-1.04-.17-1.55-.26-.52-.08-1.03-.17-1.53-.32-1-.27-1.99-.53-2.98-.8-.98-.27-1.9-.68-2.84-1-.47-.17-.93-.34-1.39-.52-.45-.2-.89-.41-1.33-.62-.87-.42-1.75-.81-2.59-1.25-3.31-1.81-6.25-3.83-8.77-5.92C8.79,13.04,5.42,8.7,3.45,5.47c-.46-.83-.88-1.57-1.2-2.23-.29-.68-.55-1.25-.73-1.72C1.23.53,1.11.01,1.15,0c.05-.01.27.48.63,1.4.24.46.52,1.01.84,1.63.36.63.81,1.33,1.3,2.12,2.09,3.08,5.55,7.24,10.57,11.24,2.52,1.98,5.43,3.89,8.69,5.58.82.41,1.68.76,2.54,1.16.43.19.86.39,1.3.57.45.16.9.31,1.36.47.91.3,1.82.68,2.77.92.95.24,1.91.47,2.89.71.48.14.98.21,1.48.28.5.07,1,.15,1.5.22.5.07,1.01.15,1.51.22.5.08,1.02.06,1.53.1,1.03.04,2.06.09,3.1.13,1.06,0,2.13-.02,3.2-.03,4.29-.03,8.66-.07,13.04-.1,35.09-.2,70.84-.4,73.81-.42Z"/><path class="cls-2" d="M29.98,40.61l1.33-.22c.44-.06.9-.06,1.35-.1l2.69-.15h656.64c.98,0,7.4.05,16.48.11,4.54.04,9.74.08,15.26.13,2.76.03,5.6.05,8.47.08,1.44.01,2.88.03,4.33.04h1.09c.47,0,.48.05.57,0l1.47-1.25c4.62-3.73,9.92-6.5,15.12-8.21,5.19-1.77,10.21-2.64,14.5-3.1,4.29-.49,7.88-.51,10.38-.53,2.5.06,3.92.13,3.92.23,0,.1-1.42.22-3.91.34-2.48.21-6.04.41-10.25,1.06-4.22.63-9.11,1.65-14.11,3.5-5,1.8-10.02,4.6-14.36,8.26l-1.81,1.61-.18.16c-.06.06-.15.02-.22.03h-.47s-.65,0-.65,0h-1.09c-1.45.03-2.9.04-4.33.06-2.88.03-5.71.06-8.47.08-5.52.05-10.73.09-15.26.13-9.09.06-15.5.11-16.48.11H35.35l-2.47.14c-.41.03-.82.03-1.23.09l-1.22.21c-.72.11-4.79.66-10.29,3.26-2.73,1.31-5.8,3.11-8.89,5.47-1.54,1.18-3.12,2.46-4.65,3.89-.39.35-.77.71-1.15,1.08l-.57.56-.29.29-.49.52-.97,1.04-.49.53-.53.63c-.7.83-1.4,1.67-2.1,2.51-.02-.13-.02-.32-.01-.52v-.58s0-1.16,0-1.16c0-.77,0-1.54.01-2.32,0-1.2.02-2.41.03-3.62.02-1.73.04-3.47.05-5.22.04-3.49.08-7.01.12-10.47.1-6.89.19-13.55.27-19.4.1-5.82.2-10.8.31-14.32C.92,2.06,1.04,0,1.15,0s.23,2.06.34,5.59c.11,3.52.22,8.5.31,14.32.15,10.82.34,24.63.52,37.07.15-.19.26-.32.5-.59l.08-.09.28-.29.58-.59c.38-.4.77-.78,1.17-1.15,1.56-1.51,3.18-2.87,4.76-4.13,3.18-2.51,6.38-4.46,9.26-5.89,5.8-2.85,10.24-3.52,11.02-3.64Z"/></g><g id="Line_6_Shape"><g class="cls-1"><path class="cls-2" d="M6.51,14.93v33.3h888.95c11.68-10.76,28.19-20.59,53.82-20.59-25.63,0-42.15-1.95-53.82-12.71H6.51Z"/></g><g class="cls-1"><path class="cls-2" d="M949.28,27.64h.03s-.02,0-.03,0Z"/></g></g></g></svg>