<?xml version="1.0" encoding="UTF-8"?><svg id="Line" xmlns="http://www.w3.org/2000/svg" viewBox="0 0 258 289"><defs><style>.cls-1{opacity:.24;}.cls-2{fill:#fff;stroke-width:0px;}</style></defs><g id="SquareFrame_8"><g id="SquareFrame_8_Lines"><path class="cls-2" d="M233.72,108.91v146.38H23.82V108.91c0-1.48.16-19.29.42-36.72.13-8.72.28-17.34.45-23.79.09-3.22.18-5.9.27-7.77.09-1.87.19-2.94.29-2.94s.19,1.07.29,2.94c.09,1.87.18,4.55.27,7.77.17,6.45.32,15.07.45,23.79.26,17.44.42,35.24.42,36.72v143.53h204.19V108.91c0-1.48.16-19.29.42-36.72.13-8.72.28-17.34.45-23.79.09-3.22.18-5.9.27-7.77.09-1.87.19-2.94.29-2.94s.19,1.07.29,2.94c.09,1.87.18,4.55.27,7.77.17,6.45.32,15.07.45,23.79.26,17.44.42,35.24.42,36.72Z"/><path class="cls-2" d="M102.99,271.04c-9.35-2.92-18.95-5.17-28.47-7.97-4.75-1.41-9.5-2.96-14.12-4.95-2.29-1.05-4.58-2.15-6.74-3.57-2.21-1.43-4-3.18-5.92-4.82-3.6-3.51-7.01-7.25-9.83-11.4-1.52-2-2.76-4.18-4.1-6.29-.68-1.05-1.22-2.18-1.83-3.27-.58-1.1-1.23-2.18-1.76-3.31-4.44-8.95-7.79-18.36-10.46-27.92-5.3-19.16-7.99-38.86-9.71-58.55-1.69-19.71-2.28-39.47-2.49-59.21,0-.71.07-9.2.33-17.5.25-8.31.61-16.43,1.01-16.43.39,0,.74,8.13,1.01,16.43.25,8.49.49,16.8.51,17.48.21,19.7.8,39.4,2.47,59,1.71,19.58,4.4,39.14,9.62,58.03,2.63,9.43,5.92,18.68,10.26,27.41.52,1.1,1.15,2.15,1.71,3.22.6,1.06,1.12,2.16,1.78,3.18,1.3,2.05,2.51,4.17,3.98,6.09,2.73,4.02,6,7.6,9.45,10.97,1.83,1.56,3.59,3.27,5.53,4.52,1.97,1.29,4.13,2.35,6.32,3.35,4.43,1.92,9.09,3.44,13.78,4.83,9.41,2.77,19.03,5.02,28.51,7.98.34.12,2.54.82,5.61,2.01,3.06,1.2,7,2.87,10.62,5.14,3.58,2.26,6.85,5.31,8.02,8.38,1.25,3.01.78,5.2.68,5.16-.28.02-.24-2.1-1.68-4.67-1.35-2.63-4.52-5.19-8.05-7.13-3.56-1.94-7.46-3.36-10.49-4.4-3.04-1.02-5.24-1.64-5.57-1.76Z"/><path class="cls-2" d="M153.82,268.27c9.53-2.97,19.18-5.22,28.62-8.02,4.71-1.41,9.38-2.93,13.82-4.88,2.21-.99,4.34-2.1,6.32-3.39l1.42-1.03c.47-.34.93-.77,1.4-1.15l2.79-2.36c3.58-3.3,7-6.79,10.03-10.61.79-.92,1.47-1.94,2.21-2.91.73-.97,1.46-1.95,2.11-2.98l2.01-3.05,1.84-3.16c2.39-4.25,4.54-8.65,6.31-13.21,1.85-4.53,3.34-9.21,4.69-13.92,5.22-18.95,7.24-38.7,8.39-58.39,1.13-19.72,1.31-39.52,1.39-59.31.03-1.41.67-34.05,1.45-34.05.79,0,1.44,32.65,1.4,34.06-.08,19.81-.26,39.64-1.39,59.46-1.17,19.79-3.18,39.7-8.49,58.99-1.37,4.8-2.89,9.57-4.79,14.21-1.82,4.67-4.02,9.19-6.48,13.56l-1.9,3.25-2.07,3.15c-.67,1.06-1.42,2.07-2.18,3.08-.76,1-1.46,2.05-2.28,3-3.13,3.94-6.66,7.54-10.36,10.95l-2.88,2.44c-.49.4-.93.82-1.47,1.21l-1.58,1.15c-2.17,1.41-4.44,2.59-6.75,3.63-4.63,2.04-9.4,3.58-14.17,5.01-9.55,2.82-19.2,5.08-28.58,8-.33.11-2.54.73-5.59,1.76-3.04,1.04-6.96,2.47-10.54,4.4-3.54,1.95-6.74,4.5-8.09,7.15-1.45,2.59-1.41,4.71-1.69,4.69-.1.04-.57-2.16.69-5.18,1.18-3.08,4.47-6.13,8.07-8.4,3.64-2.27,7.6-3.94,10.66-5.14,3.08-1.19,5.29-1.89,5.63-2.01Z"/><path class="cls-2" d="M107.97,13.31c-7.47,1.4-14.95,2.4-22.35,3.69-7.39,1.29-14.76,2.78-21.77,5.2-3.5,1.21-6.89,2.68-10.01,4.55-3.09,1.9-5.92,4.2-7.96,7.09-2.04,2.87-3.27,6.26-3.56,9.81-.06.44-.06.89-.08,1.33-.01.45-.04.88-.03,1.36v2.83s.02,5.65.02,5.65c.02,7.54.13,15.08.07,22.65-.02,3.79-.14,7.59-.46,11.43-.41,3.83-1.18,7.8-3.02,11.37-1.81,3.57-4.3,6.59-6.74,9.46l-7.38,8.59c-1.24,1.42-2.41,2.88-3.62,4.32l-1.17,1.4.9,1.67c1.8,3.3,3.63,6.57,5.58,9.76.14.23,1,1.74,2.3,3.81,1.3,2.06,3.06,4.7,5.17,6.88,1.05,1.07,2.2,2.04,3.41,2.59,1.2.55,2.47.65,3.45.37.99-.28,1.66-.95,2.07-1.44.41-.51.6-.85.69-.82.09.02.09.45-.2,1.12-.29.64-.92,1.61-2.16,2.18-1.22.56-2.86.61-4.42.08-1.56-.52-2.96-1.53-4.22-2.61-2.51-2.21-4.5-4.84-5.97-6.88-1.47-2.05-2.42-3.55-2.56-3.79-1.99-3.25-3.84-6.56-5.66-9.89l-1.78-3.3-.04-.08.06-.07.11-.14.23-.27.45-.54.64-.77.91-1.09c1.22-1.45,2.41-2.92,3.65-4.35l7.37-8.58c2.43-2.85,4.78-5.73,6.37-8.91,3.21-6.36,3-14.1,3.17-21.55.06-7.51-.05-15.07-.07-22.61l-.02-5.66v-2.83c0-.94.01-1.97.11-2.95.32-3.98,1.74-7.93,4.08-11.21,2.33-3.3,5.48-5.84,8.81-7.88,3.36-2.01,6.93-3.55,10.55-4.81,7.27-2.51,14.76-4,22.22-5.31,7.46-1.3,14.95-2.31,22.31-3.69.26-.05,1.99-.32,4.4-.78,2.41-.47,5.51-1.13,8.43-2.13,2.91-.99,5.62-2.46,6.93-4.22,1.35-1.74,1.33-3.4,1.58-3.38.09,0,.19.39.2,1.11-.02.71-.22,1.77-.85,2.88-.62,1.11-1.66,2.2-2.91,3.12-1.25.92-2.71,1.7-4.21,2.36-3.01,1.31-6.16,2.19-8.59,2.82-2.44.61-4.17.97-4.44,1.02Z"/><path class="cls-2" d="M150.1,10.5c7.36,1.38,14.85,2.38,22.31,3.69,7.46,1.31,14.94,2.8,22.22,5.31,3.63,1.26,7.2,2.79,10.55,4.81,3.32,2.04,6.48,4.58,8.81,7.88,2.34,3.28,3.76,7.23,4.08,11.21.1.98.11,2.02.12,2.95v2.83s-.02,5.66-.02,5.66c-.02,7.55-.13,15.1-.07,22.61.17,7.45-.04,15.19,3.17,21.55,1.6,3.18,3.94,6.05,6.37,8.91l7.37,8.58c1.24,1.43,2.43,2.9,3.65,4.35l.91,1.09.64.77.45.54.23.27.11.14.06.07-.04.08-1.78,3.3c-1.81,3.33-3.67,6.64-5.66,9.89-.14.23-1.09,1.73-2.56,3.79-1.47,2.05-3.46,4.68-5.97,6.88-1.26,1.08-2.66,2.08-4.22,2.61-1.56.52-3.2.48-4.42-.08-1.24-.57-1.87-1.53-2.16-2.18-.29-.67-.29-1.1-.2-1.12.1-.03.28.31.69.82.41.49,1.08,1.16,2.07,1.44.98.28,2.25.18,3.45-.37,1.21-.55,2.36-1.52,3.41-2.59,2.11-2.18,3.86-4.82,5.17-6.88,1.3-2.07,2.17-3.58,2.3-3.81,1.95-3.18,3.78-6.46,5.58-9.76l.9-1.67-1.17-1.4c-1.21-1.44-2.39-2.9-3.62-4.32l-7.38-8.59c-2.44-2.88-4.94-5.89-6.74-9.46-1.83-3.57-2.6-7.55-3.02-11.37-.32-3.84-.43-7.64-.46-11.43-.06-7.58.05-15.11.07-22.65l.02-5.65v-2.83c.02-.48,0-.92-.02-1.36-.02-.44-.02-.89-.08-1.33-.29-3.54-1.52-6.93-3.56-9.81-2.04-2.89-4.87-5.2-7.96-7.09-3.12-1.87-6.51-3.34-10.01-4.55-7.01-2.42-14.38-3.9-21.77-5.2-7.4-1.29-14.88-2.3-22.35-3.69-.27-.05-2-.41-4.44-1.02-2.44-.62-5.59-1.51-8.59-2.82-1.5-.66-2.96-1.44-4.21-2.36-1.25-.92-2.29-2.01-2.91-3.12-.63-1.11-.82-2.16-.85-2.88,0-.72.1-1.11.2-1.11.25-.03.23,1.63,1.58,3.38,1.31,1.76,4.02,3.23,6.93,4.22,2.92,1,6.02,1.66,8.43,2.13,2.41.46,4.13.73,4.4.78Z"/><path class="cls-2" d="M26.44,33.96c1.16-1.72,2.27-3.84,3.88-5.64,1.57-1.84,3.54-3.28,5.57-4.45,4.11-2.29,8.51-3.62,12.9-4.7,4.4-1.05,8.84-1.84,13.29-2.43,4.45-.61,8.91-1.08,13.36-1.46,17.84-1.48,35.71-1.77,53.56-1.81,17.85.04,35.72.33,53.56,1.81,4.46.37,8.92.84,13.36,1.46,4.45.59,8.89,1.38,13.29,2.43,4.39,1.08,8.79,2.41,12.9,4.7,2.03,1.17,4,2.61,5.57,4.45,1.61,1.8,2.73,3.92,3.88,5.64.08.12.39.6.9,1.25.53.64,1.26,1.39,2.43,2.24,2.21,1.72,5.43,3.53,8.87,4.82,3.44,1.29,7.01,2.17,9.72,2.65,2.71.51,4.53.7,4.53.9,0,.19-1.86.38-4.66.2-2.8-.16-6.55-.74-10.23-1.84-3.68-1.1-7.24-2.84-9.76-4.6-1.26-.81-2.36-1.79-3.03-2.56-.66-.78-1.02-1.31-1.12-1.45-1.32-1.98-2.3-3.84-3.67-5.37-1.33-1.56-3.01-2.79-4.83-3.85-3.69-2.07-7.91-3.37-12.16-4.41-4.27-1.02-8.62-1.8-13-2.38-4.38-.6-8.79-1.07-13.22-1.44-17.7-1.47-35.52-1.76-53.32-1.8-17.8.04-35.62.33-53.32,1.8-4.42.37-8.83.84-13.22,1.44-4.39.58-8.74,1.36-13,2.38-4.25,1.04-8.46,2.34-12.16,4.41-1.83,1.05-3.51,2.29-4.83,3.85-1.37,1.53-2.35,3.39-3.67,5.37-.09.14-.46.67-1.12,1.45-.67.77-1.77,1.75-3.03,2.56-2.52,1.76-6.08,3.5-9.76,4.6-3.68,1.1-7.43,1.69-10.23,1.84C1.86,46.21,0,46.02,0,45.83c0-.2,1.82-.39,4.53-.9,2.71-.49,6.28-1.36,9.72-2.65,3.44-1.29,6.66-3.11,8.87-4.82,1.17-.85,1.9-1.59,2.43-2.24.51-.65.81-1.13.9-1.25Z"/></g><g id="SquareFrame_8_Shape" class="cls-1"><path class="cls-2" d="M214.66,83.85c3.73,58.82,5.88,126.77-20.68,152.33-15.59,15.01-65.21,16.19-65.21,38.18,0-21.99-49.62-23.18-65.21-38.18-23.81-22.92-24.55-100.57-21.76-151.74,2.7-49.51,43.79-60.15,86.44-60.15s83.28,10.31,86.41,59.55Z"/></g></g></svg>