<?xml version="1.0" encoding="UTF-8"?><svg id="Line" xmlns="http://www.w3.org/2000/svg" viewBox="0 0 254.03 246.89"><defs><style>.cls-1{opacity:.24;}.cls-1,.cls-2{fill:#fff;stroke-width:0px;}</style></defs><g id="SquareFrame_4"><g id="SquareFrame_4_Lines"><path class="cls-2" d="M232.34,87.44v139.23H21.68V87.44c0-1.44.16-18.76.42-35.72.13-8.48.28-16.87.45-23.14.09-3.14.17-5.74.27-7.56s.19-2.86.29-2.86.19,1.04.29,2.86.18,4.43.27,7.56c.17,6.27.32,14.66.45,23.14.26,16.96.42,34.28.42,35.72v136.37h204.95V87.44c0-1.44.16-18.76.42-35.72.13-8.48.28-16.87.45-23.14.09-3.14.17-5.74.27-7.56s.19-2.86.29-2.86.19,1.04.29,2.86.18,4.43.27,7.56c.17,6.27.32,14.66.45,23.14.26,16.96.42,34.28.42,35.72Z"/><path class="cls-2" d="M244.69,32.6c-.97,2.23-1.75,4.55-2.04,6.94-.12.59-.09,1.19-.14,1.79l-.05.9v.95s0,3.84,0,3.84v91.22c0,.08.02.17-.06.22l-.31.36-.78.9c-3.18,3.72-5.37,8.22-6.66,13-.06.17-.39,1.27-.81,2.86-.41,1.59-.85,3.68-1.2,5.78-.73,4.19-1.01,8.41-1.42,8.41-.37,0-.81-4.23-.58-8.61.09-2.19.35-4.4.63-6.11.3-1.7.56-2.9.63-3.08,1.37-5.08,3.75-10.02,7.24-14.09l.33-.38.16-.18h0s0-.13,0-.13V42.21s.06-1.02.06-1.02c.06-.68.03-1.37.17-2.03.33-2.7,1.19-5.29,2.26-7.73.12-.36,2.24-4.49,5.25-7.75,2.9-3.34,6.42-5.86,6.67-5.53.23.28-2.72,3.27-5.09,6.77-2.48,3.44-4.12,7.35-4.23,7.67Z"/><path class="cls-2" d="M196.12,23.95c1.16-1.4,2.7-2.4,4.25-3.06.78-.28,1.53-.65,2.36-.83.41-.1.81-.23,1.22-.31l1.26-.19c1.69-.16,3.45-.13,5.11.35,1.65.46,3.22,1.19,4.6,2.15,2.75,1.93,4.88,4.49,6.57,7.21,1.71,2.72,3.04,5.62,4.12,8.58,2.15,5.93,3.45,12.12,3.97,18.38.14,1.57.2,3.14.22,4.72.01,1.59-.07,3.15-.14,4.71-.21,3.13-.54,6.27-1.36,9.41-.01.11-.27.83-.69,1.83-.21.5-.52,1.06-.84,1.65-.38.58-.77,1.18-1.31,1.72-.51.55-1.17,1-1.85,1.29-.72.24-1.45.3-2.01.11-1.13-.34-1.5-1.01-1.4-1.12.12-.18.74.1,1.53.02.39,0,.79-.21,1.17-.44.36-.3.72-.67,1.01-1.15.3-.46.53-1,.75-1.5.18-.54.36-1.03.48-1.49.23-.92.39-1.57.4-1.68.74-2.82,1.07-5.83,1.26-8.84.07-1.51.15-3.03.14-4.52-.03-1.5-.08-3-.21-4.51-.5-6-1.76-11.98-3.81-17.63-1.03-2.82-2.29-5.55-3.86-8.04-1.55-2.5-3.47-4.76-5.77-6.37-1.15-.8-2.41-1.37-3.72-1.74-1.31-.39-2.69-.4-4.05-.28l-1.02.15c-.34.07-.67.18-1.01.26-.68.14-1.33.47-2,.7-1.27.54-2.38,1.29-3.19,2.26-.06.07-.47.49-.91,1.2-.44.71-.83,1.77-.94,2.92-.12,1.13.04,2.33.34,3.07.07.16.16.33.2.39.04.06,0,.11.09.13.17-.03.32-.2.42-.15.05.02.07.07.08.17.01.1,0,.24-.13.42-.13.2-.55.32-.85.18-.31-.11-.5-.3-.72-.51-.78-.86-1.3-2.22-1.45-3.68-.16-1.45.11-3,.59-4.09.46-1.1,1-1.79,1.08-1.88Z"/><path class="cls-2" d="M11.94,31.43c1.07,2.45,1.93,5.03,2.26,7.73.13.67.11,1.35.17,2.03l.06,1.02v.96s0,3.84,0,3.84v90.31h0s.16.17.16.17l.33.38c3.49,4.07,5.86,9,7.24,14.09.06.18.33,1.38.63,3.08.28,1.71.54,3.92.63,6.11.23,4.38-.22,8.62-.58,8.61-.42,0-.69-4.21-1.42-8.41-.34-2.1-.79-4.19-1.2-5.78-.42-1.59-.75-2.69-.81-2.86-1.29-4.78-3.48-9.28-6.66-13l-.78-.9-.31-.36c-.07-.05-.06-.14-.06-.22V42.22s-.06-.9-.06-.9c-.06-.6-.02-1.2-.14-1.79-.29-2.39-1.06-4.71-2.04-6.94-.11-.32-1.75-4.23-4.23-7.67C2.73,21.43-.22,18.43.01,18.16c.26-.33,3.77,2.18,6.67,5.53,3.01,3.25,5.13,7.39,5.25,7.75Z"/><path class="cls-2" d="M55.71,25.77c-.81-.97-1.92-1.72-3.19-2.26-.67-.23-1.31-.56-2-.7-.34-.09-.67-.19-1.01-.26l-1.02-.15c-1.36-.13-2.74-.11-4.05.28-1.31.37-2.57.94-3.72,1.74-2.3,1.61-4.22,3.87-5.77,6.37-1.57,2.5-2.83,5.22-3.86,8.04-2.05,5.64-3.31,11.62-3.81,17.63-.14,1.5-.19,3.01-.21,4.51-.01,1.49.07,3.01.14,4.52.2,3.01.53,6.02,1.26,8.84.01.11.17.76.4,1.68.12.46.3.95.48,1.49.22.5.45,1.04.75,1.5.29.48.64.84,1.01,1.15.38.23.78.43,1.17.44.79.07,1.41-.21,1.53-.02.1.12-.27.78-1.4,1.12-.56.19-1.29.12-2.01-.11-.68-.29-1.34-.75-1.85-1.29-.54-.54-.93-1.14-1.31-1.72-.32-.59-.63-1.15-.84-1.65-.42-1-.68-1.72-.69-1.83-.82-3.14-1.15-6.28-1.36-9.41-.07-1.56-.15-3.12-.14-4.71.03-1.58.08-3.15.22-4.72.53-6.26,1.82-12.45,3.97-18.38,1.08-2.96,2.41-5.86,4.12-8.58,1.69-2.72,3.82-5.27,6.57-7.21,1.38-.96,2.95-1.69,4.6-2.15,1.66-.48,3.42-.52,5.11-.35l1.26.19c.41.09.81.21,1.22.31.83.18,1.57.55,2.36.83,1.56.66,3.09,1.65,4.25,3.06.08.09.62.78,1.08,1.88.48,1.1.75,2.64.59,4.09-.15,1.46-.67,2.82-1.45,3.68-.22.21-.41.4-.72.51-.3.13-.72.02-.85-.18-.12-.18-.14-.32-.13-.42,0-.1.04-.15.08-.17.09-.05.25.12.42.15.08-.02.04-.07.09-.13.05-.06.13-.23.2-.39.3-.74.46-1.94.34-3.07-.11-1.14-.5-2.21-.94-2.92-.44-.72-.85-1.14-.91-1.2Z"/><path class="cls-2" d="M225.72,19.58H28.31C27.13,19.58.01,18.94.01,18.16s27.12-1.43,28.29-1.43h197.41c1.18,0,28.29.64,28.29,1.43s-27.12,1.43-28.29,1.43Z"/><path class="cls-2" d="M46.21,9.55c-.48,3.18,2.1,6.01,4.99,8.17,2.99,2.13,6.37,3.84,9.86,5.28,7.01,2.86,14.42,4.88,21.89,6.45,7.48,1.58,15.07,2.7,22.69,3.45,3.81.39,7.63.64,11.45.84,1.91.09,3.82.16,5.74.2.96.03,1.91.03,2.87.04h1.31s2.6-.01,2.6-.01c.94,0,1.89-.04,2.83-.06,1.89-.04,3.77-.14,5.65-.22,3.77-.2,7.53-.5,11.28-.88,7.5-.79,14.98-1.91,22.34-3.5,7.36-1.59,14.65-3.58,21.54-6.44,3.42-1.45,6.77-3.12,9.68-5.25,2.84-2.14,5.34-4.94,4.87-8.07-.06-.21-.05-1.79-1.33-3.5-.63-.85-1.6-1.69-2.82-2.37-1.21-.68-2.66-1.19-4.15-1.52-1.49-.32-3.03-.47-4.44-.41-.71.03-1.38.11-1.99.25-.3.07-.59.17-.82.27-.22.1-.35.17-.5.31-.3.27-.22.7-.04.97.17.27.49.59.74.8.51.44.83.69.78.79-.04.08-.44,0-1.1-.31-.33-.17-.7-.36-1.15-.83-.2-.24-.39-.53-.47-.88-.08-.35,0-.74.21-1.08.2-.34.58-.64.92-.85.34-.2.66-.35,1.02-.48.7-.26,1.46-.43,2.24-.54,1.57-.22,3.25-.22,4.94,0,1.68.23,3.37.68,4.88,1.4,1.51.71,2.85,1.71,3.79,2.83.95,1.11,1.49,2.3,1.76,3.19.27.89.34,1.49.36,1.64.05.56.11,1.06.04,1.66-.06.58-.09,1.17-.28,1.7l-.25.82c-.1.26-.23.5-.35.75l-.37.74-.45.67c-1.22,1.76-2.74,3.15-4.34,4.35-3.22,2.35-6.73,4.09-10.29,5.6-7.15,2.96-14.57,4.98-22.05,6.59-7.48,1.61-15.05,2.75-22.65,3.54-3.8.38-7.61.69-11.42.89-1.91.08-3.82.19-5.73.22-.96.02-1.91.06-2.87.06l-3.09.03v-1.43s.07.07.07.07l.13.14.53.55.53.55s.07.05.05.06h-.09s-.17.04-.17.04c-.11.02-.23.03-.35.02h-1.59c-.97-.03-1.94-.02-2.91-.06-1.94-.04-3.88-.11-5.81-.2-3.87-.2-7.74-.46-11.6-.85-7.72-.76-15.4-1.9-23-3.5-7.59-1.6-15.13-3.65-22.39-6.61-3.62-1.49-7.18-3.27-10.47-5.62-1.61-1.22-3.18-2.6-4.43-4.38l-.46-.68c-.14-.23-.26-.5-.38-.74l-.36-.76-.25-.83c-.2-.54-.24-1.13-.29-1.72-.08-.6-.01-1.12.04-1.68.02-.16.09-.75.36-1.64.27-.89.81-2.07,1.76-3.19.94-1.12,2.27-2.12,3.79-2.83,1.51-.72,3.2-1.17,4.88-1.4,1.68-.22,3.37-.23,4.94,0,.78.11,1.54.28,2.24.54.35.13.68.28,1.02.48.34.21.72.51.92.85.21.34.29.73.21,1.08-.07.35-.26.64-.47.88-.45.47-.81.66-1.15.83-.65.32-1.05.39-1.1.31-.05-.09.27-.34.78-.79.24-.21.57-.53.74-.8.18-.27.26-.7-.04-.97-.14-.14-.28-.21-.5-.31-.23-.1-.52-.2-.82-.27-.61-.14-1.28-.22-1.99-.25-1.41-.06-2.95.09-4.44.41-1.49.33-2.93.84-4.15,1.52-1.22.68-2.18,1.52-2.82,2.37-1.28,1.71-1.27,3.3-1.33,3.5Z"/></g><path id="SquareFrame_4_Shape" class="cls-1" d="M127.01.89c0,14.6-94.24,36.82-94.24,136.06s0,37.35,0,71.58,94.24,13.07,94.24,38.36c0-25.3,94.24-4.14,94.24-38.36s0,27.66,0-71.58S127.01,15.49,127.01.89Z"/></g></svg>