<?xml version="1.0" encoding="UTF-8"?><svg id="Line" xmlns="http://www.w3.org/2000/svg" viewBox="0 0 275.97 295"><defs><style>.cls-1{opacity:.24;}.cls-1,.cls-2{fill:#fff;stroke-width:0px;}</style></defs><g id="SquareFrame_7"><g id="SquareFrame_7_Lines"><path class="cls-2" d="M32.95,181.17V30.28h210.07v150.9c-.02,1.49-.22,19.55-.42,37.4-.13,8.88-.28,17.67-.45,24.23-.09,3.28-.17,6.01-.27,7.92-.09,1.91-.19,2.99-.29,2.99s-.19-1.09-.29-2.99c-.09-1.91-.18-4.64-.27-7.92-.17-6.57-.32-15.35-.45-24.23-.2-17.85-.4-35.91-.42-37.4V33.13H35.81v148.04c-.02,1.49-.22,19.55-.42,37.4-.13,8.88-.28,17.67-.45,24.23-.09,3.28-.18,6.01-.27,7.92-.09,1.91-.19,2.99-.29,2.99s-.19-1.09-.29-2.99c-.09-1.91-.18-4.64-.27-7.92-.17-6.57-.32-15.35-.45-24.23-.2-17.85-.4-35.91-.42-37.4Z"/><path class="cls-2" d="M215.97,213.03c4.06.08,8.14.65,12.06,1.97,1.96.66,3.87,1.51,5.66,2.65,1.78,1.14,3.43,2.58,4.7,4.39,1.27,1.8,2.07,3.95,2.3,6.16.21,2.22-.22,4.46-1.03,6.46-1.67,4.02-4.64,7.1-7.78,9.67-6.41,5.1-13.86,8.38-21.41,10.96-7.59,2.53-15.4,4.22-23.28,5.36l-.54-2.8c8.14-2.04,15.9-5.99,21.78-11.92,2.9-2.96,5.39-6.39,6.75-10.22.29-.96.66-1.92.79-2.91.07-.49.23-.98.24-1.47l.08-1.48c.06-.5-.06-.98-.08-1.47-.05-.48-.06-1.01-.21-1.37-.15-.81-.68-1.52-1.22-2.22-.06-.06-.3-.31-.69-.69-.17-.21-.47-.38-.75-.61-.28-.24-.64-.46-1.03-.7-1.56-.96-3.88-1.86-6.3-2.37-2.42-.52-4.91-.66-6.77-.62-1.86.05-3.1.25-3.16.04-.05-.16,1.12-.73,3.04-1.14,1.91-.39,4.55-.57,7.21-.27,2.66.29,5.32,1.05,7.27,2.06.49.24.94.49,1.32.76.38.27.75.47,1.01.73.54.48.9.8.98.89.8.98,1.58,2.08,1.87,3.4.22.67.22,1.23.29,1.82.03.59.16,1.18.1,1.76l-.09,1.76c-.02.59-.19,1.15-.27,1.72-.16,1.16-.57,2.24-.91,3.34-1.56,4.34-4.28,8.06-7.41,11.25-6.33,6.37-14.54,10.54-23.14,12.69l-.54-2.8c7.73-1.12,15.39-2.78,22.77-5.24,7.34-2.49,14.55-5.7,20.51-10.47,2.93-2.38,5.58-5.21,6.94-8.53.67-1.65.99-3.39.83-5.1-.18-1.71-.8-3.37-1.8-4.79-2.01-2.88-5.39-4.78-8.92-5.97-3.56-1.2-7.39-1.75-11.2-1.82-.41-.03-5.54-.29-10.47.68-2.46.45-4.82,1.22-6.51,1.97-1.7.74-2.73,1.45-2.88,1.29-.12-.13.7-1.16,2.34-2.26,1.62-1.11,4.03-2.23,6.57-2.96,5.09-1.54,10.57-1.6,11-1.57Z"/><path class="cls-2" d="M235.05,62.33l-1.54-2.4c-.55-.78-1.15-1.51-1.72-2.27-.55-.77-1.2-1.47-1.84-2.17-.66-.69-1.24-1.44-1.96-2.06l-2.08-1.95-2.22-1.79c-.72-.62-1.53-1.14-2.31-1.68-.79-.54-1.55-1.11-2.39-1.57-6.51-4.03-13.79-6.78-21.26-8.73-15.01-3.86-30.69-4.63-46.27-4.64-.55-.03-13.46-.55-13.47-1.36,0-.77,12.9-1.53,13.47-1.5,15.68.02,31.58.77,46.99,4.73,7.67,2,15.21,4.83,22.04,9.06.87.49,1.69,1.09,2.51,1.65.82.58,1.67,1.12,2.43,1.77l2.35,1.9,2.21,2.06c.76.66,1.39,1.46,2.08,2.19.69.74,1.37,1.48,1.96,2.3.61.8,1.25,1.59,1.83,2.41l1.64,2.55c.03.06.17.28.39.66.19.37.42.89.7,1.5.27.59.58,1.28.92,2.03.32.74.56,1.56.84,2.35.26.8.55,1.59.73,2.35.17.77.32,1.48.42,2.09.22,1.22.29,2.04.1,2.1s-.62-.66-1.15-1.76c-.27-.55-.56-1.19-.87-1.88-.32-.68-.73-1.39-1.09-2.11-.39-.71-.71-1.46-1.11-2.11-.41-.67-.78-1.28-1.1-1.81-.33-.55-.6-1-.8-1.33-.23-.33-.38-.54-.41-.59Z"/><path class="cls-2" d="M27.32,26.73c.22,2.13.24,4.21.25,6.27v6.14s0,12.26,0,12.26v171.7c0,1.17-.64,28.12-1.43,28.12s-1.43-26.96-1.43-28.12V39.14c-.04-4.08.12-8.22-.24-12.1-.01-.14-.05-.66-.17-1.44-.12-.76-.3-1.83-.78-2.78-.48-.95-1.28-1.65-2.62-1.9-.35-.02-.68-.1-1.06-.09-.36.02-.79-.02-1.1.04-.67.08-1.3.32-1.85.74-1.12.84-1.86,2.3-2.24,3.72-.39,1.44-.46,2.87-.3,4.05.15,1.17.6,2.07,1.14,2.33.54.28,1.01.09,1.04.22.02.05-.06.12-.26.23-.19.1-.53.2-.97.09-.44-.1-.9-.44-1.24-.92-.34-.47-.6-1.07-.79-1.72-.36-1.32-.46-2.92-.17-4.61.3-1.67.96-3.55,2.51-4.94.77-.68,1.76-1.17,2.78-1.36.99-.17,1.87-.2,2.85-.12.95.14,1.95.39,2.75.98.43.25.75.61,1.08.93.3.34.53.71.76,1.05.81,1.43,1.04,2.67,1.24,3.57.18.9.24,1.47.25,1.62Z"/><path class="cls-2" d="M251.49,27.03c-.37,3.88-.2,8.03-.24,12.1v183.97c0,1.17-.64,28.12-1.43,28.12s-1.43-26.96-1.43-28.12V33c.02-2.06.04-4.14.26-6.27.01-.15.08-.72.25-1.62.2-.89.43-2.14,1.24-3.57.23-.34.46-.71.76-1.05.33-.32.64-.68,1.08-.93.81-.59,1.8-.84,2.75-.98.97-.08,1.85-.05,2.85.12,1.02.19,2.01.67,2.78,1.36,1.55,1.39,2.22,3.27,2.51,4.94.28,1.7.19,3.29-.17,4.61-.19.66-.44,1.25-.79,1.72-.34.47-.8.82-1.24.92-.44.1-.78,0-.97-.09-.19-.11-.27-.19-.26-.23.03-.13.49.07,1.04-.22.53-.26.98-1.16,1.14-2.33.16-1.17.08-2.61-.3-4.05-.38-1.42-1.12-2.89-2.24-3.72-.56-.41-1.19-.66-1.85-.74-.31-.06-.74-.02-1.1-.04-.38-.01-.71.07-1.06.09-1.34.25-2.14.95-2.62,1.9-.48.95-.66,2.02-.78,2.78-.12.77-.15,1.3-.17,1.44Z"/><path class="cls-2" d="M169.22,37.89c-2.31,6.2-5.86,11.87-10.16,16.82-2.15,2.48-4.5,4.79-7.02,6.89-2.53,2.11-5.22,4.02-8.2,5.58-.11.05-1.46.59-2.91.83-.72.12-1.46.17-2.02.08-.56-.08-.92-.28-.91-.46,0-.21.32-.38.74-.63.42-.23.98-.55,1.52-.89,1.1-.67,2.18-1.42,2.28-1.47,2.71-1.42,5.28-3.23,7.68-5.23,2.4-2,4.65-4.21,6.7-6.57,4.1-4.72,7.47-10.11,9.64-15.94.04-.11.66-1.3,1.28-2.49.64-1.18,1.28-2.38,1.67-2.28.37.08.42,1.47.26,2.87-.14,1.4-.5,2.79-.54,2.9Z"/><path class="cls-2" d="M230.65,66.35c-2.93-2.46-6.15-4.54-9.29-6.7l-4.9-2.95c-1.65-.96-3.37-1.76-5.06-2.65-6.83-3.32-14.08-5.89-21.56-7-3.72-.58-7.53-.82-11.2-.52l-.61.07.02-.03-.22.28-.46.58-1.83,2.33c-.64.75-1.32,1.47-1.98,2.2-.66.73-1.32,1.47-2.06,2.14-5.63,5.54-12.43,10.05-20.01,12.57-.14.04-1.04.27-2.31.58-1.28.28-2.95.57-4.62.73-3.33.35-6.59-.03-6.58-.42,0-.4,3.16-.73,6.24-1.57,1.55-.4,3.08-.88,4.25-1.27,1.21-.43,2-.72,2.11-.76,7.12-2.37,13.55-6.62,18.92-11.9.7-.63,1.33-1.34,1.96-2.04.63-.7,1.28-1.39,1.9-2.11l1.76-2.23,1.14-1.44.23-.28c.09-.06.23-.05.34-.08.24-.03.48-.08.71-.11l.84-.1c4.03-.34,8-.07,11.91.54,7.83,1.16,15.33,3.83,22.38,7.26,1.73.91,3.51,1.75,5.21,2.73l5.04,3.03c3.22,2.22,6.51,4.35,9.51,6.86.09.08.75.66,1.76,1.54.47.42,1.01.91,1.61,1.45.52.55,1.09,1.14,1.69,1.75,2.27,2.39,4.4,4.79,4.12,5.07-.27.28-2.88-1.58-5.45-3.55-.66-.52-1.3-1.01-1.89-1.47-.65-.45-1.24-.86-1.74-1.22-1.07-.76-1.76-1.26-1.86-1.33Z"/><path class="cls-2" d="M38.48,60.85l1.64-2.55c.58-.82,1.22-1.61,1.83-2.41.59-.82,1.27-1.56,1.96-2.3.69-.73,1.32-1.53,2.08-2.19l2.21-2.06,2.35-1.9c.77-.65,1.61-1.2,2.43-1.77.83-.57,1.64-1.16,2.51-1.65,6.83-4.23,14.37-7.06,22.04-9.06,15.41-3.96,31.31-4.71,46.99-4.73.57-.03,13.48.73,13.47,1.5,0,.8-12.92,1.33-13.47,1.36-15.58.01-31.27.78-46.27,4.64-7.47,1.95-14.75,4.69-21.26,8.73-.84.47-1.6,1.04-2.39,1.57-.78.55-1.59,1.06-2.31,1.68l-2.22,1.79-2.08,1.95c-.72.62-1.31,1.38-1.96,2.06-.65.7-1.29,1.4-1.84,2.17-.57.76-1.17,1.49-1.72,2.27l-1.54,2.4c-.04.05-.18.25-.41.59-.2.33-.47.79-.8,1.33-.32.52-.69,1.14-1.1,1.81-.4.66-.73,1.4-1.11,2.11-.36.72-.77,1.43-1.09,2.11-.3.69-.6,1.33-.87,1.88-.53,1.09-.96,1.81-1.15,1.76s-.12-.87.1-2.1c.11-.61.25-1.32.42-2.09.19-.76.48-1.54.73-2.35.28-.79.51-1.62.84-2.35.34-.75.65-1.44.92-2.03.28-.6.51-1.12.7-1.5.22-.37.35-.6.39-.66Z"/><path class="cls-2" d="M109.43,36.9c2.17,5.83,5.54,11.22,9.64,15.94,2.05,2.37,4.3,4.57,6.7,6.57,2.4,2,4.97,3.81,7.68,5.23.1.05,1.18.81,2.28,1.47.55.33,1.1.65,1.52.89.42.25.73.42.74.63,0,.18-.35.39-.91.46-.57.09-1.3.04-2.02-.08-1.45-.24-2.81-.78-2.91-.83-2.98-1.56-5.67-3.47-8.2-5.58-2.52-2.11-4.87-4.41-7.02-6.89-4.3-4.95-7.86-10.62-10.16-16.82-.04-.11-.39-1.5-.54-2.9-.16-1.4-.11-2.78.26-2.87.39-.09,1.04,1.1,1.67,2.28.62,1.19,1.25,2.38,1.28,2.49Z"/><path class="cls-2" d="M43.56,64.11c3-2.51,6.29-4.64,9.51-6.86l5.04-3.03c1.7-.98,3.48-1.82,5.21-2.73,7.05-3.42,14.55-6.09,22.38-7.26,3.91-.61,7.87-.87,11.91-.54l.84.1c.22.02.47.07.71.11.11.03.25.01.34.08l.23.28,1.14,1.44,1.76,2.23c.61.72,1.27,1.4,1.9,2.11.63.7,1.26,1.41,1.96,2.04,5.37,5.28,11.79,9.53,18.92,11.9.11.04.9.32,2.11.76,1.17.39,2.7.87,4.25,1.27,3.08.84,6.23,1.18,6.24,1.57.02.39-3.24.77-6.58.42-1.66-.15-3.33-.45-4.62-.73-1.27-.31-2.18-.54-2.31-.58-7.58-2.52-14.38-7.03-20.01-12.57-.74-.66-1.39-1.4-2.06-2.14-.66-.74-1.34-1.45-1.98-2.2l-1.83-2.33-.46-.58-.22-.28.02.03-.61-.07c-3.67-.31-7.48-.06-11.2.52-7.48,1.11-14.73,3.68-21.56,7-1.68.89-3.41,1.7-5.06,2.65l-4.9,2.95c-3.14,2.17-6.35,4.24-9.29,6.7-.1.07-.8.57-1.86,1.33-.51.35-1.1.76-1.74,1.22-.59.46-1.22.95-1.89,1.47-2.57,1.97-5.18,3.83-5.45,3.55-.27-.28,1.85-2.68,4.12-5.07.59-.62,1.16-1.21,1.69-1.75.6-.54,1.14-1.03,1.61-1.45,1.01-.88,1.67-1.46,1.76-1.54Z"/><path class="cls-2" d="M60.06,215.88c-3.81.07-7.64.62-11.2,1.82-3.53,1.19-6.91,3.09-8.92,5.97-1,1.42-1.62,3.08-1.8,4.79-.16,1.71.16,3.46.83,5.1,1.36,3.32,4.01,6.15,6.94,8.53,5.96,4.76,13.18,7.97,20.51,10.47,7.38,2.46,15.04,4.12,22.77,5.24l-.54,2.8c-8.59-2.15-16.8-6.31-23.14-12.69-3.12-3.19-5.85-6.92-7.41-11.25-.34-1.1-.75-2.18-.91-3.34-.09-.57-.26-1.13-.27-1.72l-.09-1.76c-.06-.58.07-1.18.1-1.76.06-.59.06-1.15.29-1.82.29-1.33,1.07-2.43,1.87-3.4.08-.1.44-.41.98-.89.26-.26.63-.45,1.01-.73.38-.28.83-.52,1.32-.76,1.95-1.01,4.61-1.78,7.27-2.06,2.66-.3,5.3-.11,7.21.27,1.92.41,3.09.98,3.04,1.14-.06.21-1.3.01-3.16-.04-1.86-.04-4.35.09-6.77.62-2.42.51-4.75,1.41-6.3,2.37-.4.23-.75.46-1.03.7-.28.24-.58.41-.75.61-.39.39-.63.63-.69.69-.54.69-1.07,1.4-1.22,2.22-.15.36-.16.89-.21,1.37-.02.49-.15.97-.08,1.47l.08,1.48c0,.49.17.98.24,1.47.13.99.5,1.94.79,2.91,1.37,3.83,3.85,7.26,6.75,10.22,5.88,5.92,13.64,9.88,21.78,11.92l-.54,2.8c-7.87-1.14-15.69-2.83-23.28-5.36-7.55-2.57-15-5.85-21.41-10.96-3.14-2.57-6.12-5.65-7.78-9.67-.82-1.99-1.24-4.23-1.03-6.46.23-2.21,1.03-4.36,2.3-6.16,1.26-1.81,2.92-3.25,4.7-4.39,1.79-1.14,3.7-1.99,5.66-2.65,3.92-1.31,8-1.89,12.06-1.97.44-.03,5.91.03,11,1.57,2.54.74,4.95,1.86,6.57,2.96,1.63,1.1,2.46,2.13,2.34,2.26-.14.16-1.18-.55-2.88-1.29-1.69-.75-4.05-1.52-6.51-1.97-4.93-.97-10.06-.7-10.47-.68Z"/><path class="cls-2" d="M252.2,251.15c-2.29,1-4.63,1.71-6.98,2.35-2.34.65-4.7,1.17-7.06,1.65-4.73.95-9.47,1.68-14.23,2.31-9.51,1.24-19.05,2.09-28.6,2.73-19.1,1.27-38.22,1.77-57.35,1.78-19.12-.01-38.25-.51-57.35-1.78-9.55-.65-19.09-1.49-28.6-2.73-4.76-.63-9.5-1.36-14.23-2.31-2.36-.48-4.72-1-7.06-1.65-2.34-.64-4.68-1.35-6.98-2.35-.17-.05-.77-.37-1.71-.84-.23-.12-.48-.29-.75-.45-.1-.06-.08-.05-.08-.05h0s0-.03-.02-.02h-.03c-.13.05-.27.11-.41.16-.33.14-.68.28-1.05.42-2.9,1.18-6.64,2.72-10.22,4.44-1.78.87-3.53,1.78-5.03,2.78-1.49.99-2.81,2.09-3.28,3.27-.24.58-.28,1.16-.11,1.63.16.47.49.83.79,1.09.63.51,1.11.68,1.08.78-.02.08-.55.11-1.39-.31-.41-.22-.91-.58-1.25-1.22-.34-.64-.4-1.5-.17-2.32.49-1.7,1.91-3.01,3.4-4.21,1.52-1.19,3.26-2.27,5.03-3.28,3.55-2,7.25-3.75,10.11-5.07.91-.41,1.75-.79,2.5-1.13l.22-.1.2.11c.14.08.27.15.4.23.24.14.47.27.7.4.24.13.44.26.65.35.85.38,1.39.65,1.55.7,2.09.91,4.33,1.6,6.59,2.21,2.26.62,4.57,1.13,6.88,1.6,4.64.93,9.33,1.65,14.04,2.28,9.42,1.23,18.92,2.07,28.42,2.71,19.01,1.27,38.09,1.76,57.16,1.78,19.07-.01,38.14-.51,57.16-1.78,9.5-.64,19-1.48,28.42-2.71,4.71-.62,9.4-1.35,14.04-2.28,2.31-.47,4.62-.98,6.88-1.6,2.26-.61,4.5-1.31,6.59-2.21.16-.05.7-.32,1.55-.7.21-.1.42-.23.65-.35.23-.13.46-.26.7-.4.13-.07.26-.15.4-.23l.2-.11.22.1c.75.34,1.59.72,2.5,1.13,2.86,1.32,6.56,3.07,10.11,5.07,1.77,1.01,3.51,2.08,5.03,3.28,1.49,1.2,2.91,2.51,3.4,4.21.23.83.18,1.68-.17,2.32-.34.64-.84,1-1.25,1.22-.84.42-1.38.39-1.39.31-.03-.1.45-.28,1.08-.78.3-.26.63-.62.79-1.09.17-.47.12-1.05-.11-1.63-.47-1.18-1.79-2.28-3.28-3.27-1.51-.99-3.25-1.91-5.03-2.78-3.58-1.72-7.32-3.26-10.22-4.44-.36-.15-.71-.29-1.05-.42-.14-.06-.28-.11-.41-.16h-.03s-.01.01-.02.02h0s.02,0-.08.06c-.27.16-.52.32-.75.45-.94.47-1.54.79-1.71.84Z"/><path class="cls-2" d="M232.07,263.26c-3.78,1.29-7.62,2.37-11.48,3.33-3.86.96-7.74,1.81-11.65,2.53-7.8,1.49-15.66,2.57-23.53,3.44-15.76,1.69-31.59,2.43-47.43,2.45-15.83-.02-31.67-.75-47.43-2.45-7.87-.87-15.73-1.95-23.53-3.44-3.9-.72-7.79-1.57-11.65-2.53-3.86-.95-7.7-2.04-11.48-3.33-.53-.19-7.06-2.46-12.89-5.95-2.91-1.73-5.59-3.8-7.32-5.63-1.73-1.85-2.51-3.33-2.38-3.42.19-.14,1.25,1.09,3.13,2.6,1.89,1.5,4.61,3.24,7.55,4.68,5.85,2.92,12.31,4.83,12.83,5.02,3.69,1.26,7.45,2.32,11.25,3.26,3.8.94,7.63,1.78,11.49,2.5,7.71,1.47,15.5,2.54,23.31,3.41,15.64,1.68,31.38,2.41,47.12,2.43,15.74-.02,31.48-.75,47.12-2.43,7.81-.87,15.6-1.94,23.31-3.41,3.86-.72,7.69-1.55,11.49-2.5,3.8-.94,7.57-2,11.25-3.26.52-.18,6.98-2.09,12.83-5.02,2.93-1.44,5.66-3.18,7.55-4.68,1.87-1.52,2.94-2.74,3.13-2.6.13.09-.65,1.57-2.38,3.42-1.73,1.83-4.41,3.9-7.32,5.63-5.82,3.5-12.36,5.77-12.89,5.95Z"/></g><path id="SquareFrame_7_Shape" class="cls-1" d="M230.54,43.98c-53.16-6.61-86.5-30.29-93.33-42.14-.27-.91-.57-1.54-.9-1.84-.33.29-.63.92-.9,1.84-6.83,11.85-40.17,35.53-93.33,42.14C26.06,56.77,5.54,91.76,5.54,147.5s20.52,90.73,36.54,103.52c53.16,6.61,86.5,30.29,93.33,42.14.27.91.57,1.54.9,1.84,0,0,0,0,0,0h0s0,0,0,0h0c.33-.29.63-.92.9-1.84,6.83-11.85,40.17-35.53,93.33-42.14,16.02-12.79,36.54-47.77,36.54-103.52s-20.52-90.73-36.54-103.52Z"/></g></svg>