<?xml version="1.0" encoding="UTF-8"?><svg id="Line" xmlns="http://www.w3.org/2000/svg" viewBox="0 0 979.26 717.91"><defs><style>.cls-1{fill:none;stroke:#fff;stroke-miterlimit:10;stroke-width:3px;}.cls-2{opacity:.24;}.cls-2,.cls-3{fill:#fff;stroke-width:0px;}</style></defs><g id="Window_3"><g id="Window_3_Lines"><rect class="cls-1" x="39.71" y="27.91" width="899.84" height="670.3"/><path class="cls-3" d="M119.77,662.74c1.95.13,3.9.18,5.85.36l5.84.58,11.67,1.15c3.89.39,7.78.74,11.67,1.18l11.61,1.65,11.61,1.65,2.9.41,2.88.52,5.77,1.05,11.54,2.11c1.92.37,3.85.66,5.76,1.09l5.73,1.23c30.61,6.37,60.76,14.51,91.27,20.87l11.45,2.34,5.72,1.17c1.91.36,3.84.66,5.75,1l11.52,1.96,5.76.98c1.92.31,3.83.7,5.77.92l23.16,3.04c1.93.23,3.85.56,5.8.71l5.82.53,11.63,1.06,11.64,1.06c.97.08,1.94.19,2.91.25l2.92.15,5.83.31,23.34,1.22c1.95.08,3.89.24,5.84.27l5.84.1,11.69.19,23.38.39,23.38-.39,11.69-.19,5.84-.1c1.95-.02,3.89-.18,5.84-.27l23.34-1.22,5.83-.31,2.92-.15c.97-.07,1.94-.17,2.91-.25l11.64-1.06,11.63-1.06,5.82-.53c1.94-.16,3.86-.48,5.8-.71l23.16-3.04c1.94-.22,3.85-.61,5.77-.92l5.76-.98,11.52-1.96c1.92-.33,3.84-.64,5.75-1l5.72-1.17,11.45-2.34c30.5-6.37,60.65-14.5,91.27-20.87l5.73-1.23c1.91-.43,3.84-.72,5.76-1.09l11.54-2.11,5.77-1.05,2.88-.52,2.9-.41,11.61-1.65,11.61-1.65c3.88-.43,7.78-.78,11.67-1.18l11.67-1.15,5.84-.58c1.95-.19,3.9-.24,5.85-.36,1.11-.05,8.38-.41,18.67-.92,2.57-.12,5.33-.26,8.22-.4,2.9-.12,5.94-.07,9.06-.11,6.25-.04,12.86-.08,19.44-.11,3.29-.01,6.56-.03,9.79-.04,3.22.11,6.38.21,9.44.31,6.08.22,11.76.43,16.65.61,4.86.19,8.89.37,11.71.52s4.42.29,4.42.38c0,.1-1.61.16-4.44.19-2.82.03-6.86.03-11.72.01-4.88-.04-10.55-.08-16.64-.12-3.05-.03-6.21-.06-9.42-.09-3.22.08-6.49.16-9.77.25-6.57.16-13.16.31-19.39.46-3.12.09-6.15.09-9.04.26-2.89.18-5.63.35-8.19.51-10.24.63-17.48,1.07-18.59,1.14-1.94.13-3.89.18-5.83.36l-5.81.57-11.62,1.15c-3.87.39-7.75.74-11.62,1.17l-11.56,1.64-11.56,1.64-2.89.41-2.87.52-5.75,1.05-11.49,2.1c-1.91.37-3.84.66-5.74,1.09l-5.71,1.23c-30.5,6.35-60.66,14.48-91.26,20.87l-11.48,2.35-5.74,1.17c-1.92.36-3.85.67-5.78,1l-11.56,1.97-5.78.98c-1.93.31-3.85.7-5.79.92l-23.25,3.06c-1.94.23-3.87.56-5.82.72l-5.84.53-11.67,1.07-11.67,1.07c-.97.08-1.95.19-2.92.26l-2.93.15-5.85.31-23.41,1.23c-1.95.08-3.9.24-5.85.27l-5.86.1-11.72.19-23.43.39-23.43-.39-11.72-.19-5.86-.1c-1.95-.02-3.9-.18-5.85-.27l-23.41-1.23-5.85-.31-2.93-.15c-.97-.07-1.95-.17-2.92-.26l-11.67-1.07-11.67-1.07-5.84-.53c-1.95-.16-3.88-.48-5.82-.72l-23.25-3.06c-1.94-.22-3.86-.61-5.79-.92l-5.78-.98-11.56-1.97c-1.93-.34-3.86-.64-5.78-1l-5.74-1.17-11.48-2.35c-30.6-6.39-60.76-14.53-91.26-20.87l-5.71-1.23c-1.9-.43-3.83-.72-5.74-1.09l-11.49-2.1-5.75-1.05-2.87-.52-2.89-.41-11.56-1.64-11.56-1.64c-3.87-.43-7.75-.78-11.62-1.17l-11.62-1.15-5.81-.57c-1.94-.19-3.89-.24-5.83-.36-1.11-.07-8.34-.51-18.59-1.14-2.56-.16-5.31-.33-8.19-.51-2.89-.16-5.92-.16-9.04-.26-6.23-.15-12.83-.31-19.39-.46-3.28-.08-6.55-.17-9.77-.25-3.21.03-6.37.06-9.42.09-6.08.04-11.75.09-16.64.12-4.86.02-8.89.02-11.72-.01-2.82-.03-4.44-.09-4.44-.19,0-.1,1.6-.23,4.42-.38s6.85-.33,11.71-.52c4.89-.18,10.56-.38,16.65-.61,3.06-.1,6.22-.2,9.44-.31,3.22.01,6.5.03,9.79.04,6.58.04,13.2.08,19.44.11,3.13.04,6.17,0,9.06.11,2.9.14,5.65.27,8.22.4,10.29.51,17.55.87,18.67.92Z"/><path class="cls-3" d="M967.64,458.67c.94,5.56.72,11.13.14,16.59-.59,5.47-1.76,10.83-3.06,16.13-2.72,10.58-6.39,20.87-10.69,30.87l-1.62,3.75c-.55,1.24-1.14,2.47-1.71,3.71-1.12,2.48-2.33,4.92-3.54,7.35-2.41,4.88-5.06,9.68-7.92,14.31-5.73,9.28-12.1,18.11-18.74,26.69-6.64,8.59-13.53,16.96-20.35,25.36-6.82,8.4-13.57,16.83-19.81,25.61-6.19,8.78-11.96,17.94-15.82,27.87-3.71,10.01-6.56,20.48-7.62,31.08-.03.38-.36,2.84-.48,6.34-.08,1.75-.05,3.75.04,5.87.15,2.11.39,4.34.83,6.51.45,2.16,1.11,4.28,2.02,6.09.47.88.96,1.74,1.56,2.4.57.68,1.22,1.24,1.88,1.51.66.29,1.31.28,1.86.08.52-.26.96-.6,1.24-.97.31-.35.5-.67.65-.89.15-.21.25-.32.3-.31.05.02.03.16-.03.42-.06.27-.17.65-.44,1.1-.24.46-.67.97-1.33,1.4-.7.39-1.68.5-2.6.2-.94-.27-1.77-.89-2.51-1.62-.76-.72-1.37-1.62-1.96-2.56-1.14-1.91-1.97-4.12-2.58-6.38-.6-2.27-.98-4.59-1.23-6.79-.21-2.2-.32-4.29-.31-6.1-.02-3.63.24-6.19.27-6.58,1.1-10.97,3.99-21.57,7.79-31.84,4.01-10.29,9.89-19.6,16.15-28.49,6.3-8.88,13.09-17.36,19.92-25.76,6.83-8.41,13.71-16.76,20.31-25.3,6.61-8.53,12.92-17.29,18.57-26.44,2.82-4.58,5.41-9.27,7.8-14.1,1.2-2.41,2.4-4.82,3.51-7.28.56-1.22,1.14-2.44,1.69-3.67l1.6-3.71c4.26-9.89,7.88-20.05,10.55-30.45,1.27-5.2,2.42-10.45,2.99-15.75.57-5.28.75-10.64-.11-15.77-.02-.13-.07-.49-.15-1.06-.12-.55-.32-1.29-.54-2.18-.38-1.8-1.36-4.04-2.85-6.38-.75-1.16-1.62-2.32-2.64-3.37-1.01-1.04-2.18-1.97-3.44-2.5-.63-.25-1.28-.46-1.93-.46-.64-.07-1.34.05-1.84.26-.5.23-.84.56-.94,1.02-.06.21-.05.49,0,.67.04.17.13.34.29.41l.11.06.18.08c.12.05.24.09.36.14.25.08.49.15.74.19.49.1.98.12,1.43.09.24-.02.4-.03.55-.06.16-.03.31-.07.46-.13.29-.11.57-.34.59-.62,0-.56-.46-.85-.68-1.08-.26-.23-.45-.38-.42-.44.03-.05.24-.03.65.16.21.09.46.24.73.46.25.22.53.53.57.97.07.92-1.14,1.6-2.32,1.78-.54.09-1.12.12-1.72.06-.3-.02-.61-.08-.92-.15-.15-.04-.31-.08-.47-.13l-.24-.08-.3-.12c-.45-.2-.78-.62-.95-1.11-.17-.48-.2-.93-.13-1.41.11-.98.87-1.85,1.7-2.26.85-.41,1.7-.59,2.6-.57.9-.04,1.78.17,2.62.45,1.67.6,3.07,1.63,4.28,2.74,1.21,1.12,2.23,2.36,3.11,3.59,1.74,2.45,2.97,4.99,3.47,6.97.28.98.53,1.79.68,2.39.1.61.17,1.01.19,1.14Z"/><path class="cls-3" d="M14.44,459.16c-.87,5.13-.68,10.49-.11,15.77.57,5.3,1.71,10.55,2.99,15.75,2.67,10.39,6.29,20.56,10.55,30.45l1.6,3.71c.54,1.23,1.13,2.45,1.69,3.67,1.11,2.45,2.3,4.87,3.51,7.28,2.38,4.83,4.98,9.51,7.8,14.1,5.65,9.15,11.96,17.91,18.57,26.44,6.6,8.55,13.48,16.89,20.31,25.3,6.83,8.41,13.62,16.88,19.92,25.76,6.26,8.88,12.14,18.2,16.15,28.49,3.81,10.27,6.69,20.87,7.79,31.84.03.39.29,2.94.27,6.58,0,1.81-.11,3.9-.31,6.1-.26,2.2-.63,4.52-1.23,6.79-.61,2.26-1.44,4.48-2.58,6.38-.59.94-1.2,1.84-1.96,2.56-.73.73-1.56,1.35-2.51,1.62-.92.3-1.91.18-2.6-.2-.66-.43-1.09-.94-1.33-1.4-.27-.45-.38-.83-.44-1.1-.07-.26-.08-.41-.03-.42.05-.02.15.09.3.31.14.22.33.54.65.89.28.37.72.71,1.24.97.55.2,1.2.2,1.86-.08.67-.26,1.31-.83,1.88-1.51.6-.66,1.08-1.52,1.56-2.4.91-1.8,1.56-3.92,2.02-6.09.45-2.17.69-4.4.83-6.51.1-2.12.12-4.12.04-5.87-.12-3.5-.45-5.96-.48-6.34-1.06-10.6-3.9-21.08-7.62-31.08-3.87-9.92-9.63-19.09-15.82-27.87-6.23-8.78-12.99-17.22-19.81-25.61-6.82-8.4-13.71-16.76-20.35-25.36-6.65-8.58-13.02-17.42-18.74-26.69-2.85-4.64-5.51-9.43-7.92-14.31-1.21-2.43-2.42-4.87-3.54-7.35-.57-1.24-1.16-2.46-1.71-3.71l-1.62-3.75c-4.31-9.99-7.97-20.29-10.69-30.87-1.3-5.3-2.47-10.66-3.06-16.13-.59-5.46-.8-11.03.14-16.59.02-.14.09-.53.19-1.14.15-.6.4-1.42.68-2.39.5-1.98,1.73-4.52,3.47-6.97.88-1.23,1.9-2.47,3.11-3.59,1.21-1.11,2.61-2.14,4.28-2.74.83-.28,1.72-.5,2.62-.45.9-.02,1.74.16,2.6.57.83.41,1.59,1.28,1.7,2.26.07.48.03.93-.13,1.41-.17.49-.5.91-.95,1.11l-.3.12-.24.08c-.16.05-.31.09-.47.13-.31.07-.62.12-.92.15-.6.06-1.18.03-1.72-.06-1.18-.18-2.39-.86-2.32-1.78.04-.44.32-.75.57-.97.26-.22.52-.37.73-.46.41-.19.62-.21.65-.16.04.06-.16.21-.42.44-.22.23-.68.52-.68,1.08.03.28.3.51.59.62.15.06.3.1.46.13.15.03.31.04.55.06.45.03.94,0,1.43-.09.25-.04.49-.11.74-.19.12-.05.25-.08.36-.14l.18-.08.11-.06c.16-.08.25-.25.29-.41.04-.18.05-.45,0-.67-.1-.45-.44-.79-.94-1.02-.51-.2-1.2-.33-1.84-.26-.65,0-1.3.21-1.93.46-1.27.54-2.43,1.46-3.44,2.5-1.01,1.04-1.89,2.21-2.64,3.37-1.49,2.34-2.48,4.58-2.85,6.38-.22.9-.42,1.63-.54,2.18-.08.57-.13.94-.15,1.06Z"/><path class="cls-3" d="M37.03,65.94c9.36,1.26,18.88,1.44,28.38,1.17,9.5-.28,19-1.04,28.48-2.05,18.96-2.03,37.82-5.03,56.62-8.36,37.6-6.71,74.97-14.77,112.38-22.61,37.41-7.86,74.86-15.66,112.58-22.11,18.86-3.21,37.79-6.08,56.81-8.26,19.02-2.17,38.15-3.68,57.35-3.71,19.2.03,38.33,1.54,57.35,3.71,19.03,2.18,37.96,5.05,56.81,8.26,37.72,6.45,75.17,14.25,112.58,22.11,37.41,7.85,74.78,15.9,112.38,22.61,18.8,3.32,37.66,6.32,56.62,8.36,9.48,1.01,18.98,1.77,28.48,2.05,9.5.27,19.02.1,28.38-1.17.66-.11,3.19-.4,7.01-1.2,3.79-.84,8.98-2.1,14.35-4.97,2.66-1.45,5.35-3.32,7.59-5.84,1.11-1.26,2.14-2.65,2.97-4.19.82-1.55,1.48-3.22,1.96-4.98.48-1.76.71-3.62.83-5.5l.05-1.42-.04-1.44c-.06-.96,0-1.94-.16-2.9-.34-3.86-1.28-7.72-2.93-11.25-1.64-3.54-3.99-6.72-6.78-9.35-2.79-2.64-5.99-4.73-9.3-6.32-6.64-3.18-13.56-4.41-19.41-4.58-2.94-.08-5.64.11-7.99.48-2.35.39-4.35.98-5.92,1.64-1.6.62-2.67,1.43-3.4,1.97-.66.61-1.01.97-1.06.93-.03-.02.24-.44.86-1.15.68-.63,1.75-1.56,3.36-2.28,1.58-.76,3.61-1.46,6-1.95,2.4-.47,5.15-.76,8.16-.76,6,0,13.12,1.09,20.08,4.25,3.46,1.58,6.86,3.7,9.86,6.43,3,2.72,5.56,6.07,7.36,9.81,1.82,3.74,2.88,7.83,3.3,11.89.17,1.01.14,2.03.21,3.05l.07,1.52-.03,1.52c-.1,2.03-.33,4.04-.82,5.98-.5,1.94-1.2,3.81-2.1,5.54-.9,1.73-2.03,3.3-3.24,4.71-2.46,2.82-5.38,4.89-8.21,6.48-5.73,3.15-11.11,4.49-15.03,5.4-3.94.87-6.53,1.18-7.21,1.29-9.6,1.3-19.25,1.47-28.85,1.19-9.6-.29-19.17-1.05-28.7-2.06-19.06-2.04-37.97-5.05-56.81-8.39-37.67-6.73-75.06-14.79-112.47-22.63-37.41-7.85-74.82-15.65-112.47-22.09-18.82-3.21-37.7-6.07-56.66-8.24-18.95-2.16-37.99-3.67-57.03-3.69-19.04.03-38.08,1.53-57.03,3.69-18.95,2.17-37.84,5.04-56.66,8.24-37.65,6.44-75.07,14.23-112.47,22.09-37.41,7.84-74.79,15.91-112.47,22.63-18.84,3.33-37.75,6.34-56.81,8.39-9.53,1.01-19.1,1.78-28.7,2.06-9.6.27-19.25.1-28.85-1.19-.68-.11-3.27-.43-7.21-1.29-3.92-.91-9.3-2.26-15.03-5.4-2.83-1.59-5.75-3.66-8.21-6.48-1.22-1.41-2.34-2.97-3.24-4.71-.9-1.73-1.6-3.6-2.1-5.54-.5-1.94-.73-3.96-.82-5.98l-.03-1.52.07-1.52c.07-1.01.04-2.03.21-3.05.42-4.06,1.47-8.16,3.3-11.89,1.81-3.74,4.37-7.09,7.36-9.81,2.99-2.73,6.39-4.85,9.86-6.43C27.75,1.98,34.87.9,40.87.89c3.01,0,5.76.29,8.16.76,2.39.49,4.42,1.19,6,1.95,1.61.72,2.67,1.65,3.36,2.28.62.71.89,1.13.86,1.15-.05.03-.39-.32-1.06-.93-.73-.54-1.8-1.35-3.4-1.97-1.57-.65-3.57-1.24-5.92-1.64-2.35-.37-5.05-.56-7.99-.48-5.86.17-12.78,1.4-19.41,4.58-3.3,1.59-6.51,3.68-9.3,6.32-2.79,2.63-5.14,5.81-6.78,9.35-1.65,3.53-2.59,7.39-2.93,11.25-.15.96-.1,1.93-.16,2.9l-.04,1.44.05,1.42c.12,1.88.35,3.74.83,5.5.48,1.76,1.13,3.43,1.96,4.98.83,1.54,1.86,2.93,2.97,4.19,2.24,2.52,4.94,4.38,7.59,5.84,5.37,2.88,10.56,4.13,14.35,4.97,3.82.8,6.34,1.09,7.01,1.2Z"/></g><rect id="Window_3_Shape" class="cls-2" x="179.49" y="-61.86" width="620.28" height="849.84" transform="translate(852.7 -126.57) rotate(90)"/></g></svg>