<?xml version="1.0" encoding="UTF-8"?><svg id="Line" xmlns="http://www.w3.org/2000/svg" viewBox="0 0 986 766"><defs><style>.cls-1{opacity:.24;}.cls-1,.cls-2{fill:#fff;stroke-width:0px;}</style></defs><g id="Window_9"><g id="Window_9_Lines"><path class="cls-2" d="M40.69,301.38v419.04h897.18v-419.04c.02-5.18.22-67.54.42-128.65.17-30.52.33-60.72.45-83.34.11-11.26.2-20.63.27-27.23.06-3.25.11-5.81.14-7.61.03-.85.05-1.51.07-2,.02-.45.05-.69.07-.69s.05.23.07.69c.02.49.04,1.15.07,2,.03,1.8.08,4.36.14,7.61.06,6.6.16,15.97.27,27.23.12,22.62.29,52.83.45,83.34.2,61.11.4,123.47.42,128.65v421.9H37.84v-421.9c.02-5.18.22-67.54.42-128.65.17-30.52.33-60.72.45-83.34.11-11.26.2-20.63.27-27.23.06-3.25.11-5.81.14-7.61.03-.85.05-1.51.07-2,.02-.45.05-.69.07-.69s.05.23.07.69c.02.49.04,1.15.07,2,.03,1.8.08,4.36.14,7.61.06,6.6.16,15.97.27,27.23.12,22.62.29,52.83.45,83.34.2,61.11.4,123.47.42,128.65Z"/><path class="cls-2" d="M86.92,743.18c2.12.61,4.29,1.03,6.45,1.48,2.16.43,4.31.94,6.49,1.32l6.54,1.04,3.27.52,3.3.37,6.59.74c1.1.14,2.2.22,3.3.29l3.31.23,6.62.46c.12,0,0,.02.1-.02l.7-.38,1.44-.77c.95-.53,1.94-.98,2.84-1.6,7.4-4.59,14-10.49,19.73-17.14,2.9-3.29,5.58-6.79,8.09-10.4.64-.89,1.25-1.81,1.85-2.73.61-.91,1.2-1.84,1.78-2.78.59-.93,1.14-1.88,1.7-2.82l.81-1.43.4-.72.78-1.48h632.56l.78,1.48.4.72.81,1.43c.56.94,1.11,1.89,1.7,2.82.58.93,1.16,1.86,1.78,2.78.6.92,1.21,1.84,1.85,2.73,2.51,3.61,5.19,7.1,8.09,10.4,5.73,6.65,12.33,12.55,19.73,17.14.89.63,1.89,1.07,2.84,1.6l1.44.77.7.38c.1.04-.02.02.1.02l6.62-.46,3.31-.23c1.1-.07,2.21-.15,3.3-.29l6.59-.74,3.3-.37,3.27-.52,6.54-1.04c2.18-.37,4.32-.88,6.49-1.32,2.16-.45,4.33-.87,6.45-1.48.6-.16,2.87-.74,6.38-1.65,3.44-1.11,8.17-2.42,13.49-4.58,2.72-.94,5.46-2.33,8.42-3.62,1.48-.65,2.9-1.49,4.4-2.26.75-.39,1.5-.79,2.26-1.19.75-.41,1.47-.89,2.22-1.33,5.98-3.54,11.94-7.95,17.02-13.2,2.5-2.66,4.9-5.41,6.87-8.39,2.1-2.91,3.66-6.01,4.53-9.24.89-3.22,1.08-6.5.69-9.53-.39-3.03-1.35-5.81-2.65-8.14-1.3-2.33-2.96-4.18-4.68-5.47-1.75-1.25-3.55-1.94-5.08-2.03-1.53-.12-2.74.2-3.52.5-.77.32-1.18.53-1.21.48-.02-.03.33-.33,1.09-.75.76-.4,2.01-.84,3.67-.81,1.65,0,3.63.66,5.54,1.91,1.89,1.29,3.71,3.19,5.15,5.61,1.45,2.41,2.54,5.31,3.04,8.51.49,3.19.37,6.68-.5,10.12-.84,3.44-2.47,6.84-4.56,9.85-1.98,3.11-4.4,5.99-6.92,8.77-5.13,5.5-11.18,10.12-17.25,13.83-.76.47-1.49.97-2.25,1.4-.77.42-1.53.83-2.29,1.25-1.52.8-2.97,1.68-4.47,2.37-3,1.36-5.8,2.81-8.55,3.8-5.4,2.26-10.19,3.66-13.69,4.82-3.56.95-5.86,1.57-6.47,1.73-2.16.62-4.36,1.04-6.55,1.5-2.19.44-4.38.96-6.58,1.33l-6.63,1.05-3.31.52-3.33.37-6.66.75c-1.11.14-2.22.22-3.34.29l-3.34.23-6.69.46-.77.05c-.27-.08-.49-.24-.7-.34l-.77-.41-1.5-.8c-.99-.55-2.03-1.03-2.97-1.68-7.72-4.79-14.52-10.89-20.39-17.7-2.98-3.38-5.72-6.95-8.28-10.64-.65-.91-1.28-1.85-1.89-2.79-.63-.93-1.23-1.88-1.82-2.84-.6-.95-1.17-1.93-1.74-2.89l-.83-1.47-.4-.74h0s-629.11,0-629.11,0h0s-.4.74-.4.74l-.83,1.47c-.58.97-1.14,1.94-1.74,2.89-.59.96-1.19,1.91-1.82,2.84-.61.94-1.24,1.88-1.89,2.79-2.56,3.69-5.31,7.26-8.28,10.64-5.87,6.81-12.67,12.91-20.39,17.7-.93.65-1.97,1.12-2.97,1.68l-1.5.8-.77.41c-.21.1-.43.26-.7.34l-.77-.05-6.69-.46-3.34-.23c-1.11-.07-2.23-.15-3.34-.29l-6.66-.75-3.33-.37-3.31-.52-6.63-1.05c-2.2-.38-4.39-.89-6.58-1.33-2.19-.46-4.39-.88-6.55-1.5-.61-.16-2.91-.78-6.47-1.73-3.5-1.16-8.29-2.56-13.69-4.82-2.75-.99-5.55-2.45-8.55-3.8-1.5-.69-2.95-1.57-4.47-2.37-.76-.41-1.52-.83-2.29-1.25-.76-.43-1.5-.93-2.25-1.4-6.07-3.71-12.12-8.33-17.25-13.83-2.52-2.78-4.94-5.66-6.92-8.77-2.09-3.01-3.73-6.41-4.56-9.85-.87-3.44-.99-6.93-.5-10.12.49-3.2,1.59-6.1,3.04-8.51,1.45-2.41,3.26-4.31,5.15-5.61,1.91-1.26,3.89-1.91,5.54-1.91,1.65-.03,2.9.41,3.67.81.76.42,1.11.71,1.09.75-.03.05-.44-.16-1.21-.48-.78-.3-1.98-.62-3.52-.5-1.54.09-3.34.79-5.08,2.03-1.73,1.29-3.38,3.14-4.68,5.47-1.3,2.32-2.26,5.11-2.65,8.14-.39,3.03-.2,6.31.69,9.53.87,3.24,2.43,6.34,4.53,9.24,1.97,2.98,4.37,5.73,6.87,8.39,5.08,5.26,11.04,9.66,17.02,13.2.75.45,1.47.93,2.22,1.33.76.4,1.51.8,2.26,1.19,1.5.76,2.92,1.6,4.4,2.26,2.96,1.29,5.71,2.68,8.42,3.62,5.32,2.15,10.05,3.47,13.49,4.58,3.51.91,5.78,1.49,6.38,1.65Z"/><path class="cls-2" d="M891.64,42.08c-2.12-.61-4.29-1.03-6.45-1.48-2.16-.43-4.31-.94-6.49-1.32l-6.54-1.04-3.27-.52-3.3-.37-6.59-.74c-1.1-.14-2.2-.22-3.3-.29l-3.31-.23-6.62-.46c-.12,0,0-.02-.1.02l-.7.38-1.44.77c-.95.53-1.94.98-2.84,1.6-7.4,4.59-14,10.49-19.73,17.14-2.9,3.29-5.58,6.79-8.09,10.4-.64.89-1.25,1.81-1.85,2.73-.61.91-1.2,1.84-1.78,2.78-.59.93-1.14,1.88-1.7,2.82l-.81,1.43-.4.72-.78,1.48H173.01s-.78-1.48-.78-1.48l-.4-.72-.81-1.43c-.56-.94-1.11-1.89-1.7-2.82-.58-.93-1.16-1.86-1.78-2.78-.6-.92-1.21-1.84-1.85-2.73-2.51-3.61-5.19-7.1-8.09-10.4-5.73-6.65-12.33-12.55-19.73-17.14-.89-.63-1.89-1.07-2.84-1.6l-1.44-.77-.7-.38c-.1-.04.02-.02-.1-.02l-6.62.46-3.31.23c-1.1.07-2.21.15-3.3.29l-6.59.74-3.3.37-3.27.52-6.54,1.04c-2.18.37-4.33.88-6.49,1.32-2.16.45-4.33.87-6.45,1.48-.6.16-2.87.74-6.38,1.65-3.44,1.11-8.17,2.42-13.49,4.58-2.72.94-5.46,2.33-8.42,3.62-1.48.65-2.9,1.49-4.4,2.26-.75.39-1.5.79-2.26,1.19-.75.41-1.47.89-2.22,1.33-5.98,3.54-11.94,7.95-17.02,13.2-2.5,2.66-4.9,5.41-6.87,8.39-2.1,2.91-3.66,6.01-4.53,9.24-.89,3.22-1.08,6.5-.69,9.53.39,3.03,1.35,5.82,2.65,8.14,1.3,2.33,2.96,4.18,4.68,5.47,1.75,1.25,3.55,1.94,5.08,2.03,1.53.12,2.74-.2,3.52-.5.77-.32,1.18-.53,1.21-.48.02.03-.33.33-1.09.75-.76.4-2.01.84-3.67.81-1.65,0-3.63-.66-5.54-1.91-1.89-1.29-3.71-3.19-5.15-5.61-1.45-2.41-2.54-5.31-3.04-8.51-.49-3.19-.37-6.68.5-10.12.84-3.44,2.47-6.84,4.56-9.85,1.98-3.11,4.4-5.99,6.92-8.77,5.13-5.5,11.18-10.12,17.25-13.83.76-.47,1.49-.97,2.25-1.4.77-.42,1.53-.84,2.29-1.25,1.52-.8,2.97-1.68,4.47-2.37,3-1.36,5.8-2.81,8.55-3.8,5.4-2.26,10.19-3.66,13.69-4.82,3.56-.95,5.86-1.57,6.47-1.73,2.16-.62,4.36-1.04,6.55-1.5,2.19-.44,4.38-.96,6.58-1.33l6.63-1.05,3.31-.52,3.33-.37,6.66-.75c1.11-.14,2.22-.22,3.34-.29l3.34-.23,6.69-.46.77-.05c.27.08.49.24.7.34l.77.41,1.5.8c.99.55,2.03,1.03,2.97,1.68,7.72,4.79,14.52,10.89,20.39,17.7,2.98,3.38,5.72,6.95,8.28,10.64.65.91,1.28,1.85,1.89,2.79.63.93,1.23,1.88,1.82,2.84.6.95,1.17,1.93,1.74,2.89l.83,1.47.4.74h0s629.11,0,629.11,0h0s.4-.74.4-.74l.83-1.47c.58-.97,1.14-1.94,1.74-2.89.59-.96,1.19-1.91,1.82-2.84.61-.94,1.24-1.88,1.89-2.79,2.56-3.69,5.31-7.26,8.28-10.64,5.87-6.81,12.67-12.91,20.39-17.7.93-.65,1.97-1.12,2.97-1.68l1.5-.8.77-.41c.21-.1.43-.26.7-.34l.77.05,6.69.46,3.34.23c1.11.07,2.23.15,3.34.29l6.66.75,3.33.37,3.31.52,6.63,1.05c2.2.38,4.39.89,6.58,1.33,2.19.46,4.39.88,6.55,1.5.61.16,2.91.78,6.47,1.73,3.5,1.16,8.29,2.56,13.69,4.82,2.75.99,5.55,2.45,8.55,3.8,1.5.69,2.95,1.57,4.47,2.37.76.41,1.52.83,2.29,1.25.76.43,1.5.93,2.25,1.4,6.07,3.71,12.12,8.33,17.25,13.83,2.52,2.78,4.94,5.66,6.92,8.77,2.09,3.01,3.73,6.41,4.56,9.85.87,3.44.99,6.93.5,10.12-.49,3.2-1.59,6.1-3.04,8.51-1.45,2.41-3.26,4.31-5.15,5.61-1.91,1.26-3.89,1.91-5.54,1.91-1.65.03-2.9-.41-3.67-.81-.76-.42-1.11-.71-1.09-.74.03-.05.44.16,1.21.48.78.3,1.98.62,3.52.5,1.54-.09,3.34-.79,5.08-2.03,1.73-1.29,3.38-3.14,4.68-5.47,1.3-2.32,2.26-5.11,2.65-8.14.39-3.03.2-6.31-.69-9.53-.87-3.24-2.43-6.34-4.53-9.24-1.97-2.98-4.37-5.73-6.87-8.39-5.08-5.26-11.04-9.66-17.02-13.2-.75-.45-1.47-.93-2.22-1.33-.76-.4-1.51-.8-2.26-1.19-1.5-.76-2.93-1.6-4.4-2.26-2.96-1.29-5.71-2.68-8.42-3.62-5.32-2.15-10.05-3.47-13.49-4.58-3.51-.91-5.78-1.49-6.38-1.65Z"/><path class="cls-2" d="M141.21,54.47c6.88,1.95,13.94,3.37,21.05,4.46,3.55.59,7.13.97,10.7,1.41,3.59.32,7.16.74,10.76.93l5.39.36,5.4.21c3.6.18,7.21.19,10.81.24,7.21.12,14.4-.12,21.59-.6,14.36-.99,28.66-3.07,42.63-6.48,6.97-1.73,13.88-3.78,20.52-6.41,3.31-1.32,6.58-2.78,9.62-4.53,1.52-.88,2.99-1.83,4.27-2.91.64-.54,1.23-1.11,1.68-1.71.22-.3.42-.6.55-.88.04-.07.06-.14.08-.21,0,0,.11-.29.11-.53l.12-1.45,12.62-.26,11.37-.68,11.34-1.07,11.32-1.39c15.07-2.04,30.06-4.77,45.08-7.44,15.02-2.67,30.08-5.28,45.26-7.17,15.17-1.9,30.47-3.06,45.8-3.08,15.33.02,30.62,1.18,45.8,3.08,15.18,1.89,30.24,4.5,45.26,7.17,15.02,2.67,30.01,5.4,45.08,7.44l11.32,1.39,11.34,1.07,11.37.68,12.62.26.12,1.45c0,.24.11.53.11.53.02.07.04.13.08.21.13.28.32.58.55.88.45.6,1.05,1.17,1.68,1.71,1.28,1.08,2.75,2.03,4.27,2.91,3.05,1.75,6.31,3.21,9.62,4.53,6.65,2.63,13.55,4.68,20.52,6.41,13.97,3.42,28.27,5.49,42.63,6.48,7.18.48,14.38.72,21.59.6,3.6-.05,7.21-.06,10.81-.24l5.4-.21,5.39-.36c3.6-.19,7.17-.61,10.76-.93,3.57-.44,7.15-.82,10.7-1.41,7.1-1.09,14.16-2.51,21.05-4.46.51-.14,2.41-.67,5.29-1.63,1.44-.48,3.12-1.09,4.93-1.87.32-.14.64-.29.97-.43.36,0,.72,0,1.09,0,.54,0,1.09,0,1.65.01,1.13,0,2.31.02,3.53.03,9.77.09,22.41.2,34.95.31,12.52.13,24.9.28,34.15.45,4.63.09,8.47.17,11.16.27,2.69.09,4.22.19,4.22.29s-1.53.19-4.22.29c-2.69.09-6.53.18-11.16.27-9.25.17-21.64.32-34.15.45-12.54.11-25.18.22-34.95.31-1.22,0-2.4.02-3.53.03-.56,0-1.12,0-1.65.01-.87.04-.15-.11-.94.21-1.92.86-3.65,1.52-5.13,2.03-2.96,1.03-4.9,1.59-5.42,1.73-7.04,2-14.2,3.43-21.4,4.54-3.59.59-7.21.98-10.82,1.43-3.62.33-7.24.74-10.87.94l-5.44.36-5.45.22c-3.63.19-7.26.19-10.89.24-7.27.12-14.55-.12-21.8-.6-14.51-1-28.96-3.1-43.12-6.56-7.07-1.75-14.08-3.83-20.89-6.52-3.4-1.36-6.77-2.86-10-4.71-1.61-.93-3.2-1.95-4.69-3.2-.74-.63-1.47-1.31-2.11-2.16-.32-.43-.63-.88-.87-1.42-.33-.81-.19-.51-.22-.57l-10.24-.21-11.47-.69-11.43-1.08-11.39-1.4c-15.16-2.05-30.19-4.79-45.2-7.46-15.01-2.67-30.02-5.27-45.11-7.15-15.09-1.89-30.26-3.04-45.44-3.06-15.18.02-30.36,1.17-45.44,3.06-15.09,1.88-30.1,4.47-45.11,7.15-15.01,2.67-30.04,5.4-45.2,7.46l-11.39,1.4-11.43,1.08-11.47.69-10.24.21c-.03.06.11-.24-.22.57-.25.54-.55,1-.87,1.42-.65.84-1.37,1.53-2.11,2.16-1.49,1.25-3.07,2.27-4.69,3.2-3.23,1.86-6.59,3.35-10,4.71-6.82,2.7-13.82,4.77-20.89,6.52-14.16,3.46-28.61,5.56-43.12,6.56-7.26.49-14.54.73-21.8.6-3.63-.05-7.26-.06-10.89-.24l-5.45-.22-5.44-.36c-3.63-.2-7.25-.61-10.87-.94-3.61-.45-7.23-.83-10.82-1.43-7.2-1.1-14.36-2.54-21.4-4.54-.52-.14-2.46-.7-5.42-1.73-1.48-.51-3.21-1.17-5.13-2.03-.79-.32-.08-.17-.94-.21-.54,0-1.09,0-1.65-.01-1.13,0-2.31-.02-3.53-.03-9.77-.09-22.41-.2-34.95-.31-12.52-.13-24.9-.28-34.15-.45-4.63-.09-8.47-.17-11.16-.27s-4.22-.19-4.22-.29,1.53-.19,4.22-.29,6.53-.18,11.16-.27c9.25-.17,21.64-.32,34.15-.45,12.54-.11,25.18-.22,34.95-.31,1.22,0,2.4-.02,3.53-.03.56,0,1.12,0,1.65-.01.37,0,.73,0,1.09,0,.33.15.65.29.97.43,1.81.78,3.49,1.4,4.93,1.87,2.88.96,4.78,1.49,5.29,1.63Z"/></g><polygon id="Window_9_Shape" class="cls-1" points="913.82 310.82 913.82 112.18 605.18 112.18 493 0 380.82 112.18 72.18 112.18 72.18 310.82 0 383 72.18 455.18 72.18 653.82 380.82 653.82 493 766 605.18 653.82 913.82 653.82 913.82 455.18 986 383 913.82 310.82"/></g></svg>