<?xml version="1.0" encoding="UTF-8"?><svg id="Line" xmlns="http://www.w3.org/2000/svg" viewBox="0 0 959.82 734.49"><defs><style>.cls-1{opacity:.24;}.cls-2{fill:none;stroke:#fff;stroke-miterlimit:10;stroke-width:3px;}.cls-3{fill:#fff;stroke-width:0px;}</style></defs><g id="Window_4"><g id="Window_4_Lines"><path class="cls-3" d="M954.7,391.58c2.04,6.41,3.16,13,3.95,19.59l.5,4.95.32,4.96c.13,1.65.17,3.31.21,4.96.04,1.65.13,3.31.12,4.96.09,13.23-.72,26.45-2.27,39.56-1.56,13.11-3.67,26.16-6.82,39.03l-1.23,4.81c-.41,1.6-.81,3.21-1.3,4.78l-2.83,9.5-3.11,9.4c-1.06,3.13-2.2,6.22-3.3,9.33-4.5,12.39-9.37,24.63-14.15,36.88-4.76,12.25-9.48,24.52-13.35,37.03-3.85,12.5-6.95,25.28-7.85,38.25-.83,13.05-.75,26.19,1.02,39.1.16.89,1.29,12.16,5.11,22.42.96,2.55,2.07,5.02,3.36,7.17,1.28,2.12,2.76,4.03,4.39,4.9.81.43,1.6.46,2.15.06.57-.38.88-1.03,1.09-1.55.41-1.07.49-1.76.61-1.75.07,0,.2.7-.06,1.92-.15.59-.37,1.39-1.12,2.05-.37.32-.9.56-1.47.59-.57.04-1.13-.1-1.66-.31-2.1-.94-3.76-2.89-5.27-5.05-1.49-2.19-2.78-4.7-3.89-7.28-2.22-5.18-3.7-10.68-4.63-14.96-.93-4.28-1.37-7.35-1.44-7.82-1.81-13.18-1.88-26.48-1.04-39.68.92-13.32,4.08-26.29,7.97-38.91,3.91-12.64,8.65-24.95,13.42-37.22,4.78-12.27,9.65-24.48,14.13-36.82,1.09-3.09,2.23-6.17,3.28-9.28l3.09-9.34,2.81-9.42c.49-1.56.89-3.15,1.29-4.74l1.22-4.76c3.11-12.69,5.2-25.67,6.76-38.68,1.54-13.01,2.34-26.12,2.25-39.2-.13-6.53-.36-13.08-1.15-19.55-.77-6.46-1.88-12.9-3.83-19.04-.07-.22-.33-1.04-.74-2.31-.18-.65-.5-1.36-.83-2.17-.34-.81-.7-1.72-1.12-2.68-.91-1.85-2.15-3.94-3.68-5.98-1.54-2.02-3.34-4.09-5.45-5.61-1.05-.74-2.18-1.36-3.31-1.59-.28-.02-.56-.07-.83-.08-.27.04-.53.05-.8.09-.54.13-1.01.36-1.33.67-.65.6-.7,1.75-.31,2.61.11.23.18.35.3.45.06.05.13.08.23.11l.34.13c.47.13.94.22,1.4.21.9,0,1.79-.26,2.24-.7.23-.19.35-.48.34-.74,0-.14-.03-.26-.1-.38-.04-.12-.11-.23-.2-.32-.32-.4-.72-.68-.97-.85-.26-.18-.39-.3-.37-.35.02-.05.19-.01.5.09.15.06.35.11.56.24.21.12.46.24.7.5.13.11.26.24.35.42.05.09.11.17.15.27l.08.32c.08.43-.04.96-.41,1.35-.68.81-1.71,1.15-2.83,1.26-.57.06-1.16,0-1.77-.13l-.45-.13c-.18-.04-.37-.12-.54-.24-.34-.24-.61-.6-.76-.9-.34-.63-.52-1.33-.51-2.1,0-.76.29-1.6.86-2.22.56-.63,1.31-1.01,2.05-1.23.38-.09.78-.14,1.18-.2.39-.02.79.03,1.18.05,1.56.22,2.93.92,4.17,1.71,2.48,1.61,4.46,3.73,6.19,5.82,1.71,2.11,3.1,4.26,4.17,6.26.49,1.01.9,1.95,1.28,2.8.38.85.74,1.6.95,2.26.46,1.32.76,2.17.84,2.4Z"/><path class="cls-3" d="M951.98,349.85c1.95-6.14,3.06-12.58,3.83-19.04.79-6.47,1.01-13.01,1.15-19.55.09-13.08-.71-26.18-2.25-39.2-1.55-13.01-3.65-25.99-6.76-38.68l-1.22-4.76c-.4-1.59-.8-3.17-1.29-4.74l-2.81-9.42-3.09-9.34c-1.05-3.11-2.19-6.18-3.28-9.28-4.48-12.34-9.34-24.55-14.13-36.82-4.77-12.27-9.51-24.58-13.42-37.22-3.89-12.62-7.05-25.59-7.97-38.91-.84-13.2-.76-26.5,1.04-39.68.07-.47.5-3.54,1.44-7.82.94-4.28,2.41-9.77,4.63-14.96,1.11-2.59,2.4-5.1,3.89-7.28,1.5-2.16,3.17-4.11,5.27-5.05.53-.22,1.1-.35,1.66-.31.57.03,1.1.27,1.47.59.75.66.97,1.46,1.12,2.05.25,1.22.13,1.91.06,1.92-.12.02-.2-.68-.61-1.75-.21-.51-.53-1.16-1.09-1.55-.55-.4-1.34-.37-2.15.06-1.63.88-3.11,2.78-4.39,4.9-1.29,2.15-2.4,4.63-3.36,7.17-3.82,10.26-4.95,21.53-5.11,22.42-1.77,12.91-1.85,26.06-1.02,39.1.9,12.97,4,25.75,7.85,38.25,3.87,12.51,8.59,24.78,13.35,37.03,4.78,12.25,9.65,24.49,14.15,36.88,1.1,3.11,2.24,6.2,3.3,9.33l3.11,9.4,2.83,9.5c.49,1.58.89,3.18,1.3,4.78l1.23,4.81c3.15,12.87,5.26,25.92,6.82,39.03,1.55,13.11,2.36,26.33,2.27,39.56,0,1.65-.08,3.31-.12,4.96-.05,1.65-.09,3.31-.21,4.96l-.32,4.96-.5,4.95c-.79,6.59-1.91,13.18-3.95,19.59-.08.22-.37,1.08-.84,2.4-.2.67-.57,1.42-.95,2.26-.39.85-.79,1.79-1.28,2.8-1.06,2-2.46,4.15-4.17,6.26-1.73,2.09-3.71,4.2-6.19,5.82-1.24.79-2.61,1.48-4.17,1.71-.4.02-.79.06-1.18.05-.4-.06-.8-.11-1.18-.2-.73-.22-1.48-.6-2.05-1.23-.57-.62-.85-1.46-.86-2.22-.01-.76.17-1.47.51-2.1.15-.3.43-.66.76-.9.17-.12.36-.19.54-.24l.45-.13c.61-.12,1.2-.18,1.77-.13,1.12.12,2.16.45,2.83,1.26.37.39.49.92.41,1.35l-.08.32c-.04.1-.1.18-.15.27-.1.18-.22.31-.35.42-.24.25-.49.38-.7.5-.21.13-.41.18-.56.24-.31.1-.48.14-.5.09-.02-.05.11-.17.37-.35.25-.17.65-.45.97-.85.09-.1.16-.2.2-.32.07-.11.09-.24.1-.38.02-.27-.11-.56-.34-.74-.45-.44-1.34-.7-2.24-.7-.46,0-.93.08-1.4.21l-.34.13c-.1.04-.17.06-.23.11-.11.11-.19.22-.3.45-.4.86-.35,2.01.31,2.61.32.31.79.54,1.33.67.27.04.54.05.8.09.27,0,.56-.06.83-.08,1.13-.22,2.27-.84,3.31-1.59,2.11-1.52,3.91-3.58,5.45-5.61,1.53-2.04,2.77-4.13,3.68-5.98.42-.96.78-1.87,1.12-2.68.33-.81.66-1.52.83-2.17.41-1.28.67-2.09.74-2.31Z"/><path class="cls-3" d="M7.84,392.45c-1.95,6.14-3.06,12.58-3.83,19.04-.79,6.47-1.01,13.01-1.15,19.55-.09,13.08.71,26.18,2.25,39.2,1.55,13.01,3.65,25.99,6.76,38.68l1.22,4.76c.4,1.59.8,3.17,1.29,4.74l2.81,9.42,3.09,9.34c1.05,3.11,2.19,6.18,3.28,9.28,4.48,12.34,9.34,24.55,14.13,36.82,4.77,12.27,9.51,24.58,13.42,37.22,3.89,12.62,7.05,25.59,7.97,38.91.84,13.2.76,26.5-1.04,39.68-.07.47-.5,3.54-1.44,7.82-.94,4.28-2.41,9.77-4.63,14.96-1.11,2.59-2.4,5.1-3.89,7.28-1.5,2.16-3.17,4.11-5.27,5.05-.53.22-1.1.35-1.66.31-.57-.03-1.1-.27-1.47-.59-.75-.66-.97-1.46-1.12-2.05-.25-1.22-.13-1.91-.06-1.92.12-.02.2.68.61,1.75.21.51.53,1.16,1.09,1.55.55.4,1.34.37,2.15-.06,1.63-.88,3.11-2.78,4.39-4.9,1.29-2.15,2.4-4.63,3.36-7.17,3.82-10.26,4.95-21.53,5.11-22.42,1.77-12.91,1.85-26.06,1.02-39.1-.9-12.97-4-25.75-7.85-38.25-3.87-12.51-8.59-24.78-13.35-37.03-4.78-12.25-9.65-24.49-14.15-36.88-1.1-3.11-2.24-6.2-3.3-9.33l-3.11-9.4-2.83-9.5c-.49-1.58-.89-3.18-1.3-4.78l-1.23-4.81c-3.15-12.87-5.26-25.92-6.82-39.03C.73,457.45-.08,444.24,0,431.01c0-1.65.08-3.31.12-4.96.05-1.65.09-3.31.21-4.96l.32-4.96.5-4.95c.79-6.59,1.91-13.18,3.95-19.59.08-.22.37-1.08.84-2.4.2-.67.57-1.42.95-2.26.39-.85.79-1.79,1.28-2.8,1.06-2,2.46-4.15,4.17-6.26,1.73-2.09,3.71-4.2,6.19-5.82,1.24-.79,2.61-1.48,4.17-1.71.4-.02.79-.06,1.18-.05.4.06.8.11,1.18.2.73.22,1.48.6,2.05,1.23.57.62.85,1.46.86,2.22.01.76-.17,1.47-.51,2.1-.15.3-.43.66-.76.9-.17.12-.36.19-.54.24l-.45.13c-.61.12-1.2.18-1.77.13-1.12-.12-2.16-.45-2.83-1.26-.37-.39-.49-.92-.41-1.35l.08-.32c.04-.1.1-.18.15-.27.1-.18.22-.31.35-.42.24-.25.49-.38.7-.5.21-.13.41-.18.56-.24.31-.1.48-.14.5-.09.02.05-.11.17-.37.35-.25.17-.65.45-.97.85-.09.1-.16.2-.2.32-.07.11-.09.24-.1.38-.02.27.11.56.34.74.45.44,1.34.7,2.24.7.46,0,.93-.08,1.4-.21l.34-.13c.1-.04.17-.06.23-.11.11-.11.19-.22.3-.45.4-.86.35-2.01-.31-2.61-.32-.31-.79-.54-1.33-.67-.27-.04-.54-.05-.8-.09-.27,0-.56.06-.83.08-1.13.22-2.27.84-3.31,1.59-2.11,1.52-3.91,3.58-5.45,5.61-1.53,2.04-2.77,4.13-3.68,5.98-.42.96-.78,1.87-1.12,2.68-.33.81-.66,1.52-.83,2.17-.41,1.28-.67,2.09-.74,2.31Z"/><path class="cls-3" d="M5.12,350.73c-2.04-6.41-3.16-13-3.95-19.59l-.5-4.95-.32-4.96c-.13-1.65-.17-3.31-.21-4.96-.04-1.65-.13-3.31-.12-4.96-.09-13.23.72-26.45,2.27-39.56,1.56-13.11,3.67-26.16,6.82-39.03l1.23-4.81c.41-1.6.81-3.21,1.3-4.78l2.83-9.5,3.11-9.4c1.06-3.13,2.2-6.22,3.3-9.33,4.5-12.39,9.37-24.63,14.15-36.88,4.76-12.25,9.48-24.52,13.35-37.03,3.85-12.5,6.95-25.28,7.85-38.25.83-13.05.75-26.19-1.02-39.1-.16-.89-1.29-12.16-5.11-22.42-.96-2.55-2.07-5.02-3.36-7.17-1.28-2.12-2.76-4.03-4.39-4.9-.81-.43-1.6-.46-2.15-.06-.57.38-.88,1.03-1.09,1.55-.41,1.07-.49,1.76-.61,1.75-.07,0-.2-.7.06-1.92.15-.59.37-1.39,1.12-2.05.37-.32.9-.56,1.47-.59.57-.04,1.13.1,1.66.31,2.1.94,3.76,2.89,5.27,5.05,1.49,2.19,2.78,4.7,3.89,7.28,2.22,5.18,3.7,10.68,4.63,14.96.93,4.28,1.37,7.35,1.44,7.82,1.81,13.17,1.88,26.48,1.04,39.68-.92,13.32-4.08,26.29-7.97,38.91-3.91,12.64-8.65,24.95-13.42,37.22-4.78,12.27-9.65,24.48-14.13,36.82-1.09,3.09-2.23,6.17-3.28,9.28l-3.09,9.34-2.81,9.42c-.49,1.56-.89,3.15-1.29,4.74l-1.22,4.76c-3.11,12.69-5.2,25.67-6.76,38.68-1.54,13.01-2.34,26.12-2.25,39.2.13,6.53.36,13.08,1.15,19.55.77,6.46,1.88,12.9,3.83,19.04.07.22.33,1.04.74,2.31.18.65.5,1.36.83,2.17.34.81.7,1.72,1.12,2.68.91,1.85,2.15,3.94,3.68,5.98,1.54,2.02,3.34,4.09,5.45,5.61,1.05.74,2.18,1.36,3.31,1.59.28.02.56.07.83.08.27-.04.53-.05.8-.09.54-.13,1.01-.36,1.33-.67.65-.6.7-1.75.31-2.61-.11-.23-.18-.35-.3-.45-.06-.05-.13-.08-.23-.11l-.34-.13c-.47-.13-.94-.22-1.4-.21-.9,0-1.79.26-2.24.7-.23.19-.35.48-.34.74,0,.14.03.26.1.38.04.12.11.23.2.32.32.4.72.68.97.85.26.18.39.3.37.35-.02.05-.19.01-.5-.09-.15-.06-.35-.11-.56-.24-.21-.12-.46-.24-.7-.5-.13-.11-.26-.24-.35-.42-.05-.09-.11-.17-.15-.27l-.08-.32c-.08-.43.04-.96.41-1.35.68-.81,1.71-1.15,2.83-1.26.57-.06,1.16,0,1.77.13l.45.13c.18.04.37.12.54.24.34.24.61.6.76.9.34.63.52,1.33.51,2.1,0,.76-.29,1.6-.86,2.22-.56.63-1.31,1.01-2.05,1.23-.38.09-.78.14-1.18.2-.39.02-.79-.03-1.18-.05-1.56-.22-2.93-.92-4.17-1.71-2.48-1.61-4.46-3.73-6.19-5.82-1.71-2.11-3.1-4.26-4.17-6.26-.49-1.01-.9-1.95-1.28-2.8-.38-.85-.74-1.6-.95-2.26-.46-1.32-.76-2.17-.84-2.4Z"/><rect class="cls-2" x="29.77" y="36.18" width="900.27" height="669.94"/><path class="cls-3" d="M586.05,16.94c31.92,1.84,63.87,3.27,95.81,5.07,31.94,1.82,63.89,3.88,95.74,7.25,15.92,1.71,31.82,3.74,47.61,6.59,7.89,1.43,15.76,3.09,23.54,5.14,7.77,2.09,15.5,4.49,22.85,8.04,3.66,1.78,7.25,3.85,10.42,6.6,1.58,1.38,3.05,2.93,4.24,4.74,1.19,1.8,2.07,3.88,2.42,6.08.11.55.15,1.1.17,1.65.04.58.03,1.06.03,1.56v3s-.01,6-.01,6l-.04,12-.13,47.97c-.06,63.96.43,127.92,2.51,191.83,1.05,31.95,2.5,63.89,4.77,95.77,1.14,15.94,2.5,31.86,4.23,47.73,1.75,15.87,3.82,31.71,6.79,47.37.24,1.11,1.46,8.44,4.02,18.59,1.31,5.06,2.93,10.84,5.31,16.69.3.73.61,1.46.92,2.2.32.73.69,1.44,1.04,2.16.66,1.47,1.54,2.82,2.34,4.23.53.74,1.07,1.48,1.6,2.23l.32.45c.1.15.28.29.11.46l-.53.97-.67,1.21c-.82,1.47-1.65,2.94-2.47,4.42-3.32,5.87-6.75,11.65-10.28,16.87-1.78,2.59-3.56,5.07-5.44,7.27-.9,1.13-1.9,2.13-2.83,3.12-1,.93-1.95,1.85-2.99,2.6-2.03,1.53-4.22,2.6-6.33,2.87-2.1.33-4-.23-5.23-1.11-1.24-.9-1.85-1.94-2.18-2.65-.32-.72-.38-1.15-.34-1.16.05-.02.2.37.59,1.02.4.64,1.07,1.56,2.24,2.31,1.17.71,2.89,1.13,4.79.75,1.9-.33,3.89-1.38,5.77-2.91.96-.74,1.85-1.66,2.79-2.58.87-1,1.81-1.99,2.67-3.12,1.78-2.2,3.46-4.68,5.16-7.29,3.36-5.24,6.65-11.06,9.85-16.96.79-1.48,1.59-2.97,2.38-4.45l.53-1.01.07-.14s-.05-.09-.07-.12c-.45-.61-.91-1.21-1.36-1.82-.88-1.47-1.83-2.89-2.54-4.41-.37-.75-.78-1.48-1.12-2.23-.33-.75-.66-1.5-.98-2.25-2.54-5.98-4.27-11.83-5.67-16.93-2.73-10.24-4.04-17.61-4.28-18.73-2.99-15.77-5.06-31.67-6.82-47.59-1.73-15.92-3.1-31.87-4.24-47.84-2.28-31.93-3.72-63.9-4.78-95.88-2.08-63.96-2.57-127.95-2.51-191.92l.13-47.98.04-11.99v-6c-.02-1.98.11-4.09-.15-5.76-.54-3.54-2.86-6.66-5.72-9.13-2.87-2.5-6.27-4.48-9.79-6.19-7.07-3.42-14.68-5.79-22.34-7.85-7.68-2.03-15.48-3.67-23.32-5.09-15.69-2.84-31.53-4.86-47.41-6.56-31.77-3.37-63.68-5.42-95.6-7.24-31.92-1.8-63.87-3.24-95.82-5.08-1.14-.07-8.58-.53-19.09-1.29-10.51-.77-24.09-1.85-37.49-3.35-13.4-1.52-26.65-3.45-36.3-6.21-4.8-1.38-8.74-3.01-11.03-4.95-1.15-.95-1.79-2-1.99-2.78-.12-.39-.13-.69-.12-.9,0-.2.02-.31.04-.31s.06.1.1.29c.04.19.09.48.25.82.27.69.94,1.6,2.08,2.43,2.27,1.69,6.18,3.13,10.96,4.33,9.61,2.4,22.84,4.02,36.22,5.27,13.39,1.24,26.96,2.11,37.46,2.74,10.51.59,17.94,1,19.08,1.06Z"/><path class="cls-3" d="M373.93,19.79c-31.94,1.84-63.9,3.27-95.82,5.08-31.92,1.82-63.83,3.87-95.6,7.24-15.88,1.7-31.72,3.73-47.41,6.56-7.84,1.42-15.64,3.06-23.32,5.09-7.66,2.06-15.27,4.43-22.34,7.85-3.52,1.71-6.92,3.69-9.79,6.19-2.86,2.47-5.18,5.59-5.72,9.13-.26,1.66-.13,3.78-.16,5.76v6s.05,11.99.05,11.99l.13,47.98c.06,63.97-.43,127.96-2.51,191.92-1.05,31.98-2.5,63.95-4.78,95.88-1.14,15.96-2.51,31.92-4.24,47.84-1.76,15.92-3.83,31.82-6.82,47.59-.24,1.12-1.55,8.49-4.28,18.73-1.4,5.11-3.12,10.95-5.67,16.93-.33.74-.65,1.49-.98,2.25-.34.75-.74,1.48-1.12,2.23-.71,1.51-1.66,2.94-2.54,4.41-.45.6-.9,1.21-1.36,1.82-.02.04-.09.08-.07.12l.07.14.53,1.01c.79,1.48,1.58,2.96,2.38,4.45,3.2,5.91,6.48,11.73,9.85,16.96,1.7,2.6,3.39,5.09,5.16,7.29.85,1.13,1.79,2.13,2.67,3.12.94.93,1.83,1.84,2.79,2.58,1.88,1.52,3.87,2.58,5.77,2.91,1.91.38,3.62-.03,4.79-.75,1.17-.74,1.84-1.67,2.24-2.31.39-.65.54-1.04.59-1.02.05.01-.01.43-.34,1.16-.33.71-.95,1.75-2.18,2.65-1.23.87-3.14,1.43-5.23,1.11-2.11-.27-4.3-1.34-6.33-2.87-1.04-.75-1.99-1.66-2.99-2.6-.93-.99-1.93-2-2.83-3.12-1.88-2.2-3.66-4.67-5.44-7.27-3.53-5.21-6.96-11-10.28-16.87-.82-1.47-1.65-2.95-2.47-4.42l-.67-1.21-.53-.97c-.17-.17.01-.31.11-.46l.32-.45c.54-.74,1.07-1.49,1.6-2.23.8-1.41,1.68-2.76,2.34-4.23.35-.73.72-1.43,1.04-2.16.31-.74.61-1.47.92-2.2,2.38-5.85,4-11.63,5.31-16.69,2.55-10.15,3.78-17.48,4.02-18.59,2.97-15.66,5.04-31.5,6.79-47.37,1.72-15.88,3.09-31.79,4.23-47.73,2.27-31.88,3.72-63.82,4.77-95.77,2.08-63.91,2.57-127.87,2.51-191.83l-.13-47.97-.04-12v-6s-.01-3-.01-3c0-.5-.01-.98.03-1.56.02-.55.06-1.11.17-1.65.35-2.2,1.23-4.28,2.42-6.08,1.19-1.81,2.66-3.37,4.24-4.74,3.17-2.75,6.76-4.82,10.42-6.6,7.35-3.55,15.09-5.95,22.85-8.04,7.78-2.06,15.65-3.71,23.54-5.14,15.79-2.86,31.69-4.88,47.61-6.59,31.85-3.37,63.8-5.43,95.74-7.25,31.94-1.8,63.9-3.24,95.81-5.07,1.14-.06,8.56-.48,19.08-1.06,10.5-.63,24.07-1.49,37.46-2.74,13.38-1.25,26.61-2.87,36.22-5.27,4.79-1.2,8.69-2.64,10.96-4.33,1.14-.83,1.8-1.74,2.08-2.43.16-.34.21-.62.25-.82.04-.19.08-.29.1-.29s.04.1.04.31c.01.21,0,.51-.12.9-.2.78-.85,1.83-1.99,2.78-2.29,1.94-6.23,3.57-11.03,4.95-9.65,2.76-22.91,4.69-36.3,6.21-13.41,1.5-26.99,2.58-37.49,3.35-10.51.77-17.95,1.22-19.09,1.29Z"/></g><g id="Window_4_Shape" class="cls-1"><path class="cls-3" d="M91.54,691.98s-1.24,5.27-6.22,5.23c-8.36-.07-17.21-15.24-30.48-44.29,37.32-53.46,32.76-462.53,32.76-565.59,0-68.02,392.31-42.5,392.31-77.84,0,35.34,392.31,9.82,392.31,77.84,0,103.06-4.56,512.13,32.76,565.59-13.27,29.05-22.12,44.22-30.48,44.29-4.98.04-6.22-5.23-6.22-5.23H91.54Z"/></g></g></svg>