<?xml version="1.0" encoding="UTF-8"?><svg id="Line" xmlns="http://www.w3.org/2000/svg" viewBox="0 0 947.11 673"><defs><style>.cls-1{fill:none;stroke:#fff;stroke-miterlimit:10;stroke-width:3px;}.cls-2{opacity:.24;}.cls-2,.cls-3{fill:#fff;stroke-width:0px;}</style></defs><g id="Window_5"><g id="Window_5_Lines"><rect class="cls-1" x="23.61" y="1.5" width="899.9" height="670"/><path class="cls-3" d="M78.86,31.69c2.02-.46,4.05-.84,6.08-1.2l6.1-1.13,6.1-1.13c2.03-.38,4.06-.76,6.11-1.07l12.24-1.97,6.12-.98,6.14-.86c8.18-1.14,16.35-2.35,24.56-3.29l12.29-1.51c4.1-.52,8.21-.9,12.31-1.36,32.83-3.57,65.75-6.24,98.7-8.36,32.95-2.13,65.94-3.58,98.94-4.59,33-1,66.01-1.52,99.03-1.55,33.02.03,66.03.55,99.03,1.55,33,1.01,65.99,2.46,98.94,4.59,32.95,2.11,65.87,4.79,98.7,8.36,4.1.46,8.21.85,12.31,1.36l12.29,1.51c8.2.95,16.38,2.15,24.56,3.29l6.14.86,6.12.98,12.24,1.97c2.04.31,4.07.69,6.11,1.07l6.1,1.13,6.1,1.13c2.03.37,4.06.75,6.08,1.2.58.13,2.74.6,6.1,1.34,1.68.37,3.65.81,5.87,1.3,1.11.25,2.28.49,3.5.79,1.22.31,2.5.64,3.82.97,10.55,2.78,24.08,7.29,36.29,14.26,3.02,1.78,5.99,3.64,8.75,5.72,2.75,2.08,5.33,4.3,7.58,6.7,2.25,2.39,4.15,5,5.45,7.77,1.3,2.75,1.84,5.77,1.28,8.44-.53,2.69-2.12,4.76-3.76,6.11-.2.18-.4.35-.6.52-.22.14-.43.28-.64.42-.42.27-.81.55-1.21.77-.83.39-1.56.81-2.27,1.08-.7.25-1.33.49-1.89.69-.56.16-1.04.27-1.43.37-.78.19-1.2.27-1.21.22-.01-.05.38-.22,1.13-.5.4-.14.85-.31,1.37-.5.54-.24,1.14-.51,1.8-.81.67-.3,1.36-.75,2.14-1.17.37-.24.73-.52,1.12-.8.19-.14.39-.28.59-.42.18-.17.36-.34.54-.51,1.49-1.34,2.84-3.28,3.23-5.68.42-2.39-.14-5.11-1.42-7.65-1.28-2.55-3.15-5-5.38-7.26-2.22-2.26-4.77-4.36-7.49-6.33-2.73-1.97-5.67-3.73-8.66-5.42-12.1-6.61-25.5-10.87-35.95-13.47-1.31-.32-2.58-.62-3.78-.91-1.21-.28-2.39-.51-3.49-.74-2.21-.46-4.18-.87-5.85-1.22-3.35-.7-5.51-1.16-6.08-1.28-2.01-.46-4.03-.83-6.06-1.2l-6.07-1.12-6.07-1.12c-2.02-.38-4.05-.76-6.08-1.06l-12.2-1.96-6.1-.98-6.12-.86c-8.16-1.14-16.31-2.34-24.5-3.29l-12.27-1.51c-4.09-.52-8.19-.9-12.29-1.36-32.78-3.56-65.66-6.23-98.57-8.35-32.92-2.12-65.87-3.58-98.84-4.58-32.97-1-65.96-1.52-98.94-1.55-32.99.03-65.97.55-98.94,1.55-32.97,1.01-65.93,2.46-98.84,4.58-32.91,2.11-65.79,4.78-98.57,8.35-4.1.46-8.2.84-12.29,1.36l-12.27,1.51c-8.19.94-16.34,2.15-24.5,3.29l-6.12.86-6.1.98-12.2,1.96c-2.04.31-4.06.68-6.08,1.06l-6.07,1.12-6.07,1.12c-2.03.37-4.05.74-6.06,1.2-.57.12-2.74.58-6.08,1.28-1.67.35-3.64.76-5.85,1.22-1.1.24-2.28.46-3.49.74-1.21.29-2.47.59-3.78.91-10.45,2.6-23.85,6.86-35.95,13.47-2.99,1.69-5.94,3.46-8.66,5.42-2.72,1.97-5.27,4.07-7.49,6.33-2.23,2.25-4.1,4.7-5.38,7.26-1.28,2.54-1.83,5.26-1.42,7.65.39,2.41,1.74,4.34,3.23,5.68.18.17.36.34.54.51.2.14.39.29.59.42.39.27.75.56,1.12.8.78.42,1.46.87,2.14,1.17.66.3,1.26.57,1.8.81.52.19.98.36,1.37.5.75.28,1.14.45,1.13.5s-.43-.03-1.21-.22c-.39-.1-.87-.21-1.43-.37-.56-.21-1.19-.44-1.89-.69-.71-.26-1.44-.68-2.27-1.08-.4-.23-.79-.51-1.21-.77-.21-.14-.42-.28-.64-.42-.2-.17-.4-.34-.6-.52-1.64-1.35-3.23-3.42-3.76-6.11-.56-2.67-.01-5.69,1.28-8.44,1.3-2.76,3.2-5.38,5.45-7.77,2.25-2.4,4.83-4.62,7.58-6.7,2.76-2.07,5.73-3.94,8.75-5.72,12.21-6.97,25.74-11.49,36.29-14.26,1.32-.34,2.6-.66,3.82-.97,1.22-.3,2.39-.54,3.5-.79,2.22-.49,4.19-.93,5.87-1.3,3.36-.74,5.53-1.22,6.1-1.34Z"/><path class="cls-3" d="M105.68,53.01c-2.45-2.97-5.77-5.19-9.41-6.73-3.67-1.58-7.52-2.76-11.45-3.19-.98-.14-1.97-.16-2.95-.22-.98.01-1.97-.02-2.95.08-1.96.13-3.91.44-5.81.97-3.81,1.01-7.4,2.79-10.67,5.04-6.55,4.56-11.77,10.94-16.06,17.79-4.28,6.89-7.68,14.34-10.48,22-5.56,15.35-8.89,31.53-10.28,47.81-.33,4.07-.52,8.16-.56,12.23-.02,4.07.12,8.17.36,12.25.51,8.15,1.38,16.32,3.44,24.14.08.28.49,2.12,1.31,4.62.82,2.5,2.08,5.7,4.04,8.34.97,1.31,2.14,2.45,3.41,3.19,1.28.73,2.65,1,3.83.95,1.19-.06,2.18-.4,2.85-.67.68-.27,1.07-.45,1.13-.36.05.07-.23.41-.86.87-.62.45-1.62,1.01-2.99,1.27-1.35.25-3.07.1-4.68-.63-1.6-.74-3.06-1.95-4.26-3.34-2.41-2.79-3.94-6.13-4.95-8.72-1.01-2.6-1.52-4.49-1.6-4.78-2.14-8.13-3.01-16.44-3.53-24.71-.24-4.14-.39-8.28-.37-12.44.04-4.16.24-8.31.57-12.45,1.41-16.54,4.78-32.92,10.44-48.55,2.85-7.81,6.33-15.42,10.74-22.54,4.44-7.06,9.85-13.73,16.86-18.62,3.5-2.42,7.4-4.36,11.56-5.45,2.07-.58,4.21-.92,6.35-1.06,1.07-.1,2.15-.07,3.22-.09,1.07.07,2.15.09,3.21.24,4.27.47,8.38,1.74,12.26,3.41,3.92,1.67,7.67,4.13,10.47,7.54.18.24,1.54,1.83,2.74,4.47,1.22,2.62,2.07,6.33,1.85,9.97-.19,3.62-1.26,7.14-2.95,9.33-.22.27-.44.52-.69.74-.24.22-.56.45-.87.56-.31.12-.61.17-.88.11-.27-.06-.49-.2-.65-.35-.32-.32-.42-.68-.48-.88-.04-.21-.03-.33.01-.35.11-.05.29.39.77.71.25.16.65.17.96-.07.27-.18.61-.6.92-1.11,1.21-2.07,1.93-5.43,1.84-8.73-.05-3.32-1.01-6.56-2.2-8.79-1.17-2.25-2.41-3.58-2.57-3.79Z"/><path class="cls-3" d="M81.39,102.37c2.54-2.07,4.25-5.17,5.45-8.42.27-.83.58-1.66.75-2.49.19-.83.45-1.66.51-2.51.09-.85.25-1.69.21-2.55,0-.85.04-1.71-.1-2.56-.64-6.82-4.62-13.21-10.3-17.08-2.83-1.95-6.1-3.25-9.48-3.71-3.38-.48-6.86-.11-10.09,1.02-.79.33-1.61.59-2.38.97l-2.28,1.22-2.14,1.47c-.72.49-1.34,1.11-2.02,1.66-2.6,2.32-4.92,5.01-6.84,7.99-3.93,5.91-6.71,12.59-8.8,19.46-2.05,6.87-3.56,14-4.92,21.11-1.32,7.12-2.33,14.29-2.75,21.48-.25,3.59-.25,7.19-.09,10.76.17,3.57.63,7.11,1.51,10.5.02.12.16.57.36,1.26.17.71.51,1.61.9,2.68.23.51.48,1.05.75,1.63.33.52.62,1.13,1.02,1.65.74,1.12,1.76,2.07,2.91,2.7,1.16.63,2.5.82,3.72.54,1.23-.26,2.28-.95,3.05-1.67,1.59-1.44,2.1-2.93,2.34-2.82.12.02,0,1.67-1.53,3.58-.75.94-1.89,1.93-3.43,2.44-1.52.53-3.4.46-5.01-.24-1.6-.69-2.97-1.84-3.94-3.09-.53-.6-.9-1.26-1.33-1.86-.34-.63-.68-1.23-.97-1.8-.51-1.16-.94-2.15-1.16-2.9-.25-.75-.42-1.23-.45-1.37-.96-3.66-1.43-7.39-1.61-11.09-.16-3.7-.16-7.4.09-11.08.43-7.35,1.46-14.63,2.79-21.84,1.37-7.2,2.88-14.34,5-21.43,2.15-7.05,5.01-13.97,9.16-20.21,2.02-3.14,4.5-6.03,7.32-8.55.74-.6,1.41-1.27,2.2-1.81l2.36-1.62,2.54-1.35c.86-.43,1.78-.73,2.67-1.09,3.64-1.27,7.6-1.7,11.43-1.15,3.84.53,7.52,2,10.69,4.18,6.35,4.33,10.8,11.44,11.54,19.16.15.96.11,1.93.11,2.89.04.97-.13,1.93-.23,2.89-.07.97-.35,1.9-.57,2.84-.2.95-.53,1.84-.82,2.74-1.31,3.54-3.19,7.09-6.33,9.67-.21.17-1.69,1.44-4.27,2.24-2.55.81-6.26.73-9.2-1.08-.73-.45-1.42-.99-1.98-1.68-.55-.68-1.01-1.55-.99-2.56-.01-.26.05-.42.07-.63.05-.21.03-.36.15-.63.09-.24.16-.48.26-.7.14-.19.26-.39.4-.56.61-.67,1.63-.68,2.21-.19.6.46.93,1.14,1,1.72.06.55-.04,1.01-.19,1.34-.08.17-.15.31-.22.43-.09.11-.17.2-.23.26-.13.13-.22.19-.26.16-.04-.03-.03-.14.01-.31.02-.08.05-.18.09-.3.02-.13.04-.26.06-.4.04-.29.02-.65-.09-1.01-.11-.32-.32-.6-.61-.77-.28-.2-.73-.08-.89.25-.08.16-.12.33-.14.5-.01.17-.05.59-.03.81.08.9,1.17,1.92,2.36,2.49,2.47,1.24,5.45,1.1,7.39.34,1.98-.75,3.12-1.82,3.29-1.96Z"/><path class="cls-3" d="M150.51,25.11c-4.79,2.35-9.04,5.65-13.19,9.16-2.08,1.76-4.16,3.57-6.37,5.29-2.2,1.73-4.59,3.34-7.24,4.52-.33.15-.65.32-.99.44l-1.04.36c-.69.24-1.38.49-2.06.63-1.37.31-2.71.72-4.1.95-1.39.21-2.77.54-4.19.62l-2.12.19c-.71.03-1.42.02-2.13.04-2.84,0-5.71-.29-8.47-.98-2.77-.64-5.41-1.62-7.95-2.42-.19-.05-2.29-.93-4.4-1.35-.26-.05-.52-.11-.79-.16-.25-.02-.51-.04-.77-.06-.51-.05-.99-.12-1.4-.1-.83,0-1.43-.07-1.48-.26-.05-.19.45-.49,1.3-.83.42-.2.93-.29,1.5-.4.3-.05.59-.11.88-.16.31-.01.62-.02.92-.03,2.5-.07,4.92.59,5.09.63,2.69.84,5.19,1.77,7.77,2.37,2.56.64,5.18.91,7.82.9.66-.01,1.32,0,1.98-.03l1.98-.18c1.32-.07,2.63-.39,3.94-.58,1.31-.21,2.6-.61,3.9-.9.67-.14,1.26-.36,1.87-.57l.91-.31c.3-.11.59-.27.88-.4,2.36-1.04,4.56-2.51,6.66-4.17,2.12-1.65,4.17-3.43,6.27-5.22,4.2-3.55,8.68-7.04,13.75-9.53.09-.04.7-.3,1.56-.64.85-.36,2.03-.66,3.16-.99.27-.08.56-.15.85-.23.27-.05.55-.1.84-.15.54-.09,1.05-.17,1.49-.22.87-.1,1.46-.09,1.51.1h0c.05.19-.43.54-1.18.96-.38.21-.82.44-1.3.67-.25.12-.5.24-.74.35-.25.14-.5.28-.74.41-.99.56-2.03,1.03-2.78,1.5-.76.45-1.29.76-1.38.8Z"/><path class="cls-3" d="M839.24,51.19c2.81-3.41,6.55-5.87,10.47-7.54,3.89-1.67,8-2.94,12.26-3.41,1.06-.15,2.14-.18,3.21-.24,1.07.01,2.15-.02,3.22.09,2.14.14,4.28.49,6.35,1.06,4.16,1.1,8.06,3.04,11.56,5.45,7.01,4.89,12.42,11.56,16.86,18.62,4.41,7.11,7.89,14.73,10.74,22.54,5.66,15.64,9.03,32.02,10.44,48.55.33,4.14.53,8.29.57,12.45.02,4.17-.13,8.31-.37,12.44-.52,8.27-1.39,16.57-3.53,24.71-.08.29-.59,2.18-1.6,4.78-1.01,2.58-2.54,5.93-4.95,8.72-1.2,1.38-2.65,2.6-4.26,3.34-1.61.73-3.33.88-4.68.63-1.37-.25-2.37-.81-2.99-1.27-.63-.45-.91-.8-.86-.87.06-.09.45.1,1.13.36.67.27,1.65.61,2.85.67,1.19.05,2.56-.22,3.83-.95,1.27-.74,2.44-1.87,3.41-3.19,1.96-2.63,3.22-5.84,4.04-8.34.83-2.51,1.24-4.35,1.31-4.62,2.06-7.81,2.93-15.99,3.44-24.14.24-4.08.38-8.18.36-12.25-.04-4.08-.23-8.16-.56-12.23-1.39-16.28-4.72-32.46-10.28-47.81-2.8-7.66-6.2-15.11-10.48-22-4.3-6.84-9.51-13.22-16.06-17.79-3.27-2.26-6.86-4.04-10.67-5.04-1.9-.53-3.85-.84-5.81-.97-.98-.1-1.97-.07-2.95-.08-.98.07-1.97.08-2.95.22-3.93.43-7.78,1.61-11.45,3.19-3.64,1.55-6.96,3.76-9.41,6.73-.16.21-1.4,1.54-2.57,3.79-1.19,2.23-2.15,5.47-2.2,8.79-.08,3.3.63,6.66,1.84,8.73.31.51.64.93.92,1.11.31.24.71.24.96.07.48-.32.66-.77.77-.71.05.02.05.13.01.35-.06.21-.16.56-.48.88-.16.15-.38.3-.65.35-.27.05-.58,0-.88-.11-.3-.12-.63-.34-.87-.56-.25-.22-.47-.47-.69-.74-1.69-2.19-2.76-5.71-2.95-9.33-.22-3.63.63-7.35,1.85-9.97,1.2-2.64,2.55-4.23,2.74-4.47Z"/><path class="cls-3" d="M863.93,104.58c-3.14-2.58-5.02-6.13-6.33-9.67-.3-.9-.63-1.78-.82-2.74-.22-.94-.5-1.87-.57-2.84-.11-.96-.27-1.92-.23-2.89,0-.97-.04-1.94.11-2.89.74-7.73,5.19-14.84,11.54-19.16,3.17-2.18,6.85-3.65,10.69-4.18,3.83-.55,7.8-.12,11.43,1.15.89.37,1.81.66,2.67,1.09l2.54,1.35,2.36,1.62c.79.54,1.46,1.21,2.2,1.81,2.83,2.52,5.3,5.41,7.33,8.55,4.15,6.24,7.01,13.16,9.16,20.21,2.11,7.09,3.62,14.23,5,21.43,1.33,7.2,2.36,14.48,2.79,21.84.25,3.67.25,7.37.09,11.08-.17,3.7-.65,7.42-1.61,11.09-.03.13-.2.62-.45,1.37-.22.75-.65,1.75-1.16,2.9-.29.57-.63,1.17-.97,1.8-.42.6-.8,1.26-1.33,1.86-.96,1.25-2.33,2.39-3.94,3.09-1.61.7-3.49.78-5.01.24-1.54-.51-2.68-1.5-3.43-2.44-1.53-1.91-1.65-3.56-1.53-3.58.23-.1.75,1.38,2.34,2.82.77.72,1.83,1.41,3.05,1.67,1.22.27,2.56.08,3.72-.54,1.16-.63,2.18-1.58,2.91-2.7.4-.52.69-1.13,1.02-1.65.27-.58.52-1.12.75-1.63.39-1.07.73-1.97.9-2.68.19-.7.33-1.14.36-1.26.89-3.38,1.35-6.93,1.51-10.5.15-3.57.16-7.16-.09-10.76-.42-7.19-1.43-14.37-2.75-21.48-1.35-7.11-2.87-14.24-4.92-21.11-2.09-6.86-4.87-13.55-8.8-19.46-1.92-2.98-4.24-5.67-6.84-7.99-.68-.55-1.3-1.17-2.02-1.66l-2.14-1.47-2.28-1.22c-.77-.39-1.59-.64-2.38-.97-3.23-1.13-6.71-1.5-10.09-1.02-3.38.47-6.65,1.76-9.48,3.71-5.68,3.87-9.66,10.26-10.3,17.08-.14.85-.1,1.7-.1,2.56-.04.86.11,1.7.21,2.55.05.86.32,1.68.51,2.51.17.83.47,1.66.75,2.49,1.19,3.25,2.91,6.35,5.45,8.42.17.14,1.31,1.21,3.29,1.96,1.94.76,4.93.9,7.39-.34,1.2-.57,2.29-1.59,2.36-2.49.02-.22-.02-.64-.03-.81-.02-.17-.06-.34-.14-.5-.16-.34-.61-.45-.89-.25-.29.17-.5.45-.61.77-.1.35-.13.71-.09,1.01.02.14.04.27.06.4.04.11.07.21.09.3.04.17.05.28.01.31-.04.03-.13-.02-.26-.16-.07-.07-.15-.16-.23-.26-.07-.12-.14-.26-.22-.43-.15-.34-.24-.79-.19-1.34.07-.58.39-1.26,1-1.72.58-.5,1.6-.48,2.21.19.14.17.26.37.4.56.1.22.17.46.26.7.11.27.1.42.15.63.02.21.09.37.07.63.02,1-.44,1.88-.99,2.56-.56.69-1.25,1.23-1.98,1.68-2.94,1.81-6.65,1.9-9.2,1.08-2.58-.8-4.06-2.08-4.27-2.24Z"/><path class="cls-3" d="M797.89,22.56c5.08,2.49,9.55,5.98,13.75,9.53,2.1,1.78,4.15,3.57,6.27,5.22,2.11,1.66,4.31,3.13,6.66,4.17.29.13.58.29.88.4l.91.31c.6.21,1.2.43,1.87.57,1.3.29,2.59.69,3.9.9,1.31.2,2.62.51,3.94.58l1.98.18c.66.03,1.32.02,1.98.03,2.63,0,5.25-.27,7.82-.9,2.58-.6,5.08-1.52,7.77-2.37.17-.04,2.59-.7,5.09-.63.3.01.6.02.92.03.29.05.58.1.88.16.57.11,1.08.2,1.5.4.84.35,1.35.64,1.3.83-.05.19-.65.26-1.48.26-.41-.03-.89.05-1.4.1-.26.02-.52.04-.77.06-.27.06-.54.11-.79.16-2.11.42-4.21,1.3-4.4,1.35-2.54.8-5.19,1.77-7.95,2.42-2.76.69-5.63.99-8.47.98-.71-.01-1.42,0-2.13-.04l-2.12-.19c-1.42-.08-2.79-.41-4.19-.62-1.39-.23-2.73-.64-4.1-.95-.68-.14-1.37-.39-2.06-.63l-1.04-.36c-.34-.13-.66-.3-.99-.44-2.66-1.18-5.05-2.79-7.24-4.52-2.21-1.72-4.29-3.53-6.37-5.29-4.15-3.51-8.41-6.81-13.19-9.16-.09-.04-.62-.35-1.38-.8-.75-.47-1.79-.94-2.78-1.5-.24-.13-.49-.27-.74-.41-.24-.12-.49-.23-.74-.35-.48-.23-.92-.46-1.3-.67-.75-.42-1.24-.77-1.18-.96h0c.05-.19.64-.2,1.51-.1.44.05.94.13,1.49.22.28.05.56.1.84.15.29.08.57.16.85.23,1.13.34,2.31.64,3.16.99.86.34,1.47.59,1.56.64Z"/><path class="cls-3" d="M79.43,638.51c2.01.46,4.03.83,6.06,1.2l6.07,1.12,6.07,1.12c2.02.38,4.05.76,6.08,1.06l12.2,1.96,6.1.98,6.12.86c8.16,1.14,16.31,2.34,24.5,3.29l12.27,1.51c4.09.52,8.19.9,12.29,1.36,32.78,3.56,65.66,6.23,98.57,8.35,32.92,2.12,65.87,3.58,98.84,4.58,32.97,1,65.96,1.52,98.94,1.55,32.99-.03,65.97-.55,98.94-1.55,32.97-1.01,65.93-2.46,98.84-4.58,32.91-2.11,65.79-4.78,98.57-8.35,4.1-.46,8.2-.84,12.29-1.36l12.27-1.51c8.19-.94,16.34-2.15,24.5-3.29l6.12-.86,6.1-.98,12.2-1.96c2.04-.31,4.06-.68,6.08-1.06l6.07-1.12,6.07-1.12c2.03-.37,4.05-.74,6.06-1.2.57-.12,2.74-.58,6.08-1.28,1.67-.35,3.64-.76,5.85-1.22,1.1-.24,2.28-.46,3.49-.74,1.21-.29,2.47-.59,3.78-.91,10.45-2.6,23.85-6.86,35.95-13.47,2.99-1.69,5.94-3.46,8.66-5.42,2.72-1.97,5.27-4.07,7.49-6.33,2.23-2.25,4.1-4.7,5.38-7.26,1.28-2.54,1.83-5.26,1.42-7.65-.39-2.41-1.74-4.34-3.23-5.68-.18-.17-.36-.34-.54-.51-.2-.14-.39-.29-.59-.42-.39-.27-.75-.56-1.12-.8-.78-.42-1.46-.87-2.14-1.17-.66-.3-1.26-.57-1.8-.81-.52-.19-.98-.36-1.37-.5-.75-.28-1.14-.45-1.13-.5.01-.05.43.03,1.21.22.39.1.87.21,1.43.37.56.21,1.19.44,1.89.69.71.26,1.44.68,2.27,1.08.4.23.79.51,1.21.77.21.14.42.28.64.42.2.17.4.34.6.52,1.64,1.35,3.23,3.42,3.76,6.11.56,2.67.01,5.69-1.28,8.44-1.3,2.76-3.2,5.38-5.45,7.77-2.25,2.4-4.83,4.62-7.58,6.7-2.76,2.07-5.73,3.94-8.75,5.72-12.21,6.97-25.74,11.49-36.29,14.26-1.32.34-2.6.66-3.82.97-1.22.3-2.39.54-3.5.79-2.22.49-4.19.93-5.87,1.3-3.36.74-5.53,1.22-6.1,1.34-2.02.46-4.05.84-6.08,1.2l-6.1,1.13-6.1,1.13c-2.03.38-4.06.76-6.11,1.07l-12.24,1.97-6.12.98-6.14.86c-8.18,1.14-16.35,2.35-24.56,3.29l-12.29,1.51c-4.1.52-8.21.9-12.31,1.36-32.83,3.57-65.75,6.24-98.7,8.36-32.95,2.13-65.94,3.58-98.94,4.59-33,1-66.01,1.52-99.03,1.55-33.02-.03-66.03-.55-99.03-1.55-33-1.01-65.99-2.46-98.94-4.59-32.95-2.11-65.87-4.79-98.7-8.36-4.1-.46-8.21-.85-12.31-1.36l-12.29-1.51c-8.2-.95-16.38-2.15-24.56-3.29l-6.14-.86-6.12-.98-12.24-1.97c-2.04-.31-4.07-.69-6.11-1.07l-6.1-1.13-6.1-1.13c-2.03-.37-4.06-.75-6.08-1.2-.58-.13-2.74-.6-6.1-1.34-1.68-.37-3.65-.81-5.87-1.3-1.11-.25-2.28-.49-3.5-.79-1.22-.31-2.5-.64-3.82-.97-10.55-2.78-24.08-7.29-36.29-14.26-3.02-1.78-5.99-3.64-8.75-5.72-2.75-2.08-5.33-4.3-7.58-6.7-2.25-2.39-4.15-5-5.45-7.77-1.3-2.75-1.84-5.77-1.28-8.44.53-2.69,2.12-4.76,3.76-6.11.2-.18.4-.35.6-.52.22-.14.43-.28.64-.42.42-.27.81-.55,1.21-.77.83-.39,1.56-.81,2.27-1.08.7-.25,1.33-.49,1.89-.69.56-.16,1.04-.27,1.43-.37.78-.19,1.2-.27,1.21-.22s-.38.22-1.13.5c-.4.14-.85.31-1.37.5-.54.24-1.14.51-1.8.81-.67.3-1.36.75-2.14,1.17-.37.24-.73.52-1.12.8-.19.14-.39.28-.59.42-.18.17-.36.34-.54.51-1.49,1.34-2.84,3.28-3.23,5.68-.42,2.39.14,5.11,1.42,7.65,1.28,2.55,3.15,5,5.38,7.26,2.22,2.26,4.77,4.36,7.49,6.33,2.73,1.97,5.67,3.73,8.66,5.42,12.1,6.61,25.5,10.87,35.95,13.47,1.31.32,2.58.62,3.78.91,1.21.28,2.39.51,3.49.74,2.21.46,4.18.87,5.85,1.22,3.35.7,5.51,1.16,6.08,1.28Z"/><path class="cls-3" d="M107.88,621.81c-2.81,3.41-6.55,5.87-10.47,7.54-3.89,1.67-8,2.94-12.26,3.41-1.06.15-2.14.18-3.21.24-1.07-.01-2.15.02-3.22-.09-2.14-.14-4.28-.49-6.35-1.06-4.16-1.1-8.06-3.04-11.56-5.45-7.01-4.89-12.42-11.56-16.86-18.62-4.41-7.11-7.89-14.73-10.74-22.54-5.66-15.64-9.03-32.02-10.44-48.55-.33-4.14-.53-8.29-.57-12.45-.02-4.17.13-8.31.37-12.44.52-8.27,1.39-16.57,3.53-24.71.08-.29.59-2.18,1.6-4.78,1.01-2.58,2.54-5.93,4.95-8.72,1.2-1.38,2.65-2.6,4.26-3.34,1.61-.73,3.33-.88,4.68-.63,1.37.25,2.37.81,2.99,1.27.63.45.91.8.86.87-.06.09-.45-.1-1.13-.36-.67-.27-1.65-.61-2.85-.67-1.19-.05-2.56.22-3.83.95-1.27.74-2.44,1.87-3.41,3.19-1.96,2.63-3.22,5.84-4.04,8.34-.83,2.51-1.24,4.35-1.31,4.62-2.06,7.81-2.93,15.99-3.44,24.14-.24,4.08-.38,8.18-.36,12.25.04,4.08.23,8.16.56,12.23,1.39,16.28,4.72,32.46,10.28,47.81,2.8,7.66,6.2,15.11,10.48,22,4.3,6.84,9.51,13.22,16.06,17.79,3.27,2.26,6.86,4.04,10.67,5.04,1.9.53,3.85.84,5.81.97.98.1,1.97.07,2.95.08.98-.06,1.97-.08,2.95-.22,3.93-.43,7.78-1.61,11.45-3.19,3.64-1.55,6.96-3.76,9.41-6.73.16-.21,1.4-1.54,2.57-3.79,1.19-2.23,2.15-5.47,2.2-8.79.08-3.3-.63-6.66-1.84-8.73-.31-.51-.64-.93-.92-1.11-.31-.24-.71-.24-.96-.07-.48.32-.66.77-.77.71-.05-.02-.05-.13-.01-.35.06-.21.16-.56.48-.88.16-.15.38-.3.65-.35.27-.05.58,0,.88.11.3.12.63.34.87.56.25.22.47.47.69.74,1.69,2.19,2.76,5.71,2.95,9.33.22,3.63-.63,7.35-1.85,9.97-1.2,2.64-2.55,4.23-2.74,4.47Z"/><path class="cls-3" d="M83.19,568.42c3.14,2.58,5.02,6.13,6.33,9.67.3.9.63,1.78.82,2.74.22.94.5,1.87.57,2.84.11.96.27,1.92.23,2.89,0,.97.04,1.94-.11,2.89-.74,7.73-5.19,14.84-11.54,19.16-3.17,2.18-6.85,3.65-10.69,4.18-3.83.55-7.8.12-11.43-1.15-.89-.37-1.81-.66-2.67-1.09l-2.54-1.35-2.36-1.62c-.79-.54-1.46-1.21-2.2-1.81-2.83-2.52-5.3-5.41-7.32-8.55-4.15-6.24-7.01-13.16-9.16-20.21-2.11-7.09-3.62-14.23-5-21.43-1.33-7.2-2.36-14.48-2.79-21.84-.25-3.67-.25-7.37-.09-11.08.17-3.7.65-7.42,1.61-11.09.03-.13.2-.62.45-1.37.22-.75.65-1.75,1.16-2.9.29-.57.63-1.17.97-1.8.42-.6.8-1.26,1.33-1.86.96-1.25,2.33-2.39,3.94-3.09,1.61-.7,3.49-.78,5.01-.24,1.54.51,2.68,1.5,3.43,2.44,1.53,1.91,1.65,3.56,1.53,3.58-.23.1-.75-1.38-2.34-2.82-.77-.72-1.83-1.41-3.05-1.67-1.22-.27-2.56-.08-3.72.54-1.16.63-2.18,1.58-2.91,2.7-.4.52-.69,1.13-1.02,1.65-.26.58-.52,1.12-.75,1.63-.39,1.07-.73,1.97-.9,2.68-.19.7-.33,1.14-.36,1.26-.89,3.38-1.35,6.93-1.51,10.5-.15,3.57-.16,7.16.09,10.76.42,7.19,1.43,14.37,2.75,21.48,1.35,7.11,2.87,14.24,4.92,21.11,2.09,6.86,4.87,13.55,8.8,19.46,1.92,2.98,4.24,5.67,6.84,7.99.68.55,1.3,1.17,2.02,1.66l2.14,1.47,2.28,1.22c.77.39,1.59.64,2.38.97,3.23,1.13,6.71,1.5,10.09,1.02,3.38-.47,6.65-1.76,9.48-3.71,5.68-3.87,9.66-10.26,10.3-17.08.14-.85.1-1.7.1-2.56.04-.86-.11-1.7-.21-2.55-.05-.86-.32-1.68-.51-2.51-.17-.83-.47-1.66-.75-2.49-1.19-3.25-2.91-6.35-5.45-8.42-.17-.14-1.31-1.21-3.29-1.96-1.94-.76-4.93-.9-7.39.34-1.2.57-2.29,1.59-2.36,2.49-.02.22.02.64.03.81.02.17.06.34.14.5.16.34.61.45.89.25.29-.17.5-.45.61-.77.1-.35.13-.71.09-1.01-.02-.14-.04-.27-.06-.4-.04-.11-.07-.21-.09-.3-.04-.17-.05-.28-.01-.31.04-.03.13.02.26.16.07.07.15.16.23.26.07.12.14.26.22.43.15.34.24.79.19,1.34-.07.58-.39,1.26-1,1.72-.58.5-1.6.48-2.21-.19-.14-.17-.26-.37-.4-.56-.1-.22-.17-.46-.26-.7-.11-.27-.1-.42-.15-.63-.02-.21-.09-.37-.07-.63-.02-1,.44-1.88.99-2.56.56-.69,1.25-1.23,1.98-1.68,2.94-1.81,6.65-1.9,9.2-1.08,2.58.8,4.06,2.08,4.27,2.24Z"/><path class="cls-3" d="M149.22,650.44c-5.08-2.49-9.55-5.98-13.75-9.53-2.1-1.78-4.15-3.57-6.27-5.22-2.11-1.66-4.31-3.13-6.66-4.17-.29-.13-.58-.29-.88-.4l-.91-.31c-.6-.21-1.2-.43-1.87-.57-1.3-.29-2.59-.69-3.9-.9-1.31-.2-2.62-.51-3.94-.58l-1.98-.18c-.66-.03-1.32-.02-1.98-.03-2.63,0-5.25.27-7.82.9-2.58.6-5.08,1.52-7.77,2.37-.17.04-2.59.7-5.09.63-.3-.01-.6-.02-.92-.03-.29-.05-.58-.1-.88-.16-.57-.11-1.08-.2-1.5-.4-.84-.35-1.35-.64-1.3-.83s.65-.26,1.48-.26c.41.03.89-.05,1.4-.1.26-.02.52-.04.77-.06.27-.06.54-.11.79-.16,2.11-.42,4.21-1.3,4.4-1.35,2.54-.8,5.19-1.77,7.95-2.42,2.76-.69,5.63-.99,8.47-.98.71.01,1.42,0,2.13.04l2.12.19c1.42.08,2.79.41,4.19.62,1.39.23,2.73.64,4.1.95.68.14,1.37.39,2.06.63l1.04.36c.34.13.66.3.99.44,2.66,1.18,5.05,2.79,7.24,4.52,2.21,1.72,4.29,3.53,6.37,5.29,4.15,3.51,8.41,6.81,13.19,9.16.09.04.62.35,1.38.8.75.47,1.79.94,2.78,1.5.24.13.49.27.74.41.24.12.49.23.74.35.48.23.92.46,1.3.67.75.42,1.24.77,1.18.96-.05.19-.64.2-1.51.1-.44-.05-.94-.13-1.49-.22-.28-.05-.56-.1-.84-.15-.29-.08-.57-.16-.85-.23-1.13-.34-2.31-.64-3.16-.99-.86-.34-1.47-.59-1.56-.64Z"/><path class="cls-3" d="M841.44,619.99c2.45,2.97,5.77,5.19,9.41,6.73,3.67,1.58,7.52,2.76,11.45,3.19.98.14,1.97.16,2.95.22.98-.01,1.97.02,2.95-.08,1.96-.13,3.91-.44,5.81-.97,3.81-1.01,7.4-2.79,10.67-5.04,6.55-4.56,11.77-10.94,16.06-17.79,4.28-6.89,7.68-14.34,10.48-22,5.56-15.35,8.89-31.53,10.28-47.81.33-4.07.52-8.16.56-12.23.02-4.07-.12-8.17-.36-12.25-.51-8.15-1.38-16.32-3.44-24.14-.08-.28-.49-2.12-1.31-4.62-.82-2.5-2.08-5.7-4.04-8.34-.97-1.31-2.14-2.45-3.41-3.19-1.28-.73-2.65-1-3.83-.95-1.19.06-2.18.4-2.85.67-.68.27-1.07.45-1.13.36-.05-.07.23-.41.86-.87.62-.45,1.62-1.01,2.99-1.27,1.35-.25,3.07-.1,4.68.63,1.6.74,3.06,1.95,4.26,3.34,2.41,2.79,3.94,6.13,4.95,8.72,1.01,2.6,1.52,4.49,1.6,4.78,2.14,8.13,3.01,16.44,3.53,24.71.24,4.14.39,8.28.37,12.44-.04,4.16-.24,8.31-.57,12.45-1.41,16.54-4.78,32.92-10.44,48.55-2.85,7.81-6.33,15.42-10.74,22.54-4.44,7.06-9.85,13.73-16.86,18.62-3.5,2.42-7.4,4.36-11.56,5.45-2.07.58-4.21.92-6.35,1.06-1.07.1-2.15.07-3.22.09-1.07-.07-2.15-.09-3.21-.24-4.27-.47-8.38-1.74-12.26-3.41-3.92-1.67-7.67-4.13-10.47-7.54-.18-.24-1.54-1.83-2.74-4.47-1.22-2.62-2.07-6.33-1.85-9.97.19-3.62,1.26-7.14,2.95-9.33.22-.27.44-.52.69-.74.24-.22.56-.45.87-.56.31-.12.61-.17.88-.11.27.06.49.2.65.35.32.32.42.68.48.88.04.21.03.33-.01.35-.11.05-.29-.39-.77-.71-.25-.16-.65-.17-.96.07-.27.18-.61.6-.92,1.11-1.21,2.07-1.93,5.43-1.84,8.73.05,3.32,1.01,6.56,2.2,8.79,1.17,2.25,2.41,3.58,2.57,3.79Z"/><path class="cls-3" d="M865.73,570.63c-2.54,2.07-4.25,5.17-5.45,8.42-.27.83-.58,1.66-.75,2.49-.19.83-.45,1.66-.51,2.51-.09.85-.25,1.69-.21,2.55,0,.85-.04,1.71.1,2.56.64,6.82,4.62,13.21,10.3,17.08,2.83,1.95,6.1,3.25,9.48,3.71,3.38.48,6.86.11,10.09-1.02.79-.33,1.61-.59,2.38-.97l2.28-1.22,2.14-1.47c.72-.49,1.34-1.11,2.02-1.66,2.6-2.32,4.92-5.01,6.84-7.99,3.93-5.91,6.71-12.59,8.8-19.46,2.05-6.87,3.56-14,4.92-21.11,1.32-7.12,2.33-14.29,2.75-21.48.25-3.59.25-7.19.09-10.76-.17-3.57-.63-7.11-1.51-10.5-.02-.12-.16-.57-.36-1.26-.17-.71-.51-1.61-.9-2.68-.23-.51-.48-1.05-.75-1.63-.33-.52-.62-1.13-1.02-1.65-.74-1.12-1.76-2.07-2.91-2.7-1.16-.63-2.5-.82-3.72-.54-1.23.26-2.28.95-3.05,1.67-1.59,1.44-2.1,2.93-2.34,2.82-.12-.02,0-1.67,1.53-3.58.75-.94,1.89-1.93,3.43-2.44,1.52-.53,3.4-.46,5.01.24,1.6.69,2.97,1.84,3.94,3.09.53.6.9,1.26,1.33,1.86.34.63.68,1.23.97,1.8.51,1.16.94,2.15,1.16,2.9.25.75.42,1.23.45,1.37.96,3.66,1.43,7.39,1.61,11.09.16,3.7.16,7.4-.09,11.08-.43,7.35-1.46,14.63-2.79,21.84-1.37,7.2-2.88,14.34-5,21.43-2.15,7.05-5.01,13.97-9.16,20.21-2.02,3.14-4.5,6.03-7.33,8.55-.74.6-1.41,1.27-2.2,1.81l-2.36,1.62-2.54,1.35c-.86.43-1.78.73-2.67,1.09-3.64,1.27-7.6,1.7-11.43,1.15-3.84-.53-7.52-2-10.69-4.18-6.35-4.33-10.8-11.44-11.54-19.16-.15-.96-.11-1.93-.11-2.89-.04-.97.13-1.93.23-2.89.07-.97.35-1.9.57-2.84.2-.95.53-1.84.82-2.74,1.31-3.54,3.19-7.09,6.33-9.67.21-.17,1.69-1.44,4.27-2.24,2.55-.81,6.26-.73,9.2,1.08.73.45,1.42.99,1.98,1.68.55.68,1.01,1.55.99,2.56.01.26-.05.42-.07.63-.05.21-.03.36-.15.63-.09.24-.16.48-.26.7-.14.19-.26.39-.4.56-.61.67-1.63.68-2.21.19-.6-.46-.93-1.14-1-1.72-.06-.55.04-1.01.19-1.34.08-.17.15-.31.22-.43.09-.11.17-.2.23-.26.13-.13.22-.19.26-.16.04.03.03.14-.01.31-.02.08-.05.18-.09.3-.02.13-.04.26-.06.4-.04.29-.02.65.09,1.01.11.32.32.6.61.77.28.2.73.08.89-.25.08-.16.12-.33.14-.5.01-.17.05-.59.03-.81-.08-.9-1.17-1.92-2.36-2.49-2.47-1.24-5.45-1.1-7.39-.34-1.98.75-3.12,1.82-3.29,1.96Z"/><path class="cls-3" d="M796.61,647.89c4.79-2.34,9.04-5.65,13.19-9.16,2.08-1.76,4.16-3.57,6.37-5.29,2.2-1.72,4.59-3.34,7.24-4.52.33-.15.65-.32.99-.44l1.04-.36c.69-.24,1.38-.49,2.06-.63,1.37-.31,2.71-.72,4.1-.95,1.39-.21,2.77-.54,4.19-.62l2.12-.19c.71-.03,1.42-.02,2.13-.04,2.84,0,5.71.29,8.47.98,2.77.64,5.41,1.62,7.95,2.42.19.05,2.29.93,4.4,1.35.26.05.52.11.79.16.25.02.51.04.77.06.51.05.99.12,1.4.1.83,0,1.43.07,1.48.26s-.45.49-1.3.83c-.42.2-.93.29-1.5.4-.3.05-.59.11-.88.16-.31.01-.62.02-.92.03-2.5.07-4.92-.59-5.09-.63-2.69-.84-5.19-1.77-7.77-2.37-2.56-.64-5.18-.91-7.82-.9-.66.01-1.32,0-1.98.03l-1.98.18c-1.32.07-2.63.39-3.94.58-1.31.21-2.6.61-3.9.9-.67.14-1.26.36-1.87.57l-.91.31c-.3.11-.59.27-.88.4-2.36,1.04-4.56,2.51-6.66,4.17-2.12,1.65-4.17,3.43-6.27,5.22-4.2,3.55-8.68,7.04-13.75,9.53-.09.04-.7.3-1.56.64-.85.36-2.03.66-3.16.99-.27.08-.56.15-.85.23-.27.05-.55.1-.84.15-.54.09-1.05.17-1.49.22-.87.1-1.46.09-1.51-.1-.05-.19.43-.54,1.18-.96.38-.21.82-.44,1.3-.67.25-.12.5-.24.74-.35.25-.14.5-.28.74-.41.99-.56,2.03-1.03,2.78-1.5.76-.45,1.29-.76,1.38-.8Z"/></g><rect id="Window_5_Shape" class="cls-2" x="43.59" y="16.38" width="859.94" height="640.25" rx="231.05" ry="231.05"/></g></svg>