<?xml version="1.0" encoding="UTF-8"?><svg id="Line" xmlns="http://www.w3.org/2000/svg" viewBox="0 0 1004.68 756.42"><defs><style>.cls-1{fill:none;stroke:#fff;stroke-miterlimit:10;stroke-width:3px;}.cls-2{opacity:.24;}.cls-2,.cls-3{fill:#fff;stroke-width:0px;}</style></defs><g id="Window_1"><g id="Window_1_Lines"><path class="cls-1" d="M952.21,702.99H52.47V76.01c23.9,0,63.27-19.39,63.27-43.31h773.2c0,23.92,39.37,43.31,63.27,43.31v626.98Z"/><path class="cls-3" d="M33.13,70.72c-2.6,1.93-5.07,4.05-7.26,6.38-2.16,2.33-4.13,4.92-5.13,7.74-.49,1.4-.71,2.83-.45,4.15.22,1.33.96,2.5,1.97,3.51,2.08,2.01,5.14,3.19,8.18,4.05,6.2,1.64,12.8,2.07,19.35,2.21,3.28.08,6.57,0,9.87-.16,3.29-.14,6.59-.24,9.88-.41,13.16-.94,26.25-2.68,39.21-5.14,12.93-2.63,25.71-5.97,38.27-10.03l9.37-3.19,9.25-3.53c6.11-2.47,12.2-5.03,18.14-7.88,11.91-5.65,23.48-12.05,34.3-19.53,1.38-.89,2.68-1.9,3.99-2.88l3.93-2.96c2.53-2.07,5.05-4.16,7.33-6.47,2.29-2.29,4.47-4.71,6.27-7.34,1.8-2.62,3.25-5.49,3.84-8.47.33-1.48.36-2.99.14-4.44-.08-.73-.32-1.43-.53-2.13-.3-.67-.57-1.35-.99-1.97-.78-1.25-1.77-2.4-2.97-3.36-1.18-.97-2.48-1.83-3.89-2.51-2.79-1.43-5.89-2.31-9.04-2.87-3.15-.57-6.37-.71-9.6-.59-.46.03-3.49.08-7.74.65-4.25.57-9.73,1.69-14.92,3.48-2.59.9-5.13,1.94-7.28,3.21-1.06.64-2.06,1.35-2.69,2.14-.66.83-.59,1.46.18,2.01.72.53,1.62.82,2.39,1.05.79.22,1.49.37,2.07.49,1.17.23,1.85.36,1.84.46,0,.09-.69.16-1.91.11-.61-.03-1.34-.09-2.19-.23-.84-.16-1.81-.35-2.83-.96-.49-.3-1.06-.81-1.22-1.62-.14-.81.18-1.55.56-2.09.78-1.12,1.83-1.93,2.94-2.7,2.24-1.5,4.81-2.7,7.44-3.76,5.28-2.09,10.85-3.46,15.23-4.19,4.38-.74,7.54-.88,8.02-.91,3.39-.13,6.83.02,10.21.63,3.37.6,6.72,1.54,9.83,3.14,1.57.77,3.06,1.73,4.43,2.87,1.39,1.12,2.6,2.5,3.57,4.06.51.76.87,1.62,1.23,2.47.28.88.57,1.76.68,2.68.28,1.82.23,3.68-.16,5.43-.7,3.54-2.35,6.7-4.28,9.53-1.95,2.84-4.23,5.37-6.62,7.75-2.38,2.41-4.97,4.56-7.56,6.68l-4.01,3.02c-1.34,1-2.66,2.03-4.06,2.93-10.99,7.6-22.69,14.07-34.71,19.77-6,2.89-12.14,5.46-18.31,7.96l-9.33,3.56-9.45,3.22c-12.66,4.1-25.56,7.47-38.61,10.12-13.08,2.48-26.29,4.24-39.58,5.19-3.32.17-6.65.27-9.98.41-3.32.15-6.66.24-10,.16-6.68-.15-13.42-.57-20.05-2.32-3.28-.95-6.66-2.15-9.42-4.76-1.33-1.31-2.45-3.07-2.78-5.03-.38-1.96-.04-3.9.56-5.62,1.25-3.45,3.43-6.23,5.74-8.74,2.34-2.5,4.93-4.72,7.65-6.73.3-.21,1.82-1.34,4.24-2.81,2.42-1.46,5.71-3.31,9.65-4.69.99-.34,2.02-.65,3.11-.86,1.08-.2,2.28-.37,3.52-.13,1.09.2,2.2.45,3.33,1.04.29.2.56.32.85.63.28.26.55.65.65,1.06.06.21.1.42.08.63,0,.22-.03.42-.1.63-.05.22-.14.38-.22.53-.08.16-.17.31-.27.43-.78,1.04-1.71,1.6-2.61,2.14-.91.52-1.84.92-2.76,1.25-.92.32-1.84.56-2.77.65-.47.03-.92.08-1.52-.07-.14-.03-.27-.08-.39-.15-.13-.05-.25-.12-.34-.22-.11-.08-.19-.18-.25-.31-.07-.11-.13-.22-.17-.35-.39-1.4.2-2.34.73-3.01.55-.67,1.15-1.09,1.64-1.41,1-.62,1.64-.8,1.68-.72.05.09-.51.44-1.35,1.17-.41.37-.91.84-1.31,1.45-.21.3-.36.65-.46,1.01-.02.18-.07.37-.04.55,0,.18.04.31.09.45.06.24.3.37.54.39.19.03.6,0,.98-.06.77-.14,1.6-.41,2.42-.75.82-.35,1.65-.77,2.44-1.28.76-.51,1.56-1.11,1.98-1.77.21-.36.26-.51.18-.68-.03-.15-.25-.3-.61-.51-.76-.35-1.74-.56-2.73-.69-.85-.13-1.78.03-2.73.24-.94.22-1.87.54-2.77.89-3.61,1.43-6.74,3.31-9.01,4.78-2.27,1.48-3.7,2.6-3.99,2.81Z"/><path class="cls-3" d="M132.05,42.29c.39-1.11,1-2.05,1.7-2.84.7-.8,1.47-1.5,2.3-2.09,1.65-1.2,3.44-2.08,5.28-2.76,3.68-1.35,7.51-1.98,11.31-2.26,3.81-.22,7.61-.27,11.48.36l1.45.26,1.44.39c.48.11.96.3,1.44.49.48.19.96.35,1.41.63.93.47,1.84,1.09,2.62,1.9.37.43.78.82,1.04,1.36l.42.76c.12.26.19.55.28.83.68,2.27.18,4.52-.59,6.39-.79,1.88-1.82,3.59-3.02,5.12-2.34,3.11-5.13,5.73-8.02,8.19-5.8,4.89-12.17,8.95-18.73,12.61-3.29,1.82-6.64,3.51-10.03,5.12-3.41,1.53-6.78,3.15-10.24,4.58-6.86,2.99-13.84,5.67-20.91,8.14-7.06,2.49-14.24,4.63-21.5,6.47-7.27,1.82-14.63,3.33-22.1,4.22-.53.04-6.99.69-13.34.39-3.17-.09-6.3-.52-8.6-.94-2.29-.52-3.78-.94-3.74-1.13s1.59-.14,3.88.03c2.3.08,5.37.19,8.47.02,6.2-.22,12.48-1.17,13-1.21,7.32-.87,14.57-2.36,21.75-4.16,7.17-1.81,14.27-3.93,21.26-6.39,6.99-2.44,13.92-5.1,20.71-8.06,3.43-1.42,6.77-3.02,10.15-4.54,3.33-1.59,6.63-3.25,9.86-5.04,6.43-3.59,12.68-7.58,18.27-12.3,2.77-2.36,5.44-4.89,7.58-7.73,1.11-1.4,2-2.92,2.65-4.46.64-1.54.92-3.16.5-4.49-.38-1.33-1.49-2.41-2.95-3.14-1.46-.71-3.13-1.24-4.89-1.48-3.49-.58-7.18-.54-10.8-.33-3.61.27-7.2.87-10.52,2.09-1.65.61-3.23,1.39-4.59,2.39-1.35.98-2.53,2.23-2.99,3.56-.02.15-.7,1.53.41,2.62.54.56,1.67.94,2.97.96.63,0,1.4-.05,2.14-.14.75-.08,1.5-.18,2.22-.32l.48-.08c.13-.03.28-.07.43-.14.14-.06.32-.17.32-.34-.02-.15-.14-.24-.26-.31-.12-.07-.26-.13-.41-.18l-.23-.07c-.09-.02-.13-.04-.31-.07-.6-.11-1.23-.18-1.79-.23-2.27-.19-3.82-.15-3.84-.36-.02-.18,1.48-.6,3.85-.75.6-.03,1.23-.05,1.95,0,.83.07,2.08.25,2.81.74.38.24.7.53.83.99.1.5-.11.91-.39,1.24-.26.35-.73.64-1.25.91-.29.11-.56.26-.87.35l-.45.15-.39.12c-.8.23-1.6.4-2.39.55-.79.15-1.55.26-2.41.32-1.66.08-3.45-.25-4.75-1.35-.63-.54-1.13-1.22-1.36-1.9-.27-.68-.32-1.31-.33-1.84.04-1.04.27-1.64.32-1.79Z"/><path class="cls-3" d="M38.88,617.81V164.52c0-2.7.64-64.97,1.43-64.97s1.43,62.27,1.43,64.97v453.29c0,2.7-.64,64.97-1.43,64.97s-1.43-62.27-1.43-64.97Z"/><path class="cls-3" d="M973.25,68.42c2.72,2.02,5.3,4.23,7.65,6.73,2.31,2.52,4.49,5.29,5.74,8.74.6,1.72.93,3.66.56,5.62-.32,1.96-1.45,3.72-2.78,5.03-2.76,2.61-6.14,3.81-9.42,4.76-6.64,1.75-13.38,2.16-20.05,2.32-3.35.08-6.68,0-10-.16-3.33-.14-6.66-.24-9.98-.41-13.29-.95-26.5-2.71-39.58-5.19-13.05-2.65-25.94-6.02-38.61-10.12l-9.45-3.22-9.33-3.56c-6.17-2.49-12.31-5.07-18.31-7.96-12.03-5.7-23.72-12.17-34.71-19.77-1.4-.91-2.72-1.93-4.06-2.93l-4.01-3.02c-2.6-2.13-5.19-4.27-7.56-6.68-2.39-2.39-4.67-4.92-6.62-7.75-1.93-2.83-3.58-5.99-4.28-9.53-.38-1.75-.44-3.62-.16-5.43.11-.92.4-1.8.68-2.68.37-.85.72-1.7,1.23-2.47.97-1.55,2.18-2.94,3.57-4.06,1.37-1.13,2.86-2.1,4.43-2.87,3.12-1.59,6.47-2.53,9.83-3.14,3.37-.61,6.81-.76,10.21-.63.48.03,3.64.16,8.02.91,4.37.73,9.95,2.1,15.23,4.19,2.63,1.05,5.2,2.26,7.44,3.76,1.11.77,2.16,1.57,2.94,2.7.37.55.7,1.29.56,2.09-.16.81-.74,1.32-1.22,1.62-1.02.61-1.99.79-2.83.96-.85.14-1.59.2-2.19.23-1.21.05-1.9-.02-1.91-.11,0-.1.67-.23,1.84-.46.58-.12,1.29-.27,2.07-.49.77-.23,1.67-.52,2.39-1.05.77-.55.84-1.18.18-2.01-.63-.8-1.63-1.5-2.69-2.14-2.15-1.27-4.7-2.31-7.28-3.21-5.2-1.79-10.68-2.91-14.92-3.48-4.25-.58-7.28-.62-7.74-.65-3.22-.12-6.44.02-9.6.59-3.14.56-6.25,1.44-9.04,2.87-1.41.69-2.71,1.54-3.89,2.51-1.2.96-2.19,2.11-2.97,3.36-.42.61-.69,1.3-.99,1.97-.21.7-.45,1.39-.53,2.13-.22,1.45-.19,2.95.14,4.44.58,2.98,2.04,5.84,3.84,8.47,1.81,2.63,3.98,5.05,6.27,7.34,2.28,2.31,4.8,4.4,7.33,6.47l3.93,2.96c1.31.98,2.61,1.99,3.99,2.88,10.82,7.48,22.39,13.88,34.3,19.53,5.94,2.86,12.03,5.41,18.14,7.88l9.25,3.53,9.37,3.19c12.55,4.06,25.34,7.41,38.27,10.03,12.96,2.46,26.05,4.2,39.21,5.14,3.29.17,6.59.27,9.88.41,3.3.15,6.59.24,9.87.16,6.55-.14,13.15-.58,19.35-2.21,3.04-.86,6.1-2.04,8.18-4.05,1-1.01,1.75-2.19,1.96-3.51.26-1.32.04-2.75-.45-4.15-1-2.81-2.97-5.4-5.13-7.74-2.19-2.34-4.65-4.46-7.26-6.38-.38-.26-2.76-2.14-6.43-4.33-1.84-1.08-4-2.24-6.38-3.19-1.18-.47-2.43-.88-3.67-1.11-.61-.1-1.24-.18-1.77-.12-.63.07-1.29.19-1.9.33-.59.16-1.18.4-1.48.64-.25.22-.31.37-.13.73.2.41.63.86,1.1,1.24.47.38.98.74,1.51,1.05,1.06.62,2.17,1.12,3.24,1.44.53.16,1.06.29,1.55.33.27.02.41.02.57,0,.15-.03.32-.08.41-.22.33-.48.19-1.42-.22-2.04-.4-.65-.91-1.15-1.34-1.54-.88-.77-1.46-1.14-1.42-1.23.04-.08.72.11,1.76.77.51.34,1.13.79,1.69,1.52.27.37.54.81.65,1.36.08.28.08.54.07.9-.02.17-.08.32-.11.49-.03.17-.09.33-.19.48-.34.62-1.32.75-1.92.74-.63,0-1.23-.11-1.85-.25-1.22-.28-2.44-.74-3.66-1.36-.61-.31-1.21-.67-1.8-1.1-.58-.44-1.18-.92-1.64-1.72-.24-.36-.41-1-.36-1.55.08-.55.39-1.12.78-1.44.75-.67,1.5-.92,2.23-1.18.74-.22,1.44-.37,2.2-.49.85-.13,1.62-.05,2.37.04,1.49.21,2.86.62,4.16,1.07,2.59.92,4.89,2.06,6.85,3.12,3.91,2.15,6.44,4.04,6.83,4.32Z"/><path class="cls-3" d="M869.93,43.22c-.46-1.33-1.64-2.58-2.99-3.56-1.36-.99-2.94-1.78-4.59-2.39-3.32-1.22-6.91-1.82-10.52-2.09-3.62-.21-7.31-.25-10.8.33-1.76.24-3.43.76-4.89,1.48-1.46.73-2.56,1.81-2.95,3.14-.42,1.33-.14,2.95.5,4.49.65,1.54,1.55,3.06,2.65,4.46,2.14,2.85,4.81,5.37,7.58,7.73,5.59,4.72,11.84,8.7,18.27,12.3,3.23,1.79,6.53,3.44,9.86,5.04,3.38,1.52,6.72,3.12,10.15,4.54,6.8,2.96,13.72,5.62,20.71,8.06,6.99,2.47,14.09,4.58,21.26,6.39,7.17,1.8,14.43,3.29,21.75,4.16.52.04,6.8.99,13,1.21,3.1.16,6.17.05,8.47-.02,2.29-.18,3.84-.23,3.88-.03.04.19-1.44.61-3.74,1.13-2.3.42-5.43.85-8.6.94-6.35.3-12.81-.35-13.34-.39-7.47-.89-14.84-2.4-22.1-4.22-7.26-1.84-14.45-3.98-21.5-6.47-7.06-2.47-14.05-5.15-20.91-8.14-3.46-1.43-6.83-3.05-10.24-4.58-3.39-1.62-6.74-3.3-10.03-5.12-6.56-3.66-12.93-7.72-18.73-12.61-2.88-2.46-5.67-5.08-8.02-8.19-1.2-1.52-2.23-3.23-3.02-5.12-.76-1.86-1.26-4.12-.59-6.39.09-.28.16-.56.28-.83l.42-.76c.26-.54.67-.93,1.04-1.36.78-.81,1.69-1.43,2.62-1.9.46-.28.94-.44,1.41-.63.48-.19.95-.38,1.43-.49l1.44-.39,1.45-.26c3.87-.63,7.67-.58,11.48-.36,3.8.29,7.63.91,11.31,2.26,1.83.68,3.63,1.56,5.28,2.76.83.59,1.6,1.29,2.3,2.09.7.8,1.31,1.73,1.7,2.84.05.16.27.76.32,1.79-.01.52-.06,1.16-.33,1.84-.23.69-.73,1.36-1.36,1.9-1.3,1.1-3.09,1.43-4.75,1.35-.86-.06-1.62-.18-2.41-.32-.79-.14-1.59-.31-2.39-.55l-.39-.12-.45-.15c-.3-.09-.58-.24-.87-.35-.52-.27-.98-.56-1.25-.91-.28-.33-.49-.74-.39-1.24.13-.46.45-.75.83-.99.73-.49,1.98-.67,2.81-.74.72-.05,1.35-.03,1.95,0,2.37.15,3.87.57,3.85.75-.02.21-1.57.17-3.84.36-.56.05-1.18.12-1.79.23-.18.03-.22.05-.31.07l-.23.07c-.15.05-.29.11-.41.18-.12.07-.24.16-.26.31,0,.16.18.27.32.34.15.07.3.11.43.14l.48.08c.72.15,1.47.25,2.22.32.74.08,1.51.13,2.14.14,1.3-.03,2.42-.4,2.97-.96,1.11-1.09.42-2.47.41-2.62Z"/><path class="cls-3" d="M962.95,617.81V164.52c0-2.7.64-64.97,1.43-64.97s1.43,62.27,1.43,64.97v453.29c0,2.7-.64,64.97-1.43,64.97s-1.43-62.27-1.43-64.97Z"/><path class="cls-3" d="M690.86,645.56c13.41-.38,26.83.33,40.16,1.72l5,.55c1.67.18,3.33.35,4.99.64l9.94,1.54,2.48.39,2.46.5,4.93,1,4.93,1,2.46.5,2.44.61c6.48,1.7,13.04,3.14,19.4,5.27l9.61,2.97,9.51,3.04c6.31,2.12,12.74,3.86,19.14,5.69,3.19.96,6.43,1.7,9.66,2.52,3.23.79,6.44,1.66,9.69,2.37,6.51,1.36,12.99,2.89,19.56,3.95l4.91.87,2.46.44,2.47.35,9.88,1.38c13.2,1.56,26.48,2.48,39.75,2.34,13.26-.15,26.55-1.34,39.42-4.32,3.2-.81,6.44-1.5,9.54-2.61,1.56-.52,3.15-.98,4.69-1.55l4.56-1.87c3.06-1.21,5.96-2.74,8.67-4.47,2.69-1.74,5.19-3.82,6.86-6.33.05-.09.17-.31.36-.64.19-.33.46-.76.64-1.33.45-1.1.83-2.71.38-4.56-.42-1.84-1.63-3.86-3.41-5.63-1.8-1.76-4.07-3.31-6.49-4.58-4.85-2.55-10.23-3.96-14.28-4.56-4.06-.64-6.82-.52-6.83-.76-.02-.15,2.75-.66,6.96-.34,4.19.28,9.81,1.41,15.05,3.85,2.61,1.22,5.13,2.77,7.23,4.67,2.08,1.91,3.69,4.28,4.33,6.72.68,2.44.24,4.71-.31,6.15-.23.76-.55,1.31-.77,1.73-.22.42-.37.7-.44.81-2.05,3.07-4.83,5.3-7.71,7.19-2.9,1.86-5.94,3.45-9.09,4.7l-4.71,1.92c-1.59.59-3.21,1.06-4.81,1.59-3.19,1.13-6.49,1.84-9.76,2.67-13.15,3.04-26.61,4.24-40.03,4.4-13.43.14-26.83-.78-40.14-2.36l-9.95-1.39-2.49-.35-2.47-.44-4.95-.88c-6.62-1.07-13.14-2.6-19.69-3.98-3.27-.72-6.5-1.6-9.75-2.39-3.24-.83-6.51-1.57-9.71-2.54-6.43-1.85-12.9-3.6-19.24-5.72l-9.56-3.06-9.52-2.94c-6.31-2.11-12.81-3.53-19.23-5.22l-2.42-.61-2.44-.5-4.88-.99-4.88-.99-2.44-.5-2.46-.38-9.85-1.53c-1.64-.29-3.29-.45-4.94-.63l-4.95-.55c-13.21-1.38-26.51-2.09-39.79-1.71-.95.02-12.38.15-23.53,1.15-5.59.43-11.08,1.18-15.19,1.71-4.1.6-6.81,1.06-6.86.88-.05-.2,2.59-1.03,6.66-1.97,4.07-.88,9.57-1.93,15.17-2.63,11.19-1.53,22.73-1.98,23.69-2Z"/><path class="cls-3" d="M313.75,648.42c-13.28-.38-26.58.32-39.79,1.71l-4.95.55c-1.65.18-3.3.34-4.94.63l-9.85,1.53-2.46.38-2.44.5-4.88.99-4.88.99-2.44.5-2.42.61c-6.43,1.69-12.92,3.11-19.23,5.22l-9.52,2.94-9.56,3.06c-6.35,2.13-12.81,3.88-19.24,5.72-3.21.97-6.47,1.71-9.71,2.54-3.25.79-6.48,1.67-9.75,2.39-6.55,1.37-13.07,2.91-19.69,3.98l-4.95.88-2.47.44-2.49.35-9.95,1.39c-13.31,1.57-26.71,2.5-40.14,2.36-13.41-.16-26.88-1.36-40.03-4.4-3.27-.83-6.57-1.54-9.76-2.67-1.6-.53-3.23-1-4.81-1.59l-4.71-1.92c-3.15-1.25-6.19-2.84-9.09-4.7-2.88-1.88-5.67-4.12-7.71-7.19-.07-.11-.22-.39-.44-.81-.23-.42-.54-.97-.77-1.73-.54-1.44-.99-3.71-.31-6.15.64-2.44,2.26-4.8,4.33-6.72,2.1-1.9,4.62-3.45,7.23-4.67,5.24-2.45,10.86-3.58,15.05-3.85,4.21-.31,6.97.19,6.96.34-.01.24-2.77.12-6.83.76-4.05.6-9.43,2.01-14.28,4.56-2.42,1.27-4.7,2.81-6.49,4.58-1.78,1.77-2.99,3.79-3.41,5.63-.45,1.85-.07,3.45.38,4.56.18.57.45,1,.64,1.33.19.33.31.55.36.64,1.67,2.51,4.17,4.58,6.86,6.33,2.71,1.73,5.61,3.26,8.67,4.47l4.56,1.87c1.54.57,3.13,1.03,4.69,1.55,3.1,1.11,6.34,1.79,9.54,2.61,12.88,2.98,26.16,4.17,39.42,4.32,13.27.14,26.55-.77,39.75-2.34l9.88-1.38,2.47-.35,2.46-.44,4.91-.87c6.57-1.06,13.05-2.59,19.56-3.95,3.25-.72,6.46-1.59,9.69-2.37,3.22-.82,6.47-1.56,9.66-2.52,6.4-1.84,12.82-3.57,19.14-5.69l9.51-3.04,9.61-2.97c6.36-2.13,12.92-3.57,19.4-5.27l2.44-.61,2.46-.5,4.93-1,4.93-1,2.46-.5,2.48-.39,9.94-1.54c1.65-.29,3.32-.45,4.99-.64l5-.55c13.33-1.4,26.75-2.11,40.16-1.72.95.02,12.5.48,23.69,2,5.6.69,11.09,1.75,15.17,2.63,4.07.94,6.71,1.77,6.66,1.97-.05.18-2.76-.28-6.86-.88-4.11-.54-9.6-1.28-15.19-1.71-11.16-1-22.59-1.13-23.53-1.15Z"/><path class="cls-3" d="M323.7,662.22c-4.54,1.71-9.06,3.63-12.96,6.29-1.92,1.33-3.71,2.89-4.76,4.72-.51.91-.81,1.87-.82,2.83-.01,1,.22,2.02.66,2.98.89,1.94,2.48,3.68,4.26,5.18,1.8,1.51,3.8,2.84,5.88,4.05,4.18,2.41,8.66,4.38,13.2,6.18,9.11,3.56,18.54,6.38,28.03,8.95,9.5,2.55,19.09,4.8,28.72,6.88,19.26,4.16,38.67,7.67,58.12,10.9,9.73,1.61,19.47,3.14,29.22,4.61l14.63,2.16,14.45,2.05,14.45-2.05,14.63-2.16c9.75-1.47,19.49-3,29.22-4.61,19.45-3.23,38.86-6.74,58.12-10.9,9.63-2.08,19.22-4.33,28.72-6.88,9.49-2.56,18.92-5.39,28.03-8.95,4.54-1.8,9.02-3.77,13.2-6.18,2.08-1.21,4.08-2.54,5.88-4.05,1.79-1.5,3.37-3.24,4.26-5.18.44-.97.68-1.98.66-2.98,0-.96-.31-1.92-.82-2.83-1.05-1.83-2.84-3.39-4.76-4.72-3.9-2.66-8.42-4.59-12.96-6.29-.65-.24-4.89-1.87-11.09-3.69-6.19-1.84-14.31-3.87-22.41-5.6-8.1-1.74-16.18-3.23-22.23-4.29-2.93-.52-5.41-.96-7.29-1.29-1.76-.32-2.75-.54-2.74-.64s1.03-.07,2.82.07c1.78.14,4.33.4,7.38.76,6.11.73,14.26,1.91,22.46,3.41,8.2,1.48,16.43,3.33,22.74,5.05,6.31,1.71,10.69,3.3,11.36,3.54,4.67,1.76,9.32,3.71,13.59,6.62,1.07.73,2.09,1.54,3.06,2.46.96.92,1.87,1.95,2.57,3.2.7,1.23,1.18,2.7,1.19,4.21.02,1.47-.33,2.91-.92,4.19-1.19,2.56-3.06,4.52-5.02,6.19-1.98,1.66-4.11,3.07-6.29,4.34-4.37,2.52-8.96,4.53-13.58,6.37-9.28,3.63-18.78,6.47-28.34,9.05-9.56,2.57-19.19,4.83-28.85,6.92-19.32,4.18-38.77,7.69-58.25,10.92-9.74,1.61-19.5,3.14-29.26,4.62l-14.65,2.16-14.86,2.11-14.86-2.11-14.65-2.16c-9.76-1.47-19.52-3-29.26-4.62-19.48-3.24-38.93-6.75-58.25-10.92-9.66-2.09-19.29-4.35-28.85-6.92-9.56-2.58-19.06-5.42-28.34-9.05-4.63-1.84-9.21-3.84-13.58-6.37-2.18-1.27-4.31-2.67-6.29-4.34-1.96-1.67-3.83-3.63-5.02-6.19-.58-1.28-.94-2.72-.92-4.19.01-1.51.49-2.98,1.19-4.21.7-1.25,1.61-2.28,2.57-3.2.96-.92,1.99-1.74,3.06-2.46,4.27-2.91,8.92-4.86,13.59-6.62.67-.25,5.05-1.84,11.36-3.54,6.31-1.72,14.54-3.57,22.74-5.05,8.2-1.5,16.35-2.68,22.46-3.41,3.05-.37,5.6-.62,7.38-.76,1.78-.14,2.81-.16,2.82-.07.01.1-.99.31-2.74.64-1.89.33-4.37.77-7.29,1.29-6.05,1.07-14.12,2.55-22.23,4.29-8.11,1.73-16.23,3.76-22.41,5.6-6.19,1.82-10.44,3.45-11.09,3.69Z"/></g><path id="Window_1_Shape" class="cls-2" d="M465.74,668.99l-25.38,25.4,61.98,62.03,61.98-62.03-25.38-25.4h387.06V123.6c-39.6,0-171.67-32.13-171.67-71.76H250.35c0,39.63-132.07,71.76-171.67,71.76v545.39h387.06Z"/></g></svg>