<?xml version="1.0" encoding="UTF-8"?><svg id="Line" xmlns="http://www.w3.org/2000/svg" viewBox="0 0 907 670.02"><defs><style>.cls-1{opacity:.24;}.cls-1,.cls-2{fill:#fff;stroke-width:0px;}</style></defs><g id="Window_2"><g id="Window_2_Lines"><path class="cls-2" d="M15.72,360.34c1.82-6.68,4.23-13.23,7.36-19.44,3.12-6.21,6.97-12.07,11.47-17.38l1.71-1.97c.22-.25.09-.1.12-.14h0V65.89s.08-2.63.08-2.63c0-.88.12-1.75.18-2.62.07-.87.14-1.75.28-2.61.43-3.48,1.21-6.9,2.19-10.25.98-3.35,2.2-6.63,3.64-9.8.19-.46,1.55-3.41,3.85-7.37,2.29-3.96,5.62-8.84,9.32-13.33,3.69-4.5,7.71-8.61,10.9-11.48,3.18-2.88,5.5-4.53,5.63-4.37.12.15-1.94,2.07-4.85,5.16-2.92,3.08-6.66,7.36-10.09,11.94-3.43,4.58-6.51,9.46-8.62,13.38-2.11,3.91-3.35,6.8-3.53,7.24-1.39,3.06-2.57,6.22-3.5,9.44-.94,3.22-1.69,6.49-2.1,9.81-.14.83-.2,1.66-.27,2.49-.06.83-.18,1.66-.18,2.5l-.07,2.5v2.56s0,10.27,0,10.27v243.28c-.03.2.08.46-.13.59l-.72.83-1.65,1.91c-4.35,5.14-8.07,10.8-11.1,16.82-3.03,6.02-5.38,12.39-7.16,18.92-.07.23-.34,1.1-.67,2.47-.32,1.37-.88,3.19-1.33,5.38-.46,2.18-1.04,4.68-1.46,7.37-.22,1.34-.5,2.72-.68,4.12-.19,1.4-.39,2.83-.58,4.25-1.53,11.38-1.67,22.68-2.13,22.68-.2,0-.34-2.82-.45-7.1-.01-2.14.04-4.64.08-7.33.14-2.69.24-5.57.49-8.46.14-1.45.27-2.9.4-4.32.12-1.43.36-2.83.53-4.2.32-2.74.82-5.3,1.22-7.54.38-2.24.9-4.12,1.19-5.53.3-1.41.56-2.3.63-2.54Z"/><path class="cls-2" d="M888.53,361.1c-1.78-6.53-4.13-12.89-7.16-18.92-3.03-6.02-6.75-11.69-11.1-16.82l-1.65-1.91-.72-.83c-.2-.14-.1-.39-.13-.59V65.9s-.08-2.5-.08-2.5c0-.84-.12-1.67-.18-2.5-.07-.83-.14-1.67-.27-2.49-.4-3.32-1.16-6.6-2.1-9.81-.94-3.22-2.11-6.38-3.5-9.44-.18-.44-1.42-3.33-3.53-7.24-2.1-3.92-5.18-8.8-8.62-13.38-3.43-4.58-7.17-8.85-10.09-11.94-2.91-3.09-4.97-5.01-4.85-5.16.12-.16,2.45,1.49,5.63,4.37,3.19,2.87,7.21,6.99,10.9,11.48,3.7,4.49,7.03,9.37,9.32,13.33,2.3,3.95,3.66,6.91,3.85,7.37,1.44,3.17,2.66,6.45,3.64,9.8.98,3.35,1.77,6.77,2.19,10.25.14.86.21,1.74.28,2.61.06.87.18,1.74.18,2.62l.08,2.63v2.57s0,10.27,0,10.27v242.65h0s-.1-.1.12.15l1.71,1.97c4.5,5.31,8.35,11.17,11.47,17.38,3.13,6.21,5.54,12.76,7.36,19.44.07.24.33,1.13.63,2.54.29,1.41.81,3.29,1.19,5.53.4,2.24.9,4.8,1.22,7.54.17,1.37.4,2.77.53,4.2.13,1.43.27,2.87.4,4.32.26,2.89.35,5.77.5,8.46.04,2.69.09,5.19.08,7.33-.11,4.28-.26,7.1-.45,7.1-.46,0-.6-11.3-2.13-22.68-.19-1.42-.39-2.85-.58-4.25-.18-1.41-.47-2.78-.68-4.12-.42-2.69-1-5.19-1.46-7.37-.44-2.19-1-4.01-1.33-5.38-.33-1.37-.6-2.23-.67-2.47Z"/><path class="cls-2" d="M10.2,562.53V88.1c0-2.82.64-68,1.43-68s1.43,65.17,1.43,68v474.43c0,2.82-.64,68-1.43,68s-1.43-65.17-1.43-68Z"/><path class="cls-2" d="M893.95,562.53V88.1c0-2.82.64-68,1.43-68s1.43,65.17,1.43,68v474.43c0,2.82-.64,68-1.43,68s-1.43-65.17-1.43-68Z"/><path class="cls-2" d="M828.74,2.86H78.26c-1.75-.01-19.14-.14-39.29-.28-.02.59-.03,1.18-.05,1.78-.04.98-.11,1.96-.19,2.95-.17,1.97-.43,3.94-.77,5.9-.67,3.93-1.73,7.8-3.15,11.47-1.44,3.66-3.34,7.08-5.61,10.02-2.27,2.94-4.95,5.38-7.74,7.15-2.79,1.79-5.67,2.92-8.27,3.69-2.64.67-5,1.03-6.97,1.15-.97.04-1.85.08-2.63.11-.74-.03-1.4-.06-1.96-.09-1.06-.06-1.63-.12-1.63-.18s.58-.11,1.63-.17c.55-.02,1.2-.05,1.94-.08.77-.08,1.63-.17,2.58-.27,1.92-.22,4.22-.69,6.75-1.43,2.5-.85,5.22-2.03,7.84-3.82,2.62-1.78,5.1-4.16,7.2-7.02,2.1-2.86,3.84-6.17,5.15-9.72,1.3-3.56,2.25-7.32,2.82-11.14.29-1.91.51-3.82.64-5.73.06-.95.11-1.91.13-2.85v-1.41c.02-.81-.02-1.72-.05-2.59C57.98.14,76.41.01,78.26,0h750.48c1.85.01,20.28.14,41.64.29-.03.86-.07,1.78-.07,2.59v1.41c.04.95.08,1.9.14,2.85.12,1.91.35,3.83.64,5.73.57,3.82,1.52,7.58,2.82,11.14,1.31,3.55,3.05,6.86,5.15,9.72,2.1,2.86,4.58,5.25,7.2,7.02,2.62,1.79,5.34,2.97,7.84,3.82,2.53.74,4.82,1.21,6.75,1.43.95.1,1.82.19,2.58.27.74.03,1.38.06,1.94.08,1.06.05,1.63.11,1.63.17s-.57.12-1.63.18c-.56.03-1.21.06-1.96.09-.78-.03-1.66-.07-2.63-.11-1.97-.12-4.33-.48-6.97-1.15-2.6-.77-5.48-1.9-8.27-3.69-2.8-1.78-5.47-4.21-7.74-7.15-2.27-2.94-4.17-6.36-5.61-10.02-1.43-3.66-2.49-7.54-3.15-11.47-.34-1.96-.6-3.93-.77-5.9-.08-.98-.15-1.97-.19-2.95-.02-.6-.03-1.19-.05-1.78-20.15.14-37.54.27-39.29.28Z"/><path class="cls-2" d="M82.38,667h742.25c1.46,0,14.86.09,31.2.2-.11-.09-.23-.2-.35-.34l-.32-.35c-.18-.19-.35-.38-.52-.59-.35-.39-.67-.81-.99-1.23-1.26-1.7-2.29-3.64-2.88-5.77-.58-2.12-.65-4.41-.21-6.58.45-2.17,1.4-4.17,2.55-5.96,2.37-3.56,5.52-6.32,8.7-8.65,3.22-2.27,6.48-4.27,9.78-5.61,3.27-1.39,6.47-2.31,9.4-2.78,2.93-.45,5.56-.5,7.71-.34,2.16.15,3.85.51,4.98.84,1.13.33,1.71.61,1.69.67-.04.14-2.46-.72-6.71-.79-2.12-.04-4.67.12-7.49.66-2.82.56-5.89,1.56-9.03,2.99-3.16,1.39-6.27,3.42-9.34,5.69-3.03,2.32-5.97,5.05-8.07,8.35-1.02,1.65-1.81,3.45-2.17,5.32-.34,1.87-.24,3.78.29,5.59.53,1.8,1.46,3.49,2.61,4.98.3.37.59.74.9,1.09.15.18.31.35.48.52l.24.25c.13.14.32.31.48.46.34.31.64.62,1.05.93.38.31.74.62,1.25.95.98.69,1.96,1.37,2.93,2.05-20,.15-36.39.27-38.17.28H82.38c-1.79-.01-18.17-.13-38.17-.28.97-.68,1.95-1.36,2.93-2.05.5-.34.87-.64,1.25-.95.4-.31.71-.62,1.05-.93.16-.15.35-.32.48-.46l.24-.25c.17-.17.32-.34.48-.52.32-.35.61-.72.9-1.09,1.15-1.5,2.07-3.18,2.61-4.98.53-1.8.62-3.72.29-5.59-.35-1.87-1.14-3.66-2.17-5.32-2.1-3.3-5.04-6.03-8.07-8.35-3.07-2.28-6.18-4.3-9.34-5.69-3.13-1.44-6.2-2.43-9.03-2.99-2.83-.54-5.38-.7-7.49-.66-4.25.07-6.67.93-6.71.79-.02-.06.56-.34,1.69-.67,1.13-.33,2.82-.69,4.98-.84,2.16-.16,4.78-.11,7.71.34,2.93.47,6.12,1.39,9.4,2.78,3.3,1.34,6.56,3.34,9.78,5.61,3.18,2.33,6.33,5.08,8.7,8.65,1.16,1.79,2.1,3.79,2.55,5.96.44,2.16.37,4.45-.21,6.58-.59,2.13-1.62,4.07-2.88,5.77-.32.42-.64.84-.99,1.23-.17.2-.34.4-.52.59l-.32.35c-.12.13-.24.24-.35.34,16.35-.1,29.74-.19,31.2-.2Z"/><path class="cls-2" d="M403.88,619.55c-25.99.65-51.96,1.76-77.91,3.41-25.94,1.65-51.85,3.78-77.68,6.67-25.82,2.9-51.58,6.47-77.02,11.6-12.7,2.61-25.35,5.58-37.65,9.56-6.14,1.99-12.2,4.24-17.97,7.03-2.87,1.41-5.67,2.94-8.28,4.72-1.3.89-2.55,1.84-3.7,2.88-.57.52-1.15,1.04-1.64,1.62-.25.28-.53.55-.76.85l-.98,1.29-.37.28-.19.14-.09.07-.05.03-.02.02h-.01c.39,1.23-.54-1.64-.45-1.35l-.26-.08-.13-.04c-.06.05-.14.2-.21.3l-.44.66-.11.17s-.07.14-.12.1l-.18-.05-.52-.16-2.06-.65c-1.37-.44-2.74-.89-4.1-1.36-2.72-.93-5.43-1.91-8.12-2.94-5.38-2.07-10.69-4.33-15.83-7.04-.45-.28-3.51-1.79-7.46-4.69-1.94-1.47-4.2-3.31-5.9-5.95-.83-1.3-1.55-2.79-1.89-4.45-.34-1.65-.19-3.5.52-5.09.73-1.59,1.94-2.87,3.29-3.75,1.35-.9,2.82-1.47,4.26-1.83,2.89-.7,5.66-.59,7.92-.2,2.27.39,4.07,1.04,5.27,1.59,1.21.54,1.83.97,1.8,1.04-.05.1-.75-.15-2-.5-1.24-.36-3.03-.83-5.22-1.03-2.18-.21-4.78-.13-7.35.64-2.53.76-5.14,2.38-6.12,4.84-.47,1.21-.54,2.55-.22,3.83.32,1.28.95,2.5,1.71,3.6,1.52,2.19,3.61,3.81,5.48,5.14,3.8,2.61,6.83,4.03,7.26,4.29,4.99,2.63,10.22,4.85,15.52,6.9,2.65,1.02,5.33,1.99,8.02,2.91,1.35.46,2.7.91,4.05,1.34l2.62.82h0s0,0,0,0l.1-.13.4-.52c.27-.34.58-.64.87-.96.57-.65,1.2-1.23,1.83-1.8,1.26-1.14,2.61-2.16,3.99-3.11,2.77-1.89,5.68-3.49,8.65-4.94,5.95-2.87,12.11-5.15,18.34-7.17,12.46-4.03,25.19-7.01,37.96-9.64,25.57-5.16,51.4-8.73,77.27-11.64,25.88-2.89,51.84-5.03,77.82-6.68,25.98-1.65,51.99-2.76,78.02-3.41,1.03-.02,13.46-.17,25.62-.05,6.08.05,12.1.17,16.6.32,4.5.16,7.47.34,7.47.54s-2.97.39-7.47.57c-4.67.17-10.62.38-16.58.59-12.28.43-24.56.86-25.58.89Z"/><path class="cls-2" d="M503.19,616.7c26.02.65,52.04,1.77,78.02,3.41,25.98,1.65,51.93,3.79,77.82,6.68,25.88,2.91,51.7,6.48,77.27,11.64,12.77,2.62,25.5,5.61,37.96,9.64,6.23,2.02,12.39,4.3,18.34,7.17,2.96,1.45,5.88,3.05,8.65,4.94,1.38.95,2.73,1.97,3.99,3.11.63.57,1.26,1.15,1.83,1.8.29.32.6.62.87.96l.4.52.1.13h0s0,0,0,0l2.62-.82c1.35-.43,2.7-.88,4.05-1.34,2.69-.92,5.37-1.89,8.02-2.91,5.3-2.04,10.53-4.27,15.52-6.9.43-.26,3.46-1.68,7.26-4.29,1.87-1.33,3.96-2.95,5.48-5.14.76-1.1,1.39-2.32,1.71-3.6.32-1.28.25-2.62-.22-3.83-.98-2.46-3.59-4.08-6.12-4.84-2.58-.77-5.18-.85-7.35-.64-2.19.2-3.98.67-5.22,1.03-1.24.36-1.95.61-2,.5-.04-.08.59-.5,1.8-1.04,1.2-.55,3-1.2,5.27-1.59,2.26-.39,5.03-.5,7.92.2,1.44.36,2.91.93,4.26,1.83,1.35.88,2.56,2.17,3.29,3.75.72,1.59.87,3.44.52,5.09-.34,1.66-1.06,3.15-1.89,4.45-1.71,2.64-3.96,4.48-5.9,5.95-3.95,2.9-7.02,4.41-7.47,4.69-5.14,2.71-10.46,4.97-15.83,7.04-2.69,1.03-5.4,2.01-8.12,2.94-1.36.47-2.73.92-4.1,1.36l-2.06.65-.52.16-.18.05s-.08-.05-.12-.1l-.11-.17-.44-.66c-.07-.1-.15-.25-.21-.3l-.13.04-.26.08c.09-.29-.84,2.57-.45,1.35h-.01s-.02-.03-.02-.03l-.05-.03-.09-.07-.19-.14-.37-.28-.98-1.29c-.23-.3-.51-.56-.76-.85-.5-.58-1.07-1.1-1.64-1.62-1.15-1.04-2.4-1.99-3.7-2.88-2.6-1.78-5.41-3.32-8.28-4.72-5.77-2.78-11.83-5.03-17.97-7.03-12.3-3.98-24.94-6.95-37.65-9.56-25.44-5.13-51.2-8.7-77.02-11.6-25.83-2.88-51.74-5.02-77.68-6.67-25.94-1.64-51.92-2.75-77.91-3.41-1.01-.04-13.3-.46-25.58-.89-5.96-.21-11.91-.42-16.58-.59-4.49-.18-7.47-.37-7.47-.57s2.98-.38,7.47-.54c4.5-.15,10.51-.27,16.6-.32,12.17-.12,24.59.03,25.62.05Z"/></g><path id="Window_2_Shape" class="cls-1" d="M809.99,642.93H97.01c0-24.49-19.86-44.35-44.35-44.35V68.35c0-24.49,19.86-44.35,44.35-44.35h712.98c24.5,0,44.35,19.86,44.35,44.35v530.23c-24.5,0-44.35,19.86-44.35,44.35Z"/></g></svg>