<?xml version="1.0" encoding="UTF-8"?><svg id="Line" xmlns="http://www.w3.org/2000/svg" viewBox="0 0 189.84 312"><defs><style>.cls-1{fill:#fff;stroke-width:0px;}</style></defs><g id="Arrow_2_Lines"><path class="cls-1" d="M170.47,224.44c1.64,1.35,3.68,1.95,5.62,1.68,1.97-.28,3.8-1.55,5.34-3.11,1.57-1.61,2.84-3.48,3.77-5.51.92-2.04,1.44-4.25,1.67-6.5.41-4.53-.41-9.2-1.74-13.68-1.35-4.5-3.24-8.86-5.36-13.11-4.27-8.5-9.46-16.56-14.89-24.45-5.44-7.89-11.18-15.59-16.92-23.31-5.72-7.73-11.53-15.42-16.8-23.56-5.29-8.1-10.1-16.51-14.41-25.17-8.57-17.34-15.19-35.68-19.23-54.63-.03-.17-.16-.8-.35-1.79-.09-.49-.21-1.07-.33-1.73-.1-.66-.21-1.39-.33-2.18-.23-1.57-.5-3.37-.79-5.3-.2-1.91-.41-3.95-.62-5.99C94.37,7.97,94.56,0,94.92,0c.42,0,.95,7.89,2.19,15.86.33,2.01.65,4,.96,5.87.38,1.89.73,3.65,1.04,5.19.15.77.29,1.49.42,2.13.15.64.28,1.21.4,1.69.22.97.37,1.59.4,1.76,3.98,18.68,10.52,36.81,19,53.95,4.26,8.56,9.01,16.88,14.24,24.88,5.19,8.02,10.98,15.69,16.7,23.42,5.74,7.72,11.49,15.45,16.98,23.39,5.47,7.95,10.72,16.1,15.1,24.79,2.17,4.35,4.12,8.85,5.54,13.57,1.4,4.71,2.31,9.69,1.85,14.77-.25,2.52-.84,5.05-1.9,7.4-1.07,2.35-2.54,4.5-4.33,6.34l-1.45,1.33c-.51.42-1.09.78-1.64,1.16-.57.36-1.22.61-1.84.92-.66.21-1.34.43-2.03.54-2.83.43-5.76-.54-7.82-2.25-.14-.12-.74-.56-1.48-1.38-.75-.8-1.67-1.99-2.43-3.54-.21-.38-.39-.79-.54-1.23-.08-.22-.17-.44-.25-.66-.06-.23-.13-.47-.2-.71-.29-.94-.4-2.06-.32-3.17.08-1.12.43-2.3,1.15-3.32.69-1.02,1.91-1.9,3.29-1.96,1.38-.08,2.56.54,3.44,1.25.83.77,1.5,1.59,2,2.47,1.01,1.75,1.52,3.64,1.28,5.33-.12.82-.52,1.66-1.21,2.04-.34.21-.69.24-1,.28-.3-.04-.58-.04-.8-.13-.22-.08-.42-.15-.58-.23-.15-.09-.28-.18-.38-.25-.2-.14-.29-.23-.27-.28.02-.04.16-.04.39.01.11.02.25.06.41.1.17.02.35.05.54.07.2.04.41-.02.63-.01.2-.07.42-.12.59-.28.35-.27.56-.81.58-1.46.05-1.31-.53-2.93-1.52-4.35-.49-.73-1.12-1.37-1.78-1.91-.69-.48-1.46-.76-2.12-.67-1.36.14-2.27,1.85-2.26,3.42-.05,1.58.61,3.16,1.28,4.41.69,1.26,1.49,2.21,2.13,2.83.62.65,1.1.96,1.21,1.06Z"/><path class="cls-1" d="M21.12,226.7c-2.06,1.71-4.99,2.68-7.82,2.25-.69-.11-1.37-.33-2.03-.54-.61-.3-1.27-.56-1.84-.92-.55-.38-1.13-.74-1.64-1.16l-1.45-1.33c-1.78-1.83-3.26-3.99-4.33-6.34-1.06-2.35-1.65-4.88-1.9-7.4-.46-5.07.45-10.06,1.85-14.77,1.42-4.72,3.37-9.21,5.54-13.57,4.37-8.7,9.63-16.85,15.1-24.79,5.48-7.94,11.24-15.67,16.98-23.39,5.72-7.73,11.51-15.4,16.7-23.42,5.23-8,9.98-16.32,14.24-24.88,8.48-17.14,15.01-35.27,19-53.95.04-.16.18-.78.4-1.76.11-.48.25-1.05.4-1.69.13-.64.27-1.36.42-2.13.31-1.53.66-3.3,1.04-5.19.31-1.87.63-3.87.96-5.87C93.97,7.89,94.5,0,94.92,0c.36,0,.55,7.97-.19,16.1-.21,2.05-.42,4.08-.62,5.99-.29,1.93-.55,3.73-.79,5.3-.12.79-.23,1.52-.33,2.18-.13.65-.24,1.23-.33,1.73-.2.99-.32,1.63-.35,1.79-4.04,18.95-10.66,37.29-19.23,54.63-4.31,8.66-9.11,17.07-14.41,25.17-5.26,8.13-11.08,15.82-16.8,23.56-5.74,7.72-11.47,15.42-16.92,23.31-5.43,7.89-10.62,15.95-14.89,24.45-2.12,4.25-4,8.61-5.36,13.11-1.34,4.48-2.16,9.15-1.74,13.68.23,2.26.75,4.47,1.67,6.5.93,2.03,2.2,3.9,3.77,5.51,1.55,1.56,3.38,2.83,5.34,3.11,1.95.27,3.98-.32,5.62-1.68.11-.1.59-.41,1.21-1.06.63-.62,1.44-1.57,2.13-2.83.68-1.25,1.33-2.82,1.28-4.41,0-1.57-.9-3.28-2.26-3.42-.67-.09-1.43.18-2.12.67-.66.54-1.3,1.18-1.78,1.91-.99,1.42-1.57,3.04-1.52,4.35.02.65.23,1.19.58,1.46.17.15.39.2.59.28.22,0,.43.05.63.01.19-.03.37-.05.54-.07.16-.04.29-.08.41-.1.23-.05.36-.06.39-.01.02.04-.07.14-.27.28-.1.07-.23.15-.38.25-.16.08-.36.15-.58.23-.22.09-.5.09-.8.13-.31-.04-.66-.07-1-.28-.69-.39-1.1-1.22-1.21-2.04-.24-1.69.27-3.58,1.28-5.33.5-.88,1.17-1.71,2-2.47.87-.71,2.06-1.34,3.44-1.25,1.38.06,2.6.94,3.29,1.96.72,1.03,1.07,2.2,1.15,3.32.08,1.11-.03,2.24-.32,3.17-.07.24-.13.48-.2.71-.09.22-.17.44-.25.66-.16.44-.34.85-.54,1.23-.76,1.56-1.68,2.74-2.43,3.54-.74.82-1.33,1.25-1.48,1.38Z"/><path class="cls-1" d="M88.81,115.67l1.61,4.54,1.31,4.63.65,2.31c.22.77.35,1.56.53,2.34l1.01,4.69c.38,1.56.53,3.15.8,4.73l.72,4.74c.19,1.59.31,3.18.46,4.77l.49,5.24-2.61,3.84c-.83,1.11-1.64,2.24-2.5,3.33-1.74,2.16-3.53,4.3-5.52,6.27-1.97,1.98-4.05,3.86-6.32,5.54-1.14.82-2.3,1.63-3.54,2.35-.61.37-1.24.7-1.89,1.03-.33.15-.65.32-.99.46l-.11.05v106.34h-2.86c.07-.7.07-1.42.24-2.11.19-.69.32-1.4.67-2.02l.46-.96.59-.87c.37-.61.87-1.07,1.33-1.59,1.93-1.95,4.29-3.22,6.67-4.17,4.81-1.85,9.88-2.51,14.91-2.56,5.03.05,10.1.7,14.91,2.56,2.38.95,4.74,2.22,6.67,4.17.46.51.96.98,1.33,1.59l.59.87.46.96c.34.63.47,1.34.67,2.02.17.69.16,1.41.24,2.11h-2.86v-106.34s-.11-.05-.11-.05c-.34-.15-.66-.31-.99-.46-.64-.33-1.28-.66-1.89-1.03-1.23-.71-2.39-1.52-3.54-2.35-2.27-1.68-4.35-3.56-6.32-5.54-1.99-1.96-3.77-4.1-5.52-6.27-.86-1.09-1.66-2.22-2.5-3.33l-2.61-3.84.49-5.24c.16-1.59.27-3.18.46-4.77l.72-4.74c.26-1.58.42-3.17.8-4.73l1.01-4.69c.18-.78.31-1.57.53-2.34l.65-2.31,1.31-4.63,1.61-4.54c.05-.15.18-.5.37-1.02.19-.53.43-1.24.83-2.06.37-.83.81-1.81,1.3-2.91.51-1.09,1-2.34,1.72-3.59,2.56-5.17,6.65-11.49,11.58-16.99,4.9-5.53,10.71-10.06,15.4-12.78,1.14-.73,2.28-1.25,3.24-1.77.96-.53,1.84-.91,2.57-1.21,1.45-.61,2.29-.91,2.33-.82.11.23-3.12,1.75-7.55,4.74-4.43,2.97-9.9,7.63-14.47,13.17-4.6,5.52-8.39,11.75-10.75,16.84-.67,1.23-1.12,2.46-1.59,3.53-.46,1.08-.86,2.04-1.2,2.85-.36.81-.58,1.5-.76,2.02-.18.52-.3.86-.35,1l-1.57,4.41-1.27,4.51-.64,2.26c-.21.75-.34,1.53-.52,2.29l-.98,4.59c-.37,1.52-.52,3.09-.78,4.63l-.7,4.65c-.19,1.56-.3,3.12-.46,4.68l-.39,4.21,2,2.94c.81,1.07,1.59,2.17,2.42,3.22,1.68,2.08,3.4,4.15,5.3,6.02,1.88,1.89,3.86,3.68,5.99,5.25,1.07.77,2.15,1.52,3.28,2.18.56.34,1.13.64,1.71.93.29.13.58.28.86.4l.36.15.48.18.99.34v108.34h-2.86c-.01-2.08-.92-4.01-2.45-5.54-1.52-1.54-3.55-2.68-5.7-3.53-4.33-1.68-9.13-2.32-13.86-2.36-4.73.04-9.53.68-13.86,2.36-2.14.85-4.18,1.98-5.7,3.53-1.52,1.53-2.43,3.46-2.45,5.54h-2.86v-108.34s.99-.34.99-.34l.48-.18.36-.15c.29-.12.58-.27.86-.4.57-.29,1.15-.6,1.71-.93,1.13-.65,2.21-1.41,3.28-2.18,2.13-1.57,4.11-3.36,5.99-5.25,1.9-1.87,3.62-3.94,5.3-6.02.83-1.05,1.61-2.15,2.42-3.22l2-2.94-.39-4.21c-.15-1.56-.27-3.13-.46-4.68l-.7-4.65c-.26-1.54-.41-3.11-.78-4.63l-.98-4.59c-.18-.76-.3-1.54-.52-2.29l-.64-2.26-1.27-4.51-1.57-4.41c-.05-.14-.17-.48-.35-1-.18-.52-.4-1.21-.76-2.02-.34-.81-.75-1.77-1.2-2.85-.47-1.07-.92-2.3-1.59-3.53-2.35-5.09-6.15-11.32-10.75-16.84-4.57-5.54-10.04-10.2-14.47-13.17-4.43-2.98-7.66-4.51-7.55-4.74.04-.09.88.22,2.33.82.73.3,1.61.68,2.57,1.21.96.53,2.1,1.04,3.24,1.77,4.69,2.73,10.5,7.26,15.4,12.78,4.93,5.5,9.02,11.82,11.58,16.99.72,1.25,1.22,2.5,1.72,3.59.49,1.1.93,2.08,1.3,2.91.39.82.63,1.53.83,2.06.19.53.32.88.37,1.02Z"/><path class="cls-1" d="M139.32,185.37c.79-1.95,1.24-4.01,1.74-6.05l.49-3.12c.04-.26.09-.52.12-.78l.04-.79.08-1.58c.2-2.09-.03-4.22-.09-6.33-.11-1.05-.27-2.1-.4-3.15l-.21-1.57-.34-1.55c-.76-4.18-2.27-8.18-3.9-12.11-.95-1.91-1.76-3.88-2.88-5.71l-1.58-2.79-1.75-2.69c-4.71-7.15-10.45-13.64-16.67-19.6-1.59-1.46-3.13-2.97-4.76-4.39-1.64-1.4-3.24-2.85-4.92-4.22-1.69-1.35-3.35-2.73-5.05-4.06l-4.32-3.28-4.32,3.28c-1.7,1.33-3.37,2.71-5.05,4.06-1.67,1.37-3.27,2.81-4.92,4.22-1.63,1.42-3.17,2.93-4.76,4.39-6.23,5.96-11.96,12.44-16.67,19.6l-1.75,2.69-1.58,2.79c-1.11,1.83-1.93,3.8-2.88,5.71-1.63,3.92-3.14,7.93-3.9,12.11l-.34,1.55-.21,1.57c-.13,1.05-.29,2.1-.4,3.15-.05,2.11-.29,4.24-.09,6.33l.08,1.58.04.79c.03.26.08.52.12.78l.49,3.12c.5,2.04.95,4.1,1.74,6.05.05.14.23.67.51,1.5.35.8.82,1.88,1.37,3.17,1.24,2.49,2.99,5.66,5.19,8.51,2.17,2.87,4.63,5.48,6.58,7.32,1.94,1.85,3.34,2.96,3.24,3.13-.1.17-1.74-.65-3.95-2.28-2.21-1.62-4.98-4.08-7.43-6.9-2.49-2.8-4.53-6.02-5.97-8.59-.65-1.32-1.22-2.45-1.61-3.29-.34-.88-.55-1.44-.61-1.58-.84-2.09-1.33-4.29-1.86-6.47l-.52-3.33c-.04-.28-.09-.55-.12-.83l-.04-.84-.09-1.68c-.21-2.25.03-4.47.1-6.71.12-1.11.28-2.21.42-3.32l.22-1.66.36-1.63c.81-4.4,2.38-8.59,4.08-12.69.99-1.99,1.84-4.04,2.99-5.94l1.64-2.89,1.81-2.78c4.86-7.39,10.74-14.02,17.08-20.08,1.61-1.48,3.19-3.02,4.84-4.46,1.67-1.42,3.3-2.89,4.99-4.28,1.71-1.37,3.4-2.77,5.12-4.12l6.08-4.61,6.08,4.61c1.72,1.35,3.41,2.75,5.12,4.12,1.69,1.39,3.32,2.86,4.99,4.28,1.65,1.44,3.22,2.98,4.84,4.46,6.34,6.06,12.21,12.69,17.08,20.08l1.81,2.78,1.64,2.89c1.15,1.89,2.01,3.95,2.99,5.94,1.7,4.1,3.27,8.29,4.08,12.69l.36,1.63.22,1.66c.14,1.11.3,2.21.42,3.32.06,2.23.31,4.46.1,6.71l-.09,1.68-.04.84c-.03.28-.08.56-.12.83l-.52,3.33c-.53,2.18-1.02,4.39-1.86,6.47-.06.15-.27.71-.61,1.58-.39.85-.96,1.97-1.61,3.29-1.44,2.57-3.48,5.79-5.97,8.59-2.46,2.82-5.22,5.28-7.43,6.9-2.21,1.63-3.85,2.45-3.95,2.28-.1-.16,1.3-1.27,3.24-3.13,1.95-1.84,4.41-4.45,6.58-7.32,2.2-2.85,3.95-6.02,5.19-8.51.55-1.28,1.02-2.37,1.37-3.17.28-.83.47-1.37.51-1.5Z"/><path class="cls-1" d="M26.45,215.83c1.11-1.24,2.38-2.31,3.74-3.21,1.35-.93,2.78-1.7,4.25-2.35,2.94-1.33,6.02-2.16,9.12-2.77,6.22-1.15,12.52-1.31,18.78-.74.11.01,1.45.3,2.72.76,1.28.45,2.46,1.09,2.36,1.47-.1.38-1.38.45-2.67.52-1.29.06-2.59.1-2.69.09-5.98-.55-12.08-.39-17.96.7-2.93.57-5.82,1.36-8.49,2.57-1.34.59-2.62,1.29-3.81,2.1-1.2.8-2.3,1.73-3.24,2.78-.08.07-1.01.85-1.88,1.74-.22.22-.44.44-.66.64-.21.21-.39.42-.57.58-.36.33-.67.54-.85.46-.18-.08-.21-.44-.13-.96.04-.26.09-.56.18-.87.1-.3.22-.63.35-.96.52-1.3,1.37-2.48,1.46-2.56Z"/><path class="cls-1" d="M161.28,217.76c-.94-1.05-2.04-1.98-3.24-2.78-1.18-.82-2.47-1.51-3.81-2.1-2.67-1.21-5.56-2-8.49-2.57-5.88-1.09-11.99-1.26-17.96-.7-.11.01-1.4-.02-2.69-.09-1.29-.08-2.57-.14-2.67-.52-.1-.38,1.09-1.02,2.36-1.47,1.27-.46,2.6-.75,2.72-.76,6.26-.58,12.56-.41,18.78.74,3.1.6,6.18,1.44,9.12,2.77,1.47.65,2.9,1.42,4.25,2.35,1.36.91,2.63,1.98,3.74,3.21.09.08.94,1.26,1.46,2.56.13.33.25.65.35.96.09.31.14.62.18.87.07.52.04.88-.13.96-.18.08-.49-.12-.85-.46-.18-.17-.37-.37-.57-.58-.22-.2-.44-.42-.66-.64-.87-.88-1.8-1.67-1.88-1.74Z"/></g></svg>