<?xml version="1.0" encoding="UTF-8"?><svg id="Line" xmlns="http://www.w3.org/2000/svg" viewBox="0 0 236.02 301.7"><defs><style>.cls-1{fill:none;stroke:#fff;stroke-miterlimit:10;stroke-width:3px;}.cls-2{fill:#fff;stroke-width:0px;}</style></defs><g id="Arrow_9_Lines"><path class="cls-2" d="M107.54,283.84c-5.61-10.61-11.56-21.05-17.76-31.33-6.21-10.27-12.67-20.4-19.51-30.26-6.84-9.85-14.01-19.48-21.86-28.5-3.93-4.5-8.04-8.84-12.46-12.8-2.21-1.98-4.49-3.87-6.89-5.55-2.4-1.69-4.91-3.2-7.55-4.31-.09-.05-.45-.18-.99-.41-.54-.25-1.29-.5-2.18-.77-1.77-.5-4.16-.92-6.44-.45-2.29.43-4.35,1.7-5.72,2.87-.34.3-.67.56-.94.81-.26.27-.49.49-.69.68-.4.37-.67.56-.75.5-.08-.06.03-.36.29-.85.13-.25.3-.54.5-.88.22-.32.5-.66.8-1.05,1.21-1.5,3.35-3.26,6.02-4.05,2.66-.83,5.51-.57,7.56-.14,1.03.24,1.9.47,2.51.7.62.21,1.03.34,1.13.4,2.91,1.23,5.58,2.85,8.1,4.62,2.52,1.77,4.89,3.72,7.15,5.76,4.54,4.07,8.72,8.49,12.7,13.05,7.96,9.13,15.18,18.84,22.06,28.75,6.88,9.92,13.37,20.09,19.6,30.41,6.22,10.33,12.19,20.81,17.84,31.47.2.38,2.49,5.04,4.52,9.71,2.05,4.65,3.78,9.33,3.42,9.49-.36.16-2.72-4.2-5.23-8.59-2.62-4.64-5.05-8.93-5.24-9.27Z"/><path class="cls-2" d="M125.95,282.5c5.64-10.66,11.61-21.14,17.84-31.47,6.24-10.32,12.73-20.49,19.6-30.41,6.88-9.91,14.1-19.62,22.06-28.75,3.98-4.56,8.16-8.97,12.7-13.05,2.27-2.04,4.63-3.99,7.15-5.76,2.52-1.77,5.19-3.39,8.1-4.62.1-.06.51-.18,1.13-.4.61-.23,1.48-.46,2.51-.7,2.05-.43,4.9-.69,7.56.14,2.67.79,4.81,2.55,6.03,4.05.3.38.59.72.8,1.05.2.34.37.63.5.88.26.49.37.79.29.85-.08.06-.35-.13-.75-.5-.2-.18-.43-.41-.69-.68-.27-.25-.61-.51-.94-.81-1.37-1.18-3.43-2.45-5.72-2.87-2.28-.46-4.67-.05-6.44.45-.89.28-1.64.52-2.18.77-.55.23-.9.35-.99.41-2.64,1.11-5.15,2.63-7.55,4.31-2.4,1.69-4.69,3.57-6.89,5.55-4.42,3.96-8.53,8.3-12.46,12.8-7.86,9.01-15.03,18.64-21.86,28.5-6.83,9.86-13.3,19.98-19.51,30.26-6.2,10.28-12.14,20.72-17.76,31.33-.19.34-2.62,4.63-5.24,9.27-2.5,4.4-4.87,8.75-5.23,8.59-.36-.16,1.37-4.84,3.42-9.49,2.03-4.66,4.32-9.33,4.52-9.71Z"/><path class="cls-2" d="M119.45,20.16c.11,8.48,1.84,16.95,4.17,25.19,2.37,8.26,5.37,16.35,8.8,24.26,3.42,7.92,7.16,15.71,11.14,23.37,4.02,7.65,8.24,15.2,12.64,22.64,8.84,14.86,18.33,29.35,28.36,43.45,10.05,14.08,20.57,27.84,31.86,40.93.4.47,5.12,6.21,9.95,11.65,1.2,1.33,2.4,2.67,3.56,3.95,1.11,1.19,2.17,2.34,3.14,3.38,1.87,1.93,3.08,3.26,2.95,3.41-.13.15-1.58-.91-3.71-2.6-1.08-.94-2.27-1.98-3.5-3.06-1.27-1.2-2.59-2.45-3.9-3.69-5.24-5.13-10.25-10.71-10.65-11.18-11.36-13.18-21.93-27-32.02-41.14-10.07-14.16-19.6-28.7-28.49-43.65-4.43-7.48-8.67-15.07-12.72-22.77-4.01-7.72-7.79-15.57-11.24-23.57-3.46-8-6.51-16.19-8.92-24.6-2.38-8.41-4.17-17.08-4.28-25.97,0-.32.01-2.36.26-5.27.08-.72.17-1.5.26-2.32.14-.82.24-1.68.43-2.56.34-1.76.85-3.62,1.68-5.39.83-1.73,2.13-3.51,4.03-4.25.93-.37,1.9-.43,2.76-.32.86.11,1.61.37,2.26.67,1.29.62,2.2,1.35,2.79,1.89.58.55.85.94.78,1.01-.14.18-1.53-1.04-3.97-1.87-1.2-.38-2.71-.56-3.98.09-1.27.63-2.2,2.04-2.82,3.61-.61,1.58-.98,3.31-1.2,4.98-.13.82-.18,1.65-.27,2.42-.05.79-.09,1.53-.13,2.23-.09,2.79-.03,4.79-.03,5.09Z"/><path class="cls-2" d="M119.43,20.17c-.12,8.89-1.9,17.56-4.28,25.97-2.41,8.41-5.46,16.61-8.92,24.6-3.45,8-7.22,15.85-11.24,23.57-4.05,7.7-8.29,15.29-12.72,22.77-8.89,14.94-18.42,29.48-28.49,43.65-10.09,14.14-20.66,27.96-32.02,41.14-.4.47-5.4,6.05-10.65,11.18-1.31,1.24-2.63,2.49-3.9,3.69-1.24,1.08-2.42,2.11-3.5,3.06-2.13,1.7-3.58,2.75-3.71,2.6-.13-.15,1.08-1.48,2.95-3.41.97-1.04,2.03-2.19,3.14-3.38,1.16-1.29,2.36-2.62,3.56-3.95,4.82-5.45,9.55-11.18,9.95-11.65,11.28-13.09,21.81-26.85,31.86-40.93,10.03-14.1,19.52-28.58,28.36-43.45,4.4-7.44,8.62-14.99,12.64-22.64,3.99-7.66,7.73-15.45,11.14-23.37,3.42-7.91,6.43-16.01,8.8-24.26,2.34-8.25,4.06-16.72,4.17-25.19,0-.3.06-2.29-.03-5.09-.04-.69-.08-1.44-.13-2.23-.09-.77-.14-1.6-.27-2.42-.22-1.66-.59-3.4-1.2-4.98-.62-1.56-1.55-2.98-2.82-3.61-1.27-.65-2.78-.47-3.98-.09-2.44.83-3.84,2.05-3.97,1.87-.07-.07.19-.46.78-1.01.59-.55,1.49-1.28,2.79-1.89.65-.29,1.41-.56,2.26-.67.85-.11,1.83-.04,2.76.32,1.9.75,3.2,2.52,4.03,4.25.83,1.77,1.35,3.63,1.68,5.39.2.88.29,1.74.43,2.56.09.82.18,1.6.26,2.32.24,2.9.26,4.95.26,5.27Z"/><path class="cls-2" d="M232.28,229.37c.03,2.78-.45,5.52-1.16,8.17-.2.66-.45,1.3-.67,1.95-.23.65-.43,1.3-.75,1.93-.55,1.3-1.31,2.51-2.15,3.67-.89,1.13-1.9,2.17-3.05,3.04-1.16.85-2.4,1.6-3.73,2.12-2.64,1.09-5.45,1.52-8.19,1.6-5.51.09-10.82-1.08-15.92-2.66-5.1-1.6-10.01-3.65-14.78-5.95-9.55-4.6-18.58-10.13-27.26-16.12-8.67-6.01-17-12.51-24.85-19.58-.28-.26-3.56-3.41-6.51-6.75-2.99-3.31-5.56-6.85-5.26-7.09.3-.26,3.38,2.77,6.68,5.67,3.27,2.93,6.72,5.8,6.99,6.05,7.75,6.97,15.99,13.41,24.56,19.35,8.58,5.92,17.51,11.38,26.87,15.89,4.68,2.25,9.48,4.25,14.39,5.79,4.91,1.52,9.98,2.62,14.99,2.53,2.49-.07,4.95-.46,7.17-1.38,1.12-.44,2.14-1.06,3.09-1.75.94-.72,1.77-1.57,2.51-2.5.69-.97,1.35-1.98,1.82-3.11.27-.53.46-1.15.67-1.73.2-.59.43-1.18.61-1.77.63-2.41,1.07-4.87,1.04-7.36.01-.09.01-.42,0-.94-.03-.51,0-1.22-.09-2.03-.13-1.63-.51-3.74-1.14-5.78-.62-2.04-1.52-3.98-2.27-5.4-.74-1.43-1.32-2.34-1.18-2.47.14-.14,1.04.55,2.1,1.85,1.07,1.29,2.31,3.19,3.23,5.3.93,2.1,1.56,4.37,1.86,6.16.18.89.2,1.67.27,2.24.06.57.08.94.07,1.04Z"/><path class="cls-2" d="M6.6,229.39c-.03,2.48.41,4.95,1.04,7.36.19.6.41,1.18.61,1.77.21.59.39,1.2.67,1.73.47,1.13,1.12,2.14,1.82,3.11.74.93,1.57,1.78,2.51,2.5.96.69,1.97,1.31,3.09,1.75,2.22.92,4.68,1.31,7.17,1.38,5.01.09,10.09-1,14.99-2.53,4.92-1.54,9.71-3.54,14.39-5.79,9.36-4.51,18.29-9.97,26.87-15.89,8.57-5.94,16.82-12.38,24.56-19.35.27-.25,3.72-3.12,6.99-6.05,3.31-2.9,6.38-5.92,6.68-5.67.3.25-2.27,3.78-5.26,7.09-2.95,3.34-6.23,6.49-6.51,6.75-7.86,7.06-16.18,13.57-24.85,19.58-8.68,5.99-17.72,11.51-27.26,16.12-4.77,2.3-9.69,4.35-14.78,5.95-5.09,1.57-10.41,2.75-15.92,2.66-2.74-.08-5.55-.51-8.19-1.6-1.33-.52-2.57-1.27-3.73-2.12-1.15-.88-2.16-1.91-3.05-3.04-.84-1.16-1.61-2.37-2.15-3.67-.32-.64-.52-1.29-.75-1.93-.22-.65-.47-1.29-.67-1.95-.71-2.66-1.18-5.4-1.16-8.17-.01-.1,0-.47.07-1.04.07-.57.09-1.35.27-2.24.3-1.79.93-4.06,1.86-6.16.92-2.1,2.16-4.01,3.23-5.3,1.07-1.3,1.96-1.99,2.1-1.85.14.13-.44,1.04-1.18,2.47-.74,1.42-1.65,3.36-2.27,5.4-.62,2.04-1,4.14-1.14,5.78-.09.81-.05,1.52-.09,2.03-.02.51-.02.85,0,.94Z"/><path class="cls-1" d="M209,148.98c-3.23-.43-8.96-6.91-10.67-13.19-5.6-34.45-32.75-61.65-67.15-67.26-6.27-1.72-12.75-7.46-13.17-10.69-.43,3.23-6.9,8.98-13.17,10.69-34.39,5.61-61.55,32.81-67.15,67.26-1.71,6.28-7.45,12.77-10.67,13.19,3.23.43,8.96,6.91,10.67,13.19,5.6,34.45,32.75,61.65,67.15,67.26,6.27,1.72,12.74,7.46,13.17,10.69.43-3.23,6.9-8.98,13.17-10.69,34.39-5.61,61.55-32.81,67.15-67.26,1.71-6.28,7.45-12.77,10.67-13.19Z"/><path class="cls-2" d="M118.01,95.89c2.23,1.73,5.51,3.16,9.22,4.77,4.44,1.93,9.47,4.12,12.94,7.01l.14.12.16.1c12.09,7.74,19.31,20.93,19.31,35.29s-7.22,27.55-19.31,35.29l-.16.1-.14.12c-3.48,2.88-8.51,5.07-12.94,7-3.71,1.61-6.99,3.04-9.22,4.77-2.23-1.73-5.51-3.16-9.22-4.77-4.44-1.93-9.47-4.12-12.94-7.01l-.14-.12-.16-.1c-12.09-7.74-19.31-20.94-19.31-35.29s7.22-27.55,19.31-35.29l.16-.1.14-.12c3.48-2.88,8.51-5.07,12.94-7,3.71-1.61,6.99-3.04,9.22-4.77M118.01,90.6c0,5.04-15.6,7.73-24.08,14.76,0,0,0,0,0,0-12.44,7.97-20.69,21.93-20.69,37.82s8.25,29.85,20.69,37.82c0,0,0,0,0,0,8.47,7.03,24.08,9.72,24.08,14.76,0-5.04,15.6-7.73,24.08-14.76t0,0c12.44-7.97,20.69-21.93,20.69-37.82s-8.25-29.85-20.69-37.82c0,0,0,0,0,0-8.47-7.03-24.08-9.72-24.08-14.76h0Z"/></g></svg>