<?xml version="1.0" encoding="UTF-8"?><svg id="Line" xmlns="http://www.w3.org/2000/svg" viewBox="0 0 262 352"><defs><style>.cls-1{fill:#fff;stroke-width:0px;}</style></defs><g id="Arrow_7_Lines"><path class="cls-1" d="M208.5,262.12c1.21-3.99,2.12-8.07,2.84-12.18.71-4.11,1.08-8.28,1.31-12.45l.07-3.13c0-.52.03-1.04.03-1.57l-.06-1.57-.23-6.27c-.02-.52-.03-1.05-.07-1.57l-.17-1.56-.34-3.12-.34-3.12c-.06-.52-.11-1.04-.18-1.56l-.28-1.54c-2.74-16.52-8.39-32.56-16.43-47.3-7.95-14.81-17.83-28.55-28.81-41.32-2.78-3.17-5.63-6.27-8.44-9.41l-8.81-9.07-9.12-8.77-8.45-7.63-8.45,7.63-9.12,8.77-8.81,9.07c-2.81,3.14-5.66,6.24-8.44,9.41-10.98,12.77-20.86,26.52-28.81,41.32-8.05,14.75-13.69,30.78-16.43,47.3l-.28,1.54c-.07.52-.12,1.04-.18,1.56l-.34,3.12-.34,3.12-.17,1.56c-.04.52-.04,1.05-.07,1.57l-.23,6.27-.06,1.57c0,.52.02,1.04.03,1.57l.07,3.13c.24,4.17.6,8.33,1.31,12.45.72,4.11,1.63,8.19,2.84,12.18.19.56,1.23,4.32,3.27,9.43,2.01,5.12,5.17,11.53,9.01,17.46,3.8,5.96,8.24,11.4,11.83,15.22,3.57,3.84,6.24,6.09,6.12,6.24-.12.17-3.05-1.81-6.91-5.46-3.87-3.62-8.63-8.96-12.72-14.88-4.13-5.9-7.56-12.37-9.77-17.57-2.23-5.19-3.38-9.03-3.57-9.61-1.24-4.11-2.19-8.31-2.92-12.53-.73-4.23-1.11-8.51-1.35-12.79l-.07-3.22c0-.54-.03-1.07-.03-1.61l.06-1.6.24-6.41c.02-.53.03-1.07.07-1.6l.18-1.6.35-3.19.35-3.19c.06-.53.11-1.06.18-1.59l.29-1.58c2.8-16.88,8.57-33.22,16.74-48.2,8.07-15.04,18.08-28.94,29.16-41.84,2.8-3.2,5.68-6.33,8.52-9.5l8.89-9.14,9.19-8.83,10.39-9.39,10.39,9.39,9.19,8.83,8.89,9.14c2.84,3.17,5.71,6.3,8.52,9.5,11.08,12.9,21.09,26.81,29.16,41.84,8.17,14.97,13.94,31.32,16.74,48.2l.29,1.58c.08.53.12,1.06.18,1.59l.35,3.19.35,3.19.18,1.6c.04.53.04,1.07.07,1.6l.24,6.41.06,1.6c0,.54-.02,1.07-.03,1.61l-.07,3.22c-.24,4.28-.62,8.56-1.35,12.79-.74,4.23-1.68,8.42-2.92,12.53-.19.58-1.34,4.42-3.57,9.61-2.2,5.2-5.63,11.67-9.77,17.57-4.09,5.93-8.84,11.26-12.72,14.88-3.86,3.65-6.79,5.62-6.91,5.46-.12-.15,2.55-2.4,6.12-6.24,3.59-3.82,8.03-9.27,11.83-15.22,3.84-5.93,7-12.34,9.01-17.46,2.04-5.11,3.08-8.86,3.27-9.43Z"/><path class="cls-1" d="M30.65,269.78c17.15,5.94,32.93,14.7,49.24,21.98,8.15,3.65,16.44,6.96,24.97,9.39,4.27,1.19,8.59,2.18,12.96,2.86,4.37.65,8.78,1,13.18,1.04,4.41-.04,8.81-.39,13.18-1.04,4.37-.68,8.69-1.67,12.96-2.86,8.53-2.43,16.82-5.74,24.97-9.39,16.3-7.28,32.09-16.04,49.24-21.98.15-.05.72-.24,1.63-.53.9-.26,2.12-.61,3.56-1.03,1.44-.41,3.11-.78,4.87-1.21,1.79-.33,3.65-.79,5.55-1.03,3.77-.64,7.55-.84,10.37-.89,2.82.03,4.67.21,4.67.39,0,.21-1.85.41-4.6.71-2.75.38-6.42.88-10.06,1.76-1.83.36-3.63.92-5.35,1.35-1.7.52-3.31.97-4.7,1.44-1.39.47-2.57.87-3.44,1.16-.87.32-1.43.52-1.58.58-16.82,5.82-32.56,14.54-49,21.88-8.22,3.68-16.63,7.05-25.36,9.53-4.37,1.21-8.8,2.23-13.3,2.94-4.5.67-9.05,1.03-13.62,1.07-4.56-.04-9.11-.41-13.62-1.07-4.5-.7-8.93-1.72-13.3-2.94-8.73-2.48-17.14-5.85-25.36-9.53-16.44-7.34-32.18-16.06-49-21.88-.15-.05-.7-.26-1.58-.58-.87-.29-2.05-.69-3.44-1.16-1.38-.47-3-.92-4.7-1.44-1.72-.42-3.52-.98-5.35-1.35-3.64-.88-7.31-1.38-10.06-1.76C1.85,265.88,0,265.69,0,265.48c0-.18,1.85-.36,4.67-.39,2.81.05,6.6.25,10.37.89,1.9.24,3.76.7,5.55,1.03,1.76.43,3.44.81,4.87,1.21,1.44.42,2.66.77,3.56,1.03.9.29,1.48.48,1.63.53Z"/><path class="cls-1" d="M57.44,287.98c6.23-7.83,11.86-16.14,16.56-24.95,2.38-4.39,4.48-8.92,6.32-13.55,1.88-4.62,3.4-9.37,4.63-14.19,1.28-4.81,2.08-9.73,2.61-14.66l.32-3.71c.07-1.24.08-2.48.12-3.72.11-2.46.03-5.02.06-7.53v-20.85c5.71,0,1.58.03,2.86.05v4.31c2.55.01-3.48.06-2.86.02v-15.82c-.05-.18.14-.26.22-.39l.32-.37.4-.46,2.44-2.83c1.68-1.85,3.17-3.85,4.69-5.83,1.57-1.94,2.94-4.02,4.36-6.08,5.59-8.27,10.23-17.16,13.98-26.41,3.74-9.26,6.69-18.86,8.84-28.64,2.13-9.79,3.64-19.71,4.66-29.69.07-.35.26-2.68.6-5.97.17-1.64.36-3.52.56-5.53.15-1.99.3-4.11.46-6.24.14-2.11.36-4.21.45-6.18.11-1.91.22-3.73.32-5.36.22-3.13.43-5.21.63-5.21s.35,2.08.48,5.22c.05,1.65.11,3.47.16,5.39.06,1.98-.02,4.09-.03,6.22-.04,2.15-.07,4.29-.11,6.3-.11,2.03-.21,3.94-.3,5.59-.2,3.33-.31,5.69-.39,6.04-1.03,10.08-2.56,20.12-4.71,30.03-2.18,9.91-5.17,19.66-8.98,29.09-3.82,9.42-8.56,18.5-14.26,26.94-1.44,2.1-2.85,4.23-4.45,6.21-1.56,2.02-3.08,4.06-4.79,5.95l-2.5,2.89-.16.18-.07.08h.01s.01-.02.01-.02v14.9c.62.04-5.41-.01-2.86-.02v-4.31c1.27-.01-2.85-.05,2.86-.05v20.85c-.02,2.53.05,5.01-.06,7.59-.04,1.28-.06,2.56-.13,3.84l-.33,3.82c-.55,5.08-1.37,10.14-2.69,15.08-1.26,4.95-2.83,9.82-4.75,14.54-1.89,4.73-4.03,9.37-6.46,13.84-4.79,8.98-10.52,17.44-16.84,25.38-.43.58-6.03,7.31-12.17,13.25-3.05,2.99-6.2,5.81-8.64,7.8-2.44,2-4.18,3.17-4.3,3.02-.12-.15,1.36-1.6,3.56-3.84,2.2-2.23,5.1-5.24,7.93-8.38,5.7-6.25,10.96-13.06,11.39-13.64Z"/><path class="cls-1" d="M202.33,289.76c-6.32-7.95-12.05-16.4-16.84-25.38-2.43-4.47-4.57-9.11-6.46-13.84-1.92-4.72-3.48-9.59-4.75-14.54-1.31-4.94-2.14-10-2.69-15.08l-.33-3.82c-.07-1.28-.08-2.56-.13-3.84-.11-2.58-.03-5.06-.06-7.59v-20.85c5.71,0,1.58.03,2.86.05v4.31c2.55.01-3.48.06-2.86.02v-14.9h.01s.01.02.01.02l-.07-.08-.16-.18-2.5-2.89c-1.71-1.89-3.23-3.93-4.79-5.95-1.6-1.98-3.01-4.11-4.45-6.21-5.71-8.44-10.44-17.52-14.26-26.94-3.81-9.43-6.8-19.18-8.98-29.09-2.16-9.92-3.69-19.95-4.71-30.03-.07-.36-.19-2.71-.39-6.04-.09-1.66-.19-3.56-.3-5.59-.04-2.01-.07-4.15-.11-6.3-.01-2.13-.09-4.25-.03-6.22.06-1.92.11-3.75.16-5.39.13-3.15.28-5.22.48-5.22s.41,2.08.63,5.21c.1,1.64.21,3.45.32,5.36.09,1.97.31,4.07.45,6.18.16,2.13.31,4.25.46,6.24.2,2.01.4,3.89.56,5.53.34,3.29.53,5.62.6,5.97,1.02,9.98,2.53,19.9,4.66,29.69,2.16,9.78,5.1,19.38,8.84,28.64,3.75,9.26,8.4,18.15,13.98,26.41,1.41,2.06,2.79,4.14,4.36,6.08,1.52,1.97,3.01,3.98,4.69,5.83l2.44,2.83.4.46.32.37c.08.13.27.22.22.39v15.82c.62.04-5.41-.01-2.86-.02v-4.31c1.27-.01-2.85-.05,2.86-.05v20.85c.02,2.51-.05,5.07.06,7.53.04,1.24.06,2.48.12,3.72l.32,3.71c.53,4.93,1.33,9.85,2.61,14.66,1.23,4.82,2.75,9.57,4.63,14.19,1.85,4.63,3.94,9.16,6.32,13.55,4.7,8.81,10.33,17.12,16.56,24.95.42.57,5.69,7.39,11.39,13.64,2.83,3.14,5.74,6.15,7.93,8.38,2.19,2.24,3.68,3.69,3.56,3.84-.12.15-1.86-1.02-4.3-3.02-2.44-1.99-5.59-4.81-8.64-7.8-6.13-5.95-11.74-12.67-12.17-13.25Z"/></g></svg>