<?xml version="1.0" encoding="UTF-8"?><svg id="Line" xmlns="http://www.w3.org/2000/svg" viewBox="0 0 262.07 308.6"><defs><style>.cls-1{fill:#fff;stroke-width:0px;}</style></defs><g id="Arrow_4_Lines"><path class="cls-1" d="M255.21,224.9c-4.07,4.94-9.51,8.53-15.25,10.98-5.7,2.45-11.73,4.32-17.97,5-1.55.22-3.12.26-4.69.35-1.57-.02-3.14.02-4.71-.13-3.13-.21-6.25-.71-9.28-1.56-6.08-1.61-11.77-4.45-16.9-8-5.12-3.57-9.7-7.84-13.78-12.5-4.11-4.64-7.69-9.7-10.97-14.91-6.49-10.49-11.62-21.73-15.82-33.26-4.22-11.53-7.48-23.38-10.04-35.37-2.56-11.99-4.33-24.14-5.36-36.36-.49-6.11-.78-12.24-.84-18.38,0-3.07,0-6.15.13-9.2l.17-4.59.25-4.59c.77-12.22,2.05-24.49,5.2-36.46.12-.42.84-3.22,2.3-7.04,1.45-3.81,3.64-8.73,7.1-12.82,1.72-2.03,3.8-3.82,6.1-4.91,2.3-1.09,4.76-1.33,6.73-1.01,1.98.32,3.46,1.1,4.39,1.73.94.62,1.38,1.1,1.33,1.16-.07.1-.62-.22-1.61-.66-.98-.45-2.44-1-4.25-1.13-1.8-.12-3.91.25-5.88,1.33-1.96,1.1-3.75,2.8-5.25,4.76-3.01,3.94-4.93,8.73-6.19,12.45-1.27,3.73-1.89,6.47-2.01,6.89-3.07,11.65-4.35,23.79-5.11,35.89l-.24,4.55-.16,4.55c-.12,3.04-.14,6.06-.13,9.09.06,6.06.34,12.12.83,18.17,1.01,12.09,2.77,24.13,5.3,36,2.54,11.87,5.77,23.6,9.93,34.98,4.15,11.38,9.2,22.46,15.56,32.73,3.22,5.1,6.7,10.04,10.69,14.53,3.95,4.52,8.37,8.62,13.26,12.04,4.9,3.39,10.29,6.07,16.01,7.59,2.85.8,5.78,1.27,8.73,1.47,1.47.14,2.96.1,4.44.12,1.48-.1,2.96-.12,4.43-.33,5.91-.64,11.66-2.42,17.15-4.78,5.45-2.32,10.48-5.67,14.19-10.18.24-.33,2.1-2.35,3.84-5.78,1.77-3.4,3.16-8.31,3.17-13.31.06-4.96-1.09-9.98-2.99-13.08-.48-.75-1.01-1.4-1.57-1.74-.56-.37-1.08-.31-1.47-.04-.76.61-.98,1.31-1.1,1.23-.05-.02-.03-.18.04-.48.1-.29.23-.74.68-1.19.23-.22.56-.43.97-.5.42-.07.87.04,1.27.23.81.38,1.47,1.07,2.08,1.86,2.39,3.22,3.88,8.39,4.1,13.68.26,5.31-1.02,10.69-2.82,14.48-1.76,3.82-3.74,6.11-4.01,6.46Z"/><path class="cls-1" d="M9.07,223.08c3.71,4.51,8.73,7.85,14.19,10.18,5.49,2.36,11.25,4.14,17.15,4.78,1.47.21,2.95.24,4.43.33,1.48-.02,2.96.02,4.44-.12,2.95-.2,5.88-.67,8.73-1.47,5.72-1.52,11.11-4.2,16.01-7.59,4.89-3.41,9.31-7.52,13.26-12.04,3.99-4.49,7.48-9.43,10.69-14.53,6.36-10.27,11.41-21.34,15.56-32.73,4.16-11.39,7.4-23.12,9.93-34.98,2.53-11.87,4.29-23.91,5.3-36,.49-6.05.77-12.11.83-18.17,0-3.03,0-6.05-.13-9.09l-.16-4.55-.24-4.55c-.76-12.1-2.04-24.24-5.11-35.89-.12-.41-.75-3.15-2.01-6.89-1.26-3.72-3.19-8.5-6.19-12.45-1.49-1.96-3.29-3.66-5.25-4.76-1.97-1.08-4.08-1.46-5.88-1.33-1.81.13-3.27.69-4.25,1.13-.99.44-1.54.75-1.61.66-.05-.06.39-.54,1.33-1.16.93-.63,2.41-1.41,4.39-1.73,1.97-.32,4.43-.07,6.73,1.01,2.29,1.09,4.38,2.88,6.1,4.91,3.46,4.1,5.65,9.02,7.1,12.82,1.45,3.83,2.18,6.62,2.3,7.04,3.15,11.97,4.43,24.24,5.2,36.46l.25,4.59.17,4.59c.12,3.06.14,6.14.13,9.2-.06,6.14-.35,12.27-.84,18.38-1.02,12.22-2.8,24.37-5.36,36.36-2.56,11.99-5.83,23.84-10.04,35.37-4.2,11.53-9.33,22.77-15.82,33.26-3.29,5.21-6.86,10.28-10.97,14.91-4.08,4.66-8.66,8.92-13.78,12.5-5.12,3.55-10.82,6.39-16.9,8-3.03.84-6.15,1.35-9.28,1.56-1.57.15-3.14.11-4.71.13-1.56-.1-3.14-.13-4.69-.35-6.24-.68-12.27-2.55-17.97-5-5.74-2.44-11.18-6.03-15.25-10.98-.27-.35-2.25-2.64-4.01-6.46-1.8-3.79-3.08-9.17-2.82-14.48.21-5.29,1.71-10.46,4.1-13.68.61-.79,1.27-1.48,2.08-1.86.4-.19.84-.29,1.27-.23.41.07.74.28.97.5.45.46.58.91.68,1.19.07.3.09.46.04.48-.12.07-.33-.62-1.1-1.23-.39-.28-.91-.34-1.47.04-.56.34-1.09.99-1.57,1.74-1.91,3.09-3.05,8.11-2.99,13.08.01,5,1.41,9.91,3.17,13.31,1.74,3.43,3.6,5.46,3.84,5.78Z"/><path class="cls-1" d="M218.05,125.23c4.51,3.7,7.25,8.85,9.16,14.02.43,1.32.91,2.61,1.2,4,.31,1.37.73,2.71.83,4.12.15,1.4.4,2.78.34,4.19,0,1.4.06,2.81-.16,4.2-1.07,11.23-7.53,21.59-16.77,27.89-4.61,3.18-9.96,5.32-15.53,6.09-5.57.79-11.32.18-16.61-1.68l-1.96-.77c-.64-.27-1.33-.47-1.93-.83l-3.69-1.98-3.45-2.36c-.59-.37-1.1-.85-1.63-1.29l-1.58-1.35c-.52-.46-1.07-.88-1.56-1.37l-1.44-1.5-1.43-1.5c-.49-.49-.96-1-1.37-1.55l-2.57-3.24-.64-.81-.57-.86-1.14-1.72c-6.08-9.16-10.29-19.36-13.46-29.75l-.62-1.94-.52-1.97-1.04-3.94c-.34-1.32-.71-2.63-1.01-3.95l-.89-3.96c-1.22-5.27-2.27-10.58-3.28-15.9-1.97-10.65-3.48-21.4-4.12-32.25-.38-5.42-.37-10.88-.14-16.33.26-5.45.95-10.92,2.36-16.28.04-.19.28-.9.64-2,.2-.54.36-1.2.67-1.91.3-.71.63-1.49.99-2.34.41-.83.89-1.7,1.38-2.62.29-.44.59-.89.89-1.35.31-.46.6-.93.99-1.36,1.37-1.82,3.31-3.47,5.58-4.49,2.27-1.03,4.93-1.16,7.11-.44,2.2.7,3.87,2.09,4.98,3.43.31.31.54.67.76,1,.21.33.45.63.6.95.3.64.6,1.17.76,1.64.3.96.43,1.5.34,1.53-.26.13-.93-2.11-3.27-4.37-1.13-1.12-2.72-2.21-4.61-2.66-1.88-.47-4-.21-5.82.73-1.82.95-3.41,2.41-4.56,4.1-.33.38-.57.83-.83,1.25-.26.42-.51.84-.75,1.25-.41.87-.82,1.68-1.16,2.46-.3.8-.58,1.54-.83,2.21-.26.66-.4,1.3-.56,1.81-.3,1.04-.51,1.71-.55,1.9-1.33,5.08-2.01,10.37-2.26,15.69-.23,5.32-.24,10.67.14,16.01.63,10.69,2.13,21.34,4.08,31.9,1,5.28,2.05,10.55,3.26,15.79l.88,3.93c.3,1.31.67,2.59,1,3.89l1.02,3.88.51,1.94.61,1.91c3.11,10.21,7.24,20.17,13.1,29l1.1,1.65.55.83.61.78,2.46,3.1c.39.53.84,1.01,1.31,1.48l1.36,1.42,1.36,1.42c.46.47.99.86,1.48,1.3l1.49,1.28c.5.42.98.88,1.53,1.22l3.23,2.21,3.44,1.84c.56.34,1.19.51,1.79.76l1.81.71c4.88,1.71,10.15,2.27,15.27,1.55,5.12-.71,10.06-2.67,14.33-5.62,8.57-5.85,14.56-15.49,15.54-25.81.21-1.28.15-2.58.15-3.87.06-1.3-.17-2.57-.31-3.86-.08-1.29-.48-2.54-.76-3.8-.25-1.26-.72-2.5-1.12-3.75-1.79-4.88-4.37-9.58-8.28-12.77-.27-.22-2.03-1.84-5.11-2.97-1.54-.55-3.41-.9-5.41-.83-1.99.05-4.12.55-5.97,1.52-.92.48-1.78,1.08-2.45,1.8-.67.71-1.13,1.54-1.18,2.32-.04.91.13,1.91.49,2.5.36.58.91.65,1.49.27.55-.37.92-.99,1.08-1.56.17-.58.14-1.13.07-1.58-.16-.9-.49-1.38-.39-1.45.05-.04.55.31.94,1.29.18.49.32,1.15.21,1.9-.11.75-.45,1.61-1.24,2.27-.39.32-.93.6-1.6.57-.66,0-1.29-.44-1.65-.93-.38-.49-.58-1.04-.73-1.59-.15-.57-.24-1.08-.25-1.71-.02-1.35.62-2.56,1.4-3.51.8-.96,1.78-1.73,2.83-2.36,4.24-2.55,9.56-2.63,13.19-1.44,3.68,1.18,5.79,3.02,6.09,3.26Z"/><path class="cls-1" d="M45.82,127.45c-3.91,3.19-6.48,7.89-8.28,12.77-.41,1.24-.87,2.48-1.12,3.75-.29,1.26-.68,2.5-.76,3.8-.14,1.28-.38,2.56-.31,3.86,0,1.29-.06,2.59.15,3.87.97,10.32,6.97,19.96,15.54,25.81,4.27,2.95,9.21,4.91,14.33,5.62,5.12.73,10.38.17,15.27-1.55l1.81-.71c.6-.25,1.23-.42,1.79-.76l3.44-1.84,3.23-2.21c.56-.34,1.03-.8,1.53-1.22l1.49-1.28c.49-.43,1.02-.83,1.48-1.3l1.36-1.42,1.36-1.42c.46-.47.91-.95,1.31-1.48l2.46-3.1.61-.78.55-.83,1.1-1.65c5.86-8.83,9.99-18.79,13.1-29l.61-1.91.51-1.94,1.02-3.88c.33-1.3.7-2.58,1-3.89l.88-3.93c1.22-5.24,2.26-10.51,3.26-15.79,1.95-10.56,3.45-21.21,4.08-31.9.37-5.34.37-10.69.14-16.01-.25-5.32-.93-10.61-2.26-15.69-.03-.19-.25-.85-.55-1.9-.17-.52-.3-1.15-.56-1.81-.25-.67-.53-1.41-.83-2.21-.34-.78-.75-1.59-1.16-2.46-.24-.41-.49-.82-.75-1.25-.26-.42-.5-.87-.83-1.25-1.14-1.69-2.74-3.15-4.56-4.1-1.82-.95-3.94-1.2-5.82-.73-1.89.45-3.48,1.54-4.61,2.66-2.34,2.25-3.01,4.49-3.27,4.37-.09-.03.03-.58.34-1.53.16-.48.45-1.01.76-1.64.16-.31.39-.61.6-.95.22-.33.45-.68.76-1,1.11-1.34,2.78-2.73,4.98-3.43,2.18-.72,4.84-.59,7.11.44,2.27,1.02,4.21,2.67,5.58,4.49.39.43.69.9.99,1.36.3.46.6.91.89,1.35.49.92.97,1.79,1.38,2.62.36.85.69,1.64.99,2.34.31.71.47,1.36.67,1.91.36,1.1.6,1.81.64,2,1.4,5.36,2.1,10.83,2.36,16.28.24,5.45.24,10.91-.14,16.33-.64,10.85-2.15,21.61-4.12,32.25-1.01,5.32-2.06,10.63-3.28,15.9l-.89,3.96c-.3,1.32-.68,2.63-1.01,3.95l-1.04,3.94-.52,1.97-.62,1.94c-3.16,10.39-7.38,20.59-13.46,29.75l-1.14,1.72-.57.86-.64.81-2.57,3.24c-.41.55-.88,1.06-1.37,1.55l-1.43,1.5-1.44,1.5c-.49.49-1.04.91-1.56,1.37l-1.58,1.35c-.53.44-1.03.92-1.63,1.29l-3.45,2.36-3.69,1.98c-.6.36-1.28.55-1.93.83l-1.96.77c-5.29,1.86-11.04,2.47-16.61,1.68-5.57-.77-10.93-2.91-15.53-6.09-9.24-6.31-15.7-16.67-16.77-27.89-.22-1.39-.16-2.8-.16-4.2-.06-1.41.18-2.8.34-4.19.1-1.41.51-2.75.83-4.12.29-1.38.77-2.68,1.2-4,1.91-5.17,4.65-10.32,9.16-14.02.3-.24,2.41-2.08,6.09-3.26,3.63-1.19,8.95-1.12,13.19,1.44,1.05.63,2.03,1.4,2.83,2.36.78.95,1.42,2.16,1.4,3.51-.01.63-.11,1.14-.25,1.71-.15.55-.35,1.1-.73,1.59-.36.49-.99.92-1.65.93-.67.03-1.21-.25-1.6-.57-.79-.66-1.13-1.53-1.24-2.27-.11-.76.03-1.42.21-1.9.39-.98.89-1.34.94-1.29.11.07-.23.55-.39,1.45-.08.44-.1,1,.07,1.58.16.57.52,1.19,1.08,1.56.58.38,1.13.31,1.49-.27.37-.59.53-1.6.49-2.5-.05-.78-.5-1.62-1.18-2.32-.67-.71-1.53-1.31-2.45-1.8-1.85-.97-3.98-1.47-5.97-1.52-2-.07-3.87.28-5.41.83-3.08,1.13-4.84,2.76-5.11,2.97Z"/><path class="cls-1" d="M142.13,57.88c-.05,7.78,1.54,15.64,3.52,23.3,2.06,7.67,4.61,15.22,7.55,22.61,2.96,7.39,6.22,14.68,9.98,21.65,3.77,6.99,8.08,13.69,12.61,20.26,4.52,6.57,9.25,13.02,13.95,19.52,4.69,6.5,9.37,13.04,13.62,19.91,4.23,6.86,8.11,14.05,10.73,21.8,2.58,7.65,4.67,15.5,5.81,23.55.04.56,1.03,7.55.17,14.45-.22,1.72-.55,3.42-1.04,4.98-.51,1.55-1.11,3-2.19,4.01-.11.13-.32.23-.48.34-.16.12-.35.18-.53.23-.36.1-.73.06-1.02-.08-.6-.29-.9-.79-1.05-1.13-.32-.71-.32-1.15-.25-1.18h0c.11-.05.3.35.73.87.21.27.48.52.82.61.36.09.72-.1,1-.45.67-.8,1.12-2.17,1.43-3.63.31-1.47.49-3.1.57-4.74.32-6.6-.95-13.33-.99-13.88-1.11-7.81-3.15-15.51-5.69-23.03-2.52-7.45-6.29-14.46-10.46-21.21-4.19-6.75-8.83-13.25-13.51-19.74-4.69-6.48-9.43-12.95-13.99-19.57-4.56-6.61-8.93-13.4-12.77-20.51-3.85-7.12-7.13-14.48-10.13-21.96-2.98-7.49-5.57-15.13-7.66-22.94-2.01-7.82-3.66-15.81-3.61-24.08.02-.3.04-2.22.5-4.95.24-1.39.69-2.91,1.29-4.48.61-1.56,1.39-3.17,2.5-4.64.55-.73,1.23-1.43,2.12-1.94.44-.25.96-.44,1.52-.48.53-.05,1.07.01,1.61.3.53.28.92.79,1.08,1.27.17.51.2.94.13,1.46-.07.52-.3,1.01-.74,1.25-.41.29-.74.39-1.11.5-.72.15-1.45.13-2.03-.28-.29-.18-.5-.54-.52-.85-.01-.16,0-.31.05-.43.03-.13.08-.24.14-.33.48-.7.92-.81.96-.77.09.08-.24.42-.44,1-.08.3-.04.55.26.66.29.14.8.11,1.26-.07.49-.23.88-.47.82-.88,0-.2-.05-.51-.16-.71-.11-.21-.25-.34-.42-.4-.17-.07-.46-.09-.72-.03-.25.04-.51.16-.77.34-.51.36-1.01.92-1.42,1.57-1.64,2.62-2.52,5.94-2.83,8.35-.28,2.5-.22,4.32-.24,4.59Z"/><path class="cls-1" d="M122.79,57.83c.05,8.27-1.6,16.26-3.61,24.08-2.09,7.81-4.68,15.45-7.66,22.94-2.99,7.48-6.28,14.83-10.13,21.96-3.84,7.11-8.21,13.9-12.77,20.51-4.56,6.62-9.3,13.09-13.99,19.57-4.68,6.49-9.32,12.99-13.51,19.74-4.17,6.75-7.94,13.77-10.46,21.21-2.54,7.52-4.58,15.22-5.69,23.03-.04.55-1.31,7.28-.99,13.88.09,1.64.26,3.27.57,4.74.31,1.46.76,2.83,1.43,3.63.28.36.64.55,1,.45.33-.09.61-.34.82-.61.43-.53.62-.92.73-.87h0c.07.03.08.46-.25,1.18-.15.34-.45.84-1.05,1.13-.29.14-.66.18-1.02.08-.18-.05-.37-.1-.53-.23-.16-.11-.37-.21-.48-.34-1.08-1.01-1.68-2.46-2.19-4.01-.49-1.56-.82-3.26-1.04-4.98-.87-6.89.13-13.88.17-14.45,1.14-8.06,3.23-15.91,5.81-23.55,2.62-7.75,6.5-14.94,10.73-21.8,4.26-6.86,8.93-13.41,13.62-19.91,4.7-6.5,9.43-12.95,13.95-19.52,4.53-6.57,8.84-13.27,12.61-20.26,3.77-6.97,7.02-14.26,9.98-21.65,2.94-7.4,5.5-14.95,7.55-22.61,1.98-7.66,3.57-15.52,3.52-23.3-.02-.27.04-2.09-.24-4.59-.31-2.41-1.19-5.73-2.83-8.35-.41-.65-.9-1.21-1.42-1.57-.26-.18-.52-.3-.77-.34-.26-.06-.55-.04-.72.03-.18.07-.32.19-.42.4-.11.2-.16.51-.16.71-.05.42.33.65.82.88.46.18.97.21,1.26.07.3-.11.34-.35.26-.66-.2-.58-.53-.92-.44-1,.04-.04.48.07.96.77.06.09.11.19.14.33.05.12.06.27.05.43-.02.31-.23.68-.52.85-.58.4-1.31.43-2.03.28-.37-.11-.7-.21-1.11-.5-.44-.23-.66-.73-.74-1.25-.07-.51-.04-.95.13-1.46.16-.49.55-1,1.08-1.27.54-.28,1.08-.34,1.61-.3.55.04,1.08.23,1.52.48.89.51,1.57,1.21,2.12,1.94,1.11,1.47,1.89,3.08,2.5,4.64.6,1.56,1.05,3.09,1.29,4.48.46,2.73.47,4.65.5,4.95Z"/><path class="cls-1" d="M120.29,279.7c-3.7-3.71-8.07-6.75-12.83-9.02-1.16-.64-2.41-1.06-3.63-1.57-.61-.24-1.22-.52-1.84-.72l-1.87-.59c-2.53-.71-5.13-1.3-7.77-1.74-10.57-1.82-21.41-2.72-32.16-4.35-10.74-1.62-21.56-3.72-31.8-7.88-5.1-2.09-10.04-4.76-14.38-8.29-4.34-3.51-8.03-7.97-10.45-13.06-.04-.09-.2-.42-.45-.96-.21-.55-.45-1.3-.74-2.18-.67-1.73-1.08-4.09-1.5-6.38-.2-2.33-.44-4.62-.26-6.34.09-1.71.23-2.83.43-2.83.46,0,.74,4.45,1.82,8.79.65,2.13,1.23,4.3,1.98,5.85.34.79.61,1.47.83,1.96.26.48.43.78.47.86,2.23,4.69,5.61,8.79,9.67,12.08,4.06,3.31,8.76,5.85,13.67,7.86,9.87,4.01,20.5,6.09,31.14,7.69,10.67,1.62,21.45,2.51,32.24,4.37,2.7.46,5.39,1.06,8.07,1.81l2,.64c.67.22,1.29.51,1.94.76,1.28.54,2.6.98,3.82,1.65,5.02,2.39,9.67,5.61,13.62,9.58.32.23,3.56,3.85,5.81,7.98,1.12,2.06,2,4.2,2.5,5.85.5,1.65.61,2.81.41,2.85-.19.05-.65-.97-1.44-2.43-.79-1.47-1.9-3.38-3.18-5.21-2.57-3.65-5.81-6.81-6.12-7.03Z"/><path class="cls-1" d="M139.75,277.69c3.94-3.97,8.6-7.19,13.62-9.58,1.22-.67,2.54-1.12,3.82-1.65.65-.25,1.28-.54,1.94-.76l2-.64c2.68-.75,5.38-1.36,8.07-1.81,10.79-1.86,21.58-2.74,32.24-4.37,10.64-1.6,21.27-3.68,31.14-7.69,4.91-2.02,9.6-4.56,13.67-7.86,4.06-3.29,7.44-7.39,9.67-12.08.04-.08.21-.38.47-.86.23-.49.49-1.17.83-1.96.76-1.55,1.33-3.72,1.98-5.85,1.07-4.33,1.36-8.79,1.82-8.79.2,0,.33,1.12.43,2.83.18,1.72-.06,4-.26,6.34-.42,2.29-.83,4.65-1.5,6.38-.29.88-.53,1.63-.74,2.18-.25.54-.41.88-.45.96-2.42,5.1-6.1,9.55-10.45,13.06-4.35,3.53-9.29,6.19-14.38,8.29-10.24,4.16-21.06,6.25-31.8,7.88-10.75,1.63-21.59,2.53-32.16,4.35-2.64.45-5.24,1.03-7.77,1.74l-1.87.59c-.62.2-1.23.48-1.84.72-1.21.51-2.47.93-3.63,1.57-4.76,2.26-9.13,5.3-12.83,9.02-.31.22-3.55,3.37-6.12,7.03-1.28,1.82-2.4,3.74-3.18,5.21-.79,1.47-1.25,2.48-1.44,2.43-.19-.05-.09-1.2.41-2.85.49-1.65,1.37-3.79,2.5-5.85,2.24-4.12,5.48-7.75,5.81-7.98Z"/></g></svg>