<?xml version="1.0" encoding="UTF-8"?><svg id="Line" xmlns="http://www.w3.org/2000/svg" viewBox="0 0 358 632"><defs><style>.cls-1{fill:#fff;stroke-width:0px;}</style></defs><g id="Banner_5_Lines"><path class="cls-1" d="M32.43,80.96c-2.78-2.24-5.4-4.77-7.53-7.76-2.12-2.97-3.71-6.52-4.05-10.31-.06-.47-.05-.94-.08-1.41-.02-.22,0-.49.01-.76,0-.27.04-.53.09-.79.17-1.04.51-2,.94-2.87.87-1.75,2.01-3.25,3.25-4.59,2.49-2.69,5.35-4.89,8.3-6.87,5.93-3.94,12.31-7.03,18.81-9.71,6.51-2.68,13.17-4.92,19.91-6.87,13.48-3.89,27.26-6.61,41.11-8.6,13.86-1.97,27.81-3.18,41.78-3.82.5-.02,6.51-.13,12.4.01,5.89.13,11.64.49,11.64.88,0,.4-5.74.75-11.6,1.14-6.09.41-11.85.79-12.32.82-13.89.63-27.75,1.84-41.51,3.79-13.75,1.97-27.4,4.67-40.72,8.51-6.66,1.93-13.23,4.14-19.62,6.77-6.38,2.63-12.61,5.66-18.31,9.44-2.83,1.9-5.53,4-7.78,6.43-1.12,1.21-2.1,2.53-2.78,3.91-.34.69-.57,1.39-.69,2.08-.03.17-.06.34-.06.51-.01.16-.02.33,0,.54.03.4,0,.8.07,1.2.29,3.19,1.62,6.24,3.54,8.92,1.91,2.7,4.35,5.06,7,7.19.19.15,1.39,1.18,3.19,2.54,1.8,1.36,4.21,3.03,6.67,4.58,4.91,3.13,9.95,5.92,9.77,6.29-.16.34-5.52-1.81-10.78-4.54-2.63-1.36-5.22-2.89-7.18-4.18-1.95-1.29-3.27-2.3-3.47-2.47Z"/><path class="cls-1" d="M37.66,499.85V49.91c-.01-.09,0-.17.09-.19l.21-.12.42-.24.8-.47.83-.48,1.66-.96c2.27-1.21,4.32-2.74,6.45-4.16,1.05-.72,2.01-1.57,3.02-2.35l1.5-1.19,1.39-1.3c3.75-3.42,7.07-7.33,9.51-11.74.58-1.11,1.21-2.2,1.66-3.37.24-.58.52-1.14.72-1.73l.6-1.77c.35-1.19.67-2.4.87-3.62.06-.3.11-.61.14-.91l.09-.78c.05-.31.05-.67.07-1,0-1.48-.07-3.05-.13-4.66l3.23,3.08,1.62,1.54.4.39.23.2.46.4,1.84,1.58c.62.52,1.27,1,1.9,1.51,1.25,1.02,2.61,1.92,3.92,2.87,1.36.88,2.7,1.79,4.1,2.6,2.77,1.68,5.68,3.13,8.62,4.52,2.97,1.3,5.98,2.56,9.07,3.59.74.26,5.61,2.03,12.75,3.72,7.12,1.74,16.53,3.23,25.92,4.08,9.39.88,18.74,1.22,25.73,1.45,3.41.12,6.28.23,8.44.3,2.03.09,3.19.19,3.19.29s-1.16.19-3.19.29c-2.03.09-4.94.18-8.44.23-7,.12-16.39.08-25.88-.55-9.48-.6-19.05-1.9-26.34-3.53-7.31-1.57-12.33-3.32-13.1-3.58-3.17-1.05-6.26-2.34-9.32-3.69-3.03-1.42-6.03-2.92-8.9-4.66-1.45-.84-2.84-1.78-4.25-2.7-1.36-.98-2.76-1.91-4.06-2.97-.66-.52-1.33-1.02-1.97-1.56l-1.91-1.64-.48-.41-.24-.2-.04-.04-.17-.16-.31-.29-.02.19c-.03.34-.09.68-.16,1.02-.22,1.35-.57,2.67-.95,3.97l-.65,1.93c-.22.64-.52,1.25-.77,1.88-.49,1.26-1.17,2.43-1.79,3.63-2.62,4.72-6.13,8.86-10.06,12.44l-1.46,1.36-1.56,1.24c-1.05.81-2.05,1.7-3.15,2.45-2.2,1.47-4.34,3.05-6.68,4.31l-2.62,1.51v448.44c-.02,1.59-.22,20.85-.42,39.87-.13,9.47-.28,18.83-.45,25.83-.09,3.5-.17,6.41-.27,8.44-.09,2.03-.19,3.19-.29,3.19s-.19-1.16-.29-3.19c-.09-2.03-.18-4.94-.27-8.44-.17-7-.32-16.36-.45-25.83-.2-19.02-.4-38.27-.42-39.87Z"/><path class="cls-1" d="M158.98,618.23c-11.64-.21-23.29-.59-34.92-1.29-11.63-.7-23.26-1.67-34.83-3.18-11.57-1.52-23.12-3.52-34.4-6.87-5.62-1.72-11.2-3.75-16.4-6.76-2.59-1.5-5.08-3.29-7.23-5.54-2.1-2.26-3.87-5.16-4.21-8.48-.03-.22-.19-1.79.3-3.88.49-2.08,1.76-4.51,3.47-6.44,1.69-1.95,3.73-3.47,5.39-4.34,1.66-.89,2.89-1.13,2.95-.95.07.19-.97.77-2.34,1.88-1.38,1.1-3.08,2.75-4.41,4.66-1.35,1.9-2.22,4.05-2.48,5.73-.25,1.69-.05,2.86-.03,3.03.26,2.52,1.63,4.87,3.46,6.84,1.87,1.96,4.14,3.62,6.58,5.02,4.88,2.82,10.3,4.81,15.79,6.49,11.03,3.28,22.47,5.27,33.95,6.78,11.49,1.5,23.05,2.47,34.63,3.17,11.58.69,23.19,1.07,34.8,1.28.41.02,5.4.25,10.29.55,4.89.29,9.68.65,9.68,1.05,0,.39-4.79.74-9.7.97-4.9.22-9.91.3-10.33.28Z"/><path class="cls-1" d="M53.51,548.29V149.33c0-2.38.64-57.18,1.43-57.18s1.43,54.81,1.43,57.18v398.96c0,2.38-.64,57.18-1.43,57.18s-1.43-54.81-1.43-57.18Z"/><path class="cls-1" d="M323.77,78.74c2.64-2.13,5.08-4.49,7-7.19,1.91-2.68,3.25-5.73,3.54-8.92.06-.4.04-.8.07-1.2.02-.21,0-.38,0-.54,0-.17-.02-.34-.06-.51-.11-.68-.35-1.39-.69-2.08-.69-1.38-1.66-2.7-2.78-3.91-2.25-2.43-4.95-4.53-7.78-6.43-5.69-3.78-11.93-6.81-18.31-9.44-6.39-2.63-12.96-4.84-19.62-6.77-13.32-3.84-26.97-6.54-40.72-8.51-13.75-1.96-27.62-3.16-41.51-3.79-.46-.03-6.22-.42-12.32-.82-5.85-.39-11.59-.74-11.6-1.14,0-.39,5.75-.75,11.64-.88,5.89-.15,11.9-.04,12.4-.01,13.97.64,27.92,1.85,41.78,3.82,13.85,1.98,27.63,4.71,41.11,8.6,6.74,1.95,13.4,4.19,19.91,6.87,6.5,2.69,12.88,5.77,18.81,9.71,2.95,1.98,5.8,4.18,8.3,6.87,1.24,1.35,2.38,2.85,3.25,4.59.43.88.76,1.84.93,2.87.05.26.08.52.09.79.02.27.03.54.01.76-.03.47-.01.95-.08,1.41-.34,3.78-1.93,7.33-4.05,10.31-2.13,3-4.75,5.52-7.53,7.76-.2.16-1.52,1.18-3.47,2.47-1.95,1.29-4.54,2.82-7.18,4.18-5.26,2.74-10.62,4.88-10.78,4.54h0c-.18-.37,4.86-3.15,9.77-6.29,2.46-1.56,4.87-3.23,6.67-4.58,1.8-1.36,3-2.38,3.19-2.54Z"/><path class="cls-1" d="M317.48,499.85V51.42l-2.62-1.51c-2.33-1.25-4.47-2.83-6.68-4.31-1.09-.75-2.09-1.63-3.15-2.45l-1.56-1.24-1.46-1.36c-3.93-3.59-7.45-7.72-10.06-12.44-.62-1.2-1.3-2.36-1.79-3.63-.26-.63-.56-1.23-.77-1.88l-.65-1.93c-.38-1.3-.73-2.62-.95-3.97-.07-.34-.12-.67-.16-1.02l-.02-.19-.31.29-.17.16-.04.04-.24.2-.48.41-1.91,1.64c-.64.54-1.32,1.04-1.97,1.56-1.3,1.06-2.7,1.99-4.06,2.97-1.4.91-2.8,1.86-4.25,2.7-2.87,1.74-5.87,3.24-8.9,4.66-3.06,1.34-6.15,2.64-9.32,3.69-.76.27-5.79,2.01-13.1,3.58-7.29,1.63-16.86,2.93-26.34,3.53-9.49.63-18.88.66-25.88.55-3.5-.05-6.41-.14-8.44-.23-2.03-.09-3.19-.19-3.19-.29s1.16-.19,3.19-.29c2.15-.08,5.03-.18,8.44-.3,6.99-.23,16.34-.57,25.73-1.45,9.39-.86,18.8-2.34,25.92-4.08,7.14-1.68,12.01-3.46,12.75-3.72,3.09-1.02,6.09-2.28,9.07-3.59,2.94-1.38,5.85-2.83,8.62-4.52,1.4-.81,2.75-1.72,4.1-2.6,1.31-.95,2.67-1.84,3.92-2.87.63-.5,1.29-.98,1.9-1.51l1.84-1.58.46-.4.23-.2.4-.39,1.62-1.54,3.23-3.08c-.06,1.61-.13,3.18-.13,4.66.03.33.03.69.07,1l.09.78c.03.3.08.61.14.91.2,1.22.52,2.42.87,3.62l.6,1.77c.2.59.48,1.15.72,1.73.45,1.17,1.09,2.26,1.66,3.37,2.44,4.4,5.75,8.32,9.51,11.74l1.39,1.3,1.5,1.19c1.01.78,1.96,1.63,3.02,2.35,2.13,1.42,4.18,2.94,6.45,4.16l1.66.96.83.48.8.47.42.24.21.12c.1.03.1.1.09.19v449.94c-.02,1.59-.22,20.85-.42,39.87-.13,9.47-.28,18.83-.45,25.83-.09,3.5-.17,6.41-.27,8.44-.09,2.03-.19,3.19-.29,3.19s-.19-1.16-.29-3.19c-.09-2.03-.18-4.94-.27-8.44-.17-7-.32-16.36-.45-25.83-.2-19.02-.4-38.27-.42-39.87Z"/><path class="cls-1" d="M198.97,615.37c11.61-.21,23.22-.59,34.8-1.28,11.58-.69,23.15-1.67,34.63-3.17,11.47-1.51,22.92-3.5,33.95-6.78,5.49-1.68,10.91-3.67,15.79-6.49,2.44-1.4,4.71-3.06,6.58-5.02,1.83-1.97,3.21-4.32,3.46-6.84.02-.18.22-1.35-.03-3.03-.27-1.68-1.13-3.83-2.48-5.73-1.33-1.91-3.03-3.56-4.41-4.66-1.37-1.11-2.42-1.68-2.34-1.88.06-.18,1.3.06,2.95.95,1.65.87,3.7,2.39,5.39,4.34,1.71,1.93,2.98,4.36,3.47,6.44.49,2.08.32,3.66.3,3.88-.34,3.32-2.11,6.22-4.21,8.48-2.15,2.25-4.63,4.04-7.23,5.54-5.2,3-10.78,5.04-16.4,6.76-11.28,3.35-22.83,5.35-34.4,6.87-11.58,1.51-23.2,2.49-34.83,3.18-11.63.7-23.28,1.08-34.92,1.29-.42.02-5.43-.07-10.33-.28-4.9-.23-9.7-.58-9.7-.97,0-.4,4.79-.76,9.68-1.05,4.89-.3,9.88-.54,10.29-.55Z"/><path class="cls-1" d="M301.63,548.29V149.33c0-2.38.64-57.18,1.43-57.18s1.43,54.81,1.43,57.18v398.96c0,2.38-.64,57.18-1.43,57.18s-1.43-54.81-1.43-57.18Z"/></g></svg>