<?xml version="1.0" encoding="UTF-8"?><svg id="Line" xmlns="http://www.w3.org/2000/svg" viewBox="0 0 356.77 722.48"><defs><style>.cls-1{fill:#fff;stroke-width:0px;}</style></defs><g id="Banner_6_Lines"><path class="cls-1" d="M69.14,90.85c1.78-5.06,4.23-9.89,7.26-14.28,3-4.41,6.37-8.56,10.12-12.31,3.72-3.78,7.65-7.34,11.78-10.62,2.03-1.69,4.17-3.23,6.26-4.84,2.15-1.52,4.26-3.1,6.45-4.56,8.68-5.96,17.68-11.37,26.67-16.75,8.97-5.39,18.01-10.67,26.45-16.7.3-.22,4.05-2.64,7.47-5.33.43-.33.86-.65,1.29-.99l1.19-1.01c.76-.66,1.54-1.23,2.1-1.79,1.19-1.09,2.04-1.78,2.2-1.66s-.41,1.05-1.38,2.41c-.46.7-1.13,1.39-1.81,2.18l-1.07,1.2c-.4.39-.79.78-1.19,1.17-3.18,3.17-6.83,5.91-7.13,6.13-8.61,6.15-17.68,11.44-26.65,16.83-8.98,5.38-17.93,10.76-26.52,16.66-2.17,1.45-4.25,3-6.37,4.5-2.06,1.58-4.17,3.1-6.16,4.76-4.07,3.22-7.91,6.71-11.53,10.39-3.65,3.65-6.91,7.67-9.8,11.91-2.92,4.22-5.25,8.82-6.94,13.63-.04.18-.53,1.27-1.07,2.86-.24.79-.51,1.71-.81,2.71-.15.49-.3.99-.46,1.51-.11.52-.22,1.05-.33,1.58-.22,1.02-.45,2.07-.67,3.1-.17.99-.26,1.93-.4,2.73-.25,1.6-.49,2.68-.69,2.68-.2,0-.33-1.08-.42-2.73-.03-.83-.1-1.8-.08-2.84.09-1.09.18-2.19.27-3.27.05-.57.11-1.13.16-1.68.11-.55.21-1.09.31-1.61.22-1.07.42-2.06.59-2.91.42-1.71.86-2.89.91-3.08Z"/><path class="cls-1" d="M107.41,644.45c-10.28-1.21-20.52-2.81-30.66-5.03-5.06-1.12-10.11-2.38-15.08-3.92-4.97-1.53-9.89-3.27-14.67-5.41-4.76-2.17-9.43-4.65-13.64-7.92-2.1-1.63-4.09-3.46-5.77-5.64-.85-1.07-1.6-2.27-2.19-3.58-.15-.33-.3-.66-.4-1.02-.12-.36-.23-.71-.29-1.06-.14-.7-.31-1.39-.34-2.1-.27-2.83.29-5.74,1.53-8.27,1.24-2.54,3.11-4.7,5.26-6.41,2.15-1.72,4.56-3.01,7.04-4.05l1.88-.71c.63-.23,1.28-.39,1.92-.59.64-.19,1.28-.39,1.93-.51l.97-.21.2-.04h0s0,0,0,0V218.27c0-1.47.16-19.21.42-36.58.13-8.68.28-17.28.45-23.7.09-3.21.17-5.88.27-7.74.09-1.86.19-2.93.29-2.93s.19,1.06.29,2.93.18,4.53.27,7.74c.17,6.42.32,15.01.45,23.7.26,17.37.42,35.1.42,36.58v371.8c-.02.07.04.19-.04.21l-.24.05-.47.1-2.61.57c-.62.12-1.21.3-1.8.48-.59.18-1.2.33-1.78.54l-1.73.65c-2.27.95-4.44,2.12-6.32,3.63-1.88,1.5-3.46,3.35-4.49,5.45-1.03,2.1-1.47,4.44-1.25,6.74.01.58.17,1.14.28,1.71.05.29.13.56.22.81.07.26.19.52.31.77.47,1.03,1.09,2.05,1.84,2.99,1.47,1.91,3.3,3.6,5.27,5.13,3.94,3.07,8.44,5.47,13.05,7.57,4.63,2.08,9.45,3.79,14.33,5.29,4.88,1.52,9.85,2.76,14.85,3.87,10.01,2.19,20.17,3.78,30.37,4.98.73.1,5.48.68,12.21,1.37,6.74.69,15.47,1.38,24.12,1.91,4.33.26,8.64.47,12.66.67,4,.17,7.73.32,10.98.46,3.21.11,5.87.21,7.74.32,1.86.11,2.93.21,2.93.31s-1.06.19-2.93.27c-1.87.08-4.54.15-7.75.22-3.21.04-6.97.03-11.01.03-4.04-.05-8.37-.12-12.71-.25-8.69-.28-17.48-.76-24.26-1.31-6.79-.55-11.58-1.05-12.31-1.15Z"/><path class="cls-1" d="M2.93,476.21c-.32,5.19.44,10.49,1.57,15.68,1.13,5.2,2.82,10.3,4.64,15.33,3.76,10.04,8.43,19.75,13.72,29.12l1.99,3.51c.67,1.16,1.38,2.31,2.07,3.46,1.36,2.32,2.81,4.59,4.26,6.86,2.88,4.54,5.96,8.92,9.24,13.17,6.59,8.49,13.78,16.52,21.26,24.29,7.46,7.79,15.19,15.35,22.86,22.97,7.68,7.63,15.32,15.32,22.53,23.47,7.16,8.16,14,16.79,19.07,26.58,4.87,9.8,8.87,20.02,11.13,30.79.07.38.6,2.89.97,6.5.2,1.8.31,3.88.34,6.1-.02,2.21-.14,4.56-.5,6.88-.37,2.31-.96,4.6-1.89,6.62-.49,1-.99,1.95-1.67,2.75-.65.8-1.41,1.51-2.32,1.88-.89.4-1.88.38-2.61.07-.7-.36-1.19-.82-1.47-1.25-.31-.42-.47-.79-.56-1.04-.09-.25-.12-.4-.08-.42.04-.02.16.08.33.27.17.2.39.5.74.81.32.34.79.63,1.33.83.56.14,1.21.07,1.83-.28.64-.33,1.21-.96,1.71-1.7.52-.72.91-1.62,1.29-2.55.71-1.89,1.14-4.06,1.36-6.26.21-2.2.22-4.44.14-6.56-.13-2.12-.32-4.11-.58-5.83-.49-3.46-1.08-5.87-1.15-6.25-2.18-10.41-6.12-20.52-10.87-30.06-4.89-9.45-11.59-17.93-18.68-26-7.12-8.06-14.73-15.72-22.4-23.34-7.67-7.62-15.4-15.19-22.91-23.02-7.52-7.81-14.78-15.92-21.46-24.52-3.33-4.3-6.48-8.78-9.39-13.38-1.46-2.29-2.92-4.58-4.3-6.93-.7-1.17-1.41-2.32-2.09-3.5l-2.01-3.55c-5.34-9.47-10.07-19.3-13.9-29.52-1.86-5.13-3.58-10.33-4.75-15.7-1.16-5.36-1.97-10.87-1.63-16.49,0-.14.03-.54.07-1.16.09-.62.25-1.45.42-2.45.29-2.02,1.24-4.67,2.7-7.29.74-1.32,1.62-2.65,2.71-3.9,1.08-1.24,2.37-2.41,3.96-3.18.8-.37,1.65-.67,2.55-.73.89-.11,1.75-.02,2.64.29.87.32,1.72,1.1,1.93,2.06.12.47.13.92.02,1.42-.12.5-.4.96-.83,1.2l-.28.15-.23.1c-.15.07-.3.12-.45.18-.3.1-.6.19-.9.24-.59.12-1.17.15-1.71.12-1.2-.05-2.46-.6-2.49-1.52-.01-.44.24-.78.46-1.02.24-.24.47-.42.67-.53.39-.23.6-.27.63-.23.04.05-.13.22-.37.48-.2.26-.62.59-.56,1.15.06.28.36.47.66.55.15.04.31.07.47.08.15.01.31.01.55,0,.45-.02.93-.1,1.41-.25.24-.07.48-.17.72-.27.11-.06.23-.11.35-.18l.17-.1.1-.07c.15-.09.22-.27.24-.44.02-.18,0-.45-.08-.66-.14-.44-.52-.74-1.04-.91-.52-.15-1.23-.2-1.86-.06-.64.07-1.27.35-1.87.66-1.2.67-2.26,1.71-3.15,2.85-.9,1.15-1.64,2.39-2.26,3.62-1.23,2.49-1.97,4.82-2.16,6.64-.12.91-.25,1.66-.31,2.23-.02.58-.03.94-.04,1.07Z"/><path class="cls-1" d="M22.43,654.31c-.38-1.81-.33-3.71.04-5.48.38-1.77,1.03-3.46,1.86-5,1.66-3.14,4.26-5.81,7.32-7.58,3.05-1.8,6.44-2.78,9.8-3.34,3.38-.53,6.78-.64,10.15-.5,6.73.29,13.33,1.5,19.79,3.08,6.47,1.59,12.8,3.62,19.04,5.86,12.47,4.52,24.56,9.99,36.33,16.03,11.77,6.06,23.24,12.7,34.26,20.05.39.27,5.05,3.56,9.37,7.11,4.35,3.51,8.25,7.36,7.99,7.65-.26.29-4.59-2.97-9.2-6.03-4.58-3.1-9.36-6.09-9.75-6.35-10.91-7.28-22.3-13.87-33.98-19.88-11.68-5.99-23.68-11.41-36-15.88-6.17-2.21-12.41-4.21-18.75-5.77-6.33-1.55-12.77-2.73-19.22-3-3.22-.13-6.44-.02-9.57.47-3.12.52-6.17,1.42-8.81,2.98-2.65,1.54-4.81,3.77-6.25,6.46-1.44,2.71-2.23,5.72-1.62,8.57.07.19.21,1.56,1.14,3.3.87,1.76,2.6,3.81,4.66,5.53,4.13,3.48,9.22,5.54,9.08,5.89-.1.39-5.53-.99-10.3-4.29-2.37-1.63-4.52-3.78-5.73-5.84-1.27-2.03-1.57-3.79-1.65-4.03Z"/><path class="cls-1" d="M284.93,91.8c-1.69-4.81-4.02-9.41-6.94-13.63-2.89-4.24-6.14-8.26-9.8-11.91-3.62-3.68-7.46-7.17-11.53-10.39-1.99-1.66-4.11-3.18-6.16-4.76-2.12-1.51-4.21-3.06-6.37-4.5-8.58-5.9-17.54-11.28-26.52-16.66-8.97-5.39-18.04-10.68-26.65-16.83-.3-.22-3.95-2.97-7.13-6.13-.39-.38-.79-.77-1.19-1.17l-1.07-1.2c-.68-.79-1.35-1.48-1.81-2.18-.97-1.36-1.53-2.29-1.38-2.41s1.01.57,2.2,1.66c.57.57,1.34,1.13,2.1,1.79l1.19,1.01c.43.33.86.66,1.29.99,3.42,2.69,7.17,5.11,7.47,5.33,8.43,6.03,17.48,11.31,26.45,16.7,8.98,5.38,17.99,10.79,26.67,16.75,2.19,1.46,4.3,3.03,6.45,4.56,2.09,1.61,4.23,3.14,6.26,4.84,4.14,3.28,8.07,6.84,11.78,10.62,3.75,3.75,7.12,7.91,10.12,12.31,3.03,4.39,5.48,9.21,7.26,14.28.04.19.48,1.36.91,3.08.17.85.37,1.84.59,2.91.1.52.21,1.06.31,1.61.05.55.1,1.11.16,1.68.09,1.08.18,2.18.27,3.27.03,1.04-.04,2.01-.08,2.84-.09,1.65-.23,2.73-.42,2.73-.2,0-.44-1.08-.69-2.68-.14-.8-.23-1.74-.4-2.73-.22-1.04-.45-2.08-.67-3.1-.11-.54-.22-1.07-.33-1.58-.16-.52-.31-1.02-.46-1.51-.3-1-.57-1.92-.81-2.71-.54-1.59-1.03-2.68-1.07-2.86Z"/><path class="cls-1" d="M132.95,92.91c4.61,7.8,11.39,14.34,19.31,18.76,3.96,2.23,8.22,3.9,12.62,5.02,4.41,1.09,8.95,1.64,13.51,1.66,4.55-.01,9.1-.56,13.51-1.66,4.4-1.13,8.66-2.8,12.62-5.02,7.92-4.42,14.7-10.96,19.31-18.76.18-.27,2.29-3.55,3.78-7.09.76-1.76,1.33-3.57,1.72-4.94.2-.69.35-1.27.47-1.68.13-.41.24-.64.34-.64.1,0,.17.25.23.68.07.43.1,1.06.06,1.8-.06,1.49-.36,3.49-.91,5.43-1.07,3.92-3.03,7.6-3.22,7.88-4.89,8.27-12.01,15.13-20.38,19.81-4.17,2.35-8.68,4.11-13.31,5.3-4.65,1.15-9.43,1.73-14.21,1.74-4.78-.01-9.56-.59-14.21-1.74-4.64-1.19-9.14-2.95-13.31-5.3-8.36-4.67-15.49-11.53-20.38-19.81-.19-.28-2.15-3.96-3.22-7.88-.55-1.95-.85-3.94-.91-5.43-.04-.75-.01-1.37.06-1.8.06-.43.13-.68.23-.68.1,0,.21.23.34.64.12.41.26.99.47,1.68.39,1.38.96,3.19,1.72,4.94,1.48,3.54,3.6,6.82,3.78,7.09Z"/><path class="cls-1" d="M29.85,92.75c5.1,3.56,10.89,6.23,16.78,8.56,5.9,2.32,11.98,4.24,18.11,5.95,12.28,3.41,24.81,5.98,37.4,8.09,12.6,2.1,25.29,3.72,38.01,4.91,12.72,1.17,25.49,1.94,38.24,1.96,12.75-.03,25.52-.79,38.24-1.96,12.72-1.18,25.41-2.8,38.01-4.91,12.59-2.11,25.12-4.68,37.4-8.09,6.13-1.72,12.21-3.64,18.11-5.95,5.88-2.33,11.67-4.99,16.78-8.56.17-.14.89-.58,1.89-1.38,1.02-.77,2.35-1.89,3.69-3.35,1.33-1.47,2.69-3.32,3.36-5.55.21-.55.27-1.13.4-1.71.04-.59.12-1.18.08-1.8-.03-1.23-.23-2.46-.66-3.6-.84-2.3-2.65-4.16-4.73-5.26-2.08-1.12-4.33-1.62-6.24-1.76-1.93-.14-3.54.11-4.58.47-1.06.35-1.48.86-1.58.79-.08-.03.24-.74,1.34-1.32,1.07-.57,2.78-1.03,4.84-1.05,2.06-.03,4.51.32,6.93,1.44,2.41,1.08,4.73,3.17,5.89,5.92.59,1.36.9,2.82.99,4.25.07.71.02,1.45,0,2.17-.11.71-.18,1.43-.39,2.1-.71,2.74-2.23,4.94-3.65,6.63-1.45,1.69-2.86,2.95-3.93,3.81-1.06.89-1.8,1.37-1.98,1.52-5.42,3.78-11.37,6.49-17.38,8.88-6.03,2.37-12.18,4.31-18.39,6.05-12.42,3.45-25.03,6.03-37.7,8.16-12.68,2.11-25.42,3.74-38.21,4.93-12.79,1.18-25.63,1.95-38.5,1.97-12.88-.03-25.71-.8-38.5-1.97-12.79-1.19-25.54-2.82-38.21-4.93-12.67-2.13-25.28-4.71-37.7-8.16-6.2-1.74-12.36-3.68-18.39-6.05-6.01-2.39-11.96-5.1-17.38-8.88-.18-.15-.93-.63-1.98-1.52-1.07-.86-2.48-2.12-3.93-3.81-1.43-1.69-2.94-3.89-3.65-6.63-.21-.67-.28-1.39-.39-2.1-.03-.72-.08-1.46,0-2.17.1-1.43.41-2.9.99-4.25,1.15-2.75,3.48-4.84,5.89-5.92,2.42-1.12,4.87-1.47,6.93-1.44,2.07.02,3.77.48,4.84,1.05,1.1.57,1.42,1.29,1.34,1.32-.09.07-.51-.44-1.58-.79-1.05-.36-2.66-.61-4.58-.47-1.91.14-4.16.63-6.24,1.76-2.09,1.1-3.9,2.96-4.73,5.26-.43,1.14-.63,2.37-.66,3.6-.04.62.04,1.21.08,1.8.12.58.19,1.16.4,1.71.67,2.23,2.03,4.08,3.36,5.55,1.34,1.47,2.67,2.58,3.69,3.35,1,.8,1.72,1.24,1.89,1.38Z"/><path class="cls-1" d="M7.89,116.45c.23-2.08.89-4.09,1.83-5.91.94-1.83,2.15-3.46,3.47-4.95,2.66-2.98,5.8-5.38,9.07-7.48,6.56-4.19,13.66-7.24,20.84-9.91,14.42-5.24,29.32-8.76,44.3-11.6,15-2.8,30.12-4.82,45.3-6.24,15.18-1.4,30.42-2.18,45.67-2.2,15.26.02,30.49.8,45.67,2.2,15.18,1.41,30.3,3.43,45.3,6.24,14.98,2.84,29.89,6.37,44.3,11.6,7.18,2.67,14.28,5.72,20.84,9.91,3.26,2.1,6.4,4.5,9.07,7.48,1.33,1.49,2.54,3.12,3.47,4.95.94,1.82,1.6,3.83,1.83,5.91.03.15.04.5.06,1.04.05.54,0,1.24-.06,2.09-.13,1.68-.54,4.01-1.68,6.44-1.1,2.45-2.91,4.93-5.18,7.14-2.26,2.21-4.94,4.19-7.76,5.82-5.64,3.31-11.69,5.48-16.27,6.79-4.58,1.31-7.71,1.76-7.75,1.57-.04-.2,2.98-1.01,7.41-2.62,4.41-1.61,10.26-4.04,15.55-7.45,2.65-1.68,5.11-3.66,7.13-5.77,2.02-2.11,3.57-4.39,4.46-6.54.93-2.14,1.21-4.12,1.29-5.57.04-.73.06-1.33.01-1.76-.03-.44-.03-.73-.06-.85-.37-3.42-2.19-6.61-4.6-9.28-2.41-2.7-5.36-4.97-8.48-6.97-6.27-4.01-13.22-7.01-20.28-9.63-14.18-5.15-28.97-8.66-43.85-11.48-14.89-2.78-29.94-4.79-45.04-6.2-15.1-1.39-30.26-2.17-45.41-2.19-15.15.02-30.31.8-45.41,2.19-15.1,1.41-30.14,3.42-45.04,6.2-14.87,2.82-29.67,6.32-43.85,11.48-7.05,2.62-14.01,5.62-20.28,9.63-3.12,2-6.07,4.28-8.48,6.97-2.41,2.67-4.23,5.86-4.6,9.28-.03.12-.03.41-.06.85-.05.43-.02,1.03.01,1.76.08,1.45.36,3.42,1.29,5.57.89,2.15,2.43,4.43,4.46,6.54,2.02,2.11,4.48,4.09,7.13,5.77,5.29,3.41,11.14,5.84,15.55,7.45,4.42,1.62,7.45,2.43,7.41,2.62-.04.19-3.17-.26-7.75-1.57-4.57-1.31-10.63-3.48-16.27-6.79-2.82-1.64-5.5-3.62-7.76-5.82-2.26-2.2-4.08-4.69-5.18-7.14-1.14-2.43-1.55-4.75-1.68-6.44-.06-.85-.11-1.55-.06-2.09.03-.53.03-.89.06-1.04Z"/><path class="cls-1" d="M249.03,641.61c10.2-1.2,20.36-2.79,30.37-4.98,5-1.11,9.97-2.35,14.85-3.87,4.88-1.5,9.7-3.21,14.33-5.29,4.61-2.1,9.12-4.5,13.05-7.57,1.97-1.53,3.8-3.22,5.27-5.13.75-.94,1.37-1.96,1.84-2.99.11-.26.24-.52.31-.77.09-.25.17-.51.22-.81.11-.57.26-1.13.28-1.71.22-2.3-.22-4.64-1.25-6.74-1.03-2.1-2.61-3.95-4.49-5.45-1.89-1.51-4.05-2.68-6.32-3.63l-1.73-.65c-.58-.21-1.19-.36-1.78-.54-.6-.18-1.19-.36-1.8-.48l-2.61-.57-.47-.1-.24-.05c-.08-.02-.02-.14-.04-.21V218.27c0-1.47.16-19.21.42-36.58.13-8.68.28-17.28.45-23.7.09-3.21.17-5.88.27-7.74s.19-2.93.29-2.93.19,1.06.29,2.93c.09,1.86.18,4.53.27,7.74.17,6.42.32,15.01.45,23.7.26,17.37.42,35.1.42,36.58v369.7h0s0,0,0,0l.2.04.97.21c.65.12,1.29.32,1.93.51.64.2,1.29.36,1.92.59l1.88.71c2.48,1.04,4.89,2.33,7.04,4.05,2.14,1.71,4.02,3.87,5.26,6.41,1.24,2.53,1.8,5.44,1.53,8.27-.03.71-.2,1.4-.34,2.1-.06.34-.16.7-.29,1.06-.11.36-.26.69-.4,1.02-.6,1.31-1.34,2.51-2.19,3.58-1.68,2.18-3.67,4-5.77,5.64-4.21,3.28-8.88,5.76-13.64,7.92-4.78,2.14-9.7,3.89-14.67,5.41-4.97,1.54-10.01,2.8-15.08,3.92-10.14,2.22-20.38,3.82-30.66,5.03-.73.11-5.53.61-12.31,1.15-6.79.55-15.57,1.03-24.26,1.31-4.35.13-8.67.2-12.71.25-4.04,0-7.8.02-11.01-.03-3.21-.06-5.88-.14-7.75-.22-1.87-.08-2.93-.17-2.93-.27s1.06-.2,2.93-.31c1.86-.11,4.53-.21,7.74-.32,3.25-.14,6.99-.29,10.98-.46,4.03-.2,8.34-.41,12.66-.67,8.65-.53,17.39-1.22,24.12-1.91,6.74-.69,11.49-1.27,12.21-1.37Z"/><path class="cls-1" d="M356.69,476.02c.34,5.62-.46,11.13-1.63,16.49-1.17,5.37-2.9,10.57-4.75,15.7-3.83,10.22-8.56,20.05-13.9,29.52l-2.01,3.55c-.68,1.18-1.39,2.33-2.09,3.5-1.38,2.34-2.83,4.64-4.3,6.93-2.91,4.59-6.06,9.07-9.39,13.38-6.68,8.61-13.94,16.71-21.46,24.52-7.51,7.83-15.24,15.4-22.91,23.02-7.67,7.62-15.27,15.28-22.4,23.34-7.08,8.06-13.78,16.55-18.68,26-4.75,9.54-8.69,19.65-10.87,30.06-.07.37-.66,2.79-1.15,6.25-.26,1.73-.45,3.72-.58,5.83-.08,2.11-.08,4.35.14,6.56.22,2.2.64,4.37,1.36,6.26.38.93.77,1.83,1.29,2.55.5.74,1.08,1.36,1.71,1.7.63.35,1.27.42,1.83.28.54-.2,1.01-.5,1.33-.83.35-.31.57-.61.74-.81.17-.2.28-.3.33-.27.04.02.02.16-.08.42-.09.26-.24.63-.56,1.04-.28.43-.77.89-1.47,1.25-.73.31-1.72.32-2.61-.07-.91-.37-1.66-1.08-2.32-1.88-.68-.8-1.18-1.75-1.67-2.75-.93-2.02-1.52-4.3-1.89-6.62-.36-2.32-.48-4.66-.5-6.88.03-2.21.14-4.29.34-6.1.36-3.61.89-6.12.97-6.5,2.26-10.78,6.25-21,11.13-30.79,5.08-9.79,11.91-18.42,19.07-26.58,7.2-8.15,14.85-15.85,22.53-23.47,7.68-7.63,15.4-15.19,22.86-22.97,7.48-7.77,14.67-15.8,21.26-24.29,3.29-4.25,6.36-8.63,9.24-13.17,1.45-2.27,2.89-4.54,4.26-6.86.69-1.16,1.4-2.3,2.07-3.46l1.99-3.51c5.28-9.37,9.96-19.08,13.72-29.12,1.82-5.03,3.51-10.13,4.64-15.33,1.13-5.19,1.88-10.49,1.57-15.68-.04-.18.04-.9-.15-1.94-.18-1.05-.26-2.51-.77-4.09-.48-1.61-1.25-3.42-2.28-5.2-.51-.89-1.1-1.77-1.77-2.58-.66-.83-1.42-1.56-2.25-2.15-.82-.61-1.74-1.01-2.66-1.12-.46-.11-.95-.05-1.38-.01-.42.08-.78.23-1.03.45-.51.41-.61,1.34-.24,1.63.08.06.26.17.46.27.19.09.38.18.57.25.38.14.77.24,1.15.3.36.06.79.07,1.03.07.25,0,.51-.05.75-.14.23-.09.44-.26.5-.48.05-.22-.03-.42-.11-.58-.37-.62-.88-.97-.81-1.07.03-.04.17,0,.42.11.25.14.67.37,1.03.83.17.23.33.53.31.88-.02.36-.25.69-.58.92-.33.24-.76.41-1.27.5-.52.09-.9.1-1.38.08-.46-.02-.93-.1-1.42-.23-.24-.06-.48-.15-.73-.24-.23-.1-.48-.2-.8-.4-.6-.38-.83-1.26-.81-1.9,0-.68.29-1.39.8-1.91.5-.53,1.16-.82,1.8-.99.64-.12,1.26-.21,1.91-.12,1.3.08,2.55.56,3.6,1.25,1.06.68,2.01,1.49,2.8,2.39.82.88,1.52,1.83,2.13,2.79,1.23,1.91,2.15,3.84,2.76,5.62.66,1.79.82,3.39,1.05,4.55.11.58.18,1.06.19,1.42.02.36.04.6.04.7Z"/><path class="cls-1" d="M331.54,653.74c.6-2.85-.18-5.86-1.62-8.57-1.43-2.69-3.59-4.92-6.25-6.46-2.64-1.57-5.69-2.47-8.81-2.98-3.13-.49-6.35-.6-9.57-.47-6.45.28-12.89,1.45-19.22,3-6.34,1.55-12.58,3.56-18.75,5.77-12.32,4.47-24.31,9.89-36,15.88-11.68,6.01-23.07,12.6-33.98,19.88-.39.26-5.17,3.25-9.75,6.35-4.61,3.06-8.94,6.32-9.2,6.03-.26-.29,3.64-4.14,7.99-7.65,4.32-3.55,8.98-6.84,9.37-7.11,11.03-7.35,22.5-13.99,34.26-20.05,11.78-6.04,23.86-11.5,36.33-16.03,6.24-2.24,12.57-4.27,19.04-5.86,6.46-1.58,13.06-2.79,19.79-3.08,3.36-.14,6.76-.03,10.15.5,3.37.56,6.76,1.54,9.8,3.34,3.06,1.76,5.66,4.44,7.32,7.58.83,1.55,1.48,3.23,1.86,5,.37,1.77.42,3.66.04,5.48-.08.24-.39,2-1.65,4.03-1.2,2.06-3.35,4.21-5.73,5.84-4.77,3.3-10.19,4.67-10.3,4.29-.14-.35,4.95-2.41,9.08-5.89,2.06-1.71,3.79-3.76,4.66-5.53.93-1.75,1.07-3.11,1.14-3.3Z"/></g></svg>