<?xml version="1.0" encoding="UTF-8"?><svg id="Line" xmlns="http://www.w3.org/2000/svg" viewBox="0 0 376.26 716"><defs><style>.cls-1{fill:#fff;stroke-width:0px;}</style></defs><g id="Banner_8_Lines"><path class="cls-1" d="M118.33,683.06c-5.67-1.77-11.34-3.71-16.77-6.36-2.71-1.34-5.36-2.86-7.8-4.78-2.48-1.99-4.45-4.41-6.16-6.92-3.39-5.08-5.84-10.58-7.98-16.15-2.13-5.58-3.89-11.27-5.48-16.99-3.14-11.46-5.59-23.07-7.72-34.72-2.12-11.66-3.9-23.36-5.5-35.09-3.17-23.46-5.58-47-7.61-70.56-2.03-23.57-3.66-47.16-5.05-70.76-2.76-47.21-4.56-94.47-5.84-141.73-1.27-47.27-1.99-94.54-2.32-141.82-.01-1.69,0-22.02.23-41.92.11-9.95.26-19.8.43-27.16.09-3.68.18-6.74.27-8.87.09-2.14.19-3.35.29-3.35s.19,1.22.29,3.35c.09,2.14.18,5.19.27,8.87.13,7.47.31,17.28.48,27.15.29,19.98.59,40.23.61,41.91.33,47.26,1.05,94.52,2.32,141.77,1.28,47.24,3.08,94.47,5.84,141.64,1.39,23.58,3.02,47.15,5.04,70.69,2.03,23.53,4.44,47.03,7.6,70.42,1.59,11.69,3.37,23.36,5.47,34.96,2.12,11.6,4.55,23.14,7.66,34.47,1.57,5.66,3.31,11.27,5.4,16.74,2.09,5.45,4.49,10.81,7.68,15.57,1.6,2.36,3.42,4.56,5.56,6.28,2.21,1.73,4.71,3.18,7.29,4.45,5.2,2.53,10.75,4.45,16.35,6.19.8.25,6.02,1.89,13.51,3.96,7.48,2.11,17.23,4.64,26.72,7.83,4.74,1.61,9.4,3.4,13.59,5.49,4.18,2.08,7.9,4.5,10.54,7.2,1.32,1.34,2.36,2.75,3.09,4.1.73,1.35,1.14,2.63,1.38,3.7.21,1.07.26,1.93.25,2.51-.02.58-.06.88-.11.88-.13,0-.12-1.23-.69-3.25-.31-1-.78-2.18-1.55-3.41-.76-1.23-1.81-2.51-3.13-3.73-2.63-2.45-6.3-4.66-10.45-6.56-4.16-1.91-8.8-3.54-13.53-5.01-9.46-2.91-19.24-5.24-26.78-7.21-7.55-1.94-12.86-3.52-13.67-3.77Z"/><path class="cls-1" d="M28.34,480.39V109.07c0-1.11.16-14.41.42-27.44.13-6.51.28-12.96.45-17.78.17-4.82.36-8,.55-8s.38,3.19.55,8c.17,4.82.32,11.26.45,17.78.26,13.03.42,26.33.42,27.44v371.31c0,.55-.05,4.14-.11,9.25-.04,2.54-.05,5.48-.33,8.65-.16,1.58-.38,3.23-.89,4.9-.5,1.64-1.47,3.44-3.13,4.49-1.65,1.07-3.56,1.23-5.23,1.14-.82-.04-1.73-.13-2.57-.43-.84-.3-1.6-.75-2.25-1.29-1.29-1.12-2.09-2.55-2.56-3.93-.48-1.39-.66-2.76-.67-4.02,0-2.49.67-4.68,1.96-5.65.64-.48,1.34-.47,1.71-.36.38.12.55.25.53.28-.02.05-.22.02-.57,0-.35-.01-.87.07-1.31.51-.91.87-1.39,2.88-1.21,5.16.09,1.15.34,2.38.84,3.59.49,1.2,1.25,2.36,2.3,3.18.53.4,1.13.71,1.77.91.64.2,1.33.23,2.1.24,1.48.02,2.97-.22,4.04-1,1.09-.75,1.77-2.02,2.15-3.45.39-1.43.54-2.97.64-4.46.17-3.01.09-5.92.06-8.46-.06-5.11-.11-8.7-.11-9.25Z"/><path class="cls-1" d="M160.79,57.28H7.27l.17.17c1.46,1.41,2.83,2.9,4.16,4.42,2.67,3.04,5.09,6.29,7.3,9.67,1.14,1.67,2.12,3.44,3.16,5.17.93,1.79,1.93,3.56,2.74,5.41.28.49,3.06,6.94,4.36,13.64.32,1.67.54,3.35.75,4.91.1,1.58.22,3.04.25,4.29-.07,2.51-.19,4.15-.39,4.15-.2,0-.45-1.63-.72-4.07-.22-1.28-.47-2.68-.72-4.13-.35-1.5-.71-3.1-1.14-4.69-1.76-6.37-4.71-12.42-4.99-12.91-.78-1.79-1.74-3.49-2.64-5.22-1-1.68-1.95-3.39-3.05-5-2.14-3.27-4.48-6.42-7.06-9.35-1.29-1.46-2.61-2.9-4.01-4.26-.09-.08-.55-.56-.9-.88l-1.11-1.01-2.18-2.01-1.09-1.01-.14-.13s0-.02.03-.02h160.73c1.14,0,27.35.64,27.35,1.43s-26.21,1.43-27.35,1.43Z"/><path class="cls-1" d="M82.3,43.48c-1.49,1-3.03,1.95-4.79,2.65-1.75.67-3.8,1.1-5.87.62l-.77-.18-.72-.32-.71-.34c-.23-.12-.42-.29-.63-.43-.4-.31-.85-.58-1.16-.96l-.88-.94-.7,1.08c-3.68,5.71-7.02,11.67-10.01,17.79-2.98,6.12-5.6,12.41-7.78,18.85-2.18,6.44-3.75,13.06-4.75,19.74-.02.1-.15.84-.36,1.99-.1.53-.22,1.16-.36,1.85-.07.33-.14.67-.21,1.03-.06.35-.09.7-.15,1.06-.38,2.83-.86,5.64-1.25,5.64s-.63-2.84-.76-5.79c-.01-.37-.04-.74-.04-1.1.02-.37.03-.73.05-1.07.04-.72.07-1.37.1-1.93.08-1.2.13-1.98.14-2.08,1.02-6.89,2.65-13.67,4.87-20.25,2.23-6.57,4.89-12.98,7.93-19.2,3.04-6.22,6.42-12.26,10.18-18.09l.71-1.09,1.44-2.09.73-1.05c.06-.07.12-.22.18-.22l.19.26.37.52,1.49,2.07.15.2.05.05.1.1.19.2.38.4c.23.3.55.45.82.67.14.1.27.23.42.3l.46.21.45.22.49.1c1.29.31,2.76.05,4.19-.5,1.44-.57,2.84-1.43,4.2-2.34.08-.05.7-.46,1.67-1.08.91-.62,2.09-1.44,3.24-2.29,2.32-1.69,4.59-3.41,4.86-3.12.27.28-1.51,2.52-3.54,4.64-1.01,1.07-2.1,2.09-2.97,2.86-.89.75-1.53,1.28-1.64,1.35Z"/><path class="cls-1" d="M76.74,603.85c-6.36-39.83-10-79.99-12.79-120.15-1.39-20.09-2.44-40.2-3.4-60.31-.89-20.11-1.62-40.23-2.2-60.35-1.11-40.25-1.68-80.5-1.75-120.76-.04-20.13.04-40.26.3-60.39l.05-3.78v-.94s.02-.47.02-.47v-.4c.03-.15-.03-.33.07-.46l1-1.95,3.42-6.64c1.07-2.25,1.99-4.57,3-6.85.48-1.15,1.03-2.27,1.44-3.45l1.26-3.52c1.8-4.65,3.11-9.48,4.55-14.26l1.76-7.28.44-1.82.36-1.84.71-3.68c.07-.35.33-1.66.74-3.7.33-2.05.78-4.82,1.31-8.08.87-6.53,1.91-15,2.33-23.43.49-8.43.6-16.8.64-23.06.02-3.13.04-5.74.1-7.56.07-1.82.15-2.86.25-2.86s.21,1.04.33,2.85c.13,1.82.29,4.41.44,7.55.31,6.26.5,14.67.27,23.17-.17,8.51-1,17.08-1.74,23.7-.47,3.3-.86,6.12-1.16,8.2-.38,2.07-.62,3.41-.69,3.76l-.72,3.73-.36,1.86-.45,1.85-1.79,7.39c-1.45,4.86-2.79,9.75-4.62,14.49l-1.29,3.58c-.42,1.2-.98,2.34-1.47,3.51-1.02,2.32-1.97,4.68-3.06,6.98l-3.49,6.78-.73,1.41-.02,1.49-.05,3.77c-.25,20.11-.34,40.23-.3,60.35.06,40.24.63,80.47,1.75,120.69.58,20.11,1.31,40.21,2.2,60.31.95,20.09,2.01,40.18,3.39,60.24,2.79,40.11,6.42,80.21,12.76,119.89.11.7.87,5.31,1.94,11.85.48,3.27,1.28,6.97,2,10.93.37,1.97.76,4,1.14,6.06.4,2.05.91,4.11,1.35,6.18,1.72,8.28,3.94,16.34,5.63,22.36.96,2.97,1.74,5.45,2.25,7.2.52,1.75.77,2.76.68,2.79-.09.04-.53-.91-1.22-2.59s-1.64-4.12-2.77-7.05c-2.02-5.94-4.55-13.98-6.54-22.24-.51-2.06-1.08-4.12-1.54-6.17-.45-2.06-.89-4.09-1.31-6.06-.82-3.95-1.72-7.66-2.27-10.93-1.2-6.54-2.04-11.15-2.17-11.86Z"/><path class="cls-1" d="M129.14,21.52c-9.3,1.81-18.58,4-27.14,7.8-4.24,1.93-8.32,4.26-11.7,7.34-3.39,3.05-6.02,6.87-7.36,11.19-.66,2.16-1.01,4.41-1.11,6.68-.06,1.12-.05,2.32-.05,3.51v3.58s.05,14.32.05,14.32l.08,28.64c.07,38.19-.09,76.38-.79,114.57-.71,38.19-1.88,76.38-4.26,114.52-1.21,19.07-2.72,38.13-4.92,57.13-1.11,9.5-2.39,18.99-4.05,28.43-.81,4.72-1.75,9.43-2.81,14.11-1.05,4.69-2.29,9.34-3.8,13.94-.11.33-.5,1.56-1.24,3.44-.18.47-.38.98-.59,1.53-.24.54-.49,1.12-.76,1.74-.5,1.24-1.23,2.56-1.96,4-.43.7-.87,1.42-1.32,2.16-.21.38-.52.72-.78,1.09l-.38.51s-.02.02-.04.04c-.03.02,0,.05,0,.07.02.03,0,0,.14.27.21.4.42.8.64,1.21.43.81.87,1.64,1.32,2.49,1.79,3.37,3.74,6.89,5.77,10.33,2.04,3.43,4.17,6.78,6.44,9.68,1.11,1.47,2.32,2.76,3.5,3.92,1.24,1.09,2.47,2.05,3.76,2.61,1.28.53,2.57.78,3.68.62,1.12-.12,1.99-.63,2.61-1.16,1.22-1.12,1.51-2.13,1.62-2.08.07,0,0,1.1-1.22,2.48-.61.66-1.59,1.35-2.87,1.59-1.27.28-2.76.09-4.24-.42-1.49-.54-2.87-1.52-4.25-2.62-1.31-1.16-2.63-2.46-3.84-3.93-2.46-2.9-4.75-6.23-6.92-9.63-2.17-3.41-4.24-6.91-6.13-10.24-.47-.83-.93-1.66-1.39-2.46-.23-.4-.45-.8-.67-1.2-.17-.31-.34-.61-.51-.92l-.3-.55-.08-.14s-.07-.09-.01-.13l.18-.25c.38-.53.75-1.05,1.12-1.56.23-.34.49-.64.68-1,.4-.7.8-1.37,1.17-2.03.66-1.38,1.31-2.62,1.77-3.83.25-.59.48-1.15.7-1.67.19-.54.38-1.03.54-1.49.68-1.82,1.05-3.04,1.15-3.36,1.47-4.47,2.69-9.05,3.73-13.68,1.05-4.62,1.98-9.28,2.78-13.97,1.64-9.36,2.92-18.8,4.02-28.27,2.19-18.93,3.7-37.94,4.91-56.98,2.37-38.08,3.54-76.23,4.26-114.39.7-38.16.86-76.33.79-114.51l-.08-28.63-.04-14.32v-3.58c0-1.19-.02-2.37.04-3.64.11-2.49.5-4.99,1.24-7.4,1.49-4.84,4.47-9.14,8.17-12.46,3.69-3.36,8.02-5.82,12.44-7.83,8.93-3.96,18.37-6.17,27.78-8,.67-.13,5.07-.93,11.3-1.86,6.22-.95,14.28-1.99,22.17-3.32,7.85-1.36,15.69-3.04,20.69-6.04,1.23-.75,2.28-1.55,3.05-2.42.75-.87,1.32-1.72,1.6-2.51.61-1.55.58-2.57.73-2.56.05,0,.08.25.1.72.01.24.02.53-.04.87-.05.34-.08.74-.24,1.16-.21.88-.75,1.85-1.49,2.86-.76,1.01-1.84,1.94-3.09,2.81-2.52,1.75-5.83,3.09-9.43,4.23-3.61,1.13-7.53,2.05-11.49,2.86-7.92,1.6-15.95,2.84-22.12,3.94-6.18,1.07-10.52,1.94-11.18,2.07Z"/><path class="cls-1" d="M257.09,680.33c5.6-1.74,11.15-3.66,16.35-6.19,2.59-1.28,5.08-2.72,7.29-4.45,2.14-1.72,3.96-3.92,5.56-6.28,3.18-4.77,5.59-10.12,7.68-15.57,2.08-5.46,3.82-11.08,5.4-16.74,3.11-11.34,5.54-22.88,7.66-34.47,2.11-11.6,3.89-23.27,5.47-34.96,3.16-23.39,5.57-46.89,7.6-70.42,2.02-23.53,3.66-47.1,5.04-70.69,2.76-47.17,4.56-94.4,5.84-141.64,1.27-47.24,1.99-94.5,2.32-141.77.02-1.68.32-21.93.61-41.91.17-9.88.35-19.68.48-27.15.08-3.68.17-6.74.27-8.87.09-2.14.19-3.35.29-3.35s.19,1.22.29,3.35c.09,2.14.18,5.19.27,8.87.17,7.36.32,17.21.43,27.16.22,19.91.24,40.24.23,41.92-.33,47.28-1.06,94.56-2.32,141.82-1.28,47.27-3.08,94.52-5.84,141.73-1.39,23.61-3.02,47.2-5.05,70.76-2.04,23.56-4.45,47.1-7.61,70.56-1.59,11.73-3.38,23.43-5.5,35.09-2.13,11.65-4.57,23.26-7.72,34.72-1.59,5.72-3.35,11.41-5.48,16.99-2.14,5.57-4.59,11.08-7.98,16.15-1.71,2.52-3.68,4.94-6.16,6.92-2.44,1.91-5.1,3.44-7.8,4.78-5.43,2.65-11.09,4.59-16.77,6.36-.81.26-6.12,1.83-13.67,3.77-7.53,1.98-17.31,4.3-26.78,7.21-4.73,1.47-9.37,3.1-13.53,5.01-4.15,1.9-7.82,4.11-10.45,6.56-1.32,1.22-2.37,2.49-3.13,3.73-.77,1.23-1.24,2.42-1.55,3.41-.58,2.02-.56,3.26-.69,3.25-.05,0-.08-.3-.11-.88-.02-.58.03-1.43.25-2.51.23-1.06.64-2.35,1.38-3.7.73-1.35,1.77-2.75,3.09-4.1,2.64-2.7,6.36-5.12,10.54-7.2,4.19-2.09,8.86-3.88,13.59-5.49,9.49-3.19,19.24-5.72,26.72-7.83,7.49-2.07,12.71-3.71,13.51-3.96Z"/><path class="cls-1" d="M345.07,480.39V109.07c0-1.11.16-14.41.42-27.44.13-6.51.28-12.96.45-17.78.17-4.82.36-8,.55-8s.38,3.19.55,8c.17,4.82.32,11.26.45,17.78.26,13.03.42,26.33.42,27.44v371.31c0,.55-.05,4.14-.11,9.25-.03,2.55-.11,5.45.06,8.46.1,1.5.25,3.03.64,4.46.38,1.43,1.06,2.7,2.15,3.45,1.08.77,2.56,1.02,4.04,1,.77,0,1.46-.04,2.1-.24.64-.2,1.24-.51,1.77-.91,1.05-.82,1.81-1.98,2.3-3.18.5-1.2.75-2.44.84-3.59.18-2.28-.3-4.29-1.21-5.16-.44-.44-.96-.53-1.31-.51-.35.01-.56.05-.57,0-.02-.04.15-.17.53-.28.37-.12,1.07-.13,1.71.36,1.29.98,1.97,3.16,1.96,5.65,0,1.26-.19,2.63-.67,4.02-.48,1.38-1.27,2.82-2.56,3.93-.65.55-1.42.99-2.25,1.29-.84.31-1.74.39-2.57.43-1.67.09-3.58-.07-5.23-1.14-1.67-1.06-2.64-2.85-3.13-4.49-.52-1.67-.73-3.32-.89-4.9-.28-3.17-.29-6.11-.33-8.65-.06-5.11-.11-8.7-.11-9.25Z"/><path class="cls-1" d="M215.48,54.43h160.73s.08,0,.03.02l-.14.13-1.09,1.01-2.18,2.01-1.11,1.01c-.36.32-.81.8-.9.88-1.4,1.36-2.72,2.79-4.01,4.26-2.58,2.93-4.92,6.08-7.06,9.35-1.1,1.62-2.05,3.32-3.05,5-.9,1.73-1.86,3.44-2.64,5.22-.27.48-3.23,6.54-4.99,12.91-.43,1.59-.79,3.19-1.14,4.69-.25,1.45-.5,2.85-.72,4.13-.27,2.43-.52,4.07-.72,4.07-.2,0-.32-1.64-.39-4.15.03-1.25.14-2.71.25-4.29.21-1.56.43-3.24.75-4.91,1.3-6.7,4.08-13.15,4.36-13.64.81-1.86,1.81-3.62,2.74-5.41,1.03-1.74,2.02-3.5,3.16-5.17,2.21-3.38,4.62-6.63,7.3-9.67,1.34-1.52,2.71-3.01,4.16-4.42l.17-.17h-153.51c-1.14,0-27.35-.64-27.35-1.43s26.21-1.43,27.35-1.43Z"/><path class="cls-1" d="M295.6,41.13c1.36.91,2.76,1.77,4.2,2.34,1.44.55,2.9.8,4.19.5l.49-.1.45-.22.46-.21c.15-.08.28-.2.42-.3.27-.22.58-.37.82-.67l.38-.4.19-.2.1-.1.05-.05.15-.2,1.49-2.07.37-.52.19-.26c.06,0,.12.15.18.22l.73,1.05,1.44,2.09.71,1.09c3.76,5.83,7.14,11.87,10.18,18.09,3.03,6.22,5.7,12.63,7.93,19.2,2.22,6.57,3.84,13.36,4.87,20.25,0,.1.06.88.14,2.08.03.56.06,1.21.1,1.93.02.34.03.7.05,1.07,0,.36-.02.73-.04,1.1-.13,2.95-.37,5.79-.76,5.79s-.87-2.81-1.25-5.64c-.05-.35-.09-.71-.15-1.06-.07-.35-.14-.7-.21-1.03-.13-.69-.26-1.31-.36-1.85-.21-1.15-.34-1.89-.36-1.99-1-6.68-2.57-13.3-4.75-19.74-2.18-6.43-4.8-12.73-7.78-18.85-2.99-6.11-6.32-12.08-10.01-17.79l-.7-1.08-.88.94c-.31.37-.76.65-1.16.96-.21.14-.4.31-.63.43l-.71.34-.72.32-.77.18c-2.07.48-4.12.05-5.87-.62-1.76-.7-3.3-1.66-4.79-2.65-.11-.07-.75-.6-1.64-1.35-.87-.77-1.96-1.79-2.97-2.86-2.03-2.13-3.8-4.36-3.54-4.64.28-.29,2.55,1.43,4.86,3.12,1.15.85,2.33,1.67,3.24,2.29.96.62,1.58,1.03,1.67,1.08Z"/><path class="cls-1" d="M296.7,603.38c6.34-39.68,9.97-79.77,12.76-119.89,1.38-20.06,2.44-40.15,3.39-60.24.89-20.09,1.62-40.2,2.2-60.31,1.11-40.22,1.68-80.45,1.75-120.69.04-20.12-.04-40.24-.3-60.35l-.05-3.77-.02-1.49-.73-1.41-3.49-6.78c-1.09-2.29-2.03-4.65-3.06-6.98-.48-1.17-1.04-2.32-1.47-3.51l-1.29-3.58c-1.83-4.74-3.17-9.63-4.62-14.49l-1.79-7.39-.45-1.85-.36-1.86-.72-3.73c-.06-.35-.31-1.69-.69-3.76-.29-2.08-.69-4.89-1.16-8.2-.74-6.62-1.57-15.19-1.74-23.7-.24-8.5-.04-16.91.27-23.17.15-3.13.31-5.73.44-7.55.12-1.81.23-2.85.33-2.85s.18,1.04.25,2.86c.06,1.82.07,4.43.1,7.56.03,6.26.15,14.63.64,23.06.42,8.44,1.45,16.91,2.33,23.43.53,3.25.98,6.03,1.31,8.08.41,2.04.67,3.35.74,3.7l.71,3.68.36,1.84.44,1.82,1.76,7.28c1.43,4.78,2.74,9.6,4.55,14.26l1.26,3.52c.42,1.18.97,2.3,1.44,3.45,1,2.28,1.93,4.6,3,6.85l3.42,6.64,1,1.95c.11.13.04.3.07.46v.4s.01.47.01.47v.94s.07,3.78.07,3.78c.25,20.13.34,40.26.3,60.39-.06,40.26-.64,80.52-1.75,120.76-.58,20.12-1.31,40.24-2.2,60.35-.95,20.11-2.01,40.22-3.4,60.31-2.79,40.17-6.43,80.33-12.79,120.15-.13.7-.97,5.31-2.17,11.86-.55,3.27-1.44,6.98-2.27,10.93-.43,1.97-.87,4-1.31,6.06-.46,2.05-1.03,4.11-1.54,6.17-1.98,8.26-4.52,16.29-6.54,22.24-1.13,2.94-2.08,5.37-2.77,7.05s-1.13,2.63-1.22,2.59c-.09-.04.16-1.05.68-2.79.52-1.75,1.3-4.23,2.25-7.2,1.68-6.02,3.91-14.08,5.63-22.36.45-2.06.96-4.12,1.35-6.18.39-2.06.77-4.09,1.14-6.06.72-3.95,1.52-7.65,2-10.93,1.07-6.54,1.82-11.14,1.94-11.85Z"/><path class="cls-1" d="M247.66,18.71c9.41,1.83,18.85,4.04,27.78,8,4.43,2.01,8.75,4.47,12.44,7.83,3.7,3.32,6.68,7.62,8.17,12.46.74,2.41,1.13,4.91,1.24,7.4.06,1.27.05,2.45.05,3.64v3.58s-.05,14.32-.05,14.32l-.08,28.63c-.07,38.17.09,76.35.79,114.51.71,38.16,1.88,76.31,4.26,114.39,1.21,19.03,2.71,38.05,4.91,56.98,1.1,9.46,2.38,18.9,4.02,28.27.8,4.69,1.73,9.34,2.78,13.97,1.04,4.63,2.26,9.2,3.73,13.68.1.32.47,1.53,1.15,3.36.17.46.35.96.54,1.49.22.52.45,1.08.7,1.67.46,1.2,1.11,2.45,1.77,3.83.38.65.77,1.33,1.17,2.03.19.36.45.66.68,1,.37.51.74,1.03,1.12,1.56l.18.25c.05.04.01.09-.01.13l-.08.14-.3.55c-.17.3-.34.61-.51.92-.22.4-.45.8-.67,1.2-.46.81-.92,1.63-1.39,2.46-1.89,3.33-3.96,6.83-6.13,10.24-2.18,3.41-4.46,6.74-6.92,9.63-1.2,1.46-2.53,2.76-3.84,3.93-1.37,1.1-2.76,2.07-4.25,2.62-1.48.52-2.97.7-4.24.42-1.28-.24-2.26-.93-2.87-1.59-1.21-1.39-1.29-2.48-1.22-2.48.11-.05.4.95,1.62,2.08.62.53,1.49,1.04,2.61,1.16,1.11.16,2.4-.09,3.68-.62,1.29-.55,2.53-1.52,3.76-2.61,1.19-1.16,2.39-2.45,3.5-3.92,2.26-2.9,4.4-6.25,6.44-9.68,2.03-3.44,3.98-6.96,5.77-10.33.45-.84.89-1.67,1.32-2.49.21-.41.43-.81.64-1.21.14-.27.12-.23.14-.27,0-.03.04-.05,0-.07-.02-.02-.03-.04-.04-.04l-.38-.51c-.26-.37-.57-.71-.78-1.09-.45-.74-.9-1.47-1.32-2.16-.73-1.44-1.46-2.76-1.96-4-.27-.61-.52-1.19-.76-1.74-.21-.55-.41-1.06-.59-1.53-.74-1.88-1.14-3.11-1.24-3.44-1.51-4.6-2.75-9.25-3.8-13.94-1.06-4.69-2-9.39-2.81-14.11-1.65-9.44-2.94-18.93-4.05-28.43-2.2-19-3.71-38.06-4.92-57.13-2.38-38.14-3.55-76.33-4.26-114.52-.7-38.19-.86-76.38-.79-114.57l.08-28.64.04-14.32v-3.58c0-1.19.02-2.4-.04-3.51-.1-2.27-.45-4.52-1.11-6.68-1.33-4.31-3.97-8.14-7.36-11.19-3.38-3.08-7.46-5.42-11.7-7.34-8.56-3.8-17.84-5.99-27.14-7.8-.67-.13-5-1-11.18-2.07-6.18-1.09-14.21-2.33-22.12-3.94-3.96-.81-7.88-1.72-11.49-2.86-3.6-1.14-6.91-2.48-9.43-4.23-1.25-.87-2.33-1.8-3.09-2.81-.74-1.01-1.28-1.98-1.49-2.86-.16-.42-.19-.82-.24-1.16-.06-.34-.06-.63-.04-.87.02-.47.05-.72.1-.72.14-.01.12,1.01.73,2.56.27.79.85,1.63,1.6,2.51.76.87,1.82,1.67,3.05,2.42,4.99,3,12.83,4.68,20.69,6.04,7.89,1.34,15.95,2.37,22.17,3.32,6.23.93,10.63,1.73,11.3,1.86Z"/></g></svg>