<?xml version="1.0" encoding="UTF-8"?><svg id="Line" xmlns="http://www.w3.org/2000/svg" viewBox="0 0 575 170"><defs><style>.cls-1{fill:#fff;stroke-width:0px;}</style></defs><g id="Button_4_Lines"><path class="cls-1" d="M65.88,16.42h193.84c1.15,0,27.78.64,27.78,1.43s-26.63,1.43-27.78,1.43H65.88c-1.15,0-27.78-.64-27.78-1.43s26.63-1.43,27.78-1.43Z"/><path class="cls-1" d="M259.72,153.52H65.88c-1.15,0-27.78-.64-27.78-1.43s26.63-1.43,27.78-1.43h193.84c1.15,0,27.78.64,27.78,1.43s-26.63,1.43-27.78,1.43Z"/><path class="cls-1" d="M36.07,150.88c-3.74-10.85-9.38-21.06-14.15-31.75-2.39-5.34-4.58-10.83-6.2-16.52-.79-2.85-1.45-5.75-1.91-8.69-.43-2.94-.67-5.92-.7-8.91.03-2.99.26-5.96.7-8.91.46-2.94,1.12-5.84,1.91-8.69,1.62-5.7,3.8-11.18,6.2-16.52,4.77-10.69,10.41-20.9,14.15-31.75.14-.38,1.94-4.98,3.05-9.68.61-2.34.99-4.7,1.3-6.47C40.68,1.2,40.87,0,41.08,0h0c.19,0,.37,1.2.45,3.04.03,1.83-.05,4.31-.42,6.78-.64,4.96-2.2,9.84-2.33,10.23-3.87,11.18-9.55,21.44-14.25,31.99-2.36,5.27-4.49,10.63-6.05,16.13-.76,2.75-1.4,5.54-1.84,8.35-.41,2.81-.64,5.64-.67,8.48.03,2.83.25,5.66.67,8.48.44,2.81,1.08,5.59,1.84,8.35,1.56,5.5,3.69,10.86,6.05,16.13,4.7,10.56,10.38,20.81,14.25,31.99.14.39,1.7,5.26,2.33,10.23.37,2.47.45,4.94.42,6.78-.08,1.84-.26,3.04-.45,3.04h0c-.2,0-.4-1.2-.66-2.97-.31-1.77-.68-4.13-1.3-6.47-1.11-4.69-2.92-9.29-3.05-9.68Z"/><path class="cls-1" d="M205.02,147.63h-77.82s-38.91,0-38.91,0h-19.45c-3.26-.01-6.45.03-9.77-.03-3.39-.09-6.74-.72-9.94-1.74-.46-.09-5.95-2.11-10.48-5.41-2.29-1.6-4.36-3.42-5.77-4.92-1.41-1.5-2.17-2.64-2.03-2.76.15-.14,1.18.73,2.77,1.93,1.59,1.21,3.78,2.72,6.11,4.05,4.63,2.74,9.83,4.3,10.26,4.39,2.98.95,6.06,1.52,9.15,1.61,3.16.06,6.46.02,9.69.03h136.17c.22-.02,1.74.07,3.75-.02.98-.06,2.14-.19,2.92-.62.39-.22.66-.46.82-.88.16-.42.24-.97.22-1.57,0-.52-.15-.94-.43-1.35-.3-.39-.72-.73-1.21-.98-.98-.5-2.1-.7-3.01-.69-.92,0-1.68.23-1.96.55-.29.32-.17.72-.28.74-.04.02-.12-.04-.21-.2-.07-.16-.16-.47,0-.83.33-.73,1.28-1.18,2.34-1.37,1.08-.19,2.39-.16,3.76.33.68.25,1.37.65,1.96,1.26.57.61.99,1.51,1.07,2.35.09.76.11,1.6-.15,2.47-.24.88-.92,1.7-1.63,2.15-.71.47-1.45.74-2.1.9-.66.18-1.28.27-1.84.34-2.25.26-3.75.24-3.99.26Z"/><path class="cls-1" d="M205.01,25.23h-77.81s-38.91,0-38.91,0h-19.45c-3.22.01-6.52-.03-9.69.03-3.09.09-6.18.66-9.15,1.61-.42.09-5.63,1.65-10.26,4.39-2.33,1.32-4.52,2.84-6.11,4.05-1.59,1.2-2.61,2.07-2.77,1.93-.14-.12.62-1.26,2.03-2.76,1.4-1.5,3.48-3.32,5.77-4.92,4.53-3.3,10.01-5.32,10.48-5.41,3.2-1.02,6.55-1.65,9.94-1.74,3.32-.07,6.51-.02,9.77-.03h136.18c.24.02,1.74,0,3.99.26.57.07,1.18.17,1.84.34.65.16,1.39.43,2.1.9.71.46,1.39,1.27,1.63,2.15.25.87.24,1.71.15,2.47-.07.85-.49,1.74-1.07,2.35-.59.61-1.28,1.02-1.96,1.26-1.37.49-2.67.52-3.76.33-1.07-.19-2.02-.64-2.34-1.37-.16-.36-.07-.67,0-.83.1-.16.17-.22.21-.2.11.03,0,.42.28.74.28.32,1.03.55,1.96.55.92,0,2.03-.19,3.01-.69.49-.24.91-.59,1.21-.98.28-.41.44-.83.43-1.35.02-.6-.05-1.15-.22-1.57-.17-.42-.44-.66-.82-.88-.78-.43-1.94-.56-2.92-.62-2.01-.09-3.53,0-3.75-.02Z"/><path class="cls-1" d="M23.33,62.81c.45,2,1.1,3.96,1.84,5.87.79,1.9,1.69,3.76,2.73,5.56,1.05,1.78,2.2,3.51,3.46,5.14.63.82,1.3,1.61,1.98,2.38l1.05,1.12,2.18,2.12-2.18,2.12-1.05,1.12c-.68.77-1.35,1.56-1.98,2.38-1.26,1.64-2.41,3.36-3.46,5.14-1.03,1.79-1.93,3.65-2.73,5.56-.75,1.92-1.39,3.87-1.84,5.87-.03.07-.17.53-.35,1.18-.2.65-.46,1.49-.66,2.35-.11.39-.22.81-.34,1.25-.09.4-.19.78-.28,1.1-.2.65-.4,1.08-.6,1.08-.2,0-.37-.44-.51-1.12-.07-.34-.14-.74-.2-1.17-.05-.43-.05-.89-.07-1.36-.05-.94.01-1.88.08-2.61.05-.73.12-1.25.15-1.32.48-2.16,1.18-4.26,1.98-6.32.85-2.03,1.81-4.01,2.9-5.92,1.11-1.89,2.33-3.72,3.67-5.46.67-.87,1.38-1.71,2.11-2.54l1.25-1.33-1.25-1.33c-.73-.83-1.44-1.67-2.11-2.54-1.34-1.74-2.56-3.57-3.67-5.46-1.1-1.9-2.06-3.88-2.9-5.92-.8-2.05-1.5-4.15-1.98-6.32-.03-.07-.1-.59-.15-1.32-.07-.73-.13-1.67-.08-2.61.02-.47.03-.93.07-1.36.06-.43.13-.83.2-1.17.15-.68.32-1.12.51-1.12.2,0,.4.44.6,1.08.1.32.19.7.28,1.1.12.44.24.86.34,1.25.2.85.46,1.7.66,2.35.18.65.32,1.11.35,1.18Z"/><path class="cls-1" d="M509.12,19.28h-193.84c-1.15,0-27.78-.64-27.78-1.43s26.63-1.43,27.78-1.43h193.84c1.15,0,27.78.64,27.78,1.43s-26.63,1.43-27.78,1.43Z"/><path class="cls-1" d="M315.28,150.66h193.84c1.15,0,27.78.64,27.78,1.43s-26.63,1.43-27.78,1.43h-193.84c-1.15,0-27.78-.64-27.78-1.43s26.63-1.43,27.78-1.43Z"/><path class="cls-1" d="M536.23,149.95c3.87-11.18,9.55-21.44,14.25-31.99,2.36-5.27,4.49-10.63,6.05-16.13.76-2.75,1.4-5.54,1.84-8.35.41-2.81.64-5.64.67-8.48-.03-2.83-.25-5.66-.67-8.48-.44-2.81-1.08-5.59-1.84-8.35-1.56-5.5-3.69-10.86-6.05-16.13-4.7-10.56-10.38-20.81-14.25-31.99-.14-.39-1.7-5.26-2.33-10.23-.37-2.47-.45-4.94-.42-6.78.08-1.84.26-3.04.45-3.04.2,0,.4,1.2.66,2.97.31,1.77.68,4.13,1.3,6.47,1.11,4.69,2.92,9.29,3.05,9.68,3.74,10.85,9.38,21.06,14.15,31.75,2.39,5.34,4.58,10.83,6.2,16.52.79,2.85,1.45,5.75,1.91,8.69.43,2.94.67,5.92.7,8.91-.03,2.99-.26,5.96-.7,8.91-.46,2.94-1.12,5.84-1.91,8.69-1.62,5.7-3.8,11.18-6.2,16.52-4.77,10.69-10.41,20.9-14.15,31.75-.14.38-1.94,4.98-3.05,9.68-.61,2.34-.99,4.7-1.3,6.47-.26,1.78-.45,2.97-.66,2.97-.19,0-.37-1.2-.45-3.04-.03-1.83.05-4.31.42-6.78.64-4.96,2.2-9.84,2.33-10.23Z"/><path class="cls-1" d="M369.99,144.77h77.81s38.91,0,38.91,0h19.45c3.22-.01,6.52.03,9.69-.03,3.09-.09,6.18-.66,9.15-1.61.42-.09,5.63-1.65,10.26-4.39,2.33-1.32,4.52-2.84,6.11-4.05,1.59-1.2,2.61-2.07,2.77-1.93.14.12-.62,1.26-2.03,2.76-1.4,1.5-3.48,3.32-5.77,4.92-4.53,3.3-10.01,5.32-10.48,5.41-3.2,1.02-6.55,1.65-9.94,1.74-3.32.07-6.51.02-9.77.03h-136.18c-.24-.02-1.74,0-3.99-.26-.57-.07-1.18-.17-1.84-.34-.65-.16-1.39-.43-2.1-.9-.71-.46-1.39-1.27-1.63-2.15-.25-.87-.24-1.71-.15-2.47.07-.85.49-1.74,1.07-2.35.59-.61,1.28-1.02,1.96-1.26,1.37-.49,2.67-.52,3.76-.33,1.07.19,2.02.64,2.34,1.37.16.36.07.67,0,.83-.1.16-.17.22-.21.2h0c-.11-.03,0-.42-.28-.74-.28-.32-1.03-.55-1.96-.55-.92,0-2.03.19-3.01.69-.49.24-.91.59-1.21.98-.28.41-.44.83-.43,1.35-.02.6.05,1.15.22,1.57.17.42.44.66.82.88.78.43,1.94.56,2.92.62,2.01.09,3.53,0,3.75.02Z"/><path class="cls-1" d="M369.98,22.37h77.82s38.91,0,38.91,0h19.45c3.26.01,6.45-.03,9.77.03,3.39.09,6.74.72,9.94,1.74.46.09,5.95,2.11,10.48,5.41,2.29,1.6,4.36,3.42,5.77,4.92,1.41,1.5,2.17,2.64,2.03,2.76-.15.14-1.18-.73-2.77-1.93-1.59-1.21-3.78-2.72-6.11-4.05-4.63-2.74-9.83-4.3-10.26-4.39-2.98-.95-6.06-1.52-9.15-1.61-3.16-.06-6.46-.02-9.69-.03h-136.17c-.22.02-1.74-.07-3.75.02-.98.06-2.14.19-2.92.62-.39.22-.66.46-.82.88-.16.42-.24.97-.22,1.57,0,.52.15.94.43,1.35.3.39.72.73,1.21.98.98.5,2.1.7,3.01.69.92,0,1.68-.23,1.96-.55.29-.32.17-.72.28-.74h0s.12.04.21.2c.07.16.16.47,0,.83-.33.73-1.28,1.18-2.34,1.37-1.08.19-2.39.16-3.76-.33-.68-.25-1.37-.65-1.96-1.26-.57-.61-.99-1.51-1.07-2.35-.09-.76-.11-1.6.15-2.47.24-.88.92-1.7,1.63-2.15.71-.47,1.45-.74,2.1-.9.66-.18,1.28-.27,1.84-.34,2.25-.26,3.75-.24,3.99-.26Z"/><path class="cls-1" d="M554.45,63.44c-.48,2.16-1.18,4.26-1.98,6.32-.85,2.03-1.81,4.01-2.9,5.92-1.11,1.89-2.33,3.72-3.67,5.46-.67.87-1.38,1.71-2.11,2.54l-1.25,1.33,1.25,1.33c.73.83,1.44,1.67,2.11,2.54,1.34,1.74,2.56,3.57,3.67,5.46,1.1,1.9,2.06,3.88,2.9,5.92.8,2.05,1.5,4.15,1.98,6.32.03.07.1.59.15,1.32.07.73.13,1.67.08,2.61-.02.47-.03.93-.07,1.36-.06.43-.13.83-.2,1.17-.15.68-.32,1.12-.51,1.12s-.4-.44-.6-1.08c-.1-.32-.19-.7-.28-1.1-.12-.44-.24-.86-.34-1.25-.2-.85-.46-1.7-.66-2.35-.18-.65-.32-1.11-.35-1.18-.45-2-1.1-3.96-1.84-5.87-.79-1.9-1.69-3.76-2.73-5.56-1.05-1.78-2.2-3.51-3.46-5.14-.63-.82-1.3-1.61-1.98-2.38l-1.05-1.12-2.18-2.12,2.18-2.12,1.05-1.12c.68-.77,1.35-1.56,1.98-2.38,1.26-1.64,2.41-3.36,3.46-5.14,1.03-1.79,1.93-3.65,2.73-5.56.75-1.92,1.39-3.87,1.84-5.87.03-.07.17-.53.35-1.18.2-.65.46-1.49.66-2.35.11-.39.22-.81.34-1.25.09-.4.19-.78.28-1.1.2-.65.4-1.08.6-1.08s.37.44.51,1.12c.07.34.14.74.2,1.17.05.43.05.89.07,1.36.05.94-.01,1.88-.08,2.61-.05.73-.12,1.25-.15,1.32Z"/></g></svg>