<?xml version="1.0" encoding="UTF-8"?><svg id="Line" xmlns="http://www.w3.org/2000/svg" viewBox="0 0 546.85 225.24"><defs><style>.cls-1{fill:#fff;stroke-width:0px;}</style></defs><g id="Button_12_Lines"><path class="cls-1" d="M37.89,196.36c1.86,1.93,4.03,3.7,6.35,4.65,1.15.46,2.33.64,3.28.37.95-.25,1.74-.96,2.33-2,.57-1.04,1-2.27,1.24-3.58.15-.64.23-1.32.31-1.99.1-.67.13-1.36.17-2.04.05-.68.06-1.38.06-2.07,0-.69.02-1.38-.03-2.09l-.22-4.2c-.47-5.59-1.43-11.14-2.83-16.59-1.42-5.44-3.35-10.75-5.61-15.9-2.28-5.15-4.93-10.13-7.97-14.87-3.04-4.73-6.46-9.23-10.32-13.26-1.92-2.03-3.95-3.93-6.18-5.49-2.2-1.58-4.64-2.83-7.11-3.19-2.47-.4-4.83.45-6.34,2.34-1.53,1.87-2.21,4.51-2.15,7.06.01.18-.01,1.42.24,3.18.26,1.75.81,4.04,1.71,6.15.45,1.05.97,2.07,1.57,2.88.3.4.65.76.85.9.21.17.55.23.77.07.42-.25.68-1.05.85-1.49.16-.48.29-.76.39-.75.09,0,.17.31.18.85,0,.27-.02.6-.1.99-.02.19-.12.43-.2.66-.13.23-.26.5-.49.7-.43.46-1.19.56-1.86.26-.71-.3-1.15-.71-1.59-1.14-.86-.88-1.56-1.94-2.18-3.04-1.23-2.2-2.05-4.62-2.49-6.55-.44-1.93-.5-3.37-.52-3.59-.06-3.11.69-6.36,2.79-8.95,1.03-1.28,2.44-2.34,4.04-2.91,1.59-.59,3.31-.69,4.9-.46,3.2.48,5.95,1.97,8.37,3.69,2.44,1.72,4.59,3.75,6.59,5.85,4.03,4.2,7.54,8.84,10.66,13.7,3.12,4.87,5.85,9.97,8.18,15.26,2.32,5.29,4.3,10.73,5.76,16.33,1.44,5.6,2.43,11.32,2.92,17.1l.22,4.34c.05.72.03,1.46.03,2.19,0,.73,0,1.46-.06,2.2-.04.74-.07,1.47-.18,2.22-.09.74-.17,1.48-.35,2.23-.27,1.49-.76,3-1.57,4.45-.41.72-.94,1.43-1.62,2.02-.36.28-.7.59-1.13.78l-.63.31c-.22.08-.44.14-.67.2-1.82.49-3.6.11-5.07-.47-2.97-1.23-5.29-3.2-7.38-5.34-.14-.17-1.11-1.17-2.22-2.82-.55-.83-1.15-1.8-1.64-2.98-.25-.58-.46-1.25-.54-2.05-.01-.21.01-.47.04-.7.02-.25.09-.37.13-.56.05-.18.17-.47.26-.69.13-.21.23-.45.39-.63.31-.37.71-.64,1.17-.71.46-.07.92.04,1.33.28.39.21.79.61,1.01.87.22.26.4.53.56.81.32.55.55,1.1.68,1.71.05.31.11.63,0,1.07-.05.21-.24.5-.5.63-.31.15-.38.1-.55.13-.61.04-1.1-.2-1.44-.44-.34-.25-.57-.51-.73-.74-.32-.46-.39-.77-.31-.83.08-.06.31.14.72.42.39.27,1.04.65,1.61.48l.11-.04h.03s.01-.01.01-.01h0s.06.19.03.1h0s0,.04.02.06c.02.03.01.02,0,0-.01-.01,0,0-.03-.02-.04-.05-.17-.06-.18-.08,0-.03-.04-.22-.11-.4-.14-.37-.4-.8-.7-1.18-.15-.19-.31-.38-.49-.53-.17-.16-.21-.16-.32-.22-.19-.1-.43,0-.48.19-.04.1-.04.14-.06.29,0,.1-.06.26-.04.32.02.07,0,.11.02.19.09.37.25.83.5,1.28.47.89,1.07,1.72,1.61,2.41,1.1,1.39,2.04,2.25,2.16,2.4Z"/><path class="cls-1" d="M44.42,174.38l.32.82.25.85c.18.56.27,1.17.37,1.77.06.29.06.61.08.92l.02.47s0-.02,0,0h198.47c1.23,0,29.51.64,29.51,1.43s-28.28,1.43-29.51,1.43H42.49s-.18.05-.14-.05l.04-.4.15-1.59c.01-.24.09-.57.05-.82v-.33c-.03-.22-.01-.44-.07-.68-.08-.46-.14-.92-.29-1.38l-.2-.69-.27-.68c-.08-.25-.73-2-2.25-4.17-.77-1.07-1.78-2.22-2.99-3.25-1.21-1.01-2.67-1.89-4.19-2.18l-.57-.1c-.18-.01-.35-.02-.51-.01-.33.03-.43.06-.55.19-.24.13-.19.95.05,1.65.48,1.44,1.33,2.75,2.1,3.76.77.99,1.6,1.82,2.14,1.95.22.07.35-.11.45-.29.07-.18.13-.29.18-.29.05,0,.09.11.11.35-.02.11,0,.27-.12.45-.09.19-.37.35-.63.35-.54.01-1-.25-1.49-.56-.48-.32-.97-.74-1.46-1.23-.97-1-2.01-2.25-2.76-3.94-.17-.44-.35-.89-.41-1.44-.07-.51-.03-1.29.41-1.88.4-.59,1.21-.91,1.76-.97.29-.04.57-.05.84-.05l.77.07c2.07.25,3.87,1.23,5.35,2.31,1.48,1.1,2.69,2.35,3.63,3.52,1.86,2.37,2.71,4.39,2.81,4.71Z"/><path class="cls-1" d="M35.81,26.92c2.09-2.14,4.41-4.11,7.38-5.34,1.48-.58,3.25-.96,5.07-.47.22.07.45.12.67.2l.63.31c.44.19.77.5,1.13.78.68.6,1.22,1.3,1.62,2.02.81,1.45,1.3,2.96,1.57,4.45.17.75.26,1.49.35,2.23.11.74.14,1.48.18,2.22.06.74.07,1.47.06,2.2,0,.73.02,1.47-.03,2.19l-.22,4.34c-.49,5.77-1.47,11.49-2.92,17.1-1.46,5.6-3.44,11.05-5.76,16.33-2.34,5.28-5.06,10.39-8.18,15.26-3.13,4.86-6.63,9.49-10.66,13.7-2,2.1-4.15,4.13-6.59,5.85-2.42,1.72-5.18,3.21-8.37,3.69-1.59.24-3.3.13-4.9-.46-1.6-.57-3.01-1.63-4.04-2.91C.7,108.02-.06,104.77,0,101.66c.01-.22.08-1.66.52-3.59.44-1.93,1.26-4.35,2.49-6.55.62-1.1,1.32-2.15,2.18-3.04.44-.43.88-.85,1.59-1.14.68-.3,1.44-.2,1.86.26.23.21.36.47.49.7.08.23.18.47.2.66.08.39.09.72.1.99-.01.54-.08.84-.18.85-.1,0-.22-.28-.39-.75-.18-.45-.43-1.25-.85-1.49-.22-.17-.56-.1-.77.07-.21.14-.56.51-.85.9-.6.81-1.12,1.83-1.57,2.88-.9,2.11-1.45,4.39-1.71,6.15-.26,1.76-.23,3-.24,3.18-.06,2.55.61,5.2,2.15,7.06,1.51,1.89,3.87,2.75,6.34,2.34,2.47-.36,4.91-1.61,7.11-3.19,2.23-1.56,4.25-3.47,6.18-5.49,3.87-4.03,7.28-8.54,10.32-13.26,3.04-4.74,5.7-9.72,7.97-14.87,2.26-5.15,4.19-10.46,5.61-15.9,1.4-5.45,2.36-11,2.83-16.59l.22-4.2c.05-.7.03-1.39.03-2.09,0-.69,0-1.39-.06-2.07-.04-.69-.06-1.38-.17-2.04-.08-.67-.16-1.35-.31-1.99-.23-1.32-.66-2.55-1.24-3.58-.59-1.04-1.38-1.75-2.33-2-.95-.27-2.13-.09-3.28.37-2.33.95-4.49,2.72-6.35,4.65-.12.15-1.06,1.01-2.16,2.4-.55.69-1.14,1.52-1.61,2.41-.25.44-.41.91-.5,1.28-.01.08,0,.13-.02.19-.02.05.03.21.04.32.02.15.02.19.06.29.05.2.29.3.48.19.11-.06.15-.06.32-.22.17-.16.34-.34.49-.53.3-.38.55-.81.7-1.18.07-.18.1-.37.11-.4.01-.02.14-.04.18-.08.03-.02.02,0,.03-.02,0,0,.02-.02,0,0-.01.02-.02.04-.02.06h0c.03-.08-.04.13-.03.11h0s-.01,0-.01,0h-.03s-.11-.05-.11-.05c-.57-.17-1.23.21-1.61.48-.4.28-.63.48-.72.42-.08-.05,0-.37.31-.83.16-.23.39-.49.73-.74.34-.24.83-.48,1.44-.44.17.04.24-.02.55.13.26.13.45.42.5.63.12.44.06.75,0,1.07-.13.61-.36,1.16-.68,1.71-.16.27-.34.54-.56.81-.22.26-.62.66-1.01.87-.4.23-.87.35-1.33.28-.46-.07-.87-.35-1.17-.71-.16-.18-.27-.41-.39-.63-.09-.22-.2-.51-.26-.69-.04-.19-.11-.32-.13-.56-.02-.23-.05-.48-.04-.7.08-.81.29-1.47.54-2.05.49-1.18,1.09-2.16,1.64-2.98,1.11-1.65,2.08-2.65,2.22-2.82Z"/><path class="cls-1" d="M41.77,49.81l.27-.68.2-.69c.16-.46.21-.92.29-1.38.06-.23.04-.45.05-.68v-.33c.05-.25-.03-.58-.04-.82l-.15-1.59-.04-.4c-.04-.1.1-.03.14-.05h201.43c1.23,0,29.51.64,29.51,1.43s-28.28,1.43-29.51,1.43H45.44s0-.02,0,0l-.02.47c-.02.31-.01.63-.08.92-.1.6-.19,1.2-.37,1.77l-.25.85-.32.82c-.1.32-.95,2.34-2.81,4.71-.94,1.17-2.15,2.42-3.63,3.52-1.48,1.09-3.29,2.06-5.35,2.31l-.77.07c-.27,0-.55,0-.84-.05-.55-.06-1.36-.38-1.76-.97-.44-.59-.48-1.37-.41-1.88.06-.55.24-1,.41-1.44.75-1.69,1.79-2.94,2.76-3.94.49-.49.98-.91,1.46-1.23.49-.31.95-.57,1.49-.56.26,0,.54.16.63.35.11.18.11.34.12.45-.02.23-.06.34-.11.35-.05,0-.11-.11-.18-.29-.1-.18-.23-.36-.45-.29-.54.13-1.37.96-2.14,1.95-.77,1.01-1.61,2.32-2.1,3.76-.24.7-.29,1.52-.05,1.65.12.13.22.16.55.19.15,0,.33,0,.51-.01l.57-.1c1.52-.29,2.98-1.17,4.19-2.18,1.21-1.02,2.22-2.18,2.99-3.25,1.52-2.17,2.17-3.92,2.25-4.17Z"/><path class="cls-1" d="M511.03,198.32c-2.09,2.14-4.41,4.11-7.38,5.34-1.48.58-3.25.96-5.07.47-.22-.07-.45-.12-.67-.2l-.63-.31c-.44-.19-.77-.5-1.13-.78-.68-.6-1.22-1.3-1.62-2.02-.81-1.45-1.3-2.96-1.57-4.45-.17-.75-.26-1.49-.35-2.23-.11-.74-.14-1.48-.18-2.22-.06-.74-.07-1.47-.06-2.2,0-.73-.02-1.47.03-2.19l.22-4.34c.49-5.77,1.47-11.49,2.92-17.1,1.46-5.6,3.44-11.05,5.76-16.33,2.34-5.28,5.06-10.39,8.18-15.26,3.13-4.86,6.63-9.49,10.66-13.7,2-2.1,4.15-4.13,6.59-5.85,2.42-1.72,5.18-3.21,8.37-3.69,1.59-.24,3.3-.13,4.9.46,1.6.57,3.01,1.63,4.04,2.91,2.09,2.59,2.85,5.84,2.79,8.95-.01.22-.08,1.66-.52,3.59-.44,1.93-1.26,4.35-2.49,6.55-.62,1.1-1.32,2.15-2.18,3.04-.44.43-.88.85-1.59,1.14-.68.3-1.44.2-1.86-.26-.23-.21-.36-.47-.49-.7-.08-.23-.18-.47-.2-.66-.08-.39-.09-.72-.1-.99.01-.54.08-.84.18-.85.1,0,.22.28.39.75.18.45.43,1.25.85,1.49.22.17.56.1.77-.07.21-.14.56-.51.85-.9.6-.81,1.12-1.83,1.57-2.88.9-2.11,1.45-4.39,1.71-6.15.26-1.76.23-3,.24-3.18.06-2.55-.61-5.2-2.15-7.06-1.51-1.89-3.87-2.75-6.34-2.34-2.47.36-4.91,1.61-7.11,3.19-2.23,1.56-4.25,3.47-6.18,5.49-3.87,4.03-7.28,8.54-10.32,13.26-3.04,4.74-5.7,9.72-7.97,14.87-2.26,5.15-4.19,10.46-5.61,15.9-1.4,5.45-2.36,11-2.83,16.59l-.22,4.2c-.05.7-.03,1.39-.03,2.09,0,.69,0,1.39.06,2.07.04.69.06,1.38.17,2.04.08.67.16,1.35.31,1.99.23,1.32.66,2.55,1.24,3.58.59,1.04,1.38,1.75,2.33,2,.95.27,2.13.09,3.28-.37,2.33-.95,4.49-2.72,6.35-4.65.12-.15,1.06-1.01,2.16-2.4.55-.69,1.14-1.52,1.61-2.41.25-.44.41-.91.5-1.28.01-.08,0-.13.02-.19.02-.05-.03-.21-.04-.32-.02-.15-.02-.19-.06-.29-.05-.2-.29-.3-.48-.19-.11.06-.15.06-.32.22-.17.16-.34.34-.49.53-.3.38-.55.81-.7,1.18-.07.18-.1.37-.11.4-.01.02-.14.04-.18.08-.03.02-.02,0-.03.02,0,0-.02.02,0,0,.01-.02.02-.04.02-.06h0c-.03.08.04-.13.03-.11h0s.01,0,.01,0h.03s.11.05.11.05c.57.17,1.23-.21,1.61-.48.4-.28.63-.48.72-.42.08.05,0,.37-.31.83-.16.23-.39.49-.73.74-.34.24-.83.48-1.44.44-.17-.04-.24.02-.55-.13-.26-.13-.45-.42-.5-.63-.12-.44-.06-.75,0-1.07.13-.61.36-1.16.68-1.71.16-.27.34-.54.56-.81.22-.26.62-.66,1.01-.87.4-.23.87-.35,1.33-.28.46.07.87.35,1.17.71.16.18.27.41.39.63.09.22.2.51.26.69.04.19.11.32.13.56.02.23.05.48.04.7-.08.81-.29,1.47-.54,2.05-.49,1.18-1.09,2.16-1.64,2.98-1.11,1.65-2.08,2.65-2.22,2.82Z"/><path class="cls-1" d="M48.99,166.62c1.79,4.99,3.3,10.11,4.26,15.38.47,2.63.84,5.3.93,8.01.05.67.03,1.36.02,2.04v1.02s-.09,1.03-.09,1.03l-.08,1.03c-.02.23-.02.2-.02.24v.09s-.05.21-.05.21h438.95l-.03-.21v-.09s-.02,0-.04-.24l-.08-1.03-.08-1.03v-1.02c-.02-.68-.04-1.37.01-2.04.08-2.71.45-5.38.93-8.01.96-5.27,2.46-10.38,4.26-15.38.25-.71,1.93-5.37,4.95-11.66,1.49-3.13,3.36-6.74,5.77-10.28,1.21-1.77,2.54-3.54,4.06-5.21,1.53-1.65,3.21-3.27,5.36-4.42,1.07-.54,2.37-1.01,3.83-.74.73.16,1.39.56,1.89,1.05.46.52.82,1.09,1.04,1.67.46,1.15.64,2.3.71,3.41.07,1.11.06,2.19-.02,3.24-.13,2.11-.56,4.16-1.36,5.99-.2.46-.46.88-.7,1.31-.31.39-.54.82-.92,1.15-.66.7-1.54,1.29-2.59,1.34-.26-.01-.53-.05-.78-.11-.24-.12-.51-.2-.69-.39-.4-.34-.63-.79-.74-1.22-.04-.22-.09-.43-.11-.64,0-.2.02-.4.02-.6.01-.4.09-.72.15-1.06.15-.67.28-1.3.64-1.89.1-.14.2-.31.47-.42.14-.05.34-.05.46.03.13.07.2.15.26.23.21.31.24.58.3.83.15,1,.03,1.75-.03,2.26-.08.51-.17.77-.21.77-.05,0-.06-.28-.08-.78-.03-.5-.02-1.26-.24-2.12-.06-.2-.14-.44-.24-.56-.02-.04-.06,0-.02-.06.04-.1,0-.05.04,0,.05.08-.05.09-.09.21-.21.41-.33,1.03-.41,1.65-.03.31-.09.67-.07.97,0,.16,0,.31,0,.47.03.15.07.29.11.44.19.57.62.95,1.21.88.6-.05,1.25-.48,1.75-1.08.29-.26.47-.65.72-.98.18-.38.4-.75.55-1.16.64-1.64.97-3.54,1.01-5.53.06-1.97-.02-4.12-.76-5.85-.18-.43-.43-.78-.7-1.07-.29-.25-.59-.42-.95-.49-.73-.12-1.65.17-2.5.65-1.73.99-3.28,2.51-4.66,4.1-1.38,1.61-2.62,3.32-3.73,5.05-2.24,3.47-3.94,6.96-5.36,10.09-2.83,6.24-4.4,10.81-4.64,11.51-1.75,4.88-3.21,9.86-4.13,14.92-.46,2.53-.81,5.07-.88,7.61-.05.64-.03,1.26-.02,1.89v.94s.08.93.08.93l.07.93c0,.09.06.45.1.74l.14.88.28,1.77.04.22c.05.1-.03.11-.13.09H50.74c-.1.01-.17,0-.13-.09l.04-.22.28-1.77.14-.88c.05-.29.11-.64.1-.74l.07-.93.07-.93v-.94c.02-.63.04-1.26-.01-1.89-.08-2.53-.43-5.08-.88-7.61-.92-5.06-2.38-10.05-4.13-14.92-.24-.7-1.81-5.28-4.64-11.51-1.41-3.13-3.12-6.62-5.36-10.09-1.11-1.73-2.35-3.44-3.73-5.05-1.38-1.59-2.93-3.12-4.66-4.1-.86-.48-1.78-.76-2.5-.65-.36.07-.66.24-.95.49-.26.29-.52.63-.7,1.07-.73,1.73-.82,3.88-.76,5.85.04,1.99.38,3.89,1.01,5.53.16.41.37.78.55,1.16.25.33.43.72.72.98.5.6,1.15,1.03,1.75,1.08.6.07,1.03-.32,1.21-.88.03-.15.08-.29.11-.44,0-.16,0-.32,0-.47.02-.3-.04-.66-.07-.97-.08-.62-.2-1.24-.41-1.65-.04-.12-.14-.13-.09-.21.03-.05,0-.1.04,0,.04.05,0,.02-.02.06-.1.11-.19.35-.24.56-.22.87-.21,1.62-.24,2.12-.01.5-.03.78-.08.78-.05,0-.13-.26-.21-.77-.07-.51-.18-1.26-.03-2.26.05-.25.09-.52.3-.83.06-.08.13-.16.26-.23.12-.08.32-.08.46-.03.27.12.37.28.47.42.36.59.49,1.21.64,1.89.06.35.14.66.15,1.06,0,.2.02.4.02.6-.02.21-.07.42-.11.64-.11.43-.34.88-.74,1.22-.18.19-.45.27-.69.39-.25.06-.52.1-.78.11-1.06-.05-1.93-.64-2.59-1.34-.38-.33-.61-.75-.92-1.15-.23-.42-.5-.85-.7-1.31-.8-1.82-1.23-3.88-1.36-5.99-.08-1.06-.09-2.13-.02-3.24.07-1.11.25-2.25.71-3.41.22-.58.58-1.15,1.04-1.67.51-.5,1.17-.9,1.89-1.05,1.46-.27,2.75.21,3.83.74,2.15,1.15,3.83,2.77,5.36,4.42,1.52,1.67,2.86,3.44,4.06,5.21,2.41,3.54,4.27,7.15,5.77,10.28,3.01,6.29,4.69,10.95,4.95,11.66Z"/><path class="cls-1" d="M505.08,175.43l-.27.68-.2.69c-.16.46-.21.92-.29,1.38-.06.23-.04.45-.05.68v.33c-.05.25.03.58.04.82l.15,1.59.04.4c.04.1-.1.03-.14.05h-201.43c-1.23,0-29.51-.64-29.51-1.43s28.28-1.43,29.51-1.43h198.47s0,.02,0,0l.02-.47c.02-.31.01-.63.08-.92.1-.6.19-1.2.37-1.77l.25-.85.32-.82c.1-.32.95-2.34,2.81-4.71.94-1.17,2.15-2.42,3.63-3.52,1.48-1.09,3.29-2.06,5.35-2.31l.77-.07c.27,0,.55,0,.84.05.55.06,1.36.38,1.76.97.44.59.48,1.37.41,1.88-.06.55-.24,1-.41,1.44-.75,1.69-1.79,2.94-2.76,3.94-.49.49-.98.91-1.46,1.23-.49.31-.95.57-1.49.56-.26,0-.54-.16-.63-.35-.11-.18-.11-.34-.12-.45.02-.23.06-.34.11-.35.05,0,.11.11.18.29.1.18.23.36.45.29.54-.13,1.37-.96,2.14-1.95.77-1.01,1.61-2.32,2.1-3.76.24-.7.29-1.52.05-1.65-.12-.13-.22-.16-.55-.19-.15,0-.33,0-.51.01l-.57.1c-1.52.29-2.98,1.17-4.19,2.18-1.21,1.02-2.22,2.18-2.99,3.25-1.52,2.17-2.17,3.92-2.25,4.17Z"/><path class="cls-1" d="M508.96,28.88c-1.86-1.93-4.03-3.7-6.35-4.65-1.15-.46-2.33-.64-3.28-.37-.95.25-1.74.96-2.33,2-.57,1.04-1,2.27-1.24,3.58-.15.64-.23,1.32-.31,1.99-.1.67-.13,1.36-.17,2.04-.05.68-.06,1.38-.06,2.07,0,.69-.02,1.38.03,2.09l.22,4.2c.47,5.59,1.43,11.14,2.83,16.59,1.42,5.44,3.35,10.75,5.61,15.9,2.28,5.15,4.93,10.13,7.97,14.87,3.04,4.73,6.46,9.23,10.32,13.26,1.92,2.03,3.95,3.93,6.18,5.49,2.2,1.58,4.64,2.83,7.11,3.19,2.47.4,4.83-.45,6.34-2.34,1.53-1.87,2.21-4.51,2.15-7.06-.01-.18.01-1.42-.24-3.18-.26-1.75-.81-4.04-1.71-6.15-.45-1.05-.97-2.07-1.57-2.88-.3-.4-.65-.76-.85-.9-.21-.17-.55-.23-.77-.07-.42.25-.68,1.05-.85,1.49-.16.48-.29.76-.39.75-.09,0-.17-.31-.18-.85,0-.27.02-.6.1-.99.02-.19.12-.43.2-.66.13-.23.26-.5.49-.7.43-.46,1.19-.56,1.86-.26.71.3,1.15.71,1.59,1.14.86.88,1.56,1.94,2.18,3.04,1.23,2.2,2.05,4.62,2.49,6.55.44,1.93.5,3.37.52,3.59.06,3.11-.69,6.36-2.79,8.95-1.03,1.28-2.44,2.34-4.04,2.91-1.59.59-3.31.69-4.9.46-3.2-.48-5.95-1.97-8.37-3.69-2.44-1.72-4.59-3.75-6.59-5.85-4.03-4.2-7.54-8.84-10.66-13.7-3.12-4.87-5.85-9.97-8.18-15.26-2.32-5.29-4.3-10.73-5.76-16.33-1.44-5.6-2.43-11.32-2.92-17.1l-.22-4.34c-.05-.72-.03-1.46-.03-2.19,0-.73,0-1.46.06-2.2.04-.74.07-1.47.18-2.22.09-.74.17-1.48.35-2.23.27-1.49.76-3,1.57-4.45.41-.72.94-1.43,1.62-2.02.36-.28.7-.59,1.13-.78l.63-.31c.22-.08.44-.14.67-.2,1.82-.49,3.6-.11,5.07.47,2.97,1.23,5.29,3.2,7.38,5.34.14.17,1.11,1.17,2.22,2.82.55.83,1.15,1.8,1.64,2.98.25.58.46,1.25.54,2.05.01.21-.01.47-.04.7-.02.25-.09.37-.13.56-.05.18-.17.47-.26.69-.13.21-.23.45-.39.63-.31.37-.71.64-1.17.71-.46.07-.92-.04-1.33-.28-.39-.21-.79-.61-1.01-.87-.22-.26-.4-.53-.56-.81-.32-.55-.55-1.1-.68-1.71-.05-.31-.11-.63,0-1.07.05-.21.24-.5.5-.63.31-.15.38-.1.55-.13.61-.04,1.1.2,1.44.44.34.25.57.51.73.74.32.46.39.77.31.83-.08.06-.31-.14-.72-.42-.39-.27-1.04-.65-1.61-.48l-.11.04h-.03s-.01.01-.01.01h0s-.06-.19-.03-.1h0s0-.04-.02-.06c-.02-.03-.01-.02,0,0,.01.01,0,0,.03.02.04.05.17.06.18.08,0,.03.04.22.11.4.14.37.4.8.7,1.18.15.19.31.38.49.53.17.16.21.16.32.22.19.1.43,0,.48-.19.04-.1.04-.14.06-.29,0-.1.06-.26.04-.32-.02-.07,0-.11-.02-.19-.09-.37-.25-.83-.5-1.28-.47-.89-1.07-1.72-1.61-2.41-1.1-1.39-2.04-2.25-2.16-2.4Z"/><path class="cls-1" d="M46.3,57.65c1.75-4.88,3.21-9.86,4.13-14.92.46-2.53.81-5.07.88-7.61.05-.64.03-1.26.02-1.89v-.94s-.08-.93-.08-.93l-.07-.93c0-.09-.06-.45-.1-.74l-.14-.88-.28-1.77-.04-.22c-.05-.1.03-.11.13-.09h445.37c.1-.01.17,0,.13.09l-.04.22-.28,1.77-.14.88c-.05.29-.11.64-.1.74l-.07.93-.07.93v.94c-.02.63-.04,1.26.01,1.89.08,2.53.43,5.08.88,7.61.92,5.06,2.38,10.05,4.13,14.92.24.7,1.81,5.28,4.64,11.51,1.41,3.13,3.12,6.62,5.36,10.09,1.11,1.73,2.35,3.44,3.73,5.05,1.38,1.59,2.93,3.12,4.66,4.1.86.48,1.78.76,2.5.65.36-.07.66-.24.95-.49.26-.29.52-.63.7-1.07.73-1.73.82-3.88.76-5.85-.04-1.99-.38-3.89-1.01-5.53-.16-.41-.37-.78-.55-1.16-.25-.33-.43-.72-.72-.98-.5-.6-1.15-1.03-1.75-1.08-.6-.07-1.03.32-1.21.88-.03.15-.08.29-.11.44,0,.16,0,.32,0,.47-.02.3.04.66.07.97.08.62.2,1.24.41,1.65.04.12.14.13.09.21-.03.05,0,.1-.04,0-.04-.05,0-.02.02-.06.1-.11.19-.35.24-.56.22-.87.21-1.62.24-2.12.01-.5.03-.78.08-.78.05,0,.13.26.21.77.07.51.18,1.26.03,2.26-.05.25-.09.52-.3.83-.06.08-.13.16-.26.23-.12.08-.32.08-.46.03-.27-.12-.37-.28-.47-.42-.36-.59-.49-1.21-.64-1.89-.06-.35-.14-.66-.15-1.06,0-.2-.02-.4-.02-.6.02-.21.07-.42.11-.64.11-.43.34-.88.74-1.22.18-.19.45-.27.69-.39.25-.06.52-.1.78-.11,1.06.05,1.93.64,2.59,1.34.38.33.61.75.92,1.15.23.42.5.85.7,1.31.8,1.82,1.23,3.88,1.36,5.99.08,1.06.09,2.13.02,3.24-.07,1.11-.25,2.25-.71,3.41-.22.58-.58,1.15-1.04,1.67-.51.5-1.17.9-1.89,1.05-1.46.27-2.75-.21-3.83-.74-2.15-1.15-3.83-2.77-5.36-4.42-1.52-1.67-2.86-3.44-4.06-5.21-2.41-3.54-4.27-7.15-5.77-10.28-3.01-6.29-4.69-10.95-4.95-11.66-1.79-4.99-3.3-10.11-4.26-15.38-.47-2.63-.84-5.3-.93-8.01-.05-.67-.03-1.36-.02-2.04v-1.02s.09-1.03.09-1.03l.08-1.03c.02-.23.02-.2.02-.24v-.09s.05-.21.05-.21H53.95l.03.21v.09s.02,0,.04.24l.08,1.03.08,1.03v1.02c.02.68.04,1.37-.01,2.04-.08,2.71-.45,5.38-.93,8.01-.96,5.27-2.46,10.38-4.26,15.38-.25.71-1.93,5.37-4.95,11.66-1.49,3.13-3.36,6.74-5.77,10.28-1.21,1.77-2.54,3.54-4.06,5.21-1.53,1.65-3.21,3.27-5.36,4.42-1.07.54-2.37,1.01-3.83.74-.73-.16-1.39-.56-1.89-1.05-.46-.52-.82-1.09-1.04-1.67-.46-1.15-.64-2.3-.71-3.41-.07-1.11-.06-2.19.02-3.24.13-2.11.56-4.16,1.36-5.99.2-.46.46-.88.7-1.31.31-.39.54-.82.92-1.15.66-.7,1.54-1.29,2.59-1.34.26.01.53.05.78.11.24.12.51.2.69.39.4.34.63.79.74,1.22.04.22.09.43.11.64,0,.2-.02.4-.02.6-.01.4-.09.72-.15,1.06-.15.67-.28,1.3-.64,1.89-.1.14-.2.31-.47.42-.14.05-.34.05-.46-.03-.13-.07-.2-.15-.26-.23-.21-.31-.24-.58-.3-.83-.15-1-.03-1.75.03-2.26.08-.51.17-.77.21-.77.05,0,.06.28.08.78.03.5.02,1.26.24,2.12.06.2.14.44.24.56.02.04.06,0,.02.06-.04.1,0,.05-.04,0-.05-.08.05-.09.09-.21.21-.41.33-1.03.41-1.65.03-.31.09-.67.07-.97,0-.16,0-.31,0-.47-.03-.15-.07-.29-.11-.44-.19-.57-.62-.95-1.21-.88-.6.05-1.25.48-1.75,1.08-.29.26-.47.65-.72.98-.18.38-.4.75-.55,1.16-.64,1.64-.97,3.54-1.01,5.53-.06,1.97.02,4.12.76,5.85.18.43.43.78.7,1.07.29.25.59.42.95.49.73.12,1.65-.17,2.5-.65,1.73-.99,3.28-2.51,4.66-4.1,1.38-1.61,2.62-3.32,3.73-5.05,2.24-3.47,3.94-6.96,5.36-10.09,2.83-6.24,4.4-10.81,4.64-11.51Z"/><path class="cls-1" d="M502.43,50.86l-.32-.82-.25-.85c-.18-.56-.27-1.17-.37-1.77-.06-.29-.06-.61-.08-.92l-.02-.47s0,.02,0,0h-198.47c-1.23,0-29.51-.64-29.51-1.43s28.28-1.43,29.51-1.43h201.43s.18-.05.14.05l-.04.4-.15,1.59c-.01.24-.09.57-.05.82v.33c.03.22.01.44.07.68.08.46.14.92.29,1.38l.2.69.27.68c.08.25.73,2,2.25,4.17.77,1.07,1.78,2.22,2.99,3.25,1.21,1.01,2.67,1.89,4.19,2.18l.57.1c.18.01.35.02.51.01.33-.03.43-.06.55-.19.24-.13.19-.95-.05-1.65-.48-1.44-1.33-2.75-2.1-3.76-.77-.99-1.6-1.82-2.14-1.95-.22-.07-.35.11-.45.29-.07.18-.13.29-.18.29-.05,0-.09-.11-.11-.35.02-.11,0-.27.12-.45.09-.19.37-.35.63-.35.54-.01,1,.25,1.49.56.48.32.97.74,1.46,1.23.97,1,2.01,2.25,2.76,3.94.17.44.35.89.41,1.44.07.51.03,1.29-.41,1.88-.4.59-1.21.91-1.76.97-.29.04-.57.05-.84.05l-.77-.07c-2.07-.25-3.87-1.23-5.35-2.31-1.48-1.1-2.69-2.35-3.63-3.52-1.86-2.37-2.71-4.39-2.81-4.71Z"/><path class="cls-1" d="M223.13,39.95c4.92-1.57,9.73-3.51,14.42-5.7,4.7-2.18,9.26-4.67,13.66-7.37,4.38-2.74,8.62-5.73,12.43-9.14,1.89-1.71,3.68-3.53,5.2-5.51.37-.5.76-.99,1.07-1.51.34-.51.67-1.03.92-1.57l.18-.35c.07-.15.16-.29.22-.45l.19-.49.09-.25.08-.32.65-2.54.33-1.27.28-1.16.56-2.33.56,2.33.28,1.16.33,1.27.65,2.54.08.32.09.25.19.49c.06.17.15.3.22.45l.18.35c.25.54.58,1.06.92,1.57.31.52.7,1.01,1.07,1.51,1.52,1.97,3.31,3.79,5.2,5.51,3.81,3.41,8.05,6.4,12.43,9.14,4.41,2.71,8.97,5.19,13.66,7.37,4.69,2.19,9.5,4.14,14.42,5.7.35.12,4.53,1.64,8.74,2.72,2.1.55,4.21.99,5.8,1.27,1.59.29,2.66.46,2.66.67,0,.18-1.09.38-2.75.43-1.66.05-3.88-.09-6.1-.4-4.45-.6-8.86-1.86-9.21-1.98-5.06-1.61-9.97-3.6-14.77-5.84-4.8-2.23-9.45-4.76-13.96-7.53-4.49-2.81-8.85-5.87-12.84-9.44-1.98-1.8-3.89-3.72-5.56-5.89-.41-.55-.84-1.09-1.2-1.69-.38-.58-.75-1.17-1.06-1.82l-.04-.08-.04.08c-.31.65-.68,1.23-1.06,1.82-.36.6-.79,1.14-1.2,1.69-1.67,2.18-3.58,4.09-5.56,5.89-3.99,3.57-8.35,6.63-12.84,9.44-4.51,2.77-9.16,5.31-13.96,7.53-4.79,2.24-9.71,4.22-14.77,5.84-.35.12-4.76,1.38-9.21,1.98-2.22.31-4.44.45-6.1.4-1.66-.05-2.75-.25-2.75-.43,0-.21,1.08-.39,2.66-.67,1.59-.28,3.7-.73,5.8-1.27,4.21-1.08,8.39-2.6,8.74-2.72Z"/><path class="cls-1" d="M223.99,182.57c5.06,1.61,9.97,3.6,14.77,5.84,4.8,2.23,9.45,4.76,13.96,7.53,4.49,2.81,8.85,5.87,12.84,9.44,1.98,1.8,3.89,3.72,5.56,5.89.41.55.84,1.09,1.2,1.69.38.58.75,1.17,1.06,1.82l.04.08.04-.08c.31-.65.68-1.23,1.06-1.82.36-.6.79-1.14,1.2-1.69,1.67-2.18,3.58-4.09,5.56-5.89,3.99-3.57,8.35-6.63,12.84-9.44,4.51-2.77,9.16-5.31,13.96-7.53,4.79-2.24,9.71-4.22,14.77-5.84.35-.12,4.76-1.38,9.21-1.98,2.22-.31,4.44-.45,6.1-.4,1.66.05,2.75.25,2.75.43,0,.21-1.08.39-2.66.67-1.59.28-3.7.73-5.8,1.27-4.21,1.08-8.39,2.6-8.74,2.72-4.92,1.57-9.73,3.51-14.42,5.7-4.7,2.18-9.26,4.67-13.66,7.37-4.38,2.74-8.62,5.73-12.43,9.14-1.89,1.71-3.68,3.53-5.2,5.51-.37.5-.76.99-1.07,1.51-.34.51-.67,1.03-.92,1.57l-.18.35c-.07.15-.16.29-.22.45l-.19.49-.09.25-.08.32-.65,2.54-.33,1.27-.28,1.16-.56,2.33-.56-2.33-.28-1.16-.33-1.27-.65-2.54-.08-.32-.09-.25-.19-.49c-.06-.17-.15-.3-.22-.45l-.18-.35c-.25-.54-.58-1.06-.92-1.57-.31-.52-.7-1.01-1.07-1.51-1.52-1.97-3.31-3.79-5.2-5.51-3.81-3.41-8.05-6.4-12.43-9.14-4.41-2.71-8.97-5.19-13.66-7.37-4.69-2.19-9.5-4.14-14.42-5.7-.35-.12-4.53-1.64-8.74-2.72-2.1-.55-4.21-.99-5.8-1.27-1.59-.29-2.66-.46-2.66-.67,0-.18,1.09-.38,2.75-.43,1.66-.05,3.88.09,6.1.4,4.45.6,8.86,1.86,9.21,1.98Z"/></g></svg>