<?xml version="1.0" encoding="UTF-8"?><svg id="Line" xmlns="http://www.w3.org/2000/svg" viewBox="0 0 565.59 182.85"><defs><style>.cls-1{fill:#fff;stroke-width:0px;}</style></defs><g id="Button_6_Lines"><path class="cls-1" d="M63.69,13.96h191.64c1.14,0,27.47.64,27.47,1.43s-26.33,1.43-27.47,1.43H63.69c-1.14,0-27.47-.64-27.47-1.43s26.33-1.43,27.47-1.43Z"/><path class="cls-1" d="M63.69,166.03h191.64c1.14,0,27.47.64,27.47,1.43s-26.33,1.43-27.47,1.43H63.69c-1.14,0-27.47-.64-27.47-1.43s26.33-1.43,27.47-1.43Z"/><path class="cls-1" d="M41.28,71.54c-1.76-.65-3.61-1.05-5.49-1.1-.93-.09-1.89.02-2.84.04l-1.42.18c-.47.05-.94.13-1.41.25-1.88.34-3.69,1.02-5.47,1.76-.87.43-1.76.8-2.59,1.31l-1.27.72-1.23.8c-3.26,2.14-6.24,4.77-8.98,7.63-1.37,1.43-2.69,2.92-3.96,4.45l-1.87,2.33-1.17,1.53,1.17,1.53,1.87,2.33c1.28,1.53,2.59,3.01,3.96,4.45,2.74,2.86,5.72,5.48,8.98,7.63l1.23.8,1.27.72c.83.51,1.73.87,2.59,1.31,1.78.73,3.59,1.42,5.47,1.76.46.11.93.2,1.41.25l1.42.18c.95.02,1.91.13,2.84.04,1.88-.05,3.73-.45,5.49-1.1.06-.02.29-.09.68-.21.36-.14.85-.34,1.44-.57,1.13-.52,2.59-1.26,3.93-2.2,2.73-1.83,4.9-4.33,5.2-4.14.37.21-1.29,3.28-3.92,5.71-1.29,1.23-2.8,2.26-4.01,2.98-.63.33-1.16.62-1.56.81-.43.17-.69.28-.76.31-2.03.75-4.18,1.21-6.34,1.27-1.09.1-2.14-.01-3.21-.05l-1.59-.2c-.53-.06-1.06-.15-1.57-.28-2.1-.39-4.1-1.13-6.05-1.94-.94-.47-1.92-.88-2.82-1.42l-1.37-.78-1.31-.85c-3.49-2.3-6.62-5.06-9.46-8.03-1.42-1.49-2.79-3.03-4.1-4.6l-1.93-2.39-2.5-3.29,2.5-3.29,1.93-2.39c1.31-1.58,2.68-3.11,4.1-4.6,2.85-2.97,5.97-5.74,9.46-8.03l1.31-.85,1.37-.78c.9-.54,1.88-.95,2.82-1.42,1.95-.81,3.95-1.56,6.05-1.94.52-.12,1.04-.22,1.57-.28l1.59-.2c1.07-.03,2.13-.15,3.21-.05,2.16.06,4.32.52,6.34,1.27.07.03.33.13.76.31.4.19.94.48,1.56.81,1.22.72,2.73,1.74,4.01,2.98,2.64,2.42,4.29,5.49,3.92,5.71-.3.19-2.46-2.31-5.2-4.14-1.34-.94-2.8-1.68-3.93-2.2-.59-.23-1.08-.43-1.44-.57-.38-.12-.62-.19-.68-.21Z"/><path class="cls-1" d="M31.41,35.68c-.52.5-.99,1.04-1.57,1.5-.61.43-1.15.93-1.82,1.29-.69.34-1.33.76-2.11.94-.38.1-.75.26-1.15.3l-1.2.12c-1.62.03-3.21-.43-4.55-1.19-.32-.21-.68-.38-.97-.62l-.26-.19v107.2l.26-.19c.29-.24.65-.41.97-.62,1.34-.76,2.93-1.22,4.55-1.19l1.2.12c.4.04.76.2,1.15.3.79.18,1.43.6,2.11.94.67.36,1.21.86,1.82,1.29.57.46,1.04,1,1.57,1.5.2.15,1.15,1.33,2.35,3.08,1.17,1.75,2.43,4.23,3.12,6.85.71,2.62.82,5.34.48,7.29-.31,1.97-.95,3.15-1.14,3.07-.18-.07.07-1.29.03-3.15-.02-1.85-.42-4.3-1.3-6.6-.86-2.31-2.18-4.45-3.36-5.97-1.2-1.5-2.09-2.51-2.26-2.61-1.66-1.83-3.74-3.17-5.85-3.26-1.05,0-2.09.27-3.07.82-.24.16-.49.27-.72.45l-.54.41-.38.35-.39.44c-.98.99-2.21,2.85-3.46,4.56V29.94c1.25,1.71,2.48,3.57,3.46,4.56l.39.44.38.35.54.41c.22.19.48.3.72.45.98.55,2.02.83,3.07.82,2.1-.09,4.19-1.43,5.85-3.26.17-.1,1.06-1.12,2.26-2.61,1.18-1.52,2.5-3.66,3.36-5.97.88-2.3,1.28-4.75,1.3-6.6.05-1.86-.21-3.08-.03-3.15.18-.08.83,1.1,1.14,3.07.34,1.96.23,4.67-.48,7.29-.69,2.62-1.95,5.1-3.12,6.85-1.2,1.75-2.14,2.93-2.35,3.08Z"/><path class="cls-1" d="M501.9,16.81h-191.64c-1.14,0-27.47-.64-27.47-1.43s26.33-1.43,27.47-1.43h191.64c1.14,0,27.47.64,27.47,1.43s-26.33,1.43-27.47,1.43Z"/><path class="cls-1" d="M30.11,10.67c1.12-2.57,2.86-4.89,4.99-6.68,2.1-1.84,4.71-3.23,7.55-3.75,2.83-.52,5.82-.18,8.46,1.05,1.32.62,2.55,1.46,3.59,2.6.51.58.97,1.24,1.3,2.02.09.19.15.4.22.6.03.1.07.2.09.32.02.11.05.24.04.2h452.88s.01-.09.04-.2c.02-.11.06-.21.09-.32.07-.21.13-.42.22-.6.33-.78.79-1.44,1.3-2.02,1.04-1.14,2.28-1.98,3.59-2.6,2.64-1.23,5.63-1.57,8.46-1.05,2.84.52,5.45,1.91,7.55,3.75,2.13,1.79,3.86,4.11,4.99,6.68.1.19.31.63.52,1.35.11.36.25.77.4,1.24.15.47.21,1.02.33,1.61.43,2.36.5,5.67-.37,9.3-.83,3.63-2.51,7.54-4.82,11.3-2.29,3.78-5.19,7.42-8.21,10.86-2.97,3.34-5.53,7-7.41,10.69-1.88,3.69-3,7.42-3.44,10.69-.46,3.27-.28,6.04.01,7.94.29,1.91.66,2.96.57,2.99-.09.04-.65-.96-1.13-2.88-.48-1.91-.86-4.77-.55-8.18.29-3.41,1.29-7.35,3.11-11.26,1.81-3.91,4.35-7.79,7.32-11.33,2.88-3.47,5.59-7.06,7.7-10.74,2.13-3.65,3.61-7.36,4.29-10.67.71-3.32.58-6.2.18-8.22-.12-.5-.17-.98-.3-1.37-.14-.4-.25-.75-.36-1.05-.18-.61-.37-.98-.45-1.14-.95-2.17-2.4-4.13-4.24-5.67-1.79-1.57-3.93-2.68-6.2-3.1-2.26-.42-4.66-.14-6.73.82-1.03.48-1.97,1.14-2.67,1.92-.35.39-.63.81-.81,1.23-.06.1-.08.21-.11.31-.01.05-.04.1-.04.15l-.05.27c-.01.68.1,1.46.14,2.13H53.45c.04-.66.15-1.45.14-2.13l-.05-.27s-.03-.1-.04-.15c-.03-.1-.06-.2-.11-.31-.18-.42-.46-.84-.81-1.23-.71-.78-1.65-1.43-2.67-1.92-2.07-.96-4.47-1.25-6.73-.82-2.27.42-4.41,1.54-6.2,3.1-1.84,1.54-3.29,3.5-4.24,5.67-.08.16-.27.53-.45,1.14-.1.3-.22.65-.36,1.05-.13.4-.19.87-.3,1.37-.4,2.02-.53,4.9.18,8.22.69,3.32,2.16,7.02,4.29,10.67,2.11,3.67,4.82,7.26,7.7,10.74,2.97,3.54,5.51,7.42,7.32,11.33,1.81,3.91,2.82,7.85,3.11,11.26.3,3.42-.07,6.27-.55,8.18-.48,1.92-1.05,2.92-1.13,2.88-.09-.04.28-1.08.57-2.99.29-1.9.47-4.67.01-7.94-.44-3.27-1.56-7-3.44-10.69-1.87-3.69-4.43-7.35-7.41-10.69-3.02-3.43-5.93-7.08-8.21-10.86-2.31-3.76-3.99-7.67-4.82-11.3-.86-3.63-.8-6.93-.37-9.3.12-.59.18-1.14.33-1.61.15-.47.28-.89.4-1.24.21-.72.42-1.17.52-1.35Z"/><path class="cls-1" d="M501.9,168.89h-191.64c-1.14,0-27.47-.64-27.47-1.43s26.33-1.43,27.47-1.43h191.64c1.14,0,27.47.64,27.47,1.43s-26.33,1.43-27.47,1.43Z"/><path class="cls-1" d="M32.73,171.03c.95,2.17,2.4,4.13,4.24,5.67,1.79,1.57,3.93,2.68,6.2,3.1,2.26.42,4.66.14,6.73-.82,1.03-.48,1.97-1.14,2.67-1.92.35-.39.63-.81.81-1.23.06-.1.08-.21.11-.31.01-.05.04-.1.04-.15l.05-.27c.01-.68-.1-1.46-.14-2.13h458.69c-.04.66-.15,1.45-.14,2.13l.05.27s.03.1.04.15c.03.1.06.2.11.31.18.42.46.84.81,1.23.71.78,1.65,1.43,2.67,1.92,2.07.96,4.47,1.25,6.73.82,2.27-.42,4.41-1.54,6.2-3.1,1.84-1.54,3.29-3.5,4.24-5.67.08-.16.27-.53.45-1.14.1-.3.22-.65.36-1.05.13-.4.19-.87.3-1.37.4-2.02.53-4.9-.18-8.22-.69-3.32-2.16-7.02-4.29-10.67-2.11-3.67-4.82-7.26-7.7-10.74-2.97-3.54-5.51-7.42-7.32-11.33-1.81-3.91-2.82-7.85-3.11-11.26-.3-3.42.07-6.27.55-8.18.48-1.92,1.05-2.92,1.13-2.88.09.04-.28,1.08-.57,2.99-.29,1.9-.47,4.67-.01,7.94.44,3.27,1.56,7,3.44,10.69,1.87,3.69,4.43,7.35,7.41,10.69,3.02,3.43,5.93,7.08,8.21,10.86,2.31,3.76,3.99,7.67,4.82,11.3.86,3.63.8,6.93.37,9.3-.12.59-.18,1.14-.33,1.61-.15.47-.28.89-.4,1.24-.21.72-.42,1.17-.52,1.35-1.12,2.57-2.86,4.89-4.99,6.68-2.1,1.84-4.71,3.23-7.55,3.75-2.83.52-5.82.18-8.46-1.05-1.32-.62-2.55-1.46-3.59-2.6-.51-.58-.97-1.24-1.3-2.02-.09-.19-.15-.4-.22-.6-.03-.1-.07-.2-.09-.32-.02-.11-.05-.24-.04-.2H56.35s-.01.09-.04.2c-.02.11-.06.21-.09.32-.07.21-.13.42-.22.6-.33.78-.79,1.44-1.3,2.02-1.04,1.14-2.28,1.98-3.59,2.6-2.64,1.23-5.63,1.57-8.46,1.05-2.84-.52-5.45-1.91-7.55-3.75-2.13-1.79-3.86-4.11-4.99-6.68-.1-.19-.31-.63-.52-1.35-.11-.36-.25-.77-.4-1.24-.15-.47-.21-1.02-.33-1.61-.43-2.36-.5-5.67.37-9.3.83-3.63,2.51-7.54,4.82-11.3,2.29-3.78,5.2-7.42,8.21-10.86,2.97-3.34,5.53-7,7.41-10.69,1.88-3.69,3-7.42,3.44-10.69.46-3.27.28-6.04-.01-7.94-.29-1.91-.66-2.96-.57-2.99.09-.04.65.96,1.13,2.88.48,1.91.86,4.77.55,8.18-.29,3.41-1.29,7.35-3.11,11.26-1.81,3.91-4.35,7.79-7.32,11.33-2.88,3.47-5.59,7.06-7.7,10.74-2.13,3.65-3.61,7.36-4.29,10.67-.71,3.32-.58,6.2-.18,8.22.12.5.17.98.3,1.37.13.4.25.75.36,1.05.18.61.37.98.45,1.14Z"/><path class="cls-1" d="M523.32,68.85c2.03-.75,4.18-1.21,6.34-1.27,1.09-.1,2.14.01,3.21.05l1.59.2c.53.06,1.06.15,1.57.28,2.1.39,4.1,1.13,6.05,1.94.94.47,1.92.88,2.82,1.42l1.37.78,1.31.85c3.49,2.3,6.62,5.06,9.46,8.03,1.42,1.49,2.79,3.03,4.1,4.6l1.93,2.39,2.5,3.29-2.5,3.29-1.93,2.39c-1.31,1.58-2.68,3.11-4.1,4.6-2.85,2.97-5.97,5.74-9.46,8.03l-1.31.85-1.37.78c-.9.54-1.88.95-2.82,1.42-1.95.81-3.95,1.56-6.05,1.94-.52.12-1.04.22-1.57.28l-1.59.2c-1.07.03-2.13.15-3.21.05-2.16-.06-4.32-.52-6.34-1.27-.07-.03-.33-.13-.76-.31-.4-.19-.94-.48-1.56-.81-1.22-.72-2.73-1.74-4.01-2.98-2.64-2.42-4.29-5.49-3.92-5.71.3-.19,2.46,2.31,5.2,4.14,1.34.94,2.8,1.68,3.93,2.2.59.23,1.08.43,1.44.57.38.12.62.19.68.21,1.76.65,3.61,1.05,5.49,1.1.93.09,1.89-.02,2.84-.04l1.42-.18c.47-.05.94-.13,1.41-.25,1.88-.34,3.69-1.02,5.47-1.76.87-.43,1.76-.8,2.59-1.31l1.27-.72,1.23-.8c3.26-2.14,6.24-4.77,8.98-7.63,1.37-1.43,2.69-2.92,3.96-4.45l1.87-2.33,1.17-1.53-1.17-1.53-1.87-2.33c-1.28-1.53-2.59-3.01-3.96-4.45-2.74-2.86-5.72-5.48-8.98-7.63l-1.23-.8-1.27-.72c-.83-.51-1.73-.87-2.59-1.31-1.78-.73-3.59-1.42-5.47-1.76-.46-.11-.93-.2-1.41-.25l-1.42-.18c-.95-.02-1.91-.13-2.84-.04-1.88.05-3.73.45-5.49,1.1-.06.02-.29.09-.68.21-.36.14-.85.34-1.44.57-1.13.52-2.59,1.26-3.93,2.2-2.73,1.83-4.9,4.33-5.2,4.14-.37-.21,1.29-3.28,3.92-5.71,1.29-1.23,2.8-2.26,4.01-2.98.63-.33,1.16-.62,1.56-.81.43-.17.69-.28.76-.31Z"/><path class="cls-1" d="M536.25,33.72c1.66,1.83,3.74,3.17,5.85,3.26,1.05,0,2.09-.27,3.07-.82.24-.16.49-.27.72-.45l.54-.41.38-.35.39-.44c.98-.99,2.21-2.85,3.46-4.56v122.96c-1.25-1.71-2.48-3.57-3.46-4.56l-.39-.44-.38-.35-.54-.41c-.22-.19-.48-.3-.72-.45-.98-.55-2.02-.83-3.07-.82-2.1.09-4.19,1.43-5.85,3.26-.17.1-1.06,1.12-2.26,2.61-1.18,1.52-2.5,3.66-3.36,5.97-.88,2.3-1.28,4.75-1.3,6.6-.05,1.86.21,3.08.03,3.15-.18.08-.83-1.1-1.14-3.07-.34-1.96-.23-4.67.48-7.29.69-2.62,1.95-5.1,3.12-6.85,1.2-1.75,2.14-2.93,2.35-3.08.52-.5.99-1.04,1.57-1.5.61-.43,1.15-.93,1.82-1.29.69-.34,1.33-.76,2.11-.94.38-.1.75-.26,1.15-.3l1.2-.12c1.62-.03,3.21.43,4.55,1.19.32.21.68.38.97.62l.26.19V37.83l-.26.19c-.29.24-.65.41-.97.62-1.34.76-2.93,1.22-4.55,1.19l-1.2-.12c-.4-.04-.76-.2-1.15-.3-.79-.18-1.43-.6-2.11-.94-.67-.36-1.21-.86-1.82-1.29-.57-.46-1.04-1-1.57-1.5-.2-.15-1.15-1.33-2.35-3.08-1.17-1.75-2.43-4.23-3.12-6.85-.71-2.62-.82-5.34-.48-7.29.31-1.97.95-3.15,1.14-3.07.18.07-.07,1.29-.03,3.15.02,1.85.42,4.3,1.3,6.6.86,2.31,2.18,4.45,3.36,5.97,1.2,1.5,2.09,2.51,2.26,2.61Z"/></g></svg>