<?xml version="1.0" encoding="UTF-8"?><svg id="Line" xmlns="http://www.w3.org/2000/svg" viewBox="0 0 502.86 184.65"><defs><style>.cls-1{fill:#fff;stroke-width:0px;}</style></defs><g id="Button_15_Lines"><path class="cls-1" d="M299.56,178.3c17.85-.4,35.7-1.08,53.54-1.89,17.84-.8,35.68-1.81,53.5-2.96,17.82-1.16,35.64-2.46,53.42-4.01l.83-.07.51-.05.42-.04c.07,0,.14-.02.21,0l.19.09,1.03.51.77.4c1.01.55,2,1.13,2.98,1.74,1.94,1.23,3.82,2.59,5.56,4.15.87.78,1.69,1.63,2.48,2.53l.49.63h0s0,0,0,0l.8-1.36c.55-1,1.21-1.93,1.86-2.88,2.58-3.75,5.6-7.4,9.7-9.94,2-1.31,4.39-2.19,6.88-2.41,1.25-.13,2.52,0,3.76.24.31.07.61.17.92.26l.43.13.08.03.1.04v-92.47c-.02-1.26-.08-2.5-.11-3.75-.06-1.25-.05-2.5-.16-3.74l-.4-3.7c-.08-.62-.11-1.24-.22-1.85l-.37-1.81-.36-1.82c-.13-.6-.21-1.22-.42-1.8l-1.09-3.51c-.41-1.15-.96-2.24-1.43-3.37-.05-.11-.16-.37-.33-.77-.2-.38-.49-.87-.84-1.48-.35-.6-.74-1.33-1.22-2.12-.54-.75-1.15-1.58-1.8-2.48-1.38-1.74-3.12-3.63-5.16-5.48-.99-.94-2.13-1.82-3.22-2.76-1.12-.91-2.3-1.8-3.45-2.7-4.69-3.53-9.4-7.06-12.63-10.03-1.67-1.42-2.92-2.75-3.81-3.66-.88-.92-1.35-1.47-1.28-1.54.07-.07.67.34,1.67,1.12,1.01.77,2.37,1.95,4.13,3.23,3.42,2.67,8.24,5.9,13.12,9.25,1.21.87,2.43,1.71,3.61,2.59,1.16.92,2.35,1.77,3.42,2.71,2.19,1.84,4.11,3.78,5.64,5.6.73.95,1.41,1.82,2.02,2.61.54.84.99,1.61,1.38,2.25.39.65.72,1.18.94,1.59.19.42.32.71.37.82.51,1.21,1.1,2.4,1.54,3.63l1.16,3.75c.22.62.31,1.26.45,1.9l.38,1.91.38,1.91c.11.64.15,1.28.23,1.93l.42,3.85c.12,1.28.11,2.57.16,3.85.04,1.28.1,2.58.11,3.85v97.55l-1.72-1.21-.43-.3c-.15-.11-.29-.2-.39-.24l-.7-.35-.7-.35c-.17-.07-.25-.08-.37-.12-.23-.06-.46-.14-.69-.2-.95-.18-1.92-.29-2.89-.18-1.94.18-3.89.85-5.62,2-3.54,2.17-6.4,5.55-8.84,9.12-.62.89-1.25,1.78-1.78,2.74l-2.59,4.43-.42.72c-.02.05-.04.03-.06,0l-.06-.09-.12-.17-.23-.34-.92-1.37c-.31-.42-.61-1.01-.97-1.41l-.54-.69c-.69-.78-1.41-1.54-2.2-2.25-1.58-1.42-3.34-2.69-5.17-3.85-.92-.57-1.86-1.12-2.81-1.64l-1.18-.61h0s-.33.03-.33.03l-.84.07c-17.82,1.55-35.65,2.86-53.49,4.01-17.84,1.15-35.69,2.16-53.55,2.96-17.86.81-35.73,1.48-53.6,1.89-.49,0-3.75.04-8.38.09-4.58-.01-10.53-.03-16.48-.05-5.9-.03-11.74-.2-16.1-.33-4.36-.15-7.25-.32-7.25-.52s2.89-.4,7.24-.59c4.36-.21,10.19-.34,16.08-.58,11.92-.42,23.83-.85,24.81-.88Z"/><path class="cls-1" d="M203.23,181.16c-17.88-.4-35.74-1.08-53.6-1.89-17.86-.8-35.71-1.81-53.55-2.96-17.84-1.16-35.67-2.46-53.49-4.01l-.84-.07-.33-.03h0s-1.18.61-1.18.61c-.95.51-1.89,1.07-2.81,1.64-1.83,1.16-3.59,2.43-5.17,3.85-.79.71-1.52,1.47-2.2,2.25l-.54.69c-.35.4-.66.99-.97,1.41l-.92,1.37-.23.34-.12.17-.06.09s-.04.06-.06,0l-.42-.72-2.59-4.43c-.53-.97-1.16-1.85-1.78-2.74-2.44-3.57-5.3-6.96-8.84-9.12-1.73-1.15-3.68-1.82-5.62-2-.97-.11-1.95,0-2.89.18-.23.06-.46.14-.69.2-.13.04-.21.05-.37.12l-.7.35-.7.35c-.11.04-.24.13-.39.24l-.43.3-1.72,1.21v-97.55c.02-1.27.08-2.57.11-3.85.06-1.29.05-2.57.16-3.85l.42-3.85c.08-.64.12-1.29.23-1.93l.38-1.91.38-1.91c.14-.64.22-1.28.45-1.9l1.16-3.75c.44-1.23,1.03-2.42,1.54-3.63.05-.12.18-.4.37-.82.22-.41.55-.94.94-1.59.4-.64.84-1.41,1.38-2.25.61-.79,1.29-1.66,2.02-2.61,1.54-1.82,3.46-3.76,5.64-5.6,1.07-.95,2.26-1.79,3.42-2.71,1.18-.88,2.4-1.73,3.61-2.59,4.88-3.35,9.69-6.58,13.12-9.25,1.76-1.28,3.12-2.46,4.13-3.23,1-.78,1.6-1.19,1.67-1.12.07.07-.4.62-1.28,1.54-.89.91-2.14,2.24-3.81,3.66-3.24,2.96-7.94,6.49-12.63,10.03-1.15.91-2.32,1.79-3.45,2.7-1.09.94-2.22,1.81-3.22,2.76-2.03,1.85-3.78,3.73-5.16,5.48-.65.9-1.26,1.73-1.8,2.48-.48.79-.87,1.52-1.22,2.12-.34.61-.64,1.1-.84,1.48-.17.4-.28.66-.33.77-.47,1.12-1.02,2.22-1.43,3.37l-1.09,3.51c-.21.58-.29,1.19-.42,1.8l-.36,1.82-.37,1.81c-.1.61-.14,1.23-.22,1.85l-.4,3.7c-.11,1.24-.1,2.49-.16,3.74-.04,1.25-.09,2.49-.11,3.75v92.47l.1-.04.08-.03.43-.13c.31-.09.61-.19.92-.26,1.24-.25,2.52-.37,3.76-.24,2.5.22,4.89,1.1,6.88,2.41,4.11,2.54,7.12,6.18,9.7,9.94.65.94,1.32,1.88,1.86,2.88l.8,1.36h0s0,0,0,0l.49-.63c.78-.9,1.6-1.75,2.48-2.53,1.74-1.57,3.62-2.92,5.56-4.15.98-.61,1.96-1.19,2.98-1.74l.77-.4,1.03-.51.19-.09c.07-.01.14,0,.21,0l.42.04.51.05.83.07c17.78,1.55,35.6,2.85,53.42,4.01,17.82,1.15,35.66,2.16,53.5,2.96,17.84.81,35.69,1.48,53.54,1.89.98.04,12.89.46,24.81.88,5.89.23,11.72.37,16.08.58,4.36.19,7.24.4,7.24.59s-2.89.37-7.25.52c-4.36.13-10.2.3-16.1.33-5.95.02-11.89.03-16.48.05-4.63-.05-7.88-.09-8.38-.09Z"/><path class="cls-1" d="M439.15,30.81c-15.58,1.85-31.21,3.12-46.84,4.16-15.63,1.03-31.28,1.81-46.93,2.42-31.3,1.23-62.62,1.76-93.94,1.79-31.32-.04-62.64-.56-93.94-1.79-15.65-.61-31.3-1.39-46.93-2.42-15.63-1.04-31.26-2.31-46.84-4.16-.28-.03-1.32-.17-2.94-.37-1.61-.24-3.79-.56-6.35-.95-5.11-.74-11.75-1.99-18.12-3.98-3.18-1.01-6.3-2.18-9.08-3.65-1.38-.73-2.69-1.53-3.82-2.47-.56-.47-1.09-.97-1.53-1.55s-.82-1.21-.91-1.97c-.11-.75.14-1.51.55-2.03.43-.49.9-.85,1.37-1.08.93-.51,1.8-.71,2.5-.88,1.41-.29,2.23-.28,2.25-.2.02.12-.77.29-2.09.75-.65.24-1.45.53-2.22,1.05-.39.24-.74.57-1.02.94-.24.39-.34.81-.24,1.27.19.94,1.15,1.86,2.19,2.64,1.07.79,2.34,1.48,3.69,2.11,2.71,1.27,5.8,2.28,8.93,3.14,6.3,1.7,12.82,2.72,17.92,3.31,2.55.31,4.73.58,6.33.78,1.62.17,2.66.28,2.93.31,15.5,1.84,31.09,3.11,46.69,4.15,15.6,1.03,31.22,1.8,46.85,2.42,31.26,1.23,62.55,1.75,93.83,1.79,31.28-.04,62.57-.56,93.83-1.79,15.63-.61,31.25-1.39,46.85-2.42,15.6-1.04,31.19-2.31,46.69-4.15.28-.03,1.32-.14,2.93-.31,1.6-.2,3.78-.46,6.33-.78,5.1-.59,11.62-1.61,17.92-3.31,3.14-.86,6.22-1.87,8.93-3.14,1.35-.63,2.62-1.32,3.69-2.11,1.04-.78,2-1.7,2.19-2.64.1-.46,0-.88-.24-1.27-.28-.37-.62-.7-1.02-.94-.77-.52-1.57-.81-2.22-1.05-1.32-.46-2.11-.64-2.09-.75.01-.07.83-.09,2.25.2.7.16,1.57.37,2.5.88.47.24.94.59,1.37,1.08.41.52.66,1.28.55,2.03-.09.76-.48,1.4-.91,1.97-.44.58-.97,1.08-1.53,1.55-1.13.94-2.44,1.74-3.82,2.47-2.77,1.47-5.9,2.64-9.08,3.65-6.37,1.99-13,3.24-18.12,3.98-2.56.38-4.74.71-6.35.95-1.62.21-2.66.34-2.94.37Z"/><path class="cls-1" d="M385.94,25.79c-11.17,1.33-22.37,2.24-33.58,2.98-11.2.74-22.41,1.3-33.63,1.74-22.43.88-44.87,1.26-67.31,1.29-22.44-.03-44.88-.4-67.31-1.29-11.21-.44-22.42-1-33.63-1.74-11.2-.75-22.4-1.66-33.58-2.98-.2-.03-.94-.12-2.11-.28-1.15-.18-2.71-.42-4.55-.7-3.67-.55-8.44-1.48-13.01-2.95-2.28-.74-4.53-1.6-6.52-2.68-1-.54-1.94-1.13-2.76-1.82-.79-.71-1.6-1.48-1.78-2.65-.08-.58.12-1.17.43-1.56.33-.37.68-.63,1.03-.8.69-.36,1.32-.5,1.83-.6,1.03-.19,1.62-.15,1.63-.07.02.11-.55.27-1.48.62-.46.19-1.02.41-1.55.78-.27.17-.5.41-.68.65-.15.26-.2.52-.13.8.13.59.79,1.23,1.53,1.76.76.54,1.66,1.02,2.63,1.46,1.93.88,4.14,1.58,6.38,2.18,4.5,1.17,9.16,1.87,12.81,2.28,1.83.21,3.39.4,4.53.53,1.16.12,1.9.2,2.1.22,11.09,1.32,22.25,2.22,33.42,2.97,11.17.74,22.36,1.29,33.55,1.73,22.39.88,44.79,1.26,67.2,1.28,22.4-.03,44.81-.4,67.2-1.28,11.19-.44,22.38-.99,33.55-1.73,11.17-.74,22.33-1.65,33.42-2.97.2-.02.94-.1,2.1-.22,1.15-.13,2.7-.32,4.53-.53,3.65-.4,8.31-1.1,12.81-2.28,2.24-.6,4.45-1.29,6.38-2.18.96-.44,1.87-.92,2.63-1.46.74-.53,1.4-1.18,1.53-1.76.07-.28.02-.54-.13-.8-.18-.24-.41-.48-.68-.65-.52-.37-1.09-.59-1.55-.78-.93-.35-1.5-.51-1.48-.62.01-.08.6-.12,1.63.07.51.11,1.14.24,1.83.6.35.17.7.43,1.03.8.32.39.52.98.43,1.56-.19,1.17-1,1.94-1.78,2.65-.82.69-1.76,1.28-2.76,1.82-2,1.08-4.24,1.94-6.52,2.68-4.57,1.47-9.34,2.39-13.01,2.95-1.84.28-3.4.52-4.55.7-1.16.15-1.91.25-2.11.28Z"/></g></svg>