<?xml version="1.0" encoding="UTF-8"?><svg id="Line" xmlns="http://www.w3.org/2000/svg" viewBox="0 0 546.27 187.86"><defs><style>.cls-1{fill:none;stroke:#fff;stroke-miterlimit:10;stroke-width:3px;}.cls-2{fill:#fff;stroke-width:0px;}</style></defs><g id="Button_13_Lines"><rect class="cls-1" x="22.62" y="16.41" width="501.03" height="155.04" rx="32.37" ry="32.37"/><path class="cls-2" d="M21.19,36.76c5.16.68,10.43.79,15.7.64,5.27-.15,10.55-.58,15.81-1.14,10.53-1.14,21.02-2.79,31.48-4.65,20.92-3.74,41.72-8.23,62.56-12.6,20.83-4.38,41.69-8.73,62.71-12.33,10.51-1.79,21.06-3.39,31.67-4.61,10.61-1.21,21.28-2.05,32.01-2.08,10.73.03,21.4.86,32.01,2.08,10.61,1.22,21.16,2.82,31.67,4.61,21.02,3.6,41.88,7.95,62.71,12.33,20.83,4.37,41.64,8.86,62.56,12.6,10.46,1.86,20.95,3.51,31.48,4.65,5.26.56,10.54.98,15.81,1.14,5.27.14,10.54.04,15.7-.64.18-.03.62-.1,1.27-.2.66-.1,1.54-.23,2.58-.47,2.09-.43,4.94-1.12,7.84-2.67,1.42-.81,2.89-1.78,4.08-3.12,1.18-1.34,2.11-2.99,2.65-4.87.5-1.89.56-3.98.4-6.09-.17-2.1-.67-4.2-1.55-6.12-1.74-3.88-5.08-6.85-8.69-8.6-3.62-1.78-7.43-2.5-10.66-2.63-3.25-.14-5.95.35-7.69,1.05-.89.32-1.48.75-1.9,1.03-.38.32-.59.51-.63.47-.04-.03.1-.27.43-.69.37-.37.96-.91,1.86-1.34,1.76-.91,4.56-1.61,7.94-1.64,3.37-.03,7.38.54,11.33,2.29,1.96.88,3.9,2.07,5.61,3.61,1.71,1.54,3.18,3.44,4.23,5.57,1.05,2.13,1.67,4.46,1.92,6.76.1.58.09,1.15.13,1.73l.04.86-.04.87c-.04.58-.02,1.16-.12,1.73-.1.57-.21,1.14-.31,1.71-.57,2.25-1.66,4.3-3.05,5.95-1.41,1.65-3.1,2.81-4.7,3.76-3.26,1.82-6.31,2.6-8.52,3.1-1.11.27-2.03.42-2.72.54-.69.12-1.15.19-1.34.22-5.4.71-10.8.82-16.17.67-5.37-.16-10.71-.59-16.03-1.15-10.63-1.15-21.18-2.81-31.68-4.68-20.99-3.75-41.82-8.24-62.65-12.62-20.83-4.38-41.66-8.72-62.6-12.31-10.47-1.79-20.98-3.38-31.52-4.59-10.54-1.21-21.12-2.03-31.68-2.06-10.57.03-21.15.85-31.68,2.06-10.54,1.21-21.04,2.8-31.52,4.59-20.95,3.59-41.78,7.93-62.6,12.31-20.83,4.37-41.65,8.87-62.65,12.62-10.5,1.87-21.05,3.53-31.68,4.68-5.32.57-10.66,1-16.03,1.15-5.37.15-10.77.04-16.17-.67-.19-.03-.65-.11-1.34-.22-.69-.11-1.61-.26-2.72-.54-2.21-.5-5.25-1.28-8.52-3.1-1.6-.95-3.29-2.12-4.7-3.76-1.4-1.65-2.49-3.7-3.05-5.95-.1-.56-.21-1.13-.31-1.71-.1-.57-.08-1.15-.12-1.73l-.04-.87.04-.86c.04-.57.03-1.15.13-1.73.25-2.31.87-4.64,1.92-6.76,1.04-2.13,2.52-4.03,4.23-5.57,1.71-1.54,3.65-2.73,5.61-3.61,3.95-1.76,7.95-2.33,11.33-2.29,3.38.03,6.18.73,7.94,1.64.9.43,1.49.97,1.86,1.34.34.42.47.66.43.69-.04.03-.25-.15-.63-.47-.42-.28-1.01-.71-1.9-1.03-1.74-.7-4.44-1.19-7.69-1.05-3.23.13-7.04.85-10.66,2.63-3.61,1.74-6.96,4.72-8.69,8.6-.88,1.92-1.38,4.02-1.55,6.12-.16,2.12-.1,4.2.4,6.09.53,1.88,1.46,3.53,2.65,4.87,1.2,1.34,2.67,2.31,4.08,3.12,2.9,1.55,5.76,2.24,7.84,2.67,1.04.24,1.92.37,2.58.47.66.1,1.09.17,1.27.2Z"/><path class="cls-2" d="M20.8,148.26c5.4-.71,10.8-.82,16.17-.67,5.37.16,10.71.59,16.03,1.15,10.63,1.15,21.18,2.81,31.68,4.68,20.99,3.75,41.82,8.24,62.65,12.62,20.83,4.38,41.66,8.72,62.6,12.31,10.47,1.79,20.98,3.38,31.52,4.59,10.54,1.21,21.12,2.03,31.68,2.06,10.57-.03,21.15-.85,31.68-2.06,10.54-1.21,21.04-2.8,31.52-4.59,20.95-3.59,41.78-7.93,62.6-12.31,20.83-4.37,41.65-8.87,62.65-12.62,10.5-1.87,21.05-3.53,31.68-4.68,5.32-.57,10.66-1,16.03-1.15,5.37-.15,10.77-.04,16.17.67.19.03.65.11,1.34.22.69.11,1.61.26,2.72.54,2.21.5,5.25,1.28,8.52,3.1,1.6.95,3.29,2.12,4.7,3.76,1.4,1.65,2.49,3.7,3.05,5.95.1.56.21,1.13.31,1.71.1.57.08,1.15.12,1.73l.04.87-.04.86c-.04.58-.03,1.15-.13,1.73-.25,2.31-.87,4.64-1.92,6.76-1.04,2.13-2.52,4.03-4.23,5.57-1.71,1.54-3.65,2.73-5.61,3.61-3.95,1.76-7.95,2.33-11.33,2.29-3.38-.03-6.18-.73-7.94-1.64-.9-.43-1.49-.97-1.86-1.34-.34-.42-.47-.66-.43-.69.04-.03.25.15.63.47.42.28,1.01.71,1.9,1.03,1.74.7,4.44,1.19,7.69,1.05,3.23-.13,7.04-.85,10.66-2.63,3.61-1.74,6.96-4.72,8.69-8.6.88-1.92,1.38-4.02,1.55-6.12.16-2.12.1-4.2-.4-6.09-.53-1.88-1.46-3.53-2.65-4.87-1.2-1.34-2.67-2.31-4.08-3.12-2.9-1.55-5.76-2.24-7.84-2.67-1.04-.24-1.92-.37-2.58-.47-.66-.1-1.09-.17-1.27-.2-5.16-.68-10.43-.79-15.7-.64-5.27.15-10.55.58-15.81,1.14-10.53,1.14-21.02,2.79-31.48,4.65-20.92,3.74-41.72,8.23-62.56,12.6-20.83,4.38-41.69,8.73-62.71,12.33-10.51,1.79-21.06,3.39-31.67,4.61-10.61,1.21-21.28,2.05-32.01,2.08-10.73-.03-21.4-.86-32.01-2.08-10.61-1.22-21.16-2.82-31.67-4.61-21.02-3.6-41.88-7.95-62.71-12.33-20.83-4.37-41.64-8.86-62.56-12.6-10.46-1.86-20.95-3.51-31.48-4.65-5.26-.56-10.54-.98-15.81-1.14-5.27-.14-10.54-.04-15.7.64-.18.03-.62.1-1.27.2-.66.1-1.54.23-2.58.47-2.09.43-4.94,1.12-7.84,2.67-1.42.81-2.89,1.78-4.08,3.12-1.18,1.34-2.11,2.99-2.65,4.87-.5,1.89-.56,3.98-.4,6.09.17,2.1.67,4.2,1.55,6.12,1.74,3.88,5.08,6.85,8.69,8.6,3.62,1.78,7.43,2.5,10.66,2.63,3.25.14,5.95-.35,7.69-1.05.89-.32,1.48-.75,1.9-1.03.38-.32.59-.51.63-.47.04.03-.1.27-.43.69-.37.37-.96.91-1.86,1.34-1.76.91-4.56,1.61-7.94,1.64-3.37.03-7.38-.54-11.33-2.29-1.96-.88-3.9-2.07-5.61-3.61-1.71-1.54-3.18-3.44-4.23-5.57-1.05-2.13-1.67-4.46-1.92-6.76-.1-.58-.09-1.15-.13-1.73l-.04-.86.04-.87c.04-.58.02-1.16.12-1.73.1-.57.21-1.14.31-1.71.57-2.25,1.66-4.3,3.05-5.95,1.41-1.65,3.1-2.81,4.7-3.76,3.26-1.82,6.31-2.6,8.52-3.1,1.11-.27,2.03-.42,2.72-.54.69-.12,1.15-.19,1.34-.22Z"/></g></svg>