<?xml version="1.0" encoding="UTF-8"?><svg id="Line" xmlns="http://www.w3.org/2000/svg" viewBox="0 0 552.78 192.03"><defs><style>.cls-1{fill:#fff;stroke-width:0px;}</style></defs><g id="Button_2_Lines"><path class="cls-1" d="M43.27,16.05h203.9c1.21,0,29.22.64,29.22,1.43s-28.01,1.43-29.22,1.43H43.27c-1.21,0-29.22-.64-29.22-1.43s28.01-1.43,29.22-1.43Z"/><path class="cls-1" d="M247.17,175.99H43.27c-1.21,0-29.22-.64-29.22-1.43s28.01-1.43,29.22-1.43h203.9c1.21,0,29.22.64,29.22,1.43s-28.01,1.43-29.22,1.43Z"/><path class="cls-1" d="M25.22,6.76c1.68.72,3.42,1.29,5.2,1.51.44.08.89.06,1.33.1l.67.04h.73s2.92,0,2.92,0h69.4c.12.01.25-.03.35.03l.28.24.79.68c2.8,2.38,6.18,4.01,9.79,4.98.25.09,3.33,1.05,6.52,1.61,3.17.61,6.38.91,6.38,1.32,0,.37-3.23.8-6.59.69-1.68-.04-3.38-.21-4.69-.41-1.31-.21-2.24-.4-2.37-.45-3.91-1.05-7.72-2.87-10.87-5.54l-.32-.28H32.41s-.79-.04-.79-.04c-.52-.04-1.06-.03-1.58-.12-2.1-.26-4.1-.91-5.99-1.73-.28-.1-3.46-1.75-5.93-4.09C15.59,3.01,13.72.27,14.05.02c.28-.23,2.63,1.94,5.32,3.66,2.65,1.82,5.61,2.99,5.84,3.07Z"/><path class="cls-1" d="M24.21,44.73c-2.38-.65-4.81-1.71-6.72-3.59-.91-.89-1.79-1.94-2.35-3.31-.59-1.34-.59-3.17.1-4.51.64-1.38,1.64-2.34,2.64-3.16,1.01-.81,2.09-1.45,3.17-2.02,2.18-1.13,4.42-1.98,6.68-2.72,4.53-1.47,9.12-2.49,13.74-3.36,4.62-.86,9.25-1.53,13.9-2.09,18.6-2.18,37.36-2.68,56.07-1.08.33.05,4.36.52,8.25,1.66.97.29,1.93.63,2.81,1.05.44.22.86.44,1.24.72.18.11.41.33.61.51.18.21.35.4.44.63.21.43.19.9,0,1.23-.17.34-.45.54-.66.68-.46.27-.7.26-.75.19-.07-.09.14-.3.32-.57.18-.25.41-.75.02-1.11-.08-.09-.18-.15-.28-.21-.11-.06-.19-.1-.38-.18-.32-.15-.72-.28-1.12-.4-.82-.24-1.75-.41-2.69-.57-3.77-.58-7.75-.74-8.07-.78-18.4-1.57-37.07-1.08-55.45,1.08-4.6.55-9.18,1.21-13.72,2.06-4.53.85-9.04,1.87-13.38,3.27-2.16.71-4.29,1.51-6.24,2.53-.97.51-1.91,1.07-2.71,1.72-.8.64-1.5,1.37-1.83,2.12-.18.37-.27.74-.27,1.11-.02.37.07.75.23,1.15.32.79.94,1.6,1.69,2.32,1.42,1.41,3.39,2.31,5.48,2.88.15.04,1.11.36,2.54.65,1.43.3,3.33.55,5.24.64,1.9.1,3.81.05,5.19-.11.34-.04.66-.09.89-.15l.15-.04s.03-.01.04,0c-.05-.02.14.11.14.11.07.03.06.02.07.02-.05,0-.04.02-.12.08-.05.08-.03-.01-.06-.02-.27-.21-.55-.32-.52-.42.02-.08.25-.19.76-.09.07.03.14.04.25.13.04.02.11.12.14.21.03.12.02.24-.02.32-.17.32-.31.36-.46.47-.3.19-.62.33-.99.46-1.44.53-3.41.88-5.42,1.05-2.01.17-4.08.12-5.67-.06-1.6-.17-2.73-.45-2.9-.5Z"/><path class="cls-1" d="M24.06,182.67c1.89-.82,3.89-1.47,5.99-1.73.52-.09,1.05-.08,1.58-.12l.79-.04h.73s2.92,0,2.92,0h68.66l.32-.28c3.15-2.68,6.96-4.5,10.87-5.54.14-.05,1.06-.24,2.37-.45,1.31-.2,3.01-.37,4.69-.41,3.36-.11,6.59.31,6.59.69,0,.41-3.21.71-6.38,1.32-3.19.56-6.27,1.52-6.52,1.61-3.61.97-6.99,2.6-9.79,4.98l-.79.68-.28.24c-.1.06-.24.02-.35.03H32.41s-.67.04-.67.04c-.44.04-.89.02-1.33.1-1.78.21-3.52.78-5.2,1.51-.24.09-3.2,1.26-5.84,3.07-2.69,1.73-5.04,3.9-5.32,3.66-.33-.26,1.54-2.99,4.08-5.25,2.46-2.35,5.65-4,5.93-4.09Z"/><path class="cls-1" d="M24.96,150.06c-2.09.57-4.06,1.47-5.48,2.88-.75.72-1.37,1.53-1.69,2.32-.16.4-.25.78-.23,1.15,0,.37.08.74.27,1.11.33.75,1.03,1.48,1.83,2.12.81.64,1.74,1.21,2.71,1.72,1.95,1.02,4.08,1.82,6.24,2.53,4.34,1.41,8.85,2.42,13.38,3.27,4.54.84,9.12,1.51,13.72,2.06,18.39,2.16,37.05,2.65,55.45,1.08.32-.05,4.3-.2,8.07-.78.94-.15,1.86-.33,2.69-.57.41-.12.8-.25,1.12-.4.19-.08.27-.13.38-.18.1-.06.2-.12.28-.21.39-.36.16-.87-.02-1.11-.18-.28-.39-.49-.32-.57.05-.06.3-.08.75.19.22.14.49.35.66.68.19.33.22.8,0,1.23-.09.22-.26.42-.44.63-.2.18-.43.4-.61.51-.39.28-.81.5-1.24.72-.88.42-1.84.75-2.81,1.05-3.89,1.14-7.92,1.61-8.25,1.66-18.71,1.6-37.48,1.09-56.07-1.08-4.65-.55-9.29-1.23-13.9-2.09-4.61-.87-9.21-1.9-13.74-3.36-2.26-.74-4.51-1.58-6.68-2.72-1.09-.57-2.16-1.21-3.17-2.02-1-.81-2-1.77-2.64-3.16-.69-1.34-.69-3.17-.1-4.51.56-1.37,1.44-2.42,2.35-3.31,1.92-1.88,4.35-2.94,6.72-3.59.17-.05,1.3-.32,2.9-.5,1.6-.18,3.66-.23,5.67-.06,2.02.17,3.98.52,5.42,1.05.36.14.69.27.99.46.15.12.3.16.46.47.04.08.05.21.02.32-.03.09-.1.19-.14.21-.11.09-.18.1-.25.13-.51.1-.74-.01-.76-.09-.03-.1.24-.22.52-.42.04,0,.02-.09.06-.02.08.06.07.07.12.08,0,0,0,0-.07.02,0,0-.19.13-.14.11,0,0-.03,0-.04,0l-.15-.04c-.23-.06-.55-.11-.89-.15-1.38-.16-3.29-.21-5.19-.11-1.91.09-3.81.34-5.24.64-1.43.29-2.4.61-2.54.65Z"/><path class="cls-1" d="M15.48,21.41v149.22c0,.89-.64,21.39-1.43,21.39s-1.43-20.5-1.43-21.39V21.41C12.62,20.52,13.26.02,14.05.02s1.43,20.5,1.43,21.39Z"/><path class="cls-1" d="M7.52,156.75c.62.04,1.11.05,1.63-.11l.39-.11c.13-.05.26-.13.38-.19l.39-.19.37-.26c1-.69,1.92-1.67,2.73-2.75,1.6-2.21,2.89-4.75,3.99-7.37,2.17-5.27,3.71-10.85,4.91-16.49,1.2-5.65,2.06-11.37,2.63-17.13.29-2.88.49-5.76.64-8.65.07-1.44.12-2.89.15-4.33l.04-3.15-.02-1.96c0-.71-.03-1.42-.05-2.14-.03-1.42-.11-2.85-.17-4.27-.15-2.85-.38-5.69-.67-8.52-.6-5.67-1.45-11.31-2.66-16.87-1.21-5.55-2.73-11.05-4.9-16.23-1.1-2.57-2.36-5.08-3.97-7.23-.8-1.07-1.71-2.02-2.7-2.69l-.37-.25-.38-.18c-.25-.15-.51-.22-.76-.29-.51-.15-1-.15-1.6-.1-.15.05-1.26.03-2.5.91-1.25.84-2.42,2.83-2.92,5.05-.26,1.1-.38,2.25-.36,3.3,0,.5.07,1.08.14,1.42.07.33.13.59.33.83.21.24.52.2.73.09.21-.12.38-.27.54-.42.32-.34.55-.58.64-.52.08.05.04.35-.2.89-.09.15-.18.31-.27.47-.12.16-.27.31-.43.48-.34.28-.92.5-1.44.2-.5-.24-.9-.87-1.15-1.51-.27-.65-.36-1.15-.47-1.78-.18-1.2-.21-2.5-.04-3.8.3-2.58,1.45-5.26,3.27-6.75.88-.75,1.82-1.18,2.52-1.4.7-.21,1.18-.28,1.3-.29.44-.01.84-.09,1.31-.04.46.05.93.06,1.36.22.44.12.87.25,1.25.46l.59.29c.18.11.35.23.53.35,1.39.94,2.47,2.12,3.4,3.34,1.83,2.47,3.16,5.14,4.32,7.84,2.28,5.43,3.82,11.06,5.06,16.74,1.24,5.68,2.1,11.42,2.71,17.18.29,2.88.53,5.77.68,8.67.06,1.45.14,2.89.17,4.34.02.72.05,1.45.05,2.17l.02,2.35h-1.43s.07-.05.07-.05l.14-.1.56-.41.56-.41s.06-.05.06-.03v.07s.02.13.02.13c.01.09.02.18.01.27v1.2c-.02.74-.02,1.47-.04,2.21-.03,1.47-.08,2.94-.16,4.41-.15,2.94-.35,5.87-.65,8.8-.59,5.85-1.45,11.68-2.68,17.44-1.23,5.76-2.79,11.48-5.07,17-1.15,2.75-2.51,5.46-4.33,7.98-.95,1.24-2.02,2.44-3.42,3.41l-.53.36c-.19.1-.39.2-.59.3-.2.09-.4.2-.6.28l-.66.2c-.88.27-1.87.27-2.7.19-.12-.01-.59-.09-1.3-.29-.7-.22-1.63-.65-2.52-1.4-1.82-1.5-2.97-4.18-3.27-6.75-.16-1.3-.14-2.6.04-3.8.11-.63.21-1.13.47-1.78.25-.64.65-1.27,1.15-1.51.52-.29,1.1-.08,1.44.2.16.18.32.32.43.48.09.16.18.32.27.47.24.54.28.84.2.89-.09.05-.32-.19-.64-.52-.15-.14-.33-.29-.54-.42-.21-.11-.52-.15-.73.09-.21.24-.27.5-.33.83-.07.33-.13.92-.14,1.42-.02,1.05.1,2.2.36,3.3.5,2.22,1.67,4.2,2.92,5.05,1.24.88,2.35.86,2.5.91Z"/><path class="cls-1" d="M509.51,18.91h-203.9c-1.21,0-29.22-.64-29.22-1.43s28.01-1.43,29.22-1.43h203.9c1.21,0,29.22.64,29.22,1.43s-28.01,1.43-29.22,1.43Z"/><path class="cls-1" d="M305.61,173.13h203.9c1.21,0,29.22.64,29.22,1.43s-28.01,1.43-29.22,1.43h-203.9c-1.21,0-29.22-.64-29.22-1.43s28.01-1.43,29.22-1.43Z"/><path class="cls-1" d="M528.72,9.37c-1.89.82-3.89,1.47-5.99,1.73-.52.09-1.05.08-1.58.12l-.79.04h-.73s-2.92,0-2.92,0h-68.66l-.32.28c-3.15,2.68-6.96,4.5-10.87,5.54-.14.05-1.06.24-2.37.45-1.31.2-3.01.37-4.69.41-3.36.11-6.59-.31-6.59-.69,0-.41,3.21-.71,6.38-1.32,3.19-.56,6.27-1.52,6.52-1.61,3.61-.97,6.99-2.6,9.79-4.98l.79-.68.28-.24c.1-.06.24-.02.35-.03h73.05s.67-.04.67-.04c.44-.04.89-.02,1.33-.1,1.78-.21,3.52-.78,5.2-1.51.24-.09,3.2-1.26,5.84-3.07,2.69-1.73,5.04-3.9,5.32-3.66.33.26-1.54,2.99-4.08,5.25-2.46,2.35-5.65,4-5.93,4.09Z"/><path class="cls-1" d="M527.82,41.98c2.09-.57,4.06-1.47,5.48-2.88.75-.72,1.37-1.53,1.69-2.32.16-.4.25-.78.23-1.15,0-.37-.08-.74-.27-1.11-.33-.75-1.03-1.48-1.83-2.12-.81-.64-1.74-1.21-2.71-1.72-1.95-1.02-4.08-1.82-6.24-2.53-4.34-1.41-8.85-2.42-13.38-3.27-4.54-.84-9.12-1.51-13.72-2.06-18.39-2.16-37.05-2.65-55.45-1.08-.32.05-4.3.2-8.07.78-.94.15-1.86.33-2.69.57-.41.12-.8.25-1.12.4-.19.08-.27.13-.38.18-.1.06-.2.12-.28.21-.39.36-.16.87.02,1.11.18.28.39.49.32.57-.05.06-.3.08-.75-.19-.22-.14-.49-.35-.66-.68-.19-.33-.22-.8,0-1.23.09-.22.26-.42.44-.63.2-.18.43-.4.61-.51.39-.28.81-.5,1.24-.72.88-.42,1.84-.75,2.81-1.05,3.89-1.14,7.92-1.61,8.25-1.66,18.71-1.6,37.48-1.09,56.07,1.08,4.65.55,9.29,1.23,13.9,2.09,4.61.87,9.21,1.9,13.74,3.36,2.26.74,4.51,1.58,6.68,2.72,1.09.57,2.16,1.21,3.17,2.02,1,.81,2,1.77,2.64,3.16.69,1.34.69,3.17.1,4.51-.56,1.37-1.44,2.42-2.35,3.31-1.92,1.88-4.35,2.94-6.72,3.59-.17.05-1.3.32-2.9.5-1.6.18-3.66.23-5.67.06-2.02-.17-3.98-.52-5.42-1.05-.36-.14-.69-.27-.99-.46-.15-.12-.3-.16-.46-.47-.04-.08-.05-.21-.02-.32.03-.09.1-.19.14-.21.11-.09.18-.1.25-.13.51-.1.74.01.76.09.03.1-.24.22-.52.42-.04,0-.02.09-.07.02-.08-.06-.07-.07-.12-.08,0,0,0,0,.07-.02,0,0,.19-.13.14-.11,0,0,.03,0,.04,0l.15.04c.23.06.55.11.89.15,1.38.16,3.29.21,5.19.11,1.91-.09,3.81-.34,5.24-.64,1.43-.29,2.4-.61,2.54-.65Z"/><path class="cls-1" d="M527.56,185.28c-1.68-.72-3.42-1.29-5.2-1.51-.44-.08-.89-.06-1.33-.1l-.67-.04h-.73s-2.92,0-2.92,0h-69.4c-.12-.01-.25.03-.35-.03l-.28-.24-.79-.68c-2.8-2.38-6.18-4.01-9.79-4.98-.25-.09-3.33-1.05-6.52-1.61-3.17-.61-6.38-.91-6.38-1.32,0-.37,3.23-.8,6.59-.69,1.68.04,3.38.21,4.69.41,1.31.21,2.24.4,2.37.45,3.91,1.05,7.72,2.87,10.87,5.54l.32.28h72.32s.79.04.79.04c.52.04,1.06.03,1.58.12,2.1.26,4.1.91,5.99,1.73.28.1,3.46,1.75,5.93,4.09,2.54,2.26,4.41,5,4.08,5.25-.28.23-2.63-1.94-5.32-3.66-2.65-1.82-5.61-2.99-5.84-3.07Z"/><path class="cls-1" d="M528.57,147.3c2.38.65,4.81,1.71,6.72,3.59.91.89,1.79,1.94,2.35,3.31.59,1.34.59,3.17-.1,4.51-.64,1.38-1.64,2.34-2.64,3.16-1.02.81-2.09,1.45-3.17,2.02-2.18,1.13-4.42,1.98-6.68,2.72-4.53,1.47-9.12,2.49-13.74,3.36-4.62.86-9.25,1.53-13.9,2.09-18.6,2.18-37.36,2.68-56.07,1.08-.33-.05-4.36-.52-8.25-1.66-.97-.29-1.93-.63-2.81-1.05-.44-.22-.86-.44-1.24-.72-.18-.11-.41-.33-.61-.51-.18-.21-.35-.4-.44-.63-.21-.43-.19-.9,0-1.23.17-.34.45-.54.66-.68.46-.27.7-.26.75-.19.07.09-.14.3-.32.57-.18.25-.41.75-.02,1.11.08.09.18.15.28.21.11.06.19.1.38.18.32.15.72.28,1.12.4.82.24,1.75.41,2.69.57,3.77.58,7.75.74,8.07.78,18.4,1.57,37.07,1.08,55.45-1.08,4.6-.55,9.18-1.21,13.72-2.06,4.53-.85,9.04-1.87,13.38-3.27,2.16-.71,4.29-1.51,6.24-2.53.97-.51,1.91-1.07,2.71-1.72.8-.64,1.5-1.37,1.83-2.12.18-.37.27-.74.27-1.11.02-.37-.07-.75-.23-1.15-.32-.79-.94-1.6-1.69-2.32-1.42-1.41-3.39-2.31-5.48-2.88-.15-.04-1.11-.36-2.54-.65-1.43-.3-3.33-.55-5.24-.64-1.9-.1-3.81-.05-5.19.11-.34.04-.66.09-.89.15l-.15.04s-.03.01-.04,0c.05.02-.14-.11-.14-.11-.07-.03-.06-.02-.07-.02.05,0,.04-.02.12-.08.05-.08.03.01.07.02.27.21.55.32.52.42-.02.08-.25.19-.76.09-.07-.03-.14-.04-.25-.13-.04-.02-.11-.12-.14-.21-.03-.12-.02-.24.02-.32.17-.32.31-.36.46-.47.3-.19.62-.33.99-.46,1.44-.53,3.41-.88,5.42-1.05,2.01-.17,4.08-.12,5.67.06,1.6.17,2.73.45,2.9.5Z"/><path class="cls-1" d="M540.16,21.41v149.22c0,.89-.64,21.39-1.43,21.39s-1.43-20.5-1.43-21.39V21.41c0-.89.64-21.39,1.43-21.39s1.43,20.5,1.43,21.39Z"/><path class="cls-1" d="M545.59,159.58c-.83.08-1.82.08-2.7-.19l-.66-.2c-.21-.08-.4-.19-.6-.28-.2-.1-.4-.19-.59-.3l-.53-.36c-1.4-.97-2.48-2.17-3.42-3.41-1.83-2.52-3.18-5.22-4.33-7.98-2.27-5.52-3.84-11.24-5.07-17-1.23-5.76-2.1-11.59-2.68-17.44-.3-2.93-.5-5.86-.65-8.8-.07-1.47-.12-2.94-.16-4.41-.03-.73-.02-1.47-.03-2.21v-1.2c-.01-.09-.01-.18,0-.27l.02-.13v-.07s.05.02.07.03l.56.41.56.41.14.1.07.05h-.28s-1.15,0-1.15,0l.02-2.35c0-.72.03-1.45.05-2.17.03-1.45.11-2.9.17-4.34.16-2.89.39-5.78.68-8.67.61-5.76,1.48-11.5,2.71-17.18,1.24-5.67,2.78-11.3,5.06-16.74,1.16-2.71,2.49-5.38,4.32-7.84.93-1.22,2.01-2.4,3.4-3.34.18-.12.35-.24.53-.35l.59-.29c.38-.21.81-.35,1.25-.46.42-.15.9-.17,1.36-.22.47-.06.87.02,1.31.04.12.01.59.09,1.3.29.7.22,1.63.65,2.52,1.4,1.82,1.5,2.97,4.18,3.27,6.75.16,1.3.14,2.6-.04,3.8-.11.63-.21,1.13-.47,1.78-.25.64-.65,1.27-1.15,1.51-.52.3-1.1.08-1.44-.2-.16-.17-.32-.32-.43-.48-.09-.16-.18-.31-.27-.47-.24-.54-.28-.84-.2-.89.09-.05.32.19.64.52.15.14.33.29.54.42.21.11.52.15.73-.09.21-.24.27-.5.33-.83.07-.33.13-.92.14-1.42.02-1.05-.1-2.2-.36-3.3-.5-2.22-1.67-4.2-2.92-5.05-1.24-.88-2.35-.86-2.5-.91-.61-.04-1.1-.05-1.6.1-.25.07-.51.14-.76.29l-.38.18-.37.25c-.99.67-1.9,1.62-2.7,2.69-1.6,2.15-2.87,4.66-3.97,7.23-2.17,5.18-3.69,10.68-4.9,16.23-1.21,5.56-2.06,11.2-2.66,16.87-.29,2.84-.52,5.68-.67,8.52-.06,1.42-.14,2.85-.17,4.27-.01.71-.05,1.42-.05,2.14l-.02,1.96.04,3.15c.03,1.45.08,2.89.15,4.33.15,2.89.35,5.77.64,8.65.58,5.75,1.43,11.48,2.63,17.13,1.2,5.64,2.74,11.22,4.91,16.49,1.09,2.62,2.38,5.16,3.99,7.37.82,1.08,1.73,2.06,2.73,2.75l.37.26.39.19c.13.06.26.13.38.19l.39.11c.51.16,1.01.15,1.63.11.15-.05,1.26-.03,2.5-.91,1.25-.84,2.42-2.83,2.92-5.05.26-1.1.38-2.25.36-3.3,0-.5-.07-1.09-.14-1.42-.07-.33-.13-.59-.33-.83-.21-.24-.52-.2-.73-.09-.21.12-.38.27-.54.42-.32.34-.55.58-.64.52-.08-.05-.04-.35.2-.89.09-.15.18-.31.27-.47.12-.16.27-.31.43-.48.34-.28.92-.49,1.44-.2.5.24.9.87,1.15,1.51.27.65.36,1.15.47,1.78.18,1.2.21,2.5.04,3.8-.3,2.58-1.45,5.26-3.27,6.75-.88.75-1.82,1.18-2.52,1.4-.7.21-1.18.28-1.3.29Z"/></g></svg>