<?xml version="1.0" encoding="UTF-8"?><svg id="Line" xmlns="http://www.w3.org/2000/svg" viewBox="0 0 566.48 176.82"><defs><style>.cls-1{fill:#fff;stroke-width:0px;}</style></defs><g id="Button_1_Lines"><path class="cls-1" d="M37.75,53.39c1.25-10.13,2.98-20.33,7.15-29.94l.86-1.77.43-.88c.16-.29.34-.57.5-.86l1.03-1.71c.39-.55.8-1.09,1.2-1.63.37-.56.89-1.04,1.35-1.55.44-.52,1.03-.95,1.57-1.41.26-.24.6-.42.92-.61.33-.19.62-.4,1.03-.53.77-.32,1.5-.49,2.27-.54,1.53-.12,3.1.19,4.44.89,1.35.69,2.47,1.69,3.37,2.81.89,1.13,1.55,2.38,2.07,3.66l.36.97.29.98.14.49.03.13.05.25,59.68.02h121.81c1.45,0,34.92.64,34.92,1.43s-33.47,1.43-34.92,1.43H64.85c-.14-.02-.38.06-.35-.13l-.35-1.61-.18-.8-.13-.42-.25-.84-.31-.81c-.44-1.07-.97-2.08-1.66-2.95-1.35-1.73-3.33-2.82-5.35-2.63-.49.02-1.02.15-1.41.33-.21.05-.43.22-.66.35-.22.14-.45.24-.66.44-.87.67-1.68,1.52-2.4,2.44l-1.06,1.44-.93,1.56c-.15.26-.32.51-.46.78l-.4.83-.81,1.65c-3.95,9.07-5.69,19.13-6.91,29.09-.02.36-.38,2.68-.75,5.98-.3,3.31-.82,7.58-1.08,11.84-.16,2.1-.32,4.21-.47,6.22-.11,1.92-.22,3.75-.32,5.4-.21,3.15-.43,5.24-.63,5.24s-.36-2.09-.48-5.26c-.05-1.66-.11-3.49-.17-5.43-.01-1.99.02-4.12.05-6.27,0-4.29.31-8.62.47-11.98.23-3.35.51-5.72.54-6.08Z"/><path class="cls-1" d="M33.45,11.07c2-.41,4.03.13,5.64.98,1.66.86,3.09,2.26,4.02,3.86,1.87,3.25,2.11,6.86,2,10.21-.15,3.38-.75,6.67-1.54,9.88-.79,3.21-1.8,6.35-2.91,9.43-2.24,6.17-4.95,12.13-7.93,17.94-3,5.81-6.28,11.46-9.92,16.91-.13.19-1.83,2.45-3.69,4.5-1.84,2.07-3.88,3.88-4.18,3.62-.29-.26,1.17-2.5,2.56-4.83,1.57-2.62,2.84-4.74,2.94-4.89,3.56-5.34,6.8-10.91,9.75-16.63,2.94-5.72,5.6-11.59,7.79-17.61,1.08-3.01,2.06-6.06,2.82-9.15.76-3.08,1.33-6.21,1.46-9.31.12-3.07-.19-6.22-1.6-8.64-.7-1.2-1.69-2.16-2.9-2.79-1.25-.65-2.54-.94-3.73-.7-.04.01-.21.01-.46.06-.24.1-.59.16-.98.35-.8.33-1.77,1.1-2.64,2.02-1.76,1.85-2.96,4.27-3.32,4.14-.38-.11.13-2.86,1.71-5.37.79-1.24,1.85-2.42,2.95-3.08.52-.36,1.07-.54,1.43-.73.39-.13.67-.17.73-.19Z"/><path class="cls-1" d="M40.59,123.09c1.22,9.97,2.96,20.02,6.91,29.09l.81,1.65.4.83c.14.27.31.52.46.78l.93,1.56,1.06,1.44c.73.93,1.53,1.77,2.4,2.44.21.2.44.3.66.44.22.13.45.29.66.35.39.18.92.31,1.41.33,2.01.2,3.99-.9,5.35-2.63.68-.87,1.22-1.88,1.66-2.95l.31-.81.25-.84.13-.42.18-.8.35-1.61c-.03-.19.21-.11.35-.13h183.47c1.45,0,34.92.64,34.92,1.43s-33.47,1.43-34.92,1.43h-121.81l-59.68.02-.05.25-.03.13-.14.49-.29.98-.36.97c-.52,1.28-1.18,2.53-2.07,3.66-.9,1.12-2.02,2.12-3.37,2.81-1.34.69-2.91,1.01-4.44.89-.77-.05-1.5-.21-2.27-.54-.4-.13-.7-.34-1.03-.53-.32-.2-.66-.38-.92-.61-.54-.46-1.13-.89-1.57-1.41-.46-.51-.98-.99-1.35-1.55-.4-.54-.81-1.08-1.2-1.63l-1.03-1.71c-.17-.29-.35-.57-.5-.86l-.43-.88-.86-1.77c-4.17-9.6-5.9-19.81-7.15-29.94-.02-.36-.31-2.73-.54-6.08-.16-3.36-.48-7.69-.47-11.98-.02-2.14-.06-4.28-.05-6.27.06-1.93.12-3.77.17-5.43.13-3.17.29-5.26.48-5.26s.41,2.09.63,5.24c.1,1.65.2,3.48.32,5.4.15,2.01.31,4.12.47,6.22.25,4.26.77,8.53,1.08,11.84.37,3.3.73,5.62.75,5.98Z"/><path class="cls-1" d="M34.01,162.95c1.19.24,2.48-.05,3.73-.7,1.21-.63,2.2-1.59,2.9-2.79,1.41-2.42,1.73-5.57,1.6-8.64-.13-3.1-.7-6.23-1.46-9.31-.76-3.09-1.74-6.13-2.82-9.15-2.19-6.02-4.85-11.89-7.79-17.61-2.95-5.72-6.18-11.29-9.75-16.63-.09-.15-1.36-2.27-2.94-4.89-1.39-2.33-2.85-4.56-2.56-4.83.29-.26,2.33,1.55,4.18,3.62,1.86,2.05,3.56,4.31,3.69,4.5,3.64,5.45,6.92,11.1,9.92,16.91,2.99,5.81,5.69,11.78,7.93,17.94,1.11,3.09,2.12,6.22,2.91,9.43.79,3.21,1.39,6.49,1.54,9.88.11,3.35-.13,6.95-2,10.21-.93,1.6-2.35,3-4.02,3.86-1.61.85-3.63,1.39-5.64.98-.07-.02-.34-.06-.73-.19-.37-.18-.91-.37-1.43-.73-1.1-.67-2.16-1.85-2.95-3.08-1.59-2.5-2.09-5.26-1.71-5.37.36-.13,1.55,2.29,3.32,4.14.87.92,1.84,1.69,2.64,2.02.39.2.74.25.98.35.25.05.42.05.46.06Z"/><path class="cls-1" d="M525.89,53.73c-1.22-9.97-2.96-20.02-6.91-29.09l-.81-1.65-.4-.83c-.14-.27-.31-.52-.46-.78l-.93-1.56-1.06-1.44c-.73-.93-1.53-1.77-2.4-2.44-.21-.2-.44-.3-.66-.44-.22-.13-.45-.29-.66-.35-.39-.18-.92-.31-1.41-.33-2.01-.2-3.99.9-5.35,2.63-.68.87-1.22,1.88-1.66,2.95l-.31.81-.25.84-.13.42-.18.8-.35,1.61c.03.19-.21.11-.35.13h-183.47c-1.45,0-34.92-.64-34.92-1.43s33.47-1.43,34.92-1.43h121.81l59.68-.02.05-.25.03-.13.14-.49.29-.98.36-.97c.52-1.28,1.18-2.53,2.07-3.66.9-1.12,2.02-2.12,3.37-2.81,1.34-.69,2.91-1.01,4.44-.89.77.05,1.5.21,2.27.54.4.13.7.34,1.03.53.32.2.66.38.92.61.54.46,1.13.89,1.57,1.41.46.51.98.99,1.35,1.55.4.54.81,1.08,1.2,1.63l1.03,1.71c.17.29.35.57.5.86l.43.88.86,1.77c4.17,9.6,5.9,19.81,7.15,29.94.02.36.31,2.73.54,6.08.16,3.36.48,7.69.47,11.98.02,2.14.06,4.28.05,6.27-.06,1.93-.12,3.77-.17,5.43-.13,3.17-.29,5.26-.48,5.26h0c-.2,0-.41-2.09-.63-5.24-.1-1.65-.2-3.48-.32-5.4-.15-2.01-.31-4.12-.47-6.22-.25-4.26-.77-8.53-1.08-11.84-.37-3.3-.73-5.62-.75-5.98Z"/><path class="cls-1" d="M56.89,37.45c5.28-5.32,10.64-10.64,16.45-15.51,2.88-2.47,5.95-4.72,9.1-6.87,3.17-2.07,6.42-4.02,9.75-5.83,3.33-1.82,6.75-3.47,10.27-4.92,3.52-1.45,7.15-2.7,10.92-3.54,1.9-.37,3.82-.72,5.82-.77,1.98-.07,4.04.02,6.08.76,1.94.75,3.78,1.72,5.27,3.58.35.48.68,1.03.87,1.7.11.32.14.68.18,1.03,0,.09,0,.17,0,.26,0,.12,0,.24-.02.35-.05.23-.08.46-.14.68-.27.87-.96,1.58-1.84,1.77-.43.11-.9.09-1.32-.05-.38-.15-.71-.35-1.05-.79-.16-.34-.35-.68-.46-1.07l-.14-.62c-.05-.21-.02-.42-.03-.63,0-.83.25-1.58.65-1.95.2-.19.41-.35.68-.45.07-.02.12-.05.21-.07.14-.03.28-.04.42-.04.28-.01.56.08.82.19.32.15.71.51.67.5h306.39s.35-.35.67-.5c.26-.1.54-.2.82-.19.14,0,.29.02.42.04.09.02.14.05.21.07.27.1.48.26.68.45.4.37.65,1.12.65,1.95-.01.21.01.43-.03.63l-.14.62c-.11.4-.3.73-.46,1.07-.34.44-.67.64-1.05.79-.42.14-.89.16-1.32.05-.88-.19-1.58-.9-1.84-1.77-.07-.22-.1-.45-.14-.68-.02-.11-.01-.24-.02-.35,0-.09,0-.17,0-.26.03-.35.06-.71.18-1.03.18-.67.52-1.21.87-1.7,1.49-1.86,3.33-2.83,5.27-3.58,2.04-.74,4.1-.83,6.08-.76,2,.05,3.91.4,5.82.77,3.78.84,7.4,2.09,10.92,3.54,3.52,1.45,6.95,3.1,10.27,4.92,3.33,1.81,6.58,3.76,9.75,5.83,3.16,2.14,6.23,4.4,9.1,6.87,5.81,4.87,11.17,10.19,16.45,15.51.53.51,3.85,3.99,8.63,8.76,1.19,1.2,2.51,2.43,3.87,3.75,1.41,1.26,2.83,2.66,4.41,3.94,3.08,2.66,6.53,5.27,10.26,7.25,7.53,3.99,15.84,6.62,22.13,6.53,1.56-.02,2.99-.19,4.19-.54,1.19-.35,2.18-.88,2.65-1.55.23-.32.3-.68.22-.98-.08-.29-.24-.53-.41-.69-.33-.34-.57-.47-.54-.53.01-.03.3,0,.73.31.22.15.47.4.63.79.17.38.12.93-.14,1.4-.53.94-1.61,1.59-2.87,2.06-1.27.47-2.77.74-4.41.85-6.61.43-15.22-1.97-23.1-5.85-4-1.97-7.63-4.58-10.85-7.22-1.66-1.28-3.13-2.66-4.6-3.91-1.41-1.31-2.78-2.53-4.01-3.71-4.93-4.71-8.3-8.12-8.83-8.63-5.27-5.32-10.58-10.57-16.26-15.34-2.82-2.42-5.79-4.6-8.84-6.67-3.1-2.03-6.29-3.94-9.54-5.71-3.25-1.78-6.59-3.38-10-4.79-3.41-1.4-6.9-2.6-10.44-3.39-1.77-.34-3.56-.67-5.31-.71-1.75-.07-3.51.04-5.01.6-1.54.56-3.1,1.5-3.95,2.6-.19.27-.36.54-.41.78-.05.12-.04.23-.07.35,0,.03,0,.06,0,.09h0s.21.02.21.02h.05s.01,0,.01,0h0s0,0,0,0c-.19-2.06-.05-.57-.09-1.03h0v.02s0,.06.01.08c.01.05.04.1.07.14.07.38.67.63.35.76l-.52.72H128.64l-.52-.72c-.32-.13.28-.38.35-.76.03-.04.06-.08.07-.14,0-.03.01-.06.01-.08v-.02s0,0,0,0c-.04.46.09-1.03-.09,1.03h0s0,0,0,0h.01s.05,0,.05,0l.21-.03h0s0-.06,0-.09c-.03-.11-.01-.22-.07-.35-.06-.24-.22-.51-.41-.78-.85-1.1-2.41-2.04-3.95-2.6-1.49-.55-3.26-.66-5.01-.6-1.76.04-3.54.36-5.31.71-3.54.79-7.03,1.99-10.44,3.39-3.41,1.41-6.75,3.01-10,4.79-3.25,1.77-6.44,3.68-9.54,5.71-3.04,2.07-6.02,4.25-8.84,6.67-5.68,4.77-10.98,10.02-16.26,15.34-.53.51-3.89,3.92-8.83,8.63-1.23,1.18-2.6,2.41-4.01,3.71-1.47,1.25-2.94,2.63-4.6,3.91-3.22,2.64-6.85,5.25-10.85,7.22-7.88,3.87-16.49,6.28-23.1,5.85-1.64-.11-3.14-.38-4.41-.85-1.26-.47-2.34-1.13-2.87-2.06-.27-.47-.31-1.02-.14-1.4.16-.39.41-.64.63-.79.43-.31.72-.34.73-.31.03.06-.21.19-.54.53-.17.16-.33.4-.41.69-.08.3-.01.66.22.98.47.67,1.46,1.2,2.65,1.55,1.2.35,2.63.52,4.19.54,6.29.09,14.6-2.54,22.13-6.53,3.73-1.98,7.18-4.59,10.26-7.25,1.58-1.28,3-2.68,4.41-3.94,1.36-1.32,2.68-2.56,3.87-3.75,4.78-4.76,8.1-8.24,8.63-8.76Z"/><path class="cls-1" d="M532.47,13.87c-1.19-.24-2.48.05-3.73.7-1.21.63-2.2,1.59-2.9,2.79-1.41,2.42-1.73,5.57-1.6,8.64.13,3.1.7,6.23,1.46,9.31.76,3.09,1.74,6.13,2.82,9.15,2.19,6.02,4.85,11.89,7.79,17.61,2.95,5.72,6.18,11.29,9.75,16.63.09.15,1.36,2.27,2.94,4.89,1.39,2.33,2.85,4.56,2.56,4.83-.29.26-2.33-1.55-4.18-3.62-1.86-2.05-3.56-4.31-3.69-4.5-3.64-5.45-6.92-11.1-9.92-16.91-2.99-5.81-5.69-11.78-7.93-17.94-1.11-3.09-2.12-6.22-2.91-9.43-.79-3.21-1.39-6.49-1.54-9.88-.11-3.35.13-6.95,2-10.21.93-1.6,2.35-3,4.02-3.86,1.61-.85,3.63-1.39,5.64-.98.07.02.34.06.73.19.37.18.91.37,1.43.73,1.1.67,2.16,1.85,2.95,3.08,1.59,2.5,2.09,5.26,1.71,5.37-.36.13-1.55-2.29-3.32-4.14-.87-.92-1.84-1.69-2.64-2.02-.39-.2-.74-.25-.98-.35-.25-.05-.42-.05-.46-.06Z"/><path class="cls-1" d="M528.73,123.43c-1.25,10.13-2.98,20.33-7.15,29.94l-.86,1.77-.43.88c-.16.29-.34.57-.5.86l-1.03,1.71c-.39.55-.8,1.09-1.2,1.63-.37.56-.89,1.04-1.35,1.55-.44.52-1.03.95-1.57,1.41-.26.24-.6.42-.92.61-.33.19-.62.4-1.03.53-.77.32-1.5.49-2.27.54-1.53.12-3.1-.19-4.44-.89-1.35-.69-2.47-1.69-3.37-2.81-.89-1.13-1.55-2.38-2.07-3.66l-.36-.97-.29-.98-.14-.49-.03-.13-.05-.25-59.68-.02h-121.81c-1.45,0-34.92-.64-34.92-1.43s33.47-1.43,34.92-1.43h183.47c.14.02.38-.06.35.13l.35,1.61.18.8.13.42.25.84.31.81c.44,1.07.97,2.08,1.66,2.95,1.35,1.73,3.33,2.82,5.35,2.63.49-.02,1.02-.15,1.41-.33.21-.05.43-.22.66-.35.22-.14.45-.24.66-.44.87-.67,1.68-1.52,2.4-2.44l1.06-1.44.93-1.56c.15-.26.32-.51.46-.78l.4-.83.81-1.65c3.95-9.07,5.69-19.13,6.91-29.09.02-.36.38-2.68.75-5.98.3-3.31.82-7.58,1.08-11.84.16-2.1.32-4.21.47-6.22.11-1.92.22-3.75.32-5.4.21-3.15.43-5.24.63-5.24h0c.2,0,.36,2.09.48,5.26.05,1.66.11,3.49.17,5.43.01,1.99-.02,4.12-.05,6.27,0,4.29-.31,8.62-.47,11.98-.23,3.35-.51,5.72-.54,6.08Z"/><path class="cls-1" d="M58.92,137.35c5.48,5.52,10.99,10.97,16.91,15.89,1.45,1.27,3.02,2.37,4.52,3.57,1.57,1.1,3.11,2.22,4.74,3.25,3.24,2.09,6.57,4.04,9.98,5.82,3.41,1.78,6.9,3.4,10.47,4.77,3.57,1.35,7.23,2.49,10.93,3.05,1.84.26,3.69.36,5.45.19l1.29-.21c.4-.09.8-.21,1.21-.36.81-.3,1.6-.7,2.3-1.17.7-.47,1.33-1.02,1.68-1.59.4-.53.34-1.22.34-1.01l-.1-.74h309.2l.52.72c.32.13-.28.38-.35.76-.03.04-.06.08-.07.14,0,.03-.01.06-.01.08v.02h0c.04-.46-.09,1.03.09-1.03h0s0,0,0,0h-.01s-.05,0-.05,0l-.21.03h0s0,.06,0,.09c.03.11.01.22.07.35.06.24.22.51.41.78.85,1.1,2.41,2.04,3.95,2.6,1.49.55,3.26.66,5.01.6,1.76-.04,3.54-.36,5.31-.71,3.54-.79,7.03-1.99,10.44-3.39,3.41-1.41,6.75-3.01,10-4.79,3.25-1.77,6.44-3.68,9.54-5.71,3.04-2.07,6.02-4.25,8.84-6.67,5.68-4.77,10.98-10.02,16.26-15.34.53-.51,3.89-3.92,8.83-8.63,1.23-1.18,2.6-2.41,4.01-3.71,1.47-1.25,2.94-2.63,4.6-3.91,3.22-2.64,6.85-5.25,10.85-7.22,7.88-3.87,16.49-6.28,23.1-5.85,1.64.11,3.14.38,4.41.85,1.26.47,2.34,1.13,2.87,2.06.27.47.31,1.02.14,1.4-.16.39-.41.64-.63.79-.43.31-.72.34-.73.31-.03-.06.21-.19.54-.53.17-.16.33-.4.41-.69.08-.3.01-.66-.22-.98-.47-.67-1.46-1.2-2.65-1.55-1.2-.35-2.63-.52-4.19-.54-6.29-.09-14.6,2.54-22.13,6.53-3.73,1.98-7.18,4.59-10.26,7.25-1.58,1.28-3,2.68-4.41,3.94-1.36,1.32-2.68,2.56-3.87,3.75-4.78,4.76-8.1,8.24-8.63,8.76-5.28,5.32-10.64,10.64-16.45,15.51-2.88,2.47-5.95,4.72-9.1,6.87-3.17,2.08-6.42,4.02-9.75,5.83-3.33,1.82-6.75,3.47-10.27,4.92-3.52,1.44-7.15,2.7-10.92,3.54-1.9.37-3.82.72-5.82.77-1.98.06-4.04-.02-6.08-.76-1.94-.75-3.78-1.72-5.27-3.58-.35-.48-.68-1.03-.87-1.7-.11-.32-.14-.68-.18-1.03,0-.09,0-.17,0-.26,0-.12,0-.24.02-.35.05-.23.08-.46.14-.68.27-.87.96-1.58,1.84-1.77.43-.11.9-.09,1.32.05.38.15.71.35,1.05.79.16.34.35.68.46,1.07l.14.62c.05.21.02.42.03.63,0,.83-.25,1.58-.65,1.95-.2.19-.41.35-.68.45-.07.02-.12.05-.21.07-.14.03-.28.04-.42.04-.28,0-.56-.08-.82-.19-.32-.15-.71-.51-.67-.5H130.05c.03-.05-.05.11-.35.31-.16.09-.21.16-.46.25-.23.07-.46.15-.69.13-.12,0-.24-.02-.36-.04-.12-.02-.13-.04-.2-.06-.12-.03-.22-.09-.32-.15-.38-.23-.71-.58-.91-1.15-.17-.57-.25-1.31-.08-2.01l.12-.52.2-.45c.12-.33.3-.52.47-.73.35-.38.68-.52,1.16-.62.92-.15,1.91.24,2.43,1.02.54.73.62,1.92.5,2.53-.11.72-.39,1.38-.74,1.91-.7,1.08-1.59,1.8-2.5,2.42-.92.61-1.87,1.1-2.89,1.48-.5.19-1.04.35-1.59.48l-1.59.26c-2.11.2-4.18.08-6.19-.21-4.01-.6-7.83-1.8-11.53-3.2-3.7-1.42-7.28-3.08-10.78-4.91-3.49-1.82-6.89-3.81-10.2-5.94-1.66-1.05-3.27-2.23-4.89-3.36-1.55-1.22-3.17-2.37-4.65-3.66-6.06-5.03-11.63-10.55-17.12-16.08-.53-.51-3.85-3.99-8.63-8.76-1.19-1.2-2.51-2.43-3.87-3.75-1.41-1.26-2.83-2.66-4.41-3.94-3.08-2.66-6.53-5.27-10.26-7.25-7.53-3.99-15.84-6.62-22.13-6.53-1.56.02-2.99.19-4.19.54-1.19.35-2.18.88-2.65,1.55-.23.32-.3.68-.22.98.08.29.24.53.41.69.33.34.57.47.54.53-.01.03-.3,0-.73-.31-.22-.15-.47-.4-.63-.79-.17-.38-.12-.93.14-1.4.53-.94,1.61-1.59,2.87-2.06,1.27-.47,2.77-.74,4.41-.85,6.61-.43,15.22,1.97,23.1,5.85,4,1.97,7.63,4.58,10.85,7.22,1.66,1.28,3.13,2.66,4.6,3.91,1.41,1.31,2.78,2.53,4.01,3.71,4.93,4.71,8.3,8.12,8.83,8.63Z"/><path class="cls-1" d="M533.04,165.75c-2,.41-4.03-.13-5.64-.98-1.66-.86-3.09-2.26-4.02-3.86-1.87-3.25-2.11-6.86-2-10.21.15-3.38.75-6.67,1.54-9.88.79-3.21,1.8-6.35,2.91-9.43,2.24-6.17,4.95-12.13,7.93-17.94,3-5.81,6.28-11.46,9.92-16.91.13-.19,1.83-2.45,3.69-4.5,1.84-2.07,3.88-3.88,4.18-3.62.29.26-1.17,2.5-2.56,4.83-1.57,2.62-2.84,4.74-2.94,4.89-3.56,5.34-6.8,10.91-9.75,16.63-2.94,5.72-5.6,11.59-7.79,17.61-1.08,3.01-2.06,6.06-2.82,9.15-.76,3.08-1.33,6.21-1.46,9.31-.12,3.07.19,6.22,1.6,8.64.7,1.2,1.69,2.16,2.9,2.79,1.25.65,2.54.94,3.73.7.04-.01.21-.01.46-.06.24-.1.59-.16.98-.35.8-.33,1.77-1.1,2.64-2.02,1.76-1.85,2.96-4.27,3.32-4.14.38.11-.13,2.86-1.71,5.37-.79,1.24-1.85,2.42-2.95,3.08-.52.36-1.07.54-1.43.73-.39.13-.67.17-.73.19Z"/></g></svg>