<?xml version="1.0" encoding="UTF-8"?><svg id="Line" xmlns="http://www.w3.org/2000/svg" viewBox="0 0 565 195.6"><defs><style>.cls-1{fill:#fff;stroke-width:0px;}</style></defs><g id="Button_10_Lines"><path class="cls-1" d="M28.37,134.39c.42,5.49.88,10.97,1.58,16.4.72,5.41,1.59,10.86,3.38,15.84.46,1.23,1,2.42,1.65,3.46.65,1.05,1.46,1.91,2.33,2.36.44.21.89.3,1.37.32h2.06s4.14-.02,4.14-.02l16.56-.07c22.08-.05,44.17.09,66.25.57,22.08.48,44.16,1.26,66.22,2.73,11.03.75,22.05,1.67,33.05,2.98,5.5.66,10.99,1.42,16.46,2.37,5.47.95,10.93,2.07,16.31,3.69.19.05.91.28,2.02.68.55.19,1.2.42,1.92.72.73.28,1.53.61,2.38,1.02,1.7.8,3.66,1.79,5.47,3.43.22.21.43.45.65.68l.16.17s-.02-.01,0,0c.02.02.03.05.05.07l.09.17c.03.07.09-.06.13-.08l.16-.16.04-.04.02-.02.07-.08.27-.33c.36-.45.74-.88,1.08-1.34,2.86-3.58,5.3-7.43,6.6-10.53,1.36-3.1,1.45-5.38,1.67-5.37.17-.03.47,2.38-.62,5.76-1.03,3.37-3.3,7.52-6.03,11.36-.33.49-.69.95-1.04,1.43l-.26.35-.41.53-.94,1.19-.47.6-.24.3-.06.08s-.04-.04-.06-.05l-.11-.15c-.3-.4-.6-.79-.9-1.19l-.46-.62c-.07-.11-.19-.21-.29-.32l-.14-.13c-.18-.17-.34-.34-.52-.5-1.54-1.27-3.37-2.13-4.98-2.8-.8-.35-1.57-.63-2.27-.87-.69-.26-1.32-.46-1.85-.62-1.07-.34-1.76-.55-1.95-.6-5.19-1.56-10.57-2.66-15.97-3.6-5.4-.94-10.85-1.69-16.31-2.35-10.92-1.3-21.91-2.22-32.9-2.97-21.99-1.47-44.04-2.25-66.09-2.72-22.05-.47-44.12-.62-66.18-.57l-16.55.07-4.14.02h-2.07c-.9-.01-1.82-.22-2.63-.61-1.6-.83-2.67-2.12-3.48-3.39-.81-1.29-1.4-2.64-1.91-3.99-1.94-5.43-2.79-10.96-3.53-16.47-.71-5.52-1.18-11.04-1.6-16.55-.09-.79-.52-10.29-1.02-19.54-.28-4.62-.62-9.19-1.24-12.51-.3-1.66-.7-3-1.18-3.79-.23-.41-.51-.61-.71-.75-.21-.1-.36-.16-.35-.21,0-.04.15-.09.45-.07.29.06.72.26,1.07.68.73.81,1.32,2.2,1.81,3.88.98,3.37,1.63,7.97,2.17,12.6,1.03,9.27,1.77,18.72,1.86,19.5Z"/><path class="cls-1" d="M25.52,61c.42-5.51.89-11.03,1.6-16.55.75-5.51,1.59-11.05,3.53-16.47.51-1.35,1.11-2.7,1.91-3.99.81-1.28,1.89-2.57,3.48-3.39.81-.4,1.73-.6,2.63-.62h2.07s4.14.02,4.14.02l16.55.07c22.06.05,44.13-.09,66.18-.57,22.05-.48,44.1-1.26,66.09-2.72,10.99-.75,21.97-1.67,32.9-2.97,5.46-.66,10.91-1.41,16.31-2.35,5.4-.94,10.78-2.04,15.97-3.6.19-.05.89-.25,1.95-.6.54-.16,1.17-.36,1.85-.62.7-.24,1.47-.52,2.27-.87,1.61-.67,3.45-1.53,4.98-2.8.18-.16.35-.34.52-.5l.14-.13c.1-.11.22-.2.29-.32l.46-.62c.3-.39.6-.79.9-1.19l.11-.15s.04-.07.06-.05l.06.07.24.3.47.6.94,1.19.42.53.26.35c.35.48.7.94,1.04,1.43,2.73,3.83,4.99,7.99,6.03,11.36,1.1,3.37.8,5.79.62,5.76-.22,0-.3-2.28-1.67-5.37-1.3-3.11-3.74-6.95-6.6-10.53-.35-.45-.72-.89-1.08-1.34l-.27-.33-.07-.08-.02-.02-.04-.04-.15-.16s-.1-.15-.13-.08l-.09.17s-.03.05-.05.07c-.02.02,0,.01,0,0l-.16.17c-.22.23-.43.47-.65.68-1.82,1.64-3.78,2.63-5.48,3.43-.85.41-1.65.74-2.38,1.02-.72.3-1.37.53-1.92.72-1.1.39-1.82.63-2.02.68-5.38,1.62-10.84,2.73-16.31,3.68-5.47.95-10.96,1.71-16.46,2.37-11,1.31-22.02,2.23-33.05,2.98-22.06,1.47-44.14,2.25-66.22,2.73-22.08.47-44.17.62-66.25.57l-16.56-.07-4.14-.02h-2.06c-.48.02-.93.11-1.37.32-.87.45-1.68,1.31-2.33,2.36-.66,1.05-1.19,2.24-1.65,3.46-1.79,4.98-2.65,10.44-3.38,15.84-.7,5.43-1.17,10.91-1.58,16.4-.09.78-.84,10.23-1.86,19.5-.54,4.63-1.19,9.23-2.17,12.6-.49,1.68-1.08,3.07-1.81,3.88-.35.42-.78.62-1.07.68-.3.02-.45-.02-.45-.07,0-.05.14-.11.35-.21.2-.14.47-.34.71-.75.48-.79.88-2.13,1.18-3.79.62-3.32.96-7.89,1.24-12.51.51-9.25.93-18.75,1.02-19.54Z"/><path class="cls-1" d="M39.95,10.35c4.36-.65,8.73-.75,13.07-.53,4.33.22,8.64.74,12.9,1.48,8.43,1.62,16.78,2.97,25.23,4.29,16.87,2.62,33.77,5.08,50.68,7.48,16.91,2.39,33.83,4.72,50.76,6.94,8.46,1.11,16.93,2.19,25.41,3.22,4.23.52,8.47,1,12.71,1.46,4.24.42,8.46.92,12.63.96.3-.01,2.24.08,4.98-.08,2.73-.15,6.26-.62,9.53-1.75,1.63-.57,3.19-1.3,4.49-2.19,1.3-.89,2.35-1.95,2.88-3.01.27-.53.39-1.05.36-1.48-.03-.43-.23-.76-.47-.98-.52-.42-1-.48-.98-.6,0-.06.48-.25,1.3.12.4.21.83.67.98,1.31.16.63.08,1.36-.17,2.05-.49,1.41-1.59,2.73-2.94,3.86-1.36,1.13-3.01,2.06-4.72,2.8-3.45,1.48-7.17,2.18-10.03,2.49-2.87.32-4.91.31-5.22.32-4.38-.05-8.66-.56-12.91-.98-4.26-.46-8.51-.94-12.75-1.46-8.49-1.03-16.96-2.11-25.44-3.22-16.94-2.22-33.87-4.55-50.79-6.94-16.92-2.4-33.83-4.86-50.72-7.48-4.22-.68-8.44-1.32-12.67-2.04-4.19-.67-8.5-1.5-12.62-2.26-4.16-.72-8.35-1.23-12.55-1.44-4.19-.22-8.4-.11-12.49.5-.14.03-.7.07-1.54.24-.42.08-.91.16-1.47.27-.54.13-1.15.28-1.8.45-.64.18-1.31.42-2.03.66-.66.32-1.43.55-2.08.97-.33.2-.71.37-1.02.61-.32.24-.64.47-.96.72-.57.5-1.11,1.14-1.58,1.82-.93,1.36-1.62,2.94-1.64,4.36,0,.35.02.69.12,1,.03.19.11.38.22.56.11.18.29.34.5.35.2.02.42-.11.44-.3.03-.37-.04-.76-.18-1.11-.07-.18-.16-.35-.27-.5-.11-.14-.27-.3-.43-.25-.01-.04-.13.08-.18.19-.05.12-.11.23-.14.33-.07.19-.13.3-.18.3s-.09-.11-.11-.33c-.02-.11,0-.25.01-.42.05-.16.05-.42.4-.61.46-.12.87.15,1.36.89.12.18.19.42.3.65.05.22.15.5.16.72.08.5,0,.86-.09,1.2-.09.35-.54.67-1,.72-.48.05-.95-.15-1.32-.5-.37-.36-.7-.84-.9-1.42-.18-.45-.27-.93-.31-1.41-.13-1.95.57-3.84,1.53-5.5.5-.84,1.06-1.63,1.79-2.36.37-.32.74-.64,1.11-.95.37-.32.78-.53,1.16-.8.76-.55,1.58-.86,2.33-1.26.77-.31,1.51-.61,2.21-.85.71-.21,1.36-.41,1.94-.58.59-.14,1.12-.26,1.57-.36.9-.22,1.48-.28,1.64-.31Z"/><path class="cls-1" d="M40.38,182.43c4.09.61,8.3.72,12.49.5,4.2-.21,8.39-.72,12.55-1.44,4.12-.76,8.43-1.59,12.62-2.26,4.22-.72,8.44-1.36,12.67-2.04,16.89-2.62,33.8-5.08,50.72-7.48,16.92-2.39,33.85-4.72,50.79-6.94,8.47-1.12,16.95-2.19,25.44-3.22,4.24-.52,8.49-1,12.75-1.46,4.25-.42,8.53-.93,12.91-.98.31.01,2.35,0,5.22.32,2.86.31,6.59,1.01,10.03,2.49,1.72.74,3.36,1.67,4.72,2.8,1.35,1.13,2.45,2.45,2.94,3.86.24.7.33,1.42.17,2.05-.15.64-.58,1.1-.98,1.31-.83.37-1.31.18-1.3.12-.02-.12.47-.18.98-.6.24-.22.44-.55.47-.98.03-.43-.09-.95-.36-1.48-.53-1.07-1.59-2.12-2.88-3.01-1.3-.89-2.86-1.62-4.49-2.19-3.27-1.13-6.8-1.6-9.53-1.75-2.73-.16-4.68-.07-4.98-.08-4.17.05-8.39.54-12.63.96-4.23.46-8.47.94-12.71,1.46-8.47,1.02-16.94,2.1-25.41,3.22-16.93,2.22-33.85,4.55-50.76,6.94-16.91,2.4-33.81,4.86-50.68,7.48-8.45,1.33-16.81,2.67-25.23,4.29-4.26.74-8.56,1.26-12.9,1.48-4.33.22-8.71.12-13.07-.53-.16-.03-.74-.09-1.64-.31-.45-.1-.97-.22-1.57-.36-.59-.18-1.24-.37-1.94-.58-.7-.24-1.44-.54-2.21-.85-.75-.4-1.57-.71-2.33-1.26-.38-.27-.79-.48-1.16-.8-.36-.31-.73-.63-1.11-.95-.72-.72-1.29-1.52-1.79-2.36-.96-1.67-1.66-3.55-1.53-5.5.04-.48.13-.96.31-1.41.2-.58.53-1.07.9-1.42.37-.35.84-.55,1.32-.5.46.05.9.37,1,.72.08.34.17.7.09,1.2-.01.22-.11.5-.16.72-.1.23-.18.47-.3.65-.48.74-.9,1.01-1.36.89-.35-.19-.35-.45-.4-.61-.01-.17-.03-.31-.01-.42.03-.22.06-.33.11-.33s.11.1.18.3c.03.1.09.2.14.33.05.11.17.23.18.19.15.05.32-.11.43-.25.11-.15.2-.32.27-.5.14-.36.21-.75.18-1.11-.02-.19-.24-.32-.44-.3-.21.01-.39.17-.5.35-.11.18-.19.37-.22.56-.09.31-.12.65-.12,1,.02,1.42.71,3,1.64,4.36.47.68,1.01,1.32,1.58,1.82.32.24.64.48.96.72.31.24.69.4,1.02.61.65.42,1.42.66,2.08.97.71.23,1.38.47,2.03.66.65.16,1.26.31,1.8.45.56.1,1.05.19,1.47.27.83.17,1.4.21,1.54.24Z"/><path class="cls-1" d="M539.48,134.6c-.42,5.51-.89,11.03-1.6,16.55-.75,5.51-1.59,11.05-3.53,16.47-.51,1.35-1.11,2.7-1.91,3.99-.81,1.28-1.89,2.57-3.48,3.39-.81.4-1.73.6-2.63.62h-2.07s-4.14-.02-4.14-.02l-16.55-.07c-22.06-.05-44.13.09-66.18.57-22.05.48-44.1,1.26-66.09,2.72-10.99.75-21.97,1.67-32.9,2.97-5.46.66-10.91,1.41-16.31,2.35-5.4.94-10.78,2.04-15.97,3.6-.19.05-.89.25-1.95.6-.54.16-1.17.36-1.85.62-.7.24-1.47.52-2.27.87-1.61.67-3.45,1.54-4.98,2.8-.18.16-.35.34-.52.5l-.14.13c-.1.11-.22.2-.29.32l-.46.62c-.3.39-.6.79-.9,1.19l-.11.15s-.04.07-.06.05l-.06-.08-.24-.3-.47-.6-.94-1.19-.42-.53-.26-.35c-.35-.48-.7-.94-1.04-1.43-2.73-3.83-4.99-7.99-6.03-11.36-1.1-3.37-.8-5.79-.62-5.76.22,0,.3,2.28,1.67,5.37,1.3,3.11,3.74,6.95,6.6,10.53.35.45.72.89,1.08,1.34l.27.33.07.08.02.02.04.04.16.16s.1.15.13.08l.09-.17s.03-.05.05-.07c.02-.02,0-.01,0,0l.16-.17c.22-.23.43-.47.65-.68,1.82-1.64,3.78-2.63,5.47-3.43.85-.41,1.65-.74,2.38-1.02.72-.3,1.37-.53,1.92-.72,1.1-.39,1.82-.63,2.02-.68,5.38-1.62,10.84-2.73,16.31-3.69,5.47-.95,10.96-1.71,16.46-2.37,11-1.31,22.02-2.23,33.05-2.98,22.06-1.47,44.14-2.25,66.22-2.73,22.08-.47,44.17-.62,66.25-.57l16.56.07,4.14.02h2.06c.48-.02.93-.11,1.37-.32.87-.45,1.68-1.31,2.33-2.36.66-1.05,1.19-2.23,1.65-3.46,1.79-4.98,2.65-10.44,3.38-15.84.7-5.43,1.17-10.91,1.58-16.4.09-.78.84-10.23,1.86-19.5.54-4.63,1.19-9.23,2.17-12.6.49-1.68,1.08-3.07,1.81-3.88.35-.42.78-.62,1.07-.68.3-.02.45.02.45.07,0,.05-.14.11-.35.21-.2.14-.47.34-.71.75-.48.79-.88,2.13-1.18,3.79-.62,3.32-.96,7.89-1.24,12.51-.51,9.25-.93,18.75-1.02,19.54Z"/><path class="cls-1" d="M536.63,61.21c-.42-5.49-.88-10.97-1.58-16.4-.72-5.41-1.59-10.86-3.38-15.84-.46-1.23-1-2.42-1.65-3.46-.65-1.04-1.46-1.91-2.33-2.36-.44-.21-.89-.3-1.37-.32h-2.06s-4.14.02-4.14.02l-16.56.07c-22.08.05-44.17-.09-66.25-.57-22.08-.48-44.16-1.26-66.22-2.73-11.03-.75-22.05-1.67-33.05-2.98-5.5-.66-10.99-1.42-16.46-2.37-5.47-.95-10.93-2.07-16.31-3.68-.19-.05-.91-.28-2.02-.68-.55-.19-1.2-.42-1.92-.72-.72-.28-1.53-.61-2.38-1.02-1.7-.8-3.66-1.79-5.48-3.43-.22-.21-.43-.45-.65-.68l-.16-.17s.02.01,0,0c-.02-.02-.03-.05-.05-.07l-.09-.17c-.03-.07-.09.06-.13.08l-.16.16-.04.04-.02.02-.07.08-.27.33c-.36.45-.74.88-1.08,1.34-2.86,3.58-5.3,7.43-6.6,10.53-1.36,3.1-1.45,5.38-1.67,5.37-.17.03-.47-2.38.62-5.76,1.03-3.37,3.3-7.52,6.03-11.36.33-.49.69-.95,1.04-1.43l.26-.35.42-.53.94-1.19.47-.6.24-.3.06-.07s.04.04.06.05l.11.15c.3.4.6.79.9,1.19l.46.62c.07.11.19.21.29.32l.14.13c.18.17.34.34.52.5,1.54,1.27,3.37,2.13,4.98,2.8.8.35,1.57.63,2.27.87.69.26,1.32.46,1.85.62,1.07.34,1.76.55,1.95.6,5.19,1.56,10.57,2.66,15.97,3.6,5.4.94,10.85,1.69,16.31,2.35,10.92,1.3,21.91,2.22,32.9,2.97,21.99,1.47,44.04,2.25,66.09,2.72,22.05.47,44.12.62,66.18.57l16.55-.07,4.14-.02h2.07c.9.01,1.82.22,2.63.61,1.6.83,2.67,2.12,3.48,3.39.81,1.29,1.4,2.64,1.91,3.99,1.94,5.43,2.79,10.96,3.53,16.47.71,5.52,1.18,11.04,1.6,16.55.09.79.52,10.29,1.02,19.54.28,4.62.62,9.19,1.24,12.51.3,1.66.7,3,1.18,3.79.23.41.51.61.71.75.21.1.36.16.35.21,0,.04-.15.09-.45.07-.29-.06-.72-.26-1.07-.68-.73-.81-1.32-2.2-1.81-3.88-.98-3.37-1.63-7.97-2.17-12.6-1.03-9.27-1.77-18.72-1.86-19.5Z"/><path class="cls-1" d="M524.62,13.18c-4.09-.61-8.3-.72-12.49-.5-4.2.21-8.39.72-12.55,1.44-4.12.76-8.43,1.59-12.62,2.26-4.22.72-8.44,1.36-12.67,2.04-16.89,2.62-33.8,5.08-50.72,7.48-16.92,2.39-33.85,4.72-50.79,6.94-8.47,1.12-16.95,2.19-25.44,3.22-4.24.52-8.49,1-12.75,1.46-4.25.42-8.53.93-12.91.98-.31-.01-2.35,0-5.22-.32-2.86-.31-6.59-1.01-10.03-2.49-1.72-.74-3.36-1.67-4.72-2.8-1.35-1.13-2.45-2.45-2.94-3.86-.24-.7-.33-1.42-.17-2.05.15-.64.58-1.1.98-1.31.83-.37,1.31-.18,1.3-.12.02.12-.47.18-.98.6-.24.22-.44.55-.47.98-.03.43.09.95.36,1.48.53,1.07,1.59,2.12,2.88,3.01,1.3.89,2.86,1.62,4.49,2.19,3.27,1.13,6.8,1.6,9.53,1.75,2.73.16,4.68.07,4.98.08,4.17-.05,8.39-.54,12.63-.96,4.23-.46,8.47-.94,12.71-1.46,8.47-1.02,16.94-2.1,25.41-3.22,16.93-2.22,33.85-4.55,50.76-6.94,16.91-2.4,33.81-4.86,50.68-7.48,8.45-1.33,16.81-2.67,25.23-4.29,4.26-.74,8.56-1.26,12.9-1.48,4.33-.22,8.71-.12,13.07.53.24.02,1.53.25,3.41.73,1.87.53,4.39,1.34,6.82,2.98.62.37,1.16.94,1.75,1.41.57.57,1.03,1.17,1.44,1.81.81,1.28,1.45,2.66,1.73,4.14.14.74.2,1.5.08,2.25-.07.38-.13.73-.29,1.1-.16.45-.4.84-.67,1.16-.52.62-1.36.94-2.01.56-.32-.17-.53-.45-.55-.72-.04-.13-.06-.27-.07-.43-.02-.14-.02-.31,0-.49.09-.87.55-1.79.96-2.11.21-.16.38-.29.59-.31.1,0,.2-.03.31.04.17.07.21.19.29.29.15.38.11.62.09.8-.03.17-.06.26-.1.26-.1.03-.16-.4-.42-.79-.03,0-.07-.06-.07-.03-.04-.03-.14,0-.2.03-.14.08-.23.22-.33.36-.17.29-.28.62-.34.95-.02.15-.03.29-.02.44-.02.15.08.29.23.34.31.15.65-.13.78-.42.07-.14.13-.29.16-.44.07-.22.1-.5.12-.76.04-.53-.06-1.12-.22-1.69-.32-1.16-.96-2.33-1.73-3.36-.38-.51-.82-.99-1.26-1.38-.53-.35-.96-.79-1.52-1.07-2.13-1.26-4.45-1.9-6.2-2.3-1.76-.36-2.97-.53-3.2-.55Z"/><path class="cls-1" d="M525.05,185.25c-4.36.65-8.73.75-13.07.53-4.33-.22-8.64-.74-12.9-1.48-8.43-1.62-16.78-2.97-25.23-4.29-16.87-2.62-33.77-5.08-50.68-7.48-16.91-2.39-33.83-4.72-50.76-6.94-8.46-1.11-16.93-2.19-25.41-3.22-4.23-.52-8.47-1-12.71-1.46-4.24-.42-8.46-.92-12.63-.96-.3.01-2.24-.08-4.98.08-2.73.15-6.26.62-9.53,1.75-1.63.57-3.19,1.3-4.49,2.19-1.3.89-2.35,1.95-2.88,3.01-.27.53-.39,1.05-.36,1.48.03.43.23.76.47.98.52.42,1,.48.98.6,0,.06-.48.25-1.3-.12-.4-.21-.83-.67-.98-1.31-.16-.63-.08-1.36.17-2.05.49-1.41,1.59-2.73,2.94-3.86,1.36-1.13,3.01-2.06,4.72-2.8,3.45-1.48,7.17-2.18,10.03-2.49,2.87-.32,4.91-.31,5.22-.32,4.38.05,8.66.56,12.91.98,4.26.46,8.51.94,12.75,1.46,8.49,1.03,16.96,2.11,25.44,3.22,16.94,2.22,33.87,4.55,50.79,6.94,16.92,2.4,33.83,4.86,50.72,7.48,4.22.68,8.44,1.32,12.67,2.04,4.19.67,8.5,1.5,12.62,2.26,4.16.72,8.35,1.23,12.55,1.44,4.19.22,8.4.11,12.49-.5.23-.02,1.44-.19,3.2-.55,1.74-.4,4.06-1.04,6.2-2.3.56-.28.99-.72,1.52-1.07.44-.39.87-.87,1.26-1.38.77-1.03,1.41-2.2,1.73-3.36.16-.58.26-1.16.22-1.69-.02-.26-.05-.54-.12-.76-.02-.15-.09-.3-.16-.44-.13-.28-.47-.56-.78-.42-.14.06-.25.2-.23.34-.01.14,0,.29.02.44.05.33.16.67.34.95.09.14.19.28.33.36.06.04.16.06.2.03,0,.03.04-.02.07-.03.26-.4.32-.82.42-.79.04,0,.08.09.1.26.02.18.06.42-.09.8-.07.09-.11.22-.29.29-.11.07-.21.05-.31.04-.2-.02-.38-.16-.59-.31-.42-.32-.87-1.23-.96-2.11-.02-.18-.02-.35,0-.49.01-.16.03-.31.07-.43.02-.27.24-.55.55-.72.65-.37,1.49-.06,2.01.56.27.32.51.71.67,1.16.16.36.23.72.29,1.1.12.75.05,1.51-.08,2.25-.28,1.48-.92,2.87-1.73,4.14-.41.64-.88,1.24-1.44,1.81-.59.47-1.12,1.04-1.75,1.41-2.43,1.64-4.95,2.46-6.82,2.98-1.89.48-3.17.71-3.41.73Z"/></g></svg>