<?xml version="1.0" encoding="UTF-8"?><svg id="Line" xmlns="http://www.w3.org/2000/svg" viewBox="0 0 533 167.99"><defs><style>.cls-1{fill:none;stroke:#fff;stroke-miterlimit:10;stroke-width:3px;}.cls-2{fill:#fff;stroke-width:0px;}</style></defs><g id="Button_14_Lines"><path class="cls-1" d="M481.06,156.52H51.94c0-19.93-16.16-36.08-36.08-36.08V37.58c19.93,0,36.08-16.16,36.08-36.08h429.11c0,19.93,16.16,36.08,36.08,36.08v82.86c-19.93,0-36.08,16.16-36.08,36.08Z"/><path class="cls-2" d="M60.01,135.96c17.44,1.28,34.82,3.65,51.92,7.27,17.12,3.56,33.95,8.11,50.96,11.66l6.38,1.31,3.19.65,3.21.56c4.28.71,8.56,1.5,12.85,2.15l12.92,1.7c2.15.32,4.31.5,6.48.69l6.49.59,6.49.59c2.16.23,4.34.26,6.5.4l13.02.68c2.17.15,4.34.17,6.52.2l6.52.11,13.04.21,13.04-.21,6.52-.11c2.17-.03,4.35-.06,6.52-.2l13.02-.68c2.17-.14,4.34-.17,6.5-.4l6.49-.59,6.49-.59c2.16-.19,4.33-.38,6.48-.69l12.92-1.7c4.29-.66,8.56-1.44,12.85-2.15l3.21-.56,3.19-.65,6.38-1.31c17.01-3.55,33.85-8.1,50.96-11.66,17.11-3.62,34.48-5.99,51.92-7.27.62-.03,4.68-.21,10.44-.47,1.44-.06,2.98-.13,4.6-.19,1.62-.06,3.32-.02,5.07-.03,3.49,0,7.18,0,10.87.01,1.83,0,3.67.01,5.47.02,1.79.08,3.56.15,5.27.22,3.37.16,6.53.31,9.3.45,5.42.29,9.01.56,9,.75s-3.6.31-9.03.36c-2.76.01-5.92.03-9.29.04-1.71,0-3.47,0-5.26,0-1.8.06-3.62.12-5.45.18-3.67.11-7.35.23-10.82.34-1.74.06-3.43.07-5.04.17-1.61.11-3.14.22-4.57.31-5.72.38-9.75.65-10.36.69-17.32,1.27-34.54,3.62-51.54,7.22-17.01,3.54-33.85,8.09-50.96,11.66l-6.42,1.31-3.21.66-3.23.56c-4.31.72-8.61,1.51-12.93,2.17l-13,1.71c-2.16.32-4.34.5-6.52.7l-6.53.6-6.53.6c-2.17.23-4.36.26-6.54.4l-13.09.69c-2.18.15-4.36.17-6.55.2l-6.55.11-13.1.22-13.1-.22-6.55-.11c-2.18-.03-4.37-.06-6.55-.2l-13.09-.69c-2.18-.14-4.37-.17-6.54-.4l-6.53-.6-6.53-.6c-2.18-.19-4.35-.38-6.52-.7l-13-1.71c-4.32-.66-8.62-1.45-12.93-2.17l-3.23-.56-3.21-.66-6.42-1.31c-17.11-3.57-33.95-8.12-50.96-11.66-17-3.59-34.22-5.94-51.54-7.22-.61-.04-4.64-.31-10.36-.69-1.43-.1-2.96-.2-4.57-.31-1.61-.1-3.3-.11-5.04-.17-3.47-.11-7.15-.22-10.82-.34-1.83-.06-3.65-.12-5.45-.18-1.79,0-3.55,0-5.26,0-3.37-.01-6.53-.03-9.29-.04C3.6,137.03,0,136.92,0,136.72s3.58-.46,9-.75c2.76-.13,5.92-.28,9.3-.45,1.71-.07,3.48-.15,5.27-.22,1.8,0,3.64-.01,5.47-.02,3.69,0,7.38,0,10.87-.01,1.75.01,3.45-.03,5.07.03,1.62.07,3.16.13,4.6.19,5.76.26,9.82.44,10.44.47Z"/><path class="cls-2" d="M527.6,22.81c.54,3.2.41,6.36.08,9.45-.34,3.09-.99,6.11-1.72,9.1-1.53,5.95-3.59,11.73-6,17.34-.6,1.4-1.21,2.8-1.87,4.18-.63,1.39-1.3,2.76-1.98,4.12-.65,1.38-1.43,2.71-2.15,4.06-.37.67-.73,1.35-1.11,2.01l-1.2,1.96c-3.2,5.22-6.75,10.19-10.49,14.98-7.41,9.63-15.46,18.7-22.39,28.47-3.44,4.89-6.61,9.98-8.74,15.44-2.11,5.51-3.65,11.35-4.24,17.19-.02.21-.22,1.57-.32,3.49-.11,1.92-.09,4.42.34,6.81.22,1.19.54,2.35,1,3.33.46.97,1.06,1.82,1.69,2.12.31.16.6.18.87.11.26-.11.5-.26.67-.45.36-.35.52-.64.63-.59.07.03.1.37-.16.92-.12.28-.36.6-.76.88-.42.26-1.04.35-1.62.18-1.17-.34-2.02-1.34-2.72-2.4-.69-1.09-1.19-2.35-1.57-3.63-.74-2.58-.98-5.26-1.01-7.31-.04-2.06.08-3.51.1-3.73.3-3.1.88-6.14,1.63-9.13.78-2.99,1.63-5.91,2.79-8.8,2.27-5.82,5.57-11.07,9.07-16.06,3.53-4.99,7.32-9.74,11.14-14.44,3.82-4.7,7.64-9.37,11.33-14.13,3.7-4.75,7.19-9.64,10.31-14.73,3.12-5.07,5.77-10.46,8.13-15.97,2.37-5.5,4.38-11.15,5.86-16.92.71-2.88,1.34-5.79,1.65-8.72.32-2.91.41-5.86-.06-8.63,0-.07-.04-.28-.08-.61-.07-.31-.17-.73-.29-1.24-.2-1-.75-2.27-1.59-3.59-.83-1.28-2.01-2.64-3.32-3.08-.16-.03-.32-.1-.48-.1-.18-.01-.19-.04-.3-.03-.17,0-.38.03-.53.16-.16.12-.24.33-.22.52,0,.22.21.3.38.37.29.12.63.15.96.11.17-.02.33-.07.47-.16.07-.05.11-.1.15-.16,0,0,.04-.02.02-.06-.03-.18-.25-.42-.37-.54-.13-.14-.2-.24-.17-.29.03-.05.14-.05.34,0,.2.07.51.13.81.58.08.11.1.3.09.48-.03.13-.08.26-.16.36-.16.21-.39.4-.72.52-.63.27-1.58.31-2.41.04-.11-.05-.24-.1-.35-.15l-.29-.2c-.2-.13-.34-.38-.42-.64-.16-.52-.08-1.14.25-1.63.32-.5.9-.83,1.57-.99.17-.03.34-.09.52-.1l.5-.02c.29-.02.56.05.85.09,1.11.24,2.04.82,2.82,1.45.78.64,1.44,1.36,2,2.09,1.1,1.44,1.89,2.97,2.24,4.19.18.6.33,1.1.44,1.46.07.38.11.61.12.69Z"/><path class="cls-2" d="M8.22,23.3c-.47,2.77-.37,5.72-.06,8.63.31,2.92.95,5.83,1.65,8.72,1.48,5.76,3.49,11.42,5.86,16.92,2.37,5.51,5.01,10.9,8.13,15.97,3.12,5.09,6.61,9.98,10.31,14.73,3.68,4.76,7.51,9.43,11.33,14.13,3.82,4.7,7.61,9.45,11.14,14.44,3.5,4.99,6.8,10.24,9.07,16.06,1.16,2.89,2.02,5.81,2.79,8.8.75,2.99,1.32,6.04,1.63,9.13.02.22.15,1.67.1,3.73-.03,2.05-.27,4.74-1.01,7.31-.38,1.28-.88,2.54-1.57,3.63-.7,1.06-1.54,2.06-2.72,2.4-.58.17-1.2.08-1.62-.18-.4-.28-.64-.6-.76-.88-.26-.55-.23-.9-.16-.92.11-.05.27.24.63.59.17.19.41.34.67.45.27.07.56.05.87-.11.64-.3,1.24-1.16,1.69-2.12.46-.99.78-2.15,1-3.33.43-2.39.45-4.88.34-6.81-.1-1.92-.3-3.28-.32-3.49-.59-5.83-2.13-11.67-4.24-17.19-2.13-5.46-5.31-10.55-8.74-15.44-6.94-9.77-14.99-18.84-22.39-28.47-3.73-4.79-7.28-9.77-10.49-14.98l-1.2-1.96c-.39-.66-.74-1.34-1.11-2.01-.72-1.35-1.51-2.68-2.15-4.06-.68-1.37-1.36-2.73-1.98-4.12-.66-1.38-1.27-2.78-1.87-4.18-2.42-5.61-4.47-11.38-6-17.34-.73-2.99-1.39-6-1.72-9.1-.33-3.09-.46-6.25.08-9.45.01-.08.06-.31.12-.69.11-.36.26-.86.44-1.46.35-1.22,1.14-2.75,2.24-4.19.56-.73,1.22-1.45,2-2.09.78-.63,1.71-1.21,2.82-1.45.29-.03.56-.1.85-.09l.5.02c.18.01.35.07.52.1.67.16,1.24.49,1.57.99.33.49.41,1.11.25,1.63-.08.26-.22.51-.42.64l-.29.2c-.11.06-.24.1-.35.15-.83.28-1.79.23-2.41-.04-.32-.12-.56-.31-.72-.52-.08-.1-.13-.23-.16-.36-.01-.19,0-.37.09-.48.3-.45.61-.52.81-.58.2-.05.32-.05.34,0,.03.05-.04.15-.17.29-.12.12-.34.36-.37.54-.02.05.02.05.02.06.04.06.08.11.15.16.14.09.3.14.47.16.33.04.68,0,.96-.11.17-.07.37-.14.38-.37.02-.2-.07-.4-.22-.52-.16-.12-.36-.16-.53-.16-.11,0-.12.02-.3.03-.16,0-.32.08-.48.1-1.3.45-2.49,1.8-3.32,3.08-.84,1.32-1.38,2.59-1.59,3.59-.12.51-.22.93-.29,1.24-.04.33-.07.54-.08.61Z"/></g></svg>