<?xml version="1.0" encoding="UTF-8"?><svg id="Line" xmlns="http://www.w3.org/2000/svg" viewBox="0 0 561.82 123.57"><defs><style>.cls-1{fill:#fff;stroke-width:0px;}</style></defs><g id="Callout_7_Lines"><path class="cls-1" d="M302.4,36.34c4.24-2.91,8.73-5.48,13.41-7.65,4.7-2.12,9.61-3.89,14.74-4.87l.48-.09c.17-.02.27-.07.64-.11h1.04s1.9,0,1.9,0h3.8s7.61,0,7.61,0h15.22s60.88.03,60.88.03c5.06.01,10.17-.02,15.2.03,5.02,0,10.07-.24,15.1-.59,10.06-.72,20.08-2.04,29.99-3.91,4.94-.95,9.89-2.07,14.89-3.06,4.98-1.01,9.99-1.93,15.03-2.73,5.03-.81,10.1-1.47,15.2-1.9,5.1-.42,10.25-.62,15.42-.24.37.03,2.78.18,6.16.92.42.09.86.19,1.31.28.44.13.9.27,1.37.4.47.14.95.29,1.43.43.48.19.96.39,1.46.59.99.38,1.97.85,2.94,1.42.96.58,1.93,1.23,2.76,2.13.43.43.79.98,1.08,1.57.27.62.41,1.32.35,2.02-.16,1.42-1.03,2.42-1.85,3.13-1.73,1.39-3.59,1.98-5.18,2.35-3.21.7-5.37.22-5.34.06,0-.23,2.13-.15,5.04-1.13,1.43-.5,3.11-1.24,4.41-2.47.62-.61,1.09-1.37,1.11-2.07,0-.35-.09-.7-.27-1.05-.21-.34-.45-.69-.8-1-1.35-1.25-3.29-2.14-5.12-2.75-.46-.16-.91-.32-1.35-.47-.46-.11-.91-.23-1.35-.33-.44-.11-.87-.21-1.28-.32-.43-.07-.84-.14-1.24-.21-3.19-.55-5.51-.62-5.86-.65-4.95-.36-9.97-.17-14.97.24-5.01.42-10.01,1.07-14.99,1.87-4.98.79-9.96,1.7-14.91,2.71-4.95.99-9.89,2.1-14.92,3.07-10.02,1.89-20.15,3.23-30.32,3.95-5.09.36-10.18.6-15.3.6-5.12-.06-10.15-.02-15.24-.03l-60.85-.02h-15.21s-7.61,0-7.61,0h-3.8s-1.9,0-1.9,0h-.86s-.75.15-.75.15c-9.69,1.93-18.85,6.46-27.08,12.06-.29.21-2.25,1.46-4.88,3.44-2.63,1.97-5.93,4.68-8.9,7.67-3,2.95-5.59,6.23-7.15,8.9-.76,1.34-1.29,2.51-1.61,3.36-.3.84-.46,1.35-.57,1.34-.09,0-.12-.55.01-1.48.15-.93.53-2.23,1.17-3.72,1.33-2.95,3.77-6.55,6.67-9.78,2.87-3.26,6.12-6.21,8.74-8.36,2.62-2.15,4.6-3.51,4.89-3.73Z"/><path class="cls-1" d="M257.8,38.7c-8.23-5.61-17.38-10.14-27.08-12.06l-.75-.15h-.86s-1.9,0-1.9,0h-3.8s-7.61,0-7.61,0h-15.21s-60.85.03-60.85.03c-5.08.01-10.12-.02-15.24.03-5.12,0-10.22-.24-15.3-.6-10.18-.73-20.3-2.06-30.32-3.95-5.02-.97-9.96-2.08-14.92-3.07-4.96-1.01-9.93-1.91-14.91-2.71-4.98-.8-9.98-1.45-14.99-1.87-5-.41-10.02-.6-14.97-.24-.35.03-2.67.1-5.86.65-.4.07-.81.14-1.24.21-.42.1-.84.21-1.28.32-.44.11-.89.22-1.35.33-.44.15-.89.31-1.35.47-1.82.61-3.76,1.51-5.12,2.75-.35.31-.59.66-.8,1-.17.35-.27.7-.27,1.05.01.71.48,1.46,1.11,2.07,1.29,1.23,2.98,1.97,4.41,2.47,2.92.98,5.04.9,5.04,1.13.03.16-2.13.64-5.34-.06-1.58-.38-3.45-.97-5.18-2.35-.82-.7-1.69-1.71-1.85-3.13-.07-.69.08-1.4.35-2.02.29-.59.65-1.14,1.08-1.57.84-.9,1.8-1.56,2.76-2.13.97-.57,1.95-1.04,2.94-1.42.49-.2.98-.39,1.46-.59.49-.15.97-.29,1.43-.43.47-.14.93-.27,1.37-.4.45-.1.89-.19,1.31-.28,3.37-.73,5.79-.89,6.16-.92,5.17-.37,10.32-.17,15.42.24,5.1.43,10.17,1.08,15.2,1.9,5.03.8,10.04,1.71,15.03,2.73,5,.99,9.95,2.11,14.89,3.06,9.91,1.87,19.93,3.19,29.99,3.91,5.03.36,10.07.59,15.1.59,5.03-.06,10.13-.02,15.2-.03l60.88-.02h15.22s7.61,0,7.61,0h3.8s1.9,0,1.9,0h1.04c.37.03.47.08.64.1l.48.09c5.13.98,10.04,2.74,14.74,4.87,4.69,2.17,9.17,4.73,13.41,7.65.3.21,2.28,1.58,4.89,3.73,2.62,2.15,5.87,5.1,8.74,8.36,2.9,3.22,5.34,6.82,6.67,9.78.65,1.49,1.03,2.79,1.17,3.72.14.93.1,1.47.01,1.48-.11.01-.27-.49-.57-1.34-.32-.85-.84-2.02-1.61-3.36-1.57-2.67-4.15-5.95-7.15-8.9-2.97-2.98-6.27-5.69-8.9-7.67-2.63-1.98-4.59-3.23-4.88-3.44Z"/><path class="cls-1" d="M248.38,39.93c4.16,5.63,7.83,11.57,11.17,17.68,3.35,6.1,6.39,12.35,9.2,18.7,2.82,6.34,5.4,12.79,7.74,19.33,1.18,3.27,2.26,6.57,3.27,9.91.26.83.5,1.67.73,2.51l.39,1.41.02.09.02-.09.39-1.41c.23-.84.47-1.68.73-2.51,1.01-3.34,2.09-6.64,3.27-9.91,2.34-6.54,4.92-12.99,7.74-19.33,2.82-6.35,5.85-12.6,9.2-18.7,3.33-6.1,7-12.04,11.17-17.68.32-.37,4-5.2,8.5-9.09,2.25-1.94,4.65-3.67,6.65-4.61.96-.53,1.84-.82,2.45-1.01.61-.19.97-.25,1-.16.04.09-.25.33-.76.68-.52.35-1.28.78-2.12,1.44-1.75,1.18-3.85,3.08-5.84,5.12-3.98,4.1-7.29,8.97-7.6,9.33-4.05,5.48-7.66,11.32-10.95,17.34-3.31,6.01-6.31,12.2-9.1,18.48-2.79,6.28-5.34,12.67-7.66,19.13-1.16,3.23-2.24,6.49-3.22,9.77-.25.82-.49,1.64-.72,2.46l-.35,1.23-.59,2.43c-.2.85-.4,1.6-.59,2.53l-.56,2.93-1.08,5.62-1.08-5.62-.56-2.93c-.19-.93-.39-1.68-.59-2.53l-.59-2.43-.35-1.23c-.22-.82-.46-1.64-.72-2.46-.99-3.28-2.06-6.54-3.22-9.77-2.32-6.46-4.87-12.86-7.66-19.13-2.79-6.28-5.79-12.47-9.1-18.48-3.29-6.02-6.9-11.86-10.95-17.34-.31-.36-3.62-5.23-7.6-9.33-1.99-2.04-4.09-3.94-5.84-5.12-.84-.66-1.6-1.09-2.12-1.44-.52-.35-.8-.59-.76-.68s.4-.03,1,.16c.61.19,1.49.48,2.45,1.01,2,.94,4.4,2.67,6.65,4.61,4.51,3.89,8.18,8.72,8.5,9.09Z"/></g></svg>