<?xml version="1.0" encoding="UTF-8"?><svg id="Line" xmlns="http://www.w3.org/2000/svg" viewBox="0 0 499.55 48.43"><defs><style>.cls-1{fill:#fff;stroke-width:0px;}</style></defs><g id="Callout_2_Lines"><path class="cls-1" d="M232.31,42.38c-12.62,1.16-25.26,1.91-37.89,2.5-12.64.6-25.28,1.03-37.91,1.4-25.28.73-50.55,1.19-75.82,1.73l-18.95.41c-.11-.01-.38.04-.55-.02l-.39-.1-.58-.15-1.16-.29-2.32-.58-2.32-.59-2.29-.69c-1.52-.47-3.06-.9-4.57-1.41l-4.52-1.59c-11.96-4.46-23.38-10.38-33.75-17.86-.66-.46-1.28-.96-1.93-1.43-.32-.24-.64-.47-.96-.73l-1.2-.95c-1.25-.99-2.31-1.97-3.45-2.96l-1.64-1.47c-.07-.06-.18-.14-.03-.12h.27s.54-.03.54-.03l1.07-.04c1.37-.08,3-.06,4.58-.06h367.78c1.8.02,23.46.22,44.83.42,10.64.13,21.17.28,29.04.45,3.93.09,7.2.18,9.49.27s3.59.19,3.59.29-1.3.19-3.59.29-5.56.18-9.49.27c-7.87.17-18.4.32-29.04.45-21.36.2-43.03.4-44.83.42H7.49h0s.66.52.66.52c.3.25.62.47.93.71.63.46,1.24.95,1.88,1.39,10.13,7.31,21.35,13.12,33.07,17.49l4.43,1.56c1.48.5,2.99.92,4.48,1.38l2.25.68,2.27.57,2.27.57,1.14.29c.36.08.88.23.8.19l18.96-.41c25.27-.53,50.54-1,75.8-1.73,12.63-.36,25.25-.8,37.86-1.39,12.61-.59,25.21-1.34,37.76-2.5.89-.11,6.75-.54,14.97-1.57,4.1-.55,8.81-1.18,13.7-2.23,1.21-.28,2.45-.57,3.69-.86,1.22-.36,2.47-.67,3.68-1.09.6-.22,1.21-.43,1.81-.65.61-.21,1.16-.52,1.74-.77.28-.14.59-.25.85-.41l.78-.49.78-.49.74-.6c1.01-.79,1.88-1.7,2.68-2.64.74-.98,1.38-2.02,1.75-3.13.73-2.23.26-4.65-1.04-6.55-1.28-1.92-3.11-3.41-4.98-4.52-1.88-1.12-3.83-1.92-5.68-2.46-3.71-1.08-6.99-1.18-9.23-1.01-2.25.18-3.51.54-3.55.42-.01-.05.29-.18.87-.38.29-.11.66-.21,1.09-.31.44-.11.94-.22,1.51-.3,2.28-.36,5.67-.45,9.58.51,1.95.48,4.02,1.23,6.06,2.35,2.04,1.12,4.08,2.64,5.62,4.8.78,1.07,1.36,2.35,1.64,3.73.28,1.38.21,2.86-.19,4.25-.41,1.39-1.14,2.63-1.96,3.77-.88,1.1-1.83,2.14-2.9,3.01l-.79.67-.89.6-.9.59c-.3.19-.62.32-.93.48-.63.29-1.24.64-1.88.88-.64.24-1.27.49-1.9.73-1.27.47-2.55.82-3.81,1.22-1.27.32-2.53.65-3.77.96-4.98,1.17-9.73,1.9-13.86,2.52-8.28,1.18-14.16,1.7-15.06,1.81Z"/></g></svg>