<?xml version="1.0" encoding="UTF-8"?><svg id="Line" xmlns="http://www.w3.org/2000/svg" viewBox="0 0 561.76 102.28"><defs><style>.cls-1{fill:#fff;stroke-width:0px;}</style></defs><g id="Callout_6_Lines"><path class="cls-1" d="M269.2,47.54c-.35,2.16-.56,4.35-.62,6.55l-.04,1.65.08,1.61c.02,1.07.18,2.15.33,3.24.64,4.33,1.82,8.65,3.17,12.89,1.36,4.25,2.92,8.45,4.61,12.6.85,2.07,1.72,4.14,2.63,6.19l1.52,3.38,1.52-3.38c.91-2.05,1.78-4.12,2.63-6.19,1.69-4.15,3.25-8.35,4.61-12.6,1.35-4.25,2.53-8.56,3.17-12.89.15-1.08.31-2.17.33-3.24l.08-1.61-.04-1.65c-.05-2.2-.27-4.39-.62-6.55-.05-.31-.47-4.06-1.5-7.63-.49-1.79-1.11-3.53-1.62-4.81-.5-1.29-.88-2.14-.73-2.25.16-.12.87.54,1.7,1.73.84,1.18,1.78,2.87,2.55,4.67,1.59,3.58,2.38,7.53,2.42,7.85.37,2.29.6,4.6.65,6.92l.04,1.73-.08,1.77c-.02,1.19-.19,2.34-.36,3.49-.68,4.6-1.9,9.02-3.27,13.36-1.39,4.34-2.98,8.6-4.69,12.81-.86,2.1-1.74,4.19-2.66,6.27l-1.4,3.11-1.29,2.74-1.45,3-1.45-3-1.29-2.74-1.4-3.11c-.92-2.07-1.8-4.17-2.66-6.27-1.71-4.21-3.3-8.47-4.69-12.81-1.38-4.35-2.6-8.76-3.27-13.36-.16-1.15-.33-2.3-.36-3.49l-.08-1.77.04-1.73c.06-2.31.28-4.62.65-6.92.05-.32.83-4.27,2.42-7.85.77-1.79,1.71-3.49,2.55-4.67.83-1.18,1.55-1.85,1.7-1.73.15.12-.23.96-.73,2.25-.51,1.29-1.13,3.03-1.62,4.81-1.03,3.57-1.46,7.33-1.5,7.63Z"/><path class="cls-1" d="M310.21,22.8l1.9-.23,1.93-.08c1.29-.05,2.46-.02,3.7-.05l7.37-.07,14.74-.13,29.48-.11c19.66,0,39.31.14,58.97.53,19.66.4,39.31,1.01,58.96,2.28,9.82.66,19.64,1.45,29.44,2.78,4.9.69,9.79,1.48,14.65,2.83,1.22.35,2.43.74,3.64,1.23,1.21.51,2.42,1.07,3.6,2.02.1.09.11.11.17.17.02.02,0,0,.01.01l1.79-.49c1.18-.32,2.35-.64,3.51-1,.33-.1,2.52-.68,5.5-1.74,1.47-.55,3.17-1.2,4.83-2.08,1.65-.88,3.34-1.97,4.45-3.38.53-.72,1-1.54,1.09-2.32.12-.78-.07-1.51-.56-2.09-.48-.58-1.2-1.02-1.96-1.25-.75-.27-1.53-.36-2.25-.42-2.93-.08-4.86.79-4.94.55-.07-.1,1.68-1.37,4.92-1.66.81-.02,1.7-.02,2.64.22.93.2,1.94.65,2.76,1.48.84.81,1.31,2.13,1.19,3.36-.08,1.26-.63,2.32-1.24,3.29-1.34,1.95-3.2,3.23-4.94,4.29-1.77,1.05-3.51,1.81-5.04,2.47-3.07,1.24-5.29,1.92-5.63,2.02-1.19.36-2.39.69-3.58,1.02l-1.76.48-.88.26-.44.13-.22.06s-.08.04-.1.02l-.07-.07-1.1-1.16c-.74-.6-1.76-1.11-2.82-1.54-1.07-.43-2.2-.8-3.34-1.12-4.61-1.28-9.44-2.07-14.26-2.74-9.67-1.32-19.45-2.11-29.23-2.76-19.57-1.26-39.2-1.87-58.83-2.27-19.63-.39-39.27-.53-58.91-.53l-29.46.11-14.73.13-7.37.07c-1.21.02-2.5,0-3.67.05l-1.75.07-1.75.21c-.17.01-.8.08-1.76.26-.97.13-2.28.44-3.8.8-3.04.78-6.9,2.21-10.54,4.03-3.66,1.79-7.09,3.95-9.53,5.75-2.45,1.77-3.92,3.16-4.08,3.02-.13-.11,1.08-1.79,3.38-3.88,2.27-2.11,5.62-4.59,9.28-6.67,3.64-2.11,7.58-3.81,10.77-4.78,1.6-.46,2.97-.84,4.02-1.03,1.03-.23,1.71-.33,1.89-.34Z"/><path class="cls-1" d="M251.16,25.63l-1.75-.21-1.75-.07c-1.17-.05-2.45-.02-3.67-.05l-7.37-.07-14.73-.13-29.46-.11c-19.64,0-39.28.14-58.91.53-19.63.4-39.26,1.01-58.83,2.27-9.78.65-19.56,1.44-29.23,2.76-4.83.67-9.66,1.47-14.26,2.74-1.15.33-2.27.69-3.34,1.12-1.06.43-2.08.95-2.82,1.54l-1.1,1.16-.07.07s-.07-.01-.1-.02l-.22-.06-.44-.13-.88-.26-1.76-.48c-1.19-.33-2.39-.65-3.58-1.02-.34-.1-2.56-.78-5.63-2.02-1.52-.65-3.27-1.41-5.04-2.47-1.75-1.06-3.6-2.35-4.94-4.29-.61-.97-1.16-2.03-1.24-3.29-.12-1.23.36-2.55,1.19-3.36.82-.83,1.83-1.28,2.76-1.48.94-.24,1.83-.25,2.64-.22,3.24.28,4.99,1.55,4.92,1.66-.08.24-2-.63-4.94-.55-.72.06-1.5.15-2.25.42-.76.23-1.48.67-1.96,1.25-.49.58-.69,1.31-.56,2.09.09.78.56,1.6,1.09,2.32,1.11,1.42,2.8,2.51,4.45,3.38,1.66.88,3.36,1.53,4.83,2.08,2.98,1.06,5.17,1.64,5.5,1.74,1.16.35,2.33.67,3.51,1l1.79.49s0,.01.01-.01c.06-.06.07-.08.17-.17,1.18-.95,2.39-1.52,3.6-2.02,1.21-.49,2.42-.88,3.64-1.23,4.86-1.35,9.76-2.14,14.65-2.83,9.8-1.34,19.62-2.13,29.44-2.78,19.65-1.26,39.3-1.87,58.96-2.28,19.66-.39,39.31-.53,58.97-.53l29.48.11,14.74.13,7.37.07c1.24.02,2.41,0,3.7.05l1.93.08,1.9.23c.18.01.86.11,1.89.34,1.04.19,2.42.56,4.02,1.03,3.18.97,7.13,2.67,10.77,4.78,3.66,2.08,7,4.56,9.28,6.67,2.3,2.09,3.51,3.76,3.38,3.88-.16.15-1.63-1.24-4.08-3.02-2.43-1.8-5.87-3.96-9.53-5.75-3.65-1.81-7.5-3.25-10.54-4.03-1.53-.37-2.83-.67-3.8-.8-.97-.18-1.6-.25-1.76-.26Z"/><path class="cls-1" d="M310.51,25.17c1.58-1.12,3.73-1.47,5.58-.86.92.3,1.76.76,2.44,1.34.72.53,1.35,1.29,1.85,2.13.97,1.78.87,3.93.3,5.54-.55,1.66-1.39,3.07-2.3,4.39-1.83,2.63-3.97,4.87-6.15,7.05-2.19,2.16-4.44,4.22-6.7,6.26-2.25,2.04-4.52,4.05-6.67,6.12-2.13,2.08-4.14,4.27-5.99,6.6-3.69,4.64-6.76,9.81-8.7,15.35-.05.2-1.05,2.52-1.76,4.92-.76,2.38-1.19,4.83-1.6,4.82-.38,0-.67-2.57-.38-5.21.23-2.64.98-5.25,1.04-5.47,2.08-5.93,5.31-11.34,9.16-16.19,1.93-2.43,4.03-4.71,6.24-6.88,2.22-2.14,4.49-4.16,6.74-6.19,2.25-2.03,4.48-4.06,6.6-6.17,2.11-2.11,4.17-4.29,5.81-6.65.81-1.18,1.52-2.41,1.92-3.64.43-1.24.39-2.38-.09-3.3-.52-.88-1.61-1.8-2.64-2.11-1.04-.35-2.19-.15-3.09.47-.05.03-.55.31-.91.78-.08.09-.1.12-.13.15-.03.03-.05.08-.04.14.03.11.06.25.45.27.34,0,.8-.2,1.14-.49.36-.27.49-.63.52-.67.11-.09-.26-.27-.5-.29-.25-.04-.44-.07-.47-.17-.03-.09.08-.24.36-.39.14-.07.33-.15.6-.16.25-.02.67.05.96.44.28.38.29.85.21,1.23-.08.39-.25.74-.47,1.05-.43.61-1.06,1.18-1.98,1.44-.45.12-.98.14-1.53-.02-.54-.16-1.02-.49-1.34-.94-.33-.44-.48-.99-.46-1.51.01-.53.2-1.02.36-1.35.68-1.27,1.46-1.74,1.57-1.83Z"/><path class="cls-1" d="M249.51,27.51c-.9-.63-2.05-.82-3.09-.47-1.03.31-2.13,1.23-2.64,2.11-.48.92-.51,2.06-.09,3.3.4,1.23,1.11,2.46,1.92,3.64,1.64,2.36,3.7,4.54,5.81,6.65,2.13,2.11,4.35,4.14,6.6,6.17,2.25,2.03,4.52,4.05,6.74,6.19,2.21,2.16,4.31,4.45,6.24,6.88,3.85,4.85,7.09,10.26,9.16,16.19.06.21.81,2.83,1.04,5.47.28,2.64,0,5.21-.38,5.21-.41,0-.84-2.44-1.6-4.82-.71-2.39-1.71-4.72-1.76-4.92-1.94-5.54-5.01-10.71-8.7-15.35-1.84-2.33-3.86-4.52-5.99-6.6-2.15-2.07-4.42-4.09-6.67-6.12-2.26-2.04-4.51-4.1-6.7-6.26-2.17-2.18-4.32-4.42-6.15-7.05-.9-1.32-1.75-2.73-2.3-4.39-.57-1.6-.67-3.76.3-5.54.5-.84,1.13-1.6,1.85-2.13.68-.58,1.52-1.05,2.44-1.34,1.85-.62,4.01-.27,5.58.86.1.1.89.56,1.57,1.83.17.34.35.82.36,1.35.02.52-.13,1.07-.46,1.51-.32.44-.8.78-1.34.94-.55.16-1.08.14-1.53.02-.92-.26-1.55-.83-1.98-1.44-.22-.31-.39-.66-.47-1.05-.08-.38-.07-.85.21-1.23.29-.39.71-.46.96-.44.27.01.46.09.6.16.28.15.39.31.36.39-.03.1-.21.13-.47.17-.24.02-.62.2-.5.29.04.04.16.4.52.67.34.29.8.49,1.14.49.39-.01.42-.15.45-.27,0-.06-.01-.11-.04-.14-.03-.03-.05-.05-.13-.15-.35-.46-.86-.75-.91-.78Z"/></g></svg>