<?xml version="1.0" encoding="UTF-8"?><svg id="Line" xmlns="http://www.w3.org/2000/svg" viewBox="0 0 503.8 68.31"><defs><style>.cls-1{fill:#fff;stroke-width:0px;}</style></defs><g id="Callout_5_Lines"><path class="cls-1" d="M444.55,35.62c-67.98.58-135.96,1.53-203.94,2.52l-101.97,1.57-50.98.83-25.49.43-3.19.05-1.59.03-1.5.08c-1.99.17-3.96.6-5.84,1.28-3.76,1.36-7.16,3.72-9.74,6.78-.09.11-.31.37-.64.76-.29.42-.74.94-1.18,1.65-.45.67-.98,1.58-1.58,2.58-.6,1-1.26,2.11-1.98,3.31-1.59,2.66-3.42,5.72-5.37,8.98l-.59,1-.29.5-.15.25s-.05.13-.07.08l-.07-.13c-.39-.68-.78-1.37-1.18-2.06-.56-1-1.13-2-1.71-3.02-.8-1.56-1.86-2.97-2.81-4.46-.25-.36-.47-.75-.74-1.09l-.81-1.02c-.54-.68-1.08-1.36-1.61-2.04-.59-.62-1.18-1.23-1.76-1.83-.3-.29-.57-.62-.88-.88-.31-.26-.63-.52-.94-.78-2.44-2.1-5.14-3.54-7.64-4.04-2.5-.53-4.66-.17-6.09.28-1.44.45-2.18.93-2.23.84-.06-.07.59-.73,2.03-1.38,1.42-.65,3.73-1.23,6.48-.83,2.75.36,5.75,1.78,8.44,3.88.34.26.69.52,1.03.78.34.27.64.59.96.89.64.61,1.28,1.23,1.93,1.85.58.68,1.17,1.37,1.76,2.05l.89,1.04c.29.35.54.73.81,1.1,1.03,1.49,2.18,2.93,3.05,4.5l.69,1.15.14.23.04.06.07.1.13.18s.08-.14.11-.2l.09-.19c.21-.37.41-.73.61-1.09.4-.72.8-1.42,1.19-2.11.78-1.38,1.51-2.69,2.2-3.9.69-1.22,1.33-2.35,1.9-3.37.58-1.02,1.07-1.91,1.58-2.72.48-.8.97-1.4,1.29-1.88.36-.45.61-.74.71-.87,2.9-3.44,6.71-6.09,10.95-7.62,2.11-.77,4.33-1.25,6.57-1.44l1.68-.09,1.6-.03,3.19-.05,25.49-.43,50.99-.83,101.97-1.57c67.98-.99,135.97-1.93,203.96-2.52,1.21-.01,15.83.02,30.15.21,7.16.08,14.24.23,19.53.38,5.29.16,8.79.34,8.79.53s-3.5.39-8.79.58c-5.29.19-12.37.34-19.52.53-14.43.3-28.94.61-30.14.63Z"/><path class="cls-1" d="M115.5,49.38c14.71,1.75,29.52,2.75,44.35,3.16,14.83.42,29.68.35,44.51-.14,29.67-.99,59.29-3.6,88.64-8.01,14.67-2.21,29.26-4.96,43.66-8.44,3.62-.83,7.16-1.85,10.77-2.77,3.68-.98,7.38-1.64,11.07-2.23,7.4-1.15,14.81-1.95,22.23-2.65,29.66-2.77,59.4-4.01,88.93-6.91.53-.06,3.97-.34,8.81-.87,4.83-.55,11.12-1.25,17.1-2.68,1.49-.37,2.95-.81,4.26-1.38.64-.3,1.28-.63,1.71-1.03.48-.44.58-.66.66-1.38.11-1.22-.46-2.2-1.53-2.6-1.01-.41-2.3-.34-3.06.11-.32.19-.55.5-.57.86-.02.36.25.65.55.78.28.13.69.18,1.05.17.36-.01.7-.08.96-.2.27-.11.47-.28.54-.44.07-.15.02-.32-.07-.45-.18-.26-.36-.38-.33-.43.02-.03.23-.02.55.23.15.12.34.4.27.77-.08.35-.36.62-.68.82-.33.2-.72.34-1.17.4-.44.06-.93.08-1.53-.13-.57-.19-1.11-.7-1.16-1.4-.06-.68.33-1.43.97-1.89.59-.43,1.27-.62,1.97-.7.7-.07,1.44-.02,2.19.22.74.24,1.49.72,1.98,1.46.5.73.69,1.64.67,2.49-.05.42-.02.8-.24,1.35-.07.28-.24.45-.37.66-.13.22-.3.37-.46.53-.65.65-1.38,1.05-2.1,1.43-1.46.72-2.99,1.25-4.52,1.69-6.14,1.74-12.44,2.65-17.31,3.34-4.87.68-8.32,1.04-8.85,1.11-29.66,2.91-59.39,4.15-88.95,6.91-7.38.71-14.76,1.5-22.06,2.63-3.64.59-7.27,1.24-10.78,2.17-3.59.92-7.2,1.95-10.83,2.78-14.51,3.51-29.17,6.27-43.9,8.49-29.47,4.43-59.19,7.05-88.97,8.04-14.89.49-29.79.57-44.69.14-14.9-.41-29.79-1.41-44.61-3.17-1.05-.12-13.81-1.75-26.05-4.7-3.05-.78-6.09-1.5-8.89-2.38-1.4-.43-2.76-.8-4.02-1.24-1.25-.44-2.43-.87-3.54-1.26-2.2-.74-3.95-1.6-5.18-2.14-1.23-.56-1.91-.92-1.87-1.01.04-.09.79.09,2.08.48,1.3.36,3.08,1.05,5.32,1.62,1.12.32,2.33.66,3.59,1.01,1.27.36,2.64.65,4.05,1,2.8.73,5.85,1.31,8.9,1.95,12.23,2.42,24.92,3.72,25.97,3.84Z"/></g></svg>