<?xml version="1.0" encoding="UTF-8"?><svg id="Line" xmlns="http://www.w3.org/2000/svg" viewBox="0 0 510.41 130.6"><defs><style>.cls-1{fill:#fff;stroke-width:0px;}</style></defs><g id="Callout_4_Lines"><path class="cls-1" d="M6.38,33.95V8.41h469.33l.26,1.37c.05.23.1.45.16.67l.09.35c.13.4.24.81.39,1.21.29.8.62,1.58,1,2.34.75,1.52,1.71,2.93,2.85,4.15.23.25,1.07,1.26,2.71,2.38,1.61,1.14,4.11,2.33,7.32,2.72,3.2.42,7.07.15,10.59-1.55,1.75-.84,3.4-2.04,4.69-3.58,1.31-1.52,2.25-3.39,2.54-5.34.31-1.95-.13-3.97-1.3-5.49-.57-.77-1.3-1.42-2.1-1.96-.82-.5-1.72-.95-2.6-1.22-.88-.26-1.78-.36-2.51-.12-.73.23-1.31.77-1.63,1.5-.66,1.43-.47,3.34.35,4.33.21.24.45.39.7.44.25.05.57,0,.77-.08.47-.22.58-.77.44-1.27-.14-.51-.52-.9-.94-1-.43-.09-.9.01-1.11.3-.25.27-.26.66-.18.95.09.3.29.5.48.61.4.23.69.23.68.3,0,.02-.28.15-.81-.04-.26-.1-.58-.32-.76-.71-.17-.38-.23-.95.12-1.45.34-.52,1.03-.74,1.71-.65.71.11,1.35.69,1.61,1.43.13.37.2.81.09,1.27-.09.45-.39.88-.83,1.12-.45.23-.92.34-1.44.27-.52-.07-1-.35-1.34-.71-.69-.73-1.01-1.67-1.15-2.63-.13-.96-.05-2,.36-3,.38-1,1.26-1.96,2.4-2.36,1.14-.41,2.34-.29,3.42-.02,1.09.29,2.08.74,3.08,1.3.97.6,1.89,1.36,2.64,2.3,1.54,1.86,2.18,4.46,1.86,6.86-.3,2.41-1.36,4.67-2.85,6.48-1.47,1.84-3.35,3.27-5.33,4.3-4.01,2.06-8.35,2.44-11.95,2.04-3.65-.36-6.66-1.7-8.59-3.02-1.97-1.3-2.98-2.47-3.25-2.76-1.33-1.44-2.44-3.07-3.3-4.8-.44-.86-.82-1.75-1.14-2.67-.17-.45-.3-.92-.45-1.38l-.08-.31H9.23v22.68c-.02,1.48-.22,19.38-.42,37.08-.13,8.8-.28,17.51-.45,24.02-.09,3.25-.17,5.96-.27,7.85s-.19,2.97-.29,2.97-.19-1.08-.29-2.97-.18-4.59-.27-7.85c-.17-6.51-.32-15.22-.45-24.02-.2-17.7-.4-35.6-.42-37.08Z"/><path class="cls-1" d="M36.23,37.83l13.01-.68c4.33-.3,8.65-.76,12.97-1.13l6.48-.59,6.45-.84,6.45-.85,3.23-.42c1.07-.15,2.14-.36,3.21-.53,4.28-.74,8.56-1.43,12.83-2.21l12.76-2.6,12.71-2.9,12.7-3.03,12.73-2.99,12.81-2.75,12.9-2.35c4.31-.69,8.65-1.25,12.98-1.88,1.08-.15,2.16-.32,3.25-.45l3.26-.32,6.52-.64,6.52-.64,6.54-.36c4.36-.22,8.72-.53,13.09-.67l13.1-.19c1.26-.34,30,1.1,29.96,1.84-.04.83-28.71.67-29.94,1.01l-13.03.19c-4.34.14-8.67.45-13,.67l-6.5.36-6.48.64-6.48.64-3.24.32c-1.08.13-2.15.3-3.22.45-4.29.63-8.59,1.18-12.88,1.87l-12.8,2.34-12.74,2.73-12.7,2.98-12.71,3.04-12.76,2.91-12.84,2.62c-4.3.79-8.61,1.48-12.92,2.22-1.08.18-2.15.38-3.23.53l-3.25.43-6.5.85-6.5.85-6.52.59c-4.35.38-8.7.84-13.05,1.14l-13.08.68c-1.25.38-30.02.04-30.01-.7.01-.83,28.66-1.77,29.88-2.15Z"/><path class="cls-1" d="M1.02,128.1c-.62-1.07-.88-2.23-.98-3.32-.09-1.09-.04-2.16.11-3.18.29-2.04.84-3.97,1.5-5.83.66-1.86,1.43-3.66,2.27-5.42.42-.88.85-1.75,1.3-2.61l.57-1.08.68-1.24,1.38-2.48,1.38,2.48.68,1.24.57,1.08c.45.86.88,1.73,1.3,2.61.83,1.76,1.61,3.56,2.27,5.42.66,1.86,1.21,3.79,1.5,5.83.15,1.02.2,2.08.11,3.18-.1,1.09-.36,2.25-.98,3.32-.04.07-.36.57-.97,1.11-.6.56-1.55,1.03-2.46,1.23-1.87.43-3.5-.09-3.48-.44-.01-.42,1.6-.69,2.77-1.45,1.23-.69,1.63-1.79,1.68-1.88.69-1.19.75-2.96.51-4.68-.24-1.75-.74-3.52-1.36-5.26-.61-1.74-1.35-3.46-2.15-5.15-.4-.85-.82-1.69-1.25-2.52l-.1-.19-.1.19c-.44.83-.85,1.67-1.25,2.52-.8,1.69-1.54,3.41-2.15,5.15-.62,1.74-1.12,3.51-1.36,5.26-.24,1.73-.17,3.49.51,4.68.04.09.45,1.19,1.68,1.88,1.17.76,2.78,1.03,2.77,1.45.01.35-1.61.87-3.48.44-.92-.2-1.87-.67-2.46-1.23-.61-.54-.94-1.03-.97-1.11Z"/></g></svg>