<?xml version="1.0" encoding="UTF-8"?><svg id="Line" xmlns="http://www.w3.org/2000/svg" viewBox="0 0 249.82 267.22"><defs><style>.cls-1{fill:#fff;stroke-width:0px;}</style></defs><g id="CircleFrame_5_Lines"><path class="cls-1" d="M203.56,218.54c19.01-16.02,32.98-37.94,39.32-61.99,6.4-24.02,5.26-50-3.26-73.36-8.49-23.38-24.36-43.96-44.72-58.23-10.15-7.18-21.44-12.69-33.28-16.48-5.94-1.83-12-3.24-18.14-4.23-6.15-.89-12.36-1.35-18.57-1.41-6.22.06-12.42.51-18.57,1.41-6.14.99-12.2,2.4-18.14,4.23-11.83,3.78-23.13,9.3-33.28,16.48-20.36,14.26-36.24,34.85-44.72,58.23C1.69,106.55.54,132.53,6.94,156.55c6.34,24.05,20.31,45.97,39.32,61.99.17.14.56.5,1.17,1.01.62.5,1.45,1.16,2.46,1.96,1,.81,2.19,1.77,3.59,2.74,1.39.99,2.89,2.16,4.63,3.25,6.8,4.54,16.14,9.7,26.04,13.25,9.86,3.63,20.1,5.83,27.84,6.76,3.87.42,7.1.77,9.37.86,2.27.15,3.56.28,3.56.38,0,.1-1.3.16-3.58.2-2.28.09-5.54-.08-9.47-.33-7.84-.6-18.28-2.52-28.39-5.96-10.15-3.36-19.78-8.43-26.81-12.95-1.79-1.08-3.34-2.25-4.78-3.24-1.45-.98-2.67-1.93-3.71-2.75-1.04-.81-1.9-1.48-2.54-1.98-.63-.51-1.03-.88-1.21-1.02-19.45-16.4-33.75-38.83-40.24-63.44-6.55-24.59-5.38-51.16,3.34-75.07,8.69-23.93,24.93-44.99,45.77-59.59,10.39-7.34,21.95-12.99,34.06-16.86,6.08-1.88,12.28-3.32,18.56-4.33,6.3-.91,12.65-1.38,19.01-1.44,6.36.06,12.71.53,19.01,1.44,6.28,1.01,12.49,2.45,18.56,4.33,12.11,3.87,23.67,9.52,34.06,16.86,20.83,14.6,37.08,35.66,45.77,59.59,8.72,23.91,9.89,50.48,3.34,75.07-6.49,24.62-20.79,47.05-40.24,63.44-.17.15-.57.51-1.21,1.02-.64.5-1.5,1.17-2.54,1.98-1.04.81-2.26,1.77-3.71,2.75-1.44.98-2.99,2.16-4.78,3.24-7.03,4.52-16.66,9.59-26.81,12.95-10.11,3.44-20.55,5.36-28.39,5.96-3.93.25-7.18.42-9.47.33-2.28-.04-3.58-.1-3.58-.2,0-.1,1.29-.23,3.56-.38,2.27-.09,5.5-.44,9.37-.86,7.74-.93,17.97-3.13,27.84-6.76,9.9-3.54,19.24-8.7,26.04-13.25,1.74-1.08,3.23-2.26,4.63-3.25,1.4-.98,2.58-1.93,3.59-2.74,1.01-.81,1.84-1.47,2.46-1.96.61-.51,1-.87,1.17-1.01Z"/><path class="cls-1" d="M13.38,222.52c3.66,3.08,8.01,5.29,12.54,6.94,4.55,1.63,9.34,2.6,14.18,3.14l2.94.27,1.19-.86,1.33-1.16c1.72-1.61,3.27-3.45,4.68-5.4,1.41-1.95,2.67-4.03,3.82-6.18.57-1.07,1.12-2.16,1.63-3.26.26-.55.51-1.1.75-1.66l.36-.84c.24-.58.46-1.17.69-1.75h134.85c.23.58.44,1.17.69,1.75l.36.84c.24.56.49,1.11.75,1.66.51,1.1,1.06,2.19,1.63,3.26,1.15,2.14,2.41,4.22,3.82,6.18,1.41,1.95,2.95,3.79,4.68,5.4l1.33,1.16,1.19.86,2.94-.27c4.84-.54,9.63-1.51,14.18-3.14,4.53-1.64,8.88-3.85,12.54-6.94.14-.11.66-.54,1.47-1.22.76-.72,1.82-1.67,2.92-2.92.58-.6,1.09-1.33,1.7-2.05.53-.77,1.15-1.55,1.65-2.43.55-.85,1.03-1.78,1.51-2.72.45-.93.82-1.9,1.1-2.9,1.14-4.01.51-8.47-1.13-11.07-.4-.64-.86-1.17-1.34-1.51-.48-.34-.97-.48-1.38-.48-.85.02-1.29.46-1.36.34-.03-.04.04-.16.23-.36.2-.18.53-.45,1.06-.55.53-.12,1.23-.03,1.89.32.66.35,1.27.91,1.81,1.6,2.16,2.77,3.18,7.58,2.18,12.18-.24,1.14-.6,2.28-1.05,3.34-.46,1.04-.93,2.06-1.48,3-.5.97-1.12,1.84-1.65,2.7-.61.8-1.14,1.62-1.73,2.29-1.13,1.4-2.23,2.47-3.03,3.27-.83.77-1.4,1.23-1.55,1.36-3.96,3.33-8.61,5.69-13.39,7.42-4.81,1.72-9.82,2.73-14.84,3.29l-1.89.18-.94.09-.72.07-.46.04c-.14-.03-.26-.17-.38-.24l-1.83-1.32-1.48-1.29c-1.91-1.78-3.57-3.76-5.06-5.84-1.5-2.08-2.82-4.25-4.01-6.49-.6-1.12-1.17-2.25-1.7-3.4-.27-.58-.53-1.15-.78-1.74l-.37-.87h0s-130.96,0-130.96,0h0s-.37.87-.37.87c-.25.58-.52,1.16-.78,1.74-.54,1.15-1.11,2.28-1.7,3.4-1.2,2.24-2.52,4.41-4.01,6.49-1.5,2.07-3.15,4.06-5.06,5.84l-1.48,1.29-1.83,1.32c-.13.08-.24.21-.38.24l-.46-.04-.72-.07-.94-.09-1.89-.18c-5.02-.56-10.03-1.57-14.84-3.29-4.79-1.73-9.44-4.09-13.39-7.42-.15-.13-.71-.6-1.55-1.36-.8-.8-1.9-1.88-3.03-3.27-.59-.68-1.12-1.49-1.73-2.29-.53-.86-1.15-1.72-1.65-2.7-.54-.95-1.01-1.97-1.48-3-.45-1.07-.81-2.2-1.05-3.34-1-4.6.02-9.41,2.18-12.18.54-.69,1.15-1.25,1.81-1.6.66-.35,1.36-.44,1.89-.32.54.11.87.37,1.06.55.19.2.26.32.23.36-.07.12-.52-.32-1.36-.34-.41,0-.9.13-1.38.48-.48.34-.94.87-1.34,1.51-1.64,2.6-2.26,7.06-1.13,11.07.28,1,.65,1.98,1.1,2.9.48.94.97,1.86,1.51,2.72.5.88,1.12,1.65,1.65,2.43.6.72,1.12,1.45,1.7,2.05,1.1,1.25,2.15,2.2,2.92,2.92.81.67,1.33,1.1,1.47,1.22Z"/><path class="cls-1" d="M16.28,57.86c-1.76,4.87-3.15,9.87-4.19,14.94-1.04,5.07-1.58,10.23-1.88,15.4-.22,5.17-.07,10.38.33,15.55.1,1.29.27,2.58.4,3.87l.21,1.94.29,1.93.59,3.85.75,3.82c.23,1.28.53,2.54.84,3.8.31,1.26.58,2.53.93,3.78.72,2.5,1.37,5.01,2.22,7.47,1.56,4.96,3.49,9.8,5.54,14.58,4.23,9.51,9.24,18.69,15,27.38,11.48,17.43,25.35,33.24,40.39,47.76,7.52,7.27,15.34,14.23,23.38,20.94,4.02,3.36,8.1,6.64,12.21,9.88l6.21,4.81,5.43,4.08,5.43-4.08,6.21-4.81c4.11-3.24,8.19-6.52,12.21-9.88,8.04-6.71,15.86-13.67,23.38-20.94,15.04-14.52,28.91-30.32,40.39-47.76,5.76-8.69,10.77-17.87,15-27.38,2.05-4.78,3.98-9.62,5.54-14.58.85-2.46,1.5-4.98,2.22-7.47.34-1.25.61-2.52.93-3.78.31-1.26.61-2.53.84-3.8l.75-3.82.59-3.85.29-1.93.21-1.94c.13-1.29.3-2.58.4-3.87.4-5.17.55-10.38.33-15.55-.29-5.17-.84-10.33-1.88-15.4-1.04-5.07-2.43-10.07-4.19-14.94-.13-.34-.62-1.64-1.38-3.66-.82-1.99-1.94-4.68-3.44-7.74-2.97-6.14-7.58-13.74-13.01-20.64-5.4-6.92-11.54-13.12-16.42-17.42-2.43-2.16-4.54-3.87-6.02-5.05-1.48-1.18-2.34-1.84-2.29-1.92.05-.08,1.02.41,2.63,1.45,1.6,1.04,3.83,2.61,6.4,4.66,5.15,4.08,11.59,10.14,17.27,17.01,5.72,6.84,10.61,14.49,13.79,20.72,1.61,3.11,2.81,5.84,3.69,7.87.81,2.06,1.34,3.39,1.48,3.74,1.81,5.01,3.24,10.14,4.31,15.36,1.07,5.22,1.63,10.52,1.93,15.83.23,5.32.07,10.63-.34,15.92-.1,1.32-.28,2.64-.41,3.96l-.22,1.98-.29,1.97-.6,3.93-.76,3.9c-.23,1.31-.54,2.6-.86,3.88-.32,1.29-.6,2.58-.94,3.86-.73,2.55-1.4,5.12-2.26,7.62-1.59,5.06-3.55,9.98-5.64,14.85-4.3,9.67-9.39,18.99-15.23,27.8-11.63,17.66-25.64,33.62-40.79,48.24-7.58,7.32-15.45,14.33-23.53,21.08-4.04,3.38-8.14,6.68-12.28,9.93l-6.24,4.83-7.16,5.39-7.16-5.39-6.24-4.83c-4.14-3.26-8.24-6.56-12.28-9.93-8.08-6.75-15.96-13.76-23.53-21.08-15.15-14.63-29.16-30.58-40.79-48.24-5.84-8.81-10.93-18.13-15.23-27.8-2.09-4.86-4.06-9.79-5.64-14.85-.86-2.51-1.53-5.07-2.26-7.62-.35-1.28-.63-2.58-.94-3.86-.31-1.29-.62-2.58-.86-3.88l-.76-3.9-.6-3.93-.29-1.97-.22-1.98c-.13-1.32-.31-2.64-.41-3.96-.41-5.29-.56-10.6-.34-15.92.3-5.31.86-10.61,1.93-15.83,1.07-5.21,2.5-10.35,4.31-15.36.14-.35.66-1.68,1.48-3.74.88-2.03,2.08-4.77,3.69-7.87,3.18-6.23,8.07-13.88,13.79-20.72,5.69-6.87,12.13-12.93,17.27-17.01,2.57-2.05,4.8-3.63,6.4-4.66,1.6-1.04,2.57-1.54,2.63-1.45.05.08-.81.74-2.29,1.92-1.48,1.18-3.58,2.89-6.02,5.05-4.88,4.3-11.02,10.51-16.42,17.42-5.43,6.89-10.04,14.49-13.01,20.64-1.51,3.07-2.63,5.76-3.44,7.74-.76,2.01-1.25,3.31-1.38,3.66Z"/></g></svg>