<?xml version="1.0" encoding="UTF-8"?><svg id="Line" xmlns="http://www.w3.org/2000/svg" viewBox="0 0 274.8 267.91"><defs><style>.cls-1{fill:#fff;stroke-width:0px;}</style></defs><g id="CircleFrame_4_Lines"><path class="cls-1" d="M216.05,218.68c19-16.04,32.96-37.98,39.3-62.03,6.39-24.03,5.25-50.01-3.26-73.38-8.48-23.39-24.34-43.99-44.7-58.27-10.15-7.19-21.44-12.71-33.27-16.5-5.94-1.84-12-3.25-18.14-4.23-6.15-.89-12.36-1.35-18.58-1.41-6.22.06-12.43.52-18.58,1.41-6.14.99-12.2,2.4-18.14,4.23-11.83,3.79-23.13,9.31-33.27,16.5-20.35,14.28-36.22,34.88-44.7,58.27-8.51,23.37-9.65,49.35-3.26,73.38,6.34,24.06,20.29,45.99,39.3,62.03.17.15.57.49,1.17,1.01.62.5,1.45,1.16,2.46,1.97,1.01.81,2.18,1.77,3.59,2.75,1.4.98,2.89,2.17,4.62,3.25,6.8,4.55,16.14,9.71,26.04,13.26,9.86,3.63,20.1,5.84,27.84,6.77,3.87.42,7.1.77,9.37.86,2.27.15,3.56.28,3.56.38s-1.3.16-3.58.2c-2.28.09-5.54-.08-9.47-.33-7.84-.6-18.28-2.52-28.4-5.97-10.15-3.36-19.78-8.44-26.81-12.97-1.79-1.08-3.34-2.26-4.78-3.24-1.45-.98-2.67-1.94-3.71-2.75-1.04-.81-1.9-1.48-2.54-1.98-.63-.52-1.03-.88-1.21-1.02-19.44-16.41-33.73-38.86-40.21-63.48-6.54-24.6-5.38-51.17,3.33-75.09,8.68-23.94,24.91-45.02,45.74-59.63,10.39-7.35,21.94-13.01,34.06-16.89,6.08-1.88,12.29-3.32,18.57-4.33,6.3-.91,12.65-1.38,19.01-1.44,6.36.06,12.71.53,19.01,1.44,6.28,1.01,12.49,2.45,18.57,4.33,12.11,3.88,23.67,9.53,34.06,16.89,20.83,14.61,37.06,35.69,45.74,59.63,8.71,23.92,9.88,50.49,3.33,75.09-6.48,24.62-20.77,47.07-40.21,63.48-.17.15-.58.51-1.21,1.02-.64.5-1.5,1.17-2.54,1.98-1.04.81-2.26,1.77-3.71,2.75-1.44.98-2.99,2.16-4.78,3.24-7.02,4.53-16.66,9.6-26.81,12.97-10.12,3.45-20.55,5.37-28.4,5.97-3.93.25-7.19.42-9.47.33-2.28-.04-3.58-.1-3.58-.2s1.3-.23,3.56-.38c2.27-.09,5.5-.44,9.37-.86,7.74-.93,17.98-3.13,27.84-6.77,9.9-3.55,19.24-8.71,26.04-13.26,1.74-1.09,3.23-2.27,4.62-3.25,1.4-.98,2.58-1.94,3.59-2.75,1.01-.81,1.84-1.47,2.46-1.97.6-.52,1-.87,1.17-1.01Z"/><path class="cls-1" d="M2.95,91.66c-.33,3.75.28,7.66,1.22,11.45.94,3.81,2.35,7.53,3.88,11.19,1.52,3.67,3.36,7.21,5.21,10.73,1.95,3.48,3.95,6.93,6.13,10.27,2.14,3.37,4.44,6.64,6.79,9.87,2.42,3.17,4.84,6.31,7.53,9.26,5.29,5.96,11.01,11.58,16.94,16.98,5.92,5.41,12,10.67,18.07,15.96,6.07,5.29,12.12,10.65,17.88,16.34,5.74,5.71,11.29,11.74,15.62,18.78l1.6,2.65,1.41,2.71c.91,1.83,1.79,3.67,2.59,5.55,1.61,3.75,3.01,7.62,3.97,11.64.07.29.52,2.16.84,4.87.33,2.7.49,6.27-.16,9.77-.33,1.74-.87,3.46-1.7,4.93-.4.75-.92,1.41-1.47,1.98-.59.55-1.25.99-1.96,1.21-.73.21-1.45.12-2-.11-.54-.26-.92-.6-1.15-.92-.25-.31-.37-.59-.44-.78-.07-.19-.09-.3-.04-.33.04-.02.14.04.29.17.14.13.33.34.6.54.26.22.61.41,1.02.52.41.08.88.06,1.35-.14.47-.23.92-.61,1.33-1.09.39-.52.77-1.09,1.05-1.77.59-1.33.96-2.91,1.13-4.52.35-3.23,0-6.56-.44-9.08-.44-2.54-.95-4.3-1.01-4.57-.92-3.82-2.26-7.55-3.82-11.18-.78-1.82-1.64-3.61-2.52-5.39l-1.38-2.64-1.52-2.52c-4.12-6.69-9.54-12.61-15.19-18.23-5.69-5.61-11.69-10.94-17.75-16.22-6.06-5.29-12.15-10.56-18.12-16.01-5.97-5.44-11.76-11.12-17.15-17.19-2.73-3-5.23-6.23-7.69-9.46-2.39-3.28-4.72-6.59-6.89-10.01-2.22-3.39-4.26-6.91-6.24-10.45-1.89-3.59-3.77-7.2-5.33-10.98-1.57-3.76-3.03-7.59-4.02-11.6-.98-4-1.66-8.15-1.29-12.44-.01-.15.09-.73.27-1.61.1-.44.18-.96.34-1.55.18-.59.41-1.23.71-1.87.59-1.3,1.41-2.71,2.51-4.05,1.09-1.33,2.49-2.64,4.27-3.42.89-.39,1.9-.57,2.87-.55.48.02.96.08,1.47.25.59.21,1.14.59,1.45,1.08.65.96.36,2.42-.67,2.75-1.02.46-1.67.49-2.38.5-.69-.01-1.33-.11-1.89-.42-.14-.08-.28-.19-.4-.33-.12-.16-.21-.33-.2-.54-.03-.21.08-.33.13-.47.07-.12.16-.19.24-.27.32-.28.6-.4.79-.46.19-.07.31-.08.33-.04.08.1-.32.36-.69.87-.08.13-.13.27-.09.32,0,.04.1.09.27.16.36.12.9.14,1.45.07.53-.06,1.27-.28,1.51-.46.38-.13.36-.69.1-.92-.13-.13-.29-.19-.46-.23-.27-.06-.61-.09-.96-.07-.69.06-1.36.22-2.01.57-1.28.69-2.39,1.83-3.25,3.04-.87,1.21-1.53,2.49-1.96,3.63-.23.57-.39,1.1-.51,1.57-.11.48-.15.95-.22,1.32-.13.76-.2,1.25-.18,1.39Z"/><path class="cls-1" d="M274.7,91.38c.37,4.29-.31,8.44-1.29,12.44-.99,4.01-2.45,7.84-4.02,11.6-1.56,3.77-3.44,7.38-5.33,10.98-1.98,3.54-4.02,7.06-6.24,10.45-2.17,3.42-4.51,6.74-6.89,10.01-2.46,3.23-4.96,6.46-7.69,9.46-5.39,6.07-11.18,11.76-17.15,17.19-5.97,5.44-12.06,10.72-18.12,16.01-6.06,5.29-12.07,10.61-17.75,16.22-5.65,5.62-11.07,11.54-15.19,18.23l-1.52,2.52-1.38,2.64c-.88,1.78-1.74,3.57-2.52,5.39-1.56,3.64-2.9,7.37-3.82,11.18-.06.27-.57,2.03-1.01,4.57-.45,2.53-.8,5.86-.44,9.08.17,1.61.54,3.18,1.13,4.52.28.68.66,1.26,1.05,1.77.41.48.86.86,1.33,1.09.47.2.93.22,1.35.14.4-.11.76-.3,1.02-.52.28-.2.46-.4.6-.54.14-.13.24-.19.29-.17.04.02.03.13-.04.33-.07.2-.19.47-.44.78-.23.32-.61.66-1.15.92-.55.23-1.27.31-2,.11-.71-.22-1.37-.66-1.96-1.21-.55-.57-1.08-1.23-1.47-1.98-.84-1.48-1.38-3.19-1.7-4.93-.65-3.49-.49-7.07-.16-9.77.32-2.71.77-4.58.84-4.87.97-4.01,2.36-7.88,3.97-11.64.81-1.88,1.68-3.72,2.59-5.55l1.41-2.71,1.6-2.65c4.33-7.03,9.88-13.07,15.62-18.78,5.77-5.69,11.82-11.05,17.88-16.34,6.07-5.29,12.14-10.56,18.07-15.96,5.93-5.4,11.64-11.01,16.94-16.98,2.69-2.95,5.11-6.09,7.53-9.26,2.35-3.23,4.65-6.5,6.79-9.87,2.19-3.34,4.19-6.79,6.13-10.27,1.86-3.52,3.7-7.06,5.21-10.73,1.52-3.66,2.94-7.37,3.88-11.19.94-3.79,1.55-7.7,1.22-11.45.03-.2-.15-1.04-.33-2.35-.24-1.24-.89-2.93-1.93-4.63-1.03-1.68-2.53-3.42-4.35-4.19-.22-.1-.46-.15-.69-.23-.23-.05-.47-.07-.7-.12-.24,0-.49-.02-.7,0-.22.01-.45.07-.53.09-.22.06-.44.23-.51.48-.08.24,0,.55.26.63.09.06.22.11.33.17.16.05.36.12.53.17.36.09.72.15,1.06.16.34.02.65,0,.9-.06.28-.06.39-.17.41-.2.04-.02,0-.1-.01-.18-.05-.08-.08-.16-.14-.24-.13-.14-.23-.29-.34-.38-.21-.2-.32-.34-.29-.4s.2-.02.49.1c.15.05.32.17.52.3.17.16.46.36.48.86-.02.53-.49.84-.82.97-.37.15-.76.24-1.17.28-.42.05-.85.03-1.31-.02-.23-.03-.45-.07-.71-.13-.29-.1-.59-.17-.9-.32-.67-.25-1.04-1.03-.96-1.78.05-.77.58-1.5,1.37-1.88.42-.21.75-.29,1.08-.35.34-.07.66-.08,1-.09.33.02.68.03,1.01.08.33.08.67.13.99.24,1.29.41,2.4,1.16,3.34,1.99.94.83,1.73,1.77,2.38,2.7,1.31,1.88,2.17,3.77,2.56,5.32.31,1.51.54,2.52.51,2.73Z"/><path class="cls-1" d="M20.14,208.68c-.31-1.41-.37-2.88-.22-4.3.17-1.42.56-2.78,1.05-4.08,1.02-2.55,2.62-5.01,4.83-6.78,1.09-.9,2.29-1.66,3.56-2.23,1.26-.61,2.58-1.02,3.9-1.35,2.66-.62,5.36-.83,8.01-.76,5.32.15,10.48,1.19,15.5,2.56,5.02,1.39,9.91,3.16,14.7,5.12,9.57,3.95,18.76,8.71,27.66,13.93,8.89,5.23,17.51,10.94,25.73,17.21.29.23,3.73,3.05,6.87,6.07,3.17,2.99,5.95,6.25,5.67,6.52-.28.28-3.52-2.42-6.98-4.98-3.43-2.59-7.02-5.12-7.3-5.34-8.11-6.18-16.64-11.84-25.44-17.01-8.81-5.16-17.89-9.87-27.3-13.75-4.71-1.93-9.49-3.66-14.37-5.01-4.87-1.33-9.85-2.32-14.81-2.46-2.47-.06-4.93.13-7.28.68-1.16.29-2.3.65-3.36,1.16-1.07.48-2.06,1.11-2.95,1.84-1.81,1.45-3.1,3.43-3.99,5.63-.41,1.1-.73,2.22-.87,3.36-.12,1.13-.07,2.26.17,3.36.03.16.2,1.19.82,2.58.6,1.39,1.8,3.05,3.27,4.5,2.95,2.94,6.78,4.8,6.64,5.14-.12.39-4.35-.82-7.96-3.62-1.79-1.39-3.39-3.17-4.28-4.82-.92-1.63-1.23-2.97-1.27-3.17Z"/><path class="cls-1" d="M251.87,208.06c.24-1.09.29-2.23.17-3.36-.14-1.13-.46-2.25-.87-3.36-.89-2.2-2.18-4.18-3.99-5.63-.89-.73-1.88-1.36-2.95-1.84-1.06-.51-2.2-.87-3.36-1.16-2.34-.55-4.8-.75-7.28-.68-4.96.14-9.94,1.13-14.81,2.46-4.88,1.35-9.66,3.08-14.37,5.01-9.41,3.88-18.5,8.59-27.3,13.75-8.8,5.18-17.33,10.83-25.44,17.01-.29.23-3.87,2.75-7.3,5.34-3.46,2.56-6.7,5.26-6.98,4.98-.28-.27,2.5-3.52,5.67-6.52,3.14-3.03,6.59-5.84,6.87-6.07,8.22-6.27,16.83-11.97,25.73-17.21,8.9-5.22,18.09-9.98,27.66-13.93,4.79-1.96,9.68-3.73,14.7-5.12,5.02-1.37,10.18-2.41,15.5-2.56,2.65-.07,5.35.14,8.01.76,1.32.33,2.64.74,3.9,1.35,1.27.57,2.47,1.33,3.56,2.23,2.21,1.78,3.81,4.24,4.83,6.78.49,1.3.88,2.66,1.05,4.08.15,1.42.09,2.88-.22,4.3-.04.2-.35,1.54-1.27,3.17-.89,1.65-2.49,3.43-4.28,4.82-3.61,2.81-7.84,4.01-7.96,3.62-.15-.34,3.69-2.21,6.64-5.14,1.47-1.45,2.67-3.11,3.27-4.5.62-1.38.79-2.42.82-2.58Z"/></g></svg>