<?xml version="1.0" encoding="UTF-8"?><svg id="Line" xmlns="http://www.w3.org/2000/svg" viewBox="0 0 276.67 257.22"><defs><style>.cls-1{fill:#fff;stroke-width:0px;}</style></defs><g id="CircleFrame_3_Lines"><path class="cls-1" d="M217.02,226.84c19.03-16.01,33.02-37.91,39.38-61.96,6.42-24.02,5.27-50.01-3.26-73.36-8.51-23.38-24.41-43.94-44.78-58.19-5.11-3.53-10.42-6.8-16.02-9.5-5.59-2.72-11.35-5.07-17.28-6.95-5.94-1.83-12-3.23-18.14-4.22-6.15-.89-12.36-1.35-18.58-1.4-6.22.06-12.42.51-18.58,1.4-6.14.99-12.2,2.39-18.14,4.22-5.93,1.88-11.69,4.23-17.28,6.95-5.6,2.7-10.91,5.97-16.02,9.5-20.38,14.24-36.28,34.81-44.78,58.19-8.53,23.35-9.68,49.34-3.26,73.36,6.36,24.05,20.35,45.96,39.38,61.96.17.14.56.5,1.17,1.01.62.5,1.45,1.16,2.46,1.96,1,.81,2.19,1.76,3.59,2.74,1.39.99,2.89,2.16,4.63,3.24,6.8,4.54,16.15,9.69,26.05,13.23,9.86,3.62,20.1,5.82,27.84,6.75,3.87.41,7.1.76,9.37.86,2.27.15,3.56.28,3.56.38s-1.3.16-3.58.2c-2.28.09-5.54-.08-9.47-.33-7.84-.6-18.28-2.51-28.4-5.95-10.15-3.35-19.79-8.41-26.82-12.93-1.79-1.08-3.34-2.25-4.79-3.23-1.45-.98-2.68-1.93-3.71-2.75-1.04-.81-1.9-1.48-2.55-1.97-.63-.51-1.03-.88-1.21-1.02-19.47-16.38-33.79-38.8-40.3-63.41-6.57-24.59-5.39-51.16,3.34-75.07,8.71-23.93,24.98-44.97,45.83-59.55,5.22-3.62,10.66-6.96,16.39-9.72,5.72-2.78,11.62-5.19,17.68-7.11,6.08-1.87,12.29-3.31,18.57-4.32,6.3-.91,12.65-1.38,19.01-1.44,6.36.06,12.71.52,19.01,1.44,6.28,1.01,12.49,2.45,18.57,4.32,6.07,1.92,11.97,4.33,17.68,7.11,5.73,2.77,11.17,6.11,16.39,9.72,20.85,14.58,37.12,35.62,45.83,59.55,8.74,23.91,9.91,50.49,3.34,75.07-6.51,24.62-20.83,47.03-40.3,63.41-.18.14-.57.51-1.21,1.02-.64.5-1.5,1.16-2.55,1.97-1.04.81-2.27,1.77-3.71,2.75-1.44.99-2.99,2.16-4.79,3.23-7.03,4.51-16.67,9.58-26.82,12.93-10.12,3.44-20.56,5.35-28.4,5.95-3.93.25-7.19.42-9.47.33-2.28-.04-3.58-.1-3.58-.2s1.29-.23,3.56-.38c2.27-.09,5.5-.44,9.37-.86,7.74-.93,17.98-3.12,27.84-6.75,9.9-3.54,19.25-8.69,26.05-13.23,1.74-1.08,3.23-2.26,4.63-3.24,1.4-.98,2.59-1.93,3.59-2.74,1.01-.8,1.84-1.47,2.46-1.96.61-.51,1-.87,1.17-1.01Z"/><path class="cls-1" d="M46.91,203.09c6.38,2.27,12.59,4.93,18.67,7.85,6.04,3.01,11.98,6.2,17.73,9.73,1.46.84,2.85,1.8,4.28,2.7,1.42.91,2.85,1.81,4.22,2.79l4.16,2.89,4.05,3.04c5.33,4.15,10.53,8.51,15.18,13.48.22.12,1.99,2.49,3.67,4.8,1.54,2.44,2.86,4.91,2.54,5.12-.34.22-2.23-1.81-4.11-3.85-2.04-1.93-3.96-3.99-4.18-4.12-4.51-4.82-9.61-9.1-14.84-13.17l-3.98-2.99-4.1-2.84c-1.35-.97-2.76-1.85-4.16-2.75-1.41-.88-2.78-1.83-4.22-2.66-5.67-3.48-11.54-6.63-17.49-9.6-6-2.87-12.11-5.5-18.36-7.72-.23-.07-2.88-1.11-5.47-2.21-2.62-.97-5.19-2.03-5.11-2.41.09-.38,2.85-.01,5.68.47,2.78.62,5.6,1.37,5.84,1.45Z"/><path class="cls-1" d="M230.71,205.79c-6.25,2.22-12.36,4.84-18.36,7.72-5.95,2.97-11.82,6.12-17.49,9.6-1.44.83-2.81,1.78-4.22,2.66-1.4.9-2.81,1.78-4.16,2.75l-4.1,2.84-3.98,2.99c-5.23,4.07-10.34,8.35-14.84,13.17-.22.13-2.14,2.19-4.18,4.12-1.88,2.04-3.77,4.07-4.11,3.85-.32-.2,1-2.68,2.54-5.12,1.68-2.31,3.45-4.68,3.67-4.8,4.65-4.97,9.85-9.33,15.18-13.48l4.05-3.04,4.16-2.89c1.37-.98,2.8-1.88,4.22-2.79,1.43-.9,2.82-1.86,4.28-2.7,5.75-3.53,11.69-6.72,17.73-9.73,6.08-2.92,12.29-5.58,18.67-7.85.23-.07,3.05-.83,5.84-1.45,2.83-.49,5.59-.86,5.68-.47s-2.48,1.44-5.11,2.41c-2.59,1.1-5.24,2.14-5.47,2.21Z"/><path class="cls-1" d="M158.66,236.21c5.82-1.03,11.52-2.66,16.9-5.04,1.36-.57,2.64-1.27,3.96-1.92,1.27-.74,2.58-1.41,3.79-2.23,2.5-1.54,4.83-3.34,7.08-5.23,9.04-7.62,15.79-17.65,24.07-26.56,4.12-4.46,8.73-8.6,13.82-12,5.01-3.4,10.2-6.54,15.5-9.45,5.29-2.93,10.71-5.6,16.06-8.29,2.66-1.36,5.32-2.72,7.79-4.26,2.42-1.53,4.87-3.3,5.83-5.52.06-.16.63-1.14.5-2.78-.04-.87-.28-1.71-.78-2.22-.46-.51-1.44-.68-2.42-.37-.48.14-.95.39-1.27.68-.17.15-.25.27-.31.36-.06.11-.1.24-.1.37,0,.28.24.52.52.54.23.05.67-.04,1.03-.2.36-.15.66-.37.84-.59.18-.23.23-.37.17-.5-.07-.15-.25-.26-.37-.33-.12-.07-.19-.13-.19-.18,0-.05.09-.08.25-.11.16,0,.42-.02.74.23.36.27.35.92.12,1.32-.22.43-.57.81-1.02,1.11-.45.29-1,.58-1.83.6-.78.04-1.62-.49-1.85-1.35-.29-.81.13-1.96.67-2.53.54-.61,1.18-1.02,1.88-1.33.7-.3,1.48-.47,2.31-.43.82.04,1.69.34,2.35.88,1.33,1.11,1.71,2.65,1.86,3.71.17,1.14.1,2.19-.08,2.92-.15.75-.36,1.19-.41,1.31-.73,1.67-1.9,2.96-3.11,4.03-1.22,1.07-2.52,1.95-3.83,2.78-2.63,1.64-5.33,3.01-8.02,4.38-5.38,2.71-10.74,5.36-15.97,8.25-5.23,2.87-10.34,5.97-15.27,9.31-4.91,3.28-9.3,7.22-13.33,11.58-8.08,8.66-14.9,18.83-24.31,26.79-2.34,1.97-4.79,3.85-7.41,5.46-1.28.86-2.64,1.57-3.97,2.34-1.38.68-2.73,1.42-4.15,2.01-5.62,2.48-11.55,4.17-17.56,5.24-.42.11-5.64.78-10.75.9-5.11.12-10.08-.28-10.08-.64,0-.43,4.94-.74,9.93-1.37,4.99-.63,9.99-1.6,10.39-1.7Z"/><path class="cls-1" d="M117.51,239.02c-6.01-1.06-11.94-2.76-17.56-5.24-1.42-.59-2.77-1.33-4.15-2.01-1.33-.77-2.7-1.48-3.97-2.34-2.62-1.62-5.06-3.49-7.41-5.46-9.41-7.96-16.23-18.12-24.31-26.79-4.03-4.36-8.42-8.3-13.33-11.58-4.93-3.34-10.04-6.44-15.27-9.31-5.23-2.89-10.59-5.53-15.97-8.25-2.69-1.37-5.39-2.75-8.02-4.38-1.31-.83-2.61-1.71-3.83-2.78-1.21-1.07-2.38-2.36-3.11-4.03-.05-.12-.26-.56-.41-1.31-.18-.73-.25-1.78-.08-2.92.15-1.06.53-2.6,1.86-3.71.66-.54,1.53-.85,2.35-.88.82-.04,1.6.13,2.31.43.7.3,1.34.72,1.88,1.33.54.57.97,1.72.67,2.53-.23.86-1.07,1.39-1.85,1.35-.83-.02-1.39-.31-1.83-.6-.45-.3-.81-.68-1.02-1.11-.23-.4-.23-1.05.12-1.32.31-.25.58-.24.74-.23.16.02.25.06.25.11,0,.05-.07.11-.19.18-.12.07-.3.18-.37.33-.06.13,0,.27.17.5.19.21.48.43.84.59.37.16.8.25,1.03.2.28-.02.52-.26.52-.54,0-.13-.03-.27-.1-.37-.06-.09-.14-.22-.31-.36-.32-.28-.79-.54-1.27-.68-.98-.31-1.96-.14-2.42.37-.5.51-.74,1.35-.78,2.22-.13,1.65.44,2.62.5,2.78.97,2.22,3.41,3.99,5.83,5.52,2.47,1.54,5.13,2.9,7.79,4.26,5.35,2.7,10.77,5.37,16.06,8.29,5.3,2.91,10.48,6.05,15.5,9.45,5.09,3.4,9.7,7.54,13.82,12,8.28,8.91,15.03,18.94,24.07,26.56,2.25,1.89,4.59,3.69,7.08,5.23,1.22.82,2.52,1.49,3.79,2.23,1.32.65,2.61,1.35,3.96,1.92,5.37,2.37,11.08,4.01,16.9,5.04.41.1,5.41,1.07,10.39,1.7,4.98.63,9.93.94,9.93,1.37,0,.36-4.97.76-10.08.64-5.11-.12-10.32-.79-10.75-.9Z"/></g></svg>