<?xml version="1.0" encoding="UTF-8"?><svg id="Line" xmlns="http://www.w3.org/2000/svg" viewBox="0 0 248.66 278.68"><defs><style>.cls-1{fill:#fff;stroke-width:0px;}</style></defs><g id="CircleFrame_8_Lines"><path class="cls-1" d="M219.21,221.51c-12.19,13.98-27.46,25.31-44.48,32.7-4.26,1.83-8.6,3.5-13.05,4.83-2.21.72-4.46,1.29-6.7,1.87l-.84.22s-.33.14-.57.24l-1.55.68c-1.04.44-2.05.96-3.08,1.43-4.07,1.97-8.02,4.22-11.86,6.64-1.92,1.21-3.81,2.47-5.66,3.78-.93.65-1.85,1.32-2.76,1.99l-1.35,1.02-.88.69-1.34,1.09-1.21-.98-.88-.69-1.22-.93c-.82-.61-1.65-1.21-2.48-1.81-1.67-1.19-3.38-2.33-5.09-3.45-3.45-2.22-6.99-4.29-10.63-6.16-.91-.47-1.82-.94-2.75-1.37-.92-.45-1.84-.89-2.78-1.29l-1.4-.62-.16-.07s-.03,0,0,0l-.36-.09-.76-.19-3.05-.78c-2.03-.53-4.02-1.18-6.03-1.78-1.97-.71-3.98-1.33-5.92-2.11-7.82-3.02-15.35-6.79-22.43-11.3-7.05-4.53-13.66-9.75-19.71-15.56-12.03-11.67-21.77-25.73-28.29-41.19-.87-1.91-1.55-3.89-2.32-5.84-.73-1.96-1.35-3.97-2.02-5.95-1.19-4.02-2.29-8.07-3.08-12.19-1.65-8.22-2.49-16.6-2.51-24.98.02-8.38.86-16.76,2.51-24.98.8-4.12,1.9-8.17,3.08-12.19.67-1.99,1.29-3.99,2.02-5.95.76-1.95,1.45-3.93,2.32-5.84,6.52-15.46,16.25-29.52,28.29-41.19,6.05-5.81,12.65-11.03,19.71-15.56,7.07-4.5,14.61-8.28,22.43-11.3,1.95-.78,3.95-1.41,5.92-2.11,2.01-.6,4-1.25,6.03-1.78l3.05-.78.76-.19.36-.09s-.02,0,0,0l.16-.07,1.4-.62c.94-.4,1.86-.84,2.78-1.29.93-.43,1.84-.9,2.75-1.37,3.64-1.88,7.18-3.94,10.63-6.16,1.72-1.12,3.42-2.26,5.09-3.45.83-.6,1.66-1.2,2.48-1.81l1.22-.93.88-.69,1.21-.98,1.34,1.09.88.69,1.35,1.02c.91.68,1.83,1.34,2.76,1.99,1.85,1.31,3.74,2.57,5.66,3.78,3.84,2.42,7.79,4.67,11.86,6.64,1.03.47,2.03.99,3.08,1.43l1.55.68c.24.1.6.27.57.24l.84.22c2.25.58,4.5,1.15,6.7,1.87,4.45,1.33,8.78,3,13.05,4.83,17.03,7.4,32.29,18.72,44.48,32.7.29.36,1.41,1.71,3.12,3.8.82,1.08,1.78,2.34,2.86,3.77,1.06,1.44,2.16,3.09,3.38,4.85,2.3,3.61,4.88,7.79,7.19,12.46,2.31,4.66,4.51,9.71,6.3,14.88,1.77,5.17,3.19,10.42,4.23,15.39.95,4.98,1.68,9.64,1.96,13.66.08,1,.19,1.96.23,2.88.04.91.07,1.78.1,2.6.03.81.06,1.57.08,2.28,0,.7-.01,1.34-.02,1.94-.04,2.34-.11,3.66-.21,3.66s-.22-1.33-.37-3.65c-.04-.59-.07-1.23-.12-1.92-.07-.7-.14-1.46-.21-2.26-.07-.81-.15-1.67-.23-2.57-.08-.9-.23-1.85-.36-2.84-.44-3.97-1.32-8.55-2.41-13.44-1.17-4.87-2.71-10-4.57-15.05-1.88-5.04-4.15-9.95-6.51-14.48-2.35-4.53-4.96-8.59-7.27-12.08-1.22-1.7-2.33-3.3-3.38-4.7-1.08-1.38-2.03-2.6-2.85-3.65-1.71-2.02-2.81-3.33-3.1-3.68-11.91-13.67-26.83-24.73-43.47-31.96-4.16-1.79-8.4-3.42-12.75-4.71-2.16-.7-4.35-1.26-6.55-1.83l-.82-.21c-.59-.15-.73-.29-1.02-.39l-1.6-.7c-1.07-.45-2.11-.98-3.16-1.47-4.18-2.02-8.22-4.32-12.14-6.79-1.96-1.23-3.89-2.52-5.78-3.85-.95-.66-1.89-1.34-2.82-2.04l-1.87-1.42-1.6,1.22c-.84.63-1.69,1.24-2.54,1.85-1.71,1.22-3.45,2.38-5.2,3.52-3.52,2.26-7.14,4.38-10.87,6.3-.93.48-1.87.96-2.82,1.4-.95.46-1.89.91-2.86,1.32l-1.44.64-.2.09c-.1.05-.21.09-.37.12l-.39.1-.74.19-2.98.76c-1.98.52-3.93,1.16-5.89,1.74-1.93.69-3.88,1.3-5.79,2.07-7.64,2.95-15,6.64-21.91,11.04-6.89,4.43-13.35,9.53-19.26,15.21-11.76,11.41-21.27,25.15-27.64,40.25-.85,1.87-1.52,3.8-2.27,5.71-.71,1.92-1.32,3.88-1.98,5.82-1.16,3.93-2.24,7.88-3.01,11.91-1.62,8.03-2.44,16.22-2.46,24.42.02,8.2.84,16.39,2.46,24.42.78,4.02,1.85,7.98,3.01,11.91.65,1.94,1.26,3.9,1.98,5.82.75,1.91,1.42,3.84,2.27,5.71,6.37,15.1,15.88,28.84,27.64,40.25,5.91,5.68,12.37,10.78,19.26,15.21,6.91,4.4,14.27,8.09,21.91,11.04,1.9.76,3.86,1.37,5.79,2.07,1.96.58,3.91,1.22,5.89,1.74l2.98.76.74.19.39.1c.16.04.27.07.37.12l.2.09,1.44.64c.97.41,1.92.86,2.86,1.32.95.44,1.89.92,2.82,1.4,3.73,1.92,7.35,4.04,10.87,6.3,1.75,1.14,3.49,2.31,5.2,3.52.85.61,1.7,1.22,2.54,1.85l1.6,1.22,1.87-1.42c.93-.69,1.87-1.37,2.82-2.04,1.89-1.34,3.82-2.62,5.78-3.85,3.92-2.47,7.95-4.77,12.14-6.79,1.06-.49,2.09-1.02,3.16-1.47l1.6-.7c.29-.1.43-.24,1.02-.39l.82-.21c2.19-.57,4.39-1.12,6.55-1.83,4.34-1.3,8.58-2.93,12.75-4.71,16.64-7.23,31.55-18.29,43.47-31.96.29-.35,1.39-1.65,3.1-3.68.81-1.04,1.77-2.27,2.85-3.65,1.06-1.39,2.16-2.99,3.38-4.7,2.31-3.49,4.92-7.55,7.27-12.08,2.36-4.52,4.63-9.44,6.51-14.48,1.86-5.05,3.4-10.18,4.57-15.05,1.09-4.88,1.97-9.47,2.41-13.44.12-.99.27-1.94.36-2.84.08-.9.16-1.76.23-2.57.08-.8.15-1.55.21-2.26.04-.69.08-1.33.12-1.92.14-2.32.27-3.65.37-3.65s.17,1.33.21,3.66c0,.59.01,1.24.02,1.94-.02.71-.05,1.47-.08,2.28-.03.82-.07,1.69-.1,2.6-.04.92-.15,1.87-.23,2.88-.28,4.02-1.01,8.68-1.96,13.66-1.04,4.96-2.47,10.21-4.23,15.39-1.79,5.17-3.99,10.22-6.3,14.88-2.31,4.67-4.89,8.85-7.19,12.46-1.22,1.76-2.32,3.41-3.38,4.85-1.08,1.43-2.04,2.69-2.86,3.77-1.72,2.09-2.83,3.44-3.12,3.8Z"/><path class="cls-1" d="M194.56,242.23c-5.96-1.08-12.01-1.73-18.04-1.81-1.51-.03-3.01,0-4.5.07l-1.11.07-.27.02h.01s-1.85,1.43-1.85,1.43c-2.47,1.93-5.13,3.6-7.85,5.15-11,6.04-23.46,9.06-35.96,9.17-12.5-.11-24.97-3.13-35.96-9.17-2.72-1.55-5.38-3.22-7.85-5.15l-1.85-1.45h.01s-.27-.01-.27-.01l-1.11-.07c-1.49-.07-3-.1-4.5-.07-6.03.09-12.08.74-18.04,1.81-.43.06-5.58.84-10.61,1.9-5.02,1.06-9.9,2.36-10.03,1.97-.12-.35,4.55-2.34,9.52-3.92,4.96-1.59,10.18-2.7,10.62-2.76,6.1-1.1,12.28-1.77,18.51-1.86,1.56-.03,3.12,0,4.69.07l1.18.08.87.08c.09.01.19,0,.28.04l.23.17.47.36,1.77,1.38c2.36,1.84,4.9,3.44,7.5,4.92,10.5,5.78,22.59,8.71,34.58,8.81,11.99-.1,24.08-3.03,34.58-8.81,2.6-1.48,5.15-3.08,7.5-4.92l1.77-1.38.47-.36.23-.17c.09-.03.19-.03.28-.04l.88-.08,1.18-.08c1.57-.07,3.13-.1,4.69-.07,6.23.09,12.41.76,18.51,1.86.44.07,5.66,1.18,10.62,2.76,4.96,1.58,9.64,3.57,9.52,3.92-.14.39-5.01-.91-10.03-1.97-5.02-1.07-10.18-1.84-10.61-1.9Z"/><path class="cls-1" d="M206.48,49.6c-7.08,1.28-14.25,2.05-21.47,2.16-1.8.03-3.61,0-5.43-.08l-1.37-.09-.95-.08c-.11-.02-.23,0-.33-.05l-.26-.2-.48-.38-2.07-1.61c-2.75-2.15-5.72-4.01-8.75-5.74-12.24-6.74-26.32-10.15-40.3-10.26-13.98.11-28.05,3.53-40.3,10.26-3.03,1.73-6,3.59-8.75,5.74l-2.07,1.61-.48.38-.26.2c-.1.04-.22.03-.33.05l-.95.08-1.37.09c-1.82.08-3.63.12-5.43.08-7.22-.1-14.39-.88-21.47-2.16-.51-.08-6.57-1.34-12.34-3.14-5.77-1.8-11.23-4.06-11.1-4.4.14-.39,5.79,1.18,11.62,2.45,5.83,1.28,11.83,2.21,12.33,2.28,6.94,1.25,13.98,2.01,21,2.11,1.76.03,3.51,0,5.25-.08l1.3-.08.38-.03s-.1.08.04-.03l2.15-1.67c2.86-2.24,5.95-4.17,9.1-5.97,12.74-7,27.2-10.5,41.68-10.62,14.48.12,28.94,3.63,41.68,10.62,3.15,1.79,6.23,3.73,9.1,5.97l2.15,1.67c.15.11.02.01.04.03l.38.03,1.3.08c1.74.08,3.49.11,5.25.08,7.03-.1,14.06-.86,21-2.11.5-.07,6.5-1,12.33-2.28,5.83-1.28,11.48-2.85,11.62-2.45.12.35-5.33,2.6-11.1,4.4-5.77,1.8-11.83,3.07-12.34,3.14Z"/><path class="cls-1" d="M99,34.32c5.2-2.02,10.31-4.33,14.83-7.44,2.24-1.57,4.32-3.33,6.05-5.37.87-1.01,1.61-2.11,2.28-3.24l.53-1.04c.34-.58.59-1.4.85-2.09l1.54-4.2,1.54,4.2c.27.69.51,1.51.85,2.09l.53,1.04c.67,1.13,1.41,2.23,2.28,3.24,1.73,2.03,3.81,3.8,6.05,5.37,4.52,3.11,9.63,5.42,14.83,7.44.19.06,2.37,1.09,4.54,2.08,2.15,1.02,4.27,2.05,4.15,2.43-.11.36-2.45.02-4.8-.52-2.36-.51-4.71-1.26-4.9-1.32-5.33-2.07-10.61-4.45-15.43-7.76-2.39-1.68-4.66-3.59-6.6-5.87-.98-1.13-1.83-2.38-2.59-3.69l-.43-.85h0s0,0,0,0l-.43.85c-.76,1.3-1.61,2.55-2.59,3.69-1.94,2.28-4.21,4.19-6.6,5.87-4.82,3.31-10.11,5.69-15.43,7.76-.2.06-2.55.81-4.9,1.32-2.35.54-4.69.89-4.8.52-.12-.39,2-1.41,4.15-2.43,2.16-.99,4.34-2.02,4.54-2.08Z"/></g></svg>