<?xml version="1.0" encoding="UTF-8"?><svg id="Line" xmlns="http://www.w3.org/2000/svg" viewBox="0 0 292 292"><defs><style>.cls-1{fill:#fff;stroke-width:0px;}</style></defs><g id="Corner_2_Lines"><path class="cls-1" d="M260.09,278.4c-29.85-.71-59.7-1.85-89.51-3.93-14.9-1.06-29.8-2.35-44.64-4.28-7.42-.99-14.83-2.12-22.19-3.73-3.68-.82-7.34-1.75-10.96-3.01-1.8-.65-3.6-1.37-5.34-2.34-.87-.49-1.73-1.05-2.54-1.75-.41-.35-.8-.76-1.16-1.21l-.14-.2-.24.14-.13.07-.54.35c-.74.46-1.46.96-2.17,1.48-1.42,1.03-2.79,2.15-4.11,3.32-2.63,2.35-5.11,4.91-7.33,7.66-1.11,1.37-2.17,2.78-3.1,4.25-.24.36-.47.73-.67,1.1l-.37.65-.61,1.21-.61,1.21s-.04.14-.09.11l-.14-.09-.29-.18-.57-.37-1.98-1.26c-3.16-2.1-5.92-4.8-8.09-7.91-.09-.15-.49-.67-1-1.54-.45-.9-1.2-2.06-1.75-3.56-1.25-2.93-2.26-7.01-2.16-11.07.03-4.07,1.2-7.98,2.57-10.59.35-.65.67-1.25.97-1.76.35-.49.66-.9.92-1.24.52-.67.85-1.02.93-.97.08.06-.09.52-.45,1.27-.18.38-.4.83-.66,1.34-.22.57-.45,1.17-.7,1.8-1,2.63-1.79,6.36-1.56,10.11.16,3.76,1.29,7.43,2.55,10.04.56,1.35,1.3,2.36,1.73,3.17.5.77.87,1.23.95,1.36,1.97,2.82,4.47,5.26,7.32,7.16l.27.17c.09.05.02.01.04.03h0s.3-.53.3-.53c.23-.42.48-.82.74-1.21,1.01-1.59,2.12-3.08,3.29-4.51,2.33-2.88,4.89-5.54,7.65-8,1.38-1.23,2.82-2.4,4.32-3.5.75-.55,1.52-1.08,2.31-1.58l.59-.39,1.04-.61,2.1-1.21.56,1.42c.1.24.18.5.31.7.05.11.13.19.18.28l.07.1c.22.27.47.55.77.81.59.52,1.31.99,2.06,1.41,1.52.85,3.19,1.53,4.9,2.14,3.43,1.2,7.01,2.11,10.62,2.91,7.22,1.58,14.58,2.71,21.95,3.69,14.75,1.93,29.61,3.21,44.47,4.27,29.74,2.07,59.56,3.21,89.38,3.92.63.03,8.42.38,16.42.74,7.8.39,15.43.8,15.43,1.18,0,.4-7.65.71-15.46.84-7.81.13-15.79.11-16.45.09Z"/><path class="cls-1" d="M16.46,31.85c.71,29.82,1.85,59.64,3.92,89.38,1.06,14.87,2.34,29.72,4.27,44.47.98,7.37,2.11,14.72,3.69,21.95.8,3.61,1.71,7.19,2.91,10.62.61,1.7,1.29,3.38,2.14,4.9.43.75.89,1.46,1.41,2.06.26.3.53.55.8.77l.1.07c.08.05.17.13.28.18.2.12.46.21.7.31l1.43.56-1.22,2.1-.61,1.04-.38.59c-.5.79-1.03,1.56-1.58,2.31-1.09,1.51-2.27,2.94-3.49,4.33-2.46,2.76-5.12,5.33-8,7.65-1.44,1.17-2.93,2.28-4.52,3.29-.39.26-.79.5-1.21.74l-.52.3h0s-.03-.05.03.04l.17.27c1.9,2.86,4.35,5.36,7.16,7.32.14.08.6.46,1.36.95.8.43,1.82,1.17,3.17,1.73,2.61,1.27,6.28,2.39,10.04,2.55,3.76.22,7.48-.56,10.12-1.56.63-.25,1.24-.48,1.8-.7.51-.26.96-.49,1.34-.66.75-.35,1.22-.53,1.27-.45.06.08-.3.41-.97.93-.34.26-.75.57-1.24.92-.51.3-1.11.62-1.76.97-2.61,1.36-6.52,2.53-10.59,2.56-4.07.09-8.14-.91-11.07-2.16-1.5-.55-2.66-1.3-3.56-1.75-.87-.51-1.39-.91-1.54-1-3.11-2.17-5.81-4.93-7.91-8.09l-1.26-1.97-.37-.57-.18-.29-.09-.14c-.05-.05.07-.06.1-.09l1.21-.61,1.21-.61.65-.38c.37-.21.74-.43,1.11-.67,1.47-.93,2.88-1.98,4.25-3.1,2.75-2.22,5.31-4.69,7.66-7.33,1.17-1.32,2.29-2.69,3.32-4.11.52-.71,1.02-1.43,1.48-2.17l.35-.54.07-.13.14-.24-.2-.14c-.46-.36-.86-.75-1.21-1.16-.71-.81-1.26-1.67-1.75-2.54-.97-1.74-1.69-3.54-2.34-5.34-1.27-3.61-2.2-7.28-3.01-10.96-1.61-7.36-2.75-14.77-3.73-22.19-1.94-14.85-3.22-29.74-4.28-44.64-2.08-29.81-3.21-59.66-3.93-89.51-.02-.66-.04-8.64.09-16.45.13-7.81.43-15.46.84-15.46.38,0,.79,7.63,1.18,15.43.36,7.99.72,15.79.74,16.42Z"/><path class="cls-1" d="M113.91,236.87c-.08.37-.19.73-.25,1.12l-.15,1.16-.05,1.19c-.02.21.04.29.04.45.01.14.01.28.08.41.34,1.12,1.44,2.27,2.72,3.18,2.6,1.86,5.76,3.21,8.93,4.38,6.39,2.33,13.08,3.98,19.79,5.47,13.45,2.91,27.11,4.99,40.79,6.81,27.38,3.55,54.93,5.99,82.5,7.55.46.04,6.16.5,12.21.99,5.8.5,11.48.88,11.48,1.27,0,.4-5.72.73-11.56.75-5.84.05-11.8-.12-12.29-.15-27.65-1.56-55.24-4.01-82.72-7.57-13.73-1.83-27.44-3.91-41.03-6.85-6.78-1.5-13.55-3.17-20.17-5.58-3.3-1.23-6.58-2.59-9.63-4.76-.75-.56-1.49-1.17-2.16-1.92-.32-.4-.67-.75-.92-1.25-.13-.23-.28-.46-.4-.71l-.29-.8c-.11-.26-.14-.55-.18-.85-.03-.28-.08-.62-.07-.84l.06-1.4c.05-.47.12-.94.18-1.41.08-.47.21-.94.32-1.41.02-.13.22-.63.52-1.39.38-.73.89-1.76,1.86-2.71.94-.96,2.29-1.8,3.82-2.22,1.54-.41,3.21-.42,4.78-.1,1.56.35,3.05.98,4.21,1.99.59.48,1.07,1.09,1.4,1.74.35.64.43,1.4.36,2.03-.22,1.31-1.01,2.02-1.5,2.43-.55.38-.88.52-.94.45-.06-.08.16-.38.53-.85.33-.49.81-1.23.8-2.1,0-.86-.63-1.78-1.63-2.43-.98-.68-2.28-1.09-3.57-1.26-1.3-.14-2.63-.01-3.74.38-1.12.4-2,1.06-2.61,1.76-1.23,1.43-1.46,2.9-1.55,3.08Z"/><path class="cls-1" d="M55.91,180.84c-.47.11-.94.24-1.41.32-.47.06-.94.13-1.41.18l-1.4.06c-.22.02-.57-.04-.84-.07-.29-.03-.59-.07-.85-.18l-.8-.29c-.25-.12-.47-.26-.71-.4-.49-.26-.84-.6-1.25-.92-.75-.67-1.37-1.4-1.92-2.16-2.16-3.04-3.53-6.33-4.76-9.63-2.41-6.61-4.08-13.38-5.58-20.17-2.94-13.59-5.03-27.3-6.85-41.03-3.56-27.48-6.01-55.07-7.57-82.72-.03-.49-.2-6.45-.15-12.29C20.43,5.72,20.76,0,21.16,0c.38,0,.77,5.68,1.27,11.48.49,6.04.95,11.75.99,12.21,1.56,27.57,4,55.12,7.55,82.5,1.82,13.68,3.9,27.34,6.81,40.79,1.49,6.71,3.14,13.4,5.47,19.79,1.17,3.17,2.52,6.32,4.38,8.92.92,1.28,2.06,2.38,3.18,2.72.14.07.28.07.41.08.15,0,.23.06.45.04l1.19-.05,1.16-.15c.38-.06.74-.17,1.12-.25.18-.09,1.65-.32,3.08-1.55.7-.61,1.36-1.49,1.76-2.61.39-1.12.52-2.44.38-3.74-.17-1.29-.58-2.59-1.26-3.57-.65-1-1.57-1.62-2.43-1.63-.87-.01-1.61.47-2.1.8-.47.38-.77.59-.85.53-.08-.06.07-.39.45-.94.41-.49,1.12-1.28,2.43-1.5.63-.08,1.39,0,2.03.36.65.33,1.26.81,1.74,1.4,1,1.16,1.63,2.65,1.99,4.21.32,1.57.31,3.24-.1,4.77-.42,1.54-1.27,2.88-2.22,3.83-.95.97-1.98,1.48-2.71,1.86-.76.3-1.26.5-1.39.52Z"/><path class="cls-1" d="M164.51,173.89c-1.48,5.5-4.5,10.38-8.06,14.6-3.58,4.23-7.7,7.92-12.05,11.22-8.73,6.62-18.3,11.89-28.08,16.59-9.8,4.67-19.87,8.71-30.07,12.35-5.1,1.82-10.23,3.54-15.4,5.17-2.58.82-5.17,1.61-7.76,2.38l-3.89,1.14-6.36,1.81,1.81-6.36,1.14-3.89c.77-2.59,1.56-5.18,2.38-7.76,1.63-5.16,3.35-10.3,5.17-15.4,3.64-10.2,7.68-20.27,12.35-30.07,4.7-9.78,9.97-19.35,16.59-28.08,3.3-4.36,7-8.47,11.22-12.05,4.22-3.56,9.1-6.58,14.6-8.06.39-.07,2.96-.85,6.71-.85,1.86,0,4.01.18,6.2.72,2.19.52,4.43,1.32,6.54,2.34,4.2,2.08,7.85,4.9,10.31,7.23,2.47,2.34,3.86,4.09,3.75,4.21-.16.16-1.82-1.33-4.46-3.36-2.63-2.03-6.35-4.51-10.42-6.24-4.08-1.71-8.48-2.48-11.85-2.26-3.38.15-5.67.92-6.02.98-4.96,1.33-9.5,4.11-13.51,7.48-4.01,3.4-7.58,7.36-10.79,11.6-6.44,8.49-11.65,17.92-16.29,27.58-4.61,9.69-8.63,19.67-12.24,29.8-1.81,5.06-3.51,10.17-5.14,15.3-.81,2.56-1.6,5.14-2.37,7.72l-1.55,5.29,5.29-1.55c2.58-.77,5.15-1.56,7.72-2.37,5.13-1.62,10.23-3.32,15.3-5.14,10.13-3.61,20.11-7.63,29.8-12.24,9.66-4.64,19.09-9.85,27.58-16.29,4.24-3.21,8.2-6.78,11.6-10.79,3.38-4,6.15-8.55,7.49-13.51.07-.35.84-2.64.98-6.02.21-3.37-.55-7.78-2.26-11.85-1.73-4.07-4.21-7.79-6.24-10.42-2.04-2.64-3.52-4.3-3.36-4.46.12-.12,1.87,1.28,4.21,3.75,2.33,2.46,5.15,6.11,7.23,10.31,1.02,2.11,1.82,4.35,2.34,6.54.54,2.19.71,4.34.72,6.2,0,3.75-.78,6.33-.85,6.71Z"/></g></svg>