<?xml version="1.0" encoding="UTF-8"?><svg id="Line" xmlns="http://www.w3.org/2000/svg" viewBox="0 0 283.82 283.82"><defs><style>.cls-1{fill:#fff;stroke-width:0px;}</style></defs><g id="Corner_6_Lines"><path class="cls-1" d="M49.29,232.49c1.47-1.4,2.66-3.06,3.64-4.89.98-1.83,1.7-3.83,2.34-5.85,1.2-4.09,1.88-8.37,2.29-12.67.76-8.64.52-17.4-.13-26.1-1.33-17.44-4.28-34.76-7.82-51.94-3.58-17.17-7.86-34.2-12.65-51.08-4.81-16.88-10.13-33.61-16.16-50.08-.21-.59-2.66-7.72-5.21-14.65C13.07,8.27,10.3,1.59,10.65,1.42c.36-.18,3.79,6.24,6.8,13.04,3.05,6.77,5.81,13.84,6.02,14.43,6.06,16.55,11.4,33.35,16.23,50.28,4.81,16.94,9.11,34.03,12.7,51.28,3.55,17.25,6.52,34.67,7.87,52.3.65,8.81.91,17.69.12,26.58-.42,4.44-1.12,8.88-2.4,13.24-.69,2.16-1.46,4.32-2.56,6.37-1.09,2.04-2.48,4-4.2,5.63-.26.19-1.76,1.81-4.65,3.21-1.44.67-3.28,1.2-5.28,1.12-2-.05-4-.83-5.67-1.89-3.34-2.22-5.5-5.4-6.86-7.81-1.35-2.44-1.91-4.2-1.73-4.28.18-.08,1.07,1.5,2.66,3.68,1.59,2.15,3.95,4.98,6.97,6.68,1.51.8,3.14,1.31,4.67,1.25,1.54-.03,2.94-.51,4.08-1.12,2.3-1.25,3.61-2.75,3.84-2.92Z"/><path class="cls-1" d="M49.27,232.57c1.63-1.72,3.59-3.11,5.63-4.2,2.05-1.1,4.2-1.87,6.37-2.56,4.35-1.28,8.8-1.98,13.24-2.4,8.89-.79,17.77-.53,26.58.12,17.63,1.35,35.05,4.32,52.3,7.87,17.25,3.59,34.34,7.89,51.28,12.7,16.94,4.83,33.73,10.17,50.28,16.23.59.22,7.66,2.98,14.43,6.02,6.79,3.01,13.21,6.45,13.04,6.8-.17.35-6.85-2.42-13.8-4.94-6.93-2.55-14.06-5-14.65-5.21-16.46-6.03-33.2-11.35-50.08-16.16-16.88-4.8-33.91-9.08-51.08-12.65-17.17-3.54-34.5-6.49-51.94-7.82-8.71-.65-17.47-.89-26.1-.13-4.31.4-8.59,1.09-12.67,2.29-2.02.64-4.02,1.36-5.85,2.34-1.83.99-3.49,2.17-4.89,3.64-.17.22-1.67,1.54-2.92,3.84-.6,1.15-1.09,2.55-1.12,4.08-.06,1.54.45,3.17,1.25,4.67,1.69,3.02,4.53,5.38,6.68,6.97,2.18,1.59,3.76,2.48,3.68,2.66-.08.18-1.84-.38-4.28-1.73-2.4-1.36-5.59-3.53-7.81-6.86-1.06-1.67-1.84-3.67-1.89-5.67-.08-2,.45-3.85,1.12-5.28,1.39-2.88,3.02-4.38,3.21-4.65Z"/><path class="cls-1" d="M26.57,0c1.88-.05,3.77.27,5.52.8,1.76.53,3.39,1.3,4.97,2.12,3.13,1.71,5.98,3.78,8.67,6.01,5.35,4.48,10.11,9.53,14.61,14.75,8.99,10.48,16.95,21.72,24.51,33.19,7.53,11.49,14.58,23.28,21.27,35.28,6.67,12,12.99,24.2,18.77,36.67.21.44,2.55,5.88,4.55,11.32,2.03,5.43,3.6,10.89,3.23,11.02-.37.13-2.6-5.05-5.09-10.24-2.46-5.2-5.08-10.46-5.28-10.9-5.74-12.39-12.03-24.54-18.68-36.48-6.66-11.94-13.68-23.68-21.16-35.1-7.51-11.4-15.42-22.57-24.28-32.89-4.43-5.15-9.12-10.1-14.28-14.42-2.59-2.14-5.31-4.11-8.19-5.69-2.89-1.54-5.99-2.68-9.06-2.58-.21.03-1.74-.08-3.64.47-.94.28-1.94.76-2.77,1.54-.85.77-1.46,1.9-1.86,3.14-.75,2.53-.53,5.38-.26,7.44.29,2.08.63,3.45.44,3.52-.18.07-.89-1.19-1.52-3.28-.61-2.08-1.22-5.04-.62-8.16.33-1.54,1.01-3.12,2.11-4.29,1.08-1.19,2.43-1.95,3.62-2.39C24.57-.02,26.31.05,26.57,0Z"/><path class="cls-1" d="M280.96,257.18c.1-3.08-1.05-6.18-2.58-9.06-1.58-2.89-3.54-5.61-5.69-8.19-4.32-5.16-9.27-9.84-14.42-14.28-10.33-8.86-21.49-16.78-32.89-24.28-11.43-7.49-23.16-14.51-35.1-21.16-11.94-6.64-24.09-12.93-36.48-18.68-.44-.21-5.7-2.82-10.9-5.28-5.19-2.49-10.36-4.72-10.24-5.09.13-.38,5.59,1.2,11.02,3.23,5.44,2,10.87,4.34,11.32,4.55,12.47,5.78,24.67,12.1,36.67,18.77,11.99,6.69,23.78,13.74,35.28,21.27,11.47,7.56,22.71,15.52,33.19,24.51,5.22,4.5,10.27,9.26,14.75,14.61,2.22,2.69,4.3,5.54,6.01,8.67.82,1.58,1.59,3.22,2.12,4.97.53,1.75.85,3.64.8,5.52-.04.25.02,2-.83,4.41-.44,1.19-1.19,2.54-2.39,3.62-1.18,1.1-2.76,1.78-4.29,2.11-3.13.6-6.09,0-8.16-.62-2.09-.64-3.35-1.34-3.28-1.52.07-.19,1.44.16,3.52.44,2.06.27,4.91.49,7.44-.26,1.24-.39,2.37-1.01,3.14-1.86.78-.84,1.26-1.84,1.54-2.77.54-1.9.44-3.42.47-3.64Z"/><path class="cls-1" d="M233.07,280.48l-5.32-.95c-.89-.16-1.78-.31-2.66-.49l-2.63-.61-10.54-2.43c-6.93-1.97-13.92-3.78-20.7-6.24l-5.12-1.73c-1.72-.55-3.36-1.29-5.05-1.93-3.34-1.35-6.73-2.59-10.04-4.02l-9.85-4.45c-1.66-.71-3.24-1.57-4.85-2.39l-4.81-2.46c-1.6-.84-3.22-1.61-4.8-2.5l-4.69-2.69c-3.11-1.83-6.3-3.51-9.29-5.52l-9.09-5.85-8.81-6.27c-11.58-8.58-22.56-17.98-32.81-28.12-10.13-10.26-19.53-21.23-28.12-32.81l-6.27-8.81-5.85-9.09c-2.01-2.99-3.7-6.19-5.52-9.29l-2.69-4.69c-.88-1.57-1.66-3.2-2.5-4.8l-2.46-4.81c-.81-1.61-1.68-3.19-2.39-4.85l-4.45-9.85c-1.43-3.31-2.67-6.69-4.02-10.04-.64-1.69-1.38-3.33-1.93-5.05l-1.73-5.12c-2.45-6.78-4.27-13.77-6.24-20.7l-2.43-10.54-.61-2.63c-.18-.88-.32-1.77-.49-2.66l-.95-5.32c-.04-.25-.2-1.2-.45-2.69-.23-1.48-.62-3.47-.84-5.83-.26-2.35-.56-5.05-.87-7.93-.15-1.43-.34-2.9-.45-4.4-.08-1.5-.17-3.01-.25-4.53-.16-3-.31-6.01-.46-8.85-.05-2.82,0-5.44.02-7.67C.1,4.37.21,1.42.41,1.42s.46,2.95.74,7.41c.15,2.23.26,4.83.46,7.62.28,2.81.58,5.79.88,8.76.15,1.5.29,3,.43,4.48.17,1.48.42,2.93.61,4.35.41,2.84.79,5.5,1.13,7.82.29,2.33.72,4.29.99,5.75.28,1.46.46,2.4.5,2.65l.94,5.27c.16.88.3,1.76.48,2.63l.6,2.61,2.41,10.43c1.95,6.86,3.74,13.78,6.17,20.49l1.72,5.07c.54,1.7,1.28,3.33,1.91,5,1.33,3.31,2.56,6.66,3.98,9.94l4.41,9.75c.7,1.64,1.56,3.21,2.36,4.8l2.44,4.76c.83,1.58,1.6,3.19,2.47,4.75l2.67,4.64c1.81,3.08,3.47,6.24,5.47,9.2l5.79,9,6.2,8.72c8.5,11.47,17.8,22.33,27.83,32.49,10.16,10.03,21.02,19.34,32.49,27.83l8.72,6.2,9,5.79c2.96,2,6.12,3.66,9.2,5.47l4.64,2.67c1.56.87,3.17,1.64,4.75,2.47l4.76,2.44c1.59.8,3.16,1.66,4.8,2.36l9.75,4.41c3.27,1.41,6.63,2.65,9.94,3.98,1.67.63,3.3,1.36,5,1.91l5.07,1.72c6.71,2.43,13.63,4.22,20.49,6.17l10.43,2.41,2.61.6c.87.18,1.76.32,2.63.48l5.27.94c.25.05,1.19.23,2.65.5,1.46.27,3.42.71,5.75.99,2.32.33,4.99.72,7.82,1.13,1.42.2,2.87.44,4.35.61,1.48.14,2.98.29,4.48.43,2.98.3,5.95.6,8.76.88,2.79.2,5.39.31,7.62.46,4.45.28,7.4.55,7.41.74s-2.96.31-7.43.37c-2.24.02-4.86.07-7.67.02-2.84-.15-5.84-.3-8.85-.46-1.52-.08-3.04-.17-4.53-.25-1.5-.11-2.97-.31-4.4-.45-2.88-.32-5.58-.62-7.93-.87-2.37-.22-4.35-.6-5.83-.84-1.48-.25-2.43-.41-2.69-.45Z"/><path class="cls-1" d="M64.31,39.98l.74,4.16.38,2.08.48,2.06,1.9,8.23c1.54,5.42,2.96,10.88,4.87,16.18l1.35,4c.43,1.34,1.01,2.63,1.51,3.95,1.05,2.61,2.02,5.26,3.14,7.84l3.48,7.7c.55,1.3,1.23,2.53,1.87,3.79l1.93,3.76c.65,1.25,1.26,2.52,1.95,3.75l2.11,3.66c1.43,2.43,2.74,4.92,4.32,7.26l4.57,7.11,4.9,6.89c6.71,9.05,14.05,17.63,21.97,25.65,8.02,7.92,16.59,15.27,25.65,21.97l6.89,4.9,7.11,4.57c2.34,1.58,4.84,2.89,7.26,4.32l3.66,2.11c1.23.69,2.5,1.3,3.75,1.95l3.76,1.93c1.26.63,2.49,1.31,3.79,1.87l7.7,3.48c2.59,1.12,5.23,2.09,7.84,3.14,1.32.5,2.6,1.08,3.95,1.51l4,1.35c5.3,1.92,10.76,3.33,16.18,4.87l8.23,1.9,2.06.48,2.08.38,4.16.74c.2.04.94.18,2.09.4,1.15.22,2.7.57,4.54.8,1.83.27,3.93.58,6.17.92,1.12.16,2.26.36,3.43.5,1.17.12,2.35.24,3.54.36,2.34.25,4.69.5,6.92.74,2.15.15,4.19.29,6.02.42,3.52.26,5.85.51,5.85.7s-2.34.33-5.88.41c-1.77.03-3.84.09-6.07.07-2.26-.1-4.63-.21-7-.32-1.2-.06-2.4-.12-3.59-.18-1.19-.08-2.35-.23-3.49-.34-2.28-.24-4.42-.47-6.28-.66-1.87-.17-3.45-.46-4.62-.65-1.17-.19-1.93-.32-2.13-.35l-4.21-.75-2.1-.38-2.09-.48-8.34-1.93c-5.49-1.56-11.02-2.99-16.39-4.94l-4.05-1.37c-1.36-.44-2.66-1.02-4-1.53-2.65-1.06-5.33-2.05-7.95-3.18l-7.8-3.53c-1.31-.56-2.57-1.25-3.84-1.89l-3.81-1.95c-1.26-.66-2.55-1.28-3.8-1.98l-3.71-2.13c-2.46-1.45-4.99-2.78-7.36-4.37l-7.2-4.63-6.98-4.96c-9.17-6.79-17.86-14.23-25.98-22.26-8.02-8.12-15.46-16.81-22.26-25.98l-4.96-6.98-4.63-7.2c-1.59-2.37-2.93-4.9-4.37-7.36l-2.13-3.71c-.7-1.24-1.31-2.53-1.98-3.8l-1.95-3.81c-.64-1.27-1.33-2.53-1.89-3.84l-3.53-7.8c-1.13-2.62-2.12-5.3-3.18-7.95-.5-1.33-1.09-2.64-1.53-4l-1.37-4.05c-1.94-5.37-3.38-10.9-4.94-16.39l-1.93-8.34-.48-2.09-.38-2.1-.75-4.21c-.03-.2-.16-.95-.35-2.13-.18-1.17-.48-2.75-.65-4.62-.2-1.86-.42-4-.66-6.28-.11-1.14-.26-2.3-.34-3.49-.06-1.18-.12-2.38-.18-3.59-.11-2.37-.22-4.74-.32-7-.02-2.23.04-4.3.07-6.07.08-3.54.21-5.88.41-5.88s.44,2.33.7,5.85c.13,1.82.27,3.86.42,6.02.24,2.23.49,4.58.74,6.92.12,1.19.24,2.37.36,3.54.14,1.17.34,2.31.5,3.43.33,2.24.65,4.35.92,6.17.23,1.84.58,3.39.8,4.54.22,1.15.37,1.89.4,2.09Z"/></g></svg>