<?xml version="1.0" encoding="UTF-8"?><svg id="Line" xmlns="http://www.w3.org/2000/svg" viewBox="0 0 293.16 293.16"><defs><style>.cls-1{fill:#fff;stroke-width:0px;}</style></defs><g id="Corner_1_Lines"><path class="cls-1" d="M77.85,48.25c-2.58,2.28-4.73,5.14-6.65,8.14-1.93,3-3.54,6.23-5.07,9.49-2.98,6.56-5.38,13.42-7.32,20.4-.49,1.74-.97,3.49-1.39,5.26-.46,1.75-.85,3.52-1.24,5.29-.43,1.77-.69,3.55-1.02,5.32-.15.89-.33,1.77-.47,2.67l-.34,2.69c-.92,7.17-1.34,14.43-1.46,21.7-.14,7.27-.08,14.57-.05,21.88.03,7.31,0,14.65-.46,22-.48,7.34-1.36,14.75-3.62,21.91-.51,1.82-1.2,3.52-1.86,5.25-.68,1.72-1.41,3.43-2.18,5.11-1.55,3.37-3.32,6.66-5.37,9.78-.15.22-1.11,1.67-2.7,3.58-1.57,1.91-3.79,4.25-6.41,6.11-1.31.93-2.72,1.73-4.16,2.24-1.44.48-2.96.77-4.28.23-.65-.26-1.14-.79-1.35-1.32-.16-.54-.16-1.01-.07-1.36.07-.36.18-.61.28-.77.09-.16.16-.24.21-.22.12.03.03.42.08,1.03,0,.31.11.65.27.97.2.3.51.53.94.63.87.23,2.12-.11,3.3-.66,1.2-.57,2.41-1.41,3.54-2.36,2.26-1.91,4.2-4.24,5.57-6.13,1.39-1.89,2.24-3.31,2.38-3.52,1.96-2.98,3.66-6.15,5.16-9.41.74-1.64,1.45-3.29,2.11-4.97.64-1.68,1.32-3.37,1.79-5.08,2.15-6.79,3.01-14,3.49-21.22.45-7.23.49-14.51.45-21.81-.03-7.3-.09-14.62.05-21.95.12-7.33.55-14.69,1.49-22.01l.35-2.75c.14-.91.32-1.82.48-2.73.34-1.82.61-3.65,1.05-5.44.39-1.8.79-3.59,1.26-5.38.43-1.79.91-3.57,1.41-5.34,1.97-7.09,4.41-14.07,7.48-20.81,1.57-3.35,3.23-6.68,5.25-9.83,2.02-3.14,4.29-6.19,7.19-8.76.12-.08.45-.47,1.15-.91.68-.45,1.54-1.14,2.76-1.69,1.18-.56,2.57-1.04,4.11-1.36,1.53-.31,3.24-.47,4.98-.07.86.19,1.74.59,2.44,1.22.37.29.63.65.9,1.05.24.42.43.92.42,1.48-.01.55-.25,1.09-.61,1.46-.18.18-.38.34-.63.45-.24.1-.56.22-.96.12-.75-.23-1.35-.62-1.82-1.06-.47-.45-.83-.93-.98-1.52-.05-.13-.04-.33-.03-.48.04-.18.09-.35.22-.47.24-.26.52-.29.71-.3.4,0,.66.09.83.16.17.08.26.14.25.19,0,.12-.44.06-.98.21-.13.04-.24.11-.24.17-.02.04,0,.12.06.27.14.29.47.63.87.91.41.28.91.51,1.43.59-.16-.01.09-.08.17-.23.1-.14.14-.31.12-.47-.02-.16-.11-.35-.25-.56-.17-.19-.37-.43-.62-.58-.46-.34-1.04-.56-1.69-.64-1.29-.19-2.73.02-4.03.39-1.3.37-2.51.87-3.47,1.41-.96.5-1.67,1.15-2.24,1.56-.57.4-.87.78-.97.85Z"/><path class="cls-1" d="M1.44,142.01c1.46-2.25,3.86-3.59,6.17-4.28,2.37-.73,4.99-.76,7.37-.12,2.39.62,4.53,1.8,6.43,3.16,1.9,1.39,3.6,2.98,5.16,4.67,3.11,3.39,5.69,7.14,8.04,11,2.34,3.87,4.41,7.87,6.32,11.94,3.81,8.14,6.98,16.54,9.73,25.07,2.74,8.53,5.05,17.2,6.82,26,.06.31.66,4.13.95,7.91.32,3.78.24,7.5-.16,7.52-.39.02-1.02-3.59-1.84-7.23-.79-3.65-1.7-7.34-1.76-7.65-1.74-8.67-4.03-17.25-6.73-25.68-2.72-8.43-5.85-16.73-9.6-24.73-1.88-3.99-3.91-7.92-6.18-11.67-2.28-3.75-4.78-7.37-7.7-10.55-2.9-3.14-6.31-5.97-10.21-7.01-1.93-.52-3.93-.48-5.82.09-1.92.59-3.62,1.6-4.62,3.13-.05.12-.61.77-1,1.98-.43,1.19-.62,2.93-.5,4.71.22,3.58,1.55,7.04,1.2,7.2-.34.19-2.4-3.02-3.2-6.92-.4-1.94-.44-4.05-.04-5.68.36-1.65,1.08-2.7,1.16-2.86Z"/><path class="cls-1" d="M247.07,217.19c-2.57,2.9-5.62,5.17-8.76,7.19-3.15,2.02-6.47,3.68-9.83,5.25-6.74,3.06-13.72,5.5-20.81,7.48-1.77.5-3.55.98-5.34,1.41-1.78.46-3.58.86-5.37,1.26-1.78.43-3.62.71-5.44,1.05-.91.16-1.82.34-2.73.48l-2.75.35c-7.32.94-14.68,1.36-22.01,1.49-7.33.14-14.65.08-21.95.05-7.3-.03-14.58,0-21.81.45-7.21.47-14.43,1.34-21.22,3.49-1.71.47-3.4,1.15-5.08,1.79-1.68.66-3.33,1.37-4.97,2.11-3.26,1.5-6.43,3.21-9.41,5.16-.21.14-1.64,1-3.52,2.38-1.89,1.37-4.22,3.31-6.13,5.57-.95,1.13-1.79,2.33-2.36,3.54-.55,1.19-.89,2.43-.66,3.3.1.43.33.74.63.94.32.16.67.26.97.27.61.05,1-.03,1.03.08.02.05-.06.12-.22.21-.16.1-.41.22-.77.28-.35.09-.82.09-1.36-.07-.54-.2-1.06-.7-1.32-1.35-.54-1.32-.24-2.84.23-4.27.51-1.45,1.31-2.85,2.24-4.16,1.86-2.62,4.21-4.84,6.11-6.41,1.9-1.58,3.36-2.55,3.58-2.7,3.13-2.05,6.41-3.82,9.78-5.37,1.69-.77,3.39-1.5,5.11-2.18,1.73-.66,3.43-1.35,5.25-1.86,7.16-2.26,14.57-3.13,21.91-3.62,7.35-.46,14.69-.49,22-.46,7.31.03,14.61.09,21.88-.05,7.27-.12,14.53-.54,21.7-1.46l2.69-.34c.89-.13,1.78-.31,2.66-.47,1.77-.33,3.55-.59,5.32-1.02,1.77-.39,3.54-.78,5.29-1.24,1.76-.42,3.51-.9,5.26-1.39,6.98-1.94,13.83-4.34,20.4-7.32,3.26-1.53,6.48-3.14,9.49-5.07,2.99-1.92,5.86-4.08,8.14-6.65.06-.1.45-.4.85-.97.41-.57,1.06-1.28,1.56-2.24.53-.96,1.04-2.16,1.41-3.47.37-1.3.58-2.74.39-4.03-.08-.65-.3-1.23-.64-1.69-.14-.25-.39-.45-.58-.62-.2-.15-.4-.23-.56-.25-.16-.02-.33.01-.47.12-.15.08-.22.33-.23.17.09.52.31,1.02.59,1.43.28.41.62.73.91.87.15.06.23.09.27.06.06,0,.13-.12.17-.24.15-.54.09-.97.21-.98.05-.01.11.07.19.25.08.17.17.43.16.83-.01.19-.04.47-.3.71-.12.13-.29.18-.47.22-.15,0-.34.01-.48-.03-.59-.15-1.08-.52-1.52-.98-.44-.47-.83-1.07-1.06-1.82-.1-.4.01-.72.12-.96.11-.25.27-.44.45-.63.37-.36.9-.59,1.46-.61.56-.02,1.06.18,1.48.42.4.27.76.53,1.05.9.63.7,1.03,1.58,1.22,2.44.4,1.74.24,3.45-.07,4.98-.32,1.54-.8,2.93-1.36,4.11-.55,1.21-1.24,2.08-1.69,2.76-.44.69-.83,1.03-.91,1.15Z"/><path class="cls-1" d="M149.58,289.34c1.53-1,2.54-2.7,3.13-4.62.57-1.89.61-3.89.09-5.82-1.03-3.89-3.87-7.31-7.01-10.21-3.18-2.92-6.8-5.42-10.55-7.7-3.75-2.28-7.68-4.3-11.67-6.18-8-3.74-16.3-6.88-24.73-9.6-8.43-2.7-17.01-5-25.68-6.73-.31-.06-4-.97-7.65-1.76-3.64-.82-7.25-1.45-7.23-1.84.02-.39,3.74-.48,7.52-.16,3.78.29,7.6.89,7.91.95,8.8,1.76,17.47,4.08,26,6.82,8.53,2.75,16.93,5.92,25.07,9.73,4.06,1.92,8.07,3.98,11.94,6.32,3.86,2.35,7.61,4.93,11,8.04,1.69,1.56,3.28,3.25,4.67,5.16,1.37,1.91,2.55,4.05,3.16,6.44.64,2.37.61,4.99-.12,7.37-.7,2.31-2.04,4.71-4.29,6.17-.16.08-1.21.8-2.86,1.16-1.63.41-3.75.37-5.68-.04-3.91-.8-7.11-2.85-6.92-3.2.16-.35,3.62.98,7.2,1.2,1.78.12,3.52-.07,4.71-.5,1.21-.39,1.86-.95,1.98-1Z"/><path class="cls-1" d="M43.75,55.88v193.53h193.53c1.16,0,15.13.16,28.81.42,6.84.13,13.61.28,18.67.45,5.06.17,8.41.36,8.41.55s-3.35.38-8.41.55c-5.06.17-11.83.32-18.67.45-13.68.26-27.65.42-28.81.42H40.89V55.88c0-1.16.16-15.13.42-28.81.13-6.84.28-13.61.45-18.67.17-5.06.36-8.41.55-8.41s.38,3.35.55,8.41c.17,5.06.32,11.83.45,18.67.26,13.68.42,27.65.42,28.81Z"/></g></svg>