<?xml version="1.0" encoding="UTF-8"?><svg id="Line" xmlns="http://www.w3.org/2000/svg" viewBox="0 0 288.03 288.03"><defs><style>.cls-1{fill:#fff;stroke-width:0px;}</style></defs><g id="Corner_4_Lines"><path class="cls-1" d="M23.46,123.23c-2.17,4.17-3.35,8.85-3.79,13.6-.44,4.76-.17,9.6.52,14.37,1.44,9.56,4.42,18.9,8.25,27.86,3.83,8.96,8.47,17.59,13.75,25.79,5.28,8.19,11.18,16.04,17.99,22.93,6.89,6.81,14.74,12.71,22.93,17.99,8.2,5.28,16.83,9.92,25.79,13.75,8.95,3.83,18.29,6.81,27.86,8.25,4.78.7,9.61.97,14.37.52,4.75-.43,9.43-1.62,13.6-3.79.15-.08.7-.37,1.57-.83.22-.11.45-.24.7-.37.24-.16.49-.33.75-.51.53-.36,1.13-.76,1.77-1.19,1.18-1,2.59-2.08,3.91-3.48,1.32-1.37,2.59-2.93,3.62-4.61,1.01-1.68,1.77-3.51,1.95-5.27.21-1.75-.21-3.41-1.04-4.49-.84-1.1-1.99-1.54-2.81-1.59-.82-.05-1.31.15-1.36.04-.04-.06.37-.46,1.34-.61.94-.15,2.47.18,3.67,1.43,1.2,1.23,1.89,3.24,1.8,5.33-.06,2.1-.78,4.22-1.78,6.15-1.02,1.92-2.3,3.68-3.63,5.22-1.31,1.55-2.79,2.82-4.03,3.95-.68.5-1.31.97-1.88,1.39-.29.21-.55.41-.81.59-.27.16-.52.3-.75.44-.93.53-1.53.88-1.68.97-4.57,2.37-9.61,3.63-14.64,4.09-5.04.47-10.1.18-15.04-.54-4.95-.73-9.81-1.89-14.58-3.33-4.76-1.44-9.43-3.16-13.99-5.12-9.13-3.9-17.88-8.61-26.22-13.97-8.33-5.37-16.29-11.35-23.4-18.37-7.02-7.11-13-15.08-18.38-23.4-5.37-8.33-10.08-17.09-13.97-26.22-1.96-4.56-3.68-9.23-5.12-13.99-1.44-4.76-2.6-9.62-3.33-14.58-.72-4.95-1.01-10-.54-15.04.46-5.03,1.72-10.08,4.09-14.64.09-.16.43-.75.97-1.68.13-.23.28-.48.44-.75.18-.25.38-.52.59-.81.42-.57.88-1.19,1.39-1.88,1.14-1.24,2.41-2.72,3.95-4.03,1.54-1.33,3.29-2.62,5.22-3.63,1.92-1,4.05-1.72,6.15-1.78,2.08-.09,4.1.6,5.33,1.8,1.25,1.19,1.59,2.72,1.43,3.67-.15.97-.55,1.38-.61,1.34-.11-.05.09-.53.04-1.36-.05-.81-.49-1.97-1.59-2.81-1.09-.84-2.74-1.25-4.49-1.04-1.76.19-3.59.94-5.27,1.95-1.68,1.03-3.24,2.3-4.61,3.62-1.4,1.31-2.48,2.73-3.48,3.91-.43.64-.83,1.24-1.19,1.77-.18.27-.35.52-.51.75-.13.25-.26.49-.37.7-.46.87-.76,1.42-.83,1.57Z"/><path class="cls-1" d="M47.36,238.56c-.14-.55-.29-1.1-.41-1.65l-.26-1.68c-.22-1.12-.26-2.25-.31-3.39-.08-1.16-.06-2.22-.06-3.31V29.87c0-1.24.64-29.87,1.43-29.87s1.43,28.63,1.43,29.87v198.65c0,1.08-.02,2.19.06,3.2.05,1.03.08,2.07.28,3.09l.23,1.53c.1.51.25,1,.37,1.51.04.14.15.69.37,1.52.13.41.29.89.47,1.43.17.55.37,1.15.66,1.77,1,2.56,2.74,5.72,4.95,8.51,2.19,2.81,4.78,5.27,6.9,6.86.52.41,1.04.72,1.47,1.05.42.26.81.5,1.18.73.67.35,1.07.58,1.05.68-.02.09-.48.05-1.27-.15-.38-.13-.85-.29-1.36-.51-.5-.25-1.09-.51-1.68-.86-2.4-1.37-5.32-3.7-7.83-6.49-2.53-2.78-4.59-6.05-5.81-8.76-.35-.66-.59-1.3-.81-1.89-.22-.58-.42-1.1-.58-1.54-.29-.9-.42-1.49-.47-1.65Z"/><path class="cls-1" d="M50.18,237.9c.5.12,1,.27,1.51.37l1.53.23c1.02.2,2.05.23,3.09.28,1.01.08,2.12.06,3.2.06h198.65c1.24,0,29.87.64,29.87,1.43s-28.63,1.43-29.87,1.43H59.51c-1.09,0-2.15.02-3.31-.06-1.14-.05-2.27-.09-3.39-.31l-1.68-.26c-.56-.11-1.1-.27-1.65-.41-.15-.05-.75-.18-1.65-.47-.44-.17-.96-.36-1.54-.58-.58-.22-1.23-.46-1.89-.81-2.71-1.22-5.98-3.28-8.76-5.81-2.8-2.51-5.12-5.43-6.49-7.83-.36-.59-.61-1.18-.86-1.68-.22-.52-.38-.99-.51-1.36-.2-.79-.24-1.25-.15-1.27.1-.03.32.38.68,1.05.23.37.47.76.73,1.18.32.44.63.95,1.05,1.47,1.59,2.12,4.05,4.71,6.86,6.9,2.8,2.21,5.96,3.95,8.51,4.95.62.29,1.23.49,1.77.66.54.18,1.02.34,1.43.47.83.23,1.38.33,1.52.37Z"/><path class="cls-1" d="M116.17,172.32c-1.11,1.37-2.43,2.52-3.84,3.51-1.4,1.01-2.94,1.8-4.49,2.47l-2.34.91c-.39.14-.78.32-1.18.44l-1.22.33c-.82.21-1.62.46-2.45.63l-2.52.37c-.83.17-1.69.13-2.54.16-.85.01-1.7.08-2.55-.04-.85-.09-1.7-.16-2.54-.27l-2.5-.57c-3.28-.92-6.39-2.39-9.16-4.31-5.51-3.9-9.84-9.11-13.29-14.7-3.49-5.59-6.23-11.58-8.46-17.72-4.44-12.29-7.12-25.15-8.2-38.15-.29-3.25-.4-6.51-.46-9.78,0-3.28.08-6.53.29-9.78.41-6.5,1.09-13.02,2.78-19.43.07-.23.47-1.72,1.29-3.76.81-2.03,2.04-4.67,3.98-6.87.96-1.09,2.14-2.06,3.43-2.63,1.3-.57,2.68-.67,3.76-.46,1.09.22,1.88.68,2.36,1.06.49.37.69.66.64.73-.06.09-.38-.04-.92-.23-.53-.19-1.3-.44-2.22-.46-.91-.02-1.95.21-2.91.78-.96.58-1.84,1.46-2.58,2.48-1.49,2.05-2.45,4.55-3.07,6.5-.63,1.96-.94,3.39-1,3.61-1.61,6.09-2.29,12.49-2.69,18.86-.2,3.2-.28,6.41-.29,9.59.06,3.19.16,6.38.45,9.57,1.06,12.74,3.7,25.4,8.04,37.4,2.17,6,4.84,11.82,8.2,17.19,3.31,5.38,7.44,10.29,12.49,13.87,2.54,1.76,5.35,3.07,8.27,3.9l2.23.51c.75.1,1.51.15,2.27.24.76.12,1.52.05,2.28.04.76-.04,1.53.01,2.29-.15l2.28-.34c.75-.16,1.49-.39,2.24-.58l1.12-.3c.37-.11.73-.27,1.09-.41l2.17-.84c1.41-.61,2.76-1.31,3.98-2.19,1.23-.86,2.36-1.85,3.29-3,.14-.16,1.07-1.18,2-2.9.94-1.7,1.69-4.2,1.77-6.77.1-2.55-.43-5.17-1.32-6.78-.23-.37-.47-.74-.71-.89-.23-.17-.4-.18-.6-.1l-.25.2-.18.2c-.11.11-.19.17-.23.15-.05-.02-.06-.11-.03-.28.02-.08.03-.19.08-.31.06-.11.14-.25.25-.4.25-.3.87-.45,1.36-.21.51.21.85.59,1.23,1.01,1.37,1.74,2.26,4.51,2.43,7.38.18,2.88-.44,5.85-1.42,7.94-.96,2.1-2.01,3.39-2.17,3.58Z"/><path class="cls-1" d="M105.05,182.35c-5.25,3.62-11.16,6.09-16.98,8.27-2.92,1.09-5.83,2.12-8.63,3.3-2.81,1.16-5.49,2.53-7.84,4.29-.29.22-.61.42-.89.65l-.82.73c-.55.48-1.1.95-1.6,1.54l-1.56,1.66c-.52.55-1.05,1.1-1.51,1.7-.93,1.19-1.96,2.31-2.77,3.58l-1.28,1.86c-.39.64-.75,1.3-1.13,1.94-1.47,2.61-2.66,5.36-3.46,8.25-.84,2.89-1.32,5.88-1.98,8.99-.05.19-.72,2.93-2.14,5.35-.17.29-.35.58-.53.89-.21.26-.42.52-.63.78-.41.5-.78.96-1.2,1.27-.79.65-1.34,1-1.48.87-.14-.14.14-.75.62-1.56.27-.38.47-.9.71-1.42.13-.27.26-.54.38-.8.1-.3.2-.59.29-.88.8-2.32,1.12-4.89,1.17-5.11.63-2.96,1.13-6.1,2.02-9.17.85-3.09,2.14-6.07,3.71-8.86.4-.69.79-1.39,1.21-2.08l1.36-1.97c.86-1.35,1.94-2.52,2.92-3.77.48-.63,1.04-1.2,1.58-1.78l1.62-1.73c.51-.59,1.14-1.13,1.75-1.68l.92-.82c.31-.27.66-.48.98-.73,2.62-1.96,5.52-3.42,8.43-4.62,2.91-1.22,5.85-2.27,8.74-3.35,5.77-2.16,11.4-4.53,16.39-7.97.09-.06.69-.43,1.55-.93.88-.49,1.91-1.27,3-1.95.26-.17.54-.34.81-.52.25-.18.5-.36.75-.54.49-.35.95-.67,1.36-.93.82-.53,1.42-.83,1.56-.69.14.14-.2.71-.79,1.49-.3.39-.66.84-1.06,1.32-.21.25-.42.49-.62.73-.24.24-.48.47-.71.7-.97.91-1.92,1.89-2.75,2.53-.82.65-1.41,1.11-1.5,1.17Z"/><path class="cls-1" d="M10.78,274.78c6.1-7.65,11.06-16.34,13.48-25.76.63-2.34,1.01-4.74,1.28-7.14l.16-1.81c.03-.6.04-1.21.06-1.81.05-1.19.02-2.47.03-3.71v-10.31c5.71-.02,1.58,0,2.86.01v2.13c-1.27,0,2.85.03-2.86.02v-8.08c.11-.27.37-.47.57-.74l1.27-1.47c.82-.9,1.55-1.88,2.29-2.85.77-.95,1.44-1.97,2.13-2.97,2.73-4.04,5.01-8.39,6.85-12.92,1.83-4.53,3.28-9.24,4.34-14.04,1.05-4.8,1.79-9.68,2.29-14.59.04-.17.15-1.32.35-2.93.1-.79.22-1.72.34-2.72.1-.96.2-2,.31-3.07.2-1.88.42-3.86.61-5.69.19-1.54.4-2.57.59-2.57s.37,1.03.52,2.58c.15,1.56.29,3.65.29,5.76.01,1.09.02,2.14.03,3.13-.03,1.02-.06,1.97-.08,2.78-.06,1.65-.1,2.83-.14,3-.51,5.01-1.27,9.99-2.35,14.93-1.09,4.93-2.58,9.79-4.48,14.49-1.91,4.7-4.28,9.23-7.13,13.44-.72,1.05-1.42,2.11-2.22,3.1-.78,1.01-1.54,2.03-2.39,2.97l-1.17,1.36h.01s0,.9,0,.9v6.19c-5.71,0-1.58-.02-2.86-.02v-2.13c1.27,0-2.85-.03,2.86-.01v10.31c-.01,1.26.03,2.46-.03,3.77-.02.64-.03,1.28-.06,1.92l-.17,1.92c-.28,2.55-.69,5.09-1.35,7.56-2.55,9.94-7.72,18.94-14.01,26.83-.21.29-3.07,3.59-6.22,6.45-3.11,2.9-6.51,5.31-6.77,4.99-.23-.29,2.64-3.2,5.32-6.39,2.71-3.16,5.23-6.55,5.44-6.83Z"/><path class="cls-1" d="M117.53,174.06c-1.15.93-2.13,2.06-3,3.29-.88,1.22-1.58,2.57-2.19,3.98l-.84,2.17c-.13.36-.3.72-.41,1.09l-.3,1.12c-.19.75-.42,1.49-.58,2.24l-.34,2.28c-.16.76-.11,1.52-.15,2.29-.01.76-.08,1.53.04,2.28.08.76.14,1.52.24,2.27l.51,2.23c.83,2.93,2.14,5.73,3.9,8.27,3.58,5.05,8.49,9.18,13.87,12.49,5.37,3.36,11.19,6.02,17.19,8.2,12,4.34,24.66,6.98,37.4,8.04,3.19.29,6.38.39,9.57.45,3.18,0,6.39-.08,9.59-.29,6.38-.4,12.77-1.08,18.86-2.69.21-.06,1.65-.37,3.61-1,1.95-.62,4.45-1.58,6.5-3.07,1.02-.74,1.9-1.62,2.48-2.58.57-.96.8-2,.78-2.91-.02-.91-.27-1.69-.46-2.22-.19-.54-.32-.85-.23-.92.07-.05.36.15.73.64.38.48.84,1.27,1.06,2.36.22,1.08.12,2.46-.46,3.76-.58,1.29-1.54,2.47-2.63,3.43-2.2,1.94-4.84,3.17-6.87,3.98-2.05.81-3.54,1.22-3.76,1.29-6.41,1.69-12.94,2.37-19.43,2.78-3.25.21-6.5.28-9.78.29-3.27-.06-6.53-.17-9.78-.46-13-1.08-25.85-3.76-38.15-8.2-6.14-2.23-12.13-4.97-17.72-8.46-5.59-3.45-10.8-7.78-14.7-13.29-1.92-2.77-3.39-5.88-4.31-9.16l-.57-2.5c-.11-.84-.18-1.7-.27-2.54-.13-.85-.06-1.7-.04-2.55.04-.85,0-1.71.16-2.54l.37-2.52c.17-.83.42-1.63.63-2.45l.33-1.22c.12-.4.29-.79.44-1.18l.91-2.34c.67-1.55,1.46-3.08,2.47-4.49.99-1.41,2.15-2.74,3.51-3.84.18-.16,1.48-1.21,3.58-2.17,2.09-.98,5.06-1.6,7.94-1.42,2.88.17,5.65,1.06,7.38,2.43.42.38.8.72,1.01,1.23.24.49.09,1.11-.21,1.36-.15.11-.28.18-.4.25-.12.05-.23.06-.31.08-.17.03-.26.02-.28-.03-.02-.05.04-.13.15-.23l.2-.18.2-.25c.08-.2.07-.37-.1-.6-.16-.24-.52-.48-.89-.71-1.62-.89-4.23-1.42-6.78-1.32-2.57.09-5.06.83-6.77,1.77-1.72.93-2.74,1.86-2.9,2Z"/><path class="cls-1" d="M108.05,184.57c-3.44,4.99-5.81,10.62-7.97,16.39-1.07,2.89-2.12,5.83-3.35,8.74-1.21,2.91-2.67,5.81-4.62,8.43-.24.33-.46.67-.73.98l-.82.92c-.55.61-1.09,1.24-1.68,1.75l-1.73,1.62c-.58.54-1.14,1.09-1.78,1.58-1.25.98-2.42,2.06-3.77,2.92l-1.97,1.36c-.68.42-1.38.81-2.08,1.21-2.79,1.57-5.77,2.86-8.86,3.71-3.07.89-6.21,1.39-9.17,2.02-.22.06-2.79.38-5.11,1.17-.29.1-.58.19-.88.29-.26.12-.53.25-.8.38-.52.24-1.04.45-1.42.71-.81.48-1.42.76-1.56.62-.14-.14.21-.69.87-1.48.31-.42.77-.79,1.27-1.2.26-.21.53-.42.78-.63.3-.18.6-.35.89-.53,2.42-1.41,5.16-2.08,5.35-2.14,3.11-.65,6.1-1.13,8.99-1.98,2.9-.79,5.64-1.99,8.25-3.46.65-.38,1.3-.74,1.94-1.13l1.86-1.28c1.27-.81,2.39-1.84,3.58-2.77.6-.46,1.14-.99,1.7-1.51l1.66-1.56c.58-.51,1.05-1.06,1.54-1.6l.73-.82c.24-.28.43-.59.65-.89,1.76-2.35,3.12-5.03,4.29-7.84,1.18-2.8,2.21-5.71,3.3-8.63,2.18-5.83,4.65-11.73,8.27-16.98.06-.09.52-.68,1.17-1.5.64-.83,1.62-1.78,2.53-2.75.23-.23.46-.47.7-.71.24-.21.48-.41.73-.62.48-.4.92-.76,1.32-1.06.79-.6,1.36-.93,1.49-.79.14.14-.16.74-.69,1.56-.26.41-.58.87-.93,1.36-.18.25-.37.5-.54.75-.18.28-.35.55-.52.81-.68,1.1-1.46,2.13-1.95,3-.51.86-.87,1.46-.93,1.55Z"/><path class="cls-1" d="M11.47,275.02c7.89-6.29,16.9-11.46,26.83-14.01,2.47-.66,5.01-1.07,7.56-1.35l1.92-.17c.64-.04,1.28-.04,1.92-.06,1.3-.06,2.51-.02,3.77-.03h10.31c.02,5.71,0,1.58-.01,2.86h-2.13c0-1.27-.03,2.85-.02-2.86h7.1-.01s1.36-1.16,1.36-1.16c.94-.85,1.96-1.62,2.97-2.39.99-.8,2.05-1.5,3.1-2.22,4.21-2.85,8.74-5.22,13.44-7.13,4.7-1.9,9.56-3.39,14.49-4.48,4.93-1.08,9.92-1.84,14.93-2.35.18-.04,1.35-.07,3-.14.81-.02,1.76-.05,2.78-.08.98.01,2.04.02,3.13.03,2.11,0,4.2.14,5.76.29,1.56.15,2.58.32,2.58.52s-1.03.4-2.57.59c-1.83.2-3.8.41-5.69.61-1.07.11-2.11.22-3.07.31-1,.13-1.92.24-2.72.34-1.62.2-2.76.32-2.93.35-4.91.5-9.78,1.25-14.59,2.29-4.8,1.06-9.5,2.51-14.04,4.34-4.53,1.84-8.88,4.11-12.92,6.85-1,.69-2.02,1.36-2.97,2.13-.96.75-1.94,1.47-2.85,2.29l-1.47,1.27c-.26.2-.46.46-.74.57h-8.08c0-5.71.02-1.58.02-2.86h2.13c0,1.27.03-2.85.01,2.86h-10.31c-1.23.01-2.52-.03-3.71.03-.6.02-1.21.03-1.81.06l-1.81.16c-2.4.26-4.8.65-7.14,1.28-9.42,2.41-18.11,7.37-25.76,13.48-.28.21-3.67,2.73-6.83,5.44-3.19,2.67-6.1,5.55-6.39,5.32-.33-.26,2.09-3.66,4.99-6.77,2.86-3.14,6.16-6,6.45-6.22Z"/></g></svg>