<?xml version="1.0" encoding="UTF-8"?><svg id="Line" xmlns="http://www.w3.org/2000/svg" viewBox="0 0 294.9 294.9"><defs><style>.cls-1{fill:#fff;stroke-width:0px;}</style></defs><g id="Corner_3_Lines"><path class="cls-1" d="M161,258.47c-4.75,2.4-9.69,4.35-14.7,6.03-5.03,1.62-10.13,2.97-15.27,4.11-10.29,2.22-20.71,3.72-31.15,4.74-20.88,2.09-41.86,2.39-62.73,2.88-.37.01-4.86-.04-9.25-.1-2.2-.04-4.37-.05-6-.1-1.62-.02-2.72-.11-2.74-.31-.02-.2,1.03-.48,2.65-.8,1.62-.29,3.79-.59,5.99-.81,4.4-.46,8.9-.72,9.27-.74,20.91-.49,41.79-.79,62.53-2.87,10.36-1.01,20.67-2.49,30.82-4.68,5.06-1.12,10.07-2.46,14.99-4.04,4.9-1.64,9.7-3.55,14.28-5.86.15-.08,1.19-.6,2.74-1.38.38-.19.78-.39,1.22-.6.41-.24.84-.48,1.29-.74.87-.5,1.81-1.04,2.78-1.59,3.68-2.28,6.96-5.04,7.27-4.74.26.24-2.58,3.58-6.11,6.39-.89.68-1.81,1.32-2.68,1.95-.44.31-.86.61-1.26.9-.42.26-.83.5-1.2.73-1.54.92-2.58,1.54-2.74,1.63Z"/><path class="cls-1" d="M38.97,135.2c-2.31,4.59-4.22,9.39-5.86,14.28-1.58,4.92-2.91,9.93-4.04,14.99-2.19,10.14-3.67,20.45-4.68,30.82-2.08,20.73-2.38,41.61-2.87,62.53-.01.37-.28,4.87-.74,9.27-.22,2.2-.52,4.38-.81,5.99-.32,1.62-.6,2.67-.8,2.65-.2-.02-.28-1.11-.31-2.74-.05-1.63-.06-3.8-.1-6-.06-4.39-.12-8.88-.1-9.25.49-20.87.79-41.85,2.88-62.73,1.02-10.44,2.51-20.86,4.74-31.15,1.14-5.14,2.5-10.24,4.11-15.27,1.68-5.01,3.64-9.95,6.03-14.7.09-.15.71-1.19,1.63-2.74.23-.37.47-.77.73-1.2.28-.4.58-.82.9-1.26.62-.87,1.27-1.79,1.95-2.68,2.81-3.53,6.15-6.37,6.39-6.11h0c.3.31-2.46,3.59-4.74,7.27-.55.96-1.09,1.9-1.59,2.78-.26.45-.51.88-.74,1.29-.21.43-.41.84-.6,1.22-.78,1.55-1.3,2.59-1.38,2.74Z"/><path class="cls-1" d="M119.64,247.01c-2.74,1.38-5.58,2.51-8.46,3.47-2.89.93-5.81,1.7-8.75,2.36-5.89,1.27-11.84,2.13-17.8,2.71-11.92,1.2-23.88,1.36-35.76,1.64-.21,0-2.77-.09-5.26-.24-2.5-.17-4.94-.28-4.99-.67-.05-.39,2.39-1,4.9-1.35,2.51-.37,5.07-.59,5.28-.6,11.91-.28,23.78-.45,35.55-1.63,5.88-.57,11.73-1.41,17.47-2.65,2.87-.64,5.7-1.39,8.48-2.28,2.76-.93,5.47-2,8.04-3.3.18-.11,2.45-1.09,4.6-2.26,2.13-1.18,4.09-2.63,4.39-2.34.27.25-1.25,2.28-3.23,3.99-1.98,1.68-4.26,3.04-4.45,3.15Z"/><path class="cls-1" d="M50.43,176.57c-1.3,2.57-2.37,5.28-3.3,8.04-.89,2.78-1.65,5.61-2.28,8.48-1.24,5.74-2.08,11.59-2.65,17.47-1.18,11.77-1.35,23.64-1.63,35.55,0,.21-.23,2.77-.6,5.28-.35,2.51-.96,4.95-1.35,4.9-.39-.05-.5-2.49-.67-4.99-.15-2.5-.25-5.05-.24-5.26.28-11.87.45-23.84,1.64-35.76.58-5.96,1.43-11.91,2.71-17.8.65-2.94,1.43-5.87,2.36-8.75.97-2.88,2.09-5.72,3.47-8.46.11-.19,1.47-2.47,3.15-4.45,1.71-1.97,3.74-3.5,3.99-3.23.28.3-1.16,2.26-2.34,4.39-1.17,2.15-2.16,4.42-2.26,4.6Z"/><path class="cls-1" d="M129.62,224.17c1.02-4.02,1.52-8.18,1.46-12.35-.14-4.16-.68-8.31-1.82-12.32-2.28-8.01-6.74-15.33-12.6-21.27-5.94-5.86-13.26-10.32-21.27-12.6-4.01-1.14-8.16-1.68-12.32-1.82-4.17-.06-8.33.44-12.35,1.46-.13.03-1.04.24-2.42.56-1.29.42-3.03.85-4.63,1.56-.4.16-.81.31-1.22.47-.37.18-.75.37-1.13.56l-1.06.51-.5.23-.43.26c-1.12.67-1.93,1.08-2.07.93-.13-.14.44-.84,1.41-1.83l.38-.38.45-.35.99-.75c.35-.25.71-.53,1.09-.79.4-.23.81-.46,1.2-.69,1.6-.99,3.36-1.65,4.7-2.24,1.37-.49,2.36-.77,2.51-.82,4.29-1.09,8.7-1.61,13.11-1.55,4.4.14,8.8.71,13.05,1.93,8.5,2.41,16.26,7.16,22.51,13.33,6.17,6.25,10.92,14.02,13.33,22.51,1.21,4.25,1.78,8.65,1.93,13.05.06,4.41-.46,8.83-1.55,13.11-.05.15-.34,1.14-.82,2.51-.59,1.34-1.25,3.1-2.24,4.7-.23.39-.46.8-.69,1.2-.25.38-.53.74-.79,1.09l-.75.99-.35.45-.38.38c-.99.97-1.68,1.54-1.83,1.41s.26-.95.93-2.07l.26-.43.23-.5.51-1.06c.19-.38.37-.75.56-1.13.16-.41.32-.82.47-1.22.71-1.6,1.13-3.34,1.56-4.63.32-1.38.53-2.29.56-2.42Z"/><path class="cls-1" d="M186.92,277.67c-.88-4.92-2.66-9.74-4.69-14.42-2.05-4.69-4.42-9.25-6.94-13.74-5.07-8.96-10.76-17.59-16.75-25.99-6-8.4-12.33-16.58-18.92-24.53-6.6-7.94-13.46-15.68-20.73-22.97-7.3-7.27-15.03-14.13-22.97-20.73-7.95-6.6-16.13-12.92-24.53-18.92-8.41-5.99-17.03-11.68-25.99-16.75-4.48-2.52-9.05-4.9-13.74-6.94-4.68-2.03-9.51-3.81-14.42-4.69-.18-.01-.83-.18-1.85-.29-1.02-.15-2.4-.27-3.98-.21-1.58.07-3.38.34-5,1.2-.42.19-.78.47-1.18.72-.35.3-.73.58-1.06.95-.68.7-1.26,1.5-1.66,2.37-.83,1.74-.87,3.79-.33,5.59.53,1.81,1.5,3.38,2.5,4.55,1,1.18,2.05,1.97,2.83,2.37.79.42,1.32.39,1.33.5.03.08-.57.32-1.54.04-.96-.27-2.21-.98-3.43-2.15-1.21-1.16-2.44-2.77-3.21-4.81-.78-2.02-.94-4.59-.01-6.88.44-1.14,1.11-2.17,1.89-3.07.37-.46.83-.86,1.27-1.26.48-.35.94-.73,1.45-1,2.02-1.19,4.17-1.59,5.98-1.75,1.82-.15,3.36-.06,4.47.06,1.13.09,1.83.24,2.02.26,5.3.95,10.27,2.81,15.08,4.89,4.81,2.1,9.45,4.51,14,7.07,9.08,5.14,17.78,10.88,26.25,16.92,8.46,6.05,16.69,12.41,24.69,19.05,7.99,6.65,15.78,13.55,23.17,20.91,7.36,7.39,14.26,15.18,20.91,23.17,6.64,8,13,16.23,19.05,24.69,6.04,8.47,11.78,17.17,16.92,26.25,2.56,4.55,4.97,9.19,7.07,14,2.08,4.81,3.94,9.78,4.89,15.08.02.19.17.9.26,2.02.12,1.12.2,2.65.06,4.47-.16,1.81-.56,3.96-1.75,5.98-.27.51-.65.98-1,1.45-.41.44-.81.9-1.26,1.27-.89.77-1.93,1.44-3.07,1.89-2.29.92-4.86.77-6.88-.01-2.05-.77-3.65-2-4.81-3.21-1.17-1.22-1.87-2.47-2.15-3.43-.29-.98-.05-1.57.04-1.54.11.02.08.54.5,1.33.41.79,1.19,1.83,2.37,2.83,1.17,1,2.74,1.97,4.55,2.5,1.8.54,3.85.5,5.59-.33.87-.4,1.67-.98,2.37-1.66.37-.33.65-.71.95-1.06.25-.39.54-.76.72-1.18.86-1.62,1.13-3.43,1.2-5,.06-1.59-.06-2.97-.21-3.98-.12-1.02-.28-1.68-.29-1.85Z"/><path class="cls-1" d="M24.4,26.74c1.27,7.13,3.85,14.08,6.77,20.82,2.95,6.75,6.36,13.31,9.98,19.75,7.28,12.87,15.45,25.25,24.05,37.31,8.61,12.06,17.69,23.79,27.15,35.19,9.47,11.39,19.32,22.49,29.76,32.98,10.48,10.44,21.58,20.28,32.98,29.76,11.4,9.47,23.14,18.54,35.19,27.15,12.06,8.6,24.44,16.77,37.31,24.05,6.44,3.63,13,7.04,19.75,9.98,6.74,2.92,13.69,5.49,20.82,6.77.26.02,1.21.25,2.69.42,1.48.21,3.49.38,5.82.27,2.31-.12,4.98-.53,7.38-1.83.62-.29,1.17-.71,1.75-1.1.52-.46,1.08-.89,1.56-1.44.99-1.05,1.84-2.24,2.43-3.55,1.21-2.62,1.23-5.66.4-8.29-.81-2.65-2.26-4.9-3.74-6.58-1.48-1.69-3.02-2.8-4.19-3.35-1.17-.57-1.94-.49-1.96-.6-.04-.08.81-.38,2.16.07,1.34.42,3.09,1.45,4.79,3.12,1.69,1.67,3.4,3.96,4.45,6.84,1.07,2.85,1.25,6.42-.05,9.58-.63,1.57-1.57,3.01-2.65,4.25-.52.64-1.16,1.19-1.77,1.75-.67.48-1.31,1.01-2.02,1.38-2.8,1.64-5.82,2.18-8.36,2.39-2.56.19-4.73.06-6.31-.12-1.59-.14-2.59-.36-2.86-.38-7.51-1.35-14.6-3.99-21.47-6.96-6.87-3-13.51-6.45-20.01-10.11-12.99-7.35-25.44-15.57-37.57-24.21-12.12-8.66-23.9-17.77-35.36-27.28-11.45-9.52-22.6-19.41-33.17-29.94-10.53-10.57-20.42-21.72-29.94-33.17-9.51-11.46-18.62-23.24-27.28-35.36-8.64-12.13-16.86-24.58-24.21-37.57-3.66-6.5-7.11-13.14-10.11-20.01-2.97-6.87-5.62-13.96-6.96-21.47-.02-.27-.24-1.27-.38-2.86-.18-1.58-.31-3.75-.12-6.31.21-2.54.75-5.55,2.39-8.36.37-.72.89-1.36,1.38-2.02.56-.61,1.11-1.25,1.75-1.77,1.24-1.09,2.67-2.03,4.25-2.65,3.16-1.3,6.73-1.12,9.58-.05,2.88,1.05,5.18,2.75,6.84,4.45,1.68,1.7,2.7,3.45,3.13,4.79.44,1.36.14,2.2.07,2.16-.11-.02-.03-.78-.6-1.96-.55-1.16-1.66-2.71-3.35-4.19-1.68-1.48-3.93-2.93-6.58-3.74-2.63-.83-5.68-.81-8.29.4-1.31.59-2.5,1.44-3.55,2.43-.55.48-.98,1.04-1.44,1.56-.38.58-.81,1.12-1.1,1.75-1.3,2.41-1.71,5.07-1.83,7.38-.11,2.32.06,4.34.27,5.82.16,1.48.4,2.43.42,2.69Z"/><path class="cls-1" d="M243.61,276.32h-29.51,0s0,0,0,0l-.12.11c-.77.71-1.66,1.28-2.56,1.79-3.73,1.93-7.88,2.13-11.71,1.78-3.87-.36-7.59-1.31-11.21-2.47-3.61-1.18-7.12-2.59-10.55-4.15-6.86-3.12-13.44-6.76-19.85-10.66-12.8-7.82-24.93-16.62-36.62-25.96-11.67-9.36-22.9-19.28-33.5-29.85-10.58-10.6-20.5-21.82-29.85-33.5-9.33-11.69-18.14-23.82-25.96-36.62-3.9-6.4-7.54-12.98-10.66-19.85-1.56-3.43-2.97-6.94-4.15-10.55-1.16-3.62-2.11-7.33-2.47-11.21-.34-3.83-.15-7.98,1.78-11.71.51-.9,1.08-1.79,1.79-2.56l.11-.12h0s0-.15,0-.15v-29.36c0-1.07.16-13.89.42-26.44.13-6.28.28-12.49.45-17.13.17-4.64.36-7.71.55-7.71s.38,3.07.55,7.71c.17,4.64.32,10.85.45,17.13.26,12.56.42,25.38.42,26.44v30.6l-.82.92c-.56.6-.99,1.3-1.41,2.01-1.54,2.95-1.79,6.57-1.46,10.11.33,3.56,1.23,7.11,2.34,10.59,1.14,3.48,2.5,6.9,4.03,10.25,3.05,6.72,6.64,13.21,10.5,19.54,7.73,12.66,16.47,24.71,25.74,36.32,9.29,11.59,19.16,22.75,29.64,33.26,10.51,10.49,21.67,20.35,33.26,29.64,11.61,9.27,23.66,18.02,36.32,25.74,6.33,3.85,12.82,7.44,19.54,10.5,3.35,1.53,6.78,2.89,10.25,4.03,3.48,1.11,7.03,2.02,10.59,2.34,3.53.33,7.16.08,10.11-1.46.71-.41,1.41-.85,2.01-1.41l.92-.82h30.6c1.07,0,13.89.16,26.44.42,6.28.13,12.49.28,17.13.45,4.64.17,7.71.36,7.71.55s-3.07.38-7.71.55c-4.64.17-10.85.32-17.13.45-12.56.26-25.38.42-26.44.42Z"/></g></svg>