<?xml version="1.0" encoding="UTF-8"?><svg id="Line" xmlns="http://www.w3.org/2000/svg" viewBox="0 0 571.86 569.4"><defs><style>.cls-1{fill:#fff;stroke-width:0px;}</style></defs><g id="DecorativeElement_8_Lines"><path class="cls-1" d="M347.24,452.7c8.52-3.18,16.82-6.95,24.81-11.3,7.98-4.37,15.56-9.44,22.79-14.95,7.25-5.49,13.98-11.66,20.27-18.22,3.2-3.23,6.12-6.73,9.08-10.18l4.22-5.36c.72-.88,1.37-1.82,2.03-2.74l1.98-2.78c.65-.93,1.33-1.84,1.96-2.79l1.84-2.87c1.2-1.93,2.51-3.79,3.6-5.79l3.39-5.92,3.11-6.07c3.98-8.18,7.43-16.61,10.17-25.29,2.68-8.69,4.73-17.57,6.18-26.55,1.3-9,1.97-18.09,2.05-27.19-.08-9.1-.75-18.18-2.05-27.19-1.44-8.98-3.5-17.86-6.18-26.55-2.75-8.67-6.19-17.11-10.17-25.29l-3.11-6.07-3.39-5.92c-1.09-2-2.4-3.86-3.6-5.79l-1.84-2.87c-.63-.95-1.31-1.86-1.96-2.79l-1.98-2.78c-.66-.93-1.3-1.86-2.03-2.74l-4.22-5.36c-2.96-3.45-5.88-6.95-9.08-10.18-6.29-6.56-13.02-12.73-20.27-18.22-7.23-5.51-14.81-10.58-22.79-14.95-7.99-4.35-16.28-8.12-24.81-11.3-.31-.11-1.46-.51-3.24-1.13-.89-.31-1.94-.68-3.12-1.09-.59-.21-1.21-.42-1.87-.65-.66-.2-1.35-.4-2.07-.61-2.88-.83-6.14-1.92-9.7-2.71-1.77-.43-3.59-.88-5.44-1.33-1.86-.36-3.75-.73-5.64-1.1-.94-.19-1.88-.37-2.82-.55-.94-.14-1.88-.28-2.81-.42-1.86-.27-3.69-.54-5.46-.8-3.55-.43-6.86-.7-9.69-1.02-5.68-.33-9.45-.6-9.45-.8,0-.19,3.78-.3,9.51-.3,2.86.15,6.21.26,9.8.54,1.8.19,3.65.39,5.54.59.95.1,1.9.21,2.86.32.95.15,1.91.31,2.87.46,1.92.31,3.84.62,5.74.93,1.88.4,3.74.8,5.54,1.18,3.63.71,6.97,1.72,9.91,2.49.73.2,1.44.39,2.12.57.67.22,1.3.42,1.91.62,1.21.39,2.28.74,3.19,1.04,1.83.6,3,.99,3.32,1.09,8.66,3.23,17.09,7.06,25.2,11.48,8.11,4.44,15.81,9.59,23.16,15.19,7.37,5.58,14.2,11.84,20.6,18.51,3.25,3.29,6.22,6.84,9.22,10.34l4.28,5.45c.73.89,1.39,1.84,2.06,2.79l2.01,2.82c.66.95,1.35,1.87,1.99,2.83l1.87,2.92c1.22,1.96,2.55,3.85,3.66,5.88l3.45,6.01,3.16,6.17c4.04,8.31,7.55,16.88,10.34,25.69,2.72,8.83,4.81,17.85,6.28,26.98,1.33,9.15,2,18.38,2.09,27.62-.08,9.24-.76,18.47-2.09,27.62-1.46,9.13-3.55,18.14-6.28,26.98-2.79,8.81-6.29,17.39-10.34,25.69l-3.16,6.17-3.45,6.01c-1.11,2.03-2.43,3.93-3.66,5.88l-1.87,2.92c-.64.96-1.33,1.89-1.99,2.83l-2.01,2.82c-.67.94-1.33,1.89-2.06,2.79l-4.28,5.45c-3.01,3.51-5.97,7.06-9.22,10.34-6.39,6.67-13.23,12.93-20.6,18.51-7.35,5.6-15.05,10.75-23.16,15.19-8.12,4.42-16.54,8.25-25.2,11.48-.31.1-1.49.49-3.32,1.09-.91.3-1.98.65-3.19,1.04-.6.19-1.24.4-1.91.62-.68.18-1.38.38-2.12.57-2.94.77-6.28,1.79-9.91,2.49-1.8.38-3.66.78-5.54,1.18-1.9.31-3.82.62-5.74.93-.96.15-1.91.31-2.87.46-.96.11-1.91.21-2.86.32-1.88.2-3.74.4-5.54.59-3.59.28-6.94.39-9.8.54-5.73,0-9.51-.11-9.51-.3,0-.2,3.78-.47,9.45-.8,2.83-.32,6.15-.59,9.69-1.02,1.77-.26,3.6-.53,5.46-.8.93-.14,1.87-.28,2.81-.42.94-.18,1.88-.37,2.82-.55,1.89-.37,3.77-.74,5.64-1.1,1.85-.45,3.67-.9,5.44-1.33,3.56-.79,6.83-1.88,9.7-2.71.72-.21,1.41-.42,2.07-.61.65-.23,1.28-.44,1.87-.65,1.18-.41,2.23-.78,3.12-1.09,1.79-.62,2.94-1.02,3.24-1.13Z"/><path class="cls-1" d="M223.63,455.39c-8.66-3.23-17.09-7.06-25.2-11.48-8.11-4.44-15.81-9.59-23.16-15.19-7.37-5.58-14.2-11.84-20.6-18.51-3.25-3.29-6.22-6.84-9.22-10.34l-4.28-5.45c-.73-.89-1.39-1.84-2.06-2.79l-2.01-2.82c-.66-.95-1.35-1.87-1.99-2.83l-1.87-2.92c-1.22-1.96-2.55-3.85-3.66-5.88l-3.45-6.01-3.16-6.17c-4.04-8.31-7.55-16.88-10.34-25.69-2.72-8.83-4.81-17.85-6.28-26.98-1.33-9.15-2-18.38-2.09-27.62.08-9.24.76-18.47,2.09-27.62,1.46-9.13,3.55-18.14,6.28-26.98,2.79-8.81,6.29-17.39,10.34-25.69l3.16-6.17,3.45-6.01c1.11-2.03,2.43-3.93,3.66-5.88l1.87-2.92c.64-.96,1.33-1.89,1.99-2.83l2.01-2.82c.67-.94,1.33-1.89,2.06-2.79l4.28-5.45c3.01-3.51,5.97-7.06,9.22-10.34,6.39-6.67,13.23-12.93,20.6-18.51,7.35-5.6,15.05-10.75,23.16-15.19,8.12-4.42,16.54-8.25,25.2-11.48.31-.1,1.49-.49,3.32-1.09.91-.3,1.98-.65,3.19-1.04.6-.19,1.24-.4,1.91-.62.68-.18,1.38-.38,2.12-.57,2.94-.77,6.28-1.79,9.91-2.49,1.8-.38,3.66-.78,5.54-1.18,1.9-.31,3.82-.62,5.74-.93.96-.15,1.91-.31,2.87-.46.96-.11,1.91-.21,2.86-.32,1.88-.2,3.74-.4,5.54-.59,3.59-.28,6.94-.39,9.8-.54,5.73,0,9.51.11,9.51.3,0,.2-3.78.47-9.45.8-2.83.32-6.15.59-9.69,1.02-1.77.26-3.6.53-5.46.8-.93.14-1.87.28-2.81.42-.94.18-1.88.37-2.82.55-1.89.37-3.77.74-5.64,1.1-1.85.45-3.67.9-5.44,1.33-3.56.79-6.83,1.88-9.7,2.71-.72.21-1.41.42-2.07.61-.65.23-1.28.44-1.87.65-1.18.41-2.23.78-3.12,1.09-1.79.62-2.94,1.02-3.24,1.13-8.52,3.18-16.82,6.95-24.81,11.3-7.98,4.37-15.56,9.44-22.79,14.95-7.25,5.49-13.98,11.66-20.27,18.22-3.2,3.23-6.12,6.73-9.08,10.18l-4.22,5.36c-.72.88-1.37,1.82-2.03,2.74l-1.98,2.78c-.65.93-1.33,1.84-1.96,2.79l-1.84,2.87c-1.2,1.93-2.51,3.79-3.6,5.79l-3.39,5.92-3.11,6.07c-3.98,8.18-7.43,16.61-10.17,25.29-2.68,8.69-4.73,17.57-6.18,26.55-1.3,9-1.97,18.09-2.05,27.19.08,9.1.75,18.18,2.05,27.19,1.44,8.98,3.5,17.86,6.18,26.55,2.75,8.67,6.19,17.11,10.17,25.29l3.11,6.07,3.39,5.92c1.09,2,2.4,3.86,3.6,5.79l1.84,2.87c.63.95,1.31,1.86,1.96,2.79l1.98,2.78c.66.93,1.3,1.86,2.03,2.74l4.22,5.36c2.96,3.45,5.88,6.95,9.08,10.18,6.29,6.56,13.02,12.73,20.27,18.22,7.23,5.51,14.81,10.58,22.79,14.95,7.99,4.35,16.28,8.12,24.81,11.3.31.11,1.46.51,3.24,1.13.89.31,1.94.68,3.12,1.09.59.21,1.21.42,1.87.65.66.2,1.35.4,2.07.61,2.88.83,6.14,1.92,9.7,2.71,1.77.43,3.59.88,5.44,1.33,1.86.36,3.75.73,5.64,1.1.94.19,1.88.37,2.82.55.94.14,1.88.28,2.81.42,1.86.27,3.69.54,5.46.8,3.55.43,6.86.7,9.69,1.02,5.68.33,9.45.6,9.45.8,0,.19-3.78.3-9.51.3-2.86-.15-6.21-.26-9.8-.54-1.8-.19-3.65-.39-5.54-.59-.95-.1-1.9-.21-2.86-.32-.95-.15-1.91-.31-2.87-.46-1.92-.31-3.84-.62-5.74-.93-1.88-.4-3.74-.8-5.54-1.18-3.63-.71-6.97-1.72-9.91-2.49-.73-.2-1.44-.39-2.12-.57-.67-.22-1.3-.42-1.91-.62-1.21-.39-2.28-.74-3.19-1.04-1.83-.6-3-.99-3.32-1.09Z"/><path class="cls-1" d="M383,550.68c13.5-5.03,26.63-11.01,39.27-17.89l9.36-5.38c3.09-1.84,6.08-3.86,9.12-5.78l2.27-1.46,1.14-.73,1.1-.78,4.4-3.13c2.93-2.09,5.9-4.12,8.69-6.41,11.49-8.69,22.14-18.46,32.1-28.84,5.07-5.12,9.69-10.65,14.37-16.12l6.67-8.49c1.14-1.39,2.17-2.88,3.21-4.34l3.13-4.4c1.03-1.47,2.11-2.92,3.11-4.42l2.91-4.55,2.91-4.55c.48-.76.99-1.51,1.44-2.28l1.35-2.34,5.37-9.37,4.92-9.61c6.3-12.94,11.76-26.3,16.11-40.04,4.24-13.76,7.49-27.82,9.78-42.04,2.07-14.26,3.12-28.64,3.25-43.04-.13-14.4-1.19-28.79-3.25-43.04-2.28-14.22-5.54-28.27-9.78-42.04-4.35-13.73-9.81-27.09-16.11-40.04l-4.92-9.61-5.37-9.37-1.35-2.34c-.45-.78-.96-1.52-1.44-2.28l-2.91-4.55-2.91-4.55c-1-1.5-2.07-2.94-3.11-4.42l-3.13-4.4c-1.04-1.47-2.07-2.95-3.21-4.34l-6.67-8.49c-4.69-5.46-9.3-11-14.37-16.12-9.96-10.39-20.61-20.15-32.1-28.84-2.79-2.28-5.76-4.32-8.69-6.41l-4.4-3.13-1.1-.78-1.14-.73-2.27-1.46c-3.04-1.92-6.03-3.94-9.12-5.78l-9.36-5.38c-12.65-6.89-25.78-12.86-39.27-17.89-.49-.17-2.31-.8-5.14-1.77-1.41-.49-3.08-1.06-4.95-1.71-.94-.32-1.92-.66-2.96-1.02-1.05-.31-2.15-.63-3.28-.96-4.56-1.29-9.74-2.99-15.38-4.21-2.81-.67-5.69-1.39-8.62-2.05-2.95-.56-5.94-1.12-8.93-1.69-1.49-.28-2.98-.57-4.46-.85-1.49-.21-2.98-.42-4.45-.63-2.94-.41-5.84-.82-8.64-1.21-1.4-.23-2.78-.3-4.13-.44-1.35-.12-2.67-.24-3.96-.36-2.56-.24-4.99-.47-7.24-.68-4.42-.23-8.13-.42-10.84-.56-2.61-.16-4.1-.29-4.1-.39s1.49-.16,4.11-.18c2.62-.02,6.37-.04,10.89.02,2.26.13,4.71.28,7.29.43,1.3.08,2.63.16,3.99.24,1.36.1,2.76.13,4.17.32,2.83.32,5.75.66,8.72,1,1.49.18,2.99.35,4.5.53,1.5.25,3,.5,4.51.75,3.02.51,6.04,1.02,9.03,1.52,2.96.62,5.88,1.29,8.72,1.91,5.71,1.14,10.96,2.76,15.58,4,1.15.32,2.27.63,3.33.92,1.05.34,2.05.67,3,.98,1.9.63,3.58,1.19,5.02,1.66,2.87.95,4.72,1.57,5.21,1.73,13.63,5.08,26.9,11.12,39.67,18.07l9.46,5.44c3.12,1.86,6.14,3.9,9.22,5.84l2.3,1.47,1.15.74,1.11.79,4.45,3.16c2.96,2.11,5.96,4.17,8.78,6.47,11.6,8.78,22.36,18.64,32.42,29.13,5.12,5.17,9.78,10.76,14.51,16.28l6.74,8.58c1.15,1.41,2.19,2.9,3.24,4.39l3.16,4.45c1.04,1.49,2.13,2.95,3.14,4.46l2.94,4.59,2.94,4.59c.48.77,1,1.52,1.46,2.31l1.36,2.36,5.43,9.46,4.97,9.71c6.37,13.07,11.88,26.57,16.27,40.44,4.28,13.9,7.57,28.1,9.88,42.46,2.09,14.4,3.15,28.93,3.29,43.47-.13,14.55-1.2,29.07-3.29,43.47-2.31,14.36-5.59,28.56-9.88,42.46-4.39,13.87-9.9,27.37-16.27,40.44l-4.97,9.71-5.43,9.46-1.36,2.36c-.46.79-.97,1.54-1.46,2.31l-2.94,4.59-2.94,4.59c-1.01,1.51-2.09,2.97-3.14,4.46l-3.16,4.45c-1.05,1.48-2.09,2.98-3.24,4.39l-6.74,8.58c-4.73,5.52-9.4,11.11-14.51,16.28-10.06,10.49-20.82,20.35-32.42,29.13-2.81,2.31-5.82,4.36-8.78,6.47l-4.45,3.16-1.11.79-1.15.74-2.3,1.47c-3.08,1.94-6.09,3.98-9.22,5.84l-9.46,5.44c-12.78,6.96-26.04,12.99-39.67,18.07-.49.16-2.34.78-5.21,1.73-1.43.47-3.12,1.03-5.02,1.66-.95.31-1.95.64-3,.98-1.06.29-2.18.6-3.33.92-4.62,1.24-9.87,2.86-15.58,4-2.84.62-5.76,1.29-8.72,1.91-2.99.5-6.01,1.01-9.03,1.52-1.51.25-3.01.5-4.51.75-1.51.18-3.01.35-4.5.53-2.97.34-5.89.67-8.72,1-1.41.19-2.81.23-4.17.32-1.36.08-2.69.16-3.99.24-2.58.15-5.02.3-7.29.43-4.52.06-8.27.04-10.89.02-2.62-.03-4.11-.08-4.11-.18s1.49-.23,4.1-.39c2.71-.14,6.42-.33,10.84-.56,2.25-.21,4.68-.44,7.24-.68,1.29-.12,2.61-.24,3.96-.36,1.35-.14,2.74-.21,4.13-.44,2.8-.39,5.7-.8,8.64-1.21,1.47-.21,2.96-.42,4.45-.63,1.48-.28,2.97-.56,4.46-.85,2.98-.56,5.97-1.13,8.93-1.69,2.93-.67,5.81-1.39,8.62-2.05,5.64-1.23,10.82-2.92,15.38-4.21,1.14-.33,2.23-.65,3.28-.96,1.03-.35,2.02-.69,2.96-1.02,1.87-.65,3.53-1.22,4.95-1.71,2.83-.97,4.66-1.6,5.14-1.77Z"/><path class="cls-1" d="M187.87,553.37c-13.63-5.08-26.9-11.12-39.67-18.07l-9.46-5.44c-3.12-1.86-6.14-3.9-9.22-5.84l-2.3-1.47-1.15-.74-1.11-.79-4.45-3.16c-2.96-2.11-5.96-4.17-8.78-6.47-11.6-8.78-22.36-18.64-32.42-29.13-5.12-5.17-9.78-10.76-14.51-16.28l-6.74-8.58c-1.15-1.41-2.19-2.9-3.24-4.39l-3.16-4.45c-1.04-1.49-2.13-2.95-3.14-4.46l-2.94-4.59-2.94-4.59c-.48-.77-1-1.52-1.46-2.31l-1.36-2.36-5.43-9.46-4.97-9.71c-6.37-13.07-11.88-26.57-16.27-40.44-4.28-13.9-7.57-28.1-9.88-42.46-2.09-14.4-3.15-28.93-3.29-43.47.13-14.55,1.2-29.07,3.29-43.47,2.31-14.36,5.59-28.56,9.88-42.46,4.39-13.87,9.9-27.37,16.27-40.44l4.97-9.71,5.43-9.46,1.36-2.36c.46-.79.97-1.54,1.46-2.31l2.94-4.59,2.94-4.59c1.01-1.51,2.09-2.97,3.14-4.46l3.16-4.45c1.05-1.48,2.09-2.98,3.24-4.39l6.74-8.58c4.73-5.52,9.4-11.11,14.51-16.28,10.06-10.49,20.82-20.35,32.42-29.13,2.81-2.31,5.82-4.36,8.78-6.47l4.45-3.16,1.11-.79,1.15-.74,2.3-1.47c3.08-1.94,6.09-3.98,9.22-5.84l9.46-5.44c12.78-6.96,26.04-12.99,39.67-18.07.49-.16,2.34-.78,5.21-1.73,1.43-.47,3.12-1.03,5.02-1.66.95-.31,1.95-.64,3-.98,1.06-.29,2.18-.6,3.33-.92,4.62-1.24,9.87-2.86,15.58-4,2.84-.62,5.76-1.29,8.72-1.91,2.99-.5,6.01-1.01,9.03-1.52,1.51-.25,3.01-.5,4.51-.75,1.51-.18,3.01-.35,4.5-.53,2.97-.34,5.89-.67,8.72-1,1.41-.19,2.81-.23,4.17-.32,1.36-.08,2.69-.16,3.99-.24,2.58-.15,5.02-.3,7.29-.43,4.52-.06,8.27-.04,10.89-.02,2.62.03,4.11.08,4.11.18s-1.49.23-4.1.39c-2.71.14-6.42.33-10.84.56-2.25.21-4.68.44-7.24.68-1.29.12-2.61.24-3.96.36-1.35.14-2.74.21-4.13.44-2.8.39-5.7.8-8.64,1.21-1.47.21-2.96.42-4.45.63-1.48.28-2.97.56-4.46.85-2.98.56-5.97,1.13-8.93,1.69-2.93.67-5.81,1.39-8.62,2.05-5.64,1.23-10.82,2.92-15.38,4.21-1.14.33-2.23.65-3.28.96-1.03.35-2.02.69-2.96,1.02-1.87.65-3.53,1.22-4.95,1.71-2.83.97-4.66,1.6-5.14,1.77-13.5,5.03-26.63,11.01-39.27,17.89l-9.36,5.38c-3.09,1.84-6.08,3.86-9.12,5.78l-2.27,1.46-1.14.73-1.1.78-4.4,3.13c-2.93,2.09-5.9,4.12-8.69,6.41-11.49,8.69-22.14,18.46-32.1,28.84-5.07,5.12-9.69,10.65-14.37,16.12l-6.67,8.49c-1.14,1.39-2.17,2.88-3.21,4.34l-3.13,4.4c-1.03,1.47-2.11,2.92-3.11,4.42l-2.91,4.55-2.91,4.55c-.48.76-.99,1.51-1.44,2.28l-1.35,2.34-5.37,9.37-4.92,9.61c-6.3,12.94-11.76,26.3-16.11,40.04-4.24,13.76-7.49,27.82-9.78,42.04-2.07,14.26-3.12,28.64-3.25,43.04.13,14.4,1.19,28.79,3.25,43.04,2.28,14.22,5.54,28.27,9.78,42.04,4.35,13.73,9.81,27.09,16.11,40.04l4.92,9.61,5.37,9.37,1.35,2.34c.45.78.96,1.52,1.44,2.28l2.91,4.55,2.91,4.55c1,1.5,2.07,2.94,3.11,4.42l3.13,4.4c1.04,1.47,2.07,2.95,3.21,4.34l6.67,8.49c4.69,5.46,9.3,11,14.37,16.12,9.96,10.39,20.61,20.15,32.1,28.84,2.79,2.28,5.76,4.32,8.69,6.41l4.4,3.13,1.1.78,1.14.73,2.27,1.46c3.04,1.92,6.03,3.94,9.12,5.78l9.36,5.38c12.65,6.89,25.78,12.86,39.27,17.89.49.17,2.31.8,5.14,1.77,1.41.49,3.08,1.06,4.95,1.71.94.32,1.92.66,2.96,1.02,1.05.31,2.15.63,3.28.96,4.56,1.29,9.74,2.99,15.38,4.21,2.81.67,5.69,1.39,8.62,2.05,2.95.56,5.94,1.12,8.93,1.69,1.49.28,2.98.57,4.46.85,1.49.21,2.98.42,4.45.63,2.94.41,5.84.82,8.64,1.21,1.4.23,2.78.3,4.13.44,1.35.12,2.67.24,3.96.36,2.56.24,4.99.47,7.24.68,4.42.23,8.13.42,10.84.56,2.61.16,4.1.29,4.1.39s-1.49.16-4.11.18c-2.62.02-6.37.04-10.89-.02-2.26-.13-4.71-.28-7.29-.43-1.3-.08-2.63-.16-3.99-.24-1.36-.1-2.76-.13-4.17-.32-2.83-.32-5.75-.66-8.72-1-1.49-.18-2.99-.35-4.5-.53-1.5-.25-3-.5-4.51-.75-3.02-.51-6.04-1.02-9.03-1.52-2.96-.62-5.88-1.29-8.72-1.91-5.71-1.14-10.96-2.76-15.58-4-1.15-.32-2.27-.63-3.33-.92-1.05-.34-2.05-.67-3-.98-1.9-.63-3.58-1.19-5.02-1.66-2.87-.95-4.72-1.57-5.21-1.73Z"/><path class="cls-1" d="M412.71,256.67V61.11c0-1.16.64-28.03,1.43-28.03s1.43,26.86,1.43,28.03v195.56c0,1.16-.64,28.03-1.43,28.03s-1.43-26.86-1.43-28.03Z"/><path class="cls-1" d="M159.15,61.11v195.56c0,1.16-.64,28.03-1.43,28.03s-1.43-26.86-1.43-28.03V61.11c0-1.16.64-28.03,1.43-28.03s1.43,26.86,1.43,28.03Z"/><path class="cls-1" d="M271.74,33.09c-5.7,2.2-11.54,3.79-17.4,5.22-5.87,1.41-11.77,2.6-17.69,3.67-5.92,1.07-11.85,2.03-17.8,2.9l-17.81,2.51c-11.81,1.73-23.55,4.05-34.92,7.51-5.67,1.75-11.25,3.82-16.45,6.54-2.59,1.37-5.1,2.88-7.39,4.64-2.25,1.78-4.32,3.8-5.77,6.14-.05.08-.28.38-.53.88-.14.25-.3.54-.48.87-.16.34-.29.72-.46,1.13-.32.83-.54,1.82-.64,2.88-.04,1.06,0,2.21.35,3.3.12.56.39,1.07.59,1.6.28.49.52,1.01.86,1.43.6.91,1.35,1.63,2.02,2.2,1.37,1.13,2.55,1.52,2.5,1.73-.02.16-1.37.15-3.12-.81-.85-.49-1.82-1.17-2.65-2.12-.45-.45-.8-1-1.2-1.55-.32-.59-.7-1.17-.92-1.83-.55-1.28-.76-2.69-.81-4.02,0-1.33.19-2.59.5-3.63.17-.51.3-1,.47-1.42.19-.41.36-.77.5-1.08.27-.63.52-.99.58-1.08,1.72-2.76,4.02-4.98,6.46-6.91,2.47-1.89,5.11-3.49,7.82-4.91,5.43-2.84,11.15-4.95,16.93-6.74,11.58-3.53,23.44-5.86,35.34-7.61l17.81-2.51c5.92-.87,11.82-1.83,17.7-2.89,5.88-1.06,11.74-2.24,17.53-3.64,5.78-1.4,11.54-2.98,17.03-5.1.2-.07,1.49-.53,3.28-1.25,1.79-.72,4.06-1.75,6.11-3.04,2.06-1.27,3.82-2.91,4.66-4.44.9-1.51.94-2.78,1.18-2.77.15-.03.53,1.32-.17,3.23-.63,1.93-2.42,4.04-4.5,5.63-2.07,1.63-4.38,2.9-6.19,3.8-1.81.9-3.13,1.44-3.33,1.52Z"/><path class="cls-1" d="M142.16,102.35v159.49c0,.95-.64,22.86-1.43,22.86s-1.43-21.91-1.43-22.86V102.35c0-.95.64-22.86,1.43-22.86s1.43,21.91,1.43,22.86Z"/><path class="cls-1" d="M301.15,30.43c5.49,2.12,11.25,3.7,17.03,5.1,5.79,1.4,11.65,2.57,17.53,3.64,5.88,1.06,11.78,2.02,17.7,2.89l17.81,2.51c11.91,1.75,23.76,4.08,35.34,7.61,5.78,1.79,11.5,3.9,16.93,6.74,2.71,1.43,5.35,3.02,7.82,4.91,2.44,1.93,4.74,4.15,6.46,6.91.06.1.31.45.58,1.08.14.31.31.67.5,1.08.16.42.3.91.47,1.42.31,1.04.5,2.3.5,3.63-.05,1.33-.26,2.74-.81,4.02-.22.66-.6,1.24-.92,1.83-.4.54-.75,1.1-1.2,1.55-.83.95-1.8,1.63-2.65,2.12-1.75.96-3.1.98-3.12.81-.05-.22,1.13-.6,2.5-1.73.67-.58,1.42-1.29,2.02-2.2.34-.43.57-.94.86-1.43.2-.53.47-1.04.59-1.6.35-1.09.39-2.24.35-3.3-.1-1.07-.33-2.05-.64-2.88-.17-.41-.31-.8-.46-1.13-.18-.33-.34-.62-.48-.87-.25-.51-.48-.8-.53-.88-1.46-2.34-3.52-4.36-5.77-6.14-2.29-1.76-4.8-3.27-7.39-4.64-5.2-2.72-10.78-4.79-16.45-6.54-11.37-3.46-23.11-5.78-34.92-7.51l-17.81-2.51c-5.94-.87-11.88-1.83-17.8-2.9-5.92-1.07-11.82-2.26-17.69-3.67-5.86-1.42-11.7-3.02-17.4-5.22-.2-.08-1.52-.62-3.33-1.52-1.81-.89-4.12-2.16-6.19-3.8-2.08-1.59-3.87-3.7-4.5-5.63-.7-1.91-.31-3.26-.17-3.23.24,0,.27,1.26,1.18,2.77.83,1.54,2.6,3.17,4.66,4.44,2.05,1.3,4.32,2.32,6.11,3.04,1.79.72,3.08,1.18,3.28,1.25Z"/><path class="cls-1" d="M432.56,102.35v159.49c0,.95-.64,22.86-1.43,22.86s-1.43-21.91-1.43-22.86V102.35c0-.95.64-22.86,1.43-22.86s1.43,21.91,1.43,22.86Z"/><path class="cls-1" d="M185.32,42.86c16.07,5.41,32.82,8.7,49.68,10.72,16.88,2.05,33.91,2.8,50.93,2.81,17.02,0,34.05-.76,50.93-2.81,16.87-2.02,33.61-5.31,49.68-10.72.59-.16,7.53-2.37,14.23-4.89,6.71-2.5,13.19-5.26,13.36-4.89.16.34-6.01,3.74-12.59,6.75-6.56,3.03-13.51,5.58-14.1,5.74-16.3,5.49-33.24,8.81-50.25,10.84-17.02,2.07-34.16,2.82-51.27,2.83-17.11,0-34.25-.76-51.27-2.83-17.01-2.03-33.95-5.36-50.25-10.84-.59-.16-7.54-2.71-14.1-5.74-6.57-3.01-12.75-6.41-12.59-6.75.18-.37,6.66,2.39,13.36,4.89,6.7,2.52,13.65,4.73,14.23,4.89Z"/><path class="cls-1" d="M415.57,312.73v195.56c0,1.16-.64,28.03-1.43,28.03s-1.43-26.86-1.43-28.03v-195.56c0-1.16.64-28.03,1.43-28.03s1.43,26.86,1.43,28.03Z"/><path class="cls-1" d="M156.29,508.29v-195.56c0-1.16.64-28.03,1.43-28.03s1.43,26.86,1.43,28.03v195.56c0,1.16-.64,28.03-1.43,28.03s-1.43-26.86-1.43-28.03Z"/><path class="cls-1" d="M270.71,538.98c-5.49-2.12-11.25-3.7-17.03-5.1-5.79-1.4-11.65-2.57-17.53-3.64-5.88-1.06-11.78-2.02-17.7-2.89l-17.81-2.51c-11.91-1.75-23.76-4.08-35.34-7.61-5.78-1.79-11.5-3.9-16.93-6.74-2.71-1.43-5.35-3.02-7.82-4.91-2.44-1.93-4.74-4.15-6.46-6.91-.06-.1-.31-.45-.58-1.08-.14-.31-.31-.67-.5-1.08-.16-.42-.3-.91-.47-1.42-.31-1.04-.5-2.3-.5-3.63.05-1.33.26-2.74.81-4.02.22-.66.6-1.24.92-1.83.4-.54.75-1.1,1.2-1.54.83-.95,1.8-1.63,2.65-2.12,1.75-.96,3.1-.98,3.12-.81.05.22-1.13.6-2.5,1.73-.67.58-1.42,1.29-2.02,2.2-.34.43-.57.94-.86,1.43-.2.53-.47,1.04-.59,1.6-.35,1.09-.39,2.24-.35,3.3.1,1.07.33,2.05.64,2.88.17.41.31.8.46,1.13.18.33.34.62.48.87.25.51.48.8.53.88,1.46,2.34,3.52,4.36,5.77,6.14,2.29,1.76,4.8,3.27,7.39,4.64,5.2,2.72,10.78,4.79,16.45,6.54,11.37,3.46,23.11,5.78,34.92,7.51l17.81,2.51c5.94.87,11.88,1.83,17.8,2.9,5.92,1.07,11.82,2.26,17.69,3.67,5.86,1.42,11.7,3.02,17.4,5.22.2.08,1.52.62,3.33,1.52,1.81.89,4.12,2.16,6.19,3.8,2.08,1.59,3.87,3.7,4.5,5.63.7,1.91.31,3.26.17,3.23-.24,0-.27-1.26-1.18-2.77-.83-1.54-2.6-3.17-4.66-4.44-2.05-1.3-4.32-2.32-6.11-3.04-1.79-.73-3.08-1.18-3.28-1.25Z"/><path class="cls-1" d="M139.3,467.05v-159.49c0-.95.64-22.86,1.43-22.86s1.43,21.91,1.43,22.86v159.49c0,.95-.64,22.86-1.43,22.86s-1.43-21.91-1.43-22.86Z"/><path class="cls-1" d="M300.12,536.31c5.7-2.2,11.54-3.79,17.4-5.22,5.87-1.41,11.77-2.6,17.69-3.67,5.92-1.07,11.85-2.03,17.8-2.9l17.81-2.51c11.81-1.73,23.55-4.05,34.92-7.51,5.67-1.75,11.25-3.82,16.45-6.54,2.59-1.37,5.1-2.88,7.39-4.64,2.25-1.78,4.32-3.8,5.77-6.14.05-.08.28-.38.53-.88.14-.25.3-.54.48-.87.16-.34.29-.72.46-1.13.32-.83.54-1.82.64-2.88.04-1.06,0-2.21-.35-3.3-.12-.56-.39-1.07-.59-1.6-.28-.49-.52-1.01-.86-1.43-.6-.91-1.35-1.63-2.02-2.2-1.37-1.13-2.55-1.52-2.5-1.73.02-.16,1.37-.15,3.12.81.85.49,1.82,1.17,2.65,2.12.45.45.8,1,1.2,1.54.32.59.7,1.17.92,1.83.55,1.28.76,2.69.81,4.02,0,1.33-.19,2.59-.5,3.63-.17.51-.3,1-.47,1.42-.19.41-.36.77-.5,1.08-.27.63-.52.99-.58,1.08-1.72,2.76-4.02,4.98-6.46,6.91-2.47,1.89-5.11,3.49-7.82,4.91-5.43,2.84-11.15,4.95-16.93,6.74-11.58,3.53-23.44,5.86-35.34,7.61l-17.81,2.51c-5.92.87-11.82,1.83-17.7,2.89-5.88,1.06-11.74,2.24-17.53,3.64-5.78,1.4-11.54,2.98-17.03,5.1-.2.07-1.49.53-3.28,1.25-1.79.72-4.06,1.75-6.11,3.04-2.06,1.27-3.82,2.91-4.66,4.44-.9,1.51-.94,2.78-1.18,2.77-.15.03-.53-1.32.17-3.23.63-1.93,2.42-4.04,4.5-5.63,2.07-1.63,4.38-2.9,6.19-3.8,1.81-.9,3.13-1.44,3.33-1.52Z"/><path class="cls-1" d="M429.7,467.05v-159.49c0-.95.64-22.86,1.43-22.86s1.43,21.91,1.43,22.86v159.49c0,.95-.64,22.86-1.43,22.86s-1.43-21.91-1.43-22.86Z"/><path class="cls-1" d="M184.41,523.83c16.3-5.49,33.24-8.81,50.25-10.84,17.02-2.07,34.16-2.82,51.27-2.83,17.11,0,34.25.76,51.27,2.83,17.01,2.03,33.95,5.36,50.25,10.84.59.16,7.54,2.71,14.1,5.74,6.57,3.01,12.75,6.41,12.59,6.75-.18.37-6.66-2.39-13.36-4.89-6.7-2.52-13.65-4.73-14.23-4.89-16.07-5.41-32.82-8.7-49.68-10.72-16.88-2.05-33.91-2.8-50.93-2.81-17.02,0-34.05.76-50.93,2.81-16.87,2.02-33.61,5.31-49.68,10.72-.59.16-7.53,2.37-14.23,4.89-6.71,2.5-13.19,5.26-13.36,4.89-.16-.34,6.01-3.74,12.59-6.75,6.56-3.03,13.51-5.58,14.1-5.74Z"/><path class="cls-1" d="M313.96,411.48h195.56c1.16,0,28.03.64,28.03,1.43s-26.86,1.43-28.03,1.43h-195.56c-1.16,0-28.03-.64-28.03-1.43s26.86-1.43,28.03-1.43Z"/><path class="cls-1" d="M509.52,157.92h-195.56c-1.16,0-28.03-.64-28.03-1.43s26.86-1.43,28.03-1.43h195.56c1.16,0,28.03.64,28.03,1.43s-26.86,1.43-28.03,1.43Z"/><path class="cls-1" d="M537.54,270.51c-2.2-5.7-3.79-11.54-5.22-17.4-1.41-5.86-2.6-11.77-3.67-17.69-1.07-5.92-2.03-11.85-2.9-17.8l-2.51-17.81c-1.73-11.81-4.05-23.55-7.51-34.92-1.75-5.67-3.82-11.25-6.54-16.45-1.37-2.59-2.88-5.1-4.64-7.39-1.78-2.25-3.8-4.32-6.14-5.77-.08-.05-.38-.28-.88-.53-.25-.14-.54-.3-.87-.48-.34-.16-.72-.29-1.13-.46-.83-.32-1.82-.54-2.88-.64-1.06-.04-2.21,0-3.3.35-.56.12-1.07.39-1.6.59-.49.28-1.01.52-1.43.86-.91.6-1.63,1.35-2.2,2.02-1.13,1.37-1.52,2.55-1.73,2.5-.16-.02-.15-1.37.81-3.12.49-.85,1.17-1.82,2.12-2.65.45-.45,1-.8,1.54-1.2.59-.32,1.17-.7,1.83-.92,1.28-.55,2.69-.76,4.02-.81,1.33,0,2.59.19,3.63.5.51.17,1,.3,1.42.47.41.19.77.36,1.08.5.63.27.99.52,1.08.58,2.76,1.72,4.98,4.02,6.91,6.46,1.89,2.47,3.49,5.11,4.91,7.82,2.84,5.43,4.95,11.15,6.74,16.93,3.53,11.58,5.86,23.44,7.61,35.34l2.51,17.81c.87,5.92,1.83,11.82,2.89,17.7,1.06,5.88,2.24,11.74,3.64,17.53,1.4,5.78,2.98,11.54,5.1,17.03.07.2.53,1.49,1.25,3.28.72,1.79,1.75,4.06,3.04,6.11,1.27,2.06,2.91,3.82,4.44,4.66,1.51.9,2.78.94,2.77,1.18.03.15-1.32.53-3.23-.17-1.93-.63-4.04-2.42-5.63-4.5-1.63-2.07-2.9-4.38-3.8-6.19-.9-1.81-1.44-3.13-1.52-3.33Z"/><path class="cls-1" d="M468.28,140.93h-159.49c-.95,0-22.86-.64-22.86-1.43s21.91-1.43,22.86-1.43h159.49c.95,0,22.86.64,22.86,1.43s-21.91,1.43-22.86,1.43Z"/><path class="cls-1" d="M540.2,299.92c-2.12,5.49-3.7,11.25-5.1,17.03-1.4,5.79-2.57,11.65-3.64,17.53-1.06,5.88-2.02,11.78-2.89,17.7l-2.51,17.81c-1.75,11.91-4.08,23.76-7.61,35.34-1.79,5.78-3.9,11.5-6.74,16.93-1.43,2.71-3.02,5.35-4.91,7.82-1.93,2.44-4.15,4.74-6.91,6.46-.1.06-.45.31-1.08.58-.31.14-.67.31-1.08.5-.42.16-.91.3-1.42.47-1.04.31-2.3.5-3.63.5-1.33-.05-2.74-.26-4.02-.81-.66-.22-1.24-.6-1.83-.92-.54-.4-1.1-.75-1.54-1.2-.95-.83-1.63-1.8-2.12-2.65-.96-1.75-.98-3.1-.81-3.12.22-.05.6,1.13,1.73,2.5.58.67,1.29,1.42,2.2,2.02.43.34.94.57,1.43.86.53.2,1.04.47,1.6.59,1.09.35,2.24.39,3.3.35,1.07-.1,2.05-.33,2.88-.64.41-.17.8-.31,1.13-.46.33-.18.62-.34.87-.48.51-.25.8-.48.88-.53,2.34-1.46,4.36-3.52,6.14-5.77,1.76-2.29,3.27-4.8,4.64-7.39,2.72-5.2,4.79-10.78,6.54-16.45,3.46-11.37,5.78-23.11,7.51-34.92l2.51-17.81c.87-5.94,1.83-11.88,2.9-17.8,1.07-5.92,2.26-11.82,3.67-17.69,1.42-5.86,3.02-11.7,5.22-17.4.08-.2.62-1.52,1.52-3.33.89-1.81,2.16-4.12,3.8-6.19,1.59-2.08,3.7-3.87,5.63-4.5,1.91-.69,3.26-.31,3.23-.17,0,.24-1.26.27-2.77,1.18-1.54.83-3.17,2.6-4.44,4.66-1.3,2.05-2.32,4.32-3.04,6.11-.72,1.79-1.18,3.08-1.25,3.28Z"/><path class="cls-1" d="M468.28,431.33h-159.49c-.95,0-22.86-.64-22.86-1.43s21.91-1.43,22.86-1.43h159.49c.95,0,22.86.64,22.86,1.43s-21.91,1.43-22.86,1.43Z"/><path class="cls-1" d="M527.77,184.09c-5.41,16.07-8.7,32.82-10.72,49.68-2.05,16.88-2.8,33.91-2.81,50.93,0,17.02.76,34.05,2.81,50.93,2.02,16.87,5.31,33.61,10.72,49.68.16.59,2.37,7.53,4.89,14.23,2.5,6.71,5.26,13.19,4.89,13.36-.34.16-3.74-6.01-6.75-12.59-3.03-6.56-5.58-13.51-5.74-14.1-5.49-16.3-8.81-33.24-10.84-50.25-2.07-17.02-2.82-34.16-2.83-51.27,0-17.11.76-34.25,2.83-51.27,2.03-17.01,5.36-33.95,10.84-50.25.16-.59,2.71-7.54,5.74-14.1,3.01-6.57,6.41-12.75,6.75-12.59.37.18-2.39,6.66-4.89,13.36-2.52,6.7-4.73,13.65-4.89,14.23Z"/><path class="cls-1" d="M257.9,414.34H62.34c-1.16,0-28.03-.64-28.03-1.43s26.86-1.43,28.03-1.43h195.56c1.16,0,28.03.64,28.03,1.43s-26.86,1.43-28.03,1.43Z"/><path class="cls-1" d="M62.34,155.06h195.56c1.16,0,28.03.64,28.03,1.43s-26.86,1.43-28.03,1.43H62.34c-1.16,0-28.03-.64-28.03-1.43s26.86-1.43,28.03-1.43Z"/><path class="cls-1" d="M31.65,269.48c2.12-5.49,3.7-11.25,5.1-17.03,1.4-5.79,2.57-11.65,3.64-17.53,1.06-5.88,2.02-11.78,2.89-17.7l2.51-17.81c1.75-11.91,4.08-23.76,7.61-35.34,1.79-5.78,3.9-11.5,6.74-16.93,1.43-2.71,3.02-5.35,4.91-7.82,1.93-2.44,4.15-4.74,6.91-6.46.1-.06.45-.31,1.08-.58.31-.14.67-.31,1.08-.5.42-.16.91-.3,1.42-.47,1.04-.31,2.3-.5,3.63-.5,1.33.05,2.74.26,4.02.81.66.22,1.24.6,1.83.92.54.4,1.1.75,1.54,1.2.95.83,1.63,1.8,2.12,2.65.96,1.75.98,3.1.81,3.12-.22.05-.6-1.13-1.73-2.5-.58-.67-1.29-1.42-2.2-2.02-.43-.34-.94-.57-1.43-.86-.53-.2-1.04-.47-1.6-.59-1.09-.35-2.24-.39-3.3-.35-1.07.1-2.05.33-2.88.64-.41.17-.8.31-1.13.46-.33.18-.62.34-.87.48-.51.25-.8.48-.88.53-2.34,1.46-4.36,3.52-6.14,5.77-1.76,2.29-3.27,4.8-4.64,7.39-2.72,5.2-4.79,10.78-6.54,16.45-3.46,11.37-5.78,23.11-7.51,34.92l-2.51,17.81c-.87,5.94-1.83,11.88-2.9,17.8-1.07,5.92-2.26,11.82-3.67,17.69-1.42,5.86-3.02,11.7-5.22,17.4-.08.2-.62,1.52-1.52,3.33-.89,1.81-2.16,4.12-3.8,6.19-1.59,2.08-3.7,3.87-5.63,4.5-1.91.7-3.26.31-3.23.17,0-.24,1.26-.27,2.77-1.18,1.54-.83,3.17-2.6,4.44-4.66,1.3-2.05,2.32-4.32,3.04-6.11.72-1.79,1.18-3.08,1.25-3.28Z"/><path class="cls-1" d="M103.58,138.07h159.49c.95,0,22.86.64,22.86,1.43s-21.91,1.43-22.86,1.43H103.58c-.95,0-22.86-.64-22.86-1.43s21.91-1.43,22.86-1.43Z"/><path class="cls-1" d="M34.32,298.89c2.2,5.7,3.79,11.54,5.22,17.4,1.41,5.87,2.6,11.77,3.67,17.69,1.07,5.92,2.03,11.85,2.9,17.8l2.51,17.81c1.73,11.81,4.05,23.55,7.51,34.92,1.75,5.67,3.82,11.25,6.54,16.45,1.37,2.59,2.88,5.1,4.64,7.39,1.78,2.25,3.8,4.32,6.14,5.77.08.05.38.28.88.53.25.14.54.3.87.48.34.16.72.29,1.13.46.83.32,1.82.54,2.88.64,1.06.04,2.21,0,3.3-.35.56-.12,1.07-.39,1.6-.59.49-.28,1.01-.52,1.43-.86.91-.6,1.63-1.35,2.2-2.02,1.13-1.37,1.52-2.55,1.73-2.5.16.02.15,1.37-.81,3.12-.49.85-1.17,1.82-2.12,2.65-.45.45-1,.8-1.54,1.2-.59.32-1.17.7-1.83.92-1.28.55-2.69.76-4.02.81-1.33,0-2.59-.19-3.63-.5-.51-.17-1-.3-1.42-.47-.41-.19-.77-.36-1.08-.5-.63-.27-.99-.52-1.08-.58-2.76-1.72-4.98-4.02-6.91-6.46-1.89-2.47-3.49-5.11-4.91-7.82-2.84-5.43-4.95-11.15-6.74-16.93-3.53-11.58-5.86-23.44-7.61-35.34l-2.51-17.81c-.87-5.92-1.83-11.82-2.89-17.7-1.06-5.88-2.24-11.74-3.64-17.53-1.4-5.78-2.98-11.54-5.1-17.03-.07-.2-.53-1.49-1.25-3.28-.72-1.79-1.75-4.06-3.04-6.11-1.27-2.06-2.91-3.82-4.44-4.66-1.51-.9-2.78-.94-2.77-1.18-.03-.15,1.32-.53,3.23.17,1.93.63,4.04,2.42,5.63,4.5,1.63,2.07,2.9,4.38,3.8,6.19.9,1.81,1.44,3.13,1.52,3.33Z"/><path class="cls-1" d="M103.58,428.47h159.49c.95,0,22.86.64,22.86,1.43s-21.91,1.43-22.86,1.43H103.58c-.95,0-22.86-.64-22.86-1.43s21.91-1.43,22.86-1.43Z"/><path class="cls-1" d="M46.8,183.18c5.49,16.3,8.81,33.24,10.84,50.25,2.07,17.02,2.82,34.16,2.83,51.27,0,17.11-.76,34.25-2.83,51.27-2.03,17.01-5.36,33.95-10.84,50.25-.16.59-2.71,7.54-5.74,14.1-3.01,6.57-6.41,12.75-6.75,12.59-.37-.18,2.39-6.66,4.89-13.36,2.52-6.7,4.73-13.65,4.89-14.23,5.41-16.07,8.7-32.82,10.72-49.68,2.05-16.88,2.8-33.91,2.81-50.93,0-17.02-.76-34.05-2.81-50.93-2.02-16.87-5.31-33.61-10.72-49.68-.16-.59-2.37-7.53-4.89-14.23-2.5-6.71-5.26-13.19-4.89-13.36.34-.16,3.74,6.01,6.75,12.59,3.03,6.56,5.58,13.51,5.74,14.1Z"/></g></svg>