<?xml version="1.0" encoding="UTF-8"?><svg id="Line" xmlns="http://www.w3.org/2000/svg" viewBox="0 0 656.8 656.8"><defs><style>.cls-1{fill:#fff;stroke-width:0px;}</style></defs><g id="DecorativeElement_10_Lines"><path class="cls-1" d="M128.49,487.2c-11.66-12.22-23.2-24.56-34.56-37.07-11.36-12.51-22.55-25.17-33.37-38.18-5.39-6.51-10.71-13.1-15.79-19.89-5.04-6.81-10.02-13.7-13.98-21.39-.95-1.95-1.85-3.94-2.44-6.15-.3-1.1-.49-2.28-.43-3.58l.06-.5s.01-.11.01-.1v.05s-.23-.06-.23-.06l-1.23-.26c-.49-.11-1-.19-1.5-.27-1-.18-2.03-.28-3.05-.39-2.04-.21-4.11-.27-6.17-.25-2.06.03-4.12.14-6.16.39-1.02.13-2.03.28-3.03.46l-1.48.31c-.55.16-.72.15-1.97.57l-1.5.48-.38.12c-.04-.1-.06-.25-.09-.37l-.17-.77-.56-2.54c-.23-1.09-.29-2.2-.43-3.31-.07-2.22-.04-4.46.4-6.64.04-.15.12-.75.35-1.64.29-.88.56-2.1,1.18-3.43,1.09-2.7,3.08-5.98,5.78-8.54,2.66-2.6,5.95-4.36,8.52-5.15.65-.19,1.24-.37,1.76-.5.54-.08,1.01-.15,1.4-.19.77-.09,1.21-.09,1.23,0s-.39.29-1.1.56c-.36.13-.79.28-1.28.45-.51.23-1.04.47-1.6.72-2.33,1.07-5.22,2.96-7.47,5.52-2.3,2.52-3.92,5.6-4.78,8.09-.5,1.22-.68,2.35-.91,3.14-.17.81-.22,1.35-.26,1.49-.4,1.96-.42,3.97-.36,5.96.13.99.18,1.99.39,2.97l.12.56h0c-.25.06.61-.17,1.08-.3l1.61-.34c1.08-.2,2.15-.36,3.23-.49,2.15-.26,4.31-.38,6.47-.41,2.16-.02,4.32.04,6.48.26,1.08.11,2.16.23,3.23.42.54.09,1.08.17,1.61.29l.8.17.4.09.65.17,1.4.37.7.19c.21.07.58.05.38.38l-.44,1.48-.14.4c-.03.06-.02.16-.03.24v.1s-.05.28-.05.28c-.03.81.09,1.73.35,2.67.5,1.87,1.32,3.76,2.23,5.59,3.78,7.34,8.71,14.22,13.71,20.95,5.04,6.73,10.33,13.29,15.7,19.77,10.78,12.96,21.95,25.59,33.29,38.08,11.34,12.48,22.87,24.81,34.51,37.02.39.42,5.14,5.66,10.07,11.08,4.75,5.29,9.38,10.49,9.11,10.76-.28.28-5.43-4.42-10.56-9.35-5.13-4.93-10.27-10.07-10.68-10.51Z"/><path class="cls-1" d="M308.94,656.37c-2.19.44-4.42.47-6.64.4-1.1-.14-2.22-.2-3.31-.43l-2.54-.56-.77-.17c-.12-.03-.27-.05-.37-.09l.12-.38.48-1.5c.42-1.25.4-1.43.57-1.97l.31-1.48c.19-1,.34-2.01.46-3.03.24-2.04.36-4.1.39-6.16.02-2.06-.04-4.13-.24-6.17-.11-1.02-.21-2.04-.39-3.05-.08-.5-.16-1.01-.27-1.5l-.26-1.23-.06-.23h.05s-.07,0-.1.01l-.5.06c-1.3.06-2.48-.13-3.58-.43-2.21-.59-4.21-1.48-6.15-2.44-7.68-3.96-14.58-8.93-21.39-13.97-6.79-5.08-13.38-10.39-19.89-15.79-13.01-10.82-25.67-22.01-38.18-33.37-12.51-11.36-24.85-22.9-37.07-34.56-.44-.42-5.58-5.55-10.51-10.68-4.93-5.13-9.64-10.28-9.35-10.56.27-.27,5.47,4.36,10.76,9.11,5.42,4.92,10.65,9.68,11.08,10.07,12.21,11.65,24.53,23.17,37.02,34.51,12.49,11.34,25.13,22.51,38.08,33.29,6.49,5.37,13.05,10.66,19.78,15.7,6.74,4.99,13.61,9.93,20.95,13.71,1.84.91,3.72,1.73,5.59,2.23.93.26,1.86.38,2.67.35l.28-.04h.1c.08-.02.18-.02.25-.04l.4-.14,1.48-.44c.33-.21.31.17.38.38l.19.7.37,1.4.17.65.09.4.17.8c.12.54.2,1.07.29,1.61.19,1.07.3,2.15.42,3.23.22,2.16.28,4.32.26,6.48-.03,2.16-.15,4.31-.41,6.47-.14,1.08-.29,2.15-.49,3.23l-.34,1.61c-.12.47-.35,1.33-.29,1.08h0s.56.12.56.12c.98.21,1.98.26,2.97.39,1.99.06,4,.04,5.96-.36.14-.04.67-.09,1.49-.26.79-.24,1.92-.41,3.14-.91,2.49-.86,5.57-2.48,8.09-4.78,2.56-2.26,4.46-5.14,5.52-7.47.25-.56.49-1.1.72-1.6.16-.5.31-.93.45-1.28.26-.71.46-1.12.56-1.1s.09.46,0,1.23c-.04.39-.11.86-.19,1.4-.13.53-.31,1.12-.5,1.76-.79,2.57-2.55,5.86-5.15,8.52-2.56,2.7-5.84,4.69-8.54,5.78-1.33.62-2.56.88-3.43,1.18-.89.23-1.49.31-1.64.35Z"/><path class="cls-1" d="M424.53,442.55c5.86-4.84,11.21-10.27,16.23-15.95l1.86-2.15.93-1.08.88-1.12,3.52-4.48c2.2-3.09,4.45-6.15,6.44-9.39,8.2-12.79,14.31-26.88,18.25-41.54,7.84-29.35,6.44-61.1-3.99-89.64-10.39-28.56-29.82-53.7-54.71-71.1-.78-.54-1.54-1.11-2.33-1.64l-2.4-1.54c-1.61-1.01-3.17-2.1-4.84-3.01l-4.94-2.83-5.07-2.6c-6.83-3.32-13.87-6.2-21.11-8.49-7.26-2.24-14.67-3.95-22.17-5.16-7.52-1.09-15.1-1.65-22.7-1.72-7.6.07-15.18.63-22.7,1.72-7.5,1.2-14.91,2.92-22.17,5.16-7.24,2.29-14.29,5.17-21.11,8.49l-5.07,2.6-4.94,2.83c-1.67.91-3.23,2-4.84,3.01l-2.4,1.54c-.79.53-1.55,1.09-2.33,1.64-24.89,17.41-44.32,42.54-54.71,71.1-10.43,28.53-11.83,60.29-3.99,89.64,3.94,14.66,10.05,28.76,18.25,41.54,1.99,3.24,4.24,6.3,6.44,9.39l3.52,4.48.88,1.12.93,1.08,1.86,2.15c5.02,5.69,10.37,11.11,16.23,15.95.21.17.68.61,1.43,1.23.76.6,1.78,1.41,3.01,2.39.62.49,1.29,1.03,2.01,1.6.72.57,1.54,1.12,2.38,1.74,1.71,1.2,3.54,2.63,5.66,3.95,8.32,5.53,19.75,11.8,31.85,16.1,1.51.53,3.02,1.06,4.53,1.58,1.5.52,3.04.92,4.54,1.38,3,.96,6.01,1.63,8.91,2.34,1.44.38,2.89.64,4.3.91,1.41.27,2.78.54,4.13.8,2.69.44,5.25.77,7.6,1.12,4.73.49,8.67.89,11.44.99,2.76.16,4.34.3,4.34.4s-1.58.15-4.36.18c-2.78.09-6.75-.14-11.53-.46-2.38-.27-4.97-.52-7.7-.88-1.36-.22-2.76-.45-4.19-.69-1.43-.24-2.9-.45-4.36-.8-2.95-.65-6.01-1.26-9.07-2.16-1.53-.43-3.1-.8-4.63-1.3-1.53-.5-3.08-1.01-4.62-1.51-12.35-4.1-24.07-10.29-32.62-15.8-2.18-1.31-4.07-2.74-5.82-3.94-.86-.62-1.7-1.17-2.45-1.74-.74-.58-1.43-1.11-2.07-1.6-1.27-.99-2.31-1.8-3.1-2.41-.77-.62-1.26-1.07-1.47-1.24-5.97-4.93-11.42-10.46-16.54-16.26l-1.9-2.19-.95-1.1-.9-1.14-3.59-4.56c-2.24-3.15-4.54-6.27-6.56-9.57-8.35-13.03-14.58-27.4-18.6-42.34-7.99-29.92-6.56-62.26,4.07-91.35,10.59-29.11,30.39-54.72,55.76-72.46.79-.56,1.57-1.13,2.37-1.67l2.44-1.57c1.64-1.03,3.23-2.14,4.93-3.06l5.03-2.89,5.17-2.65c6.96-3.39,14.14-6.32,21.52-8.66,7.4-2.28,14.95-4.03,22.59-5.26,7.66-1.11,15.39-1.68,23.13-1.75,7.74.07,15.47.64,23.13,1.75,7.64,1.23,15.2,2.98,22.59,5.26,7.38,2.34,14.56,5.27,21.52,8.66l5.17,2.65,5.03,2.89c1.7.93,3.29,2.04,4.93,3.06l2.44,1.57c.8.54,1.58,1.11,2.37,1.67,25.37,17.74,45.16,43.35,55.76,72.46,10.63,29.09,12.05,61.43,4.07,91.35-4.01,14.94-10.24,29.31-18.6,42.34-2.02,3.3-4.32,6.42-6.56,9.57l-3.59,4.56-.9,1.14-.95,1.1-1.9,2.19c-5.12,5.8-10.57,11.32-16.54,16.26-.21.18-.7.62-1.47,1.24-.78.61-1.83,1.42-3.1,2.41-.63.49-1.33,1.03-2.07,1.6-.74.57-1.58,1.13-2.45,1.74-1.75,1.2-3.64,2.63-5.82,3.94-8.55,5.51-20.27,11.69-32.62,15.8-1.54.5-3.09,1.01-4.62,1.51-1.53.5-3.1.87-4.63,1.3-3.05.9-6.12,1.51-9.07,2.16-1.47.35-2.93.57-4.36.8-1.43.23-2.82.46-4.19.69-2.73.36-5.32.61-7.7.88-4.78.32-8.75.55-11.54.46-2.78-.02-4.36-.08-4.36-.18s1.58-.23,4.34-.4c2.77-.09,6.71-.5,11.44-.99,2.35-.35,4.91-.68,7.6-1.12,1.34-.26,2.72-.53,4.13-.8,1.41-.27,2.85-.52,4.3-.91,2.9-.71,5.91-1.39,8.91-2.34,1.5-.46,3.04-.86,4.54-1.38,1.5-.53,3.02-1.06,4.53-1.58,12.1-4.29,23.53-10.56,31.85-16.1,2.13-1.32,3.96-2.75,5.66-3.95.84-.62,1.66-1.17,2.38-1.74.72-.57,1.39-1.11,2.01-1.6,1.23-.98,2.25-1.79,3.01-2.39.75-.62,1.22-1.06,1.43-1.23Z"/><path class="cls-1" d="M130.56,171.56c-11.65,12.21-23.17,24.53-34.52,37.02-11.34,12.49-22.51,25.13-33.29,38.08-5.37,6.49-10.66,13.05-15.7,19.78-4.99,6.74-9.93,13.61-13.71,20.95-.91,1.84-1.73,3.72-2.23,5.59-.26.93-.38,1.86-.35,2.67l.04.28v.11c.03.08.02.18.05.24l.14.4.44,1.48c.21.33-.19.29-.39.37l-.7.19-1.4.37-.65.17-.4.09-.8.17c-.53.12-1.07.2-1.61.29-1.07.19-2.15.3-3.23.42-2.16.22-4.32.28-6.48.26-2.16-.03-4.31-.15-6.47-.41-1.08-.14-2.15-.29-3.23-.5l-1.61-.34c-.48-.13-1.32-.35-1.07-.29h0s-.12.55-.12.55c-.21.98-.26,1.98-.39,2.97-.06,1.99-.04,4,.36,5.96.04.14.09.68.26,1.49.24.79.41,1.92.91,3.14.86,2.49,2.48,5.57,4.78,8.09,2.26,2.56,5.14,4.46,7.47,5.52.56.25,1.1.49,1.6.72.5.16.93.31,1.28.45.71.27,1.12.46,1.1.56s-.46.09-1.23,0c-.39-.04-.86-.11-1.4-.19-.53-.13-1.12-.31-1.76-.5-2.57-.79-5.86-2.55-8.52-5.16-2.7-2.56-4.69-5.84-5.78-8.54-.62-1.33-.88-2.56-1.18-3.43-.23-.89-.31-1.49-.35-1.64-.44-2.19-.47-4.42-.4-6.64.14-1.1.2-2.22.43-3.31l.56-2.54.17-.77.08-.39.38.12,1.5.49c1.24.42,1.44.41,1.98.57l1.48.32c1,.19,2.01.34,3.03.47,2.04.24,4.1.36,6.16.39,2.06.02,4.13-.04,6.17-.25,1.02-.11,2.04-.21,3.05-.39.5-.08,1.01-.16,1.5-.27l1.24-.26.23-.06v.04s0-.06-.01-.09l-.06-.5c-.06-1.3.13-2.49.43-3.58.59-2.21,1.48-4.21,2.44-6.15,3.96-7.69,8.93-14.58,13.98-21.39,5.08-6.79,10.39-13.37,15.79-19.89,10.82-13.01,22.02-25.67,33.37-38.18,11.36-12.51,22.9-24.85,34.56-37.07.42-.44,5.55-5.58,10.68-10.51,5.13-4.93,10.27-9.64,10.56-9.35.27.27-4.36,5.47-9.11,10.76-4.92,5.42-9.68,10.65-10.07,11.08Z"/><path class="cls-1" d="M308.44,3.24c-1.96-.4-3.97-.42-5.96-.36-.99.13-1.99.18-2.97.39l-.55.12h0c-.07-.25.17.62.29,1.08l.34,1.61c.2,1.07.36,2.15.49,3.23.26,2.15.38,4.31.41,6.47.02,2.16-.04,4.32-.26,6.48-.11,1.08-.23,2.16-.42,3.23-.09.54-.17,1.08-.29,1.61l-.17.8-.09.4-.17.65-.37,1.4-.19.7-.09.35-.02.09s-.06-.01-.09-.02l-.18-.05-1.48-.44-.4-.14c-.07-.02-.17-.02-.25-.03h-.09s-.28-.05-.28-.05c-.81-.03-1.74.09-2.67.35-1.87.5-3.76,1.32-5.59,2.23-7.34,3.78-14.21,8.71-20.95,13.71-6.73,5.04-13.29,10.33-19.77,15.7-12.96,10.77-25.59,21.95-38.08,33.29-12.48,11.34-24.81,22.87-37.02,34.51-.42.39-5.66,5.14-11.08,10.07-5.29,4.75-10.49,9.38-10.76,9.11-.28-.28,4.42-5.43,9.35-10.56,4.93-5.13,10.07-10.27,10.51-10.68,12.22-11.66,24.56-23.2,37.07-34.56,12.51-11.36,25.17-22.55,38.18-33.37,6.51-5.39,13.1-10.71,19.89-15.79,6.81-5.04,13.7-10.02,21.39-13.98,1.95-.95,3.94-1.85,6.15-2.44,1.1-.3,2.28-.49,3.58-.44l.5.06h.11s-.05.01-.05.01l.06-.23.26-1.23c.11-.49.19-1,.27-1.5.18-1,.29-2.03.39-3.04.21-2.04.27-4.11.25-6.17-.03-2.06-.14-4.12-.39-6.16-.13-1.02-.28-2.03-.46-3.03l-.31-1.48-.19-.72-.13-.48-.24-.76-.48-1.5-.12-.38c.07-.06.24-.07.36-.1l.77-.17,2.55-.56c1.09-.23,2.2-.29,3.31-.43,2.22-.07,4.46-.04,6.64.4.15.04.75.12,1.64.35.88.3,2.1.56,3.43,1.18,2.7,1.09,5.98,3.08,8.54,5.78,2.6,2.66,4.36,5.95,5.16,8.52.19.65.37,1.24.5,1.76.08.54.15,1.01.19,1.4.09.77.09,1.21,0,1.23s-.29-.39-.56-1.1c-.13-.36-.28-.79-.45-1.28-.23-.51-.47-1.04-.72-1.6-1.07-2.33-2.96-5.21-5.53-7.47-2.52-2.29-5.6-3.92-8.09-4.77-1.22-.5-2.35-.68-3.14-.91-.81-.17-1.35-.22-1.49-.26Z"/><path class="cls-1" d="M526.24,485.23c11.65-12.21,23.17-24.53,34.51-37.01,11.34-12.49,22.51-25.13,33.29-38.08,5.37-6.49,10.66-13.04,15.7-19.77,4.99-6.74,9.93-13.61,13.71-20.95.91-1.84,1.73-3.72,2.23-5.59.26-.93.38-1.86.35-2.67l-.04-.28-.04-.33-.14-.4-.44-1.48-.05-.18-.03-.09.09-.02.35-.09.7-.19,1.4-.37.66-.17.4-.09.8-.17c.54-.12,1.07-.2,1.61-.29,1.07-.19,2.15-.3,3.23-.42,2.16-.22,4.32-.28,6.48-.26,2.16.03,4.31.15,6.47.41,1.08.14,2.15.29,3.23.49l1.61.34c.47.12,1.32.35,1.08.29h0s.12-.55.12-.55c.21-.98.26-1.98.39-2.97.06-1.99.04-4-.36-5.96-.04-.14-.09-.67-.26-1.49-.24-.79-.41-1.92-.91-3.14-.86-2.49-2.48-5.56-4.78-8.09-2.26-2.56-5.14-4.46-7.47-5.52-.56-.25-1.1-.49-1.6-.72-.5-.16-.93-.31-1.28-.45-.71-.26-1.12-.46-1.1-.56.02-.1.46-.09,1.23,0,.39.04.86.11,1.4.19.53.13,1.12.31,1.76.5,2.57.79,5.86,2.55,8.52,5.15,2.7,2.56,4.69,5.84,5.78,8.54.62,1.33.88,2.56,1.18,3.43.23.89.31,1.49.35,1.64.44,2.19.47,4.42.4,6.64-.14,1.1-.2,2.22-.43,3.31l-.56,2.54-.17.77c-.03.12-.05.27-.09.38l-.38-.12-1.5-.48c-1.25-.42-1.43-.4-1.97-.57l-1.48-.31c-1-.19-2.01-.34-3.03-.46-2.04-.24-4.1-.36-6.16-.39-2.06-.02-4.13.04-6.17.25-1.02.11-2.04.21-3.04.39-.5.08-1.01.16-1.5.27l-1.23.26-.23.06v-.05s.01.12.01.12l.06.5c.05,1.3-.14,2.48-.44,3.58-.59,2.21-1.49,4.2-2.44,6.15-3.96,7.68-8.94,14.57-13.98,21.39-5.08,6.79-10.4,13.37-15.79,19.89-10.82,13-22.02,25.67-33.37,38.18-11.36,12.5-22.9,24.85-34.56,37.07-.42.44-5.55,5.58-10.68,10.51-5.13,4.93-10.27,9.64-10.56,9.35s4.36-5.47,9.11-10.76c4.92-5.42,9.68-10.65,10.07-11.08Z"/><path class="cls-1" d="M487.21,528.31c-12.22,11.66-24.56,23.2-37.07,34.56-12.51,11.36-25.17,22.55-38.18,33.37-6.51,5.39-13.1,10.71-19.89,15.79-6.81,5.04-13.7,10.02-21.39,13.98-1.95.95-3.94,1.85-6.15,2.44-1.1.3-2.28.49-3.58.44l-.5-.06h-.1s.05-.01.05-.01l-.06.23-.26,1.23c-.11.49-.19,1-.27,1.5-.18,1-.28,2.03-.39,3.05-.21,2.04-.27,4.11-.25,6.17.03,2.06.14,4.12.39,6.16.13,1.02.28,2.03.46,3.03l.31,1.48c.16.55.15.72.57,1.97l.48,1.5.12.38c-.09.05-.25.06-.37.1l-.77.17-2.54.56c-1.09.23-2.2.29-3.31.43-2.22.07-4.46.04-6.64-.4-.15-.04-.75-.12-1.64-.35-.88-.29-2.1-.56-3.43-1.18-2.7-1.09-5.98-3.09-8.54-5.78-2.6-2.66-4.36-5.95-5.15-8.52-.19-.65-.37-1.24-.5-1.76-.08-.54-.15-1.01-.19-1.4-.09-.77-.1-1.21,0-1.23s.29.39.56,1.1c.13.36.28.79.45,1.28.23.51.47,1.04.72,1.6,1.07,2.33,2.96,5.21,5.52,7.47,2.52,2.3,5.6,3.92,8.09,4.78,1.22.5,2.35.68,3.14.91.81.17,1.35.22,1.49.26,1.96.4,3.97.42,5.96.36.99-.13,1.99-.18,2.97-.39l.56-.12h0c.07.25-.17-.61-.29-1.08l-.34-1.61c-.2-1.07-.36-2.15-.49-3.23-.26-2.15-.38-4.31-.41-6.47-.02-2.16.04-4.32.26-6.48.11-1.08.23-2.16.42-3.23.09-.54.17-1.08.29-1.61l.17-.8.09-.4.17-.65.37-1.4.19-.7.09-.35.02-.09s.06,0,.08.01l.18.05,1.48.44.4.14c.07.02.17.02.25.03h.09s.28.05.28.05c.81.03,1.73-.09,2.67-.35,1.87-.5,3.76-1.32,5.59-2.23,7.34-3.78,14.22-8.71,20.95-13.71,6.73-5.04,13.29-10.33,19.77-15.7,12.96-10.77,25.59-21.95,38.08-33.29,12.48-11.34,24.81-22.87,37.02-34.51.42-.39,5.66-5.14,11.08-10.07,5.29-4.75,10.49-9.38,10.76-9.11.29.28-4.42,5.43-9.35,10.56-4.93,5.13-10.07,10.27-10.51,10.68Z"/><path class="cls-1" d="M441.29,530.81c-19.93,1.72-40.37-2.78-57.67-12.86-17.33-10.02-31.45-25.45-39.89-43.61-8.47-18.15-11.12-38.9-7.64-58.6,1.7-9.86,5-19.43,9.58-28.31,2.34-4.42,4.99-8.67,7.92-12.73,2.99-4.01,6.27-7.8,9.77-11.37,3.57-3.5,7.36-6.78,11.37-9.77,4.05-2.93,8.3-5.58,12.73-7.92,8.89-4.59,18.45-7.88,28.31-9.58,19.7-3.49,40.45-.83,58.6,7.63,18.15,8.44,33.58,22.57,43.61,39.89,10.07,17.31,14.57,37.74,12.86,57.67-.02.18-.04.6-.11,1.24-.08.63-.19,1.48-.32,2.51-.13,1.03-.28,2.24-.55,3.59-.26,1.35-.47,2.86-.87,4.46-1.41,6.42-3.98,14.58-7.78,22.07-3.74,7.52-8.5,14.36-12.55,19.02-2.06,2.31-3.78,4.2-5.12,5.4-1.3,1.23-2.07,1.9-2.14,1.83-.07-.07.56-.87,1.72-2.23,1.19-1.32,2.77-3.32,4.67-5.7,3.74-4.82,8.16-11.72,11.59-19.19,3.49-7.45,5.79-15.47,7.03-21.74.36-1.56.53-3.04.76-4.35.23-1.32.36-2.5.46-3.5.11-1,.2-1.83.27-2.45.06-.62.07-1.03.09-1.2,1.67-19.36-2.71-39.2-12.48-56-9.73-16.82-24.72-30.54-42.34-38.73-17.62-8.22-37.77-10.8-56.9-7.41-9.57,1.65-18.86,4.85-27.49,9.3-4.29,2.27-8.42,4.85-12.36,7.69-3.89,2.91-7.57,6.09-11.04,9.49-3.4,3.47-6.58,7.15-9.49,11.04-2.85,3.94-5.42,8.06-7.69,12.36-4.45,8.63-7.65,17.91-9.3,27.49-3.39,19.13-.81,39.28,7.41,56.9,8.19,17.62,21.92,32.61,38.73,42.34,16.8,9.78,36.64,14.15,56,12.48.17-.02.59-.03,1.2-.09.62-.07,1.44-.16,2.45-.27,1-.1,2.18-.23,3.5-.46,1.32-.22,2.79-.4,4.35-.76,6.27-1.24,14.29-3.53,21.74-7.03,7.47-3.43,14.37-7.85,19.19-11.59,2.39-1.9,4.38-3.48,5.7-4.67,1.35-1.16,2.16-1.79,2.23-1.72.07.07-.6.84-1.83,2.14-1.2,1.33-3.09,3.06-5.4,5.12-4.66,4.05-11.5,8.81-19.02,12.55-7.49,3.8-15.65,6.37-22.07,7.78-1.6.4-3.11.62-4.46.87-1.35.26-2.56.42-3.59.55-1.03.13-1.88.24-2.51.32-.64.07-1.06.09-1.24.11Z"/><path class="cls-1" d="M653.55,308.44c.4-1.96.42-3.97.36-5.96-.13-.99-.18-1.99-.39-2.97l-.12-.56h0c.24-.06-.59.17-1.07.3l-1.61.34c-1.08.2-2.15.36-3.23.5-2.15.26-4.31.38-6.47.41-2.16.02-4.32-.04-6.48-.26-1.08-.11-2.16-.23-3.23-.42-.54-.09-1.08-.17-1.61-.29l-.8-.17-.4-.09-.65-.17-1.4-.37-.7-.19-.35-.09-.09-.02s.01-.06.01-.08l.05-.18.44-1.48.14-.4c.02-.07.02-.17.03-.25v-.09s.05-.28.05-.28c.03-.81-.09-1.73-.35-2.67-.5-1.87-1.33-3.76-2.23-5.59-3.78-7.34-8.72-14.21-13.71-20.95-5.04-6.73-10.33-13.29-15.7-19.77-10.78-12.96-21.95-25.59-33.29-38.08-11.34-12.48-22.87-24.81-34.52-37.02-.39-.42-5.14-5.66-10.07-11.08-4.75-5.29-9.38-10.49-9.11-10.76.28-.28,5.43,4.42,10.56,9.35,5.13,4.93,10.27,10.07,10.68,10.51,11.66,12.22,23.2,24.56,34.56,37.07,11.36,12.51,22.56,25.17,33.37,38.18,5.4,6.51,10.71,13.1,15.79,19.89,5.04,6.81,10.02,13.7,13.98,21.39.95,1.95,1.85,3.94,2.44,6.15.3,1.1.49,2.28.44,3.58l-.06.5v.11s-.01-.05-.01-.05l.23.06,1.23.26c.49.11,1,.19,1.5.27,1,.18,2.03.29,3.05.39,2.04.21,4.11.27,6.17.25,2.06-.03,4.12-.14,6.16-.39,1.02-.13,2.03-.28,3.03-.47l1.48-.32c.54-.16.73-.15,1.98-.57l1.5-.49.37-.12.08.39.17.77.56,2.54c.23,1.09.29,2.2.43,3.31.07,2.22.04,4.46-.4,6.64-.04.15-.12.75-.35,1.64-.29.88-.56,2.1-1.18,3.43-1.09,2.7-3.09,5.98-5.78,8.54-2.66,2.6-5.95,4.36-8.52,5.15-.65.19-1.24.37-1.76.5-.54.08-1.01.15-1.4.19-.77.09-1.21.1-1.23,0s.39-.29,1.1-.56c.36-.13.79-.28,1.28-.45.51-.23,1.04-.47,1.6-.72,2.33-1.07,5.21-2.96,7.47-5.52,2.3-2.52,3.92-5.6,4.78-8.09.5-1.22.68-2.35.91-3.14.17-.81.23-1.35.26-1.49Z"/><path class="cls-1" d="M485.23,130.55c-12.21-11.65-24.53-23.17-37.01-34.51-12.49-11.34-25.13-22.51-38.08-33.29-6.49-5.37-13.04-10.66-19.77-15.7-6.74-4.99-13.61-9.93-20.95-13.71-1.84-.91-3.72-1.73-5.59-2.23-.93-.26-1.86-.38-2.67-.35l-.28.04h-.08c-.08.02-.18.02-.25.04l-.4.14-1.48.44-.18.05s-.06.02-.09.02l-.02-.09-.09-.35-.19-.7-.37-1.4-.17-.66-.09-.4-.17-.8c-.12-.53-.2-1.07-.29-1.61-.19-1.07-.3-2.15-.42-3.23-.22-2.16-.28-4.32-.26-6.48.03-2.16.15-4.31.41-6.47.14-1.08.29-2.15.49-3.23l.34-1.61c.12-.46.36-1.34.29-1.09h0s0,0,0,0l-.18-.04-.37-.08c-.98-.21-1.98-.26-2.97-.39-1.99-.06-4-.04-5.96.36-.14.04-.67.09-1.49.26-.79.24-1.92.41-3.14.91-2.49.86-5.57,2.48-8.09,4.78-2.56,2.26-4.46,5.14-5.53,7.47-.25.56-.49,1.1-.72,1.6-.16.5-.31.93-.45,1.28-.27.71-.46,1.12-.56,1.1s-.09-.46,0-1.23c.04-.39.11-.86.19-1.4.13-.53.31-1.11.5-1.76.79-2.57,2.55-5.86,5.16-8.52,2.56-2.7,5.84-4.69,8.54-5.78,1.33-.62,2.56-.88,3.43-1.18.89-.23,1.49-.31,1.64-.35,2.18-.44,4.42-.47,6.64-.4,1.1.14,2.22.2,3.31.43l2.55.56.77.17c.11.04.29.04.35.1l-.12.38-.48,1.5-.24.76-.13.48-.19.72-.31,1.48c-.19,1-.34,2.01-.46,3.03-.24,2.04-.36,4.1-.39,6.16-.02,2.06.04,4.13.25,6.17.11,1.02.21,2.04.39,3.04.08.5.16,1.01.27,1.5l.26,1.23.06.23h-.05s.11-.01.11-.01l.5-.06c1.3-.06,2.48.14,3.58.44,2.21.59,4.21,1.49,6.15,2.44,7.68,3.96,14.57,8.93,21.39,13.98,6.79,5.08,13.37,10.39,19.89,15.79,13,10.82,25.67,22.01,38.18,33.37,12.5,11.36,24.85,22.9,37.07,34.56.44.42,5.58,5.55,10.51,10.68,4.93,5.13,9.64,10.27,9.35,10.56-.27.27-5.47-4.36-10.76-9.11-5.42-4.92-10.65-9.68-11.08-10.06Z"/><path class="cls-1" d="M239.1,576.08c-19.31-14.17-37.83-29.33-55.97-44.92-9.05-7.82-18.01-15.73-26.71-24l-1.62-1.56-1.82-1.79-.4-.39c-.03-.18,0-.37-.01-.55V153.94c0-.18-.01-.38.01-.55l.4-.39,1.82-1.79,1.62-1.56c8.69-8.26,17.66-16.17,26.71-24,18.14-15.59,36.65-30.75,55.97-44.92.7-.5,5.2-3.79,11.76-8.18,3.28-2.19,7.08-4.66,11.21-7.12,4.13-2.46,8.58-4.96,13.26-7,2.35-1,4.74-1.93,7.26-2.45,1.25-.28,2.56-.41,3.88-.33.66.05,1.34.19,1.99.45.31.17.65.28.93.51.26.22.61.46.78.68.83.9,1.58,1.86,2.16,2.92.56,1.07.94,2.22,1.04,3.39.1,1.17-.08,2.33-.5,3.34-.42,1.01-1.03,1.88-1.71,2.59-1.38,1.43-3.03,2.28-4.59,2.61-1.54.37-3.15.03-3.97-.9-.78-.96-.75-1.94-.74-2.51.08-.59.16-.89.2-.88.05,0,.07.32.09.88.07.54.18,1.42.86,2.11.7.66,2,.88,3.36.47,1.36-.37,2.82-1.23,3.97-2.54,1.15-1.29,1.95-3.12,1.68-5.05-.12-.96-.47-1.91-.98-2.81-.53-.9-1.22-1.74-2.01-2.53-.68-.71-1.59-1.01-2.68-1.06-1.08-.03-2.22.1-3.37.4-2.3.54-4.59,1.5-6.83,2.52-4.49,2.09-8.82,4.66-12.85,7.17-4.03,2.52-7.75,5.04-10.96,7.28-6.43,4.48-10.86,7.82-11.55,8.31-19.21,14.1-37.7,29.23-55.78,44.78-9.02,7.8-17.98,15.7-26.6,23.9l-2.97,2.89v347.61l2.97,2.89c8.62,8.2,17.58,16.1,26.6,23.9,18.09,15.55,36.57,30.68,55.78,44.78.69.49,5.13,3.84,11.55,8.31,3.22,2.24,6.93,4.75,10.96,7.28,4.03,2.51,8.36,5.08,12.85,7.18,2.25,1.03,4.54,1.98,6.83,2.52,1.14.29,2.29.43,3.37.4,1.09-.05,2.01-.35,2.68-1.06.78-.79,1.48-1.63,2.01-2.53.51-.9.86-1.86.98-2.81.27-1.92-.53-3.76-1.68-5.05-1.15-1.31-2.61-2.17-3.97-2.54-1.36-.41-2.66-.19-3.36.47-.68.69-.79,1.57-.86,2.11-.02.56-.04.88-.09.88-.05,0-.13-.29-.2-.88-.01-.57-.04-1.55.74-2.51.82-.93,2.43-1.27,3.97-.9,1.56.33,3.21,1.18,4.59,2.61.69.71,1.3,1.58,1.71,2.59.42,1.01.61,2.17.5,3.34-.1,1.17-.49,2.33-1.04,3.39-.58,1.06-1.32,2.03-2.16,2.92-.17.23-.52.46-.78.68-.28.23-.62.34-.93.51-.65.26-1.33.4-1.99.45-1.33.09-2.63-.05-3.88-.33-2.52-.52-4.91-1.45-7.26-2.45-4.68-2.04-9.13-4.54-13.26-7-4.13-2.46-7.93-4.93-11.21-7.12-6.56-4.39-11.06-7.68-11.76-8.18Z"/><path class="cls-1" d="M83.02,416.02c14.1,19.21,29.23,37.7,44.78,55.78,7.8,9.02,15.7,17.98,23.9,26.6l2.89,2.97h347.61l2.89-2.97c8.2-8.62,16.1-17.58,23.9-26.6,15.55-18.09,30.68-36.57,44.78-55.78.49-.69,3.84-5.13,8.31-11.55,2.24-3.22,4.75-6.93,7.28-10.96,2.51-4.03,5.08-8.36,7.18-12.85,1.03-2.25,1.98-4.54,2.52-6.83.29-1.14.43-2.29.4-3.37-.05-1.09-.35-2.01-1.06-2.68-.79-.78-1.63-1.48-2.53-2.01-.9-.51-1.86-.86-2.81-.98-1.92-.27-3.76.53-5.05,1.68-1.31,1.15-2.17,2.61-2.54,3.97-.41,1.37-.19,2.66.47,3.36.69.68,1.57.79,2.11.86.56.02.88.04.88.09,0,.05-.29.13-.88.2-.57.01-1.55.04-2.51-.74-.93-.82-1.27-2.43-.9-3.97.33-1.56,1.18-3.21,2.61-4.59.71-.69,1.58-1.3,2.59-1.71,1.01-.42,2.17-.61,3.34-.5,1.17.1,2.33.49,3.39,1.04,1.06.58,2.03,1.32,2.92,2.16.23.17.46.52.68.78.23.28.34.62.51.93.26.65.4,1.33.45,1.99.09,1.33-.05,2.63-.33,3.88-.52,2.52-1.45,4.91-2.46,7.26-2.04,4.68-4.54,9.13-7,13.26-2.46,4.13-4.93,7.93-7.12,11.21-4.39,6.56-7.69,11.06-8.18,11.76-14.17,19.31-29.33,37.83-44.92,55.97-7.82,9.05-15.73,18.01-24,26.71l-1.56,1.62-1.8,1.82-.39.4c-.18.02-.37,0-.56.01H153.95c-.18,0-.38.01-.55-.01l-.39-.4-1.8-1.82-1.56-1.62c-8.26-8.69-16.17-17.66-24-26.71-15.59-18.14-30.75-36.65-44.92-55.97-.5-.7-3.79-5.2-8.18-11.76-2.19-3.28-4.66-7.08-7.12-11.21-2.46-4.13-4.96-8.58-7-13.26-1-2.35-1.93-4.74-2.45-7.26-.28-1.25-.41-2.56-.33-3.88.05-.66.19-1.34.45-1.99.17-.31.28-.65.51-.93.22-.26.46-.61.68-.78.9-.83,1.86-1.58,2.92-2.16,1.07-.56,2.22-.94,3.39-1.04,1.17-.1,2.33.08,3.34.5,1.01.42,1.88,1.03,2.59,1.71,1.43,1.38,2.28,3.03,2.61,4.59.37,1.54.03,3.15-.9,3.97-.96.78-1.94.75-2.51.74-.59-.08-.89-.16-.88-.2,0-.05.32-.07.88-.09.54-.07,1.42-.18,2.11-.86.66-.7.88-2,.47-3.36-.37-1.36-1.23-2.82-2.54-3.97-1.29-1.15-3.12-1.95-5.05-1.68-.96.12-1.91.47-2.81.98-.9.53-1.74,1.22-2.53,2.01-.71.68-1.01,1.59-1.06,2.68-.03,1.08.1,2.22.4,3.37.54,2.3,1.5,4.59,2.53,6.83,2.09,4.49,4.66,8.82,7.18,12.85,2.52,4.03,5.04,7.75,7.28,10.96,4.48,6.43,7.82,10.86,8.31,11.55Z"/><path class="cls-1" d="M80.72,239.1c14.17-19.31,29.33-37.83,44.92-55.97,7.82-9.05,15.73-18.01,24-26.71l1.56-1.62,1.8-1.82.39-.4c.18-.02.37,0,.55-.01h348.91c.18,0,.38-.01.56.01l.39.4,1.8,1.82,1.56,1.62c8.26,8.69,16.17,17.66,24,26.71,15.59,18.14,30.75,36.65,44.92,55.97.5.7,3.79,5.2,8.18,11.76,2.19,3.28,4.66,7.08,7.12,11.21,2.46,4.13,4.96,8.58,7,13.26,1,2.35,1.93,4.74,2.46,7.26.28,1.25.41,2.56.33,3.88-.05.66-.19,1.34-.45,1.99-.17.31-.28.65-.51.93-.22.26-.46.61-.68.78-.9.83-1.86,1.58-2.92,2.16-1.07.56-2.22.94-3.39,1.04-1.17.1-2.33-.08-3.34-.5-1.01-.42-1.88-1.03-2.59-1.71-1.42-1.38-2.28-3.03-2.61-4.59-.37-1.54-.03-3.15.9-3.97.96-.78,1.94-.75,2.51-.74.59.08.89.16.88.2,0,.05-.32.07-.88.09-.54.07-1.42.18-2.11.86-.66.7-.88,2-.47,3.36.37,1.36,1.23,2.82,2.54,3.97,1.29,1.15,3.12,1.95,5.05,1.68.96-.12,1.91-.47,2.81-.98.9-.53,1.74-1.22,2.53-2.01.71-.68,1.01-1.59,1.06-2.68.03-1.08-.1-2.22-.4-3.37-.54-2.3-1.5-4.59-2.52-6.83-2.09-4.49-4.66-8.82-7.18-12.85-2.52-4.03-5.04-7.75-7.28-10.96-4.48-6.43-7.82-10.86-8.31-11.55-14.1-19.21-29.23-37.7-44.78-55.78-7.8-9.02-15.7-17.98-23.9-26.6l-2.89-2.97H154.59l-2.89,2.97c-8.2,8.62-16.1,17.58-23.9,26.6-15.55,18.09-30.68,36.57-44.78,55.78-.49.69-3.84,5.13-8.31,11.55-2.24,3.22-4.75,6.93-7.28,10.96-2.51,4.03-5.08,8.36-7.18,12.85-1.03,2.24-1.98,4.54-2.53,6.83-.29,1.14-.43,2.29-.4,3.37.05,1.09.35,2.01,1.06,2.68.79.78,1.63,1.48,2.53,2.01.9.51,1.86.86,2.81.98,1.92.27,3.76-.53,5.05-1.68,1.31-1.15,2.17-2.61,2.54-3.97.41-1.36.19-2.66-.47-3.36-.69-.68-1.57-.79-2.11-.86-.56-.02-.88-.04-.88-.09,0-.05.29-.13.88-.2.57-.01,1.55-.04,2.51.74.93.82,1.27,2.43.9,3.97-.33,1.56-1.18,3.21-2.61,4.59-.71.69-1.58,1.3-2.59,1.71-1.01.42-2.17.61-3.34.5-1.17-.1-2.33-.49-3.39-1.04-1.06-.58-2.03-1.32-2.92-2.16-.23-.17-.46-.52-.68-.78-.23-.28-.34-.62-.51-.93-.26-.65-.4-1.33-.45-1.99-.09-1.33.05-2.63.33-3.88.52-2.52,1.45-4.91,2.45-7.26,2.04-4.68,4.54-9.13,7-13.26,2.46-4.13,4.93-7.93,7.12-11.21,4.39-6.56,7.69-11.06,8.18-11.76Z"/><path class="cls-1" d="M416.02,573.77c19.21-14.1,37.7-29.23,55.78-44.78,9.02-7.8,17.98-15.7,26.6-23.9l2.97-2.89V154.59l-2.97-2.89c-8.62-8.2-17.58-16.1-26.6-23.9-18.09-15.55-36.57-30.68-55.78-44.78-.69-.49-5.13-3.83-11.55-8.31-3.22-2.24-6.93-4.75-10.96-7.28-4.03-2.51-8.36-5.08-12.85-7.17-2.24-1.03-4.54-1.98-6.83-2.52-1.14-.29-2.29-.43-3.37-.4-1.09.05-2.01.35-2.68,1.06-.78.79-1.48,1.63-2.01,2.53-.51.9-.86,1.86-.98,2.81-.27,1.92.53,3.76,1.68,5.05,1.15,1.31,2.61,2.17,3.97,2.54,1.37.41,2.66.19,3.36-.47.68-.69.79-1.57.86-2.11.02-.56.04-.88.09-.88.05,0,.13.29.2.88.01.57.04,1.55-.74,2.51-.82.93-2.43,1.27-3.97.9-1.56-.33-3.21-1.18-4.59-2.61-.69-.71-1.3-1.58-1.71-2.59-.42-1.01-.61-2.17-.5-3.34.1-1.17.49-2.33,1.04-3.39.58-1.06,1.32-2.03,2.16-2.92.17-.23.52-.46.78-.68.28-.23.62-.34.93-.51.65-.26,1.33-.4,1.99-.45,1.33-.09,2.63.05,3.88.33,2.52.52,4.91,1.45,7.26,2.45,4.68,2.04,9.13,4.54,13.26,7,4.13,2.46,7.93,4.93,11.21,7.12,6.56,4.39,11.06,7.68,11.76,8.18,19.31,14.17,37.83,29.33,55.97,44.92,9.05,7.82,18.01,15.73,26.71,24l1.62,1.56,1.82,1.79.4.39c.03.18,0,.37.01.55v348.91c0,.18.01.38-.01.55l-.4.39-1.82,1.79-1.62,1.56c-8.69,8.26-17.66,16.17-26.71,24-18.14,15.59-36.65,30.75-55.97,44.92-.7.5-5.2,3.79-11.76,8.18-3.28,2.19-7.08,4.66-11.21,7.12-4.13,2.46-8.58,4.96-13.26,7-2.35,1-4.74,1.93-7.26,2.45-1.25.28-2.56.41-3.88.33-.66-.05-1.34-.19-1.99-.45-.31-.17-.65-.28-.93-.51-.26-.22-.61-.46-.78-.68-.83-.9-1.58-1.86-2.16-2.92-.56-1.07-.94-2.22-1.04-3.39-.1-1.17.08-2.33.5-3.34.42-1.01,1.03-1.88,1.71-2.59,1.38-1.43,3.03-2.28,4.59-2.61,1.54-.37,3.15-.03,3.97.9.78.96.75,1.94.74,2.51-.08.59-.16.89-.2.88-.05,0-.07-.32-.09-.88-.07-.54-.18-1.42-.86-2.11-.7-.66-2-.88-3.36-.47-1.36.37-2.82,1.23-3.97,2.54-1.15,1.29-1.95,3.12-1.68,5.05.12.96.47,1.91.98,2.81.53.9,1.22,1.74,2.01,2.53.68.71,1.59,1.01,2.68,1.06,1.08.03,2.22-.1,3.37-.4,2.3-.54,4.59-1.5,6.83-2.52,4.49-2.09,8.82-4.66,12.85-7.18,4.03-2.52,7.75-5.04,10.96-7.28,6.43-4.48,10.86-7.82,11.55-8.31Z"/><path class="cls-1" d="M343.12,425.2c-.76.07-1.46.32-2.1.61-.29.2-.63.33-.87.58l-.4.33-.33.4c-.88,1.07-1.29,2.58-1.31,4.18-.16,3.28,1.04,6.47,3.07,9.06,2.02,2.63,4.93,4.6,7.96,6.24,3.06,1.63,6.35,2.91,9.71,3.99,6.75,2.12,13.75,3.56,20.8,4.73,7.05,1.18,14.16,2.1,21.28,3.03,7.12.94,14.27,1.82,21.39,3.19,7.11,1.36,14.15,3.13,21.04,5.33,13.78,4.42,27.09,10.44,39.33,18.23.43.28,5.65,3.73,10.27,7.73,4.67,3.94,8.73,8.32,8.47,8.58-.29.3-4.8-3.52-9.71-6.98-4.86-3.53-10.14-6.64-10.57-6.91-12-7.64-25.1-13.56-38.66-17.91-6.79-2.17-13.71-3.92-20.71-5.25-6.99-1.35-14.11-2.22-21.23-3.16-7.12-.93-14.27-1.85-21.39-3.04-7.12-1.19-14.23-2.64-21.2-4.83-3.47-1.12-6.91-2.45-10.19-4.19-1.64-.87-3.23-1.87-4.74-3-.76-.56-1.45-1.23-2.18-1.84-.64-.72-1.36-1.36-1.93-2.15-2.4-3.03-3.88-6.99-3.68-10.92.04-1.96.53-4.14,1.94-5.88l.54-.63c.2-.19.42-.36.63-.54.41-.38.9-.61,1.37-.9.97-.46,2-.8,3.04-.9.15-.02.7-.09,1.55-.06.85.04,1.99.16,3.25.6.32.09.64.23.97.38.33.13.66.32.99.51.67.38,1.36.93,1.91,1.63.55.7,1,1.57,1.11,2.58.13.99-.19,2.16-.95,2.93-.76.78-1.76,1.07-2.63,1.16-.88.04-1.69-.05-2.43-.25-1.49-.4-2.8-1.15-3.57-2.25-.38-.53-.57-1.31-.35-1.86.2-.56.65-.87.96-1.02.33-.16.59-.22.78-.23.18-.02.29,0,.3.04s-.06.13-.19.23c-.14.1-.35.24-.57.44-.22.19-.42.44-.46.76-.04.33.1.64.41.97.62.67,1.77,1.19,3.02,1.37.62.1,1.28.09,1.88,0,.59-.12,1.09-.37,1.36-.72.57-.66.29-1.85-.48-2.63-.71-.81-1.85-1.25-2.83-1.53-.99-.28-1.89-.32-2.53-.32-.64,0-1.04.07-1.15.09Z"/><path class="cls-1" d="M422.39,342.74c.1-1.03.44-2.06.9-3.04.29-.47.52-.96.9-1.37.18-.21.35-.43.54-.63l.63-.54c1.73-1.41,3.91-1.91,5.88-1.94,3.93-.2,7.89,1.28,10.92,3.68.78.58,1.43,1.29,2.15,1.93.61.73,1.27,1.42,1.84,2.18,1.13,1.51,2.14,3.1,3,4.74,1.75,3.28,3.07,6.72,4.19,10.19,2.19,6.96,3.64,14.08,4.83,21.19,1.2,7.12,2.11,14.26,3.04,21.39.94,7.12,1.82,14.24,3.16,21.23,1.33,7,3.08,13.92,5.25,20.71,4.35,13.57,10.27,26.66,17.92,38.66.28.42,3.38,5.7,6.91,10.57,3.46,4.91,7.28,9.42,6.98,9.71-.26.26-4.64-3.8-8.58-8.47-4-4.62-7.45-9.84-7.73-10.27-7.79-12.24-13.8-25.55-18.23-39.33-2.2-6.9-3.98-13.93-5.33-21.04-1.37-7.12-2.25-14.27-3.19-21.39-.93-7.12-1.84-14.23-3.03-21.28-1.17-7.05-2.61-14.05-4.73-20.8-1.09-3.36-2.36-6.65-3.99-9.71-1.64-3.03-3.61-5.94-6.24-7.96-2.59-2.03-5.77-3.22-9.06-3.07-1.6.02-3.11.43-4.18,1.31l-.4.33-.33.4c-.25.24-.38.58-.58.87-.29.65-.54,1.34-.61,2.1-.02.11-.09.51-.1,1.15,0,.64.04,1.53.32,2.53.28.98.72,2.12,1.53,2.83.78.77,1.98,1.05,2.63.48.35-.27.6-.77.71-1.36.08-.6.09-1.26,0-1.88-.18-1.24-.7-2.39-1.37-3.02-.33-.31-.64-.45-.97-.41-.32.04-.57.24-.76.46-.2.22-.34.42-.44.57-.11.14-.19.21-.23.19-.05-.02-.06-.12-.04-.3.02-.19.07-.45.23-.78.15-.32.46-.76,1.03-.96.55-.22,1.32-.03,1.85.35,1.1.76,1.85,2.07,2.25,3.57.2.75.29,1.56.25,2.43-.08.87-.38,1.87-1.16,2.63-.77.77-1.94,1.08-2.93.95-1.01-.11-1.88-.56-2.58-1.11-.7-.55-1.26-1.24-1.64-1.91-.2-.33-.38-.66-.51-.99-.15-.33-.29-.65-.38-.97-.44-1.26-.56-2.41-.6-3.25-.03-.85.03-1.41.06-1.55Z"/><path class="cls-1" d="M128.83,215.75c-1.67,19.36,2.71,39.2,12.48,56,9.73,16.82,24.72,30.54,42.34,38.73,17.62,8.22,37.77,10.8,56.9,7.41,9.57-1.65,18.86-4.85,27.49-9.3,4.29-2.27,8.42-4.85,12.36-7.69,3.89-2.91,7.57-6.09,11.04-9.49,3.4-3.47,6.58-7.15,9.49-11.04,2.85-3.94,5.42-8.06,7.69-12.36,4.45-8.63,7.65-17.91,9.3-27.49,3.39-19.13.81-39.28-7.41-56.9-8.19-17.62-21.92-32.61-38.73-42.34-16.8-9.78-36.64-14.15-56-12.48-.17.02-.59.03-1.2.09-.62.07-1.44.16-2.45.27-1,.1-2.18.23-3.5.46-1.32.22-2.79.4-4.35.76-6.27,1.24-14.29,3.53-21.74,7.03-7.47,3.43-14.37,7.85-19.19,11.59-2.39,1.9-4.38,3.48-5.7,4.67-1.35,1.16-2.16,1.79-2.23,1.72-.07-.07.6-.84,1.83-2.14,1.2-1.33,3.09-3.06,5.4-5.12,4.66-4.05,11.5-8.81,19.02-12.55,7.49-3.8,15.65-6.37,22.07-7.78,1.6-.4,3.11-.62,4.46-.87,1.35-.26,2.56-.42,3.59-.55,1.03-.13,1.88-.24,2.51-.32.64-.07,1.06-.09,1.24-.11,19.93-1.72,40.37,2.78,57.67,12.86,17.33,10.02,31.45,25.45,39.89,43.61,8.47,18.15,11.12,38.9,7.64,58.6-1.7,9.86-5,19.43-9.58,28.31-2.34,4.42-4.99,8.67-7.92,12.73-2.99,4.01-6.27,7.8-9.77,11.37-3.57,3.5-7.36,6.78-11.37,9.77-4.05,2.93-8.3,5.58-12.73,7.92-8.89,4.59-18.45,7.88-28.31,9.58-19.7,3.49-40.45.83-58.6-7.63-18.16-8.44-33.58-22.57-43.61-39.89-10.07-17.31-14.57-37.74-12.86-57.67.02-.18.04-.6.11-1.24.08-.63.19-1.48.32-2.51.13-1.03.28-2.24.55-3.59.26-1.35.47-2.86.87-4.46,1.41-6.42,3.98-14.58,7.78-22.07,3.74-7.52,8.5-14.36,12.55-19.02,2.06-2.31,3.78-4.2,5.12-5.4,1.3-1.23,2.07-1.9,2.14-1.83.07.07-.56.87-1.72,2.23-1.19,1.32-2.77,3.32-4.67,5.7-3.74,4.82-8.16,11.72-11.59,19.19-3.49,7.45-5.79,15.47-7.03,21.74-.36,1.56-.53,3.04-.76,4.35-.23,1.32-.36,2.5-.46,3.5-.11,1-.2,1.83-.27,2.45-.06.62-.07,1.03-.09,1.2Z"/><path class="cls-1" d="M234.43,314.04c-.1,1.03-.44,2.06-.9,3.04-.28.47-.52.96-.9,1.37-.18.21-.35.43-.54.63l-.63.54c-1.73,1.41-3.91,1.91-5.88,1.94-3.93.2-7.89-1.28-10.92-3.68-.78-.58-1.43-1.29-2.15-1.93-.61-.73-1.27-1.42-1.84-2.18-1.13-1.51-2.14-3.1-3-4.74-1.75-3.28-3.07-6.72-4.19-10.19-2.19-6.96-3.64-14.08-4.83-21.2-1.2-7.12-2.11-14.26-3.04-21.39-.94-7.12-1.82-14.24-3.16-21.23-1.33-7-3.08-13.92-5.25-20.71-4.35-13.57-10.27-26.66-17.92-38.66-.28-.42-3.38-5.7-6.91-10.57-3.46-4.91-7.28-9.42-6.98-9.71.26-.26,4.64,3.8,8.58,8.47,4,4.62,7.45,9.84,7.73,10.27,7.79,12.24,13.8,25.55,18.23,39.33,2.2,6.9,3.98,13.93,5.33,21.04,1.37,7.12,2.25,14.27,3.19,21.39.93,7.12,1.84,14.23,3.03,21.28,1.17,7.05,2.61,14.05,4.73,20.8,1.09,3.36,2.36,6.65,3.99,9.71,1.64,3.03,3.61,5.94,6.24,7.96,2.59,2.03,5.77,3.22,9.06,3.07,1.6-.02,3.11-.43,4.18-1.31l.4-.33.33-.4c.25-.24.38-.58.58-.87.29-.65.54-1.34.61-2.1.02-.11.09-.51.1-1.15,0-.64-.04-1.53-.32-2.53-.28-.98-.72-2.12-1.53-2.83-.78-.77-1.98-1.05-2.63-.48-.35.27-.6.77-.72,1.36-.08.6-.09,1.26,0,1.88.18,1.24.7,2.39,1.37,3.02.33.31.64.45.97.41.32-.04.57-.24.76-.46.2-.22.34-.42.44-.57.11-.14.19-.21.23-.19.05.02.06.12.04.3-.02.19-.07.45-.23.78-.15.32-.46.76-1.03.96-.55.22-1.32.03-1.86-.35-1.1-.76-1.85-2.07-2.25-3.57-.2-.75-.29-1.56-.25-2.43.08-.87.38-1.87,1.16-2.63.77-.77,1.94-1.08,2.93-.95,1.01.11,1.88.56,2.58,1.11.7.55,1.26,1.24,1.63,1.91.2.33.38.66.51.99.15.33.29.65.38.97.44,1.26.56,2.41.6,3.25.03.85-.03,1.41-.06,1.55Z"/><path class="cls-1" d="M313.7,231.58c.76-.07,1.46-.32,2.1-.61.29-.2.63-.33.87-.58l.4-.33.33-.4c.88-1.07,1.29-2.58,1.31-4.18.16-3.28-1.04-6.47-3.07-9.06-2.02-2.63-4.93-4.6-7.96-6.24-3.06-1.63-6.35-2.91-9.71-3.99-6.75-2.12-13.75-3.56-20.8-4.73-7.05-1.18-14.16-2.1-21.28-3.03-7.12-.94-14.27-1.82-21.39-3.19-7.11-1.36-14.15-3.13-21.04-5.33-13.78-4.42-27.09-10.44-39.33-18.23-.43-.28-5.65-3.73-10.27-7.73-4.67-3.94-8.73-8.32-8.47-8.58.29-.3,4.8,3.52,9.71,6.98,4.86,3.53,10.14,6.64,10.57,6.91,12,7.64,25.1,13.56,38.66,17.91,6.79,2.17,13.71,3.92,20.71,5.25,6.99,1.35,14.11,2.22,21.23,3.16,7.12.93,14.27,1.85,21.39,3.04,7.12,1.19,14.23,2.64,21.2,4.83,3.47,1.12,6.91,2.45,10.19,4.19,1.64.87,3.23,1.87,4.74,3,.76.56,1.45,1.23,2.18,1.84.64.72,1.36,1.36,1.93,2.15,2.4,3.03,3.88,6.99,3.68,10.92-.04,1.96-.53,4.14-1.94,5.88l-.54.63c-.2.19-.42.36-.63.54-.41.38-.9.61-1.37.9-.97.46-2,.79-3.04.9-.15.02-.7.09-1.55.06-.85-.04-1.99-.16-3.25-.6-.32-.09-.64-.23-.97-.38-.33-.13-.66-.32-.99-.51-.67-.38-1.36-.93-1.91-1.63-.55-.7-1-1.57-1.11-2.58-.13-.99.19-2.16.95-2.93.76-.78,1.76-1.07,2.63-1.16.88-.04,1.69.05,2.43.25,1.49.4,2.8,1.15,3.57,2.25.39.54.57,1.31.35,1.86-.2.56-.64.87-.96,1.03-.33.16-.59.22-.78.23-.18.02-.29.01-.3-.04-.02-.05.06-.13.19-.23.14-.1.35-.24.57-.44.22-.19.42-.44.46-.76.04-.33-.1-.64-.41-.97-.62-.67-1.77-1.19-3.02-1.37-.62-.1-1.28-.09-1.88,0-.59.12-1.09.37-1.36.71-.57.66-.29,1.85.48,2.63.71.81,1.85,1.25,2.83,1.53.99.28,1.89.32,2.53.32.64,0,1.04-.07,1.15-.09Z"/><path class="cls-1" d="M125.99,441.26c-1.72-19.93,2.78-40.37,12.86-57.67,10.02-17.32,25.45-31.45,43.61-39.89,18.15-8.47,38.9-11.12,58.6-7.63,9.86,1.7,19.43,5,28.31,9.58,4.42,2.34,8.67,4.99,12.73,7.92,4.01,2.99,7.8,6.27,11.37,9.77,3.5,3.57,6.78,7.36,9.77,11.37,2.93,4.05,5.58,8.3,7.92,12.73,4.59,8.89,7.88,18.45,9.58,28.31,3.49,19.7.83,40.45-7.64,58.6-8.44,18.15-22.57,33.58-39.89,43.61-17.31,10.07-37.74,14.57-57.67,12.86-.18-.02-.6-.04-1.24-.11-.63-.08-1.48-.19-2.51-.32-1.03-.13-2.24-.28-3.59-.55-1.35-.26-2.86-.47-4.46-.87-6.42-1.41-14.58-3.98-22.07-7.78-7.52-3.74-14.36-8.5-19.02-12.55-2.31-2.06-4.2-3.78-5.4-5.12-1.23-1.3-1.9-2.07-1.83-2.14s.87.56,2.23,1.72c1.32,1.19,3.32,2.77,5.7,4.67,4.82,3.74,11.72,8.16,19.19,11.59,7.45,3.49,15.47,5.79,21.74,7.03,1.56.36,3.04.53,4.35.76,1.32.23,2.5.36,3.5.46,1,.11,1.83.2,2.45.27.62.06,1.03.07,1.2.09,19.36,1.67,39.2-2.7,56-12.48,16.82-9.73,30.55-24.72,38.73-42.34,8.22-17.62,10.8-37.77,7.41-56.9-1.65-9.57-4.85-18.86-9.3-27.49-2.27-4.29-4.85-8.42-7.69-12.36-2.91-3.89-6.09-7.57-9.49-11.04-3.47-3.4-7.15-6.58-11.04-9.49-3.94-2.85-8.06-5.42-12.36-7.69-8.63-4.45-17.91-7.65-27.49-9.3-19.13-3.39-39.28-.81-56.9,7.41-17.62,8.19-32.61,21.92-42.34,38.73-9.78,16.8-14.15,36.64-12.48,56,.02.17.03.59.09,1.2.07.62.16,1.44.27,2.45.1,1,.23,2.18.46,3.5.22,1.32.4,2.79.76,4.35,1.24,6.27,3.53,14.29,7.03,21.74,3.43,7.47,7.85,14.37,11.59,19.19,1.9,2.39,3.48,4.38,4.67,5.7,1.16,1.35,1.79,2.16,1.72,2.23-.07.07-.84-.6-2.14-1.83-1.33-1.2-3.06-3.09-5.12-5.4-4.05-4.66-8.81-11.5-12.55-19.02-3.8-7.49-6.37-15.65-7.78-22.07-.4-1.6-.62-3.11-.87-4.46-.26-1.35-.42-2.56-.55-3.59-.13-1.03-.24-1.88-.32-2.51-.07-.64-.09-1.06-.11-1.24Z"/><path class="cls-1" d="M231.6,343.09c-.07-.76-.32-1.46-.61-2.1-.2-.29-.33-.63-.58-.87l-.33-.4-.4-.33c-1.07-.88-2.58-1.29-4.18-1.31-3.28-.16-6.47,1.04-9.06,3.07-2.63,2.02-4.6,4.93-6.24,7.96-1.63,3.06-2.91,6.35-3.99,9.71-2.12,6.75-3.56,13.75-4.73,20.8-1.18,7.05-2.1,14.16-3.03,21.28-.94,7.12-1.82,14.27-3.19,21.39-1.36,7.11-3.13,14.15-5.33,21.04-4.42,13.78-10.44,27.09-18.23,39.33-.28.43-3.73,5.65-7.73,10.27-3.94,4.67-8.32,8.73-8.58,8.47-.3-.29,3.52-4.8,6.98-9.71,3.53-4.86,6.64-10.14,6.91-10.57,7.64-12,13.56-25.1,17.92-38.66,2.17-6.79,3.92-13.71,5.25-20.71,1.35-6.99,2.22-14.11,3.16-21.23.93-7.12,1.85-14.26,3.04-21.39,1.19-7.12,2.64-14.23,4.83-21.2,1.12-3.47,2.45-6.91,4.19-10.19.87-1.64,1.87-3.23,3-4.74.56-.76,1.23-1.45,1.84-2.18.72-.64,1.36-1.36,2.15-1.93,3.03-2.4,6.99-3.88,10.92-3.68,1.96.04,4.14.53,5.88,1.94l.63.54c.19.2.36.42.54.63.38.41.61.9.9,1.37.46.97.8,2,.9,3.04.02.15.09.7.06,1.55-.04.85-.16,1.99-.6,3.25-.09.32-.23.64-.38.97-.13.33-.32.66-.51.99-.38.67-.93,1.36-1.63,1.91-.7.55-1.57,1-2.58,1.11-.99.13-2.16-.19-2.93-.95-.78-.76-1.07-1.76-1.16-2.63-.04-.88.05-1.69.25-2.43.4-1.49,1.15-2.8,2.25-3.57.53-.39,1.31-.57,1.86-.35.56.2.87.64,1.03.96.16.33.22.59.23.78.02.18.01.29-.04.3-.05.02-.13-.06-.23-.19-.1-.14-.24-.35-.44-.57-.19-.22-.44-.42-.76-.46-.33-.04-.64.1-.97.41-.67.62-1.19,1.77-1.37,3.02-.1.62-.09,1.28,0,1.88.12.59.37,1.09.72,1.36.66.57,1.85.29,2.63-.48.81-.71,1.25-1.85,1.53-2.83.28-.99.32-1.89.32-2.53,0-.64-.07-1.04-.1-1.15Z"/><path class="cls-1" d="M314.06,422.35c1.03.1,2.06.44,3.04.9.47.29.96.52,1.37.9.21.18.43.35.63.54l.54.63c1.41,1.73,1.91,3.91,1.94,5.88.2,3.93-1.28,7.89-3.68,10.92-.58.78-1.29,1.43-1.93,2.15-.73.61-1.42,1.27-2.18,1.84-1.51,1.13-3.1,2.14-4.74,3-3.28,1.75-6.72,3.07-10.19,4.19-6.96,2.19-14.08,3.64-21.2,4.83-7.12,1.2-14.26,2.11-21.39,3.04-7.12.94-14.24,1.82-21.23,3.16-7,1.33-13.92,3.08-20.71,5.25-13.57,4.35-26.66,10.27-38.66,17.91-.42.28-5.7,3.38-10.57,6.91-4.91,3.46-9.42,7.28-9.71,6.98-.26-.26,3.8-4.64,8.47-8.58,4.62-4,9.84-7.45,10.27-7.73,12.24-7.79,25.55-13.8,39.33-18.23,6.9-2.2,13.93-3.98,21.04-5.33,7.12-1.37,14.27-2.25,21.39-3.19,7.12-.93,14.23-1.84,21.28-3.03,7.05-1.17,14.05-2.61,20.8-4.73,3.36-1.09,6.65-2.36,9.71-3.99,3.03-1.64,5.94-3.61,7.96-6.24,2.03-2.59,3.22-5.77,3.07-9.06-.02-1.6-.43-3.11-1.31-4.18l-.33-.4-.4-.33c-.24-.25-.58-.38-.87-.58-.65-.29-1.34-.54-2.1-.61-.11-.02-.51-.09-1.15-.09-.64,0-1.53.04-2.53.32-.98.28-2.12.72-2.83,1.53-.77.78-1.05,1.98-.48,2.63.27.35.77.6,1.36.71.6.08,1.26.09,1.88,0,1.24-.18,2.39-.7,3.02-1.37.31-.33.45-.64.41-.97-.04-.32-.24-.57-.46-.76-.22-.2-.42-.34-.57-.44-.14-.11-.21-.19-.19-.23s.12-.06.3-.04c.19.02.45.07.78.23.32.15.76.46.96,1.03.22.55.03,1.32-.35,1.85-.76,1.1-2.07,1.85-3.57,2.25-.75.2-1.56.29-2.43.25-.87-.08-1.87-.38-2.63-1.16-.77-.77-1.08-1.94-.95-2.93.11-1.01.56-1.88,1.11-2.58.55-.7,1.24-1.26,1.91-1.64.33-.2.66-.38.99-.51.33-.15.65-.29.97-.38,1.26-.44,2.41-.56,3.25-.6.85-.03,1.41.03,1.55.06Z"/><path class="cls-1" d="M441.05,128.8c-19.36-1.67-39.2,2.7-56,12.48-16.82,9.73-30.55,24.72-38.73,42.34-8.22,17.62-10.8,37.77-7.41,56.9,1.65,9.57,4.85,18.86,9.3,27.49,2.27,4.29,4.85,8.42,7.69,12.36,2.91,3.89,6.09,7.57,9.49,11.04,3.47,3.4,7.15,6.58,11.04,9.49,3.94,2.85,8.06,5.42,12.36,7.69,8.63,4.45,17.91,7.65,27.49,9.3,19.13,3.39,39.28.81,56.9-7.41,17.62-8.19,32.61-21.92,42.34-38.73,9.78-16.8,14.15-36.64,12.48-56-.02-.17-.03-.59-.09-1.2-.07-.62-.16-1.44-.27-2.45-.1-1-.23-2.18-.46-3.5-.22-1.32-.4-2.79-.76-4.35-1.24-6.27-3.53-14.29-7.03-21.74-3.43-7.47-7.85-14.37-11.59-19.19-1.9-2.39-3.48-4.38-4.67-5.7-1.16-1.35-1.79-2.16-1.72-2.23.07-.07.84.6,2.14,1.83,1.33,1.2,3.06,3.09,5.12,5.4,4.05,4.66,8.81,11.5,12.55,19.02,3.8,7.49,6.37,15.65,7.78,22.07.4,1.6.62,3.11.87,4.46.26,1.35.42,2.56.55,3.59.13,1.03.24,1.88.32,2.51.07.64.09,1.06.11,1.24,1.72,19.93-2.78,40.37-12.86,57.67-10.02,17.32-25.45,31.45-43.61,39.89-18.15,8.47-38.9,11.12-58.6,7.63-9.86-1.7-19.43-5-28.31-9.58-4.42-2.34-8.67-4.99-12.73-7.92-4.01-2.99-7.8-6.27-11.37-9.77-3.5-3.57-6.78-7.36-9.77-11.37-2.93-4.05-5.58-8.3-7.92-12.73-4.59-8.89-7.88-18.45-9.58-28.31-3.49-19.7-.83-40.45,7.64-58.6,8.44-18.15,22.57-33.58,39.89-43.61,17.31-10.07,37.74-14.57,57.67-12.86.18.02.6.04,1.24.11.63.08,1.48.19,2.51.32,1.03.13,2.24.28,3.59.55,1.35.26,2.86.47,4.46.87,6.42,1.41,14.58,3.98,22.07,7.78,7.52,3.74,14.36,8.5,19.02,12.55,2.31,2.06,4.2,3.78,5.4,5.12,1.23,1.3,1.9,2.07,1.83,2.14-.07.07-.87-.56-2.23-1.72-1.32-1.19-3.32-2.77-5.7-4.67-4.82-3.74-11.72-8.16-19.19-11.59-7.45-3.49-15.47-5.79-21.74-7.03-1.56-.36-3.04-.53-4.35-.76-1.32-.23-2.5-.36-3.5-.46-1-.11-1.83-.2-2.45-.27-.62-.06-1.03-.07-1.2-.09Z"/><path class="cls-1" d="M342.76,234.4c-1.03-.1-2.06-.44-3.04-.9-.47-.29-.96-.52-1.37-.9-.21-.18-.43-.35-.63-.54l-.54-.63c-1.41-1.73-1.91-3.91-1.94-5.88-.2-3.93,1.28-7.89,3.68-10.92.58-.78,1.29-1.43,1.93-2.15.73-.61,1.42-1.27,2.18-1.84,1.51-1.13,3.1-2.14,4.74-3,3.28-1.75,6.72-3.07,10.19-4.19,6.97-2.19,14.08-3.64,21.2-4.83,7.12-1.2,14.26-2.11,21.39-3.04,7.12-.94,14.24-1.82,21.23-3.16,7-1.33,13.92-3.08,20.71-5.25,13.57-4.35,26.66-10.27,38.66-17.91.42-.28,5.7-3.38,10.57-6.91,4.91-3.46,9.42-7.28,9.71-6.98.26.26-3.8,4.64-8.47,8.58-4.62,4-9.84,7.45-10.27,7.73-12.24,7.79-25.55,13.8-39.33,18.23-6.9,2.2-13.93,3.98-21.04,5.33-7.12,1.37-14.27,2.25-21.39,3.19-7.12.93-14.23,1.84-21.28,3.03-7.05,1.17-14.05,2.61-20.8,4.73-3.36,1.09-6.65,2.36-9.71,3.99-3.03,1.64-5.94,3.61-7.96,6.24-2.03,2.59-3.22,5.77-3.07,9.06.02,1.6.43,3.11,1.31,4.18l.33.4.4.33c.24.25.58.38.87.58.65.29,1.34.54,2.1.61.11.02.51.09,1.15.09.64,0,1.53-.04,2.53-.32.98-.28,2.12-.72,2.83-1.53.77-.78,1.05-1.98.48-2.63-.27-.35-.77-.6-1.36-.71-.6-.08-1.26-.09-1.88,0-1.24.18-2.39.7-3.02,1.37-.31.33-.45.64-.41.97.04.32.24.57.46.76.22.2.42.34.57.44.14.11.21.19.19.23s-.12.06-.3.04c-.19-.02-.45-.07-.78-.23-.32-.15-.76-.46-.96-1.02-.22-.55-.03-1.32.35-1.86.76-1.1,2.07-1.85,3.57-2.25.75-.2,1.56-.29,2.43-.25.87.08,1.87.38,2.63,1.16.77.77,1.08,1.94.95,2.93-.11,1.01-.56,1.88-1.11,2.58-.55.7-1.24,1.26-1.91,1.64-.33.2-.66.38-.99.51-.33.15-.65.29-.97.38-1.26.44-2.41.56-3.25.6-.85.03-1.41-.03-1.55-.06Z"/><path class="cls-1" d="M425.22,313.66c.07.76.32,1.46.61,2.1.2.29.33.63.58.87l.33.4.4.33c1.07.88,2.58,1.29,4.18,1.31,3.28.16,6.47-1.04,9.06-3.07,2.63-2.02,4.6-4.93,6.24-7.96,1.63-3.06,2.91-6.35,3.99-9.71,2.12-6.75,3.56-13.75,4.73-20.8,1.18-7.05,2.1-14.16,3.03-21.28.94-7.12,1.82-14.27,3.19-21.39,1.36-7.11,3.13-14.15,5.33-21.04,4.42-13.78,10.44-27.09,18.23-39.33.28-.43,3.73-5.65,7.73-10.27,3.94-4.67,8.32-8.73,8.58-8.47.3.29-3.52,4.8-6.98,9.71-3.53,4.86-6.64,10.14-6.91,10.57-7.64,12-13.56,25.1-17.92,38.66-2.17,6.79-3.92,13.71-5.25,20.71-1.35,6.99-2.22,14.11-3.16,21.23-.93,7.12-1.85,14.27-3.04,21.39-1.19,7.12-2.64,14.23-4.83,21.19-1.12,3.47-2.45,6.91-4.19,10.19-.87,1.64-1.87,3.23-3,4.74-.56.76-1.23,1.45-1.84,2.18-.72.64-1.36,1.36-2.15,1.93-3.03,2.4-6.99,3.88-10.92,3.68-1.96-.04-4.14-.53-5.88-1.94l-.63-.54c-.19-.2-.36-.42-.54-.63-.38-.41-.61-.9-.9-1.37-.46-.97-.79-2-.9-3.04-.02-.15-.09-.7-.06-1.55.04-.85.16-1.99.6-3.25.09-.32.23-.64.38-.97.13-.33.32-.66.51-.99.38-.67.93-1.36,1.64-1.91.7-.55,1.57-1,2.58-1.11.99-.13,2.16.19,2.93.95.78.76,1.07,1.76,1.16,2.63.04.88-.05,1.69-.25,2.43-.4,1.49-1.15,2.8-2.25,3.57-.53.39-1.31.57-1.85.35-.56-.2-.87-.64-1.03-.96-.16-.33-.22-.59-.23-.78-.02-.18,0-.29.04-.3.05-.02.13.06.23.19.1.14.24.35.44.57.19.22.44.42.76.46.33.04.64-.1.97-.41.67-.62,1.19-1.77,1.37-3.02.1-.62.09-1.28,0-1.88-.12-.59-.37-1.09-.71-1.36-.66-.57-1.85-.29-2.63.48-.81.71-1.25,1.85-1.53,2.83-.28.99-.32,1.89-.32,2.53,0,.64.08,1.04.1,1.15Z"/><path class="cls-1" d="M523.83,355.91c4.03,2.33,8.73,3.46,13.47,3.86,4.76.39,9.6.14,14.39-.52,9.6-1.32,19.02-4.03,28.22-7.27,9.2-3.26,18.21-7.11,27.06-11.3,4.43-2.09,8.81-4.28,13.15-6.54,2.17-1.13,4.34-2.28,6.49-3.44l4.2-2.3-4.2-2.3c-2.15-1.17-4.32-2.31-6.49-3.44-4.35-2.26-8.73-4.45-13.15-6.54-8.84-4.19-17.85-8.04-27.06-11.3-9.2-3.23-18.62-5.95-28.22-7.27-4.79-.66-9.63-.91-14.39-.52-4.74.4-9.44,1.54-13.47,3.86-.27.18-2.23,1.15-4.49,3.22-2.3,2.02-4.65,5.32-6.17,9.04-1.51,3.72-2.33,7.7-2.73,10.7-.4,3.01-.54,5.03-.76,5.03-.17,0-.41-2.03-.35-5.13.07-3.09.59-7.26,1.95-11.32.7-2.02,1.62-3.99,2.7-5.74,1.06-1.77,2.34-3.27,3.54-4.48,2.43-2.43,4.59-3.59,4.89-3.8,4.52-2.6,9.62-3.8,14.64-4.23,5.04-.42,10.08-.15,15.02.53,9.89,1.36,19.46,4.13,28.79,7.4,9.32,3.31,18.42,7.19,27.33,11.41,4.46,2.11,8.87,4.31,13.25,6.59,2.19,1.14,4.37,2.29,6.53,3.47l3.24,1.77,5.46,3.04-5.46,3.04-3.24,1.77c-2.17,1.17-4.34,2.33-6.53,3.47-4.38,2.27-8.79,4.48-13.25,6.59-8.91,4.23-18.01,8.11-27.33,11.41-9.33,3.27-18.9,6.04-28.79,7.4-4.94.68-9.98.95-15.02.53-5.02-.43-10.13-1.63-14.64-4.23-.3-.2-2.46-1.37-4.89-3.8-1.2-1.21-2.48-2.71-3.54-4.48-1.08-1.75-2-3.72-2.7-5.74-1.36-4.06-1.88-8.23-1.95-11.32-.07-3.1.18-5.13.35-5.13.22,0,.35,2.03.76,5.03.4,3,1.22,6.98,2.73,10.7,1.53,3.71,3.87,7.02,6.17,9.04,2.26,2.06,4.22,3.03,4.49,3.22Z"/><path class="cls-1" d="M134.39,358.39c-4.52,2.6-9.62,3.8-14.64,4.23-5.04.42-10.08.15-15.02-.53-9.89-1.36-19.46-4.13-28.79-7.4-9.32-3.31-18.42-7.19-27.33-11.41-4.46-2.11-8.87-4.31-13.25-6.59-2.19-1.14-4.37-2.29-6.53-3.47l-3.24-1.77-5.46-3.04,5.46-3.04,3.24-1.77c2.17-1.17,4.34-2.33,6.53-3.47,4.38-2.27,8.79-4.48,13.25-6.59,8.91-4.23,18.01-8.11,27.33-11.41,9.33-3.27,18.9-6.04,28.79-7.4,4.94-.68,9.98-.95,15.02-.53,5.02.43,10.13,1.63,14.64,4.23.3.2,2.46,1.37,4.89,3.8,1.2,1.21,2.48,2.71,3.54,4.48,1.08,1.76,2,3.72,2.7,5.74,1.36,4.06,1.88,8.23,1.95,11.32.07,3.1-.18,5.13-.35,5.13-.22,0-.35-2.03-.76-5.03-.4-3-1.22-6.98-2.73-10.7-1.53-3.71-3.87-7.02-6.17-9.04-2.26-2.06-4.22-3.03-4.49-3.22-4.03-2.33-8.73-3.46-13.47-3.86-4.76-.39-9.6-.14-14.39.52-9.6,1.32-19.02,4.03-28.22,7.27-9.2,3.26-18.21,7.11-27.06,11.3-4.43,2.09-8.81,4.28-13.15,6.54-2.17,1.13-4.34,2.28-6.49,3.44l-4.2,2.3,4.2,2.3c2.15,1.17,4.32,2.31,6.49,3.44,4.35,2.26,8.73,4.45,13.15,6.54,8.84,4.19,17.86,8.04,27.06,11.3,9.2,3.23,18.62,5.95,28.22,7.27,4.79.66,9.63.91,14.39.52,4.74-.4,9.44-1.54,13.47-3.86.27-.18,2.23-1.15,4.49-3.22,2.3-2.02,4.65-5.32,6.17-9.04,1.51-3.72,2.33-7.7,2.73-10.7.4-3.01.54-5.03.76-5.03.17,0,.41,2.03.35,5.13-.07,3.09-.59,7.26-1.95,11.32-.7,2.02-1.62,3.99-2.7,5.74-1.06,1.77-2.34,3.27-3.54,4.48-2.43,2.43-4.59,3.59-4.89,3.8Z"/><path class="cls-1" d="M300.89,523.83c-2.33,4.03-3.46,8.72-3.86,13.47-.39,4.76-.14,9.6.52,14.39,1.32,9.6,4.03,19.02,7.27,28.22,3.27,9.2,7.11,18.21,11.3,27.06,2.09,4.43,4.28,8.81,6.54,13.15,1.13,2.17,2.28,4.34,3.44,6.49l2.3,4.2,2.3-4.2c1.17-2.15,2.31-4.32,3.44-6.49,2.26-4.35,4.45-8.73,6.54-13.15,4.19-8.84,8.04-17.85,11.3-27.06,3.23-9.2,5.95-18.62,7.27-28.22.66-4.79.91-9.63.52-14.39-.4-4.74-1.54-9.44-3.86-13.47-.18-.27-1.15-2.23-3.22-4.49-2.02-2.3-5.32-4.65-9.04-6.17-3.72-1.51-7.7-2.33-10.7-2.73-3.01-.4-5.03-.54-5.03-.76,0-.17,2.03-.41,5.13-.35,3.09.07,7.26.59,11.32,1.95,2.02.7,3.99,1.62,5.74,2.7,1.77,1.06,3.27,2.34,4.48,3.54,2.43,2.43,3.59,4.59,3.8,4.89,2.6,4.52,3.8,9.62,4.23,14.64.42,5.04.15,10.08-.53,15.02-1.36,9.89-4.13,19.46-7.4,28.79-3.31,9.32-7.19,18.42-11.41,27.33-2.11,4.46-4.31,8.87-6.59,13.25-1.14,2.19-2.29,4.37-3.47,6.53l-1.77,3.24-3.04,5.46-3.04-5.46-1.77-3.24c-1.17-2.17-2.33-4.34-3.47-6.53-2.27-4.38-4.48-8.79-6.59-13.25-4.23-8.91-8.11-18.01-11.41-27.33-3.27-9.33-6.04-18.9-7.4-28.79-.68-4.94-.95-9.98-.53-15.02.43-5.02,1.63-10.13,4.23-14.64.2-.3,1.37-2.46,3.8-4.89,1.21-1.2,2.71-2.48,4.48-3.54,1.75-1.08,3.72-2,5.74-2.7,4.06-1.36,8.23-1.88,11.32-1.95,3.1-.07,5.13.18,5.13.35,0,.22-2.03.35-5.03.76-3,.4-6.98,1.22-10.7,2.73-3.71,1.53-7.02,3.87-9.04,6.17-2.06,2.26-3.03,4.22-3.22,4.49Z"/><path class="cls-1" d="M298.41,134.39c-2.6-4.52-3.8-9.62-4.23-14.64-.42-5.04-.15-10.08.53-15.02,1.36-9.89,4.13-19.46,7.4-28.79,3.31-9.32,7.19-18.42,11.41-27.33,2.11-4.46,4.31-8.87,6.59-13.25,1.14-2.19,2.29-4.36,3.47-6.53l1.77-3.24,3.04-5.46,3.04,5.46,1.77,3.24c1.17,2.17,2.33,4.34,3.47,6.53,2.27,4.38,4.48,8.79,6.59,13.25,4.23,8.91,8.11,18.01,11.41,27.33,3.27,9.33,6.04,18.9,7.4,28.79.68,4.94.95,9.98.53,15.02-.43,5.02-1.63,10.13-4.23,14.64-.2.3-1.37,2.46-3.8,4.89-1.21,1.2-2.71,2.48-4.48,3.54-1.76,1.08-3.72,2-5.74,2.7-4.06,1.36-8.23,1.88-11.32,1.95-3.1.07-5.13-.18-5.13-.35,0-.22,2.03-.35,5.03-.76,3-.4,6.98-1.22,10.7-2.73,3.71-1.53,7.02-3.87,9.04-6.17,2.06-2.26,3.03-4.22,3.22-4.49,2.33-4.03,3.46-8.73,3.86-13.47.39-4.76.14-9.6-.52-14.39-1.32-9.6-4.03-19.02-7.27-28.22-3.27-9.2-7.11-18.21-11.3-27.06-2.09-4.42-4.28-8.81-6.54-13.15-1.13-2.17-2.28-4.34-3.44-6.49l-2.3-4.2-2.3,4.2c-1.17,2.15-2.31,4.32-3.44,6.49-2.26,4.35-4.45,8.73-6.54,13.15-4.19,8.84-8.04,17.86-11.3,27.06-3.23,9.2-5.95,18.62-7.27,28.22-.66,4.79-.91,9.63-.52,14.39.4,4.74,1.54,9.44,3.86,13.47.18.27,1.15,2.23,3.22,4.49,2.02,2.3,5.32,4.65,9.04,6.17,3.72,1.51,7.7,2.33,10.7,2.73,3.01.4,5.03.54,5.03.76,0,.17-2.03.41-5.13.35-3.09-.07-7.26-.59-11.32-1.95-2.02-.7-3.99-1.62-5.74-2.7-1.77-1.06-3.27-2.34-4.48-3.54-2.43-2.43-3.59-4.59-3.8-4.89Z"/></g></svg>