<?xml version="1.0" encoding="UTF-8"?><svg id="Line" xmlns="http://www.w3.org/2000/svg" viewBox="0 0 592.86 592.86"><defs><style>.cls-1{fill:none;stroke:#fff;stroke-miterlimit:10;stroke-width:3px;}.cls-2{fill:#fff;stroke-width:0px;}</style></defs><g id="DecorativeElement_11_Lines"><path class="cls-2" d="M185.6,84.97h-114.05c-.11-.02-.28.04-.35-.04l-.14-.33-.28-.66-.29-.66-.17-.34c-.82-1.69-1.88-3.31-3.09-4.81-2.4-3-5.34-5.62-8.69-7.39-3.34-1.77-7.13-2.57-10.76-1.9-1.81.32-3.57.98-5.21,1.89-1.63.93-3.15,2.1-4.57,3.38-2.79,2.65-5.16,5.8-7.2,9.16-2.04,3.37-3.78,6.94-5.34,10.6-1.57,3.65-2.92,7.41-4.15,11.21-4.89,15.22-7.91,31.05-10.27,46.93-2.33,15.89-3.93,31.9-5.1,47.94-2.35,32.09-3.07,64.29-3.1,96.48.03,32.19.75,64.4,3.1,96.48,1.17,16.04,2.77,32.05,5.1,47.94,2.36,15.87,5.38,31.7,10.27,46.93,1.23,3.8,2.58,7.56,4.15,11.21,1.56,3.65,3.29,7.23,5.34,10.6,2.04,3.36,4.41,6.52,7.2,9.16,1.42,1.29,2.93,2.45,4.57,3.38,1.64.91,3.4,1.56,5.21,1.89,3.63.67,7.43-.12,10.76-1.9,3.35-1.77,6.29-4.39,8.69-7.39,1.2-1.5,2.27-3.12,3.09-4.81l.17-.34.29-.66.28-.66.14-.33c.07-.08.24-.02.35-.04h2.28s3.02,0,3.02,0h108.74c2.29.02,29.95.22,57.14.42,13.57.13,26.99.28,37.02.45,5.02.09,9.18.18,12.1.27s4.57.19,4.57.29-1.66.19-4.57.29-7.08.18-12.1.27c-10.03.17-23.45.32-37.02.45-27.19.2-54.85.4-57.14.42h-112.5l-.02.05-.18.37c-.94,1.94-2.11,3.7-3.42,5.34-2.62,3.27-5.82,6.13-9.6,8.14-3.75,2-8.26,2.99-12.59,2.18-2.15-.38-4.22-1.16-6.1-2.2-1.87-1.06-3.56-2.37-5.12-3.79-3.06-2.9-5.56-6.26-7.69-9.77-2.14-3.52-3.93-7.21-5.53-10.96-1.61-3.75-2.99-7.58-4.24-11.44-4.97-15.48-8-31.42-10.38-47.39-2.35-15.99-3.95-32.06-5.13-48.15C.75,360.93.03,328.67,0,296.43c.03-32.24.75-64.5,3.1-96.69,1.17-16.09,2.78-32.16,5.13-48.15,2.37-15.97,5.41-31.91,10.38-47.39,1.25-3.86,2.63-7.7,4.24-11.44,1.6-3.75,3.39-7.44,5.53-10.96,2.14-3.51,4.63-6.87,7.69-9.77,1.56-1.42,3.25-2.72,5.12-3.79,1.88-1.04,3.94-1.82,6.1-2.2,4.33-.81,8.84.18,12.59,2.18,3.78,2.01,6.97,4.87,9.6,8.14,1.31,1.64,2.48,3.41,3.42,5.34l.18.37.02.05h112.5c2.29.02,29.95.22,57.14.42,13.57.13,26.99.28,37.02.45,5.02.09,9.18.18,12.1.27s4.57.19,4.57.29-1.66.19-4.57.29-7.08.18-12.1.27c-10.03.17-23.45.32-37.02.45-27.19.2-54.85.4-57.14.42Z"/><path class="cls-2" d="M407.26,82.11h112.5l.02-.05.18-.37c.94-1.94,2.11-3.7,3.42-5.34,2.62-3.27,5.82-6.13,9.6-8.14,3.75-2,8.26-2.99,12.59-2.18,2.15.38,4.22,1.16,6.1,2.2,1.87,1.06,3.56,2.37,5.12,3.79,3.06,2.9,5.56,6.26,7.69,9.77,2.14,3.52,3.93,7.21,5.53,10.96,1.61,3.75,2.99,7.58,4.24,11.44,4.97,15.48,8,31.42,10.38,47.39,2.35,15.99,3.95,32.06,5.13,48.15,2.35,32.19,3.07,64.45,3.1,96.69-.03,32.24-.75,64.5-3.1,96.69-1.17,16.09-2.78,32.16-5.13,48.15-2.37,15.97-5.41,31.91-10.38,47.39-1.25,3.86-2.63,7.7-4.24,11.44-1.6,3.75-3.39,7.44-5.53,10.96-2.14,3.51-4.63,6.87-7.69,9.77-1.56,1.42-3.25,2.72-5.12,3.79-1.88,1.04-3.94,1.82-6.1,2.2-4.33.81-8.84-.18-12.59-2.18-3.78-2.01-6.97-4.87-9.6-8.14-1.31-1.64-2.48-3.41-3.42-5.34l-.18-.37-.02-.05h-112.5c-2.29-.02-29.95-.22-57.14-.42-13.57-.13-26.99-.28-37.02-.45-5.02-.09-9.18-.18-12.1-.27s-4.57-.19-4.57-.29,1.66-.19,4.57-.29,7.08-.18,12.1-.27c10.03-.17,23.45-.32,37.02-.45,27.19-.2,54.85-.4,57.14-.42h114.05c.11.02.28-.04.35.04l.14.33.28.66.29.66.17.34c.82,1.69,1.88,3.31,3.09,4.81,2.4,3,5.34,5.62,8.69,7.39,3.34,1.77,7.13,2.57,10.76,1.9,1.81-.32,3.57-.98,5.21-1.89,1.63-.93,3.15-2.1,4.57-3.38,2.79-2.65,5.16-5.8,7.2-9.16,2.04-3.37,3.78-6.94,5.34-10.6,1.57-3.65,2.92-7.41,4.15-11.21,4.89-15.22,7.91-31.05,10.27-46.93,2.33-15.89,3.93-31.9,5.1-47.94,2.35-32.09,3.07-64.29,3.1-96.48-.03-32.19-.75-64.4-3.1-96.48-1.17-16.04-2.77-32.05-5.1-47.94-2.36-15.87-5.38-31.7-10.27-46.93-1.23-3.8-2.58-7.56-4.15-11.21-1.56-3.65-3.29-7.23-5.34-10.6-2.04-3.36-4.41-6.52-7.2-9.16-1.42-1.29-2.93-2.45-4.57-3.38-1.64-.91-3.4-1.56-5.21-1.89-3.63-.67-7.43.12-10.76,1.9-3.35,1.77-6.29,4.39-8.69,7.39-1.2,1.5-2.27,3.12-3.09,4.81l-.17.34-.29.66-.28.66-.14.33c-.07.08-.24.02-.35.04h-2.28s-3.02,0-3.02,0h-108.74c-2.29-.02-29.95-.22-57.14-.42-13.57-.13-26.99-.28-37.02-.45-5.02-.09-9.18-.18-12.1-.27s-4.57-.19-4.57-.29,1.66-.19,4.57-.29,7.08-.18,12.1-.27c10.03-.17,23.45-.32,37.02-.45,27.19-.2,54.85-.4,57.14-.42Z"/><path class="cls-2" d="M507.89,185.6v-114.05c.02-.11-.04-.28.04-.35l.33-.14.66-.29.66-.29.34-.16c1.69-.82,3.31-1.88,4.81-3.09,3-2.4,5.62-5.34,7.4-8.69,1.77-3.34,2.57-7.13,1.9-10.76-.32-1.81-.98-3.57-1.89-5.21-.93-1.63-2.1-3.15-3.38-4.57-2.65-2.79-5.8-5.16-9.16-7.2-3.37-2.04-6.94-3.78-10.6-5.34-3.65-1.57-7.41-2.92-11.21-4.15-15.22-4.89-31.05-7.91-46.93-10.27-15.89-2.33-31.9-3.93-47.94-5.1-32.09-2.35-64.29-3.07-96.48-3.1-32.19.03-64.4.75-96.48,3.1-16.04,1.17-32.05,2.77-47.94,5.1-15.87,2.36-31.7,5.38-46.93,10.27-3.8,1.23-7.56,2.58-11.21,4.15-3.65,1.56-7.23,3.29-10.6,5.34-3.36,2.04-6.52,4.41-9.16,7.2-1.29,1.42-2.45,2.93-3.38,4.57-.91,1.64-1.56,3.4-1.89,5.21-.67,3.63.12,7.43,1.9,10.76,1.77,3.35,4.39,6.29,7.4,8.69,1.5,1.2,3.12,2.27,4.81,3.09l.34.16.66.29.66.29.33.14c.08.07.02.24.04.35v114.05c-.02,2.29-.22,29.95-.42,57.14-.13,13.57-.28,26.99-.45,37.02-.09,5.02-.17,9.18-.27,12.1s-.19,4.57-.29,4.57-.19-1.66-.29-4.57-.18-7.08-.27-12.1c-.17-10.03-.32-23.45-.45-37.02-.2-27.19-.4-54.85-.42-57.14v-112.5l-.05-.02-.37-.18c-1.94-.94-3.7-2.11-5.34-3.42-3.27-2.63-6.13-5.82-8.14-9.6-2-3.75-2.99-8.26-2.18-12.59.38-2.15,1.16-4.22,2.2-6.1,1.06-1.87,2.37-3.56,3.79-5.12,2.9-3.06,6.26-5.55,9.77-7.69,3.52-2.14,7.21-3.93,10.96-5.53,3.75-1.61,7.58-2.99,11.44-4.24,15.48-4.97,31.42-8,47.39-10.38,15.99-2.35,32.06-3.95,48.15-5.13C231.92.75,264.19.03,296.43,0c32.24.03,64.5.75,96.69,3.1,16.09,1.17,32.16,2.78,48.15,5.13,15.97,2.37,31.91,5.41,47.39,10.38,3.86,1.25,7.7,2.63,11.44,4.24,3.75,1.6,7.44,3.39,10.96,5.53,3.51,2.14,6.87,4.63,9.77,7.69,1.42,1.56,2.72,3.25,3.79,5.12,1.04,1.88,1.82,3.94,2.2,6.1.81,4.33-.18,8.84-2.18,12.59-2.01,3.78-4.87,6.97-8.14,9.6-1.64,1.31-3.41,2.48-5.34,3.42l-.37.18-.05.02v112.5c-.02,2.29-.22,29.95-.42,57.14-.13,13.57-.28,26.99-.45,37.02-.09,5.02-.17,9.18-.27,12.1s-.19,4.57-.29,4.57-.19-1.66-.29-4.57-.18-7.08-.27-12.1c-.17-10.03-.32-23.45-.45-37.02-.2-27.19-.4-54.85-.42-57.14Z"/><path class="cls-2" d="M510.74,407.26v112.5l.05.02.37.18c1.94.94,3.7,2.11,5.34,3.42,3.27,2.62,6.13,5.82,8.14,9.6,2,3.75,2.99,8.26,2.18,12.59-.38,2.15-1.16,4.22-2.2,6.1-1.06,1.87-2.37,3.56-3.79,5.12-2.9,3.06-6.26,5.55-9.77,7.69-3.52,2.14-7.21,3.93-10.96,5.53-3.75,1.61-7.58,2.99-11.44,4.24-15.48,4.97-31.42,8-47.39,10.38-15.99,2.35-32.06,3.95-48.15,5.13-32.19,2.35-64.45,3.07-96.69,3.1-32.24-.03-64.5-.75-96.69-3.1-16.09-1.17-32.16-2.78-48.15-5.13-15.97-2.37-31.91-5.41-47.39-10.38-3.86-1.25-7.7-2.63-11.44-4.24-3.75-1.6-7.44-3.39-10.96-5.53-3.51-2.14-6.87-4.63-9.77-7.69-1.42-1.56-2.72-3.25-3.79-5.12-1.04-1.88-1.82-3.94-2.2-6.1-.81-4.33.18-8.84,2.18-12.59,2.01-3.78,4.87-6.97,8.14-9.6,1.64-1.31,3.41-2.48,5.34-3.42l.37-.18.05-.02v-112.5c.02-2.29.22-29.95.42-57.14.13-13.57.28-26.99.45-37.02.09-5.02.17-9.18.27-12.1s.19-4.57.29-4.57.19,1.66.29,4.57.18,7.08.27,12.1c.17,10.03.32,23.45.45,37.02.2,27.19.4,54.85.42,57.14v114.05c-.02.11.04.28-.04.35l-.33.14-.66.29-.66.29-.34.16c-1.69.82-3.31,1.88-4.81,3.09-3,2.4-5.62,5.34-7.4,8.69-1.77,3.34-2.57,7.13-1.9,10.76.32,1.81.98,3.57,1.89,5.21.93,1.63,2.1,3.15,3.38,4.57,2.65,2.79,5.8,5.16,9.16,7.2,3.37,2.04,6.94,3.78,10.6,5.34,3.65,1.57,7.41,2.92,11.21,4.15,15.22,4.89,31.05,7.91,46.93,10.27,15.89,2.33,31.9,3.93,47.94,5.1,32.09,2.35,64.29,3.07,96.48,3.1,32.19-.03,64.4-.75,96.48-3.1,16.04-1.17,32.05-2.77,47.94-5.1,15.87-2.36,31.7-5.38,46.93-10.27,3.8-1.23,7.56-2.58,11.21-4.15,3.65-1.56,7.23-3.29,10.6-5.34,3.36-2.04,6.52-4.41,9.16-7.2,1.29-1.42,2.45-2.93,3.38-4.57.91-1.64,1.56-3.4,1.89-5.21.67-3.63-.12-7.43-1.9-10.76-1.77-3.35-4.39-6.29-7.4-8.69-1.5-1.2-3.12-2.27-4.81-3.09l-.34-.16-.66-.29-.66-.29-.33-.14c-.08-.07-.02-.24-.04-.35v-114.05c.02-2.29.22-29.95.42-57.14.13-13.57.28-26.99.45-37.02.09-5.02.17-9.18.27-12.1s.19-4.57.29-4.57.19,1.66.29,4.57.18,7.08.27,12.1c.17,10.03.32,23.45.45,37.02.2,27.19.4,54.85.42,57.14Z"/><path class="cls-2" d="M330.12,187.37l-32.86-32.86-4.11-4.11-1.09-1.09-1.03-1.03s-.09-.08-.12-.13l.06-.16.12-.32.23-.63.23-.62.08-.31.16-.62c.06-.43.17-.86.2-1.3.4-3.47-.49-7.27-3.15-9.07-1.31-.91-2.98-1.31-4.71-1.42-1.76.01-3.57.19-5.36.67-3.58.91-7.11,2.35-10.48,4.12-6.78,3.46-13.17,7.8-19.34,12.39-6.16,4.62-12.16,9.47-17.99,14.53-11.7,10.08-22.87,20.79-33.82,31.7-10.92,10.95-21.63,22.12-31.7,33.82-5.07,5.82-9.91,11.83-14.53,17.99-4.59,6.17-8.93,12.56-12.39,19.34-1.77,3.37-3.21,6.9-4.12,10.47-.49,1.79-.66,3.6-.67,5.36.11,1.73.5,3.4,1.42,4.71,1.8,2.66,5.6,3.55,9.07,3.15.44-.04.86-.14,1.3-.2l.62-.16.31-.08.62-.23.63-.23.32-.12.16-.06s.09.08.13.12l1.03,1.03,1.09,1.09,4.11,4.11,32.86,32.86c.78.78,10.09,10.32,19.13,19.72,4.52,4.7,8.98,9.38,12.26,12.91,3.29,3.53,5.41,5.92,5.28,6.06s-2.53-1.99-6.06-5.28c-3.53-3.29-8.2-7.74-12.91-12.26-9.41-9.04-18.94-18.35-19.72-19.13l-32.86-32.86-4.11-4.11-.96-.96-.09.03-.06.02-.39.1-.78.2c-.52.08-1.05.2-1.57.25-2.1.23-4.24.11-6.33-.53-2.07-.63-4.11-1.92-5.4-3.82-1.32-1.89-1.81-4.13-1.93-6.24,0-2.11.23-4.18.75-6.13.24-.98.48-1.97.84-2.9.35-.94.61-1.91,1.03-2.81l1.17-2.74,1.31-2.65c3.58-7.03,7.99-13.5,12.64-19.75,4.68-6.23,9.56-12.29,14.66-18.15,10.14-11.78,20.89-22.99,31.85-33.98,10.99-10.95,22.2-21.7,33.98-31.85,5.86-5.1,11.92-9.99,18.15-14.66,6.25-4.65,12.73-9.06,19.75-12.64l2.65-1.31,2.74-1.17c.9-.42,1.88-.68,2.81-1.03.93-.36,1.92-.6,2.9-.84,1.95-.53,4.02-.75,6.13-.75,2.11.12,4.35.61,6.24,1.93,1.9,1.3,3.19,3.33,3.82,5.4.64,2.09.76,4.24.54,6.33-.05.53-.17,1.05-.25,1.57l-.2.78-.1.39-.02.06-.03.09.96.96,4.11,4.11,32.86,32.86c.78.78,10.09,10.32,19.13,19.72,4.52,4.7,8.98,9.38,12.26,12.91,3.29,3.53,5.41,5.92,5.28,6.06s-2.53-1.99-6.06-5.28c-3.53-3.29-8.2-7.74-12.91-12.26-9.41-9.04-18.94-18.35-19.72-19.13Z"/><path class="cls-2" d="M407.5,260.71l32.86,32.86,4.11,4.11.96.96.09-.03.06-.02.39-.1.78-.2c.52-.08,1.05-.2,1.57-.25,2.1-.23,4.24-.11,6.33.53,2.07.63,4.11,1.92,5.4,3.82,1.32,1.89,1.81,4.13,1.93,6.24,0,2.11-.23,4.18-.75,6.13-.24.98-.48,1.97-.84,2.9-.35.94-.61,1.91-1.03,2.81l-1.17,2.74-1.31,2.65c-3.58,7.03-7.99,13.5-12.64,19.75-4.68,6.23-9.56,12.29-14.66,18.15-10.14,11.78-20.89,22.99-31.85,33.98-10.99,10.95-22.2,21.7-33.98,31.85-5.86,5.1-11.92,9.99-18.15,14.66-6.25,4.65-12.73,9.06-19.75,12.64l-2.65,1.31-2.74,1.17c-.9.42-1.88.68-2.81,1.03-.93.36-1.92.6-2.9.84-1.95.53-4.02.75-6.13.75-2.11-.12-4.35-.61-6.24-1.93-1.9-1.3-3.19-3.33-3.82-5.4-.64-2.09-.76-4.24-.54-6.33.05-.53.17-1.05.25-1.57l.2-.78.1-.39.02-.06.03-.09-.96-.96-4.11-4.11-32.86-32.86c-.78-.78-10.09-10.32-19.13-19.72-4.52-4.7-8.98-9.38-12.26-12.91-3.29-3.53-5.41-5.92-5.28-6.06s2.53,1.99,6.06,5.28c3.53,3.29,8.2,7.74,12.91,12.26,9.41,9.04,18.94,18.35,19.72,19.13l32.86,32.86,4.11,4.11,1.09,1.09,1.03,1.03s.09.08.12.13l-.06.16-.12.32-.23.63-.23.62-.08.31-.16.62c-.06.43-.17.86-.2,1.3-.4,3.47.49,7.27,3.15,9.07,1.31.91,2.98,1.31,4.71,1.42,1.76-.01,3.57-.19,5.36-.67,3.58-.91,7.11-2.35,10.48-4.12,6.78-3.46,13.17-7.8,19.34-12.39,6.16-4.62,12.16-9.47,17.99-14.53,11.7-10.08,22.87-20.79,33.82-31.7,10.92-10.95,21.63-22.12,31.7-33.82,5.07-5.82,9.91-11.83,14.53-17.99,4.59-6.17,8.93-12.56,12.39-19.34,1.77-3.37,3.21-6.9,4.12-10.47.49-1.79.66-3.6.67-5.36-.11-1.73-.5-3.4-1.42-4.71-1.8-2.66-5.6-3.55-9.07-3.15-.44.04-.86.14-1.3.2l-.62.16-.31.08-.62.23-.63.23-.32.12-.16.06s-.09-.08-.13-.12l-1.03-1.03-1.09-1.09-4.11-4.11-32.86-32.86c-.78-.78-10.09-10.32-19.13-19.72-4.52-4.7-8.98-9.38-12.26-12.91-3.29-3.53-5.41-5.92-5.28-6.06s2.53,1.99,6.06,5.28c3.53,3.29,8.2,7.74,12.91,12.26,9.41,9.04,18.94,18.35,19.72,19.13Z"/><path class="cls-2" d="M405.48,330.12l32.86-32.86,4.11-4.11,1.09-1.09,1.03-1.03s.08-.09.13-.12l.16.06.32.12.63.23.62.23.31.08.62.16c.43.06.86.17,1.3.2,3.47.4,7.27-.49,9.07-3.15.91-1.31,1.31-2.98,1.42-4.71-.01-1.76-.19-3.57-.67-5.36-.91-3.58-2.35-7.11-4.12-10.47-3.46-6.78-7.8-13.17-12.39-19.34-4.62-6.16-9.47-12.16-14.53-17.99-10.08-11.7-20.79-22.87-31.7-33.82-10.95-10.92-22.12-21.63-33.82-31.7-5.83-5.07-11.83-9.91-17.99-14.53-6.17-4.59-12.56-8.93-19.34-12.39-3.37-1.77-6.9-3.21-10.48-4.12-1.79-.49-3.6-.66-5.36-.67-1.73.11-3.4.5-4.71,1.42-2.66,1.8-3.55,5.6-3.15,9.07.04.44.14.86.2,1.3l.16.62.08.31.23.62.23.63.12.32.06.16s-.08.09-.12.13l-1.03,1.03-1.09,1.09-4.11,4.11-32.86,32.86c-.78.78-10.32,10.09-19.72,19.13-4.7,4.52-9.38,8.98-12.91,12.26-3.53,3.29-5.92,5.41-6.06,5.28s1.99-2.53,5.28-6.06c3.29-3.53,7.74-8.2,12.26-12.91,9.04-9.41,18.35-18.94,19.13-19.72l32.86-32.86,4.11-4.11.96-.96-.03-.09-.02-.06-.1-.39-.2-.78c-.08-.52-.2-1.05-.25-1.57-.23-2.1-.11-4.24.54-6.33.63-2.07,1.92-4.11,3.82-5.4,1.89-1.32,4.13-1.81,6.24-1.93,2.11,0,4.18.23,6.13.75.98.24,1.97.48,2.9.84.94.35,1.91.61,2.81,1.03l2.74,1.17,2.65,1.31c7.03,3.58,13.5,8,19.75,12.64,6.23,4.68,12.29,9.56,18.15,14.66,11.78,10.14,22.99,20.89,33.98,31.85,10.95,10.99,21.7,22.2,31.85,33.98,5.1,5.86,9.99,11.92,14.66,18.15,4.65,6.25,9.06,12.73,12.64,19.75l1.31,2.65,1.17,2.74c.42.9.68,1.88,1.03,2.81.36.93.6,1.92.84,2.9.53,1.95.75,4.02.75,6.13-.12,2.11-.61,4.35-1.93,6.24-1.3,1.9-3.33,3.19-5.4,3.82-2.09.64-4.24.76-6.33.53-.53-.05-1.05-.17-1.57-.25l-.78-.2-.39-.1-.06-.02-.09-.03-.96.96-4.11,4.11-32.86,32.86c-.78.78-10.32,10.09-19.72,19.13-4.7,4.52-9.38,8.98-12.91,12.26-3.53,3.29-5.92,5.41-6.06,5.28s1.99-2.53,5.28-6.06c3.29-3.53,7.74-8.2,12.26-12.91,9.04-9.41,18.35-18.94,19.13-19.72Z"/><path class="cls-2" d="M332.14,407.5l-32.86,32.86-4.11,4.11-.96.96.03.09.02.06.1.39.2.78c.08.52.2,1.05.25,1.57.23,2.1.11,4.24-.54,6.33-.63,2.07-1.92,4.11-3.82,5.4-1.89,1.32-4.13,1.81-6.24,1.93-2.11,0-4.18-.23-6.13-.75-.98-.24-1.97-.48-2.9-.84-.94-.35-1.91-.61-2.81-1.03l-2.74-1.17-2.65-1.31c-7.03-3.58-13.5-8-19.75-12.64-6.23-4.68-12.29-9.56-18.15-14.66-11.78-10.14-22.99-20.89-33.98-31.85-10.95-10.99-21.7-22.2-31.85-33.98-5.1-5.86-9.99-11.92-14.66-18.15-4.65-6.25-9.06-12.73-12.64-19.75l-1.31-2.65-1.17-2.74c-.42-.9-.68-1.88-1.03-2.81-.36-.93-.6-1.92-.84-2.9-.53-1.95-.75-4.02-.75-6.13.12-2.11.61-4.35,1.93-6.24,1.3-1.9,3.33-3.19,5.4-3.82,2.09-.64,4.24-.76,6.33-.53.53.05,1.05.17,1.57.25l.78.2.39.1.06.02.09.03.96-.96,4.11-4.11,32.86-32.86c.78-.78,10.32-10.09,19.72-19.13,4.7-4.52,9.38-8.98,12.91-12.26,3.53-3.29,5.92-5.41,6.06-5.28s-1.99,2.53-5.28,6.06c-3.29,3.53-7.74,8.2-12.26,12.91-9.04,9.41-18.35,18.94-19.13,19.72l-32.86,32.86-4.11,4.11-1.09,1.09-1.03,1.03s-.08.09-.13.12l-.16-.06-.32-.12-.63-.23-.62-.23-.31-.08-.62-.16c-.43-.06-.86-.17-1.3-.2-3.47-.4-7.27.49-9.07,3.15-.91,1.31-1.31,2.98-1.42,4.71.01,1.76.19,3.57.67,5.36.91,3.58,2.35,7.11,4.12,10.47,3.46,6.78,7.8,13.17,12.39,19.34,4.62,6.16,9.47,12.16,14.53,17.99,10.08,11.7,20.79,22.87,31.7,33.82,10.95,10.92,22.12,21.63,33.82,31.7,5.83,5.07,11.83,9.91,17.99,14.53,6.17,4.59,12.56,8.93,19.34,12.39,3.37,1.77,6.9,3.21,10.48,4.12,1.79.49,3.6.66,5.36.67,1.73-.11,3.4-.5,4.71-1.42,2.66-1.8,3.55-5.6,3.15-9.07-.04-.44-.14-.86-.2-1.3l-.16-.62-.08-.31-.23-.62-.23-.63-.12-.32-.06-.16s.08-.09.12-.13l1.03-1.03,1.09-1.09,4.11-4.11,32.86-32.86c.78-.78,10.32-10.09,19.72-19.13,4.7-4.52,9.38-8.98,12.91-12.26,3.53-3.29,5.92-5.41,6.06-5.28s-1.99,2.53-5.28,6.06c-3.29,3.53-7.74,8.2-12.26,12.91-9.04,9.41-18.35,18.94-19.13,19.72Z"/><path class="cls-2" d="M520.61,312.86c2.39,1.37,5.19,2.06,8.05,2.31,2.87.24,5.81.12,8.73-.31,5.84-.81,11.61-2.45,17.25-4.45,5.65-1.98,11.16-4.37,16.6-6.93,2.71-1.29,5.41-2.62,8.07-4.01,1.34-.69,2.66-1.4,3.98-2.11l1.71-.93-1.71-.93c-1.32-.72-2.65-1.42-3.98-2.11-2.67-1.39-5.36-2.73-8.07-4.01-5.43-2.56-10.95-4.95-16.6-6.93-5.63-1.99-11.4-3.63-17.25-4.45-2.92-.42-5.86-.54-8.73-.31-2.86.25-5.66.94-8.05,2.31-.18.08-1.33.67-2.69,1.86-1.42,1.14-2.81,3.12-3.77,5.33-.54,1.08-.83,2.28-1.19,3.37-.27,1.11-.47,2.18-.68,3.08-.25,1.84-.48,3.08-.68,3.08-.2,0-.33-1.25-.42-3.17.04-.96.08-2.09.22-3.3.23-1.2.39-2.51.86-3.78.8-2.55,2.25-5.02,3.84-6.51,1.52-1.55,2.88-2.34,3.08-2.44,2.87-1.65,6.08-2.4,9.22-2.68,3.15-.26,6.3-.12,9.36.32,6.14.86,12.06,2.55,17.82,4.58,5.77,2.02,11.36,4.45,16.87,7.04,2.75,1.3,5.47,2.66,8.17,4.06,1.35.7,2.69,1.41,4.03,2.14l1,.54,1.74.96,3.5,1.94-3.5,1.94-1.74.96-1,.54c-1.33.73-2.68,1.44-4.03,2.14-2.69,1.41-5.42,2.76-8.17,4.06-5.5,2.59-11.1,5.01-16.87,7.04-5.76,2.04-11.68,3.73-17.82,4.58-3.06.44-6.21.58-9.36.32-3.14-.28-6.35-1.03-9.22-2.68-.21-.09-1.56-.89-3.08-2.44-1.59-1.5-3.04-3.97-3.84-6.51-.47-1.26-.64-2.57-.86-3.78-.14-1.21-.18-2.34-.22-3.3.09-1.92.23-3.17.42-3.17.2,0,.44,1.24.68,3.08.21.91.4,1.97.68,3.08.36,1.09.64,2.28,1.19,3.37.96,2.21,2.35,4.19,3.77,5.33,1.36,1.19,2.51,1.78,2.69,1.86Z"/><path class="cls-2" d="M73.67,315.33c-2.87,1.65-6.08,2.4-9.22,2.68-3.15.26-6.3.12-9.36-.32-6.14-.86-12.06-2.55-17.82-4.58-5.77-2.02-11.36-4.45-16.87-7.04-2.75-1.3-5.47-2.66-8.17-4.06-1.35-.7-2.69-1.41-4.03-2.14l-1-.54-1.74-.96-3.5-1.94,3.5-1.94,1.74-.96,1-.54c1.33-.73,2.68-1.44,4.03-2.14,2.69-1.41,5.42-2.76,8.17-4.06,5.5-2.59,11.1-5.01,16.87-7.04,5.76-2.04,11.68-3.73,17.82-4.58,3.06-.44,6.21-.58,9.36-.32,3.14.28,6.35,1.03,9.22,2.68.21.09,1.56.89,3.08,2.44,1.59,1.5,3.04,3.97,3.84,6.51.47,1.26.64,2.57.86,3.78.14,1.21.18,2.34.22,3.3-.09,1.92-.23,3.17-.42,3.17-.2,0-.44-1.24-.68-3.08-.21-.91-.4-1.97-.68-3.08-.36-1.09-.64-2.28-1.19-3.37-.96-2.21-2.35-4.19-3.77-5.33-1.36-1.19-2.51-1.78-2.69-1.86-2.39-1.37-5.19-2.06-8.05-2.31-2.87-.24-5.81-.12-8.73.31-5.84.81-11.61,2.45-17.25,4.45-5.65,1.98-11.16,4.37-16.6,6.93-2.71,1.29-5.41,2.62-8.07,4.01-1.34.69-2.66,1.4-3.98,2.11l-1.71.93,1.71.93c1.32.72,2.65,1.42,3.98,2.11,2.67,1.39,5.36,2.73,8.07,4.01,5.43,2.56,10.95,4.95,16.6,6.93,5.63,1.99,11.4,3.63,17.25,4.45,2.92.42,5.86.54,8.73.31,2.86-.25,5.66-.94,8.05-2.31.18-.08,1.33-.67,2.69-1.86,1.42-1.14,2.81-3.12,3.77-5.33.54-1.08.83-2.28,1.19-3.37.27-1.11.47-2.18.68-3.08.25-1.84.48-3.08.68-3.08.2,0,.33,1.25.42,3.17-.04.96-.08,2.09-.22,3.3-.23,1.2-.39,2.51-.86,3.78-.8,2.55-2.25,5.02-3.84,6.51-1.52,1.55-2.88,2.34-3.08,2.44Z"/><path class="cls-2" d="M312.86,72.24c1.37-2.39,2.06-5.19,2.31-8.05.24-2.87.12-5.81-.31-8.73-.81-5.84-2.45-11.61-4.45-17.25-1.98-5.65-4.37-11.16-6.93-16.6-1.29-2.71-2.62-5.41-4.02-8.07-.69-1.34-1.4-2.66-2.11-3.98l-.93-1.71-.93,1.71c-.72,1.32-1.42,2.65-2.11,3.98-1.39,2.67-2.73,5.36-4.02,8.07-2.56,5.43-4.95,10.95-6.93,16.6-1.99,5.63-3.63,11.4-4.45,17.25-.42,2.92-.54,5.86-.31,8.73.25,2.86.94,5.66,2.31,8.05.08.18.67,1.33,1.86,2.69,1.14,1.42,3.12,2.81,5.33,3.77,1.08.54,2.28.83,3.37,1.19,1.11.27,2.18.47,3.08.68,1.84.25,3.08.48,3.08.68,0,.2-1.25.33-3.17.42-.96-.04-2.09-.08-3.3-.22-1.2-.22-2.51-.39-3.78-.86-2.55-.8-5.02-2.25-6.51-3.84-1.55-1.52-2.34-2.88-2.44-3.08-1.65-2.87-2.4-6.08-2.68-9.22-.26-3.15-.12-6.3.32-9.36.86-6.14,2.55-12.06,4.58-17.82,2.02-5.77,4.45-11.36,7.04-16.87,1.3-2.75,2.66-5.47,4.06-8.17.7-1.35,1.41-2.69,2.14-4.03l.54-1,.96-1.74,1.94-3.5,1.94,3.5.96,1.74.54,1c.73,1.33,1.44,2.68,2.14,4.03,1.41,2.69,2.76,5.42,4.06,8.17,2.59,5.5,5.01,11.1,7.04,16.87,2.04,5.76,3.73,11.68,4.58,17.82.44,3.06.58,6.21.32,9.36-.28,3.14-1.03,6.36-2.68,9.22-.1.21-.89,1.56-2.44,3.08-1.5,1.59-3.97,3.04-6.51,3.84-1.26.47-2.58.64-3.78.86-1.21.14-2.34.18-3.3.22-1.92-.09-3.17-.23-3.17-.42,0-.2,1.24-.44,3.08-.68.91-.21,1.97-.4,3.08-.68,1.09-.36,2.28-.64,3.37-1.19,2.21-.96,4.19-2.35,5.33-3.77,1.19-1.36,1.78-2.51,1.86-2.69Z"/><path class="cls-2" d="M315.33,519.19c1.65,2.87,2.4,6.08,2.68,9.22.26,3.15.12,6.3-.32,9.36-.86,6.14-2.55,12.06-4.58,17.82-2.02,5.77-4.45,11.36-7.04,16.87-1.3,2.75-2.66,5.47-4.06,8.17-.7,1.35-1.41,2.69-2.14,4.03l-.54,1-.96,1.74-1.94,3.5-1.94-3.5-.96-1.74-.54-1c-.73-1.33-1.44-2.68-2.14-4.03-1.41-2.69-2.76-5.42-4.06-8.17-2.59-5.5-5.01-11.1-7.04-16.87-2.04-5.76-3.73-11.68-4.58-17.82-.44-3.06-.58-6.21-.32-9.36.28-3.14,1.03-6.36,2.68-9.22.1-.21.89-1.56,2.44-3.08,1.5-1.59,3.97-3.04,6.51-3.84,1.26-.47,2.58-.64,3.78-.86,1.21-.14,2.34-.18,3.3-.22,1.92.09,3.17.23,3.17.42,0,.2-1.24.44-3.08.68-.91.21-1.97.4-3.08.68-1.09.36-2.28.64-3.37,1.19-2.21.96-4.19,2.35-5.33,3.77-1.19,1.36-1.78,2.51-1.86,2.69-1.37,2.39-2.06,5.19-2.31,8.05-.24,2.87-.12,5.81.31,8.73.81,5.84,2.45,11.61,4.45,17.25,1.98,5.65,4.37,11.16,6.93,16.6,1.29,2.71,2.62,5.41,4.02,8.07.69,1.34,1.4,2.66,2.11,3.98l.93,1.71.93-1.71c.72-1.32,1.42-2.65,2.11-3.98,1.39-2.67,2.73-5.36,4.02-8.07,2.56-5.43,4.95-10.95,6.93-16.6,1.99-5.63,3.63-11.4,4.45-17.25.42-2.92.54-5.86.31-8.73-.25-2.86-.94-5.66-2.31-8.05-.08-.18-.67-1.33-1.86-2.69-1.14-1.42-3.12-2.81-5.33-3.77-1.08-.54-2.28-.83-3.37-1.19-1.11-.27-2.18-.47-3.08-.68-1.84-.25-3.08-.48-3.08-.68,0-.2,1.25-.33,3.17-.42.96.04,2.09.08,3.3.22,1.2.22,2.51.39,3.78.86,2.55.8,5.02,2.25,6.51,3.84,1.55,1.52,2.34,2.88,2.44,3.08Z"/><path class="cls-1" d="M448.78,144.38c-6.12,4.69-26.55,3.46-39.92-4.18-66.96-48.22-157.89-48.22-224.85,0-13.37,7.64-33.81,8.87-39.92,4.18,4.69,6.12,3.46,26.55-4.18,39.92-48.22,66.96-48.22,157.89,0,224.85,7.64,13.37,8.87,33.81,4.18,39.92,6.12-4.69,26.55-3.46,39.92,4.18,66.96,48.22,157.89,48.22,224.85,0,13.37-7.64,33.81-8.87,39.92-4.18-4.69-6.12-3.46-26.55,4.18-39.92,48.22-66.96,48.22-157.89,0-224.85-7.64-13.37-8.87-33.81-4.18-39.92Z"/><path class="cls-1" d="M360.83,232.32c-2.59,1.98-11.22,1.46-16.88-1.77-28.31-20.38-66.75-20.38-95.05,0-5.65,3.23-14.29,3.75-16.88,1.77,1.98,2.59,1.46,11.22-1.77,16.88-20.38,28.31-20.38,66.75,0,95.05,3.23,5.65,3.75,14.29,1.77,16.88,2.59-1.98,11.22-1.46,16.88,1.77,28.31,20.38,66.75,20.38,95.05,0,5.65-3.23,14.29-3.75,16.88-1.77-1.98-2.59-1.46-11.22,1.77-16.88,20.38-28.31,20.38-66.75,0-95.05-3.23-5.65-3.75-14.29-1.77-16.88Z"/><path class="cls-2" d="M250.97,97.59c4.61,7.8,11.4,14.33,19.33,18.75,3.96,2.23,8.22,3.9,12.62,5.02,4.41,1.09,8.96,1.64,13.51,1.65,4.56-.01,9.1-.56,13.51-1.65,4.4-1.13,8.66-2.8,12.62-5.02,7.93-4.42,14.71-10.96,19.33-18.75.18-.27,2.29-3.55,3.78-7.09.76-1.76,1.33-3.57,1.72-4.95.2-.69.35-1.27.47-1.68.13-.41.24-.64.34-.64s.17.25.23.68c.07.44.1,1.06.06,1.8-.06,1.49-.36,3.49-.91,5.43-1.07,3.92-3.04,7.6-3.22,7.88-4.9,8.27-12.03,15.13-20.4,19.8-4.18,2.35-8.68,4.11-13.32,5.3-4.65,1.15-9.43,1.73-14.21,1.74-4.78-.01-9.56-.59-14.21-1.74-4.64-1.19-9.14-2.95-13.32-5.3-8.37-4.67-15.5-11.53-20.4-19.8-.19-.28-2.16-3.96-3.22-7.88-.55-1.95-.85-3.94-.91-5.43-.04-.75-.01-1.37.06-1.8.06-.43.13-.68.23-.68s.21.23.34.64c.12.41.26.99.47,1.68.39,1.38.96,3.19,1.72,4.95,1.49,3.54,3.6,6.82,3.78,7.09Z"/><path class="cls-2" d="M147.8,97.43c5.11,3.56,10.9,6.22,16.79,8.55,5.91,2.32,11.99,4.24,18.12,5.95,12.29,3.41,24.82,5.98,37.42,8.09,12.61,2.1,25.3,3.72,38.03,4.9,12.73,1.17,25.51,1.94,38.26,1.96,12.76-.03,25.53-.79,38.26-1.96,12.73-1.18,25.42-2.8,38.03-4.9,12.6-2.11,25.14-4.68,37.42-8.09,6.14-1.72,12.22-3.64,18.12-5.95,5.89-2.33,11.68-4.99,16.79-8.55.17-.14.89-.58,1.89-1.38,1.02-.77,2.35-1.89,3.7-3.35,1.33-1.47,2.69-3.32,3.37-5.55.21-.55.27-1.13.4-1.71.04-.59.12-1.18.08-1.8-.03-1.23-.23-2.46-.66-3.61-.84-2.3-2.65-4.16-4.74-5.26-2.08-1.12-4.33-1.62-6.25-1.76-1.93-.14-3.54.11-4.58.47-1.06.35-1.49.86-1.58.79-.08-.03.24-.74,1.34-1.32,1.07-.57,2.78-1.03,4.85-1.05,2.06-.03,4.52.32,6.94,1.44,2.41,1.08,4.74,3.17,5.89,5.92.59,1.36.9,2.82,1,4.26.07.71.02,1.45,0,2.17-.11.71-.18,1.43-.4,2.1-.72,2.75-2.23,4.94-3.66,6.63-1.45,1.69-2.86,2.95-3.93,3.81-1.06.89-1.8,1.37-1.99,1.52-5.43,3.78-11.38,6.49-17.39,8.88-6.03,2.36-12.19,4.31-18.4,6.04-12.42,3.44-25.04,6.03-37.72,8.16-12.68,2.11-25.44,3.74-38.24,4.93-12.8,1.18-25.64,1.95-38.53,1.97-12.88-.03-25.73-.8-38.53-1.97-12.8-1.19-25.55-2.82-38.24-4.93-12.68-2.13-25.3-4.71-37.72-8.16-6.21-1.73-12.37-3.68-18.4-6.04-6.01-2.38-11.96-5.1-17.39-8.88-.18-.15-.93-.63-1.99-1.52-1.07-.86-2.48-2.12-3.93-3.81-1.43-1.69-2.95-3.89-3.66-6.63-.21-.67-.28-1.39-.4-2.1-.03-.72-.08-1.46,0-2.17.1-1.43.41-2.9,1-4.26,1.15-2.75,3.48-4.84,5.89-5.92,2.42-1.12,4.88-1.47,6.94-1.44,2.07.02,3.77.48,4.85,1.05,1.1.57,1.42,1.29,1.34,1.32-.09.07-.51-.44-1.58-.79-1.05-.36-2.66-.61-4.58-.47-1.92.14-4.16.63-6.25,1.76-2.09,1.1-3.9,2.96-4.74,5.26-.43,1.14-.63,2.37-.66,3.61-.04.62.04,1.21.08,1.8.12.58.19,1.16.4,1.71.67,2.23,2.04,4.08,3.37,5.55,1.35,1.47,2.67,2.58,3.7,3.35,1,.8,1.72,1.24,1.89,1.38Z"/><path class="cls-2" d="M248.5,494.41c4.9-8.27,12.03-15.13,20.4-19.8,4.18-2.35,8.68-4.11,13.32-5.3,4.65-1.15,9.43-1.73,14.21-1.74,4.78.01,9.56.59,14.21,1.74,4.64,1.19,9.14,2.95,13.32,5.3,8.37,4.67,15.5,11.53,20.4,19.8.19.28,2.16,3.96,3.22,7.88.55,1.95.85,3.94.91,5.43.04.75.01,1.37-.06,1.8-.06.43-.13.68-.23.68-.1,0-.21-.23-.34-.64-.12-.41-.26-.99-.47-1.68-.39-1.38-.96-3.19-1.72-4.95-1.49-3.54-3.6-6.82-3.78-7.09-4.61-7.8-11.4-14.33-19.33-18.75-3.96-2.23-8.22-3.9-12.62-5.02-4.41-1.09-8.96-1.64-13.51-1.65-4.56.01-9.1.56-13.51,1.65-4.4,1.12-8.66,2.8-12.62,5.02-7.93,4.42-14.71,10.96-19.33,18.75-.18.27-2.29,3.55-3.78,7.09-.76,1.76-1.33,3.57-1.72,4.95-.2.69-.35,1.27-.47,1.68-.13.41-.24.64-.34.64-.1,0-.17-.25-.23-.68-.07-.43-.1-1.06-.06-1.8.06-1.49.36-3.49.91-5.43,1.07-3.92,3.04-7.6,3.22-7.88Z"/><path class="cls-2" d="M146.15,493.68c5.43-3.78,11.38-6.49,17.39-8.88,6.03-2.37,12.19-4.31,18.4-6.04,12.42-3.44,25.04-6.03,37.72-8.15,12.68-2.11,25.44-3.74,38.24-4.93,12.8-1.18,25.64-1.95,38.53-1.97,12.88.03,25.73.8,38.53,1.97,12.8,1.19,25.55,2.82,38.24,4.93,12.68,2.13,25.3,4.71,37.72,8.15,6.21,1.73,12.37,3.68,18.4,6.04,6.01,2.38,11.96,5.1,17.39,8.88.18.15.93.63,1.99,1.52,1.07.86,2.48,2.12,3.93,3.81,1.43,1.69,2.95,3.89,3.66,6.63.21.67.28,1.39.4,2.1.03.72.08,1.46,0,2.17-.1,1.43-.41,2.9-1,4.26-1.15,2.75-3.48,4.84-5.89,5.92-2.42,1.12-4.88,1.47-6.94,1.44-2.07-.02-3.77-.48-4.85-1.05-1.1-.57-1.42-1.29-1.34-1.32.09-.07.51.44,1.58.79,1.05.36,2.66.61,4.58.47,1.92-.14,4.16-.63,6.25-1.76,2.09-1.1,3.9-2.96,4.74-5.26.43-1.14.63-2.37.66-3.6.04-.62-.04-1.21-.08-1.8-.12-.58-.19-1.16-.4-1.71-.67-2.23-2.04-4.08-3.37-5.55-1.35-1.47-2.67-2.58-3.7-3.35-1-.8-1.72-1.23-1.89-1.38-5.11-3.56-10.9-6.22-16.79-8.55-5.91-2.32-11.99-4.24-18.12-5.95-12.29-3.41-24.82-5.98-37.42-8.09-12.61-2.1-25.3-3.72-38.03-4.9-12.73-1.17-25.51-1.94-38.26-1.96-12.76.03-25.53.79-38.26,1.96-12.73,1.18-25.42,2.8-38.03,4.9-12.6,2.11-25.14,4.68-37.42,8.09-6.14,1.72-12.22,3.64-18.12,5.95-5.89,2.33-11.68,4.99-16.79,8.55-.17.14-.89.58-1.89,1.38-1.02.77-2.35,1.89-3.7,3.35-1.33,1.47-2.69,3.32-3.37,5.55-.21.55-.27,1.13-.4,1.71-.04.59-.12,1.18-.08,1.8.03,1.23.23,2.46.66,3.6.84,2.3,2.65,4.16,4.74,5.26,2.08,1.12,4.33,1.62,6.25,1.76,1.93.14,3.54-.11,4.58-.47,1.06-.35,1.49-.86,1.58-.79.08.03-.24.74-1.34,1.32-1.07.57-2.78,1.03-4.85,1.05-2.06.03-4.52-.32-6.94-1.44-2.41-1.08-4.74-3.17-5.89-5.92-.59-1.36-.9-2.82-1-4.26-.07-.71-.02-1.45,0-2.17.11-.71.18-1.43.4-2.1.72-2.75,2.23-4.94,3.66-6.63,1.45-1.69,2.86-2.95,3.93-3.81,1.06-.89,1.8-1.37,1.99-1.52Z"/><path class="cls-2" d="M495.57,251.26c-7.8,4.61-14.33,11.4-18.75,19.33-2.23,3.96-3.9,8.22-5.02,12.62-1.09,4.41-1.64,8.96-1.65,13.51.01,4.56.56,9.1,1.65,13.51,1.12,4.4,2.79,8.66,5.02,12.62,4.42,7.93,10.96,14.71,18.75,19.33.27.18,3.55,2.29,7.09,3.78,1.76.76,3.57,1.33,4.94,1.72.69.2,1.27.35,1.68.47.41.13.64.24.64.34,0,.1-.25.17-.68.23-.44.07-1.06.1-1.8.06-1.49-.06-3.49-.36-5.43-.91-3.92-1.07-7.6-3.04-7.88-3.22-8.27-4.9-15.13-12.03-19.8-20.4-2.35-4.18-4.11-8.68-5.3-13.32-1.15-4.65-1.73-9.43-1.74-14.21.01-4.78.59-9.56,1.74-14.21,1.19-4.64,2.95-9.14,5.3-13.32,4.67-8.37,11.53-15.5,19.8-20.4.28-.19,3.96-2.16,7.88-3.22,1.95-.55,3.94-.85,5.43-.91.75-.04,1.37-.01,1.8.06.43.06.68.13.68.23s-.23.21-.64.34c-.41.12-.99.26-1.68.47-1.38.39-3.19.96-4.94,1.72-3.54,1.49-6.82,3.6-7.09,3.78Z"/><path class="cls-2" d="M495.72,148.09c-3.56,5.11-6.22,10.9-8.55,16.79-2.32,5.91-4.24,11.99-5.95,18.12-3.41,12.29-5.98,24.82-8.09,37.42-2.1,12.61-3.72,25.3-4.9,38.03-1.17,12.73-1.94,25.51-1.96,38.26.03,12.76.79,25.53,1.96,38.26,1.18,12.73,2.8,25.42,4.9,38.03,2.11,12.6,4.68,25.14,8.09,37.42,1.71,6.14,3.64,12.22,5.95,18.12,2.33,5.89,4.99,11.68,8.55,16.79.14.17.58.89,1.38,1.89.77,1.02,1.89,2.35,3.35,3.7,1.47,1.33,3.32,2.7,5.55,3.37.55.21,1.13.27,1.71.4.59.04,1.18.12,1.8.08,1.23-.03,2.46-.23,3.6-.66,2.3-.84,4.16-2.65,5.26-4.74,1.12-2.08,1.62-4.33,1.76-6.25.14-1.93-.11-3.54-.47-4.58-.35-1.06-.86-1.49-.79-1.58.03-.08.74.24,1.32,1.34.57,1.07,1.03,2.78,1.05,4.84.03,2.06-.32,4.52-1.44,6.94-1.08,2.41-3.17,4.74-5.92,5.89-1.36.59-2.82.9-4.26,1-.71.07-1.45.02-2.17,0-.71-.11-1.43-.18-2.1-.4-2.75-.72-4.94-2.24-6.63-3.66-1.69-1.45-2.95-2.86-3.81-3.93-.89-1.06-1.37-1.8-1.52-1.99-3.78-5.43-6.49-11.38-8.88-17.39-2.36-6.03-4.31-12.19-6.04-18.4-3.44-12.42-6.03-25.04-8.15-37.72-2.11-12.68-3.74-25.44-4.93-38.24-1.18-12.8-1.95-25.64-1.97-38.53.03-12.88.8-25.73,1.97-38.53,1.19-12.8,2.82-25.55,4.93-38.24,2.13-12.68,4.71-25.3,8.15-37.72,1.73-6.21,3.68-12.37,6.04-18.4,2.38-6.01,5.1-11.96,8.88-17.39.15-.18.63-.93,1.52-1.99.86-1.07,2.12-2.48,3.81-3.93,1.69-1.43,3.89-2.95,6.63-3.66.67-.21,1.39-.28,2.1-.4.72-.03,1.46-.08,2.17,0,1.43.1,2.9.41,4.26.99,2.75,1.15,4.84,3.48,5.92,5.89,1.12,2.42,1.47,4.88,1.44,6.94-.02,2.07-.48,3.77-1.05,4.84-.57,1.1-1.29,1.42-1.32,1.34-.07-.09.44-.51.79-1.58.36-1.05.61-2.66.47-4.58-.14-1.92-.63-4.16-1.76-6.25-1.1-2.09-2.96-3.9-5.26-4.74-1.14-.43-2.37-.63-3.6-.66-.62-.04-1.21.04-1.8.08-.58.12-1.16.19-1.71.4-2.23.67-4.08,2.04-5.55,3.37-1.47,1.35-2.58,2.67-3.35,3.7-.8,1-1.23,1.72-1.38,1.89Z"/><path class="cls-2" d="M98.74,248.8c8.27,4.9,15.13,12.03,19.8,20.4,2.35,4.18,4.11,8.68,5.3,13.32,1.15,4.65,1.73,9.43,1.74,14.21-.01,4.78-.59,9.56-1.74,14.21-1.19,4.64-2.95,9.14-5.3,13.32-4.67,8.37-11.53,15.5-19.8,20.4-.28.19-3.96,2.16-7.88,3.22-1.95.55-3.94.85-5.43.91-.75.04-1.37.01-1.8-.06-.43-.06-.68-.13-.68-.23,0-.1.23-.21.64-.34.41-.12.99-.26,1.68-.47,1.38-.39,3.19-.96,4.94-1.72,3.54-1.49,6.82-3.6,7.09-3.78,7.8-4.61,14.33-11.4,18.75-19.33,2.23-3.96,3.9-8.22,5.02-12.62,1.09-4.41,1.64-8.96,1.65-13.51-.01-4.56-.56-9.1-1.65-13.51-1.12-4.4-2.79-8.66-5.02-12.62-4.42-7.93-10.96-14.71-18.75-19.33-.27-.18-3.55-2.29-7.09-3.78-1.76-.76-3.57-1.33-4.94-1.72-.69-.2-1.27-.35-1.68-.47-.41-.13-.64-.24-.64-.34s.25-.17.68-.23c.44-.07,1.06-.1,1.8-.06,1.49.06,3.49.36,5.43.91,3.92,1.07,7.6,3.04,7.88,3.22Z"/><path class="cls-2" d="M99.47,146.45c3.78,5.43,6.49,11.38,8.88,17.39,2.36,6.03,4.31,12.19,6.04,18.4,3.44,12.42,6.03,25.04,8.15,37.72,2.11,12.68,3.74,25.44,4.93,38.24,1.18,12.8,1.95,25.64,1.97,38.53-.03,12.88-.8,25.73-1.97,38.53-1.19,12.8-2.82,25.55-4.93,38.24-2.13,12.68-4.71,25.3-8.15,37.72-1.73,6.21-3.68,12.37-6.04,18.4-2.38,6.01-5.1,11.96-8.88,17.39-.15.18-.63.93-1.52,1.99-.86,1.07-2.12,2.48-3.81,3.93-1.69,1.43-3.89,2.95-6.63,3.66-.67.21-1.39.28-2.1.4-.72.03-1.46.08-2.17,0-1.43-.1-2.9-.41-4.26-1-2.75-1.15-4.84-3.48-5.92-5.89-1.12-2.42-1.47-4.88-1.44-6.94.02-2.07.48-3.77,1.05-4.84.57-1.1,1.29-1.42,1.32-1.34.07.09-.44.51-.79,1.58-.36,1.05-.61,2.66-.47,4.58.14,1.92.63,4.16,1.76,6.25,1.1,2.09,2.96,3.9,5.26,4.74,1.14.43,2.37.63,3.6.66.62.04,1.21-.04,1.8-.08.58-.12,1.16-.19,1.71-.4,2.23-.67,4.08-2.04,5.55-3.37,1.47-1.35,2.58-2.67,3.35-3.7.8-1,1.23-1.72,1.38-1.89,3.56-5.11,6.22-10.9,8.55-16.79,2.32-5.91,4.24-11.99,5.95-18.12,3.41-12.29,5.98-24.82,8.09-37.42,2.1-12.61,3.72-25.3,4.9-38.03,1.17-12.73,1.94-25.51,1.96-38.26-.03-12.76-.79-25.53-1.96-38.26-1.18-12.73-2.8-25.42-4.9-38.03-2.11-12.6-4.68-25.14-8.09-37.42-1.71-6.14-3.64-12.22-5.95-18.12-2.33-5.89-4.99-11.68-8.55-16.79-.14-.17-.58-.89-1.38-1.89-.77-1.02-1.89-2.35-3.35-3.7-1.47-1.33-3.32-2.7-5.55-3.37-.55-.21-1.13-.27-1.71-.4-.59-.04-1.18-.12-1.8-.08-1.23.03-2.46.23-3.6.66-2.3.84-4.16,2.65-5.26,4.74-1.12,2.08-1.62,4.33-1.76,6.25-.14,1.93.11,3.54.47,4.58.35,1.06.86,1.49.79,1.58-.03.08-.74-.24-1.32-1.34-.57-1.07-1.03-2.78-1.05-4.84-.03-2.06.32-4.51,1.44-6.94,1.08-2.41,3.17-4.74,5.92-5.89,1.36-.59,2.82-.9,4.26-.99.71-.07,1.45-.02,2.17,0,.71.11,1.43.18,2.1.4,2.75.72,4.94,2.24,6.63,3.66,1.69,1.45,2.95,2.86,3.81,3.93.89,1.06,1.37,1.8,1.52,1.99Z"/><path class="cls-2" d="M567.39,487.91c-.55-2.55-1.47-5.02-2.44-7.46-1.04-2.42-2.23-4.78-3.57-7.05-2.69-4.55-5.9-8.82-9.45-12.78-3.56-3.96-7.44-7.63-11.59-10.96-4.15-3.32-8.57-6.34-13.28-8.67-.17-.07-2.11-1.25-4.1-2.17-.47-.21-.96-.43-1.47-.65-.47-.19-.92-.35-1.3-.51-.77-.26-1.31-.48-1.31-.68,0-.19.57-.35,1.47-.41.44,0,.96,0,1.52.06.54.08,1.14.16,1.72.29,2.34.49,4.54,1.44,4.72,1.52,4.98,2.47,9.53,5.59,13.81,9.01,4.28,3.43,8.27,7.2,11.93,11.28,3.66,4.08,6.98,8.49,9.79,13.23,1.4,2.38,2.65,4.85,3.74,7.39,1.03,2.57,2,5.19,2.59,7.92.06.19.44,2.58.42,4.93,0,.59-.02,1.17-.04,1.71-.06.54-.13,1.05-.2,1.48-.15.86-.32,1.41-.52,1.41s-.4-.56-.59-1.38c-.1-.41-.19-.89-.28-1.4-.13-.55-.26-1.09-.38-1.6-.48-2.17-1.14-4.32-1.2-4.5Z"/><path class="cls-2" d="M573.74,458.63c-2.52-7.67-6.74-14.77-11.51-21.41-4.8-6.64-10.2-12.87-15.79-18.94-5.59-6.07-11.4-11.96-17.11-17.99-2.85-3.01-5.69-6.06-8.42-9.21-2.74-3.15-5.38-6.42-7.73-9.95-.16-.24-2.11-3.37-3.27-6.83-.59-1.72-.93-3.51-.96-4.85-.04-1.35.2-2.22.37-2.22.22,0,.36.85.73,2.05.36,1.2.96,2.75,1.73,4.25,1.53,3,3.63,5.79,3.79,6.03,2.24,3.37,4.82,6.55,7.51,9.65,2.69,3.1,5.5,6.12,8.34,9.12,5.69,5.99,11.51,11.9,17.14,18.02,5.63,6.11,11.1,12.42,16.01,19.2,4.88,6.78,9.24,14.1,11.91,22.2.1.28,1.1,3.83,1.38,7.41.18,1.78.15,3.56.04,4.87-.14,1.31-.33,2.17-.52,2.16-.2,0-.38-.86-.58-2.12-.24-1.26-.51-2.94-.93-4.59-.76-3.33-2-6.57-2.1-6.84Z"/><path class="cls-2" d="M570.17,105.59c-.59,2.73-1.56,5.35-2.59,7.92-1.09,2.55-2.34,5.02-3.74,7.39-2.81,4.75-6.13,9.15-9.79,13.23-3.67,4.08-7.66,7.85-11.93,11.28-4.28,3.42-8.83,6.54-13.81,9.01-.18.08-2.39,1.03-4.72,1.52-.58.13-1.18.2-1.72.29-.55.06-1.08.06-1.52.06-.9-.06-1.47-.22-1.47-.41,0-.2.54-.42,1.31-.68.38-.17.83-.32,1.3-.51.51-.23,1-.45,1.47-.65,2-.92,3.93-2.1,4.1-2.17,4.7-2.33,9.13-5.35,13.28-8.67,4.15-3.33,8.04-7,11.59-10.96,3.55-3.96,6.76-8.22,9.45-12.78,1.34-2.28,2.53-4.64,3.57-7.05.97-2.44,1.89-4.91,2.44-7.46.06-.18.72-2.33,1.2-4.5.12-.51.25-1.04.38-1.6.09-.51.18-.99.28-1.4.19-.82.39-1.38.59-1.38s.37.55.52,1.41c.07.43.15.93.2,1.48.02.54.03,1.12.04,1.71.02,2.35-.36,4.74-.42,4.93Z"/><path class="cls-2" d="M576.46,135.11c-2.66,8.1-7.03,15.41-11.91,22.2-4.91,6.79-10.38,13.09-16.01,19.2-5.63,6.11-11.45,12.02-17.14,18.02-2.84,3-5.65,6.02-8.34,9.12-2.69,3.1-5.27,6.29-7.51,9.65-.16.24-2.26,3.03-3.79,6.03-.77,1.5-1.37,3.05-1.73,4.25-.36,1.2-.51,2.05-.73,2.05-.17,0-.41-.87-.37-2.22.04-1.35.38-3.14.96-4.85,1.16-3.45,3.11-6.58,3.27-6.83,2.35-3.53,4.99-6.8,7.73-9.95,2.74-3.16,5.57-6.2,8.42-9.21,5.71-6.02,11.52-11.92,17.11-17.99,5.59-6.06,10.99-12.3,15.79-18.94,4.77-6.64,8.99-13.74,11.51-21.41.1-.27,1.34-3.51,2.1-6.84.42-1.66.69-3.33.93-4.59.2-1.26.38-2.12.58-2.12.19,0,.39.85.52,2.16.1,1.31.13,3.09-.04,4.87-.27,3.58-1.28,7.13-1.38,7.41Z"/><path class="cls-2" d="M22.68,487.26c.59-2.73,1.56-5.35,2.59-7.92,1.09-2.55,2.34-5.02,3.74-7.39,2.81-4.75,6.13-9.15,9.79-13.23,3.67-4.08,7.66-7.85,11.93-11.28,4.28-3.42,8.83-6.54,13.81-9.01.18-.08,2.39-1.03,4.72-1.52.58-.13,1.18-.2,1.72-.29.55-.06,1.08-.06,1.52-.06.9.06,1.47.22,1.47.41,0,.2-.54.42-1.31.68-.38.17-.83.32-1.3.51-.51.23-1,.45-1.47.65-2,.92-3.93,2.1-4.1,2.17-4.7,2.33-9.13,5.35-13.28,8.67-4.15,3.33-8.04,7-11.59,10.96-3.55,3.96-6.76,8.22-9.45,12.78-1.34,2.28-2.53,4.64-3.57,7.05-.97,2.44-1.89,4.91-2.44,7.46-.06.18-.72,2.33-1.2,4.5-.12.51-.25,1.04-.38,1.6-.09.51-.18.99-.28,1.4-.19.82-.39,1.38-.59,1.38s-.37-.55-.52-1.41c-.07-.43-.15-.93-.2-1.48-.02-.54-.03-1.12-.04-1.71-.02-2.35.36-4.74.42-4.93Z"/><path class="cls-2" d="M16.4,457.75c2.66-8.1,7.03-15.41,11.91-22.2,4.91-6.79,10.38-13.09,16.01-19.2,5.63-6.11,11.45-12.02,17.14-18.02,2.84-3,5.65-6.02,8.34-9.12,2.69-3.1,5.27-6.29,7.51-9.65.16-.24,2.26-3.03,3.79-6.03.77-1.5,1.37-3.05,1.73-4.25.36-1.2.51-2.05.73-2.05.17,0,.41.87.37,2.22-.04,1.35-.38,3.14-.96,4.85-1.16,3.45-3.11,6.58-3.27,6.83-2.35,3.53-4.99,6.8-7.73,9.95-2.74,3.16-5.57,6.2-8.42,9.21-5.71,6.02-11.52,11.92-17.11,17.99-5.59,6.06-10.99,12.3-15.79,18.94-4.77,6.64-8.99,13.74-11.51,21.41-.1.27-1.34,3.51-2.1,6.84-.42,1.66-.69,3.33-.93,4.59-.2,1.26-.38,2.12-.58,2.12-.19,0-.39-.85-.52-2.16-.1-1.31-.13-3.09.04-4.87.27-3.58,1.28-7.13,1.38-7.41Z"/><path class="cls-2" d="M25.46,104.94c.55,2.55,1.47,5.02,2.44,7.46,1.04,2.42,2.23,4.78,3.57,7.05,2.69,4.55,5.9,8.82,9.45,12.78,3.56,3.96,7.44,7.63,11.59,10.96,4.15,3.32,8.57,6.34,13.28,8.67.17.07,2.11,1.25,4.1,2.17.47.21.96.43,1.47.65.47.19.92.35,1.3.51.77.26,1.31.48,1.31.68,0,.19-.57.35-1.47.41-.44,0-.96,0-1.52-.06-.54-.08-1.14-.16-1.72-.29-2.34-.49-4.54-1.44-4.72-1.52-4.98-2.47-9.53-5.59-13.81-9.01-4.28-3.43-8.27-7.2-11.93-11.28-3.66-4.08-6.98-8.49-9.79-13.23-1.4-2.38-2.65-4.85-3.74-7.39-1.03-2.57-2-5.19-2.59-7.92-.06-.19-.44-2.58-.42-4.93,0-.59.02-1.17.04-1.71.06-.54.13-1.05.2-1.48.15-.86.32-1.41.52-1.41s.4.56.59,1.38c.1.41.19.89.28,1.4.13.55.26,1.09.38,1.6.48,2.17,1.14,4.32,1.2,4.5Z"/><path class="cls-2" d="M19.11,134.22c2.52,7.67,6.74,14.77,11.51,21.41,4.8,6.64,10.2,12.87,15.79,18.94,5.59,6.07,11.4,11.96,17.11,17.99,2.85,3.01,5.69,6.06,8.42,9.21,2.74,3.15,5.38,6.42,7.73,9.95.16.24,2.11,3.37,3.27,6.83.59,1.72.93,3.51.96,4.85.04,1.35-.2,2.22-.37,2.22-.22,0-.36-.85-.73-2.05-.36-1.2-.96-2.75-1.73-4.25-1.53-3-3.63-5.79-3.79-6.03-2.24-3.37-4.82-6.55-7.51-9.65-2.69-3.1-5.5-6.12-8.34-9.12-5.69-5.99-11.51-11.9-17.14-18.02-5.63-6.11-11.1-12.42-16.01-19.2-4.88-6.78-9.24-14.1-11.91-22.2-.1-.28-1.1-3.83-1.38-7.41-.18-1.78-.15-3.56-.04-4.87.14-1.31.33-2.17.52-2.16.2,0,.38.86.58,2.12.24,1.26.51,2.94.93,4.59.76,3.33,2,6.57,2.1,6.84Z"/><path class="cls-2" d="M104.94,567.39c2.55-.55,5.02-1.47,7.46-2.44,2.42-1.04,4.78-2.23,7.06-3.57,4.55-2.69,8.82-5.9,12.77-9.45,3.96-3.56,7.63-7.44,10.96-11.59,3.32-4.15,6.34-8.57,8.67-13.28.07-.17,1.25-2.11,2.17-4.11.21-.47.43-.96.65-1.47.19-.47.35-.92.51-1.3.26-.77.48-1.31.68-1.31.19,0,.35.57.41,1.47,0,.44,0,.96-.06,1.52-.08.54-.16,1.14-.29,1.72-.49,2.34-1.44,4.54-1.52,4.72-2.47,4.98-5.59,9.53-9.01,13.81-3.43,4.28-7.2,8.27-11.28,11.93-4.08,3.66-8.49,6.98-13.23,9.79-2.38,1.4-4.85,2.65-7.39,3.74-2.57,1.03-5.19,2-7.92,2.59-.19.06-2.58.44-4.93.42-.59,0-1.17-.02-1.71-.04-.54-.06-1.05-.13-1.48-.2-.86-.15-1.41-.32-1.41-.52,0-.2.56-.4,1.38-.59.41-.1.89-.19,1.4-.28.55-.13,1.09-.26,1.6-.38,2.17-.48,4.32-1.14,4.5-1.2Z"/><path class="cls-2" d="M134.22,573.74c7.67-2.52,14.77-6.74,21.41-11.51,6.64-4.8,12.87-10.2,18.94-15.79,6.07-5.59,11.96-11.4,17.99-17.11,3.01-2.85,6.06-5.69,9.21-8.43,3.15-2.74,6.42-5.38,9.95-7.73.24-.16,3.37-2.11,6.83-3.27,1.72-.59,3.51-.93,4.85-.96,1.35-.04,2.22.2,2.22.37,0,.22-.85.36-2.05.73-1.2.36-2.75.96-4.25,1.73-3,1.53-5.79,3.63-6.03,3.79-3.37,2.24-6.55,4.82-9.65,7.51-3.1,2.69-6.12,5.5-9.12,8.34-5.99,5.69-11.9,11.51-18.02,17.14-6.11,5.63-12.42,11.1-19.2,16.01-6.78,4.88-14.1,9.24-22.2,11.91-.28.1-3.83,1.11-7.41,1.38-1.78.18-3.56.15-4.87.04-1.31-.14-2.17-.33-2.16-.52,0-.2.86-.38,2.12-.59,1.26-.24,2.94-.51,4.59-.93,3.33-.76,6.57-2.01,6.84-2.1Z"/><path class="cls-2" d="M487.26,570.17c-2.73-.59-5.35-1.56-7.92-2.59-2.55-1.09-5.02-2.34-7.39-3.74-4.75-2.81-9.15-6.13-13.23-9.79-4.08-3.67-7.85-7.66-11.28-11.93-3.42-4.28-6.54-8.83-9.01-13.81-.08-.18-1.03-2.39-1.52-4.72-.13-.58-.2-1.18-.29-1.72-.06-.55-.06-1.08-.06-1.52.06-.9.22-1.47.41-1.47.2,0,.42.54.68,1.31.17.38.32.83.51,1.3.23.51.45,1,.65,1.47.92,2,2.1,3.93,2.17,4.11,2.33,4.7,5.35,9.13,8.67,13.28,3.33,4.15,7,8.04,10.96,11.59,3.96,3.55,8.22,6.76,12.77,9.45,2.28,1.34,4.64,2.53,7.06,3.57,2.44.97,4.91,1.89,7.46,2.44.18.06,2.33.72,4.5,1.2.51.12,1.04.25,1.6.38.51.09.99.18,1.4.28.82.19,1.38.39,1.38.59,0,.2-.55.37-1.41.52-.43.07-.93.15-1.48.2-.54.02-1.12.03-1.71.04-2.35.02-4.74-.36-4.93-.42Z"/><path class="cls-2" d="M457.75,576.46c-8.1-2.66-15.41-7.03-22.2-11.91-6.79-4.91-13.1-10.38-19.2-16.01-6.11-5.63-12.02-11.45-18.02-17.14-3-2.84-6.02-5.65-9.12-8.34-3.1-2.69-6.29-5.27-9.65-7.51-.24-.16-3.03-2.26-6.03-3.79-1.5-.77-3.05-1.37-4.25-1.73-1.2-.36-2.05-.51-2.05-.73,0-.17.87-.41,2.22-.37,1.35.04,3.14.38,4.85.96,3.45,1.16,6.58,3.11,6.83,3.27,3.53,2.35,6.8,4.99,9.95,7.73,3.16,2.74,6.2,5.57,9.21,8.43,6.02,5.71,11.92,11.52,17.99,17.11,6.06,5.59,12.3,10.99,18.94,15.79,6.64,4.77,13.74,8.99,21.41,11.51.27.1,3.51,1.34,6.84,2.1,1.66.42,3.33.69,4.59.93,1.26.2,2.12.38,2.12.59,0,.19-.85.39-2.16.52-1.31.1-3.09.13-4.87-.04-3.58-.27-7.13-1.28-7.41-1.38Z"/><path class="cls-2" d="M105.59,22.68c2.73.59,5.35,1.56,7.92,2.59,2.55,1.09,5.02,2.34,7.39,3.74,4.75,2.81,9.15,6.13,13.23,9.79,4.08,3.67,7.85,7.66,11.28,11.93,3.42,4.28,6.54,8.83,9.01,13.81.08.18,1.03,2.39,1.52,4.72.13.58.2,1.18.29,1.72.06.55.06,1.08.06,1.52-.06.9-.22,1.47-.41,1.47-.2,0-.42-.54-.68-1.31-.17-.38-.32-.83-.51-1.3-.23-.51-.45-1-.65-1.47-.92-2-2.1-3.93-2.17-4.11-2.33-4.7-5.35-9.13-8.67-13.28-3.33-4.15-7-8.04-10.96-11.59-3.96-3.55-8.22-6.76-12.77-9.45-2.28-1.34-4.64-2.53-7.06-3.57-2.44-.97-4.91-1.89-7.46-2.44-.18-.06-2.33-.72-4.5-1.2-.51-.12-1.04-.25-1.6-.38-.51-.09-.99-.18-1.4-.28-.82-.19-1.38-.39-1.38-.59,0-.2.55-.37,1.41-.52.43-.07.93-.15,1.48-.2.54-.02,1.12-.03,1.71-.04,2.35-.02,4.74.36,4.93.42Z"/><path class="cls-2" d="M135.11,16.4c8.1,2.66,15.41,7.03,22.2,11.91,6.79,4.91,13.1,10.38,19.2,16.01,6.11,5.63,12.02,11.45,18.02,17.14,3,2.84,6.02,5.65,9.12,8.34,3.1,2.69,6.29,5.27,9.65,7.51.24.16,3.03,2.26,6.03,3.79,1.5.77,3.05,1.37,4.25,1.73,1.2.36,2.05.51,2.05.73,0,.17-.87.41-2.22.37-1.35-.04-3.14-.38-4.85-.96-3.45-1.16-6.58-3.11-6.83-3.27-3.53-2.35-6.8-4.99-9.95-7.73-3.16-2.74-6.2-5.57-9.21-8.43-6.02-5.71-11.92-11.52-17.99-17.11-6.06-5.59-12.3-10.99-18.94-15.79-6.64-4.77-13.74-8.99-21.41-11.51-.27-.1-3.51-1.34-6.84-2.1-1.66-.42-3.33-.69-4.59-.93-1.26-.2-2.12-.38-2.12-.59,0-.19.85-.39,2.16-.52,1.31-.1,3.09-.13,4.87.04,3.58.27,7.13,1.28,7.41,1.38Z"/><path class="cls-2" d="M487.91,25.46c-2.55.55-5.02,1.47-7.46,2.44-2.42,1.04-4.78,2.23-7.06,3.57-4.55,2.69-8.82,5.9-12.77,9.45-3.96,3.56-7.63,7.44-10.96,11.59-3.32,4.15-6.34,8.57-8.67,13.28-.07.17-1.25,2.11-2.17,4.11-.21.47-.43.96-.65,1.47-.19.47-.35.92-.51,1.3-.26.77-.48,1.31-.68,1.31-.19,0-.35-.57-.41-1.47,0-.44,0-.96.06-1.52.08-.54.16-1.14.29-1.72.49-2.34,1.44-4.54,1.52-4.72,2.47-4.98,5.59-9.53,9.01-13.81,3.43-4.28,7.2-8.27,11.28-11.93,4.08-3.66,8.49-6.98,13.23-9.79,2.38-1.4,4.85-2.65,7.39-3.74,2.57-1.03,5.19-2,7.92-2.59.19-.06,2.58-.44,4.93-.42.59,0,1.17.02,1.71.04.54.06,1.05.13,1.48.2.86.15,1.41.32,1.41.52,0,.2-.56.4-1.38.59-.41.1-.89.19-1.4.28-.55.13-1.09.26-1.6.38-2.17.48-4.32,1.14-4.5,1.2Z"/><path class="cls-2" d="M458.63,19.11c-7.67,2.52-14.77,6.74-21.41,11.51-6.64,4.8-12.87,10.2-18.94,15.79-6.07,5.59-11.96,11.4-17.99,17.11-3.01,2.85-6.06,5.69-9.21,8.43-3.15,2.74-6.42,5.38-9.95,7.73-.24.16-3.37,2.11-6.83,3.27-1.72.59-3.51.93-4.85.96-1.35.04-2.22-.2-2.22-.37,0-.22.85-.36,2.05-.73,1.2-.36,2.75-.96,4.25-1.73,3-1.53,5.79-3.63,6.03-3.79,3.37-2.24,6.55-4.82,9.65-7.51,3.1-2.69,6.12-5.5,9.12-8.34,5.99-5.69,11.9-11.51,18.02-17.14,6.11-5.63,12.42-11.1,19.2-16.01,6.78-4.88,14.1-9.24,22.2-11.91.28-.1,3.83-1.11,7.41-1.38,1.78-.18,3.56-.15,4.87-.04,1.31.14,2.17.33,2.16.52,0,.2-.86.38-2.12.59-1.26.24-2.94.51-4.59.93-3.33.76-6.57,2.01-6.84,2.1Z"/></g></svg>