<?xml version="1.0" encoding="UTF-8"?><svg id="Line" xmlns="http://www.w3.org/2000/svg" viewBox="0 0 610 610"><defs><style>.cls-1{fill:#fff;stroke-width:0px;}</style></defs><g id="DecorativeElement_7_Lines"><path class="cls-1" d="M73,535.01c1.62-1.71,3.57-3.1,5.6-4.18,2.04-1.09,4.18-1.86,6.34-2.54,4.33-1.27,8.75-1.97,13.17-2.39,8.84-.78,17.68-.53,26.45.12,17.55,1.34,34.88,4.3,52.05,7.83,17.17,3.58,34.17,7.85,51.03,12.64,16.85,4.81,33.57,10.12,50.04,16.15.59.21,7.62,2.96,14.36,6,6.76,3,13.15,6.42,12.97,6.78-.17.35-6.82-2.4-13.73-4.91-6.9-2.54-14-4.97-14.58-5.18-16.38-6-33.04-11.29-49.83-16.08-16.8-4.77-33.74-9.03-50.83-12.59-17.09-3.52-34.33-6.45-51.68-7.78-8.67-.64-17.38-.89-25.97-.13-4.29.4-8.54,1.08-12.61,2.28-2.01.64-4,1.35-5.82,2.33-1.82.98-3.47,2.16-4.87,3.62-.17.22-1.66,1.53-2.9,3.82-.6,1.14-1.08,2.53-1.11,4.06-.06,1.53.45,3.15,1.25,4.65,1.69,3,4.5,5.35,6.64,6.94,2.17,1.59,3.74,2.47,3.66,2.65-.08.18-1.83-.37-4.26-1.72-2.39-1.36-5.57-3.51-7.77-6.83-1.05-1.66-1.83-3.65-1.88-5.65-.08-1.99.45-3.83,1.12-5.26,1.39-2.87,3-4.36,3.19-4.63Z"/><path class="cls-1" d="M534.93,536.98c-1.39-1.47-3.04-2.64-4.87-3.62-1.82-.98-3.81-1.69-5.82-2.33-4.07-1.19-8.32-1.87-12.61-2.28-8.59-.76-17.31-.52-25.97.13-17.35,1.33-34.59,4.26-51.68,7.78-17.09,3.56-34.03,7.82-50.83,12.59-16.79,4.79-33.45,10.08-49.83,16.08-.59.21-7.68,2.64-14.58,5.18-6.91,2.5-13.56,5.26-13.73,4.91-.18-.36,6.21-3.77,12.97-6.78,6.74-3.04,13.77-5.78,14.36-6,16.47-6.03,33.18-11.34,50.04-16.15,16.86-4.79,33.86-9.07,51.03-12.64,17.17-3.53,34.5-6.49,52.05-7.83,8.77-.65,17.61-.9,26.45-.12,4.42.42,8.84,1.12,13.17,2.39,2.15.68,4.3,1.45,6.34,2.54,2.03,1.08,3.98,2.47,5.6,4.18.19.26,1.8,1.75,3.19,4.63.67,1.43,1.2,3.27,1.12,5.26-.05,1.99-.83,3.98-1.88,5.65-2.21,3.32-5.38,5.47-7.77,6.83-2.43,1.34-4.18,1.89-4.26,1.72-.08-.18,1.49-1.06,3.66-2.65,2.14-1.58,4.96-3.93,6.64-6.94.8-1.5,1.3-3.12,1.25-4.65-.03-1.53-.51-2.92-1.11-4.06-1.24-2.28-2.73-3.59-2.9-3.82Z"/><path class="cls-1" d="M73.02,534.93c1.47-1.39,2.64-3.04,3.62-4.87.98-1.82,1.69-3.81,2.33-5.82,1.19-4.07,1.87-8.32,2.28-12.61.76-8.59.52-17.31-.13-25.97-1.33-17.35-4.26-34.59-7.78-51.68-3.56-17.09-7.82-34.03-12.59-50.83-4.79-16.79-10.08-33.45-16.08-49.83-.21-.59-2.64-7.68-5.18-14.58-2.5-6.91-5.26-13.56-4.91-13.73.36-.18,3.77,6.21,6.78,12.97,3.04,6.74,5.78,13.77,6,14.36,6.03,16.47,11.34,33.18,16.15,50.04,4.79,16.86,9.07,33.86,12.64,51.03,3.53,17.17,6.49,34.5,7.83,52.05.65,8.77.9,17.61.12,26.45-.42,4.42-1.12,8.84-2.39,13.17-.68,2.15-1.45,4.3-2.54,6.34-1.08,2.03-2.47,3.98-4.18,5.6-.26.19-1.75,1.8-4.63,3.19-1.43.67-3.27,1.2-5.26,1.12-1.99-.05-3.98-.83-5.65-1.88-3.32-2.21-5.47-5.38-6.83-7.77-1.34-2.43-1.89-4.18-1.72-4.26.18-.08,1.06,1.49,2.65,3.66,1.58,2.14,3.93,4.96,6.94,6.64,1.5.8,3.12,1.3,4.65,1.25,1.53-.03,2.92-.51,4.06-1.11,2.28-1.24,3.59-2.73,3.82-2.9Z"/><path class="cls-1" d="M74.99,73c1.71,1.62,3.1,3.57,4.18,5.6,1.09,2.04,1.86,4.18,2.54,6.34,1.27,4.33,1.97,8.75,2.39,13.17.78,8.84.53,17.68-.12,26.45-1.34,17.55-4.3,34.88-7.83,52.05-3.58,17.17-7.85,34.17-12.64,51.03-4.81,16.85-10.12,33.56-16.15,50.04-.21.59-2.96,7.62-6,14.36-3,6.76-6.42,13.15-6.78,12.97-.35-.17,2.4-6.82,4.91-13.73,2.54-6.9,4.97-14,5.18-14.58,6-16.38,11.3-33.04,16.08-49.83,4.77-16.8,9.03-33.74,12.59-50.83,3.52-17.09,6.45-34.33,7.78-51.68.64-8.67.89-17.38.13-25.97-.4-4.29-1.08-8.54-2.28-12.61-.64-2.01-1.35-4-2.33-5.82-.98-1.82-2.16-3.47-3.62-4.87-.22-.17-1.53-1.66-3.82-2.9-1.14-.6-2.53-1.08-4.06-1.11-1.53-.06-3.15.45-4.65,1.25-3,1.69-5.35,4.5-6.94,6.64-1.59,2.17-2.47,3.74-2.65,3.66-.18-.08.37-1.83,1.72-4.26,1.36-2.39,3.51-5.57,6.83-7.77,1.66-1.05,3.65-1.83,5.65-1.88,1.99-.08,3.83.45,5.26,1.12,2.87,1.39,4.36,3,4.63,3.19Z"/><path class="cls-1" d="M536.98,75.07c-1.47,1.39-2.64,3.04-3.62,4.87-.98,1.82-1.69,3.81-2.33,5.82-1.19,4.07-1.87,8.32-2.28,12.61-.76,8.59-.52,17.31.13,25.97,1.33,17.35,4.26,34.59,7.78,51.68,3.56,17.09,7.82,34.03,12.59,50.83,4.79,16.79,10.08,33.45,16.08,49.83.21.59,2.64,7.68,5.18,14.58,2.5,6.91,5.26,13.56,4.91,13.73-.36.18-3.77-6.21-6.77-12.97-3.04-6.74-5.78-13.77-6-14.36-6.03-16.47-11.34-33.18-16.15-50.04-4.79-16.86-9.07-33.86-12.64-51.03-3.53-17.17-6.49-34.5-7.83-52.05-.65-8.77-.9-17.61-.12-26.45.42-4.42,1.12-8.84,2.39-13.17.68-2.15,1.45-4.3,2.54-6.34,1.08-2.03,2.47-3.98,4.18-5.6.26-.19,1.75-1.8,4.63-3.19,1.43-.67,3.27-1.2,5.26-1.12,1.99.05,3.98.83,5.65,1.88,3.32,2.21,5.47,5.38,6.83,7.77,1.34,2.43,1.89,4.18,1.72,4.26-.18.08-1.06-1.49-2.65-3.66-1.58-2.14-3.93-4.96-6.94-6.64-1.5-.8-3.12-1.3-4.65-1.25-1.53.03-2.92.51-4.06,1.11-2.28,1.24-3.59,2.73-3.82,2.9Z"/><path class="cls-1" d="M535.01,537c-1.71-1.62-3.1-3.57-4.18-5.6-1.09-2.04-1.86-4.18-2.54-6.34-1.27-4.33-1.97-8.75-2.39-13.17-.78-8.84-.53-17.68.12-26.45,1.34-17.55,4.3-34.88,7.83-52.05,3.58-17.17,7.85-34.17,12.64-51.03,4.81-16.85,10.12-33.57,16.15-50.04.21-.59,2.96-7.62,6-14.36,3-6.76,6.42-13.15,6.77-12.97.35.17-2.4,6.82-4.91,13.73-2.54,6.9-4.97,14-5.18,14.58-6,16.38-11.3,33.04-16.08,49.83-4.77,16.8-9.03,33.74-12.59,50.83-3.52,17.09-6.45,34.33-7.78,51.68-.64,8.67-.89,17.38-.13,25.97.4,4.29,1.08,8.54,2.28,12.61.64,2.01,1.35,4,2.33,5.82.98,1.82,2.16,3.47,3.62,4.87.22.17,1.53,1.66,3.82,2.9,1.14.6,2.53,1.08,4.06,1.11,1.53.06,3.15-.45,4.65-1.25,3-1.69,5.35-4.5,6.94-6.64,1.59-2.17,2.47-3.74,2.65-3.66.18.08-.37,1.83-1.72,4.26-1.36,2.39-3.51,5.57-6.83,7.77-1.66,1.05-3.65,1.83-5.65,1.88-1.99.08-3.83-.45-5.26-1.12-2.87-1.39-4.36-3-4.63-3.19Z"/><path class="cls-1" d="M537,74.99c-1.62,1.71-3.57,3.1-5.6,4.18-2.04,1.09-4.18,1.86-6.34,2.54-4.33,1.27-8.75,1.97-13.17,2.39-8.84.78-17.68.53-26.45-.12-17.55-1.34-34.88-4.3-52.05-7.83-17.17-3.58-34.17-7.85-51.03-12.64-16.85-4.81-33.57-10.12-50.04-16.15-.59-.21-7.62-2.96-14.36-6-6.76-3-13.15-6.42-12.97-6.77.17-.35,6.82,2.4,13.73,4.91,6.9,2.54,14,4.97,14.58,5.18,16.38,6,33.04,11.29,49.83,16.08,16.8,4.77,33.74,9.03,50.83,12.59,17.09,3.52,34.33,6.45,51.68,7.78,8.67.64,17.38.89,25.97.13,4.29-.4,8.54-1.08,12.61-2.28,2.01-.64,4-1.35,5.82-2.33,1.82-.98,3.47-2.16,4.87-3.62.17-.22,1.66-1.53,2.9-3.82.6-1.14,1.08-2.53,1.11-4.06.06-1.53-.45-3.15-1.25-4.65-1.69-3-4.5-5.35-6.64-6.94-2.17-1.59-3.74-2.47-3.66-2.65.08-.18,1.83.37,4.26,1.72,2.39,1.36,5.57,3.51,7.77,6.83,1.05,1.66,1.83,3.65,1.88,5.65.08,1.99-.45,3.83-1.12,5.26-1.39,2.87-3,4.36-3.19,4.63Z"/><path class="cls-1" d="M75.07,73.02c1.39,1.47,3.04,2.64,4.87,3.62,1.82.98,3.81,1.69,5.82,2.33,4.07,1.19,8.32,1.87,12.61,2.28,8.59.76,17.31.52,25.97-.13,17.35-1.33,34.59-4.26,51.68-7.78,17.09-3.56,34.03-7.82,50.83-12.59,16.79-4.79,33.45-10.08,49.83-16.08.59-.21,7.68-2.64,14.58-5.18,6.91-2.5,13.56-5.26,13.73-4.91.18.36-6.21,3.77-12.97,6.77-6.74,3.04-13.77,5.78-14.36,6-16.47,6.03-33.18,11.34-50.04,16.15-16.86,4.79-33.86,9.07-51.03,12.64-17.17,3.53-34.5,6.49-52.05,7.83-8.77.65-17.61.9-26.45.12-4.42-.42-8.84-1.12-13.17-2.39-2.15-.68-4.3-1.45-6.34-2.54-2.03-1.08-3.98-2.47-5.6-4.18-.19-.26-1.8-1.75-3.19-4.63-.67-1.43-1.2-3.27-1.12-5.26.05-1.99.83-3.98,1.88-5.65,2.21-3.32,5.38-5.47,7.77-6.83,2.43-1.34,4.18-1.9,4.26-1.72.08.18-1.49,1.06-3.66,2.65-2.14,1.58-4.96,3.93-6.64,6.94-.8,1.5-1.3,3.12-1.25,4.65.03,1.53.51,2.92,1.11,4.06,1.24,2.28,2.73,3.59,2.9,3.82Z"/><path class="cls-1" d="M50.42,303.59c1.87-.05,3.75.27,5.49.8,1.75.53,3.37,1.3,4.95,2.11,3.11,1.7,5.95,3.77,8.62,5.98,5.32,4.46,10.06,9.48,14.54,14.68,8.94,10.42,16.87,21.61,24.39,33.03,7.49,11.44,14.51,23.17,21.17,35.1,6.64,11.94,12.93,24.08,18.68,36.49.21.44,2.54,5.85,4.53,11.26,2.02,5.4,3.58,10.84,3.21,10.97-.37.13-2.59-5.02-5.07-10.18-2.45-5.17-5.05-10.4-5.26-10.84-5.72-12.33-11.97-24.41-18.58-36.3-6.62-11.88-13.61-23.56-21.06-34.93-7.47-11.34-15.35-22.45-24.16-32.73-4.41-5.12-9.07-10.05-14.21-14.34-2.57-2.13-5.28-4.09-8.15-5.66-2.87-1.53-5.96-2.66-9.01-2.57-.21.03-1.73-.08-3.62.46-.93.28-1.93.75-2.76,1.53-.84.76-1.45,1.89-1.85,3.12-.74,2.52-.53,5.36-.26,7.4.28,2.07.62,3.43.44,3.5-.18.07-.88-1.19-1.52-3.27-.61-2.07-1.22-5.01-.62-8.13.33-1.53,1-3.11,2.1-4.28,1.08-1.19,2.42-1.94,3.61-2.38,2.4-.85,4.14-.79,4.39-.83Z"/><path class="cls-1" d="M303.56,559.5c.1-3.06-1.04-6.14-2.57-9.01-1.57-2.87-3.53-5.58-5.66-8.15-4.3-5.13-9.22-9.79-14.34-14.21-10.28-8.82-21.38-16.69-32.73-24.16-11.37-7.45-23.05-14.44-34.93-21.06-11.88-6.61-23.97-12.87-36.3-18.58-.44-.2-5.67-2.81-10.84-5.26-5.16-2.48-10.31-4.7-10.18-5.07.13-.38,5.56,1.19,10.97,3.21,5.41,1.99,10.82,4.32,11.26,4.53,12.41,5.75,24.55,12.04,36.49,18.68,11.93,6.65,23.67,13.67,35.1,21.17,11.42,7.52,22.6,15.44,33.03,24.39,5.2,4.48,10.22,9.22,14.68,14.54,2.21,2.67,4.28,5.51,5.98,8.62.82,1.58,1.58,3.2,2.11,4.95.53,1.74.85,3.62.8,5.49-.04.25.02,1.99-.83,4.39-.44,1.18-1.19,2.53-2.38,3.61-1.17,1.1-2.75,1.77-4.28,2.1-3.11.6-6.06,0-8.13-.62-2.08-.64-3.34-1.34-3.27-1.52.07-.19,1.43.15,3.5.44,2.05.27,4.88.48,7.4-.26,1.23-.39,2.35-1,3.12-1.85.78-.83,1.25-1.83,1.53-2.76.54-1.89.44-3.41.46-3.62Z"/><path class="cls-1" d="M50.5,303.56c3.06.1,6.14-1.04,9.01-2.57,2.87-1.57,5.58-3.53,8.15-5.66,5.13-4.3,9.79-9.22,14.21-14.34,8.82-10.28,16.69-21.38,24.16-32.73,7.45-11.37,14.44-23.05,21.06-34.93,6.61-11.88,12.87-23.97,18.58-36.3.2-.44,2.81-5.67,5.26-10.84,2.48-5.16,4.7-10.31,5.07-10.18.38.13-1.19,5.56-3.21,10.97-1.99,5.41-4.32,10.82-4.53,11.26-5.75,12.41-12.04,24.55-18.68,36.49-6.65,11.93-13.67,23.67-21.17,35.1-7.52,11.42-15.44,22.6-24.39,33.03-4.48,5.2-9.22,10.22-14.54,14.68-2.67,2.21-5.51,4.28-8.62,5.98-1.58.82-3.2,1.58-4.95,2.11-1.74.53-3.62.85-5.49.8-.25-.04-1.99.02-4.39-.83-1.18-.44-2.53-1.19-3.61-2.38-1.1-1.17-1.77-2.75-2.1-4.28-.6-3.11,0-6.06.62-8.13.64-2.08,1.34-3.34,1.52-3.27.19.07-.15,1.43-.44,3.5-.27,2.05-.48,4.88.26,7.4.39,1.23,1,2.35,1.85,3.12.83.78,1.83,1.25,2.76,1.53,1.89.54,3.41.44,3.62.46Z"/><path class="cls-1" d="M306.41,50.42c.05,1.87-.27,3.75-.8,5.49-.53,1.75-1.3,3.37-2.11,4.95-1.7,3.11-3.77,5.95-5.98,8.62-4.46,5.32-9.48,10.06-14.68,14.54-10.42,8.94-21.61,16.87-33.03,24.39-11.44,7.49-23.17,14.51-35.1,21.17-11.94,6.64-24.08,12.93-36.49,18.68-.44.21-5.85,2.54-11.26,4.53-5.4,2.02-10.84,3.58-10.97,3.21-.13-.37,5.02-2.59,10.18-5.07,5.17-2.45,10.4-5.05,10.84-5.26,12.33-5.72,24.41-11.97,36.3-18.58,11.88-6.62,23.56-13.61,34.93-21.06,11.34-7.47,22.45-15.35,32.73-24.16,5.12-4.41,10.05-9.07,14.34-14.21,2.13-2.57,4.09-5.28,5.66-8.15,1.53-2.87,2.66-5.96,2.57-9.01-.03-.21.08-1.73-.46-3.62-.28-.93-.75-1.93-1.53-2.76-.76-.84-1.89-1.45-3.12-1.85-2.52-.74-5.36-.53-7.4-.26-2.07.28-3.43.62-3.5.44-.07-.18,1.19-.88,3.27-1.52,2.07-.61,5.01-1.22,8.13-.62,1.53.33,3.11,1,4.28,2.1,1.19,1.08,1.94,2.42,2.38,3.61.85,2.4.79,4.14.83,4.39Z"/><path class="cls-1" d="M559.5,306.44c-3.06-.1-6.14,1.04-9.01,2.57-2.87,1.57-5.58,3.53-8.15,5.66-5.13,4.3-9.79,9.22-14.21,14.34-8.82,10.28-16.69,21.38-24.16,32.73-7.45,11.37-14.44,23.05-21.06,34.93-6.61,11.88-12.87,23.97-18.58,36.3-.2.44-2.81,5.67-5.26,10.84-2.48,5.16-4.7,10.31-5.07,10.18-.38-.13,1.19-5.56,3.21-10.97,1.99-5.41,4.32-10.82,4.53-11.26,5.75-12.41,12.04-24.55,18.68-36.49,6.65-11.93,13.67-23.67,21.17-35.1,7.52-11.42,15.44-22.6,24.39-33.03,4.48-5.2,9.22-10.22,14.54-14.68,2.67-2.21,5.51-4.28,8.62-5.98,1.58-.82,3.2-1.58,4.95-2.11,1.74-.53,3.62-.85,5.49-.8.25.04,1.99-.02,4.39.83,1.18.44,2.53,1.19,3.61,2.38,1.1,1.17,1.77,2.75,2.1,4.28.6,3.11,0,6.06-.62,8.13-.64,2.08-1.34,3.34-1.52,3.27-.19-.07.15-1.44.44-3.5.27-2.05.48-4.88-.26-7.4-.39-1.23-1-2.35-1.85-3.12-.83-.78-1.83-1.25-2.76-1.53-1.89-.54-3.41-.44-3.62-.46Z"/><path class="cls-1" d="M303.59,559.58c-.05-1.87.27-3.75.8-5.49.53-1.75,1.3-3.37,2.11-4.95,1.7-3.11,3.77-5.95,5.98-8.62,4.46-5.32,9.48-10.06,14.68-14.54,10.42-8.94,21.61-16.87,33.03-24.39,11.44-7.49,23.17-14.51,35.1-21.17,11.94-6.64,24.08-12.93,36.49-18.68.44-.21,5.85-2.54,11.26-4.53,5.4-2.02,10.84-3.58,10.97-3.21.13.37-5.02,2.59-10.18,5.07-5.17,2.45-10.4,5.05-10.84,5.26-12.33,5.72-24.41,11.97-36.3,18.58-11.88,6.62-23.56,13.61-34.93,21.06-11.34,7.47-22.45,15.35-32.73,24.16-5.12,4.41-10.05,9.07-14.35,14.21-2.13,2.57-4.09,5.28-5.66,8.15-1.53,2.87-2.66,5.96-2.57,9.01.03.21-.08,1.73.46,3.62.28.93.75,1.93,1.53,2.76.76.84,1.88,1.45,3.12,1.85,2.52.74,5.36.53,7.4.26,2.07-.28,3.43-.62,3.5-.44.07.18-1.19.88-3.27,1.52-2.07.61-5.01,1.22-8.13.62-1.53-.33-3.11-1-4.28-2.1-1.19-1.08-1.94-2.42-2.38-3.61-.85-2.4-.79-4.14-.83-4.39Z"/><path class="cls-1" d="M559.58,306.41c-1.87.05-3.75-.27-5.49-.8-1.75-.53-3.37-1.3-4.95-2.11-3.11-1.7-5.95-3.77-8.62-5.98-5.32-4.46-10.06-9.48-14.54-14.68-8.94-10.42-16.87-21.61-24.39-33.03-7.49-11.44-14.51-23.17-21.17-35.1-6.64-11.94-12.93-24.08-18.68-36.49-.21-.44-2.54-5.85-4.53-11.26-2.02-5.4-3.58-10.84-3.21-10.97.37-.13,2.59,5.02,5.07,10.18,2.45,5.17,5.05,10.4,5.26,10.84,5.72,12.33,11.97,24.41,18.58,36.3,6.62,11.88,13.61,23.56,21.06,34.93,7.47,11.34,15.35,22.45,24.16,32.73,4.41,5.12,9.07,10.05,14.21,14.34,2.57,2.13,5.28,4.09,8.15,5.66,2.87,1.53,5.96,2.66,9.01,2.57.21-.03,1.73.08,3.62-.46.93-.28,1.93-.75,2.76-1.53.84-.76,1.45-1.89,1.85-3.12.74-2.52.53-5.35.26-7.4-.28-2.07-.62-3.43-.44-3.5.18-.07.88,1.19,1.52,3.27.61,2.07,1.22,5.01.62,8.13-.33,1.53-1,3.11-2.1,4.28-1.08,1.19-2.42,1.94-3.61,2.38-2.4.85-4.14.79-4.39.83Z"/><path class="cls-1" d="M306.44,50.5c-.1,3.06,1.04,6.14,2.57,9.01,1.57,2.87,3.53,5.58,5.66,8.15,4.3,5.13,9.22,9.79,14.35,14.21,10.28,8.82,21.38,16.69,32.73,24.16,11.37,7.45,23.05,14.44,34.93,21.06,11.88,6.61,23.97,12.87,36.3,18.58.44.2,5.67,2.81,10.84,5.26,5.16,2.48,10.31,4.7,10.18,5.07-.13.38-5.56-1.19-10.97-3.21-5.41-1.99-10.82-4.32-11.26-4.53-12.41-5.75-24.55-12.04-36.49-18.68-11.93-6.65-23.67-13.67-35.1-21.17-11.42-7.52-22.6-15.44-33.03-24.39-5.2-4.48-10.22-9.22-14.68-14.54-2.21-2.67-4.28-5.51-5.98-8.62-.82-1.58-1.58-3.2-2.11-4.95-.53-1.74-.85-3.62-.8-5.49.04-.25-.02-1.99.83-4.39.44-1.18,1.19-2.53,2.38-3.61,1.17-1.1,2.75-1.77,4.28-2.1,3.11-.6,6.06,0,8.13.62,2.08.64,3.34,1.34,3.27,1.52-.07.19-1.43-.15-3.5-.44-2.05-.27-4.88-.48-7.4.26-1.23.39-2.35,1-3.12,1.85-.78.83-1.25,1.83-1.53,2.76-.54,1.89-.44,3.41-.46,3.62Z"/><path class="cls-1" d="M209.26,42.67c-13.31,4.96-26.26,10.86-38.73,17.65l-9.23,5.31c-3.05,1.82-5.99,3.81-9,5.7l-2.24,1.44c-.75.47-1.49.96-2.21,1.49l-4.34,3.09c-2.89,2.06-5.82,4.07-8.57,6.32-11.33,8.57-21.83,18.2-31.65,28.45-5,5.05-9.55,10.51-14.17,15.9l-6.58,8.38c-1.13,1.37-2.14,2.84-3.16,4.28l-3.09,4.34c-1.02,1.45-2.08,2.88-3.07,4.35l-2.87,4.48-2.87,4.48c-.47.75-.97,1.48-1.42,2.25l-1.33,2.31-5.3,9.24-4.86,9.48c-6.21,12.77-11.6,25.94-15.89,39.49-4.18,13.57-7.39,27.43-9.64,41.46-2.04,14.06-3.08,28.24-3.21,42.45.13,14.21,1.17,28.39,3.21,42.45,2.25,14.03,5.46,27.88,9.64,41.46,4.29,13.54,9.67,26.72,15.89,39.49l4.86,9.48,5.3,9.24,1.33,2.31c.45.77.95,1.5,1.42,2.25l2.87,4.48,2.87,4.48c.99,1.48,2.05,2.9,3.07,4.35l3.09,4.34c1.03,1.45,2.04,2.91,3.16,4.28l6.58,8.38c4.62,5.39,9.17,10.85,14.17,15.9,9.82,10.25,20.33,19.88,31.65,28.45,2.75,2.25,5.68,4.26,8.57,6.32l4.34,3.09c.72.53,1.45,1.02,2.21,1.49l2.24,1.44c3,1.89,5.95,3.88,9,5.7l9.23,5.31c12.47,6.79,25.42,12.69,38.73,17.65.48.16,2.28.79,5.07,1.75,1.39.48,3.03,1.05,4.88,1.69.92.32,1.9.65,2.92,1,1.03.3,2.12.62,3.24.95,4.5,1.28,9.6,2.95,15.16,4.16,2.77.66,5.61,1.34,8.5,2.03,2.91.55,5.86,1.11,8.8,1.67,1.47.28,2.94.56,4.4.84,1.47.21,2.94.41,4.39.62,2.9.41,5.76.81,8.52,1.19,1.38.23,2.74.3,4.08.43,1.33.12,2.64.24,3.9.36,2.53.24,4.92.46,7.14.67,4.36.23,8.02.42,10.69.55,2.58.16,4.05.29,4.05.39s-1.47.16-4.06.18c-2.58.02-6.28.04-10.74-.02-2.23-.13-4.64-.27-7.19-.42-1.28-.08-2.59-.16-3.93-.24-1.34-.1-2.72-.13-4.11-.32-2.79-.32-5.67-.65-8.6-.98-1.47-.17-2.95-.35-4.44-.52-1.48-.25-2.96-.5-4.45-.74-2.98-.5-5.96-1-8.9-1.5-2.92-.61-5.8-1.27-8.6-1.88-5.63-1.12-10.81-2.72-15.37-3.94-1.14-.31-2.23-.62-3.28-.91-1.03-.34-2.02-.66-2.96-.97-1.87-.62-3.54-1.17-4.95-1.64-2.83-.94-4.66-1.55-5.14-1.71-13.45-5.01-26.53-10.97-39.13-17.83l-9.33-5.36c-3.08-1.83-6.06-3.84-9.09-5.76l-2.26-1.45c-.76-.47-1.51-.97-2.23-1.5l-4.38-3.12c-2.92-2.08-5.88-4.11-8.66-6.39-11.44-8.66-22.05-18.39-31.98-28.74-5.05-5.1-9.65-10.61-14.32-16.06l-6.65-8.46c-1.14-1.39-2.16-2.86-3.2-4.33l-3.12-4.38c-1.03-1.47-2.1-2.91-3.1-4.4l-2.9-4.53-2.9-4.53c-.48-.76-.98-1.5-1.44-2.27l-1.34-2.33-5.35-9.33-4.91-9.58c-6.28-12.9-11.72-26.21-16.05-39.89-4.22-13.71-7.47-27.72-9.74-41.89-2.06-14.2-3.11-28.53-3.24-42.88.13-14.35,1.18-28.68,3.24-42.88,2.27-14.17,5.52-28.17,9.74-41.89,4.33-13.68,9.77-27,16.05-39.89l4.91-9.58,5.35-9.33,1.34-2.33c.45-.77.96-1.52,1.44-2.27l2.9-4.53,2.9-4.53c1-1.49,2.07-2.93,3.1-4.4l3.12-4.38c1.04-1.46,2.06-2.94,3.2-4.33l6.65-8.46c4.67-5.44,9.27-10.96,14.32-16.06,9.92-10.35,20.53-20.08,31.98-28.74,2.78-2.27,5.74-4.3,8.66-6.39l4.38-3.12c.72-.53,1.47-1.03,2.23-1.5l2.26-1.45c3.03-1.91,6.01-3.92,9.09-5.76l9.33-5.36c12.6-6.86,25.69-12.82,39.13-17.83.49-.16,2.31-.77,5.14-1.71,1.41-.47,3.08-1.02,4.95-1.64.94-.31,1.92-.63,2.96-.97,1.05-.29,2.15-.59,3.28-.91,4.56-1.22,9.74-2.82,15.37-3.94,2.8-.61,5.68-1.27,8.6-1.88,2.94-.5,5.93-1,8.9-1.5,1.49-.25,2.97-.5,4.45-.74,1.49-.17,2.97-.35,4.44-.52,2.93-.33,5.81-.66,8.6-.98,1.39-.19,2.77-.22,4.11-.32,1.34-.08,2.66-.16,3.93-.24,2.55-.15,4.96-.29,7.19-.42,4.45-.06,8.15-.04,10.74-.02,2.58.03,4.06.09,4.06.18s-1.47.23-4.05.39c-2.67.14-6.33.33-10.69.55-2.22.21-4.61.43-7.14.67-1.27.12-2.57.24-3.9.36-1.33.13-2.7.2-4.08.43-2.76.39-5.62.79-8.52,1.19-1.45.21-2.92.41-4.39.62-1.46.28-2.93.56-4.4.84-2.94.56-5.89,1.11-8.8,1.67-2.88.69-5.73,1.37-8.5,2.03-5.56,1.21-10.67,2.88-15.16,4.16-1.12.33-2.2.64-3.24.95-1.02.35-1.99.68-2.92,1-1.84.64-3.48,1.21-4.88,1.69-2.79.96-4.59,1.58-5.07,1.75Z"/><path class="cls-1" d="M401.72,39.99c13.45,5.01,26.53,10.97,39.13,17.83l9.33,5.36c3.08,1.83,6.06,3.84,9.09,5.76l2.26,1.45c.76.47,1.51.97,2.23,1.5l4.38,3.12c2.92,2.08,5.88,4.11,8.66,6.39,11.44,8.66,22.05,18.39,31.98,28.74,5.05,5.1,9.65,10.61,14.32,16.06l6.65,8.46c1.14,1.39,2.16,2.86,3.2,4.33l3.12,4.38c1.03,1.47,2.1,2.91,3.1,4.4l2.9,4.53,2.9,4.53c.48.76.98,1.5,1.44,2.27l1.34,2.33,5.35,9.33,4.91,9.58c6.28,12.9,11.72,26.21,16.05,39.89,4.22,13.71,7.47,27.72,9.74,41.89,2.06,14.2,3.11,28.53,3.24,42.88-.13,14.35-1.18,28.68-3.24,42.88-2.27,14.17-5.52,28.17-9.74,41.89-4.33,13.68-9.77,27-16.05,39.89l-4.91,9.58-5.35,9.33-1.34,2.33c-.45.77-.96,1.52-1.44,2.27l-2.9,4.53-2.9,4.53c-1,1.49-2.07,2.93-3.1,4.4l-3.12,4.38c-1.04,1.46-2.06,2.94-3.2,4.33l-6.65,8.46c-4.67,5.44-9.27,10.96-14.32,16.06-9.92,10.35-20.53,20.08-31.98,28.74-2.78,2.27-5.74,4.3-8.66,6.39l-4.38,3.12c-.72.53-1.47,1.03-2.23,1.5l-2.26,1.45c-3.03,1.91-6.01,3.92-9.09,5.76l-9.33,5.36c-12.6,6.86-25.69,12.82-39.13,17.83-.49.16-2.31.77-5.14,1.71-1.41.47-3.08,1.02-4.95,1.64-.94.31-1.92.63-2.96.97-1.05.29-2.15.59-3.28.91-4.56,1.22-9.74,2.82-15.37,3.94-2.8.61-5.68,1.27-8.6,1.88-2.94.5-5.93,1-8.9,1.5-1.49.25-2.97.5-4.45.74-1.49.17-2.97.35-4.44.52-2.93.33-5.81.66-8.6.98-1.39.19-2.77.22-4.11.32-1.34.08-2.65.16-3.93.24-2.55.15-4.96.29-7.19.42-4.45.06-8.15.04-10.74.02-2.58-.03-4.06-.09-4.06-.18s1.47-.23,4.05-.39c2.67-.14,6.33-.33,10.69-.55,2.22-.21,4.61-.43,7.14-.67,1.27-.12,2.57-.24,3.9-.36,1.33-.13,2.7-.2,4.08-.43,2.76-.39,5.62-.79,8.52-1.19,1.45-.21,2.92-.41,4.39-.62,1.46-.28,2.93-.56,4.4-.84,2.94-.56,5.89-1.11,8.8-1.67,2.88-.69,5.73-1.37,8.5-2.03,5.56-1.21,10.67-2.88,15.16-4.16,1.12-.33,2.2-.64,3.24-.95,1.02-.35,1.99-.68,2.92-1,1.84-.64,3.48-1.21,4.88-1.69,2.79-.96,4.59-1.58,5.07-1.75,13.31-4.96,26.26-10.86,38.73-17.65l9.23-5.31c3.05-1.82,5.99-3.81,9-5.7l2.24-1.44c.75-.47,1.49-.96,2.21-1.49l4.34-3.09c2.89-2.06,5.82-4.07,8.57-6.32,11.33-8.57,21.83-18.2,31.65-28.45,5-5.05,9.55-10.51,14.17-15.9l6.58-8.38c1.13-1.37,2.14-2.84,3.16-4.28l3.09-4.34c1.02-1.45,2.08-2.88,3.07-4.35l2.87-4.48,2.87-4.48c.47-.75.97-1.48,1.42-2.25l1.33-2.31,5.3-9.24,4.86-9.48c6.21-12.77,11.6-25.94,15.89-39.49,4.18-13.57,7.39-27.43,9.64-41.46,2.04-14.06,3.08-28.24,3.21-42.45-.13-14.21-1.17-28.39-3.21-42.45-2.25-14.03-5.46-27.88-9.64-41.46-4.29-13.54-9.67-26.72-15.89-39.49l-4.86-9.48-5.3-9.24-1.33-2.31c-.45-.77-.95-1.5-1.42-2.25l-2.87-4.48-2.87-4.48c-.99-1.48-2.05-2.9-3.07-4.35l-3.09-4.34c-1.03-1.45-2.04-2.91-3.16-4.28l-6.58-8.38c-4.62-5.39-9.17-10.85-14.17-15.9-9.82-10.25-20.33-19.88-31.65-28.45-2.75-2.25-5.68-4.26-8.57-6.32l-4.34-3.09c-.72-.53-1.45-1.02-2.21-1.49l-2.24-1.44c-3-1.89-5.95-3.88-9-5.7l-9.23-5.31c-12.47-6.79-25.42-12.69-38.73-17.65-.48-.17-2.28-.79-5.07-1.75-1.39-.48-3.03-1.05-4.88-1.69-.92-.32-1.9-.65-2.92-1-1.03-.3-2.12-.62-3.24-.95-4.5-1.28-9.6-2.95-15.16-4.16-2.77-.66-5.61-1.34-8.5-2.03-2.91-.55-5.86-1.11-8.8-1.67-1.47-.28-2.94-.56-4.4-.84-1.47-.21-2.94-.41-4.39-.62-2.9-.41-5.76-.81-8.52-1.19-1.38-.23-2.74-.3-4.08-.43-1.33-.12-2.63-.24-3.9-.36-2.53-.24-4.92-.46-7.14-.67-4.36-.23-8.02-.42-10.69-.55-2.58-.16-4.05-.29-4.05-.39s1.47-.16,4.06-.18c2.58-.02,6.28-.04,10.74.02,2.23.13,4.64.27,7.19.42,1.28.08,2.59.16,3.93.24,1.34.1,2.72.13,4.11.32,2.79.32,5.67.65,8.6.98,1.47.17,2.95.35,4.44.52,1.48.25,2.96.5,4.45.74,2.98.5,5.96,1,8.9,1.5,2.92.61,5.8,1.27,8.6,1.88,5.63,1.12,10.81,2.72,15.37,3.94,1.14.31,2.23.62,3.28.91,1.03.34,2.02.66,2.96.97,1.87.62,3.54,1.17,4.95,1.64,2.83.94,4.66,1.55,5.14,1.71Z"/><path class="cls-1" d="M512.11,229.41c-3.92-10.51-8.57-20.73-13.93-30.58l-4.19-7.29c-1.43-2.41-3-4.73-4.5-7.1-1.47-2.39-3.12-4.65-4.75-6.94-1.63-2.28-3.21-4.6-4.99-6.77-6.77-8.94-14.37-17.24-22.46-24.99-3.99-3.95-8.3-7.54-12.55-11.19l-6.61-5.2c-1.09-.89-2.24-1.69-3.38-2.5l-3.43-2.44c-1.15-.8-2.27-1.64-3.44-2.42l-3.54-2.27c-2.38-1.49-4.68-3.1-7.14-4.44l-7.29-4.18-7.48-3.83c-10.08-4.91-20.48-9.16-31.17-12.54-10.72-3.3-21.66-5.83-32.73-7.61-11.1-1.61-22.3-2.43-33.52-2.53-11.22.1-22.41.93-33.52,2.53-11.07,1.78-22.01,4.31-32.73,7.61-10.69,3.38-21.1,7.64-31.17,12.54l-7.48,3.83-7.29,4.18c-2.46,1.34-4.76,2.95-7.14,4.44l-3.54,2.27c-1.16.78-2.29,1.62-3.44,2.42l-3.43,2.44c-1.14.81-2.3,1.61-3.38,2.5l-6.61,5.2c-4.25,3.65-8.56,7.24-12.55,11.19-8.09,7.76-15.69,16.05-22.46,24.99-1.78,2.17-3.36,4.48-4.99,6.77-1.63,2.28-3.28,4.55-4.75,6.94-1.49,2.37-3.07,4.7-4.5,7.1l-4.19,7.29c-5.36,9.85-10.01,20.07-13.93,30.58-.13.38-.62,1.8-1.38,4-.38,1.1-.83,2.39-1.34,3.85-.25.73-.52,1.5-.8,2.3-.24.82-.49,1.67-.75,2.55-1.02,3.55-2.34,7.58-3.31,11.97-.53,2.18-1.07,4.43-1.62,6.71-.44,2.3-.89,4.63-1.33,6.95-.22,1.16-.45,2.32-.67,3.48-.17,1.16-.33,2.32-.5,3.47-.33,2.29-.65,4.54-.97,6.73-.51,4.37-.83,8.45-1.2,11.94-.2,3.5-.34,6.41-.49,8.45-.14,2.04-.27,3.2-.37,3.2s-.16-1.16-.21-3.21c-.04-2.04-.07-4.97-.04-8.49.2-3.51.36-7.64.72-12.05.24-2.21.5-4.49.75-6.81.13-1.16.27-2.33.4-3.51.19-1.17.39-2.35.58-3.52.39-2.36.78-4.72,1.17-7.05.47-2.32.99-4.59,1.47-6.81.88-4.46,2.13-8.56,3.09-12.17.25-.9.48-1.77.71-2.6.27-.82.52-1.6.76-2.34.49-1.48.92-2.8,1.29-3.92.74-2.24,1.22-3.69,1.35-4.07,3.97-10.65,8.68-21,14.11-30.98l4.25-7.38c1.45-2.44,3.04-4.79,4.56-7.2,1.49-2.42,3.16-4.72,4.81-7.03,1.65-2.31,3.25-4.66,5.05-6.85,6.86-9.06,14.56-17.46,22.75-25.31,4.04-4,8.4-7.64,12.71-11.33l6.7-5.26c1.1-.9,2.27-1.71,3.42-2.53l3.47-2.47c1.16-.82,2.3-1.66,3.48-2.45l3.59-2.3c2.41-1.51,4.74-3.14,7.23-4.5l7.39-4.24,7.58-3.88c10.21-4.97,20.75-9.28,31.58-12.71,10.86-3.34,21.94-5.91,33.16-7.71,11.24-1.63,22.59-2.46,33.95-2.57,11.36.1,22.7.94,33.95,2.57,11.22,1.8,22.3,4.37,33.16,7.71,10.83,3.43,21.37,7.73,31.58,12.71l7.58,3.88,7.39,4.24c2.49,1.36,4.83,2.99,7.23,4.5l3.59,2.3c1.18.79,2.32,1.64,3.48,2.45l3.47,2.47c1.16.82,2.33,1.63,3.42,2.53l6.7,5.26c4.31,3.69,8.67,7.34,12.71,11.33,8.19,7.86,15.89,16.26,22.75,25.31,1.8,2.2,3.41,4.54,5.05,6.85,1.65,2.31,3.32,4.61,4.81,7.03,1.51,2.4,3.1,4.76,4.56,7.2l4.25,7.38c5.43,9.98,10.15,20.33,14.11,30.98.13.38.61,1.83,1.35,4.07.37,1.12.8,2.44,1.29,3.92.24.74.5,1.52.76,2.34.23.83.47,1.7.71,2.6.96,3.61,2.21,7.71,3.09,12.17.48,2.22,1,4.5,1.47,6.81.39,2.33.78,4.69,1.17,7.05.19,1.18.39,2.35.58,3.52.13,1.18.27,2.35.4,3.51.26,2.32.51,4.6.75,6.81.36,4.42.52,8.54.72,12.05.03,3.52,0,6.45-.04,8.49-.04,2.04-.11,3.21-.21,3.21s-.22-1.16-.37-3.2c-.15-2.04-.29-4.95-.49-8.45-.37-3.49-.69-7.57-1.2-11.94-.31-2.18-.64-4.44-.97-6.73-.17-1.15-.33-2.3-.5-3.47-.22-1.16-.45-2.31-.67-3.48-.45-2.32-.89-4.65-1.33-6.95-.55-2.28-1.09-4.52-1.62-6.71-.97-4.39-2.29-8.42-3.31-11.97-.26-.89-.51-1.74-.75-2.55-.28-.8-.54-1.57-.8-2.3-.51-1.46-.96-2.75-1.34-3.85-.76-2.2-1.25-3.62-1.38-4Z"/><path class="cls-1" d="M514.79,381.57c-3.97,10.65-8.68,21-14.11,30.98l-4.25,7.38c-1.45,2.44-3.04,4.79-4.56,7.2-1.49,2.42-3.16,4.72-4.81,7.03-1.65,2.31-3.25,4.66-5.05,6.85-6.86,9.06-14.56,17.46-22.75,25.31-4.04,4-8.4,7.64-12.71,11.33l-6.7,5.26c-1.1.9-2.27,1.71-3.42,2.53l-3.47,2.47c-1.16.82-2.3,1.66-3.48,2.45l-3.59,2.3c-2.41,1.51-4.74,3.14-7.23,4.5l-7.39,4.24-7.58,3.88c-10.21,4.97-20.75,9.28-31.58,12.71-10.86,3.34-21.94,5.91-33.16,7.71-11.24,1.63-22.59,2.46-33.95,2.57-11.36-.1-22.7-.94-33.95-2.57-11.22-1.8-22.3-4.37-33.16-7.71-10.83-3.43-21.37-7.73-31.58-12.71l-7.58-3.88-7.39-4.24c-2.49-1.36-4.83-2.99-7.23-4.5l-3.59-2.3c-1.18-.79-2.32-1.64-3.48-2.45l-3.47-2.47c-1.16-.82-2.33-1.63-3.42-2.53l-6.7-5.26c-4.31-3.69-8.67-7.34-12.71-11.33-8.19-7.86-15.89-16.26-22.75-25.31-1.8-2.2-3.41-4.54-5.05-6.85-1.65-2.31-3.32-4.61-4.81-7.03-1.51-2.4-3.1-4.76-4.56-7.2l-4.25-7.38c-5.43-9.98-10.15-20.33-14.11-30.98-.13-.38-.61-1.83-1.35-4.07-.37-1.12-.8-2.44-1.29-3.92-.24-.74-.5-1.52-.76-2.34-.23-.83-.47-1.7-.71-2.6-.96-3.61-2.21-7.71-3.09-12.17-.48-2.22-1-4.5-1.47-6.81-.39-2.33-.78-4.69-1.17-7.05-.19-1.18-.39-2.35-.58-3.52-.13-1.18-.27-2.35-.4-3.51-.26-2.32-.51-4.6-.75-6.81-.36-4.42-.52-8.54-.72-12.05-.03-3.52,0-6.45.04-8.49.04-2.04.11-3.21.21-3.21s.22,1.16.37,3.2c.15,2.04.29,4.95.49,8.45.37,3.49.69,7.57,1.2,11.94.31,2.18.64,4.44.97,6.73.17,1.15.33,2.3.5,3.47.22,1.15.45,2.31.67,3.48.45,2.32.89,4.65,1.33,6.95.55,2.28,1.09,4.52,1.62,6.71.97,4.39,2.29,8.42,3.31,11.97.26.89.51,1.74.75,2.55.28.8.54,1.57.8,2.3.51,1.46.96,2.75,1.34,3.85.76,2.2,1.25,3.62,1.38,4,3.92,10.51,8.57,20.73,13.93,30.58l4.19,7.29c1.43,2.41,3,4.73,4.5,7.1,1.47,2.39,3.12,4.65,4.75,6.94,1.63,2.28,3.21,4.6,4.99,6.77,6.77,8.94,14.37,17.24,22.46,24.99,3.99,3.95,8.3,7.54,12.55,11.19l6.61,5.2c1.09.89,2.24,1.69,3.38,2.5l3.43,2.44c1.15.8,2.27,1.64,3.44,2.42l3.54,2.27c2.38,1.49,4.68,3.1,7.14,4.44l7.29,4.18,7.48,3.83c10.08,4.91,20.48,9.16,31.17,12.54,10.72,3.3,21.66,5.83,32.73,7.61,11.1,1.61,22.3,2.43,33.52,2.53,11.22-.1,22.41-.93,33.52-2.53,11.07-1.78,22.01-4.31,32.73-7.61,10.69-3.38,21.1-7.64,31.17-12.54l7.48-3.83,7.29-4.18c2.46-1.34,4.76-2.95,7.14-4.44l3.54-2.27c1.17-.78,2.29-1.62,3.44-2.42l3.43-2.44c1.14-.81,2.3-1.61,3.38-2.5l6.61-5.2c4.25-3.65,8.56-7.24,12.55-11.19,8.09-7.76,15.69-16.05,22.46-24.99,1.78-2.17,3.36-4.48,4.99-6.77,1.63-2.28,3.28-4.55,4.75-6.94,1.49-2.37,3.07-4.7,4.5-7.1l4.19-7.29c5.36-9.85,10.01-20.07,13.93-30.58.13-.38.62-1.8,1.38-4,.38-1.1.83-2.39,1.34-3.85.25-.73.52-1.5.8-2.3.24-.82.49-1.67.75-2.55,1.02-3.55,2.34-7.58,3.31-11.97.53-2.18,1.07-4.43,1.62-6.71.44-2.3.89-4.63,1.33-6.95.22-1.16.45-2.32.67-3.48.17-1.16.33-2.32.5-3.47.33-2.29.65-4.54.97-6.73.51-4.37.83-8.45,1.2-11.94.2-3.5.34-6.41.49-8.45.14-2.04.27-3.2.37-3.2s.16,1.16.21,3.21c.04,2.04.07,4.97.04,8.49-.2,3.51-.36,7.64-.72,12.05-.24,2.21-.5,4.49-.75,6.81-.13,1.16-.27,2.33-.4,3.51-.19,1.17-.39,2.35-.58,3.52-.39,2.36-.78,4.72-1.17,7.05-.47,2.32-.99,4.59-1.47,6.81-.88,4.46-2.13,8.56-3.09,12.17-.25.9-.48,1.77-.71,2.6-.27.82-.52,1.6-.76,2.34-.49,1.48-.92,2.8-1.29,3.92-.74,2.24-1.22,3.69-1.35,4.07Z"/><path class="cls-1" d="M165.99,163.99c1.08,1.03,1.97,2.27,2.64,3.54.68,1.28,1.16,2.61,1.58,3.94.79,2.68,1.21,5.39,1.47,8.09.48,5.41.32,10.79-.07,16.12-.82,10.67-2.61,21.19-4.76,31.62-2.17,10.42-4.77,20.74-7.67,30.97-2.92,10.23-6.14,20.37-9.8,30.36-.13.36-1.86,4.6-3.79,8.66-1.92,4.07-4.12,7.89-4.47,7.71-.35-.17,1.19-4.25,2.61-8.47,1.51-4.49,2.87-8.56,2.98-8.88,3.63-9.91,6.84-20,9.73-30.16,2.89-10.17,5.47-20.43,7.62-30.77,2.13-10.34,3.9-20.77,4.7-31.25.39-5.23.53-10.49.08-15.65-.24-2.57-.65-5.12-1.36-7.53-.73-2.39-1.78-4.66-3.46-6.23-.13-.1-.89-.98-2.15-1.7-.63-.35-1.39-.63-2.23-.67-.83-.06-1.74.19-2.62.63-1.76.92-3.22,2.56-4.22,3.8-1.01,1.26-1.61,2.18-1.79,2.1-.18-.08.09-1.18.86-2.7.78-1.5,2.04-3.49,4.12-4.93,1.04-.69,2.32-1.21,3.62-1.27,1.3-.07,2.5.26,3.42.68,1.86.87,2.8,1.87,2.96,1.99Z"/><path class="cls-1" d="M164.02,443.94c1.67-1.57,2.73-3.84,3.46-6.23.71-2.41,1.12-4.96,1.36-7.53.46-5.16.31-10.42-.08-15.65-.8-10.48-2.58-20.91-4.7-31.25-2.15-10.34-4.73-20.6-7.62-30.77-2.9-10.16-6.1-20.25-9.73-30.16-.11-.32-1.47-4.39-2.98-8.88-1.42-4.22-2.96-8.3-2.61-8.47.35-.17,2.56,3.64,4.47,7.71,1.94,4.05,3.66,8.3,3.79,8.66,3.66,10,6.88,20.14,9.8,30.36,2.91,10.23,5.5,20.55,7.67,30.97,2.14,10.42,3.94,20.94,4.76,31.62.4,5.33.55,10.71.07,16.12-.26,2.7-.68,5.42-1.47,8.09-.42,1.33-.9,2.66-1.58,3.94-.68,1.27-1.56,2.51-2.64,3.54-.17.12-1.11,1.12-2.96,1.99-.92.42-2.13.75-3.42.68-1.3-.05-2.58-.58-3.62-1.27-2.08-1.44-3.34-3.43-4.12-4.93-.77-1.52-1.04-2.62-.86-2.7.18-.08.78.84,1.79,2.1,1,1.25,2.47,2.89,4.22,3.8.88.43,1.79.69,2.62.63.83-.04,1.59-.32,2.23-.67,1.27-.72,2.03-1.6,2.15-1.7Z"/><path class="cls-1" d="M166.06,164.02c1.57,1.67,3.84,2.73,6.23,3.46,2.41.71,4.96,1.12,7.53,1.36,5.16.46,10.42.31,15.65-.08,10.48-.8,20.91-2.58,31.25-4.71,10.34-2.15,20.6-4.73,30.77-7.62,10.16-2.9,20.25-6.1,30.16-9.73.32-.11,4.39-1.47,8.88-2.98,4.22-1.42,8.3-2.96,8.47-2.61.17.35-3.64,2.56-7.71,4.47-4.05,1.94-8.3,3.66-8.66,3.79-10,3.66-20.14,6.88-30.36,9.8-10.23,2.91-20.55,5.5-30.97,7.67-10.42,2.15-20.94,3.94-31.62,4.76-5.33.4-10.71.55-16.12.07-2.7-.25-5.41-.68-8.09-1.47-1.33-.42-2.66-.9-3.94-1.58-1.27-.68-2.51-1.56-3.54-2.64-.12-.17-1.12-1.11-1.99-2.96-.42-.92-.75-2.13-.68-3.42.05-1.3.58-2.58,1.27-3.62,1.44-2.08,3.43-3.34,4.93-4.12,1.52-.77,2.62-1.03,2.7-.86.08.18-.84.78-2.1,1.79-1.25,1-2.88,2.47-3.8,4.22-.43.88-.69,1.79-.63,2.62.04.83.32,1.59.67,2.23.72,1.27,1.6,2.03,1.7,2.15Z"/><path class="cls-1" d="M446.01,165.99c-1.03,1.08-2.27,1.97-3.54,2.64-1.28.68-2.61,1.16-3.94,1.58-2.68.79-5.39,1.21-8.09,1.47-5.41.48-10.79.32-16.12-.07-10.67-.82-21.19-2.61-31.62-4.76-10.42-2.17-20.74-4.77-30.97-7.67-10.23-2.92-20.37-6.14-30.36-9.8-.36-.13-4.6-1.86-8.66-3.79-4.07-1.92-7.89-4.12-7.71-4.47.17-.35,4.25,1.19,8.47,2.61,4.49,1.51,8.56,2.87,8.88,2.98,9.91,3.63,20,6.84,30.16,9.73,10.17,2.89,20.43,5.47,30.77,7.62,10.34,2.13,20.77,3.9,31.25,4.71,5.23.39,10.49.53,15.65.08,2.57-.24,5.12-.65,7.53-1.36,2.39-.73,4.66-1.78,6.23-3.46.1-.13.98-.89,1.7-2.15.35-.63.63-1.39.67-2.23.06-.83-.19-1.74-.63-2.62-.92-1.76-2.56-3.22-3.8-4.22-1.26-1.01-2.18-1.61-2.1-1.79.08-.18,1.18.09,2.7.86,1.5.78,3.49,2.04,4.93,4.12.69,1.04,1.21,2.32,1.27,3.62.07,1.3-.26,2.5-.68,3.42-.87,1.86-1.87,2.8-1.99,2.96Z"/><path class="cls-1" d="M443.94,445.98c-1.57-1.67-3.84-2.73-6.23-3.46-2.41-.71-4.96-1.12-7.53-1.36-5.16-.46-10.42-.31-15.65.08-10.48.8-20.91,2.58-31.25,4.7-10.34,2.15-20.6,4.73-30.77,7.62-10.16,2.9-20.25,6.1-30.16,9.73-.32.11-4.39,1.47-8.88,2.98-4.22,1.42-8.3,2.96-8.47,2.61-.17-.35,3.64-2.56,7.71-4.47,4.05-1.94,8.3-3.66,8.66-3.79,10-3.66,20.14-6.88,30.36-9.8,10.23-2.91,20.55-5.5,30.97-7.67,10.42-2.15,20.94-3.94,31.62-4.76,5.33-.4,10.71-.55,16.12-.07,2.7.25,5.42.68,8.09,1.47,1.33.42,2.66.9,3.94,1.58,1.27.68,2.51,1.56,3.54,2.64.12.17,1.12,1.11,1.99,2.96.42.92.75,2.13.68,3.42-.05,1.3-.58,2.58-1.27,3.62-1.44,2.08-3.43,3.34-4.93,4.12-1.52.77-2.62,1.04-2.7.86-.08-.18.84-.78,2.1-1.79,1.25-1,2.88-2.47,3.8-4.22.43-.88.69-1.79.63-2.62-.04-.83-.32-1.59-.67-2.23-.72-1.27-1.6-2.03-1.7-2.15Z"/><path class="cls-1" d="M163.99,444.01c1.03-1.08,2.27-1.97,3.54-2.64,1.28-.68,2.61-1.16,3.94-1.58,2.68-.79,5.39-1.21,8.09-1.47,5.41-.48,10.79-.32,16.12.07,10.67.82,21.19,2.61,31.62,4.76,10.42,2.17,20.74,4.77,30.97,7.67,10.23,2.92,20.37,6.14,30.36,9.8.36.13,4.6,1.86,8.66,3.79,4.07,1.92,7.89,4.12,7.71,4.47-.17.35-4.25-1.19-8.47-2.61-4.49-1.51-8.56-2.87-8.88-2.98-9.91-3.63-20-6.84-30.16-9.73-10.17-2.89-20.43-5.47-30.77-7.62-10.34-2.13-20.77-3.9-31.25-4.7-5.23-.39-10.49-.53-15.65-.08-2.57.24-5.12.65-7.53,1.36-2.39.73-4.66,1.78-6.23,3.46-.1.13-.98.89-1.7,2.15-.35.63-.63,1.39-.67,2.23-.06.83.19,1.74.63,2.62.92,1.76,2.56,3.22,3.8,4.22,1.26,1.01,2.18,1.61,2.1,1.79-.08.18-1.18-.09-2.7-.86-1.5-.78-3.49-2.04-4.93-4.12-.69-1.04-1.21-2.32-1.27-3.62-.07-1.3.26-2.5.68-3.42.87-1.86,1.87-2.8,1.99-2.96Z"/><path class="cls-1" d="M444.01,446.01c-1.08-1.03-1.97-2.27-2.64-3.54-.68-1.28-1.16-2.61-1.58-3.94-.79-2.68-1.21-5.39-1.47-8.09-.48-5.41-.32-10.79.07-16.12.82-10.67,2.61-21.19,4.76-31.62,2.17-10.42,4.77-20.74,7.67-30.97,2.92-10.23,6.14-20.37,9.8-30.36.13-.36,1.86-4.6,3.79-8.66,1.92-4.07,4.12-7.89,4.47-7.71.35.17-1.19,4.25-2.61,8.47-1.51,4.49-2.87,8.56-2.98,8.88-3.63,9.91-6.84,20-9.73,30.16-2.89,10.17-5.47,20.43-7.62,30.77-2.13,10.34-3.9,20.77-4.7,31.25-.39,5.23-.53,10.49-.08,15.65.24,2.57.65,5.12,1.36,7.53.73,2.39,1.78,4.66,3.46,6.23.13.1.89.98,2.15,1.7.63.35,1.39.63,2.23.67.83.06,1.74-.19,2.62-.63,1.76-.92,3.22-2.56,4.22-3.8,1.01-1.26,1.61-2.18,1.79-2.1.18.08-.09,1.18-.86,2.7-.78,1.5-2.04,3.49-4.12,4.93-1.04.69-2.32,1.21-3.62,1.27-1.3.07-2.5-.26-3.42-.68-1.86-.87-2.8-1.87-2.96-1.99Z"/><path class="cls-1" d="M445.98,166.06c-1.67,1.57-2.73,3.84-3.46,6.23-.71,2.41-1.12,4.96-1.36,7.53-.46,5.16-.31,10.42.08,15.65.8,10.48,2.58,20.91,4.7,31.25,2.15,10.34,4.73,20.6,7.62,30.77,2.9,10.16,6.1,20.25,9.73,30.16.11.32,1.47,4.39,2.98,8.88,1.42,4.22,2.96,8.3,2.61,8.47-.35.17-2.56-3.64-4.47-7.71-1.94-4.05-3.66-8.3-3.79-8.66-3.66-10-6.88-20.14-9.8-30.36-2.91-10.23-5.5-20.55-7.67-30.97-2.14-10.42-3.94-20.94-4.76-31.62-.4-5.33-.55-10.71-.07-16.12.25-2.7.68-5.42,1.47-8.09.42-1.33.9-2.66,1.58-3.94.68-1.27,1.56-2.51,2.64-3.54.17-.12,1.11-1.12,2.96-1.99.92-.42,2.13-.75,3.42-.68,1.3.05,2.58.58,3.62,1.27,2.08,1.44,3.34,3.43,4.12,4.93.77,1.52,1.03,2.62.86,2.7-.18.08-.78-.84-1.79-2.1-1-1.25-2.47-2.89-4.22-3.8-.88-.43-1.79-.69-2.62-.63-.83.04-1.59.32-2.23.67-1.27.72-2.03,1.6-2.15,1.7Z"/><path class="cls-1" d="M350.62,429.99c25.45-9.26,47.85-26.57,63.36-48.76.49-.69.99-1.37,1.46-2.07l1.37-2.14c.9-1.43,1.87-2.82,2.68-4.31l2.53-4.4,2.31-4.52c2.96-6.08,5.53-12.36,7.57-18.81,1.99-6.47,3.52-13.07,4.59-19.75.97-6.7,1.47-13.46,1.53-20.23-.06-6.77-.56-13.53-1.53-20.23-1.07-6.68-2.6-13.29-4.59-19.75-2.04-6.45-4.61-12.73-7.57-18.81l-2.31-4.52-2.53-4.4c-.81-1.49-1.78-2.87-2.68-4.31l-1.37-2.14c-.47-.7-.98-1.38-1.46-2.07-15.51-22.18-37.91-39.5-63.36-48.76-.23-.08-1.08-.38-2.41-.85-.66-.23-1.44-.51-2.32-.82-.44-.15-.9-.32-1.39-.49-.49-.15-1.01-.3-1.54-.46-2.14-.63-4.57-1.45-7.21-2.05-1.31-.33-2.67-.67-4.04-1.01-1.38-.28-2.79-.56-4.19-.84l-2.1-.43c-.7-.11-1.4-.22-2.09-.32-1.38-.21-2.74-.42-4.06-.63-2.64-.34-5.11-.56-7.22-.82-4.23-.29-7.05-.54-7.05-.74,0-.19,2.82-.32,7.1-.37,2.13.09,4.64.16,7.33.34,1.35.14,2.73.27,4.14.42.71.07,1.42.15,2.14.22l2.14.33c1.44.23,2.88.45,4.29.67,1.41.29,2.8.58,4.15.86,2.72.51,5.22,1.26,7.42,1.83.55.15,1.08.29,1.59.42.5.16.98.31,1.43.45.9.29,1.71.55,2.39.77,1.37.45,2.25.73,2.48.81,26,9.46,48.88,27.14,64.72,49.8.5.71,1.01,1.4,1.49,2.12l1.4,2.18c.92,1.46,1.91,2.88,2.74,4.4l2.58,4.5,2.36,4.61c3.03,6.21,5.65,12.63,7.73,19.22,2.04,6.61,3.6,13.35,4.69,20.18.99,6.84,1.5,13.75,1.56,20.66-.06,6.91-.57,13.81-1.56,20.66-1.1,6.83-2.66,13.57-4.69,20.18-2.09,6.59-4.71,13.01-7.73,19.22l-2.36,4.61-2.58,4.5c-.83,1.52-1.82,2.94-2.74,4.4l-1.4,2.18c-.48.72-1,1.41-1.49,2.12-15.84,22.66-38.72,40.34-64.72,49.8-.23.08-1.11.36-2.48.81-.68.22-1.49.48-2.39.77-.45.14-.93.3-1.43.45-.51.14-1.04.28-1.59.42-2.2.57-4.7,1.32-7.42,1.83-1.35.28-2.74.57-4.15.86-1.42.22-2.85.45-4.29.67l-2.14.33c-.72.07-1.43.15-2.14.22-1.41.14-2.79.28-4.14.42-2.69.19-5.19.25-7.33.34-4.28-.05-7.1-.17-7.1-.37,0-.2,2.82-.45,7.05-.74,2.11-.26,4.58-.48,7.22-.82,1.32-.2,2.68-.41,4.06-.63.69-.11,1.39-.21,2.09-.32l2.1-.43c1.4-.28,2.81-.56,4.19-.84,1.38-.34,2.73-.68,4.04-1.01,2.65-.6,5.07-1.42,7.21-2.05.53-.16,1.05-.32,1.54-.46.48-.17.95-.33,1.39-.49.88-.31,1.66-.59,2.32-.82,1.33-.47,2.18-.77,2.41-.85Z"/><path class="cls-1" d="M258.4,432.67c-26-9.46-48.88-27.14-64.72-49.8-.5-.71-1.01-1.4-1.49-2.12l-1.4-2.18c-.92-1.46-1.91-2.88-2.74-4.4l-2.58-4.5-2.36-4.61c-3.03-6.21-5.65-12.63-7.73-19.22-2.04-6.61-3.6-13.35-4.69-20.18-.99-6.84-1.5-13.75-1.56-20.66.06-6.91.57-13.81,1.56-20.66,1.1-6.83,2.66-13.57,4.69-20.18,2.09-6.59,4.71-13.01,7.73-19.22l2.36-4.61,2.58-4.5c.83-1.52,1.82-2.94,2.74-4.4l1.4-2.18c.48-.72,1-1.41,1.49-2.12,15.84-22.66,38.72-40.34,64.72-49.8.23-.08,1.11-.36,2.48-.81.68-.22,1.49-.48,2.39-.77.45-.14.93-.3,1.43-.45.51-.14,1.04-.28,1.59-.42,2.2-.57,4.7-1.32,7.42-1.83,1.35-.28,2.74-.57,4.15-.86,1.42-.22,2.85-.45,4.29-.67l2.14-.33c.72-.07,1.43-.15,2.14-.22,1.41-.14,2.79-.28,4.14-.42,2.69-.19,5.19-.25,7.33-.34,4.28.05,7.1.17,7.1.37,0,.2-2.82.45-7.05.74-2.11.26-4.58.48-7.22.82-1.32.2-2.68.41-4.06.63-.69.11-1.39.21-2.09.32l-2.1.43c-1.4.28-2.81.56-4.19.84-1.38.34-2.73.68-4.04,1.01-2.65.6-5.07,1.42-7.21,2.05-.53.16-1.05.32-1.54.46-.48.17-.95.33-1.39.49-.88.31-1.66.59-2.32.82-1.33.47-2.18.77-2.41.85-25.45,9.26-47.85,26.57-63.36,48.76-.49.69-.99,1.37-1.46,2.07l-1.37,2.14c-.9,1.43-1.87,2.82-2.68,4.31l-2.53,4.4-2.31,4.52c-2.96,6.08-5.53,12.36-7.57,18.81-1.99,6.47-3.52,13.07-4.59,19.75-.97,6.7-1.47,13.46-1.53,20.23.06,6.77.56,13.53,1.53,20.23,1.07,6.68,2.6,13.29,4.59,19.75,2.04,6.45,4.61,12.73,7.57,18.81l2.31,4.52,2.53,4.4c.81,1.49,1.78,2.87,2.68,4.31l1.37,2.14c.47.7.97,1.38,1.46,2.07,15.51,22.19,37.91,39.5,63.36,48.76.23.08,1.08.38,2.41.85.66.23,1.44.51,2.32.82.44.15.9.32,1.39.49.49.15,1.01.3,1.54.46,2.14.63,4.57,1.45,7.21,2.05,1.31.33,2.67.67,4.04,1.01,1.38.28,2.79.56,4.19.84l2.1.43c.7.11,1.4.22,2.09.32,1.38.21,2.74.42,4.06.63,2.64.34,5.11.56,7.22.82,4.23.29,7.05.54,7.05.74,0,.19-2.82.32-7.1.37-2.13-.09-4.64-.16-7.33-.34-1.35-.14-2.73-.27-4.14-.42-.71-.07-1.42-.15-2.14-.22l-2.14-.33c-1.44-.23-2.88-.45-4.29-.67-1.41-.29-2.8-.58-4.15-.86-2.72-.51-5.22-1.26-7.42-1.83-.55-.15-1.08-.29-1.59-.42-.5-.16-.98-.31-1.43-.45-.9-.29-1.71-.55-2.39-.77-1.37-.45-2.25-.73-2.48-.81Z"/></g></svg>