<?xml version="1.0" encoding="UTF-8"?><svg id="Line" xmlns="http://www.w3.org/2000/svg" viewBox="0 0 586.86 586.86"><defs><style>.cls-1{fill:#fff;stroke-width:0px;}</style></defs><g id="DecorativeElement_6_Lines"><path class="cls-1" d="M293.71,192.62c32.76,0,65.08,4.51,93.46,13.04,27.39,8.24,50.78,20.07,67.64,34.23l.24.2.17.09c13.14,8.55,22.78,20.46,31.3,30.97,7.62,9.41,14.52,17.94,22.52,22.27-7.99,4.33-14.89,12.85-22.52,22.27-8.5,10.5-18.14,22.4-31.26,30.95l-.17.08-.27.23c-16.85,14.16-40.24,26-67.64,34.23-28.38,8.53-60.7,13.04-93.46,13.04s-65.08-4.51-93.46-13.04c-27.39-8.24-50.78-20.07-67.64-34.23l-.27-.23-.17-.08c-13.12-8.55-22.76-20.45-31.26-30.95-7.62-9.41-14.52-17.93-22.51-22.26,7.99-4.33,14.89-12.85,22.51-22.26,8.53-10.53,18.19-22.47,31.37-31.02l.17-.11.16-.13c16.85-14.16,40.24-26,67.64-34.23,28.38-8.53,60.7-13.04,93.46-13.04M293.71,189.62c-68.5,0-128.69,19.13-163.03,47.98,0,0,0,0,0,0-30.3,19.65-41.92,55.82-63.63,55.82,21.71,0,33.33,36.18,63.63,55.82h0c34.34,28.85,94.53,47.98,163.03,47.98s128.69-19.13,163.03-47.98c0,0,0,0,0,0,30.3-19.65,41.92-55.82,63.63-55.82-21.71,0-33.33-36.18-63.63-55.82h0c-34.34-28.85-94.53-47.98-163.03-47.98h0Z"/><path class="cls-1" d="M94.88,37.97c7.8,3.54,16.4,5.3,24.99,6.2,8.63.87,17.36.86,25.9-.4,8.55-1.26,16.95-3.68,24.76-7.32,3.89-1.84,7.65-3.98,10.99-6.59,1.66-1.3,3.22-2.74,4.46-4.33.63-.79,1.16-1.63,1.48-2.46.1-.21.17-.41.21-.61l.04-.15s.05-.17.06-.22l.02-.21.1-.81.1-.81c-.02-.1.08-.06.15-.07h.21s.41-.02.41-.02l1.67-.06c8.65-.1,17.26-1.46,25.74-3.43,8.49-1.96,16.86-4.51,25.29-7,8.42-2.49,16.9-4.93,25.57-6.72,8.66-1.8,17.51-2.93,26.41-2.95,8.9.02,17.75,1.15,26.41,2.95,8.67,1.79,17.15,4.23,25.57,6.72,8.42,2.49,16.8,5.04,25.29,7,8.48,1.96,17.09,3.33,25.74,3.43l1.67.06h.41s.21.02.21.02c.06.01.16-.02.15.07l.1.81.1.81.02.21c0,.05.06.22.06.22l.04.15c.04.2.11.41.21.61.33.83.85,1.67,1.48,2.46,1.24,1.59,2.8,3.02,4.46,4.33,3.34,2.61,7.11,4.75,10.99,6.59,7.81,3.65,16.21,6.06,24.76,7.32,8.54,1.26,17.28,1.27,25.9.4,8.59-.9,17.18-2.66,24.99-6.2.23-.13,1.09-.45,2.34-1.11.64-.31,1.36-.71,2.17-1.17.39-.24.81-.5,1.25-.77.21-.14.42-.29.64-.43l.34-.25c.23-.17.44-.35.67-.52,4.28.06,9.77.13,15.61.21,5.62.1,11.58.21,17.08.31,5.45.12,10.39.25,13.95.39,3.57.14,5.77.29,5.77.44s-2.21.3-5.77.44c-3.57.14-8.5.27-13.95.39-5.5.1-11.46.21-17.08.31-5.49.08-10.65.15-14.68.21,0,0-.01.02-.01.02l-.34.26c-.24.17-.48.34-.71.5-.47.3-.92.59-1.34.87-.86.51-1.62.96-2.29,1.3-1.31.72-2.21,1.08-2.46,1.22-8.22,3.72-17.06,5.52-25.88,6.44-2.21.26-4.43.33-6.64.5-2.22.04-4.43.13-6.65.12-4.45-.04-8.9-.39-13.31-1.03-8.81-1.3-17.46-3.78-25.56-7.56-4.04-1.91-7.96-4.13-11.54-6.93-1.78-1.4-3.49-2.95-4.96-4.82-.73-.93-1.41-1.95-1.89-3.17-.13-.29-.24-.6-.31-.94l-.06-.25c-.02-.06.01.04,0,.02h.03c-8.92-.1-17.74-1.51-26.35-3.5-8.62-1.99-17.04-4.56-25.45-7.04-8.41-2.49-16.81-4.9-25.34-6.67-8.52-1.77-17.17-2.87-25.83-2.89-8.66.02-17.31,1.12-25.83,2.89-8.53,1.77-16.93,4.18-25.34,6.67-8.41,2.48-16.84,5.05-25.45,7.04-8.6,1.99-17.43,3.4-26.35,3.5h.03s.03-.09,0-.02l-.06.25c-.07.34-.18.65-.31.94-.48,1.21-1.15,2.24-1.89,3.17-1.47,1.87-3.17,3.42-4.96,4.82-3.58,2.79-7.5,5.01-11.54,6.93-8.1,3.78-16.75,6.26-25.56,7.56-4.41.64-8.86.99-13.31,1.03-2.22,0-4.44-.08-6.65-.12-2.21-.17-4.43-.24-6.64-.5-8.82-.93-17.67-2.72-25.88-6.44-.25-.13-1.14-.49-2.46-1.22-.67-.34-1.43-.79-2.29-1.3-.42-.27-.87-.56-1.34-.87-.23-.16-.47-.33-.71-.5l-.34-.26s0-.01-.01-.02c-4.02-.06-9.18-.13-14.68-.21-5.62-.1-11.58-.21-17.08-.31-5.45-.12-10.39-.25-13.95-.39-3.57-.14-5.77-.29-5.77-.44s2.21-.3,5.77-.44c3.57-.14,8.5-.27,13.95-.39,5.5-.1,11.46-.21,17.08-.31,5.84-.08,11.33-.15,15.61-.21.22.17.44.35.67.52l.34.25c.22.15.43.29.64.43.44.27.85.52,1.25.77.81.46,1.53.86,2.17,1.17,1.25.66,2.11.98,2.34,1.11Z"/><path class="cls-1" d="M546.29,493.16c-3.72-8.22-5.52-17.06-6.44-25.88-.26-2.21-.33-4.43-.5-6.64-.04-2.22-.13-4.43-.12-6.65.04-4.45.39-8.9,1.03-13.31,1.3-8.81,3.78-17.46,7.56-25.56,1.91-4.04,4.13-7.96,6.93-11.54,1.4-1.78,2.95-3.49,4.82-4.96.93-.73,1.95-1.41,3.17-1.89.29-.13.6-.24.94-.31l.25-.06c.06-.02-.04.01-.02,0v.03c.1-8.92,1.51-17.74,3.5-26.35,1.99-8.62,4.56-17.04,7.04-25.45,2.49-8.41,4.9-16.81,6.67-25.34,1.77-8.52,2.87-17.17,2.89-25.83-.02-8.66-1.12-17.31-2.89-25.83-1.77-8.53-4.18-16.93-6.67-25.34-2.48-8.41-5.05-16.84-7.04-25.45-1.99-8.6-3.4-17.43-3.5-26.35v.03s.09.03.02,0l-.25-.06c-.34-.07-.65-.18-.94-.31-1.21-.48-2.24-1.15-3.17-1.89-1.87-1.47-3.42-3.17-4.82-4.96-2.79-3.58-5.01-7.5-6.93-11.54-3.78-8.1-6.26-16.75-7.56-25.56-.64-4.41-.99-8.86-1.03-13.31,0-2.22.08-4.44.12-6.65.17-2.21.24-4.43.5-6.64.93-8.82,2.72-17.67,6.44-25.88.13-.25.49-1.14,1.22-2.46.34-.67.79-1.43,1.3-2.29.27-.42.56-.87.87-1.34.16-.23.33-.47.5-.71l.26-.34s.01,0,.02-.01c.06-4.02.13-9.18.21-14.68.1-5.62.21-11.58.31-17.08.12-5.45.25-10.39.39-13.95.14-3.57.29-5.78.44-5.78s.3,2.21.44,5.78c.14,3.57.27,8.5.38,13.95.1,5.5.21,11.46.31,17.08.08,5.84.15,11.33.21,15.61-.17.22-.35.44-.52.67l-.25.34c-.15.22-.29.43-.43.64-.27.44-.52.85-.77,1.25-.46.81-.86,1.53-1.17,2.17-.66,1.25-.98,2.11-1.11,2.34-3.54,7.8-5.3,16.4-6.2,24.99-.87,8.63-.86,17.36.4,25.9,1.26,8.55,3.68,16.95,7.32,24.76,1.84,3.89,3.98,7.65,6.59,10.99,1.3,1.66,2.74,3.22,4.33,4.47.79.63,1.63,1.16,2.46,1.48.21.1.41.17.61.2l.15.04s.17.05.22.06l.21.02.81.1.81.1c.1-.02.06.08.07.15v.21s.02.41.02.41l.06,1.67c.1,8.65,1.46,17.26,3.43,25.74,1.96,8.49,4.51,16.86,7,25.29,2.49,8.42,4.93,16.9,6.72,25.57,1.8,8.66,2.93,17.51,2.95,26.41-.02,8.9-1.15,17.75-2.95,26.41-1.79,8.67-4.23,17.15-6.72,25.57-2.49,8.42-5.04,16.8-7,25.29-1.97,8.48-3.33,17.09-3.43,25.74l-.06,1.67v.41s-.02.21-.02.21c0,.06.02.16-.07.15l-.81.1-.81.1-.21.02c-.05,0-.22.06-.22.06l-.15.04c-.2.04-.41.11-.61.2-.83.33-1.67.85-2.46,1.48-1.59,1.24-3.02,2.8-4.33,4.47-2.61,3.34-4.75,7.11-6.59,10.99-3.65,7.81-6.06,16.21-7.32,24.76-1.26,8.54-1.27,17.28-.4,25.9.9,8.59,2.66,17.18,6.2,24.99.13.23.45,1.09,1.11,2.34.31.64.71,1.36,1.17,2.17.24.39.5.81.77,1.25.14.21.29.42.43.64l.25.34c.17.23.35.44.52.67-.06,4.28-.13,9.77-.21,15.61-.1,5.62-.21,11.58-.31,17.08-.12,5.45-.25,10.39-.38,13.95-.14,3.57-.29,5.78-.44,5.78s-.3-2.21-.44-5.78c-.14-3.57-.27-8.5-.39-13.95-.1-5.5-.21-11.46-.31-17.08-.08-5.49-.15-10.65-.21-14.68,0,0-.02-.01-.02-.01l-.26-.34c-.17-.24-.34-.48-.5-.71-.3-.47-.59-.92-.87-1.34-.51-.86-.96-1.62-1.3-2.29-.72-1.31-1.08-2.21-1.22-2.46Z"/><path class="cls-1" d="M40.57,93.7c3.72,8.22,5.52,17.06,6.44,25.88.26,2.21.33,4.43.5,6.64.04,2.22.13,4.43.12,6.65-.04,4.45-.39,8.9-1.03,13.31-1.3,8.81-3.78,17.46-7.56,25.56-1.91,4.04-4.13,7.96-6.93,11.54-1.4,1.78-2.95,3.49-4.82,4.96-.93.73-1.95,1.41-3.17,1.89-.29.13-.6.24-.94.31l-.25.06c-.06.02.04-.01.02,0v-.03c-.1,8.92-1.51,17.74-3.5,26.35-1.99,8.62-4.56,17.04-7.04,25.45-2.49,8.41-4.9,16.81-6.67,25.34-1.77,8.52-2.87,17.17-2.89,25.83.02,8.66,1.12,17.31,2.89,25.83,1.77,8.53,4.18,16.93,6.67,25.34,2.48,8.41,5.05,16.84,7.04,25.45,1.99,8.6,3.4,17.43,3.5,26.35v-.03s-.09-.03-.02,0l.25.06c.34.07.65.18.94.31,1.21.48,2.24,1.15,3.17,1.89,1.87,1.47,3.42,3.17,4.82,4.96,2.79,3.58,5.01,7.5,6.93,11.54,3.78,8.1,6.26,16.75,7.56,25.56.64,4.41.99,8.86,1.03,13.31,0,2.22-.08,4.44-.12,6.65-.17,2.21-.24,4.43-.5,6.64-.93,8.82-2.72,17.67-6.44,25.88-.13.25-.49,1.14-1.22,2.46-.34.67-.79,1.43-1.3,2.29-.27.42-.56.87-.87,1.34-.16.23-.33.47-.5.71l-.26.34s-.01,0-.02.01c-.06,4.02-.13,9.18-.21,14.68-.1,5.62-.21,11.58-.31,17.08-.12,5.45-.25,10.39-.39,13.95-.14,3.57-.29,5.78-.44,5.78s-.3-2.21-.44-5.78c-.14-3.57-.27-8.5-.38-13.95-.1-5.5-.21-11.46-.31-17.08-.08-5.84-.15-11.33-.21-15.61.17-.22.35-.44.52-.67l.25-.34c.15-.22.29-.43.43-.64.27-.44.52-.85.77-1.25.46-.81.86-1.53,1.17-2.17.66-1.25.98-2.11,1.11-2.34,3.54-7.8,5.3-16.4,6.2-24.99.87-8.63.86-17.36-.4-25.9-1.26-8.55-3.68-16.95-7.32-24.76-1.84-3.89-3.98-7.65-6.59-10.99-1.3-1.66-2.74-3.22-4.33-4.47-.79-.63-1.63-1.16-2.46-1.48-.21-.1-.41-.17-.61-.2l-.15-.04s-.17-.05-.22-.06l-.21-.02-.81-.1-.81-.1c-.1.02-.06-.08-.07-.15v-.21s-.02-.41-.02-.41l-.06-1.67c-.1-8.65-1.46-17.26-3.43-25.74-1.96-8.49-4.51-16.86-7-25.29-2.49-8.42-4.93-16.9-6.72-25.57-1.8-8.66-2.93-17.51-2.95-26.41.02-8.9,1.15-17.75,2.95-26.41,1.79-8.67,4.23-17.15,6.72-25.57,2.49-8.42,5.04-16.8,7-25.29,1.97-8.48,3.33-17.09,3.43-25.74l.06-1.67v-.41s.02-.21.02-.21c0-.06-.02-.16.07-.15l.81-.1.81-.1.21-.02c.05,0,.22-.06.22-.06l.15-.04c.2-.04.41-.11.61-.2.83-.33,1.67-.85,2.46-1.48,1.59-1.24,3.02-2.8,4.33-4.47,2.61-3.34,4.75-7.11,6.59-10.99,3.65-7.81,6.06-16.21,7.32-24.76,1.26-8.54,1.27-17.28.4-25.9-.9-8.59-2.66-17.18-6.2-24.99-.13-.23-.45-1.09-1.11-2.34-.31-.64-.71-1.36-1.17-2.17-.24-.39-.5-.81-.77-1.25-.14-.21-.29-.42-.43-.64l-.25-.34c-.17-.23-.35-.44-.52-.67.06-4.28.13-9.77.21-15.61.1-5.62.21-11.58.31-17.08.12-5.45.25-10.39.38-13.95.14-3.57.29-5.78.44-5.78s.3,2.21.44,5.78c.14,3.57.27,8.5.39,13.95.1,5.5.21,11.46.31,17.08.08,5.49.15,10.65.21,14.68,0,0,.02.01.02.01l.26.34c.17.24.34.48.5.71.3.47.59.92.87,1.34.51.86.96,1.62,1.3,2.29.72,1.31,1.08,2.21,1.22,2.46Z"/><path class="cls-1" d="M491.98,548.89c-7.8-3.54-16.4-5.3-24.99-6.2-8.63-.87-17.36-.86-25.9.4-8.55,1.26-16.95,3.68-24.76,7.32-3.89,1.84-7.65,3.98-10.99,6.59-1.66,1.3-3.22,2.74-4.46,4.33-.63.79-1.16,1.63-1.48,2.46-.1.21-.17.41-.21.61l-.04.15s-.05.17-.06.22l-.02.21-.1.81-.1.81c.02.1-.08.06-.15.07h-.21s-.41.02-.41.02l-1.67.06c-8.65.1-17.26,1.46-25.74,3.43-8.49,1.96-16.86,4.51-25.29,7-8.42,2.49-16.9,4.93-25.57,6.72-8.66,1.8-17.51,2.93-26.41,2.95-8.9-.02-17.75-1.15-26.41-2.95-8.67-1.79-17.15-4.23-25.57-6.72-8.42-2.49-16.8-5.04-25.29-7-8.48-1.96-17.09-3.33-25.74-3.43l-1.67-.06h-.41s-.21-.02-.21-.02c-.06-.01-.16.02-.15-.07l-.1-.81-.1-.81-.02-.21c0-.05-.06-.22-.06-.22l-.04-.15c-.04-.2-.11-.41-.21-.61-.33-.83-.85-1.67-1.48-2.46-1.24-1.59-2.8-3.02-4.46-4.33-3.34-2.61-7.11-4.75-10.99-6.59-7.81-3.65-16.21-6.06-24.76-7.32-8.54-1.26-17.28-1.27-25.9-.4-8.59.9-17.18,2.66-24.99,6.2-.23.13-1.09.45-2.34,1.11-.64.31-1.36.71-2.17,1.17-.39.24-.81.5-1.25.77-.21.14-.42.29-.64.43l-.34.25c-.23.17-.44.35-.67.52-4.28-.06-9.77-.13-15.61-.21-5.62-.1-11.58-.21-17.08-.31-5.45-.12-10.39-.25-13.95-.39-3.57-.14-5.77-.29-5.77-.44s2.21-.3,5.77-.44c3.57-.14,8.5-.27,13.95-.39,5.5-.1,11.46-.21,17.08-.31,5.49-.08,10.65-.15,14.68-.21,0,0,.01-.02.01-.02l.34-.26c.24-.17.48-.34.71-.5.47-.3.92-.59,1.34-.87.86-.51,1.62-.96,2.29-1.3,1.31-.72,2.21-1.08,2.46-1.22,8.22-3.72,17.06-5.52,25.88-6.44,2.21-.26,4.43-.33,6.64-.5,2.22-.04,4.43-.13,6.65-.12,4.45.04,8.9.39,13.31,1.03,8.81,1.3,17.46,3.78,25.56,7.56,4.04,1.91,7.96,4.13,11.54,6.93,1.78,1.4,3.49,2.95,4.96,4.82.73.93,1.41,1.95,1.89,3.17.13.29.24.6.31.94l.06.25c.02.06-.01-.04,0-.02h-.03c8.92.1,17.74,1.51,26.35,3.5,8.62,1.99,17.04,4.56,25.45,7.04,8.41,2.49,16.81,4.9,25.34,6.67,8.52,1.77,17.17,2.87,25.83,2.89,8.66-.02,17.31-1.12,25.83-2.89,8.53-1.77,16.93-4.18,25.34-6.67,8.41-2.48,16.84-5.05,25.45-7.04,8.6-1.99,17.43-3.4,26.35-3.5h-.03s-.03.09,0,.02l.06-.25c.07-.34.18-.65.31-.94.48-1.21,1.15-2.24,1.89-3.17,1.47-1.87,3.17-3.42,4.96-4.82,3.58-2.79,7.5-5.01,11.54-6.93,8.1-3.78,16.75-6.26,25.56-7.56,4.41-.64,8.86-.99,13.31-1.03,2.22,0,4.44.08,6.65.12,2.21.17,4.43.24,6.64.5,8.82.93,17.67,2.72,25.88,6.44.25.13,1.14.49,2.46,1.22.67.34,1.43.79,2.29,1.3.42.27.87.56,1.34.87.23.16.47.33.71.5l.34.26s0,.01.01.02c4.02.06,9.18.13,14.68.21,5.62.1,11.58.21,17.08.31,5.45.12,10.39.25,13.95.39,3.57.14,5.77.29,5.77.44s-2.21.3-5.77.44c-3.57.14-8.5.27-13.95.39-5.5.1-11.46.21-17.08.31-5.84.08-11.33.15-15.61.21-.22-.17-.44-.35-.67-.52l-.34-.25c-.22-.15-.43-.29-.64-.43-.44-.27-.85-.52-1.25-.77-.81-.46-1.53-.86-2.17-1.17-1.25-.66-2.11-.98-2.34-1.11Z"/><path class="cls-1" d="M322.33,83.04c2.19,5.29,5.64,10.08,9.49,14.44,3.9,4.35,8.22,8.33,13.03,11.6,4.81,3.27,10.05,5.95,15.54,7.82,2.75.92,5.56,1.65,8.38,2.02,1.41.18,2.82.27,4.18.19.67-.04,1.33-.13,1.92-.29.31-.07.56-.18.82-.28.03-.02.41-.2.71-.47l.91-.7,4.24,3.67,3.55,2.69,3.7,2.5,3.82,2.34c5.17,3.03,10.57,5.71,15.98,8.43,5.41,2.72,10.85,5.47,16.1,8.61,5.25,3.13,10.32,6.67,14.9,10.82,4.58,4.13,8.62,8.84,12.19,13.82,3.58,4.98,6.72,10.22,9.78,15.45,3.07,5.23,6.07,10.45,9.43,15.4.84,1.24,1.73,2.43,2.59,3.65.9,1.19,1.84,2.34,2.75,3.51l2.94,3.34,4.1,4.08c-.52.56-1.02,1.16-1.39,1.66-.11.23-.22.47-.29.76-.16.56-.26,1.19-.29,1.85-.07,1.31.05,2.69.28,4.06.48,2.75,1.34,5.48,2.44,8.1,2.19,5.27,5.28,10.18,8.94,14.59,1.83,2.21,3.82,4.28,5.95,6.22,2.15,1.93,4.34,3.82,6.67,5.51,2.3,1.74,4.72,3.29,7.22,4.69,2.5,1.4,5.1,2.61,7.78,3.53.17.05.75.28,1.66.55.45.15.99.29,1.59.45.3.07.62.14.96.21.17.03.33.06.51.09l.4.06c.19.02.38.04.57.06,2.12,2.04,4.84,4.66,7.75,7.47,2.72,2.66,5.63,5.5,8.33,8.14,5.3,5.22,9.51,9.52,9.31,9.75s-4.82-3.66-10.43-8.54c-2.84-2.5-5.89-5.17-8.75-7.69-2.78-2.46-5.37-4.77-7.39-6.56h-.02s-.02,0-.02,0l-.16-.02c-.2-.03-.4-.06-.6-.09-.38-.07-.74-.14-1.08-.2-.67-.16-1.27-.29-1.76-.44-1-.26-1.62-.49-1.8-.55-2.88-.99-5.62-2.27-8.24-3.73-2.62-1.47-5.15-3.09-7.54-4.89-2.42-1.76-4.68-3.71-6.9-5.7-2.22-2.01-4.3-4.19-6.22-6.49-3.83-4.62-7.06-9.75-9.39-15.33-1.16-2.79-2.08-5.69-2.62-8.73-.25-1.52-.4-3.08-.31-4.7.03-.81.16-1.64.4-2.49.12-.42.3-.86.51-1.29.07-.13.07-.12.07-.12h.01s-.7-.69-.7-.69l-1.64-1.64-3.06-3.47c-.95-1.21-1.92-2.41-2.85-3.63-.89-1.25-1.8-2.49-2.66-3.75-3.44-5.07-6.47-10.35-9.53-15.56-3.06-5.21-6.15-10.37-9.64-15.23-3.48-4.86-7.37-9.39-11.78-13.37-8.82-8.01-19.58-13.6-30.37-18.99-5.4-2.72-10.86-5.43-16.14-8.52l-3.92-2.4-3.82-2.58-3.69-2.79-1.76-1.51-.88-.76s.02.01,0,0c0,0,.05-.02-.25.14-.43.18-.86.35-1.28.45-.85.23-1.67.33-2.48.38-1.62.1-3.18-.01-4.72-.21-3.08-.4-6.04-1.18-8.93-2.14-5.77-1.96-11.22-4.75-16.24-8.16-5.03-3.42-9.52-7.56-13.55-12.06-4-4.54-7.63-9.52-10-15.25-.06-.19-.33-.79-.65-1.78-.17-.49-.34-1.08-.52-1.75-.09-.33-.16-.7-.25-1.08-.04-.2-.07-.4-.11-.6-.03-.14-.01-.08-.02-.12,0-.02,0-.04,0-.04-1.93-1.87-4.42-4.27-7.07-6.84-2.72-2.66-5.63-5.5-8.33-8.14-5.3-5.23-9.52-9.52-9.31-9.75s4.82,3.66,10.43,8.54c2.84,2.5,5.89,5.17,8.75,7.69,3.03,2.7,5.86,5.23,8.07,7.19.02.18.05.37.07.55.02.15.05.41.07.45.04.17.07.33.11.5.09.33.16.64.25.94.18.59.35,1.12.52,1.56.31.89.58,1.44.63,1.61Z"/><path class="cls-1" d="M319.69,502.73c2.37-5.73,6-10.71,10-15.25,4.03-4.5,8.52-8.64,13.55-12.06,5.02-3.41,10.47-6.2,16.24-8.16,2.89-.96,5.86-1.75,8.93-2.14,1.54-.2,3.1-.3,4.72-.21.81.05,1.63.15,2.48.38.42.1.85.27,1.28.45.3.16.25.14.25.14,0,0-.01.01,0,0l.88-.76,1.76-1.51,3.69-2.79,3.82-2.58,3.92-2.4c5.28-3.09,10.73-5.8,16.14-8.52,10.79-5.39,21.55-10.98,30.37-18.99,4.41-3.98,8.3-8.51,11.78-13.37,3.49-4.85,6.58-10.01,9.64-15.23,3.06-5.21,6.09-10.49,9.53-15.56.86-1.27,1.78-2.5,2.66-3.75.92-1.23,1.9-2.42,2.85-3.63l3.06-3.47,1.64-1.64.7-.7h-.01s0,.02-.07-.1c-.21-.43-.39-.86-.51-1.29-.24-.85-.37-1.68-.4-2.49-.09-1.62.06-3.18.31-4.7.53-3.04,1.45-5.94,2.62-8.73,2.32-5.58,5.56-10.71,9.39-15.33,1.91-2.31,4-4.48,6.22-6.49,2.22-1.99,4.48-3.94,6.9-5.7,2.39-1.8,4.91-3.42,7.54-4.89,2.62-1.46,5.36-2.75,8.24-3.73.19-.06.81-.28,1.8-.55.49-.15,1.09-.28,1.76-.44.34-.06.7-.13,1.08-.2.19-.03.39-.06.6-.09l.16-.02h.02s.02,0,.02,0c2.02-1.79,4.61-4.1,7.39-6.56,2.86-2.51,5.91-5.19,8.75-7.69,5.61-4.88,10.22-8.76,10.43-8.54s-4.01,4.52-9.31,9.75c-2.7,2.64-5.61,5.48-8.33,8.14-2.91,2.81-5.63,5.43-7.75,7.47-.19.02-.38.04-.57.06l-.4.06c-.17.03-.34.06-.51.09-.33.07-.65.15-.96.21-.6.16-1.14.3-1.59.45-.91.27-1.48.5-1.66.55-2.68.92-5.28,2.13-7.78,3.53-2.5,1.4-4.92,2.95-7.22,4.69-2.33,1.69-4.52,3.58-6.67,5.51-2.13,1.93-4.12,4.01-5.95,6.22-3.66,4.41-6.75,9.33-8.94,14.59-1.1,2.63-1.96,5.36-2.44,8.1-.23,1.37-.35,2.75-.28,4.06.02.66.13,1.28.29,1.85.08.28.19.53.29.76.37.49.87,1.1,1.39,1.66l-4.1,4.08-2.94,3.34c-.92,1.17-1.86,2.32-2.75,3.51-.86,1.22-1.75,2.41-2.59,3.65-3.36,4.95-6.37,10.18-9.43,15.4-3.07,5.23-6.21,10.47-9.78,15.45-3.57,4.98-7.6,9.69-12.19,13.82-4.58,4.14-9.65,7.68-14.9,10.82-5.25,3.14-10.69,5.89-16.1,8.61-5.41,2.72-10.81,5.4-15.98,8.43l-3.82,2.34-3.7,2.5-3.55,2.69-4.24,3.67-.91-.7c-.3-.27-.69-.45-.71-.47-.26-.1-.52-.21-.82-.28-.59-.16-1.25-.25-1.92-.29-1.35-.08-2.77,0-4.18.19-2.82.36-5.64,1.1-8.38,2.02-5.49,1.87-10.73,4.54-15.54,7.82-4.81,3.27-9.13,7.25-13.03,11.6-3.85,4.36-7.31,9.15-9.49,14.44-.05.17-.32.73-.63,1.61-.17.44-.34.96-.52,1.56-.09.3-.16.61-.25.94-.03.16-.07.33-.11.5-.02.04-.05.3-.07.45-.02.18-.05.36-.07.55-2.2,1.97-5.04,4.49-8.07,7.19-2.86,2.51-5.91,5.19-8.75,7.69-5.61,4.88-10.22,8.76-10.43,8.54s4.01-4.52,9.31-9.75c2.71-2.64,5.61-5.48,8.33-8.14,2.66-2.57,5.14-4.97,7.07-6.84,0,0,0-.02,0-.04,0-.04,0,.02.02-.12.04-.21.07-.41.11-.6.09-.38.16-.75.25-1.08.18-.67.35-1.26.52-1.75.32-.99.59-1.59.65-1.78Z"/><path class="cls-1" d="M267.17,84.13c-2.37,5.73-6,10.71-10,15.25-4.03,4.5-8.52,8.64-13.55,12.06-5.02,3.41-10.47,6.2-16.24,8.16-2.89.96-5.86,1.75-8.93,2.14-1.54.2-3.1.3-4.72.21-.81-.05-1.63-.15-2.48-.38-.42-.1-.85-.27-1.28-.45-.3-.16-.25-.14-.25-.14,0,0,.01-.01,0,0l-.88.76-1.76,1.51-3.69,2.79-3.82,2.58-3.92,2.4c-5.28,3.09-10.73,5.8-16.14,8.52-10.79,5.39-21.55,10.98-30.37,18.99-4.41,3.98-8.3,8.51-11.78,13.37-3.49,4.85-6.58,10.01-9.64,15.23-3.06,5.21-6.09,10.49-9.53,15.56-.86,1.27-1.78,2.5-2.66,3.75-.92,1.23-1.9,2.42-2.85,3.63l-3.06,3.47-1.64,1.64-.7.7h.01s0-.02.07.1c.21.43.39.86.51,1.29.24.85.37,1.68.4,2.49.09,1.62-.06,3.18-.31,4.7-.53,3.04-1.45,5.94-2.62,8.73-2.32,5.58-5.56,10.71-9.39,15.33-1.91,2.31-4,4.48-6.22,6.49-2.22,1.99-4.48,3.94-6.9,5.7-2.39,1.8-4.91,3.42-7.54,4.89-2.62,1.46-5.36,2.75-8.24,3.73-.19.06-.81.28-1.8.55-.49.15-1.09.28-1.76.44-.34.06-.7.13-1.08.2-.19.03-.39.06-.6.09l-.16.02h-.02s-.02,0-.02,0c-2.02,1.79-4.61,4.1-7.39,6.56-2.86,2.51-5.91,5.19-8.75,7.69-5.61,4.88-10.22,8.76-10.43,8.54s4.01-4.52,9.31-9.75c2.7-2.64,5.61-5.48,8.33-8.14,2.91-2.81,5.63-5.43,7.75-7.47.19-.02.38-.04.57-.06l.4-.06c.17-.03.34-.06.51-.09.33-.07.65-.15.96-.21.6-.16,1.14-.3,1.59-.45.91-.27,1.48-.5,1.66-.55,2.68-.92,5.28-2.13,7.78-3.53,2.5-1.4,4.92-2.95,7.22-4.69,2.33-1.69,4.52-3.58,6.67-5.51,2.13-1.93,4.12-4.01,5.95-6.22,3.66-4.41,6.75-9.33,8.94-14.59,1.1-2.63,1.96-5.36,2.44-8.1.23-1.37.35-2.75.28-4.06-.02-.66-.13-1.28-.29-1.85-.08-.28-.19-.53-.29-.76-.37-.49-.87-1.1-1.39-1.66l4.1-4.08,2.94-3.34c.92-1.17,1.86-2.32,2.75-3.51.86-1.22,1.75-2.41,2.59-3.65,3.36-4.95,6.37-10.18,9.43-15.4,3.07-5.23,6.21-10.47,9.78-15.45,3.57-4.98,7.6-9.69,12.19-13.82,4.58-4.14,9.65-7.68,14.9-10.82,5.25-3.14,10.69-5.89,16.1-8.61,5.41-2.72,10.81-5.4,15.98-8.43l3.82-2.34,3.7-2.5,3.55-2.69,4.24-3.67.91.7c.3.27.69.45.71.47.26.1.52.21.82.28.59.16,1.25.25,1.92.29,1.35.08,2.77,0,4.18-.19,2.82-.36,5.64-1.1,8.38-2.02,5.49-1.87,10.73-4.54,15.54-7.82,4.81-3.27,9.13-7.25,13.03-11.6,3.85-4.36,7.31-9.15,9.49-14.44.05-.17.32-.73.63-1.61.17-.44.34-.96.52-1.56.09-.3.16-.61.25-.94.03-.16.07-.33.11-.5.02-.04.05-.3.07-.45.02-.18.05-.36.07-.55,2.2-1.97,5.04-4.49,8.07-7.19,2.86-2.51,5.91-5.19,8.75-7.69,5.61-4.88,10.22-8.76,10.43-8.54s-4.01,4.52-9.31,9.75c-2.71,2.64-5.61,5.48-8.33,8.14-2.66,2.57-5.14,4.97-7.07,6.84,0,0,0,.02,0,.04,0,.04,0-.02-.02.12-.04.21-.07.41-.11.6-.09.38-.16.75-.25,1.08-.18.67-.35,1.26-.52,1.75-.32.99-.59,1.59-.65,1.78Z"/><path class="cls-1" d="M264.53,503.82c-2.19-5.29-5.64-10.08-9.49-14.44-3.9-4.35-8.22-8.33-13.03-11.6-4.81-3.27-10.05-5.95-15.54-7.82-2.75-.92-5.56-1.65-8.38-2.02-1.41-.18-2.82-.27-4.18-.19-.67.04-1.33.13-1.92.29-.31.07-.56.18-.82.28-.03.02-.41.2-.71.47l-.91.7-4.24-3.67-3.55-2.69-3.7-2.5-3.82-2.34c-5.17-3.03-10.57-5.71-15.98-8.43-5.41-2.72-10.85-5.47-16.1-8.61-5.25-3.13-10.32-6.67-14.9-10.82-4.58-4.13-8.62-8.84-12.19-13.82-3.58-4.98-6.72-10.22-9.78-15.45-3.07-5.23-6.07-10.45-9.43-15.4-.84-1.24-1.73-2.43-2.59-3.65-.9-1.19-1.84-2.34-2.75-3.51l-2.94-3.34-4.1-4.08c.52-.56,1.02-1.16,1.39-1.66.11-.23.22-.47.29-.76.16-.56.26-1.19.29-1.85.07-1.31-.05-2.69-.28-4.06-.48-2.75-1.34-5.48-2.44-8.1-2.19-5.27-5.28-10.18-8.94-14.59-1.83-2.21-3.82-4.28-5.95-6.22-2.15-1.93-4.34-3.82-6.67-5.51-2.3-1.74-4.72-3.29-7.22-4.69-2.5-1.4-5.1-2.61-7.78-3.53-.17-.05-.75-.28-1.66-.55-.45-.15-.99-.29-1.59-.45-.3-.07-.62-.14-.96-.21-.17-.03-.33-.06-.51-.09l-.4-.06c-.19-.02-.38-.04-.57-.06-2.12-2.04-4.84-4.66-7.75-7.47-2.72-2.66-5.63-5.5-8.33-8.14-5.3-5.22-9.51-9.52-9.31-9.75s4.82,3.66,10.43,8.54c2.84,2.5,5.89,5.17,8.75,7.69,2.78,2.46,5.37,4.77,7.39,6.56h.02s.02,0,.02,0l.16.02c.2.03.4.06.6.09.38.07.74.14,1.08.2.67.16,1.27.29,1.76.44,1,.26,1.62.49,1.8.55,2.88.99,5.62,2.27,8.24,3.73,2.62,1.47,5.15,3.09,7.54,4.89,2.42,1.76,4.68,3.71,6.9,5.7,2.22,2.01,4.3,4.19,6.22,6.49,3.83,4.62,7.06,9.75,9.39,15.33,1.16,2.79,2.08,5.69,2.62,8.73.25,1.52.4,3.08.31,4.7-.03.81-.16,1.64-.4,2.49-.12.42-.3.86-.51,1.29-.07.13-.07.12-.07.12h-.01s.7.69.7.69l1.64,1.64,3.06,3.47c.95,1.21,1.92,2.41,2.85,3.63.89,1.25,1.8,2.49,2.66,3.75,3.44,5.07,6.47,10.35,9.53,15.56,3.06,5.21,6.15,10.37,9.64,15.23,3.48,4.86,7.37,9.39,11.78,13.37,8.82,8.01,19.58,13.6,30.37,18.99,5.4,2.72,10.86,5.43,16.14,8.52l3.92,2.4,3.82,2.58,3.69,2.79,1.76,1.51.88.76s-.02-.01,0,0c0,0-.05.02.25-.14.43-.18.86-.35,1.28-.45.85-.23,1.67-.33,2.48-.38,1.62-.1,3.18.01,4.72.21,3.08.4,6.04,1.18,8.93,2.14,5.77,1.96,11.22,4.75,16.24,8.16,5.03,3.42,9.52,7.56,13.55,12.06,4,4.54,7.63,9.52,10,15.25.06.19.33.79.65,1.78.17.49.34,1.08.52,1.75.09.33.16.7.25,1.08.04.2.07.4.11.6.03.14.01.08.02.12,0,.02,0,.04,0,.04,1.93,1.87,4.42,4.27,7.07,6.84,2.72,2.66,5.63,5.5,8.33,8.14,5.3,5.23,9.52,9.52,9.31,9.75s-4.82-3.66-10.43-8.54c-2.84-2.5-5.89-5.17-8.75-7.69-3.03-2.7-5.86-5.23-8.07-7.19-.02-.18-.05-.37-.07-.55-.02-.15-.05-.41-.07-.45-.04-.17-.07-.33-.11-.5-.09-.33-.16-.64-.25-.94-.18-.59-.35-1.12-.52-1.56-.31-.89-.58-1.44-.63-1.61Z"/><path class="cls-1" d="M309.51,522.18c-2.76,2.52-5.36,5.24-7.65,8.17-2.28,2.93-4.3,6.08-5.63,9.45-1.32,3.34-1.91,7-.74,10.16,1.09,3.19,3.93,5.56,7.13,7.15,3.25,1.58,6.85,2.57,10.52,3.2,3.67.65,7.43.99,11.19,1.15,7.53.42,15.13-.27,22.71-.58,15.13-1.25,30.15-3.71,44.91-7.32,14.74-3.68,29.15-8.61,43.18-14.44,14.01-5.87,27.63-12.7,40.6-20.62,3.22-2.01,6.4-4.08,9.61-6.12,3.15-2.12,6.23-4.34,9.34-6.51,3.04-2.27,6.03-4.6,9.03-6.92l4.34-3.67c1.43-1.24,2.94-2.4,4.29-3.73,5.58-5.11,11.03-10.4,15.49-16.44,2.29-2.97,4.3-6.14,5.96-9.45,1.65-3.31,2.93-6.8,3.46-10.38.3-1.79.31-3.59.19-5.36-.2-1.77-.57-3.51-1.24-5.15-1.32-3.27-3.63-6.13-6.53-8.26-2.86-2.19-6.29-3.63-9.8-4.61-3.55-.92-7.25-1.31-10.93-1.2-.53.03-4,.05-8.87.87-4.86.81-11.1,2.44-16.88,5.01-2.88,1.28-5.67,2.77-7.95,4.53-1.13.88-2.14,1.85-2.76,2.89-.31.52-.48,1.05-.47,1.53,0,.48.23.92.56,1.29.69.74,1.7,1.17,2.56,1.49.88.31,1.69.51,2.35.66,1.34.3,2.12.44,2.11.54,0,.09-.8.14-2.2.02-.7-.06-1.54-.18-2.51-.42-.95-.26-2.08-.59-3.1-1.52-.49-.46-.94-1.17-1-1.98-.07-.8.16-1.59.51-2.26.71-1.36,1.78-2.46,2.95-3.47,2.36-2.02,5.18-3.68,8.11-5.13,5.87-2.89,12.24-4.79,17.26-5.77,5.03-1,8.7-1.11,9.25-1.14,3.95-.11,7.91.3,11.75,1.29,3.81,1.06,7.56,2.63,10.78,5.08,3.25,2.38,5.94,5.67,7.47,9.48.78,1.9,1.2,3.92,1.43,5.94.15,2.03.12,4.06-.2,6.05-.59,3.98-1.98,7.74-3.73,11.25-1.76,3.51-3.87,6.81-6.24,9.89-4.63,6.25-10.2,11.65-15.86,16.84-1.38,1.35-2.9,2.52-4.35,3.78l-4.4,3.72c-3.04,2.34-6.07,4.7-9.14,7-3.15,2.19-6.27,4.43-9.45,6.58-3.24,2.06-6.45,4.15-9.7,6.18-13.1,7.99-26.84,14.89-40.98,20.81-14.15,5.89-28.7,10.87-43.59,14.58-14.9,3.64-30.08,6.13-45.38,7.39-7.67.31-15.32,1-23.05.58-3.86-.17-7.72-.52-11.57-1.2-3.84-.67-7.67-1.69-11.3-3.46-1.8-.89-3.54-2.03-5.06-3.47-1.52-1.43-2.78-3.24-3.49-5.27-.72-2.02-.95-4.19-.72-6.26.21-2.07.76-4.05,1.49-5.92,1.48-3.74,3.64-7.08,6.04-10.16,2.41-3.09,5.11-5.9,7.98-8.53.31-.27,1.87-1.69,4.38-3.61,2.53-1.89,5.97-4.34,10.28-6.25,1.08-.47,2.22-.9,3.45-1.2.62-.15,1.26-.26,1.94-.31.35,0,.69-.03,1.06.02l.55.07.47.11c1.23.29,2.51.63,3.7,1.57.58.44,1.15,1.2,1.26,2.09.12.88-.16,1.65-.49,2.27-.7,1.23-1.64,2.06-2.6,2.79-.96.72-1.96,1.31-2.98,1.79-1.02.48-2.05.85-3.13,1.03-.55.09-1.06.14-1.73-.01-.33-.07-.64-.23-.87-.45-.26-.21-.36-.52-.47-.81-.35-1.51.05-2.75.61-3.68.56-.93,1.22-1.57,1.78-2.06,1.15-.96,1.94-1.28,1.99-1.2.06.09-.62.58-1.58,1.62-.47.52-1.01,1.19-1.43,2.04-.43.81-.59,1.95-.3,2.86.18.57.83.57,1.76.37.88-.2,1.81-.59,2.71-1.07.9-.49,1.8-1.07,2.62-1.76.82-.68,1.58-1.48,2.01-2.33.2-.42.29-.83.23-1.13-.05-.3-.24-.58-.61-.84-.7-.53-1.81-.85-2.9-1.04l-.41-.08-.34-.02c-.22-.03-.48.02-.72.01-.51.06-1.02.16-1.54.31-1.04.29-2.06.71-3.04,1.18-3.93,1.9-7.21,4.36-9.58,6.24-2.37,1.91-3.84,3.31-4.14,3.57Z"/><path class="cls-1" d="M428.34,493.52c.45-1.29,1.17-2.39,1.99-3.33.83-.94,1.74-1.77,2.73-2.47,1.96-1.42,4.1-2.47,6.29-3.28,4.4-1.61,8.98-2.36,13.54-2.7,4.56-.29,9.13-.32,13.74.41,2.3.39,4.62.96,6.83,2.09,1.1.57,2.17,1.28,3.08,2.23.92.94,1.66,2.13,2.05,3.43.77,2.65.19,5.29-.71,7.51-.92,2.25-2.21,4.24-3.61,6.09-2.82,3.7-6.15,6.86-9.61,9.8-6.97,5.85-14.62,10.75-22.51,15.14-3.95,2.19-7.98,4.23-12.06,6.15-4.1,1.84-8.16,3.79-12.31,5.51-8.25,3.59-16.65,6.81-25.15,9.78-8.49,2.99-17.12,5.56-25.86,7.77-8.74,2.19-17.59,4-26.57,5.07-.64.04-8.4.86-16.03.55-3.81-.09-7.57-.57-10.34-1.04-2.76-.6-4.55-1.06-4.51-1.25.04-.19,1.9-.1,4.65.15,2.77.13,6.47.29,10.21.12,7.48-.21,15.05-1.33,15.68-1.37,8.82-1.05,17.57-2.84,26.21-5.01,8.64-2.18,17.2-4.73,25.62-7.7,8.42-2.94,16.77-6.14,24.95-9.7,4.13-1.71,8.15-3.64,12.23-5.47,4.03-1.9,8-3.91,11.89-6.06,7.77-4.31,15.28-9.14,22.05-14.82,3.36-2.85,6.56-5.91,9.18-9.35,1.3-1.71,2.46-3.53,3.24-5.44.78-1.89,1.13-3.9.62-5.61-.5-1.7-1.92-3.04-3.71-3.95-1.79-.92-3.87-1.46-5.98-1.81-4.25-.68-8.7-.66-13.07-.38-4.37.33-8.71,1.05-12.74,2.53-2.01.74-3.93,1.69-5.6,2.91-.85.59-1.6,1.29-2.25,2.03-.66.74-1.17,1.56-1.46,2.39-.04.12-.21.57-.28,1.23-.03.66.11,1.51.86,2.22.73.73,2.16,1.18,3.75,1.2.78,0,1.7-.08,2.6-.18.9-.1,1.81-.23,2.69-.41.44-.09.87-.2,1.28-.32.26-.08.39-.11.55-.19.15-.07.35-.21.34-.4-.04-.18-.2-.28-.36-.37-.17-.09-.31-.15-.67-.25-.38-.1-.77-.18-1.14-.24-.76-.13-1.5-.2-2.18-.26-2.74-.19-4.6-.1-4.62-.32-.02-.17,1.79-.64,4.64-.79.71-.03,1.49-.04,2.32.02.42.03.85.07,1.29.15.46.08,1.18.24,1.74.53.57.29,1.03.68,1.21,1.27.14.64-.18,1.18-.65,1.62-.45.46-1.23.79-1.83,1.05-.48.18-.95.34-1.43.47-.96.27-1.91.47-2.86.63-.95.17-1.86.3-2.87.37-1.96.08-4.04-.31-5.53-1.58-.72-.62-1.29-1.4-1.56-2.18-.18-.38-.21-.77-.3-1.12-.05-.35-.05-.68-.07-.99.06-1.19.32-1.89.37-2.07Z"/><path class="cls-1" d="M279.27,520.07c2.87,2.62,5.57,5.44,7.98,8.53,2.4,3.09,4.56,6.42,6.04,10.16.73,1.87,1.28,3.85,1.49,5.92.22,2.06,0,4.24-.72,6.26-.71,2.03-1.97,3.84-3.49,5.27-1.52,1.44-3.25,2.57-5.06,3.47-3.62,1.77-7.46,2.79-11.3,3.46-3.84.68-7.71,1.02-11.57,1.2-7.73.42-15.38-.27-23.05-.58-15.3-1.26-30.48-3.75-45.38-7.39-14.89-3.71-29.44-8.69-43.59-14.58-14.14-5.92-27.89-12.82-40.98-20.81-3.25-2.03-6.47-4.12-9.7-6.18-3.18-2.14-6.3-4.39-9.45-6.58-3.07-2.3-6.1-4.66-9.14-7l-4.4-3.72c-1.45-1.26-2.97-2.43-4.35-3.78-5.66-5.19-11.22-10.59-15.86-16.84-2.36-3.08-4.48-6.38-6.24-9.89-1.75-3.51-3.14-7.27-3.73-11.25-.32-1.98-.35-4.02-.2-6.05.23-2.02.65-4.04,1.43-5.94,1.53-3.81,4.22-7.1,7.47-9.48,3.22-2.45,6.97-4.02,10.78-5.08,3.84-1,7.81-1.41,11.75-1.29.55.03,4.22.14,9.25,1.14,5.02.99,11.39,2.88,17.26,5.77,2.93,1.45,5.75,3.11,8.11,5.13,1.17,1.01,2.24,2.12,2.95,3.47.35.67.58,1.46.51,2.26-.06.81-.51,1.52-1,1.98-1.03.93-2.15,1.26-3.1,1.52-.97.24-1.81.36-2.51.42-1.39.12-2.19.06-2.2-.02-.01-.11.77-.25,2.11-.54.67-.15,1.47-.35,2.35-.66.86-.31,1.87-.74,2.56-1.49.33-.37.56-.81.56-1.29,0-.48-.16-1.02-.47-1.53-.62-1.04-1.63-2.01-2.76-2.89-2.28-1.76-5.07-3.25-7.95-4.53-5.78-2.57-12.02-4.2-16.88-5.01-4.87-.82-8.35-.84-8.87-.87-3.68-.11-7.38.28-10.93,1.2-3.52.98-6.94,2.42-9.8,4.61-2.9,2.12-5.21,4.98-6.53,8.26-.67,1.64-1.03,3.38-1.24,5.15-.13,1.78-.11,3.58.19,5.36.53,3.58,1.8,7.08,3.46,10.38,1.66,3.31,3.68,6.47,5.96,9.45,4.47,6.04,9.91,11.33,15.49,16.44,1.35,1.33,2.86,2.49,4.29,3.73l4.34,3.67c3,2.31,6,4.65,9.03,6.92,3.12,2.17,6.2,4.38,9.34,6.51,3.2,2.04,6.39,4.11,9.61,6.12,12.97,7.92,26.59,14.75,40.6,20.62,14.02,5.83,28.44,10.76,43.18,14.44,14.76,3.6,29.78,6.07,44.91,7.32,7.57.31,15.17.99,22.71.58,3.77-.17,7.52-.51,11.19-1.15,3.67-.64,7.28-1.62,10.52-3.2,3.2-1.59,6.04-3.96,7.13-7.15,1.17-3.16.59-6.83-.74-10.16-1.33-3.37-3.35-6.52-5.63-9.45-2.29-2.93-4.89-5.65-7.65-8.17-.4-.35-2.92-2.79-6.91-5.68-2-1.43-4.36-2.99-7.02-4.23-1.32-.61-2.74-1.16-4.11-1.35-.72-.09-1.22-.08-2.02.11-.74.14-1.43.36-2.04.64-1.29.62-1.5,1.35-.81,2.58.7,1.14,1.85,2.13,3.02,2.93,1.17.8,2.42,1.44,3.63,1.82.58.19,1.24.3,1.66.25.18-.02.37-.08.49-.21.13-.15.16-.28.22-.53.25-1-.06-2-.47-2.79-.42-.8-.95-1.43-1.4-1.93-.92-.99-1.56-1.46-1.5-1.54.04-.08.8.23,1.9,1.13.54.45,1.18,1.06,1.74,1.92.54.84,1.05,2.04.83,3.41-.03.15-.06.38-.11.58-.1.18-.16.4-.3.56-.27.34-.69.53-1.14.63-.85.15-1.54.01-2.26-.15-1.42-.35-2.8-.98-4.14-1.79-1.33-.82-2.66-1.8-3.69-3.31-.49-.74-.94-1.8-.64-2.99.31-1.19,1.26-1.91,2.06-2.33.83-.43,1.67-.72,2.5-.92.42-.1.81-.21,1.33-.25.48-.04.96-.04,1.4.01,1.79.19,3.35.76,4.83,1.37,2.93,1.25,5.44,2.81,7.57,4.24,4.24,2.89,6.9,5.36,7.32,5.72Z"/><path class="cls-1" d="M155.81,494.46c-.29-.83-.8-1.66-1.46-2.39-.65-.74-1.4-1.43-2.25-2.03-1.67-1.22-3.59-2.17-5.6-2.91-4.03-1.48-8.38-2.21-12.74-2.53-4.37-.28-8.83-.29-13.07.38-2.11.35-4.19.89-5.98,1.81-1.79.91-3.21,2.25-3.71,3.95-.51,1.7-.15,3.72.62,5.61.78,1.9,1.94,3.72,3.24,5.44,2.62,3.44,5.82,6.5,9.18,9.35,6.76,5.68,14.28,10.51,22.05,14.82,3.89,2.15,7.86,4.17,11.89,6.06,4.07,1.83,8.1,3.76,12.23,5.47,8.19,3.57,16.53,6.76,24.95,9.7,8.42,2.97,16.98,5.51,25.62,7.7,8.64,2.16,17.39,3.96,26.21,5.01.63.04,8.2,1.16,15.68,1.37,3.74.17,7.44,0,10.21-.12,2.75-.25,4.61-.34,4.65-.15.04.19-1.75.66-4.51,1.25-2.77.47-6.53.95-10.34,1.04-7.63.3-15.39-.51-16.03-.55-8.98-1.07-17.83-2.88-26.57-5.07-8.73-2.21-17.37-4.78-25.86-7.77-8.49-2.97-16.9-6.19-25.15-9.78-4.16-1.72-8.21-3.67-12.31-5.51-4.08-1.92-8.11-3.96-12.06-6.15-7.89-4.38-15.53-9.29-22.51-15.14-3.46-2.94-6.79-6.11-9.61-9.8-1.4-1.85-2.69-3.84-3.61-6.09-.9-2.22-1.49-4.86-.71-7.51.39-1.3,1.14-2.49,2.05-3.43.92-.95,1.99-1.67,3.08-2.23,2.21-1.13,4.53-1.7,6.83-2.09,4.61-.73,9.18-.7,13.74-.41,4.56.34,9.14,1.09,13.54,2.7,2.19.81,4.33,1.86,6.29,3.28.98.7,1.9,1.53,2.73,2.47.83.94,1.54,2.04,1.99,3.33.05.18.32.88.37,2.07-.02.3-.02.63-.07.99-.09.35-.12.74-.3,1.12-.27.79-.83,1.56-1.56,2.18-1.49,1.27-3.57,1.66-5.53,1.58-1.01-.07-1.92-.2-2.87-.37-.95-.17-1.9-.36-2.86-.63-.48-.14-.96-.29-1.43-.47-.6-.26-1.38-.59-1.83-1.05-.47-.44-.78-.98-.65-1.62.17-.59.64-.98,1.21-1.27.56-.29,1.27-.45,1.74-.53.45-.07.88-.12,1.29-.15.83-.06,1.61-.05,2.32-.02,2.85.15,4.66.62,4.64.79-.02.22-1.88.12-4.62.32-.68.06-1.42.13-2.18.26-.38.06-.77.14-1.14.24-.36.09-.5.16-.67.25-.16.09-.32.19-.36.37-.02.2.18.33.34.4.17.08.3.12.55.19.41.12.84.23,1.28.32.88.19,1.78.31,2.69.41.9.11,1.82.17,2.6.18,1.6-.02,3.02-.46,3.75-1.2.76-.71.9-1.56.86-2.22-.07-.67-.24-1.12-.28-1.23Z"/><path class="cls-1" d="M307.59,66.79c-2.87-2.62-5.57-5.44-7.98-8.53-2.4-3.09-4.56-6.42-6.04-10.16-.73-1.87-1.28-3.85-1.49-5.92-.22-2.06,0-4.24.72-6.26.71-2.03,1.97-3.84,3.49-5.27,1.52-1.44,3.25-2.57,5.06-3.47,3.62-1.77,7.46-2.79,11.3-3.46,3.84-.68,7.71-1.02,11.57-1.2,7.73-.42,15.38.27,23.05.58,15.3,1.26,30.48,3.75,45.38,7.39,14.89,3.71,29.44,8.69,43.59,14.58,14.14,5.92,27.89,12.82,40.98,20.81,3.25,2.03,6.47,4.12,9.7,6.18,3.18,2.14,6.3,4.39,9.45,6.58,3.07,2.3,6.1,4.66,9.14,7l4.4,3.72c1.45,1.26,2.97,2.43,4.35,3.78,5.66,5.19,11.22,10.59,15.86,16.84,2.36,3.08,4.48,6.38,6.24,9.89,1.75,3.51,3.14,7.27,3.73,11.25.32,1.98.35,4.02.2,6.05-.23,2.02-.65,4.04-1.43,5.94-1.53,3.81-4.22,7.1-7.47,9.48-3.22,2.45-6.97,4.02-10.78,5.08-3.84,1-7.81,1.41-11.75,1.29-.55-.03-4.22-.14-9.25-1.14-5.02-.99-11.39-2.88-17.26-5.77-2.93-1.45-5.75-3.11-8.11-5.13-1.17-1.01-2.24-2.12-2.95-3.47-.35-.67-.58-1.46-.51-2.26.06-.81.51-1.52,1-1.98,1.03-.93,2.15-1.26,3.1-1.52.97-.24,1.81-.36,2.51-.42,1.39-.12,2.19-.06,2.2.02.01.11-.77.25-2.11.54-.67.15-1.47.35-2.35.66-.86.31-1.87.74-2.56,1.49-.33.37-.56.81-.56,1.29,0,.48.16,1.02.47,1.53.62,1.04,1.63,2.01,2.76,2.89,2.28,1.76,5.07,3.25,7.95,4.53,5.78,2.57,12.02,4.2,16.88,5.01,4.87.82,8.35.84,8.87.87,3.68.11,7.38-.28,10.93-1.2,3.52-.98,6.94-2.42,9.8-4.61,2.9-2.12,5.21-4.98,6.53-8.26.67-1.64,1.03-3.38,1.24-5.15.13-1.78.11-3.58-.19-5.36-.53-3.58-1.8-7.08-3.46-10.38-1.66-3.31-3.68-6.47-5.96-9.45-4.47-6.04-9.91-11.33-15.49-16.44-1.35-1.33-2.86-2.49-4.29-3.73l-4.34-3.67c-3-2.31-6-4.65-9.03-6.92-3.12-2.17-6.2-4.38-9.34-6.51-3.2-2.04-6.39-4.11-9.61-6.12-12.97-7.92-26.59-14.75-40.6-20.62-14.02-5.83-28.44-10.76-43.18-14.44-14.76-3.6-29.78-6.07-44.91-7.32-7.57-.31-15.17-.99-22.71-.58-3.77.17-7.52.51-11.19,1.15-3.67.64-7.28,1.62-10.52,3.2-3.2,1.59-6.04,3.96-7.13,7.15-1.17,3.16-.59,6.83.74,10.16,1.33,3.37,3.35,6.52,5.63,9.45,2.29,2.93,4.89,5.65,7.65,8.17.4.35,2.92,2.79,6.91,5.68,2,1.43,4.36,2.99,7.02,4.23,1.32.61,2.74,1.16,4.11,1.35.72.09,1.22.08,2.02-.11.74-.14,1.43-.36,2.04-.64,1.29-.62,1.5-1.35.81-2.58-.7-1.14-1.85-2.13-3.02-2.93-1.17-.8-2.42-1.44-3.63-1.82-.58-.19-1.24-.3-1.66-.25-.18.02-.37.08-.49.21-.13.15-.16.28-.22.53-.25,1,.06,2,.47,2.79.42.8.95,1.43,1.4,1.93.92.99,1.56,1.46,1.5,1.54-.04.08-.8-.23-1.9-1.13-.54-.45-1.18-1.06-1.74-1.92-.54-.84-1.05-2.04-.83-3.41.03-.15.06-.38.11-.58.1-.18.16-.4.3-.56.27-.34.69-.53,1.14-.63.85-.15,1.54-.01,2.26.15,1.42.35,2.8.98,4.14,1.79,1.33.82,2.66,1.8,3.69,3.31.49.74.94,1.8.64,2.99-.31,1.19-1.26,1.91-2.06,2.33-.83.43-1.67.72-2.5.92-.42.1-.81.21-1.33.25-.48.04-.96.04-1.4-.01-1.79-.19-3.35-.76-4.83-1.37-2.93-1.25-5.44-2.81-7.57-4.24-4.24-2.89-6.9-5.36-7.32-5.72Z"/><path class="cls-1" d="M431.04,92.4c.29.83.8,1.66,1.46,2.39.65.74,1.4,1.43,2.25,2.03,1.67,1.22,3.59,2.17,5.6,2.91,4.03,1.48,8.38,2.21,12.74,2.53,4.37.28,8.83.29,13.07-.38,2.11-.35,4.19-.89,5.98-1.81,1.79-.91,3.21-2.25,3.71-3.95.51-1.7.15-3.72-.62-5.61-.78-1.9-1.94-3.72-3.24-5.44-2.62-3.44-5.82-6.5-9.18-9.35-6.76-5.68-14.28-10.51-22.05-14.82-3.89-2.15-7.86-4.17-11.89-6.06-4.07-1.83-8.1-3.76-12.23-5.47-8.19-3.57-16.53-6.76-24.95-9.7-8.42-2.97-16.98-5.51-25.62-7.7-8.64-2.16-17.39-3.96-26.21-5.01-.63-.04-8.2-1.16-15.68-1.37-3.74-.17-7.44,0-10.21.12-2.75.25-4.61.34-4.65.15-.04-.19,1.75-.66,4.51-1.25,2.77-.47,6.53-.95,10.34-1.04,7.63-.3,15.39.51,16.03.55,8.98,1.07,17.83,2.88,26.57,5.07,8.73,2.21,17.37,4.78,25.86,7.77,8.49,2.97,16.9,6.19,25.15,9.78,4.16,1.72,8.21,3.67,12.31,5.51,4.08,1.92,8.11,3.96,12.06,6.15,7.89,4.38,15.53,9.29,22.51,15.14,3.46,2.94,6.79,6.11,9.61,9.8,1.4,1.85,2.69,3.84,3.61,6.09.9,2.22,1.49,4.86.71,7.51-.39,1.3-1.14,2.49-2.05,3.43-.92.95-1.99,1.67-3.08,2.23-2.21,1.13-4.53,1.7-6.83,2.09-4.61.73-9.18.7-13.74.41-4.56-.34-9.14-1.09-13.54-2.7-2.19-.81-4.33-1.86-6.29-3.28-.98-.7-1.9-1.53-2.73-2.47-.83-.94-1.54-2.04-1.99-3.33-.05-.18-.32-.88-.37-2.07.02-.3.02-.63.07-.99.09-.35.12-.74.3-1.12.27-.79.83-1.56,1.56-2.18,1.49-1.27,3.57-1.66,5.53-1.58,1.01.07,1.92.2,2.87.37.95.17,1.9.36,2.86.63.48.14.96.29,1.43.47.6.26,1.38.59,1.83,1.05.47.44.78.98.65,1.62-.17.59-.64.98-1.21,1.27-.56.29-1.27.45-1.74.53-.45.07-.88.12-1.29.15-.83.06-1.61.05-2.32.02-2.85-.15-4.66-.62-4.64-.79.02-.22,1.88-.12,4.62-.32.68-.06,1.42-.13,2.18-.26.38-.06.77-.14,1.14-.24.36-.09.5-.16.67-.25.16-.09.32-.19.36-.37.02-.2-.18-.33-.34-.4-.17-.08-.3-.12-.55-.19-.41-.12-.84-.23-1.28-.32-.88-.19-1.78-.31-2.69-.41-.9-.11-1.82-.17-2.6-.18-1.6.02-3.02.46-3.75,1.2-.76.71-.9,1.56-.86,2.22.07.67.24,1.12.28,1.23Z"/><path class="cls-1" d="M277.35,64.67c2.76-2.52,5.36-5.24,7.65-8.17,2.28-2.93,4.3-6.08,5.63-9.45,1.32-3.34,1.91-7,.74-10.16-1.09-3.19-3.93-5.56-7.13-7.15-3.25-1.58-6.85-2.57-10.52-3.2-3.67-.65-7.43-.99-11.19-1.15-7.53-.42-15.13.27-22.71.58-15.13,1.25-30.15,3.71-44.91,7.32-14.74,3.68-29.15,8.61-43.18,14.44-14.01,5.87-27.63,12.7-40.6,20.62-3.22,2.01-6.4,4.08-9.61,6.12-3.15,2.12-6.23,4.34-9.34,6.51-3.04,2.27-6.03,4.6-9.03,6.92l-4.34,3.67c-1.43,1.24-2.94,2.4-4.29,3.73-5.58,5.11-11.03,10.4-15.49,16.44-2.29,2.97-4.3,6.14-5.96,9.45-1.65,3.31-2.93,6.8-3.46,10.38-.3,1.79-.31,3.59-.19,5.36.2,1.77.57,3.51,1.24,5.15,1.32,3.27,3.63,6.13,6.53,8.26,2.86,2.19,6.29,3.63,9.8,4.61,3.55.92,7.25,1.31,10.93,1.2.53-.03,4-.05,8.87-.87,4.86-.81,11.1-2.44,16.88-5.01,2.88-1.28,5.67-2.77,7.95-4.53,1.13-.88,2.14-1.85,2.76-2.89.31-.52.48-1.05.47-1.53,0-.48-.23-.92-.56-1.29-.69-.74-1.7-1.17-2.56-1.49-.88-.31-1.69-.51-2.35-.66-1.34-.3-2.12-.44-2.11-.54,0-.09.8-.14,2.2-.02.7.06,1.54.18,2.51.42.95.26,2.08.59,3.1,1.52.49.46.94,1.17,1,1.98.07.8-.16,1.59-.51,2.26-.71,1.36-1.78,2.46-2.95,3.47-2.36,2.02-5.18,3.68-8.11,5.13-5.87,2.89-12.24,4.79-17.26,5.77-5.03,1-8.7,1.11-9.25,1.14-3.95.11-7.91-.3-11.75-1.29-3.81-1.06-7.56-2.63-10.78-5.08-3.25-2.38-5.94-5.67-7.47-9.48-.78-1.9-1.2-3.92-1.43-5.94-.15-2.03-.12-4.06.2-6.05.59-3.98,1.98-7.74,3.73-11.25,1.76-3.51,3.87-6.81,6.24-9.89,4.63-6.25,10.2-11.65,15.86-16.84,1.38-1.35,2.9-2.52,4.35-3.78l4.4-3.72c3.04-2.34,6.07-4.7,9.14-7,3.15-2.19,6.27-4.43,9.45-6.58,3.24-2.06,6.45-4.15,9.7-6.18,13.1-7.99,26.84-14.89,40.98-20.81,14.15-5.89,28.7-10.87,43.59-14.58,14.9-3.64,30.08-6.13,45.38-7.39,7.67-.31,15.32-1,23.05-.58,3.86.17,7.72.52,11.57,1.2,3.84.67,7.67,1.69,11.3,3.46,1.8.89,3.54,2.03,5.06,3.47,1.52,1.43,2.78,3.24,3.49,5.27.72,2.02.95,4.19.72,6.26-.21,2.07-.76,4.05-1.49,5.92-1.48,3.74-3.64,7.08-6.04,10.16-2.41,3.09-5.11,5.9-7.98,8.53-.42.36-3.08,2.83-7.32,5.72-2.13,1.43-4.64,2.99-7.57,4.24-1.47.61-3.03,1.19-4.83,1.37-.44.05-.92.06-1.4.01-.52-.04-.92-.16-1.33-.25-.83-.2-1.67-.48-2.5-.92-.8-.42-1.74-1.13-2.06-2.33-.3-1.19.16-2.25.64-2.99,1.04-1.51,2.36-2.48,3.69-3.31,1.34-.81,2.72-1.43,4.14-1.79.73-.16,1.41-.3,2.26-.15.45.09.87.29,1.14.63.14.16.2.38.3.56.06.2.09.43.11.58.22,1.36-.29,2.56-.83,3.41-.56.86-1.2,1.47-1.74,1.92-1.1.9-1.85,1.2-1.9,1.13-.06-.09.58-.56,1.5-1.54.45-.5.98-1.13,1.4-1.93.41-.79.72-1.79.47-2.79-.06-.25-.09-.38-.22-.53-.13-.14-.31-.19-.49-.21-.42-.05-1.07.07-1.66.25-1.21.38-2.46,1.02-3.63,1.82-1.16.79-2.32,1.79-3.02,2.93-.69,1.22-.48,1.95.81,2.58.61.28,1.3.5,2.04.64.79.19,1.3.2,2.02.11,1.38-.19,2.79-.74,4.11-1.35,2.66-1.24,5.02-2.81,7.02-4.23,3.99-2.89,6.51-5.33,6.91-5.68Z"/><path class="cls-1" d="M158.52,93.33c-.45,1.29-1.17,2.39-1.99,3.33-.83.94-1.74,1.77-2.73,2.47-1.96,1.42-4.1,2.47-6.29,3.28-4.4,1.61-8.98,2.36-13.54,2.7-4.56.29-9.13.32-13.74-.41-2.3-.39-4.62-.96-6.83-2.09-1.1-.57-2.17-1.28-3.08-2.23-.92-.94-1.66-2.13-2.05-3.43-.77-2.65-.19-5.29.71-7.51.92-2.25,2.21-4.24,3.61-6.09,2.82-3.7,6.15-6.86,9.61-9.8,6.97-5.85,14.62-10.75,22.51-15.14,3.95-2.19,7.98-4.23,12.06-6.15,4.1-1.84,8.16-3.79,12.31-5.51,8.25-3.59,16.65-6.81,25.15-9.78,8.49-2.99,17.12-5.56,25.86-7.77,8.74-2.19,17.59-4,26.57-5.07.64-.04,8.4-.86,16.03-.55,3.81.09,7.57.57,10.34,1.04,2.76.6,4.55,1.06,4.51,1.25-.04.19-1.9.1-4.65-.15-2.77-.13-6.47-.29-10.21-.12-7.48.21-15.05,1.33-15.68,1.37-8.82,1.05-17.57,2.84-26.21,5.01-8.64,2.18-17.2,4.73-25.62,7.7-8.42,2.94-16.77,6.14-24.95,9.7-4.13,1.71-8.15,3.64-12.23,5.47-4.03,1.9-8,3.91-11.89,6.06-7.77,4.31-15.28,9.14-22.05,14.82-3.36,2.85-6.56,5.91-9.18,9.35-1.3,1.71-2.46,3.53-3.24,5.44-.78,1.89-1.13,3.9-.62,5.61.5,1.7,1.92,3.04,3.71,3.95,1.79.92,3.87,1.46,5.98,1.81,4.25.68,8.7.66,13.07.38,4.37-.33,8.71-1.05,12.74-2.53,2.01-.74,3.93-1.69,5.6-2.91.85-.59,1.6-1.29,2.25-2.03.66-.74,1.17-1.56,1.46-2.39.04-.12.21-.57.28-1.23.03-.66-.11-1.51-.86-2.22-.73-.73-2.16-1.18-3.75-1.2-.78,0-1.7.08-2.6.18-.9.1-1.81.23-2.69.41-.44.09-.87.2-1.28.32-.26.08-.39.11-.55.19-.15.07-.35.21-.34.4.04.18.2.28.36.37.17.09.31.15.67.25.38.1.77.18,1.14.24.76.13,1.5.2,2.18.26,2.74.19,4.6.1,4.62.32.02.17-1.79.64-4.64.79-.71.03-1.49.04-2.32-.02-.42-.03-.85-.07-1.29-.15-.46-.08-1.18-.24-1.74-.53-.57-.29-1.03-.68-1.21-1.27-.14-.64.18-1.18.65-1.62.45-.46,1.23-.79,1.83-1.05.48-.18.95-.34,1.43-.47.96-.27,1.91-.47,2.86-.63.95-.17,1.86-.3,2.87-.37,1.96-.08,4.04.31,5.53,1.58.72.62,1.29,1.4,1.56,2.18.18.38.21.77.3,1.12.05.35.05.68.07.99-.06,1.19-.32,1.89-.37,2.07Z"/><path class="cls-1" d="M531.52,418.16c2.26-4.66,3.95-9.66,5.43-14.7,1.47-5.05,2.7-10.19,3.8-15.36,2.18-10.34,3.84-20.81,5.2-31.32,1.35-10.51,2.4-21.06,3.16-31.63.75-10.57,1.25-21.16,1.26-31.73-.02-10.57-.51-21.17-1.26-31.73-.76-10.57-1.81-21.12-3.16-31.63-1.36-10.5-3.02-20.97-5.2-31.32-1.1-5.17-2.33-10.31-3.8-15.36-1.48-5.04-3.17-10.04-5.43-14.7-.17-.32-1.12-2.57-2.99-5.32-.94-1.36-2.16-2.82-3.72-3.84-.78-.48-1.64-.83-2.55-.92-.92-.1-1.91.03-2.78.37-1.76.7-3.07,2.39-3.83,4.19-.77,1.8-1.11,3.67-1.23,5.26-.12,1.6.01,2.94.21,3.84.2.91.53,1.31.46,1.39-.05.08-.6-.27-1.01-1.21-.4-.92-.73-2.33-.78-4.04-.05-1.71.13-3.73.85-5.82.36-1.04.86-2.1,1.61-3.07.73-.96,1.71-1.84,2.89-2.39,1.19-.55,2.47-.78,3.75-.72,1.31.06,2.55.5,3.6,1.08,2.07,1.23,3.53,2.87,4.63,4.33,1.12,1.47,1.89,2.81,2.46,3.79.56.99.89,1.65.97,1.82,2.38,4.91,4.09,10.02,5.6,15.16,1.5,5.15,2.74,10.35,3.85,15.57,2.2,10.45,3.87,20.98,5.23,31.54,1.36,10.56,2.41,21.16,3.18,31.79.76,10.62,1.25,21.27,1.27,31.94-.02,10.67-.51,21.32-1.27,31.94-.77,10.62-1.82,21.22-3.18,31.79-1.37,10.56-3.03,21.1-5.24,31.54-1.11,5.22-2.35,10.42-3.85,15.57-1.51,5.14-3.22,10.25-5.6,15.16-.08.18-.41.83-.97,1.82-.57.99-1.34,2.33-2.46,3.79-1.11,1.46-2.56,3.1-4.63,4.33-1.05.59-2.29,1.02-3.6,1.08-1.29.06-2.57-.17-3.75-.72-1.18-.55-2.16-1.43-2.89-2.39-.74-.97-1.24-2.03-1.61-3.07-.72-2.09-.9-4.11-.85-5.82.05-1.71.37-3.12.78-4.04.41-.94.96-1.29,1.01-1.21.07.08-.26.49-.46,1.39-.2.9-.33,2.24-.21,3.84.12,1.59.45,3.46,1.23,5.26.75,1.79,2.06,3.49,3.83,4.19.87.34,1.86.47,2.78.37.9-.09,1.76-.44,2.55-.92,1.55-1.02,2.78-2.48,3.72-3.84,1.87-2.75,2.82-5,2.99-5.32Z"/><path class="cls-1" d="M52.77,419.42c-2.38-4.91-4.09-10.02-5.6-15.16-1.5-5.15-2.74-10.35-3.85-15.57-2.2-10.45-3.87-20.98-5.24-31.54-1.36-10.56-2.41-21.16-3.18-31.79-.76-10.62-1.25-21.27-1.27-31.94.02-10.67.51-21.32,1.27-31.94.77-10.62,1.82-21.22,3.18-31.79,1.37-10.56,3.03-21.1,5.23-31.54,1.11-5.22,2.35-10.42,3.85-15.57,1.51-5.14,3.22-10.25,5.6-15.16.08-.18.41-.83.97-1.82.57-.99,1.34-2.33,2.46-3.79,1.11-1.46,2.56-3.1,4.63-4.33,1.05-.59,2.29-1.02,3.6-1.08,1.29-.06,2.57.17,3.75.72,1.18.55,2.16,1.43,2.89,2.39.74.97,1.24,2.03,1.61,3.07.72,2.09.9,4.11.85,5.82-.05,1.71-.37,3.12-.78,4.04-.41.94-.96,1.29-1.01,1.21-.07-.08.26-.49.46-1.39.2-.9.33-2.24.21-3.84-.12-1.59-.45-3.46-1.23-5.26-.75-1.79-2.06-3.49-3.83-4.19-.87-.34-1.86-.47-2.78-.37-.9.09-1.76.44-2.55.92-1.55,1.02-2.78,2.48-3.72,3.84-1.87,2.75-2.82,5-2.99,5.32-2.26,4.66-3.95,9.66-5.43,14.7-1.47,5.05-2.7,10.19-3.8,15.36-2.18,10.34-3.84,20.81-5.2,31.32-1.35,10.51-2.4,21.06-3.16,31.63-.75,10.57-1.25,21.16-1.26,31.73.02,10.57.51,21.17,1.26,31.73.76,10.57,1.81,21.12,3.16,31.63,1.36,10.5,3.02,20.97,5.2,31.32,1.1,5.17,2.33,10.31,3.8,15.36,1.48,5.04,3.17,10.04,5.43,14.7.17.32,1.12,2.57,2.99,5.32.94,1.36,2.16,2.82,3.72,3.84.78.48,1.64.83,2.55.92.92.1,1.91-.03,2.78-.37,1.76-.7,3.08-2.39,3.83-4.19.77-1.8,1.11-3.67,1.23-5.26.12-1.6-.01-2.94-.21-3.84-.2-.91-.53-1.31-.46-1.39.05-.08.6.27,1.01,1.21.4.92.73,2.33.78,4.04.05,1.71-.13,3.73-.85,5.82-.36,1.04-.86,2.1-1.61,3.07-.73.96-1.71,1.84-2.89,2.39-1.19.55-2.47.78-3.75.72-1.31-.06-2.55-.5-3.6-1.08-2.07-1.23-3.53-2.87-4.63-4.33-1.12-1.47-1.89-2.81-2.46-3.79-.56-.99-.89-1.65-.97-1.82Z"/></g></svg>