<?xml version="1.0" encoding="UTF-8"?><svg id="Line" xmlns="http://www.w3.org/2000/svg" viewBox="0 0 617.81 642.97"><defs><style>.cls-1{fill:#fff;stroke-width:0px;}</style></defs><g id="DecorativeElement_5_Lines"><path class="cls-1" d="M487.79,533.94l8-6.95,7.67-7.31,1.91-1.83,1.83-1.92,3.66-3.84,3.66-3.84,3.47-4.01,3.47-4.01,1.73-2,1.64-2.08,6.55-8.33,6.15-8.63,1.54-2.16c.5-.73.96-1.48,1.44-2.22l2.86-4.46c7.54-11.94,14.38-24.36,19.94-37.35,1.52-3.19,2.75-6.51,4.05-9.79,1.29-3.29,2.64-6.55,3.7-9.93,1.11-3.35,2.31-6.68,3.35-10.05l2.89-10.19c14.58-54.62,11.98-113.7-7.42-166.81-4.93-13.24-10.8-26.13-17.55-38.54l-5.28-9.19c-1.8-3.04-3.78-5.97-5.67-8.95l-1.43-2.23c-.47-.75-.96-1.48-1.48-2.2l-3.07-4.32c-2.05-2.88-4.05-5.79-6.29-8.53-8.53-11.27-18.11-21.72-28.3-31.5-5.02-4.98-10.45-9.51-15.81-14.11l-8.33-6.55c-1.37-1.12-2.82-2.13-4.26-3.15l-4.32-3.07c-1.45-1.01-2.86-2.07-4.33-3.05l-4.46-2.86-4.46-2.86c-.75-.47-1.48-.97-2.24-1.42l-2.3-1.32-9.19-5.28-9.43-4.83c-12.7-6.19-25.81-11.55-39.28-15.81-13.51-4.16-27.29-7.36-41.25-9.6-13.99-2.03-28.1-3.06-42.24-3.19-14.13.13-28.25,1.17-42.24,3.19-13.95,2.24-27.74,5.44-41.25,9.6-13.48,4.27-26.58,9.63-39.28,15.81l-9.43,4.83-9.19,5.28-2.3,1.32c-.76.45-1.49.95-2.24,1.42l-4.46,2.86-4.46,2.86c-1.47.98-2.89,2.04-4.33,3.05l-4.32,3.07c-1.44,1.02-2.89,2.03-4.26,3.15l-8.33,6.55c-5.36,4.6-10.79,9.13-15.81,14.11-10.19,9.78-19.77,20.23-28.3,31.5-2.24,2.73-4.23,5.65-6.29,8.53l-3.07,4.32c-.52.71-1.01,1.45-1.48,2.2l-1.43,2.23c-1.88,2.99-3.86,5.92-5.67,8.95l-5.28,9.19c-6.75,12.41-12.62,25.3-17.55,38.54-19.4,53.11-22,112.18-7.42,166.81l2.89,10.19c1.05,3.37,2.24,6.7,3.35,10.05,1.06,3.37,2.41,6.64,3.7,9.93,1.31,3.28,2.53,6.6,4.05,9.79,5.56,13,12.4,25.42,19.94,37.35l2.86,4.46c.48.74.94,1.49,1.44,2.22l1.54,2.16,6.15,8.63,6.55,8.33,1.64,2.08,1.73,2,3.47,4.01,3.47,4.01,3.66,3.84,3.66,3.84,1.83,1.92,1.91,1.83,7.67,7.31,8,6.95c.39.32,1.27,1.14,2.67,2.29,1.42,1.12,3.31,2.62,5.62,4.44,1.15.91,2.4,1.9,3.75,2.97,1.35,1.06,2.87,2.08,4.44,3.23,3.18,2.23,6.59,4.88,10.55,7.32,1.95,1.26,3.98,2.57,6.07,3.92.52.34,1.05.68,1.58,1.02.54.32,1.09.64,1.64.96,1.11.64,2.23,1.29,3.36,1.95,2.27,1.31,4.6,2.66,6.96,4.03,2.43,1.26,4.91,2.54,7.42,3.84,1.26.65,2.52,1.31,3.8,1.97,1.28.65,2.61,1.21,3.92,1.83,2.64,1.21,5.3,2.43,7.98,3.66,2.7,1.18,5.48,2.22,8.24,3.35,2.76,1.1,5.52,2.26,8.35,3.17,2.82.97,5.63,1.94,8.43,2.91,1.39.51,2.82.88,4.23,1.3,1.41.41,2.82.82,4.22,1.23,1.4.41,2.8.81,4.19,1.22.7.2,1.38.41,2.08.6.7.17,1.4.33,2.09.5,2.78.66,5.52,1.31,8.22,1.95,2.68.7,5.37,1.15,7.99,1.64,2.62.49,5.18.97,7.67,1.43,5,.78,9.76,1.35,14.13,1.97,8.78.83,16.1,1.51,21.23,1.6,2.52.12,4.53.22,5.95.29,1.37.08,2.1.15,2.1.2s-.73.08-2.11.09c-1.43,0-3.43,0-5.96,0-5.15.09-12.49-.41-21.33-1.07-4.4-.54-9.18-1.03-14.22-1.73-2.51-.43-5.09-.87-7.73-1.32-2.64-.45-5.35-.87-8.06-1.54-2.72-.61-5.49-1.23-8.29-1.86-.7-.16-1.4-.32-2.11-.47-.7-.18-1.4-.38-2.1-.57-1.4-.39-2.81-.78-4.23-1.17-1.42-.39-2.84-.79-4.27-1.18-1.42-.41-2.87-.76-4.28-1.26-2.83-.94-5.67-1.89-8.52-2.83-2.87-.89-5.65-2.02-8.45-3.11-2.79-1.11-5.6-2.13-8.34-3.29-2.72-1.21-5.41-2.42-8.08-3.61-1.33-.61-2.68-1.17-3.97-1.8-1.29-.65-2.57-1.3-3.85-1.95-2.55-1.29-5.06-2.56-7.52-3.81-2.4-1.36-4.76-2.7-7.06-4.01-1.15-.66-2.29-1.3-3.41-1.94-.56-.32-1.12-.64-1.67-.96-.54-.34-1.07-.68-1.6-1.02-2.12-1.35-4.17-2.65-6.15-3.91-4.02-2.44-7.48-5.09-10.71-7.31-1.59-1.15-3.14-2.17-4.51-3.23-1.37-1.07-2.64-2.06-3.81-2.97-2.34-1.83-4.26-3.33-5.7-4.45-1.42-1.15-2.31-1.97-2.71-2.3l-8.08-7.02-7.75-7.39-1.93-1.85-1.85-1.94-3.69-3.88-3.69-3.88-3.5-4.05-3.5-4.05-1.75-2.02-1.66-2.1-6.61-8.42-6.21-8.72-1.55-2.18c-.5-.74-.97-1.5-1.46-2.25l-2.89-4.51c-7.62-12.06-14.53-24.61-20.15-37.74-1.54-3.22-2.78-6.57-4.1-9.89-1.31-3.32-2.67-6.62-3.74-10.03-1.12-3.39-2.33-6.75-3.39-10.16l-2.92-10.3c-14.73-55.19-12.1-114.85,7.5-168.52,4.98-13.38,10.91-26.4,17.73-38.94l5.34-9.28c1.82-3.07,3.82-6.03,5.73-9.05l1.44-2.25c.47-.76.97-1.5,1.5-2.22l3.1-4.36c2.07-2.9,4.09-5.85,6.35-8.62,8.61-11.39,18.29-21.95,28.59-31.82,5.07-5.02,10.56-9.6,15.97-14.25l8.42-6.62c1.38-1.13,2.85-2.15,4.3-3.18l4.36-3.1c1.46-1.03,2.89-2.09,4.38-3.08l4.51-2.89,4.51-2.89c.76-.47,1.49-.98,2.26-1.43l2.32-1.33,9.29-5.33,9.53-4.88c12.83-6.25,26.08-11.66,39.69-15.97,13.65-4.21,27.58-7.43,41.68-9.7,14.13-2.05,28.39-3.1,42.67-3.23,14.28.13,28.53,1.18,42.67,3.23,14.1,2.26,28.03,5.49,41.68,9.7,13.62,4.31,26.86,9.72,39.69,15.97l9.53,4.88,9.29,5.33,2.32,1.33c.77.45,1.51.95,2.26,1.43l4.51,2.89,4.51,2.89c1.48.99,2.92,2.06,4.38,3.08l4.36,3.1c1.45,1.03,2.92,2.05,4.3,3.18l8.42,6.62c5.42,4.65,10.9,9.22,15.97,14.25,10.3,9.88,19.97,20.44,28.59,31.82,2.26,2.76,4.28,5.71,6.35,8.62l3.1,4.36c.53.72,1.02,1.46,1.5,2.22l1.44,2.25c1.9,3.02,3.9,5.98,5.73,9.05l5.34,9.28c6.82,12.54,12.75,25.56,17.73,38.94,19.6,53.67,22.23,113.33,7.5,168.52l-2.92,10.3c-1.06,3.41-2.26,6.77-3.39,10.16-1.08,3.41-2.44,6.71-3.74,10.03-1.32,3.32-2.56,6.67-4.1,9.89-5.62,13.13-12.53,25.68-20.15,37.74l-2.89,4.51c-.49.75-.95,1.51-1.46,2.25l-1.55,2.18-6.21,8.72-6.61,8.42-1.66,2.1-1.75,2.02-3.5,4.05-3.5,4.05-3.69,3.88-3.69,3.88-1.85,1.94-1.93,1.85-7.75,7.39-8.08,7.02c-.39.32-1.29,1.15-2.71,2.3-1.44,1.12-3.36,2.63-5.7,4.45-1.17.91-2.44,1.9-3.81,2.97-1.37,1.06-2.91,2.09-4.51,3.23-3.23,2.23-6.69,4.87-10.71,7.31-1.98,1.26-4.04,2.57-6.15,3.91-.53.34-1.06.68-1.6,1.02-.55.32-1.11.64-1.67.96-1.12.64-2.26,1.29-3.41,1.94-2.3,1.31-4.66,2.64-7.06,4.01-2.46,1.25-4.97,2.52-7.52,3.81-1.27.64-2.56,1.29-3.85,1.95-1.3.64-2.64,1.2-3.97,1.8-2.67,1.19-5.37,2.4-8.08,3.61-2.73,1.17-5.55,2.19-8.34,3.29-2.8,1.08-5.58,2.22-8.45,3.11-2.85.95-5.69,1.89-8.52,2.83-1.4.5-2.85.86-4.28,1.26-1.43.4-2.85.79-4.27,1.18-1.42.39-2.83.78-4.23,1.17-.7.19-1.4.4-2.1.57-.71.16-1.41.32-2.11.47-2.8.63-5.57,1.25-8.29,1.86-2.71.67-5.42,1.08-8.06,1.54-2.64.45-5.22.89-7.73,1.32-5.04.7-9.83,1.2-14.22,1.73-8.84.67-16.18,1.17-21.33,1.07-2.53,0-4.54,0-5.96,0-1.37-.01-2.11-.04-2.11-.09s.73-.12,2.1-.2c1.42-.07,3.43-.17,5.95-.29,5.13-.09,12.45-.77,21.23-1.6,4.37-.62,9.12-1.19,14.13-1.97,2.49-.46,5.05-.94,7.67-1.43,2.62-.49,5.3-.94,7.99-1.64,2.7-.64,5.44-1.29,8.22-1.95.69-.17,1.39-.33,2.09-.5.69-.18,1.38-.4,2.08-.6,1.39-.4,2.78-.81,4.19-1.22,1.4-.41,2.81-.82,4.22-1.23,1.41-.42,2.84-.79,4.23-1.3,2.8-.96,5.61-1.93,8.43-2.91,2.84-.91,5.59-2.07,8.35-3.17,2.75-1.13,5.54-2.16,8.24-3.35,2.68-1.23,5.35-2.45,7.98-3.66,1.31-.61,2.64-1.18,3.92-1.83,1.27-.66,2.54-1.32,3.8-1.97,2.51-1.3,4.99-2.58,7.42-3.84,2.37-1.37,4.69-2.72,6.96-4.03,1.13-.66,2.25-1.31,3.36-1.95.55-.32,1.1-.64,1.64-.96.53-.34,1.06-.68,1.58-1.02,2.09-1.35,4.11-2.66,6.07-3.92,3.96-2.45,7.37-5.1,10.55-7.32,1.57-1.15,3.09-2.17,4.44-3.23,1.35-1.06,2.6-2.06,3.75-2.97,2.3-1.82,4.2-3.32,5.62-4.44,1.4-1.15,2.28-1.96,2.67-2.29Z"/><path class="cls-1" d="M3.09,245.65c-.81,8.81.62,17.8,2.8,26.49,1.09,4.36,2.44,8.66,3.94,12.91,1.49,4.25,3.13,8.46,4.92,12.61,7.11,16.62,16.01,32.46,25.8,47.69,9.88,15.19,20.47,29.93,32.53,43.42,12.04,13.52,25.07,26.16,38.47,38.39,13.4,12.24,27.17,24.08,40.88,36.03,13.7,11.95,27.37,23.98,40.38,36.75,6.49,6.4,12.8,13,18.75,19.94,5.94,6.94,11.53,14.23,16.37,22.05,1.19,1.97,2.31,3.98,3.46,5.97,1.08,2.01,2.14,4.03,3.17,6.07,2.06,4.08,4.01,8.22,5.83,12.42,3.62,8.4,6.72,17.06,8.9,25.99.15.64,1.19,4.8,2.02,10.8.8,5.99,1.31,13.91,0,21.63-.65,3.84-1.76,7.63-3.49,10.88-.85,1.63-1.9,3.1-3.08,4.33-1.19,1.22-2.57,2.17-4.03,2.64-1.46.47-2.96.39-4.1-.09-1.15-.46-1.96-1.18-2.52-1.81-1.11-1.3-1.39-2.24-1.33-2.26h0c.11-.07.57.77,1.74,1.86.58.53,1.38,1.1,2.39,1.42,1.01.32,2.24.3,3.46-.16,2.46-.95,4.59-3.56,6.06-6.65,1.49-3.11,2.42-6.75,2.92-10.46,1.01-7.45.32-15.13-.6-20.95-.94-5.83-2.04-9.88-2.19-10.51-2.14-8.73-5.18-17.25-8.75-25.53-1.79-4.14-3.71-8.23-5.75-12.26-1.02-2.02-2.07-4.01-3.14-6.01-1.12-1.95-2.22-3.9-3.38-5.83-4.73-7.65-10.23-14.83-16.1-21.69-5.88-6.86-12.14-13.41-18.59-19.76-12.94-12.69-26.56-24.7-40.26-36.64-13.7-11.93-27.49-23.79-40.93-36.07-13.44-12.27-26.55-24.97-38.68-38.6-6.05-6.82-11.83-13.92-17.25-21.27-5.4-7.34-10.6-14.84-15.55-22.5-9.86-15.34-18.83-31.3-26.03-48.11-1.81-4.2-3.47-8.46-4.98-12.79-1.52-4.32-2.89-8.7-4.01-13.16-2.22-8.89-3.73-18.12-2.88-27.47,0-.33.19-1.58.5-3.51.22-.96.44-2.08.8-3.34.19-.63.38-1.29.65-1.96.24-.68.52-1.37.84-2.08,1.24-2.84,3-5.92,5.35-8.86,2.32-2.93,5.31-5.76,9.03-7.47,1.85-.86,3.93-1.24,5.94-1.24,1,.01,2.01.15,3,.46.98.33,1.95.89,2.61,1.78.68.88.93,2.03.71,3.08-.12.52-.29,1.04-.73,1.49-.21.2-.53.41-.7.48-.2.1-.39.19-.6.27-1.6.66-3.2.93-4.67.98-1.47.02-2.85-.14-4-.73-.6-.3-1.15-.89-1.15-1.51-.02-.62.37-1.14.68-1.44.63-.62,1.23-.91,1.62-1.12.41-.19.63-.26.66-.22.09.11-.82.56-1.84,1.72-.23.3-.41.6-.38.98.05.39.37.66.79.83.94.4,2.22.49,3.56.38,1.34-.12,2.8-.45,4.18-1.11.34-.16.74-.37.82-.49.15-.15.26-.48.31-.78.1-.64-.08-1.33-.52-1.84-.43-.53-1.1-.89-1.86-1.12-.78-.2-1.62-.3-2.5-.27-1.73.08-3.47.45-5.08,1.26-3.22,1.6-5.92,4.27-8.01,7.09-2.12,2.81-3.71,5.77-4.8,8.44-.28.67-.53,1.31-.73,1.94-.23.62-.39,1.23-.55,1.8-.3,1.15-.48,2.21-.67,3.1-.25,1.81-.41,2.98-.41,3.29Z"/><path class="cls-1" d="M617.56,245.37c.86,9.35-.66,18.58-2.88,27.47-1.12,4.46-2.49,8.84-4.01,13.16-1.52,4.32-3.18,8.59-4.98,12.79-7.19,16.82-16.17,32.78-26.03,48.11-4.95,7.66-10.14,15.16-15.55,22.5-5.42,7.34-11.19,14.44-17.25,21.27-12.14,13.63-25.24,26.33-38.68,38.6-13.44,12.28-27.23,24.14-40.93,36.07-13.69,11.94-27.32,23.94-40.26,36.64-6.45,6.36-12.71,12.91-18.59,19.76-5.87,6.86-11.38,14.04-16.1,21.69-1.16,1.92-2.26,3.88-3.38,5.83-1.07,1.99-2.12,3.99-3.14,6.01-2.04,4.03-3.96,8.12-5.75,12.26-3.57,8.28-6.62,16.8-8.75,25.53-.15.62-1.24,4.67-2.19,10.51-.92,5.82-1.61,13.5-.6,20.95.5,3.71,1.43,7.36,2.92,10.46,1.46,3.08,3.59,5.69,6.06,6.65,1.21.47,2.45.49,3.46.16,1.01-.32,1.81-.88,2.39-1.42,1.17-1.09,1.63-1.93,1.74-1.86h0c.06.03-.22.96-1.33,2.26-.56.64-1.37,1.35-2.52,1.81-1.14.47-2.64.55-4.1.09-1.46-.47-2.84-1.43-4.03-2.64-1.18-1.23-2.22-2.7-3.08-4.33-1.73-3.25-2.84-7.04-3.49-10.88-1.31-7.72-.81-15.64,0-21.63.82-6.01,1.86-10.17,2.02-10.8,2.18-8.93,5.28-17.59,8.9-25.99,1.81-4.2,3.77-8.34,5.83-12.42,1.03-2.04,2.1-4.06,3.17-6.07,1.14-1.99,2.27-4,3.46-5.97,4.83-7.82,10.42-15.11,16.37-22.05,5.95-6.94,12.26-13.54,18.75-19.94,13.02-12.77,26.68-24.81,40.38-36.75,13.71-11.94,27.48-23.79,40.88-36.03,13.4-12.23,26.43-24.87,38.47-38.39,12.06-13.49,22.66-28.23,32.53-43.42,9.79-15.23,18.69-31.07,25.8-47.69,1.79-4.15,3.42-8.36,4.92-12.61,1.5-4.25,2.84-8.55,3.94-12.91,2.18-8.69,3.62-17.68,2.8-26.49-.01-.21-.05-.82-.2-1.75-.06-.46-.14-1.01-.22-1.63-.13-.61-.27-1.29-.42-2.03-.62-2.92-2.17-6.78-4.59-10.68-1.23-1.94-2.69-3.87-4.41-5.61-1.72-1.73-3.71-3.27-5.93-4.22-.28-.11-.55-.25-.83-.35l-.86-.24c-.29-.07-.57-.19-.86-.22l-.88-.11c-1.16-.17-2.39-.1-3.43.17-1.06.26-1.91.86-2.29,1.67-.2.4-.24.87-.19,1.3.06.43.25.8.47.94,1.71.97,3.65,1.41,5.35,1.49.85.03,1.66-.01,2.36-.19.73-.18,1.24-.42,1.44-.88.09-.23.06-.48-.04-.69-.08-.2-.22-.39-.38-.59-.32-.36-.65-.65-.92-.87-.55-.45-.87-.68-.83-.74.03-.05.41.07,1.05.43.32.18.7.43,1.11.8.36.33.96,1.05.75,1.86-.1.39-.4.75-.77,1.01-.38.26-.74.41-1.15.54-.81.26-1.69.37-2.62.39-1.87.02-3.95-.3-6.03-1.35-.35-.22-.68-.52-.85-.86-.2-.33-.31-.68-.38-1.04-.13-.71-.08-1.46.21-2.15.29-.68.76-1.3,1.34-1.75.29-.22.6-.41.92-.58.32-.13.65-.31.98-.39,1.35-.41,2.7-.51,4.07-.38l1.03.09c.35.03.67.14,1.01.21l1.01.25c.33.1.65.24.97.36,2.58,1,4.83,2.65,6.75,4.46,1.92,1.83,3.54,3.85,4.9,5.88,2.68,4.07,4.44,8.14,5.21,11.37.18.8.35,1.53.5,2.18.1.66.2,1.24.27,1.74.17.99.23,1.64.24,1.86Z"/><path class="cls-1" d="M45.53,509.51c-.66-2.99-.78-6.09-.45-9.12.37-3.03,1.21-5.95,2.27-8.76.62-1.37,1.14-2.77,1.9-4.08.37-.66.69-1.34,1.1-1.98l1.25-1.89c1.77-2.44,3.77-4.76,6.16-6.64l.87-.73.93-.65c.63-.42,1.23-.89,1.88-1.27,1.31-.75,2.6-1.53,3.99-2.12,1.35-.68,2.77-1.15,4.17-1.69.71-.25,1.43-.43,2.15-.65.72-.21,1.43-.43,2.16-.58,5.81-1.35,11.76-1.81,17.64-1.65,11.79.33,23.34,2.65,34.59,5.72,11.25,3.11,22.23,7.07,33.01,11.47,21.53,8.87,42.24,19.58,62.31,31.31,20.05,11.78,39.47,24.62,57.99,38.71.65.51,8.53,6.69,15.82,13.25,7.35,6.49,13.94,13.48,13.66,13.75-.28.28-7.32-6.16-14.96-12.21-7.58-6.12-15.6-12-16.25-12.52-18.4-14.01-37.75-26.8-57.7-38.52-19.97-11.68-40.58-22.33-61.95-31.13-10.69-4.37-21.57-8.29-32.68-11.36-11.1-3.03-22.47-5.3-33.9-5.61-5.7-.15-11.41.3-16.91,1.58-.69.13-1.36.34-2.04.54-.67.21-1.36.38-2.02.61-1.31.5-2.64.94-3.89,1.57-1.29.55-2.48,1.27-3.68,1.96-.6.35-1.15.78-1.72,1.17l-.85.59-.8.67c-2.19,1.71-4.01,3.83-5.63,6.07l-1.15,1.74c-.37.59-.67,1.22-1.01,1.83-.71,1.2-1.19,2.53-1.77,3.8-.99,2.61-1.76,5.29-2.09,8.03-.3,2.74-.18,5.5.41,8.17.07.38.54,2.91,2.13,6.2,1.54,3.31,4.51,7.14,8.03,10.37,3.53,3.23,7.55,5.87,10.64,7.67,3.1,1.81,5.27,2.8,5.2,2.98-.07.19-2.4-.47-5.71-2-3.31-1.52-7.59-3.96-11.45-7.13-3.85-3.17-7.21-7.12-9.05-10.68-1.89-3.53-2.51-6.37-2.59-6.79Z"/><path class="cls-1" d="M569.49,508.9c.59-2.67.7-5.44.41-8.17-.33-2.74-1.11-5.42-2.09-8.03-.58-1.27-1.07-2.6-1.77-3.8-.34-.61-.64-1.24-1.01-1.83l-1.15-1.74c-1.63-2.24-3.45-4.36-5.63-6.07l-.8-.67-.85-.59c-.58-.39-1.12-.82-1.72-1.17-1.21-.69-2.4-1.42-3.68-1.96-1.24-.64-2.58-1.07-3.89-1.57-.66-.24-1.34-.4-2.02-.61-.67-.2-1.34-.41-2.04-.54-5.49-1.28-11.2-1.73-16.91-1.58-11.43.32-22.8,2.59-33.9,5.61-11.11,3.07-21.99,6.99-32.68,11.36-21.37,8.81-41.98,19.46-61.95,31.13-19.95,11.72-39.29,24.51-57.7,38.52-.65.51-8.67,6.39-16.25,12.52-7.64,6.05-14.68,12.49-14.96,12.21-.28-.27,6.31-7.26,13.66-13.75,7.29-6.56,15.17-12.73,15.82-13.25,18.52-14.09,37.94-26.93,57.99-38.71,20.06-11.73,40.77-22.44,62.31-31.31,10.77-4.4,21.75-8.37,33.01-11.47,11.25-3.06,22.8-5.39,34.59-5.72,5.88-.15,11.83.3,17.64,1.65.73.14,1.45.37,2.16.58.71.22,1.44.4,2.15.65,1.4.53,2.83,1,4.17,1.69,1.38.59,2.68,1.37,3.99,2.12.65.38,1.25.85,1.88,1.27l.93.65.87.73c2.39,1.87,4.39,4.19,6.16,6.64l1.25,1.89c.4.64.73,1.32,1.1,1.98.77,1.31,1.28,2.71,1.9,4.08,1.06,2.81,1.91,5.73,2.27,8.76.33,3.03.21,6.13-.45,9.12-.08.42-.7,3.26-2.59,6.79-1.83,3.56-5.2,7.52-9.05,10.68-3.86,3.17-8.14,5.61-11.45,7.13-3.31,1.53-5.65,2.18-5.71,2-.07-.18,2.1-1.18,5.2-2.98,3.1-1.79,7.11-4.44,10.64-7.67,3.52-3.23,6.49-7.06,8.03-10.37,1.6-3.28,2.06-5.82,2.13-6.2Z"/><path class="cls-1" d="M.24,397.6c-.86-9.35.66-18.58,2.88-27.47,1.12-4.46,2.49-8.84,4.01-13.16,1.52-4.32,3.18-8.59,4.98-12.79,7.19-16.82,16.17-32.78,26.03-48.11,4.95-7.66,10.14-15.16,15.55-22.5,5.42-7.34,11.19-14.44,17.25-21.27,12.14-13.63,25.24-26.33,38.68-38.6,13.44-12.28,27.23-24.14,40.93-36.07,13.69-11.94,27.32-23.94,40.26-36.64,6.45-6.36,12.71-12.91,18.59-19.76,5.87-6.86,11.38-14.04,16.1-21.69,1.16-1.92,2.26-3.88,3.38-5.83,1.07-1.99,2.12-3.99,3.14-6.01,2.04-4.03,3.96-8.12,5.75-12.26,3.57-8.28,6.62-16.8,8.75-25.53.15-.62,1.24-4.67,2.19-10.51.92-5.82,1.61-13.5.6-20.95-.5-3.71-1.43-7.36-2.92-10.46-1.46-3.08-3.59-5.69-6.06-6.65-1.21-.47-2.45-.49-3.46-.16-1.01.32-1.81.88-2.39,1.42-1.17,1.09-1.63,1.93-1.74,1.86h0c-.06-.03.22-.96,1.33-2.26.56-.64,1.37-1.35,2.52-1.81,1.14-.47,2.64-.55,4.1-.09,1.46.47,2.84,1.43,4.03,2.64,1.18,1.23,2.22,2.7,3.08,4.33,1.73,3.25,2.84,7.04,3.49,10.88,1.31,7.72.81,15.64,0,21.63-.82,6.01-1.86,10.17-2.02,10.8-2.18,8.93-5.28,17.59-8.9,25.99-1.81,4.2-3.77,8.34-5.83,12.42-1.03,2.04-2.1,4.06-3.17,6.07-1.14,1.99-2.27,4-3.46,5.97-4.83,7.82-10.42,15.11-16.37,22.05-5.95,6.94-12.26,13.54-18.75,19.94-13.02,12.77-26.68,24.81-40.38,36.75-13.71,11.94-27.48,23.79-40.88,36.03-13.4,12.23-26.43,24.87-38.47,38.39-12.06,13.49-22.66,28.23-32.53,43.42-9.79,15.23-18.69,31.07-25.8,47.69-1.79,4.15-3.42,8.36-4.92,12.61-1.5,4.25-2.84,8.55-3.94,12.91-2.18,8.69-3.62,17.68-2.8,26.49,0,.32.16,1.49.41,3.29.19.89.37,1.95.67,3.1.16.57.32,1.17.55,1.8.2.63.45,1.28.73,1.94,1.09,2.67,2.68,5.64,4.8,8.44,2.09,2.81,4.79,5.48,8.01,7.09,1.61.81,3.35,1.18,5.08,1.26.88.02,1.72-.07,2.5-.27.76-.23,1.43-.6,1.86-1.12.44-.51.62-1.21.52-1.84-.05-.3-.16-.63-.31-.78-.08-.12-.48-.33-.82-.49-1.38-.65-2.84-.99-4.18-1.11-1.34-.11-2.62-.02-3.56.38-.42.17-.74.44-.79.83-.03.39.14.68.38.98,1.02,1.17,1.93,1.61,1.84,1.72-.02.04-.25-.03-.66-.22-.39-.21-.99-.5-1.62-1.12-.3-.3-.69-.82-.68-1.44,0-.62.54-1.21,1.15-1.51,1.15-.59,2.52-.75,4-.73,1.47.04,3.08.31,4.67.98.2.08.4.17.6.27.17.07.49.28.7.48.44.46.61.97.73,1.49.21,1.04-.04,2.2-.71,3.08-.66.89-1.64,1.44-2.61,1.78-.99.31-2,.45-3,.46-2.01,0-4.09-.38-5.94-1.24-3.72-1.7-6.71-4.53-9.03-7.47-2.35-2.94-4.11-6.03-5.35-8.86-.32-.71-.6-1.4-.84-2.08-.26-.67-.46-1.33-.65-1.96-.36-1.26-.58-2.38-.8-3.34-.31-1.92-.5-3.17-.5-3.51Z"/><path class="cls-1" d="M614.72,397.32c.81-8.81-.62-17.8-2.8-26.49-1.09-4.36-2.44-8.66-3.94-12.91-1.49-4.25-3.13-8.46-4.92-12.61-7.11-16.62-16.01-32.46-25.8-47.69-9.88-15.19-20.47-29.93-32.53-43.42-12.04-13.52-25.07-26.16-38.47-38.39-13.4-12.24-27.17-24.08-40.88-36.03-13.7-11.95-27.37-23.98-40.38-36.75-6.49-6.4-12.8-13-18.75-19.94-5.94-6.94-11.53-14.23-16.37-22.05-1.19-1.97-2.31-3.98-3.46-5.97-1.08-2.01-2.14-4.03-3.17-6.07-2.06-4.08-4.01-8.22-5.83-12.42-3.62-8.4-6.72-17.06-8.9-25.99-.15-.64-1.19-4.8-2.02-10.8-.8-5.99-1.31-13.91,0-21.63.65-3.84,1.76-7.63,3.49-10.88.85-1.63,1.9-3.1,3.08-4.33,1.19-1.22,2.57-2.17,4.03-2.64,1.46-.47,2.96-.39,4.1.09,1.15.46,1.96,1.18,2.52,1.81,1.11,1.3,1.39,2.24,1.33,2.26h0c-.11.07-.57-.77-1.74-1.86-.58-.53-1.38-1.1-2.39-1.42-1.01-.32-2.24-.3-3.46.16-2.46.95-4.59,3.56-6.06,6.65-1.49,3.11-2.42,6.75-2.92,10.46-1.01,7.45-.32,15.13.6,20.95.94,5.83,2.04,9.88,2.19,10.51,2.14,8.73,5.18,17.25,8.75,25.53,1.79,4.14,3.71,8.23,5.75,12.26,1.02,2.02,2.07,4.01,3.14,6.01,1.12,1.95,2.22,3.9,3.38,5.83,4.73,7.65,10.23,14.83,16.1,21.69,5.88,6.86,12.14,13.41,18.59,19.76,12.94,12.69,26.56,24.7,40.26,36.64,13.7,11.93,27.49,23.79,40.93,36.07,13.44,12.27,26.55,24.97,38.68,38.6,6.05,6.82,11.83,13.92,17.25,21.27,5.4,7.34,10.6,14.84,15.55,22.5,9.86,15.34,18.83,31.3,26.03,48.11,1.81,4.2,3.47,8.46,4.98,12.79,1.52,4.32,2.89,8.7,4.01,13.16,2.22,8.89,3.73,18.12,2.88,27.47-.01.23-.07.87-.24,1.86-.08.49-.17,1.08-.27,1.74-.15.65-.32,1.38-.5,2.18-.77,3.23-2.53,7.29-5.21,11.37-1.36,2.03-2.98,4.05-4.9,5.88-1.92,1.82-4.17,3.46-6.75,4.46-.32.12-.64.26-.97.36l-1.01.25c-.34.07-.67.18-1.01.21l-1.03.09c-1.37.13-2.72.02-4.07-.38-.33-.08-.66-.26-.98-.39-.32-.17-.63-.36-.92-.58-.58-.45-1.05-1.06-1.34-1.75-.29-.69-.34-1.45-.21-2.15.07-.36.19-.71.38-1.04.17-.34.5-.64.85-.86,2.07-1.04,4.16-1.37,6.03-1.35.93.02,1.82.13,2.62.39.41.13.77.28,1.15.54.37.26.67.61.77,1.01.21.81-.38,1.53-.75,1.86-.41.36-.79.62-1.11.8-.64.36-1.02.48-1.05.43-.04-.06.29-.29.83-.74.28-.22.6-.51.92-.87.16-.19.3-.38.38-.59.1-.2.12-.46.04-.69-.2-.46-.71-.69-1.44-.88-.7-.17-1.51-.22-2.36-.19-1.69.08-3.64.51-5.35,1.49-.22.13-.41.5-.47.94-.06.43,0,.89.19,1.3.38.81,1.23,1.41,2.29,1.67,1.04.27,2.27.34,3.43.17l.88-.11c.29-.03.58-.15.86-.22l.86-.24c.28-.1.56-.24.83-.35,2.22-.95,4.22-2.49,5.93-4.22,1.72-1.74,3.19-3.67,4.41-5.61,2.42-3.9,3.97-7.76,4.59-10.68.15-.74.3-1.42.42-2.03.08-.62.16-1.17.22-1.63.14-.93.19-1.54.2-1.75Z"/><path class="cls-1" d="M48.32,134.07c-.59,2.67-.7,5.44-.41,8.17.33,2.74,1.11,5.42,2.09,8.03.58,1.27,1.07,2.6,1.77,3.8.34.61.64,1.24,1.01,1.83l1.15,1.74c1.63,2.24,3.45,4.36,5.63,6.07l.8.67.85.59c.58.39,1.12.82,1.72,1.17,1.21.69,2.4,1.42,3.68,1.96,1.24.64,2.58,1.07,3.89,1.57.66.24,1.34.4,2.02.61.67.2,1.34.41,2.04.54,5.49,1.28,11.2,1.73,16.91,1.58,11.43-.32,22.8-2.59,33.9-5.61,11.11-3.07,21.99-6.99,32.68-11.36,21.37-8.81,41.98-19.46,61.95-31.13,19.95-11.72,39.29-24.51,57.7-38.52.65-.51,8.67-6.39,16.25-12.52,7.64-6.05,14.68-12.49,14.96-12.21.28.27-6.31,7.26-13.66,13.75-7.29,6.56-15.17,12.73-15.82,13.25-18.52,14.09-37.94,26.93-57.99,38.71-20.06,11.73-40.77,22.44-62.31,31.31-10.77,4.4-21.75,8.37-33.01,11.47-11.25,3.06-22.8,5.39-34.59,5.72-5.88.15-11.83-.3-17.64-1.65-.73-.14-1.45-.37-2.16-.58-.71-.22-1.44-.4-2.15-.65-1.4-.53-2.83-1-4.17-1.69-1.38-.59-2.68-1.37-3.99-2.12-.65-.38-1.25-.85-1.88-1.27l-.93-.65-.87-.73c-2.39-1.87-4.39-4.19-6.16-6.64l-1.25-1.89c-.4-.64-.73-1.32-1.1-1.98-.77-1.31-1.28-2.71-1.9-4.08-1.06-2.81-1.91-5.73-2.27-8.76-.33-3.03-.21-6.13.45-9.12.08-.42.7-3.26,2.59-6.79,1.83-3.56,5.2-7.52,9.05-10.68,3.86-3.17,8.14-5.61,11.45-7.13,3.31-1.53,5.65-2.18,5.71-2,.07.18-2.1,1.18-5.2,2.98-3.1,1.79-7.11,4.44-10.64,7.67-3.52,3.23-6.49,7.06-8.03,10.37-1.6,3.28-2.06,5.82-2.13,6.2Z"/><path class="cls-1" d="M572.28,133.46c.66,2.99.78,6.09.45,9.12-.37,3.03-1.21,5.95-2.27,8.76-.62,1.37-1.14,2.77-1.9,4.08-.37.66-.69,1.34-1.1,1.98l-1.25,1.89c-1.77,2.44-3.77,4.76-6.16,6.64l-.87.73-.93.65c-.63.42-1.23.89-1.88,1.27-1.31.75-2.6,1.53-3.99,2.12-1.35.68-2.77,1.15-4.17,1.69-.71.25-1.43.43-2.15.65-.72.21-1.43.43-2.16.58-5.81,1.35-11.76,1.81-17.64,1.65-11.79-.33-23.34-2.65-34.59-5.72-11.25-3.11-22.23-7.07-33.01-11.47-21.53-8.87-42.24-19.58-62.31-31.31-20.05-11.78-39.47-24.62-57.99-38.71-.65-.51-8.53-6.69-15.82-13.25-7.35-6.49-13.94-13.48-13.66-13.75.28-.28,7.32,6.16,14.96,12.21,7.58,6.12,15.6,12,16.25,12.52,18.4,14.01,37.75,26.8,57.7,38.52,19.97,11.68,40.58,22.33,61.95,31.13,10.69,4.37,21.57,8.29,32.68,11.36,11.1,3.03,22.47,5.3,33.9,5.61,5.7.15,11.41-.3,16.91-1.58.69-.13,1.36-.34,2.04-.54.67-.21,1.36-.38,2.02-.61,1.31-.5,2.64-.94,3.89-1.57,1.29-.55,2.48-1.27,3.68-1.96.6-.35,1.15-.78,1.72-1.17l.85-.59.8-.67c2.19-1.71,4.01-3.83,5.63-6.07l1.15-1.74c.37-.59.67-1.22,1.01-1.83.71-1.2,1.19-2.53,1.77-3.8.99-2.61,1.76-5.29,2.09-8.03.3-2.74.18-5.5-.41-8.17-.07-.38-.54-2.91-2.13-6.2-1.54-3.31-4.51-7.14-8.03-10.37-3.53-3.23-7.55-5.87-10.64-7.67-3.1-1.81-5.27-2.8-5.2-2.98.07-.19,2.4.47,5.71,2,3.31,1.52,7.59,3.96,11.45,7.13,3.85,3.17,7.21,7.12,9.05,10.68,1.89,3.53,2.51,6.37,2.59,6.79Z"/><path class="cls-1" d="M308.9,115.99c35.12,0,69.77,9.02,100.22,26.07,29.51,16.53,54.74,40.34,72.98,68.86l.09.15.04.05.08.12.13.13c14.34,17.37,24.83,41.5,34.08,62.79,9.55,21.98,17.54,40.35,27.67,47.32-10.14,6.97-18.12,25.34-27.67,47.32-9.22,21.22-19.67,45.25-33.93,62.61l-.15.11-.3.47c-18.24,28.55-43.49,52.38-73.01,68.91-30.45,17.06-65.11,26.07-100.22,26.07s-69.77-9.02-100.22-26.07c-29.52-16.54-54.77-40.37-73-68.91l-.23-.37-.14-.12c-14.31-17.37-24.78-41.45-34.02-62.71-9.55-21.98-17.54-40.35-27.67-47.32,10.14-6.97,18.12-25.34,27.67-47.32,9.25-21.29,19.74-45.42,34.08-62.79l.13-.13.18-.28c18.24-28.55,43.49-52.38,73.01-68.91,30.45-17.06,65.11-26.07,100.22-26.07M308.9,112.99c-73.85,0-138.73,38.42-175.76,96.37,0,0,0,0,0,0-32.66,39.46-45.19,112.12-68.6,112.12,23.41,0,35.94,72.66,68.6,112.12,0,0,0,0,0,0,37.03,57.95,101.91,96.37,175.76,96.37s138.73-38.42,175.76-96.37c0,0,0,0,0,0,32.66-39.46,45.19-112.12,68.6-112.12-23.41,0-35.94-72.66-68.6-112.12,0,0,0,0,0,0-37.03-57.95-101.91-96.37-175.76-96.37h0Z"/></g></svg>