<?xml version="1.0" encoding="UTF-8"?><svg id="Line" xmlns="http://www.w3.org/2000/svg" viewBox="0 0 616.03 616.03"><defs><style>.cls-1{fill:#fff;stroke-width:0px;}</style></defs><g id="DecorativeElement_2_Lines"><path class="cls-1" d="M187.58,100.23c1.96-5.57,4.66-10.88,8-15.71,3.31-4.85,7.02-9.42,11.16-13.55,4.1-4.17,8.43-8.09,12.99-11.7,2.24-1.87,4.6-3.56,6.91-5.33,2.37-1.68,4.7-3.42,7.12-5.02,9.57-6.57,19.51-12.53,29.42-18.47,9.9-5.94,19.88-11.76,29.2-18.42.33-.24,4.46-2.93,8.22-5.92.47-.36.94-.73,1.42-1.1.44-.38.87-.75,1.31-1.12.84-.73,1.69-1.36,2.31-2,1.3-1.22,2.23-1.99,2.38-1.87s-.49,1.14-1.57,2.62c-.51.77-1.26,1.52-2.01,2.39-.4.44-.79.88-1.19,1.32-.44.43-.88.85-1.32,1.28-3.52,3.47-7.55,6.48-7.88,6.72-9.49,6.78-19.5,12.61-29.4,18.55-9.91,5.93-19.79,11.86-29.27,18.37-2.39,1.59-4.7,3.31-7.04,4.97-2.27,1.75-4.61,3.42-6.81,5.26-4.49,3.56-8.74,7.4-12.74,11.47-4.04,4.03-7.64,8.48-10.83,13.15-3.23,4.66-5.81,9.75-7.68,15.07-.05.2-.58,1.4-1.18,3.16-.26.88-.56,1.9-.88,3-.16.54-.33,1.1-.5,1.67-.12.57-.23,1.16-.35,1.75-.24,1.14-.48,2.3-.72,3.43-.19,1.1-.28,2.14-.42,3.02-.26,1.77-.5,2.96-.7,2.96-.2,0-.33-1.19-.41-3.01-.03-.91-.1-1.98-.06-3.13.11-1.19.21-2.41.32-3.6.06-.63.12-1.24.18-1.85.12-.61.24-1.2.35-1.77.24-1.17.47-2.26.66-3.2.47-1.88.96-3.18,1.01-3.38Z"/><path class="cls-1" d="M425.75,101.18c-1.87-5.31-4.45-10.4-7.68-15.07-3.2-4.68-6.79-9.12-10.83-13.15-4-4.07-8.25-7.91-12.74-11.47-2.2-1.84-4.53-3.51-6.81-5.26-2.34-1.66-4.65-3.37-7.04-4.97-9.48-6.51-19.36-12.44-29.27-18.37-9.9-5.95-19.91-11.77-29.4-18.55-.33-.25-4.36-3.26-7.88-6.72-.44-.42-.88-.85-1.32-1.28-.4-.44-.8-.88-1.19-1.32-.76-.87-1.5-1.62-2.01-2.39-1.08-1.48-1.72-2.5-1.57-2.62s1.08.65,2.38,1.87c.62.63,1.47,1.26,2.31,2,.43.37.87.75,1.31,1.12.47.37.95.73,1.42,1.1,3.76,2.99,7.89,5.68,8.22,5.92,9.32,6.66,19.3,12.48,29.2,18.42,9.91,5.93,19.85,11.9,29.42,18.47,2.41,1.61,4.75,3.34,7.12,5.02,2.31,1.77,4.67,3.46,6.91,5.33,4.56,3.61,8.9,7.53,12.99,11.7,4.13,4.13,7.85,8.71,11.16,13.55,3.34,4.83,6.04,10.14,8,15.71.05.21.53,1.5,1.01,3.38.19.94.42,2.03.66,3.2.11.57.23,1.17.35,1.77.06.6.12,1.22.18,1.85.11,1.19.21,2.41.32,3.6.04,1.15-.03,2.22-.06,3.13-.08,1.82-.21,3.01-.41,3.01-.2,0-.44-1.19-.7-2.96-.14-.88-.23-1.92-.42-3.02-.24-1.14-.48-2.3-.72-3.43-.12-.59-.24-1.18-.35-1.75-.17-.57-.34-1.13-.5-1.67-.32-1.1-.62-2.12-.88-3-.59-1.76-1.13-2.97-1.18-3.16Z"/><path class="cls-1" d="M257.74,102.54c5.1,8.63,12.6,15.85,21.37,20.74,4.38,2.46,9.09,4.31,13.96,5.55,4.88,1.21,9.9,1.81,14.94,1.83,5.04-.02,10.06-.62,14.94-1.83,4.86-1.24,9.58-3.09,13.96-5.55,8.77-4.89,16.27-12.11,21.37-20.74.2-.29,2.52-3.94,4.14-7.86.83-1.95,1.45-3.96,1.86-5.48.21-.76.37-1.4.49-1.86.13-.45.25-.71.35-.71s.17.27.23.75c.07.48.09,1.16.04,1.98-.08,1.64-.43,3.83-1.05,5.97-1.2,4.3-3.38,8.34-3.59,8.65-5.39,9.1-13.23,16.65-22.44,21.79-4.6,2.58-9.55,4.52-14.65,5.83-5.12,1.27-10.38,1.9-15.64,1.92-5.26-.02-10.52-.65-15.64-1.92-5.1-1.3-10.06-3.24-14.65-5.83-9.21-5.14-17.06-12.69-22.44-21.79-.21-.31-2.39-4.34-3.59-8.65-.62-2.14-.96-4.33-1.05-5.97-.05-.82-.03-1.5.04-1.98.05-.48.13-.75.23-.75s.22.25.35.71c.12.45.27,1.09.49,1.86.41,1.52,1.03,3.53,1.86,5.48,1.62,3.92,3.94,7.57,4.14,7.86Z"/><path class="cls-1" d="M143.99,102.41c5.65,3.94,12.05,6.88,18.55,9.45,6.52,2.56,13.23,4.68,20,6.57,13.56,3.76,27.39,6.59,41.29,8.93,13.91,2.32,27.91,4.11,41.96,5.41,14.04,1.29,28.14,2.14,42.22,2.16,14.08-.03,28.17-.87,42.22-2.16,14.04-1.3,28.05-3.09,41.96-5.41,13.9-2.33,27.73-5.17,41.29-8.93,6.77-1.89,13.48-4.01,20-6.57,6.5-2.57,12.9-5.51,18.55-9.45.18-.16.98-.64,2.09-1.53,1.13-.86,2.6-2.09,4.09-3.72,1.47-1.63,2.99-3.69,3.73-6.18.23-.61.3-1.26.44-1.91.04-.66.13-1.32.09-2.01-.04-1.37-.27-2.74-.75-4.01-.94-2.56-2.97-4.62-5.29-5.83-2.32-1.24-4.81-1.78-6.93-1.92-2.13-.15-3.92.14-5.07.55-1.17.4-1.64.97-1.73.9-.08-.03.28-.8,1.49-1.42,1.18-.62,3.06-1.11,5.33-1.13,2.26-.02,4.96.37,7.61,1.61,2.64,1.19,5.18,3.49,6.44,6.5.64,1.49.98,3.09,1.08,4.66.08.78.02,1.58-.01,2.37-.12.78-.2,1.57-.44,2.3-.79,3-2.46,5.41-4.02,7.26-1.59,1.86-3.15,3.23-4.33,4.18-1.16.98-1.98,1.5-2.19,1.67-5.97,4.16-12.53,7.15-19.15,9.77-6.64,2.61-13.44,4.75-20.28,6.66-13.7,3.8-27.61,6.65-41.59,8.99-13.98,2.33-28.05,4.13-42.16,5.44-14.11,1.3-28.28,2.15-42.48,2.18-14.2-.03-28.37-.88-42.48-2.18-14.11-1.31-28.18-3.11-42.16-5.44-13.98-2.34-27.89-5.19-41.59-8.99-6.84-1.91-13.63-4.06-20.28-6.66-6.63-2.63-13.18-5.62-19.15-9.77-.2-.17-1.02-.69-2.19-1.67-1.18-.95-2.73-2.32-4.33-4.18-1.57-1.85-3.24-4.26-4.02-7.26-.24-.73-.31-1.52-.44-2.3-.03-.79-.09-1.59-.01-2.37.1-1.57.44-3.17,1.08-4.66,1.26-3.01,3.8-5.3,6.44-6.5,2.65-1.23,5.35-1.63,7.61-1.61,2.27.02,4.15.51,5.33,1.13,1.21.62,1.57,1.4,1.49,1.42-.09.07-.55-.5-1.73-.9-1.15-.41-2.94-.7-5.07-.55-2.12.14-4.61.68-6.93,1.92-2.32,1.21-4.34,3.27-5.29,5.83-.48,1.27-.71,2.64-.75,4.01-.04.69.04,1.35.09,2.01.14.65.21,1.3.44,1.91.74,2.48,2.26,4.55,3.73,6.18,1.49,1.63,2.96,2.87,4.09,3.72,1.11.89,1.9,1.37,2.09,1.53Z"/><path class="cls-1" d="M119.99,128.42c.25-2.28.98-4.47,2.01-6.47,1.03-2,2.36-3.79,3.82-5.42,2.93-3.27,6.39-5.91,9.98-8.22,7.22-4.61,15.05-7.97,22.97-10.91,15.9-5.77,32.34-9.65,48.87-12.78,16.55-3.09,33.23-5.32,49.98-6.87,16.75-1.54,33.56-2.41,50.39-2.43,16.83.02,33.64.88,50.39,2.43,16.75,1.56,33.43,3.79,49.98,6.87,16.53,3.13,32.97,7.02,48.87,12.78,7.92,2.94,15.75,6.3,22.97,10.91,3.6,2.31,7.05,4.95,9.98,8.22,1.46,1.63,2.79,3.42,3.82,5.42,1.03,1.99,1.75,4.19,2.01,6.47.04.16.05.55.07,1.13.05.59,0,1.36-.06,2.29-.14,1.85-.58,4.39-1.83,7.06-1.2,2.68-3.19,5.42-5.68,7.85-2.49,2.43-5.43,4.61-8.54,6.42-6.2,3.66-12.88,6.06-17.92,7.52-5.05,1.46-8.5,1.97-8.53,1.78-.04-.2,3.3-1.07,8.19-2.84,4.88-1.76,11.34-4.43,17.2-8.18,2.93-1.85,5.66-4.03,7.91-6.37,2.25-2.33,3.96-4.86,4.96-7.25,1.04-2.38,1.36-4.58,1.45-6.19.04-.81.07-1.47.02-1.96-.03-.49-.04-.81-.07-.95-.41-3.81-2.44-7.36-5.12-10.31-2.67-2.99-5.94-5.5-9.39-7.72-6.94-4.43-14.62-7.74-22.41-10.63-15.66-5.68-31.99-9.55-48.41-12.66-16.44-3.07-33.05-5.29-49.72-6.84-16.67-1.53-33.4-2.4-50.13-2.41-16.73.02-33.46.88-50.13,2.41-16.66,1.55-33.27,3.77-49.72,6.84-16.42,3.11-32.75,6.97-48.41,12.66-7.79,2.89-15.48,6.2-22.41,10.63-3.45,2.21-6.72,4.73-9.39,7.72-2.68,2.96-4.71,6.5-5.12,10.31-.04.13-.04.46-.07.95-.06.48-.03,1.15.02,1.96.09,1.61.4,3.81,1.45,6.19.99,2.39,2.71,4.92,4.96,7.25,2.24,2.33,4.97,4.51,7.91,6.37,5.86,3.75,12.32,6.42,17.2,8.18,4.89,1.77,8.24,2.64,8.19,2.84-.04.19-3.49-.32-8.53-1.78-5.04-1.46-11.71-3.86-17.92-7.52-3.1-1.81-6.05-3.99-8.54-6.42-2.49-2.43-4.47-5.16-5.68-7.85-1.25-2.67-1.69-5.21-1.83-7.06-.07-.93-.11-1.7-.06-2.29.03-.58.03-.97.07-1.13Z"/><path class="cls-1" d="M514.85,425.75c5.31-1.87,10.4-4.45,15.07-7.68,4.68-3.2,9.12-6.79,13.15-10.83,4.07-4,7.91-8.25,11.47-12.74,1.84-2.2,3.51-4.53,5.26-6.81,1.66-2.34,3.37-4.65,4.97-7.04,6.51-9.48,12.44-19.36,18.37-29.27,5.95-9.9,11.77-19.91,18.55-29.4.25-.33,3.26-4.36,6.72-7.88.42-.44.85-.88,1.28-1.32.44-.4.88-.8,1.32-1.19.87-.76,1.62-1.5,2.39-2.01,1.48-1.08,2.5-1.72,2.62-1.57s-.65,1.08-1.87,2.38c-.63.62-1.26,1.47-2,2.31-.37.43-.75.87-1.12,1.31-.37.47-.73.95-1.1,1.42-2.99,3.76-5.68,7.89-5.92,8.22-6.66,9.32-12.48,19.3-18.42,29.2-5.93,9.91-11.9,19.85-18.47,29.42-1.61,2.41-3.34,4.75-5.02,7.12-1.77,2.31-3.46,4.67-5.33,6.91-3.61,4.56-7.53,8.9-11.7,12.99-4.13,4.13-8.71,7.85-13.55,11.16-4.83,3.34-10.14,6.04-15.71,8-.21.05-1.5.53-3.38,1.01-.94.19-2.03.42-3.2.66-.57.11-1.17.23-1.77.35-.6.06-1.22.12-1.85.18-1.19.11-2.41.21-3.6.32-1.15.04-2.22-.03-3.13-.06-1.82-.08-3.01-.21-3.01-.41,0-.2,1.19-.44,2.96-.7.88-.14,1.92-.23,3.02-.42,1.14-.24,2.3-.48,3.43-.72.59-.12,1.18-.24,1.75-.35.57-.17,1.13-.34,1.67-.5,1.1-.32,2.12-.62,3-.88,1.76-.59,2.97-1.13,3.16-1.18Z"/><path class="cls-1" d="M515.8,187.58c5.57,1.96,10.88,4.66,15.71,8,4.85,3.31,9.42,7.02,13.55,11.16,4.17,4.1,8.09,8.43,11.7,12.99,1.87,2.24,3.56,4.6,5.33,6.91,1.68,2.37,3.42,4.7,5.02,7.12,6.57,9.57,12.53,19.51,18.47,29.42,5.94,9.9,11.76,19.88,18.42,29.2.24.33,2.93,4.46,5.92,8.22.36.47.73.94,1.1,1.42.38.44.75.87,1.12,1.31.73.84,1.36,1.69,2,2.31,1.22,1.3,1.99,2.23,1.87,2.38s-1.14-.49-2.62-1.57c-.77-.51-1.52-1.26-2.39-2.01-.44-.4-.88-.79-1.32-1.19-.43-.44-.85-.88-1.28-1.32-3.47-3.52-6.48-7.55-6.72-7.88-6.78-9.49-12.61-19.5-18.55-29.4-5.93-9.91-11.86-19.79-18.37-29.27-1.59-2.39-3.31-4.7-4.97-7.04-1.75-2.27-3.42-4.61-5.26-6.81-3.56-4.49-7.4-8.74-11.47-12.74-4.03-4.04-8.48-7.64-13.15-10.83-4.66-3.23-9.75-5.81-15.07-7.68-.2-.05-1.4-.58-3.16-1.18-.88-.26-1.9-.56-3-.88-.54-.16-1.1-.33-1.67-.5-.57-.12-1.16-.23-1.75-.35-1.14-.24-2.3-.48-3.43-.72-1.1-.19-2.14-.28-3.02-.42-1.77-.26-2.96-.5-2.96-.7,0-.2,1.19-.33,3.01-.41.91-.03,1.98-.1,3.13-.06,1.19.11,2.41.21,3.6.32.63.06,1.24.12,1.85.18.61.12,1.2.24,1.77.35,1.17.24,2.26.47,3.2.66,1.88.47,3.18.96,3.38,1.01Z"/><path class="cls-1" d="M512.04,360.75c-9.1-5.39-16.65-13.23-21.79-22.44-2.58-4.6-4.52-9.55-5.83-14.65-1.27-5.12-1.9-10.38-1.92-15.64.02-5.26.65-10.52,1.92-15.64,1.3-5.1,3.24-10.06,5.83-14.65,5.14-9.21,12.69-17.06,21.79-22.44.31-.21,4.34-2.39,8.65-3.59,2.14-.62,4.33-.96,5.97-1.05.82-.05,1.5-.03,1.98.04.48.05.75.13.75.23s-.25.22-.71.35c-.45.12-1.09.27-1.86.49-1.52.41-3.53,1.03-5.48,1.86-3.92,1.62-7.57,3.94-7.86,4.14-8.63,5.1-15.85,12.6-20.74,21.37-2.46,4.38-4.31,9.09-5.55,13.96-1.21,4.88-1.81,9.9-1.83,14.94.02,5.04.62,10.06,1.83,14.94,1.24,4.86,3.09,9.58,5.55,13.96,4.89,8.77,12.11,16.27,20.74,21.37.29.2,3.94,2.52,7.86,4.14,1.95.83,3.96,1.45,5.48,1.86.76.21,1.4.37,1.86.49.45.13.71.25.71.35s-.27.17-.75.23c-.48.07-1.16.09-1.98.04-1.64-.08-3.83-.43-5.97-1.05-4.3-1.2-8.34-3.38-8.65-3.59Z"/><path class="cls-1" d="M511.28,473.68c-4.16-5.97-7.15-12.53-9.77-19.15-2.61-6.64-4.75-13.44-6.66-20.28-3.8-13.7-6.65-27.61-8.99-41.59-2.33-13.98-4.13-28.05-5.44-42.16-1.3-14.11-2.15-28.28-2.18-42.48.03-14.2.88-28.37,2.18-42.48,1.31-14.11,3.11-28.18,5.44-42.16,2.34-13.98,5.19-27.89,8.99-41.59,1.91-6.84,4.06-13.63,6.66-20.28,2.63-6.63,5.62-13.18,9.77-19.15.17-.2.69-1.02,1.67-2.19.95-1.18,2.32-2.73,4.18-4.33,1.85-1.57,4.26-3.24,7.26-4.02.73-.24,1.52-.31,2.3-.44.79-.03,1.59-.09,2.37-.01,1.57.1,3.17.44,4.66,1.08,3.01,1.26,5.3,3.8,6.5,6.44,1.23,2.65,1.63,5.35,1.61,7.61-.02,2.27-.51,4.15-1.13,5.33-.62,1.21-1.4,1.57-1.42,1.49-.07-.09.5-.55.9-1.73.41-1.15.7-2.94.55-5.07-.14-2.12-.68-4.61-1.92-6.93-1.21-2.32-3.27-4.34-5.83-5.29-1.27-.48-2.64-.71-4.01-.75-.69-.04-1.35.04-2.01.09-.65.14-1.3.21-1.91.44-2.48.74-4.55,2.26-6.18,3.73-1.63,1.49-2.87,2.96-3.72,4.09-.89,1.11-1.37,1.9-1.53,2.09-3.94,5.65-6.88,12.05-9.45,18.55-2.56,6.52-4.68,13.23-6.57,20-3.76,13.56-6.59,27.39-8.93,41.29-2.32,13.91-4.11,27.91-5.41,41.96-1.29,14.04-2.14,28.14-2.16,42.22.03,14.08.87,28.17,2.16,42.22,1.3,14.04,3.09,28.05,5.41,41.96,2.33,13.9,5.17,27.73,8.93,41.29,1.89,6.77,4.01,13.48,6.57,20,2.57,6.5,5.51,12.9,9.45,18.55.16.18.64.98,1.53,2.09.86,1.13,2.09,2.6,3.72,4.09,1.63,1.47,3.69,2.99,6.18,3.73.61.23,1.26.3,1.91.44.66.04,1.32.13,2.01.09,1.37-.04,2.74-.27,4.01-.75,2.56-.94,4.62-2.97,5.83-5.29,1.24-2.32,1.78-4.81,1.92-6.93.15-2.13-.14-3.92-.55-5.07-.4-1.17-.97-1.64-.9-1.73.03-.08.8.28,1.42,1.49.62,1.18,1.11,3.06,1.13,5.33.02,2.26-.37,4.96-1.61,7.61-1.19,2.64-3.49,5.18-6.5,6.44-1.49.64-3.09.98-4.66,1.08-.78.08-1.58.02-2.37-.01-.78-.12-1.57-.2-2.3-.44-3-.79-5.41-2.46-7.26-4.02-1.86-1.59-3.23-3.15-4.18-4.33-.98-1.16-1.5-1.98-1.67-2.19Z"/><path class="cls-1" d="M487.28,493.2c3.81-.41,7.36-2.44,10.31-5.12,2.99-2.67,5.5-5.94,7.72-9.39,4.43-6.94,7.74-14.62,10.63-22.41,5.68-15.66,9.55-31.99,12.66-48.41,3.07-16.44,5.29-33.05,6.84-49.72,1.53-16.67,2.4-33.4,2.41-50.13-.02-16.73-.88-33.46-2.41-50.13-1.55-16.66-3.77-33.27-6.84-49.72-3.11-16.42-6.97-32.75-12.66-48.41-2.89-7.79-6.2-15.48-10.63-22.41-2.21-3.45-4.73-6.72-7.72-9.39-2.96-2.68-6.5-4.71-10.31-5.12-.13-.04-.46-.04-.95-.07-.48-.06-1.15-.03-1.96.02-1.61.09-3.81.4-6.19,1.45-2.39.99-4.92,2.71-7.25,4.96-2.33,2.24-4.51,4.97-6.37,7.91-3.75,5.86-6.42,12.32-8.18,17.2-1.77,4.89-2.64,8.24-2.84,8.19-.19-.04.32-3.49,1.78-8.53,1.46-5.04,3.86-11.71,7.52-17.92,1.81-3.1,3.99-6.05,6.42-8.54,2.43-2.49,5.16-4.47,7.85-5.68,2.67-1.25,5.21-1.69,7.06-1.83.93-.07,1.7-.11,2.29-.06.58.03.97.03,1.13.07,2.28.25,4.47.98,6.47,2.01,2,1.03,3.79,2.36,5.42,3.82,3.27,2.93,5.91,6.39,8.22,9.98,4.61,7.22,7.97,15.05,10.91,22.97,5.77,15.9,9.65,32.34,12.78,48.87,3.09,16.55,5.32,33.23,6.87,49.98,1.54,16.75,2.41,33.56,2.43,50.39-.02,16.83-.88,33.64-2.43,50.39-1.56,16.75-3.79,33.43-6.87,49.98-3.13,16.53-7.02,32.97-12.78,48.87-2.94,7.92-6.3,15.75-10.91,22.97-2.31,3.6-4.95,7.05-8.22,9.98-1.63,1.46-3.42,2.79-5.42,3.82-1.99,1.03-4.19,1.75-6.47,2.01-.16.04-.55.05-1.13.07-.59.05-1.36,0-2.29-.06-1.85-.14-4.39-.58-7.06-1.83-2.68-1.2-5.42-3.19-7.85-5.68-2.43-2.49-4.61-5.43-6.42-8.54-3.66-6.2-6.06-12.88-7.52-17.92-1.46-5.05-1.97-8.5-1.78-8.53.2-.04,1.07,3.3,2.84,8.19,1.76,4.88,4.43,11.34,8.18,17.2,1.85,2.93,4.03,5.66,6.37,7.91,2.33,2.25,4.86,3.96,7.25,4.96,2.38,1.04,4.58,1.36,6.19,1.45.81.04,1.47.07,1.96.02.49-.03.81-.04.95-.07Z"/><path class="cls-1" d="M101.18,190.27c-5.31,1.87-10.4,4.45-15.07,7.68-4.68,3.2-9.12,6.79-13.15,10.83-4.07,4-7.91,8.25-11.47,12.74-1.84,2.2-3.51,4.53-5.26,6.81-1.66,2.34-3.37,4.65-4.97,7.04-6.51,9.48-12.44,19.36-18.37,29.27-5.95,9.9-11.77,19.91-18.55,29.4-.25.33-3.26,4.36-6.72,7.88-.42.44-.85.88-1.28,1.32-.44.4-.88.8-1.32,1.19-.87.76-1.62,1.5-2.39,2.01-1.48,1.08-2.5,1.72-2.62,1.57s.65-1.08,1.87-2.38c.63-.62,1.26-1.47,2-2.31.37-.43.75-.87,1.12-1.31.37-.47.73-.95,1.1-1.42,2.99-3.76,5.68-7.89,5.92-8.22,6.66-9.32,12.48-19.3,18.42-29.2,5.93-9.91,11.9-19.85,18.47-29.42,1.61-2.41,3.34-4.75,5.02-7.12,1.77-2.31,3.46-4.67,5.33-6.91,3.61-4.56,7.53-8.9,11.7-12.99,4.13-4.13,8.71-7.85,13.55-11.16,4.83-3.34,10.14-6.04,15.71-8,.21-.05,1.5-.53,3.38-1.01.94-.19,2.03-.42,3.2-.66.57-.11,1.17-.23,1.77-.35.6-.06,1.22-.12,1.85-.18,1.19-.11,2.41-.21,3.6-.32,1.15-.04,2.22.03,3.13.06,1.82.08,3.01.21,3.01.41,0,.2-1.19.44-2.96.7-.88.14-1.92.23-3.02.42-1.14.24-2.3.48-3.43.72-.59.12-1.18.24-1.75.35-.57.17-1.13.34-1.67.5-1.1.32-2.12.62-3,.88-1.76.59-2.97,1.13-3.16,1.18Z"/><path class="cls-1" d="M100.23,428.45c-5.57-1.96-10.88-4.66-15.71-8-4.85-3.31-9.42-7.02-13.55-11.16-4.17-4.1-8.09-8.43-11.7-12.99-1.87-2.24-3.56-4.6-5.33-6.91-1.68-2.37-3.42-4.7-5.02-7.12-6.57-9.57-12.53-19.51-18.47-29.42-5.94-9.9-11.76-19.88-18.42-29.2-.24-.33-2.93-4.46-5.92-8.22-.36-.47-.73-.94-1.1-1.42-.38-.44-.75-.87-1.12-1.31-.73-.84-1.36-1.69-2-2.31-1.22-1.3-1.99-2.23-1.87-2.38s1.14.49,2.62,1.57c.77.51,1.52,1.26,2.39,2.01.44.4.88.79,1.32,1.19.43.44.85.88,1.28,1.32,3.47,3.52,6.48,7.55,6.72,7.88,6.78,9.49,12.61,19.5,18.55,29.4,5.93,9.91,11.86,19.79,18.37,29.27,1.59,2.39,3.31,4.7,4.97,7.04,1.75,2.27,3.42,4.61,5.26,6.81,3.56,4.49,7.4,8.74,11.47,12.74,4.03,4.04,8.48,7.64,13.15,10.83,4.66,3.23,9.75,5.81,15.07,7.68.2.05,1.4.58,3.16,1.18.88.26,1.9.56,3,.88.54.16,1.1.33,1.67.5.57.12,1.16.23,1.75.35,1.14.24,2.3.48,3.43.72,1.1.19,2.14.28,3.02.42,1.77.26,2.96.5,2.96.7,0,.2-1.19.33-3.01.41-.91.03-1.98.1-3.13.06-1.19-.11-2.41-.21-3.6-.32-.63-.06-1.24-.12-1.85-.18-.61-.12-1.2-.24-1.77-.35-1.17-.24-2.26-.47-3.2-.66-1.88-.47-3.18-.96-3.38-1.01Z"/><path class="cls-1" d="M103.99,255.28c9.1,5.39,16.65,13.23,21.79,22.44,2.58,4.6,4.52,9.55,5.83,14.65,1.27,5.12,1.9,10.38,1.92,15.64-.02,5.26-.65,10.52-1.92,15.64-1.3,5.1-3.24,10.06-5.83,14.65-5.14,9.21-12.69,17.06-21.79,22.44-.31.21-4.34,2.39-8.65,3.59-2.14.62-4.33.96-5.97,1.05-.82.05-1.5.03-1.98-.04-.48-.05-.75-.13-.75-.23s.25-.22.71-.35c.45-.12,1.09-.27,1.86-.49,1.52-.41,3.53-1.03,5.48-1.86,3.92-1.62,7.57-3.94,7.86-4.14,8.63-5.1,15.85-12.6,20.74-21.37,2.46-4.38,4.31-9.09,5.55-13.96,1.21-4.88,1.81-9.9,1.83-14.94-.02-5.04-.62-10.06-1.83-14.94-1.24-4.86-3.09-9.58-5.55-13.96-4.89-8.77-12.11-16.27-20.74-21.37-.29-.2-3.94-2.52-7.86-4.14-1.95-.83-3.96-1.45-5.48-1.86-.76-.21-1.4-.37-1.86-.49-.45-.13-.71-.25-.71-.35s.27-.17.75-.23c.48-.07,1.16-.09,1.98-.04,1.64.08,3.83.43,5.97,1.05,4.3,1.2,8.34,3.38,8.65,3.59Z"/><path class="cls-1" d="M104.75,142.35c4.16,5.97,7.15,12.53,9.77,19.15,2.61,6.64,4.75,13.44,6.66,20.28,3.8,13.7,6.65,27.61,8.99,41.59,2.33,13.98,4.13,28.05,5.44,42.16,1.3,14.11,2.15,28.28,2.18,42.48-.03,14.2-.88,28.37-2.18,42.48-1.31,14.11-3.11,28.18-5.44,42.16-2.34,13.98-5.19,27.89-8.99,41.59-1.91,6.84-4.06,13.63-6.66,20.28-2.63,6.63-5.62,13.18-9.77,19.15-.17.2-.69,1.02-1.67,2.19-.95,1.18-2.32,2.73-4.18,4.33-1.85,1.57-4.26,3.24-7.26,4.02-.73.24-1.52.31-2.3.44-.79.03-1.59.09-2.37.01-1.57-.1-3.17-.44-4.66-1.08-3.01-1.26-5.3-3.8-6.5-6.44-1.23-2.65-1.63-5.35-1.61-7.61.02-2.27.51-4.15,1.13-5.33.62-1.21,1.4-1.57,1.42-1.49.07.09-.5.55-.9,1.73-.41,1.15-.7,2.94-.55,5.07.14,2.12.68,4.61,1.92,6.93,1.21,2.32,3.27,4.34,5.83,5.29,1.27.48,2.64.71,4.01.75.69.04,1.35-.04,2.01-.09.65-.14,1.3-.21,1.91-.44,2.48-.74,4.55-2.26,6.18-3.73,1.63-1.49,2.87-2.96,3.72-4.09.89-1.11,1.37-1.9,1.53-2.09,3.94-5.65,6.88-12.05,9.45-18.55,2.56-6.52,4.68-13.23,6.57-20,3.76-13.56,6.59-27.39,8.93-41.29,2.32-13.91,4.11-27.91,5.41-41.96,1.29-14.04,2.14-28.14,2.16-42.22-.03-14.08-.87-28.17-2.16-42.22-1.3-14.04-3.09-28.05-5.41-41.96-2.33-13.9-5.17-27.73-8.93-41.29-1.89-6.77-4.01-13.48-6.57-20-2.57-6.5-5.51-12.9-9.45-18.55-.16-.18-.64-.98-1.53-2.09-.86-1.13-2.09-2.6-3.72-4.09-1.63-1.47-3.69-2.99-6.18-3.73-.61-.23-1.26-.3-1.91-.44-.66-.04-1.32-.13-2.01-.09-1.37.04-2.74.27-4.01.75-2.56.94-4.62,2.97-5.83,5.29-1.24,2.32-1.78,4.81-1.92,6.93-.15,2.13.14,3.92.55,5.07.4,1.17.97,1.64.9,1.73-.03.08-.8-.28-1.42-1.49-.62-1.18-1.11-3.06-1.13-5.33-.02-2.26.37-4.96,1.61-7.61,1.19-2.64,3.49-5.18,6.5-6.44,1.49-.64,3.09-.98,4.66-1.08.78-.08,1.58-.02,2.37.01.78.12,1.57.2,2.3.44,3,.79,5.41,2.46,7.26,4.02,1.86,1.59,3.23,3.15,4.18,4.33.98,1.16,1.5,1.98,1.67,2.19Z"/><path class="cls-1" d="M128.75,122.82c-3.81.41-7.36,2.44-10.31,5.12-2.99,2.67-5.5,5.94-7.72,9.39-4.43,6.94-7.74,14.62-10.63,22.41-5.68,15.66-9.55,31.99-12.66,48.41-3.07,16.44-5.29,33.05-6.84,49.72-1.53,16.67-2.4,33.4-2.41,50.13.02,16.73.88,33.46,2.41,50.13,1.55,16.66,3.77,33.27,6.84,49.72,3.11,16.42,6.97,32.75,12.66,48.41,2.89,7.79,6.2,15.48,10.63,22.41,2.21,3.45,4.73,6.72,7.72,9.39,2.96,2.68,6.5,4.71,10.31,5.12.13.04.46.04.95.07.48.06,1.15.03,1.96-.02,1.61-.09,3.81-.4,6.19-1.45,2.39-.99,4.92-2.71,7.25-4.96,2.33-2.24,4.51-4.97,6.37-7.91,3.75-5.86,6.42-12.32,8.18-17.2,1.77-4.89,2.64-8.24,2.84-8.19.19.04-.32,3.49-1.78,8.53-1.46,5.04-3.86,11.71-7.52,17.92-1.81,3.1-3.99,6.05-6.42,8.54-2.43,2.49-5.16,4.47-7.85,5.68-2.67,1.25-5.21,1.69-7.06,1.83-.93.07-1.7.11-2.29.06-.58-.03-.97-.03-1.13-.07-2.28-.25-4.47-.98-6.47-2.01-2-1.03-3.79-2.36-5.42-3.82-3.27-2.93-5.91-6.39-8.22-9.98-4.61-7.22-7.97-15.05-10.91-22.97-5.77-15.9-9.65-32.34-12.78-48.87-3.09-16.55-5.32-33.23-6.87-49.98-1.54-16.75-2.41-33.56-2.43-50.39.02-16.83.88-33.64,2.43-50.39,1.56-16.75,3.79-33.43,6.87-49.98,3.13-16.53,7.02-32.97,12.78-48.87,2.94-7.92,6.3-15.75,10.91-22.97,2.31-3.6,4.95-7.05,8.22-9.98,1.63-1.46,3.42-2.79,5.42-3.82,1.99-1.03,4.19-1.75,6.47-2.01.16-.04.55-.05,1.13-.07.59-.05,1.36,0,2.29.06,1.85.14,4.39.58,7.06,1.83,2.68,1.2,5.42,3.19,7.85,5.68,2.43,2.49,4.61,5.43,6.42,8.54,3.66,6.2,6.06,12.88,7.52,17.92,1.46,5.05,1.97,8.5,1.78,8.53-.2.04-1.07-3.3-2.84-8.19-1.76-4.88-4.43-11.34-8.18-17.2-1.85-2.93-4.03-5.66-6.37-7.91-2.33-2.25-4.86-3.96-7.25-4.96-2.38-1.04-4.58-1.36-6.19-1.45-.81-.04-1.47-.07-1.96-.02-.49.03-.81.04-.95.07Z"/><path class="cls-1" d="M428.45,515.8c-1.96,5.57-4.66,10.88-8,15.71-3.31,4.85-7.02,9.42-11.16,13.55-4.1,4.17-8.43,8.09-12.99,11.7-2.24,1.87-4.6,3.56-6.91,5.33-2.37,1.68-4.7,3.42-7.12,5.02-9.57,6.57-19.51,12.53-29.42,18.47-9.9,5.94-19.88,11.76-29.2,18.42-.33.24-4.46,2.93-8.22,5.92-.47.36-.94.73-1.42,1.1-.44.38-.87.75-1.31,1.12-.84.73-1.69,1.36-2.31,2-1.3,1.22-2.23,1.99-2.38,1.87s.49-1.14,1.57-2.62c.51-.77,1.26-1.52,2.01-2.39.4-.44.79-.88,1.19-1.32.44-.43.88-.85,1.32-1.28,3.52-3.47,7.55-6.48,7.88-6.72,9.49-6.78,19.5-12.61,29.4-18.55,9.91-5.93,19.79-11.86,29.27-18.37,2.39-1.59,4.7-3.31,7.04-4.97,2.27-1.75,4.61-3.42,6.81-5.26,4.49-3.56,8.74-7.4,12.74-11.47,4.04-4.03,7.64-8.48,10.83-13.15,3.23-4.66,5.81-9.75,7.68-15.07.05-.2.58-1.4,1.18-3.16.26-.88.56-1.9.88-3,.16-.54.33-1.1.5-1.67.12-.57.23-1.16.35-1.75.24-1.14.48-2.3.72-3.43.19-1.1.28-2.14.42-3.02.26-1.77.5-2.96.7-2.96.2,0,.33,1.19.41,3.01.03.91.1,1.98.06,3.13-.11,1.19-.21,2.41-.32,3.6-.06.63-.12,1.24-.18,1.85-.12.61-.24,1.2-.35,1.77-.24,1.17-.47,2.26-.66,3.2-.47,1.88-.96,3.18-1.01,3.38Z"/><path class="cls-1" d="M190.27,514.85c1.87,5.31,4.45,10.4,7.68,15.07,3.2,4.68,6.79,9.12,10.83,13.15,4,4.07,8.25,7.91,12.74,11.47,2.2,1.84,4.53,3.51,6.81,5.26,2.34,1.66,4.65,3.37,7.04,4.97,9.48,6.51,19.36,12.44,29.27,18.37,9.9,5.95,19.91,11.77,29.4,18.55.33.25,4.36,3.26,7.88,6.72.44.42.88.85,1.32,1.28.4.44.8.88,1.19,1.32.76.87,1.5,1.62,2.01,2.39,1.08,1.48,1.72,2.5,1.57,2.62s-1.08-.65-2.38-1.87c-.62-.63-1.47-1.26-2.31-2-.43-.37-.87-.75-1.31-1.12-.47-.37-.95-.73-1.42-1.1-3.76-2.99-7.89-5.68-8.22-5.92-9.32-6.66-19.3-12.48-29.2-18.42-9.91-5.93-19.85-11.9-29.42-18.47-2.41-1.61-4.75-3.34-7.12-5.02-2.31-1.77-4.67-3.46-6.91-5.33-4.56-3.61-8.9-7.53-12.99-11.7-4.13-4.13-7.85-8.71-11.16-13.55-3.34-4.83-6.04-10.14-8-15.71-.05-.21-.53-1.5-1.01-3.38-.19-.94-.42-2.03-.66-3.2-.11-.57-.23-1.17-.35-1.77-.06-.6-.12-1.22-.18-1.85-.11-1.19-.21-2.41-.32-3.6-.04-1.15.03-2.22.06-3.13.08-1.82.21-3.01.41-3.01.2,0,.44,1.19.7,2.96.14.88.23,1.92.42,3.02.24,1.14.48,2.3.72,3.43.12.59.24,1.18.35,1.75.17.57.34,1.13.5,1.67.32,1.1.62,2.12.88,3,.59,1.76,1.13,2.97,1.18,3.16Z"/><path class="cls-1" d="M358.28,513.49c-5.1-8.63-12.6-15.85-21.37-20.74-4.38-2.46-9.09-4.31-13.96-5.55-4.88-1.21-9.9-1.81-14.94-1.83-5.04.02-10.06.62-14.94,1.83-4.86,1.24-9.58,3.09-13.96,5.55-8.77,4.89-16.27,12.11-21.37,20.74-.2.29-2.52,3.94-4.14,7.86-.83,1.95-1.45,3.96-1.86,5.48-.21.76-.37,1.4-.49,1.86-.13.45-.25.71-.35.71s-.17-.27-.23-.75c-.07-.48-.09-1.16-.04-1.98.08-1.64.43-3.83,1.05-5.97,1.2-4.3,3.38-8.34,3.59-8.65,5.39-9.1,13.23-16.65,22.44-21.79,4.6-2.58,9.55-4.52,14.65-5.83,5.12-1.27,10.38-1.9,15.64-1.92,5.26.02,10.52.65,15.64,1.92,5.1,1.3,10.06,3.24,14.65,5.83,9.21,5.14,17.06,12.69,22.44,21.79.21.31,2.39,4.34,3.59,8.65.62,2.14.96,4.33,1.05,5.97.05.82.03,1.5-.04,1.98-.05.48-.13.75-.23.75s-.22-.25-.35-.71c-.12-.45-.27-1.09-.49-1.86-.41-1.52-1.03-3.53-1.86-5.48-1.62-3.92-3.94-7.57-4.14-7.86Z"/><path class="cls-1" d="M472.03,513.61c-5.65-3.94-12.05-6.88-18.55-9.45-6.52-2.56-13.23-4.68-20-6.57-13.56-3.76-27.39-6.59-41.29-8.93-13.91-2.32-27.91-4.11-41.96-5.41-14.04-1.29-28.14-2.14-42.22-2.16-14.08.03-28.17.87-42.22,2.16-14.04,1.3-28.05,3.09-41.96,5.41-13.9,2.33-27.73,5.17-41.29,8.93-6.77,1.89-13.48,4.01-20,6.57-6.5,2.57-12.9,5.51-18.55,9.45-.18.16-.98.64-2.09,1.53-1.13.86-2.6,2.09-4.09,3.72-1.47,1.63-2.99,3.69-3.73,6.18-.23.61-.3,1.26-.44,1.91-.04.66-.13,1.32-.09,2.01.04,1.37.27,2.74.75,4.01.94,2.56,2.97,4.62,5.29,5.83,2.32,1.24,4.81,1.78,6.93,1.92,2.13.15,3.92-.14,5.07-.55,1.17-.4,1.64-.97,1.73-.9.08.03-.28.8-1.49,1.42-1.18.62-3.06,1.11-5.33,1.13-2.26.02-4.96-.37-7.61-1.61-2.64-1.19-5.18-3.49-6.44-6.5-.64-1.49-.98-3.09-1.08-4.66-.08-.78-.02-1.58.01-2.37.12-.78.2-1.57.44-2.3.79-3,2.46-5.41,4.02-7.26,1.59-1.86,3.15-3.23,4.33-4.18,1.16-.98,1.98-1.5,2.19-1.67,5.97-4.16,12.53-7.15,19.15-9.77,6.64-2.61,13.44-4.75,20.28-6.66,13.7-3.8,27.61-6.65,41.59-8.99,13.98-2.33,28.05-4.13,42.16-5.44,14.11-1.3,28.28-2.15,42.48-2.18,14.2.03,28.37.88,42.48,2.18,14.11,1.31,28.18,3.11,42.16,5.44,13.98,2.34,27.89,5.19,41.59,8.99,6.84,1.91,13.63,4.06,20.28,6.66,6.63,2.63,13.18,5.62,19.15,9.77.2.17,1.02.69,2.19,1.67,1.18.95,2.73,2.32,4.33,4.18,1.57,1.85,3.24,4.26,4.02,7.26.24.73.31,1.52.44,2.3.03.79.09,1.59.01,2.37-.1,1.57-.44,3.17-1.08,4.66-1.26,3.01-3.8,5.3-6.44,6.5-2.65,1.23-5.35,1.63-7.61,1.61-2.27-.02-4.15-.51-5.33-1.13-1.21-.62-1.57-1.4-1.49-1.42.09-.07.55.5,1.73.9,1.15.41,2.94.7,5.07.55,2.12-.14,4.61-.68,6.93-1.92,2.32-1.21,4.34-3.27,5.29-5.83.48-1.27.71-2.64.75-4.01.04-.69-.04-1.35-.09-2.01-.14-.65-.21-1.3-.44-1.91-.74-2.48-2.26-4.55-3.73-6.18-1.49-1.63-2.96-2.87-4.09-3.72-1.11-.89-1.9-1.37-2.09-1.53Z"/><path class="cls-1" d="M496.04,487.6c-.25,2.28-.98,4.47-2.01,6.47-1.03,2-2.36,3.79-3.82,5.42-2.93,3.27-6.39,5.91-9.98,8.22-7.22,4.61-15.05,7.97-22.97,10.91-15.9,5.77-32.34,9.65-48.87,12.78-16.55,3.09-33.23,5.32-49.98,6.87-16.75,1.54-33.56,2.41-50.39,2.43-16.83-.02-33.64-.88-50.39-2.43-16.75-1.56-33.43-3.79-49.98-6.87-16.53-3.13-32.97-7.02-48.87-12.78-7.92-2.94-15.75-6.3-22.97-10.91-3.6-2.31-7.05-4.95-9.98-8.22-1.46-1.63-2.79-3.42-3.82-5.42-1.03-1.99-1.75-4.19-2.01-6.47-.04-.16-.05-.55-.07-1.13-.05-.59,0-1.36.06-2.29.14-1.85.58-4.39,1.83-7.06,1.2-2.68,3.19-5.42,5.68-7.85,2.49-2.43,5.43-4.61,8.54-6.42,6.2-3.66,12.88-6.06,17.92-7.52,5.05-1.46,8.5-1.97,8.53-1.78.04.2-3.3,1.07-8.19,2.84-4.88,1.76-11.34,4.43-17.2,8.18-2.93,1.85-5.66,4.03-7.91,6.37-2.25,2.33-3.96,4.86-4.96,7.25-1.04,2.38-1.36,4.58-1.45,6.19-.04.81-.07,1.47-.02,1.96.03.49.04.81.07.95.41,3.81,2.44,7.36,5.12,10.31,2.67,2.99,5.94,5.5,9.39,7.72,6.94,4.43,14.62,7.74,22.41,10.63,15.66,5.68,31.99,9.55,48.41,12.66,16.44,3.07,33.05,5.29,49.72,6.84,16.67,1.53,33.4,2.4,50.13,2.41,16.73-.02,33.46-.88,50.13-2.41,16.66-1.55,33.27-3.77,49.72-6.84,16.42-3.11,32.75-6.97,48.41-12.66,7.79-2.89,15.48-6.2,22.41-10.63,3.45-2.21,6.72-4.73,9.39-7.72,2.68-2.96,4.71-6.5,5.12-10.31.04-.13.04-.46.07-.95.06-.48.03-1.15-.02-1.96-.09-1.61-.4-3.81-1.45-6.19-.99-2.39-2.71-4.92-4.96-7.25-2.24-2.33-4.97-4.51-7.91-6.37-5.86-3.75-12.32-6.42-17.2-8.18-4.89-1.77-8.24-2.64-8.19-2.84.04-.19,3.49.32,8.53,1.78,5.04,1.46,11.71,3.86,17.92,7.52,3.1,1.81,6.05,3.99,8.54,6.42,2.49,2.43,4.47,5.16,5.68,7.85,1.25,2.67,1.69,5.21,1.83,7.06.07.93.11,1.7.06,2.29-.03.58-.03.97-.07,1.13Z"/></g></svg>