<?xml version="1.0" encoding="UTF-8"?><svg id="Line" xmlns="http://www.w3.org/2000/svg" viewBox="0 0 695.54 87.26"><defs><style>.cls-1{fill:#fff;stroke-width:0px;}</style></defs><g id="Divider_7_Lines"><path class="cls-1" d="M42.12,67.98c7.28,3.22,14.94,5.65,22.81,7.14.98.19,1.95.46,2.94.6l2.97.45,2.97.45c.99.15,1.98.32,2.98.39l5.99.56,1.41.13c.05,0,0,.01.04,0l.45-.33,2.38-1.72c6.09-4.98,11.14-11.26,15.41-17.99,2.15-3.36,4.14-6.84,5.94-10.41.91-1.78,1.78-3.58,2.61-5.4.43-.91.81-1.83,1.21-2.74l.58-1.38.9-2.3h468.13l.9,2.3.58,1.38c.41.91.79,1.84,1.21,2.74.83,1.82,1.7,3.62,2.61,5.4,1.81,3.57,3.79,7.05,5.94,10.41,4.27,6.73,9.32,13.02,15.41,17.99l2.38,1.72.45.33s-.02,0,.04,0l1.41-.13,5.99-.56c1-.07,1.99-.24,2.98-.39l2.97-.45,2.97-.45c.99-.14,1.96-.4,2.94-.6,7.86-1.49,15.53-3.92,22.81-7.14.43-.21,2.15-.84,4.62-2.18,2.52-1.24,5.84-3.11,9.52-5.62.91-.65,1.85-1.32,2.81-2.01.97-.69,1.87-1.52,2.85-2.31.48-.4.97-.81,1.47-1.21.49-.41.94-.88,1.42-1.33.93-.92,1.94-1.8,2.85-2.8,3.77-3.89,7.19-8.54,9.97-13.52.69-1.25,1.29-2.54,1.94-3.8.28-.64.56-1.28.82-1.92.23-.66.5-1.3.7-1.96.85-2.63,1.35-5.32,1.54-7.94.35-5.25-.55-10.21-2.25-14.03-.83-1.92-1.91-3.52-3.06-4.73-1.17-1.18-2.48-1.92-3.64-2.05-1.17-.14-2.08.21-2.65.51-.56.32-.86.52-.9.47-.03-.03.21-.3.75-.72.55-.39,1.52-.89,2.86-.83,1.34.05,2.85.8,4.18,2.01,1.31,1.24,2.52,2.89,3.48,4.87,1.94,3.94,3.05,9.07,2.84,14.58-.12,2.75-.58,5.59-1.4,8.39-.19.7-.46,1.39-.68,2.08-.26.69-.54,1.37-.82,2.05-.64,1.31-1.23,2.66-1.91,3.96-2.75,5.2-6.19,10.08-10.01,14.18-.93,1.05-1.95,1.98-2.9,2.95-.49.47-.94.97-1.44,1.4-.5.43-1,.86-1.49,1.28-1,.83-1.92,1.7-2.91,2.44-.99.73-1.95,1.44-2.88,2.12-3.75,2.66-7.16,4.65-9.74,5.96-2.54,1.42-4.29,2.09-4.74,2.31-7.5,3.32-15.37,5.8-23.4,7.33-1,.2-1.99.46-3,.61l-3.03.46-3.03.46c-1.01.15-2.02.32-3.04.4l-6.09.57-1.61.15-.73.07c-.14.05-.22-.08-.33-.14l-.29-.21-.78-.56-2.54-1.84c-6.46-5.28-11.66-11.79-16.04-18.69-2.21-3.45-4.23-7.01-6.08-10.65-.93-1.82-1.82-3.66-2.67-5.52-.44-.92-.83-1.87-1.24-2.81l-.8-1.94H115.66l-.8,1.94c-.41.94-.81,1.88-1.24,2.81-.85,1.86-1.74,3.7-2.67,5.52-1.85,3.64-3.87,7.2-6.08,10.65-4.38,6.9-9.58,13.41-16.04,18.69l-2.54,1.84-.78.56-.29.21c-.11.06-.19.19-.33.14l-.73-.07-1.61-.15-6.09-.57c-1.02-.07-2.03-.24-3.04-.4l-3.03-.46-3.03-.46c-1.01-.15-2-.41-3-.61-8.03-1.53-15.9-4.01-23.4-7.33-.45-.22-2.21-.89-4.74-2.31-2.59-1.31-5.99-3.29-9.74-5.96-.93-.68-1.89-1.39-2.88-2.12-.99-.74-1.91-1.61-2.91-2.44-.49-.42-.99-.85-1.49-1.28-.5-.44-.96-.93-1.44-1.4-.95-.97-1.97-1.9-2.9-2.95-3.82-4.09-7.27-8.97-10.01-14.18-.68-1.3-1.28-2.65-1.91-3.96-.28-.68-.56-1.36-.82-2.05-.23-.7-.5-1.38-.68-2.08C.61,27.06.15,24.22.03,21.47c-.21-5.51.89-10.65,2.84-14.58.96-1.97,2.17-3.63,3.48-4.87C7.67.81,9.18.05,10.52,0c1.34-.06,2.31.44,2.86.83.54.42.78.69.75.72-.04.04-.34-.16-.9-.47-.57-.29-1.49-.64-2.65-.51-1.16.13-2.47.87-3.64,2.05-1.15,1.21-2.23,2.81-3.06,4.73-1.7,3.82-2.6,8.78-2.25,14.03.19,2.62.7,5.31,1.54,7.94.19.66.47,1.3.7,1.96.26.65.54,1.28.82,1.92.65,1.26,1.25,2.55,1.94,3.8,2.77,4.98,6.2,9.63,9.97,13.52.91,1,1.92,1.88,2.85,2.8.48.45.93.92,1.42,1.33.49.41.98.81,1.47,1.21.98.79,1.88,1.61,2.85,2.31.97.69,1.91,1.36,2.81,2.01,3.67,2.52,6.99,4.39,9.52,5.62,2.47,1.34,4.19,1.97,4.62,2.18Z"/><path class="cls-1" d="M80.22,56.37h535.09c.79-.01,5.95.06,13.19-.53,7.2-.65,16.65-1.94,25.11-5.6,2.1-.92,4.11-2.01,5.9-3.32,1.78-1.3,3.38-2.81,4.47-4.55,1.13-1.72,1.68-3.66,1.71-5.53,0-1.88-.4-3.67-1.34-4.97-.89-1.34-2.24-2.15-3.49-2.5-.61-.16-1.3-.22-1.68-.07-.03,0-.03.01-.03.01.03.03-.1-.08-.1-.08-.01-.01-.03-.02-.05-.02-.02,0,.02,0,.03,0,.01,0,.02-.01.03-.02.03,0,.1-.04.1-.04-.01,0,.1.1.19.15.21.11.44.19.67.25.93.23,1.73.25,2.26.27.53.02.83.02.83.08,0,.04-.27.13-.82.22-.54.07-1.35.16-2.4,0-.26-.04-.54-.11-.84-.24-.15-.08-.31-.13-.48-.37-.08-.08-.15-.38-.03-.54.05-.11.1-.14.15-.19.05-.05.11-.09.16-.11.75-.34,1.45-.25,2.2-.13,1.46.31,3.07,1.16,4.19,2.67,1.18,1.48,1.72,3.53,1.8,5.61.06,2.11-.5,4.4-1.71,6.38-1.16,2.01-2.87,3.71-4.74,5.17-1.88,1.46-3.98,2.67-6.15,3.7-8.74,4.07-18.36,5.58-25.7,6.39-7.38.75-12.62.76-13.42.77H80.2c-.8-.01-6.04-.02-13.42-.77-7.34-.81-16.96-2.32-25.7-6.39-2.17-1.03-4.26-2.24-6.15-3.7-1.88-1.46-3.58-3.16-4.74-5.17-1.21-1.98-1.77-4.26-1.71-6.38.08-2.08.62-4.13,1.8-5.61,1.13-1.51,2.73-2.36,4.19-2.67.75-.12,1.45-.21,2.2.13.04.02.1.06.16.11.05.05.1.08.15.19.11.16.05.46-.03.54-.17.24-.33.29-.48.37-.3.13-.58.19-.84.24-1.05.16-1.85.07-2.4,0-.54-.08-.82-.17-.81-.22,0-.05.3-.06.83-.08.53-.02,1.33-.04,2.26-.27.23-.06.47-.14.67-.25.09-.05.2-.14.19-.15,0,0,.07.03.1.04,0,0,.02.01.03.02,0,0,.05,0,.03,0-.02,0-.04.01-.05.02,0,0-.12.1-.1.08,0,0,0,0-.03-.01-.38-.15-1.07-.09-1.68.07-1.25.36-2.6,1.16-3.49,2.5-.94,1.3-1.34,3.09-1.34,4.97.03,1.87.58,3.81,1.71,5.53,1.09,1.74,2.68,3.25,4.47,4.55,1.79,1.3,3.8,2.4,5.9,3.32,8.46,3.67,17.9,4.96,25.11,5.6,7.25.59,12.41.52,13.19.53Z"/></g></svg>