<?xml version="1.0" encoding="UTF-8"?><svg id="Line" xmlns="http://www.w3.org/2000/svg" viewBox="0 0 710 65.55"><defs><style>.cls-1{fill:#fff;stroke-width:0px;}</style></defs><g id="Divider_3_Lines"><path class="cls-1" d="M289.68,28.08H36.31c-1.51,0-36.31-.64-36.31-1.43s34.8-1.43,36.31-1.43h253.37c.19,0,.89.01,1.99.03.97.01,2.31-.07,3.7-.63,1.4-.52,2.81-1.59,3.65-3.19.42-.79.7-1.71.8-2.67.01-.24.05-.5.05-.72,0-.19-.02-.39-.06-.6-.09-.42-.25-.86-.47-1.28-1.88-3.44-6.41-5.73-9.13-4.47-1.37.56-2.17,1.68-2.65,2.45-.49.79-.7,1.3-.82,1.26-.07-.02-.05-.59.3-1.52.34-.9,1.04-2.3,2.68-3.2.8-.44,1.81-.68,2.86-.67,1.05.01,2.12.27,3.15.69,2.06.86,4.01,2.33,5.35,4.46.32.54.6,1.14.77,1.8.08.33.14.68.16,1.04.01.34,0,.62-.01.94-.07,1.23-.36,2.45-.88,3.55-1.02,2.23-2.93,3.8-4.75,4.56-1.82.81-3.51.97-4.72,1-1.1.02-1.81.03-2,.03Z"/><path class="cls-1" d="M420.32,25.22h253.37c1.51,0,36.31.64,36.31,1.43s-34.8,1.43-36.31,1.43h-253.37c-.19,0-.89-.01-2-.03-1.21-.03-2.9-.19-4.72-1-1.81-.76-3.72-2.34-4.75-4.56-.52-1.1-.81-2.32-.88-3.55,0-.31-.02-.6-.01-.94.02-.36.07-.71.16-1.04.18-.66.45-1.25.77-1.8,1.34-2.13,3.3-3.6,5.35-4.46,1.03-.42,2.11-.67,3.15-.69,1.05-.01,2.05.23,2.86.67,1.64.9,2.34,2.3,2.68,3.2.35.93.37,1.49.3,1.52-.11.04-.32-.47-.82-1.26-.48-.78-1.28-1.89-2.65-2.45-2.72-1.26-7.24,1.03-9.13,4.47-.22.43-.38.86-.47,1.28-.04.21-.06.41-.06.6,0,.22.04.48.05.72.11.97.38,1.88.8,2.67.84,1.6,2.25,2.67,3.65,3.19,1.39.56,2.73.64,3.7.63,1.1-.02,1.81-.03,1.99-.03Z"/><path class="cls-1" d="M303.05,18.82c.93,4.95,3.81,9.47,7.56,13,1.89,1.77,3.97,3.34,6.19,4.72,2.25,1.32,4.57,2.57,7.02,3.52,4.86,2.02,10.03,3.32,15.27,4.15,5.24.83,10.57,1.18,15.9,1.2,5.33-.02,10.66-.37,15.9-1.2,5.24-.83,10.41-2.13,15.27-4.15,2.46-.96,4.77-2.2,7.02-3.52,2.22-1.38,4.3-2.95,6.19-4.72,3.75-3.53,6.63-8.05,7.56-13,.02-.09.11-.41.17-.93.08-.51.21-1.21.24-2.04.12-1.65-.01-3.81-.61-5.88-.56-2.08-1.61-3.99-2.51-5.35-.43-.71-.86-1.24-1.13-1.64-.27-.41-.4-.68-.34-.75.07-.07.33.05.74.34.41.29,1,.71,1.59,1.35,1.23,1.21,2.67,3.14,3.56,5.39.93,2.23,1.31,4.69,1.33,6.59.05.95-.04,1.76-.09,2.36-.04.6-.12.98-.14,1.08-1.08,5.71-4.33,10.72-8.4,14.55-2.05,1.92-4.3,3.61-6.66,5.08-2.4,1.41-4.85,2.73-7.43,3.73-5.11,2.13-10.49,3.47-15.9,4.33-5.42.86-10.89,1.22-16.35,1.24-5.46-.02-10.93-.38-16.35-1.24-5.41-.86-10.79-2.2-15.9-4.33-2.58-1.01-5.04-2.32-7.43-3.73-2.37-1.47-4.61-3.16-6.66-5.08-4.07-3.84-7.33-8.85-8.4-14.55-.02-.1-.1-.48-.14-1.08-.05-.6-.14-1.41-.09-2.36.02-1.9.4-4.36,1.33-6.59.89-2.25,2.32-4.17,3.56-5.39.59-.64,1.17-1.07,1.59-1.35.41-.29.68-.41.74-.34.07.07-.06.34-.34.75-.27.41-.71.94-1.13,1.64-.91,1.36-1.96,3.27-2.51,5.35-.6,2.07-.72,4.23-.61,5.88.02.83.16,1.52.24,2.04.06.52.15.84.17.93Z"/><path class="cls-1" d="M145.82,27.94c8.12,3.23,16.6,5.64,25.14,7.77,8.55,2.1,17.19,3.87,25.87,5.44,17.37,3.13,34.88,5.51,52.43,7.47,17.56,1.95,35.17,3.45,52.8,4.55,17.63,1.09,35.29,1.79,52.94,1.82,17.65-.02,35.31-.73,52.94-1.82,17.63-1.1,35.24-2.6,52.8-4.55,17.55-1.96,35.06-4.34,52.43-7.47,8.68-1.57,17.32-3.34,25.87-5.44,8.54-2.12,17.02-4.53,25.14-7.77.56-.26,4.43-1.62,9.42-4.35,2.47-1.38,5.21-3.18,7.43-5.62,1.07-1.24,1.94-2.67,2.29-4.23.12-.39.1-.79.16-1.18.03-.4-.02-.82-.03-1.24-.12-.81-.27-1.63-.63-2.38-.63-1.53-1.83-2.8-3.2-3.81-1.37-1.02-2.95-1.75-4.52-2.32-3.16-1.12-6.34-1.56-9.03-1.7-2.71-.14-4.96.1-6.49.44-1.54.34-2.24.9-2.32.82-.03-.03.1-.23.45-.51.35-.28.93-.58,1.7-.86,1.55-.54,3.87-.96,6.67-1,2.8-.03,6.1.25,9.52,1.29,1.7.54,3.45,1.24,5.06,2.34,1.59,1.09,3.11,2.55,3.99,4.45.9,1.89,1.21,3.99.83,6.08-.39,2.07-1.45,3.86-2.64,5.33-2.47,2.88-5.37,4.85-7.93,6.37-5.17,2.99-9.09,4.45-9.67,4.72-8.33,3.31-16.9,5.75-25.52,7.89-8.63,2.12-17.32,3.9-26.05,5.48-17.45,3.15-35.02,5.53-52.62,7.5-17.61,1.96-35.26,3.46-52.94,4.56-17.68,1.09-35.38,1.8-53.12,1.82-17.73-.02-35.44-.74-53.12-1.82-17.68-1.11-35.33-2.61-52.94-4.56-17.6-1.97-35.17-4.35-52.62-7.5-8.72-1.58-17.42-3.36-26.05-5.48-8.62-2.15-17.2-4.58-25.52-7.89-.58-.27-4.5-1.73-9.67-4.72-2.56-1.52-5.45-3.49-7.93-6.37-1.19-1.47-2.25-3.26-2.64-5.33-.38-2.08-.07-4.19.83-6.08.88-1.9,2.39-3.36,3.99-4.45,1.61-1.1,3.36-1.81,5.06-2.34C137.82.25,141.12-.03,143.92,0c2.8.03,5.12.46,6.67,1,.77.29,1.35.59,1.7.86.35.28.48.48.45.51-.07.08-.78-.48-2.32-.82-1.53-.34-3.78-.57-6.49-.44-2.7.13-5.87.57-9.03,1.7-1.57.57-3.15,1.3-4.52,2.32-1.36,1.01-2.56,2.28-3.2,3.81-.36.74-.51,1.57-.63,2.38,0,.41-.06.84-.03,1.24.06.4.04.8.16,1.18.35,1.56,1.22,2.99,2.29,4.23,2.22,2.44,4.97,4.24,7.43,5.62,4.99,2.73,8.86,4.09,9.42,4.35Z"/></g></svg>