<?xml version="1.0" encoding="UTF-8"?><svg id="Line" xmlns="http://www.w3.org/2000/svg" viewBox="0 0 722 100.85"><defs><style>.cls-1{fill:#fff;stroke-width:0px;}</style></defs><g id="Divider_1_Lines"><path class="cls-1" d="M647.58,41.18H74.42c-.85,0-6.4-.05-14.28-.11-3.93-.05-8.56-.07-13.42-1.26-2.42-.6-4.85-1.65-7.03-3.02-1.09-.68-2.14-1.42-3.16-2.17-1.04-.78-2.03-1.62-2.98-2.46-3.77-3.36-7.46-6.65-11.24-9.34-3.75-2.72-7.48-4.89-10.81-6.45C4.86,13.16-.08,12.39,0,12.09c.02-.1,1.24.09,3.37.49,1.06.24,2.33.6,3.8,1,1.43.5,3.08,1,4.79,1.77,3.47,1.44,7.36,3.51,11.27,6.16,3.93,2.61,7.82,5.88,11.64,9.11.96.81,1.91,1.57,2.9,2.27,1.02.71,2.04,1.39,3.07,2.01,2.06,1.23,4.22,2.1,6.45,2.61,4.48,1,8.96.95,12.86.92,7.87-.06,13.43-.11,14.28-.11h573.15c.85,0,6.4.05,14.28.11,3.9.03,8.38.07,12.86-.92,2.23-.5,4.39-1.37,6.45-2.61,1.03-.62,2.05-1.29,3.07-2.01.98-.7,1.93-1.47,2.9-2.27,3.82-3.23,7.71-6.5,11.64-9.11,3.91-2.65,7.81-4.72,11.27-6.16,1.71-.77,3.36-1.27,4.79-1.77,1.46-.41,2.74-.76,3.8-1,2.14-.4,3.36-.59,3.37-.49.08.3-4.86,1.06-11.51,4.28-3.33,1.57-7.06,3.74-10.81,6.45-3.78,2.69-7.47,5.98-11.24,9.34-.94.83-1.93,1.67-2.98,2.46-1.02.75-2.07,1.49-3.16,2.17-2.18,1.38-4.61,2.43-7.03,3.02-4.86,1.19-9.48,1.2-13.42,1.26-7.87.06-13.43.11-14.28.11Z"/><path class="cls-1" d="M114.89,84.06c1.38-.48,2.81-.77,4.31-.83.75-.03,1.53.02,2.35.21.8.2,1.73.54,2.48,1.41.37.42.62.99.72,1.54.09.54.07,1.06-.02,1.51-.19.9-.53,1.65-.93,2.28-.75,1.28-1.76,2.45-2.86,3.37-2.19,1.86-4.63,3.21-7.17,4.3-2.53,1.09-5.18,1.89-7.89,2.41-2.71.49-5.5.73-8.29.49-2.79-.21-5.59-.91-8.17-2.18-2.55-1.31-4.84-3.2-6.5-5.54-.21-.29-.42-.57-.62-.88-.19-.34-.42-.66-.57-1.04-.36-.71-.56-1.49-.71-2.28-.24-1.59-.01-3.17.45-4.59.98-2.84,2.7-5.12,4.54-7.18,1.87-2.04,3.92-3.84,6.06-5.51,4.28-3.32,8.89-6.12,13.63-8.64,9.5-4.99,19.55-8.87,29.97-11.45.37-.09,4.9-1.05,9.43-1.4,2.26-.19,4.5-.23,6.17-.14,1.67.09,2.77.29,2.77.48,0,.2-1.09.38-2.71.63-1.62.25-3.78.6-5.95,1.03-4.33.85-8.67,2.09-9.03,2.18-10.16,2.51-20.04,6.33-29.31,11.2-4.62,2.45-9.11,5.18-13.21,8.37-2.04,1.59-3.98,3.3-5.7,5.17-1.69,1.87-3.19,3.94-3.94,6.15-.35,1.1-.49,2.21-.34,3.25.1.52.23,1.03.47,1.5.09.25.26.47.39.71l.53.74c1.41,1.99,3.32,3.56,5.48,4.68,4.39,2.19,9.68,2.36,14.65,1.43,2.49-.48,4.96-1.22,7.29-2.23,2.33-1,4.57-2.26,6.43-3.84.93-.79,1.66-1.65,2.26-2.66.31-.48.49-.97.58-1.37.08-.42.02-.57-.09-.7-.11-.15-.47-.35-.94-.46-.47-.11-1.03-.16-1.6-.13-1.14.04-2.35.28-3.46.67-.15.06-1.27.35-2.54,1.13-.63.39-1.24.94-1.54,1.54-.12.26-.21.72-.19.94.02.22.03.28.33.45.64.28,1.78.22,2.73.09.98-.14,1.9-.35,2.7-.54,1.59-.38,2.65-.68,2.73-.5.08.18-.83.82-2.36,1.55-.76.36-1.68.74-2.73,1.05-.52.15-1.08.29-1.69.36-.61.07-1.26.12-2.03-.1-.38-.12-.79-.31-1.15-.66-.34-.34-.59-.8-.68-1.22-.19-.86-.09-1.52.13-2.26.51-1.38,1.44-2.24,2.23-2.85,1.62-1.2,2.93-1.6,3.12-1.68Z"/><path class="cls-1" d="M606.17,86.76c-1.12-.39-2.32-.63-3.46-.67-.57-.03-1.13.02-1.6.13-.48.1-.83.31-.94.46-.11.13-.17.28-.09.7.09.4.28.89.58,1.37.6,1.01,1.33,1.87,2.26,2.66,1.85,1.58,4.1,2.84,6.43,3.84,2.33,1.01,4.8,1.74,7.29,2.23,4.97.92,10.26.76,14.65-1.43,2.16-1.12,4.07-2.68,5.48-4.68l.53-.74c.12-.24.29-.46.39-.71.25-.48.37-.99.47-1.5.16-1.04.02-2.15-.34-3.25-.75-2.2-2.25-4.28-3.94-6.15-1.72-1.87-3.66-3.58-5.7-5.17-4.1-3.18-8.59-5.91-13.21-8.37-9.27-4.87-19.15-8.69-29.31-11.2-.36-.09-4.69-1.33-9.03-2.18-2.16-.44-4.32-.78-5.95-1.03-1.62-.25-2.71-.42-2.71-.63,0-.19,1.1-.39,2.77-.48,1.67-.09,3.92-.04,6.17.14,4.52.35,9.06,1.31,9.43,1.4,10.43,2.58,20.48,6.46,29.97,11.45,4.74,2.52,9.35,5.31,13.63,8.64,2.14,1.66,4.19,3.47,6.06,5.51,1.84,2.05,3.57,4.34,4.54,7.18.46,1.42.69,3,.45,4.59-.14.78-.35,1.57-.71,2.28-.15.37-.38.69-.57,1.04-.2.31-.42.59-.62.88-1.66,2.34-3.95,4.23-6.5,5.54-2.57,1.27-5.37,1.97-8.17,2.18-2.8.24-5.58,0-8.29-.49-2.71-.53-5.36-1.32-7.89-2.41-2.53-1.09-4.97-2.44-7.17-4.3-1.1-.93-2.11-2.1-2.86-3.37-.39-.64-.74-1.39-.93-2.28-.09-.45-.12-.97-.02-1.51.11-.55.35-1.12.72-1.54.75-.88,1.68-1.21,2.48-1.41.82-.19,1.6-.24,2.35-.21,1.5.06,2.93.35,4.31.83.19.09,1.5.48,3.12,1.68.79.61,1.72,1.47,2.23,2.85.22.74.31,1.4.13,2.26-.09.42-.34.89-.68,1.22-.35.35-.77.54-1.15.66-.77.22-1.42.17-2.03.1-.61-.08-1.17-.21-1.69-.36-1.05-.31-1.96-.69-2.73-1.05-1.52-.72-2.44-1.37-2.36-1.55.08-.18,1.14.12,2.73.5.79.19,1.72.4,2.7.54.95.14,2.09.19,2.73-.09.3-.17.3-.22.33-.45.03-.23-.06-.68-.19-.94-.3-.6-.91-1.16-1.54-1.54-1.27-.79-2.39-1.07-2.54-1.13Z"/><path class="cls-1" d="M108.56,32.74c10.05-3.75,20.21-7.03,30.57-9.63,2.59-.65,5.15-1.4,7.75-1.98l7.8-1.78,3.9-.89,3.92-.79,7.84-1.57c20.93-4.03,42.04-6.99,63.2-9.31C275.86,2.2,318.43.08,361,0c42.57.08,85.14,2.2,127.48,6.79,21.16,2.32,42.27,5.29,63.2,9.31l7.84,1.57,3.92.79,3.9.89,7.8,1.78c2.6.57,5.17,1.32,7.75,1.98,10.35,2.59,20.52,5.88,30.57,9.63.7.3,5.43,2.11,11.55,5.75,3.05,1.83,6.42,4.16,9.72,6.96,3.31,2.79,6.5,6.12,9.24,9.77,1.35,1.84,2.61,3.75,3.64,5.74,1.06,1.98,1.94,4.01,2.54,6.07,1.29,4.07,1.42,8.25.38,11.56-.54,1.65-1.37,3.01-2.23,4.11-.93,1.04-1.85,1.82-2.68,2.35-.41.24-.79.46-1.13.66-.33.14-.62.26-.89.37-.49.19-.75.27-.77.22s.21-.21.64-.48c.24-.14.51-.3.8-.48.31-.23.64-.48,1.01-.75.74-.58,1.55-1.38,2.35-2.4.72-1.07,1.42-2.36,1.83-3.9.8-3.08.53-6.94-.83-10.75-.64-1.92-1.54-3.83-2.61-5.68-1.04-1.87-2.31-3.66-3.66-5.39-2.73-3.43-5.89-6.56-9.15-9.18-3.26-2.62-6.56-4.81-9.54-6.51-5.99-3.39-10.59-5.07-11.28-5.36-9.87-3.68-19.96-6.95-30.23-9.52-2.57-.65-5.11-1.39-7.7-1.96l-7.75-1.77-3.87-.89-3.9-.79-7.8-1.56c-20.83-4.01-41.87-6.96-62.97-9.28-42.22-4.58-84.7-6.7-127.17-6.77-42.47.08-84.95,2.2-127.17,6.77-21.1,2.32-42.14,5.27-62.97,9.28l-7.8,1.56-3.9.79-3.87.89-7.75,1.77c-2.59.57-5.13,1.31-7.7,1.96-10.27,2.57-20.37,5.84-30.23,9.52-.68.29-5.28,1.97-11.28,5.36-2.99,1.7-6.29,3.89-9.54,6.51-3.26,2.62-6.42,5.74-9.15,9.18-1.35,1.73-2.61,3.52-3.66,5.39-1.07,1.86-1.97,3.76-2.61,5.68-1.36,3.81-1.63,7.67-.83,10.75.41,1.54,1.11,2.83,1.83,3.9.79,1.02,1.6,1.83,2.35,2.4.37.27.7.52,1.01.75.3.18.56.34.8.48.43.27.66.44.64.48s-.28-.03-.77-.22c-.27-.11-.56-.23-.89-.37-.34-.2-.72-.42-1.13-.66-.83-.52-1.76-1.31-2.68-2.35-.85-1.09-1.69-2.46-2.23-4.11-1.05-3.3-.91-7.48.38-11.56.6-2.05,1.48-4.09,2.54-6.07,1.03-1.99,2.29-3.9,3.64-5.74,2.74-3.66,5.93-6.98,9.24-9.77,3.31-2.8,6.67-5.13,9.72-6.96,6.12-3.64,10.85-5.45,11.55-5.75Z"/><path class="cls-1" d="M649.54,51.84h-235.1c.19-.71.44-1.46.6-2.16l.24-1.05.08-.55c.1-.64.14-1.29.17-1.94.03-1.29-.1-2.56-.46-3.72-.36-1.16-.95-2.19-1.76-3.02l-.64-.59-.74-.48c-.22-.17-.55-.31-.85-.46l-.9-.45c-4.92-2.28-10.37-3.67-15.82-4.77-5.46-1.1-11.01-1.86-16.58-2.38-5.57-.51-11.16-.8-16.75-.81-5.59.01-11.18.29-16.75.81-5.57.51-11.12,1.28-16.58,2.38-5.45,1.1-10.89,2.5-15.82,4.77l-.9.45c-.3.15-.62.29-.85.46l-.74.48-.64.59c-.81.83-1.4,1.86-1.76,3.02-.36,1.16-.5,2.43-.46,3.72.03.64.07,1.29.17,1.94l.09.55.24,1.05c.16.7.4,1.45.6,2.16H72.46c-.89,0-6.74-.06-15.02-.13-2.1-.07-4.37-.19-6.76-.61-2.37-.42-4.9-1.15-7.24-2.45-2.35-1.29-4.39-3.1-6.27-4.96-.92-.91-1.9-1.94-2.74-2.96-.88-1.02-1.69-2.05-2.53-3.07-3.31-4.11-6.68-8.08-10.16-11.48-3.46-3.42-7-6.25-10.24-8.35-1.59-1.1-3.18-1.89-4.54-2.67-1.41-.68-2.66-1.25-3.68-1.71C1.18,12.67-.02,12.19,0,12.09H0c.03-.09,1.28.21,3.49.82,1.07.38,2.38.87,3.85,1.48,1.43.71,3.09,1.44,4.76,2.49,3.4,1.99,7.12,4.77,10.75,8.14,3.65,3.36,7.2,7.31,10.61,11.34,1.73,2.02,3.38,4,5.25,5.74,1.87,1.77,3.78,3.37,5.87,4.46,4.18,2.19,8.9,2.45,12.92,2.51,8.25-.05,14.07-.09,14.96-.09h231.45,0s-.08-.5-.08-.5c-.11-.75-.17-1.51-.2-2.27-.04-1.53.11-3.1.59-4.63.47-1.53,1.3-3.01,2.46-4.2l.92-.83,1.03-.67c.35-.25.67-.38,1-.55l.99-.49c5.33-2.46,10.9-3.86,16.48-5,5.59-1.12,11.23-1.9,16.88-2.42,5.66-.52,11.33-.81,17.02-.82,5.69.01,11.36.3,17.02.82,5.66.52,11.29,1.3,16.88,2.42,5.58,1.14,11.15,2.54,16.48,5l.99.49c.33.17.65.31,1,.55l1.03.67.92.83c1.16,1.18,2,2.66,2.47,4.19.47,1.53.63,3.1.59,4.63-.03.76-.08,1.52-.2,2.27l-.08.5h0s231.44,0,231.44,0c.89,0,6.71.04,14.96.09,4.02-.06,8.74-.32,12.92-2.51,2.09-1.09,4-2.69,5.87-4.46,1.88-1.74,3.52-3.72,5.25-5.74,3.41-4.03,6.96-7.99,10.61-11.34,3.63-3.37,7.35-6.14,10.75-8.14,1.67-1.05,3.33-1.78,4.76-2.49,1.48-.61,2.78-1.1,3.85-1.48,2.21-.61,3.46-.92,3.49-.82h0c.03.09-1.18.58-3.29,1.36-1.03.46-2.27,1.03-3.68,1.71-1.37.77-2.95,1.57-4.54,2.67-3.24,2.1-6.78,4.93-10.24,8.35-3.48,3.4-6.85,7.37-10.16,11.48-.84,1.02-1.66,2.06-2.53,3.07-.84,1.02-1.82,2.04-2.74,2.96-1.88,1.86-3.92,3.67-6.27,4.96-2.34,1.3-4.86,2.03-7.24,2.45-2.39.42-4.66.55-6.76.61-8.28.07-14.12.13-15.02.13Z"/></g></svg>