<?xml version="1.0" encoding="UTF-8"?><svg id="Line" xmlns="http://www.w3.org/2000/svg" viewBox="0 0 224.08 224.08"><defs><style>.cls-1{fill:#fff;stroke-width:0px;}</style></defs><g id="Icon_10_Lines"><path class="cls-1" d="M174.4,92.72c.71-.37,1.43-.75,2.09-1.21.67-.44,1.37-.85,2.02-1.32,1.27-.99,2.58-1.93,3.73-3.06,2.41-2.14,4.52-4.66,6.45-7.26,3.78-5.29,6.63-11.24,8.47-17.53,1.89-6.27,2.95-12.81,3.44-19.38l.27-4.94.07-4.96-.1-4.96-.19-3.7-3.7-.19-4.96-.1-4.96.07-4.94.27c-6.58.49-13.11,1.56-19.38,3.44-6.29,1.84-12.24,4.7-17.53,8.47-2.6,1.93-5.12,4.04-7.26,6.45-1.14,1.15-2.08,2.46-3.06,3.73-.47.65-.88,1.35-1.32,2.02-.46.66-.84,1.37-1.21,2.09-.26.36-3.01,5.24-4.25,10.63-.67,2.67-1.04,5.38-1.21,7.43-.18,2.05-.18,3.42-.37,3.45-.2.03-.58-1.34-.74-3.45-.17-2.11-.1-4.96.34-7.82.77-5.76,3.43-11.2,3.71-11.59.4-.77.81-1.53,1.3-2.25.48-.72.91-1.47,1.42-2.17,1.05-1.37,2.07-2.77,3.28-4.01,2.3-2.58,4.94-4.79,7.69-6.83,5.58-3.99,11.85-6.98,18.38-8.89,6.53-1.96,13.26-3.05,20-3.56l5.06-.27,5.06-.07,5.06.1,6.31.32.32,6.31.1,5.06-.07,5.06-.27,5.06c-.51,6.74-1.6,13.48-3.56,20-1.92,6.53-4.9,12.8-8.89,18.38-2.04,2.76-4.25,5.39-6.83,7.69-1.23,1.21-2.64,2.23-4.01,3.28-.7.51-1.45.95-2.17,1.42-.71.49-1.48.9-2.25,1.3-.39.28-5.83,2.94-11.59,3.71-2.85.44-5.71.51-7.82.34-2.11-.16-3.48-.54-3.45-.74.03-.19,1.4-.19,3.45-.37,2.05-.17,4.76-.54,7.43-1.21,5.39-1.24,10.27-3.99,10.63-4.25Z"/><path class="cls-1" d="M175.75,128.85c.77.4,1.53.81,2.25,1.3.72.48,1.47.92,2.17,1.42,1.37,1.05,2.77,2.07,4.01,3.28,2.58,2.3,4.79,4.94,6.83,7.69,3.99,5.58,6.98,11.85,8.89,18.38,1.96,6.52,3.05,13.26,3.56,20l.27,5.06.07,5.06-.1,5.06-.32,6.31-6.31.32-5.06.1-5.06-.07-5.06-.27c-6.74-.5-13.47-1.6-20-3.56-6.53-1.92-12.8-4.9-18.38-8.89-2.76-2.04-5.39-4.25-7.69-6.83-1.21-1.23-2.23-2.64-3.28-4.01-.51-.7-.95-1.45-1.42-2.17-.49-.72-.9-1.48-1.3-2.25-.28-.39-2.94-5.83-3.71-11.59-.44-2.85-.51-5.71-.34-7.82.16-2.11.54-3.48.74-3.45.19.03.19,1.4.37,3.45.17,2.05.54,4.76,1.21,7.43,1.24,5.39,3.99,10.27,4.25,10.63.37.71.75,1.42,1.21,2.09.44.67.85,1.37,1.32,2.02.99,1.27,1.93,2.58,3.06,3.73,2.14,2.41,4.66,4.52,7.26,6.45,5.29,3.78,11.24,6.63,17.53,8.47,6.27,1.89,12.81,2.95,19.38,3.44l4.94.27,4.96.07,4.96-.1,3.7-.19.19-3.7.1-4.96-.07-4.96-.27-4.94c-.49-6.58-1.56-13.11-3.44-19.38-1.84-6.29-4.7-12.24-8.47-17.53-1.93-2.6-4.04-5.12-6.45-7.26-1.15-1.14-2.46-2.08-3.73-3.06-.65-.47-1.35-.88-2.02-1.32-.66-.46-1.37-.84-2.09-1.21-.36-.26-5.24-3.01-10.63-4.25-2.67-.67-5.38-1.04-7.43-1.21-2.05-.18-3.42-.18-3.45-.37-.03-.2,1.34-.58,3.45-.74,2.11-.17,4.97-.1,7.82.34,5.76.77,11.2,3.43,11.59,3.71Z"/><path class="cls-1" d="M48.33,95.24c-.77-.4-1.53-.81-2.25-1.3-.72-.48-1.47-.92-2.17-1.42-1.37-1.05-2.77-2.07-4.01-3.28-2.58-2.3-4.79-4.94-6.83-7.69-3.99-5.58-6.98-11.85-8.89-18.38-1.96-6.52-3.05-13.26-3.56-20l-.27-5.06-.07-5.06.1-5.06.32-6.31,6.31-.32,5.06-.1,5.06.07,5.06.27c6.74.5,13.47,1.6,20,3.56,6.53,1.92,12.8,4.9,18.38,8.89,2.76,2.04,5.39,4.25,7.69,6.83,1.21,1.23,2.23,2.64,3.28,4.01.51.7.95,1.45,1.42,2.17.49.72.9,1.48,1.3,2.25.28.39,2.94,5.83,3.71,11.59.44,2.85.51,5.71.34,7.82-.16,2.11-.54,3.48-.74,3.45-.19-.03-.19-1.4-.37-3.45-.17-2.05-.54-4.76-1.21-7.43-1.24-5.39-3.99-10.27-4.25-10.63-.37-.71-.75-1.42-1.21-2.09-.44-.67-.85-1.37-1.32-2.02-.99-1.27-1.93-2.58-3.06-3.73-2.14-2.41-4.66-4.52-7.26-6.45-5.29-3.78-11.24-6.63-17.53-8.47-6.27-1.89-12.81-2.95-19.38-3.44l-4.94-.27-4.96-.07-4.96.1-3.7.19-.19,3.7-.1,4.96.07,4.96.27,4.94c.49,6.58,1.56,13.11,3.44,19.38,1.84,6.29,4.7,12.24,8.47,17.53,1.93,2.6,4.04,5.12,6.45,7.26,1.15,1.14,2.46,2.08,3.73,3.06.65.47,1.35.88,2.02,1.32.66.46,1.37.84,2.09,1.21.36.26,5.24,3.01,10.63,4.25,2.67.67,5.38,1.04,7.43,1.21,2.05.18,3.42.18,3.45.37.03.2-1.34.58-3.45.74-2.11.17-4.97.1-7.82-.34-5.76-.77-11.2-3.43-11.59-3.71Z"/><path class="cls-1" d="M49.68,131.36c-.71.37-1.43.75-2.09,1.21-.67.44-1.37.85-2.02,1.32-1.27.99-2.58,1.93-3.73,3.06-2.41,2.14-4.52,4.66-6.45,7.26-3.78,5.29-6.63,11.24-8.47,17.53-1.89,6.27-2.95,12.81-3.44,19.38l-.27,4.94-.07,4.96.1,4.96.19,3.7,3.7.19,4.96.1,4.96-.07,4.94-.27c6.58-.49,13.11-1.56,19.38-3.44,6.29-1.84,12.24-4.7,17.53-8.47,2.6-1.93,5.12-4.04,7.26-6.45,1.14-1.15,2.08-2.46,3.06-3.73.47-.65.88-1.35,1.32-2.02.46-.66.84-1.37,1.21-2.09.26-.36,3.01-5.24,4.25-10.63.67-2.67,1.04-5.38,1.21-7.43.18-2.05.18-3.42.37-3.45.2-.03.58,1.34.74,3.45.17,2.11.1,4.96-.34,7.82-.77,5.76-3.43,11.2-3.71,11.59-.4.77-.81,1.53-1.3,2.25-.48.72-.91,1.47-1.42,2.17-1.05,1.37-2.07,2.77-3.28,4.01-2.3,2.58-4.94,4.79-7.69,6.83-5.58,3.99-11.85,6.98-18.38,8.89-6.53,1.96-13.26,3.05-20,3.56l-5.06.27-5.06.07-5.06-.1-6.31-.32-.32-6.31-.1-5.06.07-5.06.27-5.06c.51-6.74,1.6-13.48,3.56-20,1.92-6.53,4.9-12.8,8.89-18.38,2.04-2.76,4.25-5.39,6.83-7.69,1.23-1.21,2.64-2.23,4.01-3.28.7-.51,1.45-.95,2.17-1.42.71-.49,1.48-.9,2.25-1.3.39-.28,5.83-2.94,11.59-3.71,2.85-.44,5.71-.51,7.82-.34,2.11.16,3.48.54,3.45.74-.03.19-1.4.19-3.45.37-2.05.17-4.76.54-7.43,1.21-5.39,1.24-10.27,3.99-10.63,4.25Z"/><path class="cls-1" d="M128.7,218.76c1.14-1.47,1.87-3.41,2.37-5.39.5-2,.77-4.08.93-6.18.26-4.21.07-8.49-.46-12.73-.25-2.12-.6-4.24-1-6.34-.17-1.06-.46-2.07-.69-3.11-.22-1.04-.53-2.06-.83-3.08-1.21-4.09-2.73-8.11-4.43-12.07-3.35-7.95-7.3-15.7-10.44-23.94-1.54-4.12-2.92-8.38-3.39-12.93-.05-.57-.12-1.14-.16-1.7l-.04-1.67c0-1.12.02-2.23.08-3.35.12-2.24.42-4.48.97-6.7.04-.16.31-1.19.9-2.59.58-1.4,1.5-3.17,2.84-4.66.67-.74,1.44-1.41,2.29-1.87.84-.47,1.81-.72,2.68-.53.44.09.81.35,1.04.62.22.28.33.57.36.8.07.46-.06.7-.14.7-.11.01-.19-.22-.4-.5-.19-.29-.54-.55-1.01-.52-1,.03-2.34,1.17-3.24,2.56-1.88,2.81-2.47,6.43-2.55,6.69-.5,2-.78,4.08-.89,6.18-.06,1.05-.08,2.1-.07,3.16l.04,1.59c.03.52.1,1.03.14,1.54.42,4.11,1.72,8.2,3.22,12.19,3.05,8.01,7,15.78,10.39,23.83,1.72,4.02,3.28,8.14,4.54,12.38.32,1.06.64,2.12.87,3.21.24,1.08.54,2.17.72,3.25.41,2.16.77,4.34,1.03,6.53.55,4.38.75,8.81.48,13.27-.17,2.23-.46,4.47-1.01,6.69-.56,2.21-1.36,4.45-2.88,6.43-.04.05-.16.19-.35.42-.18.22-.46.53-.85.83-.75.62-1.78,1.29-3.07,1.77-1.27.46-2.91.84-4.53.23-.21-.08-.37-.15-.58-.28-.22-.14-.44-.28-.61-.46-.35-.34-.6-.79-.59-1.26,0-.45.26-.91.55-1.03.27-.1.55-.24,1.2-.27.32.03.68.17.99.24.28.11.45.29.66.42.12.12.19.23.27.33.04.08.1.16.13.23.1.15.04.24.1.41.04.15-.1.35-.33.47-.36.13-.56.07-.72.04-.15-.04-.22-.09-.23-.14-.03-.12.35-.22.6-.45,0-.01,0-.02,0-.02-.01-.01.04.03.06.04h.01s0,0,0,0c.02.01-.14-.1-.08-.05h0s0,0,0,0h0s0-.03,0-.03c.01-.04-.01-.11-.04-.16-.07-.11-.18-.19-.28-.26-.22-.14-.46-.22-.68-.27-.14-.03-.28-.04-.4-.03-.13.01-.2.17-.18.29.03.13.14.23.26.29.06.03.12.05.18.06.07.03.21.07.31.08.89.2,2.03-.14,2.96-.63.95-.49,1.73-1.12,2.21-1.6.46-.45.7-.91.77-.96Z"/><path class="cls-1" d="M93.12,220.51c-1.52-1.99-2.31-4.23-2.88-6.43-.55-2.22-.84-4.46-1.01-6.69-.28-4.46-.07-8.9.48-13.27.26-2.19.61-4.37,1.03-6.53.18-1.08.48-2.17.72-3.25.23-1.09.55-2.15.87-3.21,1.26-4.24,2.82-8.36,4.54-12.38,3.4-8.05,7.34-15.82,10.39-23.83,1.5-4,2.8-8.09,3.22-12.19.05-.51.11-1.02.14-1.54l.04-1.59c0-1.06-.02-2.11-.07-3.16-.12-2.1-.4-4.18-.89-6.18-.08-.25-.67-3.87-2.55-6.69-.9-1.38-2.24-2.53-3.24-2.56-.47-.03-.82.23-1.01.52-.2.28-.28.51-.4.5-.08,0-.21-.24-.14-.7.03-.23.13-.52.36-.8.23-.26.6-.52,1.04-.62.87-.19,1.85.06,2.68.53.85.47,1.62,1.13,2.29,1.87,1.34,1.49,2.26,3.26,2.84,4.66.59,1.4.86,2.43.9,2.59.55,2.22.85,4.46.97,6.7.06,1.12.08,2.24.08,3.35l-.04,1.67c-.04.56-.1,1.14-.16,1.7-.47,4.55-1.85,8.81-3.39,12.93-3.14,8.23-7.08,15.98-10.44,23.94-1.7,3.96-3.22,7.98-4.43,12.07-.3,1.02-.62,2.04-.83,3.08-.23,1.04-.52,2.05-.69,3.11-.4,2.1-.75,4.22-1,6.34-.53,4.24-.72,8.52-.46,12.73.16,2.1.44,4.18.93,6.18.5,1.98,1.23,3.92,2.37,5.39.04.05.18.25.41.56.22.28.58.64,1.07,1.03.96.76,2.51,1.66,3.9,1.66.32,0,.7-.07.91-.15.15-.05.36-.15.39-.34.01-.09-.01-.19-.08-.25-.06-.07-.16-.04-.25-.05-.18,0-.39.05-.59.13-.2.08-.41.19-.57.35-.03.04-.07.09-.08.14,0,.03-.02.05-.01.07v.03s0,.02,0,.02h0s.08-.04-.08.06h0s0,0,0,0c.13-.09,0-.01.06,0l.07.07c.28.18.53.26.52.37-.01.08-.22.21-.7.18-.13-.03-.28-.05-.47-.24-.12-.14-.12-.29-.07-.42.01-.06,0-.11.01-.16l.09-.18c.06-.12.17-.29.37-.5l.55-.38c.26-.08.55-.16.85-.24.27-.05.43,0,.66,0,.23.01.28.06.43.1.24.1.41.09.6.32.18.21.3.52.3.84,0,.66-.46,1.25-1.07,1.64-.58.36-1.1.52-1.68.62-1.15.17-2.23-.04-3.17-.35-.94-.31-1.76-.73-2.44-1.16-.68-.43-1.23-.89-1.62-1.29-.35-.4-.56-.65-.62-.71Z"/><path class="cls-1" d="M130.96,3.57c1.52,1.99,2.31,4.23,2.88,6.43.55,2.22.84,4.46,1.01,6.69.28,4.46.07,8.9-.48,13.27-.26,2.19-.61,4.37-1.03,6.53-.18,1.08-.48,2.17-.72,3.25-.23,1.09-.55,2.15-.87,3.21-1.26,4.24-2.82,8.36-4.54,12.38-3.4,8.05-7.34,15.82-10.39,23.83-1.5,4-2.8,8.09-3.22,12.19-.05.51-.11,1.02-.14,1.54l-.04,1.59c0,1.06.02,2.11.07,3.16.12,2.1.4,4.18.89,6.18.08.25.67,3.87,2.55,6.69.9,1.38,2.24,2.53,3.24,2.56.47.03.82-.23,1.01-.52.2-.28.28-.51.4-.5.08,0,.21.24.14.7-.03.23-.13.52-.36.8-.23.26-.6.52-1.04.62-.87.19-1.85-.06-2.68-.53-.85-.47-1.62-1.13-2.29-1.87-1.34-1.49-2.26-3.26-2.84-4.66-.59-1.4-.86-2.43-.9-2.59-.55-2.22-.85-4.46-.97-6.7-.06-1.12-.08-2.24-.08-3.35l.04-1.67c.04-.56.1-1.14.16-1.7.47-4.55,1.85-8.81,3.39-12.93,3.14-8.23,7.08-15.98,10.44-23.94,1.7-3.96,3.22-7.98,4.43-12.07.3-1.02.62-2.04.83-3.08.23-1.04.52-2.05.69-3.11.4-2.1.75-4.22,1-6.34.53-4.24.72-8.52.46-12.73-.16-2.1-.44-4.18-.93-6.18-.5-1.98-1.23-3.92-2.37-5.39-.07-.05-.31-.51-.77-.96-.48-.48-1.26-1.11-2.21-1.6-.94-.49-2.07-.83-2.96-.63-.1.02-.24.06-.31.08-.06.02-.12.03-.18.06-.11.05-.23.15-.26.29-.02.12.05.28.18.29.12.01.26,0,.4-.03.22-.04.47-.13.68-.27.11-.07.21-.15.28-.26.03-.06.05-.12.04-.16v-.02s0,0,0,0h0c-.07.04.09-.07.08-.06h0s-.01,0-.01,0c-.02,0-.07.05-.06.04,0,0,.01-.01,0-.02-.25-.22-.63-.33-.6-.45,0-.06.08-.1.23-.14.15-.03.36-.09.72.04.23.12.37.32.33.47-.07.17,0,.25-.1.41-.03.07-.09.15-.13.23-.08.1-.15.2-.27.33-.21.13-.38.3-.66.42-.31.07-.67.21-.99.24-.64-.04-.92-.17-1.2-.27-.28-.12-.55-.59-.55-1.03,0-.47.24-.91.59-1.26.17-.18.39-.32.61-.46.22-.13.38-.2.58-.28,1.62-.62,3.26-.24,4.53.23,1.29.49,2.33,1.16,3.07,1.77.38.31.67.62.85.83.19.23.31.37.35.42Z"/><path class="cls-1" d="M95.38,5.32c-1.14,1.47-1.87,3.41-2.37,5.39-.5,2-.77,4.08-.93,6.18-.26,4.21-.07,8.49.46,12.73.25,2.12.6,4.24,1,6.34.17,1.06.46,2.07.69,3.11.22,1.04.53,2.06.83,3.08,1.21,4.09,2.73,8.11,4.43,12.07,3.35,7.95,7.3,15.7,10.44,23.94,1.54,4.12,2.92,8.38,3.39,12.93.05.57.12,1.14.16,1.7l.04,1.67c0,1.12-.02,2.23-.08,3.35-.12,2.24-.42,4.48-.97,6.7-.04.16-.31,1.19-.9,2.59-.58,1.4-1.5,3.17-2.84,4.66-.67.74-1.44,1.41-2.29,1.87-.84.47-1.81.72-2.68.53-.44-.09-.81-.35-1.04-.62-.22-.28-.33-.57-.36-.8-.07-.46.06-.7.14-.7.11-.01.19.22.4.5.19.29.54.55,1.01.52,1-.03,2.34-1.17,3.24-2.56,1.88-2.81,2.47-6.43,2.55-6.69.5-2,.78-4.08.89-6.18.06-1.05.08-2.1.07-3.16l-.04-1.59c-.03-.52-.1-1.03-.14-1.54-.42-4.11-1.72-8.2-3.22-12.19-3.05-8.01-7-15.78-10.39-23.83-1.72-4.02-3.28-8.14-4.54-12.38-.32-1.06-.64-2.12-.87-3.21-.24-1.08-.54-2.17-.72-3.25-.41-2.16-.77-4.34-1.03-6.53-.55-4.38-.75-8.81-.48-13.27.17-2.23.46-4.47,1.01-6.69.56-2.21,1.36-4.45,2.88-6.43.05-.06.27-.31.62-.71.38-.4.94-.85,1.62-1.29.68-.43,1.5-.85,2.44-1.16.93-.31,2.02-.52,3.17-.35.59.1,1.1.26,1.68.62.61.39,1.08.98,1.07,1.64,0,.32-.12.63-.3.84-.19.23-.36.23-.6.32-.15.03-.2.08-.43.1-.23,0-.39.06-.66,0-.3-.08-.59-.15-.85-.24l-.55-.38c-.2-.21-.31-.38-.37-.5l-.09-.18c-.01-.06,0-.1-.01-.16-.05-.13-.05-.28.07-.42.19-.19.34-.2.47-.24.48-.04.69.1.7.18.02.11-.24.19-.52.37l-.07.07c-.06,0,.07.08-.06,0h0s0,0,0,0c.15.1.04.03.08.05h0s0,.02,0,.02v.03s0,.04.01.07c.01.05.05.1.08.14.15.17.37.27.57.35.2.08.4.12.59.13.09,0,.19.02.25-.05.07-.06.09-.16.08-.25-.04-.19-.24-.3-.39-.34-.21-.08-.59-.15-.91-.15-1.39,0-2.94.9-3.9,1.66-.49.39-.85.75-1.07,1.03-.23.32-.38.51-.41.56Z"/><path class="cls-1" d="M5.32,128.7c1.47,1.14,3.41,1.87,5.39,2.37,2,.5,4.08.77,6.18.93,4.21.26,8.49.07,12.73-.46,2.12-.25,4.24-.6,6.34-1,1.06-.17,2.07-.46,3.11-.69,1.04-.22,2.06-.53,3.08-.83,4.09-1.21,8.11-2.73,12.07-4.43,7.95-3.35,15.7-7.3,23.94-10.44,4.12-1.54,8.38-2.92,12.93-3.39.57-.05,1.14-.12,1.7-.16l1.67-.04c1.12,0,2.23.02,3.35.08,2.24.12,4.48.42,6.7.97.16.04,1.19.31,2.59.9,1.4.58,3.17,1.5,4.66,2.84.74.67,1.41,1.44,1.87,2.29.47.84.72,1.81.53,2.68-.09.44-.35.81-.62,1.04-.28.22-.57.33-.8.36-.46.07-.7-.06-.7-.14-.01-.11.22-.19.5-.4.29-.19.55-.54.52-1.01-.03-1-1.17-2.34-2.56-3.24-2.81-1.88-6.43-2.47-6.69-2.55-2-.5-4.08-.78-6.18-.89-1.05-.06-2.1-.08-3.16-.07l-1.59.04c-.52.03-1.03.1-1.54.14-4.11.42-8.2,1.72-12.19,3.22-8.01,3.05-15.78,7-23.83,10.39-4.02,1.72-8.14,3.28-12.38,4.54-1.06.32-2.12.64-3.21.87-1.08.24-2.17.54-3.25.72-2.16.41-4.34.77-6.53,1.03-4.38.55-8.81.75-13.27.48-2.23-.17-4.47-.46-6.69-1.01-2.21-.56-4.45-1.36-6.43-2.88-.05-.04-.19-.16-.42-.35-.22-.18-.53-.46-.83-.85-.62-.75-1.29-1.78-1.77-3.07-.46-1.27-.84-2.91-.23-4.53.08-.21.15-.37.28-.58.14-.22.28-.44.46-.61.34-.35.79-.6,1.26-.59.45,0,.91.26,1.03.55.1.27.24.55.27,1.2-.03.32-.17.68-.24.99-.11.28-.29.45-.42.66-.12.12-.23.19-.33.27-.08.04-.16.1-.23.13-.15.1-.24.04-.41.1-.15.04-.35-.1-.47-.33-.13-.36-.07-.56-.04-.72.04-.15.09-.22.14-.23.12-.03.22.35.45.6.01,0,.02,0,.02,0,.01-.01-.03.04-.04.06h0s0,.01,0,.01c-.01.02.1-.14.05-.08h0s0,0,0,0h.02s.11,0,.16-.04c.11-.07.19-.18.26-.28.14-.22.22-.46.27-.68.03-.14.04-.28.03-.4-.01-.13-.17-.2-.29-.18-.13.03-.23.14-.29.26-.03.06-.05.12-.06.18-.03.07-.07.21-.08.31-.2.89.14,2.03.63,2.96.49.95,1.12,1.73,1.6,2.21.45.46.91.7.96.77Z"/><path class="cls-1" d="M3.57,93.12c1.99-1.52,4.23-2.31,6.43-2.88,2.22-.55,4.46-.84,6.69-1.01,4.46-.28,8.9-.07,13.27.48,2.19.26,4.37.61,6.53,1.03,1.08.18,2.17.48,3.25.72,1.09.23,2.15.55,3.21.87,4.24,1.26,8.36,2.82,12.38,4.54,8.05,3.4,15.82,7.34,23.83,10.39,4,1.5,8.09,2.8,12.19,3.22.51.05,1.02.11,1.54.14l1.59.04c1.06,0,2.11-.02,3.16-.07,2.1-.12,4.18-.4,6.18-.89.25-.08,3.87-.67,6.69-2.55,1.38-.9,2.53-2.24,2.56-3.24.03-.47-.23-.82-.52-1.01-.28-.2-.51-.28-.5-.4,0-.08.24-.21.7-.14.23.03.52.13.8.36.26.23.52.6.62,1.04.19.87-.06,1.85-.53,2.68-.47.85-1.13,1.62-1.87,2.29-1.49,1.34-3.26,2.26-4.66,2.84-1.4.59-2.43.86-2.59.9-2.22.55-4.46.85-6.7.97-1.12.06-2.24.08-3.35.08l-1.67-.04c-.56-.04-1.14-.1-1.7-.16-4.55-.47-8.81-1.85-12.93-3.39-8.23-3.14-15.98-7.08-23.94-10.44-3.96-1.7-7.98-3.22-12.07-4.43-1.02-.3-2.04-.62-3.08-.83-1.04-.23-2.05-.52-3.11-.69-2.1-.4-4.22-.75-6.34-1-4.24-.53-8.52-.72-12.73-.46-2.1.16-4.18.44-6.18.93-1.98.5-3.92,1.23-5.39,2.37-.05.04-.25.18-.56.41-.28.22-.64.58-1.03,1.07-.76.96-1.66,2.51-1.66,3.9,0,.32.07.7.15.91.05.15.15.36.34.39.09.01.19-.01.25-.08.07-.06.04-.16.05-.25,0-.18-.05-.39-.13-.59-.08-.2-.19-.41-.35-.57-.04-.03-.09-.07-.14-.08-.03,0-.05-.02-.07-.01h-.03s-.02,0-.02,0h0s.05.08-.05-.08h0s0,.01,0,.01c.09.13.01,0,0,.06l-.07.07c-.18.28-.26.53-.37.52-.08-.01-.21-.22-.18-.7.03-.13.05-.28.24-.47.14-.12.29-.12.42-.07.06.01.11,0,.16.01l.18.09c.12.06.29.17.5.37l.38.55c.08.26.16.55.24.85.05.27,0,.43,0,.66-.01.23-.06.28-.1.43-.1.24-.09.41-.32.6-.21.18-.52.3-.84.3-.66,0-1.25-.46-1.64-1.07-.36-.58-.52-1.1-.62-1.68-.17-1.15.04-2.23.35-3.17.31-.94.73-1.76,1.16-2.44.43-.68.89-1.23,1.29-1.62.4-.35.65-.56.71-.62Z"/><path class="cls-1" d="M220.51,130.96c-1.99,1.52-4.23,2.31-6.43,2.88-2.22.55-4.46.84-6.69,1.01-4.46.28-8.9.07-13.27-.48-2.19-.26-4.37-.61-6.53-1.03-1.08-.18-2.17-.48-3.25-.72-1.09-.23-2.15-.55-3.21-.87-4.24-1.26-8.36-2.82-12.38-4.54-8.05-3.4-15.82-7.34-23.83-10.39-4-1.5-8.09-2.8-12.19-3.22-.51-.05-1.02-.11-1.54-.14l-1.59-.04c-1.06,0-2.11.02-3.16.07-2.1.12-4.18.4-6.18.89-.25.08-3.87.67-6.69,2.55-1.38.9-2.53,2.24-2.56,3.24-.03.47.23.82.52,1.01.28.2.51.28.5.4,0,.08-.24.21-.7.14-.23-.03-.52-.13-.8-.36-.26-.23-.52-.6-.62-1.04-.19-.87.06-1.85.53-2.68.47-.85,1.13-1.62,1.87-2.29,1.49-1.34,3.26-2.26,4.66-2.84,1.4-.59,2.43-.86,2.59-.9,2.22-.55,4.46-.85,6.7-.97,1.12-.06,2.24-.08,3.35-.08l1.67.04c.56.04,1.14.1,1.7.16,4.55.47,8.81,1.85,12.93,3.39,8.23,3.14,15.98,7.08,23.94,10.44,3.96,1.7,7.98,3.22,12.07,4.43,1.02.3,2.04.62,3.08.83,1.04.23,2.05.52,3.11.69,2.1.4,4.22.75,6.34,1,4.24.53,8.52.72,12.73.46,2.1-.16,4.18-.44,6.18-.93,1.98-.5,3.92-1.23,5.39-2.37.05-.07.51-.31.96-.77.48-.48,1.11-1.26,1.6-2.21.49-.94.83-2.07.63-2.96-.02-.1-.06-.24-.08-.31-.02-.06-.03-.12-.06-.18-.05-.11-.15-.23-.29-.26-.12-.02-.28.05-.29.18-.01.12,0,.26.03.4.04.22.13.47.27.68.07.11.15.21.26.28.06.03.12.05.16.04h.02s0,0,0,0h0s0,0,0,0c-.05-.07.06.09.05.08h0s0-.01,0-.01c0-.02-.05-.07-.04-.06,0,0,.01.01.02,0,.22-.25.33-.63.45-.6.06,0,.1.08.14.23.03.15.09.36-.04.72-.12.23-.32.37-.47.33-.17-.07-.25,0-.41-.1-.07-.03-.15-.09-.23-.13-.1-.08-.2-.15-.33-.27-.13-.21-.3-.38-.42-.66-.07-.31-.21-.67-.24-.99.04-.64.17-.92.27-1.2.12-.28.59-.55,1.03-.55.47,0,.91.24,1.26.59.18.17.32.39.46.61.13.22.2.38.28.58.62,1.62.24,3.26-.23,4.53-.49,1.29-1.16,2.33-1.77,3.07-.31.38-.62.67-.83.85-.23.19-.37.31-.42.35Z"/><path class="cls-1" d="M218.76,95.38c-1.47-1.14-3.41-1.87-5.39-2.37-2-.5-4.08-.77-6.18-.93-4.21-.26-8.49-.07-12.73.46-2.12.25-4.24.6-6.34,1-1.06.17-2.07.46-3.11.69-1.04.22-2.06.53-3.08.83-4.09,1.21-8.11,2.73-12.07,4.43-7.95,3.35-15.7,7.3-23.94,10.44-4.12,1.54-8.38,2.92-12.93,3.39-.57.05-1.14.12-1.7.16l-1.67.04c-1.12,0-2.23-.02-3.35-.08-2.24-.12-4.48-.42-6.7-.97-.16-.04-1.19-.31-2.59-.9-1.4-.58-3.17-1.5-4.66-2.84-.74-.67-1.41-1.44-1.87-2.29-.47-.84-.72-1.81-.53-2.68.09-.44.35-.81.62-1.04.28-.22.57-.33.8-.36.46-.07.7.06.7.14.01.11-.22.19-.5.4-.29.19-.55.54-.52,1.01.03,1,1.17,2.34,2.56,3.24,2.81,1.88,6.43,2.47,6.69,2.55,2,.5,4.08.78,6.18.89,1.05.06,2.1.08,3.16.07l1.59-.04c.52-.03,1.03-.1,1.54-.14,4.11-.42,8.2-1.72,12.19-3.22,8.01-3.05,15.78-7,23.83-10.39,4.02-1.72,8.14-3.28,12.38-4.54,1.06-.32,2.12-.64,3.21-.87,1.08-.24,2.17-.54,3.25-.72,2.16-.41,4.34-.77,6.53-1.03,4.38-.55,8.81-.75,13.27-.48,2.23.17,4.47.46,6.69,1.01,2.21.56,4.45,1.36,6.43,2.88.06.05.31.27.71.62.4.38.85.94,1.29,1.62.43.68.85,1.5,1.16,2.44.31.93.52,2.02.35,3.17-.1.59-.26,1.1-.62,1.68-.39.61-.98,1.08-1.64,1.07-.32,0-.63-.12-.84-.3-.23-.19-.23-.36-.32-.6-.03-.15-.08-.2-.1-.43,0-.23-.06-.39,0-.66.08-.3.15-.59.24-.85l.38-.55c.21-.2.38-.31.5-.37l.18-.09c.06-.01.1,0,.16-.01.13-.05.28-.05.42.07.19.19.2.34.24.47.04.48-.1.69-.18.7-.11.02-.19-.24-.37-.52l-.07-.07c0-.06-.08.07,0-.06h0s0-.01,0-.01c-.1.15-.03.04-.05.08h0s-.02,0-.02,0h-.03s-.04,0-.07.01c-.05.01-.1.05-.14.08-.17.15-.27.37-.35.57-.08.2-.12.4-.13.59,0,.09-.02.19.05.25.06.07.16.09.25.08.19-.04.3-.24.34-.39.08-.21.15-.59.15-.91,0-1.39-.9-2.94-1.66-3.9-.39-.49-.75-.85-1.03-1.07-.32-.23-.51-.38-.56-.41Z"/></g></svg>