<?xml version="1.0" encoding="UTF-8"?><svg id="Line" xmlns="http://www.w3.org/2000/svg" viewBox="0 0 217 226.39"><defs><style>.cls-1{fill:#fff;stroke-width:0px;}</style></defs><g id="Icon_13_Lines"><path class="cls-1" d="M57.38,27.59c.49,1.88.5,3.71.38,5.49-.12,1.78-.45,3.49-.83,5.18-.79,3.38-1.91,6.63-3.23,9.78-.65,1.58-1.37,3.13-2.12,4.67-.78,1.52-1.59,3.07-2.5,4.52-1.79,2.93-3.77,5.71-5.83,8.39-4.1,5.38-8.53,10.45-12.35,15.84-1.89,2.69-3.65,5.48-4.8,8.43-.61,1.44-1.04,3.07-1.42,4.62-.37,1.57-.64,3.16-.74,4.74,0,.21-.44,2.97.1,5.48.24,1.22.87,2.4,1.45,2.67.25.14.53.07.75-.1.22-.15.35-.3.45-.26.08.03.15.23.02.59-.06.18-.19.39-.42.58-.24.18-.61.31-.99.28-.77-.07-1.43-.55-1.94-1.12-.52-.58-.92-1.28-1.23-2-1.22-2.93-1.04-6.07-1.04-6.3.11-1.78.41-3.51.81-5.21.42-1.71.85-3.33,1.54-5,1.3-3.32,3.17-6.25,5.13-9.04,3.95-5.57,8.38-10.63,12.42-15.94,2.03-2.64,3.95-5.34,5.66-8.14.88-1.39,1.63-2.83,2.38-4.29.72-1.48,1.42-2.98,2.05-4.5,1.27-3.04,2.35-6.16,3.08-9.32.35-1.58.66-3.18.76-4.75.11-1.57.07-3.15-.29-4.52,0-.06-.05-.23-.14-.5-.04-.13-.08-.29-.14-.47-.06-.15-.13-.34-.24-.54-.4-.78-1.24-1.85-2.11-2.25-.21-.09-.41-.13-.61-.14-.11,0-.21.01-.26.02-.02,0-.05,0-.05,0-.06-.06-.12-.11-.15-.13-.08-.03,0-.02-.08-.01-.03,0-.12.05-.2.14l-.05.06v.03s-.02,0-.02,0c-.04.11.32-.91.17-.48h0s0,0,0,0l.07.03c.18.09.4.14.6.16.2.02.39,0,.48,0,.02,0,.01,0,.02,0l.09.07s.04.03.07.04c.03,0,0,0,0,0,.05-.02-.15.05-.1.05,0,0,0-.03,0-.05-.1-.19-.28-.34-.24-.44.04-.07.22-.17.61,0,.09.05.24.13.3.39.03.14,0,.26-.06.38-.05.1-.12.18-.19.24-.26.23-.54.34-.86.43-.32.08-.67.11-1.08.05l-.15-.03s-.29-.11-.34-.18c-.2-.17-.29-.33-.36-.5-.14-.34-.12-.74.05-1.08.37-.69.97-.87,1.4-.99.48-.11,1-.11,1.47,0,.93.22,1.69.69,2.3,1.19.62.5,1.1,1.05,1.48,1.59.19.27.36.54.5.8.12.25.21.47.29.67.17.38.25.63.26.7Z"/><path class="cls-1" d="M168.48,142.13c-3.88,3.5-8.16,6.33-12,9.49-1.9,1.58-3.7,3.26-4.94,5.16-1.26,2.03-2.35,4.26-2.56,6.38,0,.06-.28.99-.26,1.73,0,.1,0,.19,0,.25,0,.06,0,.13,0,.2v.09s-.01.02-.02.05c-.03.06.07.09.11.14.23.12.41.01.49.17.04.1.04.24-.04.42-.06.2-.24.38-.51.5-.15.03-.28.12-.51.05-.11-.02-.22-.05-.34-.1-.1-.04-.18-.1-.27-.16-.2-.12-.34-.26-.46-.4-.14-.15-.26-.31-.34-.46-.77-1.3-.69-2.61-.71-2.71.13-1.49.58-2.82,1.1-4.09.52-1.28,1.2-2.43,1.89-3.58,1.55-2.36,3.54-4.16,5.53-5.83,4.01-3.29,8.24-6.09,11.9-9.4.07-.06.96-.65,1.87-1.2.91-.55,1.85-1.1,2.16-.84.29.25-.13,1.29-.72,2.26-.59.97-1.32,1.85-1.39,1.9Z"/><path class="cls-1" d="M50.44,140.02c3.66,3.32,7.89,6.12,11.9,9.4,1.99,1.67,3.98,3.46,5.53,5.83.69,1.14,1.37,2.3,1.89,3.58.53,1.26.97,2.6,1.1,4.09-.02.1.05,1.42-.71,2.71-.08.15-.2.31-.34.46-.12.15-.26.28-.46.4-.09.06-.17.11-.27.16-.11.04-.23.07-.34.1-.23.07-.36-.02-.51-.05-.27-.13-.45-.31-.51-.5-.08-.18-.08-.33-.04-.42.07-.15.25-.05.49-.17.05-.04.15-.07.11-.14,0-.02-.01-.04-.02-.05v-.09c0-.07,0-.13,0-.2,0-.06.01-.15,0-.25.02-.73-.27-1.67-.26-1.73-.21-2.12-1.3-4.36-2.56-6.38-1.24-1.9-3.04-3.58-4.94-5.16-3.84-3.16-8.12-5.98-12-9.49-.07-.06-.8-.94-1.39-1.9-.59-.97-1.02-2.01-.73-2.26.31-.26,1.25.29,2.16.84.91.56,1.8,1.15,1.87,1.2Z"/><path class="cls-1" d="M162.38,28.35c-.36,1.37-.4,2.95-.29,4.52.11,1.58.41,3.17.76,4.75.73,3.17,1.81,6.29,3.08,9.32.62,1.52,1.32,3.02,2.05,4.5.75,1.46,1.5,2.9,2.38,4.29,1.71,2.8,3.63,5.5,5.66,8.14,4.04,5.3,8.46,10.36,12.42,15.94,1.96,2.8,3.82,5.73,5.13,9.04.69,1.67,1.11,3.29,1.54,5,.4,1.7.69,3.43.81,5.21,0,.23.18,3.37-1.04,6.3-.31.72-.71,1.42-1.23,2-.51.57-1.17,1.06-1.94,1.12-.39.03-.75-.1-.99-.28-.24-.19-.36-.41-.42-.58-.12-.35-.06-.56.02-.59.1-.04.23.11.45.26.22.17.5.24.75.1.58-.26,1.21-1.45,1.45-2.67.55-2.51.11-5.27.11-5.48-.1-1.58-.37-3.17-.74-4.74-.38-1.55-.81-3.19-1.42-4.62-1.15-2.94-2.91-5.73-4.8-8.43-3.82-5.39-8.25-10.46-12.35-15.84-2.06-2.68-4.04-5.47-5.83-8.39-.91-1.45-1.72-2.99-2.5-4.52-.75-1.54-1.47-3.08-2.12-4.67-1.32-3.15-2.45-6.4-3.23-9.78-.38-1.69-.71-3.41-.83-5.18-.12-1.77-.11-3.6.38-5.49,0-.07.09-.32.26-.7.08-.19.17-.41.29-.67.14-.26.3-.53.5-.8.38-.54.87-1.09,1.48-1.59.61-.5,1.36-.97,2.3-1.19.47-.1.99-.1,1.47,0,.43.12,1.03.3,1.4.99.17.34.19.74.05,1.08-.07.17-.16.34-.36.5-.05.07-.32.19-.34.18l-.15.03c-.4.06-.76.03-1.08-.05-.32-.08-.6-.19-.86-.43-.06-.06-.13-.14-.19-.24-.06-.12-.09-.24-.06-.38.06-.25.21-.34.3-.39.39-.17.57-.07.6,0,.05.09-.13.24-.23.44,0,.02-.02.04,0,.05.05,0-.15-.06-.1-.05,0,0-.03,0,0,0,.03,0,.06-.02.07-.04l.09-.07s0,0,.02,0c.09,0,.28.03.48,0,.2-.02.42-.07.6-.16l.07-.03h0s0,0,0,0c-.15-.43.21.59.17.48h0s-.01-.04-.01-.04l-.05-.06c-.08-.08-.17-.13-.2-.14-.07,0,0-.02-.08.01-.02.01-.09.06-.15.13,0,0-.03,0-.05,0-.05,0-.15-.02-.26-.02-.2.01-.4.05-.61.14-.87.39-1.71,1.46-2.11,2.25-.11.2-.18.38-.24.54-.05.18-.1.34-.14.47-.08.27-.13.45-.14.5Z"/><path class="cls-1" d="M94.64,110.68c-1.97.58-3.93.64-5.82.52-1.89-.13-3.74-.44-5.53-.88-3.6-.86-7.03-2.18-10.36-3.67-3.31-1.53-6.52-3.25-9.58-5.32-3.04-2.06-5.84-4.39-8.52-6.81-5.39-4.8-10.32-10.02-15.76-14.46-2.72-2.2-5.58-4.21-8.68-5.48-3.19-1.27-6.59-2.18-9.95-2.44-.22,0-3.16-.46-5.89.1-1.33.26-2.65.85-3.08,1.49-.5.55.33,1.1.22,1.26-.03.07-.25.14-.62-.03-.18-.08-.4-.25-.56-.55-.15-.31-.17-.71-.07-1.08.22-.74.76-1.34,1.38-1.83.63-.49,1.37-.88,2.14-1.18,3.1-1.21,6.43-1.02,6.68-1.03,3.78.29,7.37,1.27,10.81,2.64,3.54,1.45,6.58,3.62,9.42,5.91,5.65,4.62,10.57,9.84,15.86,14.55,2.63,2.37,5.34,4.62,8.23,6.58,2.86,1.94,5.98,3.62,9.16,5.09,3.19,1.43,6.48,2.69,9.84,3.49,1.68.42,3.37.7,5.05.81,1.67.11,3.34.03,4.81-.41.05-.01.24-.06.55-.14.27-.08.68-.24,1.14-.48.9-.45,2.12-1.28,2.67-2.21.14-.23.21-.43.24-.66.02-.11.01-.19.02-.2.04-.02.18-.11.19-.13.04-.05.03-.04.02-.02-.03.05.02.21-.04.04-.02-.05-.06-.09-.1-.15-.02-.03-.06-.05-.08-.08l-.04-.03h-.02s-.01-.02-.01-.02h0c.83.46.23.13.42.23l-.1.14c-.13.2-.22.43-.27.64-.06.2-.04.43-.08.45-.21.19-.09.19-.16.03-.02,0,.07,0,.12-.03.24-.13.41-.28.5-.22.07.05.11.25-.08.61-.07.09-.12.2-.32.29-.07.05-.25.07-.38.04-.15-.04-.27-.12-.34-.21-.3-.35-.32-.66-.37-1.01-.03-.35,0-.72.12-1.11l.11-.3c.15-.27.32-.39.48-.48.31-.17.67-.24,1.07-.14.41.1.75.44.9.75.17.32.22.6.25.86.06.51-.02,1.07-.19,1.52-.33.94-.9,1.64-1.46,2.24-.57.59-1.16,1.06-1.71,1.44-.55.37-1.06.65-1.48.83-.4.16-.66.24-.73.26Z"/><path class="cls-1" d="M91.85,3.23c-9.61,1.21-19.07,3.7-27.8,7.78-8.71,4.08-16.77,9.66-23.24,16.8-3.32,3.49-6.18,7.39-8.73,11.47-2.59,4.06-4.68,8.43-6.5,12.9-.93,2.23-1.68,4.52-2.45,6.81l-.99,3.48c-.34,1.16-.57,2.35-.87,3.52-1.07,4.71-1.79,9.5-2.11,14.31-.03.34-.48,4.47-.49,8.54-.05,2.04.11,4.02.25,5.52.17,1.48.49,2.38.31,2.51-.14.11-.86-.75-1.39-2.26-.49-1.49-.97-3.56-1.18-5.65-.52-4.19-.39-8.49-.35-8.84.33-4.98,1.08-9.91,2.18-14.76.3-1.21.54-2.43.89-3.62l1.02-3.59c.79-2.36,1.56-4.73,2.53-7.03,1.88-4.61,4.04-9.13,6.73-13.34,2.65-4.22,5.62-8.28,9.06-11.9,6.72-7.42,15.11-13.23,24.13-17.45,9.05-4.23,18.8-6.78,28.64-8.03.35-.07,4.62-.3,8.78-.39,4.18.13,8.23.37,8.23.76s-4.03.87-8.11,1.25c-4.35.62-8.24,1.17-8.54,1.21Z"/><path class="cls-1" d="M16.14,96.67c-.53-.34-1.17-.41-1.79-.27-.63.16-1.27.58-1.82,1.19-1.11,1.21-1.91,2.99-2.45,4.73-.53,1.75-.7,3.57-.41,5.33.28,1.76.99,3.46,1.99,5.02,2.02,3.13,5.01,5.72,8.19,8.01,3.2,2.29,6.63,4.31,10.12,6.27,3.49,1.96,7.05,3.85,10.55,5.93.88.52,1.75,1.07,2.61,1.63l2.55,1.84c.79.69,1.6,1.36,2.37,2.07.72.76,1.49,1.48,2.17,2.28,2.75,3.18,4.85,6.85,6.46,10.65,1.62,3.81,2.78,7.74,3.79,11.67.09.28.77,3.7,1.26,7.07.49,3.36.88,6.67.5,6.76-.38.09-1.47-3.07-2.46-6.31-1.07-3.55-1.99-6.58-2.06-6.8-.99-3.86-2.13-7.66-3.66-11.26-1.53-3.6-3.48-6.99-5.99-9.9-.62-.74-1.33-1.39-1.98-2.09-.71-.65-1.45-1.26-2.17-1.9l-2.35-1.69c-.82-.53-1.66-1.06-2.51-1.56-3.41-2.03-6.96-3.91-10.48-5.89-3.52-1.98-7.04-4.04-10.38-6.44-3.32-2.4-6.56-5.15-8.93-8.79-1.17-1.82-2.06-3.9-2.4-6.11-.36-2.21-.14-4.5.5-6.59.66-2.07,1.5-4.08,3.1-5.86.8-.87,1.86-1.67,3.19-2.01,1.32-.34,2.84-.15,4.01.61.08.06.41.24.81.66.4.41.89,1.01,1.19,1.95.27.92.22,2-.16,2.99-.21.5-.5.98-.9,1.41-.42.42-.98.78-1.63.91-.66.15-1.33,0-1.83-.26-.52-.24-.91-.61-1.23-1.01-.62-.81-.81-1.83-.53-2.63.26-.84,1-1.18,1.4-1.22.42-.06.65.05.66.13.02.11-.19.21-.45.4-.26.2-.53.5-.52.93-.02.42.21.96.65,1.33.42.37,1.07.55,1.36.37.17-.08.33-.22.48-.42.14-.21.24-.47.32-.72.12-.53.06-1.05-.09-1.38-.14-.31-.42-.61-.61-.76-.2-.17-.36-.23-.39-.27Z"/><path class="cls-1" d="M154.81,26.88c-.16,1.4-.87,2.57-1.66,3.46-.8.91-1.71,1.57-2.62,2.17-1.85,1.17-3.79,2.01-5.74,2.73-3.92,1.42-7.92,2.36-11.93,3.12-8.04,1.48-16.17,2.22-24.35,2.26-8.18-.04-16.31-.78-24.35-2.26-4.02-.77-8.02-1.7-11.93-3.12-1.95-.72-3.89-1.56-5.74-2.73-.92-.6-1.83-1.26-2.62-2.17-.79-.88-1.5-2.06-1.66-3.46,0-.09-.09-.49.02-1.02.04-.27.08-.59.15-.94.12-.34.26-.71.42-1.1.74-1.55,2.33-2.85,3.93-3.68,3.26-1.69,6.7-1.96,6.76-1.59.11.39-3.13,1.4-5.7,3.31-1.28.93-2.29,2.09-2.59,3.03-.05.24-.11.45-.17.64,0,.2-.01.37-.02.52-.05.3.04.45.03.5.12,1.25,1.44,2.58,2.99,3.55,1.56.99,3.35,1.78,5.18,2.45,3.68,1.34,7.57,2.25,11.48,3,7.84,1.44,15.85,2.17,23.82,2.21,7.97-.03,15.98-.77,23.82-2.21,3.91-.75,7.8-1.66,11.48-3,1.83-.67,3.61-1.46,5.18-2.45,1.55-.97,2.88-2.3,2.99-3.55-.01-.05.08-.19.03-.5,0-.15-.01-.32-.02-.52-.06-.19-.11-.4-.17-.64-.3-.94-1.31-2.1-2.59-3.03-2.58-1.91-5.81-2.92-5.7-3.31.07-.36,3.51-.1,6.76,1.59,1.61.83,3.2,2.13,3.93,3.68.16.39.3.76.42,1.1.08.35.11.67.15.94.1.53,0,.93.02,1.02Z"/><path class="cls-1" d="M65.43,187.29c.17,4.71-.08,9.4-.77,14.07-.33,2.34-.84,4.66-1.52,6.96l-.57,1.72c-.08.29-.23.57-.35.85l-.03.06h.02s.01,0,.01,0l.4-.02.8-.02.79.08c.54.03,1.04.18,1.55.3,2.03.56,3.74,1.68,5.27,2.9,1.45,1.3,2.77,2.71,3.89,4.23.54.77,1.16,1.5,1.62,2.31l.32.52.69-.73c.74-.71,1.51-1.36,2.31-1.95.8-.58,1.62-1.13,2.47-1.63.42-.25.85-.49,1.28-.73l.66-.35,1.25-.61.98.47.98.47c.35.51.43.54.57.7.13.15.31.28.47.42.35.26.7.53,1.11.75.39.24.82.45,1.26.64.42.21.89.36,1.35.53,1.85.63,3.8,1.1,5.81,1.37.21.04,2.76.58,5.34.96,1.28.23,2.56.4,3.52.58.96.19,1.6.39,1.6.58s-.64.37-1.62.52c-.98.15-2.29.29-3.62.32-2.67.14-5.42-.1-5.65-.15-2.12-.29-4.24-.79-6.33-1.5-.52-.19-1.05-.36-1.56-.62-.52-.23-1.03-.47-1.53-.78-.51-.27-.99-.63-1.47-1-.23-.21-.47-.39-.7-.62-.21-.22-.51-.55-.45-.49l-.59.31c-.4.21-.79.44-1.17.67-.77.46-1.52.96-2.24,1.48-.72.52-1.38,1.09-2,1.68l-.44.46c-.09.1-.1.07-.31.37l-.44.6c-.59.79-1.13,1.61-1.68,2.42l-2.54-4.11c-.44-.77-1.01-1.42-1.5-2.14-1.03-1.4-2.21-2.65-3.46-3.77-1.3-1.03-2.69-1.92-4.18-2.33-.37-.08-.74-.21-1.12-.22l-.56-.06-.56.02h-.28s-.69.19-.69.19l-.7.19c-.25.08-.41.06-.83.35l-2.21,1.35-2.96,1.87,3.75-6.39c.19-.3.27-.54.39-.8l.32-.75c.1-.25.23-.48.31-.75l.52-1.56c.62-2.12,1.11-4.32,1.42-6.55.67-4.46.91-9.03.75-13.54-.01-.21.09-2.85-.02-5.41-.06-1.28-.16-2.53-.27-3.47-.12-.92-.24-1.56-.05-1.67.15-.09.63.42,1.11,1.33.46.92.88,2.2,1.21,3.52.65,2.63.87,5.37.88,5.59Z"/><path class="cls-1" d="M101.12,164.66c-1.09.22-2.13-.11-2.9-.53-.81-.48-1.5-1.18-1.94-1.97-.84-1.59-.92-3.2-.88-4.66.16-2.94.96-5.62,1.85-8.22,1.88-5.18,4.36-10.04,7.33-14.64.05-.08.83-.99,1.73-1.77.89-.79,1.89-1.42,2.18-1.17h0c.3.26-.12,1.31-.55,2.36-.44,1.04-.92,2.07-.97,2.14-2.84,4.38-5.26,9.14-7.03,14.03-.85,2.44-1.57,4.97-1.69,7.39-.05,1.19.09,2.36.52,3.15.22.38.5.65.84.87.4.2.72.27.95.22.02,0,.13.03.37-.02.24-.04.61-.23.99-.53.77-.59,1.46-1.49,1.83-1.37.37.11.38,1.35-.21,2.58-.29.61-.75,1.22-1.3,1.6-.26.2-.54.32-.73.42-.21.08-.35.11-.39.12Z"/><path class="cls-1" d="M125.51.39c9.84,1.24,19.59,3.8,28.64,8.03,9.02,4.23,17.41,10.03,24.13,17.45,3.45,3.62,6.41,7.68,9.06,11.9,2.69,4.21,4.85,8.73,6.73,13.34.96,2.3,1.73,4.67,2.53,7.03l1.02,3.59c.35,1.19.59,2.42.89,3.62,1.1,4.85,1.85,9.79,2.18,14.76.04.35.17,4.66-.35,8.84-.21,2.09-.7,4.15-1.18,5.65-.53,1.51-1.25,2.37-1.39,2.26-.18-.13.14-1.03.31-2.51.13-1.49.3-3.48.25-5.52-.01-4.06-.45-8.2-.49-8.54-.32-4.81-1.04-9.6-2.11-14.31-.29-1.17-.53-2.36-.87-3.52l-.99-3.48c-.77-2.29-1.52-4.59-2.45-6.81-1.82-4.46-3.91-8.83-6.5-12.9-2.56-4.08-5.41-7.98-8.73-11.47-6.47-7.14-14.53-12.72-23.24-16.8-8.73-4.08-18.19-6.57-27.8-7.78-.3-.04-4.18-.59-8.54-1.21-4.08-.38-8.11-.86-8.11-1.25s4.05-.63,8.23-.76c4.16.09,8.44.32,8.78.39Z"/><path class="cls-1" d="M199.35,94.24c1.17-.75,2.69-.95,4.01-.61,1.33.34,2.4,1.14,3.19,2.01,1.6,1.78,2.44,3.79,3.1,5.86.64,2.09.85,4.38.5,6.59-.35,2.21-1.24,4.29-2.4,6.11-2.37,3.64-5.61,6.39-8.93,8.79-3.35,2.4-6.86,4.46-10.38,6.44-3.52,1.98-7.07,3.86-10.48,5.89-.85.51-1.69,1.03-2.51,1.56l-2.35,1.69c-.72.63-1.46,1.25-2.17,1.9-.66.7-1.36,1.35-1.98,2.09-2.52,2.91-4.47,6.3-5.99,9.9-1.53,3.6-2.66,7.4-3.66,11.26-.07.23-.99,3.26-2.06,6.8-1,3.24-2.08,6.4-2.47,6.31-.38-.09,0-3.4.5-6.76.5-3.36,1.17-6.79,1.26-7.07,1.01-3.93,2.18-7.86,3.79-11.67,1.61-3.8,3.71-7.47,6.46-10.65.68-.8,1.45-1.52,2.17-2.28.77-.71,1.58-1.38,2.37-2.07l2.55-1.84c.86-.56,1.73-1.1,2.61-1.63,3.5-2.09,7.06-3.97,10.55-5.93,3.49-1.96,6.92-3.98,10.12-6.27,3.17-2.29,6.17-4.88,8.19-8.01,1-1.56,1.71-3.26,1.99-5.02.28-1.76.12-3.58-.41-5.33-.54-1.74-1.34-3.52-2.45-4.73-.55-.61-1.19-1.04-1.82-1.19-.62-.14-1.26-.07-1.79.27-.03.03-.19.09-.39.27-.2.15-.47.44-.61.76-.16.33-.21.85-.09,1.38.07.26.18.51.32.72.15.2.31.34.48.42.29.18.95,0,1.36-.37.44-.36.67-.91.65-1.33,0-.43-.27-.74-.52-.93-.26-.2-.47-.29-.45-.4,0-.08.23-.19.66-.13.4.04,1.13.38,1.4,1.22.28.8.09,1.82-.53,2.63-.31.4-.71.77-1.23,1.01-.5.25-1.17.41-1.83.26-.65-.13-1.21-.49-1.63-.91-.41-.43-.69-.91-.9-1.41-.38-1-.44-2.07-.16-2.99.29-.95.78-1.54,1.19-1.95.4-.42.73-.6.81-.66Z"/><path class="cls-1" d="M154.43,187.39c-.16,4.52.08,9.08.75,13.54.31,2.24.8,4.43,1.42,6.55l.52,1.56c.08.27.21.5.31.75l.32.75c.12.26.2.51.39.8l3.75,6.39-2.97-1.87-2.21-1.35c-.42-.29-.59-.27-.83-.35l-.7-.19-.69-.19h-.28s-.56-.03-.56-.03l-.56.06c-.38,0-.74.14-1.12.22-1.49.41-2.88,1.3-4.18,2.33-1.25,1.12-2.43,2.37-3.46,3.77-.5.72-1.06,1.37-1.5,2.14l-2.54,4.11c-.55-.81-1.09-1.63-1.68-2.42l-.44-.6c-.22-.29-.22-.26-.31-.37l-.44-.46c-.62-.59-1.29-1.16-2-1.68-.72-.52-1.46-1.02-2.24-1.48-.39-.23-.78-.45-1.17-.67l-.59-.31c.07-.06-.24.26-.45.49-.22.24-.46.42-.7.62-.48.37-.97.73-1.47,1-.5.3-1.01.55-1.53.78-.51.25-1.04.42-1.56.62-2.09.71-4.21,1.22-6.33,1.5-.23.05-2.98.29-5.65.15-1.33-.03-2.65-.17-3.62-.32-.98-.15-1.62-.33-1.62-.52s.64-.4,1.6-.58c.96-.19,2.24-.35,3.52-.58,2.58-.37,5.13-.92,5.34-.96,2.01-.27,3.96-.75,5.81-1.37.45-.17.92-.32,1.35-.53.44-.19.87-.4,1.26-.64.42-.22.76-.49,1.11-.75.15-.14.33-.27.47-.42.14-.16.22-.19.57-.7l.98-.47.98-.47,1.25.61.66.35c.43.23.86.48,1.28.73.84.5,1.66,1.05,2.47,1.63.8.59,1.57,1.24,2.31,1.95l.69.73.32-.52c.46-.81,1.08-1.54,1.62-2.31,1.12-1.52,2.44-2.93,3.89-4.23,1.53-1.23,3.24-2.34,5.27-2.9.51-.12,1.01-.27,1.55-.3l.79-.08.8.02.4.02h.02s.02,0,.02,0l-.03-.06c-.11-.28-.26-.56-.35-.85l-.57-1.72c-.68-2.3-1.19-4.63-1.52-6.96-.7-4.67-.94-9.36-.78-14.07.02-.23.23-2.96.88-5.59.32-1.32.75-2.6,1.21-3.52.48-.92.96-1.43,1.11-1.33.19.1.07.74-.05,1.67-.11.94-.21,2.19-.27,3.47-.12,2.56-.01,5.19-.02,5.41Z"/><path class="cls-1" d="M116.43,161.86c.24.05.55-.02.95-.22.34-.22.62-.49.84-.87.42-.79.57-1.96.52-3.15-.12-2.42-.85-4.95-1.69-7.39-1.77-4.89-4.19-9.65-7.03-14.03-.05-.08-.53-1.11-.97-2.14-.43-1.04-.85-2.1-.55-2.35h0c.29-.26,1.3.38,2.18,1.17.9.78,1.67,1.68,1.73,1.77,2.98,4.61,5.46,9.46,7.33,14.64.89,2.61,1.69,5.28,1.85,8.22.05,1.46-.04,3.07-.88,4.66-.44.79-1.13,1.49-1.94,1.97-.77.42-1.81.75-2.9.53-.04,0-.18-.04-.39-.12-.19-.1-.47-.22-.73-.42-.55-.38-1-1-1.3-1.6-.59-1.23-.58-2.46-.21-2.58.37-.12,1.06.78,1.83,1.37.38.29.75.49.99.53.24.04.35.02.37.02Z"/><path class="cls-1" d="M88.41,110.47c.58.09,1.18.23,1.81.48.62.25,1.31.63,1.87,1.34.57.71.76,1.73.66,2.5-.09.78-.35,1.4-.63,1.97-1.18,2.18-2.75,3.67-4.34,5.15-3.21,2.88-6.69,5.29-10.31,7.49-1.81,1.09-3.67,2.12-5.59,3.06-1.93.92-3.88,1.81-6.09,2.37-2.19.54-4.5.66-6.74.36-2.24-.3-4.4-1.05-6.37-2.08-3.97-2.06-7.16-5.29-9.56-8.92-2.4-3.65-4.02-7.77-4.85-12.02-.42-2.13-.64-4.29-.67-6.46l.02-1.63.09-1.62c.08-1.07.19-2.09.29-3.14.21-2.08.45-4.17.7-6.24.25-2.06.53-4.13.55-6.03-.02-.13.05-1.01-.13-2.16-.18-1.14-.86-2.62-1.75-4.09-1.77-2.94-3.72-5.84-3.38-6.08.3-.22,2.75,2.16,5.04,4.94,1.14,1.38,2.21,3.04,2.65,4.6.42,1.53.41,2.61.44,2.77-.02,2.27-.33,4.33-.57,6.4-.25,2.07-.49,4.12-.7,6.18-.09,1.02-.21,2.07-.28,3.08l-.09,1.5-.02,1.5c.03,2,.23,3.99.62,5.95.77,3.91,2.25,7.69,4.43,11,2.17,3.3,5.05,6.17,8.5,7.96,1.71.89,3.55,1.53,5.44,1.78,1.89.25,3.81.15,5.66-.3,1.83-.46,3.71-1.29,5.53-2.16,1.82-.89,3.61-1.88,5.36-2.94,3.49-2.12,6.88-4.48,9.87-7.16,1.46-1.33,2.91-2.82,3.71-4.33.19-.37.31-.73.34-.98.01-.26-.02-.34-.09-.45-.17-.26-.99-.62-1.87-.73-.06-.01-.3-.06-.68-.12-.39-.05-.92-.12-1.56-.21-.7-.08-.57-.12-.82-.17-.1-.03-.23-.05-.4-.07-.15,0-.39-.05-.53.06-.1.21.07.33.25.53.1.09.23.2.38.3.15.11.3.22.63.4,1.13.63,1.88,1.08,1.81,1.27-.06.18-.94.09-2.22-.24-.27-.06-.77-.22-1.3-.41-.53-.19-1.1-.42-1.64-.69-.53-.27-.99-.58-1.31-.89-.3-.33-.56-.6-.55-1.12.03-.28.16-.46.28-.59.11-.15.25-.25.41-.37.32-.22.79-.39,1.39-.49.33-.04.65-.08.96-.12.36,0,.71-.02,1.06-.02.8-.02,1.12,0,1.59,0,.39,0,.74.02,1.05.03.3.01.54.01.78.03.47.03.79.07.87.08Z"/><path class="cls-1" d="M123.19,107.94c1.46.44,3.14.51,4.81.41,1.68-.11,3.37-.39,5.05-.81,3.36-.8,6.65-2.06,9.84-3.49,3.18-1.47,6.3-3.14,9.16-5.09,2.88-1.95,5.6-4.21,8.23-6.58,5.29-4.71,10.21-9.93,15.86-14.55,2.83-2.29,5.88-4.46,9.42-5.91,3.44-1.37,7.04-2.34,10.81-2.64.25,0,3.58-.19,6.68,1.03.77.3,1.51.69,2.14,1.18.63.48,1.17,1.09,1.38,1.83.1.37.08.77-.07,1.08-.16.3-.38.47-.56.55-.37.17-.59.11-.62.03-.11-.16.71-.71.22-1.26-.43-.64-1.76-1.23-3.08-1.49-2.72-.57-5.66-.1-5.89-.1-3.36.26-6.76,1.17-9.95,2.44-3.1,1.27-5.96,3.28-8.68,5.48-5.43,4.44-10.37,9.66-15.76,14.46-2.68,2.41-5.49,4.75-8.53,6.81-3.06,2.08-6.27,3.79-9.58,5.32-3.33,1.49-6.76,2.81-10.36,3.67-1.79.45-3.64.76-5.53.88-1.89.12-3.85.06-5.82-.52-.07-.03-.33-.1-.73-.26-.42-.18-.93-.46-1.48-.83-.55-.37-1.14-.84-1.71-1.44-.56-.6-1.13-1.3-1.46-2.24-.17-.45-.25-1.01-.19-1.52.03-.26.08-.54.25-.86.15-.31.5-.64.9-.75.4-.1.76-.03,1.07.14.16.1.33.21.48.48l.11.3c.12.39.15.77.12,1.11-.05.35-.07.66-.37,1.01-.07.09-.19.17-.34.21-.13.03-.31,0-.38-.04-.19-.09-.24-.2-.32-.29-.19-.36-.16-.57-.08-.61.09-.06.26.09.5.22.05.02.13.02.11.03-.06.17.06.16-.16-.03-.03-.02-.01-.25-.08-.45-.05-.21-.14-.44-.27-.64l-.1-.14c.19-.1-.42.23.42-.23h0s-.01,0-.01,0h-.02s-.04.05-.04.05c-.02.02-.06.05-.08.08-.04.06-.08.11-.1.15-.06.17,0,.01-.04-.04,0-.02-.02-.03.02.02,0,.02.15.11.19.13.01,0,0,.1.02.2.03.22.1.43.24.66.55.93,1.77,1.75,2.67,2.21.46.23.86.39,1.14.48.32.08.51.13.55.14Z"/><path class="cls-1" d="M129.05,113.29c-.88.11-1.7.48-1.87.73-.08.11-.11.19-.09.45.03.26.15.62.34.98.8,1.51,2.25,2.99,3.71,4.33,2.99,2.69,6.38,5.04,9.87,7.16,1.75,1.06,3.54,2.05,5.36,2.94,1.82.88,3.69,1.7,5.53,2.16,1.85.45,3.77.56,5.66.3,1.89-.25,3.73-.89,5.44-1.78,3.44-1.78,6.32-4.66,8.5-7.96,2.18-3.31,3.67-7.09,4.43-11,.38-1.96.59-3.95.62-5.95l-.02-1.5-.09-1.5c-.08-1.01-.19-2.05-.28-3.08-.21-2.06-.44-4.11-.7-6.18-.24-2.07-.55-4.13-.57-6.4.02-.16.02-1.24.44-2.77.43-1.56,1.51-3.22,2.65-4.6,2.29-2.78,4.75-5.16,5.04-4.94.33.25-1.61,3.15-3.38,6.08-.89,1.47-1.58,2.95-1.75,4.09-.18,1.15-.12,2.03-.13,2.16.01,1.9.3,3.97.54,6.03.25,2.07.5,4.15.7,6.24.09,1.05.21,2.08.29,3.14l.09,1.62.02,1.63c-.03,2.17-.25,4.33-.67,6.46-.84,4.25-2.45,8.37-4.85,12.02-2.4,3.63-5.59,6.85-9.56,8.92-1.98,1.02-4.13,1.78-6.37,2.08-2.24.3-4.54.18-6.74-.36-2.21-.56-4.16-1.44-6.09-2.37-1.92-.94-3.77-1.97-5.59-3.06-3.62-2.2-7.11-4.61-10.31-7.49-1.58-1.48-3.15-2.97-4.34-5.15-.28-.56-.54-1.19-.63-1.97-.1-.77.09-1.78.66-2.5.56-.71,1.25-1.08,1.87-1.34.63-.25,1.23-.39,1.81-.48.08-.02.4-.06.87-.08.24-.02.49-.02.78-.03.31,0,.67-.02,1.05-.03.47,0,.79-.02,1.59,0,.34,0,.7.02,1.06.02.31.04.63.08.96.12.6.1,1.07.28,1.39.49.15.12.29.22.41.37.12.13.24.31.28.59.01.52-.25.79-.55,1.12-.32.31-.78.62-1.31.89-.55.27-1.11.5-1.64.69-.53.19-1.03.35-1.3.41-1.28.33-2.16.43-2.22.24-.06-.19.68-.64,1.81-1.27.33-.18.49-.29.63-.4.15-.11.27-.21.38-.3.19-.2.36-.32.26-.53-.14-.11-.38-.06-.53-.06-.16.02-.29.05-.4.07-.25.06-.12.09-.82.17-.64.08-1.17.16-1.56.21-.39.06-.62.11-.68.12Z"/><path class="cls-1" d="M95.66,221.82c-1.63-1.39-2.76-3.19-3.51-5.05-.75-1.88-1.14-3.84-1.27-5.81-.23-3.93.56-7.95,2.62-11.42.03-.06.62-.73,1.34-1.23.7-.52,1.53-.82,1.79-.55.29.29.02,1.05-.2,1.78-.24.72-.47,1.41-.49,1.47-1.71,2.86-2.43,6.37-2.22,9.77.21,3.37,1.4,6.82,3.77,8.86.04.03.44.57.91,1.13.46.55,1.03,1.11.92,1.49-.11.37-.99.47-1.89.27-.89-.2-1.71-.67-1.77-.71Z"/><path class="cls-1" d="M119.5,219.63c2.37-2.03,3.56-5.49,3.77-8.86.21-3.4-.51-6.91-2.22-9.77-.03-.05-.26-.74-.49-1.47-.22-.73-.48-1.49-.2-1.78.27-.27,1.09.03,1.79.55.72.5,1.31,1.16,1.34,1.23,2.07,3.47,2.85,7.5,2.62,11.42-.13,1.97-.52,3.93-1.27,5.81-.75,1.87-1.88,3.66-3.51,5.05-.06.05-.88.52-1.77.71-.9.2-1.79.09-1.89-.27-.11-.38.45-.94.92-1.49.47-.56.86-1.1.91-1.13Z"/><path class="cls-1" d="M129.34,216.14c2.37-2.04,3.56-5.49,3.77-8.86.21-3.4-.51-6.91-2.22-9.77-.03-.05-.26-.74-.49-1.47-.22-.73-.48-1.49-.2-1.78.27-.27,1.09.03,1.79.55.72.5,1.31,1.16,1.34,1.23,2.07,3.47,2.85,7.5,2.62,11.42-.13,1.97-.52,3.93-1.27,5.81-.75,1.87-1.88,3.66-3.51,5.05-.06.05-.88.52-1.77.71-.9.2-1.79.09-1.89-.27-.11-.38.46-.94.92-1.49.46-.56.86-1.1.91-1.13Z"/><path class="cls-1" d="M85.82,218.32c-1.63-1.39-2.76-3.19-3.51-5.05-.75-1.88-1.14-3.84-1.27-5.81-.23-3.93.56-7.95,2.62-11.42.03-.06.62-.73,1.34-1.23.7-.52,1.53-.82,1.79-.55.29.29.02,1.04-.2,1.78-.24.72-.47,1.41-.49,1.47-1.71,2.86-2.43,6.37-2.22,9.77.21,3.37,1.4,6.82,3.77,8.86.05.03.44.57.91,1.13.46.55,1.03,1.11.92,1.49-.11.37-.99.47-1.89.27-.89-.2-1.71-.67-1.77-.71Z"/></g></svg>