<?xml version="1.0" encoding="UTF-8"?><svg id="Line" xmlns="http://www.w3.org/2000/svg" viewBox="0 0 238.81 238.81"><defs><style>.cls-1{fill:#fff;stroke-width:0px;}</style></defs><g id="Icon_21_Lines"><path class="cls-1" d="M193.39,19.52c1.88,0,3.76.2,5.6.61l.18.04.18.02c2.75.26,5.97,1.53,8.81,2.65,2.17.85,4.12,1.62,5.85,1.97.36,1.78,1.13,3.75,1.96,5.85,1.12,2.84,2.39,6.06,2.65,8.81l.02.18.04.18c1.91,8.69-.69,17.62-6.98,23.9-4.89,4.89-11.39,7.58-18.31,7.58-1.88,0-3.76-.2-5.6-.61l-.18-.04-.18-.02c-2.75-.26-5.97-1.53-8.81-2.65-2.17-.85-4.12-1.62-5.85-1.97-.36-1.77-1.13-3.75-1.96-5.85-1.12-2.84-2.39-6.06-2.65-8.81l-.02-.18-.04-.18c-1.91-8.69.69-17.62,6.98-23.9,4.89-4.89,11.39-7.58,18.31-7.58M193.39,16.52c-7.39,0-14.79,2.82-20.43,8.46-7.24,7.24-9.83,17.36-7.78,26.67h0c.67,7.07,6.56,15.42,4.26,17.71.37-.37.9-.53,1.55-.53,3.4,0,10.23,4.23,16.16,4.79h0c2.05.45,4.15.68,6.24.68,7.4,0,14.79-2.82,20.43-8.46,7.24-7.24,9.83-17.36,7.78-26.67h0c-.67-7.07-6.56-15.42-4.26-17.71-.37.37-.9.53-1.55.53-3.4,0-10.23-4.23-16.16-4.79-2.05-.45-4.15-.68-6.24-.68h0Z"/><path class="cls-1" d="M136.21,19.29c1.88,0,3.76.2,5.6.61l.18.04.18.02c2.75.26,5.97,1.53,8.81,2.65,2.17.85,4.12,1.62,5.85,1.97.36,1.78,1.13,3.75,1.96,5.85,1.12,2.84,2.39,6.06,2.65,8.81l.02.18.04.18c1.91,8.69-.69,17.62-6.98,23.9-4.89,4.89-11.39,7.58-18.31,7.58-1.88,0-3.76-.2-5.6-.61l-.18-.04-.18-.02c-2.75-.26-5.97-1.53-8.81-2.65-2.17-.85-4.12-1.62-5.85-1.97-.36-1.78-1.13-3.75-1.96-5.85-1.12-2.84-2.39-6.06-2.65-8.81l-.02-.18-.04-.18c-1.91-8.69.69-17.62,6.98-23.9,4.89-4.89,11.39-7.58,18.31-7.58M136.21,16.29c-7.4,0-14.79,2.82-20.43,8.46-7.24,7.24-9.83,17.36-7.78,26.67.67,7.07,6.56,15.42,4.26,17.71.37-.37.9-.53,1.55-.53,3.4,0,10.23,4.23,16.16,4.79,2.05.45,4.15.68,6.24.68,7.39,0,14.79-2.82,20.43-8.46,7.24-7.24,9.83-17.36,7.78-26.67h0c-.67-7.07-6.56-15.42-4.26-17.71-.37.37-.9.53-1.55.53-3.4,0-10.23-4.23-16.16-4.79h0c-2.05-.45-4.15-.68-6.24-.68h0Z"/><path class="cls-1" d="M193.62,76.7c1.88,0,3.76.2,5.6.61l.18.04.18.02c2.75.26,5.97,1.53,8.81,2.65,2.17.85,4.12,1.62,5.85,1.97.36,1.78,1.13,3.75,1.96,5.85,1.12,2.84,2.39,6.06,2.65,8.81l.02.18.04.18c1.91,8.69-.69,17.62-6.98,23.9-4.89,4.89-11.39,7.58-18.31,7.58-1.88,0-3.76-.2-5.6-.61l-.18-.04-.18-.02c-2.75-.26-5.97-1.53-8.81-2.65-2.17-.85-4.12-1.62-5.85-1.97-.36-1.78-1.13-3.75-1.96-5.85-1.12-2.84-2.39-6.06-2.65-8.81l-.02-.18-.04-.18c-1.91-8.69.69-17.62,6.98-23.9,4.89-4.89,11.39-7.58,18.31-7.58M193.62,73.7c-7.39,0-14.79,2.82-20.43,8.46-7.24,7.24-9.83,17.36-7.78,26.67h0c.67,7.07,6.56,15.42,4.26,17.71.37-.37.9-.53,1.55-.53,3.4,0,10.23,4.23,16.16,4.79h0c2.05.45,4.15.68,6.24.68,7.39,0,14.79-2.82,20.43-8.46,7.24-7.24,9.83-17.36,7.78-26.67h0c-.67-7.07-6.56-15.42-4.26-17.71-.37.37-.9.53-1.55.53-3.4,0-10.23-4.23-16.16-4.79h0c-2.05-.45-4.15-.68-6.24-.68h0Z"/><path class="cls-1" d="M99.1,67.64c.08-2.32.27-4.63.57-6.94.15-1.15.33-2.3.54-3.44.09-.57.23-1.14.34-1.71l.14-.68.1-.88c.57-4.69,1.9-9.16,3.41-13.5,1.52-4.34,3.27-8.56,4.88-12.78.8-2.11,1.57-4.22,2.16-6.33.29-1.05.53-2.11.67-3.14l.08-.76.02-.74c0-.24-.03-.47-.04-.7-.17-.63-.53-1.28-.79-1.91l1.01-1.01,1.01-1.01.97.43.49.21.24.11s.15.03.18.04h.04c.24.01.47.04.71.04l.75-.02.77-.08c1.04-.15,2.11-.4,3.18-.69,2.14-.61,4.27-1.39,6.41-2.2,4.27-1.64,8.55-3.41,12.95-4.93,4.4-1.51,8.94-2.84,13.7-3.36l.35-.04.36-.07.87-.16,1.73-.33c1.15-.25,2.32-.36,3.49-.51l1.75-.22c.58-.06,1.17-.08,1.76-.12,1.17-.05,2.34-.19,3.52-.18,4.7-.15,9.41.31,14.03,1.12,4.62.83,9.18,2.1,13.53,3.88,4.35,1.77,8.56,3.92,12.48,6.52,3.9,2.62,7.55,5.61,10.91,8.9,6.65,6.64,11.95,14.64,15.44,23.37,3.51,8.72,5.21,18.16,5,27.56-.06,2.35-.21,4.7-.5,7.03-.16,1.16-.31,2.33-.52,3.49-.1.58-.2,1.16-.32,1.73l-.18.86-.08.38s0-.05,0,0v.11s-.04.22-.04.22c-.52,4.76-1.84,9.3-3.35,13.7-1.52,4.4-3.3,8.68-4.94,12.95-.81,2.13-1.59,4.27-2.2,6.41-.29,1.07-.54,2.13-.69,3.18l-.08.77-.02.75c0,.25.03.47.04.71v.04s.02.15.04.18l.11.24.21.49.43.97-1.01,1.01-1.01,1.01c-.64-.26-1.28-.62-1.91-.79-.23-.01-.46-.04-.7-.04l-.74.02-.76.08c-1.03.14-2.08.38-3.13.67-2.11.59-4.22,1.36-6.33,2.16-4.22,1.61-8.44,3.37-12.78,4.88-4.34,1.51-8.81,2.84-13.5,3.41l-.88.1-.68.13-1.71.33c-1.14.24-2.29.39-3.44.54l-1.73.23-1.73.14c-1.16.09-2.31.2-3.47.2-.26,0-1.23.03-2.72.02-1.49-.08-3.52-.1-5.88-.39-4.71-.48-10.74-1.72-16.41-3.82-5.67-2.08-10.9-5.03-14.52-7.58-.87-.64-1.69-1.24-2.43-1.79-.71-.55-1.29-1.08-1.78-1.5-.96-.85-1.48-1.37-1.42-1.44.06-.08.7.29,1.77.99.54.34,1.16.79,1.92,1.26.78.48,1.63,1,2.54,1.55,3.75,2.22,8.99,4.82,14.58,6.61,5.58,1.8,11.44,2.79,15.99,3.11,2.27.21,4.22.17,5.66.21,1.44-.04,2.37-.07,2.61-.08,1.11,0,2.22-.1,3.33-.19l1.66-.13,1.65-.22c1.1-.15,2.21-.28,3.3-.52l1.64-.31.41-.08.21-.04.17-.03.11-.02h.11s.81-.11.81-.11c4.35-.53,8.66-1.79,12.89-3.27,4.25-1.48,8.43-3.22,12.7-4.85,2.14-.81,4.31-1.61,6.58-2.24,1.14-.31,2.31-.58,3.53-.75l.93-.1.97-.03c.33,0,.67.04,1,.06h-.02c-.02-.33-.06-.68-.06-1.01l.03-.98.1-.94c.18-1.24.46-2.42.77-3.57.66-2.29,1.46-4.49,2.28-6.65,1.66-4.33,3.42-8.56,4.9-12.86,1.48-4.29,2.74-8.66,3.21-13.07l.07-.53.1-.47.17-.83c.12-.55.22-1.11.31-1.66.2-1.11.35-2.23.5-3.34.28-2.24.43-4.49.48-6.74.2-9.01-1.42-18.07-4.79-26.43-3.35-8.37-8.42-16.04-14.81-22.41-3.22-3.16-6.72-6.02-10.46-8.54-3.76-2.5-7.79-4.55-11.96-6.25-4.17-1.72-8.54-2.93-12.97-3.73-4.43-.78-8.95-1.22-13.46-1.07-1.13-.02-2.25.12-3.38.17-.56.04-1.13.06-1.69.12l-1.68.21c-1.12.15-2.24.25-3.34.49l-1.66.31-.83.16-.49.09-.51.06c-4.41.48-8.77,1.74-13.07,3.22-4.3,1.49-8.54,3.24-12.86,4.9-2.17.82-4.36,1.63-6.65,2.28-1.15.32-2.33.6-3.57.77l-.94.1-.98.03c-.33,0-.67-.04-1.01-.06h0s0-.02,0-.02c.02.33.05.67.06,1l-.03.97-.1.93c-.17,1.22-.44,2.39-.75,3.53-.64,2.27-1.43,4.43-2.25,6.58-1.64,4.28-3.38,8.46-4.86,12.71-1.47,4.24-2.74,8.55-3.27,12.9l-.09.81c-.05.39-.08.42-.1.58l-.08.41c-.11.55-.23,1.09-.32,1.64-.2,1.1-.37,2.19-.52,3.3-.29,2.21-.47,4.43-.55,6.65,0,.49-.2,3.72.13,8.27.33,4.55,1.31,10.41,3.14,15.98,1.77,5.59,4.37,10.84,6.6,14.59,2.23,3.76,3.98,6.09,3.81,6.22-.13.11-2.19-1.99-4.74-5.62-2.55-3.62-5.5-8.85-7.57-14.53-2.13-5.66-3.36-11.69-3.85-16.4-.49-4.72-.36-8.09-.37-8.6Z"/><path class="cls-1" d="M124.12,104.16l-63.98,63.98-31.99,31.99-16,16-4,4-1.21,1.21v-.02c.33.43.61.9.88,1.38,1.01,1.94,1.43,4.2,1.09,6.36-.17,1.08-.48,2.14-.98,3.12-.26.48-.52.97-.86,1.4-.17.22-.31.45-.5.65l-.27.3-.14.15-.07.08c-.47-.43.96,1.06-1.08-.93-1.99-2.04-.51-.61-.93-1.08l.08-.07.15-.14.3-.27c.2-.19.43-.34.65-.5.43-.34.92-.6,1.4-.86.97-.51,2.04-.82,3.12-.98,2.16-.34,4.42.07,6.36,1.09.48.27.95.55,1.38.89h-.02s1.21-1.22,1.21-1.22l4-4,16-16,31.99-31.99,63.98-63.98c.38-.37,2.89-2.82,6.45-6.29,1.78-1.72,3.82-3.7,5.99-5.81,2.19-2.09,4.41-4.34,6.86-6.49,1.23-1.06,2.53-2.1,4.11-2.83.8-.33,1.69-.63,2.65-.54.94.07,1.83.43,2.5.95.34.25.63.54.92.81.26.31.51.57.75.9.49.67.79,1.47.88,2.24.17,1.58-.38,2.94-1,4-1.31,2.12-3.05,3.4-4.52,3.72-.74.17-1.43-.1-1.65-.46-.25-.33-.22-.56-.2-.57.06-.03.15.16.41.36.25.21.72.31,1.3.11,1.16-.41,2.68-1.74,3.69-3.7.48-.97.83-2.15.63-3.27-.1-.56-.33-1.08-.71-1.54-.19-.23-.44-.47-.66-.71-.25-.21-.49-.43-.75-.6-.52-.35-1.09-.53-1.67-.55-.58-.04-1.2.2-1.81.48-1.23.63-2.4,1.63-3.53,2.68-2.24,2.14-4.42,4.51-6.53,6.66-2.11,2.17-4.08,4.22-5.81,5.99-3.48,3.57-5.92,6.07-6.29,6.45l-63.98,63.98-31.99,31.99-16,16-4,4-2.79,2.79-.25.25c-.08.03-.18-.12-.26-.18l-.53-.46c-.37-.3-.68-.62-1.1-.93-.31-.25-.65-.44-.99-.65-1.4-.72-3.03-1.04-4.6-.78-.78.12-1.55.34-2.25.71-.34.19-.7.37-1.01.62-.16.12-.33.22-.47.36l-.22.2-.11.1-.06.05c-.47-.43.97,1.04-1.07-.96-2-2.04-.53-.6-.96-1.07l.05-.06.1-.11.2-.22c.14-.14.24-.31.36-.47.25-.31.43-.66.62-1.01.37-.7.59-1.47.71-2.25.25-1.57-.06-3.2-.78-4.6-.2-.34-.4-.68-.65-.99-.31-.42-.63-.73-.93-1.1l-.46-.53c-.05-.09-.21-.18-.18-.26l.25-.25,2.79-2.79,4-4,16-16,31.99-31.99,63.98-63.98c.38-.37,2.89-2.82,6.45-6.29,1.78-1.72,3.82-3.7,5.99-5.81,2.15-2.11,4.52-4.29,6.66-6.53,1.05-1.13,2.05-2.3,2.68-3.53.28-.61.52-1.23.48-1.81-.02-.58-.2-1.14-.55-1.67-.17-.26-.39-.5-.6-.75-.24-.22-.48-.47-.71-.66-.46-.37-.98-.61-1.54-.71-1.12-.2-2.3.14-3.27.63-1.96,1.01-3.29,2.53-3.7,3.69-.21.58-.11,1.06.11,1.3.2.26.4.35.36.41,0,.02-.24.05-.57-.2-.36-.22-.63-.92-.46-1.65.32-1.47,1.6-3.2,3.72-4.52,1.07-.62,2.42-1.17,4-1,.78.09,1.58.39,2.24.88.33.24.6.5.9.75.28.29.57.58.81.92.51.67.88,1.57.95,2.5.09.96-.21,1.84-.54,2.64-.73,1.58-1.77,2.88-2.82,4.11-2.15,2.44-4.4,4.67-6.49,6.86-2.11,2.17-4.08,4.22-5.81,6-3.48,3.57-5.92,6.07-6.29,6.45Z"/><path class="cls-1" d="M86.2,174.34c2.3.92,4.23,2.49,5.76,4.26.71.92,1.51,1.75,2.1,2.76.31.49.64.97.93,1.48l.78,1.58c.93,2.15,1.61,4.47,1.67,6.85.08,2.36-.23,4.73-.91,6.95-1.41,4.44-3.91,8.36-6.82,11.77-2.91,3.44-6.23,6.46-9.75,9.18-7.05,5.43-14.81,9.83-23.01,13.23-2.04.86-4.14,1.61-6.24,2.33-2.12.7-4.26,1.26-6.39,1.84-4.3,1.07-8.66,1.98-13.2,2.23-.16.03-1.22.01-2.73-.08-.75-.05-1.63-.21-2.54-.35-.45-.12-.92-.24-1.4-.37-.47-.11-.95-.36-1.41-.55-.93-.41-1.8-1.05-2.47-1.78-.61-.8-1.03-1.69-1.04-2.48-.09-1.58.56-2.4.69-2.34.23.06.02,1,.4,2.12.15.57.59,1.1,1.09,1.58.59.42,1.28.8,2.08,1.02.41.09.78.25,1.21.29.42.06.83.11,1.23.17.83.03,1.59.09,2.28.06,1.37-.05,2.34-.11,2.5-.14,4.21-.23,8.45-1.1,12.62-2.14,2.09-.56,4.18-1.12,6.21-1.78,2.03-.69,4.06-1.42,6.04-2.26,7.96-3.3,15.54-7.6,22.34-12.84,3.4-2.62,6.58-5.53,9.32-8.77,2.76-3.22,5.03-6.84,6.27-10.75.6-1.96.85-3.98.79-5.98-.04-2.01-.63-3.96-1.42-5.81l-.67-1.36c-.25-.44-.55-.86-.82-1.29-.5-.89-1.24-1.64-1.86-2.46-1.32-1.53-2.9-2.78-4.67-3.49-.12-.05-.93-.44-2.17-.7-1.23-.27-2.93-.28-4.56.14-1.63.4-3.2,1.23-4.06,2.05-.19.2-.38.41-.44.56-.06.14-.08.19-.03.31.18.21.47.28.44.4,0,.05-.06.09-.18.12-.12.04-.3.05-.57-.03-.28-.1-.56-.53-.5-.94.02-.41.2-.73.39-1.09.83-1.32,2.44-2.53,4.3-3.29,1.85-.77,3.96-1.02,5.57-.84,1.61.17,2.71.58,2.87.65Z"/><path class="cls-1" d="M62.34,195.85c.86-2.18,2.44-3.77,4.08-5.06,1.65-1.26,3.65-2.3,5.76-2.73,4.24-.92,8.75.23,12.11,2.86,1.69,1.31,3.1,3.01,4.03,4.96.94,1.95,1.4,4.13,1.34,6.28-.04,2.15-.58,4.25-1.44,6.14-.84,1.9-1.94,3.67-3.22,5.24-2.54,3.18-5.62,5.78-8.87,8.04-3.29,2.25-6.66,4.17-10.09,6.04-3.44,1.85-6.98,3.56-10.66,4.98-3.69,1.4-7.51,2.63-11.66,2.87-.15-.01-1.12.03-2.52-.18-.35-.06-.73-.15-1.12-.24-.39-.13-.81-.23-1.22-.42-.83-.33-1.7-.9-2.36-1.69-.66-.79-1.02-1.86-.96-2.8.04-.95.42-1.72.83-2.27.83-1.1,1.71-1.36,1.79-1.23.14.17-.46.75-.82,1.77-.19.49-.3,1.1-.2,1.67.1.58.4,1.1.85,1.49.91.8,2.38,1.06,3.5,1.1,1.14.04,1.98-.07,2.1-.06,3.59-.2,7.25-1.33,10.77-2.68,3.53-1.36,6.97-3.03,10.34-4.84,3.35-1.82,6.71-3.75,9.81-5.86,3.1-2.14,5.98-4.6,8.27-7.47,1.17-1.42,2.12-2.98,2.84-4.6.74-1.62,1.17-3.35,1.2-5.07.12-3.44-1.51-6.81-4.28-8.91-2.72-2.13-6.41-3.05-9.75-2.32-1.69.36-3.2,1.13-4.62,2.2-1.39,1.08-2.6,2.38-3.16,3.83-.04.1-.37.76-.47,1.74-.1.97.21,2.35,1.07,3.33.41.49.98.81,1.23.77.17-.02.54-.16.58-.21,0,0,0,0,.01,0,0,0,.02,0,.06.02.03,0,.02.01.04.02.02,0,.04.01.07.01,0,0-.02,0-.02,0-.1.05-.04.02-.08-.04-.17-.24-.62-.28-.88-.18-.29.07-.47.21-.56.13-.06-.04-.06-.3.24-.61.28-.29.98-.69,1.85-.24.21.12.44.33.54.69.12.36-.01.75-.17,1.01-.08.12-.18.22-.28.33-.1.09-.19.16-.3.24-.21.14-.37.25-.67.36-.28.11-.58.15-.9.12-.29-.02-.56-.09-.82-.18-.5-.18-.94-.46-1.32-.77-1.55-1.26-2.3-3.26-2.33-4.83-.04-1.57.38-2.62.43-2.76Z"/><path class="cls-1" d="M61.81,153.66c-.71-1.77-1.96-3.35-3.49-4.67-.82-.62-1.57-1.36-2.46-1.86-.43-.27-.85-.57-1.29-.82l-1.36-.67c-1.85-.79-3.8-1.38-5.81-1.42-2-.07-4.02.19-5.98.79-3.91,1.24-7.54,3.51-10.75,6.27-3.24,2.74-6.14,5.92-8.77,9.32-5.25,6.8-9.55,14.39-12.84,22.34-.84,1.98-1.56,4.01-2.26,6.04-.67,2.03-1.22,4.12-1.78,6.21-1.04,4.18-1.91,8.42-2.14,12.62-.03.15-.09,1.12-.14,2.5-.02.68.03,1.45.06,2.28.05.39.11.8.17,1.23.04.43.2.8.29,1.21.22.8.59,1.49,1.02,2.08.48.5,1,.94,1.58,1.09,1.13.38,2.07.17,2.12.4.06.12-.76.78-2.34.69-.79-.02-1.68-.43-2.48-1.05-.73-.67-1.37-1.54-1.78-2.47-.18-.47-.43-.94-.55-1.41-.13-.48-.25-.95-.37-1.4-.15-.91-.3-1.79-.35-2.54-.1-1.5-.12-2.57-.08-2.73.25-4.53,1.16-8.9,2.23-13.2.58-2.13,1.14-4.27,1.84-6.39.72-2.11,1.47-4.2,2.33-6.24,3.4-8.19,7.8-15.96,13.23-23.01,2.72-3.52,5.74-6.84,9.18-9.75,3.41-2.92,7.32-5.42,11.77-6.82,2.23-.68,4.59-.99,6.95-.91,2.38.06,4.7.75,6.85,1.67l1.58.78c.51.29.98.62,1.48.93,1.01.59,1.85,1.39,2.76,2.1,1.77,1.52,3.34,3.46,4.26,5.76.07.16.48,1.25.65,2.87.18,1.61-.07,3.72-.84,5.57-.76,1.85-1.97,3.47-3.29,4.3-.35.19-.67.37-1.09.39-.41.05-.84-.22-.94-.5-.08-.26-.07-.45-.03-.57.03-.12.07-.18.12-.18.11-.02.19.26.4.44.12.06.16.04.31-.03.14-.06.36-.24.56-.44.82-.86,1.65-2.43,2.05-4.06.42-1.64.41-3.33.14-4.56-.26-1.24-.64-2.04-.7-2.17Z"/><path class="cls-1" d="M41.92,173.81c1.45-.56,2.75-1.77,3.83-3.16,1.07-1.42,1.85-2.93,2.2-4.62.74-3.34-.19-7.03-2.32-9.75-2.1-2.77-5.48-4.4-8.91-4.28-1.72.03-3.45.47-5.07,1.2-1.63.72-3.19,1.67-4.6,2.84-2.87,2.29-5.33,5.17-7.47,8.27-2.12,3.1-4.04,6.46-5.86,9.81-1.81,3.37-3.47,6.81-4.84,10.34-1.34,3.52-2.48,7.18-2.68,10.77.01.12-.1.96-.06,2.1.04,1.12.31,2.59,1.1,3.5.39.45.91.75,1.49.85.58.1,1.18-.01,1.67-.2,1.02-.36,1.59-.97,1.77-.82.13.08-.12.96-1.23,1.79-.54.41-1.32.78-2.27.83-.94.06-2.01-.3-2.8-.96-.79-.66-1.37-1.53-1.69-2.36-.19-.42-.29-.83-.42-1.22-.08-.39-.17-.77-.24-1.12-.21-1.4-.17-2.37-.18-2.52.24-4.16,1.47-7.98,2.87-11.66,1.42-3.68,3.13-7.22,4.98-10.66,1.87-3.44,3.79-6.8,6.04-10.09,2.25-3.25,4.86-6.33,8.04-8.87,1.57-1.29,3.33-2.38,5.24-3.22,1.89-.86,3.99-1.4,6.14-1.44,2.15-.06,4.33.39,6.27,1.34,1.95.94,3.65,2.34,4.96,4.03,2.63,3.37,3.78,7.88,2.86,12.11-.43,2.11-1.47,4.11-2.73,5.76-1.28,1.63-2.88,3.21-5.06,4.08-.14.05-1.19.48-2.76.43-1.56-.03-3.57-.78-4.83-2.33-.31-.39-.59-.82-.77-1.32-.09-.25-.16-.52-.18-.82-.03-.32.01-.62.12-.9.11-.29.22-.46.36-.67.08-.1.15-.2.24-.29.11-.1.21-.19.33-.28.27-.16.65-.3,1.01-.17.35.1.57.34.69.54.45.87.06,1.57-.24,1.85-.31.3-.57.3-.61.24-.07-.09.06-.27.13-.56.09-.26.05-.71-.18-.88-.06-.04-.08.01-.04-.08,0,0,0-.03,0-.02,0,.03,0,.05.01.07,0,.01,0,0,.02.04,0,.03.02.06.02.06,0,0,0,.01,0,.01-.04.05-.19.41-.21.58-.03.25.29.82.77,1.23.98.87,2.37,1.18,3.33,1.08.99-.09,1.64-.42,1.74-.47Z"/></g></svg>