<?xml version="1.0" encoding="UTF-8"?><svg id="Line" xmlns="http://www.w3.org/2000/svg" viewBox="0 0 233.84 219.84"><defs><style>.cls-1{fill:#fff;stroke-width:0px;}</style></defs><g id="Icon_7_Lines"><path class="cls-1" d="M87.53,8.83c1.68-2.32,3.85-4.14,6.18-5.58,2.27-1.45,4.92-2.65,7.75-3.09,2.82-.43,5.85-.05,8.47,1.28,2.64,1.3,4.69,3.6,5.96,6.19,1.29,2.6,1.67,5.52,1.5,8.31-.18,2.8-.93,5.52-2.05,8.02-1.14,2.5-2.6,4.81-4.25,6.95-1.7,2.1-3.52,4.09-5.53,5.85-7.98,7.18-17.72,11.83-27.32,15.86-4.84,2.02-9.76,3.89-14.83,5.4-2.54.73-5.1,1.42-7.74,1.89-2.63.47-5.32.81-8.1.68-.2-.02-1.49-.05-3.34-.58-.91-.26-1.98-.68-2.98-1.45-1-.73-1.9-1.96-2.12-3.33-.24-1.36.1-2.66.61-3.66.51-1.02,1.2-1.8,1.83-2.39,1.32-1.14,2.43-1.46,2.5-1.31.11.19-.76.83-1.69,2.06-.44.62-.9,1.39-1.18,2.25-.28.86-.36,1.81-.11,2.6.47,1.61,2.3,2.41,3.79,2.68,1.49.3,2.65.26,2.82.27,2.43.11,4.95-.19,7.44-.64,2.5-.44,4.98-1.11,7.44-1.81,4.92-1.47,9.76-3.3,14.53-5.3,4.77-2.01,9.52-4.13,13.99-6.61,4.48-2.48,8.75-5.35,12.53-8.74,1.91-1.67,3.61-3.54,5.2-5.49,1.53-1.99,2.86-4.11,3.89-6.35,1.01-2.25,1.65-4.64,1.81-7.04.14-2.39-.18-4.81-1.22-6.9-1.02-2.07-2.62-3.87-4.68-4.88-2.04-1.02-4.41-1.35-6.74-1-2.34.37-4.55,1.34-6.67,2.69-2.1,1.29-3.99,2.9-5.37,4.81-.09.13-.8.99-1.44,2.38-.64,1.35-1.13,3.39-.61,5.14.23.87.8,1.54,1.19,1.49.09,0,.37-.07.53-.12.18-.06.34-.13.47-.21.26-.17.31-.29.31-.39,0-.13-.19-.28-.41-.32-.23-.02-.48,0-.68.07-.41.12-.66.27-.73.18-.05-.06.04-.35.46-.68.2-.18.51-.34.94-.41.41-.05,1.06.05,1.42.68.2.3.2.7.12,1.06-.11.34-.31.63-.54.85-.23.22-.49.39-.75.53-.29.13-.48.25-.89.34-.39.1-.81.04-1.2-.09-.37-.15-.71-.35-.97-.6-.54-.49-.89-1.07-1.15-1.67-1.02-2.43-.58-5.05.06-6.83.66-1.8,1.45-2.9,1.56-3.06Z"/><path class="cls-1" d="M144,10.49c-1.38-1.91-3.26-3.52-5.37-4.81-2.11-1.34-4.32-2.32-6.67-2.69-2.32-.35-4.7-.02-6.74,1-2.05,1.01-3.66,2.81-4.68,4.88-1.04,2.09-1.37,4.51-1.22,6.9.16,2.4.8,4.79,1.81,7.04,1.03,2.24,2.36,4.37,3.89,6.35,1.58,1.95,3.28,3.82,5.2,5.49,3.77,3.39,8.04,6.26,12.53,8.74,4.47,2.48,9.21,4.6,13.99,6.61,4.77,2,9.61,3.83,14.53,5.3,2.46.71,4.94,1.38,7.44,1.81,2.49.45,5.01.75,7.44.64.17-.01,1.33.03,2.82-.27,1.49-.27,3.32-1.06,3.79-2.68.25-.79.18-1.74-.11-2.6-.28-.86-.74-1.62-1.18-2.25-.92-1.23-1.8-1.87-1.69-2.06.08-.15,1.18.17,2.5,1.31.63.58,1.32,1.37,1.83,2.39.51,1.01.85,2.31.61,3.66-.22,1.36-1.11,2.59-2.12,3.33-1,.77-2.07,1.19-2.98,1.45-1.84.53-3.14.56-3.34.58-2.78.12-5.47-.21-8.1-.68-2.64-.46-5.2-1.16-7.74-1.89-5.07-1.52-9.99-3.38-14.83-5.4-9.6-4.03-19.34-8.68-27.32-15.86-2.01-1.76-3.83-3.76-5.53-5.85-1.65-2.14-3.1-4.46-4.25-6.95-1.12-2.5-1.86-5.22-2.05-8.02-.17-2.79.21-5.71,1.5-8.31,1.26-2.58,3.32-4.88,5.96-6.19,2.62-1.32,5.65-1.71,8.47-1.28,2.82.43,5.48,1.64,7.75,3.09,2.33,1.43,4.5,3.26,6.18,5.58.08.1.4.58.82,1.37.42.78.9,1.9,1.18,3.25.28,1.34.36,2.94-.1,4.49-.23.77-.59,1.54-1.18,2.2-.3.32-.66.63-1.14.81-.48.19-1.03.22-1.5.07l-.61-.25c-.2-.12-.39-.21-.57-.36-.36-.27-.71-.68-.81-1.22-.11-.55.18-1.11.56-1.34.37-.26.77-.26,1.07-.23.62.11.95.44,1.15.65.18.23.25.38.2.43-.05.05-.21.01-.44-.09-.24-.08-.58-.21-.93-.16-.16.04-.33.09-.4.2-.07.11-.06.18,0,.27.08.18.59.49,1.2.58.15.01.28-.03.4-.11.14-.07.29-.24.42-.43.27-.4.47-.94.56-1.51.2-1.15.02-2.37-.29-3.39-.65-2.07-1.8-3.39-1.9-3.56Z"/><path class="cls-1" d="M203.53,66.93c.17,3.26-.33,6.4-1.03,9.44-.71,3.05-1.72,5.98-2.81,8.87-2.25,5.75-5,11.27-8.1,16.56-.77,1.33-1.55,2.65-2.37,3.94-.8,1.31-1.64,2.59-2.49,3.87-.81,1.29-1.76,2.53-2.65,3.78-.45.62-.89,1.26-1.36,1.87l-1.44,1.8c-3.84,4.81-7.99,9.33-12.31,13.65-8.58,8.69-17.73,16.73-25.85,25.62-4.03,4.45-7.83,9.13-10.62,14.32-2.78,5.24-5.02,10.88-6.31,16.63-.04.21-.4,1.54-.73,3.44-.34,1.9-.61,4.4-.46,6.83.08,1.21.27,2.41.62,3.44.35,1.02.85,1.93,1.46,2.31.29.19.58.25.86.21.27-.08.54-.2.72-.37.4-.31.6-.58.7-.52.07.03.06.38-.27.9-.16.26-.44.55-.87.78-.45.2-1.08.22-1.63-.01-1.13-.47-1.87-1.56-2.44-2.7-.57-1.17-.92-2.48-1.15-3.81-.44-2.66-.36-5.37-.15-7.42.2-2.06.5-3.49.55-3.71.67-3.05,1.61-6.03,2.72-8.92,1.14-2.89,2.35-5.7,3.86-8.44,2.98-5.53,6.92-10.35,11.03-14.9,4.13-4.54,8.51-8.81,12.9-13.02,4.39-4.22,8.78-8.4,13.04-12.69,4.27-4.28,8.36-8.72,12.1-13.41,3.74-4.67,7.04-9.72,10.07-14.93,3.04-5.19,5.73-10.59,7.9-16.16,1.05-2.79,2.03-5.62,2.7-8.5.66-2.87,1.1-5.8.95-8.62-.02-.1.03-.49-.06-1.05-.08-.57-.1-1.35-.36-2.2-.24-.87-.63-1.86-1.16-2.84-.53-.97-1.22-1.94-2.05-2.57-.39-.32-.89-.55-1.25-.61-.21-.06-.52-.08-.75.08-.23.14-.35.52-.17.71.19.16.45.28.73.34.28.06.59.07.86-.02.13-.03.28-.18.27-.18.04-.01.02-.12-.02-.21-.2-.4-.48-.65-.41-.73.04-.05.38-.05.88.4.11.12.27.31.26.63-.02.34-.17.47-.35.63-.37.3-1,.46-1.73.41-.71-.05-1.54-.33-1.99-.8-.47-.52-.45-1.52.06-2.15.25-.33.61-.58,1.03-.74.44-.13.92-.22,1.44-.18.89.04,1.61.34,2.26.74,1.3.8,2.22,1.92,2.96,3.02.73,1.11,1.27,2.22,1.64,3.26.4,1.05.5,1.99.63,2.66.14.68.12,1.11.14,1.23Z"/><path class="cls-1" d="M32.92,67.11c-.15,2.82.29,5.75.95,8.62.67,2.88,1.64,5.7,2.7,8.5,2.18,5.57,4.87,10.96,7.9,16.16,3.03,5.2,6.33,10.25,10.07,14.93,3.74,4.69,7.83,9.14,12.1,13.41,4.26,4.29,8.66,8.47,13.04,12.69,4.39,4.21,8.76,8.48,12.9,13.02,4.11,4.55,8.05,9.37,11.03,14.9,1.51,2.74,2.72,5.55,3.86,8.44,1.11,2.89,2.05,5.86,2.72,8.92.04.22.35,1.65.55,3.71.21,2.05.29,4.76-.15,7.42-.23,1.33-.58,2.64-1.15,3.81-.58,1.14-1.31,2.23-2.44,2.7-.55.23-1.18.22-1.63.01-.43-.23-.71-.52-.87-.78-.33-.52-.34-.87-.27-.9.1-.06.3.21.7.52.19.16.45.29.72.37.28.04.57-.02.86-.21.6-.38,1.11-1.29,1.46-2.31.35-1.03.54-2.23.62-3.44.16-2.43-.12-4.93-.46-6.83-.33-1.91-.69-3.24-.73-3.44-1.29-5.75-3.53-11.39-6.31-16.63-2.79-5.18-6.59-9.87-10.62-14.32-8.13-8.89-17.28-16.93-25.86-25.62-4.31-4.32-8.47-8.84-12.31-13.65l-1.44-1.8c-.47-.61-.91-1.25-1.36-1.87-.89-1.26-1.83-2.49-2.65-3.78-.85-1.28-1.69-2.56-2.49-3.87-.82-1.29-1.6-2.61-2.37-3.94-3.09-5.3-5.85-10.81-8.1-16.56-1.09-2.89-2.11-5.82-2.81-8.87-.7-3.04-1.19-6.18-1.03-9.44.02-.12,0-.55.14-1.23.13-.67.24-1.61.63-2.66.37-1.04.92-2.15,1.64-3.26.74-1.09,1.66-2.22,2.96-3.02.66-.4,1.37-.7,2.26-.74.51-.04,1,.05,1.44.18.42.16.78.41,1.03.74.51.64.53,1.63.06,2.15-.44.48-1.27.75-1.99.8-.73.06-1.36-.11-1.73-.41-.18-.17-.33-.29-.35-.63-.01-.32.15-.51.26-.63.49-.45.83-.46.88-.4.08.09-.2.33-.41.73-.05.1-.06.2-.02.21,0,0,.14.16.27.18.28.09.59.08.86.02.28-.06.54-.18.73-.34.18-.2.06-.57-.17-.71-.24-.16-.54-.14-.75-.08-.36.06-.86.29-1.25.61-.83.63-1.52,1.6-2.05,2.57-.53.98-.92,1.97-1.16,2.84-.26.84-.28,1.63-.36,2.2-.09.56-.05.96-.06,1.05Z"/><path class="cls-1" d="M140.35,211.84c-1.44,2.1-3.41,3.18-5.3,4.12-1.92.92-3.89,1.57-5.89,2.12-3.99,1.06-8.04,1.72-12.23,1.77-4.2-.05-8.24-.71-12.23-1.77-1.99-.55-3.97-1.2-5.89-2.12-1.89-.94-3.86-2.02-5.3-4.12-.04-.08-.36-.6-.57-1.45-.09-.43-.15-.94-.11-1.47.06-.51.15-1.04.4-1.57.24-.52.63-1.02,1.13-1.31.49-.3,1.03-.38,1.45-.31.43.06.76.28.88.49.14.2.1.39.04.46-.07.08-.16.04-.33.04-.17,0-.35.03-.55.13-.41.19-.68.61-.72,1.16-.03.27,0,.6.05.89.06.27.16.51.25.71.22.4.44.66.46.7,10.55,8.93,31.49,8.93,42.04,0,.02-.05.25-.31.46-.7.09-.2.19-.44.25-.71.05-.29.09-.62.05-.89-.03-.55-.31-.97-.72-1.16-.41-.2-.68-.11-.88-.16-.08-.03-.14-.22.02-.44.15-.22.48-.44.91-.5.43-.07.96.02,1.45.31.49.29.89.79,1.13,1.31.25.53.35,1.06.4,1.57.04.53-.02,1.04-.11,1.47-.21.85-.53,1.37-.57,1.45Z"/><path class="cls-1" d="M233.76,84.8c.1,1.64.11,3.26,0,4.91l-.12,2.46c-.04.82-.22,1.63-.32,2.44l-.36,2.44-.59,2.39c-.21.79-.36,1.6-.63,2.38l-.81,2.33c-2.22,6.18-5.65,11.86-9.76,16.9-4.12,5.05-8.9,9.49-14.01,13.45-5.12,3.95-10.58,7.43-16.22,10.52-11.31,6.17-23.34,10.91-35.7,14.42-6.18,1.75-12.46,3.18-18.81,4.23-6.35,1.04-12.78,1.72-19.26,1.77-6.48,0-12.91-.67-19.27-1.69-6.35-1.03-12.63-2.44-18.82-4.18-12.37-3.48-24.41-8.17-35.75-14.3-5.66-3.07-11.13-6.53-16.26-10.46-5.13-3.93-9.93-8.34-14.09-13.35-4.17-4.99-7.63-10.65-9.92-16.8-.52-1.56-1.15-3.08-1.48-4.69l-.59-2.39c-.21-.79-.27-1.62-.41-2.43l-.36-2.44c-.06-.82-.09-1.64-.13-2.46-.04-.82-.09-1.64-.11-2.46.02-.82,0-1.63.06-2.45.02-.23.04-1.11.2-2.47.14-1.36.39-3.2.93-5.32.54-2.11,1.37-4.55,2.93-6.86.79-1.13,1.76-2.26,3.06-3.07,1.27-.82,2.9-1.36,4.54-1.09,1.64.23,3.11,1.33,3.83,2.73.11.23.11.23.13.3l.06.18c.1.03.24.02.36.04.64.02,1.27.04,1.9.06,2.45.09,4.75.17,6.8.24,3.97.17,6.6.36,6.6.55s-2.63.38-6.6.55c-2.05.07-4.36.16-6.8.24-.63.02-1.26.04-1.9.06-.5-.01-1.07.07-1.54-.02l-.31-.72c-.09-.24-.25-.54-.29-.6-.54-.91-1.48-1.52-2.52-1.62-1.04-.12-2.13.27-3.05.92-.94.64-1.69,1.58-2.31,2.55-1.24,1.98-1.92,4.2-2.34,6.16-.42,1.96-.61,3.69-.7,4.97-.11,1.28-.11,2.12-.13,2.34-.05.77-.04,1.55-.06,2.33.02.77.07,1.54.1,2.32.04.77.06,1.54.12,2.31l.34,2.29c.13.76.18,1.54.38,2.28l.56,2.25c.31,1.52.91,2.95,1.4,4.42,2.16,5.8,5.44,11.19,9.45,15.98,4,4.8,8.64,9.08,13.63,12.91,4.99,3.83,10.34,7.21,15.89,10.22,11.11,6.01,22.98,10.64,35.15,14.06,6.09,1.7,12.27,3.1,18.51,4.11,6.23,1,12.53,1.65,18.8,1.65,6.27-.05,12.57-.71,18.8-1.73,6.23-1.03,12.41-2.44,18.5-4.16,12.17-3.46,24.02-8.12,35.1-14.18,5.53-3.03,10.87-6.43,15.85-10.28,4.97-3.85,9.59-8.15,13.54-12.99,3.94-4.84,7.19-10.23,9.29-16.06l.76-2.19c.25-.73.39-1.5.59-2.24l.55-2.25.34-2.29c.1-.77.27-1.52.3-2.3l.11-2.31c.1-1.54.09-3.1,0-4.65-.04-.43-.04-3.36-.92-7.29-.47-1.94-1.19-4.14-2.49-6.06-.65-.95-1.47-1.81-2.42-2.4-.95-.56-2.06-.85-3.07-.61-.5.11-.97.35-1.37.68-.2.16-.38.35-.54.56-.07.11-.16.21-.22.33l-.14.25-.16.37-.31.72h-.8c-.42-.02-.83-.03-1.25-.04-.64-.02-1.28-.04-1.9-.06-2.45-.09-4.75-.17-6.8-.24-3.97-.17-6.6-.36-6.6-.55s2.63-.38,6.6-.55c2.05-.07,4.36-.16,6.8-.24.63-.02,1.26-.04,1.9-.06h.48s.21-.03.21-.03h.18s.05-.19.05-.19c0-.03.02-.06.03-.09,0,0,.04-.09.09-.19.08-.18.2-.34.31-.51.22-.33.48-.65.79-.92.6-.56,1.34-.98,2.14-1.2,1.61-.47,3.32-.08,4.66.64,1.35.75,2.41,1.81,3.25,2.93,1.67,2.26,2.53,4.69,3.12,6.8,1.11,4.25,1.18,7.32,1.23,7.78Z"/><path class="cls-1" d="M131.88,206.68c-1.01,1.46-2.29,2.13-3.5,2.75-1.23.59-2.48,1-3.73,1.34-2.52.67-5.04,1.08-7.71,1.11-2.67-.03-5.19-.45-7.71-1.11-1.26-.35-2.5-.76-3.73-1.34-1.21-.61-2.49-1.29-3.5-2.75-.03-.06-.24-.42-.37-1.04-.06-.31-.08-.68-.04-1.06.05-.36.14-.72.34-1.1.19-.37.51-.73.85-.9.34-.19.71-.23.99-.18.61.1.76.59.69.78-.02.14-.22.08-.43.27-.22.17-.27.47-.19.68.08.64.54.93.57,1,.4.61,1.34,1.25,2.33,1.71,1.01.48,2.12.85,3.25,1.17,2.26.61,4.68.99,6.96,1.01,2.29-.02,4.7-.41,6.96-1.01,1.13-.31,2.25-.68,3.25-1.17.99-.47,1.94-1.1,2.33-1.71.03-.07.49-.36.57-1,.2-.45-.24-.91-.62-.94-.08-.03-.15-.17-.05-.36.09-.18.33-.37.64-.43.31-.07.71-.04,1.08.17.37.2.68.56.87.92.2.38.28.74.34,1.1.04.38.02.74-.04,1.06-.13.62-.35.98-.37,1.04Z"/><path class="cls-1" d="M160.97,63.23c-1.21,1.84-2.8,3.25-4.45,4.44-1.66,1.19-3.43,2.16-5.22,3.02-3.6,1.72-7.34,2.96-11.12,4-3.79,1.03-7.62,1.81-11.5,2.39-3.88.56-7.78.96-11.74.97-3.97-.01-7.87-.41-11.74-.97-3.87-.58-7.71-1.37-11.5-2.39-3.78-1.04-7.53-2.28-11.12-4-1.8-.86-3.56-1.83-5.22-3.02-1.65-1.19-3.24-2.6-4.45-4.44-.05-.06-.19-.33-.39-.74-.23-.4-.43-1-.66-1.71-.09-.36-.15-.76-.22-1.17-.05-.42-.04-.86-.05-1.31.06-.88.18-1.8.56-2.7.36-.89.97-1.73,1.75-2.25.77-.53,1.65-.72,2.36-.67.72.05,1.29.35,1.57.67.15.16.22.31.23.44.02.11,0,.18-.04.2-.11.05-.24-.1-.53-.17-.28-.09-.7-.14-1.18-.03-.48.11-1,.37-1.41.8-.41.42-.69,1.01-.84,1.65-.17.64-.15,1.37-.11,2.03.06.32.08.63.16.92.09.29.18.55.25.8.42.98.89,1.6.94,1.7.92,1.39,2.25,2.61,3.72,3.67,1.48,1.06,3.1,1.96,4.79,2.77,3.37,1.61,6.99,2.82,10.64,3.82,7.33,1.95,14.96,3.18,22.49,3.26,7.53-.08,15.16-1.31,22.49-3.26,3.66-1,7.27-2.21,10.64-3.82,1.68-.81,3.31-1.71,4.79-2.77,1.47-1.05,2.8-2.27,3.72-3.67.05-.1.53-.72.94-1.7.08-.25.16-.52.25-.8.08-.29.1-.6.16-.92.04-.66.06-1.39-.11-2.03-.15-.65-.43-1.23-.84-1.65-.4-.43-.93-.69-1.41-.8-.48-.11-.9-.06-1.18.03-.29.08-.42.23-.53.17-.04-.02-.06-.08-.04-.2.01-.12.09-.28.23-.44.28-.32.85-.62,1.57-.67.71-.06,1.59.14,2.36.67.78.52,1.39,1.36,1.75,2.25.39.9.5,1.83.56,2.7-.01.45,0,.89-.05,1.31-.07.41-.14.81-.22,1.17-.22.7-.43,1.31-.66,1.71-.21.41-.34.68-.39.74Z"/><path class="cls-1" d="M160.97,63.23c-1.21,1.84-2.8,3.25-4.45,4.44-1.66,1.19-3.43,2.16-5.22,3.02-3.6,1.72-7.34,2.96-11.12,4-3.79,1.03-7.62,1.81-11.5,2.39-3.88.56-7.78.96-11.74.97-3.97-.01-7.87-.41-11.74-.97-3.87-.58-7.71-1.37-11.5-2.39-3.78-1.04-7.53-2.28-11.12-4-1.8-.86-3.56-1.83-5.22-3.02-1.65-1.19-3.24-2.6-4.45-4.44-.05-.06-.19-.33-.39-.74-.23-.4-.43-1-.66-1.71-.09-.36-.15-.76-.22-1.17-.05-.42-.04-.86-.05-1.31.06-.88.18-1.8.56-2.7.36-.89.97-1.73,1.75-2.25.77-.53,1.65-.72,2.36-.67.72.05,1.29.35,1.57.67.15.16.22.31.23.44.02.11,0,.18-.04.2-.11.05-.24-.1-.53-.17-.28-.09-.7-.14-1.18-.03-.48.11-1,.37-1.41.8-.41.42-.69,1.01-.84,1.65-.17.64-.15,1.37-.11,2.03.06.32.08.63.16.92.09.29.18.55.25.8.42.98.89,1.6.94,1.7.92,1.39,2.25,2.61,3.72,3.67,1.48,1.06,3.1,1.96,4.79,2.77,3.37,1.61,6.99,2.82,10.64,3.82,7.33,1.95,14.96,3.18,22.49,3.26,7.53-.08,15.16-1.31,22.49-3.26,3.66-1,7.27-2.21,10.64-3.82,1.68-.81,3.31-1.71,4.79-2.77,1.47-1.05,2.8-2.27,3.72-3.67.05-.1.53-.72.94-1.7.08-.25.16-.52.25-.8.08-.29.1-.6.16-.92.04-.66.06-1.39-.11-2.03-.15-.65-.43-1.23-.84-1.65-.4-.43-.93-.69-1.41-.8-.48-.11-.9-.06-1.18.03-.29.08-.42.23-.53.17-.04-.02-.06-.08-.04-.2.01-.12.09-.28.23-.44.28-.32.85-.62,1.57-.67.71-.06,1.59.14,2.36.67.78.52,1.39,1.36,1.75,2.25.39.9.5,1.83.56,2.7-.01.45,0,.89-.05,1.31-.07.41-.14.81-.22,1.17-.22.7-.43,1.31-.66,1.71-.21.41-.34.68-.39.74Z"/><path class="cls-1" d="M195.09,77.6c-2.06,3.12-4.81,5.58-7.71,7.67-2.92,2.08-6.03,3.8-9.21,5.33-3.18,1.53-6.45,2.83-9.76,4-3.31,1.16-6.65,2.22-10.03,3.12-6.75,1.83-13.61,3.23-20.52,4.27-6.92,1-13.89,1.71-20.93,1.72-7.04-.02-14.01-.72-20.93-1.72-6.91-1.04-13.77-2.44-20.52-4.27-3.38-.9-6.72-1.96-10.03-3.12-3.31-1.16-6.58-2.47-9.76-4-3.18-1.52-6.29-3.25-9.21-5.33-2.9-2.09-5.65-4.54-7.71-7.67-.09-.1-.32-.55-.68-1.24-.16-.36-.42-.73-.59-1.23-.17-.49-.37-1.03-.58-1.62-.16-.61-.27-1.27-.41-1.96-.11-.7-.09-1.44-.13-2.2.07-1.49.22-3.08.83-4.59.56-1.5,1.53-2.91,2.78-3.8,1.24-.91,2.67-1.29,3.86-1.25,1.2.02,2.16.46,2.67.95.12.13.23.25.31.35.07.12.11.23.14.32.06.18.07.27.03.29s-.14-.03-.27-.13l-.22-.18c-.11-.06-.22-.12-.34-.18-.5-.25-1.31-.44-2.28-.3-.96.13-2.04.58-2.91,1.39-.88.8-1.52,1.95-1.87,3.21-.39,1.25-.41,2.64-.38,3.91.09.63.11,1.24.24,1.8.16.56.29,1.1.44,1.59.21.48.4.92.57,1.31.15.4.4.72.55,1.01.34.57.54.94.62,1.03,1.77,2.68,4.26,4.95,6.97,6.9,2.73,1.95,5.71,3.6,8.77,5.07,3.07,1.48,6.25,2.75,9.48,3.88,3.23,1.13,6.51,2.17,9.83,3.05,6.63,1.8,13.39,3.18,20.19,4.21,6.8.99,13.67,1.68,20.51,1.69,6.83-.02,13.7-.71,20.51-1.69,6.8-1.03,13.56-2.4,20.19-4.21,3.32-.89,6.6-1.92,9.83-3.05,3.23-1.14,6.42-2.41,9.48-3.88,3.07-1.47,6.05-3.12,8.77-5.07,2.72-1.95,5.21-4.22,6.97-6.9.09-.08.28-.46.62-1.03.15-.29.4-.6.55-1.01.17-.4.36-.84.57-1.31.16-.49.28-1.03.44-1.59.13-.57.15-1.18.24-1.8.04-1.27.01-2.66-.38-3.91-.35-1.26-.99-2.41-1.87-3.21-.87-.81-1.95-1.26-2.91-1.39-.96-.14-1.78.05-2.28.3-.11.06-.23.12-.34.18l-.22.18c-.13.1-.22.15-.27.13s-.04-.12.03-.29c.03-.09.08-.2.14-.32.08-.1.19-.22.31-.35.5-.49,1.47-.93,2.67-.95,1.19-.04,2.62.34,3.86,1.25,1.25.9,2.21,2.3,2.78,3.8.61,1.51.76,3.1.83,4.59-.04.75-.03,1.5-.13,2.2-.14.69-.26,1.36-.41,1.96-.21.59-.4,1.13-.58,1.62-.16.5-.42.88-.59,1.23-.36.69-.59,1.15-.68,1.24Z"/></g></svg>