<?xml version="1.0" encoding="UTF-8"?><svg id="Line" xmlns="http://www.w3.org/2000/svg" viewBox="0 0 217 239"><defs><style>.cls-1{fill:#fff;stroke-width:0px;}</style></defs><g id="Icon_16_Lines"><path class="cls-1" d="M119.87,182.39c.57-2.55.73-5.22.74-7.9,0-2.68-.18-5.38-.51-8.07-.61-5.39-1.72-10.74-3-16.05-1.3-5.31-2.83-10.57-4.5-15.78-.84-2.61-1.71-5.21-2.62-7.79l-1.48-4.13-1.48,4.13c-.91,2.58-1.78,5.18-2.62,7.79-1.67,5.22-3.2,10.48-4.5,15.78-1.27,5.31-2.39,10.66-3,16.05-.33,2.69-.51,5.39-.51,8.07,0,2.68.17,5.35.74,7.9.01.09.1.43.22.95.06.26.13.57.21.92.09.34.23.71.35,1.11.53,1.59,1.46,3.58,2.96,5.07,1.48,1.51,3.48,2.46,5.08,2.84.78.29,1.49.33,1.97.48.48.12.77.24.77.33s-.28.18-.79.24c-.51.04-1.25.17-2.14.04-1.78-.06-4.24-.81-6.23-2.42-2.02-1.58-3.33-3.86-4.08-5.63-.18-.45-.37-.86-.5-1.24-.12-.39-.22-.73-.31-1.01-.17-.58-.29-.96-.31-1.06-.63-2.84-.8-5.69-.81-8.51,0-2.82.19-5.63.53-8.4.63-5.56,1.77-11.01,3.06-16.4,1.32-5.39,2.87-10.71,4.56-15.98.85-2.63,1.73-5.26,2.65-7.86l1.4-3.9,2.78-7.46,2.78,7.46,1.4,3.9c.92,2.61,1.8,5.23,2.65,7.86,1.68,5.27,3.24,10.59,4.56,15.98,1.29,5.39,2.43,10.84,3.06,16.4.34,2.77.53,5.58.53,8.4,0,2.82-.18,5.68-.81,8.51-.01.1-.13.48-.31,1.06-.09.29-.19.63-.31,1.01-.13.38-.32.79-.5,1.24-.75,1.77-2.06,4.05-4.08,5.63-1.99,1.61-4.45,2.36-6.23,2.42-.89.13-1.63,0-2.14-.04-.51-.06-.79-.14-.79-.24s.28-.21.77-.33c.48-.15,1.18-.19,1.97-.48,1.61-.38,3.61-1.33,5.08-2.84,1.51-1.48,2.44-3.48,2.96-5.07.13-.4.26-.77.35-1.11.08-.35.15-.66.21-.92.12-.52.21-.86.22-.95Z"/><path class="cls-1" d="M148.05,187.64c1.3-2.66,1.97-5.77,2.4-8.88.43-3.12.57-6.32.62-9.51.03-3.2-.08-6.4-.27-9.61-.1-1.6-.22-3.2-.36-4.81l-.08-.95-.53.79c-.89,1.34-1.76,2.69-2.62,4.05-1.7,2.72-3.33,5.49-4.84,8.31-1.49,2.83-2.89,5.7-4.01,8.65-1.12,2.93-2.02,5.99-2.15,8.95.04.18-.38,2.82.72,4.88.53,1.03,1.43,1.88,2.24,2.38.79.54,1.4.86,1.35,1.07-.04.17-.75.22-1.8-.06-1.05-.24-2.45-1.01-3.45-2.26-1.02-1.24-1.5-2.81-1.7-3.97-.12-.59-.16-1.09-.17-1.46-.02-.37-.04-.61-.03-.67.06-1.77.38-3.46.79-5.1.42-1.64.94-3.23,1.54-4.78,1.18-3.11,2.63-6.07,4.16-8.97,1.54-2.9,3.21-5.71,4.94-8.48.87-1.38,1.75-2.75,2.66-4.11l.82-1.22,1.37-1.99,2.75-3.96.52,4.79.25,2.4.14,1.47c.15,1.62.27,3.25.37,4.88.19,3.26.31,6.53.28,9.81-.05,3.28-.19,6.57-.64,9.87-.21,1.65-.52,3.29-.93,4.93-.42,1.64-.94,3.27-1.74,4.85-.02.06-.15.26-.35.58-.19.32-.47.74-.85,1.2-.73.92-1.91,2.07-3.4,2.67-1.47.63-3.07.63-4.11.34-1.06-.25-1.66-.65-1.61-.81.05-.21.74-.2,1.69-.3.96-.06,2.15-.37,3.1-1.02,1.96-1.28,2.85-3.81,2.97-3.94Z"/><path class="cls-1" d="M66.4,188.92c-.8-1.58-1.32-3.22-1.74-4.85-.42-1.64-.72-3.29-.93-4.93-.45-3.29-.6-6.59-.64-9.87-.03-3.28.08-6.55.28-9.81.1-1.63.22-3.26.37-4.88l.14-1.47.25-2.4.52-4.79,2.75,3.96,1.37,1.99.82,1.22c.91,1.36,1.79,2.73,2.66,4.11,1.73,2.77,3.4,5.59,4.94,8.48,1.53,2.9,2.98,5.86,4.16,8.97.6,1.55,1.12,3.14,1.54,4.78.41,1.64.74,3.33.79,5.1,0,.06-.01.3-.03.67-.02.37-.06.87-.17,1.46-.2,1.16-.69,2.73-1.7,3.97-.99,1.25-2.39,2.02-3.45,2.26-1.05.28-1.77.22-1.8.06-.06-.21.56-.53,1.35-1.07.81-.51,1.71-1.36,2.24-2.38,1.11-2.06.68-4.7.72-4.88-.13-2.96-1.03-6.01-2.15-8.95-1.12-2.95-2.52-5.82-4.01-8.65-1.5-2.82-3.14-5.59-4.84-8.31-.86-1.36-1.73-2.71-2.62-4.05l-.53-.79-.08.95c-.14,1.6-.26,3.2-.36,4.81-.19,3.21-.3,6.41-.27,9.61.04,3.19.19,6.39.62,9.51.42,3.11,1.09,6.22,2.4,8.88.12.13,1.01,2.66,2.97,3.94.95.65,2.15.97,3.1,1.02.95.1,1.64.08,1.69.3.04.16-.56.56-1.61.81-1.04.29-2.64.29-4.11-.34-1.49-.6-2.66-1.75-3.4-2.67-.39-.46-.66-.88-.85-1.2-.2-.31-.33-.52-.35-.58Z"/><path class="cls-1" d="M204.37,181.38c-3.15,3.06-6.83,5.28-10.58,7.2-3.77,1.91-7.67,3.48-11.61,4.87-7.9,2.77-15.98,4.83-24.13,6.52-8.15,1.68-16.37,2.98-24.63,3.93-8.26.94-16.57,1.56-24.92,1.58-8.35-.02-16.66-.64-24.92-1.58-8.26-.95-16.48-2.24-24.63-3.93-8.14-1.69-16.23-3.76-24.13-6.52-3.94-1.4-7.84-2.96-11.61-4.87-3.75-1.92-7.43-4.15-10.58-7.21-.2-.23-1.74-1.62-3.2-4.23-.71-1.3-1.34-2.96-1.52-4.8-.1-.93-.07-1.87.05-2.79.12-.93.34-1.88.72-2.78.73-1.81,2.11-3.35,3.67-4.21,1.56-.88,3.21-1.17,4.58-1.13,1.38.03,2.5.42,3.17.9.69.48.81.99.73,1.02-.1.06-.35-.28-1.01-.52-.64-.25-1.65-.42-2.85-.29-1.19.12-2.58.54-3.78,1.38-1.2.83-2.15,2.09-2.62,3.56-.25.73-.37,1.51-.42,2.29-.05.79-.02,1.56.11,2.28.24,1.45.81,2.74,1.46,3.79,1.33,2.1,2.74,3.3,2.92,3.5,2.8,2.72,6.27,4.86,9.87,6.69,3.61,1.83,7.41,3.36,11.26,4.72,7.73,2.71,15.71,4.75,23.76,6.42,8.06,1.66,16.2,2.95,24.38,3.89,8.18.93,16.4,1.54,24.6,1.56,8.2-.02,16.42-.63,24.6-1.56,8.18-.94,16.32-2.22,24.38-3.89,8.05-1.67,16.03-3.71,23.76-6.42,3.85-1.37,7.65-2.89,11.26-4.72,3.6-1.83,7.07-3.97,9.87-6.69.18-.2,1.6-1.4,2.92-3.5.65-1.05,1.22-2.34,1.46-3.79.12-.72.16-1.49.11-2.28-.04-.78-.17-1.56-.42-2.29-.47-1.47-1.42-2.73-2.62-3.56-1.2-.84-2.58-1.25-3.78-1.38-1.2-.13-2.22.04-2.85.29-.65.24-.91.58-1.01.52-.08-.03.04-.54.73-1.02.66-.48,1.79-.87,3.17-.9,1.37-.04,3.02.25,4.58,1.13,1.56.86,2.94,2.4,3.67,4.21.38.9.6,1.85.72,2.78.12.93.15,1.87.05,2.79-.19,1.84-.81,3.5-1.52,4.8-1.46,2.6-3,4-3.2,4.23Z"/><path class="cls-1" d="M204.37,202.42c-3.15,3.06-6.83,5.28-10.58,7.21-3.77,1.91-7.67,3.48-11.61,4.87-7.9,2.77-15.98,4.83-24.13,6.52-8.15,1.68-16.37,2.98-24.63,3.93-8.26.94-16.57,1.56-24.92,1.58-8.35-.02-16.66-.64-24.92-1.58-8.26-.95-16.48-2.24-24.63-3.93-8.14-1.69-16.23-3.76-24.13-6.52-3.94-1.4-7.84-2.96-11.61-4.87-3.75-1.92-7.43-4.15-10.58-7.21-.2-.23-1.74-1.62-3.2-4.23-.71-1.3-1.34-2.96-1.52-4.8-.1-.93-.07-1.87.05-2.79.12-.93.34-1.88.72-2.78.73-1.81,2.11-3.35,3.67-4.21,1.56-.88,3.21-1.17,4.58-1.13,1.38.03,2.5.42,3.17.9.69.48.81.99.73,1.02-.1.06-.35-.28-1.01-.52-.64-.25-1.65-.42-2.85-.29-1.19.12-2.58.54-3.78,1.38-1.2.83-2.15,2.09-2.62,3.56-.25.73-.37,1.51-.42,2.29-.05.79-.02,1.56.11,2.28.24,1.45.81,2.74,1.46,3.79,1.33,2.1,2.74,3.3,2.92,3.5,2.8,2.72,6.27,4.86,9.87,6.69,3.61,1.83,7.41,3.36,11.26,4.72,7.73,2.71,15.71,4.75,23.76,6.42,8.06,1.66,16.2,2.95,24.38,3.89,8.18.93,16.4,1.54,24.6,1.56,8.2-.02,16.42-.63,24.6-1.56,8.18-.94,16.32-2.22,24.38-3.89,8.05-1.67,16.03-3.71,23.76-6.42,3.85-1.37,7.65-2.89,11.26-4.72,3.6-1.84,7.07-3.97,9.87-6.69.18-.2,1.6-1.4,2.92-3.5.65-1.05,1.22-2.34,1.46-3.79.12-.72.16-1.49.11-2.28-.04-.78-.17-1.56-.42-2.29-.47-1.47-1.42-2.73-2.62-3.56-1.2-.84-2.58-1.25-3.78-1.38-1.2-.13-2.22.04-2.85.29-.65.24-.91.58-1.01.52-.08-.03.04-.54.73-1.02.66-.48,1.79-.87,3.17-.9,1.37-.04,3.02.25,4.58,1.13,1.56.86,2.94,2.4,3.67,4.21.38.9.6,1.85.72,2.78.12.93.15,1.87.05,2.79-.19,1.84-.81,3.5-1.52,4.8-1.46,2.6-3,4-3.2,4.23Z"/><path class="cls-1" d="M88.25,144.94c-.61.18-1.27.06-1.81-.26-.28-.16-.52-.38-.75-.62l-.32-.38-.21-.31c-.47-.76-.74-1.43-.97-2.12l-.35-1.03-.27-1.04c-.2-.7-.29-1.4-.42-2.1-.44-2.81-.45-5.6-.31-8.35.31-5.51,1.32-10.88,2.5-16.18,2.42-10.59,5.71-20.88,8.84-31.16,6.44-20.46,10.28-41.65,12.05-63.01.04-.34.5-4.68,1.01-9.46C107.7,4.42,108.1,0,108.5,0c.38,0,.7,4.45.76,9.01.05,4.56-.16,9.21-.18,9.6-1.78,21.54-5.67,42.98-12.16,63.61-3.13,10.31-6.41,20.55-8.78,30.96-1.17,5.2-2.14,10.46-2.44,15.7-.13,2.62-.12,5.24.28,7.75.12.62.2,1.26.37,1.86l.23.91.3.88c.18.59.45,1.16.68,1.55l.08.12s0,.01.02.02c0-.01,0,.02.02-.02l.09-.13c.06-.1.13-.22.2-.35.14-.27.29-.59.42-.96.14-.37.27-.78.39-1.23.05-.22.11-.44.16-.67l.06-.14c.07-.2.16-.54.15-1.05,0-.13-.02-.26-.05-.39-.03-.13-.13-.27-.21-.25-.14.02-.22.12-.3.25-.16.26-.29.66-.37,1.13-.06.46-.13,1.05.1,1.43.09.06.04.08.11.08.06-.01.13-.02.18-.05.11-.05.2-.07.24-.04.04.03.03.11-.03.25-.02.07-.09.15-.2.24-.08.1-.38.13-.5.06-.26-.13-.44-.4-.58-.86-.15-.45-.19-1.09-.17-1.76.04-1.37.38-2.91.88-3.77.26-.45.49-.81.97-1.02.27-.11.66,0,.86.15.21.15.39.31.53.52.6.78.95,2.29.87,4.19-.02.47-.07.95-.13,1.42-.04.31-.08.56-.12.83-.09.53-.21,1.04-.34,1.51-.13.47-.29.91-.46,1.32-.09.2-.18.4-.28.58-.06.09-.11.19-.16.27-.05.08-.16.23-.23.33-.67.91-1.37,1.09-1.53,1.14Z"/><path class="cls-1" d="M129.36,141.94l.08-.12c.24-.38.5-.96.68-1.55l.3-.88.23-.91c.18-.6.25-1.24.37-1.86.4-2.52.42-5.14.28-7.75-.29-5.25-1.27-10.5-2.44-15.7-2.38-10.42-5.65-20.66-8.78-30.96-6.5-20.63-10.38-42.07-12.16-63.61-.02-.39-.23-5.04-.18-9.6C107.8,4.45,108.12,0,108.5,0c.4,0,.8,4.42,1.26,8.92.51,4.78.98,9.12,1.01,9.46,1.77,21.35,5.61,42.55,12.05,63.01,3.13,10.29,6.42,20.58,8.84,31.16,1.19,5.29,2.19,10.66,2.5,16.18.14,2.75.13,5.55-.31,8.35-.14.7-.22,1.4-.42,2.1l-.27,1.04-.35,1.03c-.23.69-.5,1.36-.97,2.12l-.21.31-.32.38c-.22.24-.47.47-.75.62-.54.32-1.2.44-1.81.26-.16-.05-.86-.23-1.53-1.14-.07-.1-.19-.25-.23-.33-.05-.09-.1-.18-.16-.27-.09-.18-.19-.38-.28-.58-.17-.4-.33-.84-.46-1.32-.13-.47-.25-.98-.34-1.51-.05-.27-.08-.52-.12-.83-.06-.46-.11-.94-.13-1.42-.08-1.9.27-3.41.87-4.19.14-.21.32-.37.53-.52.19-.15.58-.26.86-.15.47.21.71.57.97,1.02.5.87.84,2.4.88,3.77.02.68-.02,1.32-.17,1.76-.14.45-.31.73-.58.86-.12.07-.42.04-.5-.06-.1-.09-.17-.17-.2-.24-.06-.14-.07-.22-.03-.25.04-.03.12,0,.24.04.05.04.12.04.18.05.07,0,.02-.01.11-.08.23-.38.16-.97.1-1.43-.08-.47-.21-.88-.37-1.13-.08-.13-.16-.23-.3-.25-.08-.02-.18.12-.21.25-.03.14-.05.27-.05.39-.01.5.08.84.15,1.05l.06.14c.06.23.11.45.16.67.12.44.25.86.39,1.23s.28.7.43.96c.07.14.14.25.2.35l.09.13s.01.01.02.02c.02,0,.02-.02.02-.02Z"/><path class="cls-1" d="M48.43,149.48c-.42.46-1.09.86-1.79.94-.35.04-.71,0-1.05-.09-.33-.09-.61-.23-.86-.38-.93-.6-1.41-1.26-1.9-1.96-.94-1.43-1.42-3.04-1.61-4.59-.38-3.11.04-6.08.62-8.94,1.19-5.72,3.15-11.11,4.98-16.48.92-2.69,1.83-5.34,2.54-8.03.73-2.7,1.33-5.43,1.8-8.19.94-5.51,1.44-11.12,1.36-16.71,0-.14.1-2.27.21-4.98.08-2.37.12-4.72.51-4.78.38-.06,1.06,2.23,1.5,4.63.43,2.4.64,4.88.63,5.09.13,11.53-1.91,23.12-5.86,33.89-1.83,5.38-3.76,10.71-4.88,16.13-.55,2.69-.9,5.45-.59,7.99.16,1.27.54,2.44,1.16,3.39.3.46.73.94,1.01,1.11.12.07.11.06.1.06,0,0-.02.02.04-.04,0-.02.28-.19.54-.87.06-.16.13-.34.17-.54.05-.18.08-.46.1-.49.04-.11.08-.3-.03-.49-.15-.2-.33-.02-.41.15-.1.19-.16.46-.16.77,0,.15.02.32.08.46.06.15.2.23.21.25.13.06.35-.02.41.06.04.06.09.26-.26.49-.23.11-.44.08-.6-.02-.17-.1-.32-.25-.47-.52-.14-.26-.29-.69-.26-1.25,0-.53.14-1.17.37-1.58.11-.24.24-.37.36-.56.13-.13.27-.28.43-.37.29-.21.78-.27,1.21-.08.83.35,1.33,1.32,1.48,2.33.07.53.06.81.04,1.15-.02.33-.06.64-.12.93-.21,1.15-.87,2-1,2.12Z"/><path class="cls-1" d="M81.75,142.03c.07.04.04.02.05.03,0,0-.01.02.08-.08.21-.24.48-.83.62-1.36.31-1.09.31-2.32.08-3.58-.47-2.52-1.64-5.04-2.99-7.43-2.72-4.82-6.17-9.32-9.55-13.88-7.03-9.06-12.5-19.49-15.88-30.51-.07-.19-.63-2.63-.95-5.04-.31-2.42-.36-4.81.02-4.87.39-.06,1.14,2.17,1.94,4.4.93,2.55,1.67,4.54,1.72,4.68,1.63,5.35,3.8,10.54,6.37,15.5,1.29,2.48,2.69,4.91,4.21,7.26,1.5,2.35,3.17,4.6,4.86,6.88,3.37,4.56,6.88,9.1,9.75,14.19,1.42,2.55,2.72,5.25,3.31,8.33.29,1.53.32,3.22-.14,4.86-.25.82-.52,1.59-1.21,2.45-.2.21-.42.44-.71.62-.3.2-.62.33-.97.4-.69.14-1.45-.04-1.99-.35-.15-.07-1.05-.69-1.59-1.72-.15-.26-.28-.54-.4-.85-.12-.32-.21-.58-.31-1.11-.17-1.01.02-2.08.7-2.66.35-.31.83-.4,1.17-.29.18.04.35.13.52.22.18.14.34.23.52.42.34.32.67.89.83,1.39.19.52.19.98.13,1.27-.06.3-.16.49-.29.64-.12.14-.31.24-.57.2-.41-.11-.43-.32-.4-.39.03-.1.26-.08.37-.18,0-.02.12-.14.12-.3.02-.15-.02-.32-.06-.46-.09-.29-.24-.54-.39-.69-.13-.14-.35-.26-.43-.02-.05.22.05.38.12.48.03.02.14.28.25.44.1.17.22.33.32.46.46.57.78.64.78.66Z"/><path class="cls-1" d="M27.07,166.4c-.43.21-.8.23-1.12.18-.16-.01-.33-.08-.5-.15-.16-.01-.35-.24-.53-.41l-1.09-1.05c-.09-.09-.19-.17-.27-.27l-.22-.37-.45-.74c-.28-.48-.63-1.02-.86-1.44l-.41-1c-.29-.66-.5-1.34-.71-2.01-.82-2.69-1.29-5.41-1.67-8.11-.73-5.41-1-10.81-1.35-16.16-.59-10.64-2.48-21.16-5.34-31.42-.05-.18-.52-2.43-.95-4.65-.43-2.22-.84-4.41-.46-4.55.37-.13,1.45,1.84,2.39,3.94.93,2.09,1.72,4.3,1.78,4.48,2.91,10.44,4.84,21.19,5.44,32.01.35,5.37.62,10.72,1.33,15.96.36,2.61.82,5.21,1.57,7.65.19.61.37,1.22.63,1.79l.35.87c.07.16.08.15.12.24l.08.15s.06.13.16.18c.09.05.25-.04.18-.41,0-.04-.02-.09-.05-.13-.02-.02.04.03.07.03h.02s.01,0,.01,0c-.05.12.46-1.06.25-.56h0s0-.01,0-.01c.01-.02.02-.05.03-.08,0-.13-.02-.03.11.04.05.03.18.12.27.14.05.02.1.02.16.04l.1.03h0s-.03.02-.04.07c-.03.07-.04.18-.06.29-.05.44-.04.9-.01,1.28.01.19.03.36.06.5l.03.18v.06s0-.01-.02.02c-.02.03-.04.09-.05.11-.03.08,0,.03-.07-.03.02,0,.06,0,.09-.01.06-.03.12-.05.17-.03s.08.06.09.15c.01.04,0,.11-.04.19-.03.08-.21.21-.4.16-.3-.1-.4-.25-.54-.41-.13-.16-.25-.35-.36-.56-.22-.42-.41-.92-.52-1.53-.03-.15-.05-.31-.05-.51.01-.19-.03-.42.21-.85.11-.14.2-.26.4-.36.21-.11.49-.15.63-.12.18.02.36.09.42.13.08.04.21.12.24.15.19.14.36.31.5.51.58.79.91,1.78,1.09,2.66.18.89.2,1.68.1,2.24-.17,1.12-.82,1.43-.95,1.51Z"/><path class="cls-1" d="M44.1,154.29l-.03-.16c-.02-.09-.01-.09-.06-.26l-.29-.89c-.17-.6-.43-1.18-.68-1.77-1.01-2.35-2.34-4.63-3.75-6.86-2.85-4.46-6.1-8.71-9.31-13.03-6.54-8.65-12.02-18.1-16.55-27.94-.08-.18-.9-2.37-1.54-4.57-.64-2.21-1.09-4.41-.72-4.55.37-.14,1.48,1.8,2.59,3.77,1.11,1.97,2.2,3.99,2.28,4.16,4.46,9.67,9.81,18.93,16.25,27.43,3.19,4.31,6.47,8.6,9.42,13.2,1.46,2.31,2.85,4.69,3.97,7.27.28.65.56,1.29.76,1.99l.33,1.03c.1.47.19,1.11.28,1.66l.14.85.07.43c0,.13-.02.25-.03.38l-.15,1.5c-.03.25-.03.54-.14.65-.09.16-.17.32-.29.43-.21.25-.5.47-.97.59-.15.02-.85.2-1.7-.54-.44-.36-.93-.98-1.37-1.77-.43-.78-.83-1.75-.89-2.73-.01-.24,0-.48.06-.71,0-.04.05-.18.09-.27.02-.07.12-.24.24-.37.09-.12.33-.27.56-.32.22-.05.36-.02.54.02.46.17.58.37.71.51.13.15.21.29.29.42.31.54.49,1.04.59,1.51.05.23.08.45.08.66-.01.22.02.39-.15.66-.11.17-.33.18-.41.14-.08-.04-.13-.08-.15-.12-.05-.08-.05-.14-.03-.18.03-.04.08-.07.15-.09.04,0,.06-.03.07-.05-.02.09.04.12-.04.07-.02-.01-.07-.04-.11-.05-.04-.01-.02,0-.03,0l-.03-.05-.1-.16c-.07-.12-.17-.27-.28-.42-.22-.31-.51-.67-.84-.97-.08-.07-.16-.15-.23-.18-.04-.04-.06-.02-.07-.03h0s.05-.09.05-.09c.04-.05.07-.08.1-.13.06-.08.1-.23.12-.28.05-.13-.03-.2.06-.1.02.02.05.03.07.04h0s0,0,0,0c-.49-.24.67.33.55.27h0s.01-.03.01-.03c.02-.02.03-.09.03-.06,0,.05.03.09.05.13.19.32.37.29.4.19.05-.1,0-.24,0-.24Z"/><path class="cls-1" d="M170.65,147.53c.06.06.03.03.04.04,0,0-.02.02.1-.06.28-.16.71-.64,1.01-1.11.62-.95,1.01-2.12,1.16-3.39.31-2.54-.03-5.3-.59-7.99-1.13-5.42-3.05-10.75-4.88-16.13-3.95-10.77-5.99-22.36-5.86-33.89,0-.21.2-2.69.63-5.09.44-2.4,1.12-4.69,1.5-4.63.4.06.43,2.41.51,4.78.12,2.71.21,4.83.21,4.98-.08,5.59.42,11.19,1.36,16.71.48,2.76,1.07,5.49,1.8,8.19.72,2.69,1.62,5.35,2.54,8.03,1.83,5.37,3.79,10.76,4.98,16.48.57,2.86.99,5.82.62,8.94-.19,1.55-.67,3.16-1.62,4.59-.49.7-.97,1.36-1.9,1.96-.25.14-.54.29-.86.38-.34.1-.7.13-1.05.09-.7-.07-1.37-.48-1.79-.94-.12-.12-.79-.97-1-2.12-.06-.29-.11-.6-.12-.93-.02-.35-.02-.62.04-1.15.15-1.01.65-1.97,1.48-2.33.42-.19.91-.12,1.21.08.16.09.3.23.43.37.13.19.26.32.36.56.23.41.36,1.05.37,1.58.02.55-.12.99-.26,1.25-.15.27-.3.42-.47.52-.16.1-.37.13-.6.02-.35-.23-.31-.44-.26-.49.06-.08.27,0,.41-.06.01-.02.15-.1.21-.25.06-.14.08-.31.08-.46,0-.31-.06-.58-.16-.77-.08-.17-.25-.35-.41-.15-.11.19-.07.38-.03.49.02.03.05.31.1.49.04.19.11.38.17.54.26.68.54.85.54.87Z"/><path class="cls-1" d="M136.64,144.52c-.54.31-1.3.49-1.99.35-.35-.07-.67-.21-.97-.4-.29-.18-.51-.41-.71-.62-.7-.86-.96-1.63-1.21-2.45-.46-1.65-.43-3.33-.14-4.86.59-3.08,1.89-5.78,3.31-8.33,2.88-5.09,6.38-9.63,9.75-14.19,1.69-2.28,3.36-4.54,4.86-6.88,1.51-2.35,2.91-4.77,4.21-7.26,2.57-4.97,4.75-10.16,6.37-15.5.05-.14.78-2.13,1.72-4.68.8-2.23,1.55-4.46,1.94-4.4.38.06.33,2.45.02,4.87-.32,2.42-.87,4.85-.95,5.04-3.38,11.02-8.85,21.45-15.88,30.51-3.38,4.57-6.83,9.06-9.55,13.88-1.34,2.4-2.51,4.92-2.99,7.43-.24,1.25-.23,2.49.08,3.58.15.53.41,1.12.62,1.36.09.1.09.09.08.08,0,0-.02.02.05-.03,0-.02.32-.09.78-.66.11-.13.23-.29.32-.46.1-.15.21-.41.24-.44.07-.09.17-.26.12-.48-.08-.24-.3-.12-.43.02-.15.15-.3.39-.39.69-.04.15-.08.31-.06.46,0,.16.12.28.12.3.11.1.34.08.37.18.03.07,0,.28-.4.39-.25.04-.44-.06-.57-.2-.13-.15-.23-.34-.29-.64-.06-.29-.06-.75.13-1.27.17-.5.49-1.07.83-1.39.17-.19.34-.28.52-.42.17-.09.34-.18.52-.22.34-.11.83-.02,1.17.29.68.59.87,1.66.7,2.66-.1.53-.19.79-.31,1.11-.12.31-.25.59-.4.85-.54,1.03-1.44,1.64-1.59,1.72Z"/><path class="cls-1" d="M192.17,161.35l.08-.15c.04-.08.05-.08.12-.24l.35-.87c.25-.56.44-1.18.63-1.79.75-2.45,1.21-5.04,1.57-7.65.7-5.24.98-10.59,1.33-15.96.6-10.82,2.53-21.57,5.44-32.01.06-.19.84-2.39,1.78-4.48.94-2.09,2.02-4.07,2.39-3.94.37.14-.03,2.33-.46,4.55-.43,2.22-.9,4.46-.95,4.65-2.85,10.26-4.75,20.78-5.34,31.42-.35,5.35-.62,10.75-1.35,16.16-.38,2.71-.85,5.42-1.67,8.11-.21.67-.41,1.35-.71,2.01l-.41,1c-.23.43-.58.97-.86,1.44l-.44.74-.22.37c-.08.1-.18.18-.27.27l-1.09,1.05c-.18.17-.37.39-.53.41-.17.06-.33.13-.5.15-.32.05-.69.03-1.12-.18-.13-.08-.77-.4-.95-1.51-.1-.56-.08-1.35.1-2.24.18-.88.5-1.87,1.09-2.66.15-.19.32-.37.5-.51.03-.03.16-.1.24-.15.06-.04.24-.11.42-.13.14-.03.43,0,.63.12.2.1.29.22.4.36.24.43.2.65.21.85,0,.2-.03.36-.05.51-.11.61-.3,1.11-.52,1.53-.11.21-.23.39-.36.56-.15.16-.24.31-.54.41-.2.06-.37-.08-.4-.16-.04-.08-.05-.15-.04-.19.01-.09.05-.14.1-.15.05-.01.11,0,.17.03.03.02.07.02.09.01-.07.06-.05.11-.07.03,0-.02-.03-.08-.05-.11-.02-.03-.02-.01-.02-.02v-.06s.03-.18.03-.18c.02-.14.04-.31.06-.5.03-.38.04-.84-.01-1.28-.01-.11-.03-.22-.06-.29,0-.05-.03-.06-.04-.07h0s.1-.04.1-.04c.06-.01.11-.02.16-.04.1-.02.22-.11.27-.14.12-.06.11-.17.11-.04,0,.03.01.06.03.08h0s0,.01,0,.01c-.22-.5.3.69.25.56h.01s.02,0,.02,0c.02,0,.08-.05.07-.03-.02.04-.04.09-.05.13-.06.36.09.46.18.41.1-.05.16-.18.16-.18Z"/><path class="cls-1" d="M171.34,159.6c-.46-.12-.76-.34-.97-.59-.12-.12-.2-.28-.29-.43-.11-.11-.11-.41-.14-.65l-.15-1.5c0-.13-.03-.25-.03-.38l.07-.43.14-.85c.09-.55.18-1.18.28-1.66l.33-1.03c.21-.7.49-1.34.76-1.99,1.12-2.59,2.51-4.96,3.97-7.27,2.95-4.6,6.23-8.89,9.42-13.2,6.43-8.5,11.79-17.75,16.25-27.43.08-.17,1.17-2.19,2.28-4.16,1.1-1.97,2.21-3.91,2.59-3.77.36.14-.09,2.34-.72,4.55-.64,2.2-1.46,4.39-1.54,4.57-4.53,9.84-10.01,19.29-16.55,27.94-3.21,4.32-6.45,8.58-9.31,13.03-1.41,2.23-2.74,4.51-3.75,6.86-.25.59-.51,1.17-.68,1.77l-.29.89c-.05.17-.04.17-.06.26l-.03.16s-.04.13,0,.24c.03.1.22.13.4-.19.02-.04.04-.08.05-.13,0-.03.01.05.03.06v.02s.02,0,.02,0c-.12.06,1.04-.51.55-.27h0s0,0,0,0c.02,0,.05-.02.07-.04.09-.1,0-.03.06.1.02.06.06.21.12.28.03.05.06.08.1.13l.05.09h0s-.03,0-.07.03c-.07.04-.15.11-.23.18-.32.3-.62.66-.84.97-.11.15-.21.3-.28.42l-.1.16-.03.05s0,0-.03,0c-.04,0-.09.04-.11.05-.07.05-.02.02-.04-.07.01.02.04.04.07.05.07.02.12.04.15.09s.02.1-.03.18c-.02.04-.07.08-.15.12-.08.04-.3.03-.41-.14-.17-.27-.14-.45-.15-.66,0-.21.03-.43.08-.66.1-.46.28-.97.59-1.51.08-.13.16-.27.29-.42.13-.14.25-.33.71-.51.18-.04.32-.07.54-.02.23.05.47.2.56.32.13.13.22.3.24.37.04.08.08.22.09.27.05.23.07.47.06.71-.06.98-.46,1.95-.89,2.73-.44.8-.93,1.41-1.37,1.77-.86.74-1.55.56-1.7.54Z"/></g></svg>