<?xml version="1.0" encoding="UTF-8"?><svg id="Line" xmlns="http://www.w3.org/2000/svg" viewBox="0 0 195 247.53"><defs><style>.cls-1{fill:#fff;stroke-width:0px;}</style></defs><g id="Icon_20_Lines"><path class="cls-1" d="M97.5,42.61c1.56,1.06,3.6,1.95,5.77,2.89,2.91,1.27,6.21,2.71,8.42,4.55l.14.12.16.1c7.8,5.01,12.46,13.54,12.46,22.82s-4.66,17.81-12.46,22.82l-.16.1-.14.12c-2.22,1.84-5.51,3.28-8.42,4.55-2.17.95-4.21,1.84-5.77,2.89-1.56-1.06-3.6-1.95-5.77-2.89-2.91-1.27-6.2-2.71-8.42-4.55l-.14-.12-.16-.1c-7.8-5.01-12.46-13.54-12.46-22.82s4.66-17.81,12.46-22.82l.16-.1.14-.12c2.22-1.84,5.51-3.28,8.42-4.55,2.17-.95,4.21-1.84,5.77-2.89M97.5,37.85c0,3.38-10.44,5.18-16.11,9.89h0c-8.32,5.34-13.84,14.7-13.84,25.35s5.52,20.01,13.84,25.34h0c5.67,4.71,16.11,6.52,16.11,9.89,0-3.38,10.44-5.18,16.11-9.89h0c8.32-5.34,13.84-14.7,13.84-25.35s-5.52-20.01-13.84-25.34c0,0,0,0,0,0-5.67-4.71-16.11-6.52-16.11-9.89h0Z"/><path class="cls-1" d="M157.99,214.52c3.32-3.4,6.08-7.31,8.2-11.57,2.13-4.25,3.58-8.84,4.51-13.53,1.86-9.41,1.63-19.19.36-28.77-1.25-9.6-3.61-19.07-6.47-28.36-1.46-4.64-3.05-9.24-4.75-13.81-1.73-4.55-3.53-9.08-5.46-13.56-7.7-17.92-16.77-35.26-26.58-52.15-4.9-8.45-10.01-16.78-15.26-25.02-2.63-4.12-5.3-8.21-8-12.28l-4.08-6.09-2.96-4.34-2.96,4.34-4.08,6.09c-2.71,4.07-5.38,8.16-8,12.28-5.26,8.24-10.36,16.57-15.26,25.02-9.81,16.89-18.88,34.22-26.58,52.15-1.93,4.48-3.73,9.01-5.46,13.56-1.7,4.56-3.29,9.17-4.75,13.81-2.86,9.29-5.21,18.76-6.47,28.36-1.27,9.58-1.5,19.36.36,28.77.93,4.69,2.38,9.28,4.51,13.53,2.12,4.26,4.88,8.17,8.2,11.57.48.46,3.48,3.78,8.76,7.23,5.21,3.54,12.83,6.78,20.71,8.88,7.9,2.06,15.98,3.07,22.03,3.59,1.5.12,2.88.24,4.13.34,1.2.07,2.26.13,3.19.19,1.77.12,2.77.23,2.77.33s-1.01.18-2.78.24c-.93.02-2,.05-3.21.08-1.26-.02-2.66-.05-4.17-.08-6.11-.18-14.32-.89-22.45-2.74-8.11-1.89-16.09-5.03-21.65-8.62-5.62-3.49-8.89-6.96-9.39-7.45-3.52-3.61-6.47-7.78-8.71-12.29-2.26-4.51-3.78-9.34-4.76-14.25-1.94-9.84-1.69-19.91-.39-29.7,1.28-9.82,3.68-19.43,6.57-28.84,1.48-4.7,3.09-9.35,4.8-13.96,1.75-4.6,3.56-9.17,5.51-13.68,7.76-18.07,16.88-35.49,26.73-52.46,4.92-8.49,10.05-16.85,15.33-25.12,2.64-4.14,5.31-8.24,8.03-12.33l4.1-6.11,5.32-7.79,5.32,7.79,4.1,6.11c2.72,4.08,5.39,8.19,8.03,12.33,5.28,8.27,10.4,16.63,15.33,25.12,9.85,16.96,18.98,34.39,26.73,52.46,1.94,4.51,3.76,9.08,5.51,13.68,1.72,4.61,3.32,9.26,4.8,13.96,2.9,9.41,5.29,19.02,6.57,28.84,1.3,9.79,1.55,19.86-.39,29.7-.98,4.9-2.5,9.74-4.75,14.25-2.24,4.51-5.19,8.69-8.71,12.29-.51.49-3.77,3.96-9.39,7.45-5.56,3.59-13.53,6.73-21.65,8.62-8.13,1.85-16.34,2.56-22.45,2.74-1.51.03-2.91.05-4.17.08-1.2-.03-2.28-.06-3.21-.08-1.77-.06-2.78-.14-2.78-.24s1.01-.21,2.77-.33c.92-.05,1.99-.12,3.19-.19,1.25-.1,2.63-.22,4.13-.34,6.05-.52,14.13-1.53,22.03-3.59,7.88-2.1,15.5-5.34,20.71-8.88,5.28-3.45,8.28-6.76,8.76-7.23Z"/><path class="cls-1" d="M143.06,162.8c2.49-2.55,4.56-5.48,6.14-8.67,1.6-3.19,2.69-6.63,3.39-10.16,1.4-7.07,1.23-14.44.27-21.67-.95-7.25-2.72-14.4-4.89-21.42-2.2-7.02-4.81-13.91-7.72-20.69-5.82-13.55-12.68-26.67-20.1-39.45-3.71-6.39-7.57-12.7-11.55-18.93-1.99-3.12-4.01-6.21-6.06-9.29l-3.09-4.61-1.56-2.29-.39-.57h0s0,0,0,0h0s-.39.57-.39.57l-1.56,2.29-3.09,4.61c-2.05,3.08-4.07,6.18-6.06,9.29-3.98,6.23-7.84,12.54-11.55,18.93-7.42,12.78-14.29,25.89-20.1,39.45-2.9,6.78-5.52,13.67-7.72,20.69-2.16,7.02-3.94,14.17-4.88,21.42-.96,7.23-1.13,14.6.27,21.67.7,3.53,1.79,6.97,3.39,10.16,1.59,3.19,3.66,6.13,6.14,8.67.36.35,2.6,2.84,6.56,5.44,3.9,2.68,9.63,5.14,15.57,6.75,11.95,3.2,24.3,3.11,24.26,3.61,0,.1-.76.18-2.11.25-.72.03-1.53.06-2.43.1-.97,0-2.02-.02-3.16-.03-4.63-.09-10.86-.6-17.05-1.97-6.17-1.4-12.25-3.77-16.5-6.5-4.3-2.65-6.8-5.3-7.19-5.67-2.69-2.76-4.94-5.95-6.66-9.4-1.72-3.44-2.89-7.13-3.63-10.87-1.48-7.5-1.29-15.16-.3-22.6.98-7.46,2.79-14.75,4.99-21.89,2.24-7.13,4.89-14.11,7.82-20.96,5.88-13.7,12.79-26.9,20.26-39.76,3.73-6.43,7.61-12.77,11.61-19.03,2-3.13,4.03-6.25,6.08-9.34l3.1-4.63,4.32-6.32,4.32,6.32,3.1,4.63c2.06,3.09,4.09,6.2,6.08,9.34,4,6.26,7.88,12.6,11.61,19.03,7.47,12.85,14.38,26.06,20.26,39.76,2.93,6.85,5.58,13.83,7.82,20.96,2.2,7.14,4.01,14.43,4.99,21.89.98,7.44,1.18,15.1-.3,22.6-.74,3.74-1.91,7.43-3.63,10.87-1.71,3.45-3.96,6.64-6.66,9.4-.39.37-2.89,3.02-7.19,5.67-4.25,2.73-10.33,5.09-16.5,6.5-6.19,1.37-12.42,1.87-17.05,1.97-1.14,0-2.19.02-3.16.03-.9-.04-1.71-.07-2.43-.1-1.34-.07-2.11-.15-2.11-.25-.03-.49,12.31-.4,24.26-3.61,5.94-1.61,11.67-4.08,15.57-6.75,3.96-2.61,6.2-5.1,6.56-5.44Z"/><path class="cls-1" d="M175.51,94.24c.89,2.96,1.02,5.94.93,8.84-.1,2.91-.55,5.76-1.08,8.58-1.11,5.63-2.81,11.09-4.83,16.4-.99,2.67-2.11,5.28-3.27,7.87-1.22,2.57-2.47,5.17-3.91,7.62-2.82,4.95-5.96,9.69-9.26,14.28-6.56,9.21-13.69,17.94-19.84,27.23-3.04,4.65-5.87,9.46-7.7,14.58l-.67,1.92-.56,2c-.35,1.34-.67,2.68-.94,4.02-.54,2.69-.91,5.42-.99,8.13,0,.19-.11,1.46-.07,3.23.03,1.77.24,4.07.89,6.2.32,1.06.77,2.07,1.33,2.88.55.82,1.24,1.42,1.87,1.6.31.08.6.05.85-.04.24-.11.46-.27.61-.44.32-.33.47-.61.58-.57.07.02.13.35-.1.88-.1.27-.31.58-.66.86-.36.26-.88.45-1.44.42-1.13-.09-2.16-.81-2.97-1.7-.82-.9-1.47-2.02-1.97-3.17-1-2.33-1.44-4.82-1.63-6.74-.2-1.92-.17-3.28-.16-3.49.08-2.91.48-5.78,1.04-8.6.28-1.41.62-2.81.98-4.19l.58-2.07.72-2.06c1.96-5.49,4.9-10.45,8.01-15.2,6.27-9.48,13.41-18.2,19.9-27.33,3.27-4.55,6.35-9.2,9.09-14.03,1.41-2.4,2.6-4.88,3.79-7.39,1.14-2.54,2.23-5.1,3.21-7.71,1.98-5.2,3.63-10.52,4.7-15.94.51-2.7.94-5.43,1.03-8.15.1-2.7-.05-5.42-.8-7.87,0-.14-.25-.71-.56-1.6-.35-.8-1.05-1.92-2.04-2.93-.97-1.01-2.28-1.95-3.55-2.05-.14-.03-.35.01-.41,0-.08,0-.16,0-.24.02-.16.03-.35.09-.47.24-.12.14-.16.35-.07.5.1.14.29.14.45.19.28.04.6.03.91-.05.15-.04.31-.1.43-.2.07-.04.1-.12.14-.17.02-.02.02-.05.01-.07-.05-.15-.29-.34-.42-.44-.14-.11-.21-.2-.2-.25.02-.05.12-.07.32-.06.1,0,.22.03.36.08.14.04.31.11.49.32.1.11.15.26.16.42-.01.12-.03.23-.09.33-.11.21-.28.4-.56.57-.54.36-1.55.55-2.43.42-.24-.05-.47-.13-.67-.22-.18-.11-.38-.17-.51-.4-.28-.41-.35-1.01-.14-1.51.2-.51.63-.92,1.19-1.19.27-.15.6-.23.92-.32.35-.05.55-.11.83-.1,1.05-.04,2.05.26,2.92.68.87.42,1.62.96,2.28,1.52,1.32,1.13,2.26,2.39,2.85,3.49.48,1.07.82,1.8.82,1.95Z"/><path class="cls-1" d="M22.21,95.1c-.74,2.44-.89,5.17-.8,7.87.09,2.71.52,5.44,1.03,8.15,1.07,5.41,2.72,10.74,4.7,15.94.97,2.61,2.07,5.17,3.21,7.71,1.19,2.51,2.38,4.99,3.79,7.39,2.74,4.83,5.83,9.48,9.09,14.03,6.5,9.12,13.63,17.84,19.9,27.33,3.1,4.75,6.04,9.71,8.01,15.2l.72,2.06.58,2.07c.36,1.39.69,2.78.98,4.19.56,2.82.96,5.69,1.04,8.6,0,.21.04,1.57-.16,3.49-.19,1.92-.63,4.41-1.63,6.74-.5,1.16-1.15,2.27-1.97,3.17-.81.9-1.84,1.62-2.97,1.7-.56.03-1.08-.16-1.44-.42-.35-.28-.55-.59-.66-.86-.22-.53-.17-.85-.1-.88.11-.04.26.23.58.57.15.17.37.33.61.44.26.09.54.12.85.04.64-.18,1.33-.78,1.87-1.6.56-.81,1-1.82,1.33-2.88.65-2.13.86-4.43.89-6.2.04-1.78-.06-3.04-.07-3.23-.08-2.71-.45-5.44-.99-8.13-.27-1.35-.59-2.69-.94-4.02l-.56-2-.67-1.92c-1.83-5.12-4.66-9.93-7.7-14.58-6.15-9.3-13.28-18.03-19.84-27.23-3.3-4.59-6.44-9.33-9.26-14.28-1.44-2.45-2.69-5.05-3.91-7.62-1.16-2.59-2.28-5.21-3.27-7.87-2.03-5.31-3.72-10.77-4.83-16.4-.53-2.82-.98-5.67-1.08-8.58-.1-2.91.03-5.89.93-8.84,0-.15.34-.88.82-1.95.59-1.1,1.53-2.35,2.85-3.49.66-.56,1.41-1.1,2.28-1.52.86-.42,1.86-.72,2.92-.68.28,0,.48.06.83.1.32.09.65.17.92.32.57.27.99.68,1.19,1.19.21.5.14,1.1-.14,1.51-.13.22-.33.29-.51.4-.2.09-.43.17-.67.22-.88.13-1.89-.06-2.43-.42-.28-.17-.45-.36-.56-.57-.06-.1-.08-.21-.09-.33.01-.17.06-.31.16-.42.18-.21.35-.27.49-.32.14-.05.26-.08.36-.08.2-.01.3,0,.32.06.02.05-.06.14-.2.25-.13.09-.37.29-.42.44,0,.02,0,.05.01.07.03.05.07.13.14.17.12.1.27.16.43.2.31.08.63.1.91.05.17-.04.35-.05.45-.19.08-.15.05-.36-.07-.5-.12-.14-.31-.21-.47-.24-.08-.02-.16-.02-.24-.02-.06.02-.27-.02-.41,0-1.27.1-2.58,1.05-3.55,2.05-.99,1.01-1.69,2.13-2.04,2.93-.31.9-.56,1.46-.56,1.6Z"/></g></svg>