<?xml version="1.0" encoding="UTF-8"?><svg id="Line" xmlns="http://www.w3.org/2000/svg" viewBox="0 0 240.82 206.9"><defs><style>.cls-1{fill:#fff;stroke-width:0px;}</style></defs><g id="Icon_11_Lines"><path class="cls-1" d="M172.4.09c7.48.75,14.96,2.18,22.08,4.83l1.34.48c.44.17.87.38,1.31.57l2.6,1.17c.88.36,1.69.89,2.53,1.33.83.48,1.68.9,2.49,1.42,1.57,1.1,3.22,2.07,4.67,3.34.73.62,1.51,1.18,2.2,1.85l2.06,2.02c2.62,2.81,4.94,5.91,6.75,9.31,1.78,3.41,3.13,7.03,4.04,10.74.92,3.72,1.39,7.53,1.47,11.33.09,3.81-.18,7.62-.79,11.37-.03.27-.73,3.48-1.9,6.48-.27.75-.63,1.48-.93,2.16-.36.67-.66,1.29-1.01,1.79-.64,1.02-1.29,1.56-1.43,1.45-.17-.14.12-.82.42-1.92.18-.53.31-1.19.51-1.87.15-.7.35-1.43.49-2.19.63-3,.98-6.11,1.01-6.37,1.13-7.15,1.09-14.56-.64-21.57-.86-3.5-2.12-6.89-3.78-10.07-1.69-3.17-3.86-6.06-6.3-8.68l-1.92-1.89c-.64-.63-1.38-1.15-2.06-1.74-1.34-1.2-2.91-2.11-4.39-3.15-.76-.49-1.57-.89-2.35-1.34-.8-.42-1.55-.92-2.4-1.26l-2.48-1.12c-.42-.18-.82-.39-1.25-.55l-1.28-.46c-6.82-2.54-14.06-3.93-21.35-4.66-.26,0-3.39-.49-6.48-.87-3.09-.34-6.14-.77-6.15-1.16s3.07-.67,6.23-.85c3.16-.13,6.4.05,6.67.05Z"/><path class="cls-1" d="M164.58,5.25c.06,1.63-.35,3.04-.83,4.36-.49,1.32-1.14,2.52-1.82,3.69-1.38,2.33-3,4.45-4.73,6.45-.86,1.01-1.77,1.97-2.69,2.92-.96.93-1.93,1.86-2.96,2.71-2.04,1.71-4.16,3.26-6.32,4.73-4.31,2.95-8.76,5.61-12.85,8.6-2.03,1.5-4,3.08-5.55,4.9-.76.88-1.48,1.93-2.11,2.97-.63,1.05-1.19,2.13-1.61,3.23-.04.15-1.02,2.02-1.12,3.88-.07.91.18,1.79.51,2.06.29.35.85-.01.99.11.07.05.09.23-.09.49-.15.24-.64.59-1.27.45-.61-.12-1.13-.6-1.47-1.13-.35-.54-.56-1.17-.68-1.79-.46-2.55.42-4.9.46-5.07.5-1.31,1.14-2.54,1.84-3.7.71-1.17,1.45-2.25,2.38-3.34,1.81-2.12,3.92-3.79,6.04-5.35,4.26-3.11,8.7-5.76,12.93-8.65,2.11-1.44,4.17-2.94,6.09-4.56.97-.8,1.87-1.66,2.76-2.53.88-.91,1.75-1.83,2.57-2.78,1.65-1.9,3.18-3.91,4.43-6.03.62-1.06,1.2-2.15,1.61-3.25.41-1.09.7-2.23.65-3.2,0-.03-.01-.15-.01-.35.01-.21-.02-.38-.11-.71-.17-.6-.62-1.46-1.15-1.81-.13-.09-.25-.16-.41-.19-.06-.02-.13-.03-.13-.04-.05-.18-.17-.36-.21-.37-.06-.02,0-.03-.11,0-.02.01-.05.02-.08.05-.01,0-.02.02-.03.03h0c.57-.95.16-.26.29-.47h0s0,0,0,0h0s.05.06.08.08c.12.1.27.18.41.24.14.06.28.09.34.12-.03-.04.07.15.1.18.01.02.04.04.06.05h0s-.1.01-.13.05c-.07.03-.01-.01-.02-.02-.03-.17-.13-.33-.07-.41.05-.07.21-.13.51.04.04.03.08.07.12.11.04.07.09.15.09.28-.02.32-.24.44-.36.52-.26.13-.49.17-.75.19-.26.01-.53,0-.84-.1-.08-.02-.15-.05-.23-.08-.03-.01-.02,0-.08-.04-.06-.04-.12-.09-.17-.14-.09-.09-.16-.19-.2-.29-.17-.37-.13-.78.07-1.1.45-.63,1.01-.66,1.38-.71.37-.03.79.03,1.16.15.75.25,1.33.72,1.77,1.19.45.47.77.98,1.02,1.45.23.45.42.99.45,1.31.06.34.09.56.1.62Z"/><path class="cls-1" d="M223,68.13c2.01-.81,4.28-.79,6.28-.17,2.02.62,3.75,1.84,5.16,3.25,1.44,1.4,2.46,3.08,3.42,4.75l1.23,2.59c.33.91.64,1.82.95,2.74,1.1,3.73,1.03,7.87-.21,11.58-1.22,3.73-3.42,6.97-5.95,9.76-2.55,2.79-5.43,5.19-8.43,7.37-3,2.18-6.13,4.14-9.31,5.98-6.38,3.66-12.95,6.87-19.54,10-6.58,3.14-13.19,6.17-19.55,9.57-6.31,3.46-12.35,7.41-17.96,11.92-11.23,8.98-20.87,20-27.92,32.52-.24.45-3.49,5.72-5.94,11.29-2.55,5.51-4.42,11.21-4.83,11.1-.35-.08.84-6.02,2.96-11.86,2.02-5.88,5.07-11.47,5.32-11.93,7.25-12.86,17.13-24.15,28.63-33.35,5.75-4.61,11.93-8.66,18.39-12.2,6.48-3.47,13.12-6.5,19.68-9.64,6.56-3.12,13.08-6.31,19.33-9.9,3.12-1.81,6.16-3.72,9.05-5.82,2.89-2.1,5.63-4.38,7.99-6.98,2.35-2.58,4.31-5.51,5.35-8.72,1.06-3.2,1.13-6.65.17-9.92l-.84-2.42-1.11-2.34c-.85-1.48-1.74-2.95-2.93-4.09-1.15-1.16-2.5-2.08-3.96-2.53-1.45-.45-3.04-.46-4.42.11-.1.05-.48.15-1.01.46-.51.3-1.23.79-1.72,1.55-.45.69-.71,1.74-.39,2.84.27,1.1,1.12,2.13,2.18,2.52.54.17,1.13.19,1.73.08.59-.17,1.19-.4,1.67-.76.96-.71,1.5-1.8,1.36-2.67-.1-.9-.89-1.41-1.42-1.67-.56-.27-.94-.37-.92-.48,0-.08.4-.18,1.1-.06.18.03.37.06.58.15.21.07.43.17.65.33.44.28.9.79,1.1,1.46.44,1.37-.19,3.05-1.41,4.16-.61.57-1.37.97-2.2,1.28-.86.27-1.83.34-2.78.12-1.9-.5-3.32-2.05-3.88-3.73-.64-1.67-.4-3.58.39-4.93.75-1.31,1.76-2.07,2.5-2.56.76-.5,1.31-.68,1.45-.75Z"/><path class="cls-1" d="M68.69,2.94c-7.29.73-14.54,2.12-21.35,4.66l-1.28.46c-.43.16-.83.37-1.25.55l-2.48,1.12c-.84.34-1.6.84-2.4,1.26-.78.45-1.6.85-2.35,1.34-1.47,1.04-3.04,1.95-4.39,3.15-.68.58-1.42,1.11-2.06,1.74l-1.92,1.89c-2.44,2.62-4.61,5.51-6.3,8.68-1.66,3.18-2.93,6.57-3.78,10.07-1.73,7.01-1.77,14.42-.64,21.57.03.26.39,3.36,1.01,6.37.14.76.35,1.48.49,2.19.2.67.34,1.34.51,1.87.3,1.1.6,1.78.42,1.92-.13.11-.79-.43-1.43-1.45-.35-.5-.65-1.12-1.01-1.79-.3-.68-.66-1.41-.93-2.16-1.17-3-1.87-6.21-1.9-6.48-.61-3.76-.88-7.56-.79-11.37.08-3.81.55-7.62,1.47-11.33.91-3.72,2.26-7.34,4.04-10.74,1.81-3.4,4.13-6.5,6.75-9.31l2.06-2.02c.69-.67,1.47-1.23,2.2-1.85,1.44-1.28,3.1-2.25,4.67-3.34.8-.52,1.66-.94,2.49-1.42.84-.44,1.65-.97,2.53-1.33l2.6-1.17c.44-.19.86-.4,1.31-.57l1.34-.48C53.46,2.27,60.93.84,68.41.09c.27,0,3.51-.17,6.67-.05,3.16.18,6.24.46,6.23.85s-3.05.83-6.15,1.16c-3.09.39-6.22.88-6.48.87Z"/><path class="cls-1" d="M79.09,5.4c-.05.96.24,2.1.65,3.2.41,1.11.99,2.19,1.61,3.25,1.25,2.12,2.79,4.13,4.43,6.03.82.96,1.69,1.87,2.57,2.78.9.87,1.79,1.73,2.76,2.53,1.93,1.61,3.98,3.12,6.09,4.56,4.23,2.89,8.67,5.54,12.93,8.65,2.12,1.57,4.22,3.24,6.04,5.35.93,1.08,1.67,2.17,2.38,3.34.7,1.16,1.34,2.39,1.84,3.7.03.18.91,2.53.46,5.07-.12.63-.33,1.25-.68,1.79-.34.53-.86,1.01-1.47,1.13-.63.14-1.12-.2-1.27-.45-.17-.25-.15-.43-.09-.49.14-.12.7.23.99-.11.33-.27.58-1.15.51-2.06-.1-1.86-1.08-3.74-1.12-3.88-.42-1.1-.98-2.19-1.61-3.23-.63-1.04-1.35-2.09-2.11-2.97-1.55-1.82-3.52-3.4-5.55-4.9-4.09-2.99-8.54-5.65-12.85-8.6-2.16-1.47-4.29-3.03-6.32-4.73-1.03-.84-2-1.77-2.96-2.71-.92-.95-1.83-1.91-2.69-2.92-1.73-2.01-3.36-4.12-4.73-6.45-.68-1.17-1.33-2.37-1.82-3.69-.48-1.32-.89-2.73-.83-4.36,0-.06.04-.28.1-.62.04-.33.22-.86.45-1.31.25-.48.57-.98,1.02-1.45.44-.47,1.02-.93,1.77-1.19.37-.12.79-.18,1.16-.15.37.05.93.08,1.38.71.2.32.25.72.07,1.1-.04.09-.11.19-.2.29-.05.05-.11.1-.17.14-.06.03-.05.02-.08.04-.08.03-.16.06-.23.08-.31.09-.58.11-.84.1-.26-.02-.49-.06-.75-.19-.12-.08-.34-.19-.36-.52,0-.13.05-.21.09-.28.04-.04.08-.08.12-.11.3-.17.45-.11.51-.04.06.08-.04.25-.07.41-.01,0,.04.05-.02.02-.03-.04-.13-.05-.13-.05h0s.05-.03.06-.06c.03-.03.13-.21.1-.18.05-.03.2-.06.34-.12.14-.06.29-.14.41-.24.03-.02.05-.05.08-.07h0s0-.01,0-.01h0c.13.21-.28-.48.29.47h0s-.02-.03-.03-.04c-.02-.03-.05-.04-.08-.05-.11-.03-.06-.02-.11,0-.04.01-.17.19-.21.37,0,.01-.07.03-.13.04-.16.04-.28.11-.41.19-.53.35-.98,1.2-1.15,1.81-.09.33-.12.5-.11.71,0,.19,0,.31-.01.35Z"/><path class="cls-1" d="M16.78,70.8c-1.38-.57-2.96-.55-4.42-.11-1.47.45-2.81,1.37-3.96,2.53-1.18,1.14-2.08,2.61-2.93,4.09l-1.11,2.34-.84,2.42c-.95,3.27-.88,6.73.17,9.92,1.04,3.21,3,6.14,5.35,8.72,2.36,2.59,5.11,4.88,7.99,6.98,2.89,2.1,5.94,4.02,9.05,5.82,6.26,3.59,12.77,6.78,19.33,9.9,6.56,3.13,13.19,6.16,19.68,9.64,6.46,3.54,12.64,7.59,18.39,12.2,11.5,9.2,21.38,20.49,28.63,33.35.25.46,3.3,6.05,5.32,11.93,2.12,5.84,3.31,11.78,2.96,11.86-.41.11-2.28-5.59-4.83-11.1-2.45-5.56-5.7-10.84-5.94-11.29-7.06-12.52-16.7-23.54-27.92-32.52-5.61-4.5-11.65-8.46-17.96-11.92-6.36-3.4-12.97-6.43-19.55-9.57-6.58-3.13-13.16-6.35-19.54-10-3.18-1.84-6.31-3.81-9.31-5.98-2.99-2.18-5.88-4.57-8.43-7.37-2.53-2.78-4.74-6.03-5.95-9.76-1.24-3.71-1.3-7.85-.21-11.58.31-.91.62-1.83.95-2.74l1.23-2.59c.95-1.67,1.97-3.35,3.42-4.75,1.4-1.41,3.13-2.63,5.16-3.25,2.01-.62,4.27-.64,6.28.17.14.06.69.25,1.45.75.74.5,1.75,1.25,2.5,2.56.79,1.34,1.03,3.26.39,4.93-.56,1.68-1.98,3.23-3.88,3.73-.95.22-1.92.15-2.78-.12-.83-.31-1.59-.71-2.2-1.28-1.22-1.11-1.85-2.79-1.41-4.16.2-.68.65-1.18,1.1-1.46.22-.16.44-.26.65-.33.2-.09.4-.12.58-.15.7-.12,1.09-.01,1.1.06.02.12-.37.21-.92.48-.53.26-1.32.77-1.42,1.67-.14.87.4,1.97,1.36,2.67.48.37,1.08.59,1.67.76.6.12,1.19.1,1.73-.08,1.06-.39,1.91-1.41,2.18-2.52.33-1.1.07-2.15-.39-2.84-.49-.76-1.21-1.24-1.72-1.55-.53-.31-.92-.42-1.01-.46Z"/><path class="cls-1" d="M72.19,56.65c-.2-.22-.47-.32-.71-.49-.27-.08-.51-.24-.8-.26-.55-.15-1.14-.06-1.74.05-1.2.34-2.42,1.11-3.46,2.15-1.05,1.02-2.01,2.2-2.84,3.49-.4.65-.85,1.28-1.22,1.95l-1.05,2.04c-1.27,2.77-2,5.76-2.07,8.78-.09,3.03.5,6.06,1.51,8.97,2.05,5.84,5.71,11.1,9.74,15.99,4.05,4.9,8.56,9.45,13.14,13.96,4.56,4.53,9.26,8.97,13.56,13.92,4.26,4.97,7.98,10.38,11.17,16.08,6.37,11.4,10.67,23.92,12.79,36.79.11.45.8,6.03.95,11.5.1,5.48-.38,10.81-.74,10.8-.42-.01-.66-5.31-1.27-10.66-.66-5.35-1.65-10.73-1.76-11.17-2.07-12.55-6.27-24.77-12.47-35.86-3.1-5.54-6.72-10.8-10.85-15.61-4.14-4.79-8.83-9.21-13.4-13.76-4.59-4.53-9.17-9.14-13.33-14.18-4.14-5.03-7.99-10.5-10.23-16.87-1.11-3.17-1.77-6.56-1.67-9.98.08-3.42.92-6.82,2.33-9.9l1.16-2.25c.41-.74.89-1.43,1.34-2.14.91-1.41,1.99-2.75,3.25-3.97,1.25-1.22,2.8-2.3,4.7-2.84,1.9-.51,4.28-.14,5.81,1.28.22.15,1.8,1.51,2.24,4.13.2,1.34-.04,2.84-.71,4.2-.34.68-.8,1.33-1.37,1.91-.59.57-1.34,1.07-2.26,1.27-.92.21-1.96-.04-2.66-.56-.67-.52-1.17-1.15-1.48-1.84-.64-1.37-.56-2.83-.07-3.9.26-.54.64-.95,1.04-1.23.42-.25.82-.37,1.15-.39.33-.03.57.02.74.08.16.05.24.1.24.15s-.09.1-.24.14c-.15.04-.36.09-.6.19-.25.09-.5.26-.74.49-.22.25-.41.57-.53.97-.2.8-.11,1.88.45,2.76.27.44.66.8,1.06,1.06.41.22.8.25,1.19.12.39-.13.8-.43,1.14-.83.33-.41.61-.88.81-1.37.39-.99.44-2,.28-2.75-.41-1.62-1.39-2.35-1.5-2.42Z"/><path class="cls-1" d="M166.78,54.47c1.53-1.42,3.92-1.79,5.81-1.28,1.91.53,3.46,1.62,4.7,2.84,1.26,1.22,2.34,2.56,3.25,3.97.44.71.93,1.4,1.34,2.14l1.16,2.25c1.41,3.08,2.25,6.48,2.33,9.9.1,3.42-.56,6.82-1.67,9.98-2.24,6.36-6.1,11.84-10.23,16.87-4.17,5.04-8.74,9.64-13.33,14.18-4.57,4.54-9.26,8.97-13.4,13.76-4.13,4.81-7.74,10.07-10.85,15.61-6.19,11.09-10.4,23.31-12.47,35.86-.1.44-1.09,5.83-1.76,11.17-.61,5.35-.85,10.65-1.27,10.66-.37.01-.85-5.31-.74-10.8.15-5.47.85-11.05.95-11.5,2.13-12.86,6.43-25.38,12.79-36.79,3.19-5.7,6.91-11.11,11.17-16.08,4.29-4.96,9-9.39,13.56-13.92,4.57-4.52,9.09-9.07,13.14-13.96,4.03-4.88,7.69-10.15,9.74-15.99,1.01-2.91,1.6-5.94,1.51-8.97-.08-3.02-.81-6.01-2.07-8.78l-1.05-2.04c-.37-.67-.82-1.3-1.22-1.95-.83-1.29-1.79-2.47-2.84-3.49-1.04-1.03-2.25-1.81-3.46-2.15-.6-.11-1.2-.2-1.74-.05-.29.02-.53.17-.8.26-.23.16-.5.27-.71.49-.11.06-1.09.8-1.5,2.42-.17.75-.12,1.76.28,2.75.19.49.48.96.81,1.37.34.4.75.7,1.14.83.39.13.78.1,1.19-.12.4-.26.8-.62,1.06-1.06.56-.88.66-1.96.45-2.76-.12-.4-.31-.72-.53-.97-.24-.22-.5-.4-.74-.49-.24-.1-.45-.16-.6-.19-.15-.05-.24-.09-.24-.14s.07-.1.24-.15c.16-.06.41-.1.74-.08.33.01.73.14,1.15.39.39.28.78.7,1.04,1.23.48,1.07.56,2.53-.07,3.9-.31.69-.81,1.31-1.48,1.84-.7.52-1.74.77-2.66.56-.92-.2-1.68-.7-2.26-1.27-.57-.58-1.03-1.23-1.37-1.91-.67-1.36-.91-2.86-.71-4.2.44-2.62,2.03-3.98,2.24-4.13Z"/></g></svg>