<?xml version="1.0" encoding="UTF-8"?><svg id="Line" xmlns="http://www.w3.org/2000/svg" viewBox="0 0 202 255.43"><defs><style>.cls-1{fill:#fff;stroke-width:0px;}</style></defs><g id="Icon_2_Lines"><path class="cls-1" d="M18.51,74.11c-.95,15.06,1.58,30.26,6.48,44.56,2.46,7.16,5.51,14.12,9.04,20.82,3.53,6.73,7.52,13.14,12.2,19.09,9.32,11.96,20.6,22.32,31.06,33.58,5.21,5.65,10.25,11.57,14.3,18.27.54.81.97,1.7,1.43,2.56l1.36,2.61,1.19,2.65,1.13,2.68c1.46,3.59,2.72,7.27,3.72,11.04.11.52,1.86,7.08,1.59,13.75-.16,3.29-.69,6.67-2.42,8.8-.41.5-1.15.97-1.77.91-.65-.04-1.04-.49-1.29-.78-.21-.32-.33-.58-.37-.78-.05-.19-.06-.3-.01-.32.11-.06.33.3.81.71.24.17.51.36.87.31.36-.07.61-.28.9-.73.55-.87.91-2.17,1.1-3.58.19-1.42.24-2.97.17-4.54-.25-6.28-2.23-12.51-2.34-13.02-.96-3.63-2.18-7.2-3.6-10.69l-1.1-2.61-1.16-2.58-1.29-2.48c-.43-.82-.84-1.66-1.36-2.44-3.87-6.41-8.79-12.21-13.94-17.79-10.34-11.14-21.69-21.56-31.21-33.77-4.78-6.08-8.9-12.7-12.48-19.51-3.6-6.83-6.7-13.92-9.21-21.23-5-14.6-7.61-30.16-6.63-45.67.03-.55.59-7.23,2.35-13.55.86-3.16,1.98-6.21,3.12-8.36.57-1.08,1.13-1.93,1.64-2.47.25-.27.49-.45.69-.53.19-.09.34-.05.34,0,0,.1-.26.26-.56.88-.32.58-.69,1.48-1.09,2.57-.79,2.2-1.59,5.25-2.17,8.37-1.21,6.25-1.43,12.75-1.46,13.28Z"/><path class="cls-1" d="M97.64,10.36c-3.84,5.09-8.39,9.47-13.14,13.57-4.79,4.05-9.84,7.79-15.16,11.11-5.3,3.35-10.85,6.31-16.64,8.78-5.77,2.49-11.82,4.4-18.04,5.58-.11.03-.84.11-1.89.19-1.04.09-2.38.19-3.72.15-.67,0-1.33,0-1.95-.04-.62-.06-1.19-.12-1.68-.19-.98-.14-1.62-.31-1.62-.5,0-.2.64-.4,1.59-.61.48-.1,1.03-.2,1.62-.29.64-.13,1.26-.26,1.86-.38,1.27-.22,2.53-.52,3.51-.74.98-.21,1.67-.37,1.77-.4,5.97-1.13,11.82-2.97,17.43-5.4,5.62-2.4,11.05-5.29,16.24-8.57,5.2-3.26,10.15-6.91,14.83-10.87,4.63-3.99,9.07-8.28,12.7-13.11.14-.17,1.83-2.14,3.22-4.23.17-.26.34-.52.51-.78.16-.26.29-.52.44-.78.31-.5.51-.99.71-1.41.23-.42.3-.78.44-1.04C100.79.16,100.9,0,101,0s.18.16.24.46c.05.29.15.75.07,1.25-.04.51-.12,1.13-.31,1.73-.09.31-.17.64-.28.96-.13.32-.25.64-.37.95-1.04,2.54-2.58,4.84-2.72,5.01Z"/><path class="cls-1" d="M186.34,73.93c.98,15.51-1.63,31.07-6.63,45.67-2.51,7.31-5.62,14.4-9.21,21.23-3.57,6.81-7.69,13.44-12.48,19.51-9.52,12.2-20.87,22.62-31.21,33.77-5.15,5.58-10.07,11.38-13.94,17.79-.53.78-.93,1.62-1.36,2.44l-1.29,2.48-1.16,2.58-1.1,2.61c-1.42,3.49-2.64,7.06-3.6,10.69-.11.5-2.09,6.73-2.34,13.02-.06,1.56-.02,3.12.17,4.54.19,1.41.55,2.71,1.1,3.58.29.45.54.66.9.73.35.05.63-.14.87-.31.48-.41.7-.77.81-.71.04.02.04.13-.01.32-.04.2-.16.46-.37.78-.25.29-.64.74-1.29.78-.62.07-1.36-.4-1.77-.91-1.73-2.13-2.26-5.51-2.42-8.8-.27-6.66,1.48-13.22,1.59-13.75,1-3.77,2.26-7.45,3.72-11.04l1.13-2.68,1.19-2.65,1.36-2.61c.46-.87.89-1.75,1.43-2.56,4.04-6.7,9.09-12.62,14.3-18.27,10.46-11.26,21.74-21.62,31.06-33.58,4.68-5.95,8.67-12.36,12.2-19.09,3.53-6.71,6.58-13.66,9.04-20.82,4.9-14.3,7.43-29.5,6.48-44.56-.03-.53-.25-7.03-1.46-13.28-.58-3.12-1.39-6.17-2.17-8.37-.4-1.1-.77-1.99-1.09-2.57-.31-.62-.56-.78-.56-.88,0-.04.14-.09.34,0,.2.08.44.27.69.53.51.53,1.07,1.39,1.64,2.47,1.14,2.16,2.27,5.21,3.12,8.36,1.76,6.31,2.32,13,2.35,13.55Z"/><path class="cls-1" d="M106.65,8.65c3.63,4.82,8.07,9.11,12.7,13.11,4.68,3.96,9.63,7.61,14.83,10.87,5.18,3.28,10.61,6.17,16.24,8.57,5.61,2.43,11.47,4.27,17.43,5.4.1.03.79.19,1.77.4.98.23,2.24.53,3.51.74.59.12,1.22.25,1.86.38.59.09,1.15.19,1.62.29.95.2,1.59.41,1.59.61,0,.2-.64.36-1.62.5-.49.07-1.06.13-1.68.19-.62.03-1.28.03-1.95.04-1.34.03-2.68-.06-3.72-.15-1.04-.08-1.78-.16-1.89-.19-6.22-1.18-12.27-3.08-18.04-5.58-5.78-2.47-11.34-5.43-16.64-8.78-5.31-3.33-10.37-7.06-15.16-11.11-4.75-4.1-9.29-8.48-13.14-13.57-.14-.17-1.68-2.47-2.72-5.01-.12-.31-.24-.63-.37-.95-.11-.32-.19-.65-.28-.96-.19-.61-.26-1.22-.31-1.73-.08-.5.02-.96.07-1.25C100.82.16,100.9,0,101,0s.21.16.33.42c.14.26.2.62.44,1.04.2.42.4.9.71,1.41.15.25.28.52.44.78.17.27.35.53.51.78,1.39,2.09,3.08,4.06,3.22,4.23Z"/><path class="cls-1" d="M59.75,28.98c1.56,1.07,3.17,2.23,4.51,3.62.7.67,1.4,1.33,2.01,2.07.61.74,1.31,1.42,1.85,2.2,2.38,3.01,4.27,6.33,5.9,9.74.85,1.69,1.52,3.46,2.24,5.2.61,1.78,1.3,3.54,1.79,5.36,1.12,3.6,1.91,7.27,2.58,10.97,1.24,7.41,1.78,14.9,1.47,22.42-.37,7.58-2.14,14.97-4.44,22.07-2.31,7.11-5.15,13.99-7.87,20.85-2.71,6.86-5.37,13.74-6.99,20.81-.8,3.53-1.33,7.11-1.37,10.69.01,1.78.08,3.56.36,5.32l.2,1.31.27,1.33c.18.89.36,1.78.59,2.66,1.7,7.05,4.46,13.86,8.41,19.9.28.41,3.52,5.8,8.05,9.86,2.22,2.02,4.77,3.75,6.82,4.28,1.03.27,1.77.07,2.01-.46.05-.12.1-.24.14-.35.02-.12.03-.22.05-.31.04-.17.08-.27.13-.28.05,0,.1.08.16.27.03.09.06.21.09.35-.01.17-.02.34-.04.52-.04.19-.15.4-.28.61-.18.17-.36.4-.65.5-.54.28-1.16.29-1.79.25-2.53-.28-5.39-1.88-7.94-3.82-5.16-3.9-8.86-9.41-9.15-9.84-4.16-6.36-7.03-13.47-8.8-20.79-.24-.91-.43-1.84-.61-2.76l-.28-1.38-.21-1.43c-.3-1.91-.37-3.83-.38-5.75.04-3.83.61-7.61,1.44-11.29,1.69-7.37,4.4-14.35,7.12-21.24,2.74-6.89,5.55-13.71,7.81-20.68,2.25-6.96,3.96-14.1,4.3-21.33.31-7.26-.22-14.62-1.43-21.8-.65-3.59-1.41-7.16-2.5-10.63-.48-1.76-1.14-3.45-1.73-5.17-.69-1.67-1.33-3.37-2.15-4.99-3.06-6.52-7.37-12.56-13.27-16.48-.22-.13-1.56-1.12-3.62-2.28-1.02-.57-2.22-1.2-3.53-1.72-.65-.26-1.33-.49-2.02-.68-.34-.08-.69-.15-1.03-.22l-.51-.06-.26-.03h-.13s-.25-.02-.25-.02h-.2c-.14.03-.29.05-.42.14-.28.21-.1.57.11.75.11.11.26.15.42.2.11.04.41.1.73.14.6.07,1.19.09,1.69.02.25-.03.48-.1.61-.16l.06-.03s.02,0,.05.03c.02.02.07.03.08.03.07-.02-.16.07-.11,0-.12-.22-.53-.45-.79-.6-.57-.3-.93-.48-.9-.58.02-.09.42-.11,1.1.04.34.11.76.14,1.26.62.12.12.27.39.2.7-.07.3-.25.46-.4.58-.3.23-.61.34-.92.44-.63.18-1.3.25-2.02.26-.57-.01-1.96-.05-2.69-.68-.4-.3-.73-.7-.92-1.15-.2-.45-.16-1.02.09-1.44.25-.42.68-.69,1.18-.93.28-.08.57-.18.86-.25l.9-.1.45-.05h.33s.65.03.65.03c.42.05.85.1,1.26.17.82.16,1.6.36,2.34.6,1.49.47,2.81,1.06,3.95,1.61,2.27,1.1,3.75,2.09,3.99,2.23Z"/><path class="cls-1" d="M143.83,31.35c-5.9,3.93-10.21,9.96-13.27,16.48-.81,1.61-1.45,3.31-2.15,4.99-.59,1.72-1.25,3.41-1.73,5.17-1.08,3.47-1.85,7.04-2.5,10.63-1.21,7.18-1.74,14.54-1.43,21.8.35,7.22,2.05,14.37,4.3,21.33,2.26,6.97,5.07,13.79,7.81,20.68,2.72,6.89,5.43,13.87,7.12,21.24.83,3.68,1.4,7.46,1.44,11.29-.01,1.92-.09,3.84-.38,5.75l-.21,1.43-.28,1.38c-.19.92-.37,1.85-.61,2.76-1.77,7.32-4.64,14.44-8.8,20.79-.29.43-3.99,5.94-9.15,9.84-2.54,1.94-5.41,3.54-7.94,3.82-.63.04-1.25.03-1.79-.25-.29-.1-.47-.32-.65-.5-.13-.21-.23-.42-.28-.61-.01-.18-.03-.35-.04-.52.03-.14.06-.26.09-.35.06-.19.11-.27.16-.27.05,0,.09.11.13.28.02.09.04.19.05.31.05.11.09.23.14.35.24.53.98.73,2.01.46,2.05-.53,4.59-2.25,6.82-4.28,4.53-4.06,7.78-9.45,8.05-9.86,3.95-6.04,6.71-12.85,8.41-19.9.23-.88.41-1.77.59-2.66l.27-1.33.2-1.31c.28-1.75.34-3.53.36-5.32-.03-3.57-.57-7.15-1.37-10.69-1.62-7.08-4.28-13.95-6.99-20.81-2.73-6.86-5.57-13.74-7.87-20.85-2.3-7.1-4.07-14.49-4.44-22.07-.32-7.53.23-15.02,1.47-22.42.67-3.69,1.46-7.37,2.58-10.97.5-1.81,1.18-3.58,1.79-5.36.72-1.74,1.39-3.51,2.24-5.2,1.63-3.41,3.52-6.73,5.9-9.74.54-.79,1.23-1.47,1.85-2.2.61-.74,1.31-1.4,2.01-2.07,1.34-1.39,2.95-2.55,4.51-3.62.23-.14,1.72-1.13,3.99-2.23,1.13-.55,2.46-1.14,3.95-1.61.74-.24,1.53-.44,2.34-.6.41-.07.83-.12,1.26-.17l.65-.02h.33s.45.04.45.04l.9.1c.29.07.58.17.86.25.49.24.92.51,1.18.93.26.42.29,1,.09,1.44-.19.45-.52.85-.92,1.15-.73.63-2.12.66-2.69.68-.72,0-1.39-.07-2.02-.26-.31-.1-.62-.21-.92-.44-.15-.12-.33-.28-.4-.58-.07-.32.09-.58.2-.7.51-.48.92-.51,1.26-.62.69-.15,1.08-.13,1.1-.04.03.1-.33.27-.9.58-.26.14-.67.38-.79.6.05.06-.18-.02-.11,0,0,0,.06-.02.08-.03.04-.03.06-.04.05-.03l.06.03c.13.06.36.13.61.16.5.07,1.08.06,1.69-.02.32-.04.62-.1.73-.14.15-.05.31-.09.42-.2.21-.18.4-.53.11-.75-.13-.09-.29-.11-.42-.13h-.2s-.25,0-.25,0h-.13s-.26.04-.26.04l-.51.06c-.35.07-.69.14-1.03.22-.69.19-1.36.42-2.02.68-1.31.52-2.5,1.14-3.53,1.72-2.05,1.15-3.4,2.15-3.62,2.28Z"/><path class="cls-1" d="M155.6,49.5c1.31-.91,2.82-1.53,4.41-1.78,1.58-.25,3.23-.1,4.74.39,1.5.5,2.91,1.26,4.05,2.26.29.25.6.46.88.73l.8.86.4.43c.12.16.22.33.34.5l.65,1.01c1.54,2.9,1.42,6.39.43,9.16-.94,2.84-2.41,5.35-4.02,7.69-3.25,4.68-7.11,8.74-11.04,12.69-3.95,3.92-8.04,7.67-12.14,11.38-4.1,3.72-8.22,7.39-12.15,11.2-3.9,3.83-7.6,7.86-10.98,12.15-6.77,8.55-12.41,18.07-15.98,28.33-.06.17-.48,1.34-1.09,3.06-.32.84-.57,1.83-.91,2.86-.35,1.04-.63,2.15-.9,3.26-.14.55-.29,1.1-.43,1.66-.11.54-.22,1.08-.33,1.61-.21,1.05-.46,2.02-.58,2.86-.29,1.68-.55,2.81-.75,2.8s-.31-1.15-.35-2.9c-.05-.88.04-1.89.1-2.99.04-.56.08-1.13.12-1.7.08-.58.16-1.17.24-1.74.16-1.17.33-2.35.59-3.45.25-1.1.42-2.15.68-3.04.51-1.82.86-3.06.91-3.24,3.71-10.64,9.52-20.4,16.44-29.17,3.46-4.39,7.25-8.51,11.23-12.43,4-3.88,8.14-7.56,12.23-11.27,4.09-3.71,8.15-7.42,12.04-11.29,3.86-3.88,7.64-7.87,10.7-12.29,1.51-2.2,2.86-4.52,3.65-6.94.84-2.41.82-4.9-.23-6.94l-.48-.73c-.08-.12-.15-.25-.24-.37l-.31-.33-.61-.66c-.22-.21-.48-.39-.71-.59-.93-.83-2.02-1.39-3.13-1.76-2.22-.75-4.72-.34-6.64,1.01-.08.04-.33.22-.71.52-.35.31-.86.75-1.21,1.34-.38.62-.53,1.11-.27,1.59.24.49,1.01.88,1.87.77.85-.1,1.76-.63,2.42-1.28.33-.32.58-.68.73-1.02.14-.3.18-.55.09-.82-.23-.53-.85-.56-1.33-.56-.47,0-.78.02-.81-.08-.03-.08.2-.29.7-.48.25-.09.58-.2,1.04-.18.45,0,1.01.18,1.35.67.35.47.42,1.22.25,1.85-.15.6-.44,1.16-.81,1.65-.74.97-1.82,1.87-3.26,2.24-1.41.36-3.23-.04-4.22-1.44-.49-.68-.71-1.55-.62-2.31.07-.77.32-1.38.58-1.88.52-1.02,1.17-1.66,1.64-2.14.49-.45.83-.72.93-.77Z"/><path class="cls-1" d="M44.76,51.84c-1.92-1.35-4.42-1.76-6.64-1.01-1.11.37-2.2.93-3.13,1.76-.23.2-.5.37-.71.59l-.61.66-.31.33c-.09.12-.16.24-.24.37l-.48.73c-1.05,2.04-1.07,4.53-.23,6.94.79,2.41,2.14,4.74,3.65,6.94,3.06,4.41,6.84,8.41,10.7,12.29,3.89,3.87,7.95,7.58,12.04,11.29,4.09,3.71,8.22,7.39,12.23,11.27,3.98,3.91,7.77,8.04,11.23,12.43,6.93,8.76,12.73,18.52,16.44,29.17.05.18.4,1.42.91,3.24.26.89.44,1.94.68,3.04.26,1.1.43,2.28.59,3.45.08.58.16,1.16.24,1.74.04.57.08,1.13.12,1.7.06,1.1.16,2.11.1,2.99-.05,1.75-.16,2.89-.35,2.9s-.46-1.12-.75-2.8c-.11-.84-.37-1.82-.58-2.86-.11-.54-.22-1.08-.33-1.61-.14-.55-.29-1.11-.43-1.66-.28-1.11-.56-2.23-.9-3.26-.34-1.04-.59-2.03-.91-2.86-.61-1.72-1.03-2.89-1.09-3.06-3.57-10.26-9.22-19.77-15.98-28.33-3.38-4.29-7.08-8.32-10.98-12.15-3.94-3.81-8.06-7.48-12.15-11.2-4.1-3.71-8.19-7.46-12.14-11.38-3.93-3.95-7.79-8.01-11.04-12.69-1.61-2.34-3.08-4.85-4.02-7.69-.98-2.77-1.1-6.26.43-9.16l.65-1.01c.11-.17.22-.34.34-.5l.4-.43.8-.86c.28-.27.59-.49.88-.73,1.15-1,2.55-1.76,4.05-2.26,1.51-.49,3.16-.64,4.74-.39,1.59.25,3.09.86,4.41,1.78.1.06.44.32.93.77.48.47,1.12,1.12,1.64,2.14.26.5.51,1.1.58,1.88.08.75-.13,1.63-.62,2.31-.99,1.4-2.82,1.8-4.22,1.44-1.44-.36-2.51-1.26-3.26-2.24-.38-.49-.67-1.05-.81-1.65-.17-.64-.1-1.39.25-1.85.34-.49.91-.67,1.35-.67.45-.02.79.08,1.04.18.5.2.73.4.7.48-.03.1-.34.08-.81.08-.48,0-1.1.04-1.33.56-.09.27-.05.52.09.82.15.34.4.7.73,1.02.66.65,1.56,1.18,2.42,1.28.86.11,1.63-.28,1.87-.77.26-.48.11-.97-.27-1.59-.36-.59-.86-1.03-1.21-1.34-.38-.3-.63-.48-.71-.52Z"/></g></svg>