<?xml version="1.0" encoding="UTF-8"?><svg id="Line" xmlns="http://www.w3.org/2000/svg" viewBox="0 0 201.84 228.68"><defs><style>.cls-1{fill:#fff;stroke-width:0px;}</style></defs><g id="Icon_8_Lines"><path class="cls-1" d="M30.87,224.98c-.74-.75-1.43-1.55-2.07-2.43-.33-.45-.6-.93-.86-1.4l-.4-.71-.32-.75c-.86-1.99-1.31-4.11-1.48-6.21-.28-4.22.47-8.37,1.79-12.25,1.34-3.9,3.18-7.52,5.53-10.95,2.43-3.39,5.44-6.18,8.55-8.74,6.2-5.12,13.06-9.25,18.71-14.49,1.39-1.31,2.69-2.7,3.76-4.21.51-.76,1.01-1.53,1.37-2.35.4-.8.64-1.63.91-2.56,1.01-3.63,1.21-7.46.36-11.05-.05-.24-.61-3.44-2.27-6.11-.8-1.32-1.84-2.52-2.75-3.05-.47-.25-.78-.36-1.07-.24-.27.11-.37.28-.46.22-.04-.03-.06-.1-.04-.23,0-.13.07-.29.21-.48.07-.08.18-.15.29-.24.13-.05.29-.12.45-.15.32-.05.69-.03,1.03.07,1.42.37,2.83,1.54,3.99,2.9,2.37,2.74,3.37,6.36,3.42,6.64.98,4.14.72,8.46-.38,12.46-.27.97-.59,2.05-1.08,3.03-.45.99-1.03,1.9-1.62,2.78-1.22,1.73-2.65,3.24-4.14,4.65-2.99,2.79-6.23,5.17-9.43,7.51-3.21,2.34-6.41,4.63-9.43,7.1-3,2.47-5.84,5.13-8.04,8.19-2.13,3.1-3.93,6.61-5.15,10.21-1.24,3.6-1.9,7.41-1.65,11.11.15,1.84.55,3.65,1.26,5.3l.26.62.33.58c.22.39.43.78.69,1.13.52.72,1.13,1.43,1.78,2.09.1.09.66.75,1.56,1.56.44.41.98.85,1.56,1.24.15.1.3.19.45.28l.22.13.08.05c.12.08.2.13.35.19.12.05.36.12.44-.02.05-.12-.04-.24-.16-.29-.24-.13-.6-.26-1.02-.3-.11,0-.22,0-.32,0-.05.02-.11.03-.13.08-.02.04-.02-.03-.03-.03-.03,0,.05-.05-.06,0,.09-.04.05-.01.06-.01,0,.09.18.29.27.41.23.27.36.45.31.54-.05.08-.27.07-.64-.07-.19-.09-.39-.13-.68-.46-.06-.03-.15-.31-.13-.4.02-.09.05-.13.08-.18.07-.06.15-.1.22-.12l.23-.09h.02s.2,0,.2,0l.45.04.93.07.49.04.25.02h.12s.03.04.03.04l.24.25.25.26.13.13s.04.03.06.05l.2.14c.12.09.24.17.35.26.21.12.41.5.28.99-.07.26-.31.48-.53.6-.22.14-.49.2-.77.25-.29.02-.6.04-.94-.03-.34-.04-.67-.1-1-.22l-.5-.15-.33-.13c-.22-.09-.43-.18-.62-.28-.79-.39-1.48-.83-2.05-1.24-1.14-.82-1.84-1.51-1.95-1.61Z"/><path class="cls-1" d="M155.65,222.27c.75-.79,1.46-1.63,2.06-2.49.3-.42.54-.89.8-1.35.27-.45.48-.94.68-1.44.82-1.96,1.27-4.1,1.44-6.27.28-4.37-.49-8.84-1.9-13.07-.67-2.13-1.6-4.19-2.56-6.22-.53-.99-1.01-2.01-1.6-2.97l-.85-1.45-.91-1.38c-2.54-3.63-5.83-6.78-9.31-9.7-3.49-2.92-7.2-5.63-10.92-8.39-3.71-2.77-7.45-5.57-10.88-8.85-1.7-1.65-3.34-3.42-4.72-5.45-.67-1.02-1.33-2.08-1.82-3.23-.54-1.13-.9-2.36-1.2-3.49-1.25-4.64-1.52-9.63-.42-14.4.06-.32,1.17-4.5,3.83-7.72,1.3-1.59,2.9-2.98,4.51-3.45.77-.24,1.68-.14,2.03.34.15.21.23.39.23.53.01.14,0,.21-.05.23-.11.05-.23-.17-.54-.32-.28-.14-.73-.05-1.27.25-1.09.61-2.32,2.03-3.27,3.59-1.96,3.15-2.63,6.92-2.69,7.2-.98,4.24-.75,8.75.4,13.02.3,1.09.59,2.09,1.05,3.05.42.97.99,1.89,1.58,2.8,1.22,1.8,2.73,3.44,4.34,5,3.24,3.11,6.91,5.87,10.6,8.62,3.7,2.75,7.46,5.49,11.05,8.5,3.58,3.01,7.04,6.3,9.81,10.25,2.67,4,4.78,8.22,6.29,12.76,1.5,4.51,2.36,9.31,2.04,14.18-.19,2.43-.69,4.87-1.65,7.17-.23.58-.48,1.15-.8,1.69-.3.55-.59,1.1-.96,1.63-.72,1.03-1.51,1.96-2.35,2.84-.13.12-.92.94-2.21,1.91-.64.49-1.42,1.01-2.32,1.48-.22.12-.45.23-.7.34l-.38.16c-.18.07-.39.13-.59.19l-.59.19c-.19.04-.38.06-.57.09-.39.08-.73.07-1.06.04-.3-.06-.59-.12-.83-.27-.24-.13-.48-.37-.58-.67-.15-.57.1-1.06.37-1.27.14-.13.3-.28.49-.45.2-.17.46-.39.94-.64.54-.25,1.33-.48,1.88-.49.54.02.68.16.86.22.08.04.14.07.21.11.08.03.01.11.13.14.07.04.14.11.16.21.01,0,0,.23-.02.29-.03.09-.07.16-.11.2-.3.35-.54.42-.75.53-.41.17-.67.2-.72.12-.05-.09.11-.28.39-.59.12-.14.32-.36.35-.49,0,0,0-.02.01,0,.04.02.08.04.12.05.06,0,.06.02.09.02h.02s0,0,0,0h0c-.56.07-.16.02-.28.03v-.02s-.1-.07-.16-.09c-.12-.02-.25-.02-.37,0-.48.06-.89.23-1.15.39-.14.07-.22.22-.16.36.11.15.39.07.53.02.17-.06.3-.14.39-.21l.08-.06.26-.15c.18-.1.36-.21.53-.33.69-.47,1.32-.98,1.84-1.47,1.05-.96,1.71-1.75,1.82-1.86Z"/><path class="cls-1" d="M162.83,223.98c3.66-1.11,7.25-2.41,10.7-4.01,3.42-1.64,6.71-3.57,9.71-5.84,6.05-4.5,10.77-10.69,13.28-17.75,2.53-7.06,2.98-14.81,1.92-22.33-.5-3.77-1.3-7.51-2.41-11.17-.5-1.85-1.16-3.65-1.77-5.46-.68-1.79-1.34-3.59-2.1-5.35-.12-.25-1.23-3.36-2.44-6.38-1.18-3.04-2.41-6.01-2.04-6.21.32-.18,2.19,2.47,3.85,5.32,1.7,2.84,3.14,5.91,3.26,6.16.78,1.81,1.46,3.65,2.16,5.5.63,1.87,1.31,3.72,1.82,5.63,1.14,3.78,1.98,7.66,2.5,11.6,1.1,7.84.66,16.07-2.07,23.67-2.69,7.6-7.82,14.29-14.24,19.06-3.19,2.42-6.65,4.44-10.23,6.16-3.6,1.68-7.33,3.02-11.11,4.17-.14.04-1.04.24-2.31.5-.64.13-1.36.29-2.14.43-.75.11-1.57.23-2.43.36-1.64.26-3.27.37-4.5.42-1.23.04-2.04,0-2.08-.19s.73-.52,1.88-.9c1.43-.43,2.89-.88,4.26-1.29.81-.24,1.58-.47,2.3-.69.75-.25,1.43-.48,2.02-.67,1.25-.4,2.07-.66,2.18-.7Z"/><path class="cls-1" d="M116.2,43.79c-2.07-2.3-4-4.76-5.62-7.46-1.62-2.69-2.89-5.63-3.69-8.69-.8-3.06-1.16-6.23-1.11-9.37.08-3.14.49-6.24,1.13-9.28.16-.76.37-1.5.55-2.26l.28-1.13.07-.27.02-.07.04-.13.2-.65-1.06.4c-.7.25-1.37.56-2.05.84-1.36.59-2.71,1.2-4.02,1.89-5.29,2.69-10.23,6.05-14.67,9.98-8.9,7.84-15.63,18.1-18.99,29.46l-.62,2.13-.51,2.16c-.37,1.43-.56,2.91-.85,4.36-.41,2.93-.74,5.89-.79,8.86l-.05,2.23.05,2.23c0,1.49.15,2.97.24,4.45.08,1.49.33,2.96.48,4.44l.5,4.6c.5,6.19-.21,12.51-2.07,18.47-.98,2.96-2.16,5.86-3.68,8.57-1.45,2.75-3.2,5.32-5.05,7.79-3.74,4.91-8.03,9.33-12.49,13.48-4.45,4.17-9.07,8.1-13.56,12.12-4.5,4.01-8.88,8.13-12.81,12.6-1.92,2.27-3.81,4.56-5.4,7.05l-.62.92-.56.95c-.37.64-.75,1.26-1.11,1.91-.64,1.32-1.36,2.6-1.89,3.97-2.36,5.4-3.64,11.23-3.65,17.06,0,5.83,1.47,11.63,4.17,16.8.17.38,1.39,2.82,3.68,5.93,2.28,3.11,5.82,6.73,9.9,9.62,4.06,2.92,8.57,5.08,12.07,6.36,3.5,1.31,5.93,1.88,5.88,2.11-.03.16-2.54-.05-6.23-1.05-3.68-.98-8.48-2.92-12.86-5.75-4.4-2.79-8.3-6.45-10.85-9.68-2.55-3.22-3.94-5.82-4.13-6.22C1.58,199.98,0,193.7,0,187.43c0-6.27,1.4-12.5,3.88-18.19.57-1.45,1.32-2.82,2.01-4.22.38-.68.78-1.34,1.17-2.02l.59-1,.65-.97c1.68-2.62,3.64-5.01,5.63-7.36,4.06-4.62,8.52-8.82,13.06-12.85,4.53-4.05,9.13-7.97,13.51-12.07,4.4-4.09,8.57-8.4,12.16-13.12,1.77-2.37,3.44-4.82,4.81-7.43,1.44-2.57,2.55-5.3,3.47-8.08,1.74-5.59,2.41-11.51,1.94-17.39l-.48-4.43c-.16-1.53-.41-3.05-.5-4.58-.1-1.53-.25-3.07-.25-4.61l-.05-2.31.06-2.31c.06-3.08.39-6.16.83-9.21.3-1.52.49-3.05.88-4.55l.53-2.26.64-2.23c.2-.75.45-1.48.71-2.21.26-.73.49-1.47.77-2.19.58-1.43,1.13-2.88,1.81-4.27,1.28-2.82,2.79-5.53,4.48-8.12,1.66-2.61,3.54-5.07,5.57-7.41,2.01-2.34,4.19-4.55,6.51-6.58,4.62-4.1,9.76-7.59,15.26-10.39,1.37-.71,2.78-1.36,4.19-1.97.72-.29,1.42-.62,2.15-.88l1.09-.41c.66-.26,1.4-.49,2.1-.73l2.14-.72,1.07-.36c.06-.03.08-.02.05.03l-.04.12-.07.24-.14.47-1.16,3.79-.29.95-.15.47-.07.28-.27,1.07c-.17.72-.38,1.43-.53,2.15-.61,2.88-.99,5.8-1.07,8.71-.05,2.91.28,5.81,1.02,8.6,1.44,5.61,4.7,10.6,8.67,14.97.28.31,2.09,2.39,4.93,5.14,2.82,2.76,6.65,6.2,10.36,9.73,3.71,3.52,7.2,7.24,9.56,10.21,2.36,2.98,3.66,5.13,3.52,5.23-.18.13-1.77-1.79-4.35-4.5-2.58-2.71-6.23-6.15-10.08-9.45-3.85-3.31-7.83-6.59-10.8-9.3-2.99-2.69-4.95-4.82-5.25-5.14Z"/><path class="cls-1" d="M175.77,142.35c-3.62-.3-7.17-1.17-10.54-2.44l-2.5-1.04-2.4-1.23c-.81-.39-1.56-.88-2.33-1.36-.75-.5-1.55-.91-2.25-1.47l-2.16-1.61c-.72-.53-1.36-1.16-2.05-1.74-1.39-1.14-2.59-2.47-3.85-3.73-.63-.63-1.17-1.35-1.75-2.02-.56-.69-1.18-1.34-1.69-2.07-1.02-1.46-2.15-2.85-3.04-4.39-3.72-6.04-6.86-12.52-8.27-19.62-.8-3.51-.89-7.21-.48-10.84.41-3.64,1.7-7.22,3.73-10.33.11-.23,2.08-2.84,4.71-4.54.33-.21.64-.44.98-.62.33-.16.67-.32,1.01-.48.63-.34,1.32-.48,1.87-.64.54-.18,1.06-.13,1.39-.14.34.02.52.07.54.17.01.1-.15.23-.42.4-.27.19-.67.29-1.11.61-.44.3-.97.55-1.47.98-.27.2-.53.41-.79.6-.27.21-.5.47-.75.71-2.03,1.9-3.47,4.32-3.57,4.52-1.77,2.71-2.92,5.86-3.29,9.14-.37,3.26-.3,6.63.45,9.91,1.3,6.59,4.32,12.86,7.88,18.63.85,1.48,1.93,2.79,2.9,4.19.48.7,1.08,1.31,1.61,1.97.56.64,1.07,1.32,1.67,1.92,1.2,1.2,2.33,2.46,3.64,3.53.65.54,1.25,1.14,1.93,1.64l2.03,1.51c.66.53,1.41.92,2.11,1.38.71.45,1.42.91,2.18,1.27l2.24,1.15,2.33.96c3.13,1.18,6.41,1.98,9.73,2.26.12,0,.89.06,1.98.17.27.03.57.06.88.09.31,0,.63,0,.97,0,.65,0,1.36,0,2.1.02,2.84-.11,5.62-.7,5.77-.31.13.33-2.52,1.65-5.52,2.31-.74.14-1.5.24-2.22.35-.37.05-.72.1-1.05.14-.34.01-.66.02-.95.03-1.19.04-2.04.05-2.17.05Z"/><path class="cls-1" d="M73.76,124.39c-2.04,1.35-3.55,3.54-4.55,5.96-.26.6-.49,1.24-.68,1.85-.15.62-.37,1.23-.46,1.87-.06.64-.21,1.27-.21,1.91v.96c-.02.32,0,.64.05.96.46,5.13,3.76,9.83,8.19,12.61,4.43,2.83,10.02,3.75,15.09,2.38,2.54-.66,4.94-1.85,7.11-3.37,2.18-1.54,4.04-3.5,5.78-5.56,3.33-4.27,5.79-9.26,7.63-14.45,1.83-5.18,3.12-10.66,4.29-16.12,1.13-5.46,2.02-10.98,2.39-16.51.22-2.76.22-5.52.09-8.26-.15-2.73-.52-5.45-1.31-7.97-.08-.17-.36-1.38-1.06-2.93-.7-1.52-1.94-3.4-3.77-4.22-.9-.41-1.92-.51-2.85-.33-.94.17-1.77.62-2.39,1.13-1.29.99-1.77,2.11-1.99,2.01-.14-.03-.05-1.34,1.22-2.8.61-.73,1.54-1.46,2.74-1.87,1.19-.42,2.64-.46,3.97-.03,1.33.42,2.47,1.25,3.36,2.15.91.89,1.54,1.89,2.05,2.75.98,1.76,1.37,3.1,1.46,3.3.89,2.85,1.27,5.77,1.43,8.65.14,2.89.13,5.77-.09,8.62-.38,5.71-1.3,11.34-2.44,16.9-1.2,5.54-2.48,11.06-4.4,16.49-1.92,5.4-4.49,10.65-8.09,15.27-1.88,2.24-3.92,4.39-6.35,6.11-2.43,1.71-5.14,3.06-8.06,3.82-5.82,1.57-12.27.51-17.33-2.73-2.54-1.61-4.76-3.73-6.44-6.25-1.68-2.52-2.79-5.45-3.07-8.52-.06-.38-.08-.76-.06-1.15v-1.15c0-.77.17-1.52.26-2.29.12-.76.37-1.48.55-2.23.22-.73.48-1.41.77-2.11,1.15-2.74,2.92-5.44,5.6-7.23.19-.1,1.45-1,3.52-1.45,2.05-.47,4.88-.34,7.23,1.01.59.34,1.14.74,1.62,1.27.46.52.91,1.22.9,2.1-.02.42-.08.66-.18,1.01-.06.16-.11.32-.19.48-.1.16-.19.32-.32.46-.27.29-.67.54-1.09.53-.41.02-.74-.14-1-.31-1-.78-.89-1.92-.62-2.41.13-.27.28-.44.41-.53.12-.1.2-.13.23-.1.04.03.04.12,0,.26-.04.13-.08.31-.1.53-.06.42.14,1.07.66,1.31.12.04.24.06.3.02.07,0,.09-.08.15-.16.12-.17.18-.7.15-1.05-.04-.23-.25-.57-.6-.86-.34-.3-.78-.55-1.25-.75-1.91-.83-4.16-.74-5.66-.25-1.54.47-2.44,1.2-2.59,1.28Z"/></g></svg>