<?xml version="1.0" encoding="UTF-8"?><svg id="Line" xmlns="http://www.w3.org/2000/svg" viewBox="0 0 201.28 250.65"><defs><style>.cls-1{fill:#fff;stroke-width:0px;}</style></defs><g id="Icon_15_Lines"><path class="cls-1" d="M109.86,32.46c1.11-.67,1.95-1.58,2.41-2.71.47-1.12.57-2.44.43-3.8-.31-2.73-1.45-5.5-2.8-8.11-1.37-2.62-3-5.15-4.75-7.59-.87-1.22-1.78-2.42-2.72-3.61-.47-.59-.94-1.18-1.42-1.76l-.36-.45-.36.45c-.48.58-.95,1.17-1.42,1.76-.93,1.18-1.84,2.39-2.72,3.61-1.75,2.44-3.38,4.97-4.75,7.59-1.35,2.61-2.49,5.38-2.8,8.11-.15,1.35-.04,2.68.43,3.8.46,1.12,1.3,2.04,2.41,2.71.06.07.58.39,1.37.81.82.38,1.94.84,3.14,1.14,2.38.67,4.9.97,4.9,1.38,0,.37-2.54.79-5.24.61-1.35-.06-2.72-.37-3.79-.69-1.05-.37-1.79-.73-1.89-.82-1.5-.89-2.85-2.32-3.55-4.04-.71-1.71-.81-3.53-.63-5.2.39-3.36,1.68-6.33,3.11-9.13,1.46-2.79,3.15-5.41,4.96-7.94.9-1.26,1.84-2.5,2.79-3.71.48-.61.96-1.21,1.45-1.81l2.57-3.07,2.57,3.07c.49.6.98,1.2,1.45,1.81.96,1.21,1.89,2.45,2.79,3.71,1.81,2.52,3.5,5.14,4.96,7.94,1.43,2.8,2.72,5.77,3.11,9.13.18,1.67.08,3.49-.63,5.2-.69,1.71-2.04,3.15-3.55,4.04-.1.09-.83.45-1.89.82-1.06.32-2.44.63-3.79.69-2.7.19-5.24-.24-5.24-.61,0-.42,2.52-.72,4.9-1.38,1.2-.3,2.32-.76,3.14-1.14.79-.42,1.31-.74,1.37-.81Z"/><path class="cls-1" d="M196.49,226.57c-3.15,3.05-6.83,5.28-10.58,7.2-3.77,1.91-7.67,3.47-11.61,4.87-7.89,2.76-15.98,4.82-24.12,6.51-8.15,1.68-16.36,2.97-24.62,3.92-8.26.94-16.56,1.56-24.91,1.58-8.35-.02-16.65-.64-24.91-1.58-8.26-.95-16.48-2.24-24.62-3.92-8.14-1.69-16.23-3.75-24.12-6.51-3.94-1.4-7.84-2.96-11.61-4.87-3.75-1.92-7.43-4.14-10.58-7.2-.2-.23-1.74-1.62-3.21-4.22-.71-1.3-1.34-2.96-1.53-4.8-.1-.92-.07-1.87.05-2.79.11-.93.34-1.88.72-2.78.73-1.81,2.11-3.35,3.67-4.21,1.56-.88,3.21-1.17,4.58-1.13,1.38.03,2.5.42,3.17.9.69.48.81.99.73,1.02-.1.06-.35-.28-1.01-.52-.64-.25-1.65-.42-2.85-.29-1.19.12-2.58.54-3.78,1.37-1.2.83-2.15,2.09-2.62,3.56-.24.73-.37,1.51-.42,2.29-.05.79-.02,1.56.11,2.28.24,1.45.81,2.74,1.46,3.79,1.33,2.09,2.75,3.3,2.93,3.5,2.8,2.72,6.27,4.85,9.87,6.69,3.61,1.83,7.41,3.35,11.26,4.72,7.72,2.7,15.71,4.74,23.75,6.41,8.05,1.66,16.19,2.94,24.37,3.88,8.17.93,16.4,1.54,24.59,1.56,8.19-.02,16.42-.63,24.59-1.56,8.18-.94,16.32-2.22,24.37-3.88,8.05-1.67,16.03-3.71,23.75-6.41,3.85-1.36,7.65-2.89,11.26-4.72,3.6-1.83,7.07-3.97,9.87-6.69.18-.2,1.6-1.4,2.93-3.5.65-1.05,1.22-2.34,1.46-3.79.12-.71.16-1.49.11-2.28-.04-.78-.17-1.56-.42-2.29-.47-1.47-1.42-2.73-2.62-3.56-1.2-.84-2.58-1.25-3.78-1.37-1.2-.13-2.21.04-2.85.29-.65.24-.91.58-1.01.52-.08-.03.05-.54.73-1.02.66-.48,1.79-.87,3.17-.9,1.37-.04,3.02.25,4.58,1.13,1.56.86,2.94,2.4,3.67,4.21.38.9.6,1.85.72,2.78.12.93.15,1.87.05,2.79-.19,1.84-.81,3.5-1.53,4.8-1.47,2.6-3,3.99-3.21,4.22Z"/><path class="cls-1" d="M123.57,39.41c-1.42,2.06-3.35,3.12-5.2,4.04-1.88.9-3.81,1.54-5.76,2.07-3.91,1.04-7.86,1.68-11.97,1.73-4.11-.05-8.06-.69-11.97-1.73-1.95-.54-3.88-1.18-5.76-2.07-1.85-.92-3.78-1.98-5.2-4.04-.04-.08-.35-.59-.56-1.43-.09-.43-.14-.92-.1-1.45.06-.5.15-1.02.4-1.54.24-.51.63-1,1.11-1.29.48-.29,1.01-.37,1.43-.31.43.06.73.28.86.48.14.2.1.39.05.46-.07.08-.15.04-.31.04-.16,0-.36.03-.54.13-.4.19-.65.6-.68,1.13-.03.26,0,.58.06.86.06.26.15.49.24.68.21.38.43.63.45.68,10.28,8.71,30.77,8.71,41.05,0,.02-.04.24-.29.45-.68.09-.19.18-.42.24-.68.05-.28.09-.6.06-.86-.03-.53-.28-.94-.68-1.13-.39-.2-.66-.12-.86-.17-.08-.03-.14-.21.01-.44.14-.22.47-.44.89-.5.42-.07.95.01,1.43.31.48.29.88.78,1.11,1.29.25.52.34,1.04.4,1.54.04.52-.01,1.02-.1,1.45-.21.84-.52,1.35-.56,1.43Z"/><path class="cls-1" d="M123.57,32.84c-1.42,2.06-3.35,3.12-5.2,4.04-1.88.9-3.81,1.54-5.76,2.07-3.91,1.04-7.86,1.68-11.97,1.73-4.11-.05-8.06-.69-11.97-1.73-1.95-.54-3.88-1.18-5.76-2.07-1.85-.92-3.78-1.98-5.2-4.04-.04-.08-.35-.59-.56-1.43-.09-.43-.14-.92-.1-1.45.06-.5.15-1.02.4-1.54.24-.51.63-1,1.11-1.29.48-.29,1.01-.37,1.43-.31.43.07.73.28.86.48.14.2.1.39.05.46-.07.08-.15.04-.31.04-.16,0-.36.03-.54.13-.4.19-.65.6-.68,1.13-.03.26,0,.58.06.86.06.26.15.49.24.68.21.38.43.63.45.68,10.28,8.71,30.77,8.71,41.05,0,.02-.04.24-.3.45-.68.09-.19.18-.42.24-.68.05-.28.09-.6.06-.86-.03-.53-.28-.94-.68-1.13-.39-.2-.66-.12-.86-.17-.08-.03-.14-.21.01-.44.14-.22.47-.44.89-.5.42-.07.95.01,1.43.31.48.29.88.78,1.11,1.29.25.52.34,1.04.4,1.54.04.52-.01,1.02-.1,1.45-.21.84-.52,1.35-.56,1.43Z"/><path class="cls-1" d="M49.52,159.04l-24.9,40.27-1.38-1.37-.19-.18c-.05-.05-.24-.15-.26-.17l-.13-.05c-.09-.03-.16-.08-.26-.1-.4-.1-.84-.16-1.3-.15-.92.02-1.87.25-2.69.68-1.64.87-2.65,2.53-2.87,4.5-.27,2.01.23,3.92,1.34,5.68,1.09,1.75,2.7,3.26,4.44,4.6,3.53,2.66,7.65,4.66,11.86,6.37,4.22,1.7,8.59,3.1,13.01,4.33,8.84,2.43,17.9,4.17,27.01,5.45,9.11,1.26,18.3,2.09,27.45,2.12,9.16-.03,18.35-.87,27.45-2.12,9.11-1.28,18.16-3.02,27.01-5.45,4.42-1.22,8.78-2.62,13.01-4.33,4.21-1.71,8.33-3.71,11.86-6.37,1.74-1.34,3.34-2.85,4.44-4.6,1.12-1.75,1.62-3.67,1.34-5.68-.22-1.97-1.24-3.63-2.87-4.5-.82-.42-1.76-.66-2.69-.68-.46-.02-.91.05-1.3.15-.1.02-.17.07-.26.1l-.13.05s-.21.12-.26.17l-.19.18-1.38,1.37-24.9-40.27c-.49-.79-6.26-10.43-11.83-19.92-2.78-4.75-5.51-9.45-7.51-13s-3.25-5.94-3.08-6.04c.17-.1,1.74,2.09,4.03,5.46,2.28,3.37,5.28,7.92,8.28,12.52,6.01,9.22,12.05,18.69,12.54,19.48l23.16,37.44-.08.03.28-.11c.18-.07.37-.16.55-.2.72-.19,1.44-.27,2.13-.26,1.39.03,2.74.37,3.98,1.01,1.23.65,2.3,1.65,3.05,2.83.79,1.18,1.13,2.54,1.33,3.84.03.66.14,1.3.08,1.97,0,.34-.04.67-.1,1-.04.33-.1.66-.19.98-.31,1.3-.87,2.51-1.55,3.59-1.37,2.18-3.21,3.88-5.13,5.35-3.88,2.91-8.17,4.97-12.52,6.74-4.36,1.76-8.82,3.19-13.32,4.43-9,2.47-18.16,4.23-27.37,5.53-9.22,1.27-18.5,2.12-27.85,2.15-9.35-.03-18.63-.88-27.85-2.15-9.21-1.3-18.37-3.06-27.37-5.53-4.5-1.24-8.96-2.67-13.32-4.43-4.35-1.77-8.64-3.83-12.52-6.74-1.91-1.48-3.75-3.17-5.13-5.35-.68-1.08-1.24-2.29-1.55-3.59-.09-.32-.15-.65-.19-.98-.06-.33-.09-.66-.1-1-.06-.68.05-1.31.08-1.97.2-1.3.54-2.66,1.33-3.84.75-1.18,1.81-2.19,3.05-2.83,1.24-.64,2.59-.98,3.98-1.01.69-.02,1.41.07,2.13.26.18.04.37.13.55.2l.28.11-.08-.03,23.16-37.44c.49-.79,6.54-10.26,12.54-19.48,3-4.61,6-9.15,8.28-12.52,2.28-3.37,3.86-5.56,4.03-5.46.17.1-1.09,2.49-3.08,6.04s-4.72,8.26-7.51,13c-5.57,9.49-11.34,19.13-11.83,19.92Z"/><path class="cls-1" d="M132.69,126.66c-1.15,1.1-2.42,1.86-3.7,2.52-1.28.65-2.59,1.18-3.91,1.65-2.64.92-5.32,1.61-8.02,2.17-5.4,1.09-10.85,1.77-16.41,1.82-5.56-.05-11.01-.73-16.41-1.82-2.7-.56-5.38-1.25-8.02-2.17-1.32-.47-2.63-1-3.91-1.65-1.28-.66-2.55-1.42-3.7-2.52-.07-.08-.61-.62-1.14-1.62-.24-.52-.48-1.17-.52-1.91-.06-.75.09-1.44.4-2.16.32-.71.92-1.3,1.55-1.59.63-.3,1.26-.36,1.77-.29.51.07.92.27,1.14.5.24.24.21.45.15.5-.07.08-.23,0-.43,0-.2,0-.49.01-.83.11-.69.18-1.37.75-1.46,1.48-.05.35-.06.83.06,1.15.08.34.27.64.45.9.4.51.81.84.87.9,1.66,1.56,4.13,2.64,6.56,3.51,2.47.86,5.05,1.52,7.65,2.06,5.21,1.06,10.56,1.72,15.83,1.76,5.27-.04,10.62-.71,15.83-1.76,2.6-.54,5.18-1.2,7.65-2.06,2.43-.87,4.91-1.95,6.56-3.51.05-.06.46-.39.87-.9.17-.26.36-.56.45-.9.12-.32.11-.8.06-1.15-.09-.73-.77-1.3-1.46-1.48-.33-.1-.62-.11-.83-.11-.2,0-.33.05-.43,0-.08-.03-.09-.27.15-.5.23-.23.63-.43,1.14-.5.51-.07,1.14-.01,1.77.29.63.29,1.23.89,1.55,1.59.31.72.46,1.42.4,2.16-.03.74-.27,1.39-.52,1.91-.53,1.01-1.07,1.54-1.14,1.62Z"/><path class="cls-1" d="M85.68,50.23c-.91.82-1.65,2.03-2.23,3.32-.58,1.3-1.03,2.69-1.4,4.12-.7,2.87-1.1,5.85-1.26,8.85-.16,3.01-.15,6.02.19,8.98.33,2.98.89,5.95,1.58,8.92,1.34,5.94,3.13,11.84,4.3,18,.56,3.08,1,6.25.75,9.54-.09,1.67-.41,3.18-.77,4.77-.37,1.56-.87,3.12-1.54,4.62-.1.18-1.33,2.86-3.7,4.63-.59.43-1.24.8-1.94,1.01-.68.21-1.44.26-2.07-.03-.32-.14-.56-.39-.7-.64-.12-.26-.15-.49-.13-.66.04-.35.19-.49.27-.48.19,0,.31.79.9.73.6.03,1.6-.59,2.33-1.44,1.55-1.71,2.34-4.13,2.43-4.29.58-1.3,1.03-2.69,1.37-4.12.32-1.41.63-2.93.7-4.33.22-2.85-.17-5.84-.72-8.79-1.12-5.93-2.9-11.84-4.27-17.89-.7-3.02-1.28-6.1-1.63-9.24-.36-3.16-.37-6.32-.2-9.45.17-3.14.58-6.28,1.34-9.39.4-1.55.89-3.09,1.57-4.6.69-1.5,1.54-3,2.92-4.26.04-.04.23-.19.55-.44.34-.24.82-.5,1.37-.71.56-.22,1.21-.4,1.94-.49.73-.09,1.55-.09,2.4.21.41.15.83.39,1.15.69.17.17.34.34.48.62.14.26.24.66.13,1.05-.12.39-.37.68-.75.83-.09.04-.21.07-.34.07-.07,0-.15,0-.22-.01l-.07-.02c-.09-.03-.18-.05-.27-.09-.33-.13-.6-.31-.83-.51-.22-.21-.41-.4-.54-.74-.07-.15-.07-.52.15-.69.19-.13.31-.11.42-.11.37.06.48.21.48.29,0,.11-.2.16-.39.27l-.04.05s0-.04-.07-.1c0-.02-.07-.03.02-.02.04,0,.03-.01.1-.02.06,0,.12-.04.1-.04.05.01.21.11.38.17.18.06.38.11.58.12.05,0,.1,0,.14,0h.04c.02-.11-.13.97-.07.51h0s0-.01,0-.01v-.02s0-.03,0-.03c0-.05-.02-.09-.03-.13-.09-.14-.04-.06-.04-.08,0-.02-.19,0-.35.11-.01,0-.08-.04-.15-.08-.18-.1-.35-.13-.56-.17-.84-.11-1.98.32-2.68.73-.36.21-.63.41-.79.56-.18.18-.29.3-.32.33Z"/><path class="cls-1" d="M117.51,48.11c1.37,1.26,2.23,2.76,2.92,4.26.68,1.51,1.17,3.05,1.57,4.6.76,3.11,1.17,6.25,1.34,9.39.17,3.13.16,6.29-.2,9.45-.35,3.14-.93,6.22-1.63,9.24-1.37,6.05-3.15,11.96-4.27,17.89-.54,2.95-.93,5.94-.72,8.79.07,1.4.38,2.92.7,4.33.34,1.43.79,2.82,1.37,4.12.09.16.89,2.58,2.43,4.29.74.85,1.74,1.47,2.33,1.44.59.06.71-.74.9-.73.08,0,.23.13.27.48.02.17,0,.41-.13.66-.13.24-.38.5-.7.64-.63.29-1.4.24-2.07.03-.69-.21-1.35-.58-1.94-1.01-2.38-1.78-3.6-4.45-3.7-4.63-.67-1.51-1.17-3.06-1.54-4.62-.36-1.58-.67-3.1-.77-4.77-.25-3.29.19-6.46.75-9.54,1.17-6.16,2.96-12.06,4.3-18,.69-2.97,1.24-5.94,1.58-8.92.34-2.95.35-5.96.19-8.98-.16-3-.56-5.98-1.26-8.85-.37-1.42-.82-2.82-1.4-4.12-.58-1.29-1.32-2.5-2.23-3.32-.03-.03-.15-.14-.32-.33-.16-.15-.43-.35-.79-.56-.7-.41-1.84-.84-2.68-.73-.21.03-.38.07-.56.17-.07.04-.14.08-.15.08-.16-.1-.36-.12-.35-.11,0,.02.05-.07-.04.08-.01.03-.03.08-.03.13v.03s0,.02,0,.02h0s0,.01,0,.01c.06.46-.09-.62-.07-.51h.04s.09,0,.14,0c.2-.01.4-.06.58-.12.17-.06.33-.16.38-.17-.02,0,.05.03.1.04.07,0,.06.02.1.02.09-.02.02,0,.02.02-.08.06-.07.15-.07.1l-.04-.05c-.19-.11-.39-.17-.39-.27,0-.09.11-.23.48-.29.1,0,.23-.02.42.11.23.17.23.53.15.69-.13.34-.32.53-.54.74-.23.2-.5.37-.83.51-.08.04-.17.06-.26.09l-.07.02c-.06,0-.14.01-.21.01-.13,0-.25-.04-.34-.07-.38-.15-.63-.44-.75-.83-.11-.39,0-.79.13-1.05.14-.28.31-.45.48-.62.32-.3.74-.54,1.15-.69.84-.3,1.67-.3,2.4-.21.73.09,1.38.28,1.94.49.55.22,1.03.47,1.37.71.32.25.51.4.55.44Z"/></g></svg>