<?xml version="1.0" encoding="UTF-8"?><svg id="Line" xmlns="http://www.w3.org/2000/svg" viewBox="0 0 209.43 240.38"><defs><style>.cls-1{fill:#fff;stroke-width:0px;}</style></defs><g id="Icon_5_Lines"><path class="cls-1" d="M172.55,57.89l8.15,25.43,2.04,6.36.51,1.59.25.79.04.11s0,0,0-.01l.17.22c.89,1.25,1.14,2.67,1.19,3.95.02,1.29-.18,2.53-.5,3.71-.33,1.18-.78,2.33-1.46,3.43-1.32,2.14-3.13,3.73-4.97,5.15-3.75,2.8-7.91,4.75-12.13,6.38-4.23,1.62-8.57,2.89-12.95,3.93-4.38,1.05-8.81,1.85-13.26,2.46-1.11.18-2.24.27-3.36.38-1.12.1-2.25.24-3.38.32l-3.38.16-1.69.08h-1.69c-9,.09-17.93-.61-26.8-1.38-8.87-.74-17.72-1.63-26.52-1.63-4.4-.02-8.77.3-13.02,1.06l-3.15.71c-1.05.3-2.1.6-3.14.94-2.08.66-4.12,1.44-6.12,2.3-3.96,1.74-7.78,3.9-10.85,6.78-1.5,1.43-2.86,3.08-3.56,4.83-.35.85-.46,1.79-.29,2.26.09.23.15.28.27.33.12.05.41.07.75-.01l-1,1.82L3.32,48.61h-.09s-.01,0-.01,0h-.09s-.18-.04-.18-.04l-.37-.07c-.25-.06-.5-.17-.74-.28-1-.51-1.57-1.55-1.73-2.41-.19-.88-.1-1.67.06-2.4.15-.74.41-1.38.7-2.02,1.2-2.48,3-4.38,4.92-6.06,3.88-3.31,8.38-5.57,12.97-7.39,2.31-.89,4.65-1.66,7.01-2.34,1.21-.3,2.44-.56,3.65-.84,1.22-.29,2.45-.37,3.68-.56,4.92-.57,9.84-.68,14.71-.49,9.76.32,19.39,1.41,29.01,2.13,4.81.35,9.61.68,14.41.77,1.2.05,2.4.04,3.59.03,1.2-.01,2.4,0,3.59-.03,2.38-.13,4.78-.16,7.14-.45,1.17-.05,16.52-1.38,30.45-6.57,3.45-1.31,6.8-2.86,9.67-4.7,2.86-1.83,5.19-4.05,6.41-6.37,1.16-2.4,1.44-4.71,1.22-6.22-.22-1.54-.9-2.23-.8-2.31.02-.06.92.53,1.36,2.19.43,1.63.32,4.12-.78,6.8-1.21,2.69-3.62,5.18-6.53,7.23-2.92,2.05-6.32,3.78-9.82,5.25-7.03,2.91-14.48,4.77-20.28,5.92-1.46.26-2.8.51-4.02.73-1.22.19-2.3.36-3.23.5-1.85.24-3.07.35-3.39.39-2.44.3-4.89.33-7.34.47-1.22.04-2.44.02-3.67.03-1.22,0-2.44.02-3.66-.03-4.88-.09-9.73-.42-14.57-.78-9.67-.73-19.29-1.81-28.88-2.13-4.79-.19-9.58-.07-14.27.47-1.16.19-2.35.26-3.49.53-1.14.27-2.28.5-3.42.79-2.29.66-4.54,1.4-6.75,2.25-4.39,1.73-8.65,3.91-12.14,6.9-1.72,1.49-3.29,3.21-4.2,5.11-.43.92-.7,1.97-.54,2.6.07.32.17.42.27.48.1.01.07.06.36.05l.85-.12.93-.17,30.14,94.03.47,1.47-1.48.35c-.73.17-1.61.26-2.53-.1-.93-.34-1.65-1.22-1.91-2.04-.28-.82-.3-1.61-.19-2.3.09-.71.28-1.34.51-1.95.97-2.4,2.56-4.24,4.25-5.87,3.45-3.22,7.51-5.49,11.67-7.32,2.09-.9,4.22-1.71,6.38-2.4,1.08-.36,2.16-.67,3.25-.98l3.37-.76c4.51-.8,9.05-1.12,13.55-1.11,9.01,0,17.91.9,26.77,1.64,8.86.77,17.71,1.46,26.52,1.38h1.65s1.65-.08,1.65-.08l3.29-.15c1.09-.07,2.18-.21,3.27-.31,1.09-.11,2.18-.19,3.27-.37,4.37-.59,8.71-1.38,12.99-2.4,4.28-1.02,8.5-2.26,12.58-3.82,4.07-1.56,8.05-3.45,11.44-5.99,1.66-1.28,3.24-2.7,4.27-4.38.97-1.6,1.55-3.71,1.53-5.57-.03-.92-.24-1.79-.66-2.36l-.35-.45c-.11-.1-.11-.25-.16-.38l-.09-.29-.25-.79-.51-1.59-2.04-6.36-8.15-25.43c-.39-1.21-4.91-15.84-9.24-30.2-2.17-7.18-4.28-14.29-5.81-19.62-1.53-5.33-2.47-8.88-2.28-8.94s1.49,3.38,3.34,8.6c1.85,5.23,4.27,12.24,6.68,19.34,4.82,14.2,9.65,28.73,10.04,29.94Z"/><path class="cls-1" d="M71.59,210.67l-23.94-74.69h-.08c-.47.06-.98.07-1.46.03-.98-.08-1.93-.37-2.8-.82-.87-.45-1.65-1.07-2.27-1.82-.31-.38-.59-.78-.83-1.21-.11-.22-.22-.44-.32-.66l-.13-.34-.06-.17-.03-.09-.02-.04v-.02s-.01-.01-.01-.01c-.59.19,5.15-1.65,2.72-.87h0c.6,1.86.43,3.97-.46,5.7-.44.87-1.05,1.66-1.8,2.3-.37.31-.78.6-1.19.84l-.08.04,23.94,74.68c.16.51,1.96,6.65,3.63,12.69.43,1.57.73,2.89,1.52,4,.73,1.12,1.68,2,2.58,2.63,1.82,1.31,3.32,1.54,3.32,1.7.04.23-1.71.39-3.89-.75-1.09-.54-2.29-1.4-3.29-2.63-.51-.61-.95-1.32-1.3-2.09-.36-.81-.58-1.49-.86-2.24-2.16-5.89-4.26-11.93-4.43-12.43l-24.75-77.19,1.14-.43,1.04-.45c.28-.16.51-.33.75-.52.46-.39.84-.88,1.11-1.42.55-1.09.66-2.38.28-3.54h0c-2.43.77,3.31-1.07,2.72-.88h0s0,.02,0,.02v.03s.03.05.03.05l.04.11.08.21.2.41c.15.26.32.51.51.75.39.46.87.85,1.41,1.13.54.28,1.13.46,1.73.51.31.02.6.02.91-.01l1.12-.25,1.18-.31,24.75,77.21c.16.51,1.96,6.65,3.63,12.69.2.78.43,1.46.6,2.33.17.83.22,1.66.15,2.45-.1,1.59-.58,2.98-1.15,4.05-1.11,2.19-2.62,3.09-2.72,2.88-.09-.13.99-1.19,1.71-3.32.37-1.04.63-2.3.57-3.64,0-1.36-.52-2.6-1.08-4.13-2.16-5.88-4.26-11.93-4.43-12.43Z"/><path class="cls-1" d="M57.45,235.53c.86-2.26,1.34-4.65,1.2-6.96-.01-.58-.13-1.14-.22-1.7-.15-.55-.27-1.08-.49-1.72l-.59-1.84-.15-.46-.07-.23c1.21-.39-2.72.86,2.72-.88h0s0,.02,0,.02v.03s.03.06.03.06l.04.12.07.23.02.06h0s0,.02,0,.02c.59-.19-5.15,1.65-2.72.87v-.03s-.05-.11-.05-.11l-.15-.46-.34-1.07-.15-.46-.07-.23c.02-.07.06-.15.09-.22l.35-.82c.23-.54.42-1.1.59-1.67.33-1.13.53-2.31.62-3.5.19-2.39-.1-4.84-.61-7.26-.03-.09-.08-1.16-.12-2.25-.02-1.09-.02-2.2.37-2.32.37-.12,1.04.79,1.58,1.79.56.99.94,2.09.97,2.18.55,2.61.88,5.32.67,8.07-.1,1.37-.34,2.75-.72,4.08-.19.67-.42,1.33-.69,1.97l-.03.07.25.77.15.46.04.11v.03c2.44-.78-3.3,1.07-2.71.87h0s0-.02,0-.02l-.02-.06-.07-.23-.04-.12-.02-.06v-.03s-.01-.01-.01-.01h0c5.44-1.75,1.51-.49,2.72-.87l.07.23.15.46.59,1.84c.2.58.38,1.3.56,2,.12.7.26,1.41.28,2.12.17,2.84-.42,5.6-1.38,8.15-.03.09-.6,1.13-1.33,2.03-.72.91-1.61,1.66-1.94,1.44-.32-.21-.09-1.27.12-2.32.28-1.28.46-2.12.47-2.16Z"/><path class="cls-1" d="M87.09,227.81c-2.26-1.51-4.34-3.41-5.85-5.82-.39-.59-.7-1.24-1-1.89-.26-.67-.53-1.36-.7-1.95l-.59-1.84-.15-.46-.07-.23c-.59.19,5.15-1.65,2.72-.87h0s0,.02,0,.02v.03s.03.06.03.06l.04.11.07.23.02.06h0s0,.02,0,.02c-5.44,1.74-1.51.48-2.72.86v-.03s-.05-.11-.05-.11l-.15-.46-.24-.76-.06-.04c-.59-.36-1.16-.76-1.71-1.2-1.09-.86-2.08-1.84-2.96-2.9-1.77-2.11-3.08-4.51-4.15-6.95-.03-.09-.35-1.21-.48-2.34-.15-1.13-.12-2.26.25-2.37.38-.12,1.03.77,1.65,1.67.6.91,1.18,1.82,1.21,1.9.99,2.26,2.18,4.42,3.72,6.25.76.92,1.61,1.75,2.54,2.48.46.37.94.71,1.45,1.01l.76.46c.07.04.14.08.2.13l.07.23.15.46.34,1.07.15.46.04.11v.03c-1.2.39,2.73-.87-2.71.88h0s0-.02,0-.02l-.02-.06-.07-.23-.04-.11-.02-.06v-.03s-.01-.01-.01-.01h0c-2.43.77,3.31-1.07,2.72-.88l.07.23.15.46.59,1.84c.19.65.4,1.15.6,1.68.25.51.48,1.03.8,1.51,1.22,1.96,3,3.62,5.01,4.95.03.03.67.6,1.64,1.48.79.73,1.59,1.45,1.45,1.81-.14.37-1.3.28-2.41-.04-1.11-.31-2.19-.82-2.26-.88Z"/><path class="cls-1" d="M60.31,237.39l27.13-8.77c.16-.05,4.09-.65,4.33.1s-3.29,2.56-3.45,2.62l-27.13,8.77c-.16.05-4.09.65-4.33-.1s3.29-2.56,3.45-2.62Z"/><path class="cls-1" d="M90,125.77c1.04,0,2.17-.03,3.09-.1h.12s-.32-.14-.32-.14l-.71-.26-1.49-.51c-1.01-.33-2.03-.64-3.05-.94-1.02-.26-2.02-.56-3.04-.75-2.03-.46-4.09-.65-6.14-.68-4.09-.06-8.13,1.06-11.33,3.43-3.22,2.36-5.44,5.92-6.68,9.81-.64,1.94-1.01,3.99-1.23,6.05-.22,2.06-.26,4.16-.13,6.25.21,4.19,1.04,8.35,2.2,12.41.28,1.02.64,2.02.95,3.03.36,1,.7,2.02,1.08,3.01.74,2,1.55,3.96,2.44,5.87.89,1.9,1.89,3.76,3.07,5.38.58.82,1.24,1.56,1.93,2.13.69.57,1.42.92,1.98.88.08-.02.6.11,1.44-.57.82-.64,1.77-2.16,2.13-3.65.07-.36.12-.71.1-1.01-.05-.26-.09-.51-.24-.63-.26-.31-.96-.35-1.44-.14-.5.19-.8.52-.92.81-.14.29-.12.54-.24.57-.05.02-.1-.02-.17-.13-.06-.1-.16-.27-.16-.51-.06-.48.25-1.22.93-1.7.33-.25.76-.44,1.25-.52.49-.1,1.11-.02,1.67.32.59.34.91.97,1.09,1.54.15.58.16,1.14.13,1.68-.22,2.09-1.07,3.98-2.33,5.29-.63.64-1.36,1.1-1.99,1.28-.62.2-1.06.22-1.17.22-1.63.04-2.91-.75-3.87-1.52-.98-.81-1.75-1.71-2.42-2.65-1.36-1.87-2.41-3.85-3.35-5.85-.93-2.01-1.78-4.04-2.53-6.09-.39-1.02-.74-2.06-1.1-3.09-.33-1.05-.69-2.09-.99-3.15-1.21-4.24-2.09-8.6-2.31-13.05-.13-2.22-.1-4.46.14-6.69.23-2.23.63-4.46,1.35-6.63,1.37-4.31,3.91-8.45,7.7-11.23,3.76-2.8,8.5-4.05,13.03-3.98,4.55-.02,9,1.15,13.11,2.5l1.57.54.81.3.54.22.27.11.36.16c1,.42,1.86.96,2.33,1.5.25.28.35.54.43.83.08.26.06.7-.07,1.02-.24.58-.65.98-1.52,1.29-.42.15-.92.25-1.43.33l-.79.1-.68.06c-1.23.09-2.26.11-3.39.12-.32.02-4.08-.17-7.72-.64-3.64-.44-7.16-1.09-7.13-1.48.03-.39,3.6-.46,7.23-.54,3.63-.06,7.3-.19,7.6-.21Z"/><path class="cls-1" d="M37.91,104.39c1.11-2.93,2.38-5.82,3.82-8.62,1.41-2.81,3.02-5.54,4.8-8.14,1.74-2.64,3.78-5.08,5.92-7.42,1.12-1.13,2.21-2.29,3.43-3.31,1.16-1.09,2.45-2.03,3.72-2.99,5.16-3.76,11.17-6.33,17.41-7.65,1.56-.32,3.15-.5,4.72-.74,1.59-.08,3.17-.23,4.76-.26l4.73.1c1.52.03,3.03.13,4.55.1,6.06-.05,12.11-.9,17.89-2.64,5.8-1.7,11.24-4.47,16.16-7.95,9.78-7.05,17.18-17.36,20.93-28.82.07-.2.53-1.53,1.09-3.43.57-1.9,1.13-4.41,1.5-6.93.39-2.52.44-5.04.38-6.93-.02-.45-.03-.88-.05-1.3-.04-.38-.07-.72-.08-1-.03-.56,0-.9.09-.92s.26.26.47.79c.11.27.23.59.35.98.1.38.2.82.31,1.31.41,1.93.68,4.58.53,7.25-.13,2.67-.5,5.35-.96,7.39-.45,2.04-.86,3.46-.93,3.68-3.95,12.04-11.68,22.82-21.98,30.26-5.17,3.66-10.91,6.58-16.99,8.36-6.07,1.83-12.39,2.71-18.7,2.77-1.58.03-3.15-.07-4.72-.1l-4.54-.1c-1.5.03-3,.17-4.5.25-1.48.23-2.98.39-4.44.7-5.86,1.24-11.47,3.63-16.31,7.16-1.19.91-2.4,1.79-3.5,2.82-1.16.96-2.19,2.06-3.25,3.12-2.03,2.22-3.97,4.54-5.64,7.07-1.71,2.49-3.25,5.11-4.62,7.83-1.39,2.7-2.62,5.49-3.69,8.34-.18.39-2.17,5.25-3.71,10.19-1.6,4.92-2.7,9.88-3.06,9.83-.42-.05-.02-5.2,1.1-10.35,1.06-5.16,2.81-10.29,2.99-10.69Z"/></g></svg>