<?xml version="1.0" encoding="UTF-8"?><svg id="Line" xmlns="http://www.w3.org/2000/svg" viewBox="0 0 242.44 233"><defs><style>.cls-1{fill:#fff;stroke-width:0px;}</style></defs><g id="Icon_6_Lines"><path class="cls-1" d="M63.86,125.57c5.82,9.87,14.37,18.13,24.37,23.73,5,2.82,10.38,4.93,15.94,6.36,5.57,1.39,11.31,2.08,17.06,2.1,5.75-.02,11.49-.71,17.06-2.1,5.55-1.43,10.94-3.54,15.94-6.36,10.01-5.6,18.56-13.87,24.37-23.73.22-.34,2.86-4.52,4.67-9.01.93-2.23,1.61-4.53,2.05-6.28.1-.41.21-.81.31-1.19.07-.36.15-.67.21-.93.14-.52.26-.81.35-.81.1,0,.17.31.22.85.02.27.04.6.06.98,0,.38-.03.8-.05,1.27-.12,1.86-.52,4.34-1.24,6.76-.71,2.43-1.66,4.8-2.48,6.6-.84,1.79-1.5,3.02-1.62,3.2-6.1,10.34-14.99,18.93-25.44,24.78-5.21,2.94-10.84,5.15-16.63,6.64-5.81,1.45-11.79,2.17-17.76,2.18-5.97-.02-11.95-.74-17.76-2.18-5.79-1.49-11.42-3.7-16.63-6.64-10.45-5.85-19.34-14.44-25.44-24.78-.12-.18-.78-1.41-1.62-3.2-.83-1.8-1.77-4.17-2.48-6.6-.72-2.42-1.13-4.91-1.24-6.76-.02-.47-.05-.89-.05-1.27.01-.38.03-.71.06-.98.05-.54.12-.85.22-.85.1,0,.22.29.35.81.07.26.14.57.21.93.1.39.2.78.31,1.19.44,1.74,1.12,4.04,2.05,6.28,1.81,4.49,4.44,8.68,4.67,9.01Z"/><path class="cls-1" d="M78,118.6c2.2,3.7,4.88,7.14,7.98,10.15.77.76,1.61,1.44,2.42,2.16.41.35.8.73,1.23,1.06l1.31.96c.89.62,1.71,1.33,2.64,1.87l2.77,1.68c7.55,4.23,16.2,6.32,24.87,6.39,8.66-.06,17.32-2.16,24.87-6.39l2.77-1.68c.94-.54,1.76-1.26,2.64-1.87l1.31-.96c.43-.33.82-.71,1.23-1.06.8-.72,1.65-1.4,2.42-2.16,3.1-3.02,5.78-6.45,7.98-10.15.07-.12.59-.95,1.36-2.19.64-1.26,1.59-2.85,2.24-4.55.18-.41.36-.83.55-1.25.14-.41.28-.82.41-1.24.13-.39.27-.78.4-1.16l.19-.54.12-.51c.32-1.31.62-2.21.81-2.2.2,0,.28.93.28,2.37v.56s-.08.59-.08.59c-.06.42-.12.85-.18,1.28-.07.44-.13.91-.22,1.37-.13.47-.25.93-.38,1.38-.45,1.89-1.25,3.67-1.8,5.08-.65,1.36-1.17,2.3-1.24,2.45-2.34,3.94-5.18,7.57-8.45,10.76-.81.8-1.7,1.52-2.55,2.29-.43.37-.85.77-1.3,1.12l-1.38,1.02c-.94.66-1.81,1.4-2.8,1.98l-2.94,1.77c-7.99,4.48-17.16,6.69-26.26,6.75-9.11-.06-18.28-2.28-26.26-6.75l-2.94-1.77c-.99-.58-1.86-1.32-2.8-1.98l-1.38-1.02c-.45-.35-.87-.75-1.3-1.12-.85-.76-1.74-1.49-2.55-2.29-3.28-3.19-6.12-6.82-8.45-10.76-.07-.15-.59-1.08-1.24-2.45-.55-1.41-1.36-3.19-1.8-5.08-.12-.46-.25-.92-.38-1.38-.09-.47-.15-.93-.22-1.37-.06-.43-.12-.85-.18-1.28l-.08-.59v-.56c0-1.44.09-2.36.28-2.37.2,0,.49.89.81,2.2l.12.51.19.54c.13.39.27.77.4,1.16.14.41.28.83.41,1.24.18.42.37.84.55,1.25.65,1.7,1.6,3.29,2.24,4.55.77,1.25,1.28,2.08,1.36,2.19Z"/><path class="cls-1" d="M31.29,156.15c7.06,2.7,14.43,4.68,21.85,6.37,7.43,1.67,14.95,3.01,22.5,4.12,7.55,1.1,15.14,1.98,22.75,2.61,7.6.63,15.23,1.04,22.84,1.05,7.61-.01,15.23-.42,22.84-1.05,7.61-.63,15.19-1.5,22.75-2.61,7.55-1.11,15.07-2.45,22.5-4.12,7.42-1.69,14.79-3.67,21.85-6.37.48-.22,6.73-2.24,12.07-5.56,2.66-1.65,4.98-3.73,6.12-5.7,1.19-1.95,1.22-3.57,1.45-3.56.15-.04.54,1.69-.46,4.06-.95,2.37-3.3,4.89-5.97,6.86-5.38,3.96-11.7,6.34-12.19,6.56-7.26,2.77-14.74,4.77-22.25,6.49-7.52,1.69-15.1,3.04-22.71,4.16-7.61,1.11-15.26,1.99-22.92,2.63-7.67.63-15.36,1.05-23.08,1.06-7.72-.01-15.41-.42-23.08-1.06-7.67-.64-15.31-1.52-22.92-2.63-7.61-1.12-15.19-2.47-22.71-4.16-7.51-1.71-14.99-3.71-22.25-6.49-.49-.23-6.81-2.6-12.19-6.56-2.67-1.97-5.01-4.49-5.97-6.86-1-2.37-.61-4.1-.46-4.06.24-.01.27,1.61,1.45,3.56,1.14,1.96,3.46,4.05,6.12,5.7,5.34,3.32,11.59,5.34,12.07,5.56Z"/><path class="cls-1" d="M.05,134.59c.33-3.09,1.94-5.81,3.84-7.93,1.92-2.16,4.17-3.88,6.5-5.38,4.68-3,9.74-5.18,14.84-7.08,10.25-3.73,20.82-6.24,31.45-8.26,10.64-1.99,21.37-3.43,32.13-4.43,10.77-.99,21.57-1.55,32.4-1.56,10.82.01,21.63.57,32.4,1.56,10.77,1,21.49,2.44,32.13,4.43,10.63,2.02,21.21,4.53,31.45,8.26,5.1,1.9,10.16,4.07,14.84,7.08,2.33,1.5,4.58,3.23,6.5,5.38,1.91,2.12,3.51,4.84,3.84,7.93.01.21.12,1.06,0,2.29-.1,1.23-.41,2.92-1.25,4.69-.81,1.78-2.13,3.57-3.77,5.15-1.64,1.58-3.56,2.98-5.59,4.14-4.04,2.34-8.36,3.84-11.63,4.72-3.27.88-5.5,1.15-5.54.96-.04-.19,2.09-.82,5.2-2.02,3.1-1.19,7.21-2.95,10.91-5.38,3.71-2.39,6.84-5.63,8.01-8.64.63-1.48.81-2.83.86-3.82.07-1.01-.04-1.6-.04-1.77-.24-2.31-1.47-4.49-3.14-6.35-1.66-1.87-3.73-3.47-5.91-4.88-4.39-2.82-9.3-4.94-14.28-6.79-10.01-3.65-20.47-6.13-30.99-8.13-10.54-1.97-21.19-3.4-31.87-4.4-10.69-.99-21.41-1.54-32.13-1.55-10.72.01-21.45.57-32.13,1.55-10.68,1-21.33,2.42-31.87,4.4-10.52,2-20.98,4.48-30.99,8.13-4.98,1.85-9.88,3.97-14.28,6.79-2.19,1.41-4.25,3.01-5.91,4.88-1.67,1.86-2.9,4.04-3.14,6.35,0,.17-.11.77-.04,1.77.05.99.23,2.34.86,3.82,1.17,3,4.3,6.25,8.01,8.64,3.7,2.43,7.81,4.19,10.91,5.38,3.11,1.19,5.24,1.82,5.2,2.02-.04.19-2.27-.08-5.54-.96-3.26-.88-7.58-2.38-11.63-4.72-2.02-1.15-3.95-2.56-5.59-4.14-1.64-1.58-2.96-3.37-3.77-5.15-.84-1.76-1.14-3.46-1.25-4.69-.12-1.23-.02-2.08,0-2.29Z"/><path class="cls-1" d="M.05,93.89c.33-3.09,1.94-5.81,3.84-7.93,1.92-2.16,4.17-3.88,6.5-5.38,4.68-3,9.74-5.18,14.84-7.08,10.25-3.73,20.82-6.24,31.45-8.26,10.64-1.99,21.37-3.43,32.13-4.43,10.77-.99,21.57-1.55,32.4-1.56,10.82.01,21.63.57,32.4,1.56,10.77,1,21.49,2.44,32.13,4.43,10.63,2.02,21.21,4.53,31.45,8.26,5.1,1.9,10.16,4.07,14.84,7.08,2.33,1.5,4.58,3.23,6.5,5.38,1.91,2.12,3.51,4.84,3.84,7.93.01.21.12,1.06,0,2.29-.1,1.23-.41,2.92-1.25,4.69-.81,1.78-2.13,3.57-3.77,5.15-1.64,1.58-3.56,2.99-5.59,4.14-4.04,2.34-8.36,3.84-11.63,4.72-3.27.88-5.5,1.15-5.54.96-.04-.19,2.09-.82,5.2-2.02,3.1-1.19,7.21-2.95,10.91-5.38,3.71-2.39,6.84-5.63,8.01-8.64.63-1.48.81-2.83.86-3.82.07-1.01-.04-1.6-.04-1.77-.24-2.31-1.47-4.49-3.14-6.35-1.66-1.87-3.73-3.47-5.91-4.88-4.39-2.82-9.3-4.94-14.28-6.79-10.01-3.65-20.47-6.13-30.99-8.13-10.54-1.97-21.19-3.4-31.87-4.4-10.69-.99-21.41-1.54-32.13-1.55-10.72.01-21.45.57-32.13,1.55-10.68,1-21.33,2.42-31.87,4.4-10.52,2-20.98,4.48-30.99,8.13-4.98,1.85-9.88,3.97-14.28,6.79-2.19,1.41-4.25,3-5.91,4.88-1.67,1.86-2.9,4.04-3.14,6.35,0,.17-.11.77-.04,1.77.05.99.23,2.34.86,3.82,1.17,3,4.3,6.25,8.01,8.64,3.7,2.43,7.81,4.2,10.91,5.38,3.11,1.19,5.24,1.82,5.2,2.02-.04.19-2.27-.08-5.54-.96-3.26-.88-7.58-2.38-11.63-4.72-2.02-1.15-3.95-2.56-5.59-4.14-1.64-1.58-2.96-3.37-3.77-5.15-.84-1.76-1.14-3.46-1.25-4.69-.12-1.23-.02-2.08,0-2.29Z"/><path class="cls-1" d="M53.58,196.54c-3.97-3.43-7.71-7.12-11.19-11.06-1.67-2.03-3.39-4.01-4.92-6.14-.78-1.05-1.59-2.09-2.3-3.19l-2.12-3.15c-3.41-4.18-6.29-8.86-8.8-13.61-2.53-4.76-4.74-9.65-6.88-14.54-2.15-4.89-4.19-9.81-6.48-14.55-1.15-2.36-2.37-4.69-3.76-6.83-.71-1.06-1.45-2.09-2.28-2.97-.4-.47-.85-.84-1.29-1.23-.11-.1-.23-.16-.35-.25l-.53-.37c-.15-.09-.32-.16-.48-.24-.14-.08-.42-.11-.63-.17l-1.33-.32v-2.86l1.78-.43c.26-.09.44-.2.66-.31l.41-.28c.32-.19.61-.45.9-.72.3-.24.58-.54.85-.84.29-.28.55-.6.8-.93,1.04-1.3,1.98-2.74,2.83-4.25,1.72-3.01,3.2-6.23,4.65-9.45,2.88-6.47,5.6-13.08,8.74-19.54,1.57-3.23,3.24-6.42,5.09-9.52.92-1.55,1.9-3.08,2.93-4.58.51-.75,1.06-1.48,1.59-2.21l1.58-2.01c3.89-6.08,8.41-11.76,13.46-16.91,10.09-10.32,22.33-18.54,35.72-23.93l2.52-1c.84-.33,1.71-.59,2.56-.89l2.56-.87c.86-.27,1.73-.5,2.6-.75l2.6-.74c.87-.22,1.76-.41,2.64-.61l2.64-.6.07-.02h-.03s0,0,0,0l.29-.13.61-.27,1.22-.54c3.23-1.45,6.45-2.92,9.48-4.62,1.52-.84,2.97-1.77,4.28-2.79.33-.26.66-.51.94-.8.3-.28.61-.54.85-.84.27-.29.53-.58.72-.9l.27-.38c.12-.21.22-.41.32-.65l.43-1.77h2.86l.27,1.11c.09.36.17.78.31,1,.06.13.12.27.22.39l.17.25.2.29c.29.38.63.74.97,1.1.73.7,1.53,1.36,2.4,1.96,1.73,1.22,3.64,2.28,5.58,3.28,1.95,1,3.96,1.93,5.97,2.84l3.04,1.35.26.12s-.08-.02.03,0l.21.05.83.19,1.65.38c4.42.97,8.73,2.35,12.98,3.88,2.09.86,4.23,1.6,6.26,2.6l3.08,1.41,3,1.57c8.01,4.18,15.38,9.54,22.04,15.63.86.73,1.63,1.57,2.44,2.35.79.8,1.63,1.57,2.39,2.4,1.51,1.68,3.09,3.3,4.49,5.07.71.87,1.45,1.73,2.15,2.62l2.03,2.71c.69.89,1.33,1.83,1.95,2.77l1.82,2.7c3.41,4.18,6.29,8.86,8.8,13.61,2.53,4.76,4.74,9.65,6.88,14.54,2.15,4.89,4.19,9.81,6.48,14.55,1.15,2.36,2.37,4.69,3.76,6.83.71,1.06,1.45,2.09,2.28,2.97.4.47.85.84,1.29,1.23.11.1.23.16.35.25l.53.37c.15.09.32.16.48.24.14.08.42.11.63.17l1.33.32v2.86c-.64.16-1.35.3-1.94.49-.24.12-.48.22-.69.38l-.32.22c-.36.21-.66.55-1,.82-.33.29-.62.65-.94.97-.3.34-.58.72-.87,1.07-1.13,1.49-2.11,3.14-3.04,4.84-1.85,3.4-3.45,7-5.05,10.61-3.17,7.23-6.22,14.59-9.95,21.67-1.87,3.54-3.89,7.02-6.21,10.33-.6.81-1.17,1.65-1.81,2.44l-.94,1.19s-.19.27-.33.48l-.42.62c-1.12,1.66-2.21,3.35-3.45,4.93-4.78,6.44-10.28,12.35-16.39,17.57-.32.26-1.53,1.22-3.41,2.72-.93.76-2.11,1.54-3.39,2.48-1.27.95-2.77,1.89-4.36,2.92-1.57,1.07-3.38,2.02-5.23,3.1-.92.55-1.92,1.01-2.91,1.53-1,.5-2,1.04-3.05,1.52-2.12.92-4.26,1.96-6.52,2.77-1.13.42-2.24.89-3.39,1.27-1.15.38-2.31.75-3.46,1.13-1.14.4-2.33.66-3.49.99-1.17.29-2.31.66-3.48.88-1.16.25-2.31.49-3.44.73l-.83.18s-.09.03-.25.09l-.39.17c-.52.22-1.04.44-1.55.65-4.1,1.74-7.86,3.44-10.92,5.16-1.52.87-2.85,1.76-3.95,2.63-1.1.88-1.9,1.8-2.48,2.61-1.08,1.69-1,2.94-1.15,2.92-.05,0-.07-.29-.06-.86.03-.57.24-1.39.72-2.35.54-.92,1.33-1.97,2.42-2.96,1.09-.99,2.42-1.98,3.94-2.94,3.04-1.92,6.79-3.78,10.84-5.67.51-.23,1.02-.47,1.54-.71l.39-.18c.11-.04.29-.17.55-.21l.84-.21c1.11-.27,2.23-.55,3.36-.82,1.14-.25,2.25-.65,3.39-.97,1.13-.35,2.28-.64,3.39-1.07,1.12-.4,2.24-.8,3.36-1.19,1.12-.39,2.2-.89,3.29-1.32,2.19-.85,4.26-1.91,6.31-2.86,1.02-.49,1.98-1.05,2.95-1.55.96-.53,1.92-.99,2.8-1.55,1.78-1.09,3.52-2.06,5.04-3.13,1.54-1.03,2.98-1.97,4.2-2.92,1.23-.94,2.36-1.71,3.26-2.47,1.81-1.48,2.97-2.44,3.28-2.7,5.94-5.07,11.29-10.82,15.94-17.09,1.2-1.54,2.26-3.18,3.35-4.8l.41-.61c.15-.2.23-.37.52-.74l.9-1.14c.61-.74,1.15-1.55,1.73-2.33,2.23-3.17,4.19-6.55,6.02-10.01,3.65-6.93,6.68-14.22,9.86-21.49,1.61-3.63,3.22-7.28,5.16-10.83.98-1.77,2.02-3.53,3.28-5.2.33-.41.65-.83,1-1.23.38-.39.72-.8,1.13-1.16.43-.36.8-.75,1.29-1.06l.29-.2h-.01s0,.01,0,.01c.09.07-.15-.1-.3-.2-.15-.11-.33-.21-.46-.34-.57-.49-1.13-.98-1.6-1.52-1-1.06-1.81-2.2-2.58-3.35-1.51-2.32-2.76-4.73-3.94-7.16-2.35-4.85-4.39-9.78-6.53-14.65-2.14-4.86-4.31-9.7-6.79-14.35-2.47-4.67-5.2-9.1-8.53-13.19l-1.92-2.84c-.61-.92-1.22-1.82-1.9-2.69l-1.97-2.64c-.67-.87-1.39-1.7-2.09-2.55-1.36-1.72-2.9-3.3-4.37-4.93-.74-.81-1.55-1.56-2.32-2.34-.79-.76-1.54-1.57-2.37-2.29-6.48-5.93-13.65-11.14-21.44-15.21l-2.92-1.52-3-1.37c-1.98-.97-4.06-1.69-6.09-2.53-4.13-1.48-8.32-2.83-12.62-3.77l-1.61-.37-.8-.18-.58-.13-.5-.22-3.07-1.36c-2.04-.93-4.08-1.86-6.1-2.9-2.01-1.04-4.01-2.15-5.93-3.49-.96-.66-1.89-1.42-2.76-2.26-.43-.44-.85-.9-1.24-1.4l-.33-.48h0s.03-.05,0,0l-.11.16c-.28.44-.62.81-.95,1.18-.32.39-.69.7-1.04,1.03-.35.34-.72.63-1.1.92-1.49,1.16-3.06,2.16-4.65,3.04-3.18,1.79-6.45,3.27-9.72,4.74l-1.23.54-.61.27-.32.14c-.1.04-.2.1-.31.12l-.28.06-2.57.59c-.85.2-1.71.38-2.56.6l-2.53.72c-.84.25-1.69.46-2.53.73l-2.49.85c-.83.29-1.67.55-2.49.86l-2.45.97c-13.03,5.24-24.93,13.23-34.75,23.27-4.91,5.02-9.31,10.54-13.09,16.46l-.09.13s-.07.09-.11.14l-.1.13-.2.26-.4.51c-.27.34-.54.68-.8,1.03-.51.71-1.03,1.4-1.52,2.12-.99,1.44-1.93,2.91-2.83,4.42-1.8,3.01-3.43,6.13-4.97,9.31-3.09,6.35-5.79,12.92-8.7,19.45-1.47,3.26-2.97,6.53-4.78,9.7-.89,1.59-1.9,3.15-3.08,4.63-.29.37-.59.74-.94,1.09-.33.35-.65.71-1.04,1.03-.37.33-.74.66-1.19.94l-.16.11h.02s0-.02,0-.02h0c-.09-.07.15.1.3.2.15.11.33.21.46.34.57.49,1.13.98,1.6,1.52,1,1.06,1.81,2.2,2.58,3.35,1.51,2.32,2.76,4.73,3.95,7.16,2.35,4.85,4.39,9.78,6.53,14.65,2.14,4.87,4.32,9.7,6.79,14.35,2.47,4.67,5.2,9.1,8.53,13.19l2.22,3.29c.69,1.08,1.48,2.08,2.24,3.1,1.48,2.08,3.17,4,4.79,5.98,3.39,3.82,7.02,7.42,10.89,10.76.31.25,1.48,1.21,3.28,2.7.89.76,2.03,1.53,3.26,2.47,1.22.95,2.66,1.89,4.2,2.92,1.51,1.07,3.26,2.04,5.04,3.13.88.56,1.85,1.03,2.8,1.55.97.5,1.93,1.06,2.95,1.55,2.05.95,4.11,2.01,6.31,2.86,1.09.43,2.17.93,3.29,1.32,1.12.4,2.24.79,3.36,1.19,1.11.43,2.26.71,3.39,1.07,1.14.32,2.25.72,3.39.97,1.13.28,2.25.55,3.36.82l.84.21c.26.04.44.17.55.21l.39.18c.52.24,1.03.47,1.54.71,4.05,1.89,7.8,3.75,10.84,5.67,1.52.96,2.85,1.96,3.94,2.94,1.09.99,1.88,2.04,2.42,2.96.48.96.69,1.79.72,2.35,0,.57-.01.86-.06.86-.15.02-.07-1.23-1.15-2.92-.58-.81-1.38-1.73-2.48-2.61-1.1-.88-2.43-1.77-3.95-2.63-3.05-1.73-6.82-3.42-10.92-5.16-.51-.22-1.03-.44-1.55-.65l-.39-.17c-.16-.06-.22-.1-.25-.09l-.83-.18c-1.14-.24-2.29-.48-3.45-.73-1.17-.22-2.31-.59-3.48-.88-1.16-.33-2.34-.59-3.49-.99-1.15-.38-2.31-.75-3.46-1.13-1.15-.37-2.27-.85-3.39-1.27-2.26-.81-4.4-1.85-6.52-2.77-1.05-.48-2.05-1.02-3.05-1.52-.99-.52-1.99-.97-2.91-1.53-1.85-1.08-3.65-2.04-5.23-3.1-1.6-1.03-3.1-1.96-4.36-2.92-1.28-.94-2.46-1.72-3.39-2.48-1.88-1.5-3.09-2.47-3.41-2.72Z"/></g></svg>