<?xml version="1.0" encoding="UTF-8"?><svg id="Line" xmlns="http://www.w3.org/2000/svg" viewBox="0 0 1260.46 83.18"><defs><style>.cls-1{fill:#fff;stroke-width:0px;}</style></defs><g id="Line_10_Lines"><path class="cls-1" d="M1117.47,54.71H369.23c-41.57.21-83.19-.6-124.73-2.42-41.55-1.81-83.07-4.44-124.48-8.41-1.48-.15-11.12-1.09-24.72-2.72-13.6-1.65-31.17-3.92-48.41-7.17-8.61-1.64-17.16-3.48-24.99-5.88-7.79-2.35-15.06-5.62-19.49-10.73-1.06-1.3-1.87-2.76-2.21-4.3C-.16,11.54,0,10,.48,8.71c.97-2.6,2.71-4.29,4.13-5.53,1.45-1.24,2.72-2.02,3.6-2.52C9.08.16,9.59-.04,9.61,0c.07.11-1.88,1.08-4.62,3.6-1.32,1.27-2.91,2.99-3.71,5.38-.39,1.18-.48,2.53-.14,3.87.34,1.34,1.09,2.63,2.11,3.81,2.06,2.35,5.01,4.25,8.27,5.91,3.29,1.6,6.93,2.94,10.83,4.01,7.77,2.22,16.3,3.91,24.9,5.42,17.21,2.98,34.77,5.04,48.35,6.54,13.59,1.48,23.22,2.33,24.7,2.49,41.35,3.96,82.83,6.58,124.33,8.4,41.51,1.81,83.04,2.63,124.61,2.42h748.24c2.96.02,38.67.22,73.72.42,17.46.17,34.75.33,47.76.45,6.47.09,11.85.17,15.61.27,1.88.05,3.35.09,4.36.14,1.01.05,1.54.1,1.54.15s-.54.1-1.54.15c-1.01.05-2.48.1-4.36.14-3.76.09-9.14.18-15.61.27-13.01.12-30.3.29-47.76.45-35.05.2-70.76.4-73.72.42Z"/><path class="cls-1" d="M64.35,65.62c6.48-2.06,13.09-3.42,19.71-4.53,6.63-1.09,13.29-1.9,19.96-2.53,13.34-1.25,26.73-1.83,40.13-1.85,13.39.02,26.78.6,40.13,1.85,6.67.63,13.33,1.44,19.96,2.53,6.62,1.11,13.23,2.47,19.71,4.53.22.07,1.77.56,3.84,1.59,2.05,1.04,4.61,2.67,6.59,4.92.99,1.12,1.84,2.38,2.35,3.72.51,1.33.67,2.78.23,3.94-.42,1.16-1.28,1.79-1.86,2.04-.6.27-.97.25-1,.18-.04-.11.27-.28.69-.67.43-.37.95-.98,1.1-1.85.17-.86-.07-1.94-.62-2.99-.55-1.05-1.39-2.07-2.35-2.97-1.92-1.82-4.34-3.12-6.26-3.94-1.93-.81-3.37-1.19-3.61-1.26-6.25-1.99-12.75-3.33-19.29-4.42-6.55-1.07-13.15-1.88-19.77-2.51-13.24-1.24-26.55-1.81-39.86-1.84-13.31.02-26.62.6-39.86,1.84-6.62.62-13.22,1.43-19.77,2.51-6.54,1.09-13.04,2.44-19.29,4.42-.24.07-1.68.45-3.61,1.26-1.92.82-4.33,2.12-6.26,3.94-.96.9-1.8,1.92-2.35,2.97-.55,1.04-.8,2.13-.62,2.99.15.87.68,1.49,1.1,1.85.43.38.74.56.69.67-.03.07-.4.09-1-.18-.58-.25-1.45-.87-1.86-2.04-.44-1.15-.28-2.61.23-3.94.51-1.34,1.36-2.61,2.35-3.72,1.99-2.25,4.55-3.88,6.59-4.92,2.06-1.03,3.62-1.53,3.84-1.59Z"/><path class="cls-1" d="M53.43,6.43c3.16-.19,6.2.26,9.16.9,2.96.65,5.81,1.6,8.62,2.62,5.6,2.11,10.97,4.71,16.14,7.64,5.16,2.92,10.2,6.11,14.92,9.78,4.71,3.65,9.14,7.61,13.38,11.73,8.53,8.18,16.44,16.93,25.15,24.67,4.36,3.84,8.94,7.45,13.99,10.09,5.1,2.63,10.59,4.73,16.16,5.91.2.04,1.49.37,3.34.67,1.84.31,4.26.55,6.61.38,1.17-.09,2.32-.28,3.32-.62.98-.34,1.86-.83,2.22-1.41.18-.28.23-.56.2-.82-.07-.26-.2-.51-.36-.69-.3-.38-.56-.58-.5-.68.03-.07.37-.07.88.25.26.15.54.41.77.83.21.44.23,1.05.01,1.59-.45,1.11-1.5,1.83-2.6,2.41-1.13.56-2.4.92-3.68,1.15-2.57.46-5.2.41-7.19.23-2-.17-3.39-.45-3.6-.49-2.97-.62-5.86-1.49-8.67-2.54-2.81-1.07-5.55-2.2-8.22-3.63-5.39-2.82-10.12-6.57-14.57-10.49-8.89-7.9-16.79-16.65-25.24-24.75-4.2-4.08-8.56-7.97-13.15-11.53-4.57-3.56-9.5-6.68-14.57-9.55-5.07-2.87-10.32-5.41-15.73-7.45-2.71-.99-5.46-1.9-8.25-2.51-2.78-.61-5.62-1.01-8.34-.84-.07,0-.27,0-.59.01-.3.04-.72.09-1.22.15-.98.09-2.26.5-3.62,1.17-1.32.67-2.74,1.68-3.3,2.88-.25.71-.29.9-.12,1.29.1.16.29.27.48.27.21.01.3-.18.39-.33.14-.27.21-.6.2-.93,0-.16-.04-.33-.11-.47-.03-.07-.09-.12-.15-.17,0,0,0-.04-.05-.02-.17,0-.43.19-.56.3-.15.11-.25.16-.3.13-.05-.03-.04-.14.03-.34.09-.18.18-.48.65-.73.12-.07.3-.07.48-.04.11.04.23.09.32.18.19.17.35.41.44.73.21.63.17,1.59-.2,2.39-.06.11-.12.23-.19.33l-.23.27c-.15.18-.41.29-.67.34-.53.1-1.13-.04-1.57-.42-.94-.72-.97-2.52-.64-3.43.34-1.06,1-1.9,1.68-2.6.7-.7,1.46-1.26,2.22-1.73,1.51-.92,3.07-1.54,4.29-1.76.6-.11,1.1-.21,1.46-.28.37-.03.6-.04.68-.05Z"/></g></svg>