<?xml version="1.0" encoding="UTF-8"?><svg id="Line" xmlns="http://www.w3.org/2000/svg" viewBox="0 0 1266.8 44.64"><defs><style>.cls-1{fill:#fff;stroke-width:0px;}</style></defs><g id="Line_8_Lines"><path class="cls-1" d="M1171.59,32.52c-21.05-3.31-42.31-5.44-63.57-7.33-21.27-1.86-42.58-3.36-63.9-4.68-42.64-2.63-85.33-4.56-128.02-6.21-85.4-3.24-170.84-5.29-256.3-6.88C488.89,4.32,317.95,3.15,147,2.86c-3.05-.02-39.76-.24-75.79-.46-17.95-.15-35.73-.3-49.1-.41-6.65-.08-12.18-.16-16.05-.25-1.93-.04-3.45-.09-4.48-.14C.55,1.55,0,1.51,0,1.46s.55-.1,1.58-.15c1.03-.05,2.55-.1,4.48-.15,3.86-.1,9.39-.2,16.04-.29,13.3-.19,31.11-.36,49.1-.5C107.2.1,143.96,0,147.01,0c170.95.29,341.91,1.47,512.84,4.56,85.46,1.59,170.93,3.64,256.35,6.88,42.71,1.64,85.42,3.58,128.09,6.21,21.34,1.33,42.66,2.82,63.97,4.69,21.3,1.9,42.59,4.03,63.77,7.36.76.12,3.6.57,7.98,1.38,4.38.83,10.31,1.96,17.16,3.85,3.42.98,7.09,2.08,10.8,3.89.93.45,1.85.98,2.76,1.6.45.31.9.66,1.33,1.04l.57.56s.06.11.1.1c.87-.06,1.75-.11,2.64-.17,1.05-.08,2.1-.16,3.16-.23,8.49-.68,17.46-1.69,26.23-3.44,4.37-.89,8.72-1.93,12.78-3.42,2.01-.76,3.99-1.62,5.63-2.79.81-.58,1.53-1.27,1.83-2,.34-.71.12-1.42-.45-2.09-.56-.65-1.37-1.2-2.24-1.62-.87-.43-1.79-.79-2.72-1.08-1.87-.59-3.77-.99-5.63-1.3-3.73-.62-7.31-.88-10.62-1.01-6.61-.23-12.13.17-15.93.73-3.82.53-5.87,1.33-5.92,1.21-.01-.03.48-.3,1.46-.65.98-.36,2.45-.77,4.36-1.13,3.81-.75,9.36-1.33,16.05-1.27,3.34.04,6.98.22,10.8.77,1.91.28,3.87.65,5.85,1.23.99.29,1.98.65,2.96,1.11.97.46,1.95,1.06,2.77,1.97.22.21.39.48.55.77.18.26.28.6.38.93.15.67.12,1.44-.16,2.04-.52,1.25-1.44,2.06-2.35,2.76-1.86,1.37-3.92,2.28-6,3.11-4.19,1.62-8.59,2.73-13.01,3.7-8.86,1.89-17.89,3.03-26.44,3.82-1.07.09-2.13.18-3.18.27-1.21.09-2.41.18-3.6.27-.11-.01-.26.06-.34-.02l-.23-.26-.45-.53-.11-.12-.06-.06-.12-.11-.24-.23c-.34-.29-.7-.57-1.09-.83-.77-.51-1.6-.98-2.46-1.39-3.44-1.64-7.05-2.69-10.39-3.61-6.73-1.78-12.62-2.86-16.97-3.63-4.35-.77-7.18-1.19-7.93-1.32Z"/><path class="cls-1" d="M1136.19,24.31c-5.19.14-10.37.36-15.55.66-2.59.14-5.18.32-7.77.49l-3.89.28-.49.04c-.1,0,.03,0-.12.01l-.26.04-.99.14-1.96.25c-10.41,1.21-20.8,1.9-31.2,2.55-20.8,1.27-41.62,2.07-62.43,2.76-41.63,1.28-83.27,1.9-124.91,2.28-41.64.33-83.28.42-124.92.14l-31.23-.14-31.23-.42c-20.82-.29-41.64-.51-62.45-1.05-83.26-1.71-166.5-4.71-249.67-9.01-83.17-4.32-166.29-9.77-249.24-17.32-1.37-.13-9.77-.91-21.86-2.2l.24-2.65h0s8.97.71,8.97.71l-8.78,1.92c-19.63,4.29-49.13,11.26-73.43,18.14-12.15,3.42-22.99,6.87-30.71,9.67-3.83,1.47-6.94,2.61-9.01,3.6C1.21,36.12.04,36.6,0,36.53s1.07-.68,3.12-1.73c2.02-1.12,5.09-2.4,8.89-4.01,7.65-3.07,18.44-6.77,30.56-10.42C66.8,13.03,96.24,5.7,115.88,1.19l.19,2.63h0s.24-2.65.24-2.65c12.09,1.11,20.47,1.87,21.84,2,82.9,7.54,165.99,12.99,249.13,17.31,83.14,4.3,166.35,7.29,249.59,9,20.81.53,41.62.76,62.43,1.05l31.22.42,31.22.14c41.62.28,83.26.19,124.88-.14,41.62-.37,83.25-1,124.84-2.28,20.8-.69,41.59-1.49,62.34-2.76,10.37-.65,20.76-1.34,31.03-2.54l1.91-.24.94-.13.23-.03s.3-.05.37-.05l.49-.04,3.9-.28c2.6-.17,5.2-.35,7.81-.49,5.21-.31,10.42-.53,15.64-.66.75-.02,3.55-.09,7.89-.11,4.34-.01,10.22.04,17.1.43,6.87.41,14.77,1.09,23.03,2.79,4.12.86,8.34,1.98,12.46,3.61,1.03.4,2.04.88,3.06,1.33.99.53,2.01.99,2.97,1.6,1.95,1.12,3.79,2.5,5.43,4.1,1.64,1.59,3.07,3.44,4.06,5.53.13.25.27.51.36.78l.23.59c.04.09.06.19.1.25l.27-.03,1.43-.17,1.59-.21c4.21-.59,8.32-1.44,12.18-2.56,3.85-1.14,7.51-2.55,10.57-4.48,1.5-.98,2.9-2.09,3.74-3.45.41-.67.67-1.4.62-2.09-.02-.33-.11-.74-.23-.97-.13-.25-.38-.49-.66-.7-1.2-.83-2.72-1.26-4.11-1.62-1.41-.34-2.78-.57-4.07-.74-2.58-.34-4.86-.46-6.73-.5-1.87-.04-3.35,0-4.35.05-1,.04-1.54.07-1.55.02,0-.04.52-.17,1.52-.31,1-.14,2.48-.27,4.37-.33,1.89-.05,4.19-.02,6.83.23,1.32.13,2.72.32,4.19.63,1.46.34,3.02.7,4.53,1.67.37.27.74.58,1.02,1.06.26.51.34.93.39,1.44.09,1-.25,1.97-.73,2.8-.98,1.66-2.48,2.87-4.06,3.95-3.2,2.11-6.93,3.63-10.86,4.87-3.93,1.23-8.1,2.16-12.38,2.83l-1.61.24-1.78.24-1.34.17c-.07.03-.07-.06-.1-.1l-.06-.16-.13-.31-.25-.62-.37-.92c-.09-.24-.21-.47-.34-.69-.9-1.85-2.22-3.5-3.74-4.93-1.52-1.44-3.24-2.69-5.09-3.72-.9-.56-1.88-.99-2.82-1.47-.98-.42-1.94-.87-2.94-1.23-3.98-1.51-8.09-2.55-12.13-3.34-8.09-1.57-15.9-2.16-22.7-2.49-6.81-.31-12.64-.3-16.94-.26-4.31.05-7.09.14-7.83.16Z"/></g></svg>