<?xml version="1.0" encoding="UTF-8"?><svg id="Line" xmlns="http://www.w3.org/2000/svg" viewBox="0 0 262 284.43"><defs><style>.cls-1{fill:#fff;stroke-width:0px;}</style></defs><g id="SquareFrame_6_Lines"><path class="cls-1" d="M235.91,128.08v139.43H26.17v-139.43c0-1.44.16-18.74.42-35.68.13-8.47.28-16.85.45-23.12.09-3.13.17-5.73.27-7.55.09-1.82.19-2.86.29-2.86s.19,1.04.29,2.86c.09,1.82.18,4.42.27,7.55.17,6.26.32,14.65.45,23.12.26,16.94.42,34.25.42,35.68v136.57h204.03v-136.57c0-1.44.16-18.74.42-35.68.13-8.47.28-16.85.45-23.12.09-3.13.18-5.73.27-7.55.09-1.82.19-2.86.29-2.86s.19,1.04.29,2.86c.09,1.82.18,4.42.27,7.55.17,6.26.32,14.65.45,23.12.26,16.94.42,34.25.42,35.68Z"/><path class="cls-1" d="M29.72,56.47c16.82-5.82,32.56-14.54,49-21.89,8.22-3.69,16.63-7.05,25.36-9.53,4.37-1.21,8.8-2.23,13.3-2.94,4.5-.67,9.05-1.03,13.62-1.07,4.56.04,9.11.41,13.62,1.07,4.5.7,8.93,1.72,13.3,2.94,8.73,2.48,17.14,5.85,25.36,9.53,16.44,7.35,32.18,16.07,49,21.89.15.05.7.26,1.58.58.87.29,2.05.69,3.44,1.16,1.39.47,3,.92,4.7,1.44,1.72.42,3.52.98,5.35,1.35,3.64.88,7.31,1.38,10.06,1.76,2.76.31,4.6.51,4.6.71,0,.18-1.85.36-4.67.39-2.81-.05-6.6-.25-10.37-.89-1.9-.24-3.76-.7-5.55-1.03-1.76-.43-3.44-.81-4.87-1.21-1.44-.42-2.66-.77-3.56-1.03-.9-.29-1.48-.48-1.63-.53-17.15-5.94-32.93-14.7-49.24-21.98-8.15-3.65-16.44-6.96-24.97-9.39-4.27-1.19-8.59-2.18-12.96-2.86-4.37-.65-8.78-1-13.18-1.04-4.41.04-8.81.39-13.18,1.04-4.37.68-8.69,1.67-12.96,2.86-8.53,2.43-16.82,5.74-24.97,9.39-16.3,7.28-32.09,16.04-49.24,21.98-.15.05-.72.24-1.63.53-.9.26-2.12.61-3.56,1.03-1.44.41-3.11.78-4.87,1.21-1.79.33-3.65.79-5.55,1.03-3.77.64-7.55.84-10.37.89C1.85,63.83,0,63.65,0,63.47c0-.21,1.85-.41,4.6-.71,2.75-.38,6.42-.88,10.06-1.76,1.83-.36,3.63-.92,5.35-1.35,1.7-.52,3.31-.97,4.7-1.44,1.39-.47,2.57-.87,3.44-1.16.87-.32,1.43-.52,1.58-.58Z"/><path class="cls-1" d="M30.65,246.3c17.15,5.94,32.93,14.7,49.24,21.98,8.15,3.65,16.44,6.96,24.97,9.39,4.27,1.19,8.59,2.18,12.96,2.86,4.37.65,8.78,1,13.18,1.04,4.41-.04,8.81-.39,13.18-1.04,4.37-.68,8.69-1.67,12.96-2.86,8.53-2.43,16.82-5.74,24.97-9.39,16.3-7.28,32.09-16.04,49.24-21.98.15-.05.73-.24,1.63-.53.9-.26,2.12-.61,3.56-1.03,1.44-.41,3.11-.78,4.87-1.21,1.79-.33,3.65-.79,5.55-1.03,3.77-.64,7.55-.84,10.37-.89,2.82.03,4.67.21,4.67.39,0,.21-1.85.41-4.6.71-2.75.38-6.42.88-10.06,1.76-1.83.36-3.63.92-5.35,1.35-1.7.52-3.31.97-4.7,1.44-1.39.47-2.57.87-3.44,1.16-.87.32-1.43.52-1.58.58-16.82,5.82-32.56,14.54-49,21.89-8.22,3.69-16.63,7.05-25.36,9.53-4.37,1.21-8.8,2.23-13.3,2.94-4.5.67-9.05,1.03-13.62,1.07-4.56-.04-9.11-.41-13.62-1.07-4.5-.7-8.93-1.72-13.3-2.94-8.73-2.48-17.14-5.85-25.36-9.53-16.44-7.35-32.18-16.07-49-21.89-.15-.05-.7-.26-1.58-.58-.87-.29-2.05-.69-3.44-1.16-1.38-.47-3-.92-4.7-1.44-1.72-.42-3.52-.98-5.35-1.35-3.64-.88-7.31-1.38-10.06-1.76C1.85,242.41,0,242.21,0,242c0-.18,1.85-.36,4.67-.39,2.81.05,6.6.25,10.37.89,1.9.24,3.76.7,5.55,1.03,1.76.43,3.44.81,4.87,1.21,1.44.42,2.66.77,3.56,1.03.9.29,1.48.48,1.63.53Z"/><path class="cls-1" d="M43.22,177.49c-1.4.05-3.05-.15-4.45-1.13-1.41-.97-2.17-2.48-2.58-3.82-.8-2.73-.84-5.32-.91-7.87-.05-5.08-.01-10.06-.02-15.1v-30.15s0-15.07,0-15.07v-11.3c.02-1.27.09-2.58.13-3.87.72-10.35,4.58-20.2,9.95-28.87.16-.33,2.68-3.96,5.59-7.13,1.44-1.6,2.99-3.06,4.21-4.08,1.24-1,2.13-1.57,2.25-1.43.14.15-.49.99-1.46,2.21-.95,1.24-2.23,2.86-3.43,4.57-2.43,3.4-4.58,7.06-4.73,7.38-5.18,8.35-8.85,17.79-9.52,27.56-.04,1.22-.11,2.42-.12,3.67v26.38s0,30.15,0,30.15c.01,5.01-.02,10.08.02,15.05.05,2.46.15,4.96.78,7.06.32,1.04.81,1.88,1.49,2.34.67.48,1.65.65,2.73.61.07-.01.4,0,.8-.03.39-.02.88-.14,1.41-.42,1.08-.53,2.19-2.13,2.65-4.01.49-1.86.49-3.93-.03-5.17-.25-.64-.62-.94-.99-1.04-.36-.09-.65-.04-.69-.15-.03-.07.15-.32.7-.43.54-.12,1.46.29,1.93,1.06,1.03,1.51,1.34,3.83,1.05,6.11-.16,1.14-.48,2.3-1.03,3.33-.54,1.03-1.32,1.94-2.2,2.53-.88.59-1.78.87-2.43.96-.63.1-.98.09-1.09.11Z"/><path class="cls-1" d="M218.87,174.64c1.08.04,2.06-.14,2.73-.61.68-.46,1.17-1.3,1.49-2.34.63-2.1.72-4.6.78-7.06.05-4.97.01-10.03.02-15.05v-56.52c-.02-1.24-.09-2.44-.12-3.67-.67-9.77-4.35-19.21-9.52-27.56-.15-.32-2.31-3.97-4.73-7.38-1.2-1.71-2.48-3.34-3.43-4.57-.97-1.21-1.6-2.06-1.46-2.21.13-.14,1.01.43,2.25,1.43,1.22,1.02,2.77,2.48,4.21,4.08,2.91,3.17,5.43,6.8,5.59,7.13,5.37,8.68,9.23,18.52,9.95,28.87.04,1.29.11,2.6.13,3.87v56.52c-.01,5.04.02,10.02-.02,15.1-.07,2.55-.11,5.13-.91,7.87-.41,1.34-1.17,2.84-2.58,3.82-1.41.98-3.05,1.17-4.45,1.13-.11-.02-.46-.01-1.09-.11-.65-.09-1.55-.38-2.43-.96-.88-.58-1.66-1.49-2.2-2.53-.55-1.03-.87-2.19-1.03-3.33-.29-2.28.01-4.6,1.04-6.11.48-.77,1.39-1.18,1.93-1.06.55.11.73.36.7.43-.04.11-.32.06-.69.15-.37.1-.74.41-.99,1.04-.51,1.24-.52,3.32-.03,5.17.47,1.88,1.57,3.49,2.66,4.01.53.28,1.02.4,1.41.42.4.03.73.01.8.03Z"/><path class="cls-1" d="M165.02,35.29c-3.13.7-6.18,1.72-9.18,2.88-2.97,1.24-5.87,2.65-8.66,4.26-2.78,1.64-5.46,3.43-8.01,5.41l-1.88,1.51-1.82,1.58-1.75,1.65-2.72,2.8-2.72-2.8-1.75-1.65-1.82-1.58-1.88-1.51c-2.55-1.97-5.23-3.77-8.01-5.41-2.79-1.61-5.69-3.02-8.66-4.26-2.99-1.17-6.05-2.18-9.18-2.88-.11-.04-.83-.24-1.85-.49-.5-.13-1.08-.28-1.73-.45-.63-.16-1.3-.27-1.96-.42-.63-.13-1.29-.28-1.96-.42-.63-.1-1.21-.2-1.71-.31-1-.21-1.68-.42-1.68-.62s.68-.36,1.72-.49c.52-.07,1.13-.12,1.79-.17.66-.03,1.36,0,2.07,0,.71.02,1.43.01,2.1.08.69.08,1.32.14,1.85.2,1.11.11,1.88.24,2,.28,3.29.74,6.49,1.8,9.62,3.02,3.1,1.3,6.12,2.76,9.02,4.44,2.89,1.7,5.67,3.57,8.33,5.62l1.96,1.57,1.9,1.65,1.84,1.73.72.73.72-.73,1.84-1.73,1.9-1.65,1.96-1.57c2.65-2.05,5.44-3.92,8.33-5.62,2.9-1.68,5.92-3.15,9.02-4.44,3.13-1.22,6.33-2.29,9.62-3.02.11-.04.89-.17,2-.28.53-.06,1.16-.13,1.85-.2.67-.07,1.39-.06,2.1-.08.71,0,1.41-.03,2.07,0,.66.05,1.27.11,1.79.17,1.04.13,1.72.29,1.72.49s-.68.41-1.68.62c-.5.1-1.09.21-1.71.31-.67.14-1.33.28-1.96.42-.67.15-1.34.25-1.96.42-.64.17-1.23.32-1.73.45-1.03.25-1.75.44-1.85.49Z"/></g></svg>