<?xml version="1.0" encoding="UTF-8"?><svg id="Line" xmlns="http://www.w3.org/2000/svg" viewBox="0 0 242.56 241.04"><defs><style>.cls-1{fill:#fff;stroke-width:0px;}</style></defs><g id="SquareFrame_2_Lines"><path class="cls-1" d="M223.67,198.97V37.94c0-.96.64-23.08,1.43-23.08s1.43,22.12,1.43,23.08v161.03c0,.96-.64,23.08-1.43,23.08s-1.43-22.12-1.43-23.08Z"/><path class="cls-1" d="M18.89,37.94v161.03c0,.96-.64,23.08-1.43,23.08s-1.43-22.12-1.43-23.08V37.94c0-.96.64-23.08,1.43-23.08s1.43,22.12,1.43,23.08Z"/><path class="cls-1" d="M111.78,233.82c-1.41-.88-2.94-1.49-4.49-1.86-.39-.07-.78-.19-1.17-.22l-1.18-.08c-.85-.03-1.77,0-2.65-.01h-63.53c-.11,0-.16-.14-.25-.21l-.46-.49-.53-.56c-2.34-2.39-5.24-4.16-8.44-5.24-.21-.1-2.94-1.15-5.82-1.74-2.86-.66-5.79-.95-5.79-1.36h0c0-.37,2.96-.81,6.05-.64,1.54.05,3.11.28,4.31.51,1.2.25,2.05.48,2.17.54,3.56,1.19,6.91,3.22,9.55,5.93l.39.41h0s.91,0,.91,0h61.44c.9,0,1.76-.01,2.69.01l1.48.1c.49.04.97.18,1.45.27,1.91.45,3.72,1.2,5.34,2.2.13.05.85.57,1.81,1.35.94.8,2.1,1.89,3.1,3.07,2.03,2.35,3.46,5.02,3.12,5.24-.31.21-2.27-1.96-4.54-3.81-1.12-.94-2.31-1.78-3.24-2.39-.95-.58-1.62-.97-1.73-1.02Z"/><path class="cls-1" d="M129.31,231.37c1.62-1,3.43-1.75,5.34-2.2.48-.09.96-.22,1.45-.27l1.48-.1c.93-.03,1.79,0,2.69-.01h62.36,0s.39-.41.39-.41c2.64-2.71,5.99-4.74,9.55-5.93.12-.05.97-.29,2.17-.54,1.21-.23,2.77-.45,4.31-.51,3.09-.17,6.06.27,6.05.64h0c0,.42-2.93.7-5.79,1.36-2.88.6-5.6,1.64-5.82,1.74-3.2,1.07-6.1,2.84-8.44,5.24l-.53.56-.46.49c-.08.06-.14.2-.25.21h-63.53c-.88,0-1.8-.01-2.65.01l-1.18.08c-.39.03-.78.15-1.17.22-1.55.37-3.08.98-4.49,1.86-.11.04-.78.44-1.73,1.02-.93.61-2.12,1.45-3.24,2.39-2.26,1.85-4.23,4.02-4.54,3.81-.35-.22,1.08-2.89,3.12-5.24,1-1.19,2.16-2.27,3.1-3.07.97-.77,1.69-1.29,1.81-1.35Z"/><path class="cls-1" d="M88.39,6.36c.55.66,1.06,1.41,1.33,2.42.05.27.08.55.11.83,0,.24-.01.44-.02.66-.04.44-.11.87-.24,1.3-.47,1.74-1.8,3.25-3.4,3.98-.79.38-1.64.59-2.47.68-.89.08-1.55.05-2.24.06H27.06c-.4,0-9.6-.64-9.6-1.43s9.2-1.43,9.6-1.43h54.4c.7,0,1.43.02,1.94-.04.55-.06,1.08-.2,1.55-.42.94-.44,1.61-1.22,1.88-2.18.07-.24.11-.49.14-.75,0-.13.02-.28.01-.38-.02-.07-.03-.14-.03-.21-.09-.34-.36-.79-.69-1.2-.06-.05-.35-.47-.92-.96-.56-.49-1.43-1-2.28-1.1-.84-.14-1.67.25-2.2.84-.31.25-.47.56-.66.74-.18.19-.32.29-.42.26-.09-.03-.13-.19-.12-.47.03-.27.04-.69.27-1.13.17-.46.52-.98,1.05-1.43.28-.19.57-.44.93-.55.18-.06.36-.13.54-.19.18-.03.37-.06.56-.08,1.52-.17,2.91.39,3.83.95.94.57,1.49,1.16,1.58,1.24Z"/><path class="cls-1" d="M156.32,8.24c-.34.41-.6.85-.69,1.2,0,.07,0,.14-.03.21,0,.11.01.26.01.38.03.26.07.51.14.75.27.97.94,1.74,1.88,2.18.47.22,1,.36,1.55.42.5.06,1.24.04,1.94.04h54.4c.4,0,9.6.64,9.6,1.43s-9.2,1.43-9.6,1.43h-54.4c-.7,0-1.36.03-2.24-.06-.83-.09-1.67-.3-2.47-.68-1.6-.73-2.93-2.24-3.4-3.98-.12-.43-.2-.87-.24-1.3,0-.22-.03-.42-.02-.66.02-.28.06-.55.11-.83.27-1.01.78-1.76,1.33-2.42.09-.08.64-.67,1.58-1.24.92-.56,2.31-1.11,3.83-.95.19.02.37.05.56.08.18.06.36.13.54.19.36.1.65.35.93.55.53.45.88.97,1.05,1.43.23.45.24.86.27,1.13.01.28-.02.44-.12.47-.09.03-.24-.07-.42-.26-.19-.18-.35-.49-.66-.74-.53-.59-1.36-.98-2.2-.84-.85.1-1.72.61-2.28,1.1-.57.49-.86.91-.92.96Z"/><path class="cls-1" d="M109.83,217.05c-1.85-1.03-3.84-1.85-5.92-2.15-.51-.13-1.04-.16-1.56-.18-.54-.02-1.02-.09-1.6-.09H6.85c-.67-.01-1.36-.1-2.04-.26-1.34-.36-2.68-1.11-3.59-2.29-.11-.14-1.05-1.33-1.2-3.21-.03-.23-.01-.47-.02-.71,0-.24.07-.6.12-.9.07-.31.2-.56.31-.84.13-.27.29-.49.44-.74.66-.92,1.53-1.63,2.5-2.16.97-.52,2.07-.84,3.15-.78.27.04.54.04.79.12.25.08.5.17.73.26.43.27.82.52,1.07.86.3.3.44.64.58.93.16.28.21.55.24.77.08.44.08.68-.02.71-.09.03-.27-.16-.51-.48-.11-.16-.24-.37-.44-.55-.18-.19-.36-.42-.62-.57-.92-.82-2.6-.54-3.92.45-.66.48-1.23,1.11-1.57,1.72-.06.15-.16.3-.2.44-.02.13-.09.27-.09.38.02.12-.02.16,0,.33.02.15.02.31.06.45.22,1.13.77,1.67.83,1.76.48.63,1.23,1.07,2.07,1.3.43.1.88.16,1.34.17h1.69s6.83,0,6.83,0h85.36c.56,0,1.21.06,1.81.09.61.03,1.23.07,1.82.22,2.44.35,4.74,1.3,6.85,2.48.32.12,3.86,2.44,6.3,5.59,2.55,3.06,4.12,6.6,3.75,6.78-.32.17-2.46-2.89-5.22-5.41-2.68-2.62-5.96-4.38-6.23-4.48Z"/><path class="cls-1" d="M131.33,214.57c2.11-1.17,4.41-2.12,6.85-2.48.6-.14,1.21-.18,1.82-.22.6-.03,1.25-.1,1.81-.09h93.88c.46,0,.91-.07,1.34-.17.84-.23,1.59-.66,2.07-1.3.06-.09.61-.63.83-1.76.04-.14.04-.29.06-.45.02-.16-.02-.21,0-.33,0-.11-.07-.25-.09-.38-.04-.14-.14-.29-.2-.44-.34-.61-.91-1.24-1.57-1.72-1.32-.99-3-1.27-3.92-.45-.26.15-.44.38-.62.57-.2.18-.32.38-.44.55-.23.32-.42.51-.51.48-.09-.03-.1-.28-.02-.71.04-.22.09-.49.24-.77.14-.29.28-.63.58-.93.25-.34.64-.59,1.07-.86.23-.09.47-.18.73-.26.25-.08.52-.08.79-.12,1.09-.06,2.19.27,3.15.78.97.53,1.84,1.24,2.5,2.16.15.25.32.47.44.74.11.28.24.54.31.84.05.3.13.66.12.9,0,.24,0,.48-.02.71-.15,1.89-1.08,3.08-1.2,3.21-.91,1.18-2.25,1.94-3.59,2.29-.68.17-1.36.25-2.04.26h-1.72s-6.83,0-6.83,0h-85.36c-.58,0-1.06.06-1.6.09-.52.03-1.05.05-1.56.18-2.08.29-4.06,1.12-5.92,2.15-.27.1-3.55,1.86-6.23,4.48-2.76,2.52-4.9,5.58-5.22,5.41-.38-.19,1.2-3.73,3.75-6.78,2.44-3.15,5.98-5.47,6.3-5.59Z"/><path class="cls-1" d="M90.23,10.01c.54,2.86,2.22,5.51,4.44,7.59,1.12,1.04,2.36,1.97,3.68,2.79,1.34.78,2.72,1.52,4.19,2.09,5.84,2.39,12.33,3.17,18.74,3.2,6.41-.04,12.9-.81,18.74-3.2,1.47-.57,2.85-1.31,4.19-2.09,1.32-.82,2.56-1.75,3.68-2.79,2.22-2.08,3.9-4.73,4.44-7.59.04-.18.7-2.67.06-5.14-.52-2.5-2.34-4.53-2.05-4.83.11-.13.78.16,1.59.89.81.71,1.76,1.88,2.37,3.28.63,1.39.91,2.94.95,4.15.05,1.21-.08,2.06-.11,2.19-.69,3.62-2.75,6.75-5.29,9.14-1.28,1.2-2.68,2.24-4.15,3.15-1.49.87-3.01,1.68-4.6,2.3-6.35,2.59-13.15,3.37-19.82,3.41-6.67-.04-13.48-.83-19.82-3.41-1.59-.62-3.11-1.43-4.6-2.3-1.47-.91-2.87-1.96-4.15-3.15-2.54-2.39-4.6-5.52-5.29-9.14-.03-.12-.16-.98-.11-2.19.04-1.2.32-2.76.95-4.15.61-1.4,1.56-2.57,2.37-3.28.81-.73,1.47-1.02,1.59-.89.28.3-1.53,2.34-2.05,4.83-.63,2.47.02,4.96.06,5.14Z"/><path class="cls-1" d="M19.04,20.28c3.78,1.87,7.87,3.28,12,4.51,4.13,1.23,8.34,2.25,12.58,3.16,8.48,1.82,17.06,3.2,25.68,4.33,8.62,1.13,17.28,2,25.95,2.64,8.67.63,17.36,1.04,26.04,1.05,8.67-.01,17.37-.42,26.04-1.05,8.67-.64,17.33-1.51,25.95-2.64,8.62-1.13,17.2-2.51,25.68-4.33,4.24-.91,8.45-1.94,12.58-3.16,4.13-1.23,8.21-2.64,12-4.51.26-.14,2.09-.93,4.32-2.46,1.1-.77,2.26-1.77,3.06-3.01.39-.62.64-1.3.72-2.02.07-.35-.03-.74-.02-1.12-.01-.39-.19-.72-.26-1.09-.54-1.4-1.88-2.46-3.31-3.1-1.44-.65-2.96-.95-4.26-1.06-1.3-.11-2.39-.02-3.13.12-.73.16-1.07.42-1.16.34-.07-.04.2-.51.97-.88.76-.35,1.92-.63,3.34-.69,1.41-.05,3.09.08,4.83.68,1.7.59,3.6,1.76,4.57,3.77.17.51.42,1.02.49,1.55.05.54.2,1.05.14,1.61-.04,1.1-.38,2.17-.86,3.05-1,1.77-2.34,3-3.54,3.94-2.43,1.85-4.33,2.75-4.61,2.9-4.04,2-8.24,3.43-12.46,4.7-4.23,1.25-8.5,2.29-12.79,3.22-8.58,1.84-17.23,3.23-25.91,4.37-8.68,1.13-17.39,2.01-26.11,2.65-8.73.63-17.47,1.05-26.25,1.06-8.77-.01-17.52-.43-26.25-1.06-8.73-.64-17.43-1.52-26.11-2.65-8.68-1.14-17.33-2.53-25.91-4.37-4.29-.93-8.56-1.96-12.79-3.22-4.22-1.26-8.42-2.7-12.46-4.7-.28-.16-2.18-1.05-4.61-2.9-1.2-.94-2.54-2.18-3.54-3.94-.48-.89-.82-1.95-.86-3.05-.06-.56.09-1.07.14-1.61.07-.53.32-1.04.49-1.55.97-2.02,2.87-3.19,4.57-3.77,1.74-.6,3.42-.74,4.83-.68,1.41.06,2.58.34,3.34.69.77.37,1.04.85.97.88-.09.08-.43-.18-1.16-.34-.74-.14-1.83-.23-3.13-.12-1.29.11-2.82.41-4.26,1.06-1.43.64-2.77,1.7-3.31,3.1-.07.37-.24.71-.26,1.09,0,.38-.1.77-.02,1.12.07.71.33,1.39.72,2.02.8,1.24,1.96,2.25,3.06,3.01,2.22,1.53,4.06,2.31,4.32,2.46Z"/></g></svg>