<?xml version="1.0" encoding="UTF-8"?><svg id="Line" xmlns="http://www.w3.org/2000/svg" viewBox="0 0 240.06 248.86"><defs><style>.cls-1{fill:#fff;stroke-width:0px;}</style></defs><g id="SquareFrame_3_Lines"><path class="cls-1" d="M225.17,95.06v139.69H14.88V95.06c0-1.44.16-18.78.42-35.76.13-8.49.28-16.89.45-23.17.09-3.14.17-5.75.27-7.57s.19-2.86.29-2.86.19,1.04.29,2.86.18,4.43.27,7.57c.17,6.28.32,14.68.45,23.17.26,16.98.42,34.32.42,35.76v136.83h204.58V95.06c0-1.44.16-18.78.42-35.76.13-8.49.28-16.89.45-23.17.09-3.14.17-5.75.27-7.57s.19-2.86.29-2.86.19,1.04.29,2.86.18,4.43.27,7.57c.17,6.28.32,14.68.45,23.17.26,16.98.42,34.32.42,35.76Z"/><path class="cls-1" d="M18.65,219.55c4.46-1.32,9.06-1.7,13.59-1.75,4.57-.04,9.16.6,13.57,1.76,4.42,1.16,8.63,2.92,12.7,4.87,4.05,1.98,7.95,4.17,11.84,6.34,7.74,4.35,15.54,8.51,23.88,11.19,8.31,2.74,17.05,4.03,25.81,4.05,8.76-.01,17.5-1.3,25.81-4.05,8.34-2.69,16.14-6.85,23.88-11.19,3.88-2.17,7.78-4.36,11.84-6.34,4.06-1.95,8.27-3.71,12.7-4.87,4.41-1.16,9-1.8,13.57-1.76,4.53.06,9.13.43,13.59,1.75.16.04.76.21,1.66.57.45.17.99.36,1.57.64.59.26,1.24.56,1.91.95,1.35.75,2.86,1.74,4.23,3.09,1.37,1.33,2.61,3,3.37,4.88.78,1.87,1.11,3.91.92,5.77-.15,1.86-.76,3.53-1.55,4.77-.78,1.25-1.72,2.07-2.45,2.49-.72.44-1.21.51-1.24.45-.13-.2,1.61-1.06,2.71-3.47,1.18-2.33,1.36-6.1-.24-9.18-1.52-3.13-4.51-5.31-6.98-6.47-.61-.32-1.2-.56-1.75-.77-.53-.23-1.02-.39-1.44-.52-.83-.29-1.39-.43-1.53-.47-4.08-1.22-8.45-1.58-12.8-1.64-4.33-.04-8.63.56-12.82,1.66-8.4,2.23-16.12,6.61-23.87,10.94-7.75,4.35-15.75,8.63-24.38,11.41-8.6,2.84-17.67,4.18-26.7,4.19-9.03,0-18.11-1.35-26.7-4.19-8.63-2.78-16.63-7.06-24.38-11.41-7.75-4.33-15.47-8.71-23.87-10.94-4.19-1.1-8.49-1.7-12.82-1.66-4.34.05-8.71.42-12.8,1.64-.15.04-.7.18-1.53.47-.42.13-.91.29-1.44.52-.54.21-1.14.45-1.75.77-2.47,1.16-5.46,3.34-6.98,6.47-1.61,3.08-1.42,6.85-.24,9.18,1.11,2.42,2.84,3.27,2.71,3.47-.03.07-.52,0-1.24-.45-.72-.43-1.67-1.24-2.45-2.49-.79-1.24-1.4-2.9-1.55-4.77-.18-1.86.15-3.9.92-5.77.76-1.89,2-3.56,3.37-4.88,1.37-1.35,2.87-2.34,4.23-3.09.67-.39,1.32-.7,1.91-.95.58-.28,1.12-.48,1.57-.64.9-.36,1.5-.53,1.66-.57Z"/><path class="cls-1" d="M11.43,31.37c4.09,3.06,8.61,5.63,13.23,7.96,1.16.58,2.33,1.14,3.5,1.68l.43.2.16-.45c1.05-2.51,2.63-4.88,4.35-6.96,1.73-2.1,3.64-4.02,5.67-5.76.99-.91,2.06-1.71,3.1-2.55,1.08-.79,2.13-1.62,3.23-2.36,4.38-3.03,8.99-5.69,13.73-8.05,9.5-4.69,19.5-8.3,29.75-10.9C98.85,1.61,109.39.03,120.03,0c10.63.03,21.18,1.61,31.44,4.18,10.25,2.6,20.25,6.21,29.75,10.9,4.75,2.36,9.35,5.01,13.73,8.05,1.11.74,2.16,1.57,3.23,2.36,1.04.85,2.11,1.65,3.1,2.55,2.03,1.74,3.94,3.66,5.67,5.76,1.71,2.08,3.3,4.44,4.35,6.96l.16.45.43-.2c1.17-.54,2.34-1.1,3.5-1.68,4.62-2.33,9.14-4.9,13.23-7.96.14-.11.69-.51,1.54-1.15.8-.68,1.94-1.55,3.09-2.72.63-.55,1.15-1.24,1.76-1.92.33-.33.53-.74.8-1.12.24-.4.56-.76.74-1.21.95-1.7,1.52-3.71,1.41-5.67-.13-1.95-1.12-3.75-2.59-4.82-1.47-1.1-3.31-1.42-4.83-1.28-1.53.13-2.8.55-3.66.89-.85.38-1.37.56-1.42.48s.36-.43,1.16-.99c.81-.53,2.09-1.16,3.79-1.48,1.68-.33,3.9-.18,5.85,1.06,1.96,1.19,3.42,3.49,3.71,5.94.29,2.46-.31,4.91-1.29,6.92-.19.54-.53.99-.8,1.47-.29.46-.54.96-.87,1.34-.64.8-1.22,1.61-1.87,2.23-1.22,1.34-2.39,2.3-3.22,3.06-.88.7-1.44,1.14-1.59,1.26-4.31,3.21-8.94,5.84-13.67,8.23-1.19.59-2.38,1.17-3.59,1.72l-1.36.61-1.79.77-.11.05s-.03-.06-.04-.08l-.07-.2-.14-.4-.29-.8-.58-1.61c-.97-2.34-2.35-4.36-3.95-6.33-1.6-1.94-3.4-3.76-5.34-5.42-.94-.86-1.97-1.63-2.96-2.45-1.04-.76-2.05-1.56-3.12-2.27-4.24-2.93-8.73-5.53-13.37-7.83-9.3-4.59-19.12-8.14-29.18-10.69-10.06-2.53-20.4-4.07-30.74-4.1-10.34.03-20.68,1.57-30.74,4.1-10.06,2.55-19.89,6.1-29.18,10.69-4.64,2.3-9.13,4.9-13.37,7.83-1.07.72-2.08,1.51-3.12,2.27-.99.81-2.02,1.58-2.96,2.45-1.94,1.67-3.74,3.48-5.34,5.42-1.6,1.96-2.98,3.99-3.95,6.33l-.58,1.61-.29.8-.15.4-.07.2s-.02.08-.04.08l-.11-.05-1.79-.77-1.36-.61c-1.21-.55-2.4-1.13-3.59-1.72-4.73-2.39-9.36-5.02-13.67-8.23-.15-.12-.71-.56-1.59-1.26-.83-.76-2.01-1.72-3.22-3.06-.65-.62-1.22-1.43-1.87-2.23-.34-.38-.58-.88-.87-1.34-.27-.48-.61-.93-.8-1.47C.38,22.28-.22,19.83.07,17.37c.29-2.46,1.76-4.76,3.71-5.94,1.95-1.24,4.17-1.38,5.85-1.06,1.7.32,2.98.96,3.79,1.48.8.56,1.22.91,1.16.99s-.58-.1-1.42-.48c-.86-.34-2.13-.77-3.66-.89-1.52-.14-3.37.18-4.83,1.28-1.47,1.07-2.46,2.87-2.59,4.82-.11,1.96.46,3.97,1.41,5.67.18.45.5.82.74,1.21.27.38.47.78.8,1.12.61.68,1.13,1.37,1.76,1.92,1.15,1.17,2.3,2.04,3.09,2.72.85.64,1.4,1.04,1.54,1.15Z"/><path class="cls-1" d="M39.42,24.27h161.22c.96,0,23.11.64,23.11,1.43s-22.15,1.43-23.11,1.43H39.42c-.96,0-23.11-.64-23.11-1.43s22.15-1.43,23.11-1.43Z"/></g></svg>