<?xml version="1.0" encoding="UTF-8"?><svg id="Line" xmlns="http://www.w3.org/2000/svg" viewBox="0 0 265.57 260.43"><defs><style>.cls-1{fill:#fff;stroke-width:0px;}</style></defs><g id="SquareFrame_5_Lines"><path class="cls-1" d="M237.81,121.12v139.3H27.77V121.12c0-1.44.16-18.74.42-35.69.13-8.47.28-16.85.45-23.12.09-3.13.17-5.73.27-7.55.09-1.82.19-2.86.29-2.86s.19,1.04.29,2.86c.09,1.82.18,4.42.27,7.55.17,6.26.32,14.65.45,23.12.26,16.94.42,34.25.42,35.69v136.45h204.32V121.12c0-1.44.16-18.74.42-35.69.13-8.47.28-16.85.45-23.12.09-3.13.17-5.73.27-7.55.09-1.82.19-2.86.29-2.86s.19,1.04.29,2.86c.09,1.82.18,4.42.27,7.55.17,6.26.32,14.65.45,23.12.26,16.94.42,34.25.42,35.69Z"/><path class="cls-1" d="M98.7,36.98c-10.41.74-20.81,1.4-31.14,2.48-5.16.54-10.31,1.19-15.4,2.1-5.06.93-10.14,2.04-14.75,3.99-2.26.99-4.48,2.23-5.85,3.94-.68.85-1.09,1.78-1.16,2.78l-.03.37v.49s0,.98,0,.98v1.95s.12,15.65.12,15.65c.06,10.44.03,20.88-.17,31.32-.41,20.88-1.34,41.79-3.81,62.59-1.26,10.39-2.91,20.77-5.52,30.97-1.31,5.1-2.88,10.15-4.96,15.05-2.09,4.87-4.67,9.69-8.6,13.62-.14.14-.7.64-1.59,1.38-.24.17-.49.36-.77.56-.12.09-.25.18-.38.28.04-.03,0,0,0-.01l-.08.02s.12.13.18.19c.09.08.18.17.28.26.32.26.64.53.97.8.74.61,1.53,1.23,2.34,1.86,1.64,1.26,3.39,2.55,5.21,3.72,3.6,2.4,7.44,4.34,10.46,5.35,3.02,1.04,5.17,1.13,5.17,1.36.02.17-2.21.46-5.47-.29-3.24-.72-7.37-2.45-11.21-4.7-1.94-1.1-3.81-2.33-5.55-3.53-.87-.6-1.71-1.2-2.49-1.79-.2-.15-.39-.29-.58-.43-.22-.17-.31-.22-.67-.51-.62-.49-1.22-.96-1.79-1.42-.29-.23-.58-.46-.86-.68l-.42-.33-.1-.08-.05-.04.06-.04.24-.15c.64-.41,1.26-.8,1.84-1.17.3-.2.56-.34.88-.57.14-.11.27-.21.4-.31.23-.18.45-.35.64-.5.75-.68,1.23-1.12,1.35-1.25,3.49-3.47,5.98-8.01,7.97-12.69,2-4.7,3.54-9.64,4.82-14.64,2.56-10.01,4.19-20.29,5.45-30.6,2.46-20.64,3.39-41.48,3.79-62.3.19-10.41.22-20.83.17-31.26l-.11-15.65v-1.96s-.01-.98-.01-.98v-.49s.04-.6.04-.6c.11-1.61.82-3.15,1.77-4.33,1.94-2.38,4.48-3.68,6.95-4.79,5.01-2.11,10.21-3.23,15.39-4.18,5.19-.92,10.39-1.58,15.6-2.13,10.42-1.09,20.84-1.74,31.24-2.49.74-.08,9.7-.45,18.41-1.19,4.35-.39,8.65-.89,11.71-1.72,1.52-.42,2.75-.91,3.38-1.5.66-.57.67-1.14.8-1.13.06-.04.28.65-.37,1.52-.63.85-1.91,1.55-3.45,2.16-3.12,1.21-7.45,2.02-11.82,2.67-8.75,1.26-17.7,1.95-18.44,2.03Z"/><path class="cls-1" d="M167.08,34.13c10.4.74,20.82,1.4,31.24,2.49,5.21.55,10.41,1.2,15.6,2.13,5.18.95,10.37,2.07,15.39,4.18,2.47,1.1,5.01,2.41,6.95,4.79.95,1.18,1.66,2.72,1.77,4.33l.04.6v.49s0,.98,0,.98v1.96s-.12,15.65-.12,15.65c-.06,10.42-.03,20.84.17,31.26.41,20.82,1.34,41.65,3.79,62.3,1.25,10.31,2.89,20.59,5.45,30.6,1.29,5,2.82,9.94,4.82,14.64,2,4.68,4.48,9.23,7.97,12.69.12.13.6.57,1.35,1.25.2.15.41.32.64.5.13.1.26.2.4.31.32.23.58.38.88.57.58.37,1.19.76,1.84,1.17l.24.15.06.04s-.03.03-.05.04l-.1.08-.42.33c-.28.22-.57.45-.86.68-.58.46-1.17.93-1.79,1.42-.36.29-.45.35-.67.51-.19.14-.39.29-.58.43-.78.59-1.62,1.18-2.49,1.79-1.74,1.2-3.61,2.43-5.55,3.53-3.85,2.25-7.97,3.98-11.21,4.7-3.25.75-5.49.46-5.47.29,0-.22,2.15-.31,5.17-1.36,3.02-1.01,6.85-2.95,10.46-5.36,1.81-1.18,3.57-2.47,5.21-3.72.82-.63,1.61-1.25,2.34-1.86.33-.27.66-.54.97-.8.09-.09.19-.18.28-.26.06-.07.21-.18.18-.19l-.08-.02s-.04-.02,0,.01c-.13-.1-.26-.19-.39-.28-.28-.2-.53-.39-.77-.56-.89-.74-1.45-1.24-1.59-1.38-3.93-3.92-6.52-8.75-8.6-13.62-2.08-4.9-3.65-9.95-4.96-15.05-2.61-10.2-4.25-20.58-5.52-30.97-2.48-20.8-3.41-41.7-3.81-62.59-.19-10.44-.22-20.89-.17-31.32l.11-15.65v-1.95s0-.98,0-.98v-.49s-.03-.37-.03-.37c-.07-1-.48-1.93-1.16-2.78-1.37-1.71-3.58-2.95-5.85-3.94-4.61-1.95-9.69-3.06-14.75-3.99-5.08-.91-10.23-1.55-15.4-2.1-10.33-1.08-20.73-1.73-31.14-2.48-.74-.08-9.69-.77-18.44-2.03-4.37-.65-8.7-1.47-11.82-2.67-1.54-.61-2.82-1.31-3.45-2.16-.66-.86-.44-1.56-.37-1.52.13,0,.14.56.8,1.13.63.58,1.86,1.08,3.38,1.5,3.06.83,7.36,1.34,11.71,1.72,8.71.74,17.67,1.11,18.41,1.19Z"/><path class="cls-1" d="M245.63,39.33c2.36,3.08,3.64,6.64,4.55,10.18.89,3.56,1.35,7.16,1.63,10.76.45,7.21.11,14.41-.78,21.52l-.34,2.67-.41,2.65c-.26,1.77-.59,3.53-.92,5.29-.29,1.76-.78,3.51-1.17,5.26-.37,1.77-.89,3.48-1.41,5.2-2.04,6.88-4.58,13.58-7.39,20.13-5.54,13.13-11.99,25.81-17,38.97-2.46,6.57-4.61,13.31-5.31,20.16-.08.86-.18,1.71-.24,2.57l-.07,2.62.02,2.61.1,2.61c.19,3.47.65,6.92,1.48,10.26.06.24.37,1.81,1.07,3.95.69,2.14,1.82,4.85,3.47,7.15.82,1.15,1.78,2.18,2.8,2.94,1.01.77,2.13,1.21,3.04,1.18.46,0,.83-.18,1.13-.37.28-.23.5-.5.63-.76.15-.25.23-.48.3-.64.07-.16.13-.24.18-.24s.08.1.11.28c.03.18.04.45-.05.8-.06.35-.25.77-.59,1.18-.36.38-.91.74-1.56.85-1.3.25-2.78-.18-4.06-.94-1.3-.76-2.49-1.83-3.52-3.03-2.06-2.4-3.48-5.26-4.36-7.5-.9-2.25-1.31-3.91-1.37-4.16-.88-3.55-1.36-7.17-1.56-10.78l-.11-2.71-.02-2.71.07-2.7c.06-.91.17-1.82.25-2.73.75-7.29,2.98-14.2,5.48-20.89,5.1-13.38,11.55-26.05,17.05-39.07,2.78-6.49,5.28-13.09,7.28-19.82.5-1.68,1.01-3.36,1.37-5.07l.6-2.55.3-1.28.24-1.3c.32-1.73.66-3.46.91-5.2l.4-2.61.33-2.61c.87-6.97,1.19-14.01.76-20.97-.27-3.47-.72-6.93-1.55-10.26-.83-3.31-2.06-6.57-4.04-9.13-.05-.06-.19-.25-.42-.54-.11-.15-.24-.32-.39-.51-.17-.17-.33-.37-.55-.56-.84-.81-2.15-1.83-3.76-2.63-.8-.4-1.68-.75-2.58-.96l-.68-.13-.68-.06h-.67c-.09.02-.25.05-.29.05h-.12c-.33.06-.83.18-1.09.61-.12.21-.08.48.07.63.16.12.37.09.57.11.35-.01.73-.1,1.1-.27.18-.08.35-.19.48-.34.03-.04.06-.07.08-.12.01-.1,0-.04.04-.07-.02,0,0,0,0,0,0-.01-.03-.03-.03-.05-.18-.19-.56-.33-.77-.39-.22-.08-.35-.15-.35-.21,0-.06.13-.1.39-.14.13-.02.28-.02.48,0,.19.01.42.04.7.22.07.06.14.1.2.19.05.1.1.21.13.33,0,.26-.03.35-.1.52-.15.3-.41.59-.77.83-.7.5-1.69.85-2.66.96-.54,0-1.03.01-1.47-.28-.45-.33-.74-.96-.69-1.55.04-.6.34-1.11.79-1.57.22-.24.53-.44.84-.65.35-.18.73-.33,1.11-.5.19-.08.41-.13.63-.18l.48-.11.9-.09h.89c.29.04.58.07.87.1,1.15.17,2.21.51,3.18.91,1.95.8,3.51,1.86,4.61,2.81.28.23.52.48.74.68.19.22.36.42.5.59.29.34.47.56.53.63Z"/><path class="cls-1" d="M22.21,41.07c-1.98,2.57-3.2,5.82-4.04,9.13-.83,3.33-1.28,6.79-1.55,10.26-.43,6.96-.11,14,.76,20.97l.33,2.61.4,2.61c.25,1.74.58,3.47.91,5.2l.24,1.3.3,1.28.6,2.55c.36,1.71.87,3.39,1.37,5.07,2,6.72,4.5,13.32,7.28,19.82,5.49,13.02,11.94,25.7,17.05,39.07,2.5,6.69,4.73,13.6,5.48,20.89.08.91.19,1.82.25,2.73l.07,2.7-.02,2.71-.11,2.71c-.2,3.61-.68,7.23-1.56,10.78-.07.25-.48,1.91-1.37,4.16-.88,2.25-2.3,5.1-4.36,7.5-1.03,1.2-2.21,2.27-3.52,3.03-1.28.76-2.76,1.19-4.06.94-.65-.12-1.2-.47-1.56-.85-.35-.41-.53-.83-.59-1.18-.08-.35-.07-.62-.05-.8.02-.18.06-.28.11-.28s.11.08.18.24c.06.16.15.39.3.64.13.26.35.53.63.76.31.2.67.37,1.13.37.91.03,2.03-.41,3.04-1.18,1.03-.76,1.98-1.8,2.8-2.94,1.66-2.3,2.78-5.01,3.47-7.15.7-2.14,1.01-3.72,1.07-3.95.83-3.34,1.29-6.78,1.48-10.26l.1-2.61.02-2.61-.07-2.62c-.06-.86-.16-1.71-.24-2.57-.7-6.85-2.85-13.59-5.31-20.16-5.01-13.16-11.46-25.84-17-38.97-2.81-6.55-5.35-13.25-7.39-20.13-.51-1.72-1.03-3.44-1.41-5.2-.38-1.75-.88-3.5-1.17-5.26-.33-1.76-.67-3.52-.92-5.29l-.41-2.65-.34-2.67c-.89-7.11-1.22-14.31-.78-21.52.28-3.6.75-7.21,1.63-10.76.9-3.54,2.19-7.1,4.55-10.18.06-.07.24-.29.53-.63.14-.17.31-.36.5-.59.22-.21.46-.46.74-.68,1.1-.94,2.66-2.01,4.61-2.81.97-.4,2.04-.74,3.18-.91.29-.03.58-.06.87-.09h.89s.9.08.9.08l.48.11c.22.04.44.1.63.18.38.17.76.33,1.11.5.31.21.62.41.84.65.46.46.75.97.79,1.57.05.59-.24,1.22-.69,1.55-.44.29-.93.28-1.47.28-.97-.11-1.95-.46-2.66-.96-.36-.24-.62-.53-.77-.83-.08-.17-.11-.26-.1-.52.03-.12.08-.23.13-.33.06-.08.13-.13.2-.19.28-.18.51-.21.7-.22.19-.02.35-.02.48,0,.25.03.39.08.39.14,0,.06-.12.13-.35.21-.21.07-.59.2-.77.39,0,.02-.04.04-.03.05.01.01.03,0,0,0,.03.03.03-.03.04.07.02.06.06.08.08.12.13.14.3.26.48.34.36.17.75.26,1.1.27.2-.01.41.02.57-.11.15-.15.18-.42.07-.63-.26-.43-.76-.56-1.09-.61h-.12s-.2-.03-.29-.04h-.67s-.68.06-.68.06l-.68.13c-.9.21-1.78.56-2.58.96-1.61.8-2.92,1.82-3.76,2.63-.22.2-.38.4-.55.56-.15.2-.28.37-.39.51-.23.29-.37.48-.42.54Z"/></g></svg>