<?xml version="1.0" encoding="UTF-8"?><svg id="Line" xmlns="http://www.w3.org/2000/svg" viewBox="0 0 257.79 250.24"><defs><style>.cls-1{fill:#fff;stroke-width:0px;}</style></defs><g id="SquareFrame_1_Lines"><path class="cls-1" d="M231.13,212.66V36.66c0-1.05.64-25.23,1.43-25.23h0c.79,0,1.43,24.18,1.43,25.23v176.01c0,1.05-.64,25.23-1.43,25.23h0c-.79,0-1.43-24.18-1.43-25.23Z"/><path class="cls-1" d="M26.65,36.66v176.01c0,1.05-.64,25.23-1.43,25.23s-1.43-24.18-1.43-25.23V36.66c0-1.05.64-25.23,1.43-25.23s1.43,24.18,1.43,25.23Z"/><path class="cls-1" d="M111.47,250.23c-5.06-.14-10.13-.22-15.19-.5l-7.59-.36-7.59-.52c-10.11-.78-20.23-1.73-30.26-3.4-2.51-.38-5.01-.91-7.51-1.35-2.5-.46-4.98-1.09-7.47-1.63-2.48-.61-4.94-1.3-7.4-2-2.43-.82-4.89-1.52-7.27-2.53-4.77-1.88-9.51-4.11-13.64-7.46-.99-.89-2.05-1.69-2.91-2.75-.44-.51-.93-.98-1.32-1.54l-1.15-1.7c-1.39-2.37-2.25-5.16-2.16-7.98,0-.09.03-.46.06-1.06.11-.57.25-1.34.48-2.22.52-1.75,1.57-3.84,2.96-5.6,1.38-1.78,3.05-3.23,4.45-4.08,1.41-.85,2.48-1.11,2.55-.95.09.2-.77.78-1.87,1.83-1.1,1.06-2.43,2.62-3.47,4.35-1.05,1.73-1.75,3.62-2.06,5.1-.12.75-.19,1.38-.25,1.85,0,.48,0,.78,0,.85-.06,2.25.61,4.46,1.76,6.45l.97,1.44c.33.48.77.89,1.15,1.34.73.92,1.72,1.64,2.6,2.45,3.74,3.05,8.27,5.21,12.88,7.02,2.28.97,4.69,1.65,7.05,2.45,2.4.68,4.81,1.36,7.24,1.96,2.45.53,4.88,1.16,7.35,1.61,2.47.44,4.93.96,7.42,1.34,9.92,1.65,19.97,2.6,30.01,3.37l7.55.51,7.56.36c5.04.28,10.08.35,15.13.5.71.11,17.36.82,17.36,1.63,0,.76-16.7,1.34-17.42,1.23Z"/><path class="cls-1" d="M146.25,247.37c5.04-.14,10.09-.22,15.13-.5l7.56-.36,7.55-.51c10.05-.77,20.09-1.72,30.01-3.37,2.49-.38,4.94-.9,7.42-1.34,2.47-.45,4.9-1.08,7.35-1.61,2.43-.6,4.84-1.28,7.24-1.96,2.36-.8,4.77-1.48,7.05-2.45,4.61-1.81,9.14-3.97,12.88-7.02.88-.81,1.87-1.53,2.6-2.45.38-.45.82-.86,1.15-1.34l.97-1.44c1.16-1.99,1.82-4.2,1.76-6.45,0-.08,0-.37,0-.85-.06-.47-.13-1.1-.25-1.85-.31-1.48-1.02-3.37-2.06-5.1-1.03-1.74-2.37-3.3-3.47-4.35-1.1-1.05-1.96-1.63-1.87-1.83.07-.16,1.14.1,2.55.95,1.4.85,3.07,2.31,4.45,4.08,1.39,1.76,2.43,3.86,2.96,5.6.23.88.37,1.65.48,2.22.03.59.06.96.06,1.06.08,2.82-.77,5.61-2.16,7.98l-1.15,1.7c-.39.56-.88,1.02-1.32,1.54-.86,1.06-1.92,1.85-2.91,2.75-4.12,3.35-8.86,5.58-13.64,7.46-2.38,1.01-4.84,1.71-7.27,2.53-2.46.7-4.92,1.39-7.4,2-2.49.54-4.97,1.18-7.47,1.63-2.5.45-5,.97-7.51,1.35-10.04,1.67-20.15,2.63-30.26,3.4l-7.59.52-7.59.36c-5.06.28-10.13.36-15.19.5-.73.11-17.43-.46-17.42-1.23,0-.81,16.65-1.52,17.36-1.63Z"/><path class="cls-1" d="M117.51,11.7c-4.62,1.78-9.35,3.07-14.1,4.22-4.75,1.14-9.52,2.1-14.31,2.96-4.79.86-9.59,1.64-14.39,2.34l-14.39,2.02c-9.54,1.4-19.02,3.26-28.18,6.05-4.57,1.41-9.07,3.07-13.26,5.25-2.08,1.1-4.1,2.31-5.94,3.71-1.81,1.42-3.46,3.03-4.61,4.88-.04.07-.23.3-.43.69-.11.19-.24.42-.38.68-.13.26-.24.57-.38.89-.51,1.29-.81,3.11-.3,4.86.43,1.76,1.62,3.29,2.69,4.21,1.08.93,2.01,1.27,1.96,1.49-.02.17-1.13.19-2.58-.57-1.42-.74-3.14-2.32-3.97-4.47-.47-1.05-.65-2.22-.7-3.32,0-1.1.14-2.14.4-3,.14-.43.25-.83.38-1.18.15-.34.29-.64.41-.89.22-.52.43-.81.48-.89,1.42-2.27,3.31-4.07,5.3-5.64,2.01-1.54,4.17-2.83,6.37-3.99,4.41-2.3,9.05-4.01,13.73-5.45,9.38-2.85,18.98-4.73,28.61-6.14l14.39-2.02c4.78-.7,9.55-1.47,14.3-2.33,4.75-.86,9.48-1.81,14.15-2.93,4.67-1.13,9.31-2.4,13.73-4.1.29-.15,4.25-1.35,7.58-3.36,1.66-.99,3.09-2.27,3.78-3.47.75-1.18.82-2.2,1.05-2.2.16-.02.5,1.07-.04,2.66-.49,1.6-1.95,3.34-3.63,4.66-3.39,2.68-7.41,4.22-7.71,4.38Z"/><path class="cls-1" d="M12.91,67.31v128.67c0,.77-.64,18.44-1.43,18.44s-1.43-17.68-1.43-18.44V67.31c0-.77.64-18.44,1.43-18.44s1.43,17.68,1.43,18.44Z"/><path class="cls-1" d="M141.31,9.03c4.42,1.7,9.07,2.97,13.73,4.1,4.67,1.12,9.4,2.07,14.15,2.93,4.75.86,9.52,1.63,14.3,2.33l14.39,2.02c9.63,1.41,19.23,3.29,28.61,6.14,4.68,1.44,9.32,3.15,13.73,5.45,2.2,1.16,4.35,2.45,6.37,3.99,1.99,1.57,3.88,3.38,5.3,5.64.05.08.25.37.48.89.11.25.25.55.41.89.14.34.25.75.38,1.18.25.86.4,1.9.4,3-.05,1.1-.23,2.27-.7,3.32-.84,2.15-2.56,3.72-3.97,4.47-1.45.76-2.56.73-2.58.57-.05-.21.89-.56,1.96-1.49,1.06-.92,2.26-2.44,2.69-4.21.51-1.74.21-3.57-.3-4.86-.14-.32-.24-.63-.38-.89-.15-.26-.28-.49-.38-.68-.2-.4-.39-.63-.43-.69-1.16-1.85-2.8-3.46-4.61-4.88-1.84-1.41-3.85-2.61-5.94-3.71-4.19-2.18-8.69-3.85-13.26-5.25-9.17-2.78-18.65-4.65-28.18-6.05l-14.39-2.02c-4.81-.7-9.6-1.48-14.39-2.34-4.79-.86-9.56-1.82-14.31-2.96-4.75-1.15-9.48-2.44-14.1-4.22-.3-.16-4.33-1.7-7.71-4.38-1.68-1.32-3.14-3.06-3.63-4.66-.54-1.59-.2-2.68-.04-2.66.23,0,.3,1.01,1.05,2.2.7,1.2,2.12,2.48,3.78,3.47,3.33,2.02,7.29,3.22,7.58,3.36Z"/><path class="cls-1" d="M247.73,67.31v128.67c0,.77-.64,18.44-1.43,18.44s-1.43-17.68-1.43-18.44V67.31c0-.77.64-18.44,1.43-18.44s1.43,17.68,1.43,18.44Z"/><path class="cls-1" d="M47.63,19.06c12.98,4.36,26.5,7.01,40.12,8.63,13.63,1.65,27.39,2.25,41.14,2.26,13.75,0,27.51-.61,41.14-2.26,13.62-1.62,27.14-4.28,40.12-8.63.47-.13,6.09-1.88,11.52-3.86,5.44-1.97,10.71-4.13,10.88-3.77.16.34-4.8,3.15-10.11,5.63-5.29,2.49-10.91,4.58-11.39,4.71-13.21,4.43-26.92,7.12-40.68,8.76-13.78,1.67-27.64,2.27-41.48,2.28-13.84,0-27.71-.61-41.48-2.28-13.77-1.64-27.48-4.33-40.68-8.76-.48-.13-6.1-2.22-11.39-4.71-5.3-2.48-10.27-5.29-10.11-5.63.17-.37,5.44,1.79,10.88,3.77,5.43,1.99,11.05,3.74,11.52,3.86Z"/></g></svg>