<?xml version="1.0" encoding="UTF-8"?><svg id="Line" xmlns="http://www.w3.org/2000/svg" viewBox="0 0 946.79 706.7"><defs><style>.cls-1{fill:#fff;stroke-width:0px;}</style></defs><g id="Window_7_Lines"><path class="cls-1" d="M599.25,698.81c56.27-1.35,112.53-3.02,168.79-4.84l84.38-2.84,21.09-.75,5.27-.19,1-.03c.21.06.4.18.6.27l.35.17,1.21.63c.79.43,1.58.88,2.35,1.34,3.09,1.86,6.03,4.02,8.62,6.67.62.68,1.28,1.4,1.79,2.11h-.01c-.4.68.97-1.7,1.8-3.08,1.04-1.47,2-2.99,3.11-4.42,1.18-1.38,2.23-2.86,3.6-4.1,2.55-2.59,5.57-4.97,9.27-6.14,1.85-.54,3.8-.87,5.78-.68.98.11,1.95.29,2.89.61.22.06.51.17.66.24h.02s0-538.17,0-538.17c0-1.31.05-9.82.11-21.88.04-6.02.08-12.93.13-20.26.01-1.74.03-3.51.04-5.3.06.06-.31-.53-.52-.9l-.73-1.21c-.49-.81-.98-1.62-1.48-2.43-1.98-3.25-4.05-6.5-6.13-9.74-4.17-6.46-8.47-12.79-12.62-18.61-4.17-5.81-8.21-11.09-11.76-15.53-1.82-2.18-3.46-4.21-4.98-5.94-1.54-1.72-2.83-3.26-3.96-4.46-1.13-1.2-2.02-2.15-2.61-2.81-.59-.66-.89-1.03-.86-1.06s.4.26,1.06.86c.66.59,1.61,1.48,2.82,2.62,1.2,1.14,2.57,2.63,4.18,4.29,1.59,1.68,3.3,3.66,5.2,5.8,3.7,4.35,7.89,9.55,12.2,15.29,4.3,5.75,8.72,12.03,13.02,18.45,2.14,3.21,4.27,6.45,6.31,9.68.51.81,1.02,1.62,1.52,2.42l.75,1.21c.25.45.46.64.87,1.54.01,1.97.03,3.91.04,5.83.05,7.33.09,14.24.13,20.26.06,12.06.11,20.57.11,21.88v543.3l-2.66-1.86c-.42-.24-.82-.44-1.21-.59-.25-.11-.37-.16-.58-.21-.73-.25-1.49-.38-2.26-.47-1.55-.15-3.11.12-4.63.56-3.06.95-5.78,3.04-8.13,5.44-1.25,1.12-2.25,2.54-3.36,3.83-1.04,1.35-1.97,2.81-2.96,4.21l-3.54,6.04-.33.57c-.06.09-.11.21-.17.27l-.18-.27-.72-1.09-.72-1.09c-.24-.36-.48-.78-.77-1.12-.52-.71-1.05-1.28-1.62-1.91-2.33-2.39-5.1-4.43-8.03-6.2-.73-.44-1.48-.87-2.23-1.28l-1.13-.59-.24-.12h0-.32s-5.27.2-5.27.2l-21.1.75-84.39,2.84c-56.26,1.81-112.53,3.49-168.81,4.84-2.61.06-34.09.69-64.92.93-7.71.09-15.37.11-22.54.12-7.17,0-13.83.04-19.53-.04-5.7-.06-10.44-.12-13.75-.2-1.66-.04-2.95-.08-3.84-.12s-1.36-.09-1.36-.14.47-.1,1.36-.15c.89-.05,2.18-.11,3.84-.16,3.31-.11,8.04-.22,13.74-.34,11.47-.27,26.68-.63,42.04-.99,30.86-.84,62.28-1.69,64.89-1.77Z"/><path class="cls-1" d="M535.95,62.52c57.27-.96,114.53-2.49,171.73-5.26,28.59-1.42,57.18-3.12,85.68-5.69,14.24-1.3,28.47-2.8,42.6-4.9,7.05-1.07,14.09-2.26,21-3.88,3.45-.82,6.87-1.74,10.16-2.92,1.64-.6,3.24-1.27,4.71-2.07.71-.42,1.43-.84,2.01-1.34.32-.24.55-.5.8-.76l.16-.21c.16-.17.26-.39.38-.59l.68-1.2,3.84,1.55c.92.36,1.8.8,2.7,1.2.9.4,1.78.83,2.66,1.28.87.45,1.76.86,2.62,1.35,3.47,1.83,6.81,3.89,10.07,6.06,3.25,2.18,6.42,4.5,9.44,7,3.02,2.51,5.93,5.16,8.59,8.14.64.78,1.31,1.51,1.9,2.35l.18.25h0s0,0,0,0l.31-.13c1.75-.73,3.45-1.56,5.11-2.45,3.33-1.78,6.44-3.94,9.27-6.41,2.83-2.46,5.29-5.32,7.27-8.46.98-1.58,1.79-3.24,2.48-4.95.66-1.72,1.13-3.5,1.42-5.3.03-.3.24-1.44.31-3.22.03-1.78-.11-4.21-.88-6.94-.79-2.72-2.23-5.71-4.32-8.53-2.13-2.77-4.84-5.47-7.82-7.68-2.98-2.22-6.35-3.88-9.7-4.55-3.35-.69-6.62-.32-9.17.67-2.56.97-4.39,2.46-5.38,3.7-1.03,1.25-1.02,2.21-1.13,2.21-.03,0-.13-.24-.07-.7.05-.46.27-1.12.73-1.84.9-1.45,2.73-3.19,5.42-4.39,2.66-1.22,6.21-1.81,9.88-1.21,3.67.57,7.36,2.23,10.59,4.48,1.62,1.12,3.16,2.36,4.58,3.69,1.44,1.29,2.75,2.74,3.95,4.2,2.34,2.97,4.02,6.21,4.97,9.22.93,3.02,1.16,5.75,1.16,7.74-.04,2-.25,3.28-.29,3.62-.33,2.02-.85,4-1.58,5.89-.75,1.89-1.65,3.71-2.71,5.42-2.15,3.41-4.8,6.48-7.81,9.1-3,2.63-6.3,4.9-9.79,6.78-1.75.93-3.53,1.81-5.35,2.57l-2.36,1c-.07.06-.08-.05-.12-.08l-.11-.15-.21-.29-.42-.59-.67-.93c-.52-.74-1.16-1.44-1.75-2.16-2.5-2.8-5.33-5.39-8.26-7.82-2.94-2.44-6.03-4.7-9.21-6.83-3.18-2.12-6.44-4.14-9.82-5.92-.83-.47-1.7-.88-2.55-1.31-.85-.44-1.71-.86-2.58-1.24-.87-.38-1.72-.81-2.61-1.16l-1.55-.63s0,0,0,0l-.25.32c-.37.4-.74.79-1.14,1.09-.79.66-1.62,1.15-2.45,1.64-1.67.91-3.39,1.62-5.11,2.26-3.46,1.24-6.96,2.18-10.48,3.02-7.04,1.65-14.13,2.86-21.23,3.93-14.21,2.11-28.48,3.61-42.76,4.92-28.56,2.57-57.18,4.28-85.8,5.69-57.25,2.77-114.53,4.3-171.82,5.26-1.3.02-16.95.12-32.27.03-7.66-.04-15.24-.13-20.91-.26-5.67-.13-9.42-.31-9.42-.51,0-.19,3.75-.39,9.41-.6,5.81-.18,13.33-.41,20.89-.65,15.42-.42,30.97-.83,32.25-.87Z"/><path class="cls-1" d="M347.47,701.67c-56.28-1.35-112.55-3.02-168.81-4.84l-84.39-2.84-21.1-.75-5.27-.19h-.32s0-.01,0-.01l-.24.12-1.13.59c-.75.41-1.5.83-2.23,1.28-2.93,1.77-5.71,3.81-8.03,6.2-.57.63-1.1,1.2-1.62,1.91-.29.34-.53.75-.77,1.12l-.72,1.09-.72,1.09-.18.27c-.06-.06-.11-.18-.17-.27l-.33-.57-3.54-6.04c-.99-1.4-1.92-2.86-2.96-4.21-1.11-1.29-2.1-2.7-3.36-3.83-2.34-2.4-5.07-4.49-8.13-5.44-1.52-.44-3.09-.71-4.63-.56-.77.1-1.53.23-2.26.47-.2.05-.33.11-.58.21-.39.15-.79.34-1.21.59l-2.66,1.86V145.62c0-1.31.05-9.82.11-21.88.04-6.02.08-12.93.13-20.26.01-1.92.03-3.87.04-5.83.41-.9.62-1.09.87-1.54l.75-1.21c.51-.8,1.01-1.61,1.52-2.42,2.04-3.23,4.17-6.47,6.31-9.68,4.3-6.41,8.73-12.69,13.02-18.45,4.31-5.74,8.5-10.95,12.2-15.29,1.9-2.14,3.6-4.12,5.2-5.8,1.61-1.66,2.97-3.15,4.18-4.29,1.21-1.14,2.16-2.03,2.82-2.62.66-.59,1.03-.89,1.06-.86s-.27.4-.86,1.06c-.59.66-1.47,1.61-2.61,2.81-1.13,1.2-2.42,2.74-3.96,4.46-1.52,1.73-3.15,3.76-4.98,5.94-3.55,4.44-7.6,9.71-11.76,15.53-4.15,5.82-8.45,12.15-12.62,18.61-2.08,3.23-4.14,6.49-6.13,9.74-.49.81-.99,1.62-1.48,2.43l-.73,1.21c-.21.36-.58.95-.52.9.01,1.79.03,3.56.04,5.3.05,7.33.09,14.24.13,20.26.06,12.06.11,20.57.11,21.88v538.18h.02c.16-.08.44-.19.66-.25.94-.32,1.92-.49,2.89-.61,1.97-.19,3.93.14,5.78.68,3.7,1.17,6.72,3.55,9.27,6.14,1.37,1.24,2.42,2.72,3.6,4.1,1.1,1.43,2.07,2.95,3.11,4.42.83,1.38,2.2,3.76,1.8,3.06h-.01c.52-.7,1.18-1.43,1.79-2.1,2.59-2.65,5.54-4.81,8.62-6.67.77-.47,1.56-.91,2.35-1.34l1.21-.63.35-.17c.2-.09.39-.21.6-.27l1,.03,5.27.19,21.09.75,84.38,2.84c56.26,1.81,112.52,3.48,168.79,4.84,2.61.07,34.02.93,64.89,1.77,15.36.36,30.57.72,42.04.99,5.7.11,10.43.23,13.74.34,1.65.05,2.95.11,3.84.16.89.05,1.36.1,1.36.15s-.47.1-1.36.14-2.18.08-3.84.12c-3.31.08-8.05.14-13.75.2-5.7.08-12.36.04-19.53.04-7.16,0-14.83-.03-22.54-.12-30.83-.24-62.31-.87-64.92-.93Z"/><path class="cls-1" d="M410.79,65.38c-57.29-.96-114.58-2.49-171.82-5.26-28.62-1.42-57.23-3.13-85.8-5.69-14.28-1.31-28.55-2.81-42.76-4.92-7.1-1.07-14.2-2.28-21.23-3.93-3.52-.83-7.02-1.77-10.48-3.02-1.73-.63-3.44-1.34-5.11-2.26-.83-.48-1.66-.97-2.45-1.64-.4-.31-.77-.7-1.14-1.09l-.25-.32s0,0,0,0l-1.55.63c-.89.34-1.74.77-2.61,1.16-.87.38-1.73.8-2.58,1.24-.85.43-1.71.84-2.55,1.31-3.38,1.78-6.64,3.8-9.82,5.92-3.18,2.13-6.27,4.39-9.21,6.83-2.94,2.44-5.76,5.02-8.26,7.82-.59.72-1.23,1.42-1.75,2.16l-.67.93-.42.59-.21.29-.11.15s-.06.14-.12.08l-2.36-1c-1.83-.76-3.61-1.64-5.35-2.57-3.5-1.87-6.79-4.15-9.79-6.78-3.01-2.62-5.66-5.68-7.81-9.1-1.06-1.72-1.96-3.54-2.71-5.42-.73-1.9-1.25-3.88-1.58-5.89-.04-.34-.25-1.62-.29-3.62,0-1.99.23-4.72,1.16-7.74.95-3.01,2.63-6.25,4.97-9.22,1.2-1.45,2.5-2.9,3.95-4.2,1.41-1.33,2.96-2.56,4.58-3.69,3.23-2.25,6.92-3.9,10.59-4.48,3.67-.6,7.21,0,9.88,1.21,2.69,1.21,4.51,2.95,5.42,4.39.46.72.67,1.38.73,1.84.07.46-.04.71-.07.7-.11,0-.1-.96-1.13-2.21-.98-1.24-2.81-2.73-5.38-3.7-2.55-.98-5.82-1.36-9.17-.67-3.35.67-6.73,2.33-9.7,4.55-2.98,2.21-5.69,4.91-7.82,7.68-2.09,2.82-3.53,5.8-4.32,8.53-.77,2.73-.92,5.17-.88,6.94.07,1.78.28,2.92.31,3.22.3,1.8.77,3.58,1.42,5.3.68,1.71,1.5,3.37,2.48,4.95,1.97,3.14,4.43,6,7.27,8.46,2.82,2.47,5.94,4.63,9.27,6.41,1.67.89,3.36,1.73,5.11,2.45l.31.13h0s0,0,0,0l.18-.25c.59-.84,1.26-1.57,1.9-2.35,2.66-2.98,5.57-5.63,8.59-8.14,3.02-2.51,6.18-4.82,9.44-7,3.26-2.17,6.6-4.23,10.07-6.06.85-.48,1.74-.9,2.62-1.35.87-.45,1.76-.88,2.66-1.28.9-.4,1.78-.84,2.7-1.2l3.84-1.55.68,1.2c.12.2.22.42.38.59l.16.21c.25.25.48.52.8.76.58.5,1.3.92,2.01,1.34,1.47.8,3.07,1.47,4.71,2.07,3.28,1.18,6.71,2.1,10.16,2.92,6.91,1.62,13.95,2.82,21,3.88,14.12,2.1,28.35,3.6,42.6,4.9,28.5,2.56,57.08,4.27,85.68,5.69,57.2,2.77,114.46,4.29,171.73,5.26,1.28.03,16.83.45,32.25.87,7.56.23,15.09.47,20.89.65,5.66.21,9.41.4,9.41.6,0,.2-3.75.38-9.42.51-5.67.13-13.25.22-20.91.26-15.33.09-30.97,0-32.27-.03Z"/><path class="cls-1" d="M518.02,53.17c25.95-.98,51.89-2.32,77.82-3.93,25.92-1.62,51.83-3.51,77.7-5.82,25.86-2.32,51.7-4.99,77.39-8.62,12.84-1.84,25.65-3.91,38.29-6.66,6.31-1.4,12.59-2.95,18.65-5.03,3.01-1.05,6-2.22,8.67-3.76,1.33-.76,2.58-1.65,3.47-2.67.43-.51.76-1.04.9-1.55.08-.28.09-.44.1-.8-.02-.37,0-.75-.05-1.11-.03-.21-.05-1.01-.33-2.19-.28-1.16-.85-2.71-2.06-4.17-1.2-1.46-3.06-2.77-5.36-3.59-2.28-.84-4.92-1.22-7.56-1.22-2.63.01-5.27.4-7.6,1.15-1.16.38-2.24.85-3.15,1.43-.9.58-1.65,1.29-1.94,2.06-.31.77-.11,1.56.29,2.19.4.63.9,1.12,1.34,1.48.87.74,1.45,1.11,1.39,1.21-.04.07-.7-.12-1.73-.75-.52-.31-1.12-.76-1.69-1.46-.26-.36-.54-.78-.67-1.31-.14-.52-.15-1.13.03-1.71.34-1.17,1.24-2.09,2.22-2.83,1-.74,2.16-1.33,3.39-1.81,2.47-.96,5.25-1.52,8.08-1.66,2.83-.14,5.73.15,8.38,1,2.64.82,5,2.31,6.58,4.11,1.6,1.8,2.39,3.76,2.78,5.18.39,1.45.43,2.4.47,2.65.05.44.04.88.06,1.32,0,.45-.04,1.1-.2,1.6-.3,1.06-.88,1.92-1.49,2.65-1.27,1.42-2.72,2.41-4.2,3.27-2.96,1.7-6.06,2.9-9.18,3.99-6.24,2.14-12.59,3.7-18.97,5.12-12.75,2.78-25.62,4.85-38.5,6.7-25.77,3.65-51.65,6.32-77.54,8.64-25.9,2.31-51.83,4.2-77.77,5.82-25.95,1.61-51.91,2.95-77.89,3.93-.93.03-12.11.3-23.06.32-5.48.01-10.89-.04-14.94-.17-4.05-.12-6.73-.32-6.73-.51,0-.2,2.68-.38,6.72-.6,4.23-.21,9.57-.48,14.91-.74,11.07-.56,22.1-1.11,23-1.15Z"/><path class="cls-1" d="M428.67,56.02c-25.98-.98-51.94-2.32-77.89-3.93-25.95-1.62-51.87-3.52-77.77-5.82-25.9-2.33-51.77-5-77.54-8.64-12.88-1.85-25.74-3.92-38.5-6.7-6.37-1.42-12.73-2.98-18.97-5.12-3.11-1.09-6.21-2.29-9.18-3.99-1.47-.86-2.93-1.85-4.2-3.27-.62-.72-1.19-1.59-1.49-2.65-.16-.5-.21-1.15-.2-1.6.02-.44.01-.88.06-1.32.03-.25.08-1.2.47-2.65.39-1.43,1.18-3.39,2.78-5.18,1.58-1.8,3.94-3.29,6.58-4.11,2.65-.85,5.55-1.13,8.38-1,2.83.15,5.62.7,8.08,1.66,1.23.49,2.39,1.07,3.39,1.81.98.74,1.88,1.66,2.22,2.83.17.58.17,1.19.03,1.71-.13.53-.41.95-.67,1.31-.57.7-1.17,1.15-1.69,1.46-1.04.63-1.69.82-1.73.75-.06-.1.52-.47,1.39-1.21.44-.37.94-.86,1.34-1.48.39-.63.6-1.42.29-2.19-.29-.77-1.04-1.48-1.94-2.06-.91-.58-1.99-1.05-3.15-1.43-2.32-.75-4.97-1.14-7.6-1.15-2.63,0-5.27.38-7.56,1.22-2.29.82-4.16,2.13-5.36,3.59-1.21,1.46-1.78,3-2.06,4.17-.28,1.17-.3,1.98-.33,2.19-.05.37-.04.74-.05,1.11,0,.36.02.53.1.8.14.51.47,1.04.9,1.55.9,1.01,2.15,1.9,3.47,2.67,2.67,1.54,5.66,2.71,8.67,3.76,6.05,2.08,12.34,3.63,18.65,5.03,12.64,2.76,25.45,4.82,38.29,6.66,25.69,3.64,51.53,6.3,77.39,8.62,25.87,2.3,51.77,4.2,77.7,5.82,25.92,1.61,51.87,2.95,77.82,3.93.91.05,11.93.6,23,1.15,5.34.27,10.68.53,14.91.74,4.04.22,6.72.4,6.72.6,0,.19-2.68.39-6.73.51-4.05.12-9.47.18-14.94.17-10.95-.02-22.13-.28-23.06-.32Z"/><path class="cls-1" d="M393.65,5.12c-11.57.83-23.12,1.87-34.62,3.25-11.5,1.4-22.97,3.08-34.23,5.59-5.61,1.28-11.21,2.74-16.45,4.88-1.31.54-2.57,1.14-3.77,1.81-1.19.67-2.31,1.44-3.16,2.31-.4.44-.77.9-.93,1.35-.18.45-.22.86-.13,1.29.17.87,1.02,1.83,2.02,2.62,2.07,1.61,4.7,2.77,7.32,3.79,2.65,1.01,5.39,1.85,8.16,2.62,5.54,1.52,11.2,2.69,16.88,3.73,11.38,2.05,22.88,3.51,34.41,4.72,11.53,1.19,23.09,2.09,34.67,2.79,23.16,1.39,46.36,1.99,69.57,2,23.2,0,46.41-.61,69.57-2,11.58-.7,23.14-1.6,34.67-2.79,11.53-1.2,23.03-2.66,34.41-4.72,5.68-1.04,11.34-2.21,16.88-3.73,2.77-.76,5.51-1.6,8.16-2.62,2.62-1.03,5.26-2.18,7.32-3.79,1-.8,1.85-1.76,2.02-2.62.09-.43.05-.84-.13-1.29-.16-.45-.53-.91-.93-1.35-.85-.88-1.97-1.64-3.16-2.31-1.2-.67-2.46-1.27-3.77-1.81-5.24-2.14-10.84-3.6-16.45-4.88-11.26-2.51-22.74-4.2-34.23-5.59-11.5-1.38-23.05-2.42-34.62-3.25-1.65-.14-21.54-1.67-41.07-2.49-9.76-.44-19.43-.76-26.66-.99-3.53-.13-6.5-.24-8.72-.32-2.1-.1-3.3-.19-3.3-.29s1.2-.19,3.3-.28c2.1-.09,5.11-.17,8.73-.22,7.24-.11,16.92-.09,26.71.08,19.58.31,39.56,1.51,41.21,1.66,11.6.83,23.2,1.88,34.76,3.26,11.56,1.41,23.1,3.1,34.52,5.64,5.7,1.31,11.39,2.78,16.92,5.03,1.38.57,2.74,1.21,4.08,1.96,1.33.76,2.65,1.62,3.83,2.83.57.63,1.14,1.32,1.5,2.24.37.89.5,1.98.27,2.97-.21,1.01-.72,1.82-1.25,2.51-.54.7-1.16,1.23-1.79,1.75-2.54,1.96-5.31,3.13-8.08,4.22-2.78,1.06-5.59,1.92-8.43,2.7-5.66,1.55-11.39,2.74-17.13,3.79-11.49,2.07-23.05,3.54-34.62,4.75-11.58,1.19-23.18,2.1-34.79,2.8-23.22,1.39-46.48,2-69.74,2-23.26,0-46.52-.61-69.74-2-11.61-.7-23.21-1.6-34.79-2.8-11.58-1.21-23.14-2.67-34.62-4.75-5.74-1.05-11.47-2.24-17.13-3.79-2.83-.78-5.65-1.64-8.42-2.7-2.76-1.1-5.54-2.26-8.08-4.22-.62-.52-1.25-1.05-1.79-1.75-.53-.69-1.05-1.5-1.25-2.51-.22-.99-.1-2.08.27-2.97.36-.92.93-1.6,1.5-2.24,1.18-1.21,2.49-2.07,3.83-2.83,1.34-.75,2.7-1.39,4.08-1.96,5.53-2.25,11.21-3.72,16.92-5.03,11.42-2.55,22.96-4.24,34.52-5.64,11.56-1.39,23.16-2.43,34.76-3.26,1.66-.14,21.63-1.35,41.21-1.66,9.79-.18,19.47-.19,26.71-.08,3.62.05,6.62.13,8.73.22,2.1.09,3.3.18,3.3.28s-1.2.2-3.3.29c-2.22.08-5.19.19-8.72.32-7.23.23-16.89.56-26.66.99-19.53.82-39.42,2.35-41.07,2.49Z"/></g></svg>