<?xml version="1.0" encoding="UTF-8"?><svg id="Line" xmlns="http://www.w3.org/2000/svg" viewBox="0 0 936.86 729.75"><defs><style>.cls-1{fill:#fff;stroke-width:0px;}</style></defs><g id="Window_8_Lines"><path class="cls-1" d="M3.28,413.49c.51,27.99,1.43,55.98,3.1,83.92.82,13.97,1.87,27.93,3.08,41.87,1.28,13.93,2.75,27.85,4.56,41.71,3.64,27.71,8.45,55.36,16.39,82.1,2.05,6.66,4.26,13.27,6.83,19.73,2.6,6.44,5.52,12.76,8.99,18.74,3.44,5.99,7.53,11.61,12.46,16.3,2.5,2.3,5.21,4.35,8.18,5.91,2.96,1.56,6.16,2.61,9.45,2.96.46.05,3.56.51,7.9-.26,2.16-.43,4.59-1.18,7.06-2.32,2.46-1.13,4.95-2.63,7.25-4.36,4.63-3.46,8.51-7.8,11-11.32,2.52-3.51,3.66-6.16,3.87-6.08.16.05-.65,2.9-2.94,6.69-2.26,3.79-6,8.47-10.68,12.29-2.33,1.91-4.88,3.6-7.47,4.91-2.58,1.31-5.2,2.22-7.55,2.76-4.74,1.01-8.25.59-8.75.53-3.68-.4-7.24-1.57-10.47-3.27-3.24-1.71-6.15-3.91-8.8-6.35-5.23-4.97-9.44-10.81-12.98-16.95-7.11-12.31-11.97-25.64-16.09-39.08-8.02-27-12.83-54.75-16.49-82.56-1.81-13.91-3.29-27.86-4.57-41.83-1.21-13.97-2.26-27.96-3.08-41.95-1.67-27.99-2.59-56.02-3.1-84.04,0-.49-.02-3.75-.04-8.38.04-4.58.08-10.53.13-16.48.07-5.9.23-11.74.38-16.1.16-4.36.33-7.25.53-7.25s.39,2.89.58,7.25c.19,4.36.34,10.19.53,16.09.36,11.92.72,23.84.74,24.82Z"/><path class="cls-1" d="M.43,317.13c.51-28.03,1.43-56.05,3.1-84.04.82-14,1.87-27.98,3.08-41.95,1.28-13.97,2.76-27.92,4.57-41.83,3.66-27.81,8.47-55.56,16.49-82.56,4.11-13.44,8.98-26.77,16.09-39.08,3.54-6.14,7.76-11.98,12.98-16.95,2.65-2.44,5.56-4.65,8.8-6.35,3.23-1.71,6.79-2.88,10.47-3.27.5-.06,4.01-.48,8.75.53,2.35.54,4.97,1.45,7.55,2.76,2.59,1.3,5.14,2.99,7.47,4.91,4.68,3.82,8.42,8.5,10.68,12.29,2.29,3.79,3.11,6.64,2.94,6.69-.21.08-1.35-2.57-3.87-6.08-2.48-3.52-6.36-7.86-11-11.32-2.31-1.73-4.79-3.23-7.25-4.36-2.46-1.13-4.9-1.89-7.06-2.32-4.34-.78-7.45-.32-7.9-.26-3.29.35-6.5,1.4-9.45,2.96-2.96,1.56-5.68,3.61-8.18,5.91-4.93,4.7-9.02,10.32-12.46,16.3-3.47,5.98-6.39,12.3-8.99,18.74-2.58,6.46-4.79,13.07-6.83,19.73-7.94,26.75-12.75,54.39-16.39,82.1-1.8,13.87-3.28,27.78-4.56,41.71-1.21,13.94-2.26,27.89-3.08,41.87-1.67,27.94-2.59,55.93-3.1,83.92-.03.98-.39,12.9-.74,24.82-.19,5.89-.33,11.73-.53,16.09-.19,4.36-.38,7.25-.58,7.25s-.37-2.89-.53-7.25c-.15-4.36-.31-10.2-.38-16.1-.05-5.95-.09-11.9-.13-16.48.02-4.63.03-7.88.04-8.38Z"/><path class="cls-1" d="M19.45,675.7c4.02-1.3,8.11-2.26,12.22-3.06,4.12-.73,8.25-1.36,12.39-1.79,8.28-.91,16.59-1.36,24.9-1.58,16.61-.4,33.2.1,49.76,1,33.11,1.86,66.09,5.35,98.96,9.55,32.87,4.23,65.62,9.25,98.27,14.9,32.64,5.67,65.18,11.94,97.54,19.13,1.16.26,15.03,3.5,28.52,7.11,6.74,1.79,13.38,3.69,18.32,5.21,4.94,1.51,8.16,2.66,8.1,2.84-.06.2-3.38-.59-8.4-1.77-5.01-1.19-11.72-2.79-18.51-4.33-13.58-3.1-27.5-6.03-28.66-6.28-32.29-7.18-64.8-13.44-97.4-19.11-32.61-5.65-65.33-10.66-98.14-14.88-32.82-4.19-65.74-7.68-98.75-9.53-16.5-.91-33.03-1.4-49.53-1-8.24.21-16.48.66-24.66,1.56-4.09.42-8.15,1.04-12.18,1.76-4.02.78-7.99,1.71-11.85,2.96-.51.25-4.23,1.2-8.79,3.78-2.24,1.38-4.81,3.07-6.76,5.42-.91,1.19-1.67,2.53-1.83,3.97-.17,1.44.29,2.93,1.14,4.26.84,1.35,2.04,2.52,3.31,3.56,1.27,1.04,2.63,1.97,4,2.78,2.72,1.65,5.45,2.9,7.79,3.93,4.71,2.02,7.97,3.05,7.91,3.25-.05.18-3.42-.49-8.32-2.22-2.44-.88-5.28-2-8.18-3.58-1.46-.77-2.92-1.68-4.33-2.75-1.41-1.06-2.79-2.3-3.86-3.87-1.08-1.54-1.82-3.54-1.65-5.57.15-2.03,1.1-3.78,2.15-5.23,2.22-2.84,4.93-4.69,7.27-6.22,4.89-2.93,8.72-3.97,9.26-4.24Z"/><path class="cls-1" d="M20.35,50.65c3.86,1.25,7.83,2.18,11.85,2.96,4.03.71,8.09,1.34,12.18,1.76,8.17.9,16.41,1.35,24.66,1.56,16.5.4,33.03-.09,49.53-1,33.01-1.85,65.94-5.34,98.75-9.53,32.82-4.22,65.54-9.23,98.14-14.88,32.6-5.66,65.11-11.93,97.4-19.11,1.15-.26,15.07-3.18,28.66-6.28,6.79-1.54,13.5-3.14,18.51-4.33,5.02-1.18,8.34-1.97,8.4-1.77.05.18-3.17,1.33-8.1,2.84-4.93,1.52-11.57,3.42-18.32,5.21-13.48,3.61-27.36,6.86-28.52,7.11-32.35,7.19-64.89,13.46-97.54,19.13-32.64,5.66-65.4,10.68-98.27,14.9-32.87,4.2-65.84,7.69-98.96,9.55-16.56.91-33.15,1.41-49.76,1-8.3-.21-16.61-.67-24.9-1.58-4.14-.43-8.27-1.06-12.39-1.79-4.11-.8-8.2-1.76-12.22-3.06-.54-.27-4.38-1.31-9.26-4.24-2.34-1.53-5.04-3.39-7.27-6.22-1.05-1.45-1.99-3.2-2.15-5.23-.17-2.02.57-4.02,1.65-5.57,1.08-1.58,2.46-2.81,3.86-3.87,1.41-1.07,2.88-1.97,4.33-2.75,2.9-1.58,5.74-2.69,8.18-3.58,4.9-1.73,8.27-2.4,8.32-2.22.06.2-3.2,1.22-7.91,3.25-2.34,1.03-5.07,2.28-7.79,3.93-1.37.81-2.73,1.74-4,2.78-1.27,1.04-2.47,2.22-3.31,3.56-.85,1.33-1.31,2.83-1.14,4.26.15,1.44.91,2.79,1.83,3.97,1.95,2.35,4.52,4.04,6.76,5.42,4.56,2.58,8.29,3.53,8.79,3.78Z"/><path class="cls-1" d="M292.97,29.69H112.92c-.16-.06-.48.13-.52-.13l-.24-.55-.46-1.07c-.14-.35-.3-.69-.48-1.03-1.33-2.74-3.05-5.35-4.99-7.77-3.87-4.83-8.6-9.05-14.03-11.92-5.4-2.87-11.63-4.18-17.57-3.07-2.97.53-5.83,1.61-8.5,3.09-2.66,1.51-5.1,3.41-7.39,5.48-4.5,4.27-8.27,9.32-11.53,14.69-3.26,5.38-6.02,11.07-8.5,16.89-1.27,2.9-2.37,5.87-3.51,8.82l-1.58,4.48-.78,2.24-.72,2.27c-7.76,24.18-12.54,49.27-16.28,74.43-3.7,25.19-6.23,50.55-8.08,75.96-3.72,50.83-4.86,101.83-4.9,152.81.05,50.98,1.19,101.98,4.9,152.81,1.85,25.41,4.38,50.77,8.08,75.96,3.73,25.16,8.52,50.25,16.28,74.43l.72,2.27.78,2.24,1.58,4.48c1.14,2.96,2.24,5.92,3.51,8.82,2.48,5.81,5.24,11.51,8.5,16.89,3.26,5.37,7.04,10.42,11.53,14.69,2.29,2.08,4.73,3.97,7.39,5.48,2.67,1.47,5.54,2.56,8.5,3.09,5.95,1.11,12.17-.2,17.57-3.07,5.43-2.87,10.16-7.09,14.03-11.92,1.93-2.42,3.65-5.02,4.99-7.76.18-.34.33-.68.48-1.03l.46-1.07.24-.55c.03-.25.35-.07.52-.13h180.04c3.64.02,47.47.22,90.46.42,21.44.17,42.67.33,58.61.45,7.9.11,14.48.2,19.15.27,2.26.06,4.06.11,5.35.14,1.23.05,1.89.1,1.89.15s-.66.1-1.89.15c-1.29.03-3.09.08-5.35.14-4.67.07-11.25.16-19.15.27-15.94.12-37.17.29-58.61.45-42.99.2-86.83.4-90.46.42H114.34v.03c-.17.39-.35.77-.54,1.14-1.46,2.99-3.28,5.74-5.32,8.3-4.09,5.1-9.07,9.56-14.94,12.67-2.93,1.54-6.09,2.7-9.39,3.31-3.29.61-6.71.64-10.02.04-3.31-.59-6.48-1.8-9.39-3.41-2.89-1.65-5.51-3.68-7.94-5.89-4.76-4.52-8.67-9.78-12.03-15.3-3.35-5.53-6.17-11.34-8.69-17.25-1.29-2.95-2.41-5.96-3.56-8.95l-1.6-4.54-.79-2.27-.73-2.29c-7.84-24.43-12.64-49.64-16.39-74.89-3.71-25.28-6.25-50.71-8.11-76.17C1.19,467.42.05,416.36,0,365.33c.05-51.03,1.19-102.09,4.91-153.02,1.86-25.46,4.39-50.89,8.11-76.17,3.75-25.26,8.55-50.47,16.39-74.89l.73-2.29.79-2.27,1.6-4.54c1.15-3,2.27-6.01,3.56-8.95,2.52-5.91,5.33-11.72,8.69-17.25,3.36-5.52,7.26-10.78,12.03-15.3,2.43-2.21,5.05-4.24,7.94-5.89,2.91-1.61,6.08-2.81,9.39-3.41,3.31-.6,6.73-.57,10.02.04,3.3.61,6.46,1.77,9.39,3.31,5.86,3.11,10.84,7.56,14.94,12.67,2.04,2.56,3.87,5.31,5.32,8.3.19.37.36.75.52,1.14v.03h178.63c3.64.02,47.47.22,90.46.42,21.44.17,42.67.33,58.61.45,7.9.11,14.48.2,19.15.27,2.26.06,4.06.11,5.35.14,1.23.05,1.89.1,1.89.15s-.66.1-1.89.15c-1.29.03-3.09.08-5.35.14-4.67.07-11.25.16-19.15.27-15.94.12-37.17.29-58.61.45-42.99.2-86.83.4-90.46.42Z"/><path class="cls-1" d="M643.89,26.83h178.62v-.03c.17-.39.35-.77.54-1.14,1.46-2.99,3.28-5.74,5.32-8.3,4.09-5.1,9.07-9.56,14.94-12.67,2.93-1.54,6.09-2.7,9.39-3.31,3.29-.61,6.71-.64,10.02-.04,3.31.59,6.48,1.8,9.39,3.41,2.89,1.65,5.51,3.68,7.94,5.89,4.76,4.52,8.67,9.78,12.03,15.3,3.35,5.53,6.17,11.34,8.69,17.25,1.29,2.95,2.41,5.96,3.56,8.95l1.6,4.54.79,2.27.73,2.29c7.84,24.43,12.64,49.64,16.39,74.89,3.71,25.28,6.25,50.71,8.11,76.17,3.72,50.93,4.86,101.99,4.91,153.02-.05,51.03-1.19,102.09-4.91,153.02-1.86,25.46-4.39,50.89-8.11,76.17-3.75,25.26-8.55,50.47-16.39,74.89l-.73,2.29-.79,2.27-1.6,4.54c-1.15,3-2.27,6.01-3.56,8.95-2.52,5.91-5.33,11.72-8.69,17.25-3.36,5.52-7.26,10.78-12.03,15.3-2.43,2.21-5.05,4.24-7.94,5.89-2.91,1.61-6.08,2.81-9.39,3.41-3.31.6-6.73.57-10.02-.04-3.3-.61-6.46-1.77-9.39-3.31-5.86-3.11-10.84-7.56-14.94-12.67-2.04-2.56-3.87-5.31-5.32-8.3-.19-.37-.36-.75-.52-1.14v-.03h-178.63c-3.64-.02-47.47-.22-90.46-.42-21.44-.17-42.67-.33-58.61-.45-7.9-.11-14.48-.2-19.15-.27-2.26-.06-4.06-.11-5.35-.14-1.23-.05-1.89-.1-1.89-.15s.66-.1,1.89-.15c1.29-.03,3.09-.08,5.35-.14,4.67-.07,11.25-.16,19.15-.27,15.94-.12,37.17-.29,58.61-.45,42.99-.2,86.83-.4,90.46-.42h180.04c.16.06.48-.13.52.13l.24.55.46,1.07c.14.35.3.69.48,1.03,1.33,2.74,3.05,5.35,4.99,7.76,3.87,4.83,8.6,9.05,14.03,11.92,5.4,2.87,11.63,4.18,17.57,3.07,2.97-.53,5.83-1.61,8.5-3.09,2.66-1.51,5.1-3.41,7.39-5.48,4.5-4.27,8.27-9.32,11.53-14.69,3.26-5.38,6.02-11.07,8.5-16.89,1.27-2.9,2.37-5.87,3.51-8.82l1.58-4.48.78-2.24.72-2.27c7.76-24.18,12.54-49.27,16.28-74.43,3.7-25.19,6.23-50.55,8.08-75.96,3.72-50.83,4.86-101.83,4.9-152.81-.05-50.98-1.19-101.98-4.9-152.81-1.85-25.41-4.38-50.77-8.08-75.96-3.73-25.16-8.52-50.25-16.28-74.43l-.72-2.27-.78-2.24-1.58-4.48c-1.14-2.96-2.24-5.92-3.51-8.82-2.48-5.81-5.24-11.51-8.5-16.89-3.26-5.37-7.04-10.42-11.53-14.69-2.29-2.08-4.73-3.97-7.39-5.48-2.67-1.47-5.54-2.56-8.5-3.09-5.95-1.11-12.17.2-17.57,3.07-5.43,2.87-10.16,7.09-14.03,11.92-1.93,2.42-3.65,5.02-4.99,7.77-.18.34-.33.68-.48,1.03l-.46,1.07-.24.55c-.03.25-.35.07-.52.13h-180.04c-3.64-.02-47.47-.22-90.46-.42-21.44-.17-42.67-.33-58.61-.45-7.9-.11-14.48-.2-19.15-.27-2.26-.06-4.06-.11-5.35-.14-1.23-.05-1.89-.1-1.89-.15s.66-.1,1.89-.15c1.29-.03,3.09-.08,5.35-.14,4.67-.07,11.25-.16,19.15-.27,15.94-.12,37.17-.29,58.61-.45,42.99-.2,86.83-.4,90.46-.42Z"/><path class="cls-1" d="M916.5,678.41c-3.86-1.25-7.83-2.18-11.85-2.96-4.03-.71-8.09-1.34-12.18-1.76-8.17-.9-16.41-1.35-24.66-1.56-16.5-.4-33.03.1-49.53,1-33.01,1.85-65.94,5.34-98.75,9.53-32.82,4.22-65.54,9.23-98.14,14.88-32.6,5.66-65.11,11.93-97.4,19.11-1.15.25-15.07,3.18-28.66,6.28-6.79,1.54-13.5,3.14-18.51,4.33-5.02,1.18-8.34,1.97-8.4,1.77-.05-.18,3.17-1.33,8.1-2.84,4.93-1.52,11.57-3.42,18.32-5.21,13.48-3.61,27.36-6.86,28.52-7.11,32.35-7.19,64.89-13.46,97.54-19.13,32.64-5.66,65.4-10.68,98.27-14.9,32.87-4.2,65.84-7.69,98.96-9.55,16.56-.91,33.15-1.41,49.76-1,8.3.21,16.61.67,24.9,1.58,4.14.43,8.27,1.06,12.39,1.79,4.11.8,8.2,1.76,12.22,3.06.54.27,4.38,1.31,9.26,4.24,2.34,1.53,5.04,3.39,7.27,6.22,1.05,1.45,2,3.2,2.15,5.23.17,2.02-.57,4.02-1.65,5.57-1.08,1.58-2.46,2.81-3.86,3.87-1.41,1.07-2.88,1.97-4.33,2.75-2.9,1.58-5.74,2.69-8.18,3.58-4.9,1.73-8.27,2.4-8.32,2.22-.06-.2,3.2-1.22,7.91-3.25,2.34-1.03,5.07-2.28,7.79-3.93,1.37-.81,2.73-1.74,4-2.78,1.27-1.04,2.47-2.22,3.31-3.56.85-1.33,1.31-2.83,1.14-4.26-.15-1.44-.91-2.79-1.83-3.97-1.95-2.35-4.52-4.04-6.76-5.42-4.56-2.58-8.29-3.53-8.79-3.78Z"/><path class="cls-1" d="M917.4,53.36c-4.02,1.3-8.11,2.26-12.22,3.06-4.12.73-8.25,1.36-12.39,1.79-8.29.91-16.59,1.36-24.9,1.58-16.61.4-33.2-.1-49.76-1-33.11-1.86-66.09-5.35-98.96-9.55-32.87-4.23-65.62-9.25-98.27-14.9-32.64-5.67-65.18-11.94-97.54-19.13-1.16-.26-15.03-3.5-28.52-7.11-6.74-1.79-13.38-3.69-18.32-5.21-4.94-1.51-8.16-2.66-8.1-2.84.06-.2,3.38.59,8.4,1.77,5.01,1.19,11.72,2.79,18.51,4.33,13.58,3.1,27.5,6.03,28.66,6.28,32.29,7.18,64.8,13.44,97.4,19.11,32.61,5.65,65.33,10.66,98.14,14.88,32.82,4.19,65.74,7.68,98.75,9.53,16.5.91,33.03,1.4,49.53,1,8.24-.21,16.48-.66,24.66-1.56,4.09-.42,8.15-1.04,12.18-1.76,4.02-.78,7.99-1.72,11.85-2.96.5-.25,4.23-1.2,8.79-3.78,2.24-1.38,4.81-3.07,6.76-5.42.91-1.19,1.67-2.53,1.83-3.97.17-1.44-.29-2.93-1.14-4.26-.84-1.35-2.04-2.52-3.31-3.56-1.27-1.04-2.63-1.97-4-2.78-2.72-1.65-5.45-2.9-7.79-3.93-4.71-2.02-7.97-3.05-7.91-3.25.05-.18,3.42.49,8.32,2.22,2.44.88,5.28,2,8.18,3.58,1.46.77,2.92,1.68,4.33,2.75,1.41,1.06,2.79,2.3,3.86,3.87,1.08,1.54,1.82,3.54,1.65,5.57-.15,2.03-1.1,3.78-2.15,5.23-2.22,2.84-4.93,4.69-7.27,6.22-4.88,2.93-8.72,3.97-9.26,4.24Z"/></g></svg>