<?xml version="1.0" encoding="UTF-8"?><svg id="Line" xmlns="http://www.w3.org/2000/svg" viewBox="0 0 976.28 672.86"><defs><style>.cls-1{fill:#fff;stroke-width:0px;}</style></defs><g id="Window_6_Lines"><path class="cls-1" d="M39.63,250.94v419.06h897.02V250.94c.02-5.18.22-67.53.42-128.64.17-30.52.33-60.72.45-83.34.11-11.26.2-20.63.27-27.23.06-3.25.11-5.81.14-7.61.03-.85.05-1.51.07-2,.02-.45.05-.69.07-.69s.05.23.07.69c.02.49.04,1.15.07,2,.03,1.8.08,4.36.14,7.61.06,6.6.16,15.97.27,27.23.12,22.62.29,52.82.45,83.34.2,61.11.4,123.46.42,128.64v421.92H36.78V250.94c.02-5.18.22-67.53.42-128.64.17-30.52.33-60.72.45-83.34.11-11.26.2-20.63.27-27.23.06-3.25.11-5.81.14-7.61.03-.85.05-1.51.07-2,.02-.45.05-.69.07-.69s.05.23.07.69c.02.49.04,1.15.07,2,.03,1.8.08,4.36.14,7.61.06,6.6.16,15.97.27,27.23.12,22.62.29,52.82.45,83.34.2,61.11.4,123.46.42,128.64Z"/><path class="cls-1" d="M910.98,303.18c-1.39,3.06-2.57,6.22-3.51,9.44-.94,3.22-1.69,6.49-2.1,9.82-.14.83-.2,1.66-.27,2.49-.06.83-.18,1.66-.18,2.5l-.07,2.5v2.56s0,10.27,0,10.27v243.31c-.02.2.07.46-.13.59l-.72.83-1.65,1.91c-4.35,5.14-8.08,10.8-11.1,16.82-3.03,6.02-5.38,12.39-7.16,18.92-.07.23-.34,1.1-.67,2.47-.32,1.37-.88,3.19-1.33,5.38-.46,2.19-1.04,4.68-1.46,7.37-.22,1.34-.5,2.72-.68,4.12-.19,1.4-.39,2.83-.58,4.25-1.53,11.38-1.67,22.68-2.13,22.68-.2,0-.34-2.82-.45-7.1-.01-2.14.04-4.64.08-7.33.14-2.69.24-5.57.5-8.46.13-1.45.27-2.9.4-4.32.12-1.43.36-2.83.53-4.2.32-2.74.82-5.3,1.22-7.55.38-2.24.9-4.12,1.19-5.53.3-1.41.56-2.3.63-2.54,1.83-6.68,4.23-13.23,7.37-19.44,3.12-6.21,6.97-12.07,11.47-17.38l1.71-1.97c.22-.25.09-.1.12-.14h0v-255.53s.08-2.63.08-2.63c0-.88.12-1.75.18-2.62.07-.87.14-1.75.29-2.61.43-3.48,1.21-6.9,2.19-10.25.98-3.35,2.2-6.63,3.64-9.8.19-.46,1.55-3.41,3.85-7.37,2.29-3.96,5.62-8.84,9.32-13.33,3.69-4.5,7.71-8.61,10.9-11.48,3.18-2.88,5.5-4.53,5.63-4.37.12.15-1.94,2.07-4.85,5.16-2.92,3.08-6.66,7.36-10.09,11.94-3.43,4.58-6.52,9.46-8.62,13.38-2.11,3.92-3.35,6.8-3.53,7.24Z"/><path class="cls-1" d="M871.95,65.21v530.23c-.02,1.57-.22,20.49-.42,39.18-.13,9.3-.28,18.51-.45,25.38-.09,3.44-.17,6.3-.27,8.29s-.19,3.14-.29,3.14-.19-1.14-.29-3.14-.18-4.86-.27-8.29c-.17-6.88-.32-16.08-.45-25.38-.2-18.69-.4-37.61-.42-39.18V65.21c0-.79.05-5.92.11-13.21.02-1.82.07-3.79-.05-5.76-.06-1-.04-2.02-.16-3.06-.15-1.03-.3-2.08-.45-3.15-.78-4.23-1.99-8.69-4.01-12.79-1.95-4.12-4.41-7.99-7.05-11.34-2.66-3.34-5.51-6.13-8.1-8.34-2.58-2.22-4.97-3.76-6.7-4.72-.42-.23-.81-.44-1.16-.63-.33-.14-.62-.27-.89-.39-.48-.22-.74-.36-.73-.4s.29,0,.82.13c.26.07.59.15.97.26.38.16.79.33,1.25.52,1.85.81,4.4,2.23,7.14,4.37,2.75,2.12,5.78,4.86,8.64,8.19,2.83,3.34,5.49,7.25,7.64,11.48,2.22,4.2,3.61,8.82,4.53,13.25.18,1.12.37,2.22.55,3.3.15,1.09.16,2.17.24,3.21.17,2.12.15,4.05.18,5.87.06,7.29.11,12.42.11,13.21Z"/><path class="cls-1" d="M923.22,273.1c1.42-4.91,2.14-10.06,2.56-15.23.44-5.18.41-10.4.31-15.61-.36-10.43-1.45-20.85-3.15-31.18-1.71-10.32-3.86-20.59-6.83-30.59-2.96-10.01-6.7-19.81-10.78-29.47-4.06-9.67-8.42-19.23-12.72-28.83-4.3-9.6-8.56-19.26-12.19-29.2-3.61-9.93-6.66-20.18-7.9-30.82-1.15-10.53-1.53-21.18-.49-31.79.13-.72.95-9.96,4.35-18.4.86-2.09,1.86-4.13,3.05-5.9,1.18-1.76,2.55-3.33,4.28-4.08.23-.07.46-.13.68-.2.23-.04.48-.03.7-.04.23.02.46.1.67.16.21.07.37.22.54.33.6.54.86,1.16.97,1.64.14.49.15.88.15,1.14,0,.26-.02.4-.07.41s-.12-.12-.21-.36c-.09-.24-.19-.59-.4-.99-.18-.41-.49-.86-.93-1.15-.44-.28-1.02-.26-1.65.07-1.24.7-2.41,2.19-3.38,3.91-.98,1.73-1.81,3.72-2.51,5.76-2.79,8.25-3.28,17.28-3.4,17.98-1.01,10.33-.65,20.82.49,31.18,1.2,10.29,4.17,20.35,7.74,30.16,3.58,9.82,7.82,19.42,12.11,29.01,4.3,9.59,8.67,19.17,12.75,28.89,4.1,9.71,7.87,19.6,10.88,29.76,3.02,10.17,5.19,20.52,6.91,30.94,1.72,10.43,2.82,20.96,3.19,31.55.11,5.3.13,10.61-.31,15.92-.44,5.3-1.16,10.62-2.67,15.82-.06.18-.28.87-.62,1.95-.15.54-.46,1.14-.74,1.84-.31.69-.59,1.46-1.01,2.27-.84,1.63-1.95,3.37-3.33,5.07-1.38,1.7-3,3.39-5.03,4.69-1.03.62-2.17,1.16-3.47,1.29-.64.08-1.32,0-1.94-.18-.6-.17-1.23-.51-1.7-1.05-.47-.53-.71-1.24-.71-1.88,0-.65.15-1.2.47-1.77.19-.29.4-.57.71-.71.14-.08.32-.12.45-.17.12-.03.24-.08.37-.1.5-.09.98-.14,1.44-.09.46.03.89.15,1.31.31.43.2.85.45,1.09.78.27.31.38.7.32,1.04l-.05.25-.12.21c-.06.15-.17.25-.28.35-.41.4-.84.57-1.07.64-.26.08-.4.1-.42.05-.02-.04.08-.15.28-.31.21-.16.47-.36.68-.66.06-.07.11-.15.14-.25.05-.09.07-.19.06-.3,0-.21-.12-.44-.32-.58-.19-.16-.41-.25-.66-.32-.29-.07-.63-.13-.99-.11-.36,0-.73.07-1.09.17-.09.02-.18.07-.27.1l-.17.08c-.11.06-.17.19-.22.29-.12.26-.2.68-.17,1.02.04.35.18.65.41.87.23.22.57.4.99.48.41.08.81.11,1.25.02.86-.14,1.75-.6,2.57-1.17,1.65-1.2,3.08-2.82,4.26-4.45,1.2-1.63,2.15-3.3,2.84-4.78.34-.74.58-1.49.84-2.13.23-.66.5-1.21.62-1.73.29-1.02.48-1.68.53-1.85Z"/><path class="cls-1" d="M67.91,302.01c1.44,3.17,2.66,6.45,3.64,9.8.98,3.35,1.77,6.77,2.19,10.25.14.86.21,1.74.29,2.61.06.87.18,1.74.18,2.62l.08,2.63v2.57s0,10.27,0,10.27v242.68h0s-.1-.1.12.15l1.71,1.97c4.5,5.31,8.35,11.17,11.47,17.38,3.13,6.21,5.54,12.76,7.37,19.44.07.24.33,1.13.63,2.54.29,1.41.81,3.29,1.19,5.53.4,2.24.9,4.8,1.22,7.55.17,1.37.41,2.77.53,4.2.13,1.43.27,2.87.4,4.32.26,2.89.35,5.77.5,8.46.04,2.69.09,5.19.08,7.33-.11,4.28-.26,7.1-.45,7.1-.46,0-.6-11.3-2.13-22.68-.19-1.42-.39-2.85-.58-4.25-.18-1.41-.47-2.78-.68-4.12-.42-2.69-1-5.19-1.46-7.37-.44-2.19-1-4.01-1.33-5.38-.33-1.37-.6-2.23-.67-2.47-1.78-6.53-4.13-12.9-7.16-18.92-3.03-6.02-6.75-11.69-11.1-16.82l-1.65-1.91-.72-.83c-.2-.14-.11-.39-.13-.59v-256.14s-.08-2.5-.08-2.5c0-.84-.12-1.67-.18-2.5-.07-.83-.14-1.67-.27-2.49-.4-3.32-1.16-6.6-2.1-9.82-.94-3.22-2.12-6.38-3.51-9.44-.18-.44-1.42-3.33-3.53-7.24-2.1-3.92-5.19-8.8-8.62-13.38-3.43-4.58-7.17-8.85-10.09-11.94-2.91-3.09-4.97-5.01-4.85-5.16.12-.16,2.45,1.49,5.63,4.37,3.19,2.87,7.21,6.99,10.9,11.48,3.7,4.49,7.03,9.37,9.32,13.33,2.3,3.95,3.66,6.91,3.85,7.37Z"/><path class="cls-1" d="M923.77,2.86H52.52c-2.03-.01-22.81-.14-46.36-.29l.5.47,1,.95,1.2,1.17c1.59,1.57,3.14,3.19,4.65,4.85,3,3.33,5.83,6.81,8.39,10.38,5.13,7.12,9.15,14.58,11.7,21.42,2.6,6.83,3.73,12.99,4.13,17.33.15,2.18.24,3.9.19,5.08-.02,1.18-.06,1.81-.12,1.81s-.13-.63-.22-1.8c-.05-1.17-.26-2.87-.51-5.02-.61-4.27-1.91-10.29-4.65-16.94-2.69-6.66-6.8-13.91-11.98-20.82-2.58-3.46-5.42-6.84-8.43-10.06-1.51-1.61-3.06-3.18-4.64-4.69l-1.19-1.13-1.42-1.3c-.73-.65-1.49-1.3-2.29-1.96C1.64,1.65.82.98,0,.32,26.67.16,50.22.01,52.52,0h871.25c2.3.01,25.84.16,52.52.32-.82.67-1.64,1.33-2.46,2-.8.66-1.56,1.31-2.29,1.96l-1.42,1.3-1.19,1.13c-1.58,1.52-3.13,3.09-4.64,4.69-3.01,3.22-5.85,6.6-8.43,10.06-5.18,6.91-9.29,14.15-11.98,20.82-2.74,6.65-4.05,12.67-4.65,16.94-.25,2.14-.46,3.85-.51,5.02-.09,1.17-.16,1.8-.22,1.8s-.09-.63-.12-1.81c-.06-1.18.04-2.9.19-5.08.4-4.34,1.52-10.5,4.13-17.33,2.55-6.84,6.57-14.3,11.7-21.42,2.55-3.57,5.38-7.05,8.39-10.38,1.51-1.66,3.06-3.28,4.65-4.85l1.2-1.17,1-.95.5-.47c-23.55.15-44.33.27-46.36.29Z"/><path class="cls-1" d="M107.19,65.21v530.23c-.02,1.57-.22,20.49-.42,39.18-.13,9.3-.28,18.51-.45,25.38-.09,3.44-.18,6.3-.27,8.29s-.19,3.14-.29,3.14-.19-1.14-.29-3.14-.18-4.86-.27-8.29c-.17-6.88-.32-16.08-.45-25.38-.2-18.69-.4-37.61-.42-39.18V65.21c0-.79.05-5.92.11-13.21.02-1.82,0-3.75.18-5.87.08-1.05.09-2.13.24-3.21.18-1.08.36-2.18.55-3.3.92-4.42,2.31-9.05,4.53-13.25,2.14-4.23,4.8-8.13,7.64-11.48,2.85-3.33,5.88-6.07,8.64-8.19,2.74-2.14,5.29-3.56,7.14-4.37.45-.19.87-.36,1.25-.52.38-.11.7-.2.97-.26.53-.13.81-.18.82-.13s-.24.19-.73.4c-.27.12-.56.24-.89.39-.35.19-.74.4-1.16.63-1.73.95-4.12,2.49-6.7,4.72-2.59,2.2-5.44,5-8.1,8.34-2.64,3.35-5.1,7.22-7.05,11.34-2.03,4.1-3.24,8.56-4.01,12.79-.15,1.07-.3,2.12-.45,3.15-.12,1.03-.1,2.06-.16,3.06-.12,1.97-.07,3.94-.05,5.76.06,7.29.11,12.42.11,13.21Z"/><path class="cls-1" d="M50.32,273.9c-1.51-5.2-2.23-10.51-2.67-15.82-.45-5.31-.42-10.62-.31-15.92.37-10.59,1.47-21.13,3.19-31.55,1.72-10.42,3.89-20.78,6.91-30.94,3.01-10.16,6.78-20.04,10.88-29.76,4.08-9.72,8.45-19.3,12.75-28.89,4.29-9.59,8.53-19.19,12.11-29.01,3.56-9.81,6.54-19.87,7.74-30.16,1.13-10.36,1.5-20.85.49-31.18-.12-.7-.61-9.73-3.4-17.98-.7-2.05-1.53-4.04-2.51-5.76-.96-1.72-2.13-3.21-3.38-3.91-.62-.33-1.21-.35-1.65-.07-.43.29-.75.74-.93,1.15-.21.4-.31.75-.4.99-.09.24-.17.36-.21.36s-.07-.15-.07-.41c0-.26,0-.65.15-1.14.11-.48.37-1.1.97-1.64.17-.11.34-.26.54-.33.21-.06.44-.14.67-.16.23,0,.47,0,.7.04.22.06.45.13.68.2,1.72.76,3.1,2.32,4.28,4.08,1.19,1.77,2.19,3.81,3.05,5.9,3.41,8.44,4.23,17.68,4.35,18.4,1.04,10.61.66,21.26-.49,31.79-1.24,10.64-4.29,20.89-7.9,30.82-3.62,9.94-7.89,19.59-12.19,29.2-4.3,9.6-8.66,19.16-12.72,28.83-4.08,9.66-7.81,19.45-10.78,29.47-2.97,9.99-5.12,20.26-6.83,30.59-1.7,10.32-2.79,20.75-3.15,31.18-.11,5.21-.13,10.43.31,15.61.43,5.17,1.14,10.32,2.56,15.23.05.17.24.83.53,1.85.12.52.39,1.07.62,1.73.26.64.5,1.39.84,2.13.69,1.48,1.64,3.15,2.84,4.78,1.19,1.63,2.62,3.26,4.26,4.45.83.57,1.71,1.03,2.57,1.17.44.09.84.05,1.25-.02.42-.09.76-.26.99-.48.23-.22.37-.52.41-.87.04-.34-.05-.76-.17-1.02-.05-.11-.11-.23-.22-.29l-.17-.08c-.09-.03-.17-.08-.27-.1-.36-.1-.73-.18-1.09-.17-.36-.02-.7.04-.99.11-.25.07-.48.16-.66.32-.2.14-.32.37-.32.58,0,.11.01.21.06.3.03.1.08.18.14.25.21.3.47.5.68.66.2.16.3.26.28.31-.02.04-.16.03-.42-.05-.24-.07-.66-.24-1.07-.64-.11-.1-.21-.21-.28-.35l-.12-.21-.05-.25c-.06-.34.05-.74.32-1.04.24-.33.65-.58,1.09-.78.42-.16.85-.28,1.31-.31.46-.05.94,0,1.44.09.13.01.25.07.37.1.14.05.32.09.45.17.31.14.52.41.71.71.33.57.47,1.12.47,1.77,0,.64-.24,1.35-.71,1.88-.47.54-1.09.87-1.7,1.05-.61.18-1.3.26-1.94.18-1.3-.13-2.44-.67-3.47-1.29-2.02-1.3-3.65-2.99-5.03-4.69-1.38-1.7-2.49-3.44-3.33-5.07-.42-.81-.7-1.59-1.01-2.27-.28-.69-.59-1.3-.74-1.84-.34-1.08-.56-1.77-.62-1.95Z"/></g></svg>