<?xml version="1.0" encoding="UTF-8"?><svg id="Shape" xmlns="http://www.w3.org/2000/svg" viewBox="0 0 566.48 176.82"><defs><style>.cls-1{fill:#fff;stroke-width:0px;}</style></defs><g id="Button_1_Shape"><path class="cls-1" d="M504.12,66.03c-15.04-7.12-29.62-28.93-47.3-40.45-13.75-8.96-27.58-14.11-34.85-12.46-2.05.46-5.16,2.13-5.66,4.2H150.17c-.5-2.07-3.61-3.74-5.66-4.2-7.27-1.65-21.09,3.5-34.85,12.46-17.68,11.52-32.27,33.33-47.3,40.45-13.08,6.2-21.2,5.38-23.95,3.51v37.73c2.76-1.87,10.87-2.69,23.95,3.51,15.04,7.12,29.62,28.93,47.3,40.45,13.75,8.96,27.58,14.11,34.85,12.46,2.05-.46,5.16-2.13,5.66-4.2h266.14c.5,2.07,3.61,3.74,5.66,4.2,7.27,1.65,21.09-3.5,34.85-12.46,17.68-11.52,32.27-33.33,47.3-40.45,13.08-6.2,21.2-5.38,23.95-3.51v-37.73c-2.76,1.87-10.87,2.69-23.95-3.51Z"/></g></svg>