<?xml version="1.0" encoding="UTF-8"?><svg id="Shape" xmlns="http://www.w3.org/2000/svg" viewBox="0 0 502.86 184.65"><defs><style>.cls-1{fill:#fff;stroke-width:0px;}</style></defs><path id="Button_15_Shape" class="cls-1" d="M471.36,37.79c-4.15-2.88-8.77-6.08-13.55-10.15h-127.38c6.49-2.62,10.16-5.6,10.16-8.76,0-10.43-39.92-18.88-89.17-18.88s-89.17,8.45-89.17,18.88c0,3.16,3.68,6.14,10.16,8.76H45.05c-4.79,4.07-9.4,7.27-13.55,10.15-12.93,8.96-20.06,13.9-20.06,36.22v81.08c6.27,1.19,12.13,5.01,17.51,11.4,3.65-2.49,6.92-4.03,8-4.52l2.45-1.1,2.69.24c1.04.09,105.11,9.26,209.35,9.26s208.31-9.16,209.35-9.26l2.69-.24,2.45,1.1c1.08.48,4.35,2.03,8,4.52,5.38-6.4,11.23-10.21,17.51-11.4v-81.08c0-22.32-7.12-27.25-20.06-36.22Z"/></svg>