<?xml version="1.0" encoding="UTF-8"?><svg id="Shape" xmlns="http://www.w3.org/2000/svg" viewBox="0 0 274.8 267.91"><defs><style>.cls-1{fill:#fff;stroke-width:0px;}</style></defs><path id="CircleFrame_4_Shape" class="cls-1" d="M242.72,125.18c0-37.4-19.41-70.26-48.68-89.01h0c-19.93-16.54-56.64-22.89-56.64-34.74,0,11.85-36.7,18.2-56.64,34.74,0,0,0,0,0,0-29.27,18.75-48.68,51.61-48.68,89.01s19.41,70.26,48.68,89.01c0,0,0,0,0,0,19.93,16.54,56.64,22.89,56.64,34.74,0-11.85,36.7-18.2,56.64-34.74,0,0,0,0,0,0,29.27-18.75,48.68-51.61,48.68-89.01Z"/></svg>