<?xml version="1.0" encoding="UTF-8"?><svg id="Shape" xmlns="http://www.w3.org/2000/svg" viewBox="0 0 248.66 278.68"><defs><style>.cls-1{fill:#fff;stroke-width:0px;}</style></defs><path id="CircleFrame_8_Shape" class="cls-1" d="M244.88,139.34c-.24-.28-.75-.54-1.49-.78-9.62-5.9-28.86-34.7-34.23-80.62-10.39-13.84-38.8-31.56-84.08-31.56s-73.69,17.73-84.08,31.56c-5.37,45.92-24.6,74.72-34.23,80.62-.74.24-1.25.49-1.49.78.24.28.75.54,1.49.78,9.62,5.9,28.86,34.7,34.23,80.62,10.39,13.84,38.8,31.56,84.08,31.56s73.69-17.73,84.08-31.56c5.37-45.92,24.6-74.72,34.23-80.62.74-.24,1.25-.49,1.49-.78Z"/></svg>