<?xml version="1.0" encoding="UTF-8"?><svg id="Shape" xmlns="http://www.w3.org/2000/svg" viewBox="0 0 298.43 298.43"><defs><style>.cls-1{fill:#fff;stroke-width:0px;}</style></defs><g id="Corner_8_Shape"><path class="cls-1" d="M43.48,173.77c2.58,9.55-3.08,19.38-12.63,21.96-9.55,2.58-19.38-3.08-21.96-12.63s4.44-52.31,4.44-52.31c0,0,27.57,33.43,30.15,42.98Z"/><path class="cls-1" d="M124.66,254.94c-9.55-2.58-19.38,3.08-21.96,12.63-2.58,9.55,3.08,19.38,12.63,21.96,9.55,2.58,52.31-4.44,52.31-4.44,0,0-33.43-27.57-42.98-30.15Z"/><path class="cls-1" d="M94.18,246.03c-11.64,11.64-30.52,11.64-42.16,0-11.64-11.64-11.64-30.52,0-42.16,11.64-11.64,79.15-37,79.15-37,0,0-25.35,67.51-37,79.15Z"/></g></svg>