<?xml version="1.0" encoding="UTF-8"?><svg id="Shape" xmlns="http://www.w3.org/2000/svg" viewBox="0 0 293.16 293.16"><defs><style>.cls-1{fill:#fff;stroke-width:0px;}</style></defs><g id="Corner_1_Shape"><path class="cls-1" d="M141.45,275.93c-.17-4.88-3.2-8.8-8.17-11.9-7.5-4.68-14.28-10.43-20.53-16.68l-66.98-66.98c-6.25-6.25-12-13.03-16.68-20.53-3.1-4.97-7.02-8-11.9-8.17-5.35-.19-8.01,2.56-9.3,5.84-1.93,4.93-.56,10.55,3.18,14.29l.25.25c14.63,14.63,22.17,34.94,20.47,55.56-1.27,15.41-3.34,29.25-5.95,39.67,10.42-2.6,24.26-4.68,39.67-5.95,20.62-1.7,40.93,5.84,55.56,20.47l.25.25c3.74,3.74,9.36,5.12,14.29,3.18,3.28-1.29,6.03-3.95,5.84-9.3Z"/></g></svg>