<?xml version="1.0" encoding="UTF-8"?><svg id="Shape" xmlns="http://www.w3.org/2000/svg" viewBox="0 0 586.86 586.86"><defs><style>.cls-1{fill:#fff;stroke-width:0px;}</style></defs><g id="DecorativeElement_6_Shape"><path class="cls-1" d="M170.78,497.65c4.12,16.15,82.6,25.2,122.65,25.2s118.53-9.05,122.65-25.2c5.65,15.2,22.99,22.9,49.56-3.97,29.85-30.19,65.81-93.97,67.17-164.87.51-26.59-6.3-35.38-14.89-35.38q-10.98,0,0,0c8.6,0,15.4-8.79,14.89-35.38-1.36-70.9-37.32-134.68-67.17-164.87-26.57-26.87-43.91-19.16-49.56-3.97-4.12-16.15-82.6-25.2-122.65-25.2s-118.52,9.05-122.65,25.2c-5.65-15.2-22.99-22.9-49.56,3.97-29.85,30.19-65.81,93.97-67.17,164.87-.51,26.59,6.3,35.38,14.89,35.38q10.98,0,0,0c-8.6,0-15.4,8.79-14.89,35.38,1.36,70.9,37.32,134.68,67.17,164.87,26.57,26.87,43.91,19.16,49.56,3.97Z"/></g></svg>