<?xml version="1.0" encoding="UTF-8"?><svg id="Shape" xmlns="http://www.w3.org/2000/svg" viewBox="0 0 617.81 642.97"><defs><style>.cls-1{fill:#fff;stroke-width:0px;}</style></defs><path id="DecorativeElement_5_Shape" class="cls-1" d="M547.04,321.48c0-84.4-43.88-158.54-110.07-200.85h0c-45.07-37.33-128.06-51.64-128.06-78.39,0,26.75-82.99,41.07-128.06,78.39,0,0,0,0,0,0-66.18,42.31-110.07,116.45-110.07,200.85s43.88,158.54,110.07,200.85c0,0,0,0,0,0,45.07,37.32,128.06,51.64,128.06,78.39,0-26.75,82.99-41.07,128.06-78.39,0,0,0,0,0,0,66.19-42.31,110.07-116.45,110.07-200.85Z"/></svg>