<?xml version="1.0" encoding="UTF-8"?><svg id="Shape" xmlns="http://www.w3.org/2000/svg" viewBox="0 0 630.02 630.02"><defs><style>.cls-1{fill:#fff;stroke-width:0px;}</style></defs><g id="DecorativeElement_4_Shape"><path class="cls-1" d="M541.02,315.01c0-45.86,8.08-109.47,39.69-141.08-33.61,0-65.89-11.75-98.21-26.4-14.66-32.32-26.4-64.6-26.4-98.21-31.61,31.61-95.21,39.69-141.08,39.69s-109.47-8.08-141.08-39.69c0,33.61-11.75,65.89-26.4,98.21-32.32,14.66-64.6,26.4-98.21,26.4,31.61,31.61,39.69,95.21,39.69,141.08s-8.08,109.47-39.69,141.08c33.61,0,65.89,11.75,98.21,26.4,14.66,32.32,26.4,64.6,26.4,98.21,31.61-31.61,95.21-39.69,141.08-39.69s109.47,8.08,141.08,39.69c0-33.61,11.75-65.89,26.4-98.22,32.32-14.66,64.6-26.4,98.21-26.4-31.61-31.61-39.69-95.21-39.69-141.08Z"/></g></svg>