<?xml version="1.0" encoding="UTF-8"?><svg id="Shape" xmlns="http://www.w3.org/2000/svg" viewBox="0 0 610 610"><defs><style>.cls-1{fill:#fff;stroke-width:0px;}</style></defs><g id="DecorativeElement_7_Shape"><path class="cls-1" d="M569.59,275c-13.8-123.09-111.5-220.78-234.59-234.59-18.05-15.15-30.02-29.49-30-40.41.02,10.92-11.95,25.26-30,40.41-123.09,13.8-220.78,111.5-234.59,234.59-15.15,18.05-29.49,30.02-40.41,30,10.92-.02,25.26,11.95,40.41,30,13.8,123.09,111.5,220.78,234.59,234.59,18.05,15.15,30.02,29.49,30,40.41-.02-10.92,11.95-25.26,30-40.41,123.09-13.8,220.78-111.5,234.59-234.59,15.15-18.05,29.49-30.02,40.41-30-10.92.02-25.26-11.95-40.41-30Z"/></g></svg>