<?xml version="1.0" encoding="UTF-8"?><svg id="Shape" xmlns="http://www.w3.org/2000/svg" viewBox="0 0 656.8 656.8"><defs><style>.cls-1{fill:#fff;stroke-width:0px;}</style></defs><g id="DecorativeElement_10_Shape"><path class="cls-1" d="M555,105.62c-8.99,6.9-39.03,5.08-58.68-6.14-98.42-70.87-232.08-70.87-330.5,0-19.66,11.23-49.69,13.04-58.68,6.14,6.9,8.99,5.08,39.03-6.14,58.68-70.87,98.42-70.87,232.07,0,330.5,11.23,19.66,13.04,49.69,6.14,58.68,8.99-6.9,39.03-5.08,58.68,6.14,98.42,70.87,232.08,70.87,330.5,0,19.66-11.23,49.69-13.04,58.68-6.14-6.9-8.99-5.08-39.03,6.14-58.68,70.87-98.42,70.87-232.07,0-330.5-11.23-19.66-13.04-49.69-6.14-58.68Z"/></g></svg>