<?xml version="1.0" encoding="UTF-8"?><svg id="Shape" xmlns="http://www.w3.org/2000/svg" viewBox="0 0 592.86 592.86"><defs><style>.cls-1{fill:#fff;stroke-width:0px;}</style></defs><g id="DecorativeElement_11_Shape"><path class="cls-1" d="M552.67,303.1l-6.67-6.67,6.67-6.67c15.5,6.7,83.27.35-83.33-166.25C302.75-43.09,296.4,24.69,303.1,40.18l-6.67,6.67-6.67-6.67c6.7-15.5.35-83.27-166.25,83.33C-43.09,290.11,24.69,296.46,40.18,289.76l6.67,6.67-6.67,6.67c-15.5-6.7-83.27-.35,83.33,166.25,166.6,166.6,172.95,98.82,166.25,83.33l6.67-6.67,6.67,6.67c-6.7,15.5-.35,83.27,166.25-83.33,166.6-166.6,98.82-172.95,83.33-166.25Z"/></g></svg>