<?xml version="1.0" encoding="UTF-8"?><svg id="Shape" xmlns="http://www.w3.org/2000/svg" viewBox="0 0 571.86 569.4"><defs><style>.cls-1{fill:#fff;stroke-width:0px;}</style></defs><g id="DecorativeElement_8_Shape"><path class="cls-1" d="M531.32,194c21.56,58.42,21.56,123,0,181.42-21.4,9.11-50.02,25.53-89.59,65.1-39.57,39.57-55.98,68.19-65.1,89.59-58.42,21.56-123,21.56-181.42,0-9.11-21.4-25.53-50.02-65.1-89.59-39.57-39.57-68.19-55.98-89.59-65.1-21.56-58.42-21.56-123,0-181.42,21.39-9.12,50.02-25.53,89.59-65.1,39.57-39.57,55.98-68.2,65.1-89.59,58.42-21.56,123-21.56,181.42,0,9.12,21.39,25.53,50.02,65.1,89.59,39.57,39.57,68.2,55.98,89.59,65.1Z"/></g></svg>