<?xml version="1.0" encoding="UTF-8"?><svg id="Shape" xmlns="http://www.w3.org/2000/svg" viewBox="0 0 580.86 580.86"><defs><style>.cls-1{fill:#fff;stroke-width:0px;}</style></defs><path id="DecorativeElement_12_Shape" class="cls-1" d="M290.43,545.92c0-12.59,20-22.19,45.08-33.16,61.79-12.38,114.56-49.7,147.36-101.03,0,0,0,0,0,0,35.76-43.2,49.48-122.74,75.11-122.74-25.63,0-39.35-79.54-75.11-122.74,0,0,0,0,0,0-32.8-51.33-85.58-88.65-147.36-101.03-25.09-10.97-45.09-20.57-45.08-33.16,0,12.59-20,22.19-45.08,33.16-61.79,12.38-114.56,49.7-147.36,101.03h0c-35.76,43.2-49.48,122.74-75.11,122.74,25.63,0,39.35,79.54,75.11,122.74,0,0,0,0,0,0,32.8,51.33,85.58,88.65,147.36,101.03,25.09,10.97,45.08,20.57,45.08,33.16Z"/></svg>