<?xml version="1.0" encoding="UTF-8"?><svg id="Shape" xmlns="http://www.w3.org/2000/svg" viewBox="0 0 233 229.05"><defs><style>.cls-1{fill:#fff;stroke-width:0px;}</style></defs><g id="Icon_12_Shape"><path class="cls-1" d="M232.85,68.42c-.53-3.81-3.57-10.04-8.09-10.7-.56-.08-1.01-.08-1.4-.02L132.18,4.94c1.51,2.18,2.48,4.83,2.76,6.83,1.74,12.52-11.28,34.29-31.81,55-26.4,26.63-72.42,45.56-89.59,68.87-22.53,30.58-11.25,46.27-6.23,39.75l90.99,52.64c-1.42-6.58.73-18.9,13.14-35.75,17.17-23.3,63.2-42.24,89.59-68.87,20.53-20.71,33.55-42.48,31.81-55Z"/></g></svg>