<?xml version="1.0" encoding="UTF-8"?><svg id="Shape" xmlns="http://www.w3.org/2000/svg" viewBox="0 0 246.02 272.01"><defs><style>.cls-1{fill:#fff;stroke-width:0px;}</style></defs><g id="Icon_18_Shape"><path class="cls-1" d="M120.56,64.21c-1.87-1.6.71-16.87.52-23.19-3.21-2.37-4.45-7.59-2.75-12.78.74-2.27,1.94-4.2,3.39-5.67.81-10.41,2.09-19.97,2.48-22.58-1.23,2.33-5.86,10.8-11.37,19.66.3,2.04.12,4.31-.62,6.58-1.7,5.19-5.8,8.66-9.78,8.66-3.89,4.98-10.85,18.81-13.3,18.99-1.6,1.87-16.85-.71-23.16-.53-2.36,3.21-7.58,4.46-12.77,2.75-2.26-.74-4.2-1.95-5.66-3.39-10.39-.81-19.95-2.1-22.55-2.48,2.32,1.23,10.78,5.86,19.63,11.38,2.04-.3,4.31-.12,6.57.63,5.18,1.7,8.65,5.8,8.65,9.79,4.97,3.89,18.79,10.86,18.97,13.32,1.87,1.6-.71,16.87-.52,23.19,3.21,2.37,4.45,7.59,2.75,12.78-.74,2.27-1.94,4.2-3.39,5.67-.81,10.41-2.09,19.97-2.48,22.58,1.23-2.33,5.86-10.8,11.37-19.66-.3-2.04-.12-4.31.62-6.58,1.7-5.19,5.8-8.66,9.78-8.66,3.89-4.98,10.85-18.81,13.3-18.99,1.6-1.87,16.85.71,23.16.53,2.36-3.21,7.58-4.46,12.77-2.75,2.26.74,4.2,1.95,5.66,3.39,10.39.81,19.95,2.1,22.55,2.48-2.32-1.23-10.78-5.86-19.63-11.38-2.04.3-4.31.12-6.57-.63-5.18-1.7-8.65-5.8-8.65-9.79-4.97-3.89-18.79-10.86-18.97-13.32Z"/><path class="cls-1" d="M167.21,202.36c-1.22-1.04.46-11.02.34-15.14-2.09-1.54-2.91-4.96-1.8-8.34.49-1.48,1.27-2.74,2.21-3.7.53-6.79,1.37-13.04,1.62-14.74-.8,1.52-3.82,7.05-7.42,12.83.19,1.33.08,2.82-.41,4.29-1.11,3.39-3.78,5.65-6.39,5.66-2.54,3.25-7.09,12.28-8.69,12.4-1.04,1.22-11-.46-15.12-.34-1.54,2.1-4.95,2.91-8.33,1.8-1.48-.49-2.74-1.27-3.7-2.22-6.79-.53-13.03-1.37-14.72-1.62,1.52.8,7.04,3.83,12.82,7.43,1.33-.2,2.81-.08,4.29.41,3.38,1.11,5.65,3.79,5.65,6.39,3.25,2.54,12.27,7.09,12.38,8.7,1.22,1.04-.46,11.02-.34,15.14,2.09,1.54,2.91,4.96,1.8,8.34-.49,1.48-1.27,2.74-2.21,3.7-.53,6.79-1.37,13.04-1.62,14.74.8-1.52,3.82-7.05,7.42-12.83-.19-1.33-.08-2.82.41-4.29,1.11-3.39,3.78-5.65,6.39-5.66,2.54-3.25,7.09-12.28,8.69-12.4,1.04-1.22,11,.46,15.12.34,1.54-2.1,4.95-2.91,8.33-1.8,1.48.49,2.74,1.27,3.7,2.22,6.79.53,13.03,1.37,14.72,1.62-1.52-.8-7.04-3.83-12.82-7.43-1.33.2-2.81.08-4.29-.41-3.38-1.11-5.65-3.79-5.65-6.39-3.25-2.54-12.27-7.09-12.38-8.7Z"/><path class="cls-1" d="M54,195.53c-.74-.63.28-6.67.21-9.16-1.27-.93-1.76-3-1.09-5.05.29-.9.77-1.66,1.34-2.24.32-4.11.83-7.89.98-8.92-.49.92-2.31,4.27-4.49,7.77.12.81.05,1.7-.25,2.6-.67,2.05-2.29,3.42-3.86,3.42-1.54,1.97-4.29,7.43-5.26,7.5-.63.74-6.66-.28-9.15-.21-.93,1.27-3,1.76-5.04,1.09-.89-.29-1.66-.77-2.24-1.34-4.11-.32-7.88-.83-8.91-.98.92.49,4.26,2.32,7.76,4.5.8-.12,1.7-.05,2.6.25,2.05.67,3.42,2.29,3.42,3.87,1.96,1.54,7.42,4.29,7.49,5.26.74.63-.28,6.67-.21,9.16,1.27.93,1.76,3,1.09,5.05-.29.9-.77,1.66-1.34,2.24-.32,4.11-.83,7.89-.98,8.92.49-.92,2.31-4.27,4.49-7.77-.12-.81-.05-1.7.25-2.6.67-2.05,2.29-3.42,3.86-3.42,1.54-1.97,4.29-7.43,5.26-7.5.63-.74,6.66.28,9.15.21.93-1.27,3-1.76,5.04-1.09.89.29,1.66.77,2.24,1.34,4.11.32,7.88.83,8.91.98-.92-.49-4.26-2.32-7.76-4.5-.8.12-1.7.05-2.6-.25-2.05-.67-3.42-2.29-3.42-3.87-1.96-1.54-7.42-4.29-7.49-5.26Z"/></g></svg>