<?xml version="1.0" encoding="UTF-8"?><svg id="Shape" xmlns="http://www.w3.org/2000/svg" viewBox="0 0 226.37 226.37"><defs><style>.cls-1{fill:#fff;stroke-width:0px;}</style></defs><g id="Icon_4_Shape"><path class="cls-1" d="M221.06,92.08c-11.72-28.04-7.62-73.83,5.31-92.08-18.25,12.94-64.04,17.03-92.08,5.31,3.52,8.42-30.57,54.61-40.52,75.8,6.66,13.2,2.04,32.56-12.27,46.86-6.25,6.25-13.46,10.65-20.71,13.07-20.08,33.05-40.33,62.54-45.97,70.5,7.96-5.64,37.44-25.89,70.5-45.97,2.42-7.24,6.82-14.46,13.07-20.71,14.3-14.3,33.67-18.93,46.86-12.27,21.19-9.95,67.38-44.03,75.8-40.52Z"/><path class="cls-1" d="M86.8,47.13c-9.63-7.62-17.55-26.69-16.92-37.51-3.5,10.26-18.04,24.93-29.83,28.35,2.89,2.29.83,30.07,1.79,41.19,4.92,3.26,7.3,12.15,5.4,21.82-.83,4.23-2.36,8-4.3,11.02-.03,18.65-.84,35.95-1.12,40.67,1.53-4.47,7.31-20.8,14.33-38.08-.66-3.52-.65-7.6.18-11.82,1.9-9.67,7.46-17.01,13.24-18.16,5.09-9.93,13.68-36.44,17.22-37.46Z"/><path class="cls-1" d="M170.54,137.01c6.55,6.06,21.98,9.76,30.43,8.22-7.84,3.51-18.48,15.28-20.46,23.98-1.97-1.82-23.63,2.43-32.41,2.86-2.85-3.16-9.96-3.95-17.43-1.64-3.26,1.01-6.14,2.47-8.38,4.15-14.63,1.89-28.15,4.2-31.83,4.87,3.42-1.53,15.88-7.27,29.02-13.97,2.8.11,6-.3,9.26-1.32,7.47-2.31,12.89-6.99,13.46-11.2,7.49-4.61,27.76-13.34,28.36-15.95Z"/></g></svg>