<?xml version="1.0" encoding="UTF-8"?><svg id="Shape" xmlns="http://www.w3.org/2000/svg" viewBox="0 0 224.08 224.08"><defs><style>.cls-1{fill:#fff;stroke-width:0px;}</style></defs><g id="Icon_10_Shape"><path class="cls-1" d="M125.31,83.69s10.46-7.73,10.46-22.56c0-14.83-8.74-28.87-24.23-42.44-15.49,13.57-24.23,27.61-24.23,42.44,0,14.83,10.46,22.56,10.46,22.56l-14.08,14.08s-7.73-10.46-22.56-10.46c-14.83,0-28.87,8.74-42.44,24.23,13.57,15.49,27.61,24.23,42.44,24.23,14.83,0,22.56-10.46,22.56-10.46l15.07,15.07s-10.46,7.73-10.46,22.56c0,14.83,8.74,28.87,24.23,42.44,15.49-13.57,24.23-27.61,24.23-42.44,0-14.83-10.46-22.56-10.46-22.56l14.08-14.08s7.73,10.46,22.56,10.46c14.83,0,28.87-8.74,42.44-24.23-13.57-15.49-27.61-24.23-42.44-24.23-14.83,0-22.56,10.46-22.56,10.46l-15.07-15.07Z"/></g></svg>