<?xml version="1.0" encoding="UTF-8"?><svg id="Shape" xmlns="http://www.w3.org/2000/svg" viewBox="0 0 209.43 240.38"><defs><style>.cls-1{fill:#fff;stroke-width:0px;}</style></defs><g id="Icon_5_Shape"><path class="cls-1" d="M178.44,14.22l1.22,3.79c0-1.46-.33-2.83-1.22-3.79Z"/><path class="cls-1" d="M179.66,18.02c0,2.18-.79,4.55-1.68,6.01-4.87,8.01-22.3,14.74-43.45,17.5-27.19,3.55-61.76-6.14-82.23-.38-26.86,7.56-27.87,21.67-22.02,20.16l27.93,87.11c2.44-4.41,9.4-10.37,23.86-14.43,20.47-5.76,55.05,3.93,82.23.38,21.14-2.76,38.58-9.49,43.45-17.5,1.48-2.43,2.69-7.39.46-9.8l-28.55-89.04Z"/></g></svg>