<?xml version="1.0" encoding="UTF-8"?><svg id="Shape" xmlns="http://www.w3.org/2000/svg" viewBox="0 0 242.44 233"><defs><style>.cls-1{fill:#fff;stroke-width:0px;}</style></defs><path id="Icon_6_Shape" class="cls-1" d="M38.18,115.83c0,29.5,15.3,55.41,38.38,70.2h0c15.72,13.05,44.66,18.05,44.66,27.4,0-9.35,28.94-14.35,44.66-27.4,0,0,0,0,0,0,23.08-14.79,38.38-40.7,38.38-70.2,0-29.5-15.3-55.41-38.38-70.2,0,0,0,0,0,0-15.72-13.05-44.66-18.05-44.66-27.4,0,9.35-28.94,14.35-44.66,27.4,0,0,0,0,0,0-23.08,14.79-38.38,40.7-38.38,70.2Z"/></svg>