<?xml version="1.0" encoding="UTF-8"?><svg id="Shape" xmlns="http://www.w3.org/2000/svg" viewBox="0 0 275.97 295"><defs><style>.cls-1{fill:#fff;stroke-width:0px;}</style></defs><path id="SquareFrame_7_Shape" class="cls-1" d="M230.54,43.98c-53.16-6.61-86.5-30.29-93.33-42.14-.27-.91-.57-1.54-.9-1.84-.33.29-.63.92-.9,1.84-6.83,11.85-40.17,35.53-93.33,42.14C26.06,56.77,5.54,91.76,5.54,147.5s20.52,90.73,36.54,103.52c53.16,6.61,86.5,30.29,93.33,42.14.27.91.57,1.54.9,1.84,0,0,0,0,0,0h0s0,0,0,0h0c.33-.29.63-.92.9-1.84,6.83-11.85,40.17-35.53,93.33-42.14,16.02-12.79,36.54-47.77,36.54-103.52s-20.52-90.73-36.54-103.52Z"/></svg>