<?xml version="1.0" encoding="UTF-8"?><svg id="Shape" xmlns="http://www.w3.org/2000/svg" viewBox="0 0 242.56 241.04"><defs><style>.cls-1{fill:#fff;stroke-width:0px;}</style></defs><g id="SquareFrame_2_Shape"><path class="cls-1" d="M232.75,31.82c-11.18,0-18.37-3.1-23.46-8.77-7.19,0-60.2,0-70.27,0s-17.74-11.61-17.74-11.61c0,0-7.67,11.61-17.74,11.61-10.07,0-63.07,0-70.27,0-5.09,5.67-12.28,8.77-23.46,8.77v161.51c11.18,0,18.37,3.1,23.46,8.77,7.19,0,60.2,0,70.27,0s17.74,11.61,17.74,11.61c0,0,7.67-11.61,17.74-11.61,10.07,0,63.07,0,70.27,0,5.09-5.67,12.28-8.77,23.46-8.77V31.82Z"/></g></svg>