<?xml version="1.0" encoding="UTF-8"?><svg id="Shape" xmlns="http://www.w3.org/2000/svg" viewBox="0 0 976.28 672.86"><defs><style>.cls-1{fill:#fff;stroke-width:0px;}</style></defs><g id="Window_6_Shape"><path class="cls-1" d="M895.47,281.78s.03-.06.04-.09c7.06-15.42,5.97-48.61-1.86-83.43-10.06-44.78-39.94-87.47-43.81-124.3-3.12-29.71,1.89-47.06,6.51-53.62H119.93c4.62,6.56,9.63,23.92,6.51,53.62-3.87,36.82-33.74,79.52-43.81,124.3-7.83,34.83-8.92,68.02-1.86,83.43.01.03.03.06.04.09,0,0,17.92,19.94,17.92,48.67v244.47c15.87,17.71,24.56,42.73,24.56,81.62h729.7c0-38.88,8.69-63.91,24.56-81.62v-244.47c0-28.73,17.92-48.67,17.92-48.67Z"/></g></svg>